<svg viewBox="0 0 20 20" xmlns="http://www.w3.org/2000/svg"><path fill-rule="evenodd" d="M1 3.5A1.5 1.5 0 012.5 2h15A1.5 1.5 0 0119 3.5v2A1.5 1.5 0 0117.5 7h-15A1.5 1.5 0 011 5.5v-2zm3.5 1a1 1 0 11-2 0 1 1 0 012 0zM1 9.5A1.5 1.5 0 012.5 8h6.073a1.5 1.5 0 011.342 2.17l-1 2a1.5 1.5 0 01-1.342.83H2.5A1.5 1.5 0 011 11.5v-2zm3.5 1a1 1 0 11-2 0 1 1 0 012 0zM1 15.5A1.5 1.5 0 012.5 14h5.27a1.5 1.5 0 011.471 1.206l.4 2A1.5 1.5 0 018.171 19H2.5A1.5 1.5 0 011 17.5v-2zm3.5 1a1 1 0 11-2 0 1 1 0 012 0zM12.159 13.059l-.682-.429a.987.987 0 01-.452-.611.946.946 0 01.134-.742.983.983 0 01.639-.425 1.023 1.023 0 01.758.15l.682.427c.369-.31.8-.54 1.267-.676V9.97c0-.258.104-.504.291-.686.187-.182.44-.284.704-.284.264 0 .517.102.704.284a.957.957 0 01.291.686v.783c.472.138.903.37 1.267.676l.682-.429a1.02 1.02 0 01.735-.107c.25.058.467.208.606.419.14.21.19.465.141.71a.97.97 0 01-.403.608l-.682.429a3.296 3.296 0 010 1.882l.682.43a.987.987 0 01.452.611.946.946 0 01-.134.742.982.982 0 01-.639.425 1.02 1.02 0 01-.758-.15l-.682-.428c-.369.31-.8.54-1.267.676v.783a.957.957 0 01-.291.686A1.01 1.01 0 0115.5 19a1.01 1.01 0 01-.704-.284.957.957 0 01-.291-.686v-.783a3.503 3.503 0 01-1.267-.676l-.682.429a1.02 1.02 0 01-.75.132.999.999 0 01-.627-.421.949.949 0 01-.135-.73.97.97 0 01.434-.61l.68-.43a3.296 3.296 0 010-1.882zm3.341-.507c-.82 0-1.487.65-1.487 1.449s.667 1.448 1.487 1.448c.82 0 1.487-.65 1.487-1.448 0-.8-.667-1.45-1.487-1.45z" fill="#5C5F62"/></svg>
