<svg viewBox="0 0 16 20" xmlns="http://www.w3.org/2000/svg"><g fill="none" fill-rule="evenodd"><path fill="#FFF" d="M12 3l-2 2H6.001L4 3H1v16h14.001V3z"/><path d="M12.414 2L10.707.293A.997.997 0 0 0 10 0H6a.997.997 0 0 0-.707.293L3.586 2H1a1 1 0 0 0-1 1v16a1 1 0 0 0 1 1h14a1 1 0 0 0 1-1V3a1 1 0 0 0-1-1h-2.586zM14 18H2V4h1.586l1.707 1.707A.997.997 0 0 0 6 6h4c.265 0 .52-.105.707-.293L12.414 4H14v14zM6.414 2h3.172l1 1-1 1H6.414l-1-1 1-1zM7 12.586l-1.293-1.293a.999.999 0 1 0-1.414 1.414l2 2a.997.997 0 0 0 1.414 0l4-4a.999.999 0 1 0-1.414-1.414L7 12.586z" fill="#919EAB"/></g></svg>