<svg viewBox="0 0 20 20" xmlns="http://www.w3.org/2000/svg"><path d="M17 13a1 1 0 0 1 1 1v3a1 1 0 0 1-1 1H3a1 1 0 0 1-1-1v-3a1 1 0 1 1 2 0v2h12v-2a1 1 0 0 1 1-1zm0-11a1 1 0 0 1 1 1v3a1 1 0 1 1-2 0V4H4v2a1 1 0 1 1-2 0V3a1 1 0 0 1 1-1h14zm.555 7.168a1.001 1.001 0 0 1 0 1.664l-3 2a1 1 0 0 1-1.109-1.664L15.198 10l-1.752-1.168a1 1 0 1 1 1.109-1.664l3 2zM6.832 7.445a1 1 0 0 1-.277 1.387L4.803 10l1.752 1.168a1 1 0 1 1-1.11 1.664l-3-2a1.001 1.001 0 0 1 0-1.664l3-2a1 1 0 0 1 1.387.277zM9 14.001a1 1 0 0 1-.948-1.317l2-6a1 1 0 0 1 1.896.633l-2 6A.999.999 0 0 1 9 14z" fill="#31373D" fill-rule="evenodd"/></svg>
