<svg viewBox="0 0 20 20" xmlns="http://www.w3.org/2000/svg"><g fill="none" fill-rule="evenodd"><path fill="#FFF" d="M2 3h11.312l-.108 8.134-9.103.16"/><path fill="#FFF" d="M8 15h11l-2-4 2-4h-6v4H8"/><path d="M18.118 11l1.776 3.553A1 1 0 0 1 19 16H8a1 1 0 0 1-1-1v-4a1 1 0 0 1 1-1h4V7a1 1 0 0 1 1-1h6a1 1 0 0 1 .894 1.447L18.118 11zm-.736 3l-1.276-2.553c-.14-.28-.14-.613 0-.894L17.382 8H14v3a1 1 0 0 1-1 1H9v2h8.382z" fill="currentColor" fill-rule="nonzero"/><path d="M12 10H4a1 1 0 0 0 0 2h9a1 1 0 0 0 1-1V3a1 1 0 0 0-1-1H2a1 1 0 0 0 0 2h10v6z" fill="currentColor" fill-rule="nonzero"/><path d="M5.976 18.783l-4-18a1 1 0 1 0-1.953.434l4 18a1 1 0 1 0 1.954-.434z" fill="currentColor" fill-rule="nonzero"/></g></svg>