<svg xmlns="http://www.w3.org/2000/svg" viewBox="0 0 20 20"><path fill="currentColor" d="M1 13h5l1 2h6l1-2h5v6H1z"/><path d="M2 18h16v-4h-3.382l-.723 1.447c-.17.339-.516.553-.895.553H7c-.379 0-.725-.214-.895-.553L5.382 14H2v4zM19 1a1 1 0 0 1 1 1v17a1 1 0 0 1-1 1H1a1 1 0 0 1-1-1V2a1 1 0 0 1 1-1h4a1 1 0 0 1 0 2H2v9h4c.379 0 .725.214.895.553L7.618 14h4.764l.723-1.447c.17-.339.516-.553.895-.553h4V3h-3a1 1 0 0 1 0-2h4zM6.293 6.707a.999.999 0 1 1 1.414-1.414L9 6.586V1a1 1 0 0 1 2 0v5.586l1.293-1.293a.999.999 0 1 1 1.414 1.414l-3 3a.997.997 0 0 1-1.414 0l-3-3z"/></svg>
