<svg width="45" height="45" viewBox="0 0 45 45" fill="none" xmlns="http://www.w3.org/2000/svg">
<path d="M43 14L31 2L24 9L36 21L43 14Z" fill="#5C5F62"/>
<path d="M21 12L33 24L29.3318 35.9216C29.1259 36.5909 28.5848 37.1038 27.9054 37.2737L5.57969 42.8551C5.08772 42.9781 4.74629 42.375 5.10487 42.0165L13.3238 33.7975C13.6914 33.9286 14.0874 34 14.5 34C16.433 34 18 32.433 18 30.5C18 28.567 16.433 27 14.5 27C12.567 27 11 28.567 11 30.5C11 30.9126 11.0714 31.3086 11.2025 31.6761L2.98356 39.8951C2.62498 40.2537 2.02194 39.9123 2.14494 39.4203L7.72635 17.0947C7.8962 16.4152 8.40908 15.8741 9.07846 15.6682L21 12Z" fill="#5C5F62"/>
</svg>
