<svg width="45" height="45" viewBox="0 0 45 45" fill="none" xmlns="http://www.w3.org/2000/svg">
<path fill-rule="evenodd" clip-rule="evenodd" d="M10.5 24H18.4514C15.7587 25.9543 14 29.1559 14 32.7667V38H3.5C3.39637 38 3.29522 37.9895 3.19753 37.9695C2.51373 37.8296 2 37.2245 2 36.5V32.5C2 27.813 5.813 24 10.5 24ZM30 21C34.418 21 38 17.418 38 13C38 8.582 34.418 5 30 5C25.582 5 22 8.582 22 13C22 17.418 25.582 21 30 21ZM12.5 21C16.09 21 19 18.09 19 14.5C19 10.91 16.09 8 12.5 8C8.91 8 6 10.91 6 14.5C6 18.09 8.91 21 12.5 21ZM43 33.5V37.5C43 37.8105 42.9056 38.0991 42.744 38.3385C42.5563 38.6164 42.2779 38.8281 41.9511 38.931C41.8087 38.9758 41.6572 39 41.5 39H18.5C18.3964 39 18.2952 38.9895 18.1975 38.9695C17.8485 38.8981 17.5438 38.7055 17.3291 38.4376C17.1231 38.1808 17 37.8547 17 37.5V33.5C17 28.262 21.262 24 26.5 24H34C39.131 24 43 28.084 43 33.5Z" fill="#5C5F62"/>
</svg>
