<svg width="45" height="45" viewBox="0 0 45 45" fill="none" xmlns="http://www.w3.org/2000/svg">
<path fill-rule="evenodd" clip-rule="evenodd" d="M12.9796 29.2534C12.8436 28.4364 12.0686 27.8814 11.2536 28.0204C10.4366 28.1564 9.88459 28.9294 10.0206 29.7464L12.0206 41.7464C12.1426 42.4804 12.7786 43.0004 13.4986 43.0004C13.5806 43.0004 13.6636 42.9934 13.7466 42.9794C14.5636 42.8434 15.1156 42.0704 14.9796 41.2534L12.9796 29.2534ZM34.7606 23.0234C33.9486 22.8794 33.1666 23.4234 33.0226 24.2394L30.0226 41.2394C29.8786 42.0554 30.4236 42.8334 31.2396 42.9774C31.3276 42.9924 31.4156 43.0004 31.5016 43.0004C32.2156 43.0004 32.8486 42.4884 32.9776 41.7604L35.9776 24.7604C36.1216 23.9444 35.5766 23.1674 34.7606 23.0234ZM28.4128 18.0004H32.0378C32.7868 18.0004 33.4668 17.5874 33.8118 16.9224C34.1578 16.2584 34.1048 15.4644 33.6298 14.7904L24.4768 3.04737C24.0078 2.39137 23.2478 2.00037 22.4418 2.00037C21.6358 2.00037 20.8748 2.39237 20.4388 3.00437L11.3258 14.8514C10.8958 15.4644 10.8428 16.2584 11.1888 16.9224C11.5338 17.5874 12.2138 18.0004 12.9628 18.0004H16.5878L19 43C20.7127 43 24.4233 43 26 43L28.4128 18.0004Z" fill="#5C5F62"/>
</svg>
