<svg width="45" height="45" viewBox="0 0 45 45" fill="none" xmlns="http://www.w3.org/2000/svg">
<g clip-path="url(#clip0)">
<path d="M22 7.872C19.901 4.506 16.273 1.172 11.067 2.185C7.47501 2.889 4.63001 4.855 2.85301 7.882L2.85201 7.884C0.866006 11.298 0.449006 15.74 1.73801 19.794C2.63101 22.608 4.87501 26.32 8.14601 30.189C11.424 34.067 15.761 38.134 20.878 41.65L20.879 41.651C21.211 41.878 21.609 42.001 22.001 42.001" fill="#5C5F62"/>
<path d="M43 15.039C43 16.099 42.89 17.169 42.67 18.229C42.07 17.959 41.43 17.769 40.76 17.639L40.75 17.629C38.58 17.219 36.83 17.799 35.5 18.709C34.16 17.799 32.41 17.219 30.25 17.629L30.24 17.639C28.02 18.069 25.95 19.369 24.71 21.479C23.39 23.729 23.17 26.509 23.96 28.979C24.51 30.709 25.76 32.639 27.28 34.429C27.93 35.189 28.66 35.959 29.46 36.699C27.52 38.419 25.4 40.089 23.12 41.649C22.79 41.879 22.39 41.999 22 41.999V7.86901C24.1 4.50901 27.73 1.16901 32.93 2.18901C36.52 2.88901 39.37 4.85901 41.15 7.87901C42.37 9.98901 43 12.479 43 15.039Z" fill="#5C5F62"/>
<path d="M35.5001 22.996C34.6011 21.566 33.0461 20.149 30.8141 20.579C29.3501 20.864 28.0561 21.706 27.2941 23.001C26.4431 24.452 26.2641 26.34 26.8161 28.063C27.1991 29.259 28.1601 30.837 29.5621 32.481C30.9671 34.129 32.8261 35.858 35.0181 37.352C35.1601 37.448 35.3311 37.501 35.4991 37.501" fill="#5C5F62"/>
<path d="M35.5 22.996C36.399 21.566 37.954 20.149 40.186 20.579C41.725 20.879 42.945 21.714 43.706 23.001C44.557 24.452 44.737 26.34 44.184 28.063C43.801 29.259 42.84 30.837 41.438 32.481C40.033 34.129 38.174 35.858 35.982 37.352C35.84 37.448 35.669 37.501 35.501 37.501" fill="#5C5F62"/>
</g>
<defs>
<clipPath id="clip0">
<rect width="43.5" height="40.001" fill="white" transform="translate(1 2)"/>
</clipPath>
</defs>
</svg>
