<svg width="45" height="45" viewBox="0 0 45 45" fill="none" xmlns="http://www.w3.org/2000/svg">
<path fill-rule="evenodd" clip-rule="evenodd" d="M43 25.5C43 30.741 40.949 35.6 37.07 39.551C36.776 39.85 36.389 40 36 40C35.9165 40 35.833 39.9931 35.7504 39.9792C35.669 39.9929 35.5853 40 35.5 40H9.5C9.41556 40 9.33276 39.993 9.25211 39.9796C8.78485 40.059 8.28769 39.9155 7.92999 39.551C4.05099 35.599 2 30.74 2 25.5C2 14.196 11.196 5 22.5 5C33.804 5 43 14.196 43 25.5ZM24.504 22.145C24.563 22.232 24.641 22.38 24.726 22.554C24.7304 22.5646 24.7355 22.5748 24.7407 22.5852C24.7439 22.5914 24.747 22.5976 24.75 22.604C25.778 24.744 28.342 32.232 28.342 32.232C28.342 32.232 22.319 27.097 20.707 25.354C20.7 25.3475 20.6938 25.3405 20.6875 25.3335C20.6813 25.3265 20.675 25.3195 20.668 25.313C20.538 25.17 20.43 25.044 20.369 24.957C19.593 23.814 19.889 22.26 21.03 21.483C22.172 20.707 23.728 21.002 24.504 22.145ZM22.5 9.5C21.6716 9.5 21 10.1716 21 11C21 11.8284 21.6716 12.5 22.5 12.5C29.6797 12.5 35.5 18.3203 35.5 25.5C35.5 28.3485 34.5856 30.9789 33.0341 33.1198C32.5479 33.7905 32.6976 34.7284 33.3684 35.2146C34.0392 35.7007 34.977 35.551 35.4632 34.8802C37.3734 32.2446 38.5 29.0016 38.5 25.5C38.5 16.6634 31.3366 9.5 22.5 9.5Z" fill="#5C5F62"/>
</svg>
