<svg xmlns="http://www.w3.org/2000/svg" viewBox="0 0 16 16"><path fill="#000" d="M13.35 3.08a.15.15 0 00-.14-.13L12 2.93 10.96 1.9c-.09-.09-.28-.06-.34-.04l-.48.14a3.77 3.77 0 00-.23-.56c-.34-.65-.84-1-1.43-1-.04 0-.08 0-.13.02L8.3.4a1.22 1.22 0 00-1-.4c-.77.03-1.54.58-2.16 1.58a6.4 6.4 0 00-.88 2.25c-.89.27-1.5.47-1.52.48-.45.14-.46.15-.52.58C2.2 5.2 1 14.29 1 14.29L10.85 16l4.27-1.06c-.02-.01-1.76-11.78-1.77-11.86zm-3.7-.91l-.76.23c0-.39-.05-.94-.23-1.4.58.11.86.77.99 1.17zm-1.29.4l-1.65.5c.16-.6.46-1.21.83-1.61.14-.14.33-.31.55-.41.23.45.28 1.08.27 1.52zM7.32.52c.18 0 .33.04.46.11-.2.12-.41.28-.6.48a4.6 4.6 0 00-1.02 2.14l-1.36.41C5.07 2.43 6.12.56 7.32.52zm1.14 4.63L7.97 7s-.55-.26-1.2-.2c-.97.06-.97.67-.97.82.05.83 2.23 1 2.35 2.95.1 1.54-.8 2.58-2.11 2.66-1.57.1-2.44-.83-2.44-.83L3.94 11s.86.65 1.56.6c.45-.02.62-.4.6-.66-.06-1.08-1.84-1.01-1.95-2.8-.1-1.49.88-3.01 3.05-3.14.84-.06 1.26.16 1.26.16z"/></svg>
