<svg width="45" height="45" viewBox="0 0 45 45" fill="none" xmlns="http://www.w3.org/2000/svg">
<path fill-rule="evenodd" clip-rule="evenodd" d="M30.9116 15.8481C31.5456 16.3791 31.6306 17.3231 31.1016 17.9581L21.6016 28.9581C21.3516 29.2621 20.9936 29.4561 20.6016 29.4981H20.4516C20.0816 29.4961 19.7256 29.3571 19.4516 29.1081L13.9516 24.1081C13.3886 23.5011 13.4236 22.5521 14.0306 21.9881C14.5626 21.4941 15.3716 21.4521 15.9516 21.8881L20.2916 25.8381L28.7916 16.0381C29.3236 15.4031 30.2696 15.3201 30.9046 15.8521C30.9076 15.8541 30.9096 15.8561 30.9116 15.8581V15.8481ZM17.5355 42.0002C16.1355 42.0002 14.7905 41.3452 13.9335 40.1742L12.0095 37.5442C11.8265 37.2942 11.5735 37.1122 11.2775 37.0182L8.1535 36.0202C6.3045 35.4302 5.0635 33.7412 5.0675 31.8192L5.0735 28.5722C5.0735 28.2632 4.9775 27.9692 4.7935 27.7212L2.8595 25.0962C1.7135 23.5442 1.7135 21.4572 2.8595 19.9032L4.7935 17.2802C4.9775 17.0322 5.0735 16.7372 5.0735 16.4292L5.0675 13.1812C5.0635 11.2592 6.3045 9.5712 8.1535 8.9802L11.2775 7.9832C11.5735 7.8882 11.8265 7.7062 12.0095 7.4562L13.9335 4.8262C15.0735 3.2692 17.0795 2.6212 18.9275 3.2212L22.0475 4.2302C22.3445 4.3262 22.6575 4.3262 22.9515 4.2302H22.9525L26.0725 3.2212C27.9185 2.6212 29.9255 3.2682 31.0665 4.8262L32.9905 7.4562C33.1735 7.7062 33.4265 7.8882 33.7225 7.9822L36.8465 8.9802C38.6955 9.5712 39.9365 11.2592 39.9325 13.1812L39.9265 16.4282C39.9265 16.7372 40.0225 17.0322 40.2065 17.2802L42.1405 19.9042C43.2865 21.4572 43.2865 23.5442 42.1405 25.0972L40.2065 27.7202C40.0225 27.9692 39.9265 28.2632 39.9265 28.5712L39.9325 31.8192C39.9365 33.7412 38.6955 35.4302 36.8465 36.0202L33.7225 37.0172C33.4265 37.1122 33.1735 37.2942 32.9905 37.5442L31.0665 40.1742C29.9265 41.7312 27.9185 42.3772 26.0725 41.7802L22.9525 40.7702C22.6555 40.6752 22.3425 40.6752 22.0485 40.7702L18.9275 41.7802C18.4675 41.9282 17.9985 42.0002 17.5355 42.0002" fill="#5C5F62"/>
</svg>
