<svg width="800" height="199" viewBox="0 0 800 199" fill="none" xmlns="http://www.w3.org/2000/svg">
<path d="M8.31632 29.2598H248.031C252.251 29.2598 255.674 32.6925 255.674 36.9306V190.589C255.674 194.827 252.251 198.26 248.031 198.26H8.31632C4.09713 198.26 0.673828 194.827 0.673828 190.589V36.9306C0.673828 32.6925 4.09713 29.2598 8.31632 29.2598Z" fill="#F6F6F7" stroke="#E1E3E5"/>
<path d="M43.9161 57.2532H43.761L43.6331 57.341L0.5 86.9601V60.251L44.5453 29.2744H73.9101V198.26H45.1225V57.7532V57.2532H44.6225H43.9161Z" fill="#EBEBEB" stroke="#E1E3E5"/>
<path d="M110.253 108.783L125.017 121.286C125.275 121.35 125.535 121.42 125.795 121.497C131.003 123.025 134.754 126.53 135.289 129.986L149.731 142.218C150.084 142.299 150.439 142.392 150.795 142.497C156.101 144.054 159.896 147.663 160.315 151.182L173.631 162.46C173.726 162.484 173.821 162.51 173.916 162.536C174.006 162.561 174.097 162.587 174.188 162.614C179.318 164.12 183.035 167.544 183.655 170.95L198.02 183.115L193.713 197.757H125.906L65.0195 145.115L65.2414 144.172L65.0195 145.039L72.7433 111.142C72.7898 110.91 72.9526 110.724 73.1853 110.631L86.8961 105.251L87.0453 104.734C87.0647 104.654 87.0862 104.573 87.1097 104.493C88.2385 100.647 93.7607 98.8373 99.7271 100.217L99.9857 100.115L99.7464 100.221L99.7545 100.223L100.02 100.115L100.31 100.361C100.472 100.404 100.633 100.449 100.795 100.497C105.901 101.995 109.607 105.393 110.253 108.783Z" fill="#450AB5"/>
<line x1="84.6782" y1="70.9873" x2="75.6782" y2="108.987" stroke="#F55BAB" stroke-width="2" stroke-dasharray="4 4"/>
<line x1="105.366" y1="82.9873" x2="101.678" y2="98.5566" stroke="#F55BAB" stroke-width="2" stroke-dasharray="4 4"/>
<line x1="179.678" y1="119.987" x2="170.678" y2="157.987" stroke="#F55BAB" stroke-width="2" stroke-dasharray="4 4"/>
<line x1="153.678" y1="129.987" x2="144.678" y2="167.987" stroke="#F55BAB" stroke-width="2" stroke-dasharray="4 4"/>
<path d="M117.997 21.5292L103.234 9.02582C102.587 5.6365 98.881 2.23854 93.7756 0.739942C93.6138 0.692457 93.4522 0.647337 93.2908 0.604566L93 0.358259L92.735 0.46623C92.7323 0.4656 92.7296 0.46497 92.7269 0.464341L92.9662 0.358398L92.7076 0.459871C86.7411 -0.919513 81.219 0.890241 80.0901 4.73598C80.0667 4.8161 80.0452 4.89667 80.0258 4.97735L79.8765 5.49427L66.1658 10.8738C65.9331 10.9669 65.7703 11.153 65.7237 11.3857L58 45.2817L58.2219 44.4153L58 45.3583L154 128.358L181 117.358L191 83.3583L176.636 71.1927C176.016 67.7869 172.299 64.363 167.168 62.8571C167.077 62.8305 166.987 62.8046 166.896 62.7795C166.801 62.7532 166.706 62.7276 166.612 62.7029L153.296 51.4253C152.876 47.9065 149.082 44.2974 143.776 42.7399C143.42 42.6355 143.065 42.5425 142.711 42.4607L128.269 30.229C127.735 26.7731 123.983 23.2685 118.776 21.7399C118.516 21.6636 118.256 21.5934 117.997 21.5292Z" fill="#7E48FA"/>
<path d="M153.5 69.8584C154.291 64.3287 159.175 61.1889 171.38 64.6916C170.136 63.9413 168.717 63.3124 167.169 62.8581C160.807 60.9907 154.679 62.7797 153.483 66.8541C153.453 66.9586 153.425 67.0612 153.4 67.1623L151.604 73.3806C151.582 73.4455 151.561 73.5111 151.542 73.5773C151.277 74.4783 151.276 75.4156 151.504 76.3493L153.5 69.8584Z" fill="#84A3F3" style="mix-blend-mode:hard-light"/>
<path d="M130.106 49.7402C130.896 44.2105 135.78 41.0707 147.986 44.5734C146.741 43.8232 145.322 43.1943 143.774 42.74C137.412 40.8725 131.285 42.6616 130.089 46.7359C130.058 46.8405 130.03 46.9431 130.005 47.0442L128.209 53.2625C128.187 53.3274 128.167 53.3929 128.147 53.4591C127.883 54.3601 127.882 55.2975 128.109 56.2312L130.106 49.7402Z" fill="#84A3F3" style="mix-blend-mode:hard-light"/>
<path d="M105.107 28.7402C105.897 23.2105 110.781 20.0707 122.987 23.5734C121.742 22.8232 120.323 22.1943 118.775 21.74C112.413 19.8725 106.286 21.6616 105.09 25.7359C105.059 25.8405 105.031 25.9431 105.006 26.0442L103.21 32.2625C103.188 32.3274 103.168 32.3929 103.148 32.4591C102.884 33.3601 102.883 34.2975 103.11 35.2312L105.107 28.7402Z" fill="#84A3F3" style="mix-blend-mode:hard-light"/>
<path d="M80.1069 7.74023C80.8972 2.21052 85.781 -0.929308 97.9865 2.57345C96.7423 1.82316 95.3231 1.19428 93.7753 0.739959C87.413 -1.12749 81.2858 0.661561 80.0899 4.73592C80.0592 4.84048 80.0313 4.94308 80.0062 5.04417L78.2103 11.2625C78.1883 11.3274 78.1676 11.3929 78.1482 11.4591C77.8837 12.3601 77.8826 13.2975 78.11 14.2312L80.1069 7.74023Z" fill="#84A3F3" style="mix-blend-mode:hard-light"/>
<path d="M79.6581 6.24898L68.4224 11.2225C68.0502 11.3854 67.9804 11.8739 68.2828 12.1298L163.969 94.2294L66.9567 13.4792C66.6543 13.2233 66.1658 13.3628 66.0727 13.7583L58 45.2814L65.7237 11.3854C65.7703 11.1527 65.9331 10.9666 66.1658 10.8736L79.8761 5.49414L79.6581 6.24898Z" fill="#84A3F3" style="mix-blend-mode:hard-light"/>
<path d="M80.0083 5.01953L78.2113 11.2419L80.0072 5.02424L80.0083 5.01953Z" fill="#A3ABD9" style="mix-blend-mode:multiply"/>
<path d="M78.1111 14.2109C78.9122 17.4993 82.5486 20.7427 87.5039 22.1972C92.4059 23.636 97.1683 22.9041 99.6432 20.6288C97.7707 22.3503 94.5888 23.1883 91.0277 22.8711L104.441 27.9816L103.211 32.2425C103.189 32.3074 103.168 32.3729 103.149 32.4391C101.953 36.5135 106.141 41.3303 112.503 43.1977C113.845 43.5915 115.176 43.8227 116.452 43.9042C116.311 43.8952 116.169 43.8844 116.027 43.8717L129.281 49.5349L130.006 47.0242C130.031 46.9232 130.059 46.8205 130.09 46.716C130.877 44.035 133.799 42.3435 137.518 42.0322C139.161 41.8946 140.96 42.0264 142.799 42.4613L128.243 30.0553C128.374 30.775 128.367 31.4937 128.206 32.1935L128.204 32.1982L128.203 32.2045C128.181 32.2962 128.157 32.3876 128.13 32.4786C128.108 32.5554 128.084 32.6314 128.058 32.7065L126.26 38.9309L128.057 32.7087C126.701 36.6197 120.686 38.3065 114.445 36.4746C109.6 35.0523 106.015 31.9195 105.11 28.7068C105.109 28.7113 105.109 28.7158 105.108 28.7203L103.111 35.2112C102.884 34.2775 102.884 33.3401 103.149 32.4391C103.168 32.3729 103.189 32.3074 103.211 32.2425L105.007 26.0242C105.025 25.951 105.045 25.877 105.066 25.802C105.074 25.7733 105.082 25.7446 105.091 25.716C106.062 22.4054 110.289 20.6037 115.253 21.0462C116.029 21.1154 116.823 21.2394 117.626 21.4211C117.759 21.4513 117.893 21.4831 118.027 21.5166L103.244 9.05476C103.375 9.77439 103.368 10.4931 103.206 11.1929C103.184 11.2884 103.159 11.3838 103.131 11.4786C103.108 11.5585 103.083 11.6375 103.055 11.7156L101.26 17.9303L103.055 11.7181C101.693 15.6224 95.6824 17.305 89.4462 15.4746C84.5996 14.052 81.0146 10.918 80.1102 7.70448C80.1094 7.70975 80.1087 7.71503 80.1079 7.72031L78.1111 14.2109Z" fill="#A3ABD9" style="mix-blend-mode:multiply"/>
<path d="M130.109 49.7045C130.108 49.7097 130.108 49.715 130.107 49.7203L128.11 56.2112C127.911 55.3942 127.887 54.5745 128.061 53.7787C127.185 57.7778 131.316 62.3827 137.503 64.1987C138.696 64.5489 139.881 64.7706 141.026 64.8726L152.828 69.1212L151.603 73.3623C151.581 73.4272 151.561 73.4928 151.541 73.559C150.345 77.6334 154.534 82.4501 160.896 84.3176C162.089 84.6678 163.274 84.8895 164.42 84.9915L176.379 89.2969L164 94.3403L154 128.34L181 117.34L191 83.3403L176.637 71.1759C176.749 71.7948 176.759 72.4132 176.657 73.0193C176.641 73.1172 176.621 73.2148 176.599 73.312L176.598 73.3133C176.576 73.4082 176.552 73.5026 176.524 73.5967C175.328 77.6711 169.201 79.4602 162.839 77.5927C157.993 76.1705 154.407 73.0512 153.501 69.8385L151.505 76.3294C151.277 75.3957 151.278 74.4584 151.543 73.5574C151.562 73.4912 151.583 73.4256 151.605 73.3607L153.401 67.1424C153.419 67.0691 153.439 66.9951 153.46 66.9201C153.468 66.8914 153.476 66.8627 153.484 66.8341C154.351 63.8812 157.808 62.1287 162.067 62.0986C163.318 62.0898 164.637 62.2293 165.981 62.5306C166.202 62.5801 166.423 62.6339 166.645 62.6922L153.297 51.4154C153.349 51.86 153.347 52.303 153.288 52.7403C153.27 52.8819 153.243 53.031 153.205 53.1944C153.183 53.2895 153.158 53.3842 153.13 53.4786C151.935 57.553 145.807 59.342 139.445 57.4746C134.599 56.052 131.014 52.918 130.109 49.7045Z" fill="#A3ABD9" style="mix-blend-mode:multiply"/>
<path d="M87.1265 107.497C87.9167 101.967 92.8006 98.8275 105.006 102.33C103.762 101.58 102.343 100.951 100.795 100.497C94.4325 98.6293 88.3053 100.418 87.1094 104.493C87.0788 104.597 87.0508 104.7 87.0257 104.801L86.8956 105.251L73.1853 110.631C72.9526 110.724 72.7898 110.91 72.7433 111.143L65.0195 145.039L73.0922 113.516C73.1853 113.12 73.6738 112.981 73.9763 113.236L170.988 193.987L75.3023 111.887C74.9999 111.631 75.0697 111.143 75.4419 110.98L86.6776 106.006L85.2298 111.019C85.2078 111.084 85.1871 111.15 85.1677 111.216C84.9033 112.117 84.9021 113.054 85.1295 113.988L87.1265 107.497Z" fill="#B5AAFD" style="mix-blend-mode:hard-light"/>
<path d="M130.006 123.33C117.801 119.828 112.917 122.967 112.126 128.497L110.13 134.988C109.902 134.054 109.903 133.117 110.168 132.216C110.187 132.15 110.208 132.084 110.23 132.019L112.026 125.801C112.051 125.7 112.079 125.597 112.109 125.493C113.305 121.418 119.432 119.629 125.795 121.497C127.343 121.951 128.762 122.58 130.006 123.33Z" fill="#B5AAFD" style="mix-blend-mode:hard-light"/>
<path d="M137.125 149.497C137.916 143.967 142.8 140.828 155.005 144.33C153.761 143.58 152.342 142.951 150.794 142.497C144.432 140.629 138.304 142.418 137.108 146.493C137.078 146.597 137.05 146.7 137.025 146.801L135.229 153.019C135.207 153.084 135.186 153.15 135.167 153.216C134.902 154.117 134.901 155.054 135.129 155.988L137.125 149.497Z" fill="#B5AAFD" style="mix-blend-mode:hard-light"/>
<path d="M160.52 169.615C161.31 164.086 166.194 160.946 178.4 164.448C177.155 163.698 175.736 163.069 174.188 162.615C167.826 160.748 161.699 162.537 160.503 166.611C160.472 166.715 160.444 166.818 160.419 166.919L158.623 173.137C158.601 173.202 158.581 173.268 158.561 173.334C158.297 174.235 158.296 175.172 158.523 176.106L160.52 169.615Z" fill="#B5AAFD" style="mix-blend-mode:hard-light"/>
<path d="M87.0279 104.776L85.2308 110.999L87.0267 104.781L87.0279 104.776Z" fill="#0B0050" style="mix-blend-mode:multiply"/>
<path d="M85.1306 113.968C85.9318 117.256 89.5682 120.5 94.5234 121.954C98.6069 123.153 102.593 122.845 105.242 121.393C103.367 122.421 100.822 122.875 98.0472 122.628L111.461 127.738L110.23 131.999L112.027 125.781C112.045 125.708 112.065 125.634 112.086 125.559C112.094 125.53 112.102 125.501 112.11 125.473C113.082 122.162 117.309 120.361 122.273 120.803C123.049 120.872 123.843 120.996 124.645 121.178C124.779 121.208 124.913 121.24 125.046 121.273L110.264 108.812C110.395 109.531 110.387 110.25 110.226 110.95C110.204 111.045 110.179 111.141 110.151 111.235C110.128 111.315 110.102 111.394 110.075 111.472L108.28 117.687L110.074 111.475C108.712 115.379 102.702 117.062 96.4657 115.231C91.6192 113.809 88.0342 110.675 87.1297 107.461L87.1274 107.477L85.1306 113.968Z" fill="#0B0050" style="mix-blend-mode:multiply"/>
<path d="M110.116 132.387C109.104 136.42 113.26 141.116 119.523 142.955C120.864 143.348 122.195 143.58 123.472 143.661C123.331 143.652 123.189 143.641 123.047 143.629L136.301 149.292L137.026 146.781C137.051 146.68 137.079 146.577 137.109 146.473C137.896 143.792 140.818 142.1 144.538 141.789C146.181 141.651 147.98 141.783 149.819 142.218L135.263 129.812C135.394 130.532 135.387 131.251 135.225 131.95L135.224 131.955L135.222 131.961C135.201 132.053 135.177 132.144 135.15 132.235C135.127 132.312 135.103 132.388 135.077 132.463L133.279 138.688L135.076 132.465C133.721 136.377 127.706 138.063 121.465 136.231C116.619 134.809 113.035 131.676 112.129 128.464L112.127 128.477L110.131 134.968C109.919 134.1 109.905 133.229 110.116 132.387Z" fill="#0B0050" style="mix-blend-mode:multiply"/>
<path d="M137.126 149.477L137.129 149.461C138.033 152.675 141.618 155.809 146.465 157.231C152.827 159.099 158.954 157.31 160.15 153.235C160.178 153.141 160.203 153.046 160.225 152.951C160.262 152.788 160.29 152.639 160.308 152.497C160.367 152.06 160.369 151.617 160.316 151.172L173.664 162.449C173.443 162.391 173.221 162.337 173 162.287C171.657 161.986 170.337 161.847 169.087 161.855C164.827 161.886 161.37 163.638 160.504 166.591C160.498 166.609 160.493 166.627 160.488 166.645L160.479 166.677C160.458 166.752 160.438 166.826 160.42 166.899L158.624 173.118C158.602 173.182 158.582 173.248 158.562 173.314C158.298 174.215 158.297 175.153 158.524 176.086L160.521 169.595C161.427 172.808 165.013 175.927 169.858 177.35C176.221 179.217 182.348 177.428 183.544 173.354C183.571 173.259 183.596 173.165 183.618 173.07L183.618 173.069C183.641 172.972 183.66 172.874 183.677 172.776C183.779 172.17 183.769 171.552 183.656 170.933L198.019 183.097L193.708 197.757H169.943L171.019 194.097L183.399 189.054L171.439 184.748C170.294 184.646 169.109 184.425 167.915 184.074C161.553 182.207 157.365 177.39 158.561 173.316C158.58 173.25 158.601 173.184 158.623 173.119L159.848 168.878L148.046 164.629C146.9 164.527 145.715 164.306 144.522 163.956C138.335 162.14 134.204 157.535 135.081 153.536C134.907 154.331 134.931 155.151 135.13 155.968L137.126 149.477Z" fill="#0B0050" style="mix-blend-mode:multiply"/>
<path d="M526.081 194.973L526.076 194.981C526.066 194.996 526.056 195.009 526.031 195.039L526.029 195.043C526.008 195.069 525.976 195.109 525.943 195.157C524.569 197.037 522.348 198.26 519.822 198.26H280.309C276.099 198.26 272.674 194.842 272.674 190.611V36.9084C272.674 32.678 276.099 29.2598 280.309 29.2598H519.822C524.029 29.2598 527.433 32.6761 527.433 36.9084V190.611C527.433 192.235 526.931 193.747 526.081 194.973Z" fill="#F6F6F7" stroke="#E1E3E5"/>
<mask id="path-18-inside-1_1235_76398" fill="white">
<path fill-rule="evenodd" clip-rule="evenodd" d="M272.174 68.6415C278.221 44.9483 300.985 28.9941 329.686 28.9941C362.848 28.9941 386.026 49.2648 386.026 76.8329V77.0645C386.026 96.756 376.961 110.077 347.816 138.34L311.327 173.321V174.595H388.551V198.76H280.309C276.036 198.76 272.522 195.455 272.198 191.247V178.649L330.719 121.081C352.406 99.6518 357.11 91.1961 357.11 78.802V78.5703C356.996 63.628 345.865 52.9714 329.916 52.9714C311.556 52.9714 298.705 65.3655 298.36 81.4662V82.277H272.174V68.6415Z"/>
</mask>
<path fill-rule="evenodd" clip-rule="evenodd" d="M272.174 68.6415C278.221 44.9483 300.985 28.9941 329.686 28.9941C362.848 28.9941 386.026 49.2648 386.026 76.8329V77.0645C386.026 96.756 376.961 110.077 347.816 138.34L311.327 173.321V174.595H388.551V198.76H280.309C276.036 198.76 272.522 195.455 272.198 191.247V178.649L330.719 121.081C352.406 99.6518 357.11 91.1961 357.11 78.802V78.5703C356.996 63.628 345.865 52.9714 329.916 52.9714C311.556 52.9714 298.705 65.3655 298.36 81.4662V82.277H272.174V68.6415Z" fill="#EBEBEB"/>
<path d="M272.174 68.6415L271.205 68.3942L271.174 68.5159V68.6415H272.174ZM347.816 138.34L348.508 139.062L348.512 139.058L347.816 138.34ZM311.327 173.321L310.635 172.599L310.327 172.895V173.321H311.327ZM311.327 174.595H310.327V175.595H311.327V174.595ZM388.551 174.595H389.551V173.595H388.551V174.595ZM388.551 198.76V199.76H389.551V198.76H388.551ZM272.198 191.247H271.198V191.286L271.201 191.324L272.198 191.247ZM272.198 178.649L271.497 177.937L271.198 178.23V178.649H272.198ZM330.719 121.081L331.42 121.794L331.422 121.792L330.719 121.081ZM357.11 78.5703L358.11 78.5703L358.11 78.5627L357.11 78.5703ZM298.36 81.4662L297.361 81.4448L297.36 81.4555V81.4662H298.36ZM298.36 82.277V83.277H299.36V82.277H298.36ZM272.174 82.277H271.174V83.277H272.174V82.277ZM329.686 27.9941C300.624 27.9941 277.387 44.1719 271.205 68.3942L273.143 68.8889C279.055 45.7247 301.347 29.9941 329.686 29.9941V27.9941ZM387.026 76.8329C387.026 48.5728 363.249 27.9941 329.686 27.9941V29.9941C362.446 29.9941 385.026 49.9568 385.026 76.8329H387.026ZM387.026 77.0645V76.8329H385.026V77.0645H387.026ZM348.512 139.058C377.648 110.803 387.026 97.2175 387.026 77.0645H385.026C385.026 96.2946 376.274 109.35 347.12 137.622L348.512 139.058ZM312.019 174.043L348.508 139.062L347.124 137.618L310.635 172.599L312.019 174.043ZM312.327 174.595V173.321H310.327V174.595H312.327ZM388.551 173.595H311.327V175.595H388.551V173.595ZM389.551 198.76V174.595H387.551V198.76H389.551ZM388.551 197.76H280.309V199.76H388.551V197.76ZM280.309 197.76C276.563 197.76 273.48 194.862 273.195 191.171L271.201 191.324C271.565 196.049 275.509 199.76 280.309 199.76V197.76ZM271.198 178.649V191.247H273.198V178.649H271.198ZM330.017 120.368L271.497 177.937L272.9 179.362L331.42 121.794L330.017 120.368ZM356.11 78.802C356.11 84.8282 354.978 89.8574 351.195 96.0307C347.376 102.261 340.856 109.659 330.016 120.369L331.422 121.792C342.269 111.074 348.944 103.53 352.9 97.0759C356.89 90.5656 358.11 85.1699 358.11 78.802H356.11ZM356.11 78.5703V78.802H358.11V78.5703H356.11ZM329.916 53.9714C337.664 53.9714 344.179 56.5571 348.764 60.8939C353.345 65.2281 356.055 71.3629 356.11 78.578L358.11 78.5627C358.051 70.8354 355.138 64.1708 350.138 59.441C345.141 54.714 338.116 51.9714 329.916 51.9714V53.9714ZM299.36 81.4875C299.692 65.9867 312.042 53.9714 329.916 53.9714V51.9714C311.07 51.9714 297.718 64.7442 297.361 81.4448L299.36 81.4875ZM299.36 82.277V81.4662H297.36V82.277H299.36ZM272.174 83.277H298.36V81.277H272.174V83.277ZM273.174 82.277V68.6415H271.174V82.277H273.174Z" fill="#E1E3E5" mask="url(#path-18-inside-1_1235_76398)"/>
<path d="M386.297 50.7622C386.297 50.7622 392.254 61.8203 401.718 54.8968C411.152 47.961 399.743 36.4803 399.743 36.4803L386.297 50.7622Z" fill="#F98C00"/>
<path d="M370.466 67.0929C370.466 67.0929 382.762 75.6461 388.41 68.5572C394.057 61.4683 388.828 55.2161 384.249 52.0783L380.67 49.7773L366.934 65.2103L370.49 67.0929H370.466Z" fill="#F98C00"/>
<path d="M329.955 99.2361C329.955 99.2361 329.862 99.3291 329.839 99.3755C326.492 102.815 322.936 104.28 321.797 104.698C321.774 104.721 321.75 104.721 321.75 104.721C321.704 104.721 321.681 104.721 321.657 104.721C321.634 104.721 321.611 104.745 321.588 104.745C321.518 104.745 321.472 104.745 321.448 104.745H321.425L273.174 110.625V38.248L293.371 44.0122L293.813 44.1284L294.348 44.2911L309.897 48.7071L330.048 54.448C341.344 79.8287 336.045 92.8677 329.955 99.2361V99.2361Z" fill="#FEC535"/>
<path d="M418.276 25.7212C418.114 26.2093 417.858 26.6509 417.509 27.0228C417.138 27.4412 416.626 27.7898 415.999 28.0455C415.975 28.0455 415.929 28.0919 415.906 28.0919C416.092 28.2082 416.301 28.3476 416.463 28.5103C416.44 28.5103 416.417 28.5335 416.371 28.5568C416.347 28.5568 416.301 28.6033 416.254 28.6033C415.929 28.3476 415.58 28.0919 415.208 27.8595C414.651 27.4644 414.046 27.139 413.442 26.8369C413.419 26.8369 413.396 26.8136 413.372 26.7904C412.768 26.4882 412.14 26.2326 411.513 26.0234C410.885 25.8142 410.258 25.6282 409.584 25.4888C409.561 25.4888 409.514 25.4888 409.491 25.4888C408.817 25.3493 408.119 25.2331 407.422 25.1866C406.725 25.1169 406.004 25.0937 405.284 25.0937C404.563 25.0937 403.866 25.1402 403.146 25.1866C403.146 25.1866 403.099 25.1866 403.076 25.1866C403.029 22.3046 403.959 19.6317 405.237 17.3307C406.19 17.1913 407.143 17.0983 408.119 17.075C409.932 17.0053 411.745 17.075 413.465 17.6329C414.534 17.9583 415.534 18.5393 416.371 19.2831C418.16 20.8636 419.136 23.2343 418.253 25.7445L418.276 25.7212Z" fill="#FEC535"/>
<path d="M418.834 34.3436V34.3901C418.811 34.762 418.764 35.1106 418.671 35.4593C418.509 36.1333 418.276 36.7841 417.928 37.4116C417.858 37.5511 417.765 37.6673 417.672 37.8067C417.602 37.9229 417.533 38.0159 417.44 38.1321C417.37 38.2483 417.277 38.3646 417.184 38.4575C417.091 38.5737 416.998 38.6899 416.905 38.7829C414.232 41.7347 410.234 43.0595 406.33 43.873C404.865 44.1752 403.448 44.547 402.03 44.9886C401.89 44.733 401.774 44.4773 401.635 44.2216C401.426 43.78 401.24 43.3617 401.054 42.9433C402.82 42.432 404.633 41.9904 406.446 41.5952C408.933 41.0839 411.443 40.3866 413.535 38.9456C415.627 37.5046 417.114 35.1571 417.207 32.6237C417.3 29.8346 414.72 27.3709 414.465 27.1152C414.488 27.1152 414.558 27.1617 414.65 27.185C415.092 27.4406 415.487 27.7428 415.906 28.0682C417.626 29.0908 418.834 31.9961 418.834 34.3436Z" fill="#A9A8A8"/>
<path d="M418.834 34.3436V34.3901C418.834 34.7387 418.811 35.0874 418.741 35.3895C418.602 36.11 418.323 36.7841 417.928 37.4116C417.858 37.5511 417.765 37.6673 417.672 37.8067C417.602 37.9229 417.533 38.0159 417.44 38.1321C417.37 38.2483 417.277 38.3646 417.184 38.4575C417.091 38.5737 416.998 38.6899 416.905 38.7829C414.232 41.7347 410.234 43.0595 406.33 43.873C404.865 44.1752 403.448 44.547 402.03 44.9886C401.89 44.733 401.774 44.4773 401.635 44.2216C401.426 43.78 401.24 43.3617 401.054 42.9433C402.82 42.432 404.633 41.9904 406.446 41.5952C408.933 41.0839 411.443 40.3866 413.535 38.9456C415.627 37.5046 417.114 35.1571 417.207 32.6237C417.3 29.8346 414.72 27.3709 414.465 27.1152C414.488 27.1152 414.558 27.1617 414.65 27.185C415.092 27.4406 415.487 27.7428 415.906 28.0682C417.626 29.0908 418.834 31.9961 418.834 34.3436V34.3436Z" fill="#F98C00"/>
<path d="M330.048 54.4716C345.667 43.0828 362.239 32.8097 380.043 25.2327C388.921 21.4907 397.916 16.8887 407.771 16.7725C409.7 16.7027 411.699 16.9119 413.512 17.6092C411.629 17.1443 409.7 17.1908 407.794 17.4C398.799 18.2367 389.107 23.5128 380.949 27.2315C363.331 35.041 346.783 44.9655 330.025 54.4716H330.048Z" fill="#FEC535"/>
<path d="M396.102 95.1459C394.731 100.143 387.735 102.328 379.554 103.118C378.95 101.909 378.485 100.724 378.183 99.6085C378.647 99.562 379.112 99.5387 379.554 99.4923C387.689 98.7253 394.661 96.5405 396.079 91.5898C396.428 92.6358 396.451 93.8211 396.079 95.1459H396.102Z" fill="#F98C00"/>
<path d="M426.038 54.0781C421.924 55.0775 417.74 55.6819 413.51 55.891C417.624 54.8916 421.808 54.2873 426.038 54.0781Z" fill="#7EDECD" style="mix-blend-mode:hard-light"/>
<path d="M527.174 190.611V173.26L365.174 160.76L337.174 178.76V197.76L522.674 196.76C525.231 195.376 527.174 193.696 527.174 190.611Z" fill="#450AB5"/>
<path d="M526.329 194.197C526.154 194.55 525.955 194.887 525.733 195.207C525.71 195.242 525.687 195.271 525.664 195.3C525.641 195.329 525.617 195.358 525.594 195.394C524.13 197.401 521.759 197.743 519.063 197.743L337.174 197.794V178.76L526.329 194.197Z" fill="#0B0050"/>
<path d="M384.174 159.26C384.174 157.327 379.249 155.76 373.174 155.76C367.099 155.76 362.174 157.327 362.174 159.26V166.26C362.174 168.193 367.099 169.76 373.174 169.76C379.249 169.76 384.174 168.193 384.174 166.26V159.26Z" fill="#450AB5"/>
<path d="M484.174 167.26C484.174 165.327 479.249 163.76 473.174 163.76C467.099 163.76 462.174 165.327 462.174 167.26V174.26C462.174 176.193 467.099 177.76 473.174 177.76C479.249 177.76 484.174 176.193 484.174 174.26V167.26Z" fill="#450AB5"/>
<path d="M471.174 176.26C471.174 174.327 466.249 172.76 460.174 172.76C454.099 172.76 449.174 174.327 449.174 176.26V183.26C449.174 185.193 454.099 186.76 460.174 186.76C466.249 186.76 471.174 185.193 471.174 183.26V176.26Z" fill="#450AB5"/>
<path d="M450.174 177.725C449.184 175.91 450.938 172.529 465.721 173.237C464.092 172.934 462.197 172.76 460.174 172.76C454.099 172.76 449.174 174.327 449.174 176.26V183.26C449.174 183.781 449.532 184.275 450.174 184.72V177.725Z" fill="#B5AAFD" style="mix-blend-mode:hard-light"/>
<path d="M450.17 177.717C450.171 177.72 450.173 177.722 450.174 177.725V184.72C451.913 185.924 455.737 186.76 460.174 186.76C466.249 186.76 471.174 185.193 471.174 183.26V176.26C471.174 178.193 466.249 179.76 460.174 179.76C455.733 179.76 451.907 178.922 450.17 177.717Z" fill="#0B0050" style="mix-blend-mode:multiply"/>
<path d="M450.174 164.26C450.174 162.327 445.249 160.76 439.174 160.76C433.099 160.76 428.174 162.327 428.174 164.26V171.26C428.174 173.193 433.099 174.76 439.174 174.76C445.249 174.76 450.174 173.193 450.174 171.26V164.26Z" fill="#450AB5"/>
<path d="M437.174 173.26C437.174 171.327 432.249 169.76 426.174 169.76C420.099 169.76 415.174 171.327 415.174 173.26V180.26C415.174 182.193 420.099 183.76 426.174 183.76C432.249 183.76 437.174 182.193 437.174 180.26V173.26Z" fill="#450AB5"/>
<path d="M370.174 168.26C370.174 166.327 365.249 164.76 359.174 164.76C353.099 164.76 348.174 166.327 348.174 168.26V175.26C348.174 177.193 353.099 178.76 359.174 178.76C365.249 178.76 370.174 177.193 370.174 175.26V168.26Z" fill="#450AB5"/>
<path d="M349.174 169.725C348.184 167.91 349.938 164.529 364.721 165.237C363.092 164.934 361.197 164.76 359.174 164.76C353.099 164.76 348.174 166.327 348.174 168.26V175.26C348.174 175.781 348.532 176.275 349.174 176.72V169.725Z" fill="#B5AAFD" style="mix-blend-mode:hard-light"/>
<path d="M349.17 169.717C349.171 169.72 349.173 169.722 349.174 169.725V176.72C350.913 177.924 354.737 178.76 359.174 178.76C365.249 178.76 370.174 177.193 370.174 175.26V168.26C370.174 170.193 365.249 171.76 359.174 171.76C354.733 171.76 350.907 170.922 349.17 169.717Z" fill="#0B0050" style="mix-blend-mode:multiply"/>
<path d="M378.721 156.237C363.938 155.529 362.184 158.91 363.174 160.725V164.998C362.848 164.958 362.514 164.922 362.174 164.892V159.26C362.174 157.327 367.099 155.76 373.174 155.76C375.197 155.76 377.092 155.934 378.721 156.237Z" fill="#B5AAFD" style="mix-blend-mode:hard-light"/>
<path d="M362.261 164.9C366.833 165.324 370.174 166.668 370.174 168.26V169.628C371.127 169.714 372.134 169.76 373.174 169.76C379.249 169.76 384.174 168.193 384.174 166.26V159.26C384.174 161.193 379.249 162.76 373.174 162.76C368.733 162.76 364.907 161.922 363.17 160.717C363.171 160.72 363.172 160.722 363.174 160.725V164.998C363.008 164.978 362.841 164.958 362.671 164.94C362.536 164.926 362.399 164.912 362.261 164.9Z" fill="#0B0050" style="mix-blend-mode:multiply"/>
<path d="M478.721 164.237C463.938 163.529 462.184 166.91 463.174 168.725V172.892C462.846 172.862 462.513 172.837 462.174 172.817V167.26C462.174 165.327 467.099 163.76 473.174 163.76C475.197 163.76 477.092 163.934 478.721 164.237Z" fill="#B5AAFD" style="mix-blend-mode:hard-light"/>
<path d="M463.174 172.892C467.791 173.307 471.174 174.658 471.174 176.26V177.702C471.823 177.74 472.491 177.76 473.174 177.76C479.249 177.76 484.174 176.193 484.174 174.26V167.26C484.174 169.193 479.249 170.76 473.174 170.76C468.733 170.76 464.907 169.922 463.17 168.717C463.171 168.72 463.173 168.722 463.174 168.725V172.892Z" fill="#0B0050" style="mix-blend-mode:multiply"/>
<path d="M424.5 123.809C424.5 121.876 419.575 120.309 413.5 120.309C407.424 120.309 402.5 121.876 402.5 123.809V124.519L397.931 127.405C393.095 127.773 389.5 129.157 389.5 130.809V132.73L377.5 140.309V182.086L411 184.809L436.5 166.632V125.309L424.5 124.128V123.809Z" fill="#26E7AF"/>
<path d="M416.17 174.717C416.171 174.72 416.173 174.722 416.174 174.725V181.72C417.913 182.924 421.737 183.76 426.174 183.76C432.249 183.76 437.174 182.193 437.174 180.26V173.26C437.174 175.193 432.249 176.76 426.174 176.76C421.733 176.76 417.907 175.922 416.17 174.717Z" fill="#0B0050" style="mix-blend-mode:multiply"/>
<path d="M403.5 125.273C402.51 123.458 404.264 120.078 419.047 120.786C417.418 120.482 415.523 120.309 413.5 120.309C407.424 120.309 402.5 121.876 402.5 123.809V127.366C401.851 127.328 401.183 127.309 400.5 127.309C394.424 127.309 389.5 128.876 389.5 130.809V137.809C389.5 138.33 389.858 138.824 390.5 139.269V132.273C389.51 130.458 391.264 127.078 406.047 127.786C405.255 127.638 404.401 127.521 403.5 127.44V125.273Z" fill="#7EDECD" style="mix-blend-mode:hard-light"/>
<path d="M403.5 127.44C408.117 127.856 411.5 129.206 411.5 130.809C411.5 130.815 411.5 130.822 411.5 130.829C411.465 132.753 406.553 134.309 400.5 134.309C396.059 134.309 392.233 133.471 390.496 132.266L390.5 132.273V139.269C392.239 140.473 396.063 141.309 400.5 141.309C406.575 141.309 411.5 139.742 411.5 137.809L411.5 134.251C412.148 134.289 412.817 134.309 413.5 134.309C419.575 134.309 424.5 132.742 424.5 130.809V123.809C424.5 125.742 419.575 127.309 413.5 127.309C409.059 127.309 405.233 126.471 403.496 125.266L403.5 125.273V127.44Z" fill="#3DA5A3" style="mix-blend-mode:multiply"/>
<path d="M411 142.809L377.5 140.309V182.09L411 184.809L436.5 166.627V125.309L411 142.809Z" fill="#3DA5A3" style="mix-blend-mode:multiply"/>
<path d="M429.174 169.892C433.791 170.307 437.174 171.658 437.174 173.26V174.702C437.823 174.74 438.491 174.76 439.174 174.76C445.249 174.76 450.174 173.193 450.174 171.26V164.26C450.174 166.193 445.249 167.76 439.174 167.76C434.733 167.76 430.907 166.922 429.17 165.717C429.171 165.72 429.173 165.722 429.174 165.725V169.892Z" fill="#0B0050" style="mix-blend-mode:multiply"/>
<ellipse cx="439.174" cy="164.26" rx="11" ry="3.5" fill="#450AB5"/>
<ellipse cx="426.174" cy="173.26" rx="11" ry="3.5" fill="#450AB5"/>
<path d="M444.721 161.237C429.938 160.529 428.184 163.91 429.174 165.725V169.892C428.846 169.862 428.513 169.837 428.174 169.817V164.26C428.174 162.327 433.099 160.76 439.174 160.76C441.197 160.76 443.092 160.934 444.721 161.237Z" fill="#450AB5"/>
<path d="M444.721 161.237C429.938 160.529 428.184 163.91 429.174 165.725V169.892C428.846 169.862 428.513 169.837 428.174 169.817V164.26C428.174 162.327 433.099 160.76 439.174 160.76C441.197 160.76 443.092 160.934 444.721 161.237Z" fill="#B5AAFD" style="mix-blend-mode:hard-light"/>
<path d="M416.174 174.725C415.184 172.91 416.938 169.529 431.721 170.237C430.092 169.934 428.197 169.76 426.174 169.76C420.099 169.76 415.174 171.327 415.174 173.26V180.26C415.174 180.781 415.532 181.275 416.174 181.72V174.725Z" fill="#450AB5"/>
<path d="M416.174 174.725C415.184 172.91 416.938 169.529 431.721 170.237C430.092 169.934 428.197 169.76 426.174 169.76C420.099 169.76 415.174 171.327 415.174 173.26V180.26C415.174 180.781 415.532 181.275 416.174 181.72V174.725Z" fill="#B5AAFD" style="mix-blend-mode:hard-light"/>
<path d="M506.174 124.768C512.249 124.768 517.174 126.335 517.174 128.268V132.152L527.174 132.768V190.619C527.174 191.904 526.872 193.119 526.336 194.199L472.174 189.768V147.268L484.174 138.468V137.268C484.174 135.926 486.547 134.76 490.03 134.173L494.674 130.768L495.174 130.798V128.268C495.174 126.335 500.099 124.768 506.174 124.768Z" fill="#26E7AF"/>
<path d="M496.174 129.732C495.184 127.917 496.938 124.537 511.721 125.245C510.092 124.941 508.197 124.768 506.174 124.768C500.099 124.768 495.174 126.335 495.174 128.268L495.174 133.768C495.174 133.768 495.174 133.768 495.174 133.768C489.099 133.768 484.174 135.335 484.174 137.268V144.268C484.174 144.789 484.532 145.283 485.174 145.728V138.732C484.184 136.917 485.938 133.537 500.721 134.245C499.364 133.992 497.821 133.829 496.174 133.782V129.732Z" fill="#7EDECD" style="mix-blend-mode:hard-light"/>
<path d="M527.174 136.864C522.557 137.174 519.174 138.216 519.174 139.818V146.439C519.174 146.961 519.532 147.382 520.174 147.826V141.162C519.422 139.783 520.253 137.831 527.174 137.281V136.864Z" fill="#7EDECD" style="mix-blend-mode:hard-light"/>
<path d="M527.174 151.181V170.896V190.612C527.174 191.861 526.904 193.053 526.33 194.202L472.174 189.768V147.268L527.174 151.181Z" fill="#3DA5A3" style="mix-blend-mode:multiply"/>
<path d="M496.17 129.725L496.174 129.732V133.782C501.781 133.943 506.174 135.442 506.174 137.268C506.174 137.798 505.803 138.302 505.138 138.752C503.383 139.943 499.581 140.768 495.174 140.768C490.733 140.768 486.907 139.93 485.17 138.725L485.174 138.732V145.728C486.913 146.932 490.737 147.768 495.174 147.768C501.249 147.768 506.174 146.201 506.174 144.268V138.768C512.249 138.768 517.174 137.201 517.174 135.268V128.268C517.174 130.201 512.249 131.768 506.174 131.768C501.733 131.768 497.907 130.93 496.17 129.725Z" fill="#3DA5A3" style="mix-blend-mode:multiply"/>
<path d="M519.568 147.321C519.716 147.485 519.905 147.643 520.13 147.796C519.905 147.637 519.716 147.481 519.568 147.321Z" fill="#3DA5A3" style="mix-blend-mode:multiply"/>
<path d="M520.174 147.825V141.162L520.171 141.156C521.501 142.035 524.056 142.708 527.174 142.975V149.642C524.059 149.375 521.505 148.703 520.174 147.825Z" fill="#3DA5A3" style="mix-blend-mode:multiply"/>
<path d="M519.174 139.792L519.174 139.78L519.174 139.768V139.818L519.174 139.803L519.174 139.792Z" fill="#3DA5A3" style="mix-blend-mode:multiply"/>
<path d="M447.957 36.4118C447.806 35.7966 444.063 36.1864 439.596 37.2824C435.129 38.3784 431.631 39.7656 431.782 40.3808L432.799 44.528L430.413 44.882L429.155 39.7566C428.978 39.0353 425.225 39.3289 420.62 40.3971L420.285 39.0227C420.216 38.7205 416.543 39.3713 412.058 40.4405C407.572 41.5096 404.016 42.6485 404.086 42.9507C404.086 42.9526 404.087 42.9545 404.087 42.9564L405.85 50.1901L404.852 50.499L403.273 43.979L403.273 43.9765C403.273 43.9753 403.273 43.9741 403.272 43.9729C403.203 43.6707 399.53 44.3215 395.044 45.3907C390.559 46.4598 387.003 47.5987 387.072 47.9008L388.897 55.4385L383.215 57.1976L383.214 57.198L392.534 95.478L392.557 95.4747L392.558 95.4786L417.59 91.876C417.59 91.876 417.57 91.8765 417.533 91.8768L436.579 89.1331L468.792 78.0232L460.355 40.4402L449.332 42.0756C449.336 42.0509 449.335 42.0273 449.33 42.0047L447.957 36.4118Z" fill="#26E7AF"/>
<path d="M447.957 36.4115C447.806 35.7963 444.063 36.1861 439.596 37.2821C435.129 38.3781 431.631 39.7653 431.782 40.3805L433.154 45.9734C433.305 46.5886 437.048 46.1988 441.515 45.1028C445.982 44.0068 449.48 42.6195 449.33 42.0044L447.957 36.4115Z" fill="#26E7AF"/>
<path d="M440.146 39.4728C444.489 38.4166 447.918 37.0835 447.97 36.4443L449.329 41.983C449.48 42.5982 445.982 43.9854 441.515 45.0815C437.048 46.1775 433.305 46.5672 433.154 45.9521L431.782 40.3592C431.777 40.3392 431.776 40.3184 431.778 40.2968C431.779 40.3067 431.78 40.3165 431.783 40.326C431.932 40.9415 435.677 40.5595 440.146 39.4728Z" fill="#3DA5A3" style="mix-blend-mode:multiply"/>
<path d="M431.799 40.2475C432.561 40.331 434.104 40.0852 435.825 39.5696C438.184 38.8629 439.984 37.917 439.846 37.4569C439.823 37.3778 439.743 37.3182 439.616 37.2773L439.596 37.2823C435.427 38.3051 432.102 39.5817 431.799 40.2475Z" fill="#3DA5A3" style="mix-blend-mode:multiply"/>
<path d="M420.285 39.0224C420.216 38.7202 416.543 39.371 412.058 40.4402C407.572 41.5093 404.016 42.6482 404.086 42.9503C404.086 42.9503 404.087 42.9542 404.087 42.9561L405.854 50.2046L404.856 50.5129L403.273 43.9787L403.273 43.9762L403.272 43.9726C403.203 43.6704 399.53 44.3212 395.044 45.3904C390.559 46.4595 387.003 47.5984 387.072 47.9005L388.898 55.442L383.214 57.1978L413.08 52.8746L425.278 49.4025C428.666 48.3675 430.996 47.2587 430.85 46.6638L429.155 39.7563C428.978 39.035 425.225 39.3286 420.62 40.3968L420.285 39.0224Z" fill="#3DA5A3" style="mix-blend-mode:multiply"/>
<path d="M436.579 89.1328L427.258 50.8293L460.355 40.4399L468.792 78.0229L436.579 89.1328Z" fill="#3DA5A3" style="mix-blend-mode:multiply"/>
<path d="M413.08 52.8746C413.08 52.8746 398.066 57.9651 398.066 75.1412C398.066 92.3173 417.59 91.8757 417.59 91.8757L392.558 95.4783L383.238 57.1981L413.08 52.8746Z" fill="#3DA5A3" style="mix-blend-mode:multiply"/>
<path d="M440.415 39.1249C444.985 37.8161 446.991 37.0006 446.816 36.3917C446.714 36.2654 446.498 36.1844 446.202 36.1387C447.248 36.0786 447.896 36.163 447.957 36.4118L447.971 36.4658C447.918 37.105 444.489 38.4381 440.146 39.4943C436.93 40.2761 434.091 40.6932 432.694 40.6365C434.106 40.6448 437.066 40.0839 440.415 39.1249Z" fill="#7EDECD" style="mix-blend-mode:hard-light"/>
<path d="M423.108 39.8723C426.511 39.2474 429.016 39.1635 429.159 39.7495L429.164 39.7682C429.25 40.5893 425.448 42.2038 420.579 43.4041C416.609 44.3829 413.139 44.7882 411.828 44.4885C413.028 44.6681 415.833 44.2612 419.012 43.3916C423.127 42.2656 426.31 40.79 426.12 40.0958C426.012 39.7027 424.846 39.6444 423.108 39.8723Z" fill="#7EDECD" style="mix-blend-mode:hard-light"/>
<path d="M418.834 34.3436C418.811 34.7387 418.764 35.1106 418.671 35.4592C418.509 36.1332 418.276 36.784 417.928 37.4116C417.625 37.8996 417.3 38.3413 416.905 38.7829C414.232 41.7346 410.234 43.0595 406.33 43.8729C404.865 44.1751 403.448 44.547 402.03 44.9886C394.43 47.3128 387.434 51.4267 381.367 56.4703C375.65 61.2118 364.796 70.346 364.796 78.4809C364.796 78.8527 364.981 79.2014 365.284 79.5035L365.33 79.55C365.911 80.1078 366.957 80.5494 368.305 80.991C371.722 82.0602 377.184 82.8272 382.344 84.0126C388.735 85.4768 394.708 87.5686 396.057 91.5663C396.405 92.6122 396.428 93.7976 396.057 95.1224C394.685 100.12 387.689 102.304 379.508 103.095C366.144 104.373 349.688 101.886 349.688 101.886C336.602 100.236 321.355 104.791 321.355 104.791C321.355 104.791 322.355 103.28 323.749 100.538C327.584 92.9144 334.232 75.6918 330.002 54.425C334.255 51.5429 338.648 48.8003 343.041 46.1275C352.965 40.0844 363.122 34.39 373.558 29.2767C379.113 26.5574 384.761 24.1169 390.432 21.7229C395.173 19.7241 400.077 17.9344 405.214 17.2604C406.167 17.1209 407.12 17.028 408.096 17.0047C409.909 16.935 411.722 17.0047 413.442 17.5626C416.789 18.6317 419.531 22.0018 418.207 25.6741C418.044 26.1622 417.788 26.6038 417.44 26.9757C417.068 27.3941 416.556 27.7427 415.929 27.9984C415.906 27.9984 415.859 28.0449 415.836 28.0449C416.022 28.1611 416.231 28.3005 416.394 28.4632C417.811 29.7183 418.764 32.2285 418.764 34.3203L418.834 34.3436Z" fill="#FEC535"/>
<path d="M418.276 25.7212C418.114 26.2092 417.858 26.6508 417.509 27.0227C417.137 27.4411 416.626 27.7897 415.998 28.0454C415.975 28.0454 415.929 28.0919 415.905 28.0919C416.091 28.2081 416.301 28.3475 416.463 28.5102C416.44 28.5102 416.417 28.5335 416.37 28.5567C416.347 28.5567 416.301 28.6032 416.254 28.6032C415.929 28.3475 415.58 28.0919 415.208 27.8595C414.65 27.4643 414.046 27.1389 413.442 26.8368C413.419 26.8368 413.395 26.8135 413.372 26.7903C414.767 26.279 415.278 25.6514 416.045 24.8379C417.254 23.5596 416.51 19.4922 416.417 19.2598C418.206 20.8402 419.183 23.211 418.299 25.7212H418.276Z" fill="#F98C00"/>
<path d="M418.741 35.4126C418.485 36.691 417.788 37.8298 416.904 38.7828C414.232 41.7346 410.234 43.0594 406.329 43.8729C404.865 44.175 403.447 44.5469 402.029 44.9885C401.89 44.7328 401.774 44.4772 401.634 44.2215C397.776 36.2029 399.287 29.7415 401.936 25.1627C406.91 24.3493 411.861 24.8838 415.882 28.068C417.881 29.2534 419.182 32.9489 418.717 35.3894L418.741 35.4126Z" fill="#FEC535"/>
<path d="M378.834 36.1797C387.271 28.347 399.891 21.0024 411.629 25.1628C413.209 25.953 414.72 26.8362 415.882 28.0913C403.401 21.5834 389.944 30.5085 378.811 36.1797H378.834Z" fill="#F98C00"/>
<path d="M322.517 104.512C322.285 104.559 322.076 104.629 321.913 104.675C321.867 104.675 321.82 104.675 321.797 104.675C321.774 104.698 321.75 104.698 321.75 104.698C321.704 104.698 321.681 104.698 321.657 104.698C321.634 104.722 321.611 104.722 321.588 104.722C321.518 104.722 321.472 104.722 321.448 104.722H321.425L273.174 110.602V94.5879C290.28 96.7494 312.546 99.2596 324.307 99.4456C326.12 99.492 327.654 99.4688 328.909 99.3758H328.956C329.258 99.3526 329.56 99.3293 329.839 99.3061C341.832 98.6088 326.817 103.164 322.517 104.443V104.512Z" fill="#F98C00"/>
<path d="M418.834 34.3442C418.811 34.7393 418.764 35.1112 418.671 35.4598C418.508 36.1339 418.276 36.7847 417.927 37.4122C417.625 37.9003 417.3 38.3419 416.905 38.7835C414.232 41.7353 410.234 43.0601 406.329 43.8736C404.865 44.1757 403.447 44.5476 402.03 44.9892C394.429 47.3135 387.433 51.4274 381.367 56.471C375.649 61.2124 364.795 70.3467 364.795 78.4815C364.795 78.8534 364.981 79.202 365.283 79.5042L365.33 79.5507C365.888 80.1317 366.957 80.6198 368.375 81.0847C367.887 81.0149 363.912 80.2015 357.892 73.5309C357.404 73.0196 364.958 65.2334 365.423 64.7685C372.024 58.1444 379.601 52.4733 387.898 48.1502C393.802 45.0822 399.961 42.9439 406.446 41.5493C408.933 41.038 411.443 40.3407 413.535 38.8997C415.626 37.4587 417.114 35.1112 417.207 32.5778C417.3 29.7887 414.72 27.325 414.464 27.0693C414.488 27.0693 414.557 27.1158 414.65 27.1391C414.65 27.1391 414.673 27.1391 414.697 27.1391C415.115 27.3947 415.51 27.6969 415.905 27.999C417.625 29.0217 418.834 31.927 418.834 34.2745V34.3442Z" fill="#F98C00"/>
<path d="M396.102 95.1458C394.731 100.143 387.735 102.328 379.554 103.118C378.949 101.909 378.485 100.724 378.182 99.6083C376.091 92.3335 379.437 87.0342 382.389 84.0127C388.781 85.477 394.754 87.5688 396.102 91.5665C396.451 92.6124 396.474 93.7977 396.102 95.1226V95.1458Z" fill="#FEC535"/>
<path d="M396.102 95.1459C394.731 100.143 387.735 102.328 379.554 103.118C366.189 104.396 349.734 101.909 349.734 101.909C336.648 100.259 321.401 104.815 321.401 104.815C321.401 104.815 322.401 103.304 323.795 100.561C328.583 99.376 339.786 97.0286 349.734 98.3069C349.734 98.3069 366.189 100.771 379.554 99.4923C387.689 98.7253 394.661 96.5405 396.079 91.5898C396.428 92.6358 396.451 93.8211 396.079 95.1459H396.102Z" fill="#F98C00"/>
<path d="M799.433 36.9317V190.611C799.433 194.834 795.959 198.26 791.673 198.26H552.194C547.885 198.26 544.433 194.835 544.433 190.611V36.9317C544.433 32.6833 547.886 29.2598 552.194 29.2598H791.673C795.958 29.2598 799.433 32.6842 799.433 36.9317Z" fill="#F6F6F7" stroke="#E1E3E5"/>
<mask id="path-72-inside-2_1235_76398" fill="white">
<path fill-rule="evenodd" clip-rule="evenodd" d="M587.112 198.76H618.417C646.394 193.844 664.653 175.574 664.653 151.079V150.85C664.653 127.9 648.474 113.442 624.033 111.147V110.574C643.884 106.443 658.801 92.7881 658.801 72.2485V72.019C658.801 46.3159 636.655 28.7598 602.461 28.7598C569.07 28.7598 546.465 47.3486 544.055 75.3467L543.94 76.7236H571.48L571.594 75.5762C573.086 61.3477 585.02 52.2827 602.461 52.2827C620.247 52.2827 630.344 61.0034 630.344 75.9204V76.1499C630.344 90.6079 618.181 100.935 599.937 100.935H581.003V122.966H600.625C621.738 122.966 634.59 132.605 634.59 150.046V150.276C634.59 165.308 621.853 175.864 602.69 175.864C583.298 175.864 570.447 166.111 568.84 152.686L568.726 151.423H543.933V167.352C550.506 183.445 565.732 195.002 587.112 198.76Z"/>
</mask>
<path fill-rule="evenodd" clip-rule="evenodd" d="M587.112 198.76H618.417C646.394 193.844 664.653 175.574 664.653 151.079V150.85C664.653 127.9 648.474 113.442 624.033 111.147V110.574C643.884 106.443 658.801 92.7881 658.801 72.2485V72.019C658.801 46.3159 636.655 28.7598 602.461 28.7598C569.07 28.7598 546.465 47.3486 544.055 75.3467L543.94 76.7236H571.48L571.594 75.5762C573.086 61.3477 585.02 52.2827 602.461 52.2827C620.247 52.2827 630.344 61.0034 630.344 75.9204V76.1499C630.344 90.6079 618.181 100.935 599.937 100.935H581.003V122.966H600.625C621.738 122.966 634.59 132.605 634.59 150.046V150.276C634.59 165.308 621.853 175.864 602.69 175.864C583.298 175.864 570.447 166.111 568.84 152.686L568.726 151.423H543.933V167.352C550.506 183.445 565.732 195.002 587.112 198.76Z" fill="#EBEBEB"/>
<path d="M618.417 198.76V199.76H618.504L618.59 199.745L618.417 198.76ZM587.112 198.76L586.939 199.745L587.025 199.76H587.112V198.76ZM624.033 111.147H623.033V112.058L623.94 112.143L624.033 111.147ZM624.033 110.574L623.83 109.595L623.033 109.76V110.574H624.033ZM544.055 75.3467L543.059 75.2609L543.059 75.2636L544.055 75.3467ZM543.94 76.7236L542.944 76.6406L542.854 77.7236H543.94V76.7236ZM571.48 76.7236V77.7236H572.385L572.475 76.8231L571.48 76.7236ZM571.594 75.5762L570.6 75.4719L570.599 75.4767L571.594 75.5762ZM581.003 100.935V99.9351H580.003V100.935H581.003ZM581.003 122.966H580.003V123.966H581.003V122.966ZM568.84 152.686L567.844 152.776L567.846 152.79L567.847 152.804L568.84 152.686ZM568.726 151.423L569.722 151.333L569.639 150.423H568.726V151.423ZM543.933 151.423V150.423H542.933V151.423H543.933ZM543.933 167.352H542.933V167.549L543.007 167.731L543.933 167.352ZM618.417 197.76H587.112V199.76H618.417V197.76ZM618.59 199.745C646.91 194.768 665.653 176.185 665.653 151.079H663.653C663.653 174.962 645.879 192.919 618.244 197.775L618.59 199.745ZM665.653 151.079V150.85H663.653V151.079H665.653ZM665.653 150.85C665.653 139.123 661.512 129.503 654.199 122.529C646.9 115.57 636.515 111.315 624.127 110.152L623.94 112.143C635.992 113.275 645.918 117.397 652.819 123.977C659.706 130.544 663.653 139.627 663.653 150.85H665.653ZM625.033 111.147V110.574H623.033V111.147H625.033ZM624.237 111.553C644.411 107.355 659.801 93.3925 659.801 72.2485H657.801C657.801 92.1837 643.358 105.531 623.83 109.595L624.237 111.553ZM659.801 72.2485V72.019H657.801V72.2485H659.801ZM659.801 72.019C659.801 58.8511 654.116 47.7472 644.067 39.9603C634.038 32.1896 619.719 27.7598 602.461 27.7598V29.7598C619.397 29.7598 633.249 34.108 642.842 41.5412C652.414 48.9582 657.801 59.4839 657.801 72.019H659.801ZM602.461 27.7598C585.583 27.7598 571.35 32.4589 561.013 40.7748C550.667 49.0986 544.286 60.9994 543.059 75.2609L545.052 75.4324C546.234 61.6959 552.36 50.3032 562.267 42.3331C572.183 34.3551 585.948 29.7598 602.461 29.7598V27.7598ZM543.059 75.2636L542.944 76.6406L544.937 76.8067L545.052 75.4297L543.059 75.2636ZM543.94 77.7236H571.48V75.7236H543.94V77.7236ZM572.475 76.8231L572.589 75.6757L570.599 75.4767L570.485 76.6241L572.475 76.8231ZM572.589 75.6804C573.306 68.8383 576.523 63.2673 581.65 59.3914C586.79 55.5051 593.908 53.2827 602.461 53.2827V51.2827C593.573 51.2827 586.003 53.5928 580.443 57.7961C574.87 62.0098 571.374 68.0855 570.6 75.4719L572.589 75.6804ZM602.461 53.2827C611.203 53.2827 617.914 55.4267 622.424 59.2689C626.911 63.0917 629.344 68.7017 629.344 75.9204H631.344C631.344 68.2221 628.729 62.0133 623.721 57.7465C618.735 53.4991 611.504 51.2827 602.461 51.2827V53.2827ZM629.344 75.9204V76.1499H631.344V75.9204H629.344ZM629.344 76.1499C629.344 83.0762 626.44 88.9911 621.346 93.1928C616.238 97.4056 608.876 99.9351 599.937 99.9351V101.935C609.242 101.935 617.083 99.301 622.618 94.7357C628.167 90.1593 631.344 83.6816 631.344 76.1499H629.344ZM599.937 99.9351H581.003V101.935H599.937V99.9351ZM580.003 100.935V122.966H582.003V100.935H580.003ZM581.003 123.966H600.625V121.966H581.003V123.966ZM600.625 123.966C611.046 123.966 619.291 126.347 624.908 130.753C630.491 135.132 633.59 141.596 633.59 150.046H635.59C635.59 141.055 632.263 133.98 626.142 129.179C620.055 124.405 611.317 121.966 600.625 121.966V123.966ZM633.59 150.046V150.276H635.59V150.046H633.59ZM633.59 150.276C633.59 157.485 630.546 163.598 625.197 167.93C619.832 172.274 612.095 174.864 602.69 174.864V176.864C612.449 176.864 620.661 174.176 626.455 169.484C632.266 164.779 635.59 158.099 635.59 150.276H633.59ZM602.69 174.864C583.594 174.864 571.357 165.304 569.833 152.567L567.847 152.804C569.536 166.917 583.003 176.864 602.69 176.864V174.864ZM569.836 152.595L569.722 151.333L567.73 151.514L567.844 152.776L569.836 152.595ZM568.726 150.423H543.933V152.423H568.726V150.423ZM544.933 167.352V151.423H542.933V167.352H544.933ZM543.007 167.731C549.735 184.201 565.289 195.939 586.939 199.745L587.286 197.775C566.174 194.064 551.278 182.689 544.859 166.974L543.007 167.731Z" fill="#E1E3E5" mask="url(#path-72-inside-2_1235_76398)"/>
<path d="M607.933 139.244C607.933 136.207 600.322 133.744 590.933 133.744C581.544 133.744 573.933 136.207 573.933 139.244V144.146L556.362 146.682C556.116 146.718 555.933 146.929 555.933 147.177V197.744H627.433V153.817C627.433 153.462 627.245 153.134 626.939 152.954L607.933 141.798V139.244Z" fill="#F55BAB"/>
<path d="M750.933 6.75977C760.322 6.75977 767.933 9.2222 767.933 12.2598V14.8141L786.939 25.9699C787.245 26.1495 787.433 26.4776 787.433 26.8323V87.7598L738.933 95.2598L715.933 80.2598V20.1928C715.933 19.9442 716.116 19.7334 716.362 19.6979L733.933 17.1618V12.2598C733.933 9.2222 741.544 6.75977 750.933 6.75977Z" fill="#F55BAB"/>
<path d="M670.933 70.2441C680.322 70.2441 687.933 72.7066 687.933 75.7441V78.2985L706.939 89.4543C707.245 89.6339 707.433 89.962 707.433 90.3167V151.244L658.933 158.744L635.933 142.246V83.6772C635.933 83.4286 636.116 83.2178 636.362 83.1823L653.933 80.6462V75.7441C653.933 72.7066 661.544 70.2441 670.933 70.2441Z" fill="#F55BAB"/>
<path d="M715.933 142.244V80.2441L738.933 95.2441L787.433 87.7441V150.244L738.933 158.744L715.933 142.244Z" fill="#7E48FA"/>
<path d="M738.933 158.744V95.2441L787.433 87.7441V150.244L738.933 158.744Z" fill="#A3ABD9" style="mix-blend-mode:multiply"/>
<path d="M715.933 197.744V142.244L738.933 158.744L787.433 150.244V197.744H715.933Z" fill="#450AB5"/>
<path d="M635.933 197.744V142.244L658.933 158.744L707.433 151.24V197.744H635.933Z" fill="#7E48FA"/>
<path d="M738.933 197.744V158.744L787.433 150.244V197.744H738.933Z" fill="#0B0050"/>
<path d="M658.933 197.744V158.744L707.433 151.24V197.744H658.933Z" fill="#A3ABD9" style="mix-blend-mode:multiply"/>
<path d="M750.933 6.75977C751.492 6.75977 752.045 6.76849 752.59 6.78555C742.69 7.0751 734.934 9.76703 734.933 13.0455V24.626C734.286 24.0442 733.933 23.4127 733.933 22.7588V17.554L718.482 19.9758C718.175 20.023 718.081 20.4007 718.34 20.6131H718.364L738.933 32.2688L717.302 21.3919C717.066 21.2267 716.736 21.3919 716.736 21.6751L715.933 80.5124V20.0938C715.933 20.0938 716 19.9224 716.047 19.8516C716.118 19.7808 716.234 19.715 716.328 19.6914L733.933 17.1699V12.2598C733.933 9.2222 741.544 6.75977 750.933 6.75977Z" fill="#FFBCDF" style="mix-blend-mode:hard-light"/>
<path d="M670.933 70.2441C671.492 70.2441 672.045 70.2529 672.59 70.2699C662.69 70.5595 654.934 73.2514 654.933 76.5298V88.1104C654.286 87.5286 653.933 86.8971 653.933 86.2432V81.0383L638.482 83.4602C638.175 83.5074 638.081 83.885 638.34 84.0974H638.364L658.933 95.7532L637.302 84.8763C637.066 84.7111 636.736 84.8763 636.736 85.1595L635.933 142.248V83.5782C635.933 83.5782 636 83.4068 636.047 83.336C636.118 83.2652 636.234 83.1994 636.328 83.1758L653.933 80.6543V75.7441C653.933 72.7066 661.544 70.2441 670.933 70.2441Z" fill="#FFBCDF" style="mix-blend-mode:hard-light"/>
<path d="M590.933 133.744C591.492 133.744 592.045 133.753 592.59 133.77C582.69 134.059 574.934 136.751 574.933 140.03V151.61C574.286 151.029 573.933 150.397 573.933 149.743V144.538L558.482 146.96C558.175 147.007 558.081 147.385 558.34 147.597H558.364L578.933 159.253L557.302 148.376C557.066 148.211 556.736 148.376 556.736 148.659L555.933 197.717V147.078C555.933 147.078 556 146.907 556.047 146.836C556.118 146.765 556.234 146.699 556.328 146.676L573.933 144.154V139.244C573.933 136.207 581.544 133.744 590.933 133.744Z" fill="#FFBCDF" style="mix-blend-mode:hard-light"/>
<path d="M734.933 24.6227C736.595 26.1164 740.198 27.3103 744.758 27.8857L753.441 30.465L739.81 32.1512C739.309 32.2132 738.933 32.6389 738.933 33.1437V95.2598L787.433 87.7598V26.8323C787.433 26.4776 787.245 26.1495 786.939 25.9699L767.933 14.8141V12.7598H767.864C767.083 15.563 759.801 17.7598 750.933 17.7598C743.566 17.7598 737.293 16.2434 734.933 14.1227V24.6227Z" fill="#CD9EB6" style="mix-blend-mode:multiply"/>
<path d="M654.933 88.1071C656.595 89.6008 660.198 90.7947 664.758 91.3701L673.441 93.9494L659.81 95.6356C659.309 95.6976 658.933 96.1233 658.933 96.6281V158.744L707.433 151.244V90.3167C707.433 89.962 707.245 89.6339 706.939 89.4543L687.933 78.2985V76.2441H687.864C687.083 79.0474 679.801 81.2441 670.933 81.2441C663.566 81.2441 657.293 79.7278 654.933 77.6071V88.1071Z" fill="#CD9EB6" style="mix-blend-mode:multiply"/>
<path d="M584.758 154.87C580.198 154.295 576.595 153.101 574.933 151.607V141.107C577.293 143.228 583.566 144.744 590.933 144.744C599.801 144.744 607.083 142.547 607.864 139.744H607.933V141.798L626.939 152.954C627.245 153.134 627.433 153.462 627.433 153.817V197.744H578.933V160.128C578.933 159.623 579.309 159.198 579.81 159.136L593.441 157.449L584.758 154.87Z" fill="#CD9EB6" style="mix-blend-mode:multiply"/>
</svg>
