<svg viewBox="0 0 20 20" width="45" height="45" xmlns="http://www.w3.org/2000/svg"><path fill="#637381" d="M15.666.376c.495-.501 1.189-.501 1.684 0l2.278 2.307c.496.502.496 1.204 0 1.706L15.963 8 12 3.987l3.666-3.61zM10.993 5L15 9.007 4.382 19.624c-.5.501-1.202.501-1.703 0L.376 17.321c-.501-.501-.501-1.203 0-1.703L10.993 5zM16 13c0-.6.4-1 1-1s1 .4 1 1 .4 1 1 1 1 .4 1 1-.4 1-1 1-1 .4-1 1-.4 1-1 1-1-.4-1-1-.4-1-1-1-1-.4-1-1 .4-1 1-1 1-.4 1-1zM4 1c0-.6.4-1 1-1s1 .4 1 1 .4 1 1 1 1 .4 1 1-.4 1-1 1-1 .4-1 1-.4 1-1 1-1-.4-1-1-.4-1-1-1-1-.4-1-1 .4-1 1-1 1-.4 1-1z"/></svg>
