<svg viewBox="0 0 129 108" xmlns="http://www.w3.org/2000/svg"><g fill="none" fill-rule="evenodd"><path d="M68.78 106.25a1.52 1.52 0 01-1.06-.44 1.54 1.54 0 01-.32-.49 1.39 1.39 0 01-.12-.57 1.41 1.41 0 01.12-.58.94.94 0 01.14-.26 1 1 0 01.18-.22 1.54 1.54 0 012.12 0 1.5 1.5 0 01-1.06 2.56zm-9.78-1.5a1.5 1.5 0 113 0 1.5 1.5 0 01-3 0zm-8.31 0a1.5 1.5 0 013 0 1.51 1.51 0 01-1.5 1.5 1.5 1.5 0 01-1.53-1.5h.03zm-8.32 0a1.5 1.5 0 111.5 1.5 1.5 1.5 0 01-1.53-1.5h.03zm-8.31 0a1.5 1.5 0 111.5 1.5 1.5 1.5 0 01-1.56-1.5h.06zm-8.31 0a1.5 1.5 0 111.5 1.5 1.5 1.5 0 01-1.53-1.5h.03zm-8.32 0a1.5 1.5 0 111.5 1.5 1.51 1.51 0 01-1.53-1.5h.03zm-8.31 0a1.5 1.5 0 111.5 1.5 1.5 1.5 0 01-1.53-1.5h.03zm-6.84 1.5a1.5 1.5 0 01-1.06-.44 1.5 1.5 0 010-2.12 1.06 1.06 0 01.23-.19 1.08 1.08 0 01.26-.14 1.31 1.31 0 01.28-.09 1.88 1.88 0 01.58 0 1.31 1.31 0 01.28.09 1.3 1.3 0 01.26.14 1.37 1.37 0 01.23.19 1.5 1.5 0 01.44 1.06 1.5 1.5 0 01-1.5 1.5zm-1.5-9.43a1.5 1.5 0 113 0 1.5 1.5 0 01-3 0zm0-7.92a1.5 1.5 0 113 0 1.5 1.5 0 01-3 0zm0-7.92a1.5 1.5 0 113 .02 1.5 1.5 0 01-3 0v-.02zm0-7.93a1.5 1.5 0 113 0 1.5 1.5 0 01-3 0zm0-7.92a1.5 1.5 0 113 0 1.5 1.5 0 01-3 0zm0-7.93a1.5 1.5 0 113 0 1.5 1.5 0 01-3 0zm0-7.92a1.5 1.5 0 113 0 1.5 1.5 0 01-3 0zm1.5-6.42a1.5 1.5 0 01-1.06-2.56 1.06 1.06 0 01.23-.19 1.59 1.59 0 01.26-.11l.29-.11a1.42 1.42 0 01.58 0l.28.08.26.14a1.37 1.37 0 01.23.19 1.5 1.5 0 01-1.06 2.56h-.01zM59 41.36a1.5 1.5 0 113 0 1.5 1.5 0 01-3 0zm-8.31 0a1.5 1.5 0 111.5 1.5 1.5 1.5 0 01-1.53-1.5h.03zm-8.32 0a1.5 1.5 0 111.5 1.5 1.5 1.5 0 01-1.53-1.5h.03zm-8.31 0a1.5 1.5 0 111.5 1.5 1.5 1.5 0 01-1.56-1.5h.06zm-8.31 0a1.5 1.5 0 111.5 1.5 1.5 1.5 0 01-1.53-1.5h.03zm-8.32 0a1.5 1.5 0 111.5 1.5 1.5 1.5 0 01-1.53-1.5h.03zm-8.31 0a1.5 1.5 0 111.5 1.5 1.5 1.5 0 01-1.53-1.5h.03zm59.66 1.5a1.49 1.49 0 01-1.38-2.08 1.1 1.1 0 01.14-.26 1.24 1.24 0 01.18-.22 1.52 1.52 0 011.36-.41l.28.08a2 2 0 01.25.14 1.06 1.06 0 01.23.19 1.3 1.3 0 01.19.22c0 .09.1.17.14.26a1.47 1.47 0 01.08.28 1.5 1.5 0 01-.41 1.36 1 1 0 01-.23.18 1.23 1.23 0 01-.25.14 1.41 1.41 0 01-.58.12zm-1.5 53.96a1.5 1.5 0 113 0 1.5 1.5 0 01-3 0zm0-7.92a1.5 1.5 0 113 0 1.5 1.5 0 01-3 0zm0-7.92c0-.83.67-1.505 1.5-1.51a1.51 1.51 0 011.5 1.53 1.5 1.5 0 01-3 0v-.02zm0-7.93a1.5 1.5 0 113 0 1.5 1.5 0 01-3 0zm0-7.92a1.5 1.5 0 113 0 1.5 1.5 0 01-3 0zm0-7.93a1.5 1.5 0 113 0 1.5 1.5 0 01-3 0zm0-7.92a1.5 1.5 0 113 0 1.5 1.5 0 01-3 0z" fill="#DEE4F5" fill-rule="nonzero"/><path fill="#FFF" fill-rule="nonzero" d="M17.64 1.98h91.26v87.55H17.64z"/><path d="M109.75 90.38H98.16c-1.92 0-3.88-.06-5.73 0-.94 0-1.85.1-2.81.1h-2.91c-2-.07-3.95-.17-5.86-.16l-5.68.15-11.38.33c-1.91 0-3.81.13-5.75.1s-3.89-.13-5.83-.17c-1.94-.04-3.85 0-5.75.06s-3.81.17-5.73.19c-3.87-.07-7.72-.14-11.58-.26l-2.88-.08h-8.63a1 1 0 01-1-1c0-3.65-.39-7.29-.17-10.94a45.5 45.5 0 00.23-5.47c-.06-.91-.17-1.83-.18-2.74-.01-.91 0-1.82 0-2.73 0-7.3.21-14.6.16-21.89V40.4c0-1.82.17-3.65.25-5.48.08-1.83.19-3.64.13-5.47-.06-1.83-.24-3.64-.23-5.47 0-3.65.3-7.29.37-10.94.07-3.65 0-7.3-.08-10.95 0-.3.24-.545.54-.55 3.8-.09 7.61 0 11.41 0s7.6 0 11.41.11c1.9 0 3.8.05 5.7 0l5.7-.18c3.81-.16 7.61-.24 11.41-.33 3.8-.09 7.6-.12 11.41-.18 3.81-.06 7.6.21 11.4.26 3.8.05 7.61-.16 11.41-.24 3.8-.08 7.61-.33 11.41-.1h.08A1.19 1.19 0 01110.13 2c0 .93-.06 1.85-.07 2.77l.06 2.76.11 5.54c0 1.85 0 3.69-.12 5.52-.12 1.83-.26 3.64-.27 5.48 0 3.68.16 7.41-.09 11a45.21 45.21 0 00.11 5.56 53.72 53.72 0 010 5.53c-.16 3.62-.25 7.25-.26 10.93-.01 3.68.17 7.47 0 11-.17 3.53 0 7.34.08 11.11.06 1.9 0 3.73.06 5.59.06 1.86.03 3.77.01 5.59zm-1.7-1.7V77.87c.06-3.55.18-7.08-.06-10.85-.1-1.87-.19-3.72-.17-5.51l.11-5.34c0-3.6-.18-7.3-.37-11a36.89 36.89 0 010-5.37 30.52 30.52 0 00.18-5.35 50 50 0 01-.16-5.45c0-1.78.23-3.55.23-5.36v-2.72l-.16-2.73c-.12-1.82-.12-3.62-.09-5.42l.17-5.4.08-2.7V1.95l1.14 1.15c-7.61.32-15.21-.39-22.82-.18-1.9 0-3.8.19-5.7.29-.95.07-1.9.1-2.85.13-.95.03-1.9.05-2.85 0-3.81 0-7.61.05-11.41-.07-3.8-.12-7.6-.09-11.41-.33a94.3 94.3 0 00-11.4-.2c-7.61.32-15.21.48-22.82.38L18.84 2c-.14 3.65-.41 7.3-.25 11 .16 3.7.58 7.29.59 10.94 0 1.83-.34 3.65-.5 5.47a20.89 20.89 0 000 2.74c0 .91.1 1.82.18 2.73a50.41 50.41 0 01.36 5.48c.05 1.82-.05 3.64-.08 5.47l-.14 5.4v5.47l-.08 11v2.73c0 .91-.16 1.83-.24 2.74a43.45 43.45 0 00.14 5.47c.17 3.65-.24 7.29-.28 10.94l-.84-.84c7.56.15 15.12.08 22.67.06l5.67.06c1.89 0 3.79 0 5.65-.07l5.59-.19h5.66l11.4.2 5.7.09c1.89 0 3.72-.1 5.55-.17 1.83-.07 3.73 0 5.67 0h5.66c3.63-.03 7.4-.02 11.13-.04z" fill="#DEE4F5" fill-rule="nonzero"/><g opacity=".5" fill="#DEE4F5" fill-rule="nonzero"><path d="M25.9 9.9h74.75v71.71H25.9z"/><path d="M101.21 82.18H87.06c-1.52 0-3.08.1-4.69 0-1.61-.1-3.21-.09-4.77-.08l-4.65.1-9.34.22c-3.09.12-6.29 0-9.45 0-1.58-.06-3.14 0-4.7 0l-4.7.11c-6.31-.07-12.6-.29-18.86-.25a.7.7 0 01-.71-.69c0-3-.24-6-.11-9a44.71 44.71 0 00.16-4.48c0-.75-.12-1.5-.12-2.24v-2.18c0-6 .14-12 .11-17.93-.03-5.93.57-11.95.1-17.93l.24-9c.06-3 0-6-.05-9 0-.2.16-.365.36-.37 3.11-.06 6.22 0 9.34 0s6.23 0 9.34.07h4.67l4.68-.12c3.11-.1 6.23-.16 9.34-.22 3.11-.06 6.23-.07 9.34-.11 3.11-.04 6.23.11 9.35.15 3.12.04 6.23-.09 9.34-.14 3.11-.05 6.23-.19 9.34-.07h.06a.81.81 0 01.77.82v4.52l.06 4.53c0 1.51 0 3-.08 4.51-.08 1.51-.14 3-.17 4.49 0 3 .1 6 0 9-.07 1.48 0 3 .06 4.53.06 1.53 0 3 0 4.53-.1 3-.16 5.94-.17 8.95-.01 3.01.11 6.09 0 9s0 6 .05 9.08 0 6.17.01 9.2zm-1.13-1.13v-8.88c0-2.88.1-5.85 0-8.9-.1-3.05-.09-6 0-8.9.09-2.9-.11-6-.24-9a40.63 40.63 0 010-4.42 32 32 0 00.12-4.4c-.25-3 0-5.91 0-8.87 0-2.96-.33-6-.18-8.91l.1-4.44V9.88l.77.77c-3.11.12-6.22 0-9.34 0s-6.23-.12-9.34-.08c-3.11.04-6.23.33-9.35.3-3.12-.03-6.23 0-9.34 0-3.11 0-6.23-.08-9.34-.23l-4.68-.17c-1.55-.05-3.11 0-4.67 0-6.23.22-12.46.32-18.68.25l.8-.8c-.1 3-.28 6-.17 9 .11 3 .39 6 .39 9 0 1.5-.22 3-.32 4.48a31.89 31.89 0 00.1 4.48 70.69 70.69 0 01.18 9c-.15 6-.07 11.95-.15 17.93v2.24c0 .74-.11 1.49-.16 2.24a41.87 41.87 0 00.09 4.48c.1 3-.15 6-.18 9l-.56-.56c6.19.1 12.39 0 18.58 0 3.1 0 6.23.11 9.29 0 3.06-.11 6.12-.2 9.24-.11l9.34.14 4.67.06 4.57-.1c1.51-.06 3.07 0 4.65 0h4.64c3.01-.15 6.09-.14 9.17-.15z"/></g><rect fill="#DEE4F5" fill-rule="nonzero" x="34.67" y="23.11" width="22.15" height="24.52" rx="11.02"/><path d="M45.79 48a12.07 12.07 0 01-8.61-3.7 11.11 11.11 0 01-2.42-4.16c-.12-.39-.2-.79-.3-1.18-.1-.39-.12-.79-.18-1.19l-.05-1.21v-1.14c0-.77 0-1.55.07-2.36 0-.4.13-.8.19-1.19l.32-1.16a11.06 11.06 0 012.43-4.08 11.39 11.39 0 013.82-2.78 12.27 12.27 0 014.62-1 11.25 11.25 0 014.61 1 12 12 0 013.88 2.69 11.41 11.41 0 012.43 4.09c.13.37.22.77.32 1.15.1.38.14.79.21 1.19l.07 1.19v1.17c0 .77 0 1.55-.09 2.35-.05.4-.13.8-.19 1.19L56.64 40a10.87 10.87 0 01-2.35 4.14 7.48 7.48 0 01-.86.83 8.26 8.26 0 01-.94.74A10.92 10.92 0 0150.44 47a11.62 11.62 0 01-4.65 1zm0-.79a10.29 10.29 0 007.86-3.64 11.23 11.23 0 002.22-3.81 13 13 0 00.53-4.46v-2.29c-.06-.37-.09-.74-.16-1.11-.07-.37-.19-.73-.31-1.08a10.69 10.69 0 00-2.3-3.82 10.48 10.48 0 00-3.57-2.65 11.27 11.27 0 00-4.37-.78h-1.11a10.6 10.6 0 00-1.11.16 11 11 0 00-2.1.71 10.28 10.28 0 00-3.58 2.61 14.12 14.12 0 00-2.23 3.83 10.22 10.22 0 00-.31 1.12c0 .37-.12.74-.16 1.11-.08.74-.12 1.51-.14 2.29a10.57 10.57 0 002.84 8.34 10.23 10.23 0 008 3.49v-.02z" fill="#DEE4F5" fill-rule="nonzero"/><path fill="#FFF" fill-rule="nonzero" d="M45.74 35.37h28.93v32.02H45.74z"/><path d="M75 67.67c-2.43 0-4.94-.06-7.3 0-2.51-.11-4.87 0-7.29.07-1.21 0-2.41.09-3.65 0-1.24-.09-2.46-.07-3.66 0-2.43.12-4.89-.07-7.32-.07a.36.36 0 01-.36-.36v-4c0-1.33.12-2.67 0-4-.08-2.66 0-5.33 0-8v-4l.09-2c0-.67 0-1.34-.06-2 0-1.33.06-2.66.09-4 .03-1.34 0-2.67 0-4a.2.2 0 01.19-.19h7.23c2.41.08 4.83-.1 7.24-.12h7.24c2.41.11 4.82 0 7.23-.08a.42.42 0 01.43.4c.07 1.35-.09 2.69 0 4s.07 2.71 0 4-.07 2.67 0 4l-.07 2-.03 2.2c0 1.34-.1 2.65-.11 4-.01 1.35.08 2.74 0 4l-.05 2 .05 2.06C75 65 75 66.31 75 67.67zm-.57-.56v-6l-.07-2c-.09-1.37 0-2.61 0-4l-.14-4c0-.66.13-1.27.12-1.94-.01-.67-.06-1.34-.08-2a37.12 37.12 0 000-4c-.09-1.34 0-2.64 0-4 0-1.36-.07-2.65 0-4l.4.4c-2.41 0-4.82-.16-7.23 0l-1.81.07H60.2c-2.41 0-4.83-.29-7.24-.13-2.41.16-4.82.16-7.23.1l.39-.39c0 1.33-.14 2.67-.06 4 .08 1.33.23 2.67.16 4a19.43 19.43 0 00-.16 2c0 .66.09 1.33.14 2 .12 1.33 0 2.66 0 4-.06 2.67 0 5.34-.12 8-.09 1.34.12 2.67 0 4s-.07 2.67-.09 4l-.26-.25h7.19c1.2 0 2.39 0 3.57-.07 1.18-.07 2.38 0 3.58 0 2.4 0 4.85.13 7.17 0 2.45.29 4.76.19 7.15.21h.04z" fill="#FFF" fill-rule="nonzero"/><path d="M80 49.4l-9.76 19 21.65-.7-11.31-18.33a.33.33 0 00-.58.03z" fill="#DEE4F5" fill-rule="nonzero"/><path d="M80.33 49.58c-.82 1.58-1.62 3.17-2.48 4.73l-1.12 2.43-1.2 2.38c-1.68 3.15-3.29 6.32-5 9.45l-.33-.52c1.8 0 3.61 0 5.42-.09s3.61 0 5.41-.13c1.8-.13 3.61-.09 5.41-.16 1.8-.07 3.61-.23 5.41-.3l-.27.51-3-4.71c-1-1.58-1.87-3.2-2.88-4.76-.49-.79-1-1.57-1.47-2.37s-.91-1.62-1.42-2.4l-1.48-2.35-.75-1.18-.35-.54.1.01zm-.7-.36a.74.74 0 01.57-.41.71.71 0 01.66.27c.19.27.27.41.4.63l.74 1.18 1.48 2.36c.48.8 1 1.55 1.52 2.34.52.79 1 1.59 1.44 2.38l2.86 4.78a65.35 65.35 0 001.41 2.4l1.5 2.35a.38.38 0 01-.12.54.33.33 0 01-.19.06l-2.71.13c-.9.08-1.81 0-2.71 0-1.8.09-3.6.29-5.41.31-1.81.02-3.61.13-5.41.14-1.8.01-3.61.26-5.42.17a.43.43 0 01-.41-.45.46.46 0 010-.2c.45-.77.9-1.54 1.29-2.34.39-.8.88-1.55 1.3-2.33.88-1.53 1.58-3.17 2.41-4.77L76 56.37 77.27 54c.73-1.6 1.57-3.19 2.36-4.78z" fill="#DEE4F5" fill-rule="nonzero"/><circle fill="#DEE4F5" fill-rule="nonzero" cx="108.64" cy="88.25" r="19.5"/><path d="M108.64 78.66v19.18m7.18-9.59l-7.18-9.59-7.18 9.59" stroke="#FFF" stroke-width="3" stroke-linecap="round" stroke-linejoin="round"/></g></svg>
