<svg width="444" height="250" viewBox="0 0 444 250" fill="none" xmlns="http://www.w3.org/2000/svg">
<path d="M155 66.5L199.75 50" stroke="#8C17E8"/>
<path d="M48.5157 48.1078L47.2978 16.5472C47.2666 15.7093 46.897 14.9234 46.2829 14.3613L29.6491 0.407803C29.2223 0.0174593 28.6133 -0.102246 28.0721 0.0903231L24.2051 1.24054C23.3983 1.23533 22.5708 1.27697 21.7225 1.39147C18.1625 1.85988 15.1647 3.28594 13.5409 5.07111L2.07518 9.18793C0.763625 9.66155 -0.0795165 10.9419 0.0141659 12.3367L2.05957 42.8928C2.12202 43.788 2.50716 44.6259 3.14733 45.2557L18.3863 59.995C18.8183 60.4218 19.4637 60.5519 20.031 60.3386L47.5164 49.6379C48.1461 49.3985 48.5521 48.7896 48.5261 48.1182L48.5157 48.1078Z" fill="#E1E8EF"/>
<path d="M48.5156 48.1082L47.2977 16.5476C47.2925 16.3499 47.2613 16.1521 47.2145 15.9595C47.2145 15.9491 47.2145 15.9335 47.2093 15.9231C47.1676 15.7461 47.1 15.5692 47.0271 15.4026C47.0167 15.3818 47.0115 15.3558 47.0011 15.335L17.767 26.249C17.1164 26.4884 16.7 27.1337 16.7521 27.826L19.0733 60.3806C19.3804 60.4639 19.7135 60.4535 20.0257 60.3338L47.5111 49.6331C48.1409 49.3937 48.5468 48.7848 48.5208 48.1134L48.5156 48.1082Z" fill="#E3E7EB" style="mix-blend-mode:multiply"/>
<path d="M40.007 12.8575C39.6948 10.4633 36.7802 8.76665 32.9288 8.41274C32.8507 6.71604 33.0277 6.05506 32.4448 4.76953C33.8864 10.8068 24.919 12.9824 20.3337 12.847C16.0087 12.7065 12.6257 10.9318 12.2822 8.34508C12.303 12.7638 12.1885 16.2144 16.9611 17.4427L23.7791 19.4256H23.7948C28.8692 21.6272 40.9647 18.1297 40.0174 12.8575H40.007Z" fill="#E3E7EB" style="mix-blend-mode:multiply"/>
<path d="M1.13882 13.4406C1.20128 13.2845 1.27414 13.1335 1.36262 12.9878C1.36262 12.9878 16.5184 26.5041 16.2529 26.2387L2.1277 11.3223C1.83103 11.0205 1.94033 10.5156 2.33067 10.3647L12.6618 6.32073C12.3391 7.00253 12.1881 7.74158 12.261 8.53788C12.3287 9.55277 12.3911 12.3632 12.3911 12.4257C12.3911 14.0079 13.0469 15.231 14.1295 16.1262C14.0306 14.1432 13.812 9.76096 13.7599 8.97507C13.2551 3.62476 22.7534 0.67376 29.025 2.05818C24.2836 0.278212 16.4819 1.67304 13.4789 5.09245L2.07044 9.18845C1.35742 9.44348 0.795323 9.94312 0.436207 10.5625C0.358138 10.6926 0.290475 10.8279 0.233224 10.9684V10.9788C0.175974 11.1141 0.129134 11.2547 0.0927023 11.3952C0.0822931 11.4316 0.0770881 11.4733 0.0718835 11.5149C0.0510652 11.6242 0.025042 11.7387 0.0146328 11.8532C-0.000980954 12.0145 -0.00618665 12.1759 0.0094271 12.3372L2.10688 43.6896C2.1329 44.0748 0.889003 14.9603 0.889003 14.9603C0.878593 14.7782 0.8838 14.6012 0.899414 14.4243C0.909823 14.2994 0.935843 14.1744 0.961866 14.0495C0.972275 14.0079 0.977482 13.9611 0.987891 13.9194C1.02953 13.7633 1.07637 13.6071 1.13882 13.4562V13.4458V13.4406Z" fill="#E9F0F8" style="mix-blend-mode:hard-light"/>
<path d="M94.4012 94.48L93.1833 62.9194C93.1521 62.0815 92.7826 61.2956 92.1684 60.7335L59.2859 30.7447C58.8591 30.3544 58.2502 30.2347 57.7089 30.4272L53.8419 31.5774C53.0352 31.5722 52.2077 31.6139 51.3593 31.7284C47.7994 32.1968 44.8015 33.6228 43.1777 35.408L31.712 39.5248C30.4005 39.9985 29.5573 41.2788 29.651 42.6736L31.6964 73.2297C31.7589 74.1249 32.144 74.9628 32.7842 75.5926L64.2719 106.367C64.7039 106.794 65.3492 106.924 65.9165 106.711L93.4019 96.0102C94.0317 95.7708 94.4376 95.1618 94.4116 94.4904L94.4012 94.48Z" fill="#E1E8EF"/>
<path d="M94.4029 94.4803L93.1851 62.9197C93.1799 62.7219 93.1486 62.5242 93.1018 62.3316C93.1018 62.3212 93.1018 62.3056 93.0966 62.2952C93.055 62.1182 92.9873 61.9412 92.9144 61.7747C92.904 61.7539 92.8988 61.7278 92.8884 61.707L63.6543 72.621C63.0037 72.8604 62.5873 73.5058 62.6394 74.198L64.9606 106.753C65.2677 106.836 65.6008 106.826 65.9131 106.706L93.3985 96.0052C94.0282 95.7658 94.4342 95.1569 94.4081 94.4855L94.4029 94.4803Z" fill="#E3E7EB" style="mix-blend-mode:multiply"/>
<path d="M77.0347 66.7658C87.4074 65.7249 90.4521 56.315 79.4236 55.2741C79.3456 53.5774 79.5225 52.9164 78.9396 51.6309C80.3813 57.6682 71.4138 59.8437 66.8285 59.7084C62.5035 59.5678 59.1205 57.7931 58.777 55.2064C58.9436 59.0838 58.3919 62.269 62.1912 63.8408C65.1683 64.9077 73.4019 67.1041 77.0399 66.7658H77.0347Z" fill="#E3E7EB" style="mix-blend-mode:multiply"/>
<path d="M69.644 43.1944C69.3317 40.8003 66.4171 39.1036 62.5658 38.7497C62.4877 37.053 62.6646 36.392 62.0817 35.1064C63.5234 41.1438 54.5559 43.3193 49.9707 43.184C45.6457 43.0434 42.2627 41.2687 41.9192 38.682C41.94 43.1007 41.8255 46.5513 46.5981 47.7796L53.4161 49.7625H53.4317C58.5062 51.9641 70.6016 48.4666 69.6544 43.1944H69.644Z" fill="#E3E7EB" style="mix-blend-mode:multiply"/>
<path d="M58.7662 55.2057C58.8339 56.2206 58.8963 59.0311 58.8963 59.0936C58.8963 60.6758 59.5521 61.8988 60.6347 62.794C60.5358 60.8111 60.3172 56.4288 60.2651 55.6429C59.7603 50.2926 69.2587 47.3416 75.5302 48.726C69.42 46.4308 58.2145 49.4078 58.7662 55.2057Z" fill="#E9F0F8" style="mix-blend-mode:hard-light"/>
<path d="M30.7708 43.7765C30.8332 43.6204 30.9061 43.4695 30.9946 43.3237C30.9946 43.3237 62.399 72.8753 62.1336 72.6099L31.7597 41.6583C31.463 41.3564 31.5723 40.8516 31.9626 40.7006L42.2937 36.6567C41.971 37.3385 41.8201 38.0775 41.893 38.8738C41.9606 39.8887 42.0231 42.6992 42.0231 42.7616C42.0231 44.3438 42.6789 45.5669 43.7614 46.4621C43.6625 44.4792 43.4439 40.0969 43.3919 39.311C42.887 33.9607 52.3854 31.0097 58.6569 32.3941C53.9155 30.6141 46.1139 32.009 43.1108 35.4284L31.7024 39.5244C30.9894 39.7794 30.4273 40.2791 30.0682 40.8984C29.9901 41.0285 29.9224 41.1638 29.8652 41.3044V41.3148C29.8079 41.4501 29.7611 41.5906 29.7247 41.7311C29.7142 41.7676 29.7091 41.8092 29.7039 41.8508C29.683 41.9601 29.657 42.0746 29.6466 42.1891C29.631 42.3505 29.6258 42.5118 29.6414 42.6732L31.7388 74.0256C31.7649 74.4107 30.521 45.2963 30.521 45.2963C30.5105 45.1141 30.5158 44.9372 30.5314 44.7602C30.5418 44.6353 30.5678 44.5104 30.5938 44.3855C30.6042 44.3438 30.6094 44.297 30.6198 44.2554C30.6615 44.0992 30.7083 43.9431 30.7708 43.7921V43.7817V43.7765Z" fill="#E9F0F8" style="mix-blend-mode:hard-light"/>
<g filter="url(#filter0_f_784_75170)">
<path d="M169.746 131.521L111.259 154.161L78.279 122.413L130.84 103.677L169.746 131.521Z" fill="#E8D1FA" style="mix-blend-mode:multiply"/>
</g>
<path d="M167.703 66.6663L167.704 66.6675C168.506 67.4088 168.989 68.4451 169.03 69.5508L170.213 100.521L170.223 100.526L170.246 101.115C170.288 102.213 169.629 103.214 168.605 103.607L168.603 103.608L112.244 125.113L112.243 125.113C111.322 125.463 110.266 125.253 109.555 124.545C109.554 124.544 109.554 124.544 109.553 124.543L78.381 93.7721L78.3787 93.7698C77.5715 92.9678 77.0874 91.9017 77.0089 90.7664L77.0087 90.7636L74.9836 60.2078C74.9836 60.2077 74.9836 60.2076 74.9836 60.2075C74.8616 58.3717 75.9608 56.68 77.6794 56.0532L77.6811 56.0525L88.8066 52.0179C90.6472 50.1001 93.7771 48.6791 97.3412 48.2051C98.1707 48.0921 98.977 48.0465 99.7582 48.0449L118.292 41.3277C120.133 39.41 123.262 37.9837 126.833 37.5097C127.667 37.3967 128.477 37.3511 129.259 37.3494L132.566 36.1502L132.569 36.1492C133.454 35.8313 134.448 36.0285 135.146 36.6723L167.703 66.6663ZM167.703 66.6663L135.147 36.6733L167.703 66.6663Z" fill="#E8D1FA" stroke="#8C17E8" stroke-width="2"/>
<path d="M169.236 101.148L168.03 69.5877C168.025 69.3899 167.994 69.1921 167.948 68.9996C167.948 68.9891 167.948 68.9735 167.942 68.9631C167.901 68.7862 167.834 68.6092 167.762 68.4427C167.752 68.4218 167.747 68.3958 167.736 68.375L109.646 90.0937C109.002 90.3331 108.59 90.9785 108.641 91.6707L110.939 124.225C111.243 124.309 111.573 124.298 111.882 124.179L168.241 102.673C168.865 102.434 169.267 101.825 169.241 101.153L169.236 101.148Z" fill="#E8D1FA" style="mix-blend-mode:multiply"/>
<path d="M134.292 61.89C134.313 66.3087 134.2 69.7593 138.925 70.9876L145.675 72.9706H145.691C155.312 76.7803 171.229 65.1012 154.745 61.9577C154.668 60.261 154.843 59.6 154.266 58.3145C155.693 64.3518 146.814 66.5273 142.274 66.392C137.992 66.2514 134.643 64.4767 134.303 61.89H134.292Z" fill="#E8D1FA" style="mix-blend-mode:multiply"/>
<path d="M122.894 84.2394C133.164 83.1985 136.178 73.7886 125.259 72.7477C125.181 71.051 125.357 70.39 124.78 69.1045C126.207 75.1418 117.328 77.3173 112.788 77.182C108.506 77.0415 105.157 75.2667 104.817 72.68C104.982 76.5575 104.435 79.7427 108.197 81.3144C111.145 82.3814 119.297 84.5777 122.899 84.2394H122.894Z" fill="#E8D1FA" style="mix-blend-mode:multiply"/>
<path d="M117.74 49.3422C117.735 52.033 119.616 53.6776 122.239 54.4583L128.989 56.4413H129.005C138.625 60.251 154.543 48.5719 138.059 45.4284C137.981 43.7317 138.156 43.0707 137.579 41.7852C139.007 47.8225 130.128 49.998 125.588 49.8627C121.306 49.7221 117.956 47.9474 117.616 45.3607C117.683 46.3756 117.75 49.2641 117.75 49.3422H117.74Z" fill="#E8D1FA" style="mix-blend-mode:multiply"/>
<path d="M115.576 60.6621C115.267 58.268 112.382 56.5713 108.568 56.2174C108.491 54.5207 108.666 53.8598 108.089 52.5742C109.516 58.6115 100.638 60.787 96.0979 60.6517C91.8157 60.5112 88.4662 58.7364 88.1261 56.1498C88.1467 60.5685 88.0333 64.0191 92.7587 65.2474L99.5092 67.2303H99.5246C104.549 69.4319 116.525 65.9344 115.587 60.6621H115.576Z" fill="#E8D1FA" style="mix-blend-mode:multiply"/>
<path d="M150.896 55.5044C144.846 53.2091 133.752 56.1862 134.298 61.9841C134.365 62.999 134.427 65.8094 134.427 65.8719C134.427 67.4541 135.076 68.6772 136.148 69.5723C136.05 67.5894 135.833 63.2071 135.782 62.4213C135.282 57.0709 144.686 54.1199 150.896 55.5044Z" fill="#E8D1FA" style="mix-blend-mode:hard-light"/>
<path d="M117.592 45.6472C117.659 46.662 117.721 49.4725 117.721 49.535C117.721 51.1172 118.37 52.3402 119.442 53.2354C119.344 51.2525 119.128 46.8702 119.076 46.0843C118.576 40.734 127.98 37.783 134.19 39.1674C128.14 36.8722 117.046 39.8492 117.592 45.6472Z" fill="#E8D1FA" style="mix-blend-mode:hard-light"/>
<path d="M104.807 72.6745C104.874 73.6894 104.936 76.4999 104.936 76.5623C104.936 78.1445 105.585 79.3676 106.657 80.2628C106.559 78.2798 106.342 73.8976 106.291 73.1117C105.791 67.7614 115.195 64.8104 121.405 66.1948C115.355 63.8996 104.26 66.8766 104.807 72.6745Z" fill="#E8D1FA" style="mix-blend-mode:hard-light"/>
<path d="M116.963 42.873L99.9266 49.0457C100.359 49.0457 100.787 49.0665 101.205 49.1029L116.963 42.873Z" fill="#E8D1FA" style="mix-blend-mode:hard-light"/>
<path d="M77.0888 61.2502C77.1506 61.094 77.2228 60.9431 77.3104 60.7974C77.3104 60.7974 108.404 90.349 108.141 90.0835L78.0679 59.1319C77.7741 58.83 77.8823 58.3252 78.2688 58.1743L88.4976 54.1303C88.1782 54.8121 88.0287 55.5512 88.1008 56.3475C88.1678 57.3623 88.2297 60.1728 88.2297 60.2353C88.2297 61.8175 88.879 63.0405 89.9508 63.9357C89.8529 61.9528 89.6365 57.5705 89.5849 56.7846C89.0851 51.4343 98.4894 48.4833 104.699 49.8677C100.004 48.0878 92.28 49.4826 89.3067 52.902L78.0112 56.998C77.3052 57.253 76.7487 57.7527 76.3931 58.372C76.3158 58.5022 76.2488 58.6375 76.1922 58.778V58.7884C76.1355 58.9237 76.0891 59.0642 76.053 59.2048C76.0427 59.2412 76.0376 59.2828 76.0324 59.3245C76.0118 59.4338 75.986 59.5483 75.9757 59.6628C75.9603 59.8241 75.9551 59.9855 75.9706 60.1468L78.0472 91.4992C78.073 91.8843 76.8414 62.7699 76.8414 62.7699C76.8311 62.5877 76.8363 62.4108 76.8517 62.2338C76.862 62.1089 76.8878 61.984 76.9136 61.8591C76.9239 61.8175 76.929 61.7706 76.9394 61.729C76.9806 61.5729 77.0269 61.4167 77.0888 61.2658V61.2554V61.2502Z" fill="#E8D1FA" style="mix-blend-mode:hard-light"/>
<rect x="166.049" y="64" width="5.9604" height="6" rx="2.9802" fill="white" stroke="#8C17E8" stroke-width="2"/>
<rect x="130.406" y="33" width="5.9604" height="6" rx="2.9802" fill="white" stroke="#8C17E8" stroke-width="2"/>
<rect x="167.04" y="100" width="5.9604" height="6" rx="2.9802" fill="white" stroke="#8C17E8" stroke-width="2"/>
<rect x="107.634" y="122" width="5.9604" height="6" rx="2.9802" fill="white" stroke="#8C17E8" stroke-width="2"/>
<rect x="72.9802" y="91" width="5.9604" height="6" rx="2.9802" fill="white" stroke="#8C17E8" stroke-width="2"/>
<rect x="71" y="55" width="5.9604" height="6" rx="2.9802" fill="white" stroke="#8C17E8" stroke-width="2"/>
<path d="M275.233 123.598C275.202 122.761 274.832 121.975 274.218 121.413L241.336 91.4185C240.909 91.0282 240.3 90.9085 239.759 91.1011L236.787 92.2096C232.212 92.0691 227.033 93.7086 225.082 96.5659L207.881 102.968C202.884 102.567 196.842 104.414 195.057 107.74L176.768 114.548C175.961 114.542 175.128 114.584 174.275 114.699C170.71 115.167 167.712 116.598 166.088 118.383L146.971 125.243C146.165 125.238 145.337 125.28 144.489 125.394C140.929 125.862 137.931 127.289 136.307 129.074L124.842 133.191C123.53 133.664 122.687 134.944 122.781 136.339L124.826 166.895C124.888 167.791 125.274 168.629 125.914 169.258L157.401 200.033C157.833 200.46 158.479 200.59 159.046 200.376L275.452 156.689C276.081 156.45 276.487 155.841 276.461 155.169L275.244 123.609L275.233 123.598Z" fill="#E1E8EF"/>
<path d="M276.45 155.159L275.232 123.598C275.227 123.401 275.196 123.203 275.149 123.01C275.149 123 275.149 122.984 275.144 122.974C275.102 122.797 275.034 122.62 274.961 122.453C274.951 122.433 274.946 122.407 274.935 122.386L156.776 166.281C156.125 166.521 155.709 167.166 155.761 167.858L158.082 200.413C158.389 200.496 158.722 200.486 159.035 200.366L275.44 156.679C276.07 156.439 276.476 155.83 276.45 155.159Z" fill="#E3E7EB" style="mix-blend-mode:multiply"/>
<path d="M181.674 138.083C181.695 142.502 181.58 145.953 186.353 147.181L193.171 149.164H193.187C202.904 152.974 218.981 141.295 202.331 138.151C202.253 136.454 202.43 135.793 201.847 134.508C203.289 140.545 194.321 142.721 189.736 142.585C185.411 142.445 182.028 140.67 181.684 138.083H181.674Z" fill="#E3E7EB" style="mix-blend-mode:multiply"/>
<path d="M170.167 160.432C180.54 159.391 183.585 149.981 172.556 148.94C172.478 147.243 172.655 146.582 172.072 145.297C173.514 151.334 164.546 153.51 159.961 153.374C155.636 153.234 152.253 151.459 151.91 148.872C152.076 152.75 151.525 155.935 155.324 157.507C158.301 158.574 166.535 160.77 170.173 160.432H170.167Z" fill="#E3E7EB" style="mix-blend-mode:multiply"/>
<path d="M164.957 125.535C164.952 128.225 166.851 129.87 169.501 130.651L176.319 132.634H176.334C186.051 136.443 202.128 124.764 185.479 121.621C185.401 119.924 185.577 119.263 184.995 117.978C186.436 124.015 177.469 126.19 172.884 126.055C168.559 125.915 165.176 124.14 164.832 121.553C164.9 122.568 164.967 125.457 164.967 125.535H164.957Z" fill="#E3E7EB" style="mix-blend-mode:multiply"/>
<path d="M162.771 136.86C162.459 134.466 159.544 132.77 155.693 132.416C155.615 130.719 155.792 130.058 155.209 128.772C156.651 134.81 147.683 136.985 143.098 136.85C138.773 136.709 135.39 134.935 135.046 132.348C135.067 136.767 134.953 140.217 139.725 141.446L146.543 143.429H146.559C151.633 145.63 163.729 142.133 162.782 136.86H162.771Z" fill="#E3E7EB" style="mix-blend-mode:multiply"/>
<path d="M241.158 115.901C241.179 120.319 241.064 123.77 245.837 124.998L252.655 126.981H252.67C262.387 130.791 278.464 119.112 261.815 115.968C261.737 114.272 261.914 113.611 261.331 112.325C262.773 118.363 253.805 120.538 249.22 120.403C244.895 120.262 241.512 118.487 241.168 115.901H241.158Z" fill="#E3E7EB" style="mix-blend-mode:multiply"/>
<path d="M229.646 138.249C240.018 137.208 243.063 127.798 232.035 126.757C231.956 125.061 232.133 124.4 231.55 123.114C232.992 129.152 224.025 131.327 219.439 131.192C215.114 131.051 211.731 129.276 211.388 126.69C211.554 130.567 211.003 133.752 214.802 135.324C217.779 136.391 226.013 138.587 229.651 138.249H229.646Z" fill="#E3E7EB" style="mix-blend-mode:multiply"/>
<path d="M224.441 103.353C224.436 106.044 226.335 107.688 228.984 108.469L235.802 110.452H235.818C245.535 114.262 261.612 102.583 244.962 99.4391C244.884 97.7424 245.061 97.0814 244.478 95.7959C245.92 101.833 236.953 104.009 232.367 103.873C228.042 103.733 224.659 101.958 224.316 99.3714C224.384 100.386 224.451 103.275 224.451 103.353H224.441Z" fill="#E3E7EB" style="mix-blend-mode:multiply"/>
<path d="M222.255 114.673C221.943 112.279 219.028 110.582 215.177 110.228C215.099 108.531 215.276 107.87 214.693 106.585C216.134 112.622 207.167 114.798 202.582 114.662C198.257 114.522 194.874 112.747 194.53 110.161C194.551 114.579 194.437 118.03 199.209 119.258L206.027 121.241H206.043C211.117 123.443 223.213 119.945 222.265 114.673H222.255Z" fill="#E3E7EB" style="mix-blend-mode:multiply"/>
<path d="M198.449 131.697C192.339 129.402 181.134 132.379 181.685 138.176C181.753 139.191 181.816 142.002 181.816 142.064C181.816 143.646 182.471 144.87 183.554 145.765C183.455 143.782 183.236 139.4 183.184 138.614C182.679 133.263 192.178 130.312 198.449 131.697Z" fill="#E9F0F8" style="mix-blend-mode:hard-light"/>
<path d="M164.807 121.844C164.875 122.859 164.938 125.67 164.938 125.732C164.938 127.314 165.593 128.538 166.676 129.433C166.577 127.45 166.358 123.067 166.306 122.282C165.802 116.931 175.3 113.98 181.571 115.365C175.461 113.069 164.256 116.047 164.807 121.844Z" fill="#E9F0F8" style="mix-blend-mode:hard-light"/>
<path d="M151.894 148.872C151.962 149.887 152.024 152.697 152.024 152.76C152.024 154.342 152.68 155.565 153.763 156.46C153.664 154.477 153.445 150.095 153.393 149.309C152.888 143.959 162.387 141.008 168.658 142.392C162.548 140.097 151.343 143.074 151.894 148.872Z" fill="#E9F0F8" style="mix-blend-mode:hard-light"/>
<path d="M164.173 119.065L146.966 125.238C147.404 125.238 147.836 125.259 148.257 125.295L164.173 119.065Z" fill="#E9F0F8" style="mix-blend-mode:hard-light"/>
<path d="M123.904 137.443C123.967 137.286 124.039 137.135 124.128 136.99C124.128 136.99 155.532 166.541 155.267 166.276L124.888 135.324C124.591 135.022 124.7 134.518 125.091 134.367L135.422 130.323C135.099 131.004 134.948 131.744 135.021 132.54C135.089 133.555 135.151 136.365 135.151 136.428C135.151 138.01 135.807 139.233 136.89 140.128C136.791 138.145 136.572 133.763 136.52 132.977C136.015 127.627 145.514 124.676 151.785 126.06C147.044 124.28 139.242 125.675 136.239 129.094L124.831 133.19C124.117 133.445 123.555 133.945 123.196 134.564C123.118 134.695 123.051 134.83 122.993 134.97V134.981C122.936 135.116 122.889 135.257 122.853 135.397C122.842 135.434 122.837 135.475 122.832 135.517C122.811 135.626 122.785 135.741 122.775 135.855C122.759 136.016 122.754 136.178 122.769 136.339L124.867 167.692C124.893 168.077 123.649 138.962 123.649 138.962C123.639 138.78 123.644 138.603 123.659 138.426C123.67 138.301 123.696 138.176 123.722 138.051C123.732 138.01 123.738 137.963 123.748 137.921C123.79 137.765 123.836 137.609 123.899 137.458V137.448L123.904 137.443Z" fill="#E9F0F8" style="mix-blend-mode:hard-light"/>
<path d="M257.927 109.312C251.817 107.017 240.612 109.994 241.163 115.792C241.231 116.807 241.294 119.617 241.294 119.68C241.294 121.262 241.949 122.485 243.032 123.38C242.933 121.397 242.714 117.015 242.662 116.229C242.158 110.879 251.656 107.928 257.927 109.312Z" fill="#E9F0F8" style="mix-blend-mode:hard-light"/>
<path d="M224.29 99.4597C224.358 100.475 224.42 103.285 224.42 103.347C224.42 104.93 225.076 106.153 226.159 107.048C226.06 105.065 225.841 100.683 225.789 99.8968C225.284 94.5465 234.783 91.5955 241.054 92.9799C234.944 90.6847 223.738 93.6617 224.29 99.4597Z" fill="#E9F0F8" style="mix-blend-mode:hard-light"/>
<path d="M194.546 110.171C194.614 111.185 194.676 113.996 194.676 114.058C194.676 115.641 195.332 116.864 196.414 117.759C196.316 115.776 196.097 111.394 196.045 110.608C195.54 105.257 205.038 102.306 211.31 103.691C205.2 101.396 193.994 104.373 194.546 110.171Z" fill="#E9F0F8" style="mix-blend-mode:hard-light"/>
<path d="M211.378 126.487C211.446 127.502 211.508 130.312 211.508 130.375C211.508 131.957 212.164 133.18 213.246 134.075C213.147 132.092 212.929 127.71 212.877 126.924C212.372 121.574 221.87 118.623 228.142 120.007C222.032 117.712 210.826 120.689 211.378 126.487Z" fill="#E9F0F8" style="mix-blend-mode:hard-light"/>
<path d="M442.347 128.532C442.315 127.694 441.946 126.908 441.332 126.346L408.449 96.357C408.022 95.9667 407.414 95.847 406.872 96.0395L403.911 97.1481C399.315 97.0024 394.111 98.6574 392.175 101.536L375.109 107.916C370.045 107.474 363.862 109.363 362.123 112.767L344.053 119.523C339.666 119.481 334.82 121.037 332.837 123.718L315.292 130.275C310.385 129.947 304.555 131.748 302.739 134.97L285.215 141.522C280.76 141.45 275.8 143.037 273.828 145.78L256.434 152.28C251.474 151.916 245.541 153.748 243.745 157.022L225.441 163.866C224.634 163.86 223.801 163.902 222.948 164.017C219.382 164.485 216.385 165.916 214.761 167.701L195.644 174.561C194.838 174.556 194.01 174.597 193.162 174.712C189.602 175.18 186.604 176.606 184.98 178.392L173.514 182.508C172.203 182.982 171.36 184.262 171.453 185.657L173.499 216.213C173.556 217.109 173.946 217.946 174.587 218.576L206.074 249.351C206.506 249.778 207.152 249.908 207.719 249.694L442.565 161.628C443.195 161.388 443.601 160.779 443.575 160.108L442.357 128.547L442.347 128.532Z" fill="#E1E8EF"/>
<path d="M443.565 160.092L442.347 128.531C442.341 128.333 442.31 128.135 442.263 127.943C442.263 127.933 442.263 127.917 442.258 127.906C442.217 127.73 442.149 127.553 442.076 127.386C442.066 127.365 442.06 127.339 442.05 127.318L205.45 215.598C204.799 215.838 204.383 216.483 204.435 217.175L206.756 249.73C207.063 249.813 207.396 249.803 207.709 249.683L442.555 161.617C443.185 161.377 443.591 160.768 443.565 160.097V160.092Z" fill="#E3E7EB" style="mix-blend-mode:multiply"/>
<path d="M230.348 187.395C230.369 191.814 230.254 195.264 235.027 196.492L241.845 198.475H241.861C251.578 202.285 267.654 190.606 251.005 187.463C250.927 185.766 251.104 185.105 250.521 183.819C251.963 189.857 242.995 192.032 238.41 191.897C234.085 191.756 230.702 189.982 230.358 187.395H230.348Z" fill="#E3E7EB" style="mix-blend-mode:multiply"/>
<path d="M218.84 209.743C229.213 208.702 232.258 199.293 221.229 198.252C221.151 196.555 221.328 195.894 220.745 194.608C222.187 200.646 213.219 202.821 208.634 202.686C204.309 202.545 200.926 200.771 200.583 198.184C200.749 202.061 200.198 205.247 203.997 206.818C206.974 207.885 215.208 210.082 218.846 209.743H218.84Z" fill="#E3E7EB" style="mix-blend-mode:multiply"/>
<path d="M213.631 174.847C213.626 177.538 215.525 179.182 218.174 179.963L224.992 181.946H225.008C234.725 185.756 250.802 174.077 234.153 170.933C234.074 169.237 234.251 168.576 233.669 167.29C235.11 173.327 226.143 175.503 221.557 175.368C217.232 175.227 213.849 173.452 213.506 170.866C213.574 171.88 213.641 174.769 213.641 174.847H213.631Z" fill="#E3E7EB" style="mix-blend-mode:multiply"/>
<path d="M211.445 186.172C211.133 183.778 208.218 182.081 204.367 181.727C204.289 180.03 204.466 179.37 203.883 178.084C205.325 184.121 196.357 186.297 191.772 186.162C187.447 186.021 184.064 184.246 183.72 181.66C183.741 186.078 183.627 189.529 188.399 190.757L195.217 192.74H195.233C200.307 194.942 212.403 191.444 211.456 186.172H211.445Z" fill="#E3E7EB" style="mix-blend-mode:multiply"/>
<path d="M289.831 165.213C289.852 169.632 289.737 173.083 294.51 174.311L301.328 176.294H301.343C311.06 180.104 327.137 168.424 310.488 165.281C310.41 163.584 310.587 162.923 310.004 161.638C311.446 167.675 302.478 169.851 297.893 169.715C293.568 169.575 290.185 167.8 289.841 165.213H289.831Z" fill="#E3E7EB" style="mix-blend-mode:multiply"/>
<path d="M278.319 187.562C288.691 186.521 291.736 177.111 280.707 176.07C280.629 174.373 280.806 173.712 280.223 172.427C281.665 178.464 272.698 180.64 268.112 180.504C263.787 180.364 260.404 178.589 260.061 176.002C260.227 179.88 259.676 183.065 263.475 184.637C266.452 185.704 274.686 187.9 278.324 187.562H278.319Z" fill="#E3E7EB" style="mix-blend-mode:multiply"/>
<path d="M273.114 152.665C273.109 155.356 275.008 157.001 277.657 157.782L284.475 159.764H284.491C294.208 163.574 310.285 151.895 293.635 148.752C293.557 147.055 293.734 146.394 293.151 145.108C294.593 151.146 285.626 153.321 281.04 153.186C276.715 153.045 273.332 151.271 272.989 148.684C273.057 149.699 273.124 152.587 273.124 152.665H273.114Z" fill="#E3E7EB" style="mix-blend-mode:multiply"/>
<path d="M270.928 163.99C270.616 161.596 267.701 159.899 263.85 159.546C263.772 157.849 263.949 157.188 263.366 155.902C264.807 161.94 255.84 164.115 251.255 163.98C246.93 163.839 243.547 162.065 243.203 159.478C243.224 163.897 243.11 167.347 247.882 168.575L254.7 170.558H254.716C259.79 172.76 271.886 169.262 270.938 163.99H270.928Z" fill="#E3E7EB" style="mix-blend-mode:multiply"/>
<path d="M348.794 143.135C348.815 147.554 348.7 151.004 353.473 152.233L360.291 154.216H360.306C370.023 158.025 386.1 146.346 369.451 143.203C369.373 141.506 369.55 140.845 368.967 139.56C370.408 145.597 361.441 147.772 356.856 147.637C352.531 147.497 349.148 145.722 348.804 143.135H348.794Z" fill="#E3E7EB" style="mix-blend-mode:multiply"/>
<path d="M337.281 165.489C347.654 164.448 350.699 155.039 339.67 153.998C339.592 152.301 339.769 151.64 339.186 150.354C340.628 156.392 331.66 158.567 327.075 158.432C322.75 158.291 319.367 156.517 319.024 153.93C319.19 157.807 318.639 160.993 322.438 162.564C325.415 163.631 333.649 165.828 337.287 165.489H337.281Z" fill="#E3E7EB" style="mix-blend-mode:multiply"/>
<path d="M332.072 130.592C332.067 133.283 333.966 134.928 336.616 135.708L343.434 137.691H343.449C353.166 141.501 369.243 129.822 352.594 126.678C352.516 124.982 352.692 124.321 352.11 123.035C353.551 129.072 344.584 131.248 339.999 131.113C335.674 130.972 332.291 129.197 331.947 126.611C332.015 127.626 332.082 130.514 332.082 130.592H332.072Z" fill="#E3E7EB" style="mix-blend-mode:multiply"/>
<path d="M329.891 141.912C329.579 139.518 326.664 137.821 322.813 137.467C322.735 135.771 322.911 135.11 322.329 133.824C323.77 139.862 314.803 142.037 310.218 141.902C305.892 141.761 302.51 139.986 302.166 137.4C302.187 141.818 302.072 145.269 306.845 146.497L313.663 148.48H313.679C318.753 150.682 330.848 147.184 329.901 141.912H329.891Z" fill="#E3E7EB" style="mix-blend-mode:multiply"/>
<path d="M408.276 120.953C408.297 125.372 408.183 128.823 412.955 130.051L419.773 132.034H419.789C429.506 135.844 445.583 124.165 428.933 121.021C428.855 119.324 429.032 118.663 428.449 117.378C429.891 123.415 420.924 125.591 416.338 125.455C412.013 125.315 408.63 123.54 408.287 120.953H408.276Z" fill="#E3E7EB" style="mix-blend-mode:multiply"/>
<path d="M396.764 143.302C407.137 142.261 410.182 132.851 399.153 131.81C399.075 130.114 399.252 129.453 398.669 128.167C400.111 134.204 391.143 136.38 386.558 136.244C382.233 136.104 378.85 134.329 378.507 131.743C378.673 135.62 378.121 138.805 381.921 140.377C384.898 141.444 393.131 143.64 396.769 143.302H396.764Z" fill="#E3E7EB" style="mix-blend-mode:multiply"/>
<path d="M391.555 108.411C391.55 111.101 393.449 112.746 396.098 113.527L402.916 115.51H402.932C412.649 119.319 428.726 107.64 412.076 104.497C411.998 102.8 412.175 102.139 411.592 100.854C413.034 106.891 404.067 109.066 399.481 108.931C395.156 108.79 391.773 107.016 391.43 104.429C391.498 105.444 391.565 108.332 391.565 108.411H391.555Z" fill="#E3E7EB" style="mix-blend-mode:multiply"/>
<path d="M389.374 119.731C389.061 117.336 386.147 115.64 382.295 115.286C382.217 113.589 382.394 112.928 381.811 111.643C383.253 117.68 374.286 119.855 369.7 119.72C365.375 119.58 361.992 117.805 361.649 115.218C361.67 119.637 361.555 123.087 366.328 124.316L373.146 126.299H373.161C378.236 128.5 390.331 125.003 389.384 119.731H389.374Z" fill="#E3E7EB" style="mix-blend-mode:multiply"/>
<path d="M247.123 181.009C241.013 178.714 229.807 181.691 230.359 187.489C230.427 188.504 230.489 191.314 230.489 191.377C230.489 192.959 231.145 194.182 232.227 195.077C232.129 193.094 231.91 188.712 231.858 187.926C231.353 182.576 240.851 179.625 247.123 181.009Z" fill="#E9F0F8" style="mix-blend-mode:hard-light"/>
<path d="M213.48 171.157C213.548 172.172 213.61 174.982 213.61 175.045C213.61 176.627 214.266 177.85 215.349 178.745C215.25 176.762 215.031 172.38 214.979 171.594C214.474 166.244 223.973 163.293 230.244 164.677C224.134 162.382 212.928 165.359 213.48 171.157Z" fill="#E9F0F8" style="mix-blend-mode:hard-light"/>
<path d="M200.568 198.184C200.636 199.199 200.698 202.01 200.698 202.072C200.698 203.654 201.354 204.877 202.436 205.773C202.337 203.79 202.119 199.407 202.067 198.621C201.562 193.271 211.06 190.32 217.332 191.705C211.222 189.409 200.016 192.386 200.568 198.184Z" fill="#E9F0F8" style="mix-blend-mode:hard-light"/>
<path d="M212.845 168.378L195.639 174.551C196.076 174.551 196.508 174.571 196.93 174.608L212.845 168.378Z" fill="#E9F0F8" style="mix-blend-mode:hard-light"/>
<path d="M172.578 186.755C172.64 186.599 172.713 186.448 172.802 186.302C172.802 186.302 204.206 215.854 203.941 215.588L173.567 184.637C173.27 184.335 173.38 183.83 173.77 183.679L184.101 179.635C183.778 180.317 183.627 181.056 183.7 181.852C183.768 182.867 183.83 185.678 183.83 185.74C183.83 187.322 184.486 188.545 185.569 189.441C185.47 187.458 185.251 183.075 185.199 182.29C184.694 176.939 194.193 173.988 200.464 175.373C195.723 173.593 187.921 174.987 184.918 178.407L173.51 182.503C172.797 182.758 172.235 183.258 171.875 183.877C171.797 184.007 171.73 184.142 171.672 184.283V184.293C171.615 184.429 171.568 184.569 171.532 184.71C171.522 184.746 171.516 184.788 171.511 184.829C171.49 184.939 171.464 185.053 171.454 185.168C171.438 185.329 171.433 185.49 171.449 185.652L173.546 217.004C173.572 217.389 172.328 188.275 172.328 188.275C172.318 188.093 172.323 187.916 172.339 187.739C172.349 187.614 172.375 187.489 172.401 187.364C172.411 187.322 172.417 187.276 172.427 187.234C172.469 187.078 172.516 186.922 172.578 186.771V186.76V186.755Z" fill="#E9F0F8" style="mix-blend-mode:hard-light"/>
<path d="M306.6 158.624C300.49 156.329 289.285 159.306 289.836 165.104C289.904 166.119 289.966 168.93 289.966 168.992C289.966 170.574 290.622 171.797 291.705 172.692C291.606 170.71 291.387 166.327 291.335 165.541C290.83 160.191 300.329 157.24 306.6 158.624Z" fill="#E9F0F8" style="mix-blend-mode:hard-light"/>
<path d="M272.963 148.772C273.031 149.787 273.093 152.598 273.093 152.66C273.093 154.242 273.749 155.465 274.832 156.36C274.733 154.378 274.514 149.995 274.462 149.209C273.957 143.859 283.455 140.908 289.727 142.292C283.617 139.997 272.411 142.974 272.963 148.772Z" fill="#E9F0F8" style="mix-blend-mode:hard-light"/>
<path d="M243.219 159.483C243.287 160.498 243.349 163.308 243.349 163.371C243.349 164.953 244.005 166.176 245.087 167.071C244.988 165.088 244.77 160.706 244.718 159.92C244.213 154.57 253.711 151.619 259.983 153.003C253.873 150.708 242.667 153.685 243.219 159.483Z" fill="#E9F0F8" style="mix-blend-mode:hard-light"/>
<path d="M260.051 175.799C260.118 176.814 260.181 179.625 260.181 179.687C260.181 181.27 260.837 182.493 261.919 183.388C261.82 181.405 261.602 177.023 261.55 176.237C261.045 170.886 270.543 167.935 276.815 169.32C270.705 167.025 259.499 170.002 260.051 175.799Z" fill="#E9F0F8" style="mix-blend-mode:hard-light"/>
<path d="M272.328 145.993L255.122 152.166C255.559 152.166 255.991 152.187 256.413 152.223L272.328 145.993Z" fill="#E9F0F8" style="mix-blend-mode:hard-light"/>
<path d="M365.564 136.63C359.454 134.335 348.248 137.312 348.8 143.11C348.867 144.125 348.93 146.935 348.93 146.998C348.93 148.58 349.586 149.803 350.668 150.698C350.569 148.715 350.351 144.333 350.299 143.547C349.794 138.197 359.292 135.246 365.564 136.63Z" fill="#E9F0F8" style="mix-blend-mode:hard-light"/>
<path d="M331.926 126.778C331.994 127.793 332.057 130.603 332.057 130.666C332.057 132.248 332.712 133.471 333.795 134.366C333.696 132.383 333.477 128.001 333.425 127.215C332.921 121.865 342.419 118.914 348.69 120.298C342.58 118.003 331.375 120.98 331.926 126.778Z" fill="#E9F0F8" style="mix-blend-mode:hard-light"/>
<path d="M302.182 137.489C302.25 138.504 302.312 141.314 302.312 141.377C302.312 142.959 302.968 144.182 304.051 145.077C303.952 143.094 303.733 138.712 303.681 137.926C303.176 132.576 312.675 129.625 318.946 131.009C312.836 128.714 301.631 131.691 302.182 137.489Z" fill="#E9F0F8" style="mix-blend-mode:hard-light"/>
<path d="M319.014 153.805C319.082 154.82 319.144 157.631 319.144 157.693C319.144 159.275 319.8 160.498 320.883 161.394C320.784 159.411 320.565 155.028 320.513 154.243C320.008 148.892 329.507 145.941 335.778 147.326C329.668 145.03 318.463 148.007 319.014 153.805Z" fill="#E9F0F8" style="mix-blend-mode:hard-light"/>
<path d="M331.292 123.999L314.085 130.172C314.523 130.172 314.955 130.192 315.376 130.229L331.292 123.999Z" fill="#E9F0F8" style="mix-blend-mode:hard-light"/>
<path d="M425.047 114.246C418.937 111.95 407.732 114.927 408.283 120.725C408.351 121.74 408.413 124.551 408.413 124.613C408.413 126.195 409.069 127.418 410.152 128.314C410.053 126.331 409.834 121.948 409.782 121.162C409.277 115.812 418.776 112.861 425.047 114.246Z" fill="#E9F0F8" style="mix-blend-mode:hard-light"/>
<path d="M391.41 104.393C391.478 105.408 391.54 108.219 391.54 108.281C391.54 109.863 392.196 111.086 393.278 111.982C393.179 109.999 392.961 105.616 392.909 104.83C392.404 99.4801 401.902 96.5291 408.174 97.9135C402.064 95.6183 390.858 98.5953 391.41 104.393Z" fill="#E9F0F8" style="mix-blend-mode:hard-light"/>
<path d="M361.666 115.104C361.733 116.119 361.796 118.93 361.796 118.992C361.796 120.574 362.452 121.797 363.534 122.692C363.435 120.71 363.217 116.327 363.165 115.541C362.66 110.191 372.158 107.24 378.43 108.624C372.319 106.329 361.114 109.306 361.666 115.104Z" fill="#E9F0F8" style="mix-blend-mode:hard-light"/>
<path d="M378.498 131.421C378.565 132.435 378.628 135.246 378.628 135.308C378.628 136.891 379.283 138.114 380.366 139.009C380.267 137.026 380.049 132.644 379.997 131.858C379.492 126.507 388.99 123.556 395.262 124.941C389.151 122.646 377.946 125.623 378.498 131.421Z" fill="#E9F0F8" style="mix-blend-mode:hard-light"/>
<path d="M390.77 101.614L373.563 107.787C374 107.787 374.432 107.808 374.854 107.844L390.77 101.614Z" fill="#E9F0F8" style="mix-blend-mode:hard-light"/>
<path d="M209.221 49.8184V48.6816H204.504V49.8184H209.221ZM216.308 49.8184V48.6816H211.591V49.8184H216.308ZM218.104 55.4375H219.504V52.4258C219.578 52.5078 219.658 52.584 219.744 52.6543C219.83 52.7246 219.92 52.7871 220.014 52.8418C220.174 52.9316 220.348 53 220.535 53.0469C220.727 53.0938 220.936 53.1172 221.162 53.1172C221.561 53.1172 221.914 53.0352 222.223 52.8711C222.531 52.707 222.791 52.4805 223.002 52.1914C223.213 51.9062 223.371 51.5664 223.477 51.1719C223.586 50.7773 223.641 50.3516 223.641 49.8945V49.7715C223.641 49.2949 223.586 48.8594 223.477 48.4648C223.367 48.0664 223.209 47.7246 223.002 47.4395C222.791 47.1543 222.529 46.9336 222.217 46.7773C221.908 46.6211 221.551 46.543 221.145 46.543C220.938 46.543 220.742 46.5664 220.559 46.6133C220.375 46.6562 220.207 46.7188 220.055 46.8008C219.938 46.8633 219.828 46.9375 219.727 47.0234C219.625 47.1094 219.531 47.2051 219.445 47.3105L219.393 46.6602H218.104V55.4375ZM222.24 49.7715V49.8945C222.24 50.1758 222.213 50.4434 222.158 50.6973C222.104 50.9473 222.016 51.1699 221.895 51.3652C221.778 51.5566 221.625 51.709 221.438 51.8223C221.254 51.9316 221.031 51.9863 220.77 51.9863C220.61 51.9863 220.463 51.9688 220.33 51.9336C220.197 51.8945 220.078 51.8438 219.973 51.7812C219.871 51.7148 219.781 51.6367 219.703 51.5469C219.625 51.457 219.559 51.3574 219.504 51.248V48.4297C219.567 48.3125 219.639 48.207 219.721 48.1133C219.807 48.0195 219.906 47.9414 220.02 47.8789C220.117 47.8203 220.229 47.7754 220.354 47.7441C220.479 47.7129 220.613 47.6973 220.758 47.6973C221.02 47.6973 221.244 47.752 221.432 47.8613C221.619 47.9707 221.774 48.1191 221.895 48.3066C222.012 48.4941 222.098 48.7148 222.153 48.9688C222.211 49.2188 222.24 49.4863 222.24 49.7715ZM230.482 49.8184V48.6816H225.765V49.8184H230.482ZM236.409 51.2832C236.409 51.3848 236.385 51.4785 236.338 51.5645C236.295 51.6465 236.229 51.7227 236.139 51.793C236.03 51.8789 235.883 51.9473 235.7 51.998C235.52 52.0488 235.309 52.0742 235.067 52.0742C234.887 52.0742 234.709 52.0566 234.534 52.0215C234.358 51.9824 234.202 51.9199 234.065 51.834C233.924 51.752 233.807 51.6445 233.713 51.5117C233.623 51.375 233.573 51.209 233.561 51.0137H232.202C232.202 51.2754 232.264 51.5332 232.389 51.7871C232.514 52.041 232.698 52.2656 232.94 52.4609C233.178 52.6602 233.473 52.8203 233.825 52.9414C234.18 53.0625 234.586 53.123 235.043 53.123C235.454 53.123 235.827 53.0762 236.163 52.9824C236.498 52.8887 236.788 52.7578 237.03 52.5898C237.268 52.4219 237.452 52.2207 237.58 51.9863C237.713 51.752 237.78 51.4941 237.78 51.2129C237.78 50.9238 237.717 50.6738 237.592 50.4629C237.467 50.252 237.291 50.0684 237.065 49.9121C236.838 49.7637 236.565 49.6387 236.245 49.5371C235.924 49.4355 235.571 49.3496 235.184 49.2793C234.907 49.2324 234.676 49.1797 234.493 49.1211C234.313 49.0625 234.172 48.998 234.071 48.9277C233.961 48.8613 233.885 48.7852 233.842 48.6992C233.799 48.6094 233.778 48.5098 233.778 48.4004C233.778 48.2949 233.803 48.1953 233.854 48.1016C233.905 48.0039 233.981 47.9199 234.082 47.8496C234.184 47.7715 234.313 47.7109 234.469 47.668C234.629 47.6211 234.815 47.5977 235.026 47.5977C235.256 47.5977 235.457 47.6289 235.629 47.6914C235.801 47.75 235.942 47.8301 236.051 47.9316C236.145 48.0176 236.215 48.1152 236.262 48.2246C236.313 48.3301 236.338 48.4414 236.338 48.5586H237.739C237.739 48.2734 237.676 48.0078 237.551 47.7617C237.426 47.5156 237.248 47.3027 237.018 47.123C236.784 46.9434 236.498 46.8027 236.163 46.7012C235.827 46.5957 235.448 46.543 235.026 46.543C234.631 46.543 234.272 46.5938 233.948 46.6953C233.627 46.7969 233.354 46.9355 233.127 47.1113C232.897 47.2871 232.719 47.4922 232.594 47.7266C232.473 47.957 232.413 48.2012 232.413 48.459C232.413 48.7285 232.473 48.9648 232.594 49.168C232.715 49.3711 232.883 49.5469 233.098 49.6953C233.317 49.8516 233.577 49.9844 233.877 50.0938C234.182 50.2031 234.518 50.2949 234.885 50.3691C235.178 50.4238 235.422 50.4824 235.618 50.5449C235.813 50.6074 235.971 50.6738 236.092 50.7441C236.205 50.8223 236.286 50.9043 236.332 50.9902C236.383 51.0762 236.409 51.1738 236.409 51.2832ZM239.675 46.6602V47.8262H241.626V51.8398H239.675V53H244.902V51.8398H243.039V46.6602H239.675ZM241.498 45.0195C241.498 45.168 241.533 45.2988 241.603 45.4121C241.677 45.5215 241.785 45.5977 241.925 45.6406C242.062 45.6836 242.187 45.6934 242.3 45.6699C242.414 45.6465 242.511 45.5977 242.593 45.5234C242.757 45.4805 242.882 45.3965 242.968 45.2715C243.054 45.1426 243.084 44.9922 243.056 44.8203C243.037 44.6523 242.96 44.5156 242.828 44.4102C242.699 44.3008 242.529 44.2461 242.318 44.2461C242.193 44.2461 242.08 44.2656 241.978 44.3047C241.88 44.3398 241.796 44.3906 241.726 44.457C241.652 44.5273 241.595 44.6113 241.556 44.709C241.517 44.8027 241.498 44.9062 241.498 45.0195ZM248.198 51.8691L251.883 47.5508V46.6602H246.399V47.8027H249.973L246.329 52.0801V53H252.059V51.8691H248.198ZM256.486 53.1172C257.103 53.1172 257.629 52.9961 258.062 52.7539C258.5 52.5117 258.824 52.2383 259.035 51.9336L258.285 51.207C258.09 51.457 257.842 51.6504 257.541 51.7871C257.24 51.9199 256.916 51.9863 256.568 51.9863C256.314 51.9863 256.08 51.9434 255.865 51.8574C255.654 51.7715 255.47 51.6504 255.314 51.4941C255.158 51.3457 255.035 51.1777 254.945 50.9902C254.855 50.8027 254.789 50.5703 254.746 50.293V50.2637H259.14V49.6602C259.14 49.207 259.08 48.7891 258.959 48.4062C258.838 48.0234 258.658 47.6934 258.42 47.416C258.181 47.1426 257.886 46.9297 257.535 46.7773C257.183 46.6211 256.779 46.543 256.322 46.543C255.912 46.543 255.525 46.6211 255.162 46.7773C254.803 46.9297 254.486 47.1484 254.213 47.4336C253.939 47.7188 253.724 48.0625 253.568 48.4648C253.412 48.8672 253.334 49.3164 253.334 49.8125V50.0527C253.334 50.4863 253.408 50.8906 253.556 51.2656C253.709 51.6367 253.924 51.959 254.201 52.2324C254.478 52.5098 254.81 52.7266 255.197 52.8828C255.588 53.0391 256.017 53.1172 256.486 53.1172ZM256.316 47.6797C256.551 47.6797 256.756 47.7207 256.931 47.8027C257.111 47.8809 257.26 47.9863 257.377 48.1191C257.498 48.2559 257.592 48.416 257.658 48.5996C257.724 48.7793 257.758 48.9609 257.758 49.1445V49.2383H254.775C254.818 48.9961 254.885 48.7793 254.974 48.5879C255.064 48.3965 255.176 48.2324 255.308 48.0957C255.441 47.9629 255.592 47.8613 255.76 47.791C255.931 47.7168 256.117 47.6797 256.316 47.6797ZM265.917 49.8184V48.6816H261.2V49.8184H265.917ZM271.492 53V44.4688H271.404L267.895 45.7695V47.0059L270.08 46.2031V53H271.492Z" fill="#8C17E8"/>
<defs>
<filter id="filter0_f_784_75170" x="62.279" y="87.6768" width="123.467" height="82.4844" filterUnits="userSpaceOnUse" color-interpolation-filters="sRGB">
<feFlood flood-opacity="0" result="BackgroundImageFix"/>
<feBlend mode="normal" in="SourceGraphic" in2="BackgroundImageFix" result="shape"/>
<feGaussianBlur stdDeviation="8" result="effect1_foregroundBlur_784_75170"/>
</filter>
</defs>
</svg>
