<svg width="10" height="9" viewBox="0 0 10 9" fill="none" xmlns="http://www.w3.org/2000/svg">
<path fill-rule="evenodd" clip-rule="evenodd" d="M0 0.5C0 0.223858 0.223858 0 0.5 0H9.5C9.77614 0 10 0.223858 10 0.5C10 0.776142 9.77614 1 9.5 1H0.5C0.223858 1 0 0.776142 0 0.5ZM0 4.5C0 4.22386 0.223858 4 0.5 4H9.5C9.77614 4 10 4.22386 10 4.5C10 4.77614 9.77614 5 9.5 5H0.5C0.223858 5 0 4.77614 0 4.5ZM0.5 8C0.223858 8 0 8.22386 0 8.5C0 8.77614 0.223858 9 0.5 9H9.5C9.77614 9 10 8.77614 10 8.5C10 8.22386 9.77614 8 9.5 8H0.5Z" fill="black"/>
</svg>
