<svg width="10" height="9" viewBox="0 0 10 9" fill="none" xmlns="http://www.w3.org/2000/svg">
<path fill-rule="evenodd" clip-rule="evenodd" d="M1.05204 8.13173C0.856777 8.32699 0.856777 8.64357 1.05204 8.83884C1.2473 9.0341 1.56388 9.0341 1.75915 8.83883L5.29464 5.30334L8.83014 8.83884C9.0254 9.0341 9.34198 9.0341 9.53725 8.83884C9.73251 8.64357 9.73251 8.32699 9.53724 8.13173L6.00175 4.59623L9.53732 1.06066C9.73258 0.865399 9.73258 0.548816 9.53732 0.353554C9.34206 0.158292 9.02548 0.158292 8.83021 0.353554L5.29464 3.88913L1.75907 0.353554C1.56381 0.158292 1.24723 0.158292 1.05196 0.353554C0.856702 0.548816 0.856702 0.865399 1.05196 1.06066L4.58754 4.59623L1.05204 8.13173Z" fill="black"/>
</svg>
