<svg id="Artwork" xmlns="http://www.w3.org/2000/svg" viewBox="0 0 1920 1080"><title>emptystate-inventory</title><polygon points="1103.8 652 800.66 656.41 810.87 181.2 1103.8 181.2 1103.8 652" style="fill:#fff"/><path d="M814.28,493.3c28.26-.37,55.89-13.75,71.38-34.56s19.59-48.11,40.71-64.48c26.75-20.75,69.13-15.16,99.86-31.06,37.79-19.55,36.58-65.26,69.43-90.8l2.43-85.79-282.33.32L814.28,493.3" style="fill:#f4f6f8;stroke:#f4f6f8;stroke-miterlimit:10;stroke-width:6.3406590736921px;opacity:0.30000000000000004"/><path d="M957.7,184.06s.08.88.2,2.42l.17,2.78c.05,1.07.17,2.29.19,3.61s-.07,2.75-.16,4.27c-.06.76-.16,1.54-.24,2.33a4.41,4.41,0,0,1-.08.6c-.05.2-.16.4-.24.61a4,4,0,0,0-.16,1.23c-.09,1.65,0,3.36-.2,5.09a41.76,41.76,0,0,0-.73,5.26c0,1.76.11,3.52.28,5.26l.53,5.09c.2,1.65.3,3.25.42,4.76a15.6,15.6,0,0,1,.08,2.21c-.06.71-.21,1.4-.28,2.06s-.18,1.29-.22,1.9a16.57,16.57,0,0,0,0,1.71c0,1.07.09,2,.17,2.78s.13,1.38.18,1.79l.07.63h-5.07s-.08-.88-.16-2.42l-.15-2.78a22.23,22.23,0,0,1,0-3.61c.06-.66.25-1.35.35-2.06a15.63,15.63,0,0,0,.08-2.21c0-1.51,0-3.11,0-4.76s0-3.36-.09-5.09-.09-3.5-.17-5.26-.62-3.52-.59-5.26.61-3.44,1-5.09a3,3,0,0,0,.09-1.23,5.09,5.09,0,0,1-.17-.61,3.29,3.29,0,0,1,0-.6c.08-.79.26-1.57.4-2.33a12.41,12.41,0,0,0,.26-2.21,6.41,6.41,0,0,0-.39-2.06,7.58,7.58,0,0,1-.25-1.9l-.11-1.71c-.08-1.07-.07-2-.1-2.78s0-1.38,0-1.79v-.63Z" style="fill:#f4f6f8"/><path d="M792,412.92l13.26,0,15.22,0c5.88,0,12.51-.09,19.74,0l11.28.11,12.07.3,12.75.32c2.17,0,4.37.17,6.59.38s4.46.16,6.72.21c9,.17,18.38.24,27.87.5s19.12,1,28.77,1c4.82.08,9.64,0,14.44,0s9.59,0,14.33,0l27.87-.22,26.07-.18,6.13,0c2,0,4,0,5.94.06l11.28.39c7.23.26,13.86.44,19.73.38l15.22,0c4.22,0,7.53,0,9.79-.06l3.47,0,0,5.07h-13.26l-15.22,0c-5.88,0-12.51.05-19.73-.18l-11.28-.46c-3.9-.13-7.93-.16-12.07-.18l-26.06-.19L975,419.86l-28.77-.18c-9.64,0-19.29.44-28.78.28l-3.55,0-3.53-.11c-2.35-.06-4.69-.15-7-.3-4.65-.22-9.24-.6-13.76-.77-2.26-.09-4.5-.26-6.72-.18a60.12,60.12,0,0,1-6.59.06c-4.35-.12-8.6-.33-12.74-.52s-8.17-.3-12.07-.38c-1.95,0-3.87,0-5.75.05l-5.54.22c-3.62.15-7.08.16-10.38.14h-9.36l-15.22,0c-4.22,0-7.53-.08-9.79-.09L792,418Z" style="fill:#f4f6f8"/><path d="M809.79,305.19l12.49-.16,14.34-.19c5.54,0,11.78-.21,18.6-.17h10.63l11.38.18,12,.19c2,0,4.12.13,6.21.31s4.2.12,6.33.14c8.52.08,17.32.05,26.26.23s18,.77,27.12.7c4.54,0,9.09-.07,13.61-.1s9-.06,13.5-.16l26.26-.49,24.56-.43,5.77-.1c1.9,0,3.76,0,5.6,0l10.63.27c6.81.19,13.06.3,18.6.18l14.34-.17c4,0,7.1-.11,9.23-.16l3.27-.07v5.07l-12.49.15-14.34.17c-5.54.06-11.78.18-18.6,0l-10.63-.34c-3.67-.09-7.47-.08-11.38-.06l-24.56.06-26.26.07c-8.94,0-18,0-27.12.1S937,311.06,928,311H924.7l-3.33-.08c-2.22,0-4.42-.1-6.61-.23-4.38-.18-8.71-.51-13-.63-2.13-.07-4.24-.22-6.33-.11a53.6,53.6,0,0,1-6.21.12c-4.1-.08-8.11-.25-12-.39s-7.7-.22-11.38-.26c-1.84,0-3.64,0-5.41.11l-5.22.28c-3.41.18-6.67.23-9.78.24l-8.82.08-14.34.13c-4,0-7.1,0-9.23,0h-3.27Z" style="fill:#f4f6f8"/><path d="M792,537.2c5.84-.43,11.69-1.07,17.55-.61l2.2.15a8,8,0,0,1,1.1.3,6.12,6.12,0,0,0,1.1.08c1.46.07,2.93,0,4.39,0a35.55,35.55,0,0,1,4.4.33,29.07,29.07,0,0,0,4.4.37c2.92-.14,5.85-.29,8.77-.62s5.84-.66,8.76-.85a33.1,33.1,0,0,1,4.39-.2c1.47.14,2.93.28,4.4.38a80.77,80.77,0,0,0,8.77-.6l.09,5.07c-2.92.24-5.85.39-8.77.57a19.49,19.49,0,0,1-2.2,0c-.73,0-1.47-.18-2.2-.26a36.6,36.6,0,0,0-4.39-.05c-2.92.07-5.85.06-8.78.19l-8.77.38c-2.92.22-5.83,1-8.77.62-1.47-.19-2.94-.6-4.4-.79a4.7,4.7,0,0,0-1.1-.07,5.59,5.59,0,0,1-1.09.23c-.73-.06-1.46-.1-2.2-.2a24.16,24.16,0,0,0-4.4-.37,11.57,11.57,0,0,0-2.19.42,10.73,10.73,0,0,1-2.19.29c-2.92.21-5.85.38-8.77.37Z" style="fill:#f4f6f8"/><path d="M824.56,154.3l1.48-2.87,1.78-3.44c.36-.67.7-1.41,1.16-2.17l1.5-2.42c1.07-1.69,2.2-3.62,3.54-5.62l4.59-6.27.62-.85.69-.81,1.41-1.66,3-3.46a47.84,47.84,0,0,1,3.28-3.48l3.55-3.54.91-.91,1-.85,2-1.73,4.11-3.54,4.51-3.33,2.31-1.7c.39-.28.77-.58,1.17-.85l1.23-.78a129.71,129.71,0,0,1,21.58-11.6l2.9-1.34,3-1.16,6.08-2.33c2.07-.7,4.18-1.3,6.29-2l3.17-1c1.06-.33,2.16-.5,3.25-.76l6.55-1.44c2.19-.45,4.43-.7,6.65-1.06s4.44-.74,6.7-.86l6.74-.64c.56-.05,1.12-.12,1.68-.15l1.69-.07,3.38-.14,3.38-.14,1.69-.07.42,0h.44l.84,0,6.69.13c2.23.06,4.47.3,6.69.45a151.44,151.44,0,0,1,25.76,4.33,143.65,143.65,0,0,1,23.13,8c3.62,1.45,6.94,3.32,10.2,5,1.59.91,3.13,1.85,4.64,2.78l2.24,1.37c.74.46,1.43,1,2.13,1.45l4.1,2.84c.68.45,1.31,1,1.93,1.44l1.87,1.43,3.58,2.76L1051,114c1,.9,2.11,1.72,3,2.61l2.71,2.56,2.5,2.36,2.15,2.29c1.35,1.46,2.6,2.72,3.6,3.89l2.5,3,2.08,2.52a1.52,1.52,0,0,1-2.34,1.94h0l-.08-.09-2-2.46-2.44-3c-1-1.15-2.2-2.38-3.51-3.81l-2.09-2.24-2.44-2.31-2.65-2.51c-.91-.87-2-1.67-3-2.55l-3.2-2.69c-1.12-.89-2.32-1.76-3.52-2.68s-2.42-1.89-3.75-2.77-2.68-1.77-4-2.74c-.69-.47-1.36-1-2.08-1.42l-2.19-1.35c-1.48-.9-3-1.84-4.52-2.75-3.18-1.67-6.4-3.53-9.94-5a140.78,140.78,0,0,0-22.61-8,146.38,146.38,0,0,0-25.25-4.45c-2.18-.15-4.33-.41-6.55-.49l-6.69-.18-.84,0h-.37l-.42,0-1.66.06-3.33.12-3.33.12-1.67.06c-.55,0-1.1.12-1.66.18-4.41.54-8.84.89-13.17,1.83-2.17.42-4.36.72-6.5,1.22l-6.38,1.59c-2.13.49-4.2,1.13-6.27,1.75l-6.19,1.82-6,2.13-3,1.07-2.88,1.25c-1.91.84-3.83,1.62-5.65,2.55s-3.51,2.08-5.3,3c-3.61,1.77-6.86,4-10.13,6l-1.21.76c-.39.27-.77.55-1.15.83l-2.27,1.65-4.44,3.24c-2.71,2.38-5.34,4.66-7.68,7l-3.37,3.55c-1.1,1.15-2.25,2.21-3.2,3.4l-2.88,3.37-1.38,1.61-.68.79-.61.82-4.49,6.1c-1.3,1.93-2.38,3.77-3.41,5.4l-1.45,2.31c-.46.73-.81,1.48-1.17,2.15l-1.81,3.43-1.51,2.85a1.52,1.52,0,0,1-2.7-1.41Z" style="fill:#fff"/><path d="M1113.75,144.47l1.47,2.61c.48.82,1,1.86,1.65,3.06s1.36,2.54,2,4.06c.33.76.71,1.54,1,2.36l1,2.58c.34.89.62,1.82.93,2.77a7.44,7.44,0,0,1,.35,1.48,13,13,0,0,0,.45,1.47c.62,2,1.34,4,1.86,6.08s.76,4.32,1.38,6.42c.24,1.07.56,2.12.83,3.18s.5,2.12.79,3.17c.57,2.09,1,4.18,1.47,6.19s.8,4,1,5.86c.14.94.28,1.85.35,2.74s0,1.76,0,2.58c0,1.65,0,3.17.17,4.5s.19,2.5.22,3.47.1,1.72.13,2.24l.06.79a1.52,1.52,0,1,1-3,.22v-.22l-.13-3c0-.94-.1-2.09-.22-3.39s-.23-2.78-.29-4.4c0-.81,0-1.66,0-2.53s-.15-1.77-.25-2.69c-.18-1.85-.51-3.77-.78-5.78s-.69-4.05-1.19-6.12-1-4.17-1.54-6.25-1.46-4.06-2.07-6.09-1-4.1-1.42-6.09a6,6,0,0,0-.45-1.44A5.06,5.06,0,0,1,1119,163l-.82-2.75c-.26-.9-.58-1.74-.89-2.56a14,14,0,0,0-1.23-2.22,19.35,19.35,0,0,1-1.08-2.06l-1-1.86c-.59-1.17-1.11-2.18-1.59-3s-.79-1.51-1-2l-.36-.7a1.52,1.52,0,0,1,2.68-1.44Z" style="fill:#fff"/><path d="M779.14,212.1s0,6.43,0,17.68c0,5.62,0,12.45,0,20.29s0,16.67-.06,26.32c0,4.82-.06,9.84-.1,15s-.14,10.57-.21,16.09l-.22,17c-.06,5.8-.42,11.72-.39,17.75-.13,12.05-.18,24.51-.38,37.16l-.37,19.11q-.14,9.6-.27,19.26c-.08,12.86,0,25.71-.05,38.37s0,25.11,0,37.16,0,23.7,0,34.75q0,4.14,0,8.17l-.08,7.92c0,5.2-.15,10.22-.24,15-.13,9.64-.31,18.48-.27,26.31s0,14.66,0,20.29c0,11.25,0,17.68,0,17.68a1.52,1.52,0,0,1-3,0h0v0s0-6.43,0-17.68c0-5.62,0-12.45,0-20.29s0-16.67.16-26.31.44-20.09.44-31.13.12-22.7.18-34.75c.12-24.11.25-49.82.37-75.53q0-9.64-.07-19.26t0-19.11v-4.74l.1-4.71.2-9.36.45-18.35c.08-3,.18-6,.13-9s-.09-5.89,0-8.79l.33-17q.14-8.29.26-16.09c0-5.2-.08-10.22-.11-15q0-3.62-.08-7.08t0-6.76c0-4.39,0-8.56,0-12.48,0-7.83.05-14.66.08-20.29,0-11.25.06-17.68.06-17.68a1.52,1.52,0,1,1,3,0Z" style="fill:#fff"/><path d="M1083.95,109.78,1081,107c-1-.89-2.14-2-3.55-3.29l-4.94-4.16c-3.76-3.06-8.48-6.62-14.12-10.36-1.37-1-2.91-1.83-4.43-2.79s-3.09-1.94-4.75-2.87c-3.35-1.79-6.78-3.83-10.55-5.6a190.9,190.9,0,0,0-24.84-10.26c-4.51-1.59-9.25-2.85-14.1-4.16-2.45-.53-4.9-1.19-7.39-1.81s-5.06-1-7.63-1.45a215,215,0,0,0-32.06-2.63c-5.54,0-11,.09-16.59.53l-4.16.34-4.15.49c-2.78.29-5.53.75-8.29,1.18a181.72,181.72,0,0,0-32.11,8.72c-5.17,1.86-10.16,4.05-15,6.3-2.42,1.18-4.82,2.36-7.16,3.6s-4.67,2.48-6.89,3.86a176.69,176.69,0,0,0-24.51,17.38,195.91,195.91,0,0,0-19.24,18.79,131.16,131.16,0,0,0-13.6,18.23,142.5,142.5,0,0,0-8.34,15.42c-1.07,2.18-1.88,4.19-2.61,5.94l-1,2.42-.75,2-1.37,3.75,0,0a1.52,1.52,0,0,1-2.86-1h0l1.4-3.82.77-2.09,1-2.47c.74-1.78,1.58-3.83,2.67-6.06a145.38,145.38,0,0,1,8.53-15.72,140.78,140.78,0,0,1,13.78-18.65,189.11,189.11,0,0,1,19.69-19,179.57,179.57,0,0,1,25-17.48,181.73,181.73,0,0,1,29.6-13.77A193.86,193.86,0,0,1,919,57.82c2.78-.49,5.56-1,8.37-1.37l4.2-.58,4.21-.43c5.61-.57,11.29-.8,16.77-.91,2.84-.05,5.58.1,8.35.21s5.49.4,8.21.62l4.06.37,4,.57c2.66.4,5.32.71,7.91,1.26l3.88.75c1.28.29,2.59.38,3.86.69,2.54.53,5.08,1,7.55,1.61,4.91,1.37,9.72,2.68,14.29,4.32l3.42,1.15c1.13.38,2.22.85,3.32,1.27,2.19.87,4.37,1.67,6.46,2.57l6.2,2.59c1,.4,2,.86,3,1.33l2.91,1.36c3.89,1.7,7.41,3.73,10.79,5.59,1.68,1,3.26,2,4.82,2.93s3.1,1.85,4.5,2.86c5.73,3.83,10.51,7.46,14.35,10.61l5.06,4.29c1.42,1.29,2.58,2.41,3.54,3.3l2.94,2.76a1.52,1.52,0,0,1-2.08,2.22Z" style="fill:#fff"/><path d="M868.22,78.8s.27.17.74.49l.84.61c.33.25.71.51,1.08.85A9.4,9.4,0,0,1,872,81.94c.18.23.34.47.51.73a.8.8,0,0,1,.17.46c0,.18.16.27.24.4A13.43,13.43,0,0,1,874,85a12.37,12.37,0,0,0,.9,1.78c.8,1,1.79,1.91,2.64,2.82A16.68,16.68,0,0,1,878.74,91a3.3,3.3,0,0,1,.47.68c.11.25.15.52.24.75a3.84,3.84,0,0,0,.55,1.23c.21.34.4.63.57.87a8.94,8.94,0,0,0,.54.75,1.5,1.5,0,0,1-2.3,1.93l-.07-.09-.37-.52s-.18-.25-.47-.71c-.14-.23-.32-.51-.53-.82a5,5,0,0,1-.62-1.09c-.08-.22-.1-.49-.18-.73a3.22,3.22,0,0,0-.36-.69c-.28-.45-.58-.93-.9-1.41a15.55,15.55,0,0,0-1.07-1.44c-.38-.48-.78-1-1.19-1.41s-1.06-.73-1.44-1.19a4.88,4.88,0,0,1-.74-1.72c-.08-.12-.1-.3-.26-.35a1.28,1.28,0,0,1-.22-.09.71.71,0,0,1-.13-.17c-.16-.24-.27-.51-.4-.76a2.71,2.71,0,0,0-.44-.67,1.47,1.47,0,0,0-.69-.34,1.73,1.73,0,0,1-.59-.35l-.48-.35c-.3-.21-.54-.44-.77-.61-.43-.36-.66-.58-.66-.58a1.52,1.52,0,0,1,1.85-2.39Z" style="fill:#fff"/><path d="M954.26,61.1s0,.28-.06.77c0,.25-.06.53-.08.85s0,.68-.1,1.08a10.51,10.51,0,0,1-.31,1.26l-.24.68a.6.6,0,0,1-.24.34c-.12.11-.1.24-.15.36-.11.5-.11,1-.28,1.54a6.25,6.25,0,0,0-.55,1.59,8.59,8.59,0,0,0,.12,1.63c.09.54.2,1.06.32,1.57s.2,1,.31,1.45a2.19,2.19,0,0,1,.09.67c0,.22-.09.43-.12.64s-.07.4-.08.59a2.6,2.6,0,0,0,.08.52,6.42,6.42,0,0,0,.2.83,5.91,5.91,0,0,0,.25.71,1.51,1.51,0,1,1-2.75,1.23,1.4,1.4,0,0,1-.06-.16l-.2-.64s-.09-.28-.2-.77l-.2-.89a3.35,3.35,0,0,1-.13-1.17,6.46,6.46,0,0,1,.16-.69,2.79,2.79,0,0,0,0-.72c0-.49,0-1-.05-1.55s0-1.09-.05-1.66l0-1.72a12.25,12.25,0,0,1-.23-1.74c0-.57.48-1.09.75-1.59,0-.13.17-.25.11-.39a1.12,1.12,0,0,1-.07-.21.59.59,0,0,1,0-.19,4.32,4.32,0,0,1,.35-.71,1.38,1.38,0,0,0,.16-1.37,1.4,1.4,0,0,1,0-.63L951,62a8.42,8.42,0,0,1,.13-.89c.1-.48.18-.74.18-.74a1.52,1.52,0,0,1,3,.51Z" style="fill:#fff"/><path d="M1050.16,81.08l-2.25,3.26c-.35.47-.78.94-1.22,1.46l-.72.76a1.14,1.14,0,0,1-.47.33c-.19.09-.27.26-.4.4-.45.59-.83,1.25-1.36,1.84a12.81,12.81,0,0,0-1.6,1.8c-.36.71-.72,1.42-1,2.15s-.53,1.47-.76,2.18-.47,1.39-.68,2a5.17,5.17,0,0,1-.35.92l-.51.78c-.16.26-.32.5-.45.74a5.59,5.59,0,0,0-.25.72,12.16,12.16,0,0,0-.34,1.2c-.16.67-.22,1.07-.22,1.07a1.52,1.52,0,0,1-3-.42,1.5,1.5,0,0,1,0-.18l.1-.38.29-1.1c.09-.35.21-.77.36-1.26a6.6,6.6,0,0,1,.61-1.58c.16-.27.37-.53.57-.81a6.42,6.42,0,0,0,.46-.93c.29-.65.61-1.32.95-2s.68-1.42,1-2.14.75-1.46,1.11-2.2a22,22,0,0,1,1-2.29,6.77,6.77,0,0,1,1.79-1.68c.13-.14.33-.24.37-.44a2,2,0,0,1,.08-.29,1,1,0,0,1,.18-.21,7.25,7.25,0,0,1,.82-.74,2.8,2.8,0,0,0,1.14-1.63,6.87,6.87,0,0,1,.88-1.46c.28-.43.57-.76.78-1,.45-.54.72-.84.72-.84a1.52,1.52,0,0,1,2.37,1.9Z" style="fill:#fff"/><path d="M1639,575l14.88-.2,7.44-.1h7.44c2.48,0,5,.06,7.44.09l7.44.12c1.24,0,2.48,0,3.72.14s2.48.16,3.72.14l7.44.05h0a1.28,1.28,0,0,1,1.27,1.29l0,6c0,1-.06,2-.08,3l-.1,3-.19,6c-.08,2-.08,4-.1,6v0a.76.76,0,0,1-.77.76h0c-1.24,0-2.48,0-3.72,0l-3.72.06-7.44.11-14.88.24-14.88.27-3.72.07-3.72,0c-2.48,0-5-.14-7.44-.19h-.06a1.3,1.3,0,0,1-1.27-1.33h0c0-1,.06-2,.06-3s0-2,0-3l-.07-6-.07-6c0-2-.09-4-.13-6a1.49,1.49,0,0,1,1.46-1.52h.06Zm1.54,3,.13,10.42.07,6v6l-1.75-1.75c2.48,0,5,.15,7.44.19l3.72.09h3.72l14.88,0,14.88,0,7.44,0c2.48,0,5,0,7.44,0l-1.63,1.63-.31-11.94c0-1,0-2,0-3s0-2,0-3l.07-3c0-1,.09-2,.13-3l1.75,1.75-7.44-.36a24.7,24.7,0,0,0-3.72,0,33.3,33.3,0,0,1-3.72,0l-7.44-.23-3.72-.09c-1.24-.05-2.48,0-3.72,0l-3.72.2c-1.24.07-2.48.11-3.72.13l-7.44.07-7.44.07C1644.47,578.08,1642.5,578.06,1640.53,578.05Z" style="fill:#fff"/><path d="M1744,627.39l-21,.22c-3.5,0-7,.09-10.5.09H1702l-10.5-.14-5.25-.07-2.63,0-2.63-.13c-.87,0-1.75-.1-2.63-.11h-2.63l-5.25,0-10.5-.05a1.26,1.26,0,0,1-1.25-1.25c0-2,.08-4,.12-6l.15-6,.15-6c.05-2,0-4,.06-6v0a.77.77,0,0,1,.77-.76h0c1.75,0,3.5,0,5.25,0l5.25-.06L1681,601l21-.27,21-.29c3.5,0,7,.06,10.5.15s7,.15,10.5.16a1.25,1.25,0,0,1,1.24,1.24h0l.11,11.94q0,6,.17,11.94a1.49,1.49,0,0,1-1.46,1.52H1744Zm-1.54-3L1742.3,602l1.75,1.75h-5.25c-1.75,0-3.5,0-5.25,0l-10.5-.23-21,0-21,0-10.5,0h-5.25c-1.75,0-3.5,0-5.25,0l1.63-1.63.23,11.94c0,2,.1,4,.09,6s0,4,0,6l-1.94-1.94c1.75,0,3.5,0,5.25.13l5.25.2,5.25.19a52.51,52.51,0,0,0,5.25.06,51.49,51.49,0,0,1,5.25,0l5.25.13,10.5.21c1.75,0,3.5,0,5.25-.09s3.5-.18,5.25-.21c3.5-.09,7-.07,10.5-.11l10.5-.08C1736.53,624.32,1739.52,624.34,1742.51,624.35Z" style="fill:#fff"/><path d="M1702,652.86l-21,.22c-3.5,0-7,.09-10.5.09H1660l-10.5-.14-5.25-.07-2.63,0-2.63-.13c-.88,0-1.75-.1-2.63-.11h-2.63l-5.25,0-10.5-.05a1.26,1.26,0,0,1-1.25-1.25c0-2,.08-4,.12-6l.15-6,.15-6c.05-2,0-4,.06-6v0a.77.77,0,0,1,.78-.76h0c1.75,0,3.5,0,5.25,0l5.25-.06,10.51-.12,21-.27,21-.29c3.5,0,7,.06,10.5.15s7,.15,10.5.16a1.25,1.25,0,0,1,1.24,1.24h0l.11,11.94q0,6,.17,11.94a1.49,1.49,0,0,1-1.46,1.52H1702Zm-1.54-3-.21-22.35,1.75,1.75h-5.25c-1.75,0-3.5,0-5.25,0l-10.5-.23-21,0-21,0-10.51,0h-5.25c-1.75,0-3.5,0-5.25,0l1.63-1.63.23,11.94c0,2,.1,4,.09,6s0,4,0,6l-1.94-1.94c1.75,0,3.5,0,5.25.12l5.25.2,5.25.19a52.5,52.5,0,0,0,5.25.06,51.63,51.63,0,0,1,5.25,0l5.25.13,10.5.21c1.75,0,3.5,0,5.25-.09s3.5-.18,5.25-.21c3.5-.09,7-.07,10.5-.11l10.5-.08C1694.51,649.78,1697.5,649.81,1700.49,649.81Z" style="fill:#fff"/><path d="M656.24,525.46l18.29-.21,9.15-.1h9.15c3,0,6.1.07,9.15.1l9.15.13c1.52,0,3,.1,4.57.18s3,.09,4.57.1l9.15.05h0A1.27,1.27,0,0,1,730.7,527h0l0,6.88-.19,6.88-.18,6.88c0,1.15-.07,2.29-.07,3.44l0,3.44v0a.77.77,0,0,1-.77.76h0c-1.52,0-3,0-4.57,0l-4.57.06-9.15.11-18.29.25-18.29.28c-1.52,0-3,.07-4.57,0l-4.57,0-9.15-.21h-.06a1.27,1.27,0,0,1-1.24-1.3h0c0-1.15,0-2.29,0-3.44s0-2.29,0-3.44l-.07-6.88-.07-6.88-.12-6.88a1.49,1.49,0,0,1,1.47-1.52h.05Zm1.54,3,.12,12.24.07,6.88,0,6.88-1.75-1.75c1.52,0,3,0,4.57,0l4.57.12L670,553c1.52,0,3,0,4.57,0l18.29,0,18.29,0,9.15,0h4.57c1.52,0,3,0,4.57,0l-1.63,1.63-.29-13.76c0-1.15,0-2.29,0-3.44v-3.44c.06-2.29.05-4.59.17-6.88l1.79,1.79-9.15-.37c-1.52,0-3-.16-4.57-.09a41.91,41.91,0,0,1-4.57.06l-9.15-.23-4.57-.09c-1.52,0-3-.06-4.57,0s-3,.11-4.57.18-3,.11-4.57.15l-9.15.07-9.15.07C662.85,528.53,660.31,528.51,657.78,528.51Z" style="fill:#fff"/><path d="M774.93,528.5l-21,.21-10.5.1h-10.5l-10.5-.12-5.25-.07c-1.75,0-3.5,0-5.25-.08s-3.5-.2-5.25-.22l-5.25,0-10.5-.05h0a1.26,1.26,0,0,1-1.25-1.27h0c0-2.29,0-4.59.08-6.88l.17-6.88.16-6.88c.07-2.29,0-4.59.08-6.88v0a.77.77,0,0,1,.78-.76h0c1.75,0,3.5,0,5.25,0l5.25-.06,10.5-.12,21-.26,21-.29c1.75,0,3.5,0,5.25,0s3.5,0,5.25.07c3.5.07,7,.16,10.5.19h0a1.26,1.26,0,0,1,1.25,1.27l0,3.44,0,3.44.06,6.88.06,6.88.12,6.88A1.5,1.5,0,0,1,775,528.5h-.05Zm-1.54-3-.11-12.24c0-4.59-.11-9.17-.1-13.76l1.75,1.75h-5.25c-1.75,0-3.5-.07-5.25-.11l-5.25-.11c-1.75,0-3.5-.08-5.25-.06l-21,0-21,0-10.5,0h-5.25c-1.75,0-3.5,0-5.25,0l1.63-1.63.26,13.76c.06,2.29.06,4.59.07,6.88s0,4.59-.07,6.88l-1.89-1.89c1.75,0,3.5.12,5.25.17l5.25.19,5.25.19c1.75.09,3.5-.08,5.25-.09s3.5.07,5.25.11l5.25.13,5.25.1c1.75,0,3.5.09,5.25.07s3.5-.06,5.25-.14,3.5-.15,5.25-.19,3.5,0,5.25-.05l5.25,0,10.5-.08C767.42,525.42,770.41,525.45,773.4,525.45Z" style="fill:#fff"/><path d="M732.92,614.72l-21,.21-10.5.1H690.9l-10.5-.12-5.25-.07c-1.75,0-3.5,0-5.25-.08s-3.5-.2-5.25-.22l-5.25,0-10.51-.05h0a1.26,1.26,0,0,1-1.25-1.27h0c0-2.29,0-4.59.08-6.88l.17-6.88.16-6.88c.07-2.29,0-4.59.08-6.88v0a.77.77,0,0,1,.78-.76h0c1.75,0,3.5,0,5.25,0l5.25-.06,10.5-.12,21-.26,21-.29c1.75,0,3.5,0,5.25,0s3.5,0,5.25.07c3.5.07,7,.16,10.51.19h0a1.26,1.26,0,0,1,1.25,1.27l0,3.44,0,3.44.06,6.88.06,6.88.12,6.88a1.5,1.5,0,0,1-1.47,1.52h-.05Zm-1.54-3-.11-12.24c0-4.59-.11-9.17-.1-13.76l1.75,1.75h-5.25c-1.75,0-3.5-.07-5.25-.11l-5.25-.11c-1.75,0-3.5-.08-5.25-.06l-21,0-21,0-10.5,0h-5.25c-1.75,0-3.5,0-5.25,0l1.63-1.63.26,13.76c.06,2.29.06,4.59.07,6.88s0,4.59-.07,6.88l-1.89-1.89c1.75,0,3.5.12,5.25.17l5.25.19,5.25.19c1.75.09,3.5-.08,5.25-.09s3.5.07,5.25.11l5.25.13,5.25.1c1.75,0,3.5.09,5.25.07s3.5-.06,5.25-.14,3.5-.15,5.25-.19,3.5,0,5.25-.05l5.25,0,10.51-.08C725.4,611.65,728.39,611.68,731.38,611.68Z" style="fill:#fff"/><path d="M664.1,723.92l18.29-.21,9.15-.1h9.15c3,0,6.1.07,9.15.1l9.15.13c1.52,0,3,.1,4.57.18s3,.09,4.57.1l9.15.05h0a1.27,1.27,0,0,1,1.27,1.28h0l0,6.88-.19,6.88-.18,6.88c0,1.15-.07,2.29-.07,3.44l0,3.44v0a.77.77,0,0,1-.77.76h0c-1.52,0-3,0-4.57,0l-4.57.06-9.15.11-18.29.25-18.29.28c-1.52,0-3,.07-4.57,0l-4.57,0-9.15-.21H664a1.27,1.27,0,0,1-1.24-1.3h0c0-1.15,0-2.29,0-3.44s0-2.29,0-3.44l-.07-6.88-.07-6.88-.12-6.88a1.49,1.49,0,0,1,1.47-1.52h.05Zm1.54,3,.12,12.24.07,6.88,0,6.88-1.75-1.75c1.52,0,3,0,4.57,0l4.57.12,4.57.09c1.52,0,3,0,4.57,0l18.29,0,18.29,0,9.15,0h4.57c1.52,0,3,0,4.57,0L735.65,753l-.29-13.76c0-1.15,0-2.29,0-3.44v-3.44c.06-2.29.05-4.59.17-6.88l1.79,1.79-9.15-.37c-1.52,0-3-.16-4.57-.09a41.91,41.91,0,0,1-4.57.06l-9.15-.23-4.57-.09c-1.52,0-3-.06-4.57,0s-3,.11-4.57.18-3,.11-4.57.15l-9.15.07-9.15.07C670.71,727,668.18,727,665.64,727Z" style="fill:#fff"/><path d="M782.8,725l-21,.21-10.51.1h-10.5l-10.5-.12-5.25-.07c-1.75,0-3.5,0-5.25-.08s-3.5-.2-5.25-.22l-5.25,0-10.5-.05h0a1.26,1.26,0,0,1-1.25-1.27h0c0-2.29,0-4.59.08-6.88l.17-6.88.16-6.88c.07-2.29,0-4.59.08-6.88v0a.77.77,0,0,1,.78-.76h0c1.75,0,3.5,0,5.25,0l5.25-.06,10.5-.12,21-.26,21-.29c1.75,0,3.5,0,5.25,0s3.5,0,5.25.07c3.5.07,7,.16,10.5.19h0a1.26,1.26,0,0,1,1.25,1.27l0,3.44,0,3.44.06,6.88.06,6.88.12,6.88a1.5,1.5,0,0,1-1.47,1.52h-.05Zm-1.54-3-.11-12.24c0-4.59-.11-9.17-.1-13.76l1.75,1.75h-5.25c-1.75,0-3.5-.07-5.25-.11l-5.25-.11c-1.75,0-3.5-.08-5.25-.06l-21,0-21,0-10.5,0H704c-1.75,0-3.5,0-5.25,0l1.63-1.63.26,13.76c.06,2.29.06,4.59.07,6.88s0,4.59-.07,6.88l-1.89-1.89c1.75,0,3.5.12,5.25.17l5.25.19,5.25.19c1.75.1,3.5-.08,5.25-.09s3.5.08,5.25.11l5.25.13,5.25.1c1.75,0,3.5.09,5.25.07s3.5-.06,5.25-.14,3.5-.15,5.25-.19,3.5,0,5.25-.05l5.25,0,10.5-.08C775.28,721.88,778.27,721.91,781.26,721.91Z" style="fill:#fff"/><path d="M822.5,656.88l-86.79.31,1.83-1.83v20.2l0,20.2-1.8-1.8,30,.14,15,.07,15,.24,60,.14,30,.27,30,.16,60-.22,60-.28,30-.15c10,0,20-.16,30-.1l30,.18c10,0,20,.16,30,.09l60-.25a1.52,1.52,0,1,1,0,3h0l-60,.2-30,0-30-.24c-10-.09-20,0-30,0l-30,0-60,0-60,.06-30,.21-30,.13c-10,0-20-.17-30-.25l-30-.39-15,.11-15-.14-30-.23h0a1.06,1.06,0,0,1-1.05-1.06c0-3.37.08-6.73,0-10.1l-.09-10.1-.23-20.2a1.34,1.34,0,0,1,1.33-1.36h0l86.79-.16a1.52,1.52,0,0,1,0,3Z" style="fill:#fff"/><polygon points="1616.12 652 1312.99 656.41 1323.2 181.2 1616.12 181.2 1616.12 652" style="fill:#fff"/><path d="M1326.6,493.3c28.26-.37,55.89-13.75,71.38-34.56s19.59-48.11,40.71-64.48c26.75-20.75,69.13-15.16,99.86-31.06,37.79-19.55,36.58-65.26,69.43-90.8l2.43-85.79-282.33.32L1326.6,493.3" style="fill:#f4f6f8;stroke:#f4f6f8;stroke-miterlimit:10;stroke-width:6.3406590736921px;opacity:0.30000000000000004"/><path d="M1470,184.06s.06,7.34.16,20.19c.05,6.42.11,14.22.19,23.17s.21,19,.17,30.05c0,5.51,0,11.24,0,17.18s-.12,12.07-.18,18.38-.13,12.79-.19,19.41c0,3.31-.16,6.66-.31,10s-.12,6.79-.14,10.23q0,10.32-.09,21,0,5.31,0,10.69c0,3.58,0,7.18-.12,10.79q-.21,10.84-.42,21.82l-.21,11q0,5.5-.06,11c0,14.68.24,29.36.35,43.81s.28,28.67.41,42.44.3,27.07.43,39.69q.05,4.73.1,9.33c0,3.06,0,6.08,0,9.05,0,5.94-.15,11.67-.23,17.18-.19,11-.3,21.1-.18,30.05s.12,16.75.17,23.17.11,11.47.16,14.91l.07,5.28H1465l-.15-20.19c0-6.42-.1-14.22-.17-23.17,0-4.47-.07-9.23-.06-14.25s-.05-10.29,0-15.8l.31-17.18q.06-4.45.11-9.05t0-9.33c0-12.62,0-25.92-.06-39.69s0-28-.07-42.44,0-29.13-.11-43.81q-.16-11-.32-22l-.18-10.94c-.06-3.64,0-7.27-.05-10.88q0-2.71,0-5.41t.08-5.38c0-3.58.1-7.14.23-10.69.18-7.08.51-14.08.63-21,.07-3.44.22-6.85.11-10.23s-.22-6.73-.11-10q.19-9.94.38-19.41c.16-6.31.22-12.44.26-18.38,0-3,0-5.89-.11-8.75l-.28-8.43c-.18-5.51-.23-10.78-.24-15.8s-.06-9.78-.08-14.25c-.05-8.95-.1-16.75-.13-23.17s0-11.47,0-14.91,0-5.28,0-5.28Z" style="fill:#f4f6f8"/><path d="M1304.37,412.92l13.26,0,15.22,0c5.88,0,12.51-.09,19.74,0l11.28.11,12.07.3,12.75.32c2.17,0,4.37.17,6.59.38s4.46.16,6.72.21c9,.17,18.38.24,27.87.5s19.12,1,28.77,1c4.82.08,9.64,0,14.44,0s9.59,0,14.33,0l27.87-.22,26.07-.18,6.13,0c2,0,4,0,5.94.06l11.28.39c7.23.26,13.86.44,19.73.38l15.22,0c4.22,0,7.53,0,9.79-.06l3.47,0,0,5.07h-13.26l-15.22,0c-5.88,0-12.51.05-19.73-.18l-11.28-.46c-3.9-.13-7.93-.16-12.07-.18l-26.06-.19-27.87-.21-28.77-.18c-9.64,0-19.29.44-28.78.28l-3.55,0-3.53-.11c-2.35-.06-4.69-.15-7-.3-4.65-.22-9.24-.6-13.76-.77-2.26-.09-4.5-.26-6.72-.18a60.12,60.12,0,0,1-6.59.06c-4.35-.12-8.6-.33-12.74-.52s-8.17-.3-12.07-.38c-1.95,0-3.87,0-5.75.05l-5.54.22c-3.62.15-7.08.16-10.38.14h-9.36l-15.22,0c-4.22,0-7.53-.08-9.79-.09l-3.46,0Z" style="fill:#f4f6f8"/><path d="M1322.11,305.19l12.49-.16,14.34-.19c5.54,0,11.78-.21,18.6-.17h10.63l11.38.18,12,.19c2,0,4.12.13,6.21.31s4.2.12,6.33.14c8.52.08,17.32.05,26.26.23s18,.77,27.12.7c4.54,0,9.09-.07,13.61-.1s9-.06,13.5-.16l26.26-.49,24.56-.43,5.77-.1c1.9,0,3.76,0,5.6,0l10.63.27c6.81.19,13.06.3,18.6.18l14.34-.17c4,0,7.1-.11,9.23-.16l3.27-.07v5.07l-12.49.15-14.34.17c-5.54.06-11.78.18-18.6,0l-10.63-.34c-3.67-.09-7.47-.08-11.38-.06l-24.56.06-26.26.07c-8.94,0-18,0-27.12.1s-18.17.63-27.12.57H1437l-3.33-.08c-2.22,0-4.42-.1-6.61-.23-4.38-.18-8.71-.51-13-.63-2.13-.07-4.24-.22-6.33-.11a53.6,53.6,0,0,1-6.21.12c-4.1-.08-8.11-.25-12-.39s-7.7-.22-11.38-.26c-1.84,0-3.64,0-5.41.11l-5.22.28c-3.41.18-6.67.23-9.78.24l-8.82.08-14.34.13c-4,0-7.1,0-9.23,0h-3.27Z" style="fill:#f4f6f8"/><path d="M1304.34,537.2l13.16-.22,15.11-.25c5.83-.07,12.42-.26,19.6-.26l11.2,0,12,.13,12.66.14c2.16,0,4.34.11,6.55.29s4.43.1,6.67.12c9,0,18.25,0,27.68.11s19,.69,28.58.58c4.79,0,9.57-.11,14.34-.16s9.52-.1,14.23-.22l27.67-.61,25.88-.54,6.08-.13c2,0,4,0,5.9,0l11.2.23c7.18.16,13.76.24,19.6.1l15.11-.23c4.19,0,7.48-.14,9.72-.2l3.44-.09,0,5.07-13.16.2-15.11.23c-5.83.08-12.42.23-19.6.1l-11.2-.3c-3.87-.07-7.87,0-12,0l-25.88.17-27.67.19-28.57.22c-9.57.1-19.15.71-28.57.69l-3.53,0-3.51-.06c-2.34,0-4.66-.08-7-.2-4.62-.16-9.18-.47-13.67-.57-2.24-.06-4.47-.2-6.67-.08a59.32,59.32,0,0,1-6.55.15c-4.32-.06-8.55-.21-12.66-.34s-8.12-.18-12-.21c-1.94,0-3.84,0-5.71.13l-5.49.3c-3.59.2-7,.26-10.3.29l-9.29.12-15.11.2c-4.19.06-7.48,0-9.72,0h-3.44Z" style="fill:#f4f6f8"/><path d="M1336.88,154.3l1.48-2.87,1.78-3.44c.36-.67.7-1.41,1.16-2.17l1.5-2.42c1.07-1.69,2.2-3.62,3.54-5.62l4.59-6.27.62-.85.69-.81,1.41-1.66,3-3.46c1-1.22,2.13-2.32,3.28-3.48l3.55-3.54.91-.91,1-.85,2-1.73,4.11-3.54,4.52-3.33,2.31-1.7c.39-.28.77-.58,1.17-.85l1.23-.78a129.71,129.71,0,0,1,21.58-11.6l2.9-1.34,3-1.16,6.08-2.33c2.07-.7,4.18-1.3,6.29-2l3.17-1c1.06-.33,2.16-.5,3.25-.76l6.55-1.44c2.19-.45,4.43-.7,6.65-1.06s4.44-.74,6.7-.86l6.74-.64c.56-.05,1.12-.12,1.68-.15l1.69-.07,3.38-.14,3.38-.14,1.69-.07.42,0h.44l.84,0,6.69.13c2.23.06,4.47.3,6.69.45a151.43,151.43,0,0,1,25.76,4.33,143.67,143.67,0,0,1,23.13,8c3.62,1.45,6.94,3.32,10.19,5,1.59.91,3.13,1.85,4.64,2.78l2.24,1.37c.74.46,1.43,1,2.13,1.45l4.1,2.84c.68.45,1.31,1,1.93,1.44l1.87,1.43,3.58,2.76,3.27,2.75c1,.9,2.11,1.72,3,2.61l2.71,2.56,2.5,2.36,2.15,2.29c1.35,1.46,2.6,2.72,3.6,3.89l2.5,3,2.08,2.52a1.52,1.52,0,0,1-2.34,1.94h0l-.08-.09-2-2.46-2.44-3c-1-1.15-2.2-2.38-3.51-3.81l-2.09-2.24-2.44-2.31-2.65-2.51c-.91-.87-2-1.67-3-2.55l-3.2-2.69c-1.12-.89-2.32-1.76-3.52-2.68s-2.42-1.89-3.75-2.77-2.68-1.77-4-2.74c-.69-.47-1.36-1-2.08-1.42l-2.19-1.35c-1.48-.9-3-1.84-4.52-2.75-3.18-1.67-6.4-3.53-9.94-5a140.78,140.78,0,0,0-22.61-8,146.37,146.37,0,0,0-25.25-4.45c-2.18-.15-4.33-.41-6.55-.49l-6.69-.18-.84,0h-.37l-.42,0-1.66.06-3.33.12-3.33.12-1.67.06c-.55,0-1.1.12-1.66.18-4.41.54-8.84.89-13.17,1.83-2.17.42-4.36.72-6.5,1.22l-6.38,1.59c-2.13.49-4.2,1.13-6.27,1.75l-6.19,1.82-6,2.13-3,1.07-2.88,1.25c-1.91.84-3.83,1.62-5.65,2.55s-3.51,2.08-5.3,3c-3.61,1.77-6.86,4-10.13,6l-1.21.76c-.39.27-.77.55-1.15.83l-2.27,1.65-4.44,3.24c-2.71,2.38-5.34,4.66-7.68,7l-3.37,3.55c-1.1,1.15-2.25,2.21-3.2,3.4l-2.88,3.37-1.38,1.61-.68.79-.61.82-4.48,6.1c-1.3,1.93-2.38,3.77-3.41,5.4l-1.45,2.31c-.46.73-.81,1.48-1.17,2.15l-1.81,3.43-1.51,2.85a1.52,1.52,0,0,1-2.7-1.41Z" style="fill:#fff"/><path d="M1626.07,144.47l1.47,2.61c.48.82,1,1.86,1.65,3.06s1.36,2.54,2,4.06c.33.76.71,1.54,1,2.36l1,2.58c.34.89.62,1.82.93,2.77a7.48,7.48,0,0,1,.35,1.48,13,13,0,0,0,.45,1.47c.62,2,1.34,4,1.86,6.08s.76,4.32,1.38,6.42c.24,1.07.56,2.12.83,3.18s.5,2.12.79,3.17c.57,2.09,1,4.18,1.47,6.19s.8,4,1,5.86c.14.94.28,1.85.35,2.74s0,1.76,0,2.58c0,1.65,0,3.17.17,4.5s.19,2.5.22,3.47.1,1.72.13,2.24l.06.79a1.52,1.52,0,1,1-3,.22v-.22l-.13-3c0-.94-.1-2.09-.22-3.39s-.23-2.78-.29-4.4c0-.81,0-1.66,0-2.53s-.15-1.77-.25-2.69c-.18-1.85-.51-3.77-.78-5.78s-.69-4.05-1.19-6.12-1-4.17-1.54-6.25-1.46-4.06-2.07-6.09-1-4.1-1.42-6.09a6,6,0,0,0-.45-1.44,5.07,5.07,0,0,1-.59-1.36l-.82-2.75c-.26-.9-.58-1.74-.89-2.56a14,14,0,0,0-1.23-2.22,19.35,19.35,0,0,1-1.08-2.06l-1-1.86c-.59-1.17-1.11-2.18-1.59-3s-.79-1.51-1-2l-.36-.7a1.52,1.52,0,0,1,2.68-1.44Z" style="fill:#fff"/><path d="M1291.47,212.1s0,6.43,0,17.68c0,5.62,0,12.45,0,20.29s0,16.67-.06,26.32c0,4.82-.06,9.84-.1,15s-.14,10.57-.21,16.09l-.22,17c-.06,5.8-.42,11.72-.39,17.75-.13,12.05-.18,24.51-.38,37.16l-.37,19.11q-.14,9.6-.27,19.26c-.08,12.86,0,25.71-.05,38.37s0,25.11,0,37.16,0,23.7,0,34.75q0,4.14,0,8.17l-.08,7.92c0,5.2-.15,10.22-.24,15-.13,9.64-.31,18.48-.27,26.31s0,14.66,0,20.29c0,11.25,0,17.68,0,17.68a1.52,1.52,0,1,1-3,0h0v0s0-6.43,0-17.68c0-5.62,0-12.45,0-20.29s0-16.67.16-26.31.44-20.09.44-31.13.12-22.7.18-34.75c.12-24.11.25-49.82.37-75.53q0-9.64-.07-19.26t0-19.11v-4.74q.05-2.36.1-4.71l.2-9.36.45-18.35c.08-3,.18-6,.13-9s-.09-5.89,0-8.79q.17-8.7.33-17t.26-16.09c0-5.2-.08-10.22-.11-15q0-3.62-.08-7.08t0-6.76c0-4.39,0-8.56,0-12.48,0-7.83.05-14.66.08-20.29,0-11.25.07-17.68.07-17.68a1.52,1.52,0,1,1,3,0Z" style="fill:#fff"/><path d="M1596.27,109.78l-2.95-2.75c-1-.89-2.14-2-3.55-3.29l-4.94-4.16c-3.76-3.06-8.48-6.62-14.12-10.36-1.37-1-2.91-1.83-4.43-2.79s-3.09-1.94-4.75-2.87c-3.35-1.79-6.78-3.83-10.55-5.6a190.9,190.9,0,0,0-24.84-10.26c-4.5-1.59-9.25-2.85-14.1-4.16-2.45-.53-4.9-1.19-7.39-1.81s-5.06-1-7.63-1.45A215,215,0,0,0,1465,57.66c-5.54,0-11,.09-16.59.53l-4.16.34-4.15.49c-2.78.29-5.53.75-8.29,1.18a181.74,181.74,0,0,0-32.11,8.72c-5.17,1.86-10.16,4.05-15,6.3-2.42,1.18-4.82,2.36-7.16,3.6s-4.67,2.48-6.89,3.86a176.72,176.72,0,0,0-24.51,17.38,195.91,195.91,0,0,0-19.24,18.79,131.16,131.16,0,0,0-13.6,18.23,142.5,142.5,0,0,0-8.34,15.42c-1.07,2.18-1.88,4.19-2.61,5.94l-1,2.42-.75,2-1.37,3.75,0,0a1.52,1.52,0,0,1-2.86-1h0l1.4-3.82.77-2.09,1-2.47c.74-1.78,1.58-3.83,2.67-6.06a145.47,145.47,0,0,1,8.53-15.72,140.78,140.78,0,0,1,13.78-18.65,189.11,189.11,0,0,1,19.69-19,179.57,179.57,0,0,1,25-17.48,181.72,181.72,0,0,1,29.6-13.77,193.84,193.84,0,0,1,32.56-8.71c2.78-.49,5.56-1,8.37-1.37l4.2-.58,4.21-.43c5.61-.57,11.29-.8,16.77-.91,2.84-.05,5.58.1,8.35.21s5.49.4,8.21.62l4.06.37,4,.57c2.66.4,5.32.71,7.91,1.26l3.88.75c1.28.29,2.59.38,3.86.69,2.54.53,5.08,1,7.55,1.61,4.91,1.37,9.72,2.68,14.29,4.32l3.42,1.15c1.13.38,2.22.85,3.32,1.27,2.19.87,4.37,1.67,6.46,2.57l6.2,2.59c1,.4,2,.86,3,1.33l2.91,1.36c3.89,1.7,7.41,3.73,10.79,5.59,1.68,1,3.26,2,4.82,2.93s3.1,1.85,4.5,2.86c5.73,3.83,10.51,7.46,14.35,10.61l5.06,4.29c1.42,1.29,2.58,2.41,3.54,3.3l2.94,2.76a1.52,1.52,0,0,1-2.08,2.22Z" style="fill:#fff"/><path d="M1380.55,78.8s.27.17.74.49l.84.61c.33.25.71.51,1.08.85a9.4,9.4,0,0,1,1.07,1.19c.18.23.34.47.51.73a.8.8,0,0,1,.17.46c0,.18.16.27.24.4a13.43,13.43,0,0,1,1.16,1.5,12.37,12.37,0,0,0,.9,1.78c.8,1,1.79,1.91,2.64,2.82a16.58,16.58,0,0,1,1.17,1.36,3.3,3.3,0,0,1,.47.68c.11.25.15.52.24.75a3.84,3.84,0,0,0,.55,1.23c.21.34.4.63.57.87a8.94,8.94,0,0,0,.54.75,1.5,1.5,0,0,1-2.3,1.93l-.07-.09-.37-.52s-.18-.25-.47-.71c-.14-.23-.32-.51-.53-.82a5.05,5.05,0,0,1-.62-1.09c-.08-.22-.1-.49-.18-.73a3.22,3.22,0,0,0-.36-.69c-.28-.45-.58-.93-.9-1.41a15.63,15.63,0,0,0-1.07-1.44c-.38-.48-.78-1-1.19-1.41s-1.06-.73-1.44-1.19a4.9,4.9,0,0,1-.74-1.72c-.08-.12-.1-.3-.26-.35a1.27,1.27,0,0,1-.22-.09.71.71,0,0,1-.13-.17c-.16-.24-.27-.51-.4-.76a2.69,2.69,0,0,0-.44-.67,1.47,1.47,0,0,0-.69-.34,1.73,1.73,0,0,1-.59-.35l-.48-.35c-.3-.21-.54-.44-.77-.61-.43-.36-.66-.58-.66-.58a1.52,1.52,0,0,1,1.85-2.39Z" style="fill:#fff"/><path d="M1466.59,61.1s0,.28-.06.77c0,.25-.06.53-.08.85s0,.68-.1,1.08a10.51,10.51,0,0,1-.31,1.26l-.24.68a.6.6,0,0,1-.24.34c-.12.11-.1.24-.15.36-.11.5-.11,1-.28,1.54a6.25,6.25,0,0,0-.55,1.59,8.59,8.59,0,0,0,.12,1.63c.09.54.2,1.06.32,1.57s.2,1,.31,1.45a2.21,2.21,0,0,1,.09.67c0,.22-.09.43-.12.64s-.07.4-.08.59a2.6,2.6,0,0,0,.08.52,6.42,6.42,0,0,0,.2.83,5.91,5.91,0,0,0,.25.71A1.51,1.51,0,0,1,1463,79.4l-.06-.16-.2-.64s-.09-.28-.2-.77l-.2-.89a3.35,3.35,0,0,1-.13-1.17,6.46,6.46,0,0,1,.16-.69,2.79,2.79,0,0,0,0-.72c0-.49,0-1-.05-1.55s0-1.09-.05-1.66l0-1.72a12.32,12.32,0,0,1-.23-1.74c0-.57.48-1.09.75-1.59,0-.13.17-.25.11-.39a1.12,1.12,0,0,1-.07-.21.59.59,0,0,1,0-.19,4.4,4.4,0,0,1,.35-.71,1.38,1.38,0,0,0,.16-1.37,1.4,1.4,0,0,1,0-.63l.05-.56a8.55,8.55,0,0,1,.13-.89c.1-.48.18-.74.18-.74a1.52,1.52,0,0,1,3,.51Z" style="fill:#fff"/><path d="M1562.49,81.08l-2.25,3.26c-.35.47-.78.94-1.22,1.46l-.72.76a1.13,1.13,0,0,1-.47.33c-.19.09-.27.26-.4.4-.45.59-.83,1.25-1.36,1.84a12.81,12.81,0,0,0-1.6,1.8c-.36.71-.72,1.42-1,2.15s-.53,1.47-.76,2.18-.47,1.39-.68,2a5.17,5.17,0,0,1-.35.92l-.51.78c-.16.26-.32.5-.45.74a5.51,5.51,0,0,0-.25.72,12,12,0,0,0-.34,1.2c-.16.67-.22,1.07-.22,1.07a1.52,1.52,0,0,1-3-.42,1.5,1.5,0,0,1,0-.18l.1-.38.29-1.1c.09-.35.21-.77.36-1.26a6.58,6.58,0,0,1,.61-1.58c.15-.27.37-.53.57-.81a6.42,6.42,0,0,0,.46-.93c.29-.65.61-1.32.95-2s.68-1.42,1-2.14.75-1.46,1.11-2.2a22.07,22.07,0,0,1,1-2.29,6.77,6.77,0,0,1,1.79-1.68c.13-.14.33-.24.37-.44a2,2,0,0,1,.08-.29,1,1,0,0,1,.18-.21,7.25,7.25,0,0,1,.82-.74,2.8,2.8,0,0,0,1.14-1.63,6.87,6.87,0,0,1,.88-1.46c.28-.43.57-.76.78-1,.45-.54.72-.84.72-.84a1.52,1.52,0,0,1,2.37,1.9Z" style="fill:#fff"/><path d="M1741.08,268l-21,.21-10.5.1h-10.5l-10.51-.12-5.25-.07c-1.75,0-3.5,0-5.25-.08s-3.5-.2-5.25-.22l-5.25,0-10.5-.05h0a1.26,1.26,0,0,1-1.25-1.27h0c0-2.29,0-4.59.08-6.88l.17-6.88.17-6.88c.07-2.29,0-4.59.07-6.88v0a.77.77,0,0,1,.78-.76h0c1.75,0,3.5,0,5.25,0l5.25-.06L1678,238l21-.26,21-.29c1.75,0,3.5,0,5.25,0s3.5,0,5.25.07c3.5.07,7,.16,10.5.19h0a1.26,1.26,0,0,1,1.25,1.27l0,3.44,0,3.44.06,6.88.06,6.88.12,6.88a1.5,1.5,0,0,1-1.47,1.52h-.05Zm-1.54-3-.11-12.24c0-4.59-.11-9.17-.1-13.76l1.75,1.75h-5.25c-1.75,0-3.5-.07-5.25-.11l-5.25-.11c-1.75,0-3.5-.08-5.25-.06l-21,0-21,0-10.5,0h-5.25c-1.75,0-3.5,0-5.25,0l1.63-1.63.26,13.76c.06,2.29.06,4.59.07,6.88s0,4.59-.07,6.88l-1.89-1.89c1.75,0,3.5.12,5.25.17l5.25.19,5.25.19c1.75.1,3.5-.08,5.25-.09s3.5.08,5.25.11l5.25.13,5.25.1c1.75,0,3.5.09,5.25.07s3.5-.06,5.25-.14,3.5-.15,5.25-.19,3.5,0,5.25-.05l5.25,0,10.5-.08C1733.56,265,1736.55,265,1739.54,265Z" style="fill:#fff"/><path d="M1702,295.24l-21,.21-10.5.1H1660l-10.5-.12-5.25-.07c-1.75,0-3.5,0-5.25-.08s-3.5-.2-5.25-.22l-5.25,0L1618,295h0a1.26,1.26,0,0,1-1.25-1.27h0c0-2.29,0-4.59.08-6.88L1617,280l.16-6.88c.07-2.29,0-4.59.08-6.88v0a.77.77,0,0,1,.78-.76h0c1.75,0,3.5,0,5.25,0l5.25-.06,10.51-.12,21-.26,21-.29c1.75,0,3.5,0,5.25,0s3.5,0,5.25.07c3.5.07,7,.16,10.5.19h0a1.26,1.26,0,0,1,1.25,1.27l0,3.44,0,3.44.06,6.88.06,6.88.12,6.88a1.5,1.5,0,0,1-1.47,1.52H1702Zm-1.54-3-.11-12.24c0-4.59-.11-9.17-.1-13.76L1702,268h-5.25c-1.75,0-3.5-.07-5.25-.11l-5.25-.11c-1.75,0-3.5-.08-5.25-.06l-21,0-21,0-10.51,0h-5.25c-1.75,0-3.5,0-5.25,0l1.63-1.63.26,13.76c.06,2.29.06,4.59.07,6.88s0,4.59-.07,6.88l-1.89-1.89c1.75,0,3.5.12,5.25.17l5.25.19,5.25.19c1.75.09,3.5-.08,5.25-.1s3.5.08,5.25.11l5.25.13,5.25.1c1.75,0,3.5.09,5.25.07s3.5-.06,5.25-.14,3.5-.15,5.25-.19,3.5,0,5.25-.05l5.25,0,10.5-.08C1694.51,292.17,1697.5,292.19,1700.49,292.2Z" style="fill:#fff"/><path d="M1702,240.9l-21,.21-10.5.1H1660l-10.5-.12-5.25-.07c-1.75,0-3.5,0-5.25-.08s-3.5-.2-5.25-.22l-5.25,0-10.5-.05h0a1.26,1.26,0,0,1-1.25-1.27h0c0-2.29,0-4.59.08-6.88l.17-6.88.16-6.88c.07-2.29,0-4.59.08-6.88v0a.77.77,0,0,1,.78-.76h0c1.75,0,3.5,0,5.25,0l5.25-.06,10.51-.12,21-.26,21-.29c1.75,0,3.5,0,5.25,0s3.5,0,5.25.07c3.5.07,7,.16,10.5.19h0a1.26,1.26,0,0,1,1.25,1.27l0,3.44,0,3.44.06,6.88.06,6.88.12,6.88a1.5,1.5,0,0,1-1.47,1.52H1702Zm-1.54-3-.11-12.24c0-4.59-.11-9.17-.1-13.76l1.75,1.75h-5.25c-1.75,0-3.5-.07-5.25-.11l-5.25-.11c-1.75,0-3.5-.08-5.25-.06l-21,0-21,0-10.51,0h-5.25c-1.75,0-3.5,0-5.25,0l1.63-1.63.26,13.76c.06,2.29.06,4.59.07,6.88s0,4.59-.07,6.88l-1.89-1.89c1.75,0,3.5.12,5.25.17l5.25.19,5.25.19c1.75.1,3.5-.08,5.25-.09s3.5.08,5.25.11l5.25.13,5.25.1c1.75,0,3.5.09,5.25.07s3.5-.06,5.25-.14,3.5-.15,5.25-.19,3.5,0,5.25-.05l5.25,0,10.5-.08C1694.51,237.83,1697.5,237.86,1700.49,237.86Z" style="fill:#fff"/><path d="M810.27,212.24l-21,.21-10.51.1h-10.5l-10.5-.12-5.25-.07c-1.75,0-3.5,0-5.25-.08s-3.5-.2-5.25-.22l-5.25,0-10.5-.05h0a1.26,1.26,0,0,1-1.25-1.27h0c0-2.29,0-4.59.08-6.88l.17-6.88.17-6.88c.07-2.29,0-4.59.07-6.88v0a.77.77,0,0,1,.78-.76h0c1.75,0,3.5,0,5.25,0l5.25-.06,10.5-.12,21-.26,21-.29c1.75,0,3.5,0,5.25,0s3.5,0,5.25.07c3.5.07,7,.16,10.5.19h0a1.26,1.26,0,0,1,1.25,1.27l0,3.44,0,3.44.06,6.88.06,6.88.12,6.88a1.5,1.5,0,0,1-1.47,1.52h-.05Zm-1.54-3L808.62,197c0-4.59-.11-9.17-.1-13.76l1.75,1.75H805c-1.75,0-3.5-.07-5.25-.11l-5.25-.11c-1.75,0-3.5-.08-5.25-.06l-21,0-21,0-10.5,0h-5.25c-1.75,0-3.5,0-5.25,0l1.63-1.63.26,13.76c.06,2.29.06,4.59.07,6.88s0,4.59-.07,6.88l-1.89-1.89c1.75,0,3.5.12,5.25.17l5.25.19,5.25.19c1.75.1,3.5-.08,5.25-.09s3.5.08,5.25.11l5.25.13,5.25.1c1.75,0,3.5.09,5.25.07s3.5-.06,5.25-.14,3.5-.15,5.25-.19,3.5,0,5.25-.05l5.25,0,10.5-.08C802.76,209.17,805.75,209.2,808.74,209.2Z" style="fill:#fff"/><path d="M771.21,185.11l-21,.21-10.5.1h-10.5l-10.51-.12-5.25-.07c-1.75,0-3.5,0-5.25-.08s-3.5-.2-5.25-.22l-5.25,0-10.5-.05h0a1.26,1.26,0,0,1-1.25-1.27h0c0-2.29,0-4.59.08-6.88l.17-6.88.17-6.88c.07-2.29,0-4.59.08-6.88v0a.77.77,0,0,1,.78-.76h0c1.75,0,3.5,0,5.25,0l5.25-.06,10.5-.12,21-.26,21-.29c1.75,0,3.5,0,5.25,0s3.5,0,5.25.07c3.5.07,7,.16,10.5.19h0a1.26,1.26,0,0,1,1.25,1.27l0,3.44,0,3.44.06,6.88.06,6.88.12,6.88a1.5,1.5,0,0,1-1.47,1.52h-.05Zm-1.54-3-.11-12.24c0-4.59-.11-9.17-.1-13.76l1.75,1.75H766c-1.75,0-3.5-.07-5.25-.11l-5.25-.11c-1.75,0-3.5-.08-5.25-.06l-21,0-21,0-10.5,0h-5.25c-1.75,0-3.5,0-5.25,0l1.63-1.63.26,13.76c.06,2.29.06,4.59.07,6.88s0,4.59-.07,6.88l-1.89-1.89c1.75,0,3.5.12,5.25.17l5.25.19,5.25.19c1.75.1,3.5-.08,5.25-.09s3.5.08,5.25.11l5.25.13,5.25.1c1.75,0,3.5.09,5.25.07s3.5-.06,5.25-.14,3.5-.15,5.25-.19,3.5,0,5.25-.05l5.25,0,10.5-.08C763.7,182,766.69,182.06,769.68,182.06Z" style="fill:#fff"/><path d="M1287.09,377.1l-21,.21-10.5.1h-10.5l-10.51-.12-5.25-.07c-1.75,0-3.5,0-5.25-.08s-3.5-.2-5.25-.22l-5.25,0-10.5-.05h0a1.26,1.26,0,0,1-1.25-1.27h0c0-2.29,0-4.59.08-6.88l.17-6.88.17-6.88c.07-2.29,0-4.59.08-6.88v0a.77.77,0,0,1,.78-.76h0c1.75,0,3.5,0,5.25,0l5.25-.06,10.5-.12,21-.26,21-.29c1.75,0,3.5,0,5.25,0s3.5,0,5.25.07c3.5.07,7,.16,10.5.19h0a1.26,1.26,0,0,1,1.25,1.27l0,3.44,0,3.44.06,6.88.06,6.88.12,6.88a1.5,1.5,0,0,1-1.47,1.52h-.05Zm-1.54-3-.11-12.24c0-4.59-.11-9.17-.1-13.76l1.75,1.75h-5.25c-1.75,0-3.5-.07-5.25-.11l-5.25-.11c-1.75,0-3.5-.08-5.25-.06l-21,0-21,0-10.5,0h-5.25c-1.75,0-3.5,0-5.25,0l1.63-1.63.26,13.76c.06,2.29.06,4.59.07,6.88s0,4.59-.07,6.88l-1.89-1.89c1.75,0,3.5.12,5.25.17l5.25.19,5.25.19c1.75.09,3.5-.08,5.25-.09s3.5.07,5.25.11l5.25.13,5.25.1c1.75,0,3.5.09,5.25.07s3.5-.06,5.25-.14,3.5-.15,5.25-.19,3.5,0,5.25-.05l5.25,0,10.5-.08C1279.57,374,1282.56,374.05,1285.55,374.06Z" style="fill:#fff"/><path d="M1202.38,377.1l-21,.21-10.51.1h-10.5l-10.5-.12-5.25-.07c-1.75,0-3.5,0-5.25-.08s-3.5-.2-5.25-.22l-5.25,0-10.5-.05h0a1.26,1.26,0,0,1-1.25-1.27h0c0-2.29,0-4.59.08-6.88l.17-6.88.16-6.88c.07-2.29,0-4.59.08-6.88v0a.77.77,0,0,1,.78-.76h0c1.75,0,3.5,0,5.25,0l5.25-.06,10.5-.12,21-.26,21-.29c1.75,0,3.5,0,5.25,0s3.5,0,5.25.07c3.5.07,7,.16,10.51.19h0a1.26,1.26,0,0,1,1.25,1.27l0,3.44,0,3.44.06,6.88.06,6.88.12,6.88a1.5,1.5,0,0,1-1.47,1.52h-.05Zm-1.54-3-.11-12.24c0-4.59-.11-9.17-.1-13.76l1.75,1.75h-5.25c-1.75,0-3.5-.07-5.25-.11l-5.25-.11c-1.75,0-3.5-.08-5.25-.06l-21,0-21,0-10.5,0h-5.25c-1.75,0-3.5,0-5.25,0l1.63-1.63.26,13.76c.06,2.29.06,4.59.07,6.88s0,4.59-.07,6.88l-1.89-1.89c1.75,0,3.5.12,5.25.17l5.25.19,5.25.19c1.75.09,3.5-.08,5.25-.09s3.5.07,5.25.11l5.25.13,5.25.1c1.75,0,3.5.09,5.25.07s3.5-.06,5.25-.14,3.5-.15,5.25-.19,3.5,0,5.25-.05l5.25,0,10.5-.08C1194.86,374,1197.85,374.05,1200.84,374.06Z" style="fill:#fff"/><path d="M1287.09,435.43l-21,.21-10.5.1h-10.5l-10.51-.12-5.25-.07c-1.75,0-3.5,0-5.25-.08s-3.5-.2-5.25-.22l-5.25,0-10.5-.05h0a1.26,1.26,0,0,1-1.25-1.27h0c0-2.29,0-4.59.08-6.88l.17-6.88.17-6.88c.07-2.29,0-4.59.08-6.88v0a.77.77,0,0,1,.78-.76h0c1.75,0,3.5,0,5.25,0l5.25-.06,10.5-.12,21-.26,21-.29c1.75,0,3.5,0,5.25,0s3.5,0,5.25.07c3.5.07,7,.16,10.5.19h0a1.26,1.26,0,0,1,1.25,1.27l0,3.44,0,3.44.06,6.88.06,6.88.12,6.88a1.5,1.5,0,0,1-1.47,1.52h-.05Zm-1.54-3-.11-12.24c0-4.59-.11-9.17-.1-13.76l1.75,1.75h-5.25c-1.75,0-3.5-.07-5.25-.11l-5.25-.11c-1.75,0-3.5-.08-5.25-.06l-21,0-21,0-10.5,0h-5.25c-1.75,0-3.5,0-5.25,0l1.63-1.63.26,13.76c.06,2.29.06,4.59.07,6.88s0,4.59-.07,6.88L1203,432c1.75,0,3.5.12,5.25.17l5.25.19,5.25.19c1.75.1,3.5-.08,5.25-.09s3.5.08,5.25.11l5.25.13,5.25.1c1.75,0,3.5.09,5.25.07s3.5-.06,5.25-.14,3.5-.15,5.25-.19,3.5,0,5.25-.05l5.25,0,10.5-.08C1279.57,432.36,1282.56,432.39,1285.55,432.39Z" style="fill:#fff"/><path d="M1287.09,323.84l-21,.21-10.5.1h-10.5l-10.51-.12-5.25-.07c-1.75,0-3.5,0-5.25-.08s-3.5-.2-5.25-.22l-5.25,0-10.5-.05h0a1.26,1.26,0,0,1-1.25-1.27h0c0-2.29,0-4.59.08-6.88l.17-6.88.17-6.88c.07-2.29,0-4.59.08-6.88v0a.77.77,0,0,1,.78-.76h0c1.75,0,3.5,0,5.25,0l5.25-.06,10.5-.12,21-.26,21-.29c1.75,0,3.5,0,5.25,0s3.5,0,5.25.07c3.5.07,7,.16,10.5.19h0a1.26,1.26,0,0,1,1.25,1.27l0,3.44,0,3.44.06,6.88.06,6.88.12,6.88a1.5,1.5,0,0,1-1.47,1.52h-.05Zm-1.54-3-.11-12.24c0-4.59-.11-9.17-.1-13.76l1.75,1.75h-5.25c-1.75,0-3.5-.07-5.25-.11l-5.25-.11c-1.75,0-3.5-.08-5.25-.06l-21,0-21,0-10.5,0h-5.25c-1.75,0-3.5,0-5.25,0l1.63-1.63.26,13.76c.06,2.29.06,4.59.07,6.88s0,4.59-.07,6.88l-1.89-1.89c1.75,0,3.5.12,5.25.17l5.25.19,5.25.19c1.75.1,3.5-.08,5.25-.09s3.5.08,5.25.11l5.25.13,5.25.1c1.75,0,3.5.09,5.25.07s3.5-.06,5.25-.14,3.5-.15,5.25-.19,3.5,0,5.25-.05l5.25,0,10.5-.08C1279.57,320.77,1282.56,320.79,1285.55,320.8Z" style="fill:#fff"/><path d="M1248,404.3l-21,.21-10.5.1H1206l-10.5-.12-5.25-.07c-1.75,0-3.5,0-5.25-.08s-3.5-.2-5.25-.22l-5.25,0L1164,404h0a1.26,1.26,0,0,1-1.25-1.27h0c0-2.29,0-4.59.08-6.88L1163,389l.16-6.88c.07-2.29,0-4.59.08-6.88v0a.77.77,0,0,1,.78-.76h0c1.75,0,3.5,0,5.25,0l5.25-.06,10.51-.12,21-.26,21-.29c1.75,0,3.5,0,5.25,0s3.5,0,5.25.07c3.5.07,7,.16,10.5.19h0a1.26,1.26,0,0,1,1.25,1.27l0,3.44,0,3.44.06,6.88.06,6.88.12,6.88a1.5,1.5,0,0,1-1.47,1.52H1248Zm-1.54-3-.11-12.24c0-4.59-.11-9.17-.1-13.76L1248,377h-5.25c-1.75,0-3.5-.07-5.25-.11l-5.25-.11c-1.75,0-3.5-.08-5.25-.06l-21,0-21,0-10.51,0h-5.25c-1.75,0-3.5,0-5.25,0l1.63-1.63.26,13.76c.06,2.29.06,4.59.07,6.88s0,4.59-.07,6.88l-1.89-1.89c1.75,0,3.5.12,5.25.17l5.25.19,5.25.19c1.75.1,3.5-.08,5.25-.09s3.5.08,5.25.11l5.25.13,5.25.1c1.75,0,3.5.09,5.25.07s3.5-.06,5.25-.14,3.5-.15,5.25-.19,3.5,0,5.25-.05l5.25,0,10.51-.08C1240.52,401.23,1243.51,401.25,1246.5,401.26Z" style="fill:#fff"/><path d="M1248,350l-21,.21-10.5.1H1206l-10.5-.12-5.25-.07c-1.75,0-3.5,0-5.25-.08s-3.5-.2-5.25-.22l-5.25,0-10.51-.05h0a1.26,1.26,0,0,1-1.25-1.27h0c0-2.29,0-4.59.08-6.88l.17-6.88.16-6.88c.07-2.29,0-4.59.08-6.88v0a.77.77,0,0,1,.78-.76h0c1.75,0,3.5,0,5.25,0l5.25-.06,10.51-.12,21-.26,21-.29c1.75,0,3.5,0,5.25,0s3.5,0,5.25.07c3.5.07,7,.16,10.5.19h0a1.26,1.26,0,0,1,1.25,1.27l0,3.44,0,3.44.06,6.88.06,6.88.12,6.88a1.5,1.5,0,0,1-1.47,1.52H1248Zm-1.54-3-.11-12.24c0-4.59-.11-9.17-.1-13.76l1.75,1.75h-5.25c-1.75,0-3.5-.07-5.25-.11l-5.25-.11c-1.75,0-3.5-.08-5.25-.06l-21,0-21,0-10.51,0h-5.25c-1.75,0-3.5,0-5.25,0l1.63-1.63.26,13.76c.06,2.29.06,4.59.07,6.88s0,4.59-.07,6.88l-1.89-1.89c1.75,0,3.5.12,5.25.17l5.25.19,5.25.19c1.75.09,3.5-.08,5.25-.09s3.5.07,5.25.11l5.25.13,5.25.1c1.75,0,3.5.09,5.25.07s3.5-.06,5.25-.14,3.5-.15,5.25-.19,3.5,0,5.25-.05l5.25,0,10.51-.08C1240.52,346.89,1243.51,346.92,1246.5,346.92Z" style="fill:#fff"/><path d="M1248,465.17l-21,.21-10.5.1H1206l-10.5-.12-5.25-.07c-1.75,0-3.5,0-5.25-.08s-3.5-.2-5.25-.22l-5.25,0-10.51-.05h0a1.26,1.26,0,0,1-1.25-1.27h0c0-2.29,0-4.59.08-6.88l.17-6.88.16-6.88c.07-2.29,0-4.59.08-6.88v0a.77.77,0,0,1,.78-.76h0c1.75,0,3.5,0,5.25,0l5.25-.06,10.51-.12,21-.26,21-.29c1.75,0,3.5,0,5.25,0s3.5,0,5.25.07c3.5.07,7,.16,10.5.19h0a1.26,1.26,0,0,1,1.25,1.27l0,3.44,0,3.44.06,6.88.06,6.88.12,6.88a1.5,1.5,0,0,1-1.47,1.52H1248Zm-1.54-3-.11-12.24c0-4.59-.11-9.17-.1-13.76l1.75,1.75h-5.25c-1.75,0-3.5-.07-5.25-.11l-5.25-.11c-1.75,0-3.5-.08-5.25-.06l-21,0-21,0-10.51,0h-5.25c-1.75,0-3.5,0-5.25,0l1.63-1.63.26,13.76c.06,2.29.06,4.59.07,6.88s0,4.59-.07,6.88l-1.89-1.89c1.75,0,3.5.12,5.25.17l5.25.19,5.25.19c1.75.09,3.5-.08,5.25-.1s3.5.08,5.25.11l5.25.13,5.25.1c1.75,0,3.5.09,5.25.07s3.5-.06,5.25-.14,3.5-.15,5.25-.19,3.5,0,5.25-.05l5.25,0,10.51-.08C1240.52,462.1,1243.51,462.12,1246.5,462.13Z" style="fill:#fff"/><path d="M1334.82,656.88l-86.79.31,1.83-1.83v40.41l-1.82-1.82,29.48.13,14.74.07,7.37,0,7.37.13c4.91.11,9.83.11,14.74.12l14.74,0,29.48.05c9.83,0,19.66.15,29.48.21l29.48.19,14.74.08,14.74,0,29.48-.12,117.94-.54c9.83-.06,19.66-.11,29.48,0l29.48.18c9.83,0,19.66.14,29.48.06l29.48-.12-1.4,1.4-.13-31.75a1.52,1.52,0,0,1,3,0h0l.1,31.75a1.62,1.62,0,0,1-1.61,1.62h0l-29.48.1-29.48,0c-9.83,0-19.66-.16-29.48-.2s-19.66-.08-29.48-.07l-117.94.09-29.48,0c-9.83,0-19.66,0-29.48.12l-29.48.17-14.74.06c-4.91,0-9.83.05-14.74,0l-29.48-.3-14.74-.19-7.37-.09c-2.46,0-4.91,0-7.37,0l-7.37.07-7.37-.05-14.74-.13-29.48-.21h0a1,1,0,0,1-1-1l0-5.05,0-5.05-.09-10.1-.22-20.2A1.36,1.36,0,0,1,1248,654h0l86.79-.15a1.52,1.52,0,1,1,0,3Z" style="fill:#fff"/><path d="M274.11,878.5c133-.15,266-.55,399-.15l49.88.1c16.63.1,33.25.27,49.88.24l99.75.07,199.51.48,399-.65c66.5-.25,133,.07,199.51.15l199.51-.23v3l-199.51.23-49.88,0-49.88-.16c-33.25-.13-66.5-.08-99.75-.07l-399,.14-99.75.24c-33.25,0-66.5.18-99.75,0l-99.75-.45c-16.63-.14-33.25,0-49.88,0l-49.88-.16-99.75-.24-49.88.19c-16.63.08-33.25.17-49.88.15l-199.51.14Z" style="fill:#e0e3ed"/><path d="M71.57,878.5c11.59-.15,23.19-.55,34.78-.15l4.35.09c.72,0,1.45.13,2.17.19s1.45,0,2.17.05l8.7.07c5.8,0,11.59.49,17.39.49,11.59,0,23.19-.44,34.78-.66,2.9-.05,5.8-.18,8.7-.1s5.8.21,8.7.27,5.8-.06,8.7-.07,5.8-.08,8.7-.18v3l-17.39.24c-2.9,0-5.8-.1-8.7-.22s-5.8-.06-8.7-.06l-34.78.13c-2.9,0-5.8.19-8.7.27s-5.8.1-8.7,0-5.8-.4-8.7-.51c-.72,0-1.45-.08-2.17-.06s-1.45.13-2.17.12c-1.45,0-2.9-.07-4.35-.14-2.9-.15-5.8-.28-8.7-.27-1.45,0-2.9.12-4.35.22s-2.9.13-4.35.14c-5.8,0-11.59.19-17.39.13Z" style="fill:#e0e3ed"/><path d="M892.94,909.88c-40.25-.29-80.76-1-109-2.31,0,0-113.2,105.86-162.35,147.34,112.41,11,446.38,13,456.53,1.86,5-5.48-5.3-40.94-17.06-75.66" style="fill:#fff"/><path d="M1645,987.22c28.1,25.62,56.94,51.53,76.08,67.69-112.41,11-446.38,13-456.53,1.86s43.12-147,43.12-147,39.89.37,90,.33" style="fill:#fff"/><path d="M1452.49,898.81c3.21,35.59,19.07,69,32.12,102.73a696.55,696.55,0,0,1,22.54,68.56" style="fill:none;stroke:#f4f6f8;stroke-miterlimit:10;stroke-width:6.3406590736921px"/><path d="M1260.73,1006.4c155.48,6.27,295.82-2.18,451.44.36" style="fill:none;stroke:#f4f6f8;stroke-miterlimit:10;stroke-width:6.3406590736921px"/><path d="M1253.12,937.46c155.48,6.27,295.82-2.18,451.44.36" style="fill:none;stroke:#f4f6f8;stroke-miterlimit:10;stroke-width:6.3406590736921px"/><path d="M896.49,905.7c-3.21,35.59-19.07,69-32.12,102.73A696.55,696.55,0,0,0,841.83,1077" style="fill:none;stroke:#f4f6f8;stroke-miterlimit:10;stroke-width:6.3406590736921px"/><path d="M1088.25,1013.3c-155.48,6.27-295.82-2.18-451.44.36" style="fill:none;stroke:#f4f6f8;stroke-miterlimit:10;stroke-width:6.3406590736921px"/><path d="M1095.86,944.36c-155.48,6.27-295.82-2.18-451.44.36" style="fill:none;stroke:#f4f6f8;stroke-miterlimit:10;stroke-width:6.3406590736921px"/><polygon points="1818.63 900.66 1648.91 902.2 1648.58 761.45 1819.65 759.25 1818.63 900.66" style="fill:#e8eaf2;stroke:#e8eaf2;stroke-miterlimit:10;stroke-width:3.80439544421526px"/><path d="M1731.19,759.81l.12,6.32c0,2,.07,4.45.11,7.26s.09,6,.08,9.41,0,7.18-.1,11.13l-.11,6.08c0,2.07-.25,4.19-.23,6.35-.07,4.31-.09,8.76-.23,13.29s-.41,9.12-.46,13.71c-.08,9.19-.16,18.39-.24,27-.06,4.31-.11,8.48-.16,12.43s-.23,7.68-.44,11.13c-.44,6.88-.49,12.63-.67,16.66l-.25,6.32-2-.11.87-22.94c.21-3.44.44-7.17.53-11.11l.31-12.41c.09-4.31.18-8.75.27-13.28l.2-13.71c0-4.59-.08-9.19,0-13.71s.32-9,.49-13.27c0-1.08.12-2.14.08-3.2s-.08-2.11,0-3.14l.18-6.07.12-5.75c0-1.86-.07-3.65-.13-5.37-.16-3.45-.09-6.6-.16-9.4s-.06-5.24-.09-7.25l0-6.32Z" style="fill:#f4f5f8"/><path d="M1747.63,764.82c.13,1.11.24,2.21.34,3.32s.23,2.21.29,3.32,0,2.22,0,3.33l-.07,1.67a2.75,2.75,0,0,1-.16.84,4.33,4.33,0,0,0,0,.84c0,1.11.1,2.22.07,3.33,0,.56-.05,1.11-.11,1.67s-.12,1.12-.16,1.67a22.35,22.35,0,0,0,.16,3.33c.05.55.08,1.11.16,1.66l.21,1.66a1,1,0,0,1-.84,1.09l-.18,0-3.54.46-1.77.19c-.59,0-1.18.15-1.78.16a1.68,1.68,0,0,1-1.06-.35h0a8.34,8.34,0,0,1-.71-.68l-.68-.71a13.63,13.63,0,0,0-1.43-1.35l1.57,0-1.72,1.48c-.58.49-1.14,1-1.68,1.53l-1.88-2.39,3.43-3a1.63,1.63,0,0,1,2-.08l.14.11a15.2,15.2,0,0,1,1.51,1.26c.48.45.87,1,1.35,1.44l-1-.34c.59,0,1.19,0,1.78-.05l1.78-.08c1.19-.06,2.37-.08,3.56-.17l-1.41,1.54-.22-3.32c-.07-1.11-.13-2.22-.3-3.32a19,19,0,0,1-.4-3.32,28.64,28.64,0,0,1,.42-3.35,2.81,2.81,0,0,0,0-.84,1.85,1.85,0,0,1-.13-.83q0-.83.15-1.67a12.83,12.83,0,0,0,.1-1.67,4.93,4.93,0,0,0-.28-1.65,7.91,7.91,0,0,1-.25-1.66l-.16-1.66c-.08-1.11-.15-2.22-.17-3.33Z" style="fill:#fff"/><path d="M1723.36,794.08l-2.37.2a1.45,1.45,0,0,1-1-.31l-.11-.08-2.42-1.92c-.8-.64-1.62-1.27-2.4-1.93l2.74-.36c-.47.74-1,1.45-1.52,2.16s-1,1.43-1.58,2.11l-.15.19a1.49,1.49,0,0,1-1.18.55l-1.59,0a3.42,3.42,0,0,1-.8-.09,3.29,3.29,0,0,0-.8-.1c-1.06,0-2.11.05-3.17.07h-.07a1.24,1.24,0,0,1-1.27-1.22h0c0-.71-.06-1.42,0-2.14s0-1.43.11-2.14a23.24,23.24,0,0,0,0-4.28c-.13-1.42-.2-2.84-.37-4.26l-.48-4.25c-.18-1.42-.31-2.84-.45-4.26-.06-.71-.16-1.42-.18-2.13s0-1.43.05-2.14.06-1.43.06-2.14-.11-1.42-.16-2.13l-.18-2.13c0-.71-.16-1.42-.24-2.13l3-.15.37,4.26.18,2.13a17.81,17.81,0,0,1,.05,2.14c0,.71-.12,1.43-.12,2.15s.05,1.42.07,2.14l.2,4.27c.12,2.85.36,5.69.53,8.53,0,.71.12,1.42.19,2.13l.3,2.12a16.25,16.25,0,0,1,.12,4.27l-1.86-1.7,1.59.19c.53.07,1.06.09,1.59.13a2.15,2.15,0,0,0,.79-.09,2.16,2.16,0,0,1,.79-.08c.53,0,1.06,0,1.59.07l-1,.56c.58-.67,1.18-1.33,1.69-2a7.35,7.35,0,0,0,.73-1.1l.56-1.21a1.08,1.08,0,0,1,1.44-.53l.12.07.33.21c.87.56,1.62,1.26,2.44,1.89l2.39,1.94-1.06-.37c.79-.06,1.58-.07,2.37-.1Z" style="fill:#fff"/><path d="M1752.22,893.94c.08-7.69.17-17.91.25-25.6l49.05,0c0,7.47.06,17.48.08,25" style="fill:#e0e3ed;stroke:#e0e3ed;stroke-miterlimit:10;stroke-width:3.80439544421526px"/><path d="M1755.67,887.83c.68-.23,1.36-.45,1.93-.7s1.22-.52,1.81-.82a23.87,23.87,0,0,0,3.42-2.07,28.94,28.94,0,0,0,5.72-5.51c.41-.52.81-1,1.2-1.58l.55-.83.13-.19.14-.23.2-.36a3.58,3.58,0,0,0,.44-1.31,1,1,0,0,0,0-.36.63.63,0,0,0-.1-.19l-.06-.07a1.42,1.42,0,0,0-1.06-.54h-.5l-.26,0c-.16,0-.37.06-.5.1l-.31.12a5,5,0,0,0-2.45,2.22,8.17,8.17,0,0,0-1.06,3.46,6,6,0,0,0,.71,3.56l.27.46c.09.13.19.24.28.36a7,7,0,0,0,.64.7c.23.23.49.43.74.64a8.43,8.43,0,0,0,.83.52,11,11,0,0,0,3.75,1.22,11.56,11.56,0,0,0,3.95-.15c.31-.06.66-.17.92-.23s.7-.22,1-.34a11.74,11.74,0,0,0,1.73-.85,10.18,10.18,0,0,0,2.85-2.48,7.14,7.14,0,0,0,1.42-3.24l1.39,1.71a2.67,2.67,0,0,0-.45.07,3,3,0,0,0-.44.18,2.63,2.63,0,0,0-.77.65c-.1.14-.21.27-.3.41a3.37,3.37,0,0,0-.21.44,4.49,4.49,0,0,0-.14.44,3.08,3.08,0,0,0,0,.44l-1.34-1.31a12.14,12.14,0,0,0,2.19.14,10.6,10.6,0,0,0,2.2-.28q.54-.14,1.07-.31c.35-.14.69-.29,1-.45a12.32,12.32,0,0,0,1.89-1.15,1.3,1.3,0,0,1,2,.54l.06.14a2.58,2.58,0,0,0,.21.41,2.89,2.89,0,0,0,.32.36,2.61,2.61,0,0,0,.89.52,2.86,2.86,0,0,0,.51.12,3.14,3.14,0,0,0,.5,0,2.65,2.65,0,0,0,.45-.1,2.34,2.34,0,0,0,.37-.19l1.49,2.65a5.27,5.27,0,0,1-1.09.46,5.65,5.65,0,0,1-1.13.18,5.62,5.62,0,0,1-4.07-1.52,5.69,5.69,0,0,1-.75-.9,5.37,5.37,0,0,1-.53-1.09l2.54.85a15.24,15.24,0,0,1-4.92,2.39,13.56,13.56,0,0,1-2.71.45,15.18,15.18,0,0,1-2.74-.17l-.17,0a1.49,1.49,0,0,1-1.26-1.38,5.39,5.39,0,0,1,.05-1.18,6.47,6.47,0,0,1,.31-1.1,6.2,6.2,0,0,1,.49-1,8.16,8.16,0,0,1,.66-.86,5.59,5.59,0,0,1,1.73-1.31,5.74,5.74,0,0,1,1.07-.38,5.41,5.41,0,0,1,1.15-.12,1.46,1.46,0,0,1,1.46,1.46,1.48,1.48,0,0,1,0,.26v0a10,10,0,0,1-2.14,4.48,13,13,0,0,1-3.72,3,13.73,13.73,0,0,1-2.2,1c-.42.16-.73.23-1.08.34s-.8.19-1.21.26a15.1,15.1,0,0,1-4.75,0,13.36,13.36,0,0,1-4.56-1.57,13,13,0,0,1-2-1.44,9.19,9.19,0,0,1-.92-.92l-.44-.52-.32-.43a8.63,8.63,0,0,1-1.64-5,10.33,10.33,0,0,1,.33-2.59,9.32,9.32,0,0,1,1.06-2.4,7.73,7.73,0,0,1,4.19-3.29l.72-.21c.22-.05.37-.05.55-.08l.27,0,.24,0h.17a6.12,6.12,0,0,1,.69,0,13,13,0,0,1,1.4.2,3.41,3.41,0,0,1,1.44.63,3,3,0,0,1,.64.67,4,4,0,0,1,.4.71,3.79,3.79,0,0,1,.29,1.62,5.91,5.91,0,0,1-.81,2.56c-.41.76-.85,1.27-1.26,1.91s-.88,1.19-1.32,1.78a37.25,37.25,0,0,1-2.75,3.51,28.39,28.39,0,0,1-7.31,5.16,18.11,18.11,0,0,1-2.08.89c-.75.28-1.42.48-2.1.69Z" style="fill:#fff"/><polygon points="669.64 899.87 478.31 901.61 477.93 742.94 670.8 740.45 669.64 899.87" style="fill:#e8eaf2;stroke:#e8eaf2;stroke-miterlimit:10;stroke-width:3.80439544421526px"/><path d="M570.93,741.08l.12,7.12c0,2.27.07,5,.11,8.18s.09,6.72.08,10.61,0,8.1-.1,12.55L571,786.4c0,2.34-.26,4.72-.23,7.15-.07,4.86-.1,9.88-.25,15l-.26,7.7-.21,7.76-.32,30.44c-.07,4.86-.14,9.55-.2,14s-.26,8.66-.48,12.54-.4,7.44-.48,10.6l-.28,8.18-.29,7.12-2-.11.3-7.11.3-8.16c.12-3.15.22-6.71.4-10.59s.47-8.08.58-12.53l.35-14c.1-4.85.2-9.87.31-15s.16-10.28.23-15.46,0-10.36,0-15.46c0-2.55.15-5.08.21-7.57l.29-7.39c.18-2.43,0-4.82.06-7.15l.19-6.85.13-6.48c0-2.09-.07-4.12-.13-6.06-.17-3.88-.08-7.45-.14-10.6s-.05-5.91-.08-8.17l-.09-7.12Z" style="fill:#f4f5f8"/><path d="M589.41,746.74l.34,3.74c.1,1.25.25,2.49.32,3.75s.05,2.5.05,3.76l-.06,1.88a3.44,3.44,0,0,1-.16.95,5.43,5.43,0,0,0,0,.94c0,.63,0,1.25,0,1.88l0,1.88c0,.63,0,1.25-.1,1.88s-.11,1.26-.15,1.89a28.49,28.49,0,0,0,.18,3.75c.06.62.09,1.25.17,1.87l.22,1.87a1,1,0,0,1-.87,1.09l-.15,0-4,.48-2,.2c-.67.05-1.33.16-2,.17a1.66,1.66,0,0,1-1.06-.35h0a10.49,10.49,0,0,1-.81-.76l-.78-.79A17.29,17.29,0,0,0,577,775.3l1.57,0L576.6,777c-.65.54-1.29,1.12-1.91,1.7l-1.88-2.4L576.7,773a1.65,1.65,0,0,1,2.06-.06l.13.09a19.32,19.32,0,0,1,1.7,1.42c.54.51,1,1.1,1.55,1.6l-1-.34c.67,0,1.34,0,2-.06l2-.09c1.34-.07,2.68-.1,4-.19l-1.41,1.54-.24-3.75c-.08-1.25-.15-2.5-.32-3.75a24.19,24.19,0,0,1-.42-3.74,36.07,36.07,0,0,1,.4-3.78,3.56,3.56,0,0,0,0-.94A2.33,2.33,0,0,1,587,760q0-.94.14-1.89a16.25,16.25,0,0,0,.09-1.88,6.24,6.24,0,0,0-.29-1.87,9.64,9.64,0,0,1-.25-1.87l-.15-1.87c-.11-1.25-.2-2.5-.22-3.75Z" style="fill:#fff"/><path d="M562.23,779.52l-2.67.21a1.46,1.46,0,0,1-1-.32l-.09-.08-2.71-2.17c-.9-.73-1.82-1.44-2.7-2.19l2.74-.36c-.54.83-1.13,1.63-1.7,2.44s-1.16,1.61-1.77,2.39l-.14.17a1.51,1.51,0,0,1-1.2.57l-1.79,0a4.39,4.39,0,0,1-.9-.09,4,4,0,0,0-.9-.09l-3.57.09h-.06a1.25,1.25,0,0,1-1.28-1.22h0c0-.8-.07-1.6-.05-2.41s0-1.61.09-2.42.09-1.61.09-2.42,0-1.61-.1-2.41c-.14-1.6-.22-3.21-.4-4.8l-.51-4.8c-.19-1.6-.33-3.2-.47-4.8-.06-.8-.17-1.6-.19-2.4s0-1.61,0-2.41.06-1.61,0-2.41-.11-1.6-.16-2.4l-.2-2.4c-.05-.8-.17-1.6-.25-2.4l3-.15.39,4.8.19,2.4a22.63,22.63,0,0,1,.07,2.41c0,.8-.11,1.61-.1,2.42s.06,1.6.09,2.41l.23,4.81c.14,3.21.39,6.41.58,9.62,0,.8.13,1.6.21,2.4l.31,2.4c.12.8.16,1.6.2,2.4,0,.4,0,.8,0,1.21a10.26,10.26,0,0,1-.06,1.21l-1.86-1.7,1.79.18c.6.07,1.19.08,1.79.13a2.72,2.72,0,0,0,.89-.09,3,3,0,0,1,.89-.08c.6,0,1.19,0,1.79.06l-1,.56c.64-.76,1.3-1.51,1.88-2.32a9.34,9.34,0,0,0,.82-1.24l.66-1.35a1.1,1.1,0,0,1,1.47-.51l.12.07.29.19c1,.64,1.82,1.43,2.73,2.15l2.69,2.2-1.06-.37c.89-.06,1.78-.08,2.67-.12Z" style="fill:#fff"/><path d="M594.78,892.29c.1-8.67.19-20.19.29-28.86l55.3,0c0,8.42.06,19.71.09,28.13" style="fill:#e0e3ed;stroke:#e0e3ed;stroke-miterlimit:10;stroke-width:3.80439544421526px"/><path d="M598.72,885.6c.76-.25,1.54-.51,2.19-.79s1.39-.59,2.06-.93a27.13,27.13,0,0,0,3.89-2.34,32.31,32.31,0,0,0,6.5-6.25q.7-.88,1.36-1.8l.62-.94.14-.22.15-.26.23-.42a4.16,4.16,0,0,0,.51-1.57,1.22,1.22,0,0,0-.06-.49.93.93,0,0,0-.14-.24l-.1-.12a1.85,1.85,0,0,0-1.32-.62,4,4,0,0,0-.45,0h-.15l-.3.06c-.19,0-.42.07-.57.12l-.38.15a5.85,5.85,0,0,0-2.84,2.58,9.21,9.21,0,0,0-1.2,4,6.87,6.87,0,0,0,.86,4.08l.31.52c.1.15.22.28.33.42a8,8,0,0,0,.74.8c.26.26.56.48.84.73a9.83,9.83,0,0,0,.95.59,12.48,12.48,0,0,0,4.26,1.4,13.28,13.28,0,0,0,4.49-.15c.35-.07.75-.19,1.06-.26s.79-.24,1.1-.38a13.3,13.3,0,0,0,2-1,11.65,11.65,0,0,0,3.27-2.82,8.23,8.23,0,0,0,1.66-3.72l1.39,1.71a3.15,3.15,0,0,0-.55.08,3.49,3.49,0,0,0-.54.22,4,4,0,0,0-.5.34,4.29,4.29,0,0,0-.43.43c-.12.16-.25.32-.36.49a4,4,0,0,0-.26.53,4.61,4.61,0,0,0-.16.54,3.58,3.58,0,0,0,0,.54l-1.34-1.31a13.85,13.85,0,0,0,2.5.15,12.28,12.28,0,0,0,2.5-.33q.62-.16,1.22-.35c.4-.15.78-.32,1.16-.5a14,14,0,0,0,2.16-1.3,1.3,1.3,0,0,1,1.82.28,1.29,1.29,0,0,1,.16.28l0,.12a3,3,0,0,0,.26.5,3.39,3.39,0,0,0,.38.44,3.82,3.82,0,0,0,.49.37,4.12,4.12,0,0,0,.57.27,3.52,3.52,0,0,0,.6.15,3.79,3.79,0,0,0,.6,0,3.19,3.19,0,0,0,.55-.11,2.8,2.8,0,0,0,.47-.22l1.49,2.65a5.76,5.76,0,0,1-1.18.5,6.14,6.14,0,0,1-1.23.2,6.65,6.65,0,0,1-1.22-.07,6.21,6.21,0,0,1-2.25-.84,6.74,6.74,0,0,1-1-.75,6.24,6.24,0,0,1-.81-1,5.88,5.88,0,0,1-.58-1.18l2.54.85a17,17,0,0,1-5.49,2.65,15.29,15.29,0,0,1-3,.5,16.93,16.93,0,0,1-3.05-.17l-.16,0a1.5,1.5,0,0,1-1.28-1.38,5.9,5.9,0,0,1,.05-1.29,6.93,6.93,0,0,1,.33-1.2,6.8,6.8,0,0,1,.54-1.08,8.74,8.74,0,0,1,.72-.94,6.11,6.11,0,0,1,1.9-1.43,6.3,6.3,0,0,1,1.16-.41,5.94,5.94,0,0,1,1.26-.13,1.46,1.46,0,0,1,1.43,1.75v0a11.39,11.39,0,0,1-.88,2.65,12.4,12.4,0,0,1-1.5,2.31,14.4,14.4,0,0,1-4.14,3.38,15.36,15.36,0,0,1-2.45,1.09c-.46.17-.81.26-1.21.38s-.89.21-1.35.29a16.84,16.84,0,0,1-5.29,0,14.86,14.86,0,0,1-5.07-1.75,14.16,14.16,0,0,1-2.25-1.6,10.31,10.31,0,0,1-1-1l-.49-.57-.36-.48a9.52,9.52,0,0,1-1.79-5.54,11.44,11.44,0,0,1,.36-2.86,10.4,10.4,0,0,1,1.17-2.65,8.52,8.52,0,0,1,4.58-3.65l.78-.23c.24-.06.41-.06.62-.1l.3,0,.26,0h.19a6.76,6.76,0,0,1,.76,0,12.57,12.57,0,0,1,1.54.22,3.77,3.77,0,0,1,1.56.7,3.28,3.28,0,0,1,.69.71,4.27,4.27,0,0,1,.43.76,4.1,4.1,0,0,1,.32,1.75,6.54,6.54,0,0,1-.88,2.82c-.44.84-.94,1.43-1.39,2.15s-1,1.34-1.48,2a40.81,40.81,0,0,1-3.11,3.92,30.83,30.83,0,0,1-3.87,3.2,30.27,30.27,0,0,1-4.34,2.56,21,21,0,0,1-2.33,1c-.83.32-1.59.54-2.35.77Z" style="fill:#fff"/><polygon points="1633.48 904.46 1463.76 906.01 1463.43 765.26 1634.51 763.06 1633.48 904.46" style="fill:#ecedf4;stroke:#ecedf4;stroke-miterlimit:10;stroke-width:3.80439544421526px"/><path d="M1546,763.62l.12,6.32c0,2,.07,4.45.11,7.26s.09,6,.08,9.41,0,7.18-.1,11.13q-.05,3-.11,6.08c0,2.07-.25,4.19-.23,6.35-.07,4.31-.09,8.76-.23,13.29s-.41,9.12-.46,13.71c-.08,9.19-.17,18.39-.24,27-.06,4.31-.11,8.48-.16,12.43s-.23,7.68-.44,11.13c-.44,6.89-.49,12.63-.67,16.66l-.25,6.32-2-.11.87-22.94c.21-3.44.44-7.17.53-11.11l.31-12.41.27-13.28c.07-4.52.13-9.11.2-13.71s-.08-9.19,0-13.71.32-9,.49-13.28c0-1.08.12-2.14.08-3.2s-.08-2.11,0-3.14l.18-6.07q.06-3,.12-5.75c0-1.86-.07-3.65-.13-5.37-.16-3.45-.09-6.6-.16-9.4s-.06-5.24-.09-7.25l0-6.32Z" style="fill:#f4f5f8"/><path d="M1562.9,763.22l.36,12.44c.1,4.15.28,8.29.33,12.44l.09,6.22v12.45c0,1,0,2.07-.09,3.11a29.08,29.08,0,0,0-.09,3.11h0a1.33,1.33,0,0,1-1.31,1.36h0l-7,.1c-2.35,0-4.69.11-7,.06H1548a1.09,1.09,0,0,1-.7-.27c-1-.87-2-1.73-2.93-2.62l1.32,0L1542,814.3l-.06,0a.75.75,0,0,1-.46.14c-1,0-1.9,0-2.85,0h-.69l-.71,0-1.43,0a.8.8,0,0,1-.54-.19l-4.72-4,1.25-.16-2.92,4.4a.89.89,0,0,1-.68.4h0l-6.32.43a1,1,0,0,1-1.11-1h0v-.06l-.7-12.85-.35-6.43c-.12-2.14-.24-4.28-.23-6.43v-6.44c0-1.07,0-2.15,0-3.22s-.09-2.14-.13-3.21c-.21-4.28-.37-8.57-.65-12.85l3-.1.6,12.85c.09,2.14.21,4.28.26,6.43s0,4.29,0,6.44,0,4.29.12,6.43l.23,6.43.45,12.86-1.61-1.49,6.33-.3-1.22.68,3-4.37a1.57,1.57,0,0,1,2.19-.42l.14.1h0l4.68,4-1.11-.39,1.42-.09.71,0,.41,0h.36q1.43,0,2.85-.11l-1.06.37,3.47-2.92a1.82,1.82,0,0,1,2.27-.06l.12.09c1,.79,2,1.64,3.06,2.47l-1.29-.45c1.17,0,2.34-.05,3.52,0s2.35,0,3.52.08l3.52.15c1.17.06,2.35.07,3.52.1l-1.33,1.38a22.13,22.13,0,0,0-.07-3.11,26,26,0,0,1-.07-3.11c0-2.07.08-4.15.13-6.23s.07-4.15.06-6.22-.17-4.15-.34-6.22-.19-4.15-.24-6.22l-.16-6.22c-.12-4.15-.21-8.29-.24-12.44Z" style="fill:#fff"/><path d="M1567.08,897.74c.08-7.69.17-17.91.25-25.6l49.05,0c0,7.47.06,17.48.08,25" style="fill:#e0e3ed;stroke:#e0e3ed;stroke-miterlimit:10;stroke-width:3.80439544421526px"/><polygon points="1735.82 759.47 1576.49 760.92 1576.18 628.79 1736.78 626.72 1735.82 759.47" style="fill:#fff"/><path d="M1653.79,627.25l.11,5.93L1654,640c0,2.63.09,5.6.08,8.83s0,6.74-.1,10.45q-.05,2.78-.11,5.71c0,1.95-.25,3.93-.22,6-.07,4-.09,8.23-.22,12.47s-.4,8.56-.45,12.87c-.07,8.63-.14,17.26-.21,25.35,0,4-.1,8-.14,11.67s-.22,7.21-.41,10.45c-.42,6.46-.46,11.86-.63,15.64l-.23,5.93-2-.11.24-5.92.24-6.8c.09-2.62.18-5.59.33-8.82s.43-6.73.51-10.43l.29-11.65c.08-4,.17-8.22.25-12.46s.15-8.56.19-12.87-.09-8.63,0-12.87.31-8.42.48-12.46c0-1,.12-2,.08-3a28,28,0,0,1,0-2.95l.18-5.7.12-5.4c0-1.74-.07-3.43-.13-5-.16-3.23-.09-6.2-.15-8.83l-.08-6.8,0-5.93Z" style="fill:#f4f5f8"/><path d="M1669.65,626.88l.35,11.68c.1,3.89.27,7.79.31,11.68l.08,5.84,0,5.84,0,5.84c0,1,0,1.95-.09,2.92a25.65,25.65,0,0,0-.09,2.92h0a1.33,1.33,0,0,1-1.31,1.36h0l-6.6.09c-2.2,0-4.4.1-6.6.05h-.09a1.08,1.08,0,0,1-.69-.27c-.92-.82-1.84-1.63-2.75-2.46l1.32,0-3.46,2.48-.06,0a.74.74,0,0,1-.46.14c-.89,0-1.79,0-2.68,0h-.64l-.67,0-1.34,0a.8.8,0,0,1-.54-.19l-4.43-3.72,1.25-.16-2.74,4.13a.89.89,0,0,1-.67.4h0L1631,676a1,1,0,0,1-1.11-1h0v-.06l-.67-12.06-.33-6c-.11-2-.23-4-.22-6l0-6c0-1,0-2,0-3s-.08-2-.12-3c-.2-4-.35-8-.63-12.06l3-.1.57,12.07c.09,2,.2,4,.25,6s0,4,0,6,0,4,.11,6l.21,6,.43,12.07-1.61-1.49,5.94-.28-1.22.68,2.78-4.1a1.57,1.57,0,0,1,2.18-.42l.14.11h0l4.39,3.76-1.11-.39,1.34-.09.67,0,.39,0h.33c.89,0,1.78-.06,2.68-.11l-1.06.37,3.25-2.75a1.81,1.81,0,0,1,2.26-.06l.13.1c1,.74,1.92,1.53,2.87,2.31l-1.29-.45c1.1,0,2.2,0,3.3,0s2.2,0,3.31.08l3.31.15c1.1.06,2.2.07,3.31.11l-1.33,1.38a19.5,19.5,0,0,0-.07-2.92,23,23,0,0,1-.06-2.92c0-1.95.08-3.9.13-5.84s.07-3.9.07-5.84-.16-3.89-.33-5.84-.19-3.89-.23-5.84l-.15-5.84c-.11-3.89-.2-7.79-.23-11.68Z" style="fill:#fff"/><path d="M1673.48,674.53c.08-7.22.16-16.82.24-24l46,0c0,7,.05,16.41.08,23.43" style="fill:#f4f6f8"/><path d="M504.38,810.53A24.41,24.41,0,0,1,515,814.69" style="fill:none;stroke:#fff;stroke-linecap:round;stroke-miterlimit:10;stroke-width:1.26813181473842px"/><path d="M504.37,812.46c5.87,2,11.68,7,16.07,11.35" style="fill:none;stroke:#fff;stroke-linecap:round;stroke-miterlimit:10;stroke-width:1.26813181473842px"/><path d="M496.49,808.05a24.41,24.41,0,0,0-10.9-3.18" style="fill:none;stroke:#fff;stroke-linecap:round;stroke-miterlimit:10;stroke-width:1.26813181473842px"/><path d="M495.32,809.59c-5.84-2-13.52-1.62-19.66-.86" style="fill:none;stroke:#fff;stroke-linecap:round;stroke-miterlimit:10;stroke-width:1.26813181473842px"/><path d="M468.32,899.09l-.82,1.8-.21.47-.29.56-.68,1.28c-.48.95-1.12,1.87-1.8,3a44.73,44.73,0,0,1-6,7.15,40.17,40.17,0,0,1-9.84,7,35.32,35.32,0,0,1-6.53,2.43,35.86,35.86,0,0,1-3.61.75l-1.88.19-.47,0-.24,0h-1.2a34.39,34.39,0,0,1-15.42-3.43,43,43,0,0,1-13.33-9.9l-1.39-1.61-1.29-1.64c-.85-1.14-1.69-2.34-2.44-3.52a58.25,58.25,0,0,1-4-7.49,85.21,85.21,0,0,1-6.78-32,42.24,42.24,0,0,1,2.52-14.9,32.63,32.63,0,0,1,1.46-3.27,14.24,14.24,0,0,1,1.89-3,8,8,0,0,1,2.71-2.24,3.45,3.45,0,0,1,3.51.23l.35.26a3.39,3.39,0,0,1,.31.29,2.45,2.45,0,0,1,.5.83,3,3,0,0,1,0,1.74,7,7,0,0,1-1.53,2.65,12.32,12.32,0,0,1-4.42,3.2,7.8,7.8,0,0,1-2.44.61,9.75,9.75,0,0,1-1.18,0,8.54,8.54,0,0,1-1.14-.19,9.32,9.32,0,0,1-3.63-1.75,10.82,10.82,0,0,1-3.37-4.44,9,9,0,0,1-.46-1.4l-.12-.49.14.49a9,9,0,0,0,.51,1.38,10.66,10.66,0,0,0,3.47,4.25,9,9,0,0,0,3.55,1.57,8.36,8.36,0,0,0,1.06.14,9.56,9.56,0,0,0,1.13,0,7.28,7.28,0,0,0,2.25-.65,11.66,11.66,0,0,0,4.06-3.16,6.19,6.19,0,0,0,1.27-2.36,2.05,2.05,0,0,0,0-1.21,1.57,1.57,0,0,0-.29-.46,2.39,2.39,0,0,0-.26-.22l-.28-.19a2.37,2.37,0,0,0-2.5-.07,6.91,6.91,0,0,0-2.23,2,13,13,0,0,0-1.64,2.8,31.29,31.29,0,0,0-1.28,3.17,40.52,40.52,0,0,0-1.9,14.38,82.65,82.65,0,0,0,7.65,30.67,54.9,54.9,0,0,0,4,6.92c.76,1.1,1.53,2.13,2.35,3.15l1.29,1.52,1.33,1.42a38.92,38.92,0,0,0,12.37,8.53,29.77,29.77,0,0,0,13.48,2.51l.88,0,.72-.1,1.57-.21a30.92,30.92,0,0,0,3-.75,30.12,30.12,0,0,0,5.45-2.25,34.62,34.62,0,0,0,8.22-6.33,38.83,38.83,0,0,0,4.92-6.35c.53-1,1.09-1.84,1.42-2.58l.5-1,.22-.45.2-.47.76-1.83a3.17,3.17,0,1,1,5.86,2.42Z" style="fill:#3e4166"/><path d="M477.32,915.47a14,14,0,0,1-1.54,5.7,3.74,3.74,0,0,0-.54,1.43,3.3,3.3,0,0,0,.33,1.4c.93,2.34,1.29,6.67,2.8,7s6.93.81,8.09-1-4.54-2.65-5.49-4.59c-1.7-3.49-.54-7.63.64-11.32" style="fill:#3e4166"/><path d="M446,899.5a25,25,0,0,1-6,4.19c-2,1-3.85,1.58-4.34,3.77a25.63,25.63,0,0,0-.18,3.16,3.09,3.09,0,0,1-1.5,2.63c-1.37.62-2.88-.47-4-1.49-1.44-1.33-3-3.09-2.51-5s2.48-2.53,4.24-3c4.14-1.08,8.63-1.93,11.63-5" style="fill:#3e4166"/><path d="M476.92,830.16l-4.9,3.77c-2.07,1.59-4.2,3.26-5.35,5.6a5.43,5.43,0,0,0,3,7.89c4.94,2,6.38.32,8.75-3" style="fill:#3e4166"/><path d="M477.23,830.56l-1.14.92c-.73.58-1.75,1.43-3,2.41-.63.5-1.32,1-2,1.55q-.54.41-1.08.86a9.31,9.31,0,0,0-1.09.93,11.2,11.2,0,0,0-1.77,2.35c-.12.18-.24.45-.35.68s-.19.45-.27.69a4.46,4.46,0,0,0,.74,4.26,5.45,5.45,0,0,0,2.3,1.7,13.09,13.09,0,0,0,1.35.46,11.35,11.35,0,0,0,1.3.3,5.72,5.72,0,0,0,2.31-.05,3.66,3.66,0,0,0,1.67-1,12.08,12.08,0,0,0,1-1.24l.83-1.18.82.59s-.3.44-.86,1.21a12.88,12.88,0,0,1-1.14,1.34,5,5,0,0,1-2,1.3,6.3,6.3,0,0,1-2.82,0,12.44,12.44,0,0,1-1.44-.37,13.65,13.65,0,0,1-1.42-.53,6.41,6.41,0,0,1-2.6-2,5.63,5.63,0,0,1-1.11-3.27,6.63,6.63,0,0,1,.16-1.74c.06-.28.16-.58.24-.86s.18-.45.33-.76a8.9,8.9,0,0,1,2-2.5,7.19,7.19,0,0,0,.56-.52,3,3,0,0,1,.53-.52c.38-.31.76-.59,1.14-.87l1.09-.79c.34-.26.65-.55.94-.82.58-.55,1.18-1,1.68-1.38l1.31-1,1.16-.89Z" style="fill:#3e4166"/><path d="M514.61,838.06a20.4,20.4,0,0,0,4.32,4.81,13.92,13.92,0,0,1,3.17,2.67,7.09,7.09,0,0,1,1.12,3,8.36,8.36,0,0,1,0,2.87c-.66,3.6-4.81,5.88-8.41,5.2s-6.44-3.71-7.71-7.15" style="fill:#3e4166"/><path d="M515,837.78l.24.36c.15.22.39.54.71.94a22,22,0,0,0,3,3c.66.54,1.49,1.05,2.32,1.77a7.06,7.06,0,0,1,1.19,1.26,7.3,7.3,0,0,1,.76,1.64,10.27,10.27,0,0,1,.53,3.59,6.63,6.63,0,0,1-.38,1.84,6.29,6.29,0,0,1-.92,1.68,8.12,8.12,0,0,1-6.37,3.26,8.51,8.51,0,0,1-3.36-.68,8.1,8.1,0,0,1-2.54-1.7,16.59,16.59,0,0,1-1.71-1.91,12.92,12.92,0,0,1-1.08-1.65,11.53,11.53,0,0,1-.56-1.14l-.18-.42,1-.35.16.38a10.7,10.7,0,0,0,.52,1.06,12.63,12.63,0,0,0,2.58,3.25,7.52,7.52,0,0,0,5.23,2.24,7.46,7.46,0,0,0,3.16-.72,6.58,6.58,0,0,0,2.55-2.1,5.54,5.54,0,0,0,.68-1.44c.06-.25.16-.63.18-.82a6.28,6.28,0,0,0,.05-.81,12.32,12.32,0,0,0-.35-3.26,3.87,3.87,0,0,0-.7-1.35,5.87,5.87,0,0,0-1-1.11c-.37-.33-.77-.63-1.16-.93s-.81-.53-1.2-.81a12.54,12.54,0,0,1-1.87-1.71c-.51-.55-.94-1-1.27-1.47s-.58-.77-.75-1l-.24-.37Z" style="fill:#3e4166"/><path d="M503.17,808.27l6.4,12.76c2.22,4.43,4.47,9,5.08,13.88s-.74,10.37-4.62,13.44a11.49,11.49,0,0,0-2.92,2.58c-1.14,1.82-.52,4.24.53,6.11,3.5,6.29,17.54,10.85,17.42,12s-.21,2.13-5.51,1.85c-8.32-.43-16.31,6.21-17.93,14.39-1.18,6,.61,12.4-1.59,18.06a18.15,18.15,0,0,1-8.31,8.87,51.58,51.58,0,0,1-11.61,4.28,3,3,0,0,1-1.82.11c-1.24-.46-1.3-2.14-1.43-3.46-.56-5.51-6-9.2-11.23-11A41.73,41.73,0,0,0,446,900.29c-1.22.18-2.65.35-3.5-.54a3.43,3.43,0,0,1-.74-1.9c-1.57-10.18,4.62-20.38,13.14-26.16,2.68-1.82,5.64-3.34,7.74-5.81s3.12-6.26,1.3-8.94c-.84-1.23-2.07-3.5-2.8-4.81s-.49-2,1-2.22a3,3,0,0,1,1.4.25c2.59.93,5.09,2.27,7.84,2.46s5.88-1.25,6.44-3.95c.39-1.91-.59-3.78-1.24-5.62-2.24-6.33-.57-13.53,3-19.24s8.75-10.15,14-14.28a12.27,12.27,0,0,1,5-2.74c1.88-.36,4.13.38,4.86,2.15" style="fill:#53c1bd;stroke:#53c1bd;stroke-miterlimit:10;stroke-width:2px"/><path d="M498,806a8.82,8.82,0,0,1,4.65,1.06c.38.29.76.79.53,1.21a9.5,9.5,0,0,0-3.83.36,2.08,2.08,0,0,0-1.17-1.69c-.28-.13-.67-.32-.59-.63S497.86,806.09,498,806Z" style="fill:#3e4166"/><path d="M500.06,808.56l-.08.25c-.05.15-.1.38-.17.64a2.31,2.31,0,0,1-.16.41l-.09.23c0,.08-.15.14-.14.23s-.06.34-.1.51-.15.36-.11.53a1.13,1.13,0,0,0,.2.46.8.8,0,0,0,.32.23c.12.06.1,0,.15,0l.14,0a.48.48,0,0,1,.28,0c.22,0,.22-.18.21-.19s-.06,0,0,0a.51.51,0,0,1,1-.26,1.15,1.15,0,0,1,0,.51,1.2,1.2,0,0,1-.76.92,6.07,6.07,0,0,1-.7.06,1.41,1.41,0,0,1-.39,0,1.4,1.4,0,0,1-.39-.17,1.75,1.75,0,0,1-.55-.61,2.74,2.74,0,0,1-.26-.72,2.45,2.45,0,0,1-.16-.71,1.24,1.24,0,0,1,.25-.62s.06-.09,0-.14a.16.16,0,0,1,0-.15,1.55,1.55,0,0,1,.14-.25.59.59,0,0,0,.12-.5,1.22,1.22,0,0,1,.09-.43l.11-.32a2,2,0,0,1,.13-.26.51.51,0,0,1,.91.43Z" style="fill:#3e4166"/><path d="M499.52,809.12l0,.26a4.68,4.68,0,0,1-.17.71,1.62,1.62,0,0,1-.24.45l-.17.23c-.05.08-.21.1-.24.2l-.2.23a1.14,1.14,0,0,1-.25.22c-.18.13-.43.15-.6.26a2.27,2.27,0,0,1-1.27.35,1.71,1.71,0,0,1-.67-.22.8.8,0,0,1-.4-.47,2.82,2.82,0,0,1-.27-.92,2,2,0,0,1,0-.4.49.49,0,0,1,1,.16l0,.19a.39.39,0,0,0,0,.11c0,.07.08.15.13.29s0,.21.13.25a.71.71,0,0,0,.27.11,1,1,0,0,0,.71-.16c.12-.08.16-.25.27-.33a.32.32,0,0,1,.18-.1,1,1,0,0,0,.13-.05.24.24,0,0,0,.11,0s.08,0,.08-.08,0-.09,0-.11a2.16,2.16,0,0,1,.17-.16.36.36,0,0,0,.15-.39,1.24,1.24,0,0,1,.06-.36l.06-.28c0-.15.08-.24.08-.24a.51.51,0,0,1,1,.27Z" style="fill:#3e4166"/><path d="M435.84,911.55l-.17-.25c-.11-.17-.26-.34-.44-.59a3.12,3.12,0,0,1-.25-.43l-.13-.24c-.06-.07,0-.22-.11-.28s-.25-.31-.37-.48a2.41,2.41,0,0,0-.35-.54,4.78,4.78,0,0,0-1.06-.64c-.18-.08-.35-.16-.52-.23a1,1,0,0,1-.42-.27,1.54,1.54,0,0,0-.68-.32,1.7,1.7,0,0,0-.28-.06.51.51,0,1,1,.1-1l.09,0,.16,0,.3.09a2.94,2.94,0,0,1,.77.32,1.79,1.79,0,0,0,.45.34c.17.09.35.21.53.32a13.22,13.22,0,0,1,1.08.81c.17.15.43.22.57.4a1.61,1.61,0,0,1,.31.62s0,.11.08.14a.18.18,0,0,1,.12.11,1.55,1.55,0,0,1,.12.29.68.68,0,0,0,.34.44,1.38,1.38,0,0,1,.31.37l.2.3c.09.17.14.27.14.27a.51.51,0,0,1-.89.49Z" style="fill:#f4f5f8"/><path d="M484.33,926.54c-.06.23.42.11.34-.11s-.36-.26-.6-.27q-2.1,0-4.21,0" style="fill:none;stroke:#f4f5f8;stroke-linecap:round;stroke-miterlimit:10;stroke-width:1.26813181473842px"/><path d="M526.27,871.92c-1.33-.65-4-1-4-2s.71-1.08,1.35-1.08a4,4,0,0,1,1.79.61,34.06,34.06,0,0,0,3.33,1.51" style="fill:#3e4166"/><path d="M526.06,872.38s-.2-.09-.47-.16-.74-.19-1.29-.35a5.61,5.61,0,0,1-.89-.33l-.49-.24c-.17-.08-.3-.28-.49-.37a1.43,1.43,0,0,1-.5-.6.83.83,0,0,1-.06-.24,1.11,1.11,0,0,1,0-.15v-.07a1.29,1.29,0,0,1,.07-.35,1.14,1.14,0,0,1,.47-.62,1.85,1.85,0,0,1,.67-.24,3.09,3.09,0,0,1,1.26,0,5.73,5.73,0,0,1,1.11.37c.29.12.65.23.95.34a3,3,0,0,1,.82.41,6.47,6.47,0,0,0,1.25.57c.31.12.49.17.49.17l-.42.92-.49-.19a12.07,12.07,0,0,1-1.27-.53,3.89,3.89,0,0,0-.8-.45c-.31-.14-.6-.25-1-.43a5,5,0,0,0-.92-.38,1.72,1.72,0,0,0-.43-.06,1.65,1.65,0,0,0-.45,0c-.13,0-.22.1-.23.16s0,.08,0,.16,0,0,0,.16V870c0-.07,0,0,0,0h0s0,.15.08.24a.38.38,0,0,0,.17.13.4.4,0,0,1,.22.08l.41.25a1.51,1.51,0,0,0,.86.26,4.25,4.25,0,0,1,.77.17l.6.18a4.8,4.8,0,0,1,.51.22Z" style="fill:#3e4166"/><path d="M530.61,874.12a5,5,0,0,0-.8.47c-.31.31-.36.89-.78,1s-.88-.57-1.26-1-.38,0-1.22-.29-.74-2.59.24-3.29,3.39.39,3.79.79A1.57,1.57,0,0,1,530.61,874.12Z" style="fill:#3e4166"/><path d="M530.88,874.55l-.19.12c-.12.07-.3.15-.41.23a.39.39,0,0,0-.12.13l-.12.25a2.34,2.34,0,0,1-.3.54,1.19,1.19,0,0,1-.39.32l-.13.05-.13,0a1.25,1.25,0,0,1-.3,0,1.35,1.35,0,0,1-.89-.47,5.09,5.09,0,0,1-.39-.56l-.15-.22c-.05-.07-.11-.11,0-.08s.11,0,.1,0a.85.85,0,0,0-.16,0,3.85,3.85,0,0,1-.46,0l-.21-.05-.1,0,0,0-.08,0h0a1.15,1.15,0,0,1-.41-.34,1.56,1.56,0,0,1-.29-.86,4.24,4.24,0,0,1,.28-1.58,3.2,3.2,0,0,1,.34-.74,1.62,1.62,0,0,1,.65-.56,3,3,0,0,1,1.62-.12,7.17,7.17,0,0,1,1.37.35,2.55,2.55,0,0,1,.6.29,2.06,2.06,0,0,1,.28.2l.17.17.08.11a3.17,3.17,0,0,1,.48,1.15,2,2,0,0,1-.05,1,1.59,1.59,0,0,1-.55.78Zm-.57-.84a.6.6,0,0,0,.19-.3,1,1,0,0,0,0-.49,1.88,1.88,0,0,0-.26-.6,1.45,1.45,0,0,0-.76-.56,6.17,6.17,0,0,0-1.16-.36,2.32,2.32,0,0,0-1.06,0,1.09,1.09,0,0,0-.6.79,3,3,0,0,0,0,1.16c0,.17.06.32.07.4s0,0-.06,0,.07.07.1.1h0l-.07,0h0l0,0,.06,0,.12.05c.08,0,.14.06.21,0a.54.54,0,0,1,.17-.05.69.69,0,0,1,.39.07,1.08,1.08,0,0,1,.39.35,3.43,3.43,0,0,1,.19.3,2.74,2.74,0,0,0,.31.48c.11.13.24.14.26.1s0,0,.08-.1a2,2,0,0,0,.17-.32,2.21,2.21,0,0,1,.27-.47,1.44,1.44,0,0,1,.38-.33c.25-.14.38-.19.46-.24l.11-.07Z" style="fill:#3e4166"/><path d="M460.07,848.45c1.08,1,3.53,2.12,3.25,3s-1,.83-1.6.65a4,4,0,0,1-1.54-1.11,34.06,34.06,0,0,0-2.75-2.41" style="fill:#3e4166"/><path d="M460.4,848.07s.16.14.4.29.66.4,1.14.71a5.57,5.57,0,0,1,.75.58l.4.37c.14.13.2.35.36.5a1.43,1.43,0,0,1,.31.72.83.83,0,0,1,0,.25,1.08,1.08,0,0,1,0,.14l0,.06a1.27,1.27,0,0,1-.16.31,1.15,1.15,0,0,1-.63.46,1.83,1.83,0,0,1-.71,0,3.08,3.08,0,0,1-1.2-.37,5.72,5.72,0,0,1-1-.67c-.24-.2-.55-.41-.81-.6a3,3,0,0,1-.67-.63,6.47,6.47,0,0,0-1-.91c-.26-.21-.42-.31-.42-.31l.67-.76.41.32a11.84,11.84,0,0,1,1.06.88,3.89,3.89,0,0,0,.64.67c.25.22.5.41.79.69a5,5,0,0,0,.77.63,1.73,1.73,0,0,0,.39.19,1.68,1.68,0,0,0,.44.09.31.31,0,0,0,.27-.08s0-.07.08-.15,0,0,.08-.14l0-.06c0,.06,0,0,0,0s0,0,0,0,.06-.14,0-.25a.38.38,0,0,0-.13-.17.4.4,0,0,1-.18-.14l-.32-.35a1.51,1.51,0,0,0-.75-.5,4.29,4.29,0,0,1-.68-.39l-.52-.35a4.89,4.89,0,0,1-.42-.35Z" style="fill:#3e4166"/><path d="M459.75,850.23c-.29.12.09-.1-.17.08s-3,.13-3.29-.37-1.8-.82-2.56-1.28,1.83-1.77,2.94-2.25,3.24,1.1,3.54,1.56A1.57,1.57,0,0,1,459.75,850.23Z" style="fill:#3e4166"/><path d="M459.94,850.7l0,0a.67.67,0,0,1-.18.05h-.1a.53.53,0,0,1-.35-.16.52.52,0,0,1-.14-.42.53.53,0,0,1,.13-.28l0,0,.09-.08,0,0,0,0h0l.11,0a.48.48,0,0,1,.18,0c0-.13.63.36.42.7s-.11.16-.11.17l0,0,0,0-.15.11a1.09,1.09,0,0,1-.23.1,2.66,2.66,0,0,1-.4.08,7.39,7.39,0,0,1-.92.06,6.4,6.4,0,0,1-1.18-.09,3.77,3.77,0,0,1-.73-.2,1.26,1.26,0,0,1-.51-.37l-.11-.16s0,0,0,0c-.21-.2-.69-.37-1.12-.64-.24-.09-.48-.19-.74-.31a3.09,3.09,0,0,1-.42-.24l0,0-.11-.12a.6.6,0,0,1-.12-.28.7.7,0,0,1,.09-.45,1.93,1.93,0,0,1,.72-.66c.25-.15.49-.28.74-.4.51-.23,1-.48,1.47-.73l.39-.19A1.47,1.47,0,0,1,457,846a2.55,2.55,0,0,1,.89.08,6,6,0,0,1,1.45.59,3.63,3.63,0,0,1,1.15.88l.07.1,0,.07v0l.06.15a2.23,2.23,0,0,1,.11.36,3.8,3.8,0,0,1,.07.64,2,2,0,0,1-.21,1.05,1.6,1.6,0,0,1-.75.73Zm-.39-.94a.61.61,0,0,0,.26-.29,1.1,1.1,0,0,0,.09-.54,1.61,1.61,0,0,0-.06-.36.62.62,0,0,1,0-.16l-.07-.18a2.87,2.87,0,0,0-.88-.73,4.84,4.84,0,0,0-1.19-.56,1.24,1.24,0,0,0-1.13.12,9,9,0,0,0-1.35.77c-.21.14-.42.3-.6.44s-.37.33-.38.33a.5.5,0,0,0,0-.21.44.44,0,0,0-.09-.19.29.29,0,0,0-.09-.08l0,0s.13.12.21.17a4.38,4.38,0,0,0,.64.37,3.28,3.28,0,0,1,1.4.72,1.53,1.53,0,0,1,.18.2l.08.13s.06.06.13.08a1.56,1.56,0,0,0,.56.06c.38,0,.73.06,1,0a7.41,7.41,0,0,0,.78,0l.23,0h0s0,0,0,0l0,0,0,0s0-.05-.11.16.37.81.41.68a.47.47,0,0,0,.17,0l.12,0h0l.06,0,0,0a.49.49,0,0,0,.12-.27.51.51,0,0,0-.14-.41.52.52,0,0,0-.34-.15h-.15l0,0Z" style="fill:#3e4166"/><path d="M495.61,854.78c.61,11-1.42,25.82-1.58,28-.31,4-.66,8.16-2.48,11.75S486,901,482,900.74c-5.65-.42-9-6.51-14.06-9.05-1.37-.69-2.86-1.11-4.18-1.89-3.59-2.12-5.19-7.32-2.9-10.8,1.73-2.63,5-4.2,7.16-6.44,3.83-3.9,6.17-8.65,8.86-13.34a121,121,0,0,1,9.43-14,6.27,6.27,0,0,1,2.14-2C493.35,840.91,495.17,846.85,495.61,854.78Z" style="fill:#2cb3ae"/><path d="M496.41,854.75l.08,1.66c0,1.08.08,2.71.07,4.74s-.1,4.51-.26,7.33-.4,6-.78,9.47c-.17,1.72-.41,3.54-.57,5.35a57,57,0,0,1-.75,5.84,20.66,20.66,0,0,1-2.07,6,13.79,13.79,0,0,1-4.66,4.82,9.64,9.64,0,0,1-3.26,1.29,8.26,8.26,0,0,1-1.79.15H482l-.46-.06a6.51,6.51,0,0,1-.85-.15,10.48,10.48,0,0,1-3.31-1.41,18.73,18.73,0,0,1-2.78-2.12c-1.72-1.54-3.31-3.18-5.12-4.5a15,15,0,0,0-2.93-1.62,19.29,19.29,0,0,1-3.19-1.54,9,9,0,0,1-3.87-5.92,7.93,7.93,0,0,1,.19-3.63,7.11,7.11,0,0,1,.76-1.68,10.17,10.17,0,0,1,1.11-1.42,67.22,67.22,0,0,1,5.21-4.38,27.48,27.48,0,0,0,4.15-4.92c2.4-3.53,4.2-7.32,6.23-10.78a88,88,0,0,1,6.24-9.38c1.07-1.4,2-2.7,3.11-4a5,5,0,0,1,2.13-1.49l.52-.2.66-.14a2.05,2.05,0,0,1,.65-.05,4.45,4.45,0,0,1,.64,0,4.12,4.12,0,0,1,2.14,1.16,7.38,7.38,0,0,1,1.19,1.74,15.05,15.05,0,0,1,1.13,3.32,37.09,37.09,0,0,1,.73,4.74l.13,1.68Zm-1.6.08-.13-1.63a35.45,35.45,0,0,0-.69-4.53,13.51,13.51,0,0,0-1-3c-.11-.25-.27-.47-.41-.71a7.76,7.76,0,0,0-.5-.63,2.54,2.54,0,0,0-1.28-.71,2.88,2.88,0,0,0-.38,0,.9.9,0,0,0-.38,0l-.38.06-.52.2a3.31,3.31,0,0,0-1.49,1.08c-.94,1.12-1.95,2.52-3,3.87a93.1,93.1,0,0,0-6.22,9.21c-2,3.38-3.87,7.16-6.39,10.81a29,29,0,0,1-4.43,5.14c-1.75,1.51-3.68,2.7-5.14,4.25-.18.2-.36.39-.5.58a7.54,7.54,0,0,0-.46.64,5.81,5.81,0,0,0-.62,1.35,6.64,6.64,0,0,0-.17,3,7.48,7.48,0,0,0,3.3,5.08,18.74,18.74,0,0,0,3,1.34,16.38,16.38,0,0,1,3.24,1.69c2,1.38,3.66,3,5.36,4.45a28.74,28.74,0,0,0,2.57,2,9.13,9.13,0,0,0,2.72,1.25,5.37,5.37,0,0,0,.79.15l.35.06.37,0a6.71,6.71,0,0,0,1.47-.08,8.13,8.13,0,0,0,2.79-1,10.92,10.92,0,0,0,4-4.35,19,19,0,0,0,2-5.54c.74-3.81.87-7.65,1.21-11.08s.58-6.6.73-9.41.26-5.24.29-7.25,0-3.57,0-4.65l-.07-1.66Z" style="fill:#2cb3ae"/><path d="M482.07,931.93l-.77.08c-.49,0-1.19.1-2,.14a13.25,13.25,0,0,1-1.36-.06l-.74-.09a.84.84,0,0,1-.38-.13,1.08,1.08,0,0,0-.39-.06c-.52,0-1.07,0-1.62-.08a11.72,11.72,0,0,0-1.67-.29,28.08,28.08,0,0,0-3.29.32c-.52.08-1,.12-1.51.17a3.46,3.46,0,0,1-1.36-.08,3.37,3.37,0,0,0-1.15-.07l-.88.07a6.26,6.26,0,0,0-.77.09,1,1,0,0,1-.42-2l.13,0,.29,0,.77-.06.88-.07a5.38,5.38,0,0,1,1.15,0c.21,0,.43.1.66.14a4.41,4.41,0,0,0,.7,0h1.51c.52,0,1.07,0,1.62,0s1.11,0,1.67-.07,1.12-.25,1.67-.23a5.48,5.48,0,0,1,1.62.38c.13,0,.26.1.39,0a.51.51,0,0,1,.38,0,6.72,6.72,0,0,1,.74.16,1.88,1.88,0,0,0,1.36-.05,5.67,5.67,0,0,1,1.15-.14c.34,0,.64,0,.88,0h.77a1,1,0,0,1,.06,2Z" style="fill:#3e4166"/><path d="M597.84,758.92l3.38-1.17,1.69-.58c.56-.2,1.14-.36,1.7-.54l1-.33.46,1c.4.88.71,1.8,1,2.71l.47,1.37c.19.44.16,1,.35,1.42l.93,2.74a23.09,23.09,0,0,1,.73,2.8,26.6,26.6,0,0,0,.7,2.81q.44,1.38.85,2.76.89,2.75,1.62,5.56l.23.87-1,.2-2.89.59c-1,.18-2,.19-2.94.29-.49,0-1,.1-1.46.18l-1.45.27c-1,.18-1.93.36-2.89.58l-.31-2,2.9-.54c1-.17,1.93-.38,2.9-.51s2-.11,2.94-.26l2.91-.47-.83,1.19q-.61-2.78-1.35-5.53-.38-1.37-.78-2.74c-.28-.91-.63-1.79-1-2.67-.19-.44-.36-.88-.5-1.33a12.46,12.46,0,0,1-.41-1.36c-.12-.46-.21-.93-.3-1.4s-.2-.94-.32-1.4-.46-.84-.55-1.32-.28-.91-.41-1.37a11.3,11.3,0,0,0-1-2.66l.9.42a11.33,11.33,0,0,1-1.65.7l-1.69.57-1.69.57c-.56.19-1.14.35-1.71.52Z" style="fill:#5d6cc1"/><path d="M461.22,792l-3.54.51-1.77.26-1.77.19,1.05-1.54c.14.46.23.93.35,1.4l.35,1.4a9.73,9.73,0,0,1,.32,1.41,6,6,0,0,0,.36,1.4c.28.92.61,1.83.9,2.76s.49,1.89.75,2.83.65,1.83,1,2.74l1.06,2.74a49.82,49.82,0,0,1,1.8,5.65l-1.23-.77c.7-.24,1.4-.45,2.12-.62a17.75,17.75,0,0,0,2.14-.66c.36-.13.7-.31,1.07-.45l1.09-.44c.74-.27,1.49-.53,2.23-.79l.5,2a30.36,30.36,0,0,0-4.14,1.57c-.35.16-.71.31-1.08.43a10.5,10.5,0,0,1-1.14.33c-.38.1-.78.17-1.16.27s-.76.21-1.14.31l-1,.26-.22-1c-.2-.93-.42-1.85-.67-2.77s-.53-1.83-.83-2.74-.62-1.82-.95-2.72-.67-1.81-1.07-2.7l-.62-1.33c-.22-.44-.37-.9-.55-1.36a11.67,11.67,0,0,1-.4-1.42c-.1-.48-.19-1-.27-1.46a5.72,5.72,0,0,0-.4-1.42,5.85,5.85,0,0,1-.41-1.41l-.27-1.45a11.38,11.38,0,0,0-.38-1.42l-.28-.72.88-.15c.29-.05.58-.14.88-.22a7.74,7.74,0,0,1,.88-.19l1.77-.24c1.18-.16,2.36-.33,3.55-.43Z" style="fill:#5d6cc1"/><path d="M457.58,789.4l8.75,24.32,142.56-31s-4-15.62-8.33-25.44Z" style="fill:#202e78"/><path d="M458.64,790l8.52,23.44-1-.57L501.76,805l17.83-3.82,8.92-1.9c3-.62,5.94-1.29,8.92-1.88s6-1.18,8.93-1.84l8.91-1.92,17.83-3.84,35.69-7.52-.32.51c-1.08-4.32-2.37-8.6-3.72-12.84a128.23,128.23,0,0,0-4.65-12.5l.56.28-71.42,16.38L493.47,782Zm-2.12-1.16,36.6-8.34c6-1.34,11.91-2.71,17.88-4l17.9-3.9,71.48-16.11.66-.15.27.62A129.46,129.46,0,0,1,606,769.59c1.36,4.27,2.58,8.58,3.75,12.91l.23.86-.88.2-17.8,4-8.9,2c-3,.65-5.93,1.34-8.91,1.95l-17.86,3.7L546.67,797c-3,.58-5.94,1.28-8.91,2s-5.95,1.26-8.92,1.89l-8.93,1.87L511,804.58q-4.46.92-8.91,1.94c-5.93,1.32-11.84,2.75-17.79,4l-17.81,3.91-.65.14-.23-.63Z" style="fill:#202e78"/><path d="M463.28,786.79l1.08.9,1.24,1c.47.41,1,.84,1.59,1.37s1.17,1.09,1.78,1.73l.92,1a2.48,2.48,0,0,1,.42.57,3.2,3.2,0,0,0,.48.53c.67.68,1.4,1.35,2.08,2.1s1.26,1.62,2,2.31c1.49,1.4,3.05,2.73,4.53,4,.74.62,1.43,1.24,2.08,1.83.33.29.65.58.93.88l.77.93a12.68,12.68,0,0,0,1.42,1.54l1.18,1.1c.65.61,1.05.94,1.05.94l-1.45,1.42-1-1-1.18-1.1a18.84,18.84,0,0,1-1.48-1.47c-.25-.29-.48-.62-.74-.94s-.57-.62-.88-.92l-2-1.94c-.68-.68-1.4-1.35-2.13-2s-1.47-1.39-2.24-2.07-1.65-1.23-2.36-1.94a17.48,17.48,0,0,1-1.88-2.3,2.4,2.4,0,0,0-.49-.52,1.71,1.71,0,0,1-.54-.44c-.31-.34-.6-.69-.88-1a6,6,0,0,0-1.85-1.64,17.54,17.54,0,0,1-1.62-1.32l-1.22-1c-.67-.59-1-.95-1-.95Z" style="fill:#5d6cc1"/><path d="M482.82,782.18l.61.47c.38.31.94.74,1.58,1.28a13.21,13.21,0,0,1,.94,1l.48.57a.84.84,0,0,1,.19.36,1.09,1.09,0,0,0,.24.31c.36.39.78.72,1.12,1.17a11.73,11.73,0,0,0,1,1.35,28.18,28.18,0,0,0,2.62,2c.44.3.83.62,1.22.91a3.45,3.45,0,0,1,.94,1,3.36,3.36,0,0,0,.79.84l.69.55a6.24,6.24,0,0,0,.63.46l-1.39,1.48-.6-.48-.69-.55a5.41,5.41,0,0,1-.84-.77c-.14-.16-.25-.36-.38-.55a4.42,4.42,0,0,0-.49-.5l-1.1-1c-.38-.37-.79-.72-1.2-1.08s-.83-.74-1.27-1.09-1-.59-1.38-1a5.47,5.47,0,0,1-.92-1.38c-.08-.1-.12-.25-.25-.3a.51.51,0,0,1-.31-.23,6.7,6.7,0,0,1-.43-.62,1.88,1.88,0,0,0-1-.89,5.65,5.65,0,0,1-.93-.68c-.27-.21-.48-.42-.67-.57-.36-.33-.56-.53-.56-.53Z" style="fill:#5d6cc1"/><path d="M503,778.49l1,.86,1.2,1c.46.39,1,.8,1.54,1.31s1.14,1,1.73,1.65l.9,1a2.32,2.32,0,0,1,.41.55,3,3,0,0,0,.47.51c.66.65,1.37,1.29,2,2s1.22,1.56,2,2.22c1.45,1.34,3,2.6,4.42,3.78.72.59,1.39,1.18,2,1.75a12.31,12.31,0,0,1,.91.85l.74.89a12,12,0,0,0,1.38,1.48l1.15,1.06c.63.59,1,.9,1,.9l-1.45,1.42-1-.92-1.14-1.06a17.87,17.87,0,0,1-1.43-1.41c-.24-.28-.47-.6-.72-.91s-.55-.59-.86-.89l-1.9-1.86c-.66-.65-1.36-1.29-2.08-1.95s-1.44-1.32-2.18-2-1.61-1.16-2.3-1.84a16.14,16.14,0,0,1-1.83-2.21,2.26,2.26,0,0,0-.48-.5,1.6,1.6,0,0,1-.53-.42c-.31-.32-.58-.67-.85-1a5.66,5.66,0,0,0-1.8-1.57,16,16,0,0,1-1.58-1.26l-1.19-1c-.65-.57-1-.91-1-.91Z" style="fill:#5d6cc1"/><path d="M522.52,773.88l1,.86,1.2,1c.46.39,1,.8,1.54,1.31s1.14,1,1.73,1.65l.9,1a2.34,2.34,0,0,1,.41.55,3,3,0,0,0,.47.51c.66.65,1.37,1.29,2,2s1.22,1.56,2,2.22c1.45,1.34,3,2.6,4.42,3.78.72.59,1.39,1.18,2,1.75a12.22,12.22,0,0,1,.91.85l.74.89a11.94,11.94,0,0,0,1.38,1.48l1.15,1.06c.63.59,1,.9,1,.9L544,797.07l-1-.92-1.14-1.06a18,18,0,0,1-1.43-1.42c-.24-.28-.46-.6-.72-.91s-.55-.59-.86-.89L537,790c-.66-.65-1.36-1.29-2.08-1.95s-1.44-1.32-2.18-2-1.61-1.16-2.3-1.84a16.17,16.17,0,0,1-1.83-2.21,2.26,2.26,0,0,0-.48-.5,1.6,1.6,0,0,1-.53-.42c-.31-.32-.58-.67-.85-1a5.65,5.65,0,0,0-1.8-1.57,15.87,15.87,0,0,1-1.58-1.26l-1.19-1c-.65-.57-1-.91-1-.91Z" style="fill:#5d6cc1"/><path d="M554.19,780.29l.54.44c.33.29.82.69,1.38,1.2a10.76,10.76,0,0,1,.81.92l.4.54a.7.7,0,0,1,.15.34.9.9,0,0,0,.2.3,13.43,13.43,0,0,1,1,1.1,9.58,9.58,0,0,0,.85,1.27,22.87,22.87,0,0,0,2.3,1.88c.39.28.74.58,1.07.85a2.81,2.81,0,0,1,.8.92,2.75,2.75,0,0,0,.67.79l.6.52a5.12,5.12,0,0,0,.55.43L564,793.22l-.53-.45-.6-.52a4.38,4.38,0,0,1-.73-.73c-.11-.15-.2-.34-.31-.52a3.57,3.57,0,0,0-.42-.47l-1-1c-.32-.34-.68-.68-1-1s-.72-.69-1.1-1-.88-.55-1.22-.91a4.53,4.53,0,0,1-.75-1.31c-.07-.1-.09-.24-.21-.28a.41.41,0,0,1-.28-.21,5.57,5.57,0,0,1-.36-.59,1.54,1.54,0,0,0-.89-.83,4.6,4.6,0,0,1-.83-.63c-.24-.2-.42-.39-.59-.54-.31-.31-.48-.5-.48-.5Z" style="fill:#5d6cc1"/><path d="M542.53,769.12l.21.09c.12.07.31.14.51.27a1.06,1.06,0,0,1,.23.3c0,.06.06.14.08.21s0,.09,0,.17,0,.08,0,.12.22.19.27.36,0,.43.14.52a2.32,2.32,0,0,0,.88.37,2.43,2.43,0,0,1,.42.16.31.31,0,0,1,.16.11c0,.06,0,.14.06.2s.08.24.18.27a1.21,1.21,0,0,0,.22.12,1.35,1.35,0,0,0,.22.07l-1.38,1.49-.2-.09-.22-.12c-.08,0-.19-.09-.24-.21a1.55,1.55,0,0,1,0-.23.35.35,0,0,0-.12-.15l-.3-.28a5.84,5.84,0,0,0-.73-.54c-.14-.08-.39,0-.5-.14s-.06-.38-.06-.58c0,0,0-.11-.05-.1s-.11,0-.11,0a1,1,0,0,1,0-.25c0-.19-.08-.29-.31-.21s-.23-.08-.33-.11a1.32,1.32,0,0,1-.21-.13,1.25,1.25,0,0,1-.15-.15Z" style="fill:#5d6cc1"/><path d="M560.79,763.84l1.15,1,1.32,1.11c.51.44,1.1.9,1.7,1.46s1.25,1.16,1.91,1.84l1,1.05a2.82,2.82,0,0,1,.46.6,3.71,3.71,0,0,0,.52.56c.72.73,1.5,1.44,2.24,2.23s1.36,1.71,2.17,2.45c1.59,1.49,3.27,2.9,4.84,4.23.79.66,1.53,1.32,2.23,1.95a12.67,12.67,0,0,1,1.83,1.92,14.59,14.59,0,0,0,1.53,1.63L585,787c.7.66,1.12,1,1.12,1l-1.45,1.42-1.09-1-1.26-1.17a22,22,0,0,1-1.58-1.57c-.27-.31-.52-.66-.8-1s-.61-.65-.95-1l-2.1-2.06c-.73-.72-1.5-1.44-2.29-2.17s-1.58-1.48-2.4-2.2-1.75-1.32-2.52-2.07a19.79,19.79,0,0,1-2-2.43,2.72,2.72,0,0,0-.53-.55,1.94,1.94,0,0,1-.58-.47c-.34-.36-.64-.74-.95-1.1a6.87,6.87,0,0,0-2-1.76,19.82,19.82,0,0,1-1.73-1.41l-1.31-1.12c-.72-.63-1.11-1-1.11-1Z" style="fill:#5d6cc1"/><path d="M583,760.39l1.08.9,1.24,1c.47.41,1,.84,1.59,1.37s1.17,1.09,1.78,1.73l.92,1a2.49,2.49,0,0,1,.42.57,3.22,3.22,0,0,0,.48.53c.67.68,1.4,1.35,2.09,2.1s1.26,1.62,2,2.31c1.49,1.4,3.05,2.73,4.53,4,.74.62,1.43,1.24,2.08,1.83.33.29.65.58.93.88l.77.93a12.62,12.62,0,0,0,1.42,1.54l1.18,1.1c.65.61,1.05.94,1.05.94l-1.45,1.42-1-1-1.18-1.1a18.83,18.83,0,0,1-1.48-1.47c-.25-.29-.48-.62-.74-.94s-.57-.62-.88-.92l-2-1.94c-.68-.68-1.4-1.35-2.13-2s-1.47-1.39-2.23-2.07-1.65-1.23-2.36-1.94a17.37,17.37,0,0,1-1.88-2.3,2.41,2.41,0,0,0-.49-.52,1.72,1.72,0,0,1-.54-.44c-.31-.34-.6-.69-.88-1a6,6,0,0,0-1.85-1.64,17.45,17.45,0,0,1-1.62-1.32l-1.22-1c-.67-.59-1-.95-1-.95Z" style="fill:#5d6cc1"/><polygon points="1296.58 997.35 1308.88 1014.11 1318.1 1005.73 1307.34 989.9 1296.58 997.35" style="fill:#7084cb"/><polygon points="856.68 986.31 868.7 973.69 874.84 982.63 861.39 992.97 856.68 986.31" style="fill:#7084cb"/><path d="M1102.79,733.11h0a296.17,296.17,0,0,1-122.66,181L879.05,993,864.72,974.3l53.69-47.52A296.17,296.17,0,0,0,1018.27,705V677.13" style="fill:#3e4166"/><polygon points="1314.65 991.51 1296.58 1003.44 1018.27 677.12 1014.18 664.56 1114.87 664.56 1314.65 991.51" style="fill:#3e4166"/><path d="M895.15,1030.54H863.93l-4.56-8.11c1.83-7.13,6-12.76,11.34-15.2a12.24,12.24,0,0,1,1.68-.67,13.7,13.7,0,0,1,4.36-.72C886.9,1005.85,895.15,1016.89,895.15,1030.54Z" style="fill:#3e4166"/><path d="M871.78,1030.54H855.66l-26.34-42.6,4-2.66A23.69,23.69,0,0,1,870,1002.74l.45,4.49Z" style="fill:#3e4166"/><path d="M1406,1032.14a6.34,6.34,0,0,1-3.19.19l-.4-.13c-.07,0-.13-.14-.2-.2s-.13,0-.2-.06a6.63,6.63,0,0,0-.8-.05c-.53,0-1.06-.54-1.6-.54a16.65,16.65,0,0,0-3.19.74,1.86,1.86,0,0,1-.8.06c-.27-.1-.53-.21-.8-.29a4.44,4.44,0,0,0-1.6.28,1.57,1.57,0,1,1-1-3l.18-.05.87-.19c.53-.12,1.06-.18,1.6-.26a1.22,1.22,0,0,1,.8.23,2,2,0,0,0,.8.09,23.94,23.94,0,0,0,3.19-.17,4.22,4.22,0,0,0,.8-.3,1,1,0,0,1,.8,0c.27.14.53.41.8.55.07,0,.13.08.2.05s.13-.14.2-.13a1.34,1.34,0,0,1,.4.15,1.52,1.52,0,0,0,.8.29c.13,0,.27-.14.4-.24a.69.69,0,0,1,.4-.16,6,6,0,0,1,1.6-.13,1.6,1.6,0,0,1,.17,3.17Z" style="fill:#3e4166"/><path d="M1381.29,1032.14c-7.64.16-15.27.58-22.91.16l-2.86-.1c-.48,0-1-.13-1.43-.2s-1,0-1.43-.06l-5.73-.08c-3.82,0-7.64-.52-11.46-.52-7.64,0-15.27.49-22.91.72-1.91,0-3.82.16-5.73.08s-3.82-.23-5.73-.28-3.82.06-5.73.08-3.82.09-5.73.19a1.6,1.6,0,1,1-.17-3.2h.17l11.46-.26c1.91,0,3.82.1,5.73.23s3.82.07,5.73.08c7.64,0,15.27,0,22.91-.16,1.91,0,3.82-.2,5.73-.29a51.64,51.64,0,0,1,5.73,0c1.91.12,3.82.42,5.73.53a11.7,11.7,0,0,0,1.43.06c.48,0,1-.13,1.43-.13,1,0,1.91.08,2.86.15,1.91.16,3.82.29,5.73.28a28.15,28.15,0,0,0,2.86-.23c1-.1,1.91-.14,2.86-.15,3.82,0,7.64-.2,11.46-.14a1.6,1.6,0,0,1,0,3.2Z" style="fill:#3e4166"/><path d="M1034.28,1032.14a4.89,4.89,0,0,1-2.79.19l-.35-.13c-.06,0-.12-.14-.17-.2s-.12,0-.17-.06a5.1,5.1,0,0,0-.7-.05c-.47,0-.93-.54-1.4-.54a13.07,13.07,0,0,0-2.79.74c-.23,0-.47.15-.7.06a7.39,7.39,0,0,0-.7-.29,3.45,3.45,0,0,0-1.4.28,1.56,1.56,0,0,1-1.17-2.89l.19-.06,1-.25c.47-.12.93-.18,1.4-.26a1,1,0,0,1,.7.23c.23.14.47.07.7.09a18.37,18.37,0,0,0,2.79-.17,3.42,3.42,0,0,0,.7-.3.79.79,0,0,1,.7,0c.23.14.47.41.7.55.06,0,.12.08.17.05s.12-.14.17-.13a1.09,1.09,0,0,1,.35.15,1.23,1.23,0,0,0,.7.29c.12,0,.23-.14.35-.24a.57.57,0,0,1,.35-.16,4.65,4.65,0,0,1,1.4-.13,1.6,1.6,0,0,1,.19,3.16Z" style="fill:#3e4166"/><path d="M1012.68,1032.14c-15,.16-30,.58-45.07.16l-5.63-.1-2.82-.2c-.94-.05-1.88,0-2.82-.06l-11.27-.08c-7.51,0-15-.51-22.54-.52-15,.16-30,.42-45.07.69-3.76.06-7.51.17-11.27.09l-11.27-.26c-3.76-.07-7.51.06-11.27.08s-7.51.09-11.27.19a1.6,1.6,0,0,1-.09-3.2h.09c7.51-.08,15-.21,22.54-.24,1.88,0,3.76,0,5.63,0l5.63.17c3.76.13,7.51.08,11.27.08l45.07-.15c7.51-.14,15-.51,22.54-.27,3.76.12,7.51.42,11.27.53.94,0,1.88.09,2.82.06S961,1029,962,1029l5.63.17,5.63.19c1.88,0,3.76.09,5.63.07s3.76-.13,5.63-.23,3.76-.14,5.63-.15c7.51,0,15-.2,22.54-.14a1.6,1.6,0,0,1,0,3.2Z" style="fill:#3e4166"/><path d="M1373.17,1001.84l-34.69,28.7h-28.25l-6.69-12.35a12.41,12.41,0,0,1,3.66-14.85h0a12.41,12.41,0,0,1,15.79.38l4.27,3.58a6.51,6.51,0,0,0,8.51-.12l9.75-8.67a19.68,19.68,0,0,1,27.64,3.32Z" style="fill:#3e4166"/><polygon points="990.38 358.02 1021.31 369.49 1010.52 382.4 990.38 358.02" style="fill:#53c1bd;stroke:#53c1bd;stroke-miterlimit:10;stroke-width:2px"/><path d="M955.18,439.79c-33.9-4.1-64.82-56.68-27.19-87.91,38.48-31.94,96.65,32.15,101,55,2.78,14.76-8.6,21.9-19.86,25.2a7.26,7.26,0,0,0-3.59,11.44l24.2,31L982,472.58C984,463.06,976.31,442.34,955.18,439.79Z" style="fill:#7084cb"/><path d="M964.25,463h0c52.23-17.34,110,7.23,131.72,57.8a111.53,111.53,0,0,1,7.75,27.13l11.13,116.67c-35.78,12.56-63.4,19.88-124.5,19.88,10-127.43-21.47-164-47.16-204Z" style="fill:#f4f6f8"/><path d="M964.25,463h0c52.23-17.34,110,7.23,131.72,57.8a111.53,111.53,0,0,1,7.75,27.13l11.13,116.67c-35.78,12.56-63.4,19.88-124.5,19.88,10-127.43-21.47-164-47.16-204Z" style="fill:#f4f6f8"/><path d="M1093.27,765.14l19.35-47.89c4,1.33,8.62,12.59,14.58,33.8,4.7,16.7,7.29,25.85,18.56,41.09,6.57,8.89,13.19,34.5,9.94,45.07Z" style="fill:#0c1238;opacity:0.2"/><path d="M1167.87,504.57l-.71-31.09c4.45,0,11.06,6.1,13.2,12.77,2.55,8-13.07,28.85-13.07,28.85" style="fill:#7084cb"/><polygon points="1167.03 469.76 1009.61 470.05 1009.61 576.95 1167.03 576.65 1167.03 469.76" style="fill:#53c1bd;stroke:#53c1bd;stroke-miterlimit:10;stroke-width:2px"/><rect x="1070.79" y="343.23" width="149.47" height="110.52" transform="translate(62.5 -147.47) rotate(7.57)" style="fill:#202e78;stroke:#202e78;stroke-miterlimit:10;stroke-width:2px"/><rect x="1034.93" y="196.55" width="194.49" height="121.61" transform="translate(-20.88 121.27) rotate(-6.08)" style="fill:#53c1bd;stroke:#53c1bd;stroke-miterlimit:10;stroke-width:2px"/><path d="M1080.81,470.66c.1,8.7.37,17.4.1,26.1l-.06,3.26c-.07,1.09-.18,2.17-.16,3.26l0,6.52c0,4.35-.33,8.7-.33,13,.1,8.7.26,17.4.44,26.1,0,2.17.11,4.35.05,6.52l-.17,6.52c0,4.35.12,8.7.17,13h-2l-.15-13c0-1.09,0-2.17,0-3.26l.11-3.26c.08-2.17.05-4.35,0-6.52l-.09-26.1c-.09-4.35-.33-8.7-.17-13l.33-6.52c0-.54.07-1.09,0-1.63s-.08-1.09-.08-1.63l.11-3.26c.07-2.17.14-4.35.17-6.52s-.26-4.35-.24-6.52c0-4.35-.12-8.7-.09-13Z" style="fill:#e8eaf2"/><path d="M1099,477.59c.08,1.88.22,3.77.25,5.65a30.7,30.7,0,0,1-.39,5.65l-.07,2.83c-.06.94-.23,1.88-.33,2.83a22.27,22.27,0,0,0,0,2.83c0,.94.1,1.88.17,2.83l.06.77-.9.07-3,.24-1.51.08c-.5,0-1,.08-1.51.06h-.5l-.33-.31c-.41-.38-.76-.81-1.14-1.23a14,14,0,0,0-1.17-1.19l1.24.07c-1,.81-2,1.56-3,2.41l-1.4-2,3-2.38.82-.64.9.74a13.87,13.87,0,0,1,1.23,1.12c.39.4.71.87,1.1,1.26l-.79-.31c.5,0,1,0,1.51,0h1.51c1,0,2,0,3,0l-1.16,1.16-.06-2.83c0-.94,0-1.88-.12-2.83a18.15,18.15,0,0,1-.2-2.83,26,26,0,0,1,.44-2.83c-.27-1.88.64-3.77.13-5.65a6.92,6.92,0,0,1-.13-1.41l0-1.41c0-.94-.07-1.88,0-2.83Z" style="fill:#2cb3ae"/><path d="M1077.47,501.39l-2,.08-.46,0-.42-.37-2-1.72c-.65-.57-1.33-1.13-1.95-1.74l2.15-.19c-.45.59-.87,1.21-1.36,1.77L1070,501l-.46.56-.59,0c-.45,0-.9,0-1.34-.07a6.1,6.1,0,0,1-.67-.14,4.3,4.3,0,0,0-.67,0l-2.69-.05-1,0v-1c0-2.42.54-4.84.37-7.26s-.2-4.84-.36-7.26c-.09-1.21-.13-2.42-.19-3.63,0-.6-.07-1.21-.05-1.81s.08-1.21.13-1.81a23.24,23.24,0,0,0,.07-3.63c0-1.21-.07-2.42-.17-3.63h2.4l.13,3.63a34.24,34.24,0,0,1,0,3.63l-.17,1.81c0,.6,0,1.21,0,1.81v3.63c0,2.42.06,4.84.09,7.26s.51,4.84.21,7.26l-1.46-1.46c.9.11,1.79.3,2.69.38a3.3,3.3,0,0,0,.67,0,4.47,4.47,0,0,1,.67-.09c.45,0,.9.06,1.34.1l-.83.41c.51-.55,1-1.08,1.51-1.67a7.53,7.53,0,0,0,.67-.9c.2-.31.37-.66.54-1l.44-.82,1,.7a22.83,22.83,0,0,1,2,1.69l2,1.74-.82-.33c.67,0,1.34,0,2,0Z" style="fill:#2cb3ae"/><line x1="1185.03" y1="301.74" x2="1218.39" y2="295.99" style="fill:#215b48"/><path d="M1184.86,300.74a70.13,70.13,0,0,1,8.32-1.55l1.06-.1a4.45,4.45,0,0,1,.54,0,3.21,3.21,0,0,0,.53-.06l2.09-.31c1.39-.26,2.84-.16,4.23-.4,2.78-.49,5.51-1.27,8.26-1.88a19.13,19.13,0,0,1,2.08-.41c.7-.07,1.41-.1,2.12-.19s1.38-.28,2.08-.41,1.38-.29,2.06-.48a1,1,0,1,1,.52,2h0l-.13,0-4.14.88a12.61,12.61,0,0,1-2.11.21c-.71,0-1.4.2-2.09.31-2.78.46-5.56,1-8.32,1.54a25,25,0,0,1-4.14.89c-.71,0-1.44,0-2.14,0a2.54,2.54,0,0,0-.53.05,3.14,3.14,0,0,1-.51.17c-.35,0-.7.07-1.06.09a13.93,13.93,0,0,0-2.12.18c-.69.15-1.34.51-2,.6-1.38.27-2.76.6-4.16.81a1,1,0,0,1-.36-2Z" style="fill:#215b48"/><line x1="1194.32" y1="296.37" x2="1192.64" y2="286.61" style="fill:#215b48"/><path d="M1193.32,296.54a5.85,5.85,0,0,1-.54-2.42l0-.32a.74.74,0,0,1,.1-.17.33.33,0,0,0,0-.16c0-.21-.06-.41-.07-.62-.07-.41.18-.87.13-1.28a17.33,17.33,0,0,0-.87-2.36,1.67,1.67,0,0,1-.15-.6c0-.21.06-.43.07-.64a4.13,4.13,0,0,0-.38-1.19,1,1,0,1,1,1.8-.87l0,.09.16.44c.14.39.25.79.37,1.19a1.18,1.18,0,0,1,0,.64,1.85,1.85,0,0,0,.05.62,21.79,21.79,0,0,0,.52,2.42c.14.4.5.75.39,1.19,0,.22-.19.45-.24.67,0,.05,0,.11,0,.16s.1.09.11.14a1.87,1.87,0,0,1,0,.32,1.35,1.35,0,0,0-.07.64c.07.2.34.36.35.57a5.76,5.76,0,0,1,.29,1.21,1,1,0,0,1-2,.43Z" style="fill:#215b48"/><polygon points="1188.69 288.77 1192.11 282.73 1197.35 287.27 1188.69 288.77" style="fill:#215b48"/><path d="M1187.86,289.35l.62-1.7c.22-.59.43-1.21.69-1.84a15.67,15.67,0,0,1,1-1.87,7.7,7.7,0,0,1,1.21-1.65l.29-.27a.77.77,0,0,1,1.08,0c.4.42.86.77,1.28,1.17a12.75,12.75,0,0,1,1.15,1.32,6.31,6.31,0,0,0,1.27,1.18c.46.36.91.72,1.39,1a.63.63,0,0,1-.19,1.13l-.13,0c-.76.2-1.54.41-2.36.61a23.61,23.61,0,0,1-2.49.44,15.2,15.2,0,0,0-2.31.06Zm1.66-1.17c.71-.21,1.41-.44,2.07-.67a5.53,5.53,0,0,1,1.81-.42c.61-.12,1.24-.3,1.87-.42l1.91-.38-.48,1.74-1.34-1.1a10.69,10.69,0,0,0-1.41-1,6.14,6.14,0,0,1-1.37-1.06c-.38-.44-.67-1-1.05-1.44l1.35-.23a3.14,3.14,0,0,1-.88,1.27,6.09,6.09,0,0,0-.5.63,2.31,2.31,0,0,0-.25.64,8.55,8.55,0,0,1-.77,1.2Z" style="fill:#215b48"/><line x1="1208.97" y1="293.85" x2="1207.29" y2="284.08" style="fill:#215b48"/><path d="M1208,294a5.85,5.85,0,0,1-.54-2.42l0-.32a.75.75,0,0,1,.1-.17.33.33,0,0,0,0-.16,6.18,6.18,0,0,0-.07-.62c-.07-.41.18-.87.13-1.28a17.35,17.35,0,0,0-.87-2.36,1.68,1.68,0,0,1-.15-.6c0-.21.06-.43.07-.64a4.13,4.13,0,0,0-.38-1.19,1,1,0,0,1,1.8-.87l0,.09.16.44c.14.39.25.79.37,1.19a1.18,1.18,0,0,1,0,.64,1.86,1.86,0,0,0,.05.62,21.91,21.91,0,0,0,.52,2.42c.14.4.5.75.39,1.19,0,.22-.19.45-.24.67,0,.05,0,.11,0,.16s.1.09.11.14a1.82,1.82,0,0,1,0,.32,1.35,1.35,0,0,0-.07.64c.07.2.34.36.35.57a5.73,5.73,0,0,1,.29,1.21,1,1,0,0,1-2,.43Z" style="fill:#215b48"/><polygon points="1203.34 286.24 1206.76 280.21 1212 284.75 1203.34 286.24" style="fill:#215b48"/><path d="M1202.51,286.83l.62-1.7c.22-.59.43-1.21.69-1.84a15.82,15.82,0,0,1,1-1.87,7.7,7.7,0,0,1,1.21-1.65l.29-.27a.77.77,0,0,1,1.08,0c.4.42.86.77,1.28,1.17a12.71,12.71,0,0,1,1.15,1.32,6.29,6.29,0,0,0,1.27,1.18c.46.36.91.72,1.39,1a.63.63,0,0,1-.19,1.13l-.13,0c-.76.2-1.54.41-2.36.61a23.77,23.77,0,0,1-2.49.44,15.13,15.13,0,0,0-2.31.06Zm1.66-1.17c.71-.21,1.41-.44,2.07-.67a5.53,5.53,0,0,1,1.81-.42c.61-.11,1.24-.3,1.87-.42l1.91-.38-.48,1.73-1.34-1.1a10.7,10.7,0,0,0-1.41-1,6.13,6.13,0,0,1-1.37-1.06c-.39-.44-.67-1-1.05-1.44l1.35-.23a3.14,3.14,0,0,1-.88,1.27,6,6,0,0,0-.5.63,2.32,2.32,0,0,0-.25.64,8.5,8.5,0,0,1-.77,1.2Z" style="fill:#215b48"/><path d="M1169.06,354.63c-.22,1.87-.38,3.75-.64,5.62-.12.93-.31,1.86-.51,2.78l-.28,1.39a2.72,2.72,0,0,1-.24.68,4.13,4.13,0,0,0-.15.69l-.48,2.78c-.19.92-.47,1.83-.7,2.75a26.29,26.29,0,0,0-.41,2.79c-.12.93-.2,1.87-.28,2.81l-.06.67-.75-.07-3-.28-1.51-.14c-.5-.06-1-.07-1.5-.16l-.41-.07-.24-.3c-.35-.43-.64-.91-1-1.37a16.28,16.28,0,0,0-1-1.34l1,.22c-1.11.64-2.25,1.22-3.34,1.9l-.92-1.81,3.36-1.87.78-.43.65.73a15.59,15.59,0,0,1,1,1.29l.46.7c.16.23.29.48.47.69l-.62-.36c.49.11,1,.15,1.49.23l1.5.21,3,.43-1.17.86.4-2.8c.14-.93.28-1.86.34-2.81a21.41,21.41,0,0,1,.26-2.82c.16-.93.55-1.82.8-2.74.06-1.9,1.1-3.64,1-5.57a8.15,8.15,0,0,1,.1-1.41l.17-1.4c.11-.94.23-1.87.39-2.8Z" style="fill:#5d6cc1"/><path d="M1144.38,374.76l-2-.24-.39,0-.3-.35-1.68-2c-.55-.67-1.13-1.32-1.66-2l1.82.12c-.54.52-1.05,1.06-1.61,1.56l-1.66,1.51-.45.41-.51-.1-1.32-.25c-.44-.06-.86-.3-1.3-.37l-2.65-.45-.82-.14.1-.84c.31-2.49,1.2-4.9,1.46-7.4s.58-5,.85-7.5l.4-3.75c.08-.62.11-1.25.22-1.87s.25-1.23.39-1.85a29.18,29.18,0,0,0,.63-3.72c.15-1.25.32-2.49.42-3.75l2,.3-.46,3.74c-.16,1.25-.28,2.5-.55,3.73-.14.61-.3,1.23-.42,1.84s-.19,1.24-.29,1.86l-.54,3.73-1.08,7.46c-.4,2.48-.29,5-1,7.47l-1-1.36c.87.24,1.73.51,2.61.71.43.12.9,0,1.34.14s.88.18,1.31.3l-.72.23c.58-.47,1.17-.94,1.71-1.45a10.15,10.15,0,0,0,1.48-1.68l.51-.68.75.77c.61.62,1.13,1.33,1.69,2l1.66,2-.65-.38c.67.08,1.33.2,2,.3Z" style="fill:#5d6cc1"/><path d="M1151.1,454c.61-4,1.1-8,1.84-12l.6-3a24.32,24.32,0,0,1,.69-3c.44-2,.75-4,1.13-6s.94-3.94,1.32-5.93.63-4,.93-6l1.63-12,.85,1.19c-2-.28-3.94-.85-5.92-1.2l.59-.12c-.48.28-.93.61-1.39.92l-1.38.93-.58.39-.53-.52c-.92-.89-1.85-1.78-2.79-2.64l1.44-1.43,2.77,2.67-1.37-.15c.92-.62,1.84-1.25,2.77-1.85l.38-.25.44.08c1,.18,2,.3,3,.55l1.48.33c.49.1,1,.22,1.48.3l1,.16-.16,1-2,12c-.32,2-.69,4-1,6s-.43,4-.82,6-1.1,3.91-1.43,5.91a6.29,6.29,0,0,1-.22,1.5l-.34,1.48c-.23,1-.48,2-.66,3a26.74,26.74,0,0,0-.32,3c-.1,1-.29,2-.43,3-.31,2-.6,4-1,6Z" style="fill:#5d6cc1"/><path d="M1140,404l-2-.29.76-.16-4.28,3-1,.73-.65-1.17c-.72-1.3-1.42-2.62-2.1-4l.88.65c-1.77-.28-3.52-.67-5.28-1l1.28-.91c-1.14,4.09-1.55,8.32-2.62,12.42s-1.48,8.33-2.15,12.5l-.91,6.28-.45,3.14-.23,1.57-.3,1.56c-1,4.12-1.6,8.31-2.18,12.5l-2-.35,1-6.27c.31-2.09.69-4.17,1.19-6.23l.33-1.55.27-1.56.53-3.13,1.07-6.25c.7-4.17,1.47-8.33,2-12.54s2.06-8.23,2.58-12.43l.11-.89.87.19,2.62.59a22.83,22.83,0,0,0,2.65.43l.3,0,.23.36c.4.63.82,1.26,1.18,1.91l1.06,2-1.37-.35c1.44-1,2.86-2,4.3-3l.33-.23.4.07,2,.34Z" style="fill:#5d6cc1"/><path d="M1123.2,197.38c.74,5.66,1.64,11.3,2,17l.18,2.13c0,.36,0,.72,0,1.08s0,.71.08,1.07l.43,4.26c.32,2.83.32,5.71.63,8.54.74,5.66,1.54,11.31,2.36,17,.2,1.41.43,2.82.53,4.25l.31,4.27c.12,1.42.36,2.83.53,4.25s.38,2.83.6,4.24l-2,.23c-.37-2.83-.77-5.66-1.11-8.49-.07-.71-.18-1.42-.22-2.13l-.13-2.14c-.08-1.43-.27-2.84-.43-4.26l-2-17c-.41-2.83-1-5.63-1.13-8.49-.08-1.43-.05-2.87-.15-4.29a10.24,10.24,0,0,0-.08-1.07c-.07-.35-.16-.7-.2-1.05l-.13-2.14c-.09-1.43-.14-2.86-.32-4.27s-.59-2.8-.72-4.23c-.35-2.83-.76-5.66-1-8.5Z" style="fill:#f4f5f8"/><path d="M1131.88,282.08a72.12,72.12,0,0,1,1.44,8.78l.11,1.11a4.89,4.89,0,0,1,0,.57,3.55,3.55,0,0,0,0,.55l.29,2.21c.24,1.46.12,3,.35,4.45.48,2.93,1.18,5.82,1.77,8.73a18.68,18.68,0,0,1,.4,2.19c.06.74.08,1.49.16,2.22s.26,1.46.38,2.19.28,1.46.45,2.18l-2,.31-.83-4.37a15.36,15.36,0,0,1-.19-2.22,20.61,20.61,0,0,0-.29-2.2l-1.42-8.78a27.56,27.56,0,0,1-.84-4.37c0-.74,0-1.51,0-2.25a2.77,2.77,0,0,0,0-.56,3.52,3.52,0,0,1-.16-.54c0-.37-.06-.74-.07-1.11a15.34,15.34,0,0,0-.16-2.23c-.14-.73-.49-1.42-.57-2.16-.25-1.46-.57-2.91-.75-4.38Z" style="fill:#f4f5f8"/><path d="M1168.16,494.36c-8.85,47.5-82.39,107.23-135.93,73-13.71-8.77-25.41-23-27.8-38.7-2.45-16.18,2.15-36-9.75-49.38-8-9-24.77-10.94-34.83-4.33-11.14,7.33-14.76,22.16-14.28,35.49,1.41,39.95,39.08,86.3,77.56,97.14,58.9,16.59,128.25-26.84,147.14-106.38" style="fill:#7084cb"/><path d="M1002.58,498.67l2.66,15.43-57.18,13.51-6.67-23.83a33.07,33.07,0,0,1,24.32-40C984.37,459.26,1004.15,479.5,1002.58,498.67Z" style="fill:#f4f6f8"/><path d="M911.29,370.89c-5.26,13.7-8.74,30.22-.64,42.48,2.91,4.4,7.06,7.77,11.14,11.06,8.11,6.55,11.73,7.27,19.84,13.81,6.23,5,12.9,10.25,20.75,11.24s21.46,1.64,21.81-6.45c.25-5.7-3.73-10.68-8-14.39s-9.14-6.95-11.94-11.9-2.47-12.41,2.41-15.12a10.82,10.82,0,0,1,6.94-.86,20.46,20.46,0,0,1,8.07,3.15c10.17,6.74,13.5,21.66,24.38,27.11,8.66,4.34,19.83.58,25.62-7.25s6.66-18.72,3.93-28.18c-2.43-8.44-10.48-17.11-18.4-13.82-6.09,2.53-7.9,10.44-12.64,15.1-5.58,5.49-14.7,5.61-21.83,2.42s-12.75-9.07-18.18-14.8c-3.35-3.55-6.94-7.67-6.79-12.59.23-7.66,8.88-11.68,12.75-18.21,6.23-10.52-1.77-24.5-12-31-5.77-3.68-15-5.09-17.84,1.21-2.06,4.64,1.21,10.23-.1,15.16-1.59,6-8.69,8-14.15,10.77-10.2,5.19-17,16.7-16.74,28.4" style="fill:#0c1238;stroke:#0c1238;stroke-miterlimit:10"/><path d="M934.36,332.13c-3.54-2.75-11.09,1.34-10.05,6.34a4.51,4.51,0,0,0,3.18,3.48c2.58.53,6.31-3.44,7.24-5.76C935.57,334.08,935.25,332.83,934.36,332.13Z" style="fill:#0c1238;stroke:#0c1238;stroke-miterlimit:10"/></svg>