<svg id="Artwork" xmlns="http://www.w3.org/2000/svg" xmlns:xlink="http://www.w3.org/1999/xlink" viewBox="0 0 1920 1080"><defs><linearGradient id="linear-gradient" x1="19546.9" y1="917.75" x2="19265.85" y2="836.45" gradientTransform="matrix(-1, 0, 0, 1, 20590.1, 0)" gradientUnits="userSpaceOnUse"><stop offset="0" stop-color="#fff"/><stop offset="0.73" stop-color="#fff" stop-opacity="0"/></linearGradient></defs><title>emptystate-devstore</title><path d="M1637.45,879.63a117.57,117.57,0,0,0,25.4-97.09c-3.14-16.14-9.68-31.43-13.63-47.39a151.9,151.9,0,0,1-1.38-66.48c2.89-14.22,7.86-28.25,7.45-42.75-.36-12.71-4.83-24.9-9.39-36.76q-12.21-31.75-25.81-62.94c-3.25-7.46-6.61-15.07-7.33-23.18-.91-10.32,2.53-20.66,1.54-31-1.73-17.94-16.09-31.68-24.41-47.67a75.63,75.63,0,0,1-1.77-65.09s-24,24,1.79,104.63,57.75,146.62,46.52,233.45C1624,793.76,1598.23,866,1598.23,866" style="fill:#fff"/><path d="M1460.32,356.77c47.2,28.14,97.51,59.66,137.12,98" style="fill:none;stroke:#e8eaf2;stroke-miterlimit:10;stroke-width:3px"/><path d="M1506.27,359.88c-2.36,12.33,10.25,22.17,21.36,29l57.16,35" style="fill:none;stroke:#e8eaf2;stroke-miterlimit:10;stroke-width:3px"/><path d="M1582.81,441.22c7.63,29.74,20.43,59.4,30.18,88.53,35.7,106.64,30.29,225.13-15,328.46-2.91,6.64-6,13.22-9.15,19.75" style="fill:none;stroke:#e8eaf2;stroke-miterlimit:10;stroke-width:3px"/><path d="M1580.83,360.76c1.62,15.12-6.57,41.36-5,57.49" style="fill:none;stroke:#e8eaf2;stroke-miterlimit:10;stroke-width:3px"/><path d="M1677.84,602.29q1.26,4.85,2.42,9.72c21.93,91.65,19.52,176.28-9.75,266.07" style="fill:none;stroke:#e8eaf2;stroke-miterlimit:10;stroke-width:3px"/><path d="M1710.73,356.61c-23.8,14.4-54.74,17.69-77.34,31.19-23,13.72-11.36,33.39-4.91,57.36,7.55,28.1,17.11,55.66,26.48,83.27" style="fill:none;stroke:#e8eaf2;stroke-miterlimit:10;stroke-width:3px"/><path d="M1618.28,371.47a108.36,108.36,0,0,0,48.79-13.91" style="fill:none;stroke:#e8eaf2;stroke-miterlimit:10;stroke-width:3px"/><path d="M1638,515.9c19.46,21.4,51,35.55,80.75,37.68,1.68.12,3.52.17,4.9-.74a6.77,6.77,0,0,0,2.34-3.65c3-8.5-3.63-27.49-5.67-36.23" style="fill:none;stroke:#e8eaf2;stroke-miterlimit:10;stroke-width:3px"/><path d="M1755.76,516.62a69.51,69.51,0,0,0-16.66,43.07,263.29,263.29,0,0,0-50.18,30.22c-7.58,5.81-14.94,12.17-19.84,20.16a43.33,43.33,0,0,0-6.27,26" style="fill:none;stroke:#e8eaf2;stroke-miterlimit:10;stroke-width:3px"/><path d="M1622.8,358.17a19.78,19.78,0,0,0,.1,22.88" style="fill:none;stroke:#e8eaf2;stroke-miterlimit:10;stroke-width:3px"/><path d="M1481.34,355.76c5.44,6.29,11.2,12.8,18.93,15.86l-6.25-18" style="fill:none;stroke:#e8eaf2;stroke-miterlimit:10;stroke-width:3px"/><path d="M1555.07,159.63a1153.27,1153.27,0,0,0-293.93,52.08c-22.38,7.06-49.67,24.7-41,45.93,7,17.14,31.16,18.15,50.12,16.94s43.57,2.11,47.92,20.06c1.78,7.35-.76,15.11.46,22.56,3.14,19.16,27.28,26.29,47.07,29A1624.71,1624.71,0,0,0,1637.17,361c50.41-1.48,104.19-6.56,143.54-37.17s53.71-95.56,15.86-127.91c-18.73-16-44.87-20.38-69.62-23.52a1556.19,1556.19,0,0,0-210.38-12.27" style="fill:#e8eaf2;stroke:#e8eaf2;stroke-miterlimit:10;stroke-width:3px;opacity:0.5"/><path d="M1730.46,509.6l5.26,15.82a69.38,69.38,0,0,1,11.95-15.88" style="fill:none;stroke:#e8eaf2;stroke-miterlimit:10;stroke-width:3px"/><path d="M1723,476.4a209.14,209.14,0,0,0-49,11.37c-7.11,2.59-14.92,6.5-16.6,13.53-2.14,8.93,7.53,17,17.11,18.23s19.09-2,28.63-3.53c34.37-5.39,69.91,11.9,103.77,4.19,7.93-1.81,15.76-5.14,21.06-11s7.53-14.61,3.93-21.54c-4.88-9.39-17.54-12-28.53-13.07a491.65,491.65,0,0,0-72.86-1.88c-7,.34-14.89,1.2-19.43,6.32" style="fill:#e8eaf2;stroke:#e8eaf2;stroke-miterlimit:10;stroke-width:3px;opacity:0.5"/><path d="M1308.78,282.86c12.61,10.65,3.52,33.62,14.28,46.15,4.28,5,10.88,7.21,17.17,9.08A478.29,478.29,0,0,0,1423.14,355c24.83,2.8,49.84,3.65,74.81,4.5,66.37,2.26,133,4.5,199-3.09,23.85-2.74,48-6.9,69.42-17.64s38.46-28.25,44.92-51.36" style="fill:none;stroke:#e8eaf2;stroke-miterlimit:10;stroke-width:3px"/><path d="M1658.41,504c1.11,13.25,17.62,19.72,30.76,17.71s25.09-9.23,38.28-10.87c14.14-1.77,28.18,3,41.66,7.63s23.8,6.68,37.89,4.55,27.91-13.26,28-27.51" style="fill:none;stroke:#e8eaf2;stroke-miterlimit:10;stroke-width:3px"/><path d="M127.67,877.07c18.16.06,36.33,0,54.49.2l13.62.05,6.81,0,6.81-.07c9.08-.08,18.16-.24,27.24-.07l13.62.15q6.81.11,13.62.11c9.08,0,18.16-.11,27.25-.15l54.49-.4c9.08,0,18.16-.18,27.24-.15s18.16.16,27.24.2c18.16.28,36.33-.09,54.49-.17,36.33-.06,72.65.59,109,.47H577.2c4.54,0,9.08-.08,13.62-.12,9.08-.1,18.16-.18,27.24-.19s18.16.39,27.25.41c4.54,0,9.08,0,13.62-.15s9.08-.12,13.62-.11l109,.23h27.24c9.08,0,18.16.16,27.25.29l13.62.16c4.54,0,9.08.13,13.62.08,9.08,0,18.16-.34,27.24-.31L945,878c9.08.13,18.16,0,27.24,0l27.25-.11q13.62-.1,27.24,0l27.25,0c18.16,0,36.33,0,54.49.13l27.25,0,27.24-.23,27.25-.27,27.24-.18,54.49-.24,13.62,0,13.62.1,27.25.24,13.62,0,13.62-.09,27.24-.19,27.25-.21,13.62-.11c4.54,0,9.08,0,13.62.06l13.62.11,6.81.06,6.81,0,27.25-.14c9.08,0,18.16-.14,27.24,0l27.25.39c4.54.1,9.08,0,13.62,0l13.62,0,13.62-.05,13.62.15,13.62.12c4.54,0,9.08,0,13.62-.12s9.08-.2,13.62-.21,9.08,0,13.62,0l27.25.26,27.24.11c18.16-.09,36.33-.38,54.49-.12l13.62.09c4.54,0,9.08.07,13.62,0l27.24-.28c9.08-.14,18.16-.12,27.25-.15l27.24-.08v3.2l-27.24,0c-9.08,0-18.16,0-27.25-.09L1789.6,880c-4.54-.06-9.08,0-13.62.06l-13.62.15c-18.16.35-36.33,0-54.49,0s-36.33.31-54.49.53c-9.08.08-18.16,0-27.24-.3s-18.16-.24-27.25,0c-4.54.1-9.08.13-13.62.15s-9.08,0-13.62-.12l-13.62-.21c-4.54,0-9.08-.08-13.62,0-9.08,0-18.16.28-27.25.35s-18.16,0-27.24-.08l-27.25-.21-6.81,0-6.81,0-13.62.09c-4.54,0-9.08.09-13.62.07l-13.62-.09-27.25-.17-27.24-.12-13.62-.05-13.62.1-27.25.44-13.62.11h-13.62c-18.16,0-36.33,0-54.49-.11l-27.24-.15L1163,880l-13.62-.21-13.62-.11-27.25.14q-54.49.61-109,.48l-27.25-.34c-9.08-.06-18.16-.12-27.24,0-18.16.18-36.33.82-54.49.74-9.08,0-18.16-.6-27.24-.65s-18.16.09-27.24.33c-18.16.61-36.33.36-54.49.25l-27.25-.15-27.24,0-54.49-.11c-4.54,0-9.08,0-13.62-.18s-9.08-.26-13.62-.23c-9.08,0-18.16.32-27.25.3s-18.16-.14-27.24-.25l-13.62-.16-13.62,0q-109-.29-218,.25l-54.49-.24c-9.08,0-18.16-.14-27.25-.06l-27.24.27c-9.08.17-18.16,0-27.24,0l-6.81-.05-6.81,0-13.62.07c-18.16.17-36.33.18-54.49.27Z" style="fill:#e0e3ed"/><path d="M1091.14,828.15,1081.45,868c-.65,2.66-1.25,5.65.15,8,1.26,2.11,3.76,3,6.06,3.72,21.89,6.94,46.25,13.74,67,3.67,4.92-2.39,9.41-5.66,14.34-8,8.52-4.08,18-5.32,27.43-5.85a201.56,201.56,0,0,1,72.47,9.21c31.51,10.05,53.59,17,85.81,6.19-32-116.88-65.75-244.16-141-331.32-12.55-14.53-28.3-29.23-45.6-26.06" style="fill:#e0e3ed;stroke:#e0e3ed;stroke-miterlimit:10;stroke-width:2px"/><path d="M991.56,901.69q42.21-103.09,90.78-203.56c27.45-56.78,53.11-118.75,87.67-171.63-2.39,3.65,1.32,35.56-.93,43.77-17.85,65-31,131.33-38.3,198.29-3.64,33.45-6,67.13-6.42,100.78-.25,21.51,2.13,25.54-19,32.56-10.09,3.36-19.4,6.8-30.24,6.68" style="fill:#f4f6f8"/><path d="M991.56,901.69q42.21-103.09,90.78-203.56c27.45-56.78,53.11-118.75,87.67-171.63-2.39,3.65,1.32,35.56-.93,43.77-17.85,65-31,131.33-38.3,198.29-3.64,33.45-6,67.13-6.42,100.78-.25,21.51,2.13,25.54-19,32.56-10.09,3.36-19.4,6.8-30.24,6.68" style="fill:#e8eaf2;stroke:#e8eaf2;stroke-miterlimit:10;stroke-width:3px;opacity:0.5"/><path d="M1174.87,522.12c-8.26,47.78-.84,112.72,1.69,160.49a693.44,693.44,0,0,1-10.73,163.62c-3.24,17.39-7.16,34.71-8.81,52.32-.29,3.08-.46,6.4,1.19,9,1.77,2.84,5.2,4.21,8.47,5.12,27.79,7.73,73.38-18.47,96.81-3.68,5.34,3.37,28.7-2.36,35.74-3.07" style="fill:#f4f6f8"/><path d="M1176.05,522.33l-1.27,8.18c-.38,2.73-.67,5.48-1,8.22-.71,5.49-.75,11-1.11,16.54-.16,2.76-.48,5.52-.49,8.29s0,5.54,0,8.3l.16,8.3c.06,2.77.19,5.53.29,8.3.06,1.38.09,2.77.17,4.15s.15,2.77.18,4.15c.11,2.77.07,5.54.14,8.31.05,5.54.6,11.06,1,16.59.65,11.06,1,22.16,1.8,33.22.25,5.54,1,11.05,1.32,16.6.18,2.77,0,5.56.18,8.33,0,1.39.2,2.77.34,4.15s.22,2.77.27,4.16c.48,11.1.57,22.22.53,33.33,0,5.55,0,11.11-.47,16.66-.2,2.77-.36,5.54-.45,8.32s0,5.56-.13,8.33q-.57,8.31-1.4,16.6l-1.38,16.6c-.44,5.54-1.17,11-1.82,16.55s-1.42,11-2.35,16.49c-.42,2.74-.84,5.49-1.29,8.22l-1.19,8.24-1.27,8.23-1.42,8.21-6,32.7c-.21,1.37-.41,2.73-.59,4.1s-.29,2.75-.43,4.12a54,54,0,0,0-.4,8.11,9.06,9.06,0,0,0,1,3.55,7.34,7.34,0,0,0,2.42,2.59,14.45,14.45,0,0,0,3.43,1.64c.62.21,1.25.42,1.89.61s1.3.32,1.94.51c5.19,1.41,10.74,1.28,16.16.78,2.73-.21,5.43-.68,8.17-1s5.47-.7,8.2-1.16c1.37-.19,2.72-.51,4.07-.79l4.06-.89,4.06-.91,4.1-.75,4.1-.74q2-.39,4.08-.87c1.36-.32,2.72-.62,4.1-.86s2.77-.4,4.16-.55c2.78-.34,5.59-.44,8.39-.52a58.94,58.94,0,0,1,8.43.4,37.27,37.27,0,0,1,8.32,1.8,22.68,22.68,0,0,1,3.9,1.81l.93.55a5.5,5.5,0,0,0,.77.4,8.48,8.48,0,0,0,1.8.48,25.16,25.16,0,0,0,4,.23,33.31,33.31,0,0,0,4.09-.26c2.73-.32,5.45-.78,8.16-1.29l8.16-1.54c2.74-.51,5.43-1.07,8.3-1.38l.24,2.39c-5.35.65-10.85,1.92-16.36,2.65-2.76.37-5.53.73-8.33,1a53.12,53.12,0,0,1-8.55.26,10.28,10.28,0,0,1-2.3-.49,8.21,8.21,0,0,1-1.14-.54l-.87-.47a30,30,0,0,0-11.35-3.67,48.92,48.92,0,0,0-8.13-.17q-4.08.31-8.14,1c-2.71.4-5.43.78-8.18,1a54.66,54.66,0,0,0-8.14,1.56c-5.34,1.49-10.9,2.06-16.33,3.26-2.73.55-5.44,1.23-8.19,1.72-1.38.22-2.76.47-4.16.58s-2.79.27-4.2.36a66.32,66.32,0,0,1-8.46.07c-1.41-.07-2.82-.2-4.24-.31-.71-.06-1.41-.19-2.12-.28l-1.06-.15-1-.23a20.19,20.19,0,0,1-8.12-3.22,9.71,9.71,0,0,1-3-3.54,11.36,11.36,0,0,1-1.07-4.44,55.27,55.27,0,0,1,.63-8.47l.54-4.14c.15-1.38.32-2.77.49-4.15.3-2.77.62-5.54,1-8.3s.85-5.5,1.38-8.23c1-5.46,2.08-10.91,3.23-16.33l1.66-8.14,1.72-8.13a154.9,154.9,0,0,0,2.75-16.39q2-16.51,3.72-33c.69-5.49,1.47-11,1.68-16.53s.14-11.09.49-16.61c.15-2.76.67-5.51.89-8.27a76.36,76.36,0,0,0,0-8.31c-.07-1.39-.1-2.77-.11-4.16s0-2.77,0-4.15c0-2.77.18-5.53.19-8.3s.09-5.54.1-8.3l-.11-8.3c-.13-5.53-.22-11.07-.47-16.6-.06-1.38-.11-2.77-.06-4.16a38.85,38.85,0,0,0,0-4.16c-.15-2.77-.55-5.52-.72-8.29-.31-5.53-.35-11.09-.76-16.62-1.37-22.14-3.05-44.28-3.75-66.49,0-2.78-.07-5.55-.05-8.33l.08-8.33c0-2.78.19-5.55.2-8.33l0-4.17.07-4.17c0-1.39,0-2.78.13-4.17s.24-2.77.37-4.16c.33-2.77.33-5.55.66-8.32s.46-5.55.82-8.32l1.16-8.29Z" style="fill:#e0e3ed"/><path d="M1507.78,528.7c26,30.28,52.61,60,77.39,91.26,3.09,3.91,6.59,7.48,9.74,11.35,1.59,1.92,3,4,4.54,5.95.77,1,1.62,1.9,2.48,2.8s1.66,1.86,2.45,2.83l9.48,11.56c3.14,3.87,6.29,7.73,9.49,11.56s6.43,7.62,9.39,11.64c1.51,2,3,4,4.64,5.87s3.38,3.67,5,5.6c3.13,3.88,6.2,7.81,9.3,11.71,1.52,2,3.17,3.85,4.77,5.76l4.86,5.68c3.27,3.76,6.39,7.65,9.61,11.46s6.39,7.65,9.54,11.51c6.26,7.76,13.18,15,19.68,22.52,3.32,3.72,6.58,7.49,9.85,11.25q2.47,2.81,4.86,5.67l4.72,5.8c6.46,7.59,13.39,14.77,20,22.25,1.61,1.9,3.16,3.86,4.87,5.67l5.06,5.5c1.66,1.86,3.4,3.64,5,5.54l4.81,5.73c1.6,1.91,3.37,3.67,5.06,5.5l2.57,2.71,2.46,2.82c1.65,1.87,3.3,3.73,5.13,5.43s3.57,3.48,5.24,5.33,3.37,3.66,5.07,5.49,3.44,3.6,5.19,5.37l5.39,5.17c1.85,1.67,3.59,3.44,5.36,5.2a133,133,0,0,0,11.1,10c2,1.53,3.82,3.17,5.75,4.73s3.92,3,5.85,4.58l-1.45,1.92-5.89-4.69c-1.92-1.61-3.82-3.24-5.67-4.93-.94-.83-1.85-1.68-2.75-2.55l-2.73-2.57c-1.81-1.72-3.74-3.32-5.6-5s-3.72-3.34-5.48-5.11l-5.21-5.38-5.36-5.23-5.42-5.18c-6.51-7.58-13.73-14.5-20.14-22.15-1.69-1.84-3.51-3.55-5.23-5.36s-3.33-3.71-5-5.6l-4.87-5.68c-.8-1-1.64-1.88-2.49-2.79l-2.53-2.76c-.83-.93-1.7-1.83-2.51-2.77l-2.43-2.85-4.83-5.71-4.85-5.7-2.43-2.85-2.5-2.78-5.13-5.45-2.51-2.78-2.44-2.84c-3.23-3.8-6.5-7.56-9.66-11.42l-4.76-5.77-4.64-5.87c-3-4-6.17-7.84-9.54-11.52-6.65-7.44-13.18-15-19.49-22.69-3.08-3.92-6.06-7.93-9.39-11.64s-6.85-7.27-10-11.13c-1.58-1.93-2.85-4.11-4.38-6.09a74.24,74.24,0,0,0-5-5.58,140.74,140.74,0,0,1-9.7-11.38l-4.69-5.83L1612,656l-9.49-11.56c-.79-1-1.58-1.93-2.29-3a37,37,0,0,0-2.26-3c-1.58-1.93-3.37-3.68-5-5.6-3.16-3.86-6.09-7.9-9.3-11.71q-19-23.11-38.59-45.69L1535.59,564c-1.61-1.9-3.17-3.84-4.82-5.72s-3.37-3.68-5-5.54-3.27-3.76-4.87-5.67-3.27-3.76-4.91-5.63c-3.37-3.67-6.66-7.41-10-11.12Z" style="fill:#e0e3ed"/><path d="M1819.57,875.12a22.08,22.08,0,0,0,14,3.28c-1.15-4.14-5.42-7.46-9.74-8.74s-8.66-.88-12.78-.24l3.63,7.33a20.93,20.93,0,0,1,8.23.68l-10.29,26.83" style="fill:#e0e3ed"/><path d="M1820.19,874.12a22.49,22.49,0,0,0,3.09,1.6c.53.23,1.09.41,1.62.65a6.32,6.32,0,0,0,1.67.52,23.48,23.48,0,0,0,3.46.18,28.83,28.83,0,0,0,3.38-.11l-1.22,1.83a9.84,9.84,0,0,0-3.09-4.83,16.47,16.47,0,0,0-2.47-1.8,15.19,15.19,0,0,0-2.77-1.36,23.89,23.89,0,0,0-3-.85,13.09,13.09,0,0,0-3.18-.32,54.34,54.34,0,0,0-6.49.44l.48-.94,1,1.81c.33.6.6,1.23.89,1.84.57,1.24,1.17,2.47,1.76,3.69l-.64-.35c.71-.05,1.42-.19,2.14-.3a9.55,9.55,0,0,1,2.17-.06,21.89,21.89,0,0,1,4.28.67l1.07.28-.39,1.08-1.21,3.38q-.56,1.71-1.19,3.39l-1.44,3.3c-.48,1.1-.84,2.24-1.26,3.36s-.78,2.27-1.28,3.36a28.09,28.09,0,0,0-1.44,3.3c-.83,2.25-1.56,4.53-2.34,6.8l-2.21-.85,2.48-6.74c.44-1.11.73-2.28,1.07-3.44s.89-2.22,1.33-3.34,1-2.19,1.42-3.3l1.34-3.33c.48-1.1,1-2.16,1.49-3.28s.83-2.25,1.18-3.39l.76,1.52a27.63,27.63,0,0,0-3.88-.53,11.31,11.31,0,0,1-1.94-.17,4.43,4.43,0,0,0-2,0l-.67.17-.41-.76c-.33-.6-.67-1.19-1-1.77l-1.09-1.74c-.33-.6-.71-1.17-1-1.8s-.47-1.29-.75-1.91l-.77-1.67,1.75-.23c1.11-.15,2.22-.35,3.35-.49a21.57,21.57,0,0,1,3.44-.11c1.15.11,2.31.09,3.5.11a9.45,9.45,0,0,1,3.42.91c1.09.52,2.13,1.06,3.18,1.57a13,13,0,0,1,2.7,2.25,16,16,0,0,1,4,5.8l.31.93-1.05.19a17,17,0,0,1-3.84.27,18.92,18.92,0,0,1-3.76-.75c-.61-.19-1.24-.28-1.86-.43a13,13,0,0,1-1.83-.58,21.33,21.33,0,0,1-3.46-1.66Z" style="fill:#e0e3ed"/><path d="M1153.28,517.65c3.91.24,7.82.38,11.72.76a49.45,49.45,0,0,0,5.86.27c1-.05,2-.15,2.94-.14a28.07,28.07,0,0,1,2.93.18c2,.2,3.89.59,5.85.68s3.92,0,5.87,0c3.92-.05,7.84-.25,11.76-.3,2,0,3.92,0,5.87,0s3.9.36,5.85.58a47,47,0,0,0,5.86.29c2,0,3.92-.22,5.88-.23,1,0,2,0,2.93.11s2,.11,2.93.19l5.85.56c3.9.35,7.81.63,11.72.73l2.93.07c1,0,2,0,2.94-.06l2.94-.17c1,0,2,0,2.94,0,2,.09,3.89.71,5.85.82a9.34,9.34,0,0,0,1.47,0c.49,0,1-.11,1.47-.17a13.4,13.4,0,0,1,2.94-.07c3.91.18,7.82.31,11.73.53l5.86.31c2,.09,3.91.12,5.87.19l5.87.14a47.26,47.26,0,0,1,5.86.6,40.07,40.07,0,0,0,5.86.56c2,0,3.92-.4,5.88-.35,3.91.1,7.81.75,11.72,1,2,.17,3.91.19,5.87.21L1341,525c7.83.06,15.65.28,23.47.75a83.39,83.39,0,0,0,11.74,0c3.92-.26,7.83-.31,11.75-.41s7.83-.21,11.74-.15c2,0,3.91,0,5.87.16l5.86.55c2,.16,3.91.11,5.87.08s3.92-.13,5.87-.22,3.92-.24,5.88-.26a50.68,50.68,0,0,1,5.87,0,65.13,65.13,0,0,0,11.74.18c1-.05,2,0,2.94,0a28.88,28.88,0,0,1,2.93.13c2,.18,3.9.6,5.86.72,1,.12,2,.09,2.93.12l2.94-.09c1-.05,2,0,2.94,0s2,.13,2.93.26a21.62,21.62,0,0,0,5.87.08c1-.11,2-.27,2.94-.29s2,0,2.93.08c3.91.37,7.82.74,11.73.75,2,0,3.92-.15,5.87-.25a44.83,44.83,0,0,1,5.87.2,43.47,43.47,0,0,0,5.87.24c2,0,3.92-.28,5.87-.4s3.91-.13,5.87-.18,3.91-.07,5.87,0l0,4.8c-2,0-3.91,0-5.87-.06s-3.91-.05-5.87-.2-3.91-.39-5.87-.4a37.57,37.57,0,0,0-5.87.3,36.15,36.15,0,0,1-5.87.17c-2-.15-3.91-.36-5.87-.41-3.91,0-7.83.33-11.75.65-1,0-2,.06-2.94,0a27.05,27.05,0,0,1-2.93-.52,16,16,0,0,0-5.87-.15,21.23,21.23,0,0,1-5.87,0l-2.93-.36a26.42,26.42,0,0,0-2.94-.09c-2,0-3.92.35-5.88.46a26.83,26.83,0,0,1-2.94,0c-1,0-2-.07-2.93-.17a60.22,60.22,0,0,0-11.74-.37,55.16,55.16,0,0,1-5.87-.13c-2-.07-3.91-.28-5.87-.41s-3.91-.3-5.87-.32l-2.93-.08c-1,0-2,0-2.94.09l-5.88.54c-2,.16-3.92.1-5.87.08-3.92,0-7.83-.18-11.74-.42s-7.82-.37-11.72-1a48.31,48.31,0,0,0-11.73-.52c-3.92.28-7.84.28-11.75.38-2,0-3.92.06-5.87,0s-3.91,0-5.87-.23-3.9-.47-5.86-.67a41.13,41.13,0,0,0-5.87-.17c-3.92.22-7.86,1.1-11.77.88-2-.07-3.89-1-5.84-1.21a16.72,16.72,0,0,0-2.94,0c-1,.09-2,.25-2.95.4a26.33,26.33,0,0,1-5.89.46c-2-.1-3.91-.27-5.86-.4s-3.91-.3-5.86-.39l-5.87-.22c-3.91-.15-7.82-.26-11.73-.5a13.14,13.14,0,0,1-2.93-.36c-.49-.11-1-.23-1.46-.32a9,9,0,0,0-1.46-.12c-2-.08-3.93.36-5.88.29a51.24,51.24,0,0,1-5.86-.6c-2-.26-3.9-.38-5.86-.5-7.82-.53-15.65-.49-23.47-.81l-5.86-.32q-2.93-.11-5.88,0c-2,.1-3.93.26-5.88.22s-3.91-.17-5.87-.25c-3.91-.25-7.81-.65-11.72-.91-2-.09-3.91-.25-5.86-.29s-3.92.2-5.89.27c-1,0-2,.06-2.94,0s-2-.21-2.93-.32a53,53,0,0,0-5.87-.13c-3.92.1-7.83,0-11.75-.06Z" style="fill:#e0e3ed"/><path d="M1622.8,907.61a59.45,59.45,0,0,0,33.42-3.55c-12.27-45.24-36.91-85.36-56.21-128.34q-29.26-65.13-52.93-132.48-10.7-30.45-20.22-61.28c-4.46-14.44-6.35-37.67-16.11-49.39-17.66-21.19-55.4-15.34-79.67-15.51-83.87-.57-171.14-8.88-254.59-1.17,13,57.44,36.38,117.78,52.42,175.72l33.4,120.68c10.76,38.87,18.65,69.17,40.47,104a255,255,0,0,1,41-1.08" style="fill:#f4f6f8"/><path d="M1623,906.43a58.7,58.7,0,0,0,32.78-3.37l-.63,1.28-1.56-5.53-.79-2.76-.88-2.74-1.76-5.47c-.62-1.81-1.32-3.6-2-5.4-2.68-7.18-5.64-14.26-8.55-21.36l-2.25-5.3-2.34-5.26q-2.33-5.27-4.86-10.45-5.08-10.35-10.32-20.63c-6.95-13.72-14-27.42-20.42-41.45s-12.1-28.32-18.3-42.42c-12.25-28.27-22.6-57.31-33.06-86.26l-7.73-21.77-3.77-10.92-3.45-11-3.38-11-3.62-11c-1.22-3.68-2.1-7.49-2.94-11.25L1520.77,561c-1.69-7.45-3.55-14.94-6.92-21.67A33.87,33.87,0,0,0,1498.09,524c-6.76-3.33-14.3-5-21.86-5.8a205.64,205.64,0,0,0-22.93-.8c-7.68,0-15.38.36-23.1.25s-15.4,0-23.09-.11-15.38-.53-23.08-.82l-23.06-1-46.14-1.46q-23.06-.79-46.14-1.06l-11.54-.13c-3.85,0-7.69,0-11.54,0-7.69,0-15.38.3-23.06.54s-15.36.71-23,1.3c-7.68.42-15.32,1.18-23,1.82l.82-1.12c1,4.25,2,8.51,3.11,12.75s2.17,8.48,3.37,12.69c2.27,8.45,4.85,16.82,7.25,25.24s5,16.79,7.56,25.17,5.4,16.67,8.12,25l8.26,25,4.07,12.51c1.31,4.19,2.54,8.4,3.79,12.6l7.36,25.27,3.56,12.65c1.19,4.22,2.39,8.43,3.48,12.68,2.26,8.47,4.39,17,6.71,25.43l3.55,12.66c1.17,4.22,2.42,8.43,3.5,12.67,2.24,8.47,4.44,17,7,25.35,1.21,4.21,2.5,8.4,3.64,12.63l3.4,12.7c2.21,8.48,4.53,16.93,7,25.32s5.33,16.67,8.41,24.85l1.17,3.06c.42,1,.81,2,1.2,3l1.19,3.05,1.26,3,1.26,3,1.34,3c.89,2,1.79,4,2.77,5.94,1.85,4,3.94,7.8,6.1,11.59,1.11,1.88,2.17,3.79,3.31,5.65l3.47,5.56-.95-.46c3.41-.4,6.83-.76,10.26-1s6.87-.41,10.3-.51q10.31-.3,20.63.23l-.13,2.4q-10.21-.56-20.44-.3c-6.81.18-13.62.63-20.4,1.27l-.7.07-.34-.57-3.37-5.67c-1.12-1.89-2.16-3.83-3.25-5.74s-2.07-3.88-3.1-5.82-2-3.89-3-5.86-2-3.94-2.9-5.93l-1.41-3-1.34-3-1.34-3-1.26-3.05c-.42-1-.85-2-1.24-3.06l-1.14-3.1c-.76-2.06-1.51-4.13-2.21-6.22s-1.42-4.16-2.08-6.26-1.34-4.18-2-6.29l-1.95-6.29c-2.58-8.39-5-16.84-7.46-25.24s-4.92-16.83-6.92-25.37-4.61-16.91-7-25.34c-1.27-4.2-2.31-8.46-3.45-12.69L1242,743.19l-.84-3.18-.91-3.16-1.83-6.32-3.65-12.63c-1.25-4.2-2.37-8.44-3.51-12.67l-3.41-12.7-3.48-12.66c-.59-2.11-1.23-4.2-1.87-6.3s-1.27-4.19-1.93-6.28l-4-12.53-3.88-12.56-7.91-25.07-4-12.53-2-6.27-2.07-6.24c-2.74-8.33-5.46-16.67-8.07-25l-1.95-6.29-1.8-6.33c-1.21-4.22-2.36-8.46-3.48-12.7s-2.19-8.5-3.27-12.76-2-8.55-3-12.82l-.34-1.46,1.48-.11c7.69-.57,15.36-1.29,23.06-1.62s15.4-.53,23.1-.75c15.4-.12,30.79-.54,46.2-.54s30.79.35,46.18.79,30.75,1.38,46.13,1.93c7.69.28,15.38.41,23.07.48l11.54.08,11.53.17c7.69.16,15.36.79,23.05.89s15.32-.6,23-.92q2.89-.13,5.79-.22c1.94,0,3.87,0,5.81,0,3.88.07,7.77.31,11.64.76,7.73.91,15.53,2.62,22.64,6.18a39.78,39.78,0,0,1,9.76,6.81,34.21,34.21,0,0,1,7.05,9.61c3.56,7.1,5.42,14.71,7.14,22.22s3.08,15.09,5.29,22.36l3.22,11.08c1.14,3.67,2.4,7.3,3.62,11l3.72,10.92,3.56,11c2.39,7.31,4.78,14.62,7.37,21.86,10.09,29.06,21.46,57.66,33.18,86.1,3,7.09,5.95,14.19,9.13,21.19s6.31,14,9.54,21c6.34,14,13.13,27.79,19.94,41.59q5.1,10.35,10.07,20.78c3.27,7,6.67,13.89,9.78,20.94.81,1.75,1.57,3.52,2.32,5.3s1.54,3.54,2.23,5.34c1.35,3.62,2.81,7.19,4,10.85q3.93,10.89,7.13,22l.25.87-.86.36a60.31,60.31,0,0,1-34,3.77Z" style="fill:#e0e3ed"/><path d="M1627.48,902c8.9-.65,17.14-3.9,23-10.63q-47.31-102.83-87.17-208.73c-12.92-34.33-27.34-69.09-37.22-104.39-7.2-25.72-16.88-55.12-47.88-61.64-34.62-7.28-69.51,5.92-104.19,1.66a816.48,816.48,0,0,0-192.54-.33c5.49,44.1,48.19,70.53,87.5,74.29,11.14,1.06,26.09,5,25.94,17.57-.09,7.84-6.64,13.34-10,20.21-8,16.46,3.91,36.8,18,46.85,34.75,24.84,79.45,17.32,120.41,13.09,12.76-1.32,26-2.17,38.05,2.74s22.7,17,23,31.48c.64,27.81-28.29,48-18.32,77.84,9.91,29.65,49.52,35.08,76.66,51.55,18,10.94,31.49,28,49.41,39.12C1602.45,899.12,1615.56,902.92,1627.48,902Z" style="fill:#e8eaf2;stroke:#e8eaf2;stroke-miterlimit:10;stroke-width:3px;opacity:0.5"/><path d="M1170.91,527.29c-3.35,3.84-6.66,7.7-10.06,11.49-1.66,1.93-3.4,3.79-5,5.79s-3.18,4-4.94,5.83l-2.57,2.82q-1.31,1.39-2.55,2.84c-1.67,1.92-3.26,3.91-4.89,5.86l-9.73,11.77c-1.64,2-3.22,3.95-4.9,5.86s-3.4,3.79-5.12,5.67c-3.46,3.74-6.58,7.77-9.84,11.68-6.65,7.71-13.64,15.13-20.23,22.89-3.43,3.77-6.45,7.89-9.81,11.71-1.67,1.92-3.55,3.66-5.23,5.58-.86.94-1.64,1.95-2.41,3s-1.6,2-2.44,2.94l-10.06,11.49c-3.37,3.82-6.73,7.64-10.05,11.5s-6.6,7.75-10.15,11.41c-1.75,1.85-3.51,3.7-5.14,5.65s-3.14,4-4.82,5.92c-3.38,3.8-6.84,7.55-10.26,11.32-1.74,1.86-3.36,3.83-5,5.75l-4.94,5.82c-3.27,3.91-6.68,7.69-10,11.54s-6.69,7.68-10.09,11.46l-5,5.74-4.89,5.87q-4.84,5.91-9.78,11.73c-3.26,3.91-6.59,7.76-9.9,11.63-1.64,1.95-3.33,3.85-5,5.74l-5.19,5.61c-6.77,7.61-13.08,15.62-19.83,23.24l-2.59,2.8c-.87.93-1.73,1.87-2.54,2.85l-5,5.81c-1.67,1.92-3.29,3.89-5,5.74l-5.27,5.54c-1.74,1.86-3.37,3.81-5.05,5.73l-2.5,2.89-2.61,2.79c-1.73,1.87-3.5,3.7-5.06,5.72s-3.22,3.95-5,5.8-3.47,3.72-5.21,5.58L880,861.34c-3.34,3.84-6.58,7.78-10.11,11.45-1.71,1.88-3.49,3.71-5.16,5.64l-5,5.8c-1.64,2-3.35,3.84-5,5.75s-3.38,3.81-5.1,5.69L847.89,894c3.45-3.75,6.81-7.56,10.32-11.25s7.06-7.34,10.21-11.35,6.77-7.6,10.21-11.36,6.62-7.74,9.86-11.67a67.1,67.1,0,0,1,5.23-5.57,56.38,56.38,0,0,0,5.09-5.69,74.31,74.31,0,0,1,5-5.73c1.77-1.83,3.55-3.65,5.19-5.61s3.2-4,4.85-5.91,3.38-3.8,5.09-5.7l5.16-5.63c.88-.92,1.7-1.89,2.52-2.87l2.47-2.91c6.66-7.71,13.71-15.06,20.27-22.85l4.78-6,2.45-2.93,2.51-2.88c3.35-3.83,6.67-7.69,10.09-11.46l5.1-5.68,5.21-5.59c3.54-3.67,6.95-7.45,10.13-11.43,6.45-7.88,13-15.68,19.77-23.29l5.2-5.6c1.7-1.89,3.4-3.79,5-5.78,3.23-3.94,6.21-8.09,9.57-11.91,1.68-1.91,3.66-3.56,5.4-5.43s3.28-3.9,4.8-5.95a146.78,146.78,0,0,1,9.85-11.68l5.08-5.7,5-5.76,10.05-11.5c.84-1,1.68-1.91,2.6-2.8s1.81-1.8,2.63-2.78c1.68-1.91,3.14-4,4.82-5.93,3.36-3.83,6.93-7.47,10.24-11.34q20.12-23,39.74-46.4l10.1-11.46c1.67-1.92,3.39-3.8,5-5.75s3.19-4,4.82-5.93,3.3-3.87,5-5.78,3.31-3.87,5-5.81c3.22-3.95,6.53-7.81,9.8-11.72Z" style="fill:#e0e3ed"/><path d="M852.38,881.1a11.45,11.45,0,0,1-12.55,3.52,6.23,6.23,0,0,1-1.7-4.87c3.15-5.57,10.61-7.26,15.42-3.5a6.31,6.31,0,0,1,2,7.64,4.91,4.91,0,0,1-6.75,2.3s9,19.49,11,20.36" style="fill:#e0e3ed"/><path d="M853.28,881.86a13.2,13.2,0,0,1-2.86,2.49,18.6,18.6,0,0,1-3.46,1.53,9.37,9.37,0,0,1-3.77.83,10,10,0,0,1-3.85-.76l-.32-.13-.19-.2a7.05,7.05,0,0,1-1.64-2.83,8.13,8.13,0,0,1-.33-3.17l0-.32.13-.19.69-1c.25-.33.53-.64.79-1a12.79,12.79,0,0,1,1.89-1.6,11,11,0,0,1,4.49-1.84,13.08,13.08,0,0,1,4.79,0,11.07,11.07,0,0,1,4.29,2.08l-.06,0a5.41,5.41,0,0,1,1.7,1.62,7,7,0,0,1,.88,2.11,7.84,7.84,0,0,1,.21,2.24,12.56,12.56,0,0,1-.41,2.26,5.33,5.33,0,0,1-3.18,3.45,5.52,5.52,0,0,1-4.9-.23l1.55-1.39a55,55,0,0,1,2.51,5.22,50.92,50.92,0,0,0,2.53,5.21c1,1.65,1.47,3.58,2.54,5.18.48.83,1,1.63,1.54,2.4.27.38.54.76.82,1.1a5.7,5.7,0,0,0,.41.46c.12.14.28.21.15.15l-.9,2.18a3.07,3.07,0,0,1-1-.76c-.21-.22-.38-.44-.54-.65-.32-.42-.61-.84-.88-1.27-.56-.84-1-1.7-1.53-2.55-.89-1.75-2.23-3.25-2.95-5.08s-1.55-3.58-2.4-5.33c-.4-.88-.82-1.76-1.14-2.69a22.2,22.2,0,0,0-1.13-2.69l-1.68-3.17,3.18,1.82a3.22,3.22,0,0,0,3,0,4.65,4.65,0,0,0,1.25-.89c.18-.18.33-.39.49-.58a6,6,0,0,0,.54-.6,2.33,2.33,0,0,0,.4-1.61,4.67,4.67,0,0,0-.4-1.66,9.2,9.2,0,0,0-1.73-2.52l-.11-.08a7.39,7.39,0,0,0-3.46-1.56c-.63-.1-1.27-.2-1.93-.24a4.39,4.39,0,0,0-1.92.37c-.6.28-1.21.46-1.82.68a9.35,9.35,0,0,0-1.83.78,4.1,4.1,0,0,0-.8.6,9.35,9.35,0,0,1-.7.71l-.72.72-.67.78.11-.34a3.68,3.68,0,0,0-.09,1.16,4.28,4.28,0,0,0,.25,1.15,4.49,4.49,0,0,0,1.29,1.88l-.3-.19a10.31,10.31,0,0,0,3.12.4,19.64,19.64,0,0,0,3.14-.29,8.51,8.51,0,0,0,2.8-1.47,12.24,12.24,0,0,0,2.29-2.14Z" style="fill:#e0e3ed"/><path d="M1667,903.89a15.42,15.42,0,0,1,1.76.15,2.23,2.23,0,0,0,.88,0,3.45,3.45,0,0,1,.44-.13,1.23,1.23,0,0,1,.44,0,4.47,4.47,0,0,0,.88.23,5.55,5.55,0,0,0,.88-.09l1.76-.38a5.46,5.46,0,0,1,.88-.08,4.21,4.21,0,0,1,.88.18,2,2,0,0,0,.88,0c.29-.06.59-.18.88-.22a6.5,6.5,0,0,1,1.76.23,8.57,8.57,0,0,0,1.76.17,3.33,3.33,0,0,0,.88-.09,2.11,2.11,0,0,1,.88-.17c.29,0,.59.29.88.32a.62.62,0,0,0,.44-.12.68.68,0,0,1,.44-.08c1.17,0,2.35.21,3.52.18l.88,0a2.33,2.33,0,0,1,.88.22,1.85,1.85,0,0,0,.88.2c.29,0,.59-.25.88-.25a9.54,9.54,0,0,1,1.76.38,6,6,0,0,0,1.76-.1,21,21,0,0,1,3.52.09,3.79,3.79,0,0,0,1.76-.14,13.91,13.91,0,0,1,1.76-.33,13.22,13.22,0,0,1,1.76-.19,3.43,3.43,0,0,1,.88,0l.88.21c1.17.18,2.35-.52,3.52-.39a3,3,0,0,0,1.76,0,2.1,2.1,0,0,1,.88,0c.29.08.59.26.88.32.59.16,1.17-.26,1.76,0a1,1,0,0,0,.88,0,2,2,0,0,1,.44-.17,1.88,1.88,0,0,1,.44,0,6,6,0,0,0,1.76.3,5.86,5.86,0,0,0,.88-.16,1.94,1.94,0,0,1,.88.06,2.57,2.57,0,0,0,1.76-.15,7.22,7.22,0,0,1,1.76-.16v2.4a7.93,7.93,0,0,1-1.76-.07,6.23,6.23,0,0,0-.88-.18,2,2,0,0,0-.88.19,1.56,1.56,0,0,1-.88.12,5,5,0,0,0-.88-.17,6,6,0,0,0-1.76.4,1.08,1.08,0,0,1-.44,0,1.73,1.73,0,0,1-.44-.24.78.78,0,0,0-.88,0c-.59.38-1.17-.28-1.76-.16a8.82,8.82,0,0,0-.88.28,2,2,0,0,1-.88,0,2.7,2.7,0,0,0-1.76-.09c-1.17.15-2.35-.51-3.52-.21l-.88.33a3,3,0,0,1-.88.1,9.16,9.16,0,0,1-1.76-.09,5.84,5.84,0,0,1-1.76-.36,2.27,2.27,0,0,0-1.76-.13,12.48,12.48,0,0,1-1.76.33,6,6,0,0,1-1.76,0,3.41,3.41,0,0,0-1.76-.27c-.59.16-1.17.64-1.76.6-.29,0-.59-.45-.88-.53a1.12,1.12,0,0,0-.88.27,1.42,1.42,0,0,1-.88.31c-.29,0-.59-.08-.88-.12-1.17-.22-2.35-.07-3.52-.21a.69.69,0,0,1-.44-.14.66.66,0,0,0-.44-.18c-.29,0-.59.24-.88.24a2.36,2.36,0,0,1-.88-.21,4.2,4.2,0,0,0-.88-.16c-1.17-.13-2.35,0-3.52,0a4.19,4.19,0,0,0-1.76.06,4.4,4.4,0,0,1-.88.22c-.29,0-.59,0-.88,0-.59-.05-1.17-.18-1.76-.24-.29,0-.59-.05-.88,0a5.3,5.3,0,0,0-.88.25,1.38,1.38,0,0,1-.88-.06,2.42,2.42,0,0,0-.88.05,16,16,0,0,1-1.76.2Z" style="fill:#e0e3ed"/><path d="M966.91,903.89a15.43,15.43,0,0,1,1.76.15,2.23,2.23,0,0,0,.88,0,3.4,3.4,0,0,1,.44-.13,1.23,1.23,0,0,1,.44,0,4.46,4.46,0,0,0,.88.23,5.55,5.55,0,0,0,.88-.09l1.76-.38a5.45,5.45,0,0,1,.88-.08,4.22,4.22,0,0,1,.88.18,1.94,1.94,0,0,0,.88,0c.29-.06.59-.18.88-.22a6.5,6.5,0,0,1,1.76.23,8.56,8.56,0,0,0,1.76.17,3.34,3.34,0,0,0,.88-.09,2.11,2.11,0,0,1,.88-.17c.29,0,.59.29.88.32a.62.62,0,0,0,.44-.12.68.68,0,0,1,.44-.08c1.17,0,2.35.21,3.52.18l.88,0a2.33,2.33,0,0,1,.88.22,1.85,1.85,0,0,0,.88.2c.29,0,.59-.25.88-.25a9.55,9.55,0,0,1,1.76.38,6,6,0,0,0,1.76-.1,21,21,0,0,1,3.52.09,3.79,3.79,0,0,0,1.76-.14,13.92,13.92,0,0,1,1.76-.33,13.2,13.2,0,0,1,1.76-.19,3.42,3.42,0,0,1,.88,0l.88.21c1.17.18,2.35-.52,3.52-.39a3,3,0,0,0,1.76,0,2.1,2.1,0,0,1,.88,0c.29.08.59.26.88.32.59.16,1.17-.26,1.76,0a1,1,0,0,0,.88,0,2,2,0,0,1,.44-.17,1.88,1.88,0,0,1,.44,0,6,6,0,0,0,1.76.3,5.86,5.86,0,0,0,.88-.16,1.94,1.94,0,0,1,.88.06,2.57,2.57,0,0,0,1.76-.15,7.23,7.23,0,0,1,1.76-.16v2.4a7.93,7.93,0,0,1-1.76-.07,6.22,6.22,0,0,0-.88-.18,2,2,0,0,0-.88.19,1.57,1.57,0,0,1-.88.12,5,5,0,0,0-.88-.17,6,6,0,0,0-1.76.4,1.08,1.08,0,0,1-.44,0,1.72,1.72,0,0,1-.44-.24.78.78,0,0,0-.88,0c-.59.38-1.17-.28-1.76-.16a8.82,8.82,0,0,0-.88.28,2,2,0,0,1-.88,0,2.7,2.7,0,0,0-1.76-.09c-1.17.15-2.35-.51-3.52-.21l-.88.33a3,3,0,0,1-.88.1,9.16,9.16,0,0,1-1.76-.09,5.84,5.84,0,0,1-1.76-.36,2.27,2.27,0,0,0-1.76-.13,12.51,12.51,0,0,1-1.76.33,6,6,0,0,1-1.76,0,3.4,3.4,0,0,0-1.76-.27c-.59.16-1.17.64-1.76.6-.29,0-.59-.45-.88-.53a1.12,1.12,0,0,0-.88.27,1.42,1.42,0,0,1-.88.31c-.29,0-.59-.08-.88-.12-1.17-.22-2.35-.07-3.52-.21a.69.69,0,0,1-.44-.14.66.66,0,0,0-.44-.18c-.29,0-.59.24-.88.24a2.36,2.36,0,0,1-.88-.21,4.2,4.2,0,0,0-.88-.16c-1.17-.13-2.35,0-3.52,0a4.19,4.19,0,0,0-1.76.06,4.41,4.41,0,0,1-.88.22c-.29,0-.59,0-.88,0-.59-.05-1.17-.18-1.76-.24-.29,0-.59-.05-.88,0a5.3,5.3,0,0,0-.88.25,1.38,1.38,0,0,1-.88-.06,2.41,2.41,0,0,0-.88.05,16,16,0,0,1-1.76.2Z" style="fill:#e0e3ed"/><path d="M1780.49,903.89c.79,0,1.58,0,2.37.15a4.06,4.06,0,0,0,1.19,0,5.82,5.82,0,0,1,.59-.13,2.21,2.21,0,0,1,.59,0,7.73,7.73,0,0,0,1.19.23c.4,0,.79-.06,1.19-.09.79-.1,1.58-.27,2.37-.37.4,0,.79-.09,1.19-.09a7.42,7.42,0,0,1,1.19.18,3.5,3.5,0,0,0,1.19,0c.4-.06.79-.18,1.19-.22a11.61,11.61,0,0,1,2.37.23,15.41,15.41,0,0,0,2.37.17,6,6,0,0,0,1.19-.09,3.72,3.72,0,0,1,1.19-.17c.4,0,.79.29,1.19.32a1.06,1.06,0,0,0,.59-.12,1.19,1.19,0,0,1,.59-.08c1.58,0,3.16.21,4.74.18l1.19,0a4,4,0,0,1,1.19.22,3.22,3.22,0,0,0,1.19.2c.4,0,.79-.25,1.19-.25a19.68,19.68,0,0,1,2.37.37,9.9,9.9,0,0,0,2.37-.09,37.29,37.29,0,0,1,4.74.1,6.89,6.89,0,0,0,2.37-.15c.79-.17,1.58-.24,2.37-.33a23.73,23.73,0,0,1,2.37-.19,6.19,6.19,0,0,1,1.19,0l1.19.21c1.58.15,3.16-.51,4.74-.39a5.38,5.38,0,0,0,2.37,0,4.22,4.22,0,0,1,1.19,0c.4.08.79.26,1.19.32.79.15,1.58-.25,2.37,0a1.77,1.77,0,0,0,1.19,0,3.24,3.24,0,0,1,.59-.17,3.39,3.39,0,0,1,.59,0,10.62,10.62,0,0,0,2.37.3,10,10,0,0,0,1.19-.16,3.69,3.69,0,0,1,1.19.06,4.6,4.6,0,0,0,2.37-.15,13,13,0,0,1,2.37-.16v2.4a11.31,11.31,0,0,1-1.19,0,10,10,0,0,1-1.19-.07,4.14,4.14,0,0,0-2.37,0,2.85,2.85,0,0,1-1.19.12,8.77,8.77,0,0,0-1.19-.17,10.54,10.54,0,0,0-2.37.4,2,2,0,0,1-.59,0,2.67,2.67,0,0,1-.59-.24,1.36,1.36,0,0,0-1.19,0c-.79.38-1.58-.28-2.37-.16-.4,0-.79.21-1.19.28a4,4,0,0,1-1.19,0,5,5,0,0,0-2.37-.09c-1.58.15-3.16-.51-4.74-.21l-1.19.33a5.37,5.37,0,0,1-1.19.1,16.56,16.56,0,0,1-2.37-.09,10.27,10.27,0,0,1-2.37-.36,4,4,0,0,0-2.37-.13,22.12,22.12,0,0,1-2.37.33,10.87,10.87,0,0,1-2.37,0,6,6,0,0,0-2.37-.27,9.35,9.35,0,0,1-2.37.59c-.4,0-.79-.43-1.19-.52a1.93,1.93,0,0,0-1.19.27,2.36,2.36,0,0,1-1.19.31c-.4,0-.79-.08-1.19-.12-1.58-.22-3.16-.07-4.74-.21a1.16,1.16,0,0,1-.59-.14,1.08,1.08,0,0,0-.59-.18c-.4,0-.79.24-1.19.24a4.36,4.36,0,0,1-1.19-.21,7.45,7.45,0,0,0-1.19-.16c-1.58-.13-3.16,0-4.74,0a7.93,7.93,0,0,0-2.37.07,7.67,7.67,0,0,1-1.19.22c-.4,0-.79,0-1.19,0-.79-.05-1.58-.18-2.37-.24-.4,0-.79-.05-1.19,0a10.12,10.12,0,0,0-1.19.24A2.51,2.51,0,0,1,1784,906a4.35,4.35,0,0,0-1.19.05c-.79.13-1.58.14-2.37.2Z" style="fill:#e0e3ed"/><path d="M1044.62,424.92c-1.46,1.1-2.89,2.24-4.4,3.29a25.53,25.53,0,0,0-2.16,1.69,12.22,12.22,0,0,1-2.08,1.79c-.75.53-1.57,1-2.28,1.55s-1.39,1.19-2.09,1.78l-4,3.74c-.7.59-1.36,1.23-2.08,1.8s-1.48,1.08-2.23,1.61a20.5,20.5,0,0,0-2.15,1.71c-.67.62-1.29,1.31-2,1.91-1.37,1.21-2.88,2.26-4.35,3.35s-2.93,2.2-4.32,3.39c-.7.59-1.4,1.18-2,1.84a20,20,0,0,1-2,1.9c-.7.59-1.58,1-2.29,1.55a5.29,5.29,0,0,0-1,1,6.29,6.29,0,0,1-1,1c-1.4,1.17-2.79,2.36-4.21,3.52s-2.83,2.33-4.19,3.55a36.42,36.42,0,0,1-4.27,3.46,15.53,15.53,0,0,0-2.18,1.68c-.68.61-1.2,1.4-1.9,2-1.36,1.22-2.91,2.24-4.33,3.39a53.86,53.86,0,0,0-4,3.73c-1.29,1.3-2.71,2.46-4.05,3.7s-2.7,2.47-4.11,3.64a34.76,34.76,0,0,0-3.94,3.83c-1.23,1.36-2.51,2.68-3.79,4s-2.57,2.61-3.87,3.9l-1,1-1,.91-2.13,1.74-1,.92-1,1c-.65.64-1.26,1.33-1.87,2s-1.21,1.38-1.86,2a21.7,21.7,0,0,1-2,1.92,31.83,31.83,0,0,0-4,3.76,19.34,19.34,0,0,1-2.07,1.84c-.73.57-1.56,1-2.29,1.58-1.5,1.08-2.67,2.57-4.31,3.47a10.93,10.93,0,0,0-2.2,1.68,11.54,11.54,0,0,1-2.16,1.75c-1.62.93-3.26,1.79-4.83,2.76a23.09,23.09,0,0,1-4.84,2.73c-.86.35-1.73.69-2.57,1.08s-1.64.9-2.5,1.25a33.75,33.75,0,0,1-5.29,1.88l-.6-2.32c.85-.28,1.71-.52,2.57-.75s1.69-.59,2.56-.81a15.45,15.45,0,0,0,4.93-2.16,25.6,25.6,0,0,1,2.34-1.34,23.36,23.36,0,0,0,2.43-1.19c.76-.49,1.52-1,2.23-1.53l2.09-1.73c.36-.27.7-.56,1.09-.8a11.64,11.64,0,0,1,1.24-.6,6.55,6.55,0,0,0,2.18-1.62,10.8,10.8,0,0,1,2.11-1.72l1.15-.74a11.42,11.42,0,0,0,1-.87c.68-.6,1.25-1.34,1.89-2a22.16,22.16,0,0,1,2.06-1.79,24,24,0,0,0,4.07-3.66c2.55-2.61,5.62-4.71,8.09-7.43l1.76-2.13.94-1,1-.95c1.34-1.25,2.65-2.53,4.06-3.71a54.3,54.3,0,0,1,4.27-3.48,22.19,22.19,0,0,0,4.13-3.63,91.66,91.66,0,0,1,7.88-7.68c.72-.57,1.48-1.1,2.21-1.66a21.4,21.4,0,0,0,2.05-1.83,43.82,43.82,0,0,1,3.71-4.11c.7-.59,1.66-.89,2.41-1.43a9.59,9.59,0,0,0,1.88-2,11.88,11.88,0,0,1,1.86-2c.7-.59,1.43-1.15,2.15-1.72,1.45-1.13,2.84-2.32,4.24-3.51l4.22-3.53a6,6,0,0,1,1.13-.79,5.15,5.15,0,0,0,1.16-.76c.71-.58,1.24-1.37,1.94-2a20.47,20.47,0,0,1,2.23-1.63c.77-.51,1.48-1.09,2.19-1.67,2.9-2.25,5.62-4.71,8.46-7a49.91,49.91,0,0,0,4.2-3.55c.65-.65,1.29-1.32,2-1.91s1.43-1.15,2.14-1.72l4.42-3.28c.71-.57,1.47-1.1,2.16-1.7s1.32-1.28,2-1.9a13.31,13.31,0,0,1,2.18-1.67c.76-.52,1.42-1.16,2.12-1.75,1.36-1.24,2.79-2.38,4.19-3.57Z" style="fill:#e8eaf2"/><path d="M1437.3,510.86c-27.57-23-56.28-44.68-83.07-68.65-3.34-3-7-5.61-10.41-8.56-1.7-1.47-3.22-3.15-4.91-4.62a31.61,31.61,0,0,0-2.63-2.11c-.91-.66-1.76-1.39-2.61-2.14L1313.46,407c-3.37-3-6.8-5.87-10-9.06-1.61-1.57-3.21-3.15-4.92-4.61s-3.53-2.79-5.19-4.3a99.15,99.15,0,0,1-9.22-9.93c-1.43-1.74-2.93-3.42-4.37-5.14l-4.34-5.16c-2.92-3.41-5.67-7-8.67-10.27a127.67,127.67,0,0,0-9.41-9.53c-6.64-6-14.91-9.85-23.26-12.73a107.2,107.2,0,0,0-26.07-5,67,67,0,0,0-13.28.76c-2.2.28-4.37.76-6.53,1.2-1.08.25-2.14.55-3.21.82-.53.16-1.08.24-1.61.4s-1.06.31-1.6.44a59.18,59.18,0,0,0-12.42,4.67l-6,2.93c-2,1-4,1.89-6,3s-3.85,2.28-5.74,3.47l-2.83,1.81-2.89,1.71a56.65,56.65,0,0,0-5.65,3.65,64.55,64.55,0,0,1-5.56,3.79c-1.89,1.21-3.82,2.35-5.72,3.55l-5.64,3.67c-3.69,2.56-7.28,5.26-11.08,7.64s-7.4,5.08-11,7.79c-1.78,1.37-3.61,2.66-5.42,4s-3.62,2.65-5.45,3.94l-1.4-2q2.72-2,5.49-3.91c1.84-1.29,3.67-2.6,5.56-3.82,3.74-2.49,7.52-4.92,11.06-7.71,1.78-1.38,3.62-2.66,5.5-3.9l5.68-3.64c3.74-2.49,7.35-5.18,11-7.79a50.35,50.35,0,0,1,5.77-3.49,45.45,45.45,0,0,0,5.68-3.63c3.59-2.74,7.76-4.58,11.59-7,1.94-1.14,3.83-2.41,5.81-3.52a62,62,0,0,1,6.12-3c4.18-1.8,8.49-3.23,12.8-4.71a66.55,66.55,0,0,1,13.39-2.58c1.13-.13,2.26-.24,3.4-.28s2.26-.16,3.4-.19c2.27,0,4.54-.12,6.81-.08l1.71,0,1.71,0c1.14,0,2.28,0,3.42.13l3.4.36c1.13.14,2.25.39,3.37.58a74.22,74.22,0,0,1,13.18,3.63,64.22,64.22,0,0,1,12.28,6c3.84,2.47,7.5,5.14,11.07,7.95,7.06,5.74,13,12.67,18.58,19.69a119.35,119.35,0,0,0,8.43,10.46c3.06,3.26,6.47,6.14,9.71,9.11,1.67,1.5,3.07,3.3,4.69,4.86a59.77,59.77,0,0,0,5.21,4.27,114.49,114.49,0,0,1,10.23,8.76c3.3,3,6.68,6,10.05,9l10.12,8.88c.84.74,1.69,1.48,2.47,2.29a30.08,30.08,0,0,0,2.44,2.32c1.69,1.48,3.56,2.74,5.26,4.21,3.42,2.9,6.58,6.12,10,9,13.61,11.71,27.5,23.09,41.51,34.32l10.31,8.67c1.73,1.43,3.42,2.91,5.18,4.31s3.59,2.7,5.37,4.07,3.49,2.82,5.19,4.29,3.49,2.82,5.24,4.23c3.56,2.73,7,5.56,10.57,8.35Z" style="fill:#e8eaf2"/><path d="M490.63,310.22c10.81-27.11,26.49-57,43.79-80.52,10.46-14.22,30.46-28.59,43.64-16.85,7,6.22,7.5,16.7,9.26,25.89s7.5,19.68,16.86,19.48c6.68-.14,11.77-5.79,16-11l51-62.94C694,156,721.63,125.35,758,124.38c13-.35,27.07,4.15,34.21,15,5.62,8.56,6.06,19.42,6.05,29.66A588.28,588.28,0,0,1,787.85,278.4c-1.76,9.23-2.57,21.14,5.7,25.6,9.76,5.26,20-5.58,26.42-14.65,6.12-8.72,13.29-17.4,23.21-21.28s23.17-1.12,27.77,8.49c3.71,7.76,3.3,20.16,11.84,21.23,4.83.61,8.76-3.52,12.46-6.69,20-17.07,56.1-4.33,64.52,20.57" style="fill:#fff"/><path d="M970.55,224.41a98.59,98.59,0,0,1,23.13-30c5.35-4.7,13.85-8.73,19-3.8,4.26,4.08,3.4,12.34,8.69,15q17.87-24.19,37.95-46.63c6.61-7.39,13.57-14.77,22.34-19.4s19.77-6.14,28.55-1.53c15.52,8.16,16.83,29.63,14.9,47.05-1,8.66-1,19.67,6.9,23.38a14,14,0,0,1,14.93-3.77c5.12,1.88,8.84,14.55,9,20" style="fill:#fff"/><path d="M579.14,730.1c-4.35,3.63-8.68,7.28-13.15,10.78-2.2,1.79-4.47,3.48-6.61,5.34s-4.33,3.67-6.65,5.3c-1.14.84-2.27,1.69-3.43,2.51s-2.3,1.65-3.43,2.51c-2.28,1.68-4.48,3.47-6.75,5.17-4.5,3.45-9.07,6.8-13.67,10.12-2.33,1.62-4.6,3.33-7,4.87s-4.79,3-7.21,4.53-4.83,3-7.19,4.55-4.73,3.12-7.18,4.59a66.89,66.89,0,0,1-7.64,4,39.67,39.67,0,0,1-8.3,2.74,33.72,33.72,0,0,1-17.32-1.25A88.36,88.36,0,0,1,448,788.74c-2.46-1.42-4.75-3.11-7.19-4.54-1.2-.74-2.46-1.4-3.72-2s-2.49-1.35-3.71-2.07l-14.61-8.64c-4.86-2.9-9.73-5.79-14.62-8.62s-9.81-5.64-14.55-8.74c-2.39-1.52-4.77-3-7.24-4.43s-5-2.63-7.45-4.08c-4.85-2.9-9.66-5.91-14.49-8.84-2.4-1.5-4.89-2.83-7.37-4.17s-5-2.61-7.57-3.78-5.15-2.29-7.75-3.35a83.12,83.12,0,0,0-8-2.67,60.43,60.43,0,0,0-16.61-2.3,54.88,54.88,0,0,0-8.38.72c-1.38.24-2.75.6-4.12.89s-2.71.75-4,1.15a105.65,105.65,0,0,0-15.48,6.58c-10,5.14-19.32,11.53-29,17.34-9.53,6.1-18.74,12.69-28.25,18.83l-3.61,2.23c-1.21.74-2.4,1.49-3.57,2.29l-7.06,4.72c-2.37,1.55-4.69,3.17-7.11,4.63l-7.28,4.38c-2.42,1.47-4.74,3.08-7.11,4.63l-3.54,2.35-3.62,2.22c-2.4,1.49-4.83,2.95-7.11,4.63s-4.63,3.26-7,4.73-4.82,3-7.22,4.46l-7.16,4.56c-4.71,3.14-9.33,6.4-14.18,9.33l-3.59,2.26c-1.2.75-2.4,1.5-3.56,2.31l-7,4.8c-2.32,1.63-4.69,3.16-7,4.74s-4.71,3.13-7.09,4.66l-1.32-2c4.76-3.06,9.47-6.2,14.28-9.18s9.64-5.94,14.22-9.27,9.48-6.18,14.26-9.22,9.36-6.36,14-9.59a83,83,0,0,1,7.24-4.43,69.69,69.69,0,0,0,7.14-4.6c4.54-3.4,9.65-5.93,14.32-9.12,2.37-1.55,4.63-3.26,7-4.85s4.76-3.06,7.15-4.58l7.2-4.49c1.21-.73,2.39-1.52,3.56-2.32l3.52-2.37c1.18-.78,2.33-1.6,3.53-2.35l3.59-2.26,7.19-4.52,7.16-4.55,3.58-2.28,3.52-2.38,6.95-4.89c2.35-1.58,4.73-3.13,7.16-4.6a161.06,161.06,0,0,1,14.94-8.3q3.86-1.87,7.86-3.44c1.32-.55,2.71-.94,4.06-1.41s2.76-.8,4.13-1.2a89.79,89.79,0,0,1,17-2.56,56.36,56.36,0,0,1,17.09,1.93,82.78,82.78,0,0,1,16,6.12c2.55,1.28,5,2.71,7.49,4.12s4.92,2.83,7.42,4.16c5,2.72,10.08,5.18,15,8.06,2.43,1.44,4.67,3.23,7.07,4.73s4.93,2.79,7.47,4c5.12,2.46,9.91,5.47,14.76,8.39l7.27,4.37,7.32,4.3L434.6,778c1.22.72,2.43,1.44,3.6,2.25s2.35,1.59,3.58,2.29c2.43,1.44,5,2.65,7.44,4.07s4.85,2.84,7.32,4.15a46.94,46.94,0,0,0,7.67,3.3,35.41,35.41,0,0,0,8.1,1.72,26.54,26.54,0,0,0,8.21-.61c5.41-1.22,10.4-3.89,15.25-6.72s9.7-5.79,14.34-9l7-4.82,7-4.71c4.67-3.18,9.32-6.39,13.9-9.7,2.29-1.65,4.59-3.3,6.83-5s4.4-3.55,6.59-5.33,4.43-3.5,6.67-5.22q1.7-1.27,3.32-2.64l3.26-2.71,12.89-11Z" style="fill:#e8eaf2"/><path d="M693.55,620.3c-1,1-2,2-3,2.89a12.39,12.39,0,0,0-1.46,1.48,7.05,7.05,0,0,1-1.38,1.56c-.53.45-1.12.84-1.61,1.34s-.92,1-1.38,1.56l-2.63,3.25c-.46.52-.9,1.06-1.38,1.56s-1,.92-1.58,1.37a11.93,11.93,0,0,0-1.48,1.47c-.44.54-.83,1.12-1.29,1.65a34.85,34.85,0,0,1-3.06,2.83c-1,.92-2.07,1.86-3,2.87a18.56,18.56,0,0,0-1.39,1.56,11.94,11.94,0,0,1-1.34,1.61c-.5.49-1.18.79-1.68,1.27a3.11,3.11,0,0,0-.64.83,3.38,3.38,0,0,1-.67.8c-1,1-2,2-3,2.9s-2,1.91-3,2.91l-1.46,1.49a11.63,11.63,0,0,1-1.63,1.32,10.18,10.18,0,0,0-1.62,1.33c-.47.52-.81,1.16-1.3,1.65-1,1-2.17,1.76-3.23,2.66a31.62,31.62,0,0,0-2.92,3c-2,2-4,3.88-6.07,5.7a21.15,21.15,0,0,0-2.91,3c-.88,1.08-1.84,2.09-2.78,3.11s-1.88,2-2.88,3a19.07,19.07,0,0,1-1.53,1.42l-1.66,1.28c-2.12,1.8-3.69,4.18-5.79,6a16.69,16.69,0,0,0-3,2.85,12.83,12.83,0,0,1-1.53,1.42c-.56.42-1.2.75-1.74,1.19-1.13.82-1.86,2.07-3.09,2.8a5.52,5.52,0,0,0-1.53,1.42,9.26,9.26,0,0,1-.65.83c-.24.25-.52.47-.78.69a33,33,0,0,0-3.27,2.6c-.5.48-1,1-1.43,1.52a11.3,11.3,0,0,1-1.58,1.36,14.06,14.06,0,0,0-3,2.91c-.46.53-1,1-1.47,1.48s-1,1-1.52,1.43l-1.6-1.79c.5-.48,1-.94,1.55-1.39s1-.92,1.59-1.34a12.48,12.48,0,0,0,3.07-2.8,9.11,9.11,0,0,1,1.45-1.49c.55-.42,1.13-.82,1.65-1.28a30.72,30.72,0,0,0,2.79-3.11,8,8,0,0,1,.76-.71,7.06,7.06,0,0,1,.93-.53,4,4,0,0,0,1.55-1.39c.76-1.22,2.22-1.68,3.16-2.71.48-.5.87-1.1,1.33-1.62a12.39,12.39,0,0,1,1.55-1.39,15,15,0,0,0,3.1-2.78c1.93-2,4.37-3.45,6.2-5.56l1.28-1.67a16.42,16.42,0,0,1,1.44-1.5c1-1,2-1.9,3.08-2.8a32,32,0,0,1,3.26-2.61,12.14,12.14,0,0,0,3.1-2.78c.87-1.09,1.84-2.09,2.78-3.12a34,34,0,0,1,3-2.91,17.77,17.77,0,0,0,3.17-2.71,28,28,0,0,1,2.55-3.34c.51-.47,1.29-.66,1.85-1.09a5.56,5.56,0,0,0,1.28-1.66,6.85,6.85,0,0,1,1.25-1.69c.5-.48,1-.92,1.55-1.39,2.11-1.81,4-3.89,6-5.77a3.37,3.37,0,0,1,.83-.65,3,3,0,0,0,.85-.62c.49-.49.8-1.16,1.28-1.65a13,13,0,0,1,1.6-1.34c.55-.43,1.06-.91,1.57-1.38,2-1.9,3.85-4,5.8-6a24.17,24.17,0,0,0,2.84-3,19.49,19.49,0,0,1,1.29-1.64c.45-.53,1-1,1.46-1.48l3.06-2.83c.49-.49,1-1,1.47-1.48s.84-1.12,1.28-1.66a7.64,7.64,0,0,1,1.49-1.46,13.4,13.4,0,0,0,1.41-1.53c.87-1.09,1.83-2.09,2.75-3.13Z" style="fill:#e8eaf2"/><path d="M1043.82,633.94l-6.05-.61c-2-.3-4-.72-6-1.1-3.9-1.05-7.92-1.71-11.69-3.18-1.9-.68-3.68-1.68-5.57-2.38s-3.7-1.6-5.55-2.39l-1.39-.61-1.35-.68-2.7-1.36c-1.82-.87-3.55-1.91-5.31-2.89s-3.5-2-5.16-3.14c-.84-.56-1.68-1.11-2.49-1.72L988.19,612c-1.6-1.22-3.22-2.41-4.83-3.6s-3.32-2.27-4.88-3.54c-6.28-5-12-10.69-17.88-16.09-2.82-2.84-6-5.3-8.85-8.11-1.44-1.39-2.68-3-4.11-4.37a23.92,23.92,0,0,0-2.24-2,29.77,29.77,0,0,1-2.22-2q-4.31-4.15-8.67-8.24c-2.89-2.74-5.84-5.42-8.88-8s-6.15-5-9.1-7.73c-1.52-1.28-3-2.6-4.66-3.74s-3.4-2.09-5-3.25-3.31-2.2-4.93-3.35-3.33-2.18-5-3.21a91.1,91.1,0,0,0-10.72-5.21,118.85,118.85,0,0,0-11.21-4c-1.88-.65-3.83-1-5.76-1.49-1-.21-1.92-.49-2.9-.66l-2.93-.51-2.94-.48c-1-.09-2-.2-3-.26l-3-.17c-1,0-2,0-3,0-2,0-4,0-5.94.21l-3,.2c-.49,0-1,.06-1.48.11l-1.47.19-2.94.38c-1,.13-2,.23-2.94.42-1.95.36-3.9.65-5.84,1.06l-2.89.67-2.9.61-5.78,1.38c-7.63,2.24-14.81,5.69-21.91,9.17a45.94,45.94,0,0,0-5.33,2.64c-1.72,1-3.45,1.95-5.1,3s-3.39,2.05-5.06,3.11-3.47,1.94-5.13,3-3.26,2.28-4.86,3.46l-2.39,1.79-2.46,1.69a41.91,41.91,0,0,0-4.75,3.63,56.25,56.25,0,0,1-4.61,3.81L750,566.24,745.38,570c-3,2.64-5.85,5.42-8.94,7.94a105.24,105.24,0,0,0-8.72,8.19c-1.39,1.44-2.84,2.8-4.26,4.2s-2.83,2.8-4.28,4.17l-1.67-1.72q2.14-2.11,4.33-4.16c1.46-1.37,2.9-2.76,4.42-4.06,3-2.65,6.05-5.24,8.83-8.13,1.4-1.43,2.89-2.78,4.41-4.07l4.65-3.8c3.06-2.58,6-5.33,9-8a37.33,37.33,0,0,1,4.86-3.55,38.23,38.23,0,0,0,4.8-3.62c3-2.7,6.63-4.52,9.84-6.91l4.88-3.56,1.24-.86c.42-.28.86-.52,1.3-.78.87-.51,1.73-1,2.62-1.51,1.75-1,3.54-1.92,5.33-2.83.9-.45,1.78-.94,2.65-1.43l2.66-1.43c7.19-3.67,14.86-6.19,22.48-8.75l5.74-1.93,2.94-.74,3-.66c2-.4,4-.67,6-1a28.07,28.07,0,0,1,3-.36l3-.26,1.51-.13c.5,0,1,0,1.52,0l3-.08a48.71,48.71,0,0,1,6.05.24c2,.11,4,.37,6,.6,1,.11,2,.17,3,.26l3,.37a79.4,79.4,0,0,1,23.3,6.37c.92.42,1.81.91,2.71,1.35s1.81.88,2.68,1.41c1.76,1,3.55,1.9,5.35,2.8s3.6,1.81,5.39,2.76,3.49,2,5.19,3.1,3,2.68,4.63,3.91a52.88,52.88,0,0,0,5,3.42,67,67,0,0,1,9.43,7.49c1.52,1.32,3,2.71,4.46,4s3,2.69,4.44,4,2.94,2.72,4.38,4.11l4.33,4.16a27.87,27.87,0,0,1,2.08,2.16,25,25,0,0,0,2,2.2c1.43,1.4,3,2.59,4.48,4,2.88,2.77,5.49,5.8,8.44,8.5,11.56,11,23.88,21.25,37.56,29.32,1.69,1,3.35,2.13,5.11,3l2.6,1.44,1.3.72,1.34.65,2.67,1.3a22.55,22.55,0,0,0,2.72,1.21c.92.36,1.86.69,2.8,1s1.87.66,2.83.91,1.9.55,2.83.87,1.84.73,2.81,1,1.9.53,2.87.74,1.91.49,2.89.63l5.85.86,5.88.46Z" style="fill:#e8eaf2"/><path d="M209.18,876.95a84.8,84.8,0,0,0,51.33-33.45c8.9-12.48,15.61-28.46,30-33.72,33.66-12.3,42.82,34.11,70.53,28.74,8.26-1.61,13.5-10.18,14.78-18.5s-.36-16.78-.42-25.2c-.22-27.73,18.47-54.63,44.54-64.1,69.83-25.37,108.5,26.85,136.92,79.23,16.61,30.61,46.12.56,60,20.07,2.9,4.07,2.92,9.63,5.67,13.81,5.21,7.93,17.15,7.19,26,3.69s17.73-8.91,27.08-7.26c10.67,1.88,17.41,12.06,24.14,20.55s18.58,19.2,28.68,15.29" style="fill:#e8eaf2;stroke:#e8eaf2;stroke-miterlimit:10;stroke-width:3px"/><path d="M1130.35,856.82c-.23-3.15-.52-6.29-.69-9.44-.15-1.57-.23-3.15-.48-4.71a37.66,37.66,0,0,1-.6-4.7c-.19-6.34-1.58-12.54-2.55-18.79-.23-1.56-.52-3.12-.7-4.69s-.31-3.15-.45-4.73-.32-3.15-.58-4.71-.61-3.11-.83-4.68-.35-3.15-.54-4.72-.33-3.15-.46-4.73q-.39-4.74-.95-9.46c-.18-1.57-.35-3.15-.61-4.71s-.55-3.13-.66-4.71,0-3.19-.14-4.76a15.78,15.78,0,0,0-.34-2.36,15.06,15.06,0,0,1-.28-2.36c-.19-3.17-.46-6.33-.58-9.5l-.17-4.76c-.06-1.59-.17-3.17-.19-4.76a80.75,80.75,0,0,1,.06-9.52c.12-1.59.26-3.17.23-4.76s-.23-3.18-.11-4.76.2-3.17.36-4.75l.24-2.37c.1-.79.21-1.57.29-2.36.4-3.15.44-6.33.85-9.47.16-1.58.36-3.15.58-4.72l.32-2.36c.12-.78.27-1.56.4-2.34.58-3.12,1-6.26,1.79-9.34.35-1.55.7-3.09,1-4.64s.54-3.13.88-4.67c.64-3.11,1.23-6.23,2-9.3a133.65,133.65,0,0,1,5.6-18.19c1.13-3,2-6,3-9l1.51-4.51a44,44,0,0,1,1.64-4.47c1.42-2.85,2.39-5.88,3.53-8.84.57-1.48,1.17-2.95,1.85-4.38s1.46-2.83,2.14-4.26c2.42-5.86,5.36-11.48,7.67-17.39,1.47-2.81,3-5.6,4.3-8.48s2.46-5.84,4-8.61c.76-1.39,1.51-2.79,2.15-4.23s1.24-2.92,1.87-4.37,1.3-2.89,2-4.32,1.34-2.87,2-4.28l2.16,1.05c-.67,1.43-1.37,2.85-2.08,4.26s-1.39,2.84-2.15,4.23-1.52,2.78-2.21,4.2-1.32,2.88-1.9,4.35-1.23,2.92-1.93,4.33l-2.19,4.21c-1.35,2.86-2.47,5.82-3.66,8.75a26.69,26.69,0,0,1-2.17,4.21,21.72,21.72,0,0,0-2,4.3q-.4,1.12-.86,2.21c-.34.71-.66,1.44-1,2.13a43,43,0,0,0-2.06,4.27c-.62,1.45-1,3-1.6,4.46s-1.2,2.92-1.87,4.35a72.47,72.47,0,0,0-3.6,8.75c-.53,1.49-1.1,3-1.71,4.41l-1.78,4.39c-.61,1.46-1.16,2.94-1.68,4.42l-.79,2.23-.7,2.26c-.44,1.52-.77,3.07-1.15,4.6l-.63,2.28-.71,2.25c-1,3-1.72,6.06-2.7,9.05-.49,1.5-.88,3-1.3,4.54s-.88,3-1.39,4.53a52.5,52.5,0,0,0-2.16,9.21c-.12.78-.27,1.55-.37,2.34s-.2,1.57-.31,2.34l-.67,4.68c-.56,3.1-.72,6.25-1.29,9.35a61.54,61.54,0,0,0-1.17,9.37,41.19,41.19,0,0,0,0,4.73c.08,1.58.05,3.15,0,4.72a22.43,22.43,0,0,1-.33,2.35c-.11.78-.26,1.57-.31,2.36a29.53,29.53,0,0,0,.22,4.73c.17,1.57.33,3.15.36,4.72l0,4.72c0,6.3.49,12.59.88,18.89a22.79,22.79,0,0,1,.07,2.37,14.91,14.91,0,0,0,0,2.37c.13,1.57.54,3.12.67,4.69.32,3.14.29,6.32.67,9.46.57,6.3,1.51,12.55,2.3,18.83.38,3.14.71,6.29,1.31,9.4.29,1.56.61,3.11.83,4.68s.4,3.14.6,4.71l1,9.45c.18,1.57.28,3.16.5,4.72s.54,3.12.79,4.69a38.08,38.08,0,0,1,.45,4.73c.1,1.58.36,3.15.55,4.72.41,3.14.7,6.3,1,9.46Z" style="fill:#e0e3ed"/><path d="M1172.84,588.94c0,2.58,0,5.17,0,7.76,0,.65,0,1.29.05,1.94s.07,1.29.15,1.94a24.37,24.37,0,0,1,.34,3.87c-.1,5.21,1.12,10.3,2.07,15.38l.34,1.91c.13.63.27,1.27.37,1.91.24,1.27.36,2.57.52,3.85a28.8,28.8,0,0,0,.69,3.83c.32,1.26.71,2.5,1,3.77,1.13,5.06,1.79,10.24,3.11,15.27.32,1.26.62,2.52,1,3.76s.82,2.48,1.11,3.74.35,2.59.66,3.86a10.67,10.67,0,0,0,.59,1.86,12.67,12.67,0,0,1,.56,1.87c1.27,5,2.38,10.14,3.6,15.21,1.54,5,1.52,10.34,3.21,15.32.51,2.56.77,5.17,1.07,7.76.15,1.3.38,2.58.61,3.86s.47,2.57.67,3.86a117.83,117.83,0,0,1,1.43,15.59c0,2.61.15,5.22.32,7.83s.22,5.23.2,7.84-.09,5.23-.19,7.84c0,1.3-.14,2.61-.27,3.91l-.5,3.89c-.56,5.18-.37,10.43-.95,15.6a57.73,57.73,0,0,0-.68,7.78c-.07,1.3-.17,2.6-.36,3.89s-.49,2.57-.65,3.86c-.4,2.58-.21,5.21-.74,7.77a19.64,19.64,0,0,0-.34,3.89,23.28,23.28,0,0,1-.19,3.9c-.37,2.58-.79,5.16-1,7.75l-.18,3.9c-.08,1.3-.2,2.6-.41,3.88a38.44,38.44,0,0,0-.43,3.88c-.09,1.3-.07,2.61-.13,3.91s-.13,2.6-.21,3.9-.17,2.6-.3,3.89l-2.39-.21c.09-1.3.21-2.59.35-3.89s.23-2.59.43-3.88.38-2.58.5-3.88a35,35,0,0,0,.16-3.91,32,32,0,0,1,.22-3.9c.18-1.29.39-2.58.51-3.87.24-2.59.23-5.21.29-7.81,0-.65.07-1.3.16-1.95s.27-1.28.41-1.92a14.4,14.4,0,0,0,.38-3.89c-.15-2.63.75-5.16.84-7.76.1-1.3,0-2.61.08-3.91s.21-2.59.38-3.89a53.1,53.1,0,0,0,.78-7.77c.32-5.2,1.41-10.33,1.54-15.53,0-1.3,0-2.61,0-3.91l0-1.95.12-1.94c.16-2.59.26-5.18.44-7.76s.23-5.17.49-7.76a34.53,34.53,0,0,0,0-7.77c-.32-2.58-.52-5.15-.88-7.71s-.79-5.12-1-7.7a48.81,48.81,0,0,0-.93-7.72c-.55-2.54-1.56-5-2-7.54-.24-1.27-.06-2.63-.25-3.92a19.07,19.07,0,0,0-1.1-3.75,25.57,25.57,0,0,1-1.14-3.73c-.28-1.27-.52-2.54-.78-3.82s-.51-2.55-.8-3.81l-.92-3.79-1.82-7.59a11.88,11.88,0,0,1-.35-1.92,10.22,10.22,0,0,0-.31-1.93c-.3-1.27-.87-2.46-1.18-3.73s-.55-2.55-.76-3.84-.51-2.56-.8-3.83c-1.09-5.1-2.43-10.14-3.48-15.25-.48-2.56-1-5.12-1.6-7.66a52.15,52.15,0,0,1-1.51-7.69c-.17-1.3-.3-2.6-.45-3.9s-.29-2.6-.39-3.9-.22-2.6-.39-3.9-.48-2.58-.6-3.88a27,27,0,0,1-.19-3.92c0-1.31-.23-2.61-.27-3.92-.17-2.61-.22-5.23-.32-7.86Z" style="fill:#e0e3ed"/><path d="M689.8,903.89c2.14,0,4.29,0,6.43.15,1.07,0,2.14.1,3.21,0a16.77,16.77,0,0,1,3.22-.1c1.07.06,2.14.23,3.21.22s2.14-.06,3.21-.08l6.43-.37c1.07,0,2.14-.1,3.21-.08s2.14.1,3.21.17a28.15,28.15,0,0,0,3.22,0c1.07-.05,2.14-.19,3.21-.21,2.14-.05,4.29.11,6.43.21s4.29.2,6.43.19c1.07,0,2.14,0,3.22-.09a26.67,26.67,0,0,1,3.21-.16c1.07,0,2.14.3,3.21.31a7.25,7.25,0,0,0,1.61-.12,8.62,8.62,0,0,1,1.61-.08l6.43.09c2.14.05,4.29.09,6.43.08a48.52,48.52,0,0,1,6.43.21,21.22,21.22,0,0,0,3.22.19c1.07,0,2.14-.25,3.21-.23,2.14,0,4.29.27,6.43.36s4.29,0,6.43-.08,4.29,0,6.43,0,4.29,0,6.43.1a50.81,50.81,0,0,0,6.43-.14c2.14-.15,4.29-.25,6.43-.34s4.29-.13,6.43-.18c1.07,0,2.14,0,3.22,0l3.21.21c4.29.16,8.57-.5,12.86-.39a39.15,39.15,0,0,0,6.43,0,29.18,29.18,0,0,1,3.21,0c1.07.06,2.14.26,3.21.31,2.14.17,4.29-.25,6.43.05a13.32,13.32,0,0,0,3.21,0,15.84,15.84,0,0,1,3.22-.15c2.14.14,4.29.33,6.43.3,1.07,0,2.14-.09,3.21-.16a26.87,26.87,0,0,1,3.22.06,26.14,26.14,0,0,0,3.21.09c1.07,0,2.14-.16,3.21-.22s2.14-.1,3.22-.13,2.14-.06,3.21,0v2.4c-1.07,0-2.14,0-3.21,0s-2.14,0-3.22-.08-2.14-.16-3.21-.16a23.8,23.8,0,0,0-3.21.18,21.66,21.66,0,0,1-3.22.12c-1.07-.06-2.14-.16-3.21-.16-2.14,0-4.29.23-6.43.4-.54,0-1.07,0-1.61,0a16.15,16.15,0,0,1-1.61-.24,9.78,9.78,0,0,0-3.21,0c-2.14.38-4.29-.29-6.43-.15-1.07,0-2.14.21-3.21.26a27.45,27.45,0,0,1-3.21,0,36,36,0,0,0-6.43-.09c-4.29.14-8.57-.48-12.86-.21l-3.21.33-1.61.08h-1.61c-2.14,0-4.29,0-6.43-.08s-4.29-.1-6.43-.36a29.18,29.18,0,0,0-6.43-.13c-4.29.3-8.57.46-12.86.35-1.07-.06-2.14-.18-3.21-.25a29.24,29.24,0,0,0-3.21,0,63.36,63.36,0,0,1-6.43.59c-1.07,0-2.14-.43-3.21-.52a13,13,0,0,0-3.22.27,16.69,16.69,0,0,1-3.21.31c-1.07,0-2.14-.08-3.21-.12-2.14-.11-4.29-.12-6.43-.13l-6.43-.09a8.09,8.09,0,0,1-1.61-.13,7,7,0,0,0-1.61-.17c-1.07,0-2.14.24-3.21.23a28.93,28.93,0,0,1-3.21-.2c-1.07-.1-2.14-.12-3.22-.14-4.29-.16-8.57,0-12.86,0a63.88,63.88,0,0,0-6.43.07c-1.07.09-2.14.2-3.21.21s-2.14,0-3.21,0l-6.43-.24c-1.07,0-2.14-.06-3.21,0s-2.14.17-3.21.24a18.16,18.16,0,0,1-3.22-.06c-1.07-.07-2.14,0-3.21.05-2.14.13-4.29.14-6.43.2Z" style="fill:#e0e3ed"/><path d="M494.53,970.38c2.14,0,4.29,0,6.43.15,1.07,0,2.14.1,3.21,0a16.77,16.77,0,0,1,3.22-.1c1.07.06,2.14.23,3.21.22s2.14-.06,3.21-.08l6.43-.37c1.07,0,2.14-.1,3.21-.08s2.14.1,3.21.17a28.15,28.15,0,0,0,3.22,0c1.07-.05,2.14-.19,3.21-.21,2.14-.05,4.29.11,6.43.21s4.29.2,6.43.19c1.07,0,2.14,0,3.22-.09a26.67,26.67,0,0,1,3.21-.16c1.07,0,2.14.3,3.21.31a7.25,7.25,0,0,0,1.61-.12,8.62,8.62,0,0,1,1.61-.08l6.43.09c2.14.05,4.29.09,6.43.08a48.52,48.52,0,0,1,6.43.21,21.22,21.22,0,0,0,3.22.19c1.07,0,2.14-.25,3.21-.23,2.14,0,4.29.27,6.43.36s4.29,0,6.43-.08,4.29,0,6.43,0,4.29,0,6.43.1a50.81,50.81,0,0,0,6.43-.14c2.14-.15,4.29-.25,6.43-.34s4.29-.13,6.43-.18c1.07,0,2.14,0,3.21,0l3.22.21c4.29.16,8.57-.5,12.86-.39a39.15,39.15,0,0,0,6.43,0,29.18,29.18,0,0,1,3.21,0c1.07.06,2.14.26,3.21.31,2.14.17,4.29-.25,6.43.05a13.32,13.32,0,0,0,3.21,0,15.83,15.83,0,0,1,3.21-.15c2.14.14,4.29.33,6.43.3,1.07,0,2.14-.09,3.21-.16a26.9,26.9,0,0,1,3.22.06,26.18,26.18,0,0,0,3.21.09c1.07,0,2.14-.16,3.21-.22s2.14-.1,3.22-.13,2.14-.06,3.21,0v2.4c-1.07,0-2.14,0-3.21,0s-2.14,0-3.22-.08-2.14-.16-3.21-.16a23.81,23.81,0,0,0-3.21.18,21.68,21.68,0,0,1-3.22.12c-1.07-.06-2.14-.16-3.21-.16-2.14,0-4.29.23-6.43.4-.54,0-1.07,0-1.61,0a16.15,16.15,0,0,1-1.61-.24,9.78,9.78,0,0,0-3.21,0c-2.14.38-4.29-.29-6.43-.15-1.07,0-2.14.21-3.21.26a27.45,27.45,0,0,1-3.21,0,36,36,0,0,0-6.43-.09c-4.29.14-8.57-.48-12.86-.21l-3.22.33-1.61.08h-1.61c-2.14,0-4.29,0-6.43-.08s-4.29-.1-6.43-.36a29.18,29.18,0,0,0-6.43-.13c-4.29.3-8.57.47-12.86.35-1.07-.06-2.14-.18-3.21-.25a29.25,29.25,0,0,0-3.22,0,63.38,63.38,0,0,1-6.43.59c-1.07,0-2.14-.43-3.21-.52a13,13,0,0,0-3.22.27,16.7,16.7,0,0,1-3.21.31c-1.07,0-2.14-.08-3.21-.12-2.14-.11-4.29-.12-6.43-.13l-6.43-.09a8.08,8.08,0,0,1-1.61-.13,7,7,0,0,0-1.61-.17c-1.07,0-2.14.24-3.21.23a28.87,28.87,0,0,1-3.21-.2c-1.07-.1-2.14-.12-3.22-.14-4.29-.16-8.57,0-12.86,0a63.88,63.88,0,0,0-6.43.07c-1.07.09-2.14.2-3.21.21s-2.14,0-3.21,0l-6.43-.24c-1.07,0-2.14-.06-3.21,0s-2.14.17-3.21.24a18.16,18.16,0,0,1-3.22-.06c-1.07-.07-2.14,0-3.21.05-2.14.13-4.29.14-6.43.2Z" style="fill:#e0e3ed"/><path d="M572.53,955.73a12,12,0,0,1,1.67.15,2,2,0,0,0,.84,0,3.14,3.14,0,0,1,.42-.13,1.11,1.11,0,0,1,.42,0,4.07,4.07,0,0,0,.84.23,5,5,0,0,0,.84-.09l1.67-.38a4.92,4.92,0,0,1,.84-.08,3.84,3.84,0,0,1,.84.18,1.76,1.76,0,0,0,.84,0c.28-.06.56-.18.84-.22a5.89,5.89,0,0,1,1.67.23,7.75,7.75,0,0,0,1.67.17,2.79,2.79,0,0,0,.84-.09,1.92,1.92,0,0,1,.84-.17c.28,0,.56.29.84.32a.57.57,0,0,0,.42-.12.62.62,0,0,1,.42-.08c1.12,0,2.23.21,3.35.18a3.2,3.2,0,0,1,1.67.2,1.69,1.69,0,0,0,.84.2c.28,0,.56-.25.84-.25a8.69,8.69,0,0,1,1.67.38,5.47,5.47,0,0,0,1.67-.1,19,19,0,0,1,3.35.09,3.44,3.44,0,0,0,1.67-.14A12.64,12.64,0,0,1,606,956a12,12,0,0,1,1.67-.19,3.1,3.1,0,0,1,.84,0l.84.21c1.12.19,2.23-.54,3.35-.39a2.63,2.63,0,0,0,1.67,0,1.9,1.9,0,0,1,.84,0c.28.08.56.26.84.32.56.16,1.12-.26,1.67,0a.91.91,0,0,0,.84,0,1.09,1.09,0,0,1,.84-.15,5.47,5.47,0,0,0,1.67.3,5.31,5.31,0,0,0,.84-.16,1.76,1.76,0,0,1,.84.06,1.88,1.88,0,0,0,.84.1,7.05,7.05,0,0,0,.84-.24,6.55,6.55,0,0,1,1.67-.16v2.4a7.17,7.17,0,0,1-1.67-.07,5.66,5.66,0,0,0-.84-.18,1.8,1.8,0,0,0-.84.19,1.42,1.42,0,0,1-.84.12,4.11,4.11,0,0,0-.84-.17,5.49,5.49,0,0,0-1.67.4,1,1,0,0,1-.42,0,1.61,1.61,0,0,1-.42-.24.71.71,0,0,0-.84,0c-.56.38-1.12-.28-1.67-.16a8,8,0,0,0-.84.28,1.81,1.81,0,0,1-.84,0,2.45,2.45,0,0,0-1.67-.09c-1.12.17-2.23-.52-3.35-.21l-.84.33a2.71,2.71,0,0,1-.84.1,8.28,8.28,0,0,1-1.67-.09,5.31,5.31,0,0,1-1.67-.36,2.06,2.06,0,0,0-1.67-.13,11.33,11.33,0,0,1-1.67.33,5.44,5.44,0,0,1-1.67,0,3.09,3.09,0,0,0-1.67-.27c-.56.16-1.12.64-1.67.6-.28,0-.56-.45-.84-.53a1,1,0,0,0-.84.27,1.31,1.31,0,0,1-.84.31c-.28,0-.56-.08-.84-.12-1.12-.23-2.23-.08-3.35-.21a.63.63,0,0,1-.42-.14.61.61,0,0,0-.42-.18c-.28,0-.56.24-.84.24a2.15,2.15,0,0,1-.84-.21,3.82,3.82,0,0,0-.84-.16,33.06,33.06,0,0,0-3.35,0,3.79,3.79,0,0,0-1.67.06,4,4,0,0,1-.84.22,5.33,5.33,0,0,1-.84,0c-.56-.06-1.12-.18-1.67-.25a5.52,5.52,0,0,0-.84,0,4.83,4.83,0,0,0-.84.25,1.25,1.25,0,0,1-.84-.06,2.17,2.17,0,0,0-.84,0,12.39,12.39,0,0,1-1.67.2Z" style="fill:#e0e3ed"/><path d="M886.16,533.57c16.4,17,15.94,47.36-1,63.86-3.08,3-6.77,5.85-7.91,10-2.53,9.26,8.82,16.11,18.28,17.66s21,2.67,25.05,11.39c4.16,9-3.35,19.05-11,25.41s-16.86,13.29-17.15,23.24c-.34,11.85,12.76,19.93,24.6,20.59,21.67,1.22,40.91-13,57.37-27.13s33.85-29.72,55.42-32.16c8.32-.94,19.11-1.36,21.66-9.34,3.07-9.59-9.49-16-19-19.29a113.26,113.26,0,0,1-45.69-30c-4.8-5.2-9.14-13.44-4.51-18.79,1.65-1.9,4.1-2.89,6.06-4.48a12.47,12.47,0,0,0,4-12.8c-1.68-5.86-7.33-9.53-12.55-12.67l-37.72-22.64c-8.25,7.17-16.69,14.47-26.77,18.69s-22.28,4.94-31.54-.87" style="fill:#e8eaf2;stroke:#e8eaf2;stroke-miterlimit:10;stroke-width:3px;opacity:0.5"/><path d="M1246,343.76c6.75,5.28,2.41,16.32-3.71,22.33s-14.21,12-14,20.57c.37,17,21.95,14,29.74,23.83,9.41,11.87,1.9,22.78,2.53,36,.52,11,10.29,19.78,20.79,23.19s21.83,2.79,32.87,3.11c20.74.6,80,17.13,99.42,24.46-10.17-23-48.56-49.2-85.78-76-31.86-22.94-45.81-58.1-80.12-77.19" style="fill:#e8eaf2;stroke:#e8eaf2;stroke-miterlimit:10;stroke-width:3px;opacity:0.5"/><path d="M1408.12,587.67c5.52,27.28,20.68,41.74,35.29,48.72,15.69,7.49,30.52,6.33,45.36,15.52,1,.62,1.89,2.63,2.36,3.72.89,2.06-.68,4.31-2.2,6-10.81,11.74-24.87,21.5-38.09,30.4-6.74,4.54-36.71,12.1-40,18.33,6.16-11.58,16.67-28.13,10.33-40.89-5.09-10.24-21.23-17.28-32.82-15.68" style="fill:#7581ce"/><path d="M1442.1,880c-16.63-7-31.8-17.82-48.5-25.32a401.61,401.61,0,0,0-56.3-20.4c-10.45-2.92-18.32.38-26.83,6.49s-17.77,13.22-20,23.53c-1.64,7.43.71,15.1,3,22.35,4.75,14.83,11.22,29.57,15.29,44.54" style="fill:#2f3155"/><path d="M1444.61,885.51c-52.52-1.71-108.09-5.23-158.88,10.92-4.94,1.57-9.94,3.38-13.92,6.7-5,4.16-7.87,10.27-10.4,16.24q-5,11.78-9,23.95c-.85,2.59-1.67,5.33-1.14,8,.72,3.67,3.76,6.37,6.62,8.78,46.36,39,103.28,54.68,162.93,63.08,53.19,7.5,132,16.49,142.34-55.9" style="fill:#3e4166"/><path d="M1258.64,713.27c15.61-6.81,36.48,5.27,51.12,10.93,26.87,10.38,138.24,47.91,140.5,43.1,3.74-8,4.28-9.39,9.94-16.13,4.17-5,7.88-10.54,13.25-14.19,18.63-12.65,39.15,12.69,43.16,29a46.1,46.1,0,0,1-8.44,39c-6,7.62-14.27,13.08-22.38,18.42-12.51,8.23,19.91,34.07,5,32.65-10.69-1-31.7,1.61-42.17-.74-28.52-6.39-98.92-51.55-161.31-122.57" style="fill:#5053ab"/><path d="M1308.51,725.07a159.08,159.08,0,0,0-31.3-13.24c-5.47-1.65-9.42-2.6-15.14-1.46a61.54,61.54,0,0,0-15.72,5.72,6.81,6.81,0,0,0-1.63,1c-3.16,3-6.67,5.74-9.93,8.67a21.58,21.58,0,0,0-4.33,4.73,19.21,19.21,0,0,0-1.92,5.07,87.36,87.36,0,0,0-2,9.8,4.49,4.49,0,0,0,.29,3c.93,1.49,3.32,1.36,4.63.18s1.83-3,2.28-4.68l1.33-5a2.26,2.26,0,0,1,1.87-1.93c4.79-1.78,8.5-4,13.07-.51,2.72,2.1,4.33,5.67,7.73,6.91,3,1.11,7.22-.27,10.28-.66a30.44,30.44,0,0,0,11.65-3.48c1.4-.79,7.8-4.78,9.39-5.08,2.58-.49,6.68,3.28,8.94,4.63,5.28,3.15,8.83,7.11,13.11,11.53" style="fill:#5053ab"/><path d="M1487.28,650.73c-1.71-1.06-4.54-4.93-6.55-4.74-7.62.73,7.42,10.4-22.89,28.81-21.28,12.93-43.32,10.68-49,39.1-3.22,16.12,3.65,33.67-1.62,49.34-4.58,13.61-21,21-16.79,37.36,4.93,19.12,25.22,23.65,33.38,38.08,6.21,11-12.92,43.91-15.26,41.31,23.43,26.06,48.4,50.55,70.68,77.7,23.21,28.27,49.72,51.56,86.35,59.77-.86-21.87,9-42.51,16.46-63.07,20.2-55.29,28.52-126.82,10.68-183.81C1577.29,721.27,1529.92,677.18,1487.28,650.73Z" style="fill:#f4f6f8"/><path d="M1237.74,792.06c27.63-2.9,61.62,13.61,89.33,18.42,14,2.43,29.81,9.75,44.19,7.94,5.09-.64,30.52-16.46,23.61-20.75l33.57,20.85c10.77,6.69,22.86,13.66,35.34,11.39-7.26,20.05-24.06,35.24-38.48,50.32-2.82,2.94-5.81,5.93-9.63,7.34s-8,1.06-12,.6c-62-7.21-106.22-36.18-151.57-77.74l2.38.61" style="fill:#7581ce"/><path d="M1263,794.76c-7.33-1.64-14.81-3.07-22.31-2.61s-15.11,3-20.43,8.3-16.79,16.38-16.52,24.06c.38,10.81-1.36,16.43-2.64,30.61,2.33.29,4.92-.14,6.66-5.75,1.4-4.52,2.22-6.66,3.48-11.22,1.06-3.86,3.28-5,8-3.71.67.19,2.81,1.59,3.5,1.71a6.83,6.83,0,0,0,3.32-.58c2.74-1,5.5-1.81,8.14-3,4.58-2.06,9.49-4.42,11.81-8.87,1.21-2.32,1.59-5,3-7.23,3.43-5.42,8.5-4.42,12.94-1.33a57.71,57.71,0,0,1,11.16,10.19" style="fill:#7581ce"/><path d="M1413.72,603.05a52.53,52.53,0,0,1-.56,12.46c-.87,5.07-3.37,9.68-5.84,14.19l-17.7,32.37c-2.55,4.67-5.24,9.5-9.54,12.63-3.87,2.83-8.68,4-13.37,5q-12.18,2.57-24.55,4.09c-3,.37-6.17.65-8.88-.67-3.25-1.58-5-5.07-6.53-8.36-7.53-16.45-13.69-33.74-15.68-51.72-3.19-28.91,6.4-65.68,36.86-76.6C1382.27,534.12,1411.48,570.6,1413.72,603.05Z" style="fill:#7581ce"/><path d="M1351.94,526.45c-7.29-.79-14.26.47-19.46,7.89-2.83,4-4.23,9.1-7.84,12.45-5.34,5-14.42,5.13-18.48,11.19-2.23,3.33-2.3,7.75-1.13,11.59,1.87,6.14,6,16.31,13.7,15.78,14.7-1,19.39-21.47,37.56-12.22a19.68,19.68,0,0,1,10.3,19.6c-.81,6.11-4.54,11.67-4.65,17.83s3.38,11.73,5,17.66c1.87,6.69,1.18,14.42-3.26,19.76s-13.08,7.25-18.62,3.06c-2.65-2-4.31-5-6.68-7.34-6.08-5.94-18.26-6.11-24.32-.16,2.53,14,4.1,27.32,9.8,40.34,1.19,2.72,2.62,5.59,5.23,7,2.34,1.25,5.15,1.06,7.79.8,12.57-1.26,29.2-1.86,39.64-9s18-21.24,15.49-33.62c-1.24-6.07-4.69-11.51-5.93-17.58s-3.79-9.06,2.15-10.82,11.64,3.31,17.53,5.44c4.31,1.56,12,.56,16.25-1.11,2.19-.85,6-4.66,6.92-6.82s.3-6.44-1.91-7.21c-.66,4.11-7.4,3.93-9.63.42s-1.46-8-1-12.17a71,71,0,0,0-14.24-51.3c-9.29-12-22.19-15.17-36.15-18.51A115.26,115.26,0,0,0,1351.94,526.45Z" style="fill:#0c1238"/><polygon points="1311.29 616.75 1305.28 641.12 1322.01 644.75 1311.29 616.75" style="fill:#0c1238"/><path d="M1368,528.69c-5.12-8.08-7.41-18.16-5-27.41s9.76-17.36,19.12-19.49a9.23,9.23,0,0,1,4.66-.09c3.79,1.13,5.47,5.75,9,7.45,2.67,1.27,5.8.67,8.75.52,13.9-.7,27.2,11.23,27.94,25.06.15,2.75-.25,5.76-2.21,7.69-2.54,2.51-6.59,2.3-10.16,2.36s-7.87,1.16-8.88,4.57c-1.19,4,3.11,8.54,1,12.17-1.81,3.15-6.54,2.45-9.9,1.07s-7.6-2.92-10.3-.49" style="fill:#0c1238"/><path d="M1372.24,525.93a58.53,58.53,0,0,1-17.41-20.64c-.88-1.75-1.7-3.69-1.33-5.62s2.41-3.64,4.24-2.93a5.26,5.26,0,1,1-9.29,4.91" style="fill:none;stroke:#0c1238;stroke-miterlimit:10"/><path d="M1411.88,491.85a14.26,14.26,0,0,1,13.18,1.6c2.93,2.07,5,5.2,8,7.22s7.67,2.41,9.63-.59a7.13,7.13,0,0,0,.87-4.34,9.7,9.7,0,0,0-2.39-6.21,5.47,5.47,0,0,0-6.2-1.34c-2,1-2.84,4.07-1.29,5.73.25.26.64.49.94.29s-.1-.81-.31-.52" style="fill:none;stroke:#0c1238;stroke-miterlimit:10"/><path d="M1397.51,618.42a36.09,36.09,0,0,0-3.2-8.48c-3.83-7.59-20.36-12.65-17.3,1,1.22,5.45,1.21,9.93.91,15.62-.6,11.24,16.34,9.87,19.24,1.24A17.41,17.41,0,0,0,1397.51,618.42Z" style="fill:#7581ce"/><path d="M1296,1016.25c9.24,10.13,19,8.09,31.89,7.66a48.76,48.76,0,0,0,11.5-1.3c12.9-3.59,18.74-19.38,4.79-26.52-5-2.58-11.2.14-16.56-.75-6.41-1.06-11.23-5.65-16.62-8.94a29.79,29.79,0,0,0-9.41-4.12c-5.1-1-13.71,1.79-16.66,6.39-2.26,3.52-.55,8.14,1.27,11.9C1288.87,1006.13,1291.79,1011.68,1296,1016.25Z" style="fill:#7581ce"/><path d="M1565.59,1027.45c-5,0-10,0-15-.15-2.49,0-5-.11-7.48,0s-5,.18-7.48.06-5-.2-7.48-.2-5,.08-7.48.12l-15,.3c-2.49,0-5,.14-7.48.11s-5-.1-7.48-.17c-5-.18-10,.08-15,.17-10,0-20-.45-29.93-.37-5-.13-10,.28-15,.22-2.49,0-5-.3-7.48-.31-1.25,0-2.49,0-3.74.12s-2.49.09-3.74.08l-15-.09c-5-.05-10-.09-15-.08s-10,.08-15-.21c-2.49-.11-5-.23-7.48-.18s-5,.25-7.48.23c-5-.07-10-.22-15-.34-2.49-.1-5,0-7.48,0l-7.48.08c-5,.1-10,0-15,0s-10,0-15-.1l-7.48,0-7.48.17c-5,.15-10,.25-15,.34s-10,.13-15,.18c-2.49,0-5,0-7.48,0l-7.48-.21c-10-.08-20,.43-29.93.39l-3.74-.1c-1.25,0-2.49-.06-3.74,0l-7.48.11c-2.49,0-5,.1-7.48,0l-7.48-.3c-2.49-.09-5,0-7.48,0l-3.74,0-3.74-.11c-2.49-.06-5-.16-7.48,0s-5,.21-7.48.13-5-.14-7.48-.19l-7.48-.08c-5,.07-10,.28-15,.09l-3.74-.07c-1.25,0-2.49-.06-3.74,0l-7.48.21c-2.49.1-5,.1-7.48.13s-5,.06-7.48,0V1025c5,0,10,0,15,.08s10,.28,15,0,10,0,15,0,10-.23,15-.4a64.48,64.48,0,0,1,7.48.23,54.15,54.15,0,0,0,7.48,0c5-.38,10,.29,15,.15,2.49,0,5-.21,7.48-.26s5,0,7.48.06l7.48.16c1.25,0,2.49,0,3.74,0l3.74-.07c1.25,0,2.49-.07,3.74,0l3.74.06,7.48.13,7.48.09,3.74,0,3.74-.07,7.48-.33,3.74-.08h3.74c5,0,10,0,15,.08l7.48.11,7.48.26c5,.25,10,.34,15,.13,10-.3,20-.47,29.93-.36l7.48.25c2.49,0,5,.09,7.48,0,5-.14,10-.61,15-.57,2.49,0,5,.43,7.48.52a73.85,73.85,0,0,0,7.48-.27,140.9,140.9,0,0,1,15-.19l7.48.11,7.48,0,15,.09c1.25,0,2.49,0,3.74.13a37.21,37.21,0,0,0,3.74.17c2.49,0,5-.24,7.48-.23,5,0,10,.37,15,.34,20,.15,39.9,0,59.85-.19l15,.18c2.49,0,5,.09,7.48.06s5-.16,7.48-.21,5,0,7.48,0,5,0,7.48,0c5-.13,10-.14,15-.2Z" style="fill:#0c1238"/><path d="M1037.19,889.88l211.21-185.4s48.37,32.32,92.4,130.56C1398.62,964,1216,1021.67,1216,1021.67l-127.17-.63Z" style="fill:url(#linear-gradient)"/><polygon points="1242.3 1026.76 1235.69 1017.17 1094.85 1016.54 1037.67 883.7 1028.22 889.37 1086.77 1025.5 1242.3 1026.76" style="fill:#3e4166"/><path d="M923.41,903.31c-.47,5.18-3.21,9.6-.77,14.19,6.76,12.76-2.85,54.69-12.25,65.82-4.89,5.79-25.87,13.59-21.55,24.37,1.56,3.88,6.71,4.92,9.93,7.59s3.57,4.06,2.39,8.08c-7.38.9-15.71,1.54-21.38-3.26-7.73-6.53-7.2-20.57-16.38-24.84,20.36-24.88-11-37.3-6.4-63.74" style="fill:#dda000;stroke:#dda000;stroke-miterlimit:10;stroke-width:3px"/><path d="M991.59,813.78c-16.17,7.41-18,8-18.34,21.29s8.76,25.28,9.26,38.58c.64,16.77-5.14,31.67-16.28,44.26-14.8,16.74-36,22.88-51.25,37.79a118.73,118.73,0,0,0-13.74,16.08c-2.68,3.78-5.23,7.8-9,10.53a18.79,18.79,0,0,1-24-2.33c-10.35-11.16-11.28-28.22-23-39.34-6.53-6.19-15.4-9.2-22.87-14.23S808.47,912.57,811,903.93c29.35,9.3,36.7-5.17,59.42-20.55s30.61-33.7,38.07-50.49" style="fill:#ffc14d;stroke:#ffc14d;stroke-miterlimit:10;stroke-width:3px"/><path d="M896,917.76c-.47,5.18,3.36,9.6,5.8,14.19,6.76,12.76,3.72,41.55-5.68,52.68-4.89,5.79-27.19,9.65-22.86,20.43,1.56,3.88,5.39,6.23,8.61,8.9s6.19,6.69,5,10.7c-7.38.9-15.71,1.54-21.38-3.26-7.73-6.53-7.2-20.57-16.38-24.84,20.36-24.88-11-37.3-6.4-63.74" style="fill:#ffc14d;stroke:#ffc14d;stroke-miterlimit:10;stroke-width:3px"/><path d="M884.09,881.06c11.44-13.32,15.87-33.61,22.8-49.78,2.11-4.92.43-14.2,2.18-19.26,5.34-15.48,15.74-25.45,23-40,3.25-6.54,20-29,17-35.27,9,18.73,24.53,28.89,43.68,32.62,14.52,2.83,24.89.44,39.2-2.7,1.24-.27-2.78,20.59-4.17,23.2-4.95,9.26-17.64,15.11-26.5,19.76-4.58,2.41-6.91,10.63-5.55,12.52,5.25,7.3-7.55,13.09,3.85,36.2,8.66,17.56-16.86,33.7-29.5,48.65" style="fill:#ffc14d;stroke:#ffc14d;stroke-miterlimit:10;stroke-width:3px"/><path d="M992,866.77c22.51,17.19,28.37-18,43.51-12.41,0,0,8.51-3.37,1.7-6.63-11.26-5.39-53.91,2.24-50.81-10" style="fill:#fff"/><path d="M1039.22,848.77s10.4,5.83,9.24,11.8-15.32-2-15.32-2l-4.35-8" style="fill:#fff"/><path d="M1007.66,855.5a29.2,29.2,0,0,0-.36-6.62c-.71-4-2.77-7.84-4.3-11.61-2-5-3.4-10.4-6-15.15-1.11-2.06-.34-10.12,4.23-12.52,8.86-4.66,21.55-10.5,26.5-19.76,1.39-2.61,5.41-23.47,4.17-23.2-14.25,3.12-24.58,5.5-39,2.74,0,0,0,0,0,0,1.73.85,15.37,7.78,13.92,13.76-1.54,6.38-11.23,10.87-17.14,13.71a52.89,52.89,0,0,1-24.51,5.17,15.28,15.28,0,0,0,8.92,13.75c4,1.75,8.86,1.83,11.38,6a8,8,0,0,1,.8,6.42c-1.84,6.05-9.32,6.67-12.23,11.86a5.89,5.89,0,0,0-.68,4.05c.66,3.15,3.24,3.4,5.34,4.4,4,1.89,6.05,6.5,6.19,10.9.16,5.22-1.94,10.3-3.21,15.28a87.75,87.75,0,0,1-5.28,14.74,93.61,93.61,0,0,1-17.49,25.85c-2.24,2.34-4.65,4.62-6.12,7.51s-1.84,6.6,0,9.26c.73,1,12.24-10.43,13.5-11.36,5.64-4.14,9.6-9.55,13.51-15.25,4.9-7.15,12.32-12,17.26-19a62.78,62.78,0,0,0,9.71-24.3A49.7,49.7,0,0,0,1007.66,855.5Z" style="fill:#fff;stroke:#fff;stroke-miterlimit:10;stroke-width:3px"/><path d="M1026,766.71c-1.54-2.48.75-5.94,3.6-6.55a6,6,0,0,1,6.69,3.34c1,2.52-.5,5.82-3.13,6.45s-5.57-2-5-4.65" style="fill:#0c1238"/><path d="M952.41,745.55c-.78,10.47-2.61,17.12-.27,27.36a8.78,8.78,0,0,0,3.8-9.85l9.68,4.07" style="fill:none;stroke:#f4f6f8;stroke-miterlimit:10"/><path d="M810.73,907.1a8.73,8.73,0,0,0,4.59,3.57c1.61.52,3.62.75,4.33,2.28.87,1.86-1,4.12-.26,6s2.46,1.65,4.16,1.66a55.26,55.26,0,0,1,6.76.44,4.65,4.65,0,0,1,2.67,1c1.79,1.68,2.19,6,3.2,8.19,1.19,2.61,2.27,6.87,4.28,8.95,0,0-5.71-2.63-9.1-4.5-1.64-.91-5.12-3-7.7-4-2.38-1-5.06-4-7-5.84a29.56,29.56,0,0,1-7.87-11.18c-.87-2.13-1-10.08.71-12.42C810.24,900.18,810.69,907,810.73,907.1Z" style="fill:#fff"/><path d="M867.74,1025.4c-5.2-1-9.32-9.62-10.76-13.93-.63-1.88,7.79.42,8.93.16a2.75,2.75,0,0,0,1.9-1.16c.61-1.12-.24-2.43-.83-3.56-1.06-2-2.32-13.37,2-13a11.61,11.61,0,0,0,9.67-4.07c1.64-2,2.79-4.62,5.19-5.51a9,9,0,0,1,4.21-.16c2.19.26,5,1.13,5,3.33,0,1.51-1.32,2.65-2.61,3.45-4.27,2.64-14.95,5-14.64,10.93.39,7.68,6.38,8.8,9.51,11,4.8,3.43,6.48,8.77,3.81,12.54-.25.36-4,.94-4.35,1.19a1.55,1.55,0,0,1-.93.17C871,1026.8,872.34,1026.32,867.74,1025.4Z" style="fill:#fff"/><path d="M1006.13,874.07c1.72-5.38,5.29-23.17,2.64-28.87-10.05-21.57-5.67-17.48-10.41-24.37,2.34,3.26-4.41,9.8-3.05,13.6.93,2.6,4,3.78,5.49,6.09s1.15,5.73-.3,8.23-3.75,4.38-6,6.2l7.54,6.66a18,18,0,0,1,3.77,4.1,6.08,6.08,0,0,1,.65,5.35" style="fill:#e8eaf2;opacity:0.7000000000000001"/><path d="M978.56,898.5c10.3,13,50.75-15.19,50.75-15.19s7.78-4.83.49-6.83c-12-3.3-40.29-21.3-39.43-33.92" style="fill:#fff"/><path d="M1027.65,877.13s11.72-2.22,14.66,3.11-13,8.33-13,8.33l-8.47-3.33" style="fill:#fff"/><path d="M982.63,1027.45c-1.65,0-3.3,0-5-.15a21.55,21.55,0,0,0-2.48,0,10,10,0,0,1-2.48.1c-.83-.06-1.65-.23-2.48-.22s-1.65.06-2.48.08l-5,.37c-.83,0-1.65.1-2.48.08s-1.65-.1-2.48-.17a16.73,16.73,0,0,0-2.48,0c-.83.05-1.65.19-2.48.21-1.65.05-3.3-.11-5-.21s-3.3-.2-5-.19c-.83,0-1.65,0-2.48.09a15.92,15.92,0,0,1-2.48.16c-.83,0-1.65-.3-2.48-.31a4.34,4.34,0,0,0-1.24.12,5.14,5.14,0,0,1-1.24.08c-1.65,0-3.3,0-5-.09s-3.3-.09-5-.08a28.88,28.88,0,0,1-5-.21,12.65,12.65,0,0,0-2.48-.19c-.83,0-1.65.25-2.48.23-1.65,0-3.3-.27-5-.36a47.45,47.45,0,0,0-5,.08c-1.65.1-3.3,0-5,0s-3.3,0-5-.1a30.21,30.21,0,0,0-5,.14c-1.65.15-3.3.25-5,.34s-3.3.13-5,.18c-.83,0-1.65,0-2.48,0l-2.48-.21c-3.3-.16-6.61.5-9.91.39a23.27,23.27,0,0,0-5,0,17.35,17.35,0,0,1-2.48,0c-.83-.06-1.65-.26-2.48-.31-1.65-.17-3.3.25-5-.05a7.94,7.94,0,0,0-2.48,0,9.45,9.45,0,0,1-2.48.15,47.28,47.28,0,0,0-5-.3c-.83,0-1.65.09-2.48.16a16,16,0,0,1-2.48-.06,15.55,15.55,0,0,0-2.48-.09c-.83,0-1.65.16-2.48.22s-1.65.1-2.48.13-1.65.06-2.48,0V1025c.83,0,1.65,0,2.48,0s1.65,0,2.48.08,1.65.16,2.48.16a14.2,14.2,0,0,0,2.48-.18,12.89,12.89,0,0,1,2.48-.12c.83.06,1.65.16,2.48.16a46.13,46.13,0,0,0,5-.4,11.28,11.28,0,0,1,1.24,0,9.77,9.77,0,0,1,1.24.24,5.84,5.84,0,0,0,2.48,0c1.65-.38,3.3.29,5,.15.83,0,1.65-.21,2.48-.26a16.34,16.34,0,0,1,2.48,0,21.43,21.43,0,0,0,5,.09c3.3-.14,6.61.48,9.91.21l2.48-.33,1.24-.08h1.24c1.65,0,3.3,0,5,.08a44.68,44.68,0,0,1,5,.36,17.38,17.38,0,0,0,5,.13,80.89,80.89,0,0,1,9.91-.35c.83.06,1.65.18,2.48.25a17.36,17.36,0,0,0,2.48,0,38,38,0,0,1,5-.59c.83,0,1.65.43,2.48.52a7.82,7.82,0,0,0,2.48-.27,10,10,0,0,1,2.48-.31c.83,0,1.65.08,2.48.12,1.65.11,3.3.12,5,.13l5,.09a4.84,4.84,0,0,1,1.24.13,4.21,4.21,0,0,0,1.24.17c.83,0,1.65-.24,2.48-.23a17.24,17.24,0,0,1,2.48.2,24.5,24.5,0,0,0,2.48.14c3.3.16,6.61,0,9.91,0a38,38,0,0,0,5-.07c.83-.09,1.65-.2,2.48-.21s1.65,0,2.48,0l5,.24c.83,0,1.65.06,2.48,0s1.65-.17,2.48-.24a10.81,10.81,0,0,1,2.48.06,23.1,23.1,0,0,0,2.48,0c1.65-.13,3.3-.14,5-.2Z" style="fill:#0c1238"/><path d="M1651.1,1027.45a12,12,0,0,1-1.68-.15,2,2,0,0,0-.84,0,3.17,3.17,0,0,1-.42.13,1.11,1.11,0,0,1-.42,0,4.1,4.1,0,0,0-.84-.23,5,5,0,0,0-.84.09l-1.68.38a4.94,4.94,0,0,1-.84.08,3.84,3.84,0,0,1-.84-.18,1.77,1.77,0,0,0-.84,0c-.28.06-.56.18-.84.22a5.91,5.91,0,0,1-1.68-.23,7.79,7.79,0,0,0-1.68-.17,2.8,2.8,0,0,0-.84.09,1.93,1.93,0,0,1-.84.17c-.28,0-.56-.29-.84-.32a.57.57,0,0,0-.42.12.62.62,0,0,1-.42.08c-1.12,0-2.24-.21-3.36-.18a3.21,3.21,0,0,1-1.68-.2,1.69,1.69,0,0,0-.84-.2c-.28,0-.56.25-.84.25a8.72,8.72,0,0,1-1.68-.38,5.49,5.49,0,0,0-1.68.1,19,19,0,0,1-3.36-.09,3.45,3.45,0,0,0-1.68.14,12.65,12.65,0,0,1-1.68.33,12,12,0,0,1-1.68.19,3.11,3.11,0,0,1-.84,0l-.84-.21c-1.12-.19-2.24.54-3.36.39a2.64,2.64,0,0,0-1.68,0,1.91,1.91,0,0,1-.84,0c-.28-.08-.56-.26-.84-.32-.56-.16-1.12.26-1.68,0a.91.91,0,0,0-.84,0,1.09,1.09,0,0,1-.84.15,5.49,5.49,0,0,0-1.68-.3,5.35,5.35,0,0,0-.84.16,1.76,1.76,0,0,1-.84-.06,1.89,1.89,0,0,0-.84-.1,7.08,7.08,0,0,0-.84.24,6.57,6.57,0,0,1-1.68.16V1025a7.19,7.19,0,0,1,1.68.07,5.71,5.71,0,0,0,.84.18,1.8,1.8,0,0,0,.84-.19,1.43,1.43,0,0,1,.84-.12,4.14,4.14,0,0,0,.84.17,5.52,5.52,0,0,0,1.68-.4,1,1,0,0,1,.42,0,1.62,1.62,0,0,1,.42.24.72.72,0,0,0,.84,0c.56-.38,1.12.28,1.68.16a8.07,8.07,0,0,0,.84-.28,1.81,1.81,0,0,1,.84,0,2.45,2.45,0,0,0,1.68.09c1.12-.17,2.24.52,3.36.21l.84-.33a2.72,2.72,0,0,1,.84-.1,8.31,8.31,0,0,1,1.68.09,5.32,5.32,0,0,1,1.68.36,2.07,2.07,0,0,0,1.68.13,11.35,11.35,0,0,1,1.68-.33,5.46,5.46,0,0,1,1.68,0,3.1,3.1,0,0,0,1.68.27c.56-.16,1.12-.64,1.68-.6.28,0,.56.45.84.53a1,1,0,0,0,.84-.27,1.31,1.31,0,0,1,.84-.31c.28,0,.56.08.84.12,1.12.23,2.24.08,3.36.21a.63.63,0,0,1,.42.14.61.61,0,0,0,.42.18c.28,0,.56-.24.84-.24a2.15,2.15,0,0,1,.84.21,3.84,3.84,0,0,0,.84.16,33.23,33.23,0,0,0,3.36,0,3.81,3.81,0,0,0,1.68-.06,4,4,0,0,1,.84-.22,5.35,5.35,0,0,1,.84,0c.56.06,1.12.18,1.68.25a5.55,5.55,0,0,0,.84,0,4.86,4.86,0,0,0,.84-.25,1.25,1.25,0,0,1,.84.06,2.17,2.17,0,0,0,.84,0,12.44,12.44,0,0,1,1.68-.2Z" style="fill:#0c1238"/><path d="M820.31,888a23.21,23.21,0,0,1-2.19-3.4c-.49-1.25-1.18-2.4-1.76-3.6-1.15-2.41-1.67-5-2.55-7.39a23.91,23.91,0,0,1-1.21-3.83,13,13,0,0,1-.14-4.12,18.29,18.29,0,0,1,3-7.41l.18-.25.26,0a6.64,6.64,0,0,1,4.36,2,3.64,3.64,0,0,1,.82,2.41,7.75,7.75,0,0,1-.63,2.4,6.72,6.72,0,0,1-.56,1.07,7.93,7.93,0,0,1-.75,1,1.6,1.6,0,0,1-.8.46,2,2,0,0,1-.85,0l-1.14-.29a17.9,17.9,0,0,1-4.44-1.77,9.84,9.84,0,0,1-3.23-3.62c-.86-1.32-1.56-2.71-2.27-4a13.39,13.39,0,0,0-5.33-6.77l.83-1.34a12.64,12.64,0,0,1,3.53,3.33c.49.64.89,1.32,1.32,2a22.85,22.85,0,0,1,1.22,2c.68,1.38,1.29,2.75,2,4A11.46,11.46,0,0,0,812.8,864a11,11,0,0,0,4,1.65l1.07.26c.14,0,.22,0,.21,0s0,0,.05-.07a9.75,9.75,0,0,0,.56-.8,8.09,8.09,0,0,1,.61-.86,2.5,2.5,0,0,0,.65-1.79,2.18,2.18,0,0,0-.72-1.5,6.32,6.32,0,0,0-1.52-1,4.82,4.82,0,0,0-1.92-.59l.85-.41c-1.22,2.19-2.57,4.41-2.53,6.86a9,9,0,0,0,0,3.63,26.84,26.84,0,0,0,1,3.69c.87,2.48,1.9,4.89,2.75,7.31a13.17,13.17,0,0,0,1.58,3.48,21.87,21.87,0,0,0,2.13,3.11Z" style="fill:#0c1238"/><path d="M828,890.53c.1-.55.23-1.1.37-1.64.3-.51.1-1.12.16-1.69a32.43,32.43,0,0,1,.79-3.28c.12-.55.28-1.09.45-1.63s.33-1.08.53-1.61.22-1.1.39-1.64a7.69,7.69,0,0,0,.38-1.64c.1-.55.28-1.09.4-1.64s0-1.15.14-1.69l.5-3.33a11.64,11.64,0,0,0,.46-1.62c.11-.55.16-1.11.32-1.65a5.18,5.18,0,0,0,.43-1.63l.21-1.68,1.54.32-.3,1.66a7,7,0,0,0-.17,1.68,9.52,9.52,0,0,1-.43,1.63c-.18.54-.28,1.09-.43,1.63a10.21,10.21,0,0,0-.65,3.3,1.61,1.61,0,0,1-.25.81,1.27,1.27,0,0,0-.24.81,9.55,9.55,0,0,1-.09,1.7,63.28,63.28,0,0,1-1.8,6.5,13.81,13.81,0,0,0-.55,3.32,4.65,4.65,0,0,0-.38,1.64c-.06.56-.13,1.12-.23,1.67Z" style="fill:#0c1238"/><path d="M811.86,890.14c-.5-.14-1-.31-1.49-.49-.44-.34-1-.21-1.55-.32a21.57,21.57,0,0,1-2.92-1.18,15.13,15.13,0,0,1-1.42-.69c-.46-.24-.92-.5-1.37-.78s-1-.42-1.41-.69a6.69,6.69,0,0,0-1.4-.71c-.47-.22-.91-.51-1.37-.75s-1-.27-1.48-.55c-1-.44-1.88-.92-2.82-1.4a13,13,0,0,0-1.27-.94,10.34,10.34,0,0,1-1.33-.83,4.63,4.63,0,0,0-1.24-1l-1.35-.83,1-1.25a13,13,0,0,0,2.61,1.61,8.11,8.11,0,0,1,1.23.91c.4.33.84.58,1.26.88.21.15.4.33.6.5a3.55,3.55,0,0,0,.67.39c.46.22,1,.38,1.42.61.23.12.49.18.64.43a1.07,1.07,0,0,0,.64.43A7.91,7.91,0,0,1,801,884c1.76,1.07,3.71,1.72,5.46,2.87a10.25,10.25,0,0,0,2.94.93c.48.17.9.55,1.45.52s1,.21,1.5.35Z" style="fill:#0c1238"/></svg>