<?xml version="1.0" encoding="utf-8"?>
<!-- Generator: Adobe Illustrator 19.2.1, SVG Export Plug-In . SVG Version: 6.00 Build 0)  -->
<svg version="1.1" id="Layer_1" xmlns="http://www.w3.org/2000/svg" xmlns:xlink="http://www.w3.org/1999/xlink" x="0px" y="0px"
	 viewBox="0 0 1920 1080" style="enable-background:new 0 0 1920 1080;" xml:space="preserve">
<style type="text/css">
	.st0{fill:#FFFFFF;}
	.st1{fill:none;stroke:#E8EAF2;stroke-width:3;stroke-miterlimit:10;}
	.st2{opacity:0.5;fill:#E8EAF2;stroke:#E8EAF2;stroke-width:3;stroke-miterlimit:10;}
	.st3{fill:#E0E3ED;}
	.st4{fill:#E0E3ED;stroke:#E0E3ED;stroke-width:2;stroke-miterlimit:10;}
	.st5{fill:#F4F6F8;}
	.st6{fill:#E8EAF2;}
	.st7{fill:#E8EAF2;stroke:#E8EAF2;stroke-width:3;stroke-miterlimit:10;}
	.st8{fill:#7581CE;}
	.st9{fill:#2F3155;}
	.st10{fill:#3E4166;}
	.st11{fill:#5053AB;}
	.st12{fill:#0C1238;}
	.st13{fill:none;stroke:#0C1238;stroke-miterlimit:10;}
	.st14{fill:url(#SVGID_1_);}
	.st15{fill:#DDA000;stroke:#DDA000;stroke-width:3;stroke-miterlimit:10;}
	.st16{fill:#FFC14D;stroke:#FFC14D;stroke-width:3;stroke-miterlimit:10;}
	.st17{fill:#FFFFFF;stroke:#FFFFFF;stroke-width:3;stroke-miterlimit:10;}
	.st18{fill:none;stroke:#F4F6F8;stroke-miterlimit:10;}
	.st19{opacity:0.7;fill:#E8EAF2;}
	.st20{fill:none;stroke:#F4F6F8;stroke-width:5;stroke-miterlimit:10;}
	.st21{opacity:0.3;fill:#F4F6F8;stroke:#F4F6F8;stroke-width:5;stroke-miterlimit:10;}
	.st22{opacity:0.3;fill:#0C1238;}
	.st23{fill:#7581CE;stroke:#7581CE;stroke-linecap:round;stroke-miterlimit:10;}
	.st24{opacity:0.3;fill:#7581CE;}
	.st25{fill:#3E4166;stroke:#3E4166;stroke-linecap:round;stroke-linejoin:round;stroke-miterlimit:10;}
	.st26{fill:#0C1238;stroke:#0C1238;stroke-linecap:round;stroke-miterlimit:10;}
	.st27{fill:#0C1238;stroke:#0C1238;stroke-miterlimit:10;}
	.st28{fill:#7581CE;stroke:#7581CE;stroke-width:3;stroke-linejoin:round;stroke-miterlimit:10;}
	.st29{fill:#5053AB;stroke:#5053AB;stroke-width:3;stroke-linejoin:round;stroke-miterlimit:10;}
	.st30{fill:#A3B3EF;stroke:#A3B3EF;stroke-width:3;stroke-linejoin:round;stroke-miterlimit:10;}
	.st31{fill:none;stroke:#7581CE;stroke-linejoin:round;stroke-miterlimit:10;}
	.st32{fill:none;stroke:#1E245E;stroke-width:2;stroke-linecap:round;stroke-miterlimit:10;}
	.st33{fill:#FFC14D;}
	.st34{opacity:0.3;fill:#FFC14D;}
	.st35{fill:#1E245E;}
	.st36{fill:none;stroke:#1E245E;stroke-width:9;stroke-linecap:round;stroke-miterlimit:10;}
	.st37{fill:#FFFFFF;stroke:#1E245E;stroke-width:3;stroke-miterlimit:10;}
	.st38{fill:none;stroke:#D0D4E5;stroke-linejoin:round;stroke-miterlimit:10;}
	.st39{fill:#F4F6F8;stroke:#E0E3ED;stroke-width:3;stroke-linejoin:round;stroke-miterlimit:10;}
	.st40{fill:#F4F6F8;stroke:#E8EAF2;stroke-width:3;stroke-linejoin:round;stroke-miterlimit:10;}
	.st41{fill:#E0E3ED;stroke:#E0E3ED;stroke-miterlimit:10;}
	.st42{fill:none;stroke:#E0E3ED;stroke-width:3;stroke-linejoin:round;stroke-miterlimit:10;}
	.st43{fill:#E0E3ED;stroke:#E0E3ED;stroke-width:3;stroke-linejoin:round;stroke-miterlimit:10;}
	.st44{fill:none;stroke:#FFC14D;stroke-linecap:round;stroke-miterlimit:10;}
	.st45{fill:none;stroke:#E1E5F1;stroke-width:3;stroke-miterlimit:10;}
	.st46{fill:#E1E5F1;}
	.st47{fill:none;}
	.st48{fill:#F4F5F8;}
	.st49{fill:#EAEBF3;}
	.st50{fill:#EAECF5;}
	.st51{fill:#E1E5F1;stroke:#E1E5F1;stroke-width:3;stroke-miterlimit:10;}
	.st52{fill:none;stroke:#E1E5F1;stroke-miterlimit:10;}
	.st53{fill:none;stroke:#0C1238;stroke-width:1.2858;stroke-miterlimit:10;}
	.st54{fill:#FFC14D;stroke:#FFC14D;stroke-width:2;stroke-linejoin:round;stroke-miterlimit:10;}
	.st55{fill:#202E78;}
	.st56{fill:#2D2F61;}
	.st57{fill:#8284C3;}
	.st58{fill:#7376BC;}
	.st59{fill:#666AB6;}
	.st60{fill:#2E3253;}
	.st61{fill:#505274;}
	.st62{fill:none;stroke:#FFC14D;stroke-width:3;stroke-miterlimit:10;}
	.st63{fill:none;stroke:#FFC14D;stroke-width:2;stroke-linejoin:round;stroke-miterlimit:10;}
	.st64{fill:#FFB62D;stroke:#FFB62D;stroke-width:2;stroke-linejoin:round;stroke-miterlimit:10;}
	.st65{fill:#F4F6F8;stroke:#3E4166;stroke-width:3;stroke-linecap:round;stroke-linejoin:round;stroke-miterlimit:10;}
	.st66{fill:#F4F6F8;stroke:#E0E3ED;stroke-width:3;stroke-miterlimit:10;}
	.st67{opacity:0.3;fill:#E8EAF2;stroke:#E8EAF2;stroke-width:3;stroke-miterlimit:10;}
	.st68{fill:#E0E3ED;stroke:#E0E3ED;stroke-width:3;stroke-miterlimit:10;}
	.st69{fill:#F4F6F8;stroke:#E8EAF2;stroke-width:3;stroke-miterlimit:10;}
	.st70{fill:#DEE4F5;}
	.st71{fill:none;stroke:#A3B3EF;stroke-width:2;stroke-miterlimit:10;}
	.st72{fill:#A3B3EF;stroke:#A3B3EF;stroke-width:2;stroke-miterlimit:10;}
	.st73{fill:#7581CE;stroke:#7581CE;stroke-width:2;stroke-miterlimit:10;}
	.st74{opacity:0.3;fill:#5053AB;}
	.st75{fill:none;stroke:#DEE4F5;stroke-miterlimit:10;}
	.st76{fill:#F3F4F7;}
	.st77{fill:none;stroke:#FFC14D;stroke-miterlimit:10;}
	.st78{fill:#7581CE;stroke:#7581CE;stroke-width:3;stroke-miterlimit:10;}
	.st79{opacity:0.5;fill:#E8EAF2;}
	.st80{fill:#A3B3EF;}
	.st81{opacity:0.3;fill:#DEE4F5;}
	.st82{fill:none;stroke:#E0E3ED;stroke-miterlimit:10;}
	.st83{fill:none;stroke:#FFFFFF;stroke-miterlimit:10;}
	.st84{fill:#B0E3E3;}
	.st85{fill:#53C1BD;}
	.st86{fill:none;stroke:#0C1238;stroke-width:3;stroke-miterlimit:10;}
	.st87{fill:#FBFBFC;}
	.st88{fill:#F4F5F8;stroke:#E1E5F1;stroke-width:3;stroke-miterlimit:10;}
	.st89{fill:#F2F4F9;}
	.st90{fill:#EAECF5;stroke:#EAECF5;stroke-width:3;stroke-linecap:round;stroke-miterlimit:10;}
	.st91{fill:#F2F4F9;stroke:#F2F4F9;stroke-width:3;stroke-linecap:round;stroke-miterlimit:10;}
	.st92{fill:none;stroke:#F2F4F9;stroke-width:3;stroke-linecap:round;stroke-miterlimit:10;}
	.st93{opacity:0.5;}
	.st94{fill:#F4F5F8;stroke:#E1E5F1;stroke-width:3;stroke-linecap:round;stroke-miterlimit:10;}
</style>
<g>
	<g>
		<path class="st0" d="M1684.1,878.8c22.4-26.4,32-63.1,25.4-97.1c-3.1-16.1-9.7-31.4-13.6-47.4c-5.4-21.7-5.8-44.6-1.4-66.5
			c2.9-14.2,7.9-28.3,7.5-42.8c-0.4-12.7-4.8-24.9-9.4-36.8c-8.1-21.2-16.7-42.2-25.8-62.9c-3.3-7.5-6.6-15.1-7.3-23.2
			c-0.9-10.3,2.5-20.7,1.5-31c-1.7-17.9-16.1-31.7-24.4-47.7c-10.4-19.9-11-44.6-1.8-65.1c0,0-24,24,1.8,104.6
			s57.8,146.6,46.5,233.4c-12.5,96.4-38.2,168.6-38.2,168.6"/>
		<g>
			<path class="st1" d="M1506.9,355.9c47.2,28.1,97.5,59.7,137.1,98"/>
			<path class="st1" d="M1552.9,359c-2.4,12.3,10.2,22.2,21.4,29c19.1,11.7,38.1,23.3,57.2,35"/>
			<path class="st1" d="M1629.4,440.4c7.6,29.7,20.4,59.4,30.2,88.5c35.7,106.6,30.3,225.1-15,328.5c-2.9,6.6-6,13.2-9.2,19.8"/>
			<path class="st1" d="M1627.4,359.9c1.6,15.1-6.6,41.4-5,57.5"/>
			<path class="st1" d="M1724.5,601.4c0.8,3.2,1.6,6.5,2.4,9.7c21.9,91.7,19.5,176.3-9.7,266.1"/>
			<path class="st1" d="M1757.3,355.8c-23.8,14.4-54.7,17.7-77.3,31.2c-23,13.7-11.4,33.4-4.9,57.4c7.6,28.1,17.1,55.7,26.5,83.3"/>
			<path class="st1" d="M1664.9,370.6c17.1-0.7,34.1-5.5,48.8-13.9"/>
			<path class="st1" d="M1684.6,515c19.5,21.4,51,35.5,80.7,37.7c1.7,0.1,3.5,0.2,4.9-0.7c1.3-0.8,1.9-2.3,2.3-3.6
				c3-8.5-3.6-27.5-5.7-36.2"/>
			<path class="st1" d="M1802.4,515.8c-10.3,12.1-16.3,27.5-16.7,43.1c-17.9,8.2-34.7,18.4-50.2,30.2c-7.6,5.8-14.9,12.2-19.8,20.2
				c-4.8,7.8-7,17-6.3,26"/>
			<path class="st1" d="M1669.4,357.3c-4.8,6.6-4.8,16.3,0.1,22.9"/>
			<path class="st1" d="M1528,354.9c5.4,6.3,11.2,12.8,18.9,15.9c-2.1-6-4.2-12-6.2-18"/>
			<path class="st2" d="M1601.7,158.8c-99.8,4.5-198.9,22.1-293.9,52.1c-22.4,7.1-49.7,24.7-41,45.9c7,17.1,31.2,18.2,50.1,16.9
				c19-1.2,43.6,2.1,47.9,20.1c1.8,7.3-0.8,15.1,0.5,22.6c3.1,19.2,27.3,26.3,47.1,29c89.8,12.5,180.7,17.4,271.4,14.8
				c50.4-1.5,104.2-6.6,143.5-37.2c39.4-30.6,53.7-95.6,15.9-127.9c-18.7-16-44.9-20.4-69.6-23.5c-69.7-8.8-140.1-12.9-210.4-12.3"
				/>
			<path class="st1" d="M1777.1,508.8c1.8,5.3,3.5,10.5,5.3,15.8c3.2-5.8,7.2-11.2,11.9-15.9"/>
			<path class="st2" d="M1769.6,475.6c-16.7,1.8-33.2,5.6-49,11.4c-7.1,2.6-14.9,6.5-16.6,13.5c-2.1,8.9,7.5,17,17.1,18.2
				s19.1-2,28.6-3.5c34.4-5.4,69.9,11.9,103.8,4.2c7.9-1.8,15.8-5.1,21.1-11c5.3-5.9,7.5-14.6,3.9-21.5c-4.9-9.4-17.5-12-28.5-13.1
				c-24.2-2.4-48.6-3.1-72.9-1.9c-7,0.3-14.9,1.2-19.4,6.3"/>
		</g>
		<path class="st1" d="M1355.4,282c12.6,10.7,3.5,33.6,14.3,46.1c4.3,5,10.9,7.2,17.2,9.1c27.1,8.1,54.8,13.7,82.9,16.9
			c24.8,2.8,49.8,3.7,74.8,4.5c66.4,2.3,133,4.5,199-3.1c23.8-2.7,48-6.9,69.4-17.6s38.5-28.2,44.9-51.4"/>
		<path class="st1" d="M1705,503.2c1.1,13.2,17.6,19.7,30.8,17.7c13.1-2,25.1-9.2,38.3-10.9c14.1-1.8,28.2,3,41.7,7.6
			c13.5,4.6,23.8,6.7,37.9,4.6c14.1-2.1,27.9-13.3,28-27.5"/>
	</g>
	<g>
		<path class="st3" d="M174.3,876.2c0,0,27,0.1,74.3,0.3c11.8-0.1,24.9-0.3,39.2-0.1c7.1,0.1,14.5,0.2,22.2,0.2
			c7.7,0,15.7-0.1,23.9-0.1c16.5-0.1,34-0.3,52.5-0.4c9.2-0.1,18.7-0.1,28.4-0.2c9.7,0,19.6,0.1,29.8,0.2c5.1,0,10.2,0.1,15.4,0.1
			c5.2,0,10.4-0.1,15.7-0.1c10.5-0.1,21.3-0.1,32.2-0.2c21.9,0.2,44.4,0.3,67.7,0.5c23.2,0,47.1,0.1,71.5-0.2c6.1,0,12.2-0.1,18.4,0
			c6.2,0.1,12.4,0.2,18.6,0.3c6.2,0.1,12.5,0,18.8-0.1c6.3-0.1,12.6-0.1,18.9-0.1c25.3,0.1,51.1,0.1,77.2,0.2c13,0,26.2,0,39.3,0
			c6.6,0,13.2,0,19.8,0c6.6,0.1,13.3,0.2,19.9,0.3c6.7,0.1,13.3,0.2,20,0.2c3.3,0,6.7,0,10,0c3.3-0.1,6.7-0.1,10-0.2
			c13.4-0.3,26.8,0,40.3,0.1c13.5,0.1,26.9,0.3,40.4,0.3c13.5,0,27-0.1,40.5-0.1c13.5-0.1,27,0,40.5,0c13.5,0,27,0,40.4,0
			c13.5,0,26.9,0.1,40.3,0.1c13.4,0.1,26.7-0.1,40.1-0.2c26.6-0.3,53-0.5,79.1-0.6c13,0,26-0.1,38.9-0.1c6.4,0,12.8,0.1,19.2,0.1
			c6.4,0.1,12.7,0.1,19.1,0.2c6.3,0.1,12.6,0.1,18.9,0.1c6.3,0,12.5-0.1,18.8-0.1c12.4-0.1,24.8-0.2,37-0.3c6.1,0,12.2-0.1,18.2-0.1
			c6-0.1,12-0.1,18,0c11.9,0,23.7,0.3,35.3,0.1c23.2-0.1,45.8-0.4,67.7,0.1c21.9,0.5,43-0.2,63.2,0.2c20.3,0.5,39.7-0.6,58.2-0.1
			c9.2,0.1,18.2,0.2,27,0.2c8.7,0,17.2,0.1,25.5,0.1c8.2-0.1,16.2-0.1,23.9-0.2c3.8,0,7.6,0,11.3-0.1c3.7,0,7.3,0.1,10.9,0.1
			c14.3,0.1,27.3,0.3,39.2,0.1c11.8-0.1,22.4-0.2,31.6-0.3c9.2,0,17,0,23.3-0.1c12.7,0,19.4-0.1,19.4-0.1v3.2c0,0-6.8,0-19.4,0
			c-6.3,0-14.1,0-23.3,0c-9.2-0.1-19.7-0.1-31.6-0.2c-11.8-0.2-24.9,0.1-39.2,0.2c-3.6,0-7.2,0.1-10.9,0.1c-3.7,0-7.5,0-11.3-0.1
			c-7.7-0.1-15.7-0.1-23.9-0.2c-16.5,0-34,0.2-52.5,0.5c-9.2,0.1-18.7,0.2-28.4-0.2c-9.7-0.3-19.6-0.4-29.8-0.1
			c-20.3,0.5-41.4-0.6-63.2-0.1c-21.9,0.5-44.4,0.2-67.7,0c-2.9,0-5.8,0-8.7-0.1c-2.9,0-5.9,0-8.8,0c-5.9,0-11.8,0.1-17.8,0.1
			c-6,0.1-12,0-18,0c-6,0-12.1-0.1-18.2-0.1c-12.2-0.1-24.5-0.1-37-0.2c-6.2,0-12.5,0-18.8-0.1c-6.3,0.1-12.6,0.1-18.9,0.2
			c-6.3,0.1-12.7,0.2-19.1,0.3c-6.4,0.1-12.8,0.1-19.2,0.1c-12.9,0-25.8,0-38.9,0c-26.1-0.1-52.5-0.2-79.1-0.6
			c-26.6-0.6-53.4-0.1-80.3,0.1c-26.9,0.2-53.9,0.4-81,0.2c-13.5-0.1-27-0.4-40.5-0.4c-3.4,0-6.7,0-10.1,0l-10.1,0.1
			c-6.7,0.1-13.5,0.3-20.2,0.4c-6.7,0.2-13.5,0.2-20.2,0.3c-3.4,0.1-6.7,0-10.1,0c-3.4,0-6.7-0.1-10.1-0.3
			c-13.4-0.6-26.7-0.5-40.1-0.1c-6.7,0.2-13.3,0.3-19.9,0.4c-6.6,0-13.2,0-19.8,0c-13.2-0.1-26.3-0.2-39.3-0.2
			c-26.1,0-51.8-0.1-77.2-0.1c-6.3,0-12.6,0-18.9-0.2c-6.3-0.2-12.5-0.3-18.8-0.2c-6.2,0.1-12.4,0.2-18.6,0.3
			c-6.2,0.1-12.3,0-18.4-0.1c-24.4-0.4-48.2-0.4-71.5-0.5c-23.2,0-45.8,0.1-67.7,0.1c-10.9,0-21.7,0-32.2-0.1c-5.3,0-10.5,0-15.7,0
			c-5.2,0.1-10.3,0.1-15.4,0.2c-10.1,0.1-20.1,0.2-29.8,0.3c-9.7,0-19.2-0.1-28.4-0.1c-18.5-0.1-36-0.2-52.5-0.2
			c-8.2,0-16.2-0.1-23.9-0.1c-7.7,0.1-15.1,0.1-22.2,0.2c-14.3,0.3-27.3,0.1-39.2,0c-47.3,0.2-74.3,0.4-74.3,0.4V876.2z"/>
	</g>
	<g>
		<path class="st4" d="M1151.8,827.3c-3.2,13.3-6.5,26.6-9.7,39.9c-0.6,2.7-1.2,5.7,0.1,8c1.3,2.1,3.8,3,6.1,3.7
			c21.9,6.9,46.2,13.7,67,3.7c4.9-2.4,9.4-5.7,14.3-8c8.5-4.1,18-5.3,27.4-5.9c24.4-1.4,49.1,1.8,72.5,9.2
			c31.5,10.1,53.6,17,85.8,6.2c-32-116.9-65.7-244.2-141-331.3c-12.6-14.5-28.3-29.2-45.6-26.1"/>
		<path class="st5" d="M1052.2,900.8c28.1-68.7,58.4-136.6,90.8-203.6c27.4-56.8,53.1-118.8,87.7-171.6c-2.4,3.7,1.3,35.6-0.9,43.8
			c-17.9,65-31,131.3-38.3,198.3c-3.6,33.4-6,67.1-6.4,100.8c-0.3,21.5,2.1,25.5-19,32.6c-10.1,3.4-19.4,6.8-30.2,6.7"/>
		<path class="st2" d="M1052.2,900.8c28.1-68.7,58.4-136.6,90.8-203.6c27.4-56.8,53.1-118.8,87.7-171.6c-2.4,3.7,1.3,35.6-0.9,43.8
			c-17.9,65-31,131.3-38.3,198.3c-3.6,33.4-6,67.1-6.4,100.8c-0.3,21.5,2.1,25.5-19,32.6c-10.1,3.4-19.4,6.8-30.2,6.7"/>
		<g>
			<path class="st5" d="M1235.5,521.3c-8.3,47.8-0.8,112.7,1.7,160.5c2.9,54.7-0.7,109.7-10.7,163.6c-3.2,17.4-7.2,34.7-8.8,52.3
				c-0.3,3.1-0.5,6.4,1.2,9c1.8,2.8,5.2,4.2,8.5,5.1c27.8,7.7,73.4-18.5,96.8-3.7c5.3,3.4,28.7-2.4,35.7-3.1"/>
			<path class="st3" d="M1236.7,521.5c0,0-0.3,2.1-0.9,5.9c-0.2,1-0.3,2-0.5,3.2c-0.1,1.2-0.3,2.5-0.5,3.9c-0.2,1.4-0.4,2.9-0.6,4.5
				c-0.2,1.6-0.3,3.3-0.5,5.1c-0.1,1.8-0.2,3.7-0.3,5.7c0,2-0.2,4.1-0.4,6.3c-0.1,2.2-0.4,4.5-0.4,6.8c-0.1,2.4,0,4.8,0,7.3
				c0.1,5.1,0.2,10.4,0.4,16.1c0.1,1.4,0.1,2.9,0.2,4.3c0.1,1.5,0.2,2.9,0.2,4.4c0.1,3,0.1,6,0.2,9.1c0,6.2,0.8,12.7,1.2,19.4
				c0.3,6.7,0.7,13.7,1,20.8c0.5,7.1,0.9,14.5,1.6,21.9c0.2,1.9,0.3,3.8,0.4,5.7c0.1,1.9,0,3.8,0.1,5.7c0,1.9,0.2,3.8,0.4,5.8
				c0.2,1.9,0.2,3.9,0.3,5.8c0.2,3.9,0.2,7.8,0.3,11.8c0,4,0.1,8,0.1,12c0,4,0,8.1,0,12.1c0,2-0.1,4.1-0.1,6.1
				c-0.1,2-0.2,4.1-0.4,6.1c-0.3,4.1-0.5,8.2-0.5,12.3c0.1,4.1-0.4,8.3-0.7,12.4c-0.3,4.1-0.8,8.3-1.1,12.4c-0.4,4.1-0.6,8.3-1,12.4
				c-0.3,4.2-0.8,8.3-1.3,12.4c-0.5,4.1-1,8.3-1.6,12.4c-1.2,8.2-2.6,16.3-3.7,24.5c-1.2,8.1-2.6,16.1-4,24
				c-0.7,3.9-1.5,7.9-2.1,11.8c-0.7,3.9-1.4,7.7-2.1,11.6c-0.4,1.9-0.6,3.8-0.9,5.7c-0.3,1.9-0.4,3.8-0.6,5.7
				c-0.2,1.9-0.4,3.8-0.4,5.6c0,1.8,0.3,3.5,1.1,4.9c0.1,0.2,0.2,0.4,0.3,0.5c0.1,0.2,0.3,0.4,0.4,0.5c0.2,0.3,0.5,0.6,0.8,0.8
				c0.6,0.5,1.3,1,2.1,1.4c1.5,0.8,3.2,1.3,4.9,1.7c0.9,0.2,1.8,0.5,2.6,0.7c0.9,0.1,1.7,0.3,2.6,0.4c0.9,0.1,1.7,0.2,2.6,0.3
				c0.9,0,1.8,0,2.6,0.1c7,0,13.8-1.2,20.5-2.1c6.7-0.8,12.9-2.8,19.1-3.8c1.5-0.3,3.1-0.6,4.6-0.8c1.5-0.3,3-0.6,4.4-1
				c2.9-0.7,5.8-1.1,8.7-1.4c1.4-0.2,2.8-0.2,4.2-0.3c1.4,0,2.8-0.1,4.1-0.1c2.7-0.1,5.4,0.2,7.9,0.5c2.6,0.3,5,0.8,7.3,1.7
				c0.6,0.2,1.1,0.5,1.7,0.7c0.5,0.2,1.1,0.4,1.6,0.7c0.5,0.3,1,0.6,1.5,0.9l0.3,0.2l0.4,0.2c0.3,0.1,0.4,0.2,0.6,0.3
				c0.9,0.3,1.9,0.4,2.9,0.5c1,0.1,2,0.1,3,0.1c2,0,3.9-0.3,5.7-0.5c3.6-0.5,6.8-1.2,9.5-1.7c2.8-0.5,5.1-1,7.1-1.3
				c3.8-0.7,6-0.9,6-0.9l0.2,2.4c0,0-0.5,0-1.5,0.2c-1,0.1-2.4,0.4-4.4,0.7c-1.9,0.3-4.3,0.8-7.1,1.2c-2.8,0.5-6,0.9-9.7,1.3
				c-1.8,0.2-3.8,0.3-5.8,0.5c-1,0.1-2.1,0.1-3.2,0.1c-1.1,0-2.2-0.1-3.5-0.4c-0.3-0.1-0.8-0.2-1-0.4l-0.4-0.2l-0.4-0.2
				c-0.5-0.3-0.9-0.5-1.4-0.8c-0.5-0.3-1-0.5-1.5-0.7c-0.5-0.2-1-0.5-1.5-0.7c-2.1-0.8-4.4-1.4-6.9-1.8c-4.9-0.7-10.2-0.4-15.8,0.5
				c-5.5,1-11.5,1-17.6,2.8c-6,1.6-12.5,2.3-19.1,3.9c-3.3,0.7-6.7,1.5-10.2,1.8c-3.5,0.4-7.1,0.6-10.7,0.4
				c-0.9-0.1-1.8-0.1-2.7-0.2c-0.9-0.1-1.8-0.1-2.8-0.2c-0.9-0.1-1.9-0.3-2.8-0.4c-0.9-0.1-1.8-0.4-2.7-0.6c-1.9-0.4-3.7-1.1-5.5-2
				c-0.9-0.5-1.7-1.1-2.5-1.8c-0.4-0.4-0.7-0.7-1.1-1.2c-0.2-0.2-0.3-0.4-0.4-0.6c-0.2-0.3-0.3-0.5-0.4-0.7c-1-1.9-1.2-4.1-1.1-6
				c0-2,0.3-3.9,0.5-5.8c0.2-1.9,0.5-3.8,0.7-5.8c0.2-1.9,0.5-3.9,0.7-5.8c0.2-1.9,0.5-3.9,0.7-5.9c0.3-2,0.6-3.9,0.9-5.9
				c0.7-3.9,1.5-7.8,2.2-11.8c0.8-3.9,1.6-7.9,2.4-11.9c0.8-4,1.6-8,2.5-12c0.8-4,1.6-8,2.2-12.1c0.5-4.1,1-8.2,1.5-12.3
				c1-8.2,1.8-16.5,2.7-24.7c0.3-2.1,0.5-4.1,0.8-6.2l0.4-3.1l0.3-3.1c0.2-2.1,0.2-4.1,0.4-6.2c0.1-2.1,0.1-4.1,0.1-6.2
				c0-2.1,0.1-4.1,0.2-6.2c0.1-2.1,0.2-4.1,0.5-6.2c0.3-2,0.5-4.1,0.6-6.1c0-1,0-2.1,0-3.1l-0.1-3.1c-0.2-4.1-0.2-8.2,0-12.2
				c0.1-4,0.1-8.1,0.2-12.1c-0.1-8-0.2-15.9-0.5-23.7c-0.1-1.9-0.2-3.9-0.2-5.8c0.1-1.9,0.1-3.8-0.1-5.8c-0.1-1.9-0.4-3.8-0.5-5.7
				c-0.2-1.9-0.2-3.8-0.3-5.6c-0.2-7.5-0.7-14.8-1.1-22c-0.5-7.1-1-14.1-1.4-20.8c-0.2-3.4-0.3-6.7-0.5-9.9
				c-0.1-1.6-0.2-3.2-0.2-4.8c-0.1-1.6-0.2-3.2-0.3-4.7c-0.5-6.2-0.7-12.2-0.7-17.9c-0.1-5.7,0-11.1,0-16.2c0.1-2.5,0.2-5,0.2-7.4
				c0-2.4,0-4.7,0.1-6.9c0.1-2.2,0-4.3,0.2-6.3c0.2-2,0.4-3.9,0.5-5.7c0.2-3.6,0.5-6.9,0.8-9.7c0.1-1.4,0.3-2.7,0.4-3.9
				c0.2-1.2,0.3-2.3,0.5-3.2c0.5-3.9,0.8-5.9,0.8-5.9L1236.7,521.5z"/>
		</g>
		<g>
			<path class="st3" d="M1568.4,527.9c0,0,1.2,1.4,3.5,4.1c1.1,1.3,2.6,3,4.2,4.9c1.6,1.9,3.5,4.2,5.6,6.7c2.2,2.4,4.7,5,7.1,8.2
				c1.3,1.5,2.5,3.2,3.9,4.8c1.4,1.6,2.9,3.2,4.4,5c3,3.4,6.2,7,9.6,10.9c1.7,1.9,3.4,3.9,5.2,5.9c1.7,2,3.4,4.2,5.2,6.4
				c3.4,4.5,7.5,8.6,11.4,13.3c3.8,4.7,7.7,9.6,11.7,14.6c4.1,4.9,8.2,10.1,12.8,15.1c1.1,1.3,2.2,2.6,3.3,3.9c1,1.3,2,2.8,3.1,4.1
				c1,1.4,2.2,2.7,3.4,3.9c1.2,1.3,2.3,2.6,3.4,4c4.4,5.4,8.9,10.9,13.5,16.5c2.3,2.8,4.6,5.6,7,8.4c1.2,1.4,2.3,2.8,3.5,4.2
				c1.1,1.4,2.2,2.9,3.4,4.4c2.2,3,4.5,5.8,7.1,8.5c2.5,2.7,4.8,5.7,7.1,8.6s4.6,5.9,7,8.7c2.4,2.9,4.8,5.7,7.3,8.5
				c2.5,2.8,4.8,5.7,7.2,8.6c2.4,2.9,4.8,5.7,7.2,8.6c4.7,5.8,9.4,11.5,14.4,17c4.9,5.5,9.7,11,14.5,16.4
				c4.7,5.5,9.5,10.7,13.8,16.3c1.1,1.4,2.2,2.7,3.4,4c1.1,1.3,2.3,2.6,3.5,3.9c2.3,2.6,4.6,5.1,6.9,7.6c2.3,2.5,4.6,4.9,6.7,7.4
				c2.1,2.5,4.2,5.1,6.4,7.4c2.2,2.4,4.3,4.7,6.4,7c2.2,2.3,4.1,4.7,6,7c3.8,4.7,8.2,8.6,11.7,13c0.9,1.1,1.9,2.1,2.8,3.1
				c0.9,1,1.9,1.9,2.9,2.9c1,0.9,1.9,1.8,2.8,2.8c0.9,1,1.8,1.9,2.6,2.8c3.5,3.8,6.7,7.3,10,10.5c1.6,1.6,3.2,3.1,4.8,4.6
				c0.8,0.7,1.5,1.4,2.3,2.1c0.7,0.7,1.4,1.4,2.1,2.1c2.8,2.8,5.4,5.3,7.9,7.4c2.4,2.2,4.7,4,6.7,5.6c1,0.8,1.9,1.6,2.7,2.3
				c0.8,0.7,1.6,1.3,2.3,1.8c1.4,1.1,2.4,1.9,3.1,2.5c0.7,0.6,1.1,0.8,1.1,0.8l-1.4,1.9c0,0-1.5-1.2-4.2-3.4
				c-0.7-0.6-1.5-1.2-2.3-1.8c-0.8-0.7-1.7-1.5-2.7-2.3c-1.9-1.7-4.1-3.7-6.5-5.9c-2.4-2.3-5.1-4.6-8.1-7.3c-3-2.6-5.9-5.7-9.1-9
				c-3.2-3.2-6.7-6.6-10.4-10.1c-3.9-3.4-6.7-8.1-10.9-11.8c-4.1-3.9-7.5-8.7-11.8-12.9c-4.4-4.2-8.4-9-12.5-13.9
				c-1-1.2-2.1-2.5-3.2-3.6c-1.1-1.2-2.2-2.4-3.3-3.6c-1.1-1.2-2.2-2.5-3.3-3.7c-1.1-1.3-2.2-2.5-3.3-3.8c-2.2-2.6-4.4-5.2-6.6-7.8
				c-2.2-2.6-4.5-5.3-6.9-7.8c-1.2-1.3-2.4-2.6-3.6-3.8c-1.2-1.3-2.4-2.6-3.6-4c-2.3-2.7-4.6-5.4-7-8.2c-4.6-5.5-9.3-11.1-13.8-17
				c-2.2-2.9-4.5-5.8-7-8.6c-2.5-2.8-5-5.5-7.4-8.3c-4.9-5.6-9.8-11.3-14.5-17.1c-2.3-2.9-4.5-5.9-7-8.8c-1.2-1.5-2.4-2.8-3.7-4.2
				l-3.8-4.1c-1.3-1.4-2.5-2.8-3.7-4.2c-1.2-1.4-2.4-2.9-3.4-4.4c-2-3.1-4.5-5.9-7-8.6c-2.6-2.6-5-5.4-7.2-8.3
				c-2.3-2.8-4.6-5.7-6.8-8.5c-4.6-5.6-9.1-11.1-13.6-16.5c-1.1-1.4-2.2-2.7-3.3-4.1c-1-1.4-2-2.8-3.2-4.1c-1.1-1.3-2.3-2.5-3.4-3.8
				c-1.1-1.3-2.2-2.6-3.2-3.9c-4.1-5.4-8.3-10.4-12.4-15.4c-4.1-4.9-8.2-9.7-12.1-14.3c-1.9-2.3-3.8-4.6-5.7-6.9
				c-0.9-1.1-1.9-2.2-2.8-3.3c-1-1.1-1.9-2.1-2.8-3.2c-1.9-2.1-3.7-4.1-5.5-6.2c-1.7-2.1-3.4-4.1-5-6c-3.3-3.9-6.4-7.7-9.3-11.2
				c-1.5-1.7-2.9-3.5-4.3-5.1c-1.4-1.6-2.8-3.1-4.1-4.6c-2.7-2.9-5-5.7-7.1-8.2c-2.2-2.5-4.1-4.6-5.8-6.5c-1.7-1.9-3.1-3.5-4.3-4.8
				c-2.3-2.6-3.6-4-3.6-4L1568.4,527.9z"/>
		</g>
		<g>
			<path class="st3" d="M1880.2,874.3c4.3,2.7,9.4,3.9,14,3.3c-1.1-4.1-5.4-7.5-9.7-8.7c-4.3-1.3-8.7-0.9-12.8-0.2
				c1.2,2.4,2.4,4.9,3.6,7.3c2.6-0.3,5.5-0.1,8.2,0.7c-3.4,8.9-6.9,17.9-10.3,26.8"/>
			<path class="st3" d="M1880.8,873.3l0.8,0.5l0.7,0.4c0.5,0.3,1,0.5,1.6,0.7c0.5,0.2,1.1,0.4,1.6,0.7c0.3,0.1,0.5,0.2,0.8,0.3
				c0.3,0.1,0.6,0.2,0.9,0.2c0.6,0.1,1.2,0.1,1.7,0.2c0.3,0,0.6,0,0.9,0c0.3,0,0.6,0,0.9,0c0.6,0,1.1,0,1.7,0c0.6,0,1.1-0.1,1.7-0.1
				l-1.2,1.8l-0.2-0.7l-0.3-0.7c-0.2-0.4-0.4-0.9-0.7-1.3c-0.3-0.4-0.6-0.8-0.9-1.2c-0.3-0.4-0.7-0.7-1.1-1.1
				c-0.4-0.3-0.8-0.7-1.2-1c-0.4-0.3-0.8-0.6-1.3-0.8c-0.9-0.5-1.8-1-2.8-1.4c-0.4-0.2-1-0.4-1.5-0.5c-0.5-0.1-1-0.3-1.5-0.4
				c-0.5-0.1-1-0.2-1.6-0.3c-0.5-0.1-1.1-0.1-1.6-0.1c-2.1,0.1-4.3,0.1-6.5,0.4l0.5-0.9l1,1.8c0.3,0.6,0.6,1.2,0.9,1.8
				c0.6,1.2,1.2,2.5,1.8,3.7l-0.6-0.3c0.4,0,0.7-0.1,1.1-0.1c0.4,0,0.7-0.1,1.1-0.2c0.7-0.1,1.4-0.1,2.2-0.1
				c1.4,0.1,2.9,0.3,4.3,0.7l1.1,0.3l-0.4,1.1c-0.4,1.1-0.8,2.3-1.2,3.4c-0.4,1.1-0.8,2.3-1.2,3.4l-1.4,3.3
				c-0.3,0.5-0.4,1.1-0.6,1.7l-0.6,1.7c-0.4,1.1-0.8,2.3-1.3,3.4l-0.8,1.6c-0.2,0.5-0.5,1.1-0.7,1.7c-0.4,1.1-0.8,2.3-1.2,3.4
				l-1.2,3.4l-2.2-0.8l2.5-6.7c0.2-0.6,0.4-1.1,0.6-1.7l0.5-1.7c0.4-1.1,0.9-2.2,1.3-3.3c0.5-1.1,1-2.2,1.4-3.3l1.3-3.3
				c0.5-1.1,1-2.2,1.5-3.3c0.2-0.6,0.4-1.1,0.6-1.7c0.2-0.6,0.4-1.1,0.6-1.7l0.8,1.5c-1.3-0.3-2.6-0.4-3.9-0.5c-0.6,0-1.3,0-1.9-0.2
				c-0.3-0.1-0.7-0.1-1-0.1c-0.3,0-0.7,0-1,0.1l-0.7,0.1l-0.4-0.7c-0.3-0.6-0.7-1.2-1-1.8c-0.4-0.6-0.7-1.2-1.1-1.7
				c-0.3-0.6-0.7-1.2-1-1.8c-0.1-0.3-0.3-0.6-0.4-1c-0.1-0.3-0.2-0.6-0.4-1l-0.7-1.7l1.7-0.2c0.6-0.1,1.1-0.2,1.7-0.2
				c0.6-0.1,1.1-0.2,1.7-0.2c1.1-0.1,2.3-0.2,3.4-0.1c0.6,0,1.2,0.1,1.7,0.1c0.6,0,1.2,0,1.8,0c0.6,0,1.2,0.1,1.8,0.3
				c0.6,0.2,1,0.3,1.7,0.6c0.5,0.3,1.1,0.5,1.6,0.8c0.5,0.3,1.1,0.5,1.6,0.8c0.5,0.3,1,0.7,1.4,1c0.4,0.4,0.9,0.8,1.3,1.2
				c0.2,0.2,0.4,0.4,0.6,0.6l0.6,0.7c0.4,0.4,0.7,0.9,1.1,1.4c0.3,0.5,0.7,1,1,1.5l0.4,0.8l0.3,0.9l0.4,0.9l-1.1,0.2
				c-0.6,0.1-1.3,0.2-1.9,0.2c-0.6,0-1.3,0-1.9,0c-1.3-0.1-2.5-0.4-3.8-0.7c-0.3-0.1-0.6-0.2-0.9-0.2c-0.3-0.1-0.6-0.1-0.9-0.2
				c-0.6-0.1-1.2-0.4-1.8-0.6c-0.6-0.2-1.2-0.5-1.8-0.8l-0.9-0.4l-0.8-0.5L1880.8,873.3z"/>
		</g>
		<g>
			<path class="st3" d="M1213.9,516.8c0,0,1.5,0.1,4.2,0.2c1.4,0.1,3.1,0.1,5.1,0.3c2,0.1,4.3,0.4,6.8,0.5c1.3,0,2.6-0.1,4.1-0.2
				c1.4,0,2.9,0.1,4.4,0.3c1.5,0.2,3.1,0.5,4.8,0.5c1.7,0.1,3.4,0,5.2,0c3.6,0,7.4-0.2,11.4-0.3c2,0,4.1,0,6.2,0
				c2.1,0,4.3,0.4,6.4,0.6c1.1,0.2,2.2,0.2,3.3,0.3c1.1,0,2.3,0,3.4,0c2.3-0.1,4.6-0.3,7-0.1c4.7,0.2,9.6,0.9,14.7,1.2
				c2.5,0.1,5.1,0.3,7.7,0.3c1.3,0,2.6,0.1,3.9,0c1.3,0,2.6-0.2,4-0.2c1.3,0,2.7-0.1,4,0.1c1.3,0.2,2.7,0.5,4,0.7
				c0.7,0.1,1.3,0.1,2,0.1c0.7,0,1.4-0.1,2-0.2c1.4-0.2,2.7,0,4.1,0c5.5,0.2,11.1,0.5,16.7,0.8c2.8,0.1,5.7,0.2,8.5,0.2
				c1.4,0,2.9,0,4.3,0.1c1.4,0.1,2.9,0.3,4.3,0.5c2.9,0.5,5.8,0.7,8.7,0.3c1.5-0.1,2.9-0.2,4.4-0.1c1.5,0.1,2.9,0.2,4.4,0.4l4.4,0.5
				c1.5,0.1,2.9,0.3,4.4,0.3c2.9,0.1,5.9,0,8.8,0c5.9,0,11.7,0.2,17.6,0.4c2.9,0.1,5.8,0.3,8.7,0.5c2.9,0.1,5.8,0,8.7-0.2
				c2.9-0.2,5.8-0.3,8.6-0.3c2.9-0.1,5.7-0.1,8.5-0.2c5.7-0.1,11.3-0.2,16.8,0.6c1.4,0.1,2.7,0.2,4.1,0.2c1.4,0,2.7,0,4.1,0
				c2.7-0.1,5.4-0.2,8-0.4c1.3-0.1,2.6-0.1,4-0.1c1.3,0,2.6-0.1,3.9,0c1.3,0.1,2.6,0.3,3.9,0.4c1.3,0.1,2.5,0.1,3.8,0.1
				c2.5,0,5-0.3,7.5-0.2c1.2,0,2.4,0,3.6,0.2c1.2,0.1,2.4,0.3,3.6,0.5c4.7,0.8,9.3-0.2,13.7,0.5c2.2,0.3,4.4,0.4,6.5,0
				c2.1-0.3,4.2-0.2,6.2-0.1c4,0.4,7.8,0.7,11.4,0.7c1.8,0,3.5-0.2,5.2-0.2c0.8,0,1.7,0,2.5,0c0.8,0,1.6,0.1,2.4,0.1
				c1.5,0.1,3,0.3,4.4,0.3c1.4,0.1,2.8,0,4.1,0c1.3-0.1,2.5-0.2,3.6-0.3c1.1-0.1,2.2-0.2,3.2-0.2c2,0,3.7-0.1,5.1-0.1
				c1.4,0,2.4,0,3.1,0c0.7,0,1.1,0,1.1,0l0,4.8c0,0-0.4,0-1.1,0c-0.7,0-1.8,0-3.1,0c-1.4,0-3.1-0.1-5.1-0.1c-1,0-2.1-0.1-3.2-0.2
				c-1.1-0.1-2.4-0.2-3.6-0.3c-1.3,0-2.6-0.1-4.1,0c-1.4,0.1-2.9,0.3-4.5,0.4c-0.8,0.1-1.6,0.1-2.4,0.1c-0.8,0-1.6,0-2.5-0.1
				c-1.7-0.1-3.4-0.3-5.2-0.4c-1.8-0.1-3.6,0-5.5,0.1c-1.9,0.1-3.9,0.3-5.9,0.4c-2,0.1-4.1,0.2-6.2-0.4c-2.1-0.5-4.3-0.6-6.5-0.3
				c-4.4,0.8-9-1-13.7-0.4c-1.2,0.1-2.4,0.2-3.6,0.3c-1.2,0.1-2.4,0-3.6,0c-2.5-0.1-4.9-0.4-7.5-0.6c-1.3-0.1-2.5-0.2-3.8-0.1
				c-1.3,0-2.6,0.2-3.9,0.2c-1.3,0-2.6,0-3.9-0.1c-1.3-0.1-2.6-0.1-3.9-0.2c-2.6-0.2-5.3-0.4-8-0.5c-1.4,0-2.7-0.1-4.1-0.1
				c-1.4,0-2.7,0.1-4.1,0.2c-5.5,0.7-11.1,0.5-16.8,0.3c-2.8-0.1-5.7-0.3-8.5-0.5s-5.7-0.4-8.6-0.8c-1.4-0.2-2.9-0.4-4.3-0.5
				c-1.4-0.1-2.9-0.1-4.4-0.1c-1.5,0.1-2.9,0.1-4.4,0.2c-1.5,0.1-2.9,0.1-4.4,0.2c-5.9,0.1-11.7,0.3-17.6-0.1
				c-1.5-0.1-2.9-0.4-4.4-0.5c-1.5-0.2-2.9-0.3-4.4-0.4c-1.5-0.1-2.9,0-4.4,0.1l-4.4,0.5c-1.5,0.2-2.9,0.3-4.4,0.3
				c-1.5,0.1-2.9-0.1-4.4-0.6c-1.4-0.4-2.9-0.8-4.3-0.8c-1.4,0-2.9,0.2-4.4,0.4c-1.5,0.3-2.9,0.5-4.3,0.5c-1.4,0.1-2.9-0.1-4.3-0.2
				c-2.9-0.2-5.7-0.4-8.5-0.6c-5.7-0.2-11.3-0.4-16.8-0.7c-1.4-0.1-2.7-0.1-4.1-0.4c-0.7-0.1-1.4-0.3-2-0.4c-0.7-0.1-1.4-0.1-2-0.1
				c-1.4,0-2.7,0.2-4,0.3c-1.3,0-2.7-0.1-4-0.2c-1.3-0.1-2.6-0.4-3.9-0.5c-1.3-0.2-2.6-0.2-3.9-0.3c-2.6-0.2-5.1-0.3-7.7-0.4
				c-5-0.1-10-0.3-14.7-0.4c-4.7-0.2-9.3-0.7-13.7-0.4c-2.2,0.1-4.4,0.3-6.5,0.2c-2.1-0.1-4.2-0.2-6.2-0.3c-4-0.3-7.8-0.7-11.4-0.9
				c-1.8-0.1-3.5-0.2-5.2-0.3c-1.7,0-3.3,0.1-4.8,0.2c-1.6,0.1-3,0.1-4.5,0c-1.4-0.1-2.8-0.4-4-0.4c-2.6-0.1-4.9,0-6.9,0
				c-2,0-3.7,0-5.1,0c-2.8,0-4.2-0.1-4.2-0.1L1213.9,516.8z"/>
		</g>
		<g>
			<path class="st5" d="M1683.4,906.8c11.2,2.1,23,0.8,33.4-3.6c-12.3-45.2-36.9-85.4-56.2-128.3c-19.5-43.4-37.2-87.6-52.9-132.5
				c-7.1-20.3-13.9-40.7-20.2-61.3c-4.5-14.4-6.4-37.7-16.1-49.4c-17.7-21.2-55.4-15.3-79.7-15.5c-83.9-0.6-171.1-8.9-254.6-1.2
				c13,57.4,36.4,117.8,52.4,175.7c11.1,40.2,22.3,80.4,33.4,120.7c10.8,38.9,18.6,69.2,40.5,104c13.6-1.5,27.3-1.8,41-1.1"/>
			<path class="st3" d="M1683.6,905.6l2.1,0.4l2,0.3l2.1,0.2l2.1,0.1l2.1,0l2.1,0l2.1-0.1l2.1-0.2l2.1-0.3l2.1-0.3l2-0.4l2-0.5
				l2-0.5l2-0.6l2-0.7l1.9-0.8l-0.6,1.3l-1.6-5.5l-0.8-2.8l-0.9-2.7l-1.8-5.5c-0.6-1.8-1.3-3.6-2-5.4c-2.7-7.2-5.6-14.3-8.6-21.4
				l-2.3-5.3l-2.3-5.3c-1.6-3.5-3.2-7-4.9-10.5c-3.4-6.9-6.8-13.8-10.3-20.6c-6.9-13.7-14-27.4-20.4-41.5c-3.1-7-6.2-14.1-9.2-21.2
				l-2.3-5.3c-0.7-1.8-1.5-3.6-2.3-5.3l-4.6-10.6l-4.5-10.6l-2.2-5.3l-2.1-5.4c-2.8-7.2-5.6-14.3-8.3-21.5c-2.7-7.2-5.4-14.4-8-21.7
				c-2.7-7.2-5.3-14.5-7.9-21.7l-7.7-21.8l-3.8-10.9l-3.4-11l-3.4-11l-3.6-11c-1.2-3.7-2.1-7.5-2.9-11.2l-2.4-11.3
				c-1.7-7.5-3.5-14.9-6.9-21.7c-1.7-3.4-3.8-6.4-6.6-9c-2.7-2.6-5.8-4.7-9.2-6.4c-6.8-3.3-14.3-5-21.9-5.8
				c-7.6-0.9-15.3-0.8-22.9-0.8c-7.7,0-15.4,0.4-23.1,0.3c-7.7,0-15.4,0-23.1-0.1c-7.7-0.2-15.4-0.5-23.1-0.8l-23.1-1l-46.1-1.5
				c-15.4-0.5-30.8-0.9-46.1-1.1l-11.5-0.1c-3.8,0-7.7,0-11.5,0c-7.7,0-15.4,0.3-23.1,0.5c-7.7,0.4-15.4,0.7-23,1.3
				c-7.7,0.4-15.3,1.2-23,1.8l0.8-1.1c1,4.2,2,8.5,3.1,12.8c1.1,4.2,2.2,8.5,3.4,12.7c2.3,8.5,4.8,16.8,7.2,25.2
				c2.4,8.4,5,16.8,7.6,25.2c2.5,8.4,5.4,16.7,8.1,25l8.3,25l4.1,12.5c1.3,4.2,2.5,8.4,3.8,12.6l7.4,25.3l3.6,12.7
				c1.2,4.2,2.4,8.4,3.5,12.7c2.3,8.5,4.4,17,6.7,25.4l3.5,12.7c1.2,4.2,2.4,8.4,3.5,12.7c2.2,8.5,4.4,17,7,25.4
				c1.2,4.2,2.5,8.4,3.6,12.6l3.4,12.7c2.2,8.5,4.5,16.9,7,25.3c2.5,8.4,5.3,16.7,8.4,24.8l1.2,3.1c0.4,1,0.8,2,1.2,3l1.2,3.1l1.3,3
				l1.3,3l1.3,3c0.9,2,1.8,4,2.8,5.9c1.9,4,3.9,7.8,6.1,11.6c1.1,1.9,2.2,3.8,3.3,5.7l3.5,5.6l-0.9-0.5c3.4-0.4,6.8-0.8,10.3-1
				c3.4-0.2,6.9-0.4,10.3-0.5c6.9-0.2,13.8-0.1,20.6,0.2l-0.1,2.4c-6.8-0.4-13.6-0.5-20.4-0.3c-3.4,0.1-6.8,0.2-10.2,0.5l-5.1,0.4
				c-1.7,0.1-3.4,0.3-5.1,0.4l-0.7,0.1l-0.3-0.6l-3.4-5.7c-1.1-1.9-2.2-3.8-3.2-5.7c-1.1-1.9-2.1-3.9-3.1-5.8c-1.1-1.9-2-3.9-3-5.9
				c-1-2-2-3.9-2.9-5.9l-1.4-3l-1.3-3l-1.3-3l-1.3-3.1c-0.4-1-0.8-2-1.2-3.1l-1.1-3.1c-0.8-2.1-1.5-4.1-2.2-6.2
				c-0.7-2.1-1.4-4.2-2.1-6.3c-0.7-2.1-1.3-4.2-2-6.3l-2-6.3c-2.6-8.4-5-16.8-7.5-25.2c-2.4-8.4-4.9-16.8-6.9-25.4
				c-2-8.5-4.6-16.9-7-25.3c-1.3-4.2-2.3-8.5-3.4-12.7l-3.4-12.7l-0.8-3.2l-0.9-3.2l-1.8-6.3l-3.7-12.6c-1.2-4.2-2.4-8.4-3.5-12.7
				l-3.4-12.7L1285,679c-0.6-2.1-1.2-4.2-1.9-6.3c-0.6-2.1-1.3-4.2-1.9-6.3l-4-12.5l-3.9-12.6l-7.9-25.1l-4-12.5l-2-6.3l-2.1-6.2
				c-2.7-8.3-5.5-16.7-8.1-25l-1.9-6.3l-1.8-6.3c-1.2-4.2-2.4-8.5-3.5-12.7c-1.2-4.2-2.2-8.5-3.3-12.8c-1.1-4.3-2-8.6-3-12.8
				l-0.3-1.5l1.5-0.1c7.7-0.6,15.4-1.3,23.1-1.6c7.7-0.4,15.4-0.5,23.1-0.7c15.4-0.1,30.8-0.5,46.2-0.5c15.4,0.1,30.8,0.4,46.2,0.8
				c15.4,0.4,30.8,1.4,46.1,1.9c7.7,0.3,15.4,0.4,23.1,0.5l11.5,0.1l11.5,0.2c7.7,0.2,15.4,0.8,23.1,0.9c7.6,0.1,15.3-0.6,23-0.9
				c1.9-0.1,3.9-0.2,5.8-0.2c1.9,0,3.9,0,5.8,0c3.9,0.1,7.8,0.3,11.6,0.8c7.7,0.9,15.5,2.6,22.6,6.2c3.6,1.8,6.9,4,9.8,6.8l1.1,1.1
				l1,1.1l0.5,0.5l0.2,0.3c0.1,0.2,0.2,0.2,0.3,0.3l0.9,1.2c0.6,0.8,1.1,1.6,1.7,2.5c0.3,0.4,0.5,0.8,0.8,1.3l0.7,1.3
				c3.6,7.1,5.4,14.7,7.1,22.2c1.7,7.6,3.1,15.1,5.3,22.4l3.2,11.1c1.1,3.7,2.4,7.3,3.6,11l3.7,10.9l3.6,11
				c2.4,7.3,4.8,14.6,7.4,21.9c2.5,7.3,5.1,14.5,7.8,21.7c2.7,7.2,5.4,14.4,8.2,21.6c5.6,14.3,11.3,28.6,17.2,42.8
				c3,7.1,5.9,14.2,9.1,21.2c3.1,7,6.3,14,9.5,21c6.3,14,13.1,27.8,19.9,41.6c3.4,6.9,6.8,13.8,10.1,20.8c3.3,7,6.7,13.9,9.8,20.9
				c0.8,1.8,1.6,3.5,2.3,5.3c0.8,1.8,1.5,3.5,2.2,5.3c1.3,3.6,2.8,7.2,4,10.9c2.6,7.3,5,14.6,7.1,22l0.3,0.9l-0.9,0.3l-2,0.8l-2,0.7
				l-2.1,0.7l-2.1,0.6l-2.1,0.5l-2.1,0.4l-2.1,0.4l-2.2,0.3l-2.2,0.2l-2.2,0.1l-2.2,0l-2.2,0l-2.2-0.1l-2.2-0.2l-2.2-0.3l-2.1-0.3
				L1683.6,905.6z"/>
		</g>
		<path class="st2" d="M1688.1,901.2c8.9-0.6,17.1-3.9,23-10.6c-31.5-68.6-60.6-138.2-87.2-208.7c-12.9-34.3-27.3-69.1-37.2-104.4
			c-7.2-25.7-16.9-55.1-47.9-61.6c-34.6-7.3-69.5,5.9-104.2,1.7c-63.9-7.8-128.7-7.7-192.5-0.3c5.5,44.1,48.2,70.5,87.5,74.3
			c11.1,1.1,26.1,5,25.9,17.6c-0.1,7.8-6.6,13.3-10,20.2c-8,16.5,3.9,36.8,18,46.9c34.7,24.8,79.4,17.3,120.4,13.1
			c12.8-1.3,26-2.2,38.1,2.7c12.1,4.9,22.7,17,23,31.5c0.6,27.8-28.3,48-18.3,77.8c9.9,29.7,49.5,35.1,76.7,51.5
			c18,10.9,31.5,28,49.4,39.1C1663.1,898.3,1676.2,902.1,1688.1,901.2z"/>
		<g>
			<path class="st3" d="M1231.5,526.4c0,0-1.3,1.4-3.6,4.1c-2.4,2.7-5.8,6.6-10.2,11.7c-2.1,2.6-4.4,5.5-7.2,8.4
				c-1.3,1.5-2.8,3-4.2,4.7c-1.4,1.6-2.8,3.4-4.3,5.2c-3,3.6-6.1,7.4-9.4,11.4c-1.7,2-3.4,4.1-5.1,6.2c-1.8,2.1-3.7,4.1-5.6,6.3
				c-3.9,4.2-7.5,9-11.5,13.7c-4.1,4.6-8.4,9.4-12.8,14.2c-4.3,5-8.8,10-13.1,15.4c-1.1,1.3-2.2,2.7-3.4,3.9
				c-1.2,1.3-2.4,2.5-3.6,3.8c-1.2,1.3-2.3,2.7-3.4,4.1c-1.1,1.4-2.3,2.7-3.5,4.1c-4.7,5.4-9.5,10.9-14.4,16.4
				c-2.4,2.8-4.8,5.6-7.3,8.4c-1.2,1.4-2.4,2.8-3.7,4.2c-1.3,1.4-2.6,2.7-3.8,4.1c-2.6,2.7-5.1,5.5-7.4,8.5c-2.3,3-4.9,5.7-7.5,8.6
				c-2.5,2.8-5.2,5.6-7.7,8.5c-2.5,2.9-4.9,5.8-7.4,8.7c-4.9,5.8-10,11.5-15,17.3c-5,5.7-10.1,11.3-14.9,17.2
				c-4.8,5.8-9.6,11.5-14.3,17.1c-2.4,2.8-4.8,5.6-7.1,8.3c-1.2,1.4-2.4,2.7-3.6,4.1c-1.2,1.3-2.5,2.6-3.7,4
				c-9.6,10.6-18,21.7-27,31.2c-4.3,5-8.3,9.9-12.7,14.3c-4.4,4.4-7.9,9.2-12,13.3c-4.1,4-7.1,8.7-10.8,12.4
				c-3.6,3.8-6.9,7.4-10.1,10.9c-1.5,1.8-3,3.5-4.4,5.1c-0.7,0.8-1.4,1.6-2.1,2.4c-0.7,0.8-1.4,1.5-2.1,2.3c-2.7,3-5.3,5.6-7.4,8.2
				c-2.2,2.5-4.1,4.8-5.8,6.8c-1.7,1.9-3.2,3.6-4.4,4.9c-1.2,1.3-2.1,2.4-2.7,3c-0.6,0.7-0.9,1-0.9,1l-1.8-1.6c0,0,1.3-1.4,3.7-4.1
				c1.2-1.3,2.7-3,4.4-4.9c1.8-1.9,3.8-4.1,6.1-6.5c1.1-1.2,2.4-2.5,3.6-3.9c1.2-1.4,2.4-2.9,3.7-4.5c0.7-0.8,1.3-1.5,2-2.3
				c0.7-0.8,1.4-1.6,2.2-2.4c1.5-1.6,3-3.2,4.6-4.9c3.1-3.5,6.3-7.3,9.6-11.3c1.7-2,3.4-4,5.4-5.9c2-1.9,3.9-4,5.6-6.2
				c3.5-4.6,8.1-8.5,11.9-13.3c3.8-4.9,8.2-9.5,12.6-14.4c2.3-2.4,4.3-5,6.5-7.5c1.1-1.3,2.2-2.5,3.4-3.8c1.1-1.3,2.3-2.5,3.4-3.8
				c2.3-2.6,4.6-5.2,7-7.8c1.2-1.3,2.4-2.6,3.5-4c1.1-1.4,2.3-2.7,3.4-4.1c4.4-5.7,9.3-11.1,14.1-16.6c4.9-5.5,9.8-11.1,15-16.5
				c2.6-2.7,5.2-5.5,7.6-8.4c2.4-2.9,4.8-5.9,7.2-8.8c4.9-5.8,9.8-11.7,14.9-17.4c2.6-2.8,5.3-5.6,7.7-8.5c1.3-1.4,2.4-2.9,3.7-4.4
				l3.5-4.5c1.2-1.5,2.4-3,3.6-4.4c1.2-1.5,2.5-2.8,3.9-4.2c2.8-2.6,5.2-5.5,7.4-8.5c2.2-3.1,4.6-5.9,7.1-8.7c2.5-2.8,5-5.5,7.4-8.3
				c4.8-5.6,9.6-11,14.3-16.4c1.2-1.3,2.3-2.7,3.6-4c1.3-1.2,2.5-2.5,3.6-3.9c1.1-1.3,2.2-2.8,3.3-4.1c1.1-1.4,2.3-2.6,3.4-3.9
				c4.7-5,9.1-10.1,13.5-15.1c4.3-5,8.4-9.8,12.4-14.5c2-2.3,4-4.6,6-6.9c1-1.1,1.9-2.2,2.9-3.4c0.9-1.1,1.8-2.3,2.7-3.4
				c1.8-2.2,3.5-4.4,5.3-6.5c1.8-2.1,3.6-4.1,5.3-6c3.5-3.9,6.7-7.6,9.8-11.1c1.5-1.8,3-3.4,4.4-5.1c1.4-1.6,2.7-3.3,4-4.9
				c2.5-3.2,5-5.9,7.2-8.4c4.3-5.1,7.6-9.2,9.9-11.9c2.3-2.7,3.5-4.2,3.5-4.2L1231.5,526.4z"/>
		</g>
		<g>
			<path class="st3" d="M913,880.3c-3.1,3.7-8.2,5.1-12.5,3.5c-1.2-1.2-1.9-3.1-1.7-4.9c3.2-5.6,10.6-7.3,15.4-3.5
				c2.3,1.4,3.2,5.1,2,7.6c-1.2,2.6-4.4,3.7-6.7,2.3c0,0,9,19.5,11,20.4"/>
			<path class="st3" d="M913.9,881l-0.6,0.6l-0.7,0.7c-0.5,0.4-1,0.8-1.5,1.1c-0.5,0.3-1.1,0.7-1.7,0.9c-0.3,0.1-0.6,0.2-0.9,0.3
				l-0.9,0.4c-0.6,0.2-1.2,0.4-1.8,0.6c-0.3,0.1-0.6,0.1-1,0.2c-0.3,0-0.7,0-1,0c-0.3,0-0.7,0-1,0l-1-0.2l-1-0.2l-0.9-0.3l-0.3-0.1
				l-0.2-0.2c-0.8-0.8-1.3-1.8-1.6-2.8c-0.3-1-0.4-2.1-0.3-3.2l0-0.3l0.1-0.2l0.7-1c0.3-0.3,0.5-0.6,0.8-1c0.3-0.3,0.6-0.6,0.9-0.9
				c0.3-0.3,0.7-0.5,1-0.7c0.3-0.2,0.7-0.4,1-0.6c0.4-0.2,0.7-0.4,1.1-0.5c0.4-0.2,0.8-0.3,1.1-0.4c0.4-0.1,0.8-0.2,1.2-0.3
				c0.8-0.1,1.6-0.2,2.4-0.2c0.4,0,0.8,0,1.2,0c0.4,0,0.8,0.1,1.2,0.2l1.2,0.3l1.1,0.5l1,0.6c0.3,0.2,0.7,0.5,1,0.7l-0.1,0
				c0.3,0.2,0.7,0.5,0.9,0.7c0.3,0.3,0.5,0.6,0.8,0.9c0.2,0.3,0.4,0.7,0.5,1c0.1,0.4,0.3,0.7,0.3,1.1c0.2,0.7,0.3,1.5,0.2,2.2
				c0,0.4-0.1,0.8-0.2,1.1c-0.1,0.4-0.2,0.8-0.3,1.1l-0.1,0.3l-0.1,0.3c-0.1,0.2-0.1,0.3-0.2,0.5c-0.2,0.4-0.5,0.7-0.7,1
				c-0.3,0.3-0.6,0.6-0.9,0.8c-0.3,0.2-0.7,0.4-1.1,0.6c-0.8,0.3-1.6,0.5-2.4,0.5c-0.4,0-0.8-0.1-1.3-0.2c-0.4-0.1-0.8-0.3-1.2-0.5
				l1.5-1.4c0.4,0.9,0.9,1.7,1.3,2.6c0.2,0.4,0.5,0.9,0.6,1.3c0.2,0.4,0.4,0.9,0.6,1.3l0.6,1.3c0.2,0.5,0.4,0.9,0.6,1.3l1.3,2.6
				c0.2,0.4,0.5,0.8,0.7,1.3c0.2,0.4,0.4,0.9,0.6,1.3c0.3,0.9,0.8,1.7,1.3,2.6c0.5,0.8,1,1.6,1.5,2.4c0.3,0.4,0.5,0.8,0.8,1.1
				c0.1,0.2,0.3,0.3,0.4,0.5c0.1,0.1,0.3,0.2,0.2,0.1l-0.9,2.2c-0.6-0.3-0.8-0.5-1-0.8c-0.2-0.2-0.4-0.4-0.5-0.6
				c-0.3-0.4-0.6-0.8-0.9-1.3c-0.6-0.8-1-1.7-1.5-2.5c-0.5-0.8-1-1.7-1.5-2.5c-0.3-0.4-0.5-0.8-0.8-1.3c-0.2-0.4-0.4-0.9-0.6-1.3
				c-0.4-0.9-0.8-1.8-1.2-2.7c-0.4-0.9-0.8-1.8-1.2-2.7l-0.6-1.3c-0.2-0.4-0.4-0.9-0.5-1.4c-0.3-0.9-0.7-1.8-1.1-2.7l-1.5-2.8l3,1.5
				c0.2,0.1,0.5,0.2,0.7,0.3c0.2,0.1,0.5,0.1,0.8,0.1c0.5,0,1-0.2,1.5-0.4c0.2-0.1,0.5-0.3,0.7-0.4c0.2-0.1,0.4-0.3,0.6-0.5
				c0.2-0.2,0.3-0.4,0.5-0.5c0.1,0,0.2-0.2,0.3-0.3l0.1-0.1l0-0.1l0,0l0,0c0,0,0-0.1,0,0.1l0,0l0,0l0.1-0.2c0.2-0.2,0.3-0.5,0.3-0.8
				c0-0.3,0.1-0.6,0.1-0.9c0-0.6-0.2-1.1-0.4-1.7c-0.1-0.3-0.3-0.5-0.4-0.7c-0.1-0.2-0.3-0.5-0.4-0.7c-0.1-0.1-0.2-0.2-0.2-0.3
				c-0.1-0.1-0.2-0.2-0.2-0.3c-0.1-0.2-0.3-0.4-0.5-0.5l-0.1-0.1c-0.2-0.2-0.5-0.4-0.8-0.6l-0.9-0.4l-0.9-0.3l-0.9-0.2
				c-0.6-0.1-1.3-0.2-1.9-0.2c-0.3,0-0.7,0-1,0.1c-0.3,0.1-0.6,0.2-0.9,0.3c-0.3,0.1-0.6,0.2-0.9,0.4c-0.3,0.1-0.6,0.2-0.9,0.3
				c-0.6,0.2-1.3,0.4-1.8,0.8c-0.3,0.2-0.6,0.4-0.8,0.6c-0.2,0.3-0.5,0.5-0.7,0.7l-0.7,0.7l-0.7,0.8l0.1-0.3
				c-0.1,0.4-0.1,0.8-0.1,1.2c0,0.4,0.1,0.8,0.2,1.2c0.3,0.7,0.7,1.4,1.3,1.9l-0.3-0.2l0.8,0.2l0.8,0.1c0.5,0.1,1,0.1,1.6,0.1
				c1-0.1,2.1-0.1,3.1-0.3c0.3-0.1,0.5-0.1,0.8-0.2c0.2-0.1,0.5-0.2,0.7-0.4c0.4-0.3,0.9-0.6,1.3-0.9c0.4-0.3,0.8-0.6,1.2-1l0.5-0.5
				l0.6-0.6L913.9,881z"/>
		</g>
	</g>
	<g>
		<path class="st3" d="M1713.6,903c0,0,0.2,0,0.6,0c0.2,0,0.5,0,0.8,0.1c0.3,0,0.6,0.1,1,0.1c0.2,0,0.4-0.1,0.6-0.2
			c0.2,0,0.4,0,0.7,0.1c0.2,0.1,0.5,0.2,0.7,0.2c0.3,0,0.5,0,0.8-0.1c0.5-0.1,1.1-0.2,1.7-0.4c0.3-0.1,0.6-0.1,0.9-0.1
			c0.3,0,0.6,0.1,1,0.2c0.3,0.1,0.7,0.1,1,0c0.3-0.1,0.7-0.2,1-0.2c0.7,0,1.4,0.3,2.2,0.4c0.8,0.1,1.5,0.1,2.3-0.2
			c0.2-0.1,0.4-0.1,0.6,0c0.2,0.1,0.4,0.2,0.6,0.3c0.1,0,0.2,0,0.3,0c0.1,0,0.2-0.1,0.3-0.1c0.2-0.1,0.4,0,0.6-0.1
			c0.8,0,1.7,0.1,2.5,0.2c0.4,0,0.9,0,1.3,0c0.4,0,0.9,0,1.3,0.2c0.4,0.2,0.9,0.3,1.3,0c0.4-0.2,0.9-0.1,1.3,0
			c0.4,0.1,0.9,0.3,1.3,0.3c0.4,0,0.9-0.1,1.3-0.1c0.9-0.1,1.8,0,2.6,0c0.4,0,0.9,0.1,1.3,0.1c0.4,0,0.9-0.1,1.3-0.2
			c0.9-0.2,1.7-0.3,2.6-0.5c0.9-0.1,1.7-0.2,2.5,0.1c0.8,0.2,1.6-0.1,2.4-0.2c0.2-0.1,0.4-0.1,0.6-0.1c0.2,0,0.4-0.1,0.6,0
			c0.2,0,0.4,0.1,0.6,0.1c0.2,0,0.4,0,0.6,0c0.4,0,0.8-0.2,1.1-0.2c0.4,0,0.7,0.1,1.1,0.3c0.7,0.4,1.4-0.2,2.1,0.1
			c0.3,0.1,0.7,0.1,1,0c0.3-0.2,0.6-0.1,0.9-0.1c0.6,0.2,1.2,0.3,1.7,0.3c0.5-0.1,1-0.3,1.5-0.1c0.2,0.1,0.5,0.1,0.7,0.1
			c0.2,0,0.4,0,0.6-0.1c0.8-0.3,1.4-0.3,1.8-0.3c0.4,0,0.6,0,0.6,0v2.4c0,0-0.2,0-0.6,0c-0.4,0-1,0-1.8-0.2c-0.2,0-0.4,0-0.6,0
			c-0.2,0-0.4,0.1-0.7,0.2c-0.2,0.1-0.5,0.1-0.7,0.1c-0.3,0-0.5-0.1-0.8-0.2c-0.5,0-1.1,0.1-1.7,0.4c-0.3,0.1-0.6,0.1-0.9-0.1
			c-0.3-0.3-0.6-0.3-1-0.1c-0.7,0.4-1.3-0.5-2.1-0.1c-0.4,0.1-0.7,0.3-1.1,0.2c-0.4,0-0.7-0.2-1.1-0.2c-0.2,0-0.4-0.1-0.6,0
			l-0.6,0.1c-0.4,0-0.8,0-1.2-0.1c-0.8-0.1-1.6-0.4-2.4-0.1c-0.8,0.4-1.7,0.4-2.5,0.3c-0.4,0-0.9-0.1-1.3-0.1
			c-0.4,0-0.9-0.1-1.3-0.3c-0.4-0.2-0.9-0.3-1.3-0.2c-0.4,0.1-0.9,0.3-1.3,0.3c-0.9,0.1-1.8,0.3-2.6,0.2c-0.4-0.1-0.9-0.3-1.3-0.3
			c-0.2,0-0.4,0-0.7,0.1l-0.7,0.3c-0.2,0.1-0.4,0.2-0.7,0.2c-0.2,0.1-0.4,0-0.7-0.2c-0.4-0.5-0.9-0.4-1.3,0
			c-0.4,0.3-0.9,0.4-1.3,0.3c-0.4-0.1-0.9-0.1-1.3-0.2c-0.9,0-1.7,0-2.5-0.1c-0.2,0-0.4,0-0.6-0.1c-0.1-0.1-0.2-0.1-0.3-0.2
			c-0.1,0-0.2,0-0.3,0c-0.2,0-0.4,0.2-0.6,0.2c-0.2,0-0.4,0-0.6,0c-0.8-0.3-1.6-0.3-2.3-0.4c-0.8,0-1.5,0-2.2,0.1
			c-0.7,0-1.4-0.2-2.1,0.1c-0.3,0.1-0.7,0.2-1,0.2c-0.3,0-0.6,0-0.9,0c-0.6-0.1-1.2-0.2-1.7-0.2c-0.3,0-0.5,0-0.8,0
			c-0.3,0-0.5,0.1-0.7,0.2c-0.2,0.1-0.5,0.1-0.7,0.1c-0.2,0-0.4-0.1-0.6-0.1c-0.4,0-0.7,0.1-1,0.1c-0.3,0.1-0.6,0.1-0.8,0.1
			c-0.4,0-0.6,0.1-0.6,0.1V903z"/>
	</g>
	<g>
		<path class="st3" d="M1013.5,903c0,0,0.2,0,0.6,0c0.2,0,0.5,0,0.8,0.1c0.3,0,0.6,0.1,1,0.1c0.2,0,0.4-0.1,0.6-0.2
			c0.2,0,0.4,0,0.7,0.1c0.2,0.1,0.5,0.2,0.7,0.2c0.3,0,0.5,0,0.8-0.1c0.5-0.1,1.1-0.2,1.7-0.4c0.3-0.1,0.6-0.1,0.9-0.1
			c0.3,0,0.6,0.1,1,0.2c0.3,0.1,0.7,0.1,1,0c0.3-0.1,0.7-0.2,1.1-0.2c0.7,0,1.4,0.3,2.2,0.4c0.8,0.1,1.5,0.1,2.3-0.2
			c0.2-0.1,0.4-0.1,0.6,0c0.2,0.1,0.4,0.2,0.6,0.3c0.1,0,0.2,0,0.3,0c0.1,0,0.2-0.1,0.3-0.1c0.2-0.1,0.4,0,0.6-0.1
			c0.8,0,1.7,0.1,2.5,0.2c0.4,0,0.9,0,1.3,0c0.4,0,0.9,0,1.3,0.2c0.4,0.2,0.9,0.3,1.3,0c0.4-0.2,0.9-0.1,1.3,0
			c0.4,0.1,0.9,0.3,1.3,0.3c0.4,0,0.9-0.1,1.3-0.1c0.9-0.1,1.8,0,2.6,0c0.4,0,0.9,0.1,1.3,0.1c0.4,0,0.9-0.1,1.3-0.2
			c0.9-0.2,1.7-0.3,2.6-0.5c0.9-0.1,1.7-0.2,2.5,0.1c0.8,0.2,1.6-0.1,2.4-0.2c0.2-0.1,0.4-0.1,0.6-0.1c0.2,0,0.4-0.1,0.6,0
			c0.2,0,0.4,0.1,0.6,0.1c0.2,0,0.4,0,0.6,0c0.4,0,0.8-0.2,1.1-0.2c0.4,0,0.7,0.1,1.1,0.3c0.7,0.4,1.4-0.2,2.1,0.1
			c0.3,0.1,0.7,0.1,1,0c0.3-0.2,0.6-0.1,0.9-0.1c0.6,0.2,1.2,0.3,1.7,0.3c0.5-0.1,1-0.3,1.5-0.1c0.2,0.1,0.5,0.1,0.7,0.1
			c0.2,0,0.4,0,0.6-0.1c0.8-0.3,1.4-0.3,1.8-0.3c0.4,0,0.6,0,0.6,0v2.4c0,0-0.2,0-0.6,0c-0.4,0-1,0-1.8-0.2c-0.2,0-0.4,0-0.6,0
			c-0.2,0-0.4,0.1-0.7,0.2c-0.2,0.1-0.5,0.1-0.7,0.1c-0.3,0-0.5-0.1-0.8-0.2c-0.5,0-1.1,0.1-1.7,0.4c-0.3,0.1-0.6,0.1-0.9-0.1
			c-0.3-0.3-0.6-0.3-1-0.1c-0.7,0.4-1.3-0.5-2.1-0.1c-0.4,0.1-0.7,0.3-1.1,0.2c-0.4,0-0.7-0.2-1.1-0.2c-0.2,0-0.4-0.1-0.6,0
			l-0.6,0.1c-0.4,0-0.8,0-1.2-0.1c-0.8-0.1-1.6-0.4-2.4-0.1c-0.8,0.4-1.7,0.4-2.5,0.3c-0.4,0-0.9-0.1-1.3-0.1
			c-0.4,0-0.9-0.1-1.3-0.3c-0.4-0.2-0.9-0.3-1.3-0.2c-0.4,0.1-0.9,0.3-1.3,0.3c-0.9,0.1-1.8,0.3-2.6,0.2c-0.4-0.1-0.9-0.3-1.3-0.3
			c-0.2,0-0.4,0-0.7,0.1l-0.7,0.3c-0.2,0.1-0.4,0.2-0.7,0.2c-0.2,0.1-0.4,0-0.7-0.2c-0.4-0.5-0.9-0.4-1.3,0
			c-0.4,0.3-0.9,0.4-1.3,0.3c-0.4-0.1-0.9-0.1-1.3-0.2c-0.9,0-1.7,0-2.5-0.1c-0.2,0-0.4,0-0.6-0.1c-0.1-0.1-0.2-0.1-0.3-0.2
			c-0.1,0-0.2,0-0.3,0c-0.2,0-0.4,0.2-0.6,0.2c-0.2,0-0.4,0-0.6,0c-0.8-0.3-1.6-0.3-2.3-0.4c-0.8,0-1.5,0-2.2,0.1
			c-0.7,0-1.4-0.2-2.1,0.1c-0.3,0.1-0.7,0.2-1,0.2c-0.3,0-0.6,0-0.9,0c-0.6-0.1-1.2-0.2-1.7-0.2c-0.3,0-0.5,0-0.8,0
			c-0.3,0-0.5,0.1-0.7,0.2c-0.2,0.1-0.5,0.1-0.7,0.1c-0.2,0-0.4-0.1-0.6-0.1c-0.4,0-0.7,0.1-1,0.1c-0.3,0.1-0.6,0.1-0.8,0.1
			c-0.4,0-0.6,0.1-0.6,0.1V903z"/>
	</g>
	<g>
		<path class="st3" d="M1837.1,903c0,0,0.3,0,0.9,0c0.3,0,0.7,0,1.1,0.1c0.4,0,0.9,0.1,1.5,0.1c0.3,0,0.6-0.1,0.9-0.2
			c0.3,0,0.6,0,1,0.1c0.3,0.1,0.7,0.2,1.1,0.2c0.4,0,0.8-0.1,1.1-0.1c0.8-0.1,1.6-0.2,2.5-0.4c0.4,0,0.9-0.1,1.4-0.1
			c0.5,0,0.9,0.1,1.4,0.2c0.5,0.1,1,0.1,1.5,0c0.5-0.1,1-0.2,1.5-0.2c1,0,2.1,0.3,3.2,0.4c1.1,0.1,2.3,0.1,3.4-0.2
			c0.3-0.1,0.6-0.1,0.9,0c0.3,0.1,0.6,0.2,0.9,0.3c0.1,0,0.3,0,0.4,0c0.1,0,0.3-0.1,0.5-0.1c0.3-0.1,0.6,0,0.9-0.1
			c1.2,0,2.4,0.1,3.7,0.2c0.6,0,1.3,0,1.9,0c0.6,0,1.3,0,1.9,0.2c0.6,0.2,1.3,0.3,1.9,0c0.6-0.2,1.3-0.1,1.9,0
			c0.6,0.1,1.3,0.3,1.9,0.3c0.6,0,1.3-0.1,1.9-0.1c1.3-0.1,2.6,0,3.9,0c0.6,0,1.3,0.1,1.9,0.1c0.6,0,1.3-0.1,1.9-0.2
			c1.3-0.2,2.5-0.3,3.8-0.5c1.2-0.1,2.5-0.2,3.7,0.1c1.2,0.2,2.4-0.1,3.6-0.2c0.3-0.1,0.6-0.1,0.9-0.1c0.3,0,0.6-0.1,0.9,0
			c0.3,0,0.6,0.1,0.9,0.1c0.3,0,0.6,0,0.8,0c1.1-0.1,2.2-0.3,3.2,0.1c1,0.4,2.1-0.2,3,0.1c0.5,0.1,1,0.1,1.4,0
			c0.5-0.2,0.9-0.1,1.4-0.1c0.9,0.2,1.7,0.3,2.5,0.3c0.4,0,0.8-0.1,1.1-0.2c0.4,0,0.7,0,1.1,0c0.7,0.1,1.3,0.2,1.9,0.1
			c1.1-0.3,2-0.3,2.6-0.3c0.6,0,0.9,0,0.9,0v2.4c0,0-0.1,0-0.2,0c-0.2,0-0.4,0-0.7,0c-0.6,0-1.5,0-2.6-0.2c-0.3,0-0.6,0-0.9,0
			c-0.3,0-0.6,0.1-1,0.2c-0.3,0.1-0.7,0.1-1.1,0.1c-0.4,0-0.8-0.1-1.1-0.2c-0.8,0-1.6,0.1-2.5,0.4c-0.4,0.1-0.9,0.1-1.4-0.1
			c-0.5-0.3-0.9-0.3-1.4-0.1c-1,0.4-2-0.5-3-0.1c-1,0.4-2.1,0.2-3.2,0c-0.6-0.1-1.1,0-1.7,0.1c-0.3,0-0.6,0-0.9,0
			c-0.3,0-0.6,0-0.9-0.1c-1.2-0.1-2.4-0.4-3.6-0.1c-1.2,0.4-2.4,0.4-3.7,0.3c-0.6,0-1.3-0.1-1.9-0.1c-0.6,0-1.3-0.1-1.9-0.3
			c-0.6-0.2-1.3-0.3-1.9-0.2c-0.6,0.1-1.3,0.3-1.9,0.3c-1.3,0.1-2.6,0.3-3.9,0.2c-0.6-0.1-1.3-0.3-1.9-0.3c-0.3,0-0.6,0-1,0.1
			l-1,0.3c-0.3,0.1-0.6,0.2-1,0.2c-0.3,0.1-0.6,0-1-0.2c-0.6-0.5-1.3-0.4-1.9,0c-0.6,0.3-1.3,0.4-1.9,0.3c-0.6-0.1-1.3-0.1-1.9-0.2
			c-1.2,0-2.5,0-3.7-0.1c-0.3,0-0.6,0-0.9-0.1c-0.2-0.1-0.3-0.1-0.5-0.2c-0.1,0-0.3,0-0.4,0c-0.3,0-0.6,0.2-0.9,0.2
			c-0.3,0-0.6,0-0.9,0c-1.2-0.3-2.3-0.3-3.4-0.4c-1.1,0-2.2,0-3.2,0.1c-1,0-2.1-0.2-3,0.1c-0.5,0.1-1,0.2-1.4,0.2
			c-0.5,0-0.9,0-1.4,0c-0.9-0.1-1.7-0.2-2.5-0.2c-0.4,0-0.8,0-1.1,0c-0.4,0-0.7,0.1-1.1,0.2c-0.3,0.1-0.7,0.1-1,0.1
			c-0.3,0-0.6-0.1-0.9-0.1c-0.6,0-1.1,0.1-1.5,0.1c-0.4,0.1-0.8,0.1-1.1,0.1c-0.6,0-0.9,0.1-0.9,0.1V903z"/>
	</g>
	<g>
		<path class="st6" d="M1091.2,424.1c0,0-0.5,0.4-1.6,1.2c-0.5,0.4-1.1,0.9-1.9,1.4c-0.8,0.5-1.6,1.2-2.6,1.9
			c-0.5,0.4-0.9,0.9-1.4,1.3c-0.5,0.4-1.1,0.8-1.7,1.2c-0.6,0.4-1.3,0.8-1.9,1.3c-0.6,0.5-1.2,1-1.8,1.6c-2.5,2.2-5.1,5.1-8.5,7.3
			c-0.8,0.6-1.7,1.2-2.4,2c-0.8,0.8-1.5,1.5-2.4,2.2c-1.7,1.4-3.6,2.7-5.5,4.1c-0.9,0.7-1.9,1.5-2.8,2.3c-0.9,0.8-1.8,1.6-2.7,2.5
			c-0.4,0.4-0.9,0.9-1.4,1.2c-0.5,0.4-1.1,0.7-1.6,1c-0.5,0.3-1,0.8-1.4,1.3c-0.4,0.5-0.9,0.9-1.4,1.3c-2,1.7-4,3.3-6,5
			c-1,0.9-2,1.8-3,2.6c-1,0.9-2,1.8-3.2,2.5c-1.1,0.7-2.2,1.6-3.1,2.7c-0.9,1-2,1.9-3.1,2.7c-1.1,0.8-2.2,1.6-3.2,2.5
			c-1,0.9-2,1.9-3,2.8c-2,1.9-4.1,3.7-6.1,5.5c-1,0.9-2.1,1.8-3.1,2.7c-1,0.9-2,1.9-2.9,2.9c-1.8,2-3.7,3.9-5.6,5.8
			c-1.9,1.9-3.7,3.8-5.8,5.3c-2,1.6-3.6,3.6-5.3,5.4c-0.4,0.5-0.8,0.9-1.3,1.4c-0.4,0.4-0.8,0.9-1.3,1.3c-0.5,0.4-1,0.8-1.4,1.1
			c-0.5,0.4-0.9,0.8-1.3,1.2c-1.7,1.7-3.2,3.4-5.2,4.5c-1.9,1.2-3.2,3-5.1,4c-0.9,0.5-1.7,1.2-2.4,1.9c-0.7,0.7-1.5,1.3-2.3,1.8
			c-0.8,0.5-1.7,0.9-2.4,1.4c-0.8,0.4-1.5,0.9-2.3,1.3c-1.4,0.9-2.7,1.9-4.1,2.4c-1.4,0.5-2.6,1-3.7,1.6c-2.2,1.2-4,1.9-5.2,2.2
			c-0.6,0.2-1.1,0.4-1.4,0.4c-0.3,0.1-0.5,0.1-0.5,0.1l-0.6-2.3c0,0,0.2,0,0.5-0.1c0.3-0.1,0.8-0.2,1.4-0.4c0.6-0.2,1.4-0.4,2.2-0.7
			c0.9-0.3,1.9-0.5,3-0.9c0.5-0.2,1.1-0.4,1.7-0.7c0.6-0.3,1.1-0.7,1.7-1.1c0.6-0.4,1.3-0.7,1.9-1.1c0.7-0.3,1.4-0.6,2.2-1
			c0.7-0.4,1.4-0.9,2.1-1.4c0.7-0.5,1.4-1.1,2.1-1.7c0.7-0.6,1.4-1.2,2.4-1.5c0.9-0.3,1.7-1,2.4-1.7c1.4-1.6,3.5-2.3,5-4
			c1.4-1.7,3.3-3.1,5.1-4.6c0.9-0.7,1.7-1.6,2.5-2.5c0.8-0.9,1.8-1.6,2.7-2.5c1.9-1.6,3.9-3.2,5.5-5.2c0.4-0.5,0.8-1,1.2-1.5
			c0.4-0.5,0.9-1,1.4-1.4c1-0.9,1.9-1.8,2.9-2.7c1-0.9,2-1.8,3-2.6c1-0.9,2-1.7,3.2-2.5c1.1-0.8,2.2-1.6,3.1-2.6c0.9-1,1.8-2,2.8-3
			c1.9-2,3.9-3.9,6-5.7c1.1-0.9,2.3-1.6,3.3-2.5c1.1-0.9,1.9-2,2.8-3.1c0.4-0.5,0.9-1.1,1.4-1.5c0.5-0.5,1-0.9,1.7-1.2
			c1.3-0.6,2.3-1.5,3.1-2.7c0.8-1.1,1.8-2.1,2.9-2.9c1-0.8,2.1-1.7,3.1-2.5c2-1.7,4-3.4,6-5.1c0.5-0.4,1-0.8,1.5-1.2
			c0.6-0.3,1.1-0.6,1.6-1.1c0.5-0.4,0.9-0.9,1.3-1.4c0.4-0.4,0.9-0.8,1.4-1.2c2.1-1.3,3.9-3,5.8-4.4c1.8-1.5,3.6-3,5.2-4.5
			c0.9-0.7,1.7-1.4,2.6-2.1c0.8-0.7,1.6-1.4,2.4-2.1c2.9-3,6.1-5,8.8-7.1c0.7-0.5,1.3-1,1.9-1.5c0.6-0.5,1.1-1.1,1.6-1.6
			c0.5-0.5,1-1,1.6-1.4c0.5-0.4,1.1-0.7,1.6-1.1c0.9-0.8,1.7-1.5,2.4-2.1c0.7-0.6,1.3-1.1,1.8-1.5c1-0.8,1.5-1.3,1.5-1.3
			L1091.2,424.1z"/>
	</g>
	<g>
		<path class="st6" d="M1483.9,510c0,0-1.3-1.1-3.7-3.1c-2.4-2-6-5-10.5-8.8c-1.2-0.9-2.4-1.8-3.7-2.8c-1.3-1-2.6-2.1-3.9-3.3
			c-1.3-1.2-2.7-2.4-4.2-3.6c-1.5-1.2-3.1-2.4-4.7-3.7c-3.2-2.5-6.7-5.2-10.3-8.1c-1.8-1.4-3.7-2.9-5.6-4.4
			c-1.9-1.5-3.7-3.2-5.6-4.9c-1.9-1.7-3.9-3.3-6-4.9c-2.1-1.6-4.2-3.2-6.3-5c-4.1-3.6-8.4-7.3-12.7-11.1c-4.4-3.7-8.9-7.7-13.7-11.4
			c-1.2-1-2.4-1.9-3.5-3c-1.1-1-2.2-2.2-3.4-3.2c-1.1-1.1-2.4-2-3.6-3c-1.3-0.9-2.4-2-3.6-3c-4.8-4.1-9.6-8.4-14.4-12.7
			c-2.4-2.1-4.9-4.3-7.4-6.5c-1.2-1.1-2.5-2.2-3.7-3.3c-1.2-1.1-2.4-2.3-3.6-3.4c-2.4-2.3-4.8-4.6-7.4-6.7c-0.6-0.5-1.3-1-1.9-1.6
			c-0.3-0.3-0.7-0.6-1-0.8l-0.9-0.9l-1.8-1.8l-1.7-1.9c-4.5-5.1-8.8-10.2-13.1-15.4c-2.2-2.6-4.3-5.2-6.5-7.7
			c-2.2-2.5-4.4-5-6.8-7.4l-1.8-1.8l-1.8-1.7c-1.2-1.2-2.5-2.2-3.8-3.3c-1.3-1-2.6-2-4-2.9l-2.1-1.3c-0.7-0.4-1.4-0.8-2.1-1.2
			c-1.5-0.7-2.9-1.5-4.5-2.1l-2.2-1c-0.7-0.3-1.5-0.6-2.3-0.9l-2.3-0.9l-2.3-0.7c-1.5-0.5-3.1-0.9-4.6-1.3c-3.1-0.8-6.2-1.5-9.4-2
			c-1.6-0.2-3.1-0.5-4.7-0.7c-1.6-0.2-3.1-0.4-4.7-0.5c-1.6-0.1-3.1-0.2-4.7-0.2c-1.5,0.1-3.1,0.1-4.6,0.2c-1.5,0.2-3,0.3-4.5,0.5
			c-1.5,0.2-3,0.4-4.5,0.7c-1.5,0.3-2.9,0.5-4.4,0.9c-0.7,0.2-1.4,0.4-2.1,0.6c-0.7,0.2-1.4,0.3-2.1,0.6c-1.4,0.4-2.8,0.7-4.2,1.1
			c-1.4,0.4-2.7,0.9-4.1,1.5c-2.7,1.1-5.2,2.3-7.7,3.5c-2.5,1.3-5,2.4-7.4,3.6c-4.9,2.4-9.1,5.6-13.5,8c-4.5,2.4-8.1,5.7-12.1,8
			c-3.9,2.4-7.6,4.7-11,7c-1.7,1.2-3.3,2.3-4.9,3.4c-0.8,0.6-1.6,1.1-2.3,1.6c-0.8,0.5-1.5,1-2.3,1.5c-3,1.9-5.7,3.7-8.1,5.5
			c-2.4,1.7-4.5,3.4-6.3,4.7c-1.8,1.3-3.4,2.5-4.7,3.4c-1.3,0.9-2.3,1.6-2.9,2.1c-0.7,0.5-1,0.7-1,0.7l-1.4-2c0,0,0.3-0.2,1-0.7
			c0.7-0.5,1.6-1.2,2.9-2.1c1.3-0.9,2.9-2,4.8-3.3c1.9-1.3,4.1-2.7,6.5-4.4c2.5-1.6,5.1-3.6,7.9-5.7c2.8-2.2,6.1-4.2,9.6-6.4
			c3.4-2.3,7-4.8,10.7-7.5c1.9-1.3,3.8-2.7,6-3.8c2.2-1.1,4.2-2.4,6.3-4c4.1-3.1,9-5.2,13.6-8.2c2.3-1.5,4.7-2.9,7.3-4.1
			c1.3-0.6,2.6-1.2,3.9-1.7c1.3-0.5,2.7-1.1,4.1-1.6c1.4-0.5,2.8-1,4.2-1.5c1.4-0.5,2.8-1,4.3-1.4c2.9-0.9,5.9-1.4,8.9-1.8
			c6.1-0.9,12.4-1,18.8-1c1.6,0,3.2,0.1,4.8,0.1c1.6,0.2,3.2,0.3,4.8,0.6c3.2,0.5,6.4,1.2,9.6,2.1c1.6,0.4,3.2,0.9,4.7,1.5l2.3,0.9
			l2.3,1c1.5,0.6,3.1,1.3,4.6,2.1c1.5,0.7,2.9,1.6,4.3,2.5c1.5,0.9,2.8,1.9,4.2,2.8c0.7,0.5,1.3,1,2,1.5c0.7,0.5,1.4,1,2,1.5
			c1.3,1,2.7,2,4,3.2l1.9,1.6l1.8,1.7c4.9,4.7,9.3,9.9,13.5,15.2c2.1,2.7,4,5.4,6.2,8c0.5,0.7,1.1,1.3,1.7,1.9
			c0.6,0.6,1.1,1.2,1.7,1.8c1.2,1.2,2.4,2.3,3.6,3.4c0.6,0.6,1.2,1.1,1.8,1.7l1.9,1.7c0.3,0.3,0.6,0.6,0.9,0.8l0.9,0.8
			c0.6,0.6,1.2,1.2,1.7,1.8c2.2,2.6,4.7,4.7,7.4,6.7c2.7,2,5.2,4.1,7.6,6.3c2.4,2.2,4.8,4.4,7.2,6.6c4.9,4.3,9.7,8.5,14.4,12.7
			c1.2,1,2.4,2.1,3.5,3.2c1.1,1.1,2.2,2.2,3.4,3.2c1.2,1,2.4,1.9,3.6,2.9c1.2,1,2.3,2,3.5,3c4.4,4.2,9,8,13.3,11.8
			c4.4,3.7,8.8,7.3,13,10.8c4.2,3.5,8.1,7,12.2,10c2,1.6,4,3,5.8,4.6c1.9,1.6,3.7,3.1,5.4,4.6c3.5,3,6.9,5.8,10,8.4
			c1.6,1.3,3.1,2.6,4.6,3.8c1.5,1.2,3,2.3,4.4,3.4c1.4,1.1,2.8,2.1,4,3.2c1.2,1.1,2.4,2.1,3.5,3c4.6,3.6,8.3,6.5,10.7,8.5
			c2.5,2,3.8,3,3.8,3L1483.9,510z"/>
	</g>
	<path class="st0" d="M537.2,309.4c10.8-27.1,26.5-57,43.8-80.5c10.5-14.2,30.5-28.6,43.6-16.9c7,6.2,7.5,16.7,9.3,25.9
		c1.8,9.2,7.5,19.7,16.9,19.5c6.7-0.1,11.8-5.8,16-11c17-21,34-42,51-62.9c22.9-28.2,50.5-58.9,86.8-59.9c13-0.3,27.1,4.2,34.2,15
		c5.6,8.6,6.1,19.4,6.1,29.7c0,36.7-3.5,73.3-10.4,109.3c-1.8,9.2-2.6,21.1,5.7,25.6c9.8,5.3,20-5.6,26.4-14.7
		c6.1-8.7,13.3-17.4,23.2-21.3c9.9-3.9,23.2-1.1,27.8,8.5c3.7,7.8,3.3,20.2,11.8,21.2c4.8,0.6,8.8-3.5,12.5-6.7
		c20-17.1,56.1-4.3,64.5,20.6"/>
	<path class="st0" d="M1017.2,223.6c5.7-11.4,13.6-21.7,23.1-30c5.3-4.7,13.8-8.7,19-3.8c4.3,4.1,3.4,12.3,8.7,15
		c11.9-16.1,24.6-31.7,37.9-46.6c6.6-7.4,13.6-14.8,22.3-19.4c8.8-4.6,19.8-6.1,28.5-1.5c15.5,8.2,16.8,29.6,14.9,47.1
		c-1,8.7-1,19.7,6.9,23.4c3.6-4.1,9.8-5.6,14.9-3.8s8.8,14.6,9,20"/>
	<g>
		<path class="st6" d="M625.8,729.3c0,0-1.6,1.4-4.7,3.9c-1.5,1.3-3.4,2.8-5.7,4.6c-2.3,1.8-4.9,3.9-7.8,6.2c-2.9,2.4-6,5.1-9.6,7.7
			c-1.8,1.3-3.7,2.6-5.6,4.1c-1.9,1.4-3.9,3-6,4.6c-4.1,3.1-8.5,6.4-13.3,9.8c-2.4,1.7-4.8,3.4-7.3,5.2c-1.3,0.8-2.6,1.7-3.9,2.5
			c-1.3,0.8-2.7,1.6-4,2.5c-1.4,0.8-2.7,1.7-4.1,2.5c-1.4,0.9-2.7,1.8-4.1,2.7c-1.4,0.9-2.8,1.8-4.2,2.7c-1.4,0.9-2.9,1.8-4.4,2.6
			c-3.1,1.6-6.3,3.2-9.8,4.3c-1.7,0.5-3.6,1-5.4,1.3c-0.9,0.1-1.8,0.2-2.8,0.3c-0.9,0-1.8,0.1-2.8,0c-3.8-0.1-7.6-1-11.2-2.2
			c-3.6-1.3-7.1-2.8-10.6-4.6c-1.7-0.9-3.4-1.8-5.1-2.8c-1.6-1-3.3-2.1-4.9-3.2c-1.6-1.1-3.4-2-5.1-2.9c-1.8-0.9-3.4-2-5.2-3
			c-6.8-4.1-13.8-8.2-20.9-12.4c-3.5-2.1-7.1-4.1-10.7-6.2c-1.8-1-3.6-2.1-5.4-3.2c-1.8-1.1-3.5-2.2-5.3-3.3
			c-3.5-2.3-7.1-4.5-10.8-6.4c-3.7-1.9-7.3-4.2-10.9-6.4c-3.6-2.2-7.2-4.5-10.9-6.6c-3.7-2.1-7.4-4-11.3-5.8
			c-3.8-1.8-7.7-3.4-11.7-4.8c-4-1.3-8.1-2.4-12.2-3c-2.1-0.3-4.2-0.5-6.2-0.6l-3.2,0c-1,0-2.1,0.1-3.1,0.2
			c-4.2,0.3-8.2,1.3-12.2,2.5c-3.9,1.3-7.8,2.9-11.5,4.6c-3.7,1.7-7.3,3.7-10.9,5.7c-3.5,2-7,4.1-10.4,6.3c-1.7,1.1-3.4,2.1-5.1,3.2
			c-1.7,1-3.4,2.1-5.1,3.1c-13.5,8.5-25.9,17.6-38.3,25.2c-6.1,4-11.9,8.1-17.9,11.5c-6,3.4-11.2,7.5-16.7,10.7
			c-5.5,3.2-10.2,7.2-15.3,10c-5,3-9.6,6-14,8.8c-2.1,1.4-4.2,2.8-6.2,4.2c-1,0.7-2,1.3-3,2c-1,0.6-2,1.2-2.9,1.8
			c-3.8,2.4-7.3,4.5-10.3,6.7c-3.1,2.1-5.8,4-8.2,5.6c-2.4,1.6-4.4,3-6.1,4.1c-1.7,1.1-2.9,1.9-3.8,2.5c-0.9,0.6-1.3,0.8-1.3,0.8
			l-1.3-2c0,0,1.8-1.2,5.1-3.3c1.7-1.1,3.7-2.4,6.2-4c2.4-1.5,5.3-3.3,8.4-5.3c3.2-1.9,6.6-4.3,10.2-6.9c0.9-0.6,1.9-1.3,2.8-1.9
			c1-0.6,2-1.3,3-1.9c2-1.3,4.2-2.6,6.4-4c4.3-2.8,8.9-6,13.6-9.3c2.4-1.7,4.9-3.3,7.6-4.8c2.7-1.4,5.3-3.1,7.9-5
			c5.1-3.8,11.1-6.7,16.7-10.8c5.5-4.1,11.6-7.7,17.8-11.6c3.1-1.9,6.1-4,9.3-6.1c1.5-1.1,3.1-2.1,4.7-3.1c1.6-1,3.2-2,4.8-3
			c3.2-2,6.5-4.1,9.8-6.2c1.6-1.1,3.3-2.1,5-3.2c1.6-1.1,3.3-2.2,4.9-3.4c6.4-4.7,13.3-9,20.5-13.1c7.2-4,14.9-7.5,23.1-9.6
			c4.1-1,8.3-1.7,12.5-2.2c1.1-0.1,2.1-0.2,3.2-0.3l3.2-0.1c2.2,0,4.3,0.1,6.5,0.4c8.6,1,16.8,3.9,24.5,7.7
			c3.8,1.9,7.5,4.2,11.2,6.2c1.8,1.1,3.7,2,5.6,3.1c1.9,1,3.8,2,5.6,2.9c1.9,1,3.7,2,5.6,3c1.9,1,3.6,2.1,5.3,3.4
			c3.4,2.5,7.1,4.5,10.8,6.4c3.8,1.8,7.4,3.9,10.9,6c3.5,2.1,7.1,4.3,10.6,6.4c7.1,4.2,14,8.3,20.9,12.3c1.7,1,3.4,2,5.1,3.1
			c1.6,1.1,3.3,2.2,5,3.1c1.7,1,3.4,1.8,5.1,2.8c1.7,0.9,3.3,1.9,5,2.9c3.3,1.9,6.6,3.7,10.1,4.9c3.5,1.2,7,2.1,10.6,2.2
			c0.9,0.1,1.8,0,2.7,0c0.8-0.1,1.7-0.2,2.6-0.3c1.7-0.3,3.4-0.7,5.1-1.3c3.3-1.1,6.4-2.7,9.3-4.3c3-1.7,5.9-3.4,8.7-5.1
			c2.8-1.7,5.5-3.5,8.2-5.3c2.6-1.8,5.2-3.6,7.7-5.3c2.5-1.7,5-3.3,7.4-5c4.8-3.3,9.3-6.4,13.5-9.4c2.1-1.5,4.1-3,6-4.4
			c1.9-1.5,3.7-3,5.4-4.4c3.4-2.9,6.7-5.3,9.7-7.6c2.9-2.3,5.4-4.5,7.6-6.4c2.2-1.9,4.1-3.5,5.6-4.7c3-2.6,4.6-4,4.6-4L625.8,729.3z
			"/>
	</g>
	<g>
		<path class="st6" d="M740.2,619.5c0,0-0.4,0.4-1.1,1c-0.4,0.3-0.8,0.8-1.3,1.3c-0.5,0.5-1.1,1-1.8,1.7c-0.3,0.3-0.6,0.7-0.9,1.1
			c-0.3,0.4-0.7,0.7-1.2,1.1c-0.4,0.3-0.9,0.7-1.3,1.1c-0.4,0.4-0.8,0.9-1.2,1.4c-0.8,1-1.6,2-2.5,3.2c-0.5,0.5-0.9,1.1-1.4,1.6
			c-0.5,0.5-1.1,1-1.7,1.5c-0.6,0.5-1.2,1.1-1.7,1.7c-0.5,0.6-1,1.3-1.6,1.9c-1.2,1.2-2.6,2.3-3.9,3.5c-1.3,1.2-2.6,2.5-3.7,4.1
			c-0.3,0.4-0.6,0.7-1,1c-0.4,0.3-0.8,0.5-1.2,0.8c-0.2,0.2-0.4,0.3-0.5,0.5c-0.2,0.2-0.3,0.4-0.4,0.6c-0.3,0.4-0.7,0.7-1,1.1
			c-1.4,1.4-2.8,2.7-4.3,4.1c-0.7,0.7-1.4,1.4-2.1,2.2c-0.7,0.7-1.5,1.4-2.3,2c-0.9,0.6-1.6,1.3-2.2,2.1c-0.3,0.4-0.6,0.8-1,1.2
			c-0.4,0.3-0.8,0.7-1.2,1c-0.8,0.6-1.7,1.3-2.4,2c-0.8,0.7-1.4,1.5-2.1,2.3c-1.5,1.5-3,2.9-4.5,4.3c-0.8,0.7-1.6,1.4-2.3,2.1
			c-0.8,0.7-1.4,1.5-2.1,2.3c-1.3,1.6-2.7,3.1-4.1,4.5c-1.4,1.5-2.8,2.9-4.4,4c-1.6,1.2-2.8,2.7-4,4.1c-0.3,0.4-0.6,0.7-1,1
			c-0.3,0.3-0.6,0.7-1,1c-0.4,0.3-0.7,0.5-1.1,0.8c-0.4,0.3-0.7,0.6-1,0.9c-1.2,1.3-2.4,2.7-3.9,3.5c-1.5,0.9-2.3,2.4-3.7,3.2
			c-1.4,0.8-1.9,2.4-3.2,3.1c-1.2,0.8-2.2,1.7-3.2,2.5c-0.5,0.4-0.9,0.9-1.3,1.4c-0.4,0.4-0.8,0.8-1.3,1.1c-0.9,0.6-1.7,1.3-2.3,2
			c-1.2,1.4-2.2,2.4-2.9,3.1c-0.3,0.3-0.6,0.6-0.8,0.8c-0.2,0.2-0.3,0.3-0.3,0.3l-1.6-1.8c0,0,0.1-0.1,0.3-0.3
			c0.2-0.2,0.5-0.4,0.8-0.7c0.7-0.6,1.8-1.6,3.3-2.7c0.3-0.3,0.7-0.6,1.1-1c0.3-0.4,0.7-0.8,1-1.2c0.4-0.4,0.8-0.8,1.2-1.2
			c0.5-0.4,1-0.7,1.5-1.1c0.9-0.8,1.8-1.9,2.7-3c0.5-0.5,1-1.1,1.7-1.4c0.7-0.3,1.3-0.8,1.7-1.5c0.9-1.4,2.6-1.8,3.6-3.2
			c1-1.4,2.4-2.4,3.8-3.5c0.7-0.5,1.3-1.2,1.9-1.9c0.3-0.3,0.7-0.6,1-0.9c0.4-0.3,0.7-0.6,1.1-0.9c0.7-0.6,1.5-1.2,2.2-1.8
			c0.7-0.6,1.4-1.3,2-2.1c1.1-1.7,2.6-3,4.1-4.3c0.7-0.7,1.5-1.3,2.3-2c0.8-0.7,1.6-1.3,2.4-1.9c0.9-0.6,1.7-1.2,2.4-2
			c0.7-0.8,1.3-1.6,2-2.4c1.4-1.5,2.8-3.1,4.4-4.4c0.8-0.6,1.7-1.2,2.5-1.9c0.4-0.4,0.7-0.8,1-1.2l0.9-1.3c0.3-0.4,0.6-0.9,1-1.2
			c0.3-0.4,0.8-0.7,1.3-0.9c1-0.4,1.7-1.2,2.2-2.1c0.5-1,1.2-1.7,2-2.4c0.8-0.7,1.5-1.3,2.3-2c1.4-1.4,2.8-2.8,4.2-4.2
			c0.4-0.3,0.7-0.7,1.1-1c0.2-0.1,0.4-0.2,0.6-0.4c0.2-0.1,0.4-0.3,0.5-0.5c0.3-0.4,0.6-0.8,0.9-1.2c0.3-0.4,0.7-0.7,1-1
			c1.5-1.1,2.8-2.4,4.1-3.7c1.2-1.3,2.4-2.6,3.6-3.8c1.2-1.2,2.4-2.3,3.3-3.5c1.8-2.6,4.2-4.3,6-6.1c0.4-0.5,0.9-0.9,1.3-1.3
			c0.4-0.4,0.7-0.9,1.1-1.4c0.3-0.4,0.7-0.9,1-1.2c0.4-0.3,0.8-0.6,1.1-0.9c0.6-0.7,1.1-1.3,1.6-1.8c0.5-0.5,0.9-1,1.2-1.3
			c0.7-0.7,1-1.1,1-1.1L740.2,619.5z"/>
	</g>
	<g>
		<path class="st6" d="M1090.4,633.1c0,0-1.5-0.1-4.3-0.4c-0.7-0.1-1.5-0.1-2.3-0.3c-0.9-0.2-1.8-0.3-2.8-0.5
			c-1-0.2-2.1-0.4-3.3-0.7c-1.1-0.3-2.4-0.6-3.6-1c-2.6-0.5-5.4-1.3-8.4-2.5c-2.9-1.4-6.1-2.6-9.5-4.1c-1.7-0.7-3.4-1.6-5.1-2.5
			c-0.9-0.4-1.8-0.9-2.7-1.3c-0.9-0.5-1.8-1-2.7-1.5c-0.9-0.5-1.8-1-2.7-1.5c-0.9-0.6-1.8-1.1-2.7-1.7c-0.9-0.6-1.8-1.2-2.7-1.9
			c-0.9-0.7-1.8-1.4-2.7-2c-1.8-1.4-3.7-2.7-5.6-4.1c-1-0.7-1.9-1.3-2.9-2.1c-1-0.7-1.9-1.5-2.8-2.2c-3.7-3.1-7.4-6.5-11.2-10.1
			c-3.8-3.5-7.6-7.2-11.7-10.7c-1-0.9-2-1.8-2.9-2.8c-0.9-1-1.8-2-2.8-3c-0.9-1-2-1.9-3.1-2.8c-1.1-0.9-2.1-1.9-3.1-2.9
			c-4.1-3.9-8.2-7.8-12.4-11.7c-2.1-1.9-4.4-3.8-6.6-5.7c-1.1-0.9-2.3-1.8-3.4-2.8c-1.1-0.9-2.2-2-3.3-2.9c-1.1-1-2.2-1.9-3.4-2.8
			c-1.2-0.9-2.4-1.7-3.7-2.5c-2.5-1.6-5-3.2-7.4-5c-4.9-3.4-10.2-6.2-15.7-8.4c-5.5-2.2-11.1-4.3-16.9-5.5l-2.2-0.5
			c-0.7-0.2-1.5-0.3-2.2-0.4c-1.5-0.3-2.9-0.5-4.4-0.7c-1.5-0.1-2.9-0.3-4.4-0.4c-0.7,0-1.5-0.1-2.2-0.1l-2.2,0
			c-5.9,0-11.7,0.6-17.3,1.4c-2.8,0.5-5.6,0.9-8.4,1.6c-1.4,0.3-2.8,0.6-4.1,0.9c-1.4,0.3-2.7,0.6-4.1,1c-2.7,0.6-5.3,1.6-7.9,2.5
			c-1.3,0.5-2.5,1-3.8,1.6c-1.3,0.5-2.5,1-3.7,1.6c-1.2,0.6-2.4,1.1-3.6,1.7c-1.2,0.5-2.4,1.2-3.5,1.7c-1.2,0.5-2.4,1.1-3.6,1.6
			c-1.2,0.6-2.3,1.2-3.4,1.9c-1.1,0.6-2.2,1.2-3.3,1.9c-1.1,0.7-2.1,1.4-3.2,2c-1.1,0.6-2.1,1.3-3.2,1.9c-1.1,0.6-2.1,1.2-3.2,1.8
			c-4.2,2.4-7.7,5.6-11.4,8c-1.9,1.2-3.6,2.6-5.2,4c-1.6,1.5-3.3,2.7-4.9,4c-1.6,1.2-3.2,2.4-4.7,3.6c-1.5,1.2-3,2.4-4.3,3.6
			c-1.3,1.2-2.7,2.4-3.9,3.6c-0.6,0.6-1.2,1.1-1.9,1.7c-0.6,0.5-1.2,1-1.8,1.6c-2.4,2-4.6,3.9-6.5,5.8c-1.9,1.8-3.5,3.5-4.9,4.9
			c-1.5,1.4-2.7,2.6-3.7,3.6c-1,1-1.8,1.7-2.3,2.2c-0.5,0.5-0.8,0.8-0.8,0.8l-1.7-1.7c0,0,0.3-0.3,0.8-0.8c0.5-0.5,1.3-1.3,2.3-2.2
			c1-1,2.3-2.2,3.8-3.5c1.5-1.4,3.3-2.9,5.2-4.6c1-0.9,2-1.8,3.1-2.8c1.1-1,2.1-2.1,3.2-3.2c2.2-2.3,5-4.4,7.8-6.7
			c2.8-2.4,5.7-5,8.8-7.7c0.8-0.7,1.6-1.3,2.4-2c0.8-0.6,1.7-1.2,2.6-1.8c1.9-1.1,3.6-2.4,5.3-3.9c1.7-1.5,3.6-2.8,5.6-4.1
			c1-0.6,2-1.3,3-1.9c1-0.7,1.9-1.4,2.9-2.1c3.8-3.1,8.3-5.5,12.9-7.9c1.2-0.6,2.3-1.2,3.5-1.8c1.2-0.6,2.3-1.2,3.5-1.9
			c2.3-1.3,4.9-2.2,7.4-3.3c2.5-1.1,5.1-1.9,7.7-2.9c1.3-0.4,2.6-0.9,4-1.3l2-0.7c0.7-0.2,1.3-0.4,2-0.7c1.3-0.5,2.7-0.9,4.1-1.4
			c1.4-0.4,2.8-0.7,4.2-1c2.8-0.7,5.7-1.1,8.6-1.6c1.4-0.2,2.9-0.3,4.4-0.4c1.5-0.1,2.9-0.3,4.4-0.3c1.5,0,3-0.1,4.4-0.1
			c1.5,0,3,0.2,4.5,0.3l2.2,0.2l2.2,0.3c1.5,0.2,3,0.3,4.5,0.4c1.5,0.2,3,0.4,4.5,0.5c0.7,0.1,1.5,0.2,2.3,0.3l2.2,0.4
			c1.5,0.3,2.9,0.6,4.4,1c1.5,0.4,2.9,0.8,4.4,1.3c1.5,0.4,2.9,1,4.3,1.5c1.4,0.5,2.9,1,4.2,1.7c1.4,0.7,2.7,1.4,4.1,2
			c0.7,0.3,1.3,0.7,2,1.1l2,1.1c0.7,0.4,1.3,0.7,2,1l2,1.1c1.3,0.7,2.7,1.3,4,2c1.3,0.7,2.6,1.5,3.9,2.3c1.3,0.7,2.5,1.7,3.6,2.7
			c2.2,2.1,4.6,3.8,7.2,5.3c2.5,1.6,4.9,3.4,7.1,5.3c2.2,2,4.4,3.9,6.5,5.9c4.3,3.9,8.5,7.8,12.5,11.7c1,1,2,1.9,3,3
			c0.9,1.1,1.8,2.1,2.9,3c1,0.9,2.1,1.8,3.1,2.7c1,0.9,2,1.9,2.9,2.9c1.9,2,3.7,3.9,5.6,5.7c1.9,1.8,3.8,3.6,5.7,5.4
			c3.8,3.4,7.6,6.7,11.4,9.7c1.9,1.5,3.7,3.1,5.5,4.5c0.9,0.7,1.8,1.4,2.8,2.1c1,0.6,1.9,1.3,2.8,1.9c0.9,0.6,1.9,1.2,2.8,1.8
			c0.9,0.6,1.8,1.2,2.7,1.7c0.9,0.6,1.8,1.2,2.6,1.8c0.9,0.5,1.8,1.1,2.6,1.6c0.9,0.5,1.7,1.1,2.6,1.6c0.9,0.5,1.7,1,2.6,1.4
			c1.7,0.9,3.3,1.9,5,2.6c0.8,0.4,1.6,0.8,2.4,1.2c0.8,0.4,1.6,0.8,2.4,1c1.6,0.6,3.1,1.1,4.6,1.6c1.5,0.4,2.9,0.8,4.3,1.3
			c0.7,0.2,1.3,0.5,2,0.7c0.7,0.2,1.3,0.4,1.9,0.5c1.3,0.3,2.5,0.6,3.6,0.8c1.1,0.2,2.2,0.3,3.2,0.5c1,0.2,1.9,0.3,2.7,0.4
			c0.8,0.1,1.6,0.1,2.3,0.2c2.8,0.2,4.3,0.3,4.3,0.3L1090.4,633.1z"/>
	</g>
	<path class="st5" d="M218.4,876.1c20.5-4.2,39.2-16.4,51.3-33.4c8.9-12.5,15.6-28.5,30-33.7c33.7-12.3,42.8,34.1,70.5,28.7
		c8.3-1.6,13.5-10.2,14.8-18.5s-0.4-16.8-0.4-25.2c-0.2-27.7,18.5-54.6,44.5-64.1c69.8-25.4,108.5,26.8,136.9,79.2
		c16.6,30.6,46.1,0.6,60,20.1c2.9,4.1,2.9,9.6,5.7,13.8c5.2,7.9,17.2,7.2,26,3.7c8.8-3.5,17.7-8.9,27.1-7.3
		c10.7,1.9,17.4,12.1,24.1,20.5c6.7,8.5,17.3,16.7,27.4,12.8"/>
	<path class="st7" d="M255.8,876.1c20.5-4.2,39.2-16.4,51.3-33.4c8.9-12.5,15.6-28.5,30-33.7c33.7-12.3,42.8,34.1,70.5,28.7
		c8.3-1.6,13.5-10.2,14.8-18.5s-0.4-16.8-0.4-25.2c-0.2-27.7,18.5-54.6,44.5-64.1c69.8-25.4,108.5,26.8,136.9,79.2
		c16.6,30.6,46.1,0.6,60,20.1c2.9,4.1,2.9,9.6,5.7,13.8c5.2,7.9,17.2,7.2,26,3.7c8.8-3.5,17.7-8.9,27.1-7.3
		c10.7,1.9,17.4,12.1,24.1,20.5c6.7,8.5,18.6,19.2,28.7,15.3"/>
	<g>
		<path class="st3" d="M1185,856c0,0-0.1-1.2-0.3-3.4c-0.1-1.1-0.2-2.5-0.3-4.1c-0.1-1.6-0.2-3.5-0.4-5.5c-0.1-1-0.3-2.1-0.5-3.2
			c-0.2-1.1-0.2-2.3-0.3-3.6c-0.1-1.2-0.1-2.6-0.3-3.9c-0.1-1.3-0.4-2.7-0.6-4.2c-0.4-2.9-1-5.9-1.5-9.1c-0.2-1.6-0.5-3.2-0.8-4.9
			c-0.2-1.7-0.4-3.4-0.5-5.2c-0.2-1.8-0.4-3.6-0.7-5.4c-0.3-1.8-0.7-3.7-0.9-5.6c-0.2-1.9-0.4-3.9-0.6-5.8c-0.2-2-0.4-4-0.5-6
			c-0.2-2-0.5-4.1-0.7-6.2c-0.2-2.1-0.6-4.2-0.9-6.3c-0.2-1.1-0.3-2.1-0.3-3.2c0-1.1,0-2.2-0.1-3.3c0-1.1-0.2-2.2-0.4-3.3
			c-0.2-1.1-0.2-2.2-0.3-3.3c-0.1-2.2-0.3-4.5-0.4-6.7c-0.1-2.3-0.2-4.5-0.2-6.8c-0.1-2.3-0.2-4.6-0.2-6.9c-0.1-2.3-0.1-4.7,0.1-7
			c0.2-2.3,0.3-4.7,0.1-7.1c-0.1-2.4,0.1-4.7,0.4-7.1c0.2-2.4,0.6-4.7,0.8-7.1c0.2-2.4,0.3-4.8,0.6-7.1c0.2-2.4,0.6-4.7,0.9-7.1
			c0.4-2.3,0.8-4.7,1.2-7c0.4-2.3,1-4.6,1.5-6.9c0.6-2.3,0.8-4.6,1.4-6.9c0.5-2.3,0.9-4.6,1.4-6.9c0.5-2.3,1.1-4.5,1.7-6.7
			c1.1-4.5,2.5-8.8,4.1-13c3.2-8.3,5.1-16.8,8.7-24.2c1.4-3.8,2.8-7.6,4.7-11c1.8-3.4,2.9-7,4.6-10.1c1.8-3.1,2.5-6.5,4.1-9.4
			c1.5-2.9,2.9-5.6,4.1-8.2c0.6-1.3,1.1-2.6,1.7-3.8c0.3-0.6,0.5-1.2,0.8-1.8c0.3-0.6,0.6-1.2,0.9-1.7c1.2-2.2,2.3-4.2,3.1-6.2
			c0.8-1.9,1.5-3.6,2.2-5.1c0.7-1.5,1.3-2.7,1.7-3.7c0.5-1,0.8-1.8,1.1-2.3c0.3-0.5,0.4-0.8,0.4-0.8l2.2,1.1c0,0-0.1,0.3-0.4,0.8
			c-0.2,0.5-0.6,1.3-1.1,2.3c-0.5,1-1.1,2.2-1.8,3.7c-0.8,1.4-1.6,3.1-2.6,4.9c-1,1.8-1.9,4-2.8,6.3c-0.9,2.3-2.3,4.7-3.6,7.3
			c-1.3,2.6-2.4,5.5-3.6,8.5c-0.6,1.5-1.3,3-2.2,4.5c-0.9,1.4-1.7,3-2.2,4.7c-1.1,3.4-3.3,6.5-4.5,10.1c-0.6,1.8-1.2,3.7-2.1,5.5
			c-0.4,0.9-0.8,1.8-1.2,2.7c-0.4,0.9-0.8,1.8-1.2,2.8c-0.9,1.9-1.5,3.8-2.2,5.8c-0.7,2-1.6,3.9-2.3,5.9c-0.8,2-1.6,4-2.4,6
			c-0.7,2-1.5,4.1-2,6.3c-0.3,1.1-0.5,2.2-0.8,3.3c-0.3,1.1-0.6,2.2-0.9,3.2c-0.3,1.1-0.7,2.1-1,3.2c-0.3,1.1-0.6,2.2-0.9,3.3
			c-0.6,2.2-1.4,4.4-2,6.6c-0.6,2.2-1.2,4.5-2,6.7c-1.5,4.4-2.2,9.1-2.8,13.8c-0.3,2.3-0.6,4.7-1,7c-0.3,2.4-0.5,4.7-0.9,7.1
			c-0.9,4.6-1.5,9.4-1.1,14.1c0.1,1.2,0.1,2.4,0,3.5c0,1.2-0.2,2.3-0.4,3.5c-0.5,2.3-0.4,4.7-0.1,7c0.7,4.6,0.2,9.3,0.4,13.8
			c0.1,2.3,0.2,4.5,0.3,6.8c0.1,2.2,0.3,4.5,0.4,6.7c0.1,1.1,0.2,2.2,0.1,3.3c0,1.1,0,2.2,0.1,3.3c0.1,1.1,0.4,2.2,0.5,3.2
			c0.1,1.1,0.2,2.1,0.3,3.2c0.2,4.3,0.6,8.4,1.1,12.5c0.5,4,1,8,1.5,11.8c0.2,1.9,0.4,3.8,0.7,5.6c0.2,1.8,0.5,3.6,0.8,5.4
			c1.5,7,1.8,13.5,2.5,19.3c0.2,1.4,0.3,2.8,0.4,4.2c0.2,1.3,0.4,2.6,0.6,3.9c0.2,1.2,0.4,2.4,0.5,3.6c0.1,1.1,0.1,2.2,0.2,3.3
			c0.5,4.1,0.9,7.4,1.1,9.6c0.2,2.2,0.4,3.4,0.4,3.4L1185,856z"/>
	</g>
	<g>
		<path class="st3" d="M1227.5,588.1c0,0,0,1,0,2.8c0,0.9,0,2,0,3.4c0,0.7,0,1.4,0,2.1c0,0.8,0.1,1.6,0.1,2.4
			c0.7,3.3,0.1,7.5,1,12.2c0.7,4.7,2.1,9.9,2.7,15.7c0.1,0.7,0.2,1.5,0.3,2.2c0.2,0.7,0.3,1.5,0.5,2.2c0.4,1.5,0.8,3,1.1,4.5
			c0.6,3.1,1.2,6.3,1.8,9.6c0.4,1.6,0.7,3.3,1.2,5c0.4,1.7,0.9,3.3,1.5,5c0.3,0.8,0.5,1.7,0.7,2.6c0.2,0.9,0.2,1.8,0.4,2.7
			c0.1,0.9,0.4,1.7,0.8,2.6c0.3,0.9,0.5,1.8,0.7,2.6c0.9,3.6,1.7,7.2,2.6,10.9c0.4,1.8,0.9,3.7,1.3,5.5c0.5,1.8,0.8,3.7,1.1,5.7
			c0.2,1.9,0.6,3.8,1.2,5.7c0.6,1.9,0.8,3.8,1.1,5.7c0.1,1,0.2,1.9,0.3,2.9c0.1,1,0.2,1.9,0.4,2.9c0.2,1,0.3,1.9,0.5,2.9
			c0.2,1,0.3,1.9,0.5,2.9c0.6,3.9,1,7.8,1.3,11.7c0.1,2,0.2,3.9,0.2,5.8c0.1,1.9,0.2,3.9,0.3,5.8c0.2,3.9,0.2,7.7,0.2,11.5
			c-0.1,1.9-0.1,3.8-0.2,5.6c0,0.9-0.1,1.9-0.2,2.8c-0.1,0.9-0.2,1.8-0.4,2.7c-0.5,3.6-0.5,7.2-0.7,10.8c0,0.9-0.1,1.8-0.1,2.6
			c0,0.9-0.1,1.7-0.2,2.6c-0.1,0.9-0.3,1.7-0.4,2.5c-0.1,0.8-0.2,1.7-0.2,2.5c-0.2,3.4-0.3,6.6-1,9.7c-0.6,3.1-0.4,6.2-0.9,9.1
			c-0.6,2.9-0.1,5.8-0.6,8.4c-0.4,2.6-0.8,5.2-0.9,7.5c-0.1,2.4-0.1,4.6-0.5,6.7c-0.3,2-0.5,3.9-0.6,5.6c0,1.7-0.1,3.2-0.1,4.6
			c-0.1,1.3-0.2,2.5-0.2,3.4c-0.1,0.9-0.1,1.6-0.2,2.1c0,0.5-0.1,0.7-0.1,0.7l-2.4-0.2c0,0,0-0.2,0.1-0.7c0-0.5,0.1-1.2,0.2-2.1
			c0.1-0.9,0.2-2,0.3-3.4c0.2-1.3,0.4-2.8,0.6-4.5c0.2-1.7,0.3-3.6,0.3-5.7c0-1,0.1-2.1,0.2-3.2c0.1-1.1,0.3-2.2,0.5-3.4
			c0.2-2.4,0.3-4.9,0.3-7.6c0-1.3,0.1-2.7,0.5-4.1c0.4-1.4,0.5-2.8,0.5-4.3c-0.1-3,1-5.9,0.9-9.1c-0.1-3.2,0.4-6.4,0.9-9.7
			c0.3-1.7,0.3-3.4,0.3-5.1c0-0.9,0.1-1.7,0.2-2.6c0.1-0.9,0.2-1.7,0.3-2.6c0.4-3.5,1-7.1,1-10.7c0-0.9,0-1.8,0-2.8
			c0-0.9,0-1.8,0.1-2.8c0.1-1.8,0.2-3.7,0.3-5.6c0.1-1.9,0.2-3.8,0.3-5.6c0.1-1.9,0.2-3.8,0.4-5.7c0.2-1.9,0.3-3.8,0.1-5.8
			c-0.1-1-0.2-1.9-0.3-2.9l-0.3-2.9c-0.2-1.9-0.5-3.9-0.7-5.8c-0.3-1.9-0.6-3.8-0.7-5.8c-0.2-3.9-0.7-7.8-2-11.5
			c-0.3-0.9-0.6-1.9-0.8-2.8c-0.2-0.9-0.3-1.9-0.3-2.9c0.1-2-0.5-3.8-1.2-5.6c-0.7-1.8-1.2-3.6-1.5-5.5c-0.4-1.9-0.8-3.7-1.1-5.6
			c-0.9-3.7-1.8-7.3-2.6-10.8c-0.2-0.9-0.5-1.8-0.6-2.7c-0.1-0.9-0.2-1.8-0.5-2.7c-0.2-0.9-0.6-1.7-0.8-2.6
			c-0.3-0.9-0.4-1.7-0.6-2.6c-0.5-3.5-1.4-6.8-2.1-10.1c-0.8-3.3-1.5-6.4-2.2-9.5c-0.6-3.1-1.2-6.1-1.9-9c-0.4-1.4-0.7-2.8-1-4.2
			c-0.3-1.4-0.4-2.7-0.6-4.1c-0.3-2.7-0.6-5.2-0.8-7.6c-0.1-1.2-0.2-2.3-0.3-3.4c-0.1-1.1-0.4-2.2-0.5-3.2c-0.1-1-0.2-2-0.3-3
			c0-1,0-1.9,0-2.7c-0.3-3.4-0.4-6.1-0.5-7.9c-0.1-1.8-0.1-2.8-0.1-2.8L1227.5,588.1z"/>
	</g>
	<g>
		<path class="st3" d="M736.4,903c0,0,0.8,0,2.3,0c0.8,0,1.7,0,2.8,0.1c1.1,0.1,2.3,0.1,3.8,0.1c0.7,0,1.4-0.1,2.2-0.2
			c0.8,0,1.6,0,2.4,0.1c0.8,0.1,1.7,0.2,2.6,0.2c0.9,0,1.9,0,2.8-0.1c2-0.1,4-0.2,6.2-0.4c1.1,0,2.2-0.1,3.4-0.1
			c1.2,0,2.3,0.1,3.5,0.2c1.2,0.1,2.4,0.1,3.7,0c1.3-0.1,2.5-0.2,3.8-0.2s2.6,0.1,4,0.2c1.3,0.1,2.7,0.1,4.1,0.2
			c2.8,0.1,5.6,0.1,8.5-0.2c0.7,0,1.5-0.1,2.2,0c0.7,0.1,1.5,0.2,2.2,0.2c0.7,0.1,1.5,0,2.2-0.1c0.7-0.1,1.5,0,2.3,0
			c3,0,6.1,0.1,9.2,0.2c1.6,0,3.1,0,4.7,0c1.6,0,3.1,0,4.7,0.2c1.6,0.2,3.2,0.3,4.8,0c1.6-0.2,3.2-0.1,4.8,0
			c1.6,0.1,3.2,0.3,4.8,0.3c1.6,0,3.2-0.1,4.8-0.1c3.2-0.1,6.4,0,9.6,0c1.6,0,3.2,0.1,4.8,0.1c1.6,0,3.2-0.1,4.8-0.2
			c3.2-0.2,6.3-0.3,9.4-0.5c1.6,0,3.1-0.1,4.6-0.1c0.8,0,1.5,0,2.3,0c0.8,0.1,1.5,0.1,2.3,0.2c3,0.2,6-0.1,8.9-0.2
			c0.7-0.1,1.4-0.1,2.2-0.1c0.7,0,1.4-0.1,2.1,0c0.7,0,1.4,0.1,2.1,0.1c0.7,0,1.4,0,2.1,0c2.8-0.1,5.5-0.3,8,0.1
			c2.6,0.4,5.1-0.2,7.5,0.1c2.4,0.4,4.7-0.4,6.9-0.1c2.2,0.2,4.3,0.3,6.2,0.3c2-0.1,3.8-0.3,5.5-0.1c1.7,0.1,3.3,0.2,4.7,0.1
			c1.4-0.1,2.7-0.2,3.8-0.3c1.1,0,2-0.1,2.8-0.1c0.8,0,1.3,0,1.7,0c0.4,0,0.6,0,0.6,0v2.4c0,0-0.2,0-0.6,0c-0.4,0-1,0-1.7,0
			c-0.8,0-1.7,0-2.8,0c-1.1,0-2.3-0.1-3.8-0.2c-1.4-0.1-3,0-4.7,0.2c-0.8,0.1-1.7,0.1-2.6,0.1c-0.9,0-1.9-0.1-2.8-0.2
			c-2,0-4,0.2-6.2,0.4c-1.1,0.1-2.2,0.1-3.4-0.1c-1.2-0.3-2.3-0.3-3.5-0.1c-2.4,0.4-4.9-0.4-7.5-0.1c-2.6,0.4-5.3,0.2-8,0
			c-1.4-0.1-2.8,0-4.2,0.1c-0.7,0-1.4,0-2.1,0c-0.7,0-1.4,0-2.2-0.1c-2.9-0.1-5.9-0.4-8.9-0.1c-0.8,0.1-1.5,0.2-2.3,0.2
			c-0.8,0-1.5,0.1-2.3,0.1c-1.5,0-3.1,0-4.6,0c-1.6,0-3.1-0.1-4.7-0.1c-1.6,0-3.1-0.1-4.7-0.3c-1.6-0.2-3.2-0.3-4.8-0.2
			c-1.6,0.1-3.2,0.3-4.8,0.3c-3.2,0.1-6.4,0.3-9.6,0.2c-1.6-0.1-3.2-0.3-4.8-0.3c-1.6-0.1-3.2,0.2-4.8,0.4c-0.8,0.1-1.6,0.2-2.4,0.2
			c-0.8,0.1-1.6,0-2.4-0.2c-1.6-0.5-3.2-0.4-4.8,0c-0.8,0.2-1.6,0.2-2.4,0.3c-0.8,0.1-1.6,0-2.4,0c-1.6-0.1-3.1-0.1-4.7-0.2
			c-3.1,0-6.2,0-9.2-0.1c-0.8,0-1.5,0-2.3-0.1c-0.7-0.2-1.5-0.3-2.2-0.2c-0.7,0-1.5,0.2-2.2,0.2c-0.7,0-1.5,0-2.2,0
			c-2.9-0.3-5.7-0.3-8.5-0.4c-2.8,0-5.5,0-8.1,0.1c-1.3,0-2.6-0.1-3.8-0.1c-1.3,0-2.5,0-3.7,0.1c-4.8,0.5-9.2,0-13.2-0.1
			c-1,0-1.9-0.1-2.8,0c-0.9,0-1.8,0.1-2.6,0.2c-0.8,0.1-1.7,0.1-2.4,0.1c-0.8,0-1.5-0.1-2.2-0.1c-1.4,0-2.7,0.1-3.8,0.1
			c-1.1,0.1-2,0.1-2.8,0.1c-1.5,0-2.3,0.1-2.3,0.1V903z"/>
	</g>
	<g>
		<path class="st3" d="M541.1,973.5c0,0,0.8,0,2.3,0c0.8,0,1.7,0,2.8,0.1c1.1,0.1,2.3,0.1,3.8,0.1c0.7,0,1.4-0.1,2.2-0.2
			c0.8,0,1.6,0,2.4,0.1c0.8,0.1,1.7,0.2,2.6,0.2c0.9,0,1.9,0,2.8-0.1c2-0.1,4-0.2,6.2-0.4c1.1,0,2.2-0.1,3.4-0.1
			c1.2,0,2.3,0.1,3.5,0.2c1.2,0.1,2.4,0.1,3.7,0c1.3-0.1,2.5-0.2,3.8-0.2c1.3,0,2.6,0.1,4,0.2c1.3,0.1,2.7,0.1,4.1,0.2
			c2.8,0.1,5.6,0.1,8.5-0.2c0.7,0,1.5-0.1,2.2,0c0.7,0.1,1.5,0.2,2.2,0.2c0.7,0.1,1.5,0,2.2-0.1c0.7-0.1,1.5,0,2.3,0
			c3,0,6.1,0.1,9.2,0.2c1.6,0,3.1,0,4.7,0c1.6,0,3.1,0,4.7,0.2c1.6,0.2,3.2,0.3,4.8,0c1.6-0.2,3.2-0.1,4.8,0
			c1.6,0.1,3.2,0.3,4.8,0.3c1.6,0,3.2-0.1,4.8-0.1c3.2-0.1,6.4,0,9.6,0c1.6,0,3.2,0.1,4.8,0.1c1.6,0,3.2-0.1,4.8-0.2
			c3.2-0.2,6.3-0.3,9.4-0.5c1.6,0,3.1-0.1,4.6-0.1c0.8,0,1.5,0,2.3,0c0.8,0.1,1.5,0.1,2.3,0.2c3,0.2,6-0.1,8.9-0.2
			c0.7-0.1,1.4-0.1,2.2-0.1c0.7,0,1.4-0.1,2.1,0c0.7,0,1.4,0.1,2.1,0.1c0.7,0,1.4,0,2.1,0c2.8-0.1,5.5-0.3,8,0.1
			c2.6,0.4,5.1-0.2,7.5,0.1c2.4,0.4,4.7-0.4,6.9-0.1c2.2,0.2,4.3,0.3,6.2,0.3c2-0.1,3.8-0.3,5.5-0.1c1.7,0.1,3.3,0.2,4.7,0.1
			c1.4-0.1,2.7-0.2,3.8-0.3c1.1,0,2-0.1,2.8-0.1c0.8,0,1.3,0,1.7,0c0.4,0,0.6,0,0.6,0v2.4c0,0-0.2,0-0.6,0c-0.4,0-1,0-1.7,0
			c-0.8,0-1.7,0-2.8,0c-1.1,0-2.3-0.1-3.8-0.2c-1.4-0.1-3,0-4.7,0.2c-0.8,0.1-1.7,0.1-2.6,0.1c-0.9,0-1.9-0.1-2.8-0.2
			c-2,0-4,0.2-6.2,0.4c-1.1,0.1-2.2,0.1-3.4-0.1c-1.2-0.3-2.3-0.3-3.5-0.1c-2.4,0.4-4.9-0.4-7.5-0.1c-2.6,0.4-5.3,0.2-8,0
			c-1.4-0.1-2.8,0-4.2,0.1c-0.7,0-1.4,0-2.1,0c-0.7,0-1.4,0-2.2-0.1c-2.9-0.1-5.9-0.4-8.9-0.1c-0.8,0.1-1.5,0.2-2.3,0.2
			c-0.8,0-1.5,0.1-2.3,0.1c-1.5,0-3.1,0-4.6,0c-1.6,0-3.1-0.1-4.7-0.1c-1.6,0-3.1-0.1-4.7-0.3c-1.6-0.2-3.2-0.3-4.8-0.2
			c-1.6,0.1-3.2,0.3-4.8,0.3c-3.2,0.1-6.4,0.3-9.6,0.2c-1.6-0.1-3.2-0.3-4.8-0.3c-1.6-0.1-3.2,0.2-4.8,0.4c-0.8,0.1-1.6,0.2-2.4,0.2
			c-0.8,0.1-1.6,0-2.4-0.2c-1.6-0.5-3.2-0.4-4.8,0c-0.8,0.2-1.6,0.2-2.4,0.3c-0.8,0.1-1.6,0-2.4,0c-1.6-0.1-3.1-0.1-4.7-0.2
			c-3.1,0-6.2,0-9.2-0.1c-0.8,0-1.5,0-2.3-0.1c-0.7-0.2-1.5-0.3-2.2-0.2c-0.7,0-1.5,0.2-2.2,0.2c-0.7,0-1.5,0-2.2,0
			c-2.9-0.3-5.7-0.3-8.5-0.4c-2.8,0-5.5,0-8,0.1c-1.3,0-2.6-0.1-3.8-0.1c-1.3,0-2.5,0-3.7,0.1c-4.8,0.5-9.2,0-13.2-0.1
			c-1,0-1.9-0.1-2.8,0c-0.9,0-1.8,0.1-2.6,0.2c-0.8,0.1-1.7,0.1-2.4,0.1c-0.8,0-1.5-0.1-2.2-0.1c-1.4,0-2.7,0.1-3.8,0.1
			c-1.1,0.1-2,0.1-2.8,0.1c-1.5,0-2.3,0.1-2.3,0.1V973.5z"/>
	</g>
	<g>
		<path class="st3" d="M619.1,958.9c0,0,0.2,0,0.6,0c0.2,0,0.4,0,0.7,0.1c0.3,0,0.6,0.1,1,0.1c0.2,0,0.4-0.1,0.6-0.2
			c0.2,0,0.4,0,0.6,0.1c0.2,0.1,0.5,0.2,0.7,0.2c0.2,0,0.5,0,0.7-0.1c0.5-0.1,1.1-0.2,1.6-0.4c0.3-0.1,0.6-0.1,0.9-0.1
			c0.3,0,0.6,0.1,0.9,0.2c0.3,0.1,0.6,0.1,1,0c0.3-0.1,0.7-0.2,1-0.2c0.7,0,1.4,0.3,2.1,0.4c0.4,0,0.7,0.1,1.1,0c0.2,0,0.4,0,0.6,0
			s0.4-0.1,0.6-0.2c0.2-0.1,0.4-0.1,0.6,0c0.2,0.1,0.4,0.2,0.6,0.3c0.1,0,0.2,0,0.3,0c0.1,0,0.2-0.1,0.3-0.1c0.2-0.1,0.4,0,0.6-0.1
			c0.8,0,1.6,0.1,2.4,0.2c0.4,0,0.8,0,1.2,0c0.4,0,0.8,0,1.2,0.2c0.4,0.2,0.8,0.3,1.2,0c0.4-0.2,0.8-0.1,1.2,0
			c0.4,0.1,0.8,0.3,1.3,0.3c0.4,0,0.8-0.1,1.3-0.1c0.8-0.1,1.7,0,2.5,0c0.4,0,0.8,0.1,1.2,0.1c0.4,0,0.8-0.1,1.2-0.2
			c0.8-0.2,1.6-0.3,2.5-0.5c0.8-0.1,1.6-0.2,2.4,0.1c0.8,0.2,1.6-0.1,2.3-0.2c0.4-0.1,0.8-0.2,1.1-0.1c0.2,0,0.4,0.1,0.6,0.1
			c0.2,0,0.4,0,0.5,0c0.4,0,0.7-0.2,1.1-0.2c0.3,0,0.7,0.1,1,0.3c0.7,0.4,1.3-0.2,2,0.1c0.3,0.1,0.6,0.1,0.9,0
			c0.3-0.2,0.6-0.2,0.9-0.1c0.6,0.2,1.1,0.3,1.6,0.3c0.5-0.1,1-0.3,1.4-0.1c0.2,0.1,0.4,0.1,0.6,0.1c0.2,0,0.4,0,0.6-0.1
			c0.7-0.3,1.3-0.3,1.7-0.3c0.4,0,0.6,0,0.6,0v2.4c0,0-0.2,0-0.6,0c-0.4,0-1,0-1.7-0.2c-0.2,0-0.4,0-0.6,0c-0.2,0-0.4,0.1-0.6,0.2
			c-0.2,0.1-0.5,0.1-0.7,0.1c-0.2,0-0.5-0.1-0.7-0.2c-0.5,0-1.1,0.1-1.6,0.4c-0.3,0.1-0.6,0.1-0.9-0.1c-0.3-0.3-0.6-0.3-0.9-0.1
			c-0.6,0.4-1.3-0.5-2-0.1c-0.3,0.1-0.7,0.3-1,0.2c-0.3,0-0.7-0.2-1.1-0.2c-0.2,0-0.4-0.1-0.5,0l-0.6,0.1c-0.4,0-0.7,0-1.1-0.1
			c-0.8-0.1-1.5-0.4-2.3-0.1c-0.8,0.4-1.6,0.4-2.4,0.3c-0.4,0-0.8-0.1-1.2-0.1c-0.4,0-0.8-0.1-1.2-0.3c-0.4-0.2-0.8-0.3-1.2-0.2
			c-0.4,0.1-0.8,0.3-1.2,0.3c-0.8,0.1-1.7,0.3-2.5,0.2c-0.4-0.1-0.8-0.3-1.3-0.3c-0.2,0-0.4,0-0.6,0.1l-0.6,0.3
			c-0.2,0.1-0.4,0.2-0.6,0.2c-0.2,0.1-0.4,0-0.6-0.2c-0.4-0.5-0.8-0.4-1.2,0c-0.4,0.3-0.8,0.4-1.2,0.3c-0.4-0.1-0.8-0.1-1.2-0.2
			c-0.8-0.1-1.6,0-2.4-0.1c-0.2,0-0.4,0-0.6-0.1c-0.1-0.1-0.2-0.1-0.3-0.2c-0.1,0-0.2,0-0.3,0c-0.2,0-0.4,0.2-0.6,0.2
			c-0.2,0-0.4,0-0.6,0c-0.8-0.3-1.5-0.3-2.2-0.4c-0.7,0-1.4,0-2.1,0.1c-0.7,0-1.3-0.2-2,0.1c-0.3,0.1-0.6,0.2-0.9,0.2
			c-0.3,0-0.6,0-0.9,0c-0.6-0.1-1.1-0.2-1.6-0.2c-0.3,0-0.5,0-0.7,0c-0.2,0-0.5,0.1-0.7,0.2c-0.2,0.1-0.4,0.1-0.6,0.1
			c-0.2,0-0.4-0.1-0.6-0.1c-0.4,0-0.7,0.1-1,0.1c-0.3,0.1-0.5,0.1-0.7,0.1c-0.4,0-0.6,0-0.6,0V958.9z"/>
	</g>
	<path class="st2" d="M932.8,532.7c16.4,17,15.9,47.4-1,63.9c-3.1,3-6.8,5.8-7.9,10c-2.5,9.3,8.8,16.1,18.3,17.7
		c9.5,1.6,21,2.7,25.1,11.4c4.2,9-3.3,19.1-11,25.4c-7.7,6.4-16.9,13.3-17.2,23.2c-0.3,11.8,12.8,19.9,24.6,20.6
		c21.7,1.2,40.9-13,57.4-27.1c16.5-14.2,33.8-29.7,55.4-32.2c8.3-0.9,19.1-1.4,21.7-9.3c3.1-9.6-9.5-16-19-19.3
		c-17.4-6.1-33.2-16.5-45.7-30c-4.8-5.2-9.1-13.4-4.5-18.8c1.6-1.9,4.1-2.9,6.1-4.5c3.7-3,5.3-8.2,4-12.8
		c-1.7-5.9-7.3-9.5-12.6-12.7c-12.6-7.5-25.1-15.1-37.7-22.6c-8.3,7.2-16.7,14.5-26.8,18.7c-10.1,4.2-22.3,4.9-31.5-0.9"/>
	<path class="st2" d="M1292.6,342.9c6.7,5.3,2.4,16.3-3.7,22.3c-6.1,6-14.2,12-14,20.6c0.4,17,21.9,14,29.7,23.8
		c9.4,11.9,1.9,22.8,2.5,36c0.5,11,10.3,19.8,20.8,23.2s21.8,2.8,32.9,3.1c20.7,0.6,80,17.1,99.4,24.5c-10.2-23-48.6-49.2-85.8-76
		c-31.9-22.9-45.8-58.1-80.1-77.2"/>
	<g>
		<g>
			<g>
				<path class="st8" d="M1459.7,604.5c5.5,27.3,20.7,41.7,35.3,48.7c15.7,7.5,30.5,6.3,45.4,15.5c1,0.6,1.9,2.6,2.4,3.7
					c0.9,2.1-0.7,4.3-2.2,6c-10.8,11.7-24.9,21.5-38.1,30.4c-6.7,4.5-36.7,12.1-40,18.3c6.2-11.6,16.7-28.1,10.3-40.9
					c-5.1-10.2-21.2-17.3-32.8-15.7"/>
				<path class="st9" d="M1493.7,896.9c-16.6-7-31.8-17.8-48.5-25.3c-18.2-8.2-37.1-15-56.3-20.4c-10.5-2.9-18.3,0.4-26.8,6.5
					c-8.6,6.2-17.8,13.2-20,23.5c-1.6,7.4,0.7,15.1,3,22.4c4.8,14.8,11.2,29.6,15.3,44.5"/>
				<path class="st10" d="M1496.2,902.4c-52.5-1.7-108.1-5.2-158.9,10.9c-4.9,1.6-9.9,3.4-13.9,6.7c-5,4.2-7.9,10.3-10.4,16.2
					c-3.3,7.9-6.3,15.8-9,23.9c-0.8,2.6-1.7,5.3-1.1,8c0.7,3.7,3.8,6.4,6.6,8.8c46.4,39,103.3,54.7,162.9,63.1
					c53.2,7.5,132,16.5,142.3-55.9"/>
				<path class="st11" d="M1310.3,730.1c15.6-6.8,36.5,5.3,51.1,10.9c26.9,10.4,138.2,47.9,140.5,43.1c3.7-8,4.3-9.4,9.9-16.1
					c4.2-5,7.9-10.5,13.3-14.2c18.6-12.6,39.1,12.7,43.2,29c3.3,13.4,0.1,28.2-8.4,39c-6,7.6-14.3,13.1-22.4,18.4
					c-12.5,8.2,19.9,34.1,5,32.6c-10.7-1-31.7,1.6-42.2-0.7c-28.5-6.4-98.9-51.5-161.3-122.6"/>
				<path class="st11" d="M1360.1,741.9c-9.9-5.5-20.4-10-31.3-13.2c-5.5-1.7-9.4-2.6-15.1-1.5c-5.5,1.1-10.7,3.2-15.7,5.7
					c-0.6,0.3-1.2,0.6-1.6,1c-3.2,3-6.7,5.7-9.9,8.7c-1.6,1.4-3.2,2.9-4.3,4.7c-0.9,1.6-1.5,3.3-1.9,5.1c-0.8,3.2-1.5,6.5-2,9.8
					c-0.1,1-0.3,2.1,0.3,3c0.9,1.5,3.3,1.4,4.6,0.2c1.3-1.2,1.8-3,2.3-4.7c0.4-1.7,0.9-3.3,1.3-5c0.1-0.4,0.2-0.8,0.4-1.1
					c0.3-0.5,0.9-0.7,1.4-0.9c4.8-1.8,8.5-4,13.1-0.5c2.7,2.1,4.3,5.7,7.7,6.9c3,1.1,7.2-0.3,10.3-0.7c4.2-0.5,7.9-1.4,11.7-3.5
					c1.4-0.8,7.8-4.8,9.4-5.1c2.6-0.5,6.7,3.3,8.9,4.6c5.3,3.2,8.8,7.1,13.1,11.5"/>
				<path class="st5" d="M1538.9,667.6c-1.7-1.1-4.5-4.9-6.6-4.7c-7.6,0.7,7.4,10.4-22.9,28.8c-21.3,12.9-43.3,10.7-49,39.1
					c-3.2,16.1,3.6,33.7-1.6,49.3c-4.6,13.6-21,21-16.8,37.4c4.9,19.1,25.2,23.7,33.4,38.1c6.2,11-12.9,43.9-15.3,41.3
					c23.4,26.1,48.4,50.6,70.7,77.7c23.2,28.3,49.7,51.6,86.4,59.8c-0.9-21.9,9-42.5,16.5-63.1c20.2-55.3,28.5-126.8,10.7-183.8
					C1628.9,738.1,1581.5,694.1,1538.9,667.6z"/>
				<path class="st8" d="M1289.4,808.9c27.6-2.9,61.6,13.6,89.3,18.4c14,2.4,29.8,9.8,44.2,7.9c5.1-0.6,30.5-16.5,23.6-20.7
					c11.2,6.9,22.4,13.9,33.6,20.8c10.8,6.7,22.9,13.7,35.3,11.4c-7.3,20.1-24.1,35.2-38.5,50.3c-2.8,2.9-5.8,5.9-9.6,7.3
					c-3.8,1.4-8,1.1-12,0.6c-62-7.2-106.2-36.2-151.6-77.7c0.8,0.2,1.6,0.4,2.4,0.6"/>
				<path class="st8" d="M1314.6,811.6c-7.3-1.6-14.8-3.1-22.3-2.6s-15.1,3-20.4,8.3c-5.3,5.3-16.8,16.4-16.5,24.1
					c0.4,10.8-1.4,16.4-2.6,30.6c2.3,0.3,4.9-0.1,6.7-5.7c1.4-4.5,2.2-6.7,3.5-11.2c1.1-3.9,3.3-5,8-3.7c0.7,0.2,2.8,1.6,3.5,1.7
					c1.1,0.2,2.3-0.2,3.3-0.6c2.7-1,5.5-1.8,8.1-3c4.6-2.1,9.5-4.4,11.8-8.9c1.2-2.3,1.6-5,3-7.2c3.4-5.4,8.5-4.4,12.9-1.3
					c4.1,2.9,7.9,6.3,11.2,10.2"/>
				<path class="st8" d="M1465.3,619.9c0.3,4.3,0.1,8.5-0.6,12.5c-0.9,5.1-3.4,9.7-5.8,14.2c-5.9,10.8-11.8,21.6-17.7,32.4
					c-2.6,4.7-5.2,9.5-9.5,12.6c-3.9,2.8-8.7,4-13.4,5c-8.1,1.7-16.3,3.1-24.5,4.1c-3,0.4-6.2,0.7-8.9-0.7c-3.2-1.6-5-5.1-6.5-8.4
					c-7.5-16.5-13.7-33.7-15.7-51.7c-3.2-28.9,6.4-65.7,36.9-76.6C1433.9,551,1463.1,587.5,1465.3,619.9z"/>
				<path class="st12" d="M1403.6,543.3c-7.3-0.8-14.3,0.5-19.5,7.9c-2.8,4-4.2,9.1-7.8,12.4c-5.3,5-14.4,5.1-18.5,11.2
					c-2.2,3.3-2.3,7.8-1.1,11.6c1.9,6.1,6,16.3,13.7,15.8c14.7-1,19.4-21.5,37.6-12.2c7,3.6,11.3,11.8,10.3,19.6
					c-0.8,6.1-4.5,11.7-4.7,17.8c-0.1,6.2,3.4,11.7,5,17.7c1.9,6.7,1.2,14.4-3.3,19.8s-13.1,7.2-18.6,3.1c-2.6-2-4.3-5-6.7-7.3
					c-6.1-5.9-18.3-6.1-24.3-0.2c2.5,14,4.1,27.3,9.8,40.3c1.2,2.7,2.6,5.6,5.2,7c2.3,1.3,5.2,1.1,7.8,0.8c12.6-1.3,29.2-1.9,39.6-9
					c10.4-7.1,18-21.2,15.5-33.6c-1.2-6.1-4.7-11.5-5.9-17.6c-1.2-6.1-3.8-9.1,2.1-10.8c6-1.8,11.6,3.3,17.5,5.4
					c4.3,1.6,12,0.6,16.2-1.1c2.2-0.9,6-4.7,6.9-6.8c0.9-2.2,0.3-6.4-1.9-7.2c-0.7,4.1-7.4,3.9-9.6,0.4c-2.2-3.5-1.5-8-1-12.2
					c2.1-18.1-3.1-36.9-14.2-51.3c-9.3-12-22.2-15.2-36.1-18.5C1413.1,545.2,1408.3,543.8,1403.6,543.3z"/>
				<polygon class="st12" points="1362.9,633.6 1356.9,658 1373.6,661.6 				"/>
				<path class="st12" d="M1419.6,545.6c-5.1-8.1-7.4-18.2-5-27.4s9.8-17.4,19.1-19.5c1.5-0.3,3.2-0.5,4.7-0.1
					c3.8,1.1,5.5,5.7,9,7.5c2.7,1.3,5.8,0.7,8.8,0.5c13.9-0.7,27.2,11.2,27.9,25.1c0.1,2.7-0.2,5.8-2.2,7.7
					c-2.5,2.5-6.6,2.3-10.2,2.4c-3.6,0.1-7.9,1.2-8.9,4.6c-1.2,4,3.1,8.5,1,12.2c-1.8,3.1-6.5,2.5-9.9,1.1
					c-3.4-1.4-7.6-2.9-10.3-0.5"/>
				<path class="st13" d="M1423.9,542.8c-7.3-5.4-13.3-12.5-17.4-20.6c-0.9-1.8-1.7-3.7-1.3-5.6c0.4-1.9,2.4-3.6,4.2-2.9
					c1.5,2.4,0.4,6-2.1,7.3s-6,0.1-7.2-2.4"/>
				<path class="st13" d="M1463.5,508.7c4.3-1.7,9.4-1.1,13.2,1.6c2.9,2.1,5,5.2,8,7.2c3,2,7.7,2.4,9.6-0.6c0.8-1.3,1-2.8,0.9-4.3
					c-0.1-2.3-0.8-4.6-2.4-6.2s-4.2-2.4-6.2-1.3s-2.8,4.1-1.3,5.7c0.2,0.3,0.6,0.5,0.9,0.3c0.3-0.2-0.1-0.8-0.3-0.5"/>
				<path class="st8" d="M1449.1,635.3c-0.6-3-1.9-5.8-3.2-8.5c-3.8-7.6-20.4-12.7-17.3,1c1.2,5.4,1.2,9.9,0.9,15.6
					c-0.6,11.2,16.3,9.9,19.2,1.2C1449.8,641.5,1449.8,638.3,1449.1,635.3z"/>
			</g>
			<path class="st8" d="M1347.6,1033.1c9.2,10.1,19,8.1,31.9,7.7c3.9-0.1,7.8-0.3,11.5-1.3c12.9-3.6,18.7-19.4,4.8-26.5
				c-5-2.6-11.2,0.1-16.6-0.7c-6.4-1.1-11.2-5.7-16.6-8.9c-2.9-1.8-6-3.4-9.4-4.1c-5.1-1-13.7,1.8-16.7,6.4
				c-2.3,3.5-0.6,8.1,1.3,11.9C1340.5,1023,1343.4,1028.5,1347.6,1033.1z"/>
		</g>
		<g>
			<path class="st12" d="M1617.2,1044.3c0,0-1.9,0-5.4,0c-3.5,0-8.7-0.1-15.2-0.2c-3.3,0.1-6.9,0.3-10.8,0.1c-2,0-4-0.2-6.2-0.2
				c-2.1,0-4.3,0.1-6.6,0.1c-4.6,0.1-9.4,0.2-14.5,0.3c-2.6,0-5.2,0.1-7.9,0.1c-2.7,0-5.4-0.1-8.2-0.2c-5.6-0.3-11.5,0.2-17.5,0.2
				c-6-0.1-12.3-0.2-18.7-0.4c-6.4,0-13-0.1-19.8,0.2c-1.7,0-3.4,0.1-5.1,0c-1.7-0.1-3.4-0.2-5.1-0.2c-1.7-0.1-3.5,0-5.2,0.1
				c-1.7,0.1-3.5,0-5.2,0c-7-0.1-14.1-0.1-21.4-0.2c-3.6,0-7.2,0-10.9,0c-1.8,0-3.7,0-5.5,0c-1.8,0-3.7-0.1-5.5-0.2
				c-3.7-0.2-7.4-0.3-11.1,0c-3.7,0.2-7.4,0-11.2,0c-3.7-0.1-7.5-0.2-11.2-0.2c-3.7,0-7.5,0.1-11.2,0.1c-7.5,0.1-15,0-22.4,0
				c-3.7,0-7.4-0.1-11.2-0.1c-3.7-0.1-7.4,0.1-11.1,0.2c-7.4,0.2-14.7,0.3-21.9,0.5c-3.6,0-7.2,0.1-10.8,0.1c-1.8,0-3.6,0-5.3,0
				c-1.8-0.1-3.5-0.1-5.3-0.2c-14-0.2-27.6,0.7-40.4,0.2c-6.4,0.1-12.7,0.3-18.7-0.1c-6-0.4-11.9,0.2-17.5-0.2
				c-5.6-0.4-11,0.4-16.1,0.1c-5.1-0.2-10-0.2-14.5-0.2c-2.3,0-4.5,0.1-6.6,0.1c-1.1,0-2.1,0-3.1,0c-1,0-2,0-3-0.1
				c-3.9-0.1-7.6-0.2-10.8-0.1c-3.3,0.1-6.2,0.2-8.7,0.2c-2.5,0-4.7,0.1-6.5,0.1c-1.8,0-3.1,0-4,0c-0.9,0-1.4,0-1.4,0v-2.4
				c0,0,1.9,0,5.4,0c1.8,0,3.9,0,6.5,0c2.5,0.1,5.5,0.1,8.7,0.2c3.3,0.1,6.9,0,10.8-0.2c1,0,2,0,3-0.1c1,0,2.1,0,3.1,0
				c2.1,0,4.3,0.1,6.6,0.1c4.6,0,9.4-0.2,14.5-0.4c2.6-0.1,5.2-0.1,7.9,0.1c2.7,0.3,5.4,0.3,8.2,0.1c5.6-0.4,11.5,0.4,17.5,0.1
				c6-0.4,12.3-0.1,18.7,0c3.2,0.1,6.5,0,9.8-0.1c1.6-0.1,3.3,0,5,0c1.7,0,3.3,0.1,5,0.1c3.4,0,6.8,0.1,10.2,0.1
				c1.7,0,3.5,0.1,5.2,0c1.7,0,3.5,0,5.2-0.1c1.8-0.1,3.5-0.2,5.3-0.2c1.8,0,3.5-0.1,5.3-0.1c3.6,0,7.1,0,10.8,0
				c7.2,0.1,14.5,0.1,21.9,0.5c3.7,0.2,7.4,0.3,11.1,0.2c3.7-0.1,7.4-0.2,11.2-0.3c7.5-0.1,14.9-0.3,22.4-0.2
				c3.7,0.1,7.5,0.3,11.2,0.3c1.9,0,3.7-0.1,5.6-0.1c1.9-0.1,3.7-0.2,5.6-0.3c1.9-0.1,3.7-0.2,5.6-0.2c1.9-0.1,3.7,0,5.6,0.2
				c3.7,0.5,7.4,0.4,11.1,0c3.7-0.3,7.4-0.4,11-0.3c3.6,0.1,7.3,0.1,10.9,0.2c7.2,0,14.3,0.1,21.4,0.1c1.8,0,3.5,0,5.2,0.1
				c1.7,0.2,3.5,0.3,5.2,0.2c1.7,0,3.4-0.2,5.1-0.2c1.7-0.1,3.4,0,5.1,0.1c6.8,0.3,13.4,0.3,19.8,0.3c6.4,0,12.7,0,18.7-0.1
				c3,0,6,0,8.9,0.1c1.5,0,2.9,0,4.3,0c1.4,0,2.8-0.1,4.3-0.1c2.8-0.1,5.6-0.2,8.2-0.2c2.7,0,5.3,0.1,7.9,0.1
				c5.1,0.1,10,0.1,14.5,0.2c2.3,0,4.5,0.1,6.6,0.1c2.1,0,4.2-0.1,6.2-0.2c3.9-0.2,7.6,0,10.8,0c6.5-0.1,11.7-0.2,15.2-0.2
				c3.5,0,5.4-0.1,5.4-0.1V1044.3z"/>
		</g>
		<g>
			
				<linearGradient id="SVGID_1_" gradientUnits="userSpaceOnUse" x1="21456.4648" y1="934.6167" x2="21175.4141" y2="853.321" gradientTransform="matrix(-1 0 0 1 22551.2832 0)">
				<stop  offset="0" style="stop-color:#FFFFFF"/>
				<stop  offset="0.7292" style="stop-color:#FFFFFF;stop-opacity:0"/>
			</linearGradient>
			<path class="st14" d="M1088.8,906.7L1300,721.4c0,0,48.4,32.3,92.4,130.6c57.8,129-124.8,186.6-124.8,186.6l-127.2-0.6
				L1088.8,906.7z"/>
			<polygon class="st10" points="1293.9,1043.6 1287.3,1034 1146.5,1033.4 1089.3,900.6 1079.8,906.2 1138.4,1042.4 			"/>
		</g>
		<path class="st15" d="M975,920.2c-0.5,5.2-3.2,9.6-0.8,14.2c6.8,12.8-2.8,54.7-12.3,65.8c-4.9,5.8-25.9,13.6-21.6,24.4
			c1.6,3.9,6.7,4.9,9.9,7.6c3.2,2.7,3.6,4.1,2.4,8.1c-7.4,0.9-15.7,1.5-21.4-3.3c-7.7-6.5-7.2-20.6-16.4-24.8
			c20.4-24.9-11-37.3-6.4-63.7"/>
		<path class="st16" d="M1043.2,830.7c-16.2,7.4-18,8-18.3,21.3c-0.3,13.2,8.8,25.3,9.3,38.6c0.6,16.8-5.1,31.7-16.3,44.3
			c-14.8,16.7-36,22.9-51.2,37.8c-5,4.9-9.7,10.3-13.7,16.1c-2.7,3.8-5.2,7.8-9,10.5c-7.1,5.2-18,4.1-24-2.3
			c-10.4-11.2-11.3-28.2-23-39.3c-6.5-6.2-15.4-9.2-22.9-14.2c-7.5-5-13.9-13.8-11.4-22.5c29.4,9.3,36.7-5.2,59.4-20.5
			c22.7-15.3,30.6-33.7,38.1-50.5"/>
		<path class="st16" d="M947.6,934.6c-0.5,5.2,3.4,9.6,5.8,14.2c6.8,12.8,3.7,41.6-5.7,52.7c-4.9,5.8-27.2,9.7-22.9,20.4
			c1.6,3.9,5.4,6.2,8.6,8.9c3.2,2.7,6.2,6.7,5,10.7c-7.4,0.9-15.7,1.5-21.4-3.3c-7.7-6.5-7.2-20.6-16.4-24.8
			c20.4-24.9-11-37.3-6.4-63.7"/>
		<path class="st16" d="M935.7,897.9c11.4-13.3,15.9-33.6,22.8-49.8c2.1-4.9,0.4-14.2,2.2-19.3c5.3-15.5,15.7-25.4,23-40
			c3.2-6.5,20-29,17-35.3c9,18.7,24.5,28.9,43.7,32.6c14.5,2.8,24.9,0.4,39.2-2.7c1.2-0.3-2.8,20.6-4.2,23.2
			c-4.9,9.3-17.6,15.1-26.5,19.8c-4.6,2.4-6.9,10.6-5.5,12.5c5.2,7.3-7.6,13.1,3.9,36.2c8.7,17.6-16.9,33.7-29.5,48.7"/>
		<path class="st0" d="M1043.6,883.6c22.5,17.2,28.4-18,43.5-12.4c0,0,8.5-3.4,1.7-6.6c-11.3-5.4-53.9,2.2-50.8-10"/>
		<path class="st0" d="M1090.8,865.6c0,0,10.4,5.8,9.2,11.8s-15.3-2-15.3-2l-4.4-8"/>
		<path class="st17" d="M1059.3,872.4c0.1-2.2,0-4.4-0.4-6.6c-0.7-4-2.8-7.8-4.3-11.6c-2-5-3.4-10.4-6-15.1
			c-1.1-2.1-0.3-10.1,4.2-12.5c8.9-4.7,21.6-10.5,26.5-19.8c1.4-2.6,5.4-23.5,4.2-23.2c-14.2,3.1-24.6,5.5-39,2.7c0,0,0,0,0,0
			c1.7,0.9,15.4,7.8,13.9,13.8c-1.5,6.4-11.2,10.9-17.1,13.7c-7.6,3.7-16.1,5.4-24.5,5.2c0,5.8,3.6,11.4,8.9,13.7
			c4,1.8,8.9,1.8,11.4,6c1.1,1.9,1.4,4.3,0.8,6.4c-1.8,6.1-9.3,6.7-12.2,11.9c-0.7,1.2-1,2.7-0.7,4.1c0.7,3.1,3.2,3.4,5.3,4.4
			c4,1.9,6.1,6.5,6.2,10.9c0.2,5.2-1.9,10.3-3.2,15.3c-1.3,5.1-3.1,10-5.3,14.7c-4.3,9.5-10.3,18.3-17.5,25.8
			c-2.2,2.3-4.6,4.6-6.1,7.5s-1.8,6.6,0,9.3c0.7,1,12.2-10.4,13.5-11.4c5.6-4.1,9.6-9.5,13.5-15.2c4.9-7.2,12.3-12,17.3-19
			c5-7.2,8.1-15.7,9.7-24.3C1058.8,876.8,1059.2,874.6,1059.3,872.4z"/>
		<path class="st12" d="M1077.6,783.6c-1.5-2.5,0.7-5.9,3.6-6.6c2.6-0.6,5.7,0.8,6.7,3.3s-0.5,5.8-3.1,6.5c-2.6,0.6-5.6-2-5-4.6"/>
		<path class="st18" d="M1004,762.4c-0.8,10.5-2.6,17.1-0.3,27.4c3.3-1.9,4.9-6.2,3.8-9.8c3.2,1.4,6.5,2.7,9.7,4.1"/>
		<path class="st0" d="M862.3,924c1.1,1.7,2.7,3,4.6,3.6c1.6,0.5,3.6,0.7,4.3,2.3c0.9,1.9-1,4.1-0.3,6c0.7,2,2.5,1.6,4.2,1.7
			c2.3,0,4.5,0.2,6.8,0.4c1,0.1,2,0.3,2.7,1c1.8,1.7,2.2,6,3.2,8.2c1.2,2.6,2.3,6.9,4.3,8.9c0,0-5.7-2.6-9.1-4.5
			c-1.6-0.9-5.1-3-7.7-4c-2.4-1-5.1-4-7-5.8c-3.6-3.3-6-6.7-7.9-11.2c-0.9-2.1-1-10.1,0.7-12.4C861.9,917.1,862.3,923.9,862.3,924z"
			/>
		<path class="st0" d="M919.4,1042.3c-5.2-1-9.3-9.6-10.8-13.9c-0.6-1.9,7.8,0.4,8.9,0.2c0.7-0.2,1.5-0.5,1.9-1.2
			c0.6-1.1-0.2-2.4-0.8-3.6c-1.1-2-2.3-13.4,2-13c3.6,0.3,7.3-1.3,9.7-4.1c1.6-2,2.8-4.6,5.2-5.5c1.3-0.5,2.8-0.3,4.2-0.2
			c2.2,0.3,5,1.1,5,3.3c0,1.5-1.3,2.7-2.6,3.5c-4.3,2.6-14.9,5-14.6,10.9c0.4,7.7,6.4,8.8,9.5,11c4.8,3.4,6.5,8.8,3.8,12.5
			c-0.3,0.4-4,0.9-4.3,1.2c-0.3,0.2-0.6,0.2-0.9,0.2C922.6,1043.7,924,1043.2,919.4,1042.3z"/>
		<path class="st19" d="M1057.7,890.9c1.7-5.4,5.3-23.2,2.6-28.9c-10.1-21.6-5.7-17.5-10.4-24.4c2.3,3.3-4.4,9.8-3.1,13.6
			c0.9,2.6,4,3.8,5.5,6.1c1.6,2.4,1.2,5.7-0.3,8.2s-3.7,4.4-6,6.2c2.5,2.2,5,4.4,7.5,6.7c1.4,1.2,2.8,2.5,3.8,4.1
			c1,1.6,1.4,3.6,0.7,5.3"/>
		<path class="st0" d="M1030.2,915.4c10.3,13,50.7-15.2,50.7-15.2s7.8-4.8,0.5-6.8c-12-3.3-40.3-21.3-39.4-33.9"/>
		<path class="st0" d="M1079.3,894c0,0,11.7-2.2,14.7,3.1c2.9,5.3-13,8.3-13,8.3l-8.5-3.3"/>
		<g>
			<path class="st12" d="M1034.2,1044.3c0,0-0.6,0-1.8,0c-0.6,0-1.3,0-2.1-0.1c-0.8-0.1-1.8-0.1-2.9-0.1c-0.5,0-1.1,0.1-1.7,0.2
				c-0.6,0-1.2,0-1.9-0.1c-0.7-0.1-1.3-0.2-2-0.2c-0.7,0-1.4,0-2.2,0.1c-1.5,0.1-3.1,0.2-4.8,0.4c-0.8,0-1.7,0.1-2.6,0.1
				c-0.9,0-1.8-0.1-2.7-0.2c-0.9-0.1-1.9-0.1-2.8,0c-1,0.1-2,0.2-3,0.2s-2-0.1-3.1-0.2c-1-0.1-2.1-0.1-3.1-0.2
				c-2.1-0.1-4.3-0.1-6.6,0.2c-0.6,0-1.1,0.1-1.7,0c-0.6-0.1-1.1-0.2-1.7-0.2c-0.6-0.1-1.1,0-1.7,0.1c-0.6,0.1-1.2,0-1.7,0
				c-2.3,0-4.7-0.1-7.1-0.2c-1.2,0-2.4,0-3.6,0c-1.2,0-2.4,0-3.6-0.2c-1.2-0.2-2.4-0.3-3.7,0c-1.2,0.2-2.5,0.1-3.7,0
				c-1.2-0.1-2.5-0.3-3.7-0.3c-1.2,0-2.5,0.1-3.7,0.1c-2.5,0.1-5,0-7.4,0c-1.2,0-2.5-0.1-3.7-0.1c-1.2,0-2.5,0.1-3.7,0.2
				c-2.4,0.2-4.9,0.3-7.2,0.5c-1.2,0-2.4,0.1-3.6,0.1c-0.6,0-1.2,0-1.8,0c-0.6-0.1-1.2-0.1-1.7-0.2c-2.3-0.2-4.6,0.1-6.8,0.2
				c-0.6,0.1-1.1,0.1-1.7,0.1c-0.6,0-1.1,0.1-1.6,0c-0.5,0-1.1-0.1-1.6-0.1c-0.5,0-1.1,0-1.6,0c-2.1,0.1-4.2,0.3-6.2-0.1
				c-2-0.4-3.9,0.2-5.8-0.1c-1.9-0.4-3.6,0.4-5.3,0.1c-1.7-0.2-3.3-0.3-4.8-0.3c-1.5,0.1-2.9,0.3-4.2,0.1c-1.3-0.1-2.5-0.2-3.6-0.1
				c-1.1,0.1-2.1,0.2-2.9,0.3c-0.8,0-1.6,0.1-2.1,0.1c-0.6,0-1,0-1.3,0c-0.3,0-0.5,0-0.5,0v-2.4c0,0,0.2,0,0.5,0c0.3,0,0.7,0,1.3,0
				c0.6,0,1.3,0,2.1,0c0.8,0,1.8,0.1,2.9,0.2c1.1,0.1,2.3,0,3.6-0.2c0.7-0.1,1.3-0.1,2-0.1c0.7,0,1.4,0.1,2.2,0.2
				c1.5,0,3.1-0.2,4.8-0.4c0.8-0.1,1.7-0.1,2.6,0.1c0.9,0.3,1.8,0.3,2.7,0.1c1.9-0.4,3.8,0.4,5.8,0.1c2-0.4,4.1-0.2,6.2,0
				c1.1,0.1,2.1,0,3.2-0.1c0.5,0,1.1,0,1.6,0c0.6,0,1.1,0,1.7,0.1c2.2,0.1,4.5,0.4,6.8,0.1c0.6-0.1,1.2-0.2,1.7-0.2
				c0.6,0,1.2-0.1,1.8-0.1c1.2,0,2.4,0,3.6,0c1.2,0,2.4,0.1,3.6,0.1c1.2,0,2.4,0.1,3.6,0.3c1.2,0.2,2.4,0.3,3.7,0.2
				c1.2-0.1,2.5-0.3,3.7-0.3c2.5-0.1,4.9-0.3,7.4-0.2c1.2,0.1,2.5,0.3,3.7,0.3c1.2,0.1,2.5-0.2,3.7-0.4c0.6-0.1,1.2-0.2,1.8-0.2
				c0.6-0.1,1.2,0,1.8,0.2c1.2,0.5,2.5,0.4,3.7,0c0.6-0.2,1.2-0.2,1.8-0.3c0.6-0.1,1.2,0,1.8,0c1.2,0.1,2.4,0.1,3.6,0.2
				c2.4,0,4.8,0,7.1,0.1c0.6,0,1.2,0,1.7,0.1c0.6,0.2,1.1,0.3,1.7,0.2c0.6,0,1.1-0.2,1.7-0.2c0.6,0,1.1,0,1.7,0
				c2.2,0.3,4.4,0.3,6.6,0.4c2.1,0,4.2,0,6.2-0.1c1,0,2,0.1,3,0.1c1,0,1.9,0,2.8-0.1c3.7-0.5,7.1,0,10.1,0.1c0.8,0,1.5,0.1,2.2,0
				c0.7,0,1.4-0.1,2-0.2c0.7-0.1,1.3-0.1,1.9-0.1c0.6,0,1.2,0.1,1.7,0.1c1.1,0,2.1-0.1,2.9-0.1c0.8-0.1,1.6-0.1,2.1-0.1
				c1.2,0,1.8-0.1,1.8-0.1V1044.3z"/>
		</g>
		<g>
			<path class="st12" d="M1702.7,1044.3c0,0-0.2,0-0.6,0c-0.2,0-0.4,0-0.7-0.1c-0.3,0-0.6-0.1-1-0.1c-0.2,0-0.4,0.1-0.6,0.2
				c-0.2,0-0.4,0-0.6-0.1c-0.2-0.1-0.5-0.2-0.7-0.2c-0.2,0-0.5,0-0.7,0.1c-0.5,0.1-1.1,0.2-1.6,0.4c-0.3,0.1-0.6,0.1-0.9,0.1
				c-0.3,0-0.6-0.1-0.9-0.2c-0.3-0.1-0.6-0.1-1,0c-0.3,0.1-0.7,0.2-1,0.2c-0.7,0-1.4-0.3-2.1-0.4c-0.4,0-0.7-0.1-1.1,0
				c-0.2,0-0.4,0-0.6,0c-0.2,0-0.4,0.1-0.6,0.2c-0.2,0.1-0.4,0.1-0.6,0c-0.2-0.1-0.4-0.2-0.6-0.3c-0.1,0-0.2,0-0.3,0
				c-0.1,0-0.2,0.1-0.3,0.1c-0.2,0.1-0.4,0-0.6,0.1c-0.8,0-1.6-0.1-2.4-0.2c-0.4,0-0.8,0-1.2,0c-0.4,0-0.8,0-1.2-0.2
				c-0.4-0.2-0.8-0.3-1.2,0c-0.4,0.2-0.8,0.1-1.3,0c-0.4-0.1-0.8-0.3-1.3-0.3c-0.4,0-0.8,0.1-1.3,0.1c-0.8,0.1-1.7,0-2.5,0
				c-0.4,0-0.8-0.1-1.3-0.1c-0.4,0-0.8,0.1-1.2,0.2c-0.8,0.2-1.6,0.3-2.5,0.5c-0.8,0.1-1.6,0.2-2.4-0.1c-0.8-0.2-1.6,0.1-2.3,0.2
				c-0.4,0.1-0.8,0.2-1.1,0.1c-0.2,0-0.4-0.1-0.6-0.1c-0.2,0-0.4,0-0.5,0c-0.4,0-0.7,0.2-1.1,0.2c-0.4,0-0.7-0.1-1-0.3
				c-0.7-0.4-1.3,0.2-2-0.1c-0.3-0.1-0.6-0.1-0.9,0c-0.3,0.2-0.6,0.2-0.9,0.1c-0.6-0.2-1.1-0.3-1.6-0.3c-0.5,0.1-1,0.3-1.4,0.1
				c-0.2-0.1-0.4-0.1-0.6-0.1c-0.2,0-0.4,0-0.6,0.1c-0.7,0.3-1.3,0.3-1.7,0.3c-0.4,0-0.6,0-0.6,0v-2.4c0,0,0.2,0,0.6,0
				c0.4,0,1,0,1.7,0.2c0.2,0,0.4,0,0.6,0c0.2,0,0.4-0.1,0.6-0.2c0.2-0.1,0.5-0.1,0.7-0.1c0.2,0,0.5,0.1,0.7,0.2
				c0.5,0,1.1-0.1,1.6-0.4c0.3-0.1,0.6-0.1,0.9,0.1c0.3,0.3,0.6,0.3,0.9,0.1c0.6-0.4,1.3,0.5,2,0.1c0.3-0.1,0.7-0.3,1-0.2
				c0.4,0,0.7,0.2,1.1,0.2c0.2,0,0.4,0.1,0.5,0l0.6-0.1c0.4,0,0.7,0,1.1,0.1c0.8,0.1,1.5,0.4,2.3,0.1c0.8-0.4,1.6-0.4,2.4-0.3
				c0.4,0,0.8,0.1,1.2,0.1c0.4,0,0.8,0.1,1.2,0.3c0.4,0.2,0.8,0.3,1.2,0.2c0.4-0.1,0.8-0.3,1.3-0.3c0.8-0.1,1.7-0.3,2.5-0.2
				c0.4,0.1,0.8,0.3,1.3,0.3c0.2,0,0.4,0,0.6-0.1l0.6-0.3c0.2-0.1,0.4-0.2,0.6-0.2c0.2-0.1,0.4,0,0.6,0.2c0.4,0.5,0.8,0.4,1.2,0
				c0.4-0.3,0.8-0.4,1.2-0.3c0.4,0.1,0.8,0.1,1.2,0.2c0.8,0.1,1.6,0,2.4,0.1c0.2,0,0.4,0,0.6,0.1c0.1,0.1,0.2,0.1,0.3,0.2
				c0.1,0,0.2,0,0.3,0c0.2,0,0.4-0.2,0.6-0.2c0.2,0,0.4,0,0.6,0c0.8,0.3,1.5,0.3,2.2,0.4c0.7,0,1.4,0,2.1-0.1c0.7,0,1.3,0.2,2-0.1
				c0.3-0.1,0.6-0.2,0.9-0.2c0.3,0,0.6,0,0.9,0c0.6,0.1,1.1,0.2,1.6,0.2c0.3,0,0.5,0,0.7,0c0.2,0,0.5-0.1,0.7-0.2
				c0.2-0.1,0.4-0.1,0.6-0.1c0.2,0,0.4,0.1,0.6,0.1c0.4,0,0.7-0.1,1-0.1c0.3-0.1,0.5-0.1,0.7-0.1c0.4,0,0.6,0,0.6,0V1044.3z"/>
		</g>
		<g>
			<g>
				<path class="st12" d="M871.9,904.9c-0.4-0.5-0.8-1-1.2-1.6c-0.4-0.6-0.7-1.1-1-1.7c-0.3-0.6-0.5-1.2-0.8-1.8
					c-0.3-0.6-0.6-1.2-0.9-1.8c-0.6-1.2-1-2.5-1.4-3.7c-0.4-1.2-0.8-2.5-1.2-3.7l-0.7-1.8c-0.2-0.6-0.4-1.3-0.5-2
					c-0.1-0.7-0.2-1.4-0.2-2.1c0-0.7,0-1.4,0.1-2.1c0.1-0.7,0.3-1.3,0.5-2c0.2-0.6,0.4-1.3,0.7-1.9c0.2-0.6,0.6-1.2,0.9-1.8
					c0.3-0.6,0.7-1.1,1-1.7l0.2-0.3l0.3,0c0.8,0.1,1.6,0.3,2.3,0.6c0.8,0.3,1.5,0.8,2,1.4c0.5,0.7,0.9,1.5,0.8,2.4
					c0,0.9-0.3,1.6-0.6,2.4c-0.2,0.4-0.3,0.7-0.6,1.1c-0.2,0.3-0.4,0.6-0.7,1c-0.2,0.2-0.5,0.4-0.8,0.5c-0.4,0.1-0.6,0-0.9,0
					L868,884c-0.8-0.2-1.5-0.4-2.2-0.7c-0.7-0.3-1.5-0.6-2.2-1c-0.7-0.4-1.3-1-1.9-1.6c-0.5-0.6-1-1.3-1.4-2c-0.9-1.3-1.6-2.7-2.3-4
					c-0.3-0.7-0.6-1.4-1-2c-0.3-0.7-0.8-1.3-1.2-1.9c-0.9-1.2-2-2.2-3.2-2.9l0.8-1.3c1.4,0.9,2.6,2,3.5,3.3c0.5,0.6,0.9,1.3,1.3,2
					c0.4,0.7,0.9,1.3,1.2,2c0.7,1.4,1.3,2.8,2,4c0.7,1.3,1.7,2.3,2.8,3.2c0.6,0.4,1.2,0.8,1.9,1c0.7,0.3,1.4,0.4,2.1,0.6l1.1,0.3
					c0.1,0,0.2,0,0.2,0c0,0,0,0,0.1-0.1c0.1-0.1,0.4-0.5,0.6-0.8c0.2-0.3,0.4-0.6,0.6-0.9c0.5-0.5,0.7-1.2,0.6-1.8
					c0-0.6-0.3-1.1-0.7-1.5c-0.4-0.4-1-0.7-1.5-1c-0.6-0.3-1.2-0.5-1.9-0.6l0.8-0.4c-0.3,0.5-0.6,1.1-0.9,1.7
					c-0.3,0.6-0.5,1.1-0.8,1.7c-0.2,0.6-0.5,1.1-0.6,1.7c-0.1,0.6-0.1,1.2-0.2,1.8c-0.1,0.6-0.2,1.2-0.2,1.8c0,0.3,0,0.6,0,0.9
					l0.2,0.9c0.2,0.6,0.2,1.2,0.4,1.8c0.2,0.6,0.3,1.2,0.6,1.9c0.5,1.2,0.9,2.5,1.4,3.7c0.5,1.2,1,2.4,1.4,3.6
					c0.2,0.6,0.4,1.2,0.7,1.8c0.2,0.6,0.6,1.1,0.9,1.7c0.3,0.6,0.6,1.1,1,1.6c0.3,0.5,0.7,1,1.1,1.5L871.9,904.9z"/>
			</g>
			<g>
				<path class="st12" d="M879.6,907.4c0,0,0.1-0.4,0.2-1.1c0-0.2,0.1-0.4,0.2-0.6c0.1-0.2,0.1-0.4,0.1-0.7c0-0.5,0-1.1,0.1-1.7
					c0.1-0.6,0.3-1.3,0.5-2c0.2-0.7,0.4-1.4,0.6-2.2c0.1-0.4,0.2-0.8,0.4-1.2c0.2-0.4,0.3-0.8,0.3-1.2c0.2-0.8,0.5-1.6,0.6-2.4
					c0.1-0.8,0.5-1.6,0.5-2.5c0-0.4,0.1-0.8,0.1-1.2c0.1-0.4,0.1-0.8,0.2-1.2c0.2-0.8,0.1-1.6,0.4-2.2c0.3-0.7,0.3-1.4,0.5-2
					c0.1-0.3,0.1-0.6,0.2-0.9c0.1-0.3,0.2-0.5,0.3-0.8c0.1-0.5,0.2-0.9,0.2-1.3c0.1-0.7,0.1-1.2,0.1-1.2l1.5,0.3
					c0,0-0.1,0.4-0.2,1.1c-0.1,0.4-0.2,0.8-0.2,1.3c0,0.3,0,0.5,0,0.8c0,0.3-0.1,0.6-0.2,0.9c-0.2,0.6-0.4,1.3-0.6,2
					c-0.1,0.7-0.6,1.4-0.6,2.2c-0.1,0.8,0,1.6-0.4,2.4c-0.5,0.8-0.1,1.7-0.3,2.5c-0.4,0.8-0.3,1.6-0.6,2.4c-0.1,0.2-0.1,0.4-0.2,0.6
					c0,0.2,0,0.4,0,0.6c0,0.4-0.2,0.8-0.4,1.1c-0.1,0.2-0.2,0.4-0.2,0.6c0,0.2-0.1,0.4-0.1,0.6c-0.1,0.4-0.4,0.7-0.4,1
					c-0.2,0.7-0.2,1.4-0.3,2c0,0.3-0.1,0.6-0.1,0.9c-0.1,0.3-0.2,0.5-0.3,0.8c-0.1,0.2-0.1,0.5-0.1,0.7c0,0.2,0,0.4-0.1,0.6
					c-0.1,0.7-0.2,1.1-0.2,1.1L879.6,907.4z"/>
			</g>
			<g>
				<path class="st12" d="M863.5,907c0,0-0.4-0.1-1-0.3c-0.2-0.1-0.3-0.1-0.5-0.2c-0.2-0.1-0.4-0.2-0.6-0.2c-0.2,0-0.5,0-0.8-0.1
					c-0.3-0.1-0.5-0.1-0.8-0.2c-0.6-0.2-1.1-0.5-1.7-0.8c-0.6-0.3-1.3-0.6-1.9-0.9c-0.3-0.2-0.7-0.3-1-0.6l-0.5-0.3l-0.5-0.2
					c-0.7-0.3-1.3-0.8-2.1-1.1c-0.7-0.3-1.3-0.8-2.1-1c-0.4-0.1-0.7-0.3-1.1-0.4c-0.3-0.2-0.7-0.3-1-0.5c-0.6-0.4-1.4-0.6-1.9-1
					c-0.5-0.5-1.1-0.8-1.6-1.1c-0.3-0.2-0.5-0.3-0.7-0.5c-0.2-0.2-0.4-0.4-0.6-0.5c-0.4-0.3-0.8-0.5-1.1-0.7
					c-0.6-0.4-0.9-0.6-0.9-0.6l1-1.2c0,0,0.3,0.2,0.9,0.6c0.3,0.2,0.6,0.4,1,0.7c0.2,0.1,0.4,0.2,0.7,0.3c0.2,0.1,0.5,0.3,0.7,0.5
					c0.4,0.4,0.9,0.8,1.5,1.1c0.6,0.3,1,0.9,1.7,1.2c0.3,0.1,0.7,0.3,1,0.4c0.2,0.1,0.3,0.2,0.5,0.2c0.2,0.1,0.3,0.2,0.5,0.3
					c0.1,0.2,0.3,0.3,0.5,0.4c0.2,0.1,0.4,0.1,0.6,0.2c0.4,0.1,0.8,0.2,1.1,0.3c0.6,0.6,1.4,0.7,2,1.1c0.2,0.1,0.3,0.2,0.5,0.3
					c0.2,0.1,0.4,0.1,0.6,0.1c0.4,0.1,0.7,0.3,1,0.6c0.1,0.1,0.3,0.2,0.5,0.3c0.2,0,0.3,0.1,0.5,0.2c0.3,0.2,0.6,0.5,0.9,0.6
					c0.6,0.3,1.2,0.4,1.8,0.5c0.6,0.1,1.1,0.3,1.5,0.5c0.2,0.1,0.4,0.2,0.6,0.2c0.2,0,0.4,0.1,0.6,0.1c0.7,0.1,1,0.3,1,0.3
					L863.5,907z"/>
			</g>
		</g>
	</g>
</g>
</svg>
