<svg id="Artwork" xmlns="http://www.w3.org/2000/svg" viewBox="0 0 1920 1080"><defs><style>.cls-1{fill:#e0e3f0;}.cls-2{fill:#dfe2ec;}.cls-3,.cls-4{fill:#e7e9f0;}.cls-3{stroke:#e7e9f0;opacity:0.5;}.cls-17,.cls-20,.cls-21,.cls-3,.cls-7{stroke-miterlimit:10;}.cls-13,.cls-17,.cls-3{stroke-width:3px;}.cls-5,.cls-7{fill:#f3f4f6;}.cls-6{fill:#fff;}.cls-7{stroke:#f3f4f6;stroke-width:6.429px;}.cls-12,.cls-18,.cls-7{opacity:0.3;}.cls-18,.cls-8{fill:#2a3376;}.cls-12,.cls-9{fill:#0e1438;}.cls-10{fill:#616eb3;}.cls-11{fill:#3e4166;}.cls-13,.cls-20{fill:none;}.cls-13{stroke:#3e4166;stroke-linejoin:round;stroke-dasharray:11 9;}.cls-14{fill:#fdc04e;}.cls-15{fill:#232967;}.cls-16{fill:#dde3f2;}.cls-17{fill:#ebecf2;stroke:#ebecf2;}.cls-19,.cls-21{fill:#c4ccdf;}.cls-20,.cls-21{stroke:#c4ccdf;}</style></defs><title>emptystate-pages</title><path class="cls-1" d="M1740.616,883.451c-13.423-.045-26.845-.035-40.268-.148-6.711-.007-13.423-.114-20.134,0-6.711.057-13.423.182-20.134.055l-20.134-.182c-6.711-.047-13.423.073-20.134.1l-40.268.3c-6.711.026-13.423.152-20.134.1l-20.134-.139c-13.423-.211-26.845.064-40.268.125-26.845.042-53.691-.439-80.536-.35-13.423-.1-26.845.231-40.268.218l-20.134-.3c-6.711-.025-13.423.239-20.134.187l-80.536-.167c-13.423-.027-26.845.073-40.268-.213l-10.067-.123c-3.356-.034-6.711-.1-10.067-.039l-20.134.206c-13.423-.045-26.845-.219-40.268-.331-6.711-.1-13.423-.031-20.134-.025l-20.134.083c-13.423.1-26.845,0-40.268.017l-40.268-.1c-26.845-.223-53.691.446-80.536.44l-40.268.2-10.067.043-10.067-.073-20.134-.14c-26.845-.158-53.691.424-80.536.336-6.711-.015-13.423-.175-20.134-.1l-20.134.108c-13.423.146-26.845-.1-40.268-.289-6.711-.088-13.423,0-20.134,0l-10.067.041-10.067-.111c-13.423-.328-26.845.333-40.268.133l-20.134-.192-20.134-.083c-13.423.068-26.845.281-40.268.092l-10.067-.065c-3.356-.022-6.711-.056-10.067,0l-20.134.208c-13.423.155-26.845.109-40.268.174v-2.4c13.423.034,26.845-.034,40.268.084l20.134.145c3.356.042,6.711-.009,10.067-.048l10.067-.114c13.423-.266,26.845-.032,40.268.032l20.134-.131c6.711-.067,13.423-.214,20.134-.237,3.356,0,6.711-.094,10.067-.028,3.355.019,6.711.14,10.067.227s6.711.157,10.067.138l10.067-.1,10.067-.116,10.067.109,10.067.107c3.356.024,6.711.1,10.067.034,13.423-.134,26.845-.383,40.268-.19l20.134.158c3.356.047,6.711.03,10.067,0l10.067-.07c26.845-.109,53.691.432,80.536.15l20.134-.24,10.067-.123,10.067.018,40.268.112,20.134.056,20.134.253,20.134.235,20.134-.1c13.423-.184,26.845-.221,40.268-.279l20.134-.089,10.067-.044,10.067.086c13.423.1,26.845.4,40.268.212,13.423-.135,26.845-.618,40.268-.559,6.711-.016,13.423.449,20.134.49,6.711.111,13.423-.075,20.134-.236s13.423-.348,20.134-.308l20.134.107q20.134.159,40.268.15l40.268.073c6.711-.024,13.423.286,20.134.295l20.134-.213c13.423.025,26.845.363,40.268.337q80.536.218,161.072-.19l40.268.177c6.711.011,13.423.1,20.134.048l20.134-.2c6.711-.126,13.423-.021,20.134.021,6.711.1,13.422-.033,20.134-.049l40.268-.184Z"/><path class="cls-2" d="M1156.121,890.326c4.808-.121,9.616-.433,14.425-.121l1.8.073c.3.022.6.1.9.149a7.9,7.9,0,0,0,.9.041l3.606.056c2.4-.022,4.808.387,7.212.387,4.808-.035,9.616-.346,14.425-.52,1.2-.04,2.4-.139,3.606-.075s2.4.169,3.606.209,2.4-.043,3.606-.058,2.4-.067,3.606-.142v2.4l-7.212.193a34.031,34.031,0,0,1-3.606-.174c-1.2-.1-2.4-.045-3.606-.047l-14.425.1a61.3,61.3,0,0,1-7.212.207c-1.2-.09-2.4-.316-3.606-.4a6.2,6.2,0,0,0-.9-.047,7.682,7.682,0,0,1-.9.094c-.6-.03-1.2-.057-1.8-.113a33.952,33.952,0,0,0-3.606-.21,14.872,14.872,0,0,0-1.8.176,15.68,15.68,0,0,1-1.8.112c-2.4.037-4.808.147-7.212.1Z"/><path class="cls-2" d="M797.29,890.326c21.246-.121,42.493-.433,63.739-.121l7.967.076c2.656.083,5.312.212,7.967.188l15.935.056c5.312-.013,10.623.112,15.935.194,5.312.1,10.623.119,15.935.183,21.246-.1,42.493-.307,63.739-.51,5.312-.047,10.623-.13,15.935-.064l15.935.183c2.656.04,5.312.034,7.968,0l7.967-.062,15.935-.124v2.4l-31.87.178c-2.656-.01-5.312.025-7.967-.021l-7.968-.128c-5.312-.1-10.623-.062-15.935-.058l-63.739.111-15.935.186c-5.312.029-10.623.142-15.935-.02l-15.935-.354c-2.656-.113-5.312-.005-7.967.034l-7.967-.124c-5.312-.083-10.623-.175-15.935-.187l-7.968.153c-2.656.066-5.312.134-7.967.122l-31.87.109Z"/><path class="cls-2" d="M1126.374,715.909a3.862,3.862,0,0,1,.932.142.628.628,0,0,0,.466.017,1.279,1.279,0,0,1,.232-.136.357.357,0,0,1,.233.033c.156.071.311.225.466.232a1.6,1.6,0,0,0,.465-.087c.31-.112.62-.27.93-.378a1.567,1.567,0,0,1,.466-.083,1.378,1.378,0,0,1,.466.184.566.566,0,0,0,.466.044,3.864,3.864,0,0,1,.466-.22,1.894,1.894,0,0,1,.931.238,2.794,2.794,0,0,0,.931.183.96.96,0,0,0,.466-.1c.156-.09.312-.2.467-.164.155.016.309.3.464.322.077.04.156-.039.234-.119a.227.227,0,0,1,.233-.083c.621,0,1.24.231,1.861.194.31.009.622-.1.929.214a.629.629,0,0,0,.463.2c.156-.034.313-.249.469-.248.311-.009.617.283.925.391a1.685,1.685,0,0,0,.932-.087,5.9,5.9,0,0,1,1.859.129,1.111,1.111,0,0,0,.933-.123,4.412,4.412,0,0,1,.938-.313,3.867,3.867,0,0,1,.936-.169.97.97,0,0,1,.465.035l.46.227c.615.206,1.257-.5,1.874-.338.3.265.617.123.932.024a.607.607,0,0,1,.466.022c.153.085.3.269.454.336.3.167.63-.234.929.077.151.117.3.171.466.016s.319-.21.471-.134a1.893,1.893,0,0,0,.919.338,1.694,1.694,0,0,0,.472-.144.555.555,0,0,1,.463.081.624.624,0,0,0,.461.116,2.78,2.78,0,0,0,.476-.219,2.107,2.107,0,0,1,.938-.118l-.114,2.4a2.3,2.3,0,0,1-.923-.11,1.84,1.84,0,0,0-.455-.2.655.655,0,0,0-.471.169.487.487,0,0,1-.469.1,1.43,1.43,0,0,0-.456-.185,2.01,2.01,0,0,0-.942.362.309.309,0,0,1-.232,0c-.076-.034-.148-.156-.222-.246-.146-.23-.3-.184-.462-.052-.323.364-.607-.3-.921-.2-.156.029-.316.2-.473.261a.576.576,0,0,1-.462-.06c-.3-.158-.607-.357-.924-.119-.623.148-1.221-.552-1.848-.266l-.473.318a.882.882,0,0,1-.466.087,2.915,2.915,0,0,1-.925-.106,2,2,0,0,1-.919-.393.706.706,0,0,0-.925-.154,3.692,3.692,0,0,1-.934.311,1.692,1.692,0,0,1-.928.015c-.306-.164-.611-.445-.923-.284s-.628.64-.936.583c-.154-.033-.3-.44-.457-.536-.154-.079-.31.063-.467.263s-.313.324-.467.3-.308-.085-.462-.127a12.585,12.585,0,0,0-1.853-.229.266.266,0,0,1-.231-.138c-.076-.1-.153-.2-.231-.178-.155-.008-.311.239-.466.233a.8.8,0,0,1-.463-.212,1.223,1.223,0,0,0-.463-.163,9.292,9.292,0,0,0-1.857-.015,1.2,1.2,0,0,0-.928.062,1.52,1.52,0,0,1-.464.22,1.658,1.658,0,0,1-.464-.025c-.31-.064-.619-.175-.929-.244a1.7,1.7,0,0,0-.464-.033c-.155.021-.309.173-.463.249a.415.415,0,0,1-.464-.06.673.673,0,0,0-.464.054,4.046,4.046,0,0,1-.927.2Z"/><path class="cls-2" d="M1178.3,718.128a58.978,58.978,0,0,1,11.823,2.571,31.974,31.974,0,0,1,10.639,5.964c.753.7,1.492,1.411,2.228,2.124.657.787,1.35,1.548,1.972,2.36a39.934,39.934,0,0,1,3.211,5.217,37.508,37.508,0,0,1,3.569,11.583,35.267,35.267,0,0,1,.528,6.108,9.056,9.056,0,0,1-.706,3.229,5.631,5.631,0,0,1-.921,1.506,6.453,6.453,0,0,1-1.309,1.13c-3.827,2.2-7.912,2.568-11.893,2.921-7.994.583-15.971.028-23.813-.219-3.857-.063-7.88.127-11.812.052l-11.86-.139c-7.907-.211-15.813.064-23.72.125-15.813.042-31.627-.439-47.44-.35-7.907-.1-15.813.231-23.72.218l-11.86-.3c-3.953-.082-7.907.274-11.86.187-15.813-.05-31.627-.188-47.44-.167-7.906-.027-15.813.073-23.72-.213l-5.93-.123c-1.977-.035-3.953-.1-5.93-.058-3.953.008-7.906.253-11.86.235-7.907-.065-15.813-.225-23.72-.341-3.953-.1-7.906-.031-11.86-.025l-11.86.083c-7.907.1-15.813,0-23.72.016-3.958,0-7.9-.035-11.849.046s-7.906.126-11.868.106c-1.981-.015-3.963-.033-5.945-.109a51.131,51.131,0,0,1-5.968-.479,13.9,13.9,0,0,1-5.725-2.1,9.838,9.838,0,0,1-3.763-4.906,14.571,14.571,0,0,1-.682-6.128A25.257,25.257,0,0,1,820.8,742.3a41.227,41.227,0,0,1,5.609-10.692,31.8,31.8,0,0,1,8.7-8.5,39.435,39.435,0,0,1,11.257-4.539q2.93-.735,5.894-1.222c1.978-.294,3.958-.527,5.934-.735,3.952-.4,7.889-.734,11.835-1.077,15.773-1.324,31.554-2.855,47.4-3.2l23.761-.248c7.923-.09,15.841.357,23.744.841,15.83.522,31.605,2.189,47.366,3.172,3.935.327,7.864.708,11.8.977,3.938.228,7.879.425,11.824.556,7.895.147,15.788-.039,23.687.069,3.949-.022,7.9.034,11.85-.128s7.9-.31,11.845-.508c7.9-.375,15.8-.577,23.71-.837l.059,2.4c-7.9.161-15.8.477-23.709.578l-11.866.156c-1.979,0-3.956.087-5.933.165l-5.935.194c-7.915.348-15.842.086-23.76-.194-3.962-.059-7.924-.186-11.886-.344s-7.928-.273-11.878-.552c-1.975-.145-3.955-.215-5.921-.439-1.97-.179-3.931-.463-5.893-.712-3.923-.524-7.862-.826-11.809-.978l-5.914-.286-5.9-.468c-3.936-.286-7.873-.611-11.819-.722-7.9-.165-15.788-.112-23.677-.361-3.946-.043-7.893-.14-11.84-.13-3.948-.062-7.892.177-11.837.284-1.972.062-3.942.2-5.915.238s-3.946.1-5.918.169c-3.946.118-7.889.295-11.832.482-3.94.228-7.884.435-11.82.731l-5.906.435-5.891.606c-3.916.48-7.844.984-11.737,1.536a116.7,116.7,0,0,0-11.506,2.019,36.967,36.967,0,0,0-10.592,4.151,30.468,30.468,0,0,0-8.146,7.757,39.112,39.112,0,0,0-5.495,10.027,25.444,25.444,0,0,0-1.4,5.468,12.9,12.9,0,0,0,.366,5.431,8.266,8.266,0,0,0,3.049,4.283,12.621,12.621,0,0,0,5.138,2.066,40.514,40.514,0,0,0,5.8.422c1.965.043,3.932.058,5.9.018,3.939-.069,7.882-.283,11.841-.387,3.963-.131,7.933-.15,11.879-.2l11.86-.059,5.93-.023,5.93.088c7.907.105,15.813.4,23.72.212,7.907-.135,15.813-.618,23.72-.558,3.953-.016,7.907.448,11.86.49,3.953.106,7.907-.065,11.86-.246,7.907-.454,15.813-.267,23.72-.191l11.86.112,11.86.023,23.72.085c1.977.005,3.953.019,5.93.132s3.953.2,5.93.166l11.86-.213c7.907.025,15.813.363,23.72.337,31.643.166,63.218-.022,94.916-.144,7.932.409,15.786,1.108,23.613.7a48.554,48.554,0,0,0,5.79-.623,22.674,22.674,0,0,0,2.77-.7,8.013,8.013,0,0,0,2.486-1.159,4.738,4.738,0,0,0,.935-.851,3.848,3.848,0,0,0,.6-1.07,7.222,7.222,0,0,0,.479-2.594,32.626,32.626,0,0,0-.712-5.694,49.029,49.029,0,0,0-3.322-11.055,24.982,24.982,0,0,0-6.916-9.01,31.5,31.5,0,0,0-10.055-5.384,56.735,56.735,0,0,0-11.339-2.334Z"/><path class="cls-3" d="M1205.683,756.367c.914-6.058-5.321-11.614-12.522-13.409s-15.021-.678-22.346.857c-17.969,3.765-36.128,10.034-54.366,7.507-23.625-3.274-41.069-18.609-66.259-13.057-10.651,2.348-20.9,7.473-31.8,7.054-13.1-.5-24.5-8.888-37.177-12.254-33.159-8.809-69.928,17.427-101.346,3.643-9.733-4.27-18.033-12.167-28.527-13.856A26.343,26.343,0,0,0,823.9,737.718a18.219,18.219,0,0,0-1.453,11.378c1.453,6.261,7.15,10.835,13.277,12.777,25.991,8.236,60.529,2.607,87.539,2.58q45.176-.045,90.351-.09c57.573-.057,115.159-.115,172.689,1.358,5.718.146,12.814-.355,15.086-4.608"/><polyline class="cls-4" points="1206.46 847.616 1206.46 855.973 827.684 855.973 827.684 847.616"/><path class="cls-2" d="M1207.66,847.616l-.068,8.356-.009,1.153-1.123-.02-5.918-.107c-.986,0-1.973-.041-2.959-.017l-2.959.106c-3.946.229-7.891-.27-11.837-.21-7.891.173-15.782.423-23.674.532-3.946-.023-7.891-.338-11.837-.222-1.973.036-3.946.161-5.918.206s-3.946,0-5.918-.042l-11.837-.283c-3.946-.018-7.891-.058-11.837-.025l-5.918.206a56.053,56.053,0,0,1-5.918-.181c-.986-.082-1.973-.1-2.959-.134-.986,0-1.973.072-2.959.152-1.973.128-3.946.022-5.918.038-7.891-.017-15.782-.2-23.674-.15-1.973.012-3.946.019-5.918-.014-1.973-.067-3.946-.182-5.918-.279q-2.959-.168-5.918-.069c-1.973.108-3.946.232-5.918.2-3.946-.02-7.891-.316-11.837-.371s-7.891.029-11.837.087c-3.946.1-7.891.006-11.837.018-3.946-.021-7.891,0-11.837-.084-7.891-.234-15.782.306-23.673.416-3.946.1-7.891.173-11.837.2-3.946.045-7.891.118-11.837-.092l-2.959-.1-2.959-.03-5.918.122-11.837.294c-3.946.176-7.891-.3-11.837-.088-3.946.05-7.891.263-11.837.049-1.973-.108-3.946-.249-5.918-.293-1.973-.005-3.946.019-5.918.046-3.946.191-7.891-.389-11.837-.078a50.483,50.483,0,0,1-5.918.142c-1.973-.029-3.946-.114-5.918-.185l-5.918-.086c-1.973-.032-3.946.08-5.918.106-3.946.185-7.891-.113-11.837-.125-1.973.025-3.946.1-5.918.165s-3.946.173-5.918.177l-1.117,0-.012-1.132c-.031-2.785-.095-5.571-.071-8.356h2.4c.037,2.785,0,5.571-.013,8.356l-1.187-1.187c1.973-.009,3.946.074,5.918.128s3.946.1,5.918.1c1.973-.022,3.946-.156,5.918-.253,1.973-.068,3.946-.1,5.918-.014,1.973.043,3.946.143,5.918.118,1.973-.01,3.946-.072,5.918-.143a71.45,71.45,0,0,1,11.837-.01c3.946.436,7.891-.324,11.837-.016,1.973.109,3.946.222,5.918.21s3.946-.145,5.918-.245c3.946-.2,7.891.069,11.837.145,3.946.254,7.891-.2,11.837-.059,15.782.833,31.564-.655,47.347-.078,3.946.051,7.891.158,11.837.408a114.145,114.145,0,0,0,11.837.017c7.891-.27,15.782-.436,23.674-.321,31.564-.7,63.129-.227,94.694.312,3.946.084,7.891.106,11.837.15l11.837-.046c3.946-.051,7.891.062,11.837.045,3.946.023,7.891-.271,11.837-.322,7.891.035,15.782.2,23.674.3,3.946.027,7.891-.446,11.837-.256l2.959.083c.986.017,1.973-.024,2.959-.032l5.918-.132-1.1,1.1-.1-8.356Z"/><rect class="cls-5" x="1181.931" y="768.443" width="17.571" height="123.082"/><path class="cls-2" d="M1200.35,892.374c-6.02.235-12.25.439-18.419.464l-1.305.005-.007-1.318c-.055-10.257-.164-20.514-.136-30.771,0-10.257.129-20.514.2-30.771.214-5.128.2-10.257.21-15.385l.048-15.385.214-15.385.149-15.385.006-.633.618.009c2.928.043,5.857-.023,8.785-.03l8.785-.062.711-.005,0,.721.4,62c.014,10.361-.245,20.575-.305,30.86Zm-1.7-1.7-.289-30.695c-.006-5.081-.1-10.209-.026-15.242.043-5.052.107-10.107.092-15.2l-.168-61.1,1.239,1.239-8.785.011c-2.928.013-5.857-.013-8.785.032l1.282-1.282c.119,10.257.253,20.514.241,30.771l-.282,15.385-.171,7.693c-.086,2.564.037,5.128.058,7.693l-.215,15.385c-.053,5.128-.168,10.257-.026,15.385.281,10.257.2,20.514.258,30.771l-1.146-1.146C1187.518,890.35,1193,890.48,1198.653,890.677Z"/><rect class="cls-5" x="835.363" y="768.443" width="17.571" height="123.082"/><path class="cls-2" d="M853.782,892.374c-6.02.235-12.25.439-18.419.464l-1.305.005-.007-1.318c-.055-10.257-.164-20.514-.136-30.771,0-10.257.129-20.514.2-30.771.214-5.128.2-10.257.21-15.385l.048-15.385.214-15.385.149-15.385.006-.633.618.009c2.928.043,5.857-.023,8.785-.03l8.785-.062.711-.005,0,.721.4,62c.014,10.361-.245,20.575-.305,30.86Zm-1.7-1.7-.289-30.695c-.006-5.081-.1-10.209-.026-15.242.043-5.052.107-10.107.092-15.2l-.168-61.1,1.239,1.239-8.785.011c-2.928.013-5.857-.013-8.785.032l1.282-1.282c.119,10.257.253,20.514.241,30.771L836.6,814.6l-.172,7.693c-.086,2.564.038,5.128.059,7.693l-.215,15.385c-.053,5.128-.168,10.257-.026,15.385.281,10.257.2,20.514.258,30.771l-1.146-1.146C840.95,890.35,846.434,890.48,852.085,890.677Z"/><path class="cls-3" d="M1195.643,812.5c-.924,4.431-1.911,7.749-2.88,8.943a15.063,15.063,0,0,0-2.021,2.69,12,12,0,0,0-.775,4.7,31.548,31.548,0,0,1-2.574,10.843c-.293.672-.705,1.413-1.424,1.56a1.766,1.766,0,0,1-1.21-.269c-1.974-1.142-2.208-3.848-2.21-6.128-.005-5.441.243-66.4-.618-66.4H1199.5C1201.277,768.443,1198.844,797.152,1195.643,812.5Z"/><path class="cls-3" d="M852.1,813.961a33.043,33.043,0,0,1-1.267,3.569c-1.584,3.741-3.9,7.219-4.747,11.194-.889,4.2-.083,8.765-1.847,12.677a2.658,2.658,0,0,1-.9,1.208c-1.054.671-2.429-.159-3.247-1.1-3.005-3.471-3.333-8.444-3.515-13.031-.8-20.037-1.208-39.928-1.208-60.032h17.571C852.934,782.133,856.1,800.352,852.1,813.961Z"/><polyline class="cls-5" points="912.994 776.799 827.684 776.799 827.684 760.087 1206.46 760.087 1206.46 776.799 1156.121 776.799"/><path class="cls-2" d="M912.994,778l-10.664-.062-10.664-.126c-3.554-.055-7.109.166-10.664.153l-5.332-.134c-1.777-.048-3.554-.123-5.332-.118-7.109.048-14.218.228-21.327.335l-10.664.186c-3.554.039-7.109-.054-10.664-.163l-1.314-.04.043-1.23c.049-1.393.053-2.785.071-4.178.034-1.393-.014-2.785-.038-4.178l-.083-4.178c-.031-1.393-.1-2.785-.1-4.178l-.006-1.417,1.429-.005c7.891-.028,15.782.18,23.673.315,7.891.022,15.782.166,23.674-.135,1.973-.046,3.946-.076,5.918-.017,1.973.043,3.946.193,5.918.25a56.32,56.32,0,0,0,5.918-.092c1.973-.111,3.946-.065,5.918-.061l23.674.151,11.837.01c3.946,0,7.891-.057,11.837.135,3.946.129,7.891.357,11.837.245l5.918-.2c1.973-.05,3.946,0,5.918.047,7.891.145,15.782.436,23.673.286,3.946-.025,7.891-.116,11.837-.11l11.837.027,11.837.042q5.918.084,11.837.091c7.891-.069,15.782-.365,23.673-.455,7.891-.153,15.782-.206,23.674-.261,1.973-.018,3.946.025,5.918.039l5.918.153c3.946.117,7.891.089,11.837,0l11.837-.2c3.946-.047,7.891-.208,11.837-.161,7.891.309,15.782,0,23.673-.016,3.946.011,7.891.244,11.837.345,3.946.073,7.891-.02,11.837-.045,3.946.024,7.891.25,11.837.17,1.973-.045,3.946-.206,5.918-.226,1.973-.052,3.946.038,5.918.05l1.063.006-.015,1.042c-.04,2.785-.169,5.571-.182,8.356l-.041,4.178c0,1.393-.049,2.785-.019,4.178l.017.8-.824.011c-4.195.054-8.39.2-12.584.143l-6.292-.106c-2.1-.024-4.195-.094-6.292-.015-4.195.064-8.39.241-12.585.291-4.195.03-8.39.107-12.585.08v-2.4l12.585.022c4.195.017,8.39.174,12.585.2,4.195.1,8.39-.179,12.585-.268,4.195-.065,8.39.076,12.584.135l-1.112,1.112c.03-1.393-.012-2.785-.014-4.178s-.049-2.785-.076-4.178c-.054-2.785-.178-5.571-.255-8.356l1.457,1.457c-.986.033-1.973.059-2.959.057s-1.973.019-2.959-.023c-1.973-.032-3.946-.252-5.918-.32-3.946-.2-7.891.238-11.837.165-3.946-.035-7.891-.336-11.837-.256-3.946.037-7.891.33-11.837.293-7.891-.079-15.782-.414-23.673-.154-1.973.057-3.946.026-5.918-.011l-5.918-.089-11.837-.138c-3.946-.062-7.891-.062-11.837.112l-5.918.233c-1.973.033-3.946.1-5.918.1l-11.837,0c-3.946.007-7.891-.085-11.837-.123-7.891.027-15.782-.566-23.673-.566-3.946-.018-7.891.16-11.837.24l-11.837.2c-7.891.059-15.782.2-23.674-.151-1.973-.067-3.946-.117-5.918-.113-1.973-.038-3.946.025-5.918.073-3.946.1-7.891.406-11.837.489-1.973.032-3.946.118-5.918.014s-3.946-.3-5.918-.428a99.546,99.546,0,0,0-11.837.358c-3.946.235-7.891.155-11.837.1l-11.837-.158-23.674-.1c-1.973-.017-3.946.011-5.918-.129a54.019,54.019,0,0,0-5.918-.168c-1.973.036-3.946.165-5.918.192-1.973.059-3.946-.04-5.918-.071-7.891-.289-15.782-.277-23.674-.337-7.891.009-15.782.074-23.673.037l.777-.777-.038,8.356c0,1.393-.02,2.785.031,4.178l.1,4.178-.875-.875,5.332-.147c1.777-.026,3.554-.061,5.332-.05l10.664.107c7.109.056,14.218.183,21.327.19,1.777,0,3.555-.08,5.332-.131l5.332-.141c3.554-.025,7.109.167,10.664.1l10.664-.158,10.664-.1Z"/><path class="cls-2" d="M1141.251,778c-2.135-.045-4.27-.035-6.405-.148-1.068-.012-2.135-.1-3.2-.017a16.634,16.634,0,0,1-3.2.1c-1.068-.059-2.135-.233-3.2-.22-1.068-.019-2.135.057-3.2.081l-6.406.367c-1.067.023-2.135.1-3.2.078-1.067.008-2.135-.1-3.2-.175a27.871,27.871,0,0,0-3.2-.041c-1.068.052-2.135.191-3.2.207-2.135.052-4.27-.105-6.405-.21s-4.27-.2-6.406-.187c-1.067.006-2.135.006-3.2.091a26.5,26.5,0,0,1-3.2.162c-1.068,0-2.135-.3-3.2-.31a7.209,7.209,0,0,0-1.6.116,8.548,8.548,0,0,1-1.6.08l-6.405-.093c-2.135-.052-4.27-.094-6.406-.076a48.171,48.171,0,0,1-6.405-.207,21.038,21.038,0,0,0-3.2-.186c-1.068.008-2.135.253-3.2.235-2.135.013-4.27-.27-6.405-.359-2.135-.114-4.27.018-6.406.076-2.135.1-4.27,0-6.405.017-2.135-.012-4.27-.011-6.405-.1a50.417,50.417,0,0,0-6.405.143c-2.135.154-4.27.255-6.406.336-2.135.112-4.27.133-6.405.181-1.068.039-2.135.027-3.2-.012l-3.2-.212c-4.27-.158-8.541.5-12.811.391a38.832,38.832,0,0,0-6.405.007,28.957,28.957,0,0,1-3.2-.012c-1.068-.065-2.135-.263-3.2-.307-2.135-.169-4.27.25-6.405-.051a13.235,13.235,0,0,0-3.2,0,15.708,15.708,0,0,1-3.2.151c-2.135-.141-4.27-.332-6.405-.3-1.068.044-2.135.094-3.2.162a26.663,26.663,0,0,1-3.2-.062,25.941,25.941,0,0,0-3.2-.088c-1.068.028-2.135.156-3.2.22-1.068.1-2.135.1-3.2.132s-2.135.057-3.2.042v-2.4c1.068-.026,2.135-.015,3.2,0s2.135,0,3.2.083c1.067.046,2.135.155,3.2.158a23.64,23.64,0,0,0,3.2-.182,21.491,21.491,0,0,1,3.2-.124c1.068.063,2.135.159,3.2.165,2.135.011,4.27-.231,6.405-.4.534-.009,1.068-.045,1.6-.009a16.019,16.019,0,0,1,1.6.237,9.706,9.706,0,0,0,3.2.035c2.135-.376,4.27.286,6.405.153,1.068-.013,2.135-.21,3.2-.261a27.275,27.275,0,0,1,3.2.039,35.762,35.762,0,0,0,6.405.089c4.27-.136,8.541.482,12.811.209l3.2-.327,1.6-.083,1.6,0c2.135.008,4.27-.025,6.405.079,2.135.08,4.27.1,6.406.362a28.952,28.952,0,0,0,6.405.134c4.27-.3,8.541-.465,12.811-.354,1.068.058,2.135.18,3.2.252a29.016,29.016,0,0,0,3.2.012,62.862,62.862,0,0,1,6.405-.591c1.068.019,2.135.434,3.2.524a12.938,12.938,0,0,0,3.2-.268,16.572,16.572,0,0,1,3.2-.309c1.068.022,2.135.082,3.2.122,2.135.11,4.27.125,6.406.132l6.405.085a8.021,8.021,0,0,1,1.6.132,6.94,6.94,0,0,0,1.6.173c1.068.018,2.135-.243,3.2-.227a28.657,28.657,0,0,1,3.2.2c1.068.1,2.135.12,3.2.139,4.27.161,8.541.007,12.811.038a63.346,63.346,0,0,0,6.405-.068c1.068-.085,2.135-.2,3.2-.211,1.068-.038,2.135.017,3.2.021l6.406.238c1.067.007,2.135.061,3.2.03,1.067,0,2.135-.171,3.2-.236a18.045,18.045,0,0,1,3.2.058c1.068.066,2.135-.027,3.2-.05,2.135-.128,4.27-.137,6.405-.2Z"/><path class="cls-6" d="M1690.855,605.735l14.67-.355,7.383-.182,7.449-.092c4.979-.042,10,.055,14.966.1,2.476-.071,5.009.338,7.466.266l7.4.047h.017a1.3,1.3,0,0,1,1.29,1.306h0l-.04,5.84c-.034,1.947-.122,3.894-.18,5.84l-.195,5.84c-.084,1.947-.084,3.893-.1,5.84a.8.8,0,0,1-.79.789c-4.854.02-9.708.136-14.562.2l-14.562.245-14.562.279c-4.854.18-9.708-.043-14.562-.164l-.073,0a1.309,1.309,0,0,1-1.276-1.341v-.006c.059-2.026.088-4.048.1-6.077l.006-6.116Zm2.182,2.182.471,11.236c.146,3.7.228,7.35.212,11.033l-1.773-1.774c4.854.049,9.708.383,14.562.276l14.562-.042,14.562-.042c4.854-.026,9.708,0,14.562-.068l-1.649,1.649-.31-11.68c-.02-1.947-.042-3.893-.02-5.84.045-1.947.086-3.893.21-5.84l1.769,1.769-7.152-.37a22.726,22.726,0,0,0-3.574-.012,30.518,30.518,0,0,1-3.575-.024c-4.781-.153-9.662-.456-14.414-.378-2.353.087-4.653.246-7.025.241l-7.12-.013C1702.588,608.03,1697.851,608.008,1693.037,607.917Z"/><path class="cls-6" d="M1795.828,656.2l-20.656.371c-6.895.149-13.862.225-20.842.251l-10.5-.068-5.24-.044-2.618-.024-2.635-.125c-1.762-.132-3.49-.1-5.228-.111l-5.207-.021-10.4-.049a1.278,1.278,0,0,1-1.271-1.271c-.01-1.947.084-3.893.121-5.84l.151-5.84.149-5.84c.053-1.947.037-3.893.059-5.84v-.006a.793.793,0,0,1,.79-.783c6.853-.027,13.706-.15,20.558-.221l20.559-.275,20.558-.294c6.853-.005,13.706.314,20.559.318a1.262,1.262,0,0,1,1.262,1.25v.011c.036,4.041.047,8.122.008,12.206Zm-2.182-2.182c-.321-7.6-.621-14.9-.679-22.269l1.77,1.77c-3.427-.019-6.853.052-10.279-.042l-10.279-.232-20.558.037-20.559.045c-6.853.027-13.706,0-20.558.072l1.649-1.649.235,11.68c.038,1.947.1,3.893.093,5.84s.048,3.894-.011,5.84l-1.966-1.966c6.721.06,13.53.646,20.3.611,6.721-.119,13.619.381,20.42.4,3.412.048,6.7-.154,10.037-.223s6.735-.015,10.1-.023C1780.107,653.912,1786.83,653.919,1793.646,654.013Z"/><path class="cls-6" d="M1754.711,681.113l-20.656.371c-6.895.149-13.862.225-20.842.251l-10.5-.068-5.24-.044-2.618-.024-2.635-.125c-1.762-.132-3.49-.1-5.228-.111l-5.207-.021-10.4-.049a1.277,1.277,0,0,1-1.271-1.27c-.01-1.947.084-3.893.121-5.84l.151-5.84.149-5.84c.053-1.947.037-3.894.059-5.84v-.006a.793.793,0,0,1,.79-.784c6.853-.026,13.706-.15,20.558-.22l20.559-.275,20.558-.294c6.853,0,13.706.315,20.559.318a1.263,1.263,0,0,1,1.262,1.251v.011c.036,4.041.047,8.122.008,12.206Zm-2.182-2.182c-.321-7.6-.621-14.9-.679-22.269l1.77,1.77c-3.427-.02-6.853.051-10.279-.042l-10.279-.232-20.558.036-20.559.045c-6.853.027-13.706,0-20.558.072l1.649-1.649.235,11.68c.038,1.947.1,3.893.093,5.84s.048,3.893-.011,5.84l-1.966-1.966c6.721.06,13.53.646,20.3.61,6.721-.119,13.619.381,20.42.4,3.412.049,6.7-.154,10.037-.223s6.735-.015,10.1-.023C1738.99,678.83,1745.714,678.837,1752.529,678.931Z"/><polygon class="cls-6" points="1669.564 680.675 1292.292 684.986 1302.278 219.992 1669.564 219.992 1669.564 680.675"/><path class="cls-7" d="M1305.613,525.389c27.653-.362,135.347-13.453,150.5-33.816,15.088-20.273,19.173-47.071,39.83-63.094,26.173-20.3,67.643-14.837,97.717-30.4,36.978-19.132,35.794-63.854,67.94-88.851l2.376-83.951-356.923.318-1.443,299.791"/><path class="cls-5" d="M1485.749,222.8c.258,38.309.928,76.618.259,114.927l-.162,14.366-.315,7.183c-.085,2.394-.077,4.789-.089,7.183l-.121,28.732c0,19.155-.826,38.309-.828,57.464q.382,57.464,1.114,114.927c.1,9.577.279,19.155.137,28.732l-.424,28.732-.039,7.183.054,7.183.108,14.366.108,14.366.2,14.366h-5.143c-.122-19.155-.334-38.309-.381-57.463.021-4.789-.054-9.577.045-14.366l.274-14.366c.213-9.577.133-19.155.124-28.732l-.239-114.927c-.226-19.155-.824-38.309-.43-57.464.095-4.789.272-9.577.428-14.366l.25-7.183.177-7.183c.057-2.394.139-4.789.1-7.183-.066-2.395-.213-4.789-.2-7.183l.273-14.366.3-14.366c.068-4.789.137-9.577.116-14.366s-.206-9.577-.377-14.366-.226-9.577-.24-14.366l-.17-28.732-.072-14.366.02-14.366Z"/><path class="cls-5" d="M1581.3,222.8c.328,6.77.871,13.54.3,20.31l-.195,2.539a10.218,10.218,0,0,1-.324,1.27,8,8,0,0,0-.1,1.269c-.1,1.693-.034,3.385-.082,5.078a46.818,46.818,0,0,1-.416,5.078,38.14,38.14,0,0,0-.452,5.078c.087,3.385.185,6.77.464,10.155.217,3.385.563,6.77.7,10.155a43.752,43.752,0,0,1,.125,5.078c-.167,1.693-.339,3.385-.461,5.078-.021,3.385.14,6.77.442,10.155h-5.143l-.413-10.155c-.014-.846,0-1.693.068-2.539s.21-1.692.306-2.539a48.371,48.371,0,0,0,.136-5.078c-.014-3.385.049-6.77-.03-10.155L1576,263.416c-.17-3.385-.917-6.77-.463-10.155.113-.846.277-1.692.437-2.539s.342-1.692.444-2.539a6.186,6.186,0,0,0,.086-1.269,7.306,7.306,0,0,1-.208-1.27c.072-.846.124-1.692.247-2.539a31.781,31.781,0,0,0,.46-5.077,15.082,15.082,0,0,0-.388-2.539,14.092,14.092,0,0,1-.25-2.539c-.158-3.385-.282-6.77-.212-10.155Z"/><path class="cls-5" d="M1386.479,222.8c.328,6.77.871,13.54.3,20.31l-.195,2.539a10.218,10.218,0,0,1-.324,1.27,8,8,0,0,0-.1,1.269c-.1,1.693-.034,3.385-.082,5.078a46.757,46.757,0,0,1-.416,5.078,38.18,38.18,0,0,0-.452,5.078c.087,3.385.185,6.77.464,10.155.217,3.385.563,6.77.7,10.155a43.752,43.752,0,0,1,.125,5.078c-.167,1.693-.339,3.385-.461,5.078-.021,3.385.14,6.77.442,10.155h-5.143l-.413-10.155c-.014-.846,0-1.693.068-2.539s.209-1.692.306-2.539a48.371,48.371,0,0,0,.136-5.078c-.014-3.385.049-6.77-.03-10.155l-.221-10.155c-.17-3.385-.917-6.77-.463-10.155.113-.846.277-1.692.437-2.539s.342-1.692.444-2.539a6.186,6.186,0,0,0,.086-1.269,7.306,7.306,0,0,1-.208-1.27c.072-.846.124-1.692.247-2.539a31.781,31.781,0,0,0,.46-5.077,15.082,15.082,0,0,0-.388-2.539,14.07,14.07,0,0,1-.25-2.539c-.158-3.385-.282-6.77-.212-10.155Z"/><path class="cls-5" d="M1283.854,429.275c31.881-.01,63.765-.431,95.638.487l11.953.25c1.992.063,3.983.246,5.975.366,1.992.1,3.984.108,5.977.135l23.908.307c15.939.129,31.872,1.074,47.812,1.2,15.94.063,31.88.071,47.822-.078l47.823-.291c7.97-.039,15.942-.155,23.91.049l23.906.61,5.977.085,5.978-.007,11.956-.015,11.956-.015,11.956-.1-.04,5.143c-15.94,0-31.881.085-47.821.008-3.985-.052-7.97-.008-11.954-.138l-11.953-.367c-7.968-.275-15.938-.257-23.908-.31l-95.638-.52c-7.97,0-15.942.189-23.913.274-3.986.077-7.97.037-11.955.021-3.985.021-7.969-.135-11.954-.224-3.984-.126-7.968-.334-11.951-.521l-5.975-.3-5.976-.223c-1.992-.073-3.984-.17-5.977-.148-1.993.05-3.987.182-5.979.156l-11.952-.366-11.952-.4c-3.984-.1-7.969-.2-11.954-.209s-7.971.144-11.958.284-7.971.164-11.956.147l-23.911-.016-11.955-.022-11.954-.113Z"/><path class="cls-5" d="M1301.217,301.525c30.43-.258,60.86-.928,91.291-.259l11.411.157c1.9.048,3.8.214,5.706.32,1.9.085,3.8.077,5.706.089l22.823.121c15.215,0,30.43.826,45.645.828,15.215-.061,30.43-.178,45.646-.451l45.645-.664c7.607-.1,15.215-.279,22.823-.137l22.823.424,5.706.039,5.706-.054,11.411-.108,11.411-.108,11.412-.2v5.143c-15.215.122-30.43.334-45.646.381-3.8-.021-7.607.055-11.411-.045l-11.411-.274c-7.608-.213-15.215-.133-22.823-.124l-91.291.225c-7.607.062-15.215.314-22.823.46-3.8.108-7.608.1-11.411.115-3.8.052-7.608-.073-11.411-.131-3.8-.095-7.608-.272-11.411-.427l-5.706-.25-5.706-.177c-1.9-.057-3.8-.139-5.706-.1-1.9.066-3.8.213-5.706.2l-11.411-.273-11.411-.3c-3.8-.068-7.608-.137-11.411-.116s-7.608.206-11.411.377-7.608.226-11.411.24l-22.823.17-11.411.072-11.411-.02Z"/><path class="cls-5" d="M1283.826,560.808c31.7-.362,63.4-1.136,95.11-.571l11.889.118c1.982.041,3.964.2,5.946.3,1.982.079,3.963.064,5.945.069l23.778.043c15.852-.048,31.707.721,47.558.672,15.852-.113,31.7-.282,47.554-.607l47.553-.82c7.926-.127,15.851-.331,23.777-.216l23.779.346,5.945.019,5.944-.073,11.888-.147,11.889-.147,11.888-.237.017,5.143c-15.852.174-31.7.438-47.554.537-3.963-.008-7.926.081-11.889-.006l-11.89-.234c-7.927-.187-15.852-.081-23.778-.046l-95.11.538c-7.926.088-15.851.366-23.776.539-3.963.121-7.926.125-11.888.154-3.963.065-7.926-.047-11.889-.092-3.963-.082-7.927-.246-11.89-.388l-5.945-.231-5.945-.157c-1.982-.051-3.963-.126-5.945-.082-1.981.072-3.962.226-5.944.222l-11.89-.234-11.89-.264c-3.963-.055-7.926-.111-11.889-.077s-7.925.232-11.888.416-7.925.252-11.888.279l-23.777.249-11.889.111-11.889.019Z"/><path class="cls-6" d="M1271.285,250.232c-.059,33.547.129,67.1-.487,100.639l-.177,12.579c-.133,4.193-.326,8.385-.322,12.578l-.233,25.159c-.037,8.387-.25,16.772-.41,25.158-.184,8.385-.26,16.772-.4,25.158q-.131,50.32.014,100.642c.007,8.387.06,16.774-.078,25.16l-.4,25.158-.082,6.29v44.031a1.543,1.543,0,0,1-3.086,0v-.02l.093-50.32c.039-4.193.021-8.386.107-12.579l.244-12.579c.181-8.385.187-16.772.235-25.159l.5-100.638-.078-25.161c.016-8.387-.076-16.774.186-25.159l.616-25.156c.172-4.192.06-8.386.037-12.58l.24-12.579c.16-8.386.331-16.771.4-25.158l-.116-12.581c-.059-4.194-.118-8.388-.076-12.581l.181-50.32a1.543,1.543,0,1,1,3.086.011Z"/><path class="cls-6" d="M1794.169,304.569l-20.66.365-10.383.181-10.452.085c-7-.024-13.995-.061-20.974-.163-1.754-.067-3.514-.214-5.247-.206l-5.207-.021-10.4-.048h-.013a1.277,1.277,0,0,1-1.271-1.283h0c.013-2.244.008-4.488.083-6.731l.169-6.731.167-6.731c.075-2.244.049-4.487.076-6.731v-.007a.793.793,0,0,1,.789-.783c6.853-.024,13.706-.145,20.559-.212l20.558-.263,20.559-.294c6.853-.067,13.706.2,20.558.276h.029a1.268,1.268,0,0,1,1.254,1.281h0c-.055,4.632.03,9.3-.025,13.983Zm-2.182-2.182-.452-13.01c-.117-4.29-.238-8.547-.229-12.823l1.771,1.771c-6.853.1-13.706-.277-20.558-.28l-20.559.044-20.558.044c-6.853.026-13.706,0-20.559.07l1.649-1.649.264,13.462c.063,2.244.066,4.487.071,6.731.03,2.244-.03,4.488-.07,6.731l-1.915-1.914c3.37.086,6.749.259,10.138.375l5.092.2c1.707.1,3.371-.071,5.056-.084,3.388.057,6.8.179,10.206.266,3.417.116,6.835.191,10.228.2,3.4.029,6.663-.236,10.025-.246l10.11,0C1778.444,302.281,1785.173,302.294,1791.987,302.387Z"/><path class="cls-6" d="M1755.953,331.186l-20.66.365-10.383.181-10.452.084c-7-.024-13.995-.061-20.974-.163-1.754-.067-3.514-.214-5.248-.206l-5.207-.021-10.4-.048h-.013a1.278,1.278,0,0,1-1.271-1.283h0c.013-2.244.008-4.488.083-6.731l.168-6.731.167-6.731c.075-2.244.049-4.488.076-6.731v-.007a.792.792,0,0,1,.789-.783c6.853-.024,13.706-.145,20.559-.212l20.558-.263,20.558-.294c6.853-.067,13.706.2,20.559.276h.029a1.268,1.268,0,0,1,1.254,1.281h0c-.055,4.632.03,9.305-.025,13.983ZM1753.77,329l-.452-13.01c-.117-4.291-.238-8.547-.229-12.823l1.771,1.771c-6.853.1-13.706-.277-20.559-.28l-20.558.044-20.558.044c-6.853.026-13.706,0-20.559.07l1.649-1.649.265,13.462c.063,2.244.065,4.487.071,6.731.029,2.244-.03,4.487-.071,6.731l-1.914-1.914c3.369.086,6.749.259,10.138.375l5.092.2c1.707.1,3.371-.071,5.056-.083,3.388.057,6.8.179,10.206.266,3.417.116,6.835.191,10.228.2,3.4.029,6.662-.236,10.025-.246l10.11,0C1740.227,328.9,1746.956,328.911,1753.77,329Z"/><path class="cls-6" d="M1755.953,278.016l-20.66.365-10.383.181-10.452.085c-7-.024-13.995-.061-20.974-.163-1.754-.067-3.514-.214-5.248-.206l-5.207-.021-10.4-.048h-.013a1.278,1.278,0,0,1-1.271-1.283h0c.013-2.244.008-4.488.083-6.731l.168-6.731.167-6.731c.075-2.244.049-4.487.076-6.731v-.007a.792.792,0,0,1,.789-.783c6.853-.024,13.706-.145,20.559-.212l20.558-.263,20.558-.294c6.853-.067,13.706.2,20.559.276h.029a1.268,1.268,0,0,1,1.254,1.281h0c-.055,4.632.03,9.305-.025,13.983Zm-2.182-2.182-.452-13.01c-.117-4.29-.238-8.547-.229-12.823l1.771,1.771c-6.853.1-13.706-.277-20.559-.28l-20.558.044-20.558.044c-6.853.026-13.706,0-20.559.07l1.649-1.649.265,13.462c.063,2.244.065,4.487.071,6.731.029,2.244-.03,4.487-.071,6.731l-1.914-1.914c3.369.086,6.749.259,10.138.375l5.092.2c1.707.1,3.371-.071,5.056-.083,3.388.057,6.8.179,10.206.266,3.417.116,6.835.191,10.228.2,3.4.029,6.662-.236,10.025-.246l10.11,0C1740.227,275.728,1746.956,275.741,1753.77,275.834Z"/><path class="cls-6" d="M1268.038,472.087l-20.66.365-10.383.181-10.452.085c-7-.024-13.995-.061-20.974-.163-1.754-.067-3.514-.214-5.247-.206l-5.207-.02-10.4-.048h-.013a1.277,1.277,0,0,1-1.271-1.283h0c.013-2.244.008-4.487.083-6.731l.169-6.731.167-6.731c.075-2.244.05-4.487.076-6.731v-.007a.793.793,0,0,1,.789-.783c6.853-.024,13.706-.145,20.558-.212l20.558-.263,20.558-.294c6.853-.067,13.706.2,20.558.276h.029a1.268,1.268,0,0,1,1.254,1.281h0c-.055,4.632.03,9.305-.025,13.983Zm-2.182-2.182-.452-13.01c-.117-4.29-.238-8.547-.229-12.823l1.771,1.771c-6.853.1-13.706-.278-20.558-.28l-20.558.044-20.558.044c-6.853.026-13.706,0-20.558.07l1.649-1.649.264,13.462c.063,2.244.066,4.488.072,6.731.03,2.244-.031,4.487-.071,6.731l-1.914-1.914c3.369.085,6.749.259,10.138.375l5.093.2c1.707.1,3.371-.071,5.056-.083,3.388.057,6.8.179,10.206.266,3.418.116,6.835.191,10.228.2,3.4.029,6.662-.235,10.025-.246l10.11,0C1252.313,469.8,1259.042,469.813,1265.856,469.905Z"/><path class="cls-6" d="M1268.038,529.167l-20.66.365-10.383.181-10.452.085c-7-.024-13.995-.061-20.974-.163-1.754-.067-3.514-.214-5.247-.206l-5.207-.02-10.4-.049h-.013a1.277,1.277,0,0,1-1.271-1.283h0c.013-2.244.008-4.487.083-6.731l.169-6.731.167-6.731c.075-2.244.05-4.487.076-6.731v-.007a.793.793,0,0,1,.789-.783c6.853-.024,13.706-.145,20.558-.212l20.558-.263,20.558-.294c6.853-.067,13.706.2,20.558.276h.029a1.268,1.268,0,0,1,1.254,1.281h0c-.055,4.632.03,9.3-.025,13.983Zm-2.182-2.182-.452-13.01c-.117-4.29-.238-8.547-.229-12.823l1.771,1.771c-6.853.1-13.706-.277-20.558-.28l-20.558.044-20.558.044c-6.853.026-13.706,0-20.558.07l1.649-1.649.264,13.462c.063,2.244.066,4.487.072,6.731.03,2.244-.031,4.488-.071,6.731l-1.914-1.914c3.369.085,6.749.259,10.138.375l5.093.2c1.707.1,3.371-.071,5.056-.084,3.388.057,6.8.179,10.206.266,3.418.116,6.835.191,10.228.2,3.4.029,6.662-.236,10.025-.246l10.11,0C1252.313,526.88,1259.042,526.893,1265.856,526.985Z"/><path class="cls-6" d="M1268.038,419.97l-20.66.365-10.383.181-10.452.085c-7-.024-13.995-.061-20.974-.163-1.754-.067-3.514-.214-5.247-.206l-5.207-.02-10.4-.049h-.013a1.277,1.277,0,0,1-1.271-1.283h0c.013-2.244.008-4.487.083-6.731l.169-6.731.167-6.731c.075-2.244.05-4.487.076-6.731v-.007a.793.793,0,0,1,.789-.783c6.853-.024,13.706-.145,20.558-.212l20.558-.263,20.558-.294c6.853-.067,13.706.2,20.558.276h.029a1.268,1.268,0,0,1,1.254,1.281h0c-.055,4.632.03,9.3-.025,13.983Zm-2.182-2.182-.452-13.01c-.117-4.29-.238-8.547-.229-12.823l1.771,1.771c-6.853.1-13.706-.278-20.558-.281l-20.558.044-20.558.044c-6.853.026-13.706,0-20.558.07l1.649-1.649.264,13.462c.063,2.244.066,4.487.072,6.731.03,2.244-.031,4.488-.071,6.731l-1.914-1.914c3.369.085,6.749.259,10.138.375l5.093.2c1.707.1,3.371-.071,5.056-.084,3.388.057,6.8.179,10.206.266,3.418.116,6.835.191,10.228.2,3.4.029,6.662-.236,10.025-.246l10.11,0C1252.313,417.683,1259.042,417.7,1265.856,417.788Z"/><path class="cls-6" d="M1229.821,498.7l-20.66.365-10.383.181-10.452.085c-7-.024-13.995-.061-20.974-.163-1.754-.067-3.514-.214-5.247-.206l-5.207-.02-10.4-.049h-.013a1.277,1.277,0,0,1-1.271-1.283h0c.013-2.244.008-4.487.083-6.731l.169-6.731.167-6.731c.075-2.244.05-4.487.076-6.731v-.007a.793.793,0,0,1,.789-.783c6.853-.024,13.706-.145,20.558-.212l20.558-.263,20.558-.294c6.853-.067,13.706.2,20.558.276h.029a1.268,1.268,0,0,1,1.254,1.281h0c-.055,4.632.03,9.305-.025,13.983Zm-2.182-2.182-.452-13.01c-.117-4.29-.238-8.547-.229-12.823l1.771,1.771c-6.853.1-13.706-.278-20.558-.281l-20.558.044-20.558.044c-6.853.026-13.706,0-20.558.07l1.649-1.649.264,13.462c.063,2.244.066,4.487.072,6.731.03,2.244-.031,4.487-.071,6.731L1146.5,495.7c3.369.085,6.749.259,10.138.375l5.093.2c1.707.1,3.371-.071,5.056-.083,3.388.057,6.8.179,10.206.266,3.418.116,6.835.191,10.228.2,3.4.029,6.662-.236,10.025-.246l10.11,0C1214.1,496.417,1220.825,496.43,1227.639,496.522Z"/><path class="cls-6" d="M1229.821,445.534l-20.66.365-10.383.181-10.452.085c-7-.024-13.995-.061-20.974-.163-1.754-.067-3.514-.214-5.247-.206l-5.207-.02-10.4-.049h-.013a1.277,1.277,0,0,1-1.271-1.283h0c.013-2.244.008-4.487.083-6.731l.169-6.731.167-6.731c.075-2.244.05-4.487.076-6.731v-.007a.793.793,0,0,1,.789-.783c6.853-.024,13.706-.145,20.558-.212l20.558-.263,20.558-.294c6.853-.067,13.706.2,20.558.276h.029a1.268,1.268,0,0,1,1.254,1.281h0c-.055,4.632.03,9.305-.025,13.983Zm-2.182-2.182-.452-13.01c-.117-4.29-.238-8.547-.229-12.823l1.771,1.771c-6.853.1-13.706-.278-20.558-.281l-20.558.044-20.558.044c-6.853.026-13.706,0-20.558.07l1.649-1.649.264,13.462c.063,2.244.066,4.488.072,6.731.03,2.244-.031,4.487-.071,6.731l-1.914-1.914c3.369.085,6.749.259,10.138.375l5.093.2c1.707.1,3.371-.071,5.056-.083,3.388.057,6.8.179,10.206.266,3.418.116,6.835.191,10.228.2,3.4.029,6.662-.236,10.025-.246l10.11,0C1214.1,443.246,1220.825,443.26,1227.639,443.352Z"/><path class="cls-6" d="M1229.821,558.266l-20.66.365-10.383.181-10.452.085c-7-.024-13.995-.061-20.974-.163-1.754-.067-3.514-.214-5.247-.206l-5.207-.02-10.4-.049h-.013a1.277,1.277,0,0,1-1.271-1.283h0c.013-2.244.008-4.487.083-6.731l.169-6.731.167-6.731c.075-2.244.05-4.487.076-6.731v-.007a.793.793,0,0,1,.789-.783c6.853-.024,13.706-.145,20.558-.212l20.558-.263,20.558-.294c6.853-.067,13.706.2,20.558.276h.029a1.268,1.268,0,0,1,1.254,1.281h0c-.055,4.632.03,9.3-.025,13.983Zm-2.182-2.182-.452-13.01c-.117-4.29-.238-8.547-.229-12.823l1.771,1.771c-6.853.1-13.706-.278-20.558-.281l-20.558.044-20.558.044c-6.853.026-13.706,0-20.558.07l1.649-1.649.264,13.462c.063,2.244.066,4.487.072,6.731.03,2.244-.031,4.487-.071,6.731l-1.914-1.914c3.369.085,6.749.259,10.138.375l5.093.2c1.707.1,3.371-.071,5.056-.083,3.388.057,6.8.179,10.206.266,3.418.116,6.835.191,10.228.2,3.4.029,6.662-.236,10.025-.246l10.11,0C1214.1,555.979,1220.825,555.992,1227.639,556.084Z"/><path class="cls-6" d="M1251.066,721.957c43.327-.146,86.654-.521,129.981-.19l16.248.084,8.124.058,8.124.162c10.832.127,21.664.076,32.5.122,21.664-.055,43.327.33,64.991.424l16.248.1,16.248-.063,32.5-.152,64.991-.34c21.664-.094,43.327-.36,64.991-.126l32.5.2,32.5-.152-1.416,1.416-.127-31.069a1.543,1.543,0,1,1,3.086-.012h0v.011l.1,31.069a1.64,1.64,0,0,1-1.635,1.646h-.011c-21.664.061-43.327.253-64.991.031-21.664-.278-43.327-.151-64.991-.153l-64.991.055-32.5.028-16.248.022-16.248.125c-21.664.142-43.327.375-64.991,0l-16.248-.226-8.124-.12c-2.708-.041-5.416-.1-8.124-.045l-8.124.088c-2.708.019-5.416-.042-8.124-.059l-16.248-.164L1364.8,724.6l-8.124-.062-8.124.07c-10.832.081-21.664.354-32.5.306l-64.991.133a1.543,1.543,0,1,1-.006-3.086Z"/><path class="cls-6" d="M1313.654,685.5a156.4,156.4,0,0,1-15.647.18l-1.956-.119a9.739,9.739,0,0,1-.978-.192,7.252,7.252,0,0,0-.978-.053l-3.912-.073c-2.608.029-5.216-.5-7.823-.5-5.216.022-10.431.477-15.647.69-1.3.041-2.608.152-3.912.075s-2.608-.217-3.912-.269c-1.3-.068-2.608.055-3.912.074-1.3.035-2.608.086-3.912.183a1.543,1.543,0,1,1-.23-3.077l.06,0,.17-.005,7.823-.248a28.291,28.291,0,0,1,3.912.224c1.3.121,2.608.068,3.912.082,5.216.032,10.431-.037,15.647-.156,1.3-.037,2.608-.188,3.912-.276a25.271,25.271,0,0,1,3.912,0c1.3.126,2.608.409,3.912.519a5.393,5.393,0,0,0,.978.062,6.863,6.863,0,0,1,.978-.122c.652.038,1.3.073,1.956.146a33.335,33.335,0,0,0,3.912.276,14.716,14.716,0,0,0,1.956-.233,14.324,14.324,0,0,1,1.956-.144c2.608-.047,5.216-.189,7.823-.133a1.543,1.543,0,0,1,.019,3.085Z"/><path class="cls-6" d="M1275.883,182.749c35.675-.118,71.35-.412,107.025-.3l26.756.142,13.378.071c4.459.015,8.919.168,13.378.234l53.513.154,26.756.274,26.756.165,53.513-.221,107.025-.542a1.553,1.553,0,0,1,1.561,1.546v.016c-.009,4.653-.114,9.307-.186,13.96-.022,4.653-.159,9.307-.086,13.96l.254,27.92a1.543,1.543,0,1,1-3.085.028v-.028l-.2-27.92-.027-13.96.239-13.96,1.535,1.535-107.025.04-53.513.07-26.756.209-26.756.129c-8.919-.025-17.838-.184-26.757-.269l-26.756-.375c-4.459.015-8.919.151-13.378.094l-13.378-.138-26.756-.229c-4.459-.071-8.919.012-13.378.056l-13.378.172-6.689.1-6.689.014-13.378.028-53.513.112a1.543,1.543,0,0,1-.006-3.086Z"/><path class="cls-5" d="M1594.308,706.176a238.319,238.319,0,0,0-5.588,45.294c-.1,3.567-.1,7.225,1.122,10.578-.288-6.333-4.894-11.758-5.679-18.049-.855-6.841,2.876-14.1.244-20.476-2.561-6.195-10.18-9.563-10.308-16.772C1576.192,706.968,1593.777,708.565,1594.308,706.176Z"/><path class="cls-8" d="M1419.8,438.849c12.282-20.06,19.126-52.754,12.835-75.391-2.728,26.006-18.219,57.865-29.782,81.525-1.608,3.29-3.253,6.787-2.951,10.436"/><path class="cls-9" d="M1449.889,299.978c-2.142.019-4.959-1.828-6.427.058s-8.05,27.247-1.688,41.126c8.916-12.513,18.161-25.786,21.613-42.706a3.28,3.28,0,0,0,.026-1.735,1.6,1.6,0,0,0-1.688-.9"/><path class="cls-9" d="M1346.769,1054.329c1.968.045,3.936.035,5.9.148.984.012,1.968.1,2.952.017a14.141,14.141,0,0,1,2.952-.1c.984.059,1.968.233,2.952.22.984.019,1.968-.057,2.952-.081l5.9-.367c.984-.023,1.968-.1,2.952-.078.984-.008,1.968.1,2.952.175a23.686,23.686,0,0,0,2.952.041c.984-.052,1.968-.191,2.952-.207,1.968-.052,3.936.105,5.9.21s3.936.2,5.9.187c.984-.006,1.968-.006,2.952-.09a22.488,22.488,0,0,1,2.952-.162c.984,0,1.968.3,2.952.31a6.137,6.137,0,0,0,1.476-.116,7.269,7.269,0,0,1,1.476-.08c1.968.031,3.936.038,5.9.093s3.936.094,5.9.077a40.941,40.941,0,0,1,5.9.207,17.923,17.923,0,0,0,2.952.186c.984-.008,1.968-.253,2.952-.235,1.968-.013,3.936.27,5.9.359,1.968.114,3.936-.018,5.9-.076,1.968-.1,3.936,0,5.9-.017,1.968.012,3.936.011,5.9.1a42.849,42.849,0,0,0,5.9-.143c1.968-.154,3.936-.255,5.9-.336,1.968-.112,3.936-.133,5.9-.181.984-.039,1.968-.027,2.952.012l2.952.212c3.936.158,7.872-.5,11.808-.391a33,33,0,0,0,5.9-.007,24.6,24.6,0,0,1,2.952.012c.984.065,1.968.263,2.952.307,1.968.169,3.936-.25,5.9.051a11.241,11.241,0,0,0,2.952,0,13.356,13.356,0,0,1,2.952-.151c1.968.141,3.936.332,5.9.3.984-.044,1.968-.094,2.952-.162a22.657,22.657,0,0,1,2.952.062,22.045,22.045,0,0,0,2.952.088c.984-.028,1.968-.156,2.952-.22.984-.1,1.968-.1,2.952-.132s1.968-.057,2.952-.042v2.4c-.984.026-1.968.015-2.952,0s-1.968,0-2.952-.083c-.984-.046-1.968-.155-2.952-.158a20.1,20.1,0,0,0-2.952.182,18.269,18.269,0,0,1-2.952.124c-.984-.063-1.968-.159-2.952-.165-1.968-.011-3.936.231-5.9.4-.492.009-.984.045-1.476.009a13.737,13.737,0,0,1-1.476-.237,8.256,8.256,0,0,0-2.952-.035c-1.968.376-3.936-.286-5.9-.153-.984.013-1.968.21-2.952.261a23.176,23.176,0,0,1-2.952-.039,30.394,30.394,0,0,0-5.9-.089c-3.936.136-7.872-.482-11.808-.209l-2.952.327-1.476.083-1.476,0c-1.968-.008-3.936.025-5.9-.079-1.968-.08-3.936-.1-5.9-.362a24.615,24.615,0,0,0-5.9-.134,114.764,114.764,0,0,1-11.808.354c-.984-.058-1.968-.18-2.952-.252a24.654,24.654,0,0,0-2.952-.012,53.535,53.535,0,0,1-5.9.591c-.984-.019-1.968-.434-2.952-.524a11.021,11.021,0,0,0-2.952.268,14.116,14.116,0,0,1-2.952.309c-.984-.022-1.968-.082-2.952-.122-1.968-.11-3.936-.125-5.9-.132l-5.9-.085a6.829,6.829,0,0,1-1.476-.132,5.907,5.907,0,0,0-1.476-.173c-.984-.018-1.968.243-2.952.227a24.378,24.378,0,0,1-2.952-.2c-.984-.1-1.968-.12-2.952-.139-3.936-.161-7.872-.007-11.808-.038a53.828,53.828,0,0,0-5.9.068c-.984.085-1.968.2-2.952.211-.984.038-1.968-.017-2.952-.021l-5.9-.238c-.984-.007-1.968-.061-2.952-.03-.984,0-1.968.171-2.952.236a15.336,15.336,0,0,1-2.952-.058c-.984-.066-1.968.027-2.952.05-1.968.128-3.936.137-5.9.2Z"/><path class="cls-9" d="M1568.6,1054.329c.857.045,1.714.035,2.57.148a4.761,4.761,0,0,0,1.285.017c.214-.047.428-.109.643-.135a2.583,2.583,0,0,1,.643.034,8.981,8.981,0,0,0,1.285.233c.428,0,.857-.062,1.285-.09.857-.1,1.713-.271,2.57-.367.428-.027.857-.093,1.285-.088a8.659,8.659,0,0,1,1.285.184,4.1,4.1,0,0,0,1.285.044c.428-.064.857-.183,1.285-.221a13.6,13.6,0,0,1,2.57.235,18.076,18.076,0,0,0,2.57.172,7.025,7.025,0,0,0,1.285-.09,4.355,4.355,0,0,1,1.285-.167c.428.015.857.294,1.285.319a1.23,1.23,0,0,0,.643-.12,1.387,1.387,0,0,1,.643-.085c1.714-.008,3.427.212,5.141.177l1.285-.016a4.714,4.714,0,0,1,1.285.219,3.76,3.76,0,0,0,1.285.2c.428-.036.857-.253,1.285-.254a22.97,22.97,0,0,1,2.57.366,11.606,11.606,0,0,0,2.57-.09,43.794,43.794,0,0,1,5.141.1,8.081,8.081,0,0,0,2.571-.145c.857-.175,1.713-.238,2.57-.334s1.714-.182,2.57-.193a7.292,7.292,0,0,1,1.285.023l1.285.215c1.714.154,3.427-.505,5.141-.393a6.308,6.308,0,0,0,2.57-.007,4.966,4.966,0,0,1,1.285.006c.428.08.857.258,1.285.321.857.153,1.713-.255,2.57.042a2.068,2.068,0,0,0,1.285,0,3.714,3.714,0,0,1,.643-.168,3.953,3.953,0,0,1,.643.017,12.438,12.438,0,0,0,2.57.3,11.731,11.731,0,0,0,1.285-.162,4.326,4.326,0,0,1,1.285.062,5.391,5.391,0,0,0,2.57-.146,15.276,15.276,0,0,1,2.57-.161v2.4c-.428.026-.857.015-1.285,0a11.685,11.685,0,0,1-1.285-.071,4.844,4.844,0,0,0-2.57.012,3.335,3.335,0,0,1-1.285.124,10.285,10.285,0,0,0-1.285-.166,12.321,12.321,0,0,0-2.57.4,2.294,2.294,0,0,1-.643.009,3.044,3.044,0,0,1-.643-.237,1.585,1.585,0,0,0-1.285-.035c-.857.375-1.714-.28-2.57-.162-.428.034-.857.209-1.285.277a4.69,4.69,0,0,1-1.285-.045,5.827,5.827,0,0,0-2.57-.089c-1.713.151-3.427-.506-5.141-.211l-1.285.33a6.3,6.3,0,0,1-1.285.1,19.415,19.415,0,0,1-2.57-.093,12,12,0,0,1-2.57-.362,4.7,4.7,0,0,0-2.571-.134,25.823,25.823,0,0,1-2.57.329,12.758,12.758,0,0,1-2.57.032,7.054,7.054,0,0,0-2.57-.27,10.83,10.83,0,0,1-2.57.591c-.428-.016-.857-.432-1.285-.524a2.236,2.236,0,0,0-1.285.268,2.73,2.73,0,0,1-1.285.309c-.428-.022-.857-.082-1.285-.122-1.714-.218-3.427-.074-5.141-.213a1.349,1.349,0,0,1-.643-.136,1.238,1.238,0,0,0-.643-.177c-.428-.007-.857.241-1.285.236a5.076,5.076,0,0,1-1.285-.209,8.75,8.75,0,0,0-1.285-.161c-1.714-.134-3.427.014-5.141-.016a9.306,9.306,0,0,0-2.57.068,8.97,8.97,0,0,1-1.285.22c-.428.021-.857-.022-1.285-.03-.857-.054-1.714-.177-2.57-.238-.428-.011-.857-.053-1.285-.038a11.784,11.784,0,0,0-1.285.244,2.943,2.943,0,0,1-1.285-.058,5.1,5.1,0,0,0-1.285.05c-.857.128-1.713.137-2.57.2Z"/><polyline class="cls-10" points="1432.703 1002.522 1437.908 1033.313 1414.427 1040.005 1410.299 1050.909 1454.958 1044.049 1454.523 1005.987"/><polyline class="cls-10" points="1574.549 1003.34 1579.887 1021.451 1608.163 1037.756 1607.42 1052.228 1585.086 1048.109 1563.443 1032.413 1552.469 1007.801"/><path class="cls-11" d="M1461.03,777.864l2.8,21.223,10.728,81.357c1.83,13.878,4.967,28.391,4.5,42.366-.515,15.416-4.938,30.508-9.07,45.268-4.847,17.314-11.953,33.41-12.388,51.736-.025,1.047-17.766,2.137-19.545,1.73-3.824-.874-7.9-2.592-9.524-6.162,1.233-10.674-.877-21.174-1.544-31.865-.75-12.015-1.67-24.02-2.876-36-2.357-23.414-5.762-46.771-11.221-69.677l-.987-4.14c-4.2-17.641-6.489-36.062-12-53.141a502.856,502.856,0,0,1-14.913-57.783c-2.359-12.055-5.264-24.764-5.825-37.06-.491-10.769,3.4-21.7,7.552-31.558.89-2.113,11.124-25.536,12.383-25.447l81.906,5.5,9.8,78.883Z"/><path class="cls-12" d="M1451.86,755.9c-6.107,9.294-7.339,21-6.649,32.1s3.116,22.045,3.625,33.154c.495,10.812-.831,21.7.519,32.44,2.606,20.734,14.514,38.625,19.592,58.656,5.526,21.8-3.286,45.572-4.85,67.835,13.057-21.977,15.478-48.642,14.8-74.2-1.35-51-2.775-101.854-8.309-152.628"/><path class="cls-11" d="M1573.827,1005.816a11.059,11.059,0,0,1-5.316,4.765c-2.936,1.069-6.167.84-9.277.536-1.82-.178-7.96.786-9.2.006-1.284-.808-1.965-5.163-2.749-6.7-2.836-5.569-7.357-10.9-11.284-15.738-8.4-10.337-17.982-19.689-25.689-30.589-10.028-14.184-19.367-28.917-26.854-44.616-7.771-16.293-16.563-31.378-19.667-49.579-2.056-12.055-3.629-24.213-5.442-36.307l-10.9-72.724c-2.308-15.4-3.272-31.079-1.372-46.574.5-4.09.417-14.2,3.3-17.51,3.75-4.3,12.049-3.216,17.256-4.132l58.185-10.24c-1.659.292,11.1,39.365,11.807,41.744a132.385,132.385,0,0,1,3.914,54.547c-3.974,30.573-10.9,61.065-16.2,91.446-.448,2.568,12.689,15.471,14.7,18.663,9.66,15.3,12.608,36.766,17.616,53.951,4.785,19.139,9.646,40.577,18.484,58.2C1576.708,998.068,1575.892,1002.429,1573.827,1005.816Z"/><path class="cls-11" d="M1455.339,1039.774a2.929,2.929,0,0,1,1.636,2.137c.9,3.916,4.136,10.347.583,12.97-2.108,1.556-6.756.29-9.3.234-6.822-.152-13.682.115-20.506.173l-19.8.167c-1.17.01-8.033.972-8.871.075,0-.005-8.635-9.251,15.342-17.011-.444.144,8.06,5.325,8.941,5.551,4.884,1.25,10.189.685,15.063-.272C1442.067,1043.084,1451.419,1037.933,1455.339,1039.774Z"/><path class="cls-11" d="M1584.883,1044.737c4.05,1.271,14.449,4.33,18.421,1.834,5.185-3.259-.846-9.309-3.616-11.868a59.285,59.285,0,0,0-9.584-6.9c-1.686-1.025-3.392-2.016-5.081-3.035-1.617-.974-3.219-1.946-4.87-2.871a74.715,74.715,0,0,1,13.042,4.052c3.938,1.631,8.242,3.112,11.774,5.541,6.549,4.5,10.889,12.905,11.2,20.811a3.77,3.77,0,0,1-.393,2.2c-1.381,2.161-12.576.956-15.039.889-11.471-.312-20.911-9.754-30.466-15.165-3.167-1.793-7.816-4.184-7.831-8.381,0-.273.134-.643.4-.584a.479.479,0,0,1,.222.153c2.972,3.034,6.72,5.291,10.294,7.587A48.392,48.392,0,0,0,1584.883,1044.737Z"/><polygon class="cls-6" points="1242.772 471.824 1314.413 426.666 1243.561 314.38 1171.176 363.485 1242.772 471.824"/><polygon class="cls-6" points="1141.191 594.305 1222.697 493.655 1086.79 367.405 993.098 477.695 1141.191 594.305"/><polygon class="cls-13" points="1020.522 1024.273 1049.586 806.674 735.42 762.776 697.126 1005.428 1020.522 1024.273"/><path class="cls-5" d="M1402.112,533.839c1.007,21.045-2.542,42.957-11,62.356-1.85,4.229-5.916,7.968-7.954,1.36-6.742-21.856-.99-42.46,2.217-64.87,1.687-11.791,4.475-23.318,6.677-35.006,1.552-8.239-3.953-20.7,2.014-27.237,9.027-9.884,24.742-13.263,36.789-17.813"/><path class="cls-9" d="M1430.4,378.173c2.967,26.679-8.208,44.7-19.62,68.449-.888,1.848,1.9,9.745,2,11.833.193,3.92,4.2,6.5,7.746,6.2s6.653-2.616,9.573-4.856l16.628-12.756c8.933-6.853,17.993-13.834,24.856-23.151s11.358-21.452,9.629-33.308c-15.9-1.345-31,8.732-46.943,8.8-2.086.009-4.858-.957-4.682-3.251"/><path class="cls-10" d="M1477.463,296.64c-4.168-.734-22.474-2.525-32.924,24.283s-26.167,61.329-23.056,76.2c13.081,15.2,55.694,6.9,55.694,6.9s26.3-35.477,23.269-58.929S1477.463,296.64,1477.463,296.64Z"/><path class="cls-14" d="M1470,324.365c7.8,5.06,14.114,12.218,20.4,18.975,5.338,5.742,13.261,13.5,13.622,21.871-.616-14.292-1.238-28.638-3.81-42.71-.86-4.7-1.984-9.485-4.616-13.477-5.387-8.169-15.69-11.259-25.156-13.738-3.472-.909-7.246-1.8-10.558-.416a14.1,14.1,0,0,0-4.816,3.792c-4.6,5.092-9.044,17.067-9.05,17.083.832-2.243,19.451,5.951,21.476,7.1Q1468.767,323.565,1470,324.365Z"/><polygon class="cls-14" points="1443.145 334.92 1422.331 354.426 1434.035 366.914 1443.145 334.92"/><path class="cls-10" d="M1356.378,584.188c-25.038-33.709-55.173-75.735-74.449-107.652l10.51-11.842s41.74,51.054,85.64,95.118"/><path class="cls-10" d="M1291.289,467.389c2.6-13.85-.941-29.641-11.032-39.478-10.545-12.153-.365,6.428.495,16.316-5.511,6.975-14.154,14.257-18.748,17.833,4.572,10.113,29.723,26.758,29.723,26.758"/><path class="cls-8" d="M1553.325,334.673c-8.106-21.751-28.152-37.954-50.545-44.069s-60.339,7.3-59.447,9.98,13.544,1.133,21.4,5.8,15.243,9.059,20.55,16.5c10.615,14.886,14.177,34.93,8,52.138-7.072,19.7-36.662,43.686-40.59,64.244,11.871-6.151,37.675-13.4,49.575-7.31s21.525,15.754,30.933,25.254c5.688-5.272-2.582-14.14-2.463-21.894.142-9.268,13.429-21.231,20.058-27.709,8.339-8.15,9.134-21.079,9.4-32.736C1560.58,358.614,1559,349.907,1553.325,334.673Z"/><path class="cls-8" d="M1500.965,430.968a70.484,70.484,0,0,0-50.273,7.556c-8.3,4.725-15.578,11.031-22.792,17.294-1.849,1.6-3.9,3.291-6.34,3.405-4.233.2-7.23-4.649-6.883-8.873s7.251-21.787,10.372-35.165L1399.9,455.419c.3,3.61,2.452,6.768,4.587,9.693q5,6.845,10.39,13.392c1.779,2.161,3.966,4.48,6.765,4.473,2.166-.006,4.037-1.426,5.727-2.78l32.379-25.933c5.683-4.552,11.553-9.2,18.523-11.311s15.4-1.089,20.19,4.391c2.348,2.682,28.681,7.115,29.374,10.648,7.081-5.533-6.635-13.954,1.338-17.391C1521.975,435.276,1509.687,433,1500.965,430.968Z"/><path class="cls-6" d="M1484.157,442.473c21.842-2.552,35.339,24.144,40.263,46.55a375.271,375.271,0,0,1,6.985,116.187c-3.6,37.409-6.76,79.908,10.716,112.763,3.155,5.931,7.236,11.94,6.894,18.718-.474,9.378-9.056,15.8-17.065,20.045-17.477,9.26-42.1,13.1-61.574,15.328-15.553,1.778-31.673,1.293-46.243,7.255-22.446,9.186-41.813,33.351-65.354,27.938,13.935-45.629,5.067-53.476,19-99.1,13.261-43.421,4.405-91.922-4.869-136.366-5.166-24.754,14.24-44.8,30.01-64.565s35.021-36.45,54.581-52.477c8.574-7.026,16.223-11.945,27.3-12.36"/><path class="cls-8" d="M1483.083,439.991c12.355,1.66,22.419,11.093,28.872,21.759,11.343,18.747,13.829,41.492,13.969,63.4s-1.779,44.006,1.842,65.617c3.521,21.018,12.212,40.909,23.187,59.177,7.19,11.968,16.819,24.281,30.582,26.626,11.509,1.961,23.744-4.311,29.567-14.429,9.731-16.909,2.252-40.173,13.093-56.392,9.71-14.526,30.915-18.259,39.814-33.295,4.3-7.269,4.984-16.052,5.428-24.488.146-2.763.24-5.7-1.116-8.108-2.99-5.321-10.539-4.967-16.642-5.1-24.967-.534-44.947-20.388-60.129-40.217s-29.833-42.138-52.918-51.662c-7.147-2.948,5.922-30.82,14.84-41.523"/><path class="cls-15" d="M1447.7,440.085a89.514,89.514,0,0,1,30.432-19.845,20.428,20.428,0,0,1,8.088-1.813c3.123.118,6.038,1.49,9.009,2.458,5.747,1.873,11.862,2.261,17.767,3.553s11.92,3.73,15.532,8.577c4.329-2.946,2.182-10.047-1.834-13.406s-9.407-5.158-12.476-9.4-3.08-9.928-2.957-15.18l.517-22.02a7.77,7.77,0,0,0-.709-4.252c-.755-1.247-2.58-1.958-3.716-1.045-1.845,2.913-1.784,6.581-2.125,10.013s-1.457,7.242-4.529,8.807-7.829-1.486-6.408-4.628c-2.883,1.5-3.847,5.048-4.945,8.106-6.816,18.98-27.748,29.335-37.251,47.123"/><path class="cls-8" d="M1647.786,507.248c-7.979-8.024-16.787-16.258-27.91-18.382-15.411-2.943-4.158,18.3,1.1,22.706,5.4,4.521,14.912,10.368,22.192,9.453C1651.856,519.934,1654.117,513.616,1647.786,507.248Z"/><path class="cls-15" d="M1527.942,466.192c7.244,8.651,10.145,20.1,11.777,31.267,6.526,44.634-3.255,93.272,18.24,132.93,4.465,8.238,13.4,16.776,21.938,12.911,7.948-3.6,8.234-14.607,7.243-23.275s-.832-19.642,7.05-23.383c2.627-1.247,5.725-1.385,8.186-2.934,5.675-3.571,4.716-12.6.389-17.722s-10.789-7.856-16.077-11.979c-12.969-10.113-17.641-27.275-22.284-43.052q-5.162-17.541-11.5-34.706c-4.512-12.212-12.21-26.283-25.224-26.6l.574,4.178"/><path class="cls-10" d="M1524.312,520.461c-.464-17.815-2.892-36.184-11.608-51.728-3.872-6.9-10.16-12.585-13.514-19.653-10.724,21.1-20.571,42.422-33.8,61.386,6.26.843,10.747,7.268,12.1,11.166,12.555,36.219,40.318,132.13,66,191.828l15.747-1.655S1526.106,589.366,1524.312,520.461Z"/><path class="cls-6" d="M1647.716,756l17.08,26.7c-34.7,19.774-73.529,42.7-114.319,47.712-10.234-18.577-17.483-39.912-27.717-58.49-1.176-2.135-2.392-4.544-1.757-6.767,1.29-4.519,8.778-4.417,10.613-8.722"/><path class="cls-5" d="M1654.521,751.432l15.25,27.638c-36.173,17.345-75.429,38.081-116.675,40.372-8.957-19.12-19.19-40.061-28.147-59.18-1.029-2.2,1.1-5.928,1.893-8.092,1.61-4.4,9.11-3.807,11.252-7.96"/><path class="cls-6" d="M1580.018,807.506c13.234-1.745,27.364-4.7,30.608-5.562,4.811-1.284,63.875-23.216,61.018-27.639-12.706-19.656-27.01-36.982-38.219-57.487-1.991-3.643-4.65-7.766-8.775-8.329-8.165-1.115-26.344,11.035-33.857,14.286-13.878,6.006-27.855,12.165-43.171,14.639-7.3,1.18-14,4.325-21.551,4.417,6.757,22.462,17.331,44.182,28.9,64.939C1556.6,809.689,1567.936,809.1,1580.018,807.506Z"/><path class="cls-10" d="M1556.375,711.171c12.775,5.947,23.556,18.016,25.683,31.947,3.746,15.648-5.44-3.444-12.98-9.9-8.879.423-19.831,3.212-25.413,4.867-5.564-9.6-4.46-39.744-4.46-39.744"/><path class="cls-16" d="M1558.481,757.244a.731.731,0,0,0,.209.7,2.622,2.622,0,0,0,.983.625,6.1,6.1,0,0,0,1.288.342c.431.06.979.069,1.463.1l1.5.069c.5-.012,1-.08,1.5-.117,1-.106,1.988-.182,2.991-.226a21.919,21.919,0,0,0,5.9-1.11c.958-.291,1.9-.642,2.844-.959.921-.392,1.854-.749,2.759-1.166,1.777-.9,3.68-1.549,5.408-2.567.428-.258.848-.53,1.267-.8s.794-.609,1.193-.909l2.392-1.792c.818-.573,1.568-1.229,2.334-1.87.79-.616,1.481-1.339,2.218-2.018a33.336,33.336,0,0,0,3.773-4.654l-.069.729c-.438-.864-1.6-.869-2.866-.752a5.251,5.251,0,0,0-1.874.516c-.591.314-1.145.8-1.742,1.138a47.108,47.108,0,0,0-6.814,4.835,36.82,36.82,0,0,0-3.021,2.9c-.963,1.014-1.824,2.11-2.8,3.124a10.972,10.972,0,0,0-2.354,3.4,12.572,12.572,0,0,0-.525,1.943,6,6,0,0,0-.1,1.913,3.94,3.94,0,0,0,.637,1.78,4.7,4.7,0,0,0,1.439,1.325,8.017,8.017,0,0,0,3.962.853,27.366,27.366,0,0,0,8.164-1.675c2.637-.976,5.3-1.963,7.893-3.138a27.018,27.018,0,0,1,8.3-2.4,21.634,21.634,0,0,1,2.216-.059,4.561,4.561,0,0,1,2.409.695,3.124,3.124,0,0,1,1.264,2.367,6.148,6.148,0,0,1-.289,2.332,17.094,17.094,0,0,1-4.43,7.617,13.021,13.021,0,0,1-3.7,2.545,8.027,8.027,0,0,1-1.072.374,6.168,6.168,0,0,1-1.176.276,2.441,2.441,0,0,1-3.048-2.575,4.367,4.367,0,0,1,.3-1.292,5.91,5.91,0,0,1,1.364-2.057,4.979,4.979,0,0,1,1.021-.734c.34-.161.67-.334,1.019-.469.686-.293,1.389-.526,2.083-.775a15.325,15.325,0,0,1,4.308-.946,20.128,20.128,0,0,1,2.207.075l2.2.154a11.966,11.966,0,0,1,4.166,1.389l3.8,1.962c1.279.6,2.58,1.084,3.863,1.548a8.825,8.825,0,0,0,3.958.611c2.645-.276,5.279-1.7,5.9-4.055l1.542.425a6.428,6.428,0,0,1-1.128,2.164,7.28,7.28,0,0,1-1.832,1.54,9.789,9.789,0,0,1-4.41,1.129,14.9,14.9,0,0,1-4.483-.419,21.662,21.662,0,0,1-3.979-1.8,34.26,34.26,0,0,0-3.849-1.719c-1.3-.484-2.585-.778-3.847-1.222a7.529,7.529,0,0,0-3.994-.239,20.574,20.574,0,0,0-3.979.675,9.1,9.1,0,0,0-1.818.89c-.291.168-.562.371-.838.558a3.719,3.719,0,0,0-.656.552,4.7,4.7,0,0,0-1.033,1.412,3,3,0,0,0-.235.76,1.125,1.125,0,0,0,.065.559c.042.142.213.238.392.342a1.111,1.111,0,0,0,.694.025,8.906,8.906,0,0,0,1.794-.68,15.1,15.1,0,0,0,3.394-2.1,10.742,10.742,0,0,0,3.971-6.827c.2-1.317.122-2.59-.515-3a3.02,3.02,0,0,0-1.523-.409c-.658-.006-1.333-.024-2,0a20.8,20.8,0,0,0-4.031.586c-1.34.307-2.7.648-4.047,1.055-2.7.822-5.14,2.341-7.843,3.338a25.925,25.925,0,0,1-4.154,1.3,14.338,14.338,0,0,1-4.394.421,11.876,11.876,0,0,1-2.231-.36,10.37,10.37,0,0,1-2.164-.764,6.716,6.716,0,0,1-1.93-1.443,5.325,5.325,0,0,1-1.162-2.237,5.857,5.857,0,0,1,.023-2.478,7.514,7.514,0,0,1,1.013-2.107c.8-1.262,1.448-2.607,2.207-3.846a18.5,18.5,0,0,1,2.784-3.331c1.013-1.037,2.107-1.987,3.188-2.944a43.872,43.872,0,0,1,7.038-5.032c.624-.378,1.323-.561,1.992-.894a14.714,14.714,0,0,1,2.127-.858,4.332,4.332,0,0,1,2.43-.062,3.143,3.143,0,0,1,1.214.612,2.875,2.875,0,0,1,.8,1.121l.165.369-.223.25c-.691.776-1.276,1.627-1.943,2.415-.7.761-1.338,1.571-2.079,2.289a41.771,41.771,0,0,1-4.531,4.194l-1.212.959-1.284.86c-.84.6-1.729,1.116-2.607,1.653a30.206,30.206,0,0,1-5.434,2.959c-.961.38-1.947.7-2.917,1.048-1,.276-1.982.582-2.984.826-2.012.47-4.044.776-6.072,1.189l-1.535.242c-.514.058-1.035.025-1.552.041-1.036,0-2.066.03-3.1.009-.531-.009-1.006.027-1.585-.014a6.322,6.322,0,0,1-1.667-.372,4.091,4.091,0,0,1-1.578-.976,2.34,2.34,0,0,1-.633-2.1Z"/><path class="cls-6" d="M1486.939,447.183c11.477-2.77,21.421,8.417,26.476,19.086,18,37.988,12.015,90.047,24.785,130.1.771,2.418,1.616,4.98,1,7.443-.518,2.083-2,3.767-3.44,5.361-7.5,8.324-19.826,11.732-27.328,20.056-15.451-36.345-30.843-72.51-56.291-102.711"/><path class="cls-17" d="M1483.851,516.483l-15.109-10.866a59.6,59.6,0,0,0,8.208,15.887,11.949,11.949,0,0,0-9.142,2.931l7.888,8.4c-3.307-.882-3.191,4.659-3.135,8.08.116,7.083-7.924,11.7-9.592,18.585-2.6,10.728,10.435,18.1,15.629,27.839,3.378,6.334,3.332,13.861,3.408,21.039a382.742,382.742,0,0,0,24.673,131.055c-1.2-33.03-2.518-66.675-13.67-97.789-.99-2.761-2.068-5.736-1.254-8.554.911-3.153,3.947-5.228,5.368-8.187,1.524-3.172,1.009-6.9.461-10.377l-15.715-99.63"/><path class="cls-18" d="M1451.156,303.117c5.418,2.835,10.921,5.732,15.292,10.007s7.528,10.209,7.04,16.3c-.547,6.825-5.486,12.891-5.224,19.732.266,6.956,5.775,12.532,7.874,19.169,3.5,11.071-2.737,24.071,2.7,34.331,10.738-11.622,18.758-26.083,21.113-41.729s-1.348-32.462-11.479-44.617-26.934-18.916-42.39-15.526"/><path class="cls-5" d="M1243.31,333.753c-.817.036-54.6,35.029-54.6,35.029l16.5,21.4s51.483-33.913,51.663-36.641C1256.977,352.013,1244.938,333.681,1243.31,333.753Z"/><path class="cls-19" d="M1198.529,385.392a8.345,8.345,0,0,0,3.257-3.5,11.833,11.833,0,0,0,1.242-4.707,14.553,14.553,0,0,0-.552-4.869c-.1-.4-.253-.781-.386-1.169a5.321,5.321,0,0,0-.483-1.074,1.721,1.721,0,0,0-1.731-.838c-1.422.147-2.259,1.926-2.092,3.468a6.131,6.131,0,0,0,2.392,4.036,6.582,6.582,0,0,0,4.515,1.486,8.029,8.029,0,0,0,4.473-1.927,11.012,11.012,0,0,0,3.822-8.842,7.516,7.516,0,0,0-.413-2.409,3.472,3.472,0,0,0-1.335-1.846,1.179,1.179,0,0,0-.955-.136,1.3,1.3,0,0,0-.7.686,3.787,3.787,0,0,0-.274,2.272,9.495,9.495,0,0,0,1.964,4.4,8.167,8.167,0,0,0,3.877,2.827,4.733,4.733,0,0,0,4.469-.917,5.46,5.46,0,0,0,1.894-4.209l.8.008a6.257,6.257,0,0,1-2.189,4.811,5.592,5.592,0,0,1-5.195,1.073,8.649,8.649,0,0,1-4.28-3.093,10.114,10.114,0,0,1-2.1-4.808,4.516,4.516,0,0,1,.377-2.716,2.021,2.021,0,0,1,1.134-1.038,1.905,1.905,0,0,1,1.543.208,4.142,4.142,0,0,1,1.635,2.238,8.262,8.262,0,0,1,.436,2.625,11.762,11.762,0,0,1-4.1,9.349,8.741,8.741,0,0,1-4.816,2.2,6.922,6.922,0,0,1-5.083-1.6,6.819,6.819,0,0,1-2.6-4.609,5.508,5.508,0,0,1,.46-2.685,2.935,2.935,0,0,1,2.251-1.622,2.512,2.512,0,0,1,2.464,1.2,11.97,11.97,0,0,1,.956,2.442,14.592,14.592,0,0,1,.664,5.137,12.654,12.654,0,0,1-1.354,5.032,9.152,9.152,0,0,1-3.6,3.82Z"/><path class="cls-5" d="M1088.827,389.332c-1.217.418-73,82.705-73,82.705l34.426,24.947,70.9-84.948S1091.251,388.5,1088.827,389.332Z"/><path class="cls-5" d="M1127.622,422.776c-1.217.418-73,82.705-73,82.705l57.836,47.02,70.9-84.948S1130.046,421.943,1127.622,422.776Z"/><path class="cls-19" d="M1037.32,491.871a13.368,13.368,0,0,0,3.623-6.746,18.872,18.872,0,0,0,.008-7.767,23,23,0,0,0-2.838-7.27c-.312-.576-.712-1.1-1.078-1.638a8.592,8.592,0,0,0-1.21-1.474,2.971,2.971,0,0,0-3.244-.612,3.651,3.651,0,0,0-2.144,2.695,6.55,6.55,0,0,0,.271,3.728,9.838,9.838,0,0,0,5.382,5.273,10.435,10.435,0,0,0,7.593.4,12.823,12.823,0,0,0,6.066-4.815,17.048,17.048,0,0,0,2.882-7.29,17.882,17.882,0,0,0-.6-7.809,12.063,12.063,0,0,0-1.613-3.544,5.627,5.627,0,0,0-2.863-2.348,2.04,2.04,0,0,0-1.655.2,2.221,2.221,0,0,0-.877,1.441,6.149,6.149,0,0,0,.5,3.689,14.829,14.829,0,0,0,4.832,6,13.067,13.067,0,0,0,7.166,2.744,7.7,7.7,0,0,0,6.594-3.276,8.807,8.807,0,0,0,1.232-7.341l.775-.2a9.6,9.6,0,0,1-1.363,8,8.557,8.557,0,0,1-7.256,3.613,13.557,13.557,0,0,1-7.625-2.893,15.536,15.536,0,0,1-5.07-6.358,6.888,6.888,0,0,1-.513-4.147,2.956,2.956,0,0,1,1.208-1.9,2.773,2.773,0,0,1,2.248-.279,6.3,6.3,0,0,1,3.26,2.652,12.756,12.756,0,0,1,1.691,3.751,18.554,18.554,0,0,1,.583,8.106,18.084,18.084,0,0,1-3.011,7.558,13.538,13.538,0,0,1-6.329,5.162,10.544,10.544,0,0,1-4.132.627,11.458,11.458,0,0,1-4.04-.992,10.523,10.523,0,0,1-5.731-5.773,8.126,8.126,0,0,1-.372-4.148,4.418,4.418,0,0,1,2.628-3.244,3.762,3.762,0,0,1,4.045.771,9.181,9.181,0,0,1,1.306,1.59c.379.56.781,1.1,1.115,1.691a23.04,23.04,0,0,1,3.015,7.5,19.7,19.7,0,0,1-.032,8.109,14.175,14.175,0,0,1-3.87,7.144Z"/><path class="cls-19" d="M1224.725,393.74c3.088.238,5.511,2.952,8.577,3.392a30.415,30.415,0,0,0,4.349-.109,4.416,4.416,0,0,1,3.834,1.645c.7,1.1.548,2.578,1.212,3.7.7,1.181,2.224,1.873,2.46,3.224.211,1.21-.74,2.293-1.679,3.084a30.763,30.763,0,0,1-5.87,3.792,19.5,19.5,0,0,1-5.238,1.951,12.467,12.467,0,0,1-10.019-2.557"/><path class="cls-6" d="M1229.177,407.5l1.025-.081a4.6,4.6,0,0,0,2.572-.733,2.91,2.91,0,0,0,.99-2.169,6,6,0,0,0-.5-2.39,13.166,13.166,0,0,0-5.391-6.4c-1.187,2.145-2.461,4.405-2.607,6.853a5.172,5.172,0,0,0,.144,1.835,5.747,5.747,0,0,0,.916,1.632,6.126,6.126,0,0,0,1.321,1.442,2.268,2.268,0,0,0,1.852.432"/><path class="cls-2" d="M1240.8,403.3c0,.008-.011.017-.031.026.084-.018.134-.035.136-.051C1240.916,403.218,1240.792,403.242,1240.8,403.3Z"/><path class="cls-2" d="M1233.993,410.777c-1.667-1.17-3.566-2.026-5.051-3.419a3.769,3.769,0,0,1-.988-1.333c-.687-1.762.831-3.534,1.425-5.329.94-2.842-2.229-6.755-3.71-7.07a13.977,13.977,0,0,0-4.436.318,8.86,8.86,0,0,0-4.164,1.794c-1.419,1.162-2.6,2.987-2.093,4.749a13.2,13.2,0,0,0,1.22,2.283,5.6,5.6,0,0,1,.528,3.578c-.344,1.836-1.613,3.58-1.2,5.4.466,2.07,2.775,3.036,4.367,4.44a7.84,7.84,0,0,1,2.44,4.123,10.022,10.022,0,0,0,.569,2.239,3.86,3.86,0,0,0,2.919,1.972,7.525,7.525,0,0,0,3.595-.482,14.642,14.642,0,0,0,5.7-3.678,6.668,6.668,0,0,0,2.171-4.694C1237.185,413.636,1235.659,411.947,1233.993,410.777Z"/><polyline class="cls-6" points="1228.53 396.242 1233.742 400.15 1232.113 401.562"/><path class="cls-19" d="M1237.311,388.3c2.1-1.519,4.153-3.091,6.331-4.492l.809-.537a8.92,8.92,0,0,0,.83-.506l1.6-1.1c1.066-.734,2.182-1.4,3.249-2.127l6.257-4.6c1.019-.8,2.123-1.479,3.2-2.2s2.093-1.522,3.142-2.28l.459.655-3.143,2.278c-1.049.758-2.185,1.391-3.217,2.173l-6.333,4.49c-1.041.769-2.047,1.588-3.145,2.275l-1.656,1.018a6.207,6.207,0,0,0-.788.567l-.818.523c-.545.349-1.093.7-1.624,1.064-.52.385-1.006.82-1.536,1.189l-3.156,2.259Z"/><path class="cls-19" d="M1144.726,571.334l-8.58-5.549q-2.139-1.4-4.251-2.833c-1.416-.946-2.824-1.9-4.212-2.893l-.327-.233.253-.292c1.5-1.725,2.966-3.472,4.482-5.179s3.035-3.413,4.52-5.147l8.778-10.517.2-.235.266.166,3.894,2.426,3.833,2.522c2.549,1.691,5.174,3.262,7.758,4.9l-.431.674-7.762-4.892c-1.289-.823-2.545-1.7-3.826-2.532l-3.869-2.465.511-.076-8.872,10.437-4.379,5.267c-1.469,1.747-3.03,3.417-4.559,5.113l-.075-.529c1.437.915,2.843,1.875,4.241,2.848l2.111,1.439,2.166,1.355c1.458.883,2.862,1.847,4.3,2.767l4.28,2.79Z"/><path class="cls-19" d="M1168.667,541.536l-8.58-5.549q-2.139-1.4-4.252-2.833c-1.416-.946-2.824-1.9-4.212-2.893l-.327-.233.253-.292c1.5-1.725,2.966-3.471,4.482-5.179s3.035-3.413,4.52-5.147l8.778-10.517.2-.234.266.166,3.894,2.426,3.833,2.522c2.549,1.691,5.174,3.262,7.758,4.9l-.431.674-7.762-4.892c-1.289-.823-2.545-1.7-3.826-2.532l-3.869-2.466.511-.076-8.872,10.437-4.379,5.267c-1.469,1.748-3.03,3.417-4.56,5.113l-.075-.529c1.437.915,2.843,1.875,4.242,2.848l2.111,1.439,2.167,1.355c1.457.883,2.862,1.847,4.3,2.767l4.28,2.79Z"/><path class="cls-19" d="M1192.585,515.226l-8.58-5.549q-2.139-1.4-4.251-2.833c-1.416-.946-2.824-1.9-4.212-2.893l-.327-.233.253-.292c1.5-1.725,2.966-3.472,4.482-5.179s3.035-3.413,4.52-5.147l8.778-10.517.2-.235.266.166,3.894,2.426,3.833,2.522c2.549,1.691,5.174,3.262,7.758,4.9l-.431.674L1201,488.144c-1.289-.823-2.545-1.7-3.826-2.532l-3.869-2.466.511-.076-8.872,10.437-4.379,5.267c-1.469,1.748-3.03,3.417-4.559,5.113l-.075-.529c1.437.915,2.843,1.875,4.242,2.848l2.111,1.439L1184.45,509c1.458.883,2.862,1.847,4.3,2.767l4.28,2.79Z"/><path class="cls-19" d="M1242.885,393.649c2.1-1.519,4.153-3.091,6.331-4.492l.809-.537a8.92,8.92,0,0,0,.83-.506l1.6-1.1c1.066-.733,2.182-1.4,3.249-2.127l6.257-4.6c1.019-.8,2.123-1.479,3.2-2.2s2.093-1.522,3.142-2.28l.459.655-3.143,2.278c-1.049.758-2.185,1.391-3.217,2.173l-6.333,4.49c-1.041.769-2.047,1.588-3.145,2.275l-1.656,1.018a6.207,6.207,0,0,0-.788.567l-.818.523c-.545.349-1.093.7-1.624,1.064-.52.386-1.006.82-1.536,1.19l-3.156,2.259Z"/><path class="cls-19" d="M1248.459,400.338c1.222-.906,2.407-1.865,3.712-2.653l.481-.307a3.121,3.121,0,0,0,.5-.276l.944-.64c.623-.436,1.319-.768,1.941-1.2,1.222-.906,2.43-1.832,3.635-2.762a15.962,15.962,0,0,1,1.893-1.273c.625-.433,1.218-.911,1.829-1.365l.459.655-1.833,1.358c-.612.451-1.312.778-1.907,1.254l-3.713,2.65a21.173,21.173,0,0,1-1.829,1.365l-1.008.549a1.871,1.871,0,0,0-.46.338l-.491.293c-.328.195-.654.391-.971.6-.305.227-.564.52-.879.733-.615.447-1.217.913-1.847,1.338Z"/><path class="cls-19" d="M1232.176,432c4.268-3.172,8.5-6.4,12.852-9.452l1.624-1.157c.553-.37,1.115-.728,1.646-1.127l3.23-2.34,6.512-4.609,12.776-9.557c2.1-1.627,4.3-3.133,6.461-4.678s4.266-3.175,6.4-4.76l.472.646-6.4,4.758c-2.135,1.584-4.361,3.046-6.479,4.655l-12.854,9.45c-2.128,1.595-4.219,3.24-6.405,4.755l-3.289,2.26c-.559.362-1.074.784-1.6,1.187l-1.634,1.144c-1.089.763-2.18,1.523-3.256,2.3-1.063.8-2.091,1.646-3.165,2.429l-6.417,4.739Z"/><path class="cls-19" d="M1237.75,437.354c4.268-3.172,8.5-6.4,12.852-9.453l1.624-1.157c.553-.37,1.115-.728,1.646-1.127l3.23-2.34,6.512-4.608,12.776-9.557c2.1-1.626,4.3-3.133,6.461-4.678s4.266-3.175,6.4-4.76l.472.646-6.4,4.758c-2.135,1.584-4.361,3.046-6.479,4.655l-12.854,9.45c-2.128,1.595-4.219,3.24-6.405,4.755l-3.289,2.26c-.559.362-1.074.783-1.6,1.187l-1.634,1.144c-1.089.763-2.18,1.523-3.256,2.3-1.063.8-2.091,1.646-3.165,2.429L1238.223,438Z"/><path class="cls-19" d="M1243.327,444.041c2.373-1.76,4.709-3.573,7.167-5.216l.914-.628c.316-.194.641-.375.936-.6l1.809-1.281c1.205-.854,2.462-1.638,3.669-2.49l7.091-5.322c1.157-.921,2.4-1.721,3.618-2.56s2.371-1.763,3.559-2.642l.468.649-3.561,2.64c-1.188.878-2.465,1.634-3.635,2.536l-7.169,5.214c-1.18.889-2.324,1.829-3.563,2.637l-1.867,1.2a8.053,8.053,0,0,0-.892.657l-.923.615c-.615.409-1.232.817-1.834,1.245-.589.446-1.144.94-1.744,1.37l-3.574,2.621Z"/><line class="cls-20" x1="1072.997" y1="450.831" x2="1099.752" y2="420.731"/><line class="cls-20" x1="1067.646" y1="447.487" x2="1085.618" y2="427.268"/><path class="cls-19" d="M1129.723,435.086l10.069,8.206c3.328,2.77,6.8,5.357,10.153,8.1l20.129,16.423.323.264-.264.32-11.555,14.019c-3.856,4.67-7.735,9.32-11.546,14.026l-11.538,14.032-11.489,14.073-.142.174-.175-.141c-3.367-2.723-6.691-5.5-10.095-8.174s-6.765-5.405-10.133-8.127l-20.216-16.316-.3-.246.248-.308c3.8-4.718,7.694-9.354,11.532-14.037l11.472-14.087c3.868-4.659,7.729-9.325,11.533-14.037l11.444-14.109.61.5-11.474,14.085q-5.754,7.029-11.425,14.125L1083.8,491.908l-.056-.551c3.342,2.753,6.686,5.5,10.069,8.206l10.117,8.146c3.375,2.713,6.756,5.417,10.064,8.212s6.74,5.436,10.106,8.16l-.591.061,5.687-7.083,5.794-7,11.488-14.073c3.891-4.641,7.618-9.415,11.473-14.085l5.818-6.976,5.771-7.015.052.5c-3.332-2.766-6.626-5.577-10.025-8.26l-10.133-8.127c-3.395-2.688-6.668-5.526-10.074-8.2l-10.13-8.131Z"/><path class="cls-19" d="M1170.2,468.1l-14.54,17.984c-4.812,5.993-9.526,12.021-14.4,18.021l-29.177,35.93-.242.3-.3-.242-16.711-13.7-16.752-13.644-.191-.156.155-.191,14.515-17.906c4.824-5.98,9.735-11.89,14.481-17.933l28.9-35.916.257-.319.317.259c2.808,2.3,5.574,4.625,8.4,6.9s5.654,4.556,8.437,6.863l4.161,3.458,4.225,3.427Zm-.783.082c-5.624-4.481-11.153-8.993-16.818-13.422-2.806-2.223-5.53-4.5-8.3-6.751l-8.3-6.779.587-.062c-4.875,5.939-9.741,11.885-14.534,17.89-4.832,5.974-9.587,12.01-14.481,17.933l-3.676,4.438-3.6,4.5-7.187,9.01c-2.377,3.019-4.827,5.978-7.263,8.948s-4.833,5.972-7.253,8.956l-.067-.639,8.385,6.811c2.8,2.269,5.552,4.587,8.382,6.816,2.809,2.253,5.642,4.477,8.4,6.789l8.327,6.883-.524.055c4.8-5.97,9.712-11.855,14.583-17.793l14.41-17.891c4.762-5.965,9.679-11.893,14.508-17.848Z"/><path class="cls-19" d="M1086.319,519.114c4.831-6.03,9.612-12.1,14.555-18.039l1.843-2.236c.629-.733,1.271-1.457,1.872-2.212l3.661-4.491,7.391-8.927,14.454-18.12c2.379-3.044,4.877-5.992,7.324-8.982s4.828-6.032,7.245-9.045l.622.5-7.247,9.044c-2.414,3.016-4.951,5.932-7.347,8.963l-14.558,18.037c-2.407,3.022-4.765,6.083-7.25,9.042l-3.738,4.429c-.637.727-1.217,1.5-1.814,2.259l-1.855,2.226-3.7,4.464c-1.2,1.512-2.359,3.061-3.576,4.561l-7.265,9.03Z"/><path class="cls-19" d="M1093.908,525.274c4.831-6.03,9.612-12.1,14.555-18.039l1.843-2.236c.629-.733,1.271-1.457,1.872-2.212l3.661-4.492,7.391-8.927,14.454-18.12c2.379-3.044,4.877-5.992,7.324-8.982s4.828-6.032,7.245-9.045l.622.5-7.247,9.044c-2.414,3.016-4.951,5.932-7.347,8.963l-14.558,18.037c-2.407,3.022-4.765,6.083-7.25,9.042l-3.738,4.429c-.637.727-1.217,1.5-1.814,2.259l-1.855,2.225-3.7,4.464c-1.2,1.512-2.359,3.061-3.576,4.561l-7.265,9.029Z"/><path class="cls-19" d="M1101.5,531.434c4.831-6.03,9.612-12.1,14.555-18.039l1.843-2.236c.629-.733,1.271-1.457,1.872-2.212l3.661-4.491,7.391-8.927,14.454-18.12c2.379-3.044,4.877-5.992,7.324-8.982s4.828-6.032,7.245-9.045l.622.5-7.247,9.044c-2.414,3.016-4.951,5.932-7.347,8.963l-14.558,18.037c-2.407,3.022-4.765,6.083-7.25,9.042l-3.738,4.429c-.637.727-1.217,1.5-1.814,2.259l-1.855,2.226-3.7,4.464c-1.2,1.512-2.359,3.061-3.576,4.561l-7.265,9.03Z"/><path class="cls-19" d="M1123.223,456.968c2.821,2.239,5.682,4.427,8.413,6.778l1.032.871c.332.305.655.622,1.009.9l2.085,1.717c1.39,1.144,2.726,2.356,4.115,3.5l8.494,6.677c1.442,1.08,2.791,2.276,4.169,3.435s2.823,2.236,4.232,3.356l-.5.621-4.231-3.358c-1.409-1.121-2.722-2.36-4.15-3.458l-8.411-6.78c-1.417-1.111-2.874-2.173-4.229-3.361l-2.022-1.794a12.007,12.007,0,0,0-1.056-.842l-1.022-.883c-.681-.589-1.361-1.18-2.057-1.75-.71-.554-1.457-1.062-2.155-1.631l-4.216-3.376Z"/><path class="cls-19" d="M1106.5,477.7c2.821,2.238,5.682,4.427,8.413,6.777l1.032.871c.332.305.654.622,1.009.9l2.085,1.717c1.39,1.144,2.726,2.356,4.115,3.5l8.494,6.677c1.442,1.08,2.791,2.276,4.169,3.435s2.823,2.236,4.232,3.356l-.5.621-4.231-3.358c-1.409-1.121-2.722-2.36-4.15-3.458l-8.411-6.78c-1.417-1.111-2.874-2.173-4.229-3.361l-2.022-1.794a12,12,0,0,0-1.056-.842l-1.022-.883c-.681-.589-1.361-1.18-2.057-1.751-.71-.554-1.457-1.062-2.155-1.631L1106,478.324Z"/><polygon class="cls-6" points="1057.525 775.319 1125.9 613.362 915.661 518.652 839.448 680.139 1057.525 775.319"/><path class="cls-5" d="M925.322,534.249c-1.083.7-70.087,141.4-70.087,141.4L894.6,691.7l67.517-143.077S927.478,532.865,925.322,534.249Z"/><path class="cls-5" d="M1071,605.775c1.085.56-61.293,138.5-61.293,138.5l37.921,16.216,62.535-138.368S1068.909,604.693,1071,605.775Z"/><path class="cls-19" d="M880.822,689.808a13.368,13.368,0,0,0,1.916-7.414,18.871,18.871,0,0,0-1.837-7.546,23,23,0,0,0-4.484-6.387c-.44-.485-.952-.9-1.436-1.335a8.568,8.568,0,0,0-1.525-1.144,2.97,2.97,0,0,0-3.3.176,3.651,3.651,0,0,0-1.442,3.127,6.55,6.55,0,0,0,1.149,3.557,9.838,9.838,0,0,0,6.48,3.844,10.436,10.436,0,0,0,7.471-1.413,12.82,12.82,0,0,0,4.748-6.118,17.049,17.049,0,0,0,1.068-7.766,17.882,17.882,0,0,0-2.437-7.443,12.061,12.061,0,0,0-2.409-3.06,5.625,5.625,0,0,0-3.339-1.6,2.04,2.04,0,0,0-1.561.583,2.222,2.222,0,0,0-.51,1.608,6.15,6.15,0,0,0,1.357,3.466,14.827,14.827,0,0,0,6.119,4.679,13.067,13.067,0,0,0,7.613.963,7.7,7.7,0,0,0,5.627-4.749,8.807,8.807,0,0,0-.547-7.423l.706-.376a9.6,9.6,0,0,1,.576,8.093,8.556,8.556,0,0,1-6.19,5.233,13.557,13.557,0,0,1-8.095-1,15.533,15.533,0,0,1-6.435-4.972,6.886,6.886,0,0,1-1.483-3.906,2.956,2.956,0,0,1,.723-2.129,2.771,2.771,0,0,1,2.117-.8,6.3,6.3,0,0,1,3.8,1.8,12.761,12.761,0,0,1,2.533,3.242,18.554,18.554,0,0,1,2.491,7.736,18.083,18.083,0,0,1-1.13,8.056,13.537,13.537,0,0,1-4.922,6.518,10.549,10.549,0,0,1-3.865,1.59,11.462,11.462,0,0,1-4.159,0,10.523,10.523,0,0,1-6.939-4.247,8.127,8.127,0,0,1-1.347-3.941,4.418,4.418,0,0,1,1.782-3.776,3.761,3.761,0,0,1,4.112-.212,9.185,9.185,0,0,1,1.646,1.234c.5.454,1.021.886,1.485,1.378a23.045,23.045,0,0,1,4.71,6.569,19.706,19.706,0,0,1,1.9,7.885,14.175,14.175,0,0,1-2.062,7.859Z"/><line class="cls-20" x1="905.729" y1="641.468" x2="924.568" y2="605.875"/><line class="cls-20" x1="915.9" y1="695.687" x2="970.513" y2="575.028"/><line class="cls-20" x1="926.505" y1="700.372" x2="979.221" y2="581.8"/><line class="cls-20" x1="939.557" y1="706.138" x2="961.013" y2="660.531"/><line class="cls-20" x1="952.61" y1="711.905" x2="974.065" y2="666.297"/><line class="cls-20" x1="965.662" y1="717.671" x2="981.712" y2="684.3"/><line class="cls-20" x1="899.736" y1="639.49" x2="912.391" y2="615.582"/><path class="cls-21" d="M1031.647,669.794l22.735-51.46a5.636,5.636,0,0,0-3.156-7.306l-25.49-11.261a5.636,5.636,0,0,0-7.527,2.586l-23.52,53.238a5.636,5.636,0,0,0,3.156,7.306l23.569,10.413c3,1.326,4.9,8.547,4.9,8.547Z"/><path class="cls-5" d="M1015.188,596.558,998.8,633.65a4.062,4.062,0,0,1-5.425,1.864L975,627.4a4.062,4.062,0,0,1-2.275-5.266l16.953-38.374a4.062,4.062,0,0,1,5.425-1.864l16.988,7.505c2.163.956,6.934-1.535,6.934-1.535Z"/><path class="cls-6" d="M1010.339,656.734a11.769,11.769,0,0,0,.308-4.555,16.344,16.344,0,0,0-1.315-4.43c-.633-1.3-1.6-2.89-2.839-2.019-.292.158-.451.326-.456.537a1.7,1.7,0,0,0,.314.865c.19.312.425.62.664.944s.471.717.667.994a8.691,8.691,0,0,0,1.576,1.637,16.658,16.658,0,0,0,1.865,1.378,2.2,2.2,0,0,0,2.035.206,4.086,4.086,0,0,0,1.629-1.479,10.167,10.167,0,0,0,1.491-4.37,13.407,13.407,0,0,0-.158-4.663l-.314-1.454.7,1.311c.2.378.835.282,1.166-.027a1.655,1.655,0,0,0,.4-1.349c-.02-.539-.165-1.118-.139-1.758a2.1,2.1,0,0,1,.869-1.784,6.622,6.622,0,0,1,.83-.385,3.073,3.073,0,0,0,.648-.417,3.932,3.932,0,0,0,.955-1.246,12.988,12.988,0,0,0,1.011-3.188l.008-.042.016-.036,1.311-3.034c.421-1.018.893-2.014,1.366-3.01l1.351-3.029c.465-1.007.96-2.006,1.527-2.972l.672.41a32.467,32.467,0,0,0-1.521,2.887c-.459.991-.914,1.989-1.32,3.014-.772,2.067-1.771,4.035-2.661,6.051l.03-.1a11.459,11.459,0,0,1-1.087,3.417,4.892,4.892,0,0,1-1.2,1.439,5.028,5.028,0,0,1-.813.5,6.215,6.215,0,0,0-.741.344,1.4,1.4,0,0,0-.518,1.207c-.022.51.116,1.064.148,1.7a3.241,3.241,0,0,1-.085.995,1.574,1.574,0,0,1-.611.944,1.7,1.7,0,0,1-1.064.331,1.2,1.2,0,0,1-1.038-.606l.649-.237a13.463,13.463,0,0,1,.336,4.881,17.571,17.571,0,0,1-.588,2.392,8.32,8.32,0,0,1-1.029,2.279,4.477,4.477,0,0,1-1.955,1.716,3.2,3.2,0,0,1-1.369.251,3.275,3.275,0,0,1-1.319-.375,13.051,13.051,0,0,1-1.968-1.49,11.256,11.256,0,0,1-1.718-1.787c-.243-.375-.394-.694-.629-1.01s-.463-.652-.675-1.013a2.337,2.337,0,0,1-.392-1.267,1.386,1.386,0,0,1,.807-1.115,2.477,2.477,0,0,1,1.281-.336,2.2,2.2,0,0,1,1.2.585,6.47,6.47,0,0,1,1.419,2.043,15.262,15.262,0,0,1,1.243,4.687,11.081,11.081,0,0,1-.226,4.885Z"/><path class="cls-19" d="M986.517,625.494c1.212-2.843,2.366-5.712,3.71-8.5l.491-1.05c.181-.342.377-.678.526-1.035l.954-2.113c.635-1.409,1.35-2.782,1.988-4.19l3.591-8.55c.56-1.442,1.257-2.824,1.91-4.225.638-1.407,1.209-2.844,1.817-4.265l.732.323-1.819,4.264c-.608,1.421-1.355,2.78-1.937,4.213l-3.713,8.5c-.6,1.426-1.135,2.877-1.823,4.263L991.9,615.2a8.84,8.84,0,0,0-.458,1.065l-.506,1.043c-.338.7-.678,1.39-.994,2.1-.3.714-.539,1.451-.853,2.157l-1.84,4.255Z"/><path class="cls-19" d="M981.369,623.22c1.212-2.843,2.366-5.712,3.71-8.5l.491-1.05c.181-.342.377-.678.526-1.035l.954-2.113c.635-1.409,1.35-2.782,1.988-4.19l3.591-8.55c.56-1.442,1.257-2.824,1.91-4.225.638-1.407,1.209-2.844,1.817-4.265l.732.323-1.819,4.264c-.608,1.421-1.355,2.78-1.937,4.213l-3.713,8.5c-.6,1.426-1.135,2.877-1.823,4.263l-1.045,2.073a8.84,8.84,0,0,0-.458,1.065l-.506,1.043c-.338.7-.678,1.39-.994,2.095-.3.714-.539,1.451-.853,2.157l-1.84,4.255Z"/><path class="cls-19" d="M991.633,627.754c.686-1.653,1.314-3.332,2.133-4.926l.294-.6a4.327,4.327,0,0,0,.329-.588l.559-1.22c.362-.818.841-1.585,1.2-2.4l2.011-4.98a22.02,22.02,0,0,1,1.125-2.437c.366-.816.681-1.656,1.023-2.482l.732.323-1.031,2.479c-.345.826-.829,1.59-1.147,2.427l-2.135,4.925c-.328.833-.62,1.682-1.023,2.482l-.661,1.175a2.578,2.578,0,0,0-.26.619l-.31.6c-.207.4-.412.8-.6,1.2-.171.413-.269.859-.455,1.266-.35.823-.678,1.656-1.053,2.469Z"/><path class="cls-6" d="M1018.376,660.639c.713-1.676,1.567-3.29,2.134-5.03.7-1.681,1.505-3.317,2.253-4.978s1.539-3.3,2.34-4.939l1.127-2.488c.391-.823.782-1.646,1.121-2.491l1.125-2.49c.411-.814.624-1.716,1.015-2.538l2.118-5.037c.822-1.628,1.5-3.321,2.251-4.979l.6-1.229.533-1.258,1.046-2.524.72.318c-.7,1.682-1.488,3.324-2.114,5.039-.715,1.675-1.549,3.3-2.279,4.966-.856,1.613-1.485,3.326-2.194,5-.272.875-.9,1.594-1.156,2.476-.341.845-.625,1.715-1,2.545-1.543,3.3-2.931,6.669-4.6,9.913-.844,1.618-1.429,3.35-2.147,5.024-.835,1.622-1.439,3.346-2.172,5.013Z"/><path class="cls-6" d="M1023.464,662.887a26.4,26.4,0,0,0,1.362-3.284c.445-1.1.991-2.153,1.481-3.231s1.023-2.138,1.57-3.192c.265-.531.473-1.086.74-1.616s.525-1.063.736-1.618c.232-.545.5-1.073.739-1.616.282-.523.366-1.134.629-1.665l1.347-3.291c.565-1.046.983-2.156,1.479-3.232l.406-.792.34-.821.66-1.651.72.318c-.442,1.1-.974,2.16-1.342,3.293-.458,1.093-1.034,2.134-1.507,3.22a26.348,26.348,0,0,0-1.423,3.257c-.148.583-.632,1.016-.78,1.6-.2.56-.365,1.134-.6,1.679-1.043,2.13-1.906,4.339-3.066,6.417a30.448,30.448,0,0,0-1.375,3.278c-.578,1.04-.925,2.182-1.4,3.267Z"/><path class="cls-6" d="M1023.781,734.49a177.625,177.625,0,0,1,24.854,9.521c5.847-10.608,19.794-41.313,24.352-52.536a195.559,195.559,0,0,0-26.092-11.029c-5.186,10.807-18.392,41.7-22.128,53.093"/><path class="cls-6" d="M1052.042,670.522a204.428,204.428,0,0,1,24.783,9.683c5.2-9.149,17.347-35.775,21.258-45.534a225.262,225.262,0,0,0-26.067-11.084c-4.546,9.358-15.957,36.19-19.055,46.138"/></svg>