<?xml version="1.0" encoding="utf-8"?>
<!-- Generator: Adobe Illustrator 19.2.1, SVG Export Plug-In . SVG Version: 6.00 Build 0)  -->
<svg version="1.1" id="Layer_1" xmlns="http://www.w3.org/2000/svg" xmlns:xlink="http://www.w3.org/1999/xlink" x="0px" y="0px"
	 viewBox="0 0 1920 1080" style="enable-background:new 0 0 1920 1080;" xml:space="preserve">
<style type="text/css">
	.st0{fill:#FFFFFF;}
	.st1{fill:none;stroke:#E8EAF2;stroke-width:3;stroke-miterlimit:10;}
	.st2{opacity:0.5;fill:#E8EAF2;stroke:#E8EAF2;stroke-width:3;stroke-miterlimit:10;}
	.st3{fill:#E0E3ED;}
	.st4{fill:#E0E3ED;stroke:#E0E3ED;stroke-width:2;stroke-miterlimit:10;}
	.st5{fill:#F4F6F8;}
	.st6{fill:#E8EAF2;}
	.st7{fill:#E8EAF2;stroke:#E8EAF2;stroke-width:3;stroke-miterlimit:10;}
	.st8{fill:#7581CE;}
	.st9{fill:#2F3155;}
	.st10{fill:#3E4166;}
	.st11{fill:#5053AB;}
	.st12{fill:#0C1238;}
	.st13{fill:none;stroke:#0C1238;stroke-miterlimit:10;}
	.st14{fill:url(#SVGID_1_);}
	.st15{fill:#DDA000;stroke:#DDA000;stroke-width:3;stroke-miterlimit:10;}
	.st16{fill:#FFC14D;stroke:#FFC14D;stroke-width:3;stroke-miterlimit:10;}
	.st17{fill:#FFFFFF;stroke:#FFFFFF;stroke-width:3;stroke-miterlimit:10;}
	.st18{fill:none;stroke:#F4F6F8;stroke-miterlimit:10;}
	.st19{opacity:0.7;fill:#E8EAF2;}
	.st20{fill:none;stroke:#F4F6F8;stroke-width:5;stroke-miterlimit:10;}
	.st21{opacity:0.3;fill:#F4F6F8;stroke:#F4F6F8;stroke-width:5;stroke-miterlimit:10;}
	.st22{opacity:0.3;fill:#0C1238;}
	.st23{fill:#7581CE;stroke:#7581CE;stroke-linecap:round;stroke-miterlimit:10;}
	.st24{opacity:0.3;fill:#7581CE;}
	.st25{fill:#3E4166;stroke:#3E4166;stroke-linecap:round;stroke-linejoin:round;stroke-miterlimit:10;}
	.st26{fill:#0C1238;stroke:#0C1238;stroke-linecap:round;stroke-miterlimit:10;}
	.st27{fill:#0C1238;stroke:#0C1238;stroke-miterlimit:10;}
	.st28{fill:#7581CE;stroke:#7581CE;stroke-width:3;stroke-linejoin:round;stroke-miterlimit:10;}
	.st29{fill:#5053AB;stroke:#5053AB;stroke-width:3;stroke-linejoin:round;stroke-miterlimit:10;}
	.st30{fill:#A3B3EF;stroke:#A3B3EF;stroke-width:3;stroke-linejoin:round;stroke-miterlimit:10;}
	.st31{fill:none;stroke:#7581CE;stroke-linejoin:round;stroke-miterlimit:10;}
	.st32{fill:none;stroke:#1E245E;stroke-width:2;stroke-linecap:round;stroke-miterlimit:10;}
	.st33{fill:#FFC14D;}
	.st34{opacity:0.3;fill:#FFC14D;}
	.st35{fill:#1E245E;}
	.st36{fill:none;stroke:#1E245E;stroke-width:9;stroke-linecap:round;stroke-miterlimit:10;}
	.st37{fill:#FFFFFF;stroke:#1E245E;stroke-width:3;stroke-miterlimit:10;}
	.st38{fill:none;stroke:#D0D4E5;stroke-linejoin:round;stroke-miterlimit:10;}
	.st39{fill:#F4F6F8;stroke:#E0E3ED;stroke-width:3;stroke-linejoin:round;stroke-miterlimit:10;}
	.st40{fill:#F4F6F8;stroke:#E8EAF2;stroke-width:3;stroke-linejoin:round;stroke-miterlimit:10;}
	.st41{fill:#E0E3ED;stroke:#E0E3ED;stroke-miterlimit:10;}
	.st42{fill:none;stroke:#E0E3ED;stroke-width:3;stroke-linejoin:round;stroke-miterlimit:10;}
	.st43{fill:#E0E3ED;stroke:#E0E3ED;stroke-width:3;stroke-linejoin:round;stroke-miterlimit:10;}
	.st44{fill:none;stroke:#FFC14D;stroke-linecap:round;stroke-miterlimit:10;}
	.st45{fill:none;stroke:#E1E5F1;stroke-width:3;stroke-miterlimit:10;}
	.st46{fill:#E1E5F1;}
	.st47{fill:none;}
	.st48{fill:#F4F5F8;}
	.st49{fill:#EAEBF3;}
	.st50{fill:#EAECF5;}
	.st51{fill:#E1E5F1;stroke:#E1E5F1;stroke-width:3;stroke-miterlimit:10;}
	.st52{fill:none;stroke:#E1E5F1;stroke-miterlimit:10;}
	.st53{fill:none;stroke:#0C1238;stroke-width:1.2858;stroke-miterlimit:10;}
	.st54{fill:#FFC14D;stroke:#FFC14D;stroke-width:2;stroke-linejoin:round;stroke-miterlimit:10;}
	.st55{fill:#202E78;}
	.st56{fill:#2D2F61;}
	.st57{fill:#8284C3;}
	.st58{fill:#7376BC;}
	.st59{fill:#666AB6;}
	.st60{fill:#2E3253;}
	.st61{fill:#505274;}
	.st62{fill:none;stroke:#FFC14D;stroke-width:3;stroke-miterlimit:10;}
	.st63{fill:none;stroke:#FFC14D;stroke-width:2;stroke-linejoin:round;stroke-miterlimit:10;}
	.st64{fill:#FFB62D;stroke:#FFB62D;stroke-width:2;stroke-linejoin:round;stroke-miterlimit:10;}
	.st65{fill:#F4F6F8;stroke:#3E4166;stroke-width:3;stroke-linecap:round;stroke-linejoin:round;stroke-miterlimit:10;}
	.st66{fill:#F4F6F8;stroke:#E0E3ED;stroke-width:3;stroke-miterlimit:10;}
	.st67{opacity:0.3;fill:#E8EAF2;stroke:#E8EAF2;stroke-width:3;stroke-miterlimit:10;}
	.st68{fill:#E0E3ED;stroke:#E0E3ED;stroke-width:3;stroke-miterlimit:10;}
	.st69{fill:#F4F6F8;stroke:#E8EAF2;stroke-width:3;stroke-miterlimit:10;}
	.st70{fill:#DEE4F5;}
	.st71{fill:none;stroke:#A3B3EF;stroke-width:2;stroke-miterlimit:10;}
	.st72{fill:#A3B3EF;stroke:#A3B3EF;stroke-width:2;stroke-miterlimit:10;}
	.st73{fill:#7581CE;stroke:#7581CE;stroke-width:2;stroke-miterlimit:10;}
	.st74{opacity:0.3;fill:#5053AB;}
	.st75{fill:none;stroke:#DEE4F5;stroke-miterlimit:10;}
	.st76{fill:#F3F4F7;}
	.st77{fill:none;stroke:#FFC14D;stroke-miterlimit:10;}
	.st78{fill:#7581CE;stroke:#7581CE;stroke-width:3;stroke-miterlimit:10;}
	.st79{opacity:0.5;fill:#E8EAF2;}
	.st80{fill:#A3B3EF;}
	.st81{opacity:0.3;fill:#DEE4F5;}
	.st82{fill:none;stroke:#E0E3ED;stroke-miterlimit:10;}
	.st83{fill:none;stroke:#FFFFFF;stroke-miterlimit:10;}
	.st84{fill:#B0E3E3;}
	.st85{fill:#53C1BD;}
	.st86{fill:none;stroke:#0C1238;stroke-width:3;stroke-miterlimit:10;}
	.st87{fill:#FBFBFC;}
	.st88{fill:#F4F5F8;stroke:#E1E5F1;stroke-width:3;stroke-miterlimit:10;}
	.st89{fill:#F2F4F9;}
	.st90{fill:#EAECF5;stroke:#EAECF5;stroke-width:3;stroke-linecap:round;stroke-miterlimit:10;}
	.st91{fill:#F2F4F9;stroke:#F2F4F9;stroke-width:3;stroke-linecap:round;stroke-miterlimit:10;}
	.st92{fill:none;stroke:#F2F4F9;stroke-width:3;stroke-linecap:round;stroke-miterlimit:10;}
	.st93{opacity:0.5;}
	.st94{fill:#F4F5F8;stroke:#E1E5F1;stroke-width:3;stroke-linecap:round;stroke-miterlimit:10;}
</style>
<g>
	<g>
		<path class="st3" d="M190.2,876.4c0,0,108.1-0.1,270.3-0.3c40.5,0,84.5,0.1,130.9,0.1c23.2,0,47.1,0.1,71.5,0.1
			c24.4,0,49.3,0.4,74.6,0.3c50.7,0,103,0.1,156.3,0.2c53.2,0.1,107.3,0.3,161.3,0.4c108.1-0.2,216.2-0.3,317.6-0.5
			c50.7-0.1,99.7-0.2,146.1-0.3c11.6,0,23.1,0,34.4-0.1c11.3,0,22.4,0,33.3,0c21.9,0.1,43,0.1,63.2,0.1c40.5,0.1,77.7,0.2,110.6,0.1
			c32.9-0.1,61.7-0.1,85.3-0.1c47.3-0.1,74.3-0.1,74.3-0.1v3.2c0,0-27,0-74.3,0.1c-23.6,0-52.4,0.1-85.3,0.1c-32.9,0-70.1,0-110.6,0
			c-20.3-0.1-41.4-0.1-63.2-0.2c-10.9,0-22,0-33.3-0.1c-11.3,0-22.7,0-34.4,0c-46.5,0-95.4,0-146.1,0c-101.4,0-209.5,0.1-317.6,0.1
			c-54.1,0.1-108.1,0.2-161.3,0.3c-6.7,0-13.3,0-19.9,0c-6.6,0-13.2,0-19.8-0.1c-13.2,0-26.3-0.1-39.3-0.1
			c-26.1-0.1-51.8-0.2-77.2-0.4c-12.7-0.1-25.2-0.2-37.7-0.1c-12.4,0-24.8,0.1-37,0.1c-24.4-0.1-48.2-0.2-71.5-0.2
			c-23.2-0.1-45.8-0.1-67.7-0.2c-21.9,0.1-43,0.2-63.2,0.2c-10.1,0-20.1,0.1-29.8,0.1c-9.7,0-19.2,0-28.4,0c-18.5,0-36,0-52.5,0
			c-32.9,0-61.7,0-85.3,0.1c-47.3,0-74.3,0-74.3,0V876.4z"/>
	</g>
	<g>
		<path class="st0" d="M1650.5,838.3c0,0,3.7,0,10.1-0.1c3.2,0,7.1-0.1,11.6-0.1c4.5,0,9.5-0.1,15-0.1c2.8,0,5.6,0,8.6,0
			c3,0,6,0.1,9.2,0.1c3.2,0,6.4,0.1,9.7,0.1c3.3,0,6.7,0.3,10.1,0.2c6.9,0,14,0,21.2,0.1c3.6,0.1,7.2,0.1,10.9,0.2
			c3.7,0,7.3,0.1,11,0.1c7.3,0,14.7-0.1,21.9-0.2c7.2-0.1,14.3-0.1,21.2-0.2c6.9-0.1,13.5-0.1,19.8-0.2c6.3-0.1,12.3,0,17.8,0.1
			c5.5,0.1,10.5,0.1,15,0.1c4.5,0,8.4-0.1,11.6-0.1c6.4-0.1,10.1-0.1,10.1-0.1c0.7,0,1.2,0.5,1.2,1.2c0,0.7-0.5,1.2-1.2,1.2h0h0
			c0,0-3.7,0-10.1,0.1c-6.4,0-15.6,0.2-26.6,0.1c-5.5-0.1-11.5-0.2-17.8-0.2c-6.3,0-13,0-19.8,0c-13.8,0-28.4,0.1-43.1,0.1
			c-7.3,0.1-14.7,0.2-21.9,0.2c-7.2,0.1-14.3-0.3-21.2-0.4c-1.7,0-3.4-0.1-5.1-0.1c-1.7,0-3.4,0.1-5,0.1c-3.3-0.1-6.5-0.1-9.7-0.2
			c-3.2,0-6.2-0.1-9.2-0.1c-3,0-5.8,0.1-8.6,0.2c-1.4,0-2.7,0.1-4,0.1c-1.3,0-2.6,0-3.9,0c-2.5,0-4.9,0-7.1,0c-4.5,0-8.4,0-11.6,0
			c-6.4,0-10.1,0-10.1,0c-0.7,0-1.2-0.5-1.2-1.2C1649.3,838.9,1649.8,838.3,1650.5,838.3L1650.5,838.3z"/>
	</g>
	<g>
		<path class="st0" d="M794,838.3c0,0,51.6-0.1,129-0.2c9.7,0,19.8,0,30.2,0c10.4,0,21.2,0.1,32.3,0.1c11.1,0,22.5,0.1,34.1,0.1
			c11.6,0,23.5,0.3,35.6,0.2c24.2,0,49.2,0.1,74.6,0.1c25.4,0.1,51.2,0.2,77,0.3c51.6-0.1,103.2-0.2,151.6-0.3
			c24.2-0.1,47.6-0.1,69.8-0.2c5.5,0,11,0,16.4,0c5.4,0,10.7,0,15.9,0c10.4,0,20.5,0.1,30.2,0.1c19.4,0,37.1,0.2,52.8,0.1
			c15.7,0,29.4-0.1,40.7-0.1c22.6-0.1,35.5-0.1,35.5-0.1c0.7,0,1.2,0.5,1.2,1.2c0,0.7-0.5,1.2-1.2,1.2h0h0c0,0-12.9,0-35.5,0.1
			c-22.6,0-54.8,0.2-93.6,0.1c-19.4-0.1-40.3-0.3-62.5-0.2c-22.2,0-45.6,0-69.8,0c-48.4,0-100,0.1-151.6,0.1
			c-25.8,0.1-51.6,0.2-77,0.2c-25.4,0-50.4-0.2-74.6-0.4c-12.1-0.2-24,0.1-35.6,0c-11.6-0.1-23-0.1-34.1-0.2
			c-11.1,0-21.9-0.1-32.3-0.1c-10.4,0.1-20.5,0.1-30.2,0.2c-4.8,0-9.6,0.1-14.2,0.1c-4.6,0-9.2,0-13.6,0c-8.8,0-17.2,0-25.1,0
			c-15.7,0-29.4,0-40.7,0c-22.6,0-35.5,0-35.5,0c-0.7,0-1.2-0.5-1.2-1.2S793.3,838.3,794,838.3z"/>
	</g>
	<g>
		<g>
			<g>
				<path class="st3" d="M1477.7,561.2l-192.2,0.2l-95.5,0l-95.5-0.1l-1.3,0l0-1.3l0.1-50.8l0.2-50.8l0.1-101.6l0.4-203.2l0-0.6
					l0.6,0l382-0.5l1.1,0l0,1.1l0.1,50.8l0,25.4l0,25.4l-0.2,101.6l0,50.8l0.1,50.8L1477.7,561.2z M1475.3,558.8l-0.2-202l0-50.8
					l0.1-50.8l0.1-50.8l0-50.8l1.2,1.2l-382,0.1l1.3-1.3l0.2,101.6l0.1,50.8c0.1,16.9-0.1,33.9-0.1,50.8l-0.4,101.6
					c-0.1,8.5,0,16.9,0,25.4c0,8.5,0.1,16.9,0,25.4l-0.1,50.8l-1-1l47.8,0.1l23.9,0l23.9,0l47.8-0.2l23.9-0.1l23.9,0L1475.3,558.8z"
					/>
			</g>
		</g>
		<path class="st79" d="M1476.5,563.8c-4.4,17.2-19.2,13.5-28,16.5c-16.1,5.3-32,13-48,19.5c-17.3,7-35,14.1-52.6,10.2
			c-10.7-2.4-21.1-8.7-31.8-11.4c-22.6-5.6-45.3,5.7-66.7,20.3c-18.3,12.5-37.4,28-56.7,21.4c-18.5-6.4-33.9-32.4-52.4-37.3
			c-0.7-0.2-1.4-0.3-2.1-0.5c-10.1-1.8-20.6,3.3-30.4-2.1c-9.8-5.3-17.5-29.2-10.3-42.5"/>
		<rect x="1111.9" y="167.4" class="st70" width="347.1" height="377.2"/>
		<g>
			<path class="st8" d="M1360.6,404.7c27.1,3.8,51.2,1.4,64.4-32.4c3.5-8.9,4.8-18.6,6.1-28.1c2.7-20.8,3.6-52.4-11.6-69.7
				c-5.9-6.7-15.5-8.9-24.4-9.1c-59.1-1.6-117,13.4-176,10.2c-21.1-1.2-44.2-3.6-61.6,8.5c-2.9,2-5.6,4.5-7.2,7.7
				c-1.4,2.9-1.6,6.1-1.9,9.3c-1.9,23.2-3.7,46.3-5.6,69.5c-0.5,6-0.9,12.3,2,17.5c2.7,4.9,7.9,7.9,13,10.2
				c53.5,24.4,102.6-6.5,156.4-1.2C1329.8,398.7,1345.7,402.6,1360.6,404.7z"/>
			<path class="st5" d="M1174.9,441.8c-12,2.4-12.6,11-12.6,23.5c0,9.4,0.6,18.7,1.8,28.1c0.6,4.2,1.3,8.5,3.6,12.2
				c4.9,7.9,15.7,11.4,25.7,12.6c29.9,3.6,63.4,0.2,93.3-1.8c4.6-0.3,9.6-0.8,12.7-3.7c2.3-2.1,3.1-5.1,3.8-7.9
				c3.4-15,4.6-32.9-0.7-47.7c-0.7-2-1.6-4-3.1-5.7c-3.2-3.6-8.7-4.8-13.8-5.5c-17.4-2.4-34.3,0.7-51.7-0.3
				c-17.3-1-34.4-4.6-51.8-4.4C1179.3,441.2,1176.9,441.4,1174.9,441.8z"/>
			<path class="st5" d="M1276.9,226.5c0,0.7,0.1,1.4,0.3,2.1c1.9,8.5,11.1,13.1,19.3,16.6c17.7,7.5,28.3-4.4,33.9-20.8
				c2.6-7.7,1.7-16.9-4.2-22.6c-4.6-4.5-11.4-6.1-18-6.4c-5.8-0.2-11.9,0.5-16.7,3.6C1284.2,203.8,1276.4,218,1276.9,226.5z"/>
			<path class="st5" d="M1344.3,223.9c-0.5,11,6.3,20.4,19.6,20.7c14.5,0.4,21.7-13.4,23.7-25.6c0.9-5.9,0-12.4-3.9-17.1
				c-3.9-4.6-10.4-6.9-16.5-6.3c-6.1,0.7-11.8,4.1-15.5,8.8c-2.7,3.5-4.5,7.5-5.9,11.7C1344.9,218.8,1344.4,221.4,1344.3,223.9z"/>
			<path class="st11" d="M1414.7,237.2c10.7,1.7,20.2-6.7,19.1-18.3c-0.3-2.6-0.9-5.2-2.2-7.5c-2.5-4.3-7.4-7.2-12.4-7.3
				c-16.7-0.6-25.8,23.2-10.3,31.2C1410.8,236.2,1412.7,236.9,1414.7,237.2z"/>
			<path class="st11" d="M1151.6,229.4c1.3,2.7,3.4,5.3,6.4,7.2c9,5.8,28.6,10.1,39.5,11.9c9.6,1.6,21-0.3,26.4-7.6
				c1.7-2.3,2.6-4.9,3.5-7.5c1.1-3,2.1-6,3.2-9c5.8-16.4-7.9-28.6-27.1-26.4c-9.6,1.1-17.2,5.4-25.5,9.4c-6.9,3.3-11,2.8-18.1,5
				C1150.9,215.1,1148.6,222.8,1151.6,229.4z"/>
			<g>
				<path class="st80" d="M1146.3,462.1c1,0.3,2,0.5,3,0.7c1,0.2,2,0.4,3,0.7c1,0.2,2,0.4,3,0.6c1,0.2,2.1,0.2,3.1,0.2
					c0.5,0,1,0.1,1.5,0.1c0.5,0,1,0.1,1.5,0.2c1,0.1,2.1,0.3,3.1,0.3c1,0,2.1-0.1,3.1-0.1c1-0.1,2.1-0.2,3.1-0.3
					c1-0.1,2-0.3,3.1-0.4c1-0.1,2-0.3,3-0.5l1.5-0.2c0.5-0.1,0.9-0.2,1.4-0.3c1-0.2,2-0.4,2.9-0.7c0.9-0.3,1.8-0.8,2.6-1.3
					c0.8-0.5,1.5-1.2,2.1-1.8c0.6-0.7,1.1-1.3,1.5-2.1c0.3-0.7,0.5-1.6,0.5-2.4l0.7,1c-0.8-0.5-1.8-0.8-2.8-0.8c-1,0-2,0.1-2.9,0.5
					c-0.9,0.4-1.7,1-2.3,1.8c-0.1,0.1-0.3,0.5-0.4,0.6c-0.1,0.2-0.2,0.4-0.3,0.6c-0.2,0.5-0.2,0.9-0.3,1.4c-0.1,0.9-0.2,1.9,0,2.9
					c0.1,0.5,0.2,1,0.5,1.4c0.2,0.4,0.6,0.8,1,1.1c0.8,0.6,1.6,1.3,2.6,1.7l0.3,0.2l0.4,0.2l0.8,0.3c0.5,0.3,1,0.4,1.5,0.6
					c2,0.7,4.3,1,6.5,1.1c1.1,0,2.2,0,3.4-0.1c1.1-0.1,2.2-0.3,3.3-0.5c2.2-0.3,4.6-0.5,6.7-1.4c2.1-1,4.3-1.7,6.5-2.4
					c2.2-0.7,4.4-1.5,6.5-2.4c2.1-0.9,4.3-1.8,6.5-2.5c2.2-0.7,4.5-1.3,6.8-1.7c2.3-0.4,4.7-0.4,7-0.4c2.3,0.1,4.7,0.3,7,1.1
					c2.3,0.8,4.5,2.2,5.9,4.5c0.3,0.6,0.6,1.2,0.7,1.9l0.1,0.5l0,0c0-0.1,0,0.1,0,0.1l0,0.1l0,0.1l0,0.2c0,0.2,0,0.3,0,0.5l-0.1,0.6
					c-0.2,1.5-1,2.7-2,3.7c-1,0.9-2.3,1.5-3.7,1.7c-1.4,0.1-3-0.4-3.9-1.6l-0.3-0.3l0.1-0.4c0.4-1.6,1.1-3,2-4.4
					c0.9-1.3,2-2.5,3.3-3.4c1.3-0.9,2.6-1.8,4.2-2.2c0.4-0.1,0.7-0.2,1.1-0.3c0.4-0.1,0.7-0.2,1.1-0.3c0.2,0,0.3-0.1,0.6-0.2
					l0.5-0.1l1.1-0.3c1.5-0.3,3-0.7,4.6-0.7c1.5-0.1,3,0.1,4.5,0.3c1.5,0.2,3,0.3,4.5,0.4c0.7,0,1.5,0.1,2.2,0.2
					c0.7,0.1,1.5,0.3,2.2,0.5c0.7,0.2,1.5,0.3,2.2,0.3c0.7,0.1,1.5,0.1,2.2,0.1c1.5,0.2,2.9,0.5,4.3,0.8c1.4,0.3,2.9,0.6,4.3,0.8
					c1.5,0.2,2.9,0.2,4.4,0.2c1.4,0,2.9,0.1,4.3,0.2c1.4,0,2.9-0.2,4.3-0.6c1.4-0.4,2.7-0.9,4-1.4c1.3-0.5,2.5-1.2,3.7-1.9l1.3,2
					c-1.3,0.8-2.7,1.6-4.2,2.1c-0.4,0.1-0.7,0.3-1.1,0.4c-0.4,0.1-0.7,0.2-1.1,0.3c-0.8,0.1-1.5,0.3-2.3,0.4c-1.5,0.2-3,0.3-4.5,0.5
					c-1.5,0.2-3,0.3-4.5,0.2c-1.5-0.1-3-0.4-4.5-0.6c-1.5-0.2-3-0.3-4.5-0.4c-1.5-0.1-3-0.2-4.4-0.5c-0.7-0.2-1.4-0.4-2.1-0.7
					c-0.7-0.2-1.4-0.3-2.2-0.4c-1.5,0-2.9-0.2-4.4-0.5c-1.4-0.3-2.9-0.5-4.3-0.5c-1.4,0.1-2.9,0.2-4.3,0.3c-1.4,0.1-2.8,0.1-4.2,0.3
					l-1.1,0.2l-0.5,0.1c-0.1,0-0.3,0.1-0.5,0.1c-0.7,0.2-1.3,0.5-2,0.8c-1.2,0.6-2.5,1.2-3.7,1.9c-1.2,0.7-2.2,1.6-3.1,2.6
					c-0.9,1-1.5,2.3-1.8,3.6l-0.2-0.8c0.3,0.3,0.6,0.5,1,0.6c0.4,0.1,0.8,0,1.2,0c0.4-0.1,0.8-0.3,1.2-0.6c0.2-0.1,0.4-0.2,0.6-0.4
					c0.2-0.1,0.3-0.3,0.5-0.5c0.3-0.3,0.6-0.7,0.8-1c0.1-0.2,0.2-0.4,0.3-0.6c0-0.2,0.2-0.4,0.1-0.5c0.1-0.7-0.1-1.6-0.5-2.5
					c-0.8-1.7-2.6-3-4.5-3.9c-1.9-0.9-4.1-1.6-6.4-1.7c-1.1,0-2.3,0-3.4,0.2c-1.1,0.2-2.2,0.3-3.3,0.6c-0.6,0.1-1.1,0.2-1.6,0.4
					c-0.5,0.1-1.1,0.3-1.6,0.4c-1.1,0.3-2.2,0.6-3.2,1c-2.1,0.8-4.3,1.4-6.5,2.1c-0.6,0.2-1.1,0.4-1.6,0.6c-0.5,0.2-1.1,0.4-1.6,0.7
					c-1.1,0.5-2.1,1.1-3.1,1.6c-1,0.6-2.1,1.1-3.2,1.5c-1.1,0.5-2.3,0.6-3.5,0.7c-2.4,0.3-4.4,1.7-6.8,2.2c-0.6,0.1-1.2,0.2-1.8,0.3
					l-1.8,0.2c-1.2,0.1-2.4,0.1-3.6,0c-2.4-0.1-4.8-0.4-7.2-1.2c-0.6-0.2-1.2-0.4-1.7-0.6l-0.8-0.3l-0.4-0.2
					c-0.2-0.1-0.3-0.1-0.5-0.2c-0.6-0.3-1.1-0.6-1.6-1c-0.5-0.4-1.1-0.8-1.5-1.3c-0.4-0.6-0.7-1.1-1-1.7c-0.3-0.6-0.6-1.2-0.8-1.8
					c-0.5-1.2-0.6-2.6-0.3-3.9c0.6-2.6,2.6-4.8,4.9-5.7c1.2-0.5,2.4-0.7,3.7-0.7c1.3,0,2.5,0.3,3.7,0.9l0.4,0.2l0,0.4
					c0.1,1.2,0,2.3-0.5,3.4c-0.5,1.1-1.1,2-1.9,2.8c-0.8,0.8-1.7,1.4-2.7,2c-0.5,0.3-1,0.5-1.4,0.8c-0.5,0.2-1,0.5-1.5,0.7
					c-1,0.4-2,0.9-3,1.2c-0.5,0.2-1.1,0.3-1.6,0.4l-0.8,0.2l-0.2,0l-0.2,0l-0.4,0c-1,0.1-2.1,0.3-3.2,0.3c-1.1,0.1-2.1,0.1-3.2,0.1
					c-1.1,0-2.1,0-3.2,0c-1.1,0-2.1,0-3.2,0l-1.6,0l-1.6,0.1c-1.1,0-2.1,0-3.2-0.1c-1-0.1-2.1-0.4-3.1-0.5l-3.1-0.4
					c-2.1-0.3-4.2-0.7-6.2-1.2L1146.3,462.1z"/>
			</g>
			<g>
				<path class="st80" d="M1143.5,480.1c0,0,0.7,0,2,0.1c0.6,0,1.4,0,2.4,0.1c0.9,0.1,2,0.1,3.2,0.2c0.6,0,1.2-0.1,1.9-0.1
					c0.7,0,1.3,0,2.1,0.1c0.7,0.1,1.5,0.2,2.2,0.2c0.8,0,1.6,0,2.4,0c1.7-0.1,3.4-0.2,5.3-0.3c0.9,0,1.9-0.1,2.9-0.1
					c1,0,2,0.1,3,0.2c1,0.1,2.1,0.1,3.1,0c1.1-0.1,2.1-0.2,3.3-0.2c1.1,0,2.2,0.1,3.4,0.2c1.1,0.1,2.3,0.1,3.5,0.2
					c2.3,0.1,4.8,0.2,7.2-0.1c0.6,0,1.2-0.1,1.9,0c0.6,0.1,1.2,0.2,1.9,0.3c0.6,0.1,1.3,0,1.9-0.1c0.6-0.1,1.3,0,1.9,0
					c2.6,0,5.2,0.1,7.8,0.1c1.3,0,2.6,0,4,0c1.3,0,2.7,0,4,0.2c1.3,0.2,2.7,0.3,4,0c1.4-0.2,2.7-0.1,4.1,0c1.4,0.1,2.7,0.2,4.1,0.2
					c1.4,0,2.7-0.1,4.1-0.2c2.7-0.1,5.5-0.1,8.2-0.1c1.4,0,2.7,0.1,4.1,0.1c1.4,0,2.7-0.1,4-0.2c2.7-0.3,5.3-0.4,8-0.6
					c1.3-0.1,2.6-0.1,3.9-0.2c0.6,0,1.3,0,1.9,0c0.6,0,1.3,0.1,1.9,0.1c2.6,0.2,5.1-0.2,7.5-0.4c0.6-0.1,1.2-0.1,1.8-0.1
					c0.6,0,1.2-0.1,1.8-0.1c0.6,0,1.2,0.1,1.8,0.1c0.6,0,1.2,0,1.8,0c2.3-0.2,4.6-0.4,6.8-0.1c2.2,0.3,4.3-0.3,6.4,0
					c2.1,0.3,4-0.6,5.9-0.3c1.9,0.1,3.6,0.2,5.3,0.1c1.7-0.1,3.2-0.4,4.7-0.3c1.4,0.1,2.8,0.1,4,0c1.2-0.1,2.3-0.3,3.2-0.4
					c0.9-0.1,1.7-0.1,2.4-0.1c0.6,0,1.1-0.1,1.5-0.1c0.3,0,0.5,0,0.5,0l0.1,2.4c0,0-0.2,0-0.5,0c-0.3,0-0.8,0-1.5,0
					c-0.6,0-1.4,0-2.4,0c-0.9,0-2-0.1-3.2-0.1c-1.2,0-2.5,0.1-3.9,0.4c-0.7,0.1-1.5,0.1-2.2,0.1c-0.8,0-1.6-0.1-2.4-0.1
					c-1.7,0-3.4,0.3-5.3,0.5c-0.9,0.1-1.9,0.2-2.9-0.1c-1-0.2-2-0.2-3,0c-2,0.4-4.2-0.3-6.4,0.1c-2.2,0.5-4.5,0.3-6.8,0.1
					c-0.6,0-1.2,0-1.8,0c-0.6,0.1-1.2,0.1-1.8,0.2c-0.6,0-1.2,0-1.8,0c-0.6,0-1.2,0-1.8,0c-2.5-0.1-5-0.3-7.5,0.1
					c-0.6,0.1-1.3,0.2-1.9,0.3c-0.6,0-1.3,0.1-1.9,0.1c-1.3,0-2.6,0-3.9,0.1c-1.3,0-2.6,0-4-0.1c-1.3,0-2.7-0.1-4-0.3
					c-1.3-0.2-2.7-0.2-4-0.2c-1.4,0.1-2.7,0.3-4.1,0.4c-2.7,0.2-5.4,0.3-8.2,0.2c-1.4-0.1-2.7-0.3-4.1-0.3c-1.4,0-2.7,0.2-4.1,0.4
					c-0.7,0.1-1.4,0.2-2,0.2c-0.7,0.1-1.4,0-2-0.2c-1.4-0.4-2.7-0.3-4,0c-0.7,0.2-1.3,0.3-2,0.3c-0.7,0.1-1.3,0-2,0
					c-1.3-0.1-2.7-0.1-4-0.2c-2.6,0-5.2,0-7.8-0.1c-0.6,0-1.3,0-1.9-0.1c-0.6-0.2-1.3-0.3-1.9-0.2c-0.6,0-1.3,0.2-1.9,0.2
					c-0.6,0-1.2,0-1.9,0c-2.5-0.3-4.9-0.3-7.2-0.4c-2.3,0-4.6,0-6.8,0c-1.1,0-2.2-0.1-3.3-0.1c-1.1,0-2.1,0-3.1,0.1
					c-4.1,0.5-7.8-0.1-11.2-0.2c-0.8,0-1.6-0.1-2.4-0.1c-0.8,0-1.5,0.1-2.2,0.2c-0.7,0.1-1.4,0.1-2.1,0.1c-0.7-0.1-1.3-0.1-1.9-0.2
					c-1.2,0-2.3,0.1-3.2,0.1c-0.9,0-1.7,0-2.4,0c-1.3,0-2,0-2,0L1143.5,480.1z"/>
			</g>
			<g>
				<path class="st80" d="M1180.7,494.1c0,0,0.6,0,1.8,0c0.6,0,1.3,0,2.2,0c0.9,0,1.8,0.1,2.9,0.1c0.6,0,1.1-0.1,1.7-0.2
					c0.6,0,1.2,0,1.9,0c0.7,0.1,1.4,0.2,2.1,0.1c0.7,0,1.5-0.1,2.2-0.1c1.5-0.1,3.2-0.3,4.9-0.4c0.9,0,1.7-0.1,2.6-0.1
					c0.9,0,1.8,0.1,2.8,0.1c0.9,0.1,1.9,0.1,2.9,0c1-0.1,2-0.2,3-0.2c1,0,2.1,0,3.1,0.1c1.1,0.1,2.1,0.1,3.2,0.2
					c2.2,0,4.4,0.1,6.6-0.3c0.6,0,1.1-0.1,1.7,0c0.6,0,1.2,0.2,1.7,0.2c0.6,0.1,1.2,0,1.7-0.1c0.6-0.1,1.2-0.1,1.8-0.1
					c2.4,0,4.8,0,7.2,0c1.2,0,2.4,0,3.7-0.1c1.2-0.1,2.5,0,3.7,0.2c1.2,0.2,2.5,0.2,3.7,0c1.2-0.2,2.5-0.1,3.7,0
					c1.3,0.1,2.5,0.2,3.8,0.2c1.3,0,2.5-0.1,3.8-0.2c2.5-0.1,5-0.1,7.5-0.1c1.3,0,2.5,0.1,3.8,0.1c1.2,0,2.5-0.1,3.7-0.2
					c2.5-0.3,4.9-0.4,7.4-0.6c1.2,0,2.4-0.1,3.6-0.1c0.6,0,1.2,0,1.8,0c0.6,0,1.2,0.1,1.8,0.1c2.4,0.2,4.7-0.1,6.9-0.3
					c0.6-0.1,1.1-0.1,1.7-0.1c0.6,0,1.1-0.1,1.7-0.1c0.6,0,1.1,0.1,1.7,0.1c0.5,0,1.1,0,1.6,0c2.2-0.2,4.3-0.4,6.3,0
					c2,0.3,4-0.2,5.9,0.1c1.9,0.4,3.7-0.5,5.4-0.2c1.7,0.1,3.4,0.2,4.9,0.2c1.5-0.1,3-0.3,4.3-0.2c1.3,0.1,2.5,0.2,3.6,0
					c1.1-0.1,2.1-0.2,2.9-0.3c0.9,0,1.6-0.1,2.2-0.1c0.6,0,1,0,1.3,0c0.3,0,0.5,0,0.5,0l0,2.4c0,0-0.2,0-0.5,0c-0.3,0-0.8,0-1.3,0
					c-0.6,0-1.3,0-2.2,0c-0.9,0-1.8-0.1-2.9-0.2c-1.1-0.1-2.3,0.1-3.6,0.3c-0.7,0.1-1.4,0.1-2.1,0.1c-0.7,0-1.5-0.1-2.2-0.1
					c-1.5,0-3.2,0.2-4.9,0.4c-0.9,0.1-1.7,0.2-2.6-0.1c-0.9-0.2-1.8-0.2-2.8,0c-1.9,0.4-3.9-0.4-5.9,0c-2,0.4-4.1,0.2-6.3,0.1
					c-1.1-0.1-2.2,0-3.3,0.2c-0.6,0-1.1,0-1.7,0c-0.6,0-1.1,0-1.7-0.1c-2.3-0.1-4.6-0.3-6.9,0c-0.6,0.1-1.2,0.2-1.8,0.3
					c-0.6,0-1.2,0.1-1.8,0.1c-1.2,0-2.4,0-3.6,0.1c-1.2,0-2.4-0.1-3.7-0.1c-1.2,0-2.5-0.1-3.7-0.3c-1.2-0.2-2.5-0.2-3.7-0.2
					c-1.2,0.1-2.5,0.3-3.7,0.4c-2.5,0.2-5,0.3-7.5,0.3c-1.3-0.1-2.5-0.3-3.8-0.2c-1.3,0-2.5,0.2-3.8,0.5c-0.6,0.1-1.2,0.2-1.9,0.2
					c-0.6,0.1-1.2,0-1.9-0.2c-1.3-0.4-2.5-0.3-3.7,0c-0.6,0.2-1.2,0.3-1.8,0.3c-0.6,0.1-1.2,0-1.8,0c-1.2,0-2.4-0.1-3.7-0.1
					c-2.4,0-4.8,0-7.2,0c-0.6,0-1.2,0-1.8-0.1c-0.6-0.1-1.2-0.2-1.7-0.2c-0.6,0-1.2,0.2-1.7,0.2c-0.6,0.1-1.1,0-1.7,0
					c-2.3-0.3-4.5-0.2-6.7-0.3c-2.2,0.1-4.3,0.1-6.3,0.2c-1,0-2,0-3,0c-1,0-1.9,0-2.9,0.2c-3.8,0.6-7.2,0.1-10.3,0.1
					c-0.8,0-1.5,0-2.2,0c-0.7,0-1.4,0.1-2.1,0.2c-0.7,0.1-1.3,0.1-1.9,0.1c-0.6,0-1.2-0.1-1.7-0.1c-1.1,0-2.1,0.1-2.9,0.2
					c-0.9,0.1-1.6,0.1-2.2,0.1c-1.2,0.1-1.8,0.1-1.8,0.1L1180.7,494.1z"/>
			</g>
		</g>
		<path class="st81" d="M1458.8,167.3c-3.8,6.5-7.6,17.3-22.8,21.3c-17,4.5-42,5.3-62.7,3.4s-42.2-4.4-63-2.6
			c-21.8,1.9-37.9,8.3-48.8,15.1s-18.2,14.3-30.6,20.8c-12.4,6.5-31.9,12.1-54.4,12.2c-11,0-22.3-1.2-32.9-0.2
			c-8.5,0.9-17.5,3.2-25.3,1.7c-6.7-1.3-7.3-4.4-7.1-7.1c1.6-21.5,1.5-43.1-0.2-64.6"/>
	</g>
	<g>
		<path class="st2" d="M1919,627.9c-3.4,14.5-15,11.5-21.8,13.9c-12.5,4.5-24.9,11-37.4,16.5c-13.5,5.9-27.2,11.9-40.9,8.6
			c-8.4-2-16.4-7.4-24.8-9.6c-17.6-4.7-35.3,4.8-51.9,17.2c-14.3,10.6-29.1,23.7-44.1,18.1c-14.4-5.4-26.4-27.4-40.8-31.6
			c-0.5-0.2-1.1-0.3-1.6-0.4c-7.9-1.5-16.1,2.8-23.7-1.7c-7.6-4.5-13.6-24.7-8-36"/>
		<g>
			<g>
				<path class="st3" d="M1917.6,629.8l-295.6,0.2l-1.5,0l0-1.4l0.8-545.2l0-0.6l0.6,0l294.4-0.4l1,0l0,1l0.2,136.3l0.1,68.2
					l-0.1,68.2l-0.1,68.2l0,68.2L1917.6,629.8z M1915.2,627.4l-0.1-135.1l0-68.2l0-68.2l0.2-68.2l0-68.2l0-136.3l1.2,1.2L1622,84.7
					l1.3-1.3l0.2,136.3l0,34.1l-0.1,34.1l-0.2,68.2l-0.1,34.1c0,11.4-0.1,22.7-0.1,34.1l0.1,34.1l-0.1,34.1l-0.2,68.2l-0.1,34.1
					l0.1,34.1l-0.9-0.9l73.6-0.2l73.6,0L1915.2,627.4z"/>
			</g>
		</g>
		<g>
			<g>
				<path class="st3" d="M1901,614.3l-262.4,0.2l-1.5,0l0-1.4l0.8-514.3l0-0.6l0.6,0l261.2-0.3l1,0l0,1l0.2,128.6l0.1,64.3
					l-0.1,64.3l-0.1,64.3l0,64.3L1901,614.3z M1898.6,611.9l-0.1-127.4l0-64.3l0.1-64.3l0.2-64.3l0-64.3l0-128.6l1.2,1.2l-261.2,0.1
					l1.3-1.3l0.2,128.6l0,32.1l-0.1,32.1l-0.2,64.3l-0.1,32.1l-0.1,16.1l0,16.1c0,10.7,0.1,21.4,0,32.1l-0.1,32.1l-0.2,64.3
					l-0.1,32.1l0.1,32.1l-0.9-0.9l32.6-0.1l32.6-0.1l65.3,0L1898.6,611.9z"/>
			</g>
		</g>
		<path class="st2" d="M1752.5,175.1c15.2,6.2,39.1,6.2,50.8-7.5c2.3-2.8,2.7-6.6,2.6-10.3c-0.4-17.6-7.4-35.5-26.6-36.8
			c-7.2-0.5-14.7,0.2-20.9,3.8c-11.8,6.9-15.6,22.3-15.8,36c0,2.7,0,5.5,1.2,7.9C1745.5,171.7,1749,173.7,1752.5,175.1z"/>
		<path class="st2" d="M1865.2,236c-3.2-10.1-13.8-17.8-21.6-24.8c-4.1-3.7-9.8-5-15.3-5.9c-22.7-3.6-46.7-1.5-69.7-1.5
			c-12-0.1-24.2-0.1-35.6,3.4c-11.5,3.5-22.3,11-26.7,22.2c-5.3,13.4-0.6,28.3,2.5,42.3c2.8,12.6,4.2,25.6,4.2,38.5
			c0,4.4,0,9.2,3,12.4c1.2,1.3,2.7,2.1,4.3,2.9c34.1,17.6,75.1,11.6,113,5c6.6-1.1,13.3-2.3,19.2-5.5c15.7-8.3,21.7-27.5,24.3-45.1
			C1868.9,265.3,1869.7,250.1,1865.2,236z"/>
		<path class="st2" d="M1819,372.1c-2.4,5.9,0.2,12.9,4.8,17.3s10.8,6.6,17,8.4c2.6,0.7,5.3,1.4,8,0.9c10.7-2.1,13.6-17,8.9-25.3
			c-2.3-4.1-6.2-7-9.9-9.8c-1.6-1.2-3.2-2.4-5.2-2.7c-2.2-0.4-4.4,0.4-6.5,1.2C1829.7,364.3,1821.9,365,1819,372.1z"/>
		<path class="st2" d="M1825.8,412.1c-4.7,1.1-9.1,3.8-11.6,7.9c-3.5,5.9-2,13.9,2.1,19.4c4.1,5.5,10.4,9,16.8,11.6
			c3.8,1.5,8,2.8,12,1.8c12.8-3.2,16.6-21.8,10.1-31.6C1849.3,412.3,1835.7,409.7,1825.8,412.1z"/>
		<path class="st2" d="M1832.2,497c4.5,5.7,12.9,6.3,20.1,5.2c3.4-0.5,7-1.3,9.7-3.5c11.2-8.9,3.4-32.4-10.3-33.8
			c-5-0.5-9.9,1-14.6,2.9c-2.6,1-5.2,2.2-6.9,4.3C1826.6,476.5,1828.9,492.9,1832.2,497z"/>
		<path class="st2" d="M1721.3,500.3c0.3,0.1,0.6,0.2,1,0.2c16,3.6,46.6,4.7,57.6-9c12.6-15.6,16.3-42.6,15.5-61.9
			c-2-45.6-37-85.3-84.9-74.3c-6.9,1.6-13.8,4.3-18.3,9.7c-4.3,5.1-5.8,12-7.5,18.4c-6.9,27.4-18,56.8-6.6,82.7
			C1685.7,483.7,1702.8,495.8,1721.3,500.3z"/>
		<path class="st2" d="M1787.4,584.7c9.8-0.5,19.6-0.8,29.4-0.2c19.4,1.1,39-5.2,54.3-17.2c4.5-3.5,8.9-8.6,7.9-14.2
			c-0.5-2.8-2.3-5.1-4.3-7.1c-12.3-13.2-30.8-20.4-48.8-18.7c-10,0.9-19.5,4.3-29.4,5.9c-11.3,1.9-23.1,1.3-34.2-1.6
			c-11.4-3-22.4-8.4-34.3-8.6c-22.1-0.2-39.7,16.8-47,36.1c-2.4,6.3-3.3,14.3,1.5,19.1c2.4,2.4,5.9,3.5,9.2,4.4
			C1723.9,591.2,1755.6,586.4,1787.4,584.7z"/>
	</g>
	<path class="st2" d="M1001.5,256.5c-0.9,6.7-1.4,13.7-3.8,20c-5.4,14.2-20.1,23-34.9,26.1c-14.9,3.1-30.2,1.5-45.4,1.1
		c-17.6-0.5-35.3,0.7-52.7,3.4c-14.7,2.3-29.4,5.7-44.3,5.2c-7-0.2-14-1.4-20.8-3.4c-7.1-2.1-14.1-5.3-19.1-10.7
		c-9.6-10.6-13.6-28.8-14.2-42.6"/>
	<g>
		<g>
			<rect x="765.6" y="83.4" class="st5" width="235.9" height="173.1"/>
			<g>
				<path class="st3" d="M1002.7,257.7L883.5,258l-59-0.1l-29.5-0.1c-9.8-0.1-19.7,0-29.5-0.1l-1.2,0l0-1.2l0.1-10.8l0-10.8l0-21.6
					l0-43.3l0.4-86.6l0-0.6l0.6,0c9.8,0,19.7,0,29.5,0l29.5-0.1l59-0.1l118-0.3l1.2,0l0,1.2l-0.2,86.6L1002.7,257.7z M1000.3,255.3
					l-0.2-85.4l0-21.6l0-21.6l0.2-43.3l1.2,1.2l-235.9,0.1l1.3-1.3l0.3,86.6l-0.3,43.3l-0.2,21.6l-0.1,10.8l0.1,10.8l-1.1-1.1
					c4.9-0.1,9.8,0,14.7,0l14.7,0.1l29.5,0.1l14.7,0.1c4.9,0,9.8,0,14.7,0l29.5-0.2c9.8-0.1,19.7,0,29.5-0.1l29.5,0L1000.3,255.3z"
					/>
			</g>
		</g>
		<g>
			<rect x="780" y="95.9" class="st5" width="207" height="148"/>
			<g>
				<path class="st3" d="M988.2,245.2l-104.7,0.2l-25.9,0l-25.9-0.1l-25.9-0.1l-12.9,0c-4.3,0-8.6-0.1-12.9-0.1l-1.2,0l0-1.1
					l0.1-9.3l0-9.3l0-18.5l0-37l0.2-37l0.1-37l0-0.6l0.6,0c8.6,0,17.3,0,25.9,0l25.9-0.1l51.8-0.1L987,94.7l1.2,0l0,1.2l-0.1,37
					l-0.1,37L988.2,245.2z M985.8,242.8l-0.2-72.8l0-18.5l0-18.5l0.2-37l1.2,1.2l-207,0.1l1.3-1.3l0.3,74l-0.3,37l-0.2,18.5
					l-0.1,9.3c0,3.1,0,6.2,0,9.3l-1.1-1.1c4.3,0,8.6-0.1,12.9,0l12.9,0.1l25.9,0.1l12.9,0.1l6.5,0l6.5,0l25.9-0.2
					c8.6-0.1,17.3,0,25.9-0.1l25.9,0L985.8,242.8z"/>
			</g>
		</g>
		<path class="st2" d="M805.5,138c4.2,0.5,8.6-0.5,12.7-1.9c5.6-1.9,11.4-5.4,12.6-11.2c0.9-4.3-1.1-8.6-3.2-12.5
			c-0.9-1.7-1.9-3.4-3.5-4.6c-4-3.1-11.3,0.2-15,2.3c-8.2,4.8-21.6,24.2-5.2,27.6C804.4,137.8,805,137.9,805.5,138z"/>
		<path class="st2" d="M884.6,133.6c4.6-0.1,8.6-4.1,9.2-8.7c0.2-1.6,0-3.3-0.9-4.5c-1.5-2-4.4-2.2-6.9-1.8
			c-2.2,0.4-4.2,1.1-6.2,2.1c-2.3,1.3-4.5,3.2-4.9,5.8C874,131.4,880.9,133.7,884.6,133.6z"/>
		<path class="st2" d="M907.8,117.2c-0.3,1.2-0.5,2.4-0.1,3.6c0.6,1.9,2.3,3.2,3.9,4.2c3.5,2.1,7.4,3.6,11.4,3.4
			c4-0.2,8.1-2.5,9.7-6.2c2.7-6.5-3.4-12.2-9.4-13.4C917.3,107.6,909.6,111,907.8,117.2z"/>
		<path class="st2" d="M951.8,130.9c2.3,1.1,4.9,1.2,7.4,1.1c2.6-0.2,5.3-0.6,7.5-2c4.5-2.9,4.1-8.3-0.2-11.2
			c-4.4-2.9-12.2-3.6-16.5,0.1C946.3,122.1,947.4,128.8,951.8,130.9z"/>
		<path class="st2" d="M959.6,148.4c-9.8-6.1-22-7.1-33.4-5.6c-11.4,1.5-22.4,5.5-33.4,8.7c-11.1,3.2-22.6,5.8-34.1,4.6
			c-7.8-0.8-15.3-3.4-23-5c-7.7-1.5-16-2-23.1,1.4c-4.4,2-8,5.4-11.3,8.9c-4.8,5.1-9.2,11.2-9.7,18.3c-0.8,9.9,6.2,18.9,14.4,24.7
			c8.6,6.1,18.8,9.9,29.3,10.9c19.5,1.9,37.1-6.8,56.2-7.9c11.4-0.6,22.6,3.1,33.7,5.7c19.6,4.5,41.6,1.7,49.5-19.8
			c2.2-6,2-12.8,0.4-19C972.6,164.3,968.6,154,959.6,148.4z"/>
		<path class="st2" d="M861,227c0.8,2.2,3.6,2.8,5.9,2.6c1.4-0.1,4.9-0.6,5.5-2c0.8-1.8-1.8-5.1-3.1-6.1
			C865.1,218.3,859.1,221.3,861,227z"/>
		<path class="st2" d="M892,220.1c-1.8-6.3-10.8-4.6-9.5,1.8C884,228.6,894.1,227.2,892,220.1z"/>
		<path class="st2" d="M904.2,225.8c0.5,0.6,1.1,1.1,1.8,1.4c3.4,1.8,8.2-1,6.2-5.2c-0.8-1.6-2.4-2.5-4-3.2c-0.3-0.2-0.6-0.3-1-0.3
			c-0.3,0.1-0.5,0.3-0.8,0.5C904.6,220.7,902.3,223.2,904.2,225.8z"/>
	</g>
	<g>
		<path class="st2" d="M1001.5,468.6c-1.6,12.2-6.9,21.7-18.2,27.3c-8.8,4.4-18.6,6.4-27.1,11.4c-11.3,6.7-20.5,19-33.6,19.7
			c-11.7,0.6-22.3-8.4-34-8.3c-12.1,0.2-21.7,9.8-32.5,15.2c-15.8,7.9-34.5,6.8-51.8,3.6c-7.5-1.3-15.1-3.1-21.6-7.2
			c-10.7-6.8-13.9-22.5-14.7-34.2c-0.6-9,0.1-18.1,0-27.2"/>
		<g>
			<rect x="765.6" y="295.5" class="st5" width="235.9" height="173.1"/>
			<g>
				<path class="st3" d="M1002.7,469.8l-119.2,0.2l-59-0.1L795,470c-9.8,0-19.7,0-29.5-0.1l-1.2,0l0-1.2l0.1-10.8l0-10.8l0-21.6
					l0-43.3l0.4-86.6l0-0.6l0.6,0c9.8,0,19.7,0,29.5,0l29.5-0.1l59-0.1l118-0.3l1.2,0l0,1.2l-0.2,86.6L1002.7,469.8z M1000.3,467.4
					l-0.2-85.4l0-21.6l0-21.6l0.2-43.3l1.2,1.2l-235.9,0.1l1.3-1.3l0.3,86.6l-0.3,43.3l-0.2,21.6l-0.1,10.8l0.1,10.8l-1.1-1.1
					c4.9,0,9.8,0,14.7,0l14.7,0.1l29.5,0.1l14.7,0.1c4.9,0,9.8,0,14.7,0l29.5-0.2c9.8-0.1,19.7,0,29.5-0.1l29.5,0L1000.3,467.4z"/>
			</g>
		</g>
		<g>
			<rect x="780" y="308" class="st5" width="207" height="148"/>
			<g>
				<path class="st3" d="M988.2,457.3l-104.7,0.3l-25.9,0l-25.9-0.1l-25.9-0.1l-12.9,0c-4.3,0-8.6-0.1-12.9-0.1l-1.2,0l0-1.1
					l0.1-9.3l0-9.3l0-18.5l0-37l0.2-37l0.1-37l0-0.6l0.6,0c8.6,0,17.3,0,25.9,0l25.9-0.1l51.8-0.1l103.5-0.3l1.2,0l0,1.2l-0.1,37
					l-0.1,37L988.2,457.3z M985.8,454.9l-0.2-72.8l0-18.5l0-18.5l0.2-37l1.2,1.2l-207,0.1l1.3-1.3l0.3,74l-0.3,37l-0.2,18.5
					l-0.1,9.3c0,3.1,0,6.2,0,9.3L780,455c4.3,0,8.6-0.1,12.9,0l12.9,0.1l25.9,0.1l12.9,0.1l6.5,0l6.5,0l25.9-0.2
					c8.6-0.1,17.3,0,25.9-0.1l25.9,0L985.8,454.9z"/>
			</g>
		</g>
		<path class="st2" d="M927.5,399.2c5.4-0.8,10.7-2.1,15.8-3.8c7.6-2.5,15-5.7,21.3-10.6c6.3-4.9,11.5-11.5,13.6-19.2
			c2.6-9.4,0.1-18.5-1.4-27.8c-1.1-7.3-4.1-14.2-10.5-18.5c-5-3.4-11.2-4.4-17.2-4.9c-10.5-0.9-21.1-0.6-31.5,1.1
			c-16.9,2.7-33,7.6-50.1,8.5c-8.5,0.4-15.9-0.2-24.3-1.9c-8-1.6-16.3-3.4-24.4-1.7c-8.6,1.8-16,7.5-20.9,14.7
			c-4.9,7.2-7.4,15.9-8.1,24.6c-0.9,11.1,15,17.1,23.7,18c9.8,0.9,19.6-1.1,29.5-0.9c7,0.1,13.9,1.4,20.4,3.8
			c13.5,4.8,25.2,14.1,39.1,17.7C910.7,400.4,919.2,400.4,927.5,399.2z"/>
		<path class="st2" d="M835.6,390.5c-10.1,0.7-20.2,5-26.9,12.7c-6.7,7.7-9.6,18.7-6.7,28.4c1,3.2,2.6,6.3,5.1,8.5
			c3.2,2.9,7.6,4.1,11.8,5.1c10.4,2.6,21.5,5.1,31.7,1.7c9.9-3.3,18.8-11.6,26.7-18.2c4.1-3.4,8.2-7.9,8.2-13.2
			c0-4.6-3-8.6-6.4-11.8C867.7,393,850.9,389.5,835.6,390.5z"/>
		<path class="st82" d="M829.4,414.5c10.7,2.3,22.2,0.7,31.8-4.5c1.8-1,3.9-2.8,3.2-4.7c-0.8-2.2-4-2-6.2-1.1
			c-3.4,1.4-7.1,4.8-5.6,8.2c0.7,1.5,2.2,2.4,3.6,3.1c6.1,2.9,13.2,3.5,19.6,1.6c4.7-1.3,8.9-3.8,13.2-5.9s9-4,13.8-4
			c4.8,0.1,9.9,2.4,11.9,6.8c0.7,1.4,1,3.2,0.4,4.6s-2.3,2.5-3.8,2c-2-0.7-2.3-3.5-1.1-5.2c1.2-1.7,3.3-2.5,5.3-3
			c14.4-3.8,29.6-0.6,44.4-2c1.4-0.1,3-0.4,4-1.4"/>
		<path class="st82" d="M838.8,426.6c30-0.6,60.1-1.3,90.1-1.9"/>
		<path class="st82" d="M840.5,434.3c32-1.2,64-2,96-2.3"/>
		<path class="st5" d="M810.2,337.2c-1.4,2.7-2.2,5.9-1.1,8.8c1.5,4,6.2,6,10.5,6.5c6.6,0.7,16.1-1.3,16.8-9.4c0.2-2-0.3-4-0.9-5.8
			c-0.7-2.2-1.6-4.3-3.2-5.9C825.2,324,814.2,329.5,810.2,337.2z"/>
		<path class="st5" d="M903,332.9c0.6,0.5,1.4,0.6,2.1,0.8c1.5,0.3,3.1,0.6,4.6,0.1c3.2-0.9,4.6-5.7,1.8-7.8c-1.4-1-3.2-1.2-4.9-0.9
			C903.7,325.7,899.5,330.1,903,332.9z"/>
		<path class="st5" d="M924,334.1c0,1.3,0.1,2.6,0.7,3.7c1.1,2.1,3.5,3.1,5.9,3.4c4.4,0.7,9.4-0.9,11.5-4.7
			c2.2-4.1,0.5-8.3-2.3-11.5c-1-1.1-2.1-2.3-3.5-2.6c-1.5-0.4-3,0.1-4.4,0.7C926.7,324.9,924.1,328.6,924,334.1z"/>
		<path class="st5" d="M952.3,342.5c0.1,1.2,0.3,2.3,0.7,3.4c1.1,2.3,3.4,3.8,5.9,4.1c2.5,0.3,5-0.6,7-2.1c3.6-2.7,3.5-8.5,1-11.9
			c-1.4-1.9-3.7-3.2-6.1-3.3C955.1,332.4,952,337.4,952.3,342.5z"/>
	</g>
	<g>
		<path class="st2" d="M1000.7,678.2c-1.7,7.6-5.3,13.5-13.4,15.2c-5.2,1.1-10.7,0.7-15.8,2.1c-10.5,2.9-17.6,12.5-26.8,18.5
			c-11.4,7.4-26.5,8.7-38.9,3.4c-5.6-2.4-10.7-5.7-16.3-8.2c-4-1.8-7.5-4.5-12.1-4.5c-12.7,0-24.7,8.3-36.2,12.7
			c-12.1,4.6-25.2,6.3-38.1,5c-5.2-0.5-10.4-1.6-15.1-3.9c-7.1-3.5-12.6-9.7-16-16.7s-4.9-15-5.3-22.8"/>
		<g>
			<rect x="765.6" y="505.2" class="st5" width="235.9" height="173.1"/>
			<g>
				<path class="st3" d="M1002.7,679.5l-119.2,0.2l-59-0.1l-29.5-0.1c-9.8-0.1-19.7,0-29.5-0.1l-1.2,0l0-1.2l0.1-10.8l0-10.8l0-21.6
					l0-43.3l0.4-86.6l0-0.6l0.6,0c9.8,0,19.7,0,29.5,0l29.5-0.1l59-0.1l118-0.3l1.2,0l0,1.2l-0.2,86.6L1002.7,679.5z M1000.3,677.1
					l-0.2-85.4l0-21.6l0-21.6l0.2-43.3l1.2,1.2l-235.9,0.1l1.3-1.3l0.3,86.6l-0.3,43.3l-0.2,21.6l-0.1,10.8l0.1,10.8l-1.1-1.1
					c4.9-0.1,9.8,0,14.7,0l14.7,0.1l29.5,0.1l14.7,0.1c4.9,0,9.8,0,14.7,0l29.5-0.2c9.8-0.1,19.7,0,29.5-0.1l29.5,0L1000.3,677.1z"
					/>
			</g>
		</g>
		<g>
			<rect x="780" y="517.7" class="st5" width="207" height="148"/>
			<g>
				<path class="st3" d="M988.2,667l-104.7,0.3l-25.9,0l-25.9-0.1l-25.9-0.1l-12.9,0c-4.3,0-8.6-0.1-12.9-0.1l-1.2,0l0-1.1l0.1-9.3
					l0-9.3l0-18.5l0-37l0.2-37l0.1-37l0-0.6l0.6,0c8.6,0,17.3,0,25.9,0l25.9-0.1l51.8-0.1l103.5-0.3l1.2,0l0,1.2l-0.1,37l-0.1,37
					L988.2,667z M985.8,664.6l-0.2-72.8l0-18.5l0-18.5l0.2-37l1.2,1.2L780,519l1.3-1.3l0.3,74l-0.3,37l-0.2,18.5l-0.1,9.3
					c0,3.1,0,6.2,0,9.3l-1.1-1.1c4.3,0,8.6-0.1,12.9,0l12.9,0.1l25.9,0.1l12.9,0.1l6.5,0l6.5,0l25.9-0.2c8.6-0.1,17.3,0,25.9-0.1
					l25.9,0L985.8,664.6z"/>
			</g>
		</g>
		<path class="st2" d="M809.3,527.4c-4.3,0-8.6,2.3-10.9,5.9c-1.4,2.2-2.1,4.8-2.4,7.3c-0.8,5.5,0.3,11.8,4.8,15.2
			c4.4,3.3,10.7,2.6,15.7,0.3c3-1.4,5.7-3.4,7.7-6.1c3.2-4.5,1.8-11.1-1.4-15.2C819.7,531.2,814.1,527.5,809.3,527.4z"/>
		<path class="st2" d="M804.9,574.2c-2.4,0.2-4.8,0.7-6.9,2c-2.1,1.3-3.7,3.4-4,5.8c-0.4,3.2,1.7,6.3,4.5,8c2.8,1.6,6.2,1.9,9.4,1.8
			c5.8-0.3,20.5-4.1,14.3-12.9c-1.4-2.1-4.2-2.7-6.7-3.2C811.9,574.9,808.6,574.2,804.9,574.2z"/>
		<path class="st2" d="M799.7,601.5c-2.2,1.8-3.9,4.9-2.7,7.5c0.9,1.7,2.8,2.6,4.7,3c3.1,0.7,6.4,0.6,9.6,0.1
			c4.8-0.9,7.9-1.3,9.3-6.7c0.5-1.8,0.6-3.9-0.8-5.1C814.9,595.9,804.3,597.6,799.7,601.5z"/>
		<path class="st2" d="M797.5,630.2c-0.2,1.2-0.3,2.5,0.3,3.6c0.9,1.6,2.9,2.2,4.8,2.4c6.3,0.4,15.3-4,14.9-11.5
			c-0.1-2.4-2.7-4.1-5.1-4.1C805.6,620.6,799.1,622.2,797.5,630.2z"/>
		<path class="st2" d="M877.3,650.3c11.9,1.2,23.1-8.7,28.1-18.8c2.6-5.1,3.9-10.7,5.2-16.3c1.8-7.7,3.7-15.5,4-23.4
			c0.5-11.5-2.2-22.8-6-33.6c-3.2-9.3-6.1-19.6-16.3-23.3c-11-4-24.2-1.2-32.5,7c-5.1,5-8.4,11.7-11.3,18.3
			c-4.4,10-8.4,20.4-9.8,31.2s-0.1,22.3,5.4,31.8c4.5,7.6,11.4,13.4,18.1,19.1C866.9,645.9,871.6,649.7,877.3,650.3z"/>
		<path class="st2" d="M928.9,572.8c-0.1,2.8-0.1,5.7,1,8.3c1,2.7,3.1,4.8,4.3,7.4c1.2,2.6,1.6,5.7,3.6,7.8c2.3,2.5,6.1,2.9,9.5,2.6
			c5.5-0.5,10.9-2.5,14.9-6.3c4.3-4.1,6.6-9.9,8.2-15.6c1.9-6.6,3.1-13.5,2.2-20.3c-0.9-7-6.1-19.3-13.4-21.8
			c-3.7-1.3-7.7-0.8-11.4,0.6C931.7,541.2,929.3,557.9,928.9,572.8z"/>
		<path class="st2" d="M928.9,631.3c-0.1,4.4,0.4,8.9,2.1,12.9c1.7,4,4.8,7.6,8.8,9.4c4.7,2.1,10.2,1.4,15-0.4c5-1.9,9.6-5.2,12-9.9
			c5.6-10.9-1.4-21.8-8.4-29.9c-1.1-1.3-2.3-2.6-3.8-3.5c-1.9-1.1-4.1-1.3-6.3-1.5C934.8,607.1,929.1,619.4,928.9,631.3z"/>
	</g>
	<g>
		<g>
			<path class="st0" d="M1467.1,128.3l-17.4,0.2c-5.8,0.1-11.6,0.1-17.4,0.1c-2.9,0-5.8,0-8.7-0.1l-8.7-0.1c-1.5,0-2.9,0-4.4-0.1
				c-1.4-0.1-2.9-0.1-4.4-0.1l-8.7,0h0c-0.6,0-1-0.5-1-1l0-7c0-2.3,0.1-4.7,0.1-7c0.1-4.7,0.2-9.3,0.2-14l0,0c0-0.3,0.3-0.6,0.6-0.6
				h0c1.5,0,2.9,0,4.4,0l4.4,0l8.7-0.1l17.4-0.2l17.4-0.2l4.4-0.1l4.4,0c2.9,0,5.8,0.1,8.7,0.1l0,0c0.6,0,1,0.5,1,1l0,3.5
				c0,1.2,0,2.3,0,3.5l0.1,7l0.1,14C1468.3,127.8,1467.8,128.3,1467.1,128.3L1467.1,128.3L1467.1,128.3z M1465.9,125.9l-0.1-12.8
				l-0.1-7l0-7l1.4,1.4c-2.9,0-5.8-0.1-8.7-0.2l-4.4-0.1l-4.4,0l-17.4,0l-17.4,0l-8.7,0c-2.9,0-5.8,0-8.7,0l1.3-1.3
				c0.1,4.7,0.2,9.3,0.2,14l0,3.5c0,1.2,0,2.3,0,3.5l-0.1,3.5c0,1.2-0.1,2.3-0.1,3.5l-1.4-1.4l8.7,0.3c1.4,0.1,2.9,0.1,4.4,0
				c0.7,0,1.5,0,2.2,0l2.2,0l8.7,0.2l4.4,0.1c1.5,0,2.9,0,4.4,0l4.4-0.1c1.5,0,2.9-0.1,4.4-0.1l8.7,0L1465.9,125.9z"/>
		</g>
		<g>
			<path class="st0" d="M1344.2,68.2l24.6-0.2l12.3-0.1l12.3,0l12.3,0.1l6.1,0.1l3.1,0l3.1,0.1c2,0.1,4.1,0.1,6.1,0.1l6.1,0l12.3,0
				c0.5,0,1,0.4,1,1c0,2.3-0.1,4.7-0.1,7l-0.1,7l-0.2,14l0,0c0,0.3-0.3,0.6-0.6,0.6h0c-2,0-4.1,0-6.1,0l-6.1,0l-12.3,0.1l-24.6,0.2
				l-24.6,0.2c-4.1,0-8.2,0-12.3-0.1l-12.3-0.1c-0.5,0-1-0.4-1-1l-0.2-27.9C1343,68.8,1343.6,68.2,1344.2,68.2L1344.2,68.2
				L1344.2,68.2z M1345.5,70.6l0.2,26.7l-1.4-1.4c4.1,0,8.2,0,12.3,0l12.3,0.2l24.6,0l24.6,0l12.3,0l6.1,0c2,0,4.1,0,6.1,0l-1.3,1.3
				l-0.2-14l-0.1-7c0-2.3-0.1-4.7,0-7l1.5,1.5l-12.3-0.2l-6.1-0.2l-3.1-0.1c-1,0-2,0-3.1,0l-3.1,0.1l-3.1-0.1l-6.1-0.1l-12.3-0.2
				c-2,0-4.1,0.1-6.1,0.1l-6.1,0.1c-2,0.1-4.1,0.1-6.1,0.1l-6.1,0L1345.5,70.6z"/>
		</g>
		<g>
			<path class="st0" d="M1445.7,68.2l24.6-0.2l12.3-0.1l12.3,0l12.3,0.1l6.1,0.1l3.1,0l3.1,0.1c2,0.1,4.1,0.1,6.1,0.1l6.1,0l12.3,0
				c0.5,0,1,0.4,1,1c0,2.3-0.1,4.7-0.1,7l-0.1,7l-0.2,14v0c0,0.3-0.3,0.6-0.6,0.6h0c-2,0-4.1,0-6.1,0l-6.1,0l-12.3,0.1l-24.6,0.2
				l-24.6,0.2c-4.1,0-8.2,0-12.3-0.1l-12.3-0.1c-0.5,0-1-0.4-1-1l-0.2-27.9C1444.5,68.8,1445.1,68.2,1445.7,68.2L1445.7,68.2
				L1445.7,68.2z M1446.9,70.6l0.2,26.7l-1.4-1.4c4.1,0,8.2,0,12.3,0l12.3,0.2l24.6,0l24.6,0l12.3,0l6.1,0c2,0,4.1,0,6.1,0l-1.3,1.3
				l-0.2-14l-0.1-7c0-2.3-0.1-4.7,0-7l1.5,1.5l-12.3-0.2l-6.1-0.2l-3.1-0.1c-1,0-2,0-3.1,0l-3.1,0.1l-3.1-0.1l-6.1-0.1l-12.3-0.2
				c-2,0-4.1,0.1-6.1,0.1l-6.1,0.1c-2,0.1-4.1,0.1-6.1,0.1l-6.1,0L1446.9,70.6z"/>
		</g>
		<g>
			<path class="st0" d="M1393.4,38.5l24.6-0.2l12.3-0.1l12.3,0l12.3,0.1l6.1,0.1l3.1,0l3.1,0.1c2,0.1,4.1,0.1,6.1,0.1l6.1,0l12.3,0
				c0.5,0,1,0.4,1,1c0,2.3-0.1,4.7-0.1,7l-0.1,7l-0.2,14l0,0c0,0.3-0.3,0.6-0.6,0.6h0c-2,0-4.1,0-6.1,0l-6.1,0l-12.3,0.1l-24.6,0.2
				l-24.6,0.2c-4.1,0-8.2,0-12.3-0.1l-12.3-0.1c-0.5,0-1-0.4-1-1l-0.2-27.9C1392.2,39,1392.7,38.5,1393.4,38.5L1393.4,38.5
				L1393.4,38.5z M1394.6,40.9l0.2,26.7l-1.4-1.4c4.1,0,8.2,0,12.3,0l12.3,0.2l24.6,0l24.6,0l12.3,0l6.1,0c2,0,4.1,0,6.1,0l-1.3,1.3
				l-0.2-14l-0.1-7c0-2.3-0.1-4.7,0-7l1.5,1.5l-12.3-0.2l-6.1-0.2l-3.1-0.1c-1,0-2,0-3.1,0l-3.1,0.1l-3.1-0.1l-6.1-0.1l-12.3-0.2
				c-2,0-4.1,0.1-6.1,0.1l-6.1,0.1c-2,0.1-4.1,0.1-6.1,0.1l-6.1,0L1394.6,40.9z"/>
		</g>
	</g>
	<g>
		<g>
			<path class="st0" d="M1185.9,779.5l-23.5,0.2l-11.8,0.1l-11.8,0l-11.8-0.1l-5.9-0.1c-2,0-3.9,0-5.9-0.1c-2-0.1-3.9-0.1-5.9-0.1
				l-5.9,0l-11.8,0c-0.5,0-1-0.4-1-1c0-2.3,0-4.7,0.1-7l0.1-7l0.2-14l0,0c0-0.3,0.3-0.6,0.6-0.6h0c2,0,3.9,0,5.9,0l5.9,0l11.8-0.1
				l23.5-0.2l23.5-0.2l5.9,0l5.9,0.1c3.9,0.1,7.8,0.1,11.8,0.1h0c0.5,0,1,0.4,1,1v0c0,2.3,0,4.7,0,7l0.1,7l0.1,14
				C1187.1,779,1186.6,779.5,1185.9,779.5L1185.9,779.5L1185.9,779.5z M1184.7,777.1l-0.2-26.7l1.4,1.4c-3.9,0-7.8,0.1-11.8,0
				l-11.8-0.2l-23.5,0l-23.5,0l-11.8,0l-5.9,0c-2,0-3.9,0-5.9,0l1.3-1.3l0.2,14l0.1,7c0,2.3,0.1,4.7,0,7l-1.5-1.5
				c3.9,0,7.8,0.2,11.8,0.3l5.9,0.2c2,0.1,3.9,0.1,5.9,0c2-0.1,3.9,0,5.9,0l5.9,0.1l11.8,0.2c3.9,0,7.8-0.2,11.8-0.2
				c2-0.1,3.9,0,5.9-0.1l5.9,0L1184.7,777.1z"/>
		</g>
		<g>
			<path class="st0" d="M1136.1,719.5l24.6-0.2l12.3-0.1l12.3,0l12.3,0.1l6.1,0.1l3.1,0l3.1,0.1c2,0.1,4.1,0.1,6.1,0.1l6.1,0l12.3,0
				c0.5,0,1,0.4,1,1c0,2.3-0.1,4.7-0.1,7l-0.1,7l-0.2,14l0,0c0,0.3-0.3,0.6-0.6,0.6h0c-2,0-4.1,0-6.1,0l-6.1,0l-12.3,0.1l-24.6,0.2
				l-24.6,0.2c-4.1,0-8.2,0-12.3-0.1l-12.3-0.1c-0.5,0-1-0.4-1-1l-0.2-27.9C1134.9,720,1135.4,719.5,1136.1,719.5L1136.1,719.5
				L1136.1,719.5z M1137.3,721.9l0.2,26.7l-1.4-1.4c4.1,0,8.2,0,12.3,0l12.3,0.2l24.6,0l24.6,0l12.3,0l6.1,0c2,0,4.1,0,6.1,0
				l-1.3,1.3l-0.2-14l-0.1-7c0-2.3-0.1-4.7,0-7l1.5,1.5l-12.3-0.2l-6.1-0.2l-3.1-0.1c-1,0-2,0-3.1,0l-3.1,0.1l-3.1-0.1l-6.1-0.1
				l-12.3-0.2c-2,0-4.1,0.1-6.1,0.1l-6.1,0.1c-2,0.1-4.1,0.1-6.1,0.1l-6.1,0L1137.3,721.9z"/>
		</g>
		<g>
			<path class="st0" d="M1087.7,689.7l24.6-0.2l12.3-0.1l12.3,0l12.3,0.1l6.1,0.1l3.1,0l3.1,0.1c2,0.1,4.1,0.1,6.1,0.1l6.1,0l12.3,0
				c0.5,0,1,0.4,1,1c0,2.3-0.1,4.7-0.1,7l-0.1,7l-0.2,14l0,0c0,0.3-0.3,0.6-0.6,0.6h0c-2,0-4.1,0-6.1,0l-6.1,0l-12.3,0.1l-24.6,0.2
				l-24.6,0.2c-4.1,0-8.2,0-12.3-0.1l-12.3-0.1c-0.5,0-1-0.4-1-1l-0.2-27.9C1086.5,690.2,1087,689.7,1087.7,689.7L1087.7,689.7
				L1087.7,689.7z M1088.9,692.1l0.2,26.7l-1.4-1.4c4.1,0,8.2,0,12.3,0l12.3,0.2l24.6,0l24.6,0l12.3,0l6.1,0c2,0,4.1,0,6.1,0
				l-1.3,1.3l-0.2-14l-0.1-7c0-2.3-0.1-4.7,0-7l1.5,1.5l-12.3-0.2l-6.1-0.2l-3.1-0.1c-1,0-2,0-3.1,0l-3.1,0.1l-3.1-0.1l-6.1-0.1
				l-12.3-0.2c-2,0-4.1,0.1-6.1,0.1l-6.1,0.1c-2,0.1-4.1,0.1-6.1,0.1l-6.1,0L1088.9,692.1z"/>
		</g>
	</g>
	<g>
		<g>
			<path class="st0" d="M558.5,145.5l23.5-0.2l11.8-0.1l11.8,0l11.8,0.1l5.9,0.1c2,0,3.9,0,5.9,0.1c2,0.1,3.9,0.1,5.9,0.1l5.9,0
				l11.8,0c0.5,0,1,0.4,1,1c0,2.3,0,4.7-0.1,7l-0.1,7l-0.2,14l0,0c0,0.3-0.3,0.6-0.6,0.6h0c-2,0-3.9,0-5.9,0l-5.9,0l-11.8,0.1
				l-23.5,0.2l-23.5,0.2l-5.9,0l-5.9-0.1c-3.9-0.1-7.8-0.1-11.8-0.1h0c-0.5,0-1-0.4-1-1v0c0-2.3,0-4.7,0-7l-0.1-7l-0.1-14
				C557.3,146,557.8,145.5,558.5,145.5L558.5,145.5L558.5,145.5z M559.7,147.9l0.2,26.7l-1.4-1.4c3.9,0,7.8-0.1,11.8,0l11.8,0.2
				l23.5,0l23.5,0l11.8,0l5.9,0c2,0,3.9,0,5.9,0l-1.3,1.3l-0.2-14l-0.1-7c0-2.3-0.1-4.7,0-7l1.5,1.5c-3.9,0-7.8-0.2-11.8-0.3
				l-5.9-0.2c-2-0.1-3.9-0.1-5.9,0c-2,0.1-3.9,0-5.9,0l-5.9-0.1l-11.8-0.2c-3.9,0-7.8,0.2-11.8,0.2c-2,0.1-3.9,0-5.9,0.1l-5.9,0
				L559.7,147.9z"/>
		</g>
		<g>
			<path class="st0" d="M608.4,205.6l-24.6,0.2l-12.3,0.1l-12.3,0l-12.3-0.1l-6.1-0.1l-3.1,0l-3.1-0.1c-2-0.1-4.1-0.1-6.1-0.1
				l-6.1,0l-12.3,0c-0.5,0-1-0.4-1-1c0-2.3,0.1-4.7,0.1-7l0.1-7l0.2-14l0,0c0-0.3,0.3-0.6,0.6-0.6h0c2,0,4.1,0,6.1,0l6.1,0l12.3-0.1
				l24.6-0.2l24.6-0.2c4.1,0,8.2,0,12.3,0.1l12.3,0.1c0.5,0,1,0.4,1,1l0.2,27.9C609.6,205,609.1,205.6,608.4,205.6L608.4,205.6
				L608.4,205.6z M607.2,203.2l-0.2-26.7l1.4,1.4c-4.1,0-8.2,0-12.3,0l-12.3-0.2l-24.6,0l-24.6,0l-12.3,0l-6.1,0c-2,0-4.1,0-6.1,0
				l1.3-1.3l0.2,14l0.1,7c0,2.3,0.1,4.7,0,7l-1.5-1.5l12.3,0.2l6.1,0.2l3.1,0.1c1,0,2,0,3.1,0l3.1-0.1l3.1,0.1l6.1,0.1l12.3,0.2
				c2,0,4.1-0.1,6.1-0.1l6.1-0.1c2-0.1,4.1-0.1,6.1-0.1l6.1,0L607.2,203.2z"/>
		</g>
		<g>
			<path class="st0" d="M656.8,235.3l-24.6,0.2l-12.3,0.1l-12.3,0l-12.3-0.1l-6.1-0.1l-3.1,0l-3.1-0.1c-2-0.1-4.1-0.1-6.1-0.1
				l-6.1,0l-12.3,0c-0.5,0-1-0.4-1-1c0-2.3,0.1-4.7,0.1-7l0.1-7l0.2-14v0c0-0.3,0.3-0.6,0.6-0.6h0c2,0,4.1,0,6.1,0l6.1,0l12.3-0.1
				l24.6-0.2l24.6-0.2c4.1,0,8.2,0,12.3,0.1l12.3,0.1c0.5,0,1,0.4,1,1l0.2,27.9C658,234.8,657.5,235.3,656.8,235.3L656.8,235.3
				L656.8,235.3z M655.6,233l-0.2-26.7l1.4,1.4c-4.1,0-8.2,0-12.3,0l-12.3-0.2l-24.6,0l-24.6,0l-12.3,0l-6.1,0c-2,0-4.1,0-6.1,0
				l1.3-1.3l0.2,14l0.1,7c0,2.3,0.1,4.7,0,7l-1.5-1.5l12.3,0.2l6.1,0.2l3.1,0.1c1,0,2,0,3.1,0l3.1-0.1l3.1,0.1l6.1,0.1l12.3,0.2
				c2,0,4.1-0.1,6.1-0.1l6.1-0.1c2-0.1,4.1-0.1,6.1-0.1l6.1,0L655.6,233z"/>
		</g>
	</g>
	<g>
		<rect x="1094.7" y="578.3" class="st0" width="76.6" height="50.3"/>
		<g>
			<g>
				<path class="st70" d="M1105.1,588.3c0,0,0.9,0,2.5-0.1c0.4,0,0.8,0,1.3,0c0.5,0,1,0,1.5-0.1c0.6-0.1,1.1-0.1,1.8-0.2
					c0.6,0,1.3-0.1,1.9-0.1c1.4,0,2.8,0.1,4.4,0.1c1.6,0,3.2,0.1,4.9,0.1c0.8,0,1.7,0.1,2.6,0.1c0.4,0,0.9,0.1,1.3,0.1
					c0.4,0,0.9,0,1.3,0c1.8,0,3.6,0.2,5.4,0.1c1.8,0,3.6,0.2,5.4,0c0.9-0.1,1.8-0.1,2.6-0.1c0.9,0,1.7,0,2.6,0c1.7,0,3.3-0.2,4.9,0
					c1.5,0.1,3,0.1,4.4,0c1.4-0.1,2.6,0.1,3.7,0.1c1.1,0,2.1-0.1,2.8-0.1c1.6-0.1,2.5-0.2,2.5-0.2l0.1,1.6c0,0-0.9,0-2.5,0.1
					c-0.8,0-1.8,0.1-2.9,0.1c-0.6,0-1.1,0.1-1.8,0.2c-0.6,0.1-1.3,0-1.9,0c-1.4,0-2.8-0.1-4.4-0.1c-1.6,0-3.2-0.3-4.9-0.1
					c-1.7,0-3.4,0.3-5.2,0c-1.8-0.3-3.6,0.2-5.4,0.1c-1.8-0.3-3.6,0-5.4-0.2c-0.4,0-0.9-0.1-1.3-0.1c-0.4,0-0.9,0.1-1.3,0.1
					c-0.9,0.1-1.7-0.1-2.6-0.2c-0.8-0.2-1.7,0-2.5-0.1c-0.8-0.1-1.6-0.2-2.4-0.2c-1.6,0-3,0.1-4.4,0.2c-0.7,0-1.3,0.1-1.9,0.1
					c-0.6,0-1.2,0-1.7,0c-1.1-0.1-2,0.2-2.8,0.2c-1.6,0.1-2.5,0.1-2.5,0.1L1105.1,588.3z"/>
			</g>
			<g>
				<path class="st70" d="M1105.4,596.1c0,0,0.8,0,2.2,0c0.4,0,0.8,0,1.2,0c0.4,0.1,0.9,0,1.4,0c0.5-0.1,1-0.1,1.6-0.2
					c0.6,0,1.1-0.1,1.8-0.1c1.2,0,2.6,0.1,4,0.1c1.4,0,2.9,0.1,4.4,0.1c0.8,0,1.5,0.1,2.3,0.1c0.4,0,0.8,0.1,1.2,0.1
					c0.4,0,0.8,0,1.2,0c1.6,0,3.2,0.2,4.9,0.1c1.6,0,3.3,0.2,4.9,0c0.8-0.1,1.6-0.1,2.4-0.1c0.8,0,1.6,0,2.3,0c1.5,0,3-0.2,4.4,0
					c1.4,0.1,2.7,0.1,3.9,0c1.2-0.1,2.3,0.1,3.3,0.1c1,0,1.9-0.1,2.6-0.1c1.4-0.1,2.2-0.1,2.2-0.1l0,1.6c0,0-0.8,0-2.2,0.1
					c-0.7,0-1.6,0-2.6,0.1c-0.5,0-1,0.1-1.6,0.2c-0.6,0-1.1,0-1.8,0c-1.2,0-2.6-0.1-4-0.1c-1.4,0-2.9-0.3-4.4-0.1
					c-1.5,0-3.1,0.3-4.7,0c-1.6-0.3-3.2,0.2-4.9,0.2c-1.6-0.3-3.3,0-4.9-0.1c-0.4,0-0.8,0-1.2-0.1c-0.4,0-0.8,0.1-1.2,0.1
					c-0.8,0.1-1.6-0.1-2.3-0.1c-0.8-0.2-1.5,0-2.2-0.1c-0.7-0.1-1.5-0.2-2.2-0.2c-1.4-0.1-2.7,0.1-3.9,0.2c-0.6,0-1.2,0.1-1.8,0.1
					c-0.6,0-1.1,0-1.6-0.1c-0.5,0-1,0-1.4,0c-0.4,0.1-0.8,0.1-1.2,0.1c-1.4,0.1-2.2,0.1-2.2,0.1L1105.4,596.1z"/>
			</g>
			<g>
				<path class="st70" d="M1105.6,603.7c0,0,0.8,0,2.3-0.1c0.4,0,0.8,0,1.2,0c0.5,0,0.9,0,1.5-0.1c0.5-0.1,1.1-0.2,1.6-0.2
					c0.6,0,1.2-0.1,1.8-0.1c1.3,0,2.7,0,4.1,0c1.5,0,3,0,4.6,0.1c0.8,0,1.6,0.1,2.4,0.1c0.4,0,0.8,0.1,1.2,0.1c0.4,0,0.8,0,1.2,0
					c1.7,0,3.4,0.2,5.1,0.1c1.7,0,3.4,0.2,5.1,0c0.8-0.1,1.7-0.1,2.5-0.1c0.8,0,1.6,0,2.4,0c1.6,0,3.1-0.1,4.6,0
					c1.5,0.1,2.8,0.1,4.1,0.1c0.6,0,1.2,0,1.8,0c0.6,0.1,1.1,0.1,1.6,0.1c1,0,1.9,0,2.7,0c1.5,0,2.3-0.1,2.3-0.1l0,1.6
					c0,0-0.8,0-2.3,0c-0.7,0-1.6,0-2.7,0c-0.5,0-1.1,0.1-1.7,0.1c-0.6,0-1.2,0-1.8,0c-1.3-0.1-2.7-0.2-4.1-0.2c-1.5,0-3-0.3-4.6-0.2
					c-1.6,0-3.2,0.3-4.9,0c-1.7-0.3-3.4,0.2-5.1,0.1c-1.7-0.3-3.4,0-5.1-0.1c-0.4,0-0.8,0-1.2-0.1c-0.4,0-0.8,0.1-1.2,0.1
					c-0.8,0.1-1.6-0.1-2.4-0.1c-0.8-0.2-1.6,0-2.3-0.1c-0.8-0.1-1.5-0.2-2.2-0.2c-1.5,0-2.8,0.1-4.1,0.2c-0.6,0.1-1.2,0.1-1.8,0.1
					c-0.6,0-1.1,0-1.6,0c-0.5,0-1,0-1.4,0.1c-0.4,0.1-0.9,0.1-1.2,0.1c-1.5,0.1-2.3,0.2-2.3,0.2L1105.6,603.7z"/>
			</g>
			<g>
				<path class="st70" d="M1139.3,614.3c0,0,0.3,0,0.8,0c0.1,0,0.3,0,0.4,0c0.2,0.1,0.3,0,0.5,0c0.4-0.2,0.8-0.3,1.2-0.3
					c0.4,0,0.9,0,1.4,0c0.5,0,1,0,1.6,0.1c0.3,0,0.6,0,0.9,0.1c0.3,0.1,0.6,0.1,0.9,0c0.3,0,0.6,0,0.9,0c0.3,0.1,0.6,0,1,0.1
					c0.5,0.1,1.1,0.3,1.7,0.2c0.3-0.1,0.6-0.1,0.9-0.1c0.3,0,0.6,0,0.8,0c0.6,0,1.1-0.2,1.6,0c0.5,0.1,1,0.1,1.4,0.1
					c0.2,0,0.4,0,0.6,0c0.2,0.1,0.4,0.1,0.6,0.1c0.4,0,0.7,0,0.9-0.1c0.5-0.1,0.8-0.1,0.8-0.1l0,1.6c0,0-0.3,0-0.8,0
					c-0.3,0-0.6,0-0.9,0c-0.2,0-0.4,0.1-0.6,0.1c-0.2,0-0.4,0-0.6,0c-0.4-0.1-0.9-0.2-1.4-0.2c-0.5,0-1-0.3-1.6-0.2
					c-0.6,0-1.2,0.3-1.7,0c-0.6-0.4-1.2,0.2-1.9,0c0,0-0.1-0.1-0.2-0.1c-0.1,0-0.3,0-0.4,0c-0.3,0-0.6,0-0.9,0c-0.1,0-0.3,0-0.4,0
					c-0.1,0-0.3,0.1-0.4,0.1c-0.3,0.1-0.6,0-0.9-0.1c-0.1,0-0.3-0.1-0.4-0.1c-0.1,0-0.3,0-0.4,0c-0.3,0-0.5-0.2-0.8-0.2
					c-0.5,0-1,0.1-1.4,0.2c-0.4,0.1-0.8,0.1-1.2,0c-0.2,0-0.4,0-0.5,0.1c-0.2,0.1-0.3,0.1-0.4,0.1c-0.5,0.1-0.8,0.1-0.8,0.1
					L1139.3,614.3z"/>
			</g>
		</g>
	</g>
	<g>
		<rect x="1623" y="644.9" class="st6" width="79.8" height="52.2"/>
		<g>
			<g>
				<path class="st5" d="M1633.3,656.6l3.6-0.1c1.2,0.1,2.4-0.2,3.6-0.3c2.4-0.2,4.8-0.1,7.2-0.2c1.2,0,2.4-0.1,3.6,0
					c1.2,0,2.4,0,3.6,0c1.2,0.1,2.4,0,3.6-0.1c1.2,0,2.4,0,3.6,0c1.2-0.1,2.4-0.1,3.6-0.1c1.2-0.1,2.4,0,3.6-0.3
					c1.2-0.1,2.4-0.2,3.6-0.3c1.2-0.1,2.4-0.1,3.6-0.2c0.6,0,1.2-0.1,1.8-0.1l1.8,0c1.2,0,2.4-0.1,3.6-0.1c1.2-0.1,2.4-0.1,3.6,0
					c1.2,0,2.4-0.1,3.6-0.2l1.8-0.1l-1.3,1.4l-1.6,1.6l-1.1-1.1l1.7-1.6l0.6,1.4c-1.2,0.1-2.4,0.1-3.6,0.2c-0.6,0.1-1.2,0.2-1.8,0.2
					c-0.6,0-1.2,0-1.8,0c-1.2,0-2.4,0-3.6,0l-1.8,0l-1.8-0.1c-1.2,0-2.4,0.1-3.6,0.2c-1.2,0.1-2.4,0.2-3.6,0.2
					c-1.2-0.3-2.4,0-3.6,0.1c-1.2,0.2-2.4,0.3-3.6,0.2c-1.2,0-2.4,0.1-3.6,0.1c-1.2,0-2.4-0.1-3.6,0.2c-1.2,0.1-2.4-0.1-3.6-0.1
					c-1.2,0.1-2.4,0-3.6-0.1c-0.6,0-1.2,0-1.8,0c-0.6,0-1.2,0.1-1.8,0.1c-1.2,0.1-2.4,0.2-3.6,0.3c-1.2,0-2.4-0.1-3.6,0.1l-3.6,0.2
					L1633.3,656.6z"/>
			</g>
			<g>
				<path class="st5" d="M1634.5,665.3c0,0,0.8,0,2.2,0c0.7-0.1,1.5,0.1,2.5,0c0.5-0.1,1-0.1,1.5-0.2c0.5,0,1.1-0.1,1.7-0.1
					c1.2,0,2.5,0,3.8,0c1.4,0,2.8,0,4.3,0.1c0.7,0,1.5,0,2.3,0.1c0.8,0.1,1.5,0.1,2.3,0c1.6,0,3.2,0.1,4.7,0
					c1.6-0.1,3.2,0.1,4.7-0.1c0.8-0.1,1.6-0.1,2.3-0.2c0.8,0,1.5-0.1,2.3-0.1c1.5,0,2.9-0.2,4.3-0.1c1.4,0.1,2.7,0,3.8,0
					c0.6,0,1.2-0.1,1.7,0c0.5,0,1.1,0.1,1.5,0.1c1,0,1.8-0.1,2.5-0.1c1.4-0.1,2.2-0.1,2.2-0.1l0,1.6c0,0-0.8,0-2.2,0.1
					c-0.7,0-1.5,0.1-2.5,0.1c-0.5,0-1,0.1-1.5,0.2c-0.5,0.1-1.1,0-1.7,0c-1.2,0-2.5-0.1-3.8-0.1c-1.4,0.1-2.8-0.2-4.3-0.1
					c-1.5,0.1-3,0.4-4.6,0.2c-1.6-0.3-3.1,0.3-4.7,0.3c-1.6-0.2-3.2,0.1-4.7,0c-0.4,0-0.8,0-1.2,0c-0.4,0-0.8,0.1-1.2,0.1
					c-0.8,0.1-1.5,0-2.3-0.1c-0.4,0-0.7-0.1-1.1-0.1c-0.4,0-0.7,0-1.1,0c-0.7-0.1-1.4-0.2-2.1-0.2c-1.4,0-2.7,0.1-3.8,0.2
					c-0.6,0.1-1.2,0.1-1.7,0.1c-0.5,0-1.1,0-1.5-0.1c-0.5,0-0.9,0-1.4,0.1c-0.4,0.1-0.8,0.1-1.1,0.1c-1.4,0.1-2.2,0.1-2.2,0.1
					L1634.5,665.3z"/>
			</g>
			<g>
				<path class="st5" d="M1635.7,673.9c0,0,0.8,0,2.2-0.1c0.7-0.1,1.6,0.1,2.6-0.1c0.5-0.1,1-0.2,1.6-0.2c0.6-0.1,1.1-0.1,1.7-0.1
					c1.2,0,2.5,0,3.9,0c1.4,0,2.9,0,4.4,0c0.8,0,1.5,0,2.3,0.1c0.4,0,0.8,0,1.2,0c0.4,0,0.8,0,1.2,0c1.6-0.1,3.2,0.1,4.9,0
					c1.6-0.1,3.3,0.1,4.9-0.1c0.8-0.1,1.6-0.1,2.4-0.2c0.8,0,1.6-0.1,2.3-0.1c1.5,0,3-0.2,4.4-0.1c1.4,0.1,2.7,0.1,3.9,0
					c0.6,0,1.2,0,1.8,0c0.6,0.1,1.1,0.1,1.6,0.1c1,0,1.9,0,2.6-0.1c1.4,0,2.2-0.1,2.2-0.1l0,1.6c0,0-0.8,0-2.2,0c-0.7,0-1.6,0-2.6,0
					c-0.5,0-1,0.1-1.6,0.1c-0.6,0-1.1,0-1.7,0c-1.2,0-2.5-0.1-3.9-0.1c-1.4,0-2.9-0.3-4.4-0.1c-1.5,0.1-3.1,0.3-4.7,0.1
					c-1.6-0.3-3.2,0.3-4.8,0.3c-1.6-0.2-3.2,0.1-4.8,0c-0.4,0-0.8,0-1.2,0c-0.4,0-0.8,0.1-1.2,0.1c-0.8,0.1-1.6,0-2.3-0.1
					c-0.8-0.1-1.5,0-2.2-0.1c-0.7,0-1.5-0.1-2.2-0.1c-1.4,0-2.7,0.2-3.9,0.3c-0.6,0.1-1.2,0.1-1.7,0.1c-0.6,0-1.1,0-1.6,0
					c-0.5,0-1,0-1.4,0.1c-0.4,0.1-0.8,0.1-1.2,0.1c-1.4,0.1-2.2,0.2-2.2,0.2L1635.7,673.9z"/>
			</g>
			<g>
				<path class="st5" d="M1672.7,684.1c0,0,0.3-0.1,0.8-0.2c0.1,0,0.3-0.1,0.4,0c0.2,0,0.3,0,0.5-0.1c0.2-0.1,0.3-0.2,0.5-0.3
					c0.2-0.1,0.4-0.1,0.6-0.1c0.4-0.1,0.9-0.1,1.4-0.1c0.5-0.1,1-0.1,1.6,0c0.3,0,0.5,0,0.8,0.1l0.4,0c0.1,0,0.3,0,0.4,0
					c0.6-0.1,1.1,0.1,1.7,0c0.6,0,1.1,0.1,1.7,0c0.3-0.1,0.6-0.1,0.8-0.1c0.3,0,0.6,0,0.8,0c0.5,0,1.1-0.1,1.6,0
					c0.5,0.2,1,0.1,1.4,0.2c0.2,0,0.4,0,0.6,0.1c0.2,0.1,0.4,0.2,0.5,0.2c0.3,0,0.7,0,0.9,0.1c0.5,0,0.8,0,0.8,0l-0.3,1.6
					c0,0-0.3,0-0.8-0.1c-0.2,0-0.5-0.1-0.9-0.1c-0.2,0-0.4,0-0.6,0.1c-0.2,0-0.4,0-0.6-0.1c-0.4-0.1-0.9-0.2-1.3-0.3
					c-0.5,0-1-0.3-1.5-0.2c-0.5,0-1.1,0.3-1.6,0c-0.1-0.1-0.3-0.1-0.4-0.1c-0.1,0-0.3,0.1-0.4,0.1c-0.3,0.1-0.6,0.2-0.8,0.2
					c-0.6-0.2-1.1,0-1.7,0c-0.1,0-0.3,0-0.4,0c-0.1,0-0.3,0.1-0.4,0.1c-0.3,0.1-0.5,0-0.8-0.1c-0.1,0-0.3-0.1-0.4,0
					c-0.1,0-0.3,0-0.4,0c-0.3,0-0.5-0.2-0.8-0.1c-0.5,0-0.9,0.2-1.3,0.3c-0.4,0.2-0.8,0.2-1.1,0.2c-0.2,0-0.3,0-0.5,0.1
					c-0.1,0.1-0.3,0.1-0.4,0.1c-0.5,0.2-0.8,0.2-0.8,0.2L1672.7,684.1z"/>
			</g>
		</g>
	</g>
	<g>
		<rect x="782.2" y="653.9" class="st6" width="70" height="45.8"/>
		<g>
			<g>
				<path class="st5" d="M791.3,664.1c1,0,2.1-0.1,3.1-0.1c1.1,0.1,2.1-0.1,3.1-0.3c2.1-0.2,4.2-0.1,6.3-0.2c1,0,2.1-0.1,3.1,0
					c1,0,2.1,0,3.1,0c1.1,0.1,2.1,0,3.1,0c1,0,2.1,0,3.1,0c1-0.1,2.1-0.1,3.1-0.1c1,0,2.1,0,3.1-0.2c1-0.1,2.1-0.2,3.1-0.2
					c1-0.1,2.1-0.1,3.1-0.2c0.5,0,1-0.1,1.6-0.1l1.6,0c1,0,2.1-0.1,3.1-0.1c0.5,0,1-0.1,1.6-0.1l1.6,0.1c1,0,2.1-0.1,3.1-0.2
					l1.8-0.1l-1.3,1.4l-1.4,1.4l-1.1-1.1l1.4-1.4l0.6,1.4c-1,0.1-2.1,0.1-3.1,0.2c-0.5,0.1-1,0.1-1.6,0.2c-0.5,0-1,0-1.6,0
					c-1,0-2.1,0-3.1,0l-1.6,0l-1.6-0.1c-1,0-2.1,0.1-3.1,0.2c-1,0.1-2.1,0.2-3.1,0.2c-1.1-0.3-2.1-0.1-3.1,0.1
					c-1,0.2-2.1,0.3-3.1,0.2c-1,0-2.1,0.1-3.1,0.1c-1,0-2.1-0.1-3.1,0.2c-1,0.1-2.1-0.1-3.1-0.1c-1,0.1-2.1,0-3.1-0.1
					c-2.1-0.1-4.2,0.4-6.3,0.4c-1,0-2.1-0.1-3.1,0.1c-1,0.1-2.1,0.1-3.1,0.2L791.3,664.1z"/>
			</g>
			<g>
				<path class="st5" d="M792.3,671.7c0,0,0.7,0,1.9,0c0.6-0.1,1.4,0.1,2.2,0c0.8-0.2,1.8-0.3,2.8-0.3c1,0,2.2,0,3.4,0
					c1.2,0,2.5,0,3.8,0.1c0.7,0,1.3,0,2,0.1c0.7,0.1,1.4,0.1,2,0c1.4,0,2.8,0.1,4.2,0c1.4-0.1,2.8,0.1,4.2-0.1
					c0.7-0.1,1.4-0.1,2-0.2c0.7,0,1.3-0.1,2-0.1c1.3,0,2.6-0.2,3.8-0.1c1.2,0.1,2.3,0,3.4,0c0.5,0,1-0.1,1.5,0
					c0.5,0,0.9,0.1,1.4,0.1c0.8,0,1.6-0.1,2.2-0.1c1.2-0.1,1.9-0.1,1.9-0.1l0,1.6c0,0-0.7,0-1.9,0.1c-0.6,0-1.3,0-2.2,0.1
					c-0.4,0-0.9,0.1-1.3,0.2c-0.5,0.1-1,0-1.5,0c-1,0-2.2-0.1-3.4-0.1c-1.2,0-2.5-0.2-3.8-0.1c-1.3,0.1-2.6,0.4-4,0.2
					c-1.4-0.3-2.8,0.3-4.1,0.3c-1.4-0.2-2.8,0.1-4.2,0c-0.3,0-0.7,0-1,0c-0.3,0-0.7,0.1-1,0.1c-0.7,0.1-1.3,0-2-0.1
					c-0.3,0-0.7-0.1-1-0.1c-0.3,0-0.6,0-1,0c-0.6,0-1.2-0.2-1.8-0.2c-1.2,0-2.3,0.1-3.4,0.2c-0.5,0.1-1,0.1-1.5,0.1
					c-0.5,0-0.9,0-1.4-0.1c-0.8-0.1-1.6,0.2-2.2,0.2c-1.2,0.1-1.9,0.1-1.9,0.1L792.3,671.7z"/>
			</g>
			<g>
				<path class="st5" d="M793.4,679.2c0,0,0.7,0,2-0.1c0.6-0.1,1.4,0.1,2.2-0.1c0.4-0.1,0.9-0.2,1.4-0.2c0.5-0.1,1-0.1,1.5-0.1
					c1.1,0,2.2,0,3.5,0c1.2,0,2.5,0,3.9,0c0.7,0,1.3,0,2,0.1c0.3,0,0.7,0,1,0.1l1,0c1.4,0,2.8,0.1,4.3,0c1.4-0.1,2.9,0.1,4.3-0.1
					c0.7-0.1,1.4-0.1,2.1-0.2c0.7,0,1.4-0.1,2-0.1c1.3,0,2.6-0.2,3.9-0.1c1.2,0.1,2.4,0.1,3.5,0c0.5,0,1,0,1.5,0
					c0.5,0.1,0.9,0.1,1.4,0.1c0.9,0,1.6,0,2.3-0.1c1.2,0,2-0.1,2-0.1l0,1.6c0,0-0.7,0-2,0c-0.6,0-1.4,0-2.2,0
					c-0.4,0-0.9,0.1-1.4,0.1c-0.5,0-1,0-1.5,0c-1.1,0-2.2-0.1-3.4-0.1c-1.2,0-2.5-0.3-3.8-0.1c-1.3,0-2.7,0.3-4.1,0.1
					c-1.4-0.3-2.8,0.3-4.2,0.3c-1.4-0.2-2.8,0.1-4.2,0c-0.4,0-0.7,0-1,0c-0.3,0-0.7,0.1-1,0.1c-0.7,0.1-1.4,0-2-0.1
					c-0.7-0.1-1.3,0-2-0.1c-0.6,0-1.3-0.2-1.9-0.2c-1.2,0-2.4,0.2-3.4,0.3c-0.5,0.1-1,0.1-1.5,0.1c-0.5,0-0.9,0-1.4,0
					c-0.4,0-0.8,0-1.2,0.1c-0.4,0.1-0.7,0.1-1,0.1c-1.2,0.1-2,0.2-2,0.2L793.4,679.2z"/>
			</g>
			<g>
				<path class="st5" d="M825.8,688.1c0,0,0.2-0.1,0.7-0.1c0.1,0,0.2-0.1,0.4,0c0.1,0,0.3,0,0.4-0.1c0.1-0.1,0.3-0.2,0.5-0.3
					c0.2-0.1,0.3-0.1,0.5-0.1c0.4-0.1,0.8-0.1,1.2-0.1c0.4,0,0.9-0.1,1.4,0c0.2,0,0.5,0,0.7,0.1l0.4,0c0.1,0,0.2,0,0.4,0
					c0.5-0.1,1,0.1,1.5,0c0.5,0,1,0.1,1.5,0c0.2-0.1,0.5-0.1,0.7-0.1c0.2,0,0.5,0,0.7,0c0.5,0,0.9-0.1,1.4,0
					c0.4,0.2,0.8,0.1,1.2,0.1c0.2,0,0.4,0,0.5,0.1c0.2,0.1,0.3,0.2,0.5,0.2c0.3,0,0.6,0,0.8,0c0.4,0,0.7,0,0.7,0l-0.3,1.6
					c0,0-0.2,0-0.7-0.1c-0.2,0-0.5-0.1-0.8-0.1c-0.1,0-0.3,0-0.5,0.1c-0.2,0-0.3,0-0.5-0.1c-0.4-0.1-0.7-0.2-1.2-0.2
					c-0.4,0-0.8-0.3-1.3-0.2c-0.5,0-0.9,0.3-1.4,0c-0.1-0.1-0.2-0.1-0.4-0.1c-0.1,0-0.2,0.1-0.4,0.1c-0.2,0.1-0.5,0.2-0.7,0.2
					c-0.5-0.2-1,0-1.5,0c-0.1,0-0.2,0-0.4,0c-0.1,0-0.2,0.1-0.3,0.1c-0.2,0.1-0.5,0-0.7-0.1c-0.1,0-0.2-0.1-0.3,0
					c-0.1,0-0.2,0-0.3,0c-0.2,0-0.5-0.2-0.7-0.1c-0.4,0-0.8,0.2-1.2,0.3c-0.3,0.2-0.7,0.2-1,0.1c-0.2,0-0.3,0-0.4,0.1
					c-0.1,0.1-0.2,0.1-0.3,0.1c-0.4,0.1-0.7,0.2-0.7,0.2L825.8,688.1z"/>
			</g>
		</g>
	</g>
	<g>
		<rect x="782.2" y="442.7" class="st6" width="70" height="45.8"/>
		<g>
			<g>
				<path class="st5" d="M791.3,452.9c1,0,2.1-0.1,3.1-0.1c1.1,0.1,2.1-0.1,3.1-0.3c2.1-0.2,4.2-0.1,6.3-0.2c1,0,2.1-0.1,3.1,0
					c1,0,2.1,0,3.1,0c1.1,0.1,2.1,0,3.1,0c1,0,2.1,0,3.1,0c1-0.1,2.1-0.1,3.1-0.1c1,0,2.1,0,3.1-0.2c1-0.1,2.1-0.2,3.1-0.2
					c1-0.1,2.1-0.1,3.1-0.2c0.5,0,1-0.1,1.6-0.1l1.6,0c1,0,2.1-0.1,3.1-0.1c0.5,0,1-0.1,1.6-0.1l1.6,0.1c1,0,2.1-0.1,3.1-0.2
					l1.8-0.1l-1.3,1.4l-1.4,1.4l-1.1-1.1l1.4-1.4l0.6,1.4c-1,0.1-2.1,0.1-3.1,0.2c-0.5,0.1-1,0.1-1.6,0.2c-0.5,0-1,0-1.6,0
					c-1,0-2.1,0-3.1,0l-1.6,0L829,453c-1,0-2.1,0.1-3.1,0.2c-1,0.1-2.1,0.2-3.1,0.2c-1.1-0.3-2.1-0.1-3.1,0.1
					c-1,0.2-2.1,0.3-3.1,0.2c-1,0-2.1,0.1-3.1,0.1c-1,0-2.1-0.1-3.1,0.2c-1,0.1-2.1-0.1-3.1-0.1c-1,0.1-2.1,0-3.1-0.1
					c-2.1-0.1-4.2,0.4-6.3,0.4c-1,0-2.1-0.1-3.1,0.1c-1,0.1-2.1,0.1-3.1,0.2L791.3,452.9z"/>
			</g>
			<g>
				<path class="st5" d="M792.3,460.5c0,0,0.7,0,1.9,0c0.6-0.1,1.4,0.1,2.2,0c0.8-0.2,1.8-0.3,2.8-0.3c1,0,2.2,0,3.4,0
					c1.2,0,2.5,0,3.8,0.1c0.7,0,1.3,0,2,0.1c0.7,0.1,1.4,0.1,2,0c1.4,0,2.8,0.1,4.2,0c1.4-0.1,2.8,0.1,4.2-0.1
					c0.7-0.1,1.4-0.1,2-0.2c0.7,0,1.3-0.1,2-0.1c1.3,0,2.6-0.2,3.8-0.1c1.2,0.1,2.3,0,3.4,0c0.5,0,1-0.1,1.5,0
					c0.5,0,0.9,0.1,1.4,0.1c0.8,0,1.6-0.1,2.2-0.1c1.2-0.1,1.9-0.1,1.9-0.1l0,1.6c0,0-0.7,0-1.9,0.1c-0.6,0-1.3,0-2.2,0.1
					c-0.4,0-0.9,0.1-1.3,0.2c-0.5,0.1-1,0-1.5,0c-1,0-2.2-0.1-3.4-0.1c-1.2,0-2.5-0.2-3.8-0.1c-1.3,0.1-2.6,0.4-4,0.2
					c-1.4-0.3-2.8,0.3-4.1,0.3c-1.4-0.2-2.8,0.1-4.2,0c-0.3,0-0.7,0-1,0c-0.3,0-0.7,0.1-1,0.1c-0.7,0.1-1.3,0-2-0.1
					c-0.3,0-0.7-0.1-1-0.1c-0.3,0-0.6,0-1,0c-0.6,0-1.2-0.2-1.8-0.2c-1.2,0-2.3,0.1-3.4,0.2c-0.5,0.1-1,0.1-1.5,0.1
					c-0.5,0-0.9,0-1.4-0.1c-0.8-0.1-1.6,0.2-2.2,0.2c-1.2,0.1-1.9,0.1-1.9,0.1L792.3,460.5z"/>
			</g>
			<g>
				<path class="st5" d="M793.4,468c0,0,0.7,0,2-0.1c0.6-0.1,1.4,0.1,2.2-0.1c0.4-0.1,0.9-0.2,1.4-0.2c0.5-0.1,1-0.1,1.5-0.1
					c1.1,0,2.2,0,3.5,0c1.2,0,2.5,0,3.9,0c0.7,0,1.3,0,2,0.1c0.3,0,0.7,0,1,0.1l1,0c1.4,0,2.8,0.1,4.3,0c1.4-0.1,2.9,0.1,4.3-0.1
					c0.7-0.1,1.4-0.1,2.1-0.2c0.7,0,1.4-0.1,2-0.1c1.3,0,2.6-0.2,3.9-0.1c1.2,0.1,2.4,0.1,3.5,0c0.5,0,1,0,1.5,0
					c0.5,0.1,0.9,0.1,1.4,0.1c0.9,0,1.6,0,2.3-0.1c1.2,0,2-0.1,2-0.1l0,1.6c0,0-0.7,0-2,0c-0.6,0-1.4,0-2.2,0
					c-0.4,0-0.9,0.1-1.4,0.1c-0.5,0-1,0-1.5,0c-1.1,0-2.2-0.1-3.4-0.1c-1.2,0-2.5-0.3-3.8-0.1c-1.3,0-2.7,0.3-4.1,0.1
					c-1.4-0.3-2.8,0.3-4.2,0.3c-1.4-0.2-2.8,0.1-4.2,0c-0.4,0-0.7,0-1,0c-0.3,0-0.7,0.1-1,0.1c-0.7,0.1-1.4,0-2-0.1
					c-0.7-0.1-1.3,0-2-0.1c-0.6,0-1.3-0.2-1.9-0.2c-1.2,0-2.4,0.2-3.4,0.3c-0.5,0.1-1,0.1-1.5,0.1c-0.5,0-0.9,0-1.4,0
					c-0.4,0-0.8,0-1.2,0.1c-0.4,0.1-0.7,0.1-1,0.1c-1.2,0.1-2,0.2-2,0.2L793.4,468z"/>
			</g>
			<g>
				<path class="st5" d="M825.8,477c0,0,0.2-0.1,0.7-0.1c0.1,0,0.2-0.1,0.4,0c0.1,0,0.3,0,0.4-0.1c0.1-0.1,0.3-0.2,0.5-0.3
					c0.2-0.1,0.3-0.1,0.5-0.1c0.4-0.1,0.8-0.1,1.2-0.1c0.4,0,0.9-0.1,1.4,0c0.2,0,0.5,0,0.7,0.1l0.4,0c0.1,0,0.2,0,0.4,0
					c0.5-0.1,1,0.1,1.5,0c0.5,0,1,0.1,1.5,0c0.2-0.1,0.5-0.1,0.7-0.1c0.2,0,0.5,0,0.7,0c0.5,0,0.9-0.1,1.4,0
					c0.4,0.2,0.8,0.1,1.2,0.1c0.2,0,0.4,0,0.5,0.1c0.2,0.1,0.3,0.2,0.5,0.2c0.3,0,0.6,0,0.8,0c0.4,0,0.7,0,0.7,0l-0.3,1.6
					c0,0-0.2,0-0.7-0.1c-0.2,0-0.5-0.1-0.8-0.1c-0.1,0-0.3,0-0.5,0.1c-0.2,0-0.3,0-0.5-0.1c-0.4-0.1-0.7-0.2-1.2-0.2
					c-0.4,0-0.8-0.3-1.3-0.2c-0.5,0-0.9,0.3-1.4,0c-0.1-0.1-0.2-0.1-0.4-0.1c-0.1,0-0.2,0.1-0.4,0.1c-0.2,0.1-0.5,0.2-0.7,0.2
					c-0.5-0.2-1,0-1.5,0c-0.1,0-0.2,0-0.4,0c-0.1,0-0.2,0.1-0.3,0.1c-0.2,0.1-0.5,0-0.7-0.1c-0.1,0-0.2-0.1-0.3,0
					c-0.1,0-0.2,0-0.3,0c-0.2,0-0.5-0.2-0.7-0.1c-0.4,0-0.8,0.2-1.2,0.3c-0.3,0.2-0.7,0.2-1,0.1c-0.2,0-0.3,0-0.4,0.1
					c-0.1,0.1-0.2,0.1-0.3,0.1c-0.4,0.1-0.7,0.2-0.7,0.2L825.8,477z"/>
			</g>
		</g>
	</g>
	<g>
		<rect x="782.2" y="230.3" class="st6" width="70" height="45.8"/>
		<g>
			<g>
				<path class="st5" d="M791.3,240.5c1,0,2.1-0.1,3.1-0.1c1.1,0.1,2.1-0.1,3.1-0.3c2.1-0.2,4.2-0.1,6.3-0.2c1,0,2.1-0.1,3.1,0
					c1,0,2.1,0,3.1,0c1.1,0.1,2.1,0,3.1,0c1,0,2.1,0,3.1,0c1-0.1,2.1-0.1,3.1-0.1c1,0,2.1,0,3.1-0.2c1-0.1,2.1-0.2,3.1-0.2
					c1-0.1,2.1-0.1,3.1-0.2c0.5,0,1-0.1,1.6-0.1l1.6,0c1,0,2.1-0.1,3.1-0.1c0.5,0,1-0.1,1.6-0.1l1.6,0.1c1,0,2.1-0.1,3.1-0.2
					l1.8-0.1l-1.3,1.4l-1.4,1.4l-1.1-1.1l1.4-1.4l0.6,1.4c-1,0.1-2.1,0.1-3.1,0.2c-0.5,0.1-1,0.1-1.6,0.2c-0.5,0-1,0-1.6,0
					c-1,0-2.1,0-3.1,0l-1.6,0l-1.6-0.1c-1,0-2.1,0.1-3.1,0.2c-1,0.1-2.1,0.2-3.1,0.2c-1.1-0.3-2.1-0.1-3.1,0.1
					c-1,0.2-2.1,0.3-3.1,0.2c-1,0-2.1,0.1-3.1,0.1c-1,0-2.1-0.1-3.1,0.2c-1,0.1-2.1-0.1-3.1-0.1c-1,0.1-2.1,0-3.1-0.1
					c-2.1-0.1-4.2,0.4-6.3,0.4c-1,0-2.1-0.1-3.1,0.1c-1,0.1-2.1,0.1-3.1,0.2L791.3,240.5z"/>
			</g>
			<g>
				<path class="st5" d="M792.3,248.1c0,0,0.7,0,1.9,0c0.6-0.1,1.4,0.1,2.2,0c0.8-0.2,1.8-0.3,2.8-0.3c1,0,2.2,0,3.4,0
					c1.2,0,2.5,0,3.8,0.1c0.7,0,1.3,0,2,0.1c0.7,0.1,1.4,0.1,2,0c1.4,0,2.8,0.1,4.2,0c1.4-0.1,2.8,0.1,4.2-0.1
					c0.7-0.1,1.4-0.1,2-0.2c0.7,0,1.3-0.1,2-0.1c1.3,0,2.6-0.2,3.8-0.1c1.2,0.1,2.3,0,3.4,0c0.5,0,1-0.1,1.5,0
					c0.5,0,0.9,0.1,1.4,0.1c0.8,0,1.6-0.1,2.2-0.1c1.2-0.1,1.9-0.1,1.9-0.1l0,1.6c0,0-0.7,0-1.9,0.1c-0.6,0-1.3,0-2.2,0.1
					c-0.4,0-0.9,0.1-1.3,0.2c-0.5,0.1-1,0-1.5,0c-1,0-2.2-0.1-3.4-0.1c-1.2,0-2.5-0.2-3.8-0.1c-1.3,0.1-2.6,0.4-4,0.2
					c-1.4-0.3-2.8,0.3-4.1,0.3c-1.4-0.2-2.8,0.1-4.2,0c-0.3,0-0.7,0-1,0c-0.3,0-0.7,0.1-1,0.1c-0.7,0.1-1.3,0-2-0.1
					c-0.3,0-0.7-0.1-1-0.1c-0.3,0-0.6,0-1,0c-0.6,0-1.2-0.2-1.8-0.2c-1.2,0-2.3,0.1-3.4,0.2c-0.5,0.1-1,0.1-1.5,0.1
					c-0.5,0-0.9,0-1.4-0.1c-0.8-0.1-1.6,0.2-2.2,0.2c-1.2,0.1-1.9,0.1-1.9,0.1L792.3,248.1z"/>
			</g>
			<g>
				<path class="st5" d="M793.4,255.6c0,0,0.7,0,2-0.1c0.6-0.1,1.4,0.1,2.2-0.1c0.4-0.1,0.9-0.2,1.4-0.2c0.5-0.1,1-0.1,1.5-0.1
					c1.1,0,2.2,0,3.5,0c1.2,0,2.5,0,3.9,0c0.7,0,1.3,0,2,0.1c0.3,0,0.7,0,1,0.1l1,0c1.4,0,2.8,0.1,4.3,0c1.4-0.1,2.9,0.1,4.3-0.1
					c0.7-0.1,1.4-0.1,2.1-0.2c0.7,0,1.4-0.1,2-0.1c1.3,0,2.6-0.2,3.9-0.1c1.2,0.1,2.4,0.1,3.5,0c0.5,0,1,0,1.5,0
					c0.5,0.1,0.9,0.1,1.4,0.1c0.9,0,1.6,0,2.3-0.1c1.2,0,2-0.1,2-0.1l0,1.6c0,0-0.7,0-2,0c-0.6,0-1.4,0-2.2,0
					c-0.4,0-0.9,0.1-1.4,0.1c-0.5,0-1,0-1.5,0c-1.1,0-2.2-0.1-3.4-0.1c-1.2,0-2.5-0.3-3.8-0.1c-1.3,0-2.7,0.3-4.1,0.1
					c-1.4-0.3-2.8,0.3-4.2,0.3c-1.4-0.2-2.8,0.1-4.2,0c-0.4,0-0.7,0-1,0c-0.3,0-0.7,0.1-1,0.1c-0.7,0.1-1.4,0-2-0.1
					c-0.7-0.1-1.3,0-2-0.1c-0.6,0-1.3-0.2-1.9-0.2c-1.2,0-2.4,0.2-3.4,0.3c-0.5,0.1-1,0.1-1.5,0.1c-0.5,0-0.9,0-1.4,0
					c-0.4,0-0.8,0-1.2,0.1c-0.4,0.1-0.7,0.1-1,0.1c-1.2,0.1-2,0.2-2,0.2L793.4,255.6z"/>
			</g>
			<g>
				<path class="st5" d="M825.8,264.5c0,0,0.2-0.1,0.7-0.1c0.1,0,0.2-0.1,0.4,0c0.1,0,0.3,0,0.4-0.1c0.1-0.1,0.3-0.2,0.5-0.3
					c0.2-0.1,0.3-0.1,0.5-0.1c0.4-0.1,0.8-0.1,1.2-0.1c0.4,0,0.9-0.1,1.4,0c0.2,0,0.5,0,0.7,0.1l0.4,0c0.1,0,0.2,0,0.4,0
					c0.5-0.1,1,0.1,1.5,0c0.5,0,1,0.1,1.5,0c0.2-0.1,0.5-0.1,0.7-0.1c0.2,0,0.5,0,0.7,0c0.5,0,0.9-0.1,1.4,0
					c0.4,0.2,0.8,0.1,1.2,0.1c0.2,0,0.4,0,0.5,0.1c0.2,0.1,0.3,0.2,0.5,0.2c0.3,0,0.6,0,0.8,0c0.4,0,0.7,0,0.7,0l-0.3,1.6
					c0,0-0.2,0-0.7-0.1c-0.2,0-0.5-0.1-0.8-0.1c-0.1,0-0.3,0-0.5,0.1c-0.2,0-0.3,0-0.5-0.1c-0.4-0.1-0.7-0.2-1.2-0.2
					c-0.4,0-0.8-0.3-1.3-0.2c-0.5,0-0.9,0.3-1.4,0c-0.1-0.1-0.2-0.1-0.4-0.1c-0.1,0-0.2,0.1-0.4,0.1c-0.2,0.1-0.5,0.2-0.7,0.2
					c-0.5-0.2-1,0-1.5,0c-0.1,0-0.2,0-0.4,0c-0.1,0-0.2,0.1-0.3,0.1c-0.2,0.1-0.5,0-0.7-0.1c-0.1,0-0.2-0.1-0.3,0
					c-0.1,0-0.2,0-0.3,0c-0.2,0-0.5-0.2-0.7-0.1c-0.4,0-0.8,0.2-1.2,0.3c-0.3,0.2-0.7,0.2-1,0.1c-0.2,0-0.3,0-0.4,0.1
					c-0.1,0.1-0.2,0.1-0.3,0.1c-0.4,0.1-0.7,0.2-0.7,0.2L825.8,264.5z"/>
			</g>
		</g>
	</g>
	<g>
		<path class="st0" d="M1582.1,968.7c-0.5,8.5-1.4,17-2.6,25.5c-0.4,2.5-1,5.3-3.2,6.5c-1.3,0.7-2.9,0.7-4.3,0.6
			c-5.4-0.3-10.8-0.7-16.2-1.3c-0.4,0-0.9-0.1-1.2-0.5c-0.2-0.3-0.2-0.7-0.2-1.1c1.2-10.5,2.3-21.1,3.5-31.6"/>
		<path class="st0" d="M1625.7,917.1c7.2,9.4,15.2,18.2,23.9,26.4c-4.5,8.1-8.9,16.2-13.4,24.3c-0.3,0.6-0.7,1.2-1.3,1.4
			c-1,0.4-2-0.6-2.7-1.4c-5.1-6.5-9.9-13.2-14.4-20.1c-1-1.5-2-3.4-1.3-5"/>
		<path class="st9" d="M1456.7,518c-7.1,41.9-17.3,81.4-27.8,122.5c-10.4,40.5-17.7,81.2-20.4,122.9c-0.1,1.6-0.2,3.3,0.3,4.9
			c0.6,1.8,2,3.1,3.4,4.3c68.3,62.4,131.6,131.9,206.5,186.1c3.2-2.6,25.3-29.9,22.1-34c-24.1-31.2-48.5-62.1-72.6-93.3
			c-21.4-27.7-45.9-53.7-64.6-83.4c-1.3-2.1-2.6-4.3-2.5-6.7c0.1-1.8,0.9-3.4,1.7-5c24.2-48.4,65.6-93.9,75.4-148
			c4-22.1,4.4-44.8,5.8-67.2"/>
		<path class="st22" d="M1563.6,626.2c-25.6,26-52.8,51-81.7,73.3c-4.5,3.5-9.6,9-6.9,14c2.7,5,12.3,6.3,11.1,11.9
			c-8.2-1.9-17,6.2-15.7,14.5c5.9-0.6,13.7,0.1,15.1,5.8c0.8,3.2-1,6.4-1,9.7c-0.1,9,9.8,10.8,15.2,15.6
			c8.4,7.5,11.7,15.7,18.2,24.8c12.6,17.5,29.5,33,43.8,49.2c6.9,7.9,14.6,16.2,24.8,18.2c6.1-18-9.7-35.3-23.4-48.5
			c-18.5-17.9-35.7-37.3-51.2-57.9c-3.9-5.2-7.9-10.9-8-17.5c-0.1-5.9,3-11.3,6-16.4c20-33.2,42.5-65,67.2-94.9"/>
		<path class="st10" d="M1647.8,540.5c1.2,58.1-6,115.3-14.8,172.6c-6.7,44.3-13.5,88.7-20.2,133c-7,45.7-21.1,89.3-28.1,134.6
			c-9.6,0.4-19.2,0.8-28.9,1.1c-1.1,0-2.3,0.1-3.2-0.6c-1.1-0.8-1.3-2.2-1.5-3.5c-9-66.6-17.6-133.4-13.4-200.8
			c1.7-27.2,1.8-54.4,0.2-81.6c-2.6-45.5-1-91.1-5.1-136.6"/>
		<path class="st33" d="M1378.1,437.1c-19.4-9.6-42.3-9.8-62.2-20.8c-5.4-3-11.7-6.3-17.3-3.8c-2.4,1.1-4.3,3.2-6,5.2
			c-2.5,2.8-4.8,7.4-1.9,9.8c1.2,1,2.8,1.1,4.3,1.3c8.5,1.3,14.5,7.9,18.7,14.8c9.2,15.3,20.6,27,34.1,38.5
			c10.8,9.3,25.4,21.5,40,23.5c31.8,4.4,20.5-43.7,8.3-57.3c-2.8-3.2-6.6-5.3-10.3-7.3C1383.1,439.6,1380.6,438.3,1378.1,437.1z"/>
		<path class="st12" d="M1589.2,992.7c-3.5-3.7-25.9,2.4-33.5-0.6c-3.3-1.3-6.4-3.1-9.8-3.9c-11.5-2.9-37.2,10.5-44.4,20
			c-2.1,2.8-3,6.8-1.2,9.8c20-0.2,40-0.4,60-0.6c12-0.1,23.9-0.2,35.9-0.3C1598,1008.6,1595.3,999.1,1589.2,992.7z"/>
		<g>
			<g>
				<path class="st12" d="M1695.6,1019.7c0,0-1.2,0-3.4,0c-1.1,0-2.5,0-4.1-0.1c-1.6-0.1-3.5-0.1-5.6-0.1c-1,0-2.2,0.1-3.3,0.2
					c-1.2,0-2.4,0-3.6-0.1c-1.3-0.1-2.6-0.2-3.9-0.2c-1.4,0-2.8,0-4.2,0.1c-2.9,0.1-6,0.2-9.3,0.4c-1.6,0-3.3,0.1-5,0.1
					c-1.7,0-3.5-0.1-5.3-0.2c-1.8-0.1-3.6-0.1-5.5,0c-1.9,0.1-3.8,0.2-5.7,0.2c-3.9-0.1-7.9-0.2-12-0.4c-4.1-0.1-8.3-0.1-12.7,0.2
					c-1.1,0-2.2,0.1-3.3,0c-1.1-0.1-2.2-0.2-3.3-0.2c-1.1-0.1-2.2,0-3.3,0.1c-1.1,0.1-2.2,0-3.4,0c-4.5-0.1-9.1-0.1-13.7-0.2
					c-2.3,0-4.6,0-7,0c-1.2,0-2.3,0-3.5,0c-1.2,0-2.3-0.1-3.5-0.2c-2.4-0.2-4.7-0.3-7.1,0c-2.4,0.2-4.8,0.1-7.1,0
					c-2.4-0.1-4.8-0.3-7.2-0.3c-2.4,0-4.8,0-7.2,0.1c-4.8,0.1-9.6,0-14.3,0c-2.4,0-4.8-0.1-7.1-0.1c-2.4-0.1-4.7,0.1-7.1,0.2
					c-4.7,0.2-9.4,0.3-14,0.5c-2.3,0-4.6,0.1-6.9,0.1c-1.1,0-2.3,0-3.4,0c-1.1-0.1-2.3-0.1-3.4-0.2c-4.5-0.2-8.9,0.1-13.2,0.2
					c-2.2,0-4.3,0.2-6.4,0.2c-2.1-0.1-4.2-0.2-6.3-0.1c-2.1,0-4.1,0.1-6.1,0.1c-2,0-4-0.1-5.9-0.3c-3.9-0.3-7.6,0.2-11.2-0.1
					c-3.6-0.4-7,0.4-10.3,0.1c-3.3-0.2-6.4-0.3-9.3-0.3c-1.5,0-2.9,0.1-4.2,0.1c-0.7,0-1.4,0-2,0c-0.7,0-1.3,0-1.9,0
					c-2.5-0.1-4.8-0.2-6.9-0.1c-2.1,0.1-4,0.2-5.6,0.3c-1.6,0-3,0.1-4.1,0.1c-1.1,0-2,0-2.6,0c-0.6,0-0.9,0-0.9,0v-2.4
					c0,0,0.3,0,0.9,0c0.6,0,1.4,0,2.6,0c1.1,0,2.5,0,4.1,0c1.6,0,3.5,0.1,5.6,0.2c2.1,0.1,4.4,0,6.9-0.2c2.5-0.2,5.3,0,8.2,0.1
					c2.9,0,6-0.2,9.3-0.4c1.6-0.1,3.3-0.1,5,0.1c1.7,0.3,3.5,0.3,5.3,0.1c3.6-0.4,7.3,0.4,11.2,0.1c3.9-0.4,7.9-0.2,12,0
					c2.1,0.1,4.1,0,6.3-0.1c2.1,0,4.2,0.1,6.4,0.1c4.3,0.1,8.7,0.4,13.2,0c1.1-0.1,2.2-0.2,3.4-0.2c1.1,0,2.3-0.1,3.4-0.1
					c2.3,0,4.6,0,6.9,0c2.3,0,4.6,0.1,7,0.1c2.3,0,4.7,0.1,7,0.3c2.4,0.2,4.7,0.3,7.1,0.2c2.4-0.1,4.8-0.2,7.1-0.3
					c4.8-0.1,9.6-0.3,14.3-0.2c2.4,0.1,4.8,0.3,7.2,0.3c1.2,0,2.4-0.1,3.6-0.1l3.6-0.3c1.2-0.1,2.4-0.2,3.6-0.2
					c1.2-0.1,2.4,0,3.6,0.2c2.4,0.5,4.7,0.4,7.1,0c1.2-0.2,2.4-0.2,3.5-0.3c1.2-0.1,2.3,0,3.5,0c2.3,0.1,4.7,0.1,7,0.2
					c4.6,0,9.2,0.1,13.7,0.1c1.1,0,2.2,0,3.4,0.1c1.1,0.2,2.2,0.3,3.3,0.2c1.1,0,2.2-0.2,3.3-0.2c1.1,0,2.2,0,3.3,0
					c4.3,0.3,8.5,0.3,12.7,0.4c4.1,0,8.1,0,12-0.1c1.9,0,3.8,0,5.7,0.1c1.9,0,3.7,0,5.5-0.1c7.2-0.5,13.8,0,19.6,0
					c1.5,0,2.9,0.1,4.2,0.1c1.4,0,2.7-0.1,3.9-0.2c1.3-0.1,2.5-0.1,3.6-0.1c1.2,0,2.3,0.1,3.3,0.1c2.1,0,4-0.1,5.6-0.1
					c1.6-0.1,3-0.1,4.1-0.1c2.2,0,3.4-0.1,3.4-0.1V1019.7z"/>
			</g>
		</g>
		<path class="st12" d="M1651.7,930.4c-5,1.2-10.8,23.7-17.2,28.8c-2.8,2.2-5.8,4-8.3,6.6c-8.2,8.6-9.4,37.5-4.7,48.4
			c1.4,3.2,4.4,6,7.9,5.9c9.8-17.5,19.6-34.9,29.4-52.4c5.8-10.4,11.7-20.8,17.5-31.3C1669.8,930.6,1660.2,928.2,1651.7,930.4z"/>
		<path class="st33" d="M1597.1,234c-0.1,10.4-0.9,21.2-6.6,30.3c-2.9,4.7-6.9,8.6-10.3,13c-12.5,16.1-16.8,38.1-11.4,57.7
			c1.5,5.4,3.5,11.8,0,16.3c-2.3,2.9-6.2,3.8-9.8,4.3c-13.9,1.9-28.4,0-41.4-5.5c-1.2-0.5-2.4-1.1-3-2.2c-0.7-1.4-0.2-3.1,0.4-4.6
			c5.9-15.4,11.8-30.7,17.6-46.1c7.1-18.7-16.4-28.2-16.1-48.7c0.2-12.1,0.4-24.3,0.5-36.4c0.1-8.1,0.4-16.7,5-23.3
			c6.3-9.2,18.7-11.7,29.8-11.8c14.3-0.2,24.2,4,35.4,12.9c3.7,2.9,7.5,6.1,9.1,10.5c1,2.7,0.9,5.7,0.9,8.6
			C1597.2,217.3,1597.1,225.7,1597.1,234z"/>
		<polygon class="st11" points="1547.1,229.1 1537.2,244.4 1555.6,244.6 		"/>
		<path class="st5" d="M1466.1,290.2c-10,4.2-19.7,9.2-29.2,13.4c-3.4,1.5-6.9,3.1-9.5,5.8c-3.9,4.1-5.1,10-6.2,15.6
			c-7.5,38.3-18.4,75.8-32.7,112.1c-1-6.3-10.6-8.9-14.6-4c-0.6,0.7,2.9,14.3,3,16.4c0.2,6.2-0.6,12.6-2.4,18.5
			c-3.9,12.8-12,15.8-19.1,25.1c-1.7,2.2-2.1,5.7-0.1,7.7c2.5,2.5,6.3,1,9.2,2.5c2.6,1.4,4.1,4.2,6.5,5.5c7.8,4.5,6.1,2,14.1,0.3
			c1.8-0.4,3.6,0.4,5.2,1.2c6.3,3,12.6,6,18.8,8.9c1.4,0.7,3.1,1.4,4.6,0.9c1-0.3,1.7-1.1,2.4-1.9c7.4-8.1,14-17.2,20.9-25.5
			c4.7-5.7,19.6-21.4,19.7-28.8c-0.2,14.5,2.7,29.6,0.3,43.8c-3.5,21-8.6,39.9-17.7,59.1c12.7,2.5,25.2,6.5,37,11.8
			c1.6,0.7,27.3,14.1,27.5,12.9c2.5-16.1,5.3-32.1,7.4-48.2c3,13.7,7.2,27.1,12.6,39.9c2.6,6.1,5.7,12.4,11.3,15.8
			c3.6,2.2,7.9,3,12,3.7c20.5,3.5,41.1,6.4,61.8,8.6c-0.2-10.2-0.3-20.4-0.5-30.6c-0.1-6-0.1-12.3,3-17.4
			c7.1-11.8,24.7-3.7,31.4,4.1c2.1,2.4,4.2,5,5.1,8.1c0.8,2.8,0.5,5.8,0.2,8.7c-1,8.9-0.9,17.8-1.9,26.7c-0.3,2.3,12.3-7.6,12.9-8.6
			c5.6-8.8,3.7-20.2,1.6-30.4c-3.2-15.6-4.4-48.1,19.3-47.6c22.9,0.5,33.7-15.6,34.8-37.5c0.2-4.5-0.1-9.6-3.5-12.5
			c-1-0.9-2.4-1.5-3-2.7c-1.7-3.4,0.6-9.3-1.4-12.6c-2.9-5.1-8.9-2.5-10.1-8.8c-4.8-25.7-10.2-54.3-10.2-80.6
			c-0.6-8.3-0.8-16.6-2.9-24.7c-4.9-19.6-20.5-32.8-37.1-42.9c-12.8-7.8-25.4-17.5-39.8-22.3c-9.7-3.2-18.5-0.3-28.1,0.7
			c-2.7,0.3-22.5,0.4-22.5,0.6c-5.2,18.6-10.3,37.5-16.2,56c-2.8-14.7-1.1-30.1-3.4-44.4c-1.8-11.5-9.6-11.7-19.1-11.3
			c-4.7,0.2-9.5-0.6-14.2-0.6C1490.6,281.2,1478.2,285.1,1466.1,290.2z"/>
		<path class="st12" d="M1534.2,294.9c-11.7-0.9-23.7-5-27.7-16.6c-0.5-1.5-0.9-3.1-0.7-4.7c0.2-1.6,1.1-3.1,2.6-3.8
			c0.9-0.4,1.8-0.4,2.8-0.5c3.1-0.4,5-2.4,6.5-5.2c2.5-4.6,0-6.9-3.3-9.4c-2.2-1.7-4.2-4-4.7-6.8c-0.5-2.8,1.1-6,3.8-6.6
			c0.6,1.9,2.3,3.4,4.2,4.2c1.9,0.8,4,1,6,1.1c3.2,0.2,6.4,0.1,9.4-1c2.6-1,4.7-2.8,7.1-4.2c6.3-3.5,13.1,0.6,19.1,3.1
			c6,2.5,12.2,4.5,18.7,2.4c9.6-3.1,17.8-8.1,18-18.6c0-0.7,0-1.5-0.4-2.2c-0.5-0.8-1.4-1.1-2.2-1.5c-12.1-6.4,4.2-22.3-5.2-30.8
			c-3.8-3.4-9.7-2.9-14.7-1.7c-13.5,3.2-26,9.9-39.5,12.9s-29.5,1.6-38.5-8.9c-3-3.4-5.1-7.9-4.8-12.4c0.3-4.5,3.3-9,7.7-10.2
			c3.9-1,8.4,0.5,11.7-1.6c2.6-1.6,3.6-4.9,5.7-7c4.2-4.2,11.1-3,16.9-2c12.8,2.1,22.1-8.6,33.9-12.2c11.6-3.5,26.5,0.2,28.2,13.8
			c31.3-1.6,22.8,38.9,16.2,55.9c-3.3,8.6-17.4,25.7-11.1,34.7c0.7,1,1.6,1.9,2.2,3c2.3,3.9,0.1,8.9-2.4,12.7
			c-12.3,18.9-33,22.9-54.5,24.1C1541.7,295.2,1537.9,295.2,1534.2,294.9z"/>
		<path class="st33" d="M1697.9,512c-1.6,2.9-3.6,5.6-5.7,8.2c-6.8,8.5-14.4,16.3-22.7,23.3c-7.5,6.4-15.7,12.3-21.8,20.1
			c-9.1,11.8-3.9,23.5-9.6,35.4c-9.4-7.4-17-17.1-21.9-28c-0.8-1.8-1.6-3.7-1.7-5.6c-0.1-2,0.5-3.9,1.1-5.8
			c7.8-25.9,13.5-54.1,29.1-76.7c14.5-20.9,61.8-3.5,55.8,22.6C1699.9,507.8,1699,509.9,1697.9,512z"/>
		<path class="st33" d="M1317.5,418.8c-2.7-6.4-9-11.1-15.8-12c-11.9-1.7-22.8,7.2-34.8,8.3c-9.5,0.9-19.2-3.3-28.6-1.6
			c8.8,17.7,31.2,27.4,50.1,21.5c7.1-2.2,13.7-6.3,21.1-7.3"/>
	</g>
	<g>
		<g>
			<path class="st3" d="M690.9,902.8c0,0,1.4,0,3.8-0.1c1.2,0,2.7-0.1,4.4-0.1c1.7,0,3.6-0.1,5.7-0.1c1,0,2.1,0,3.3,0
				c1.1,0,2.3,0.1,3.5,0.1c1.2,0,2.4,0.1,3.7,0.1c0.6,0,1.3,0.1,1.9,0.1c0.6,0.1,1.3,0.1,1.9,0.1c2.6,0,5.3,0,8.1,0.1
				c1.4,0.1,2.8,0.1,4.1,0.2l2.1,0.1l2.1,0c2.8,0,5.6-0.1,8.3-0.2c2.7-0.1,5.4-0.1,8.1-0.2c2.6-0.1,5.1-0.1,7.5-0.2
				c2.4-0.1,4.7,0,6.7,0.1c2.1,0.1,4,0.1,5.7,0.1c1.7,0,3.2-0.1,4.4-0.1c1.2,0,2.2-0.1,2.8-0.1c0.7,0,1,0,1,0v2.4c0,0-1.4,0-3.8,0.1
				c-2.4,0-5.9,0.2-10.1,0.1c-2.1-0.1-4.4-0.2-6.7-0.2c-2.4,0-4.9,0-7.5,0c-5.2,0-10.8,0.1-16.4,0.1c-2.8,0-5.6,0.3-8.3,0.3
				c-2.7,0-5.4-0.3-8.1-0.4c-0.7,0-1.3-0.1-1.9-0.1c-0.6,0.1-1.3,0.1-1.9,0.1c-1.3-0.1-2.5-0.1-3.7-0.2c-2.4-0.1-4.7-0.2-6.7,0.1
				c-2.1,0.2-4,0.1-5.7,0.2c-1.7,0-3.2,0-4.4,0.1c-2.4,0-3.8,0-3.8,0V902.8z"/>
		</g>
		<g>
			<path class="st3" d="M236.1,902.8c0,0,5,0,13.9-0.1c4.4,0,9.8-0.1,15.9-0.1c6.2,0,13.1-0.1,20.7-0.1c3.8,0,7.7,0,11.8,0
				c4.1,0,8.3,0.1,12.6,0.1c4.3,0,8.8,0.1,13.4,0.1c4.6,0,9.2,0.3,13.9,0.2c9.5,0,19.2,0,29.2,0.1c5,0.1,10,0.1,15,0.2
				c5,0,10.1,0.1,15.1,0.1c10.1,0,20.2-0.1,30.1-0.2c9.9-0.1,19.7-0.1,29.2-0.2c9.5-0.1,18.6-0.1,27.3-0.2c8.7-0.1,16.9,0,24.5,0.1
				c7.6,0.1,14.5,0.2,20.7,0.1c6.2,0,11.5-0.1,15.9-0.1c8.8-0.1,13.9-0.1,13.9-0.1v2.4c0,0-5,0-13.9,0.1c-8.8,0-21.5,0.2-36.6,0.1
				c-7.6-0.1-15.8-0.2-24.5-0.2c-8.7,0-17.8,0-27.3,0c-18.9,0-39.1,0.1-59.3,0.1c-10.1,0.1-20.2,0.2-30.1,0.2
				c-9.9,0-19.7-0.2-29.2-0.4c-4.7-0.2-9.4,0.1-13.9,0c-4.6-0.1-9-0.1-13.4-0.2c-4.3,0-8.6-0.1-12.6-0.1c-4.1,0.1-8,0.1-11.8,0.2
				c-1.9,0-3.7,0.1-5.6,0.1c-1.8,0-3.6,0-5.3,0c-3.5,0-6.7,0-9.8,0c-6.2,0-11.5,0-15.9,0c-8.8,0-13.9,0-13.9,0V902.8z"/>
		</g>
		<g>
			<path class="st3" d="M653.2,681.8c0,0,0.1,0,0.4,0c0.1,0,0.3,0,0.5,0.1c0.2,0,0.4,0.1,0.7,0.1c0.1,0,0.3-0.1,0.4-0.2
				c0.1,0,0.3,0,0.4,0.1c0.2,0.1,0.3,0.2,0.5,0.2c0.2,0,0.3,0,0.5-0.1c0.4-0.1,0.7-0.2,1.1-0.4c0.2-0.1,0.4-0.1,0.6-0.1
				c0.2,0,0.4,0.1,0.6,0.2c0.2,0.1,0.4,0.1,0.7,0c0.2-0.1,0.5-0.2,0.7-0.2c0.5,0,1,0.3,1.5,0.4c0.5,0.1,1,0.2,1.6-0.2
				c0.1,0,0.3-0.1,0.4,0c0.1,0.1,0.3,0.2,0.4,0.3c0.1,0,0.1,0,0.2,0c0.1,0,0.1-0.1,0.2-0.1c0.1-0.1,0.3,0,0.4-0.1
				c0.6,0,1.1,0.1,1.7,0.2c0.3,0,0.6,0,0.9,0c0.3,0,0.6,0,0.9,0.2c0.3,0.2,0.6,0.3,0.9,0.1c0.3-0.2,0.6-0.1,0.9,0
				c0.3,0.1,0.6,0.3,0.9,0.3c0.3,0,0.6-0.1,0.9-0.1c0.6-0.1,1.2,0,1.8,0c0.3,0,0.6,0.1,0.9,0.1c0.3,0,0.6-0.1,0.9-0.2
				c0.6-0.2,1.2-0.3,1.7-0.4c0.6-0.1,1.1-0.2,1.7,0.2c0.5,0.2,1.1,0,1.6-0.2c0.3-0.1,0.5-0.2,0.8-0.1c0.1,0,0.3,0.1,0.4,0.2
				c0.1,0,0.3,0,0.4,0c0.3,0,0.5-0.1,0.8-0.1c0.2,0,0.5,0.1,0.7,0.3c0.5,0.4,0.9-0.2,1.4,0.2c0.2,0.1,0.4,0.2,0.7,0
				c0.2-0.2,0.4-0.1,0.6-0.1c0.4,0.2,0.8,0.3,1.1,0.3c0.4,0,0.7-0.3,1-0.1c0.2,0.1,0.3,0.1,0.4,0.2c0.1,0,0.3,0,0.4,0
				c0.5-0.3,0.9-0.3,1.2-0.3c0.3,0,0.4,0,0.4,0l-0.1,2.4c0,0-0.1,0-0.4,0c-0.3,0-0.7,0-1.2-0.3c-0.1,0-0.3,0-0.4,0
				c-0.1,0-0.3,0.1-0.5,0.2c-0.2,0.1-0.3,0.1-0.5,0c-0.2-0.1-0.3-0.2-0.5-0.2c-0.4,0-0.7,0.1-1.2,0.3c-0.2,0.1-0.4,0.1-0.6-0.2
				c-0.2-0.3-0.4-0.3-0.6-0.1c-0.5,0.4-0.9-0.5-1.4-0.1c-0.2,0.1-0.5,0.3-0.7,0.2c-0.2,0-0.5-0.2-0.7-0.3c-0.1,0-0.3-0.1-0.4,0
				l-0.4,0.1c-0.3,0-0.5,0-0.8-0.1c-0.5-0.1-1.1-0.4-1.6-0.1c-0.6,0.4-1.1,0.3-1.7,0.3c-0.3,0-0.6-0.1-0.9-0.2
				c-0.3,0-0.6-0.1-0.9-0.3c-0.3-0.2-0.6-0.3-0.9-0.2c-0.3,0.1-0.6,0.2-0.9,0.3c-0.6,0.1-1.2,0.3-1.8,0.1c-0.3-0.1-0.6-0.3-0.9-0.3
				c-0.1,0-0.3,0-0.4,0.1c-0.1,0.1-0.3,0.2-0.4,0.3c-0.1,0.1-0.3,0.2-0.4,0.2c-0.1,0.1-0.3,0-0.4-0.2c-0.3-0.5-0.6-0.4-0.9-0.1
				c-0.3,0.3-0.6,0.4-0.9,0.3c-0.3-0.1-0.6-0.2-0.9-0.2c-0.6-0.1-1.1,0-1.7-0.1c-0.1,0-0.3,0-0.4-0.1c-0.1-0.1-0.1-0.1-0.2-0.2
				c-0.1,0-0.1,0-0.2,0c-0.1,0-0.3,0.2-0.4,0.2c-0.1,0-0.3,0-0.4,0c-0.5-0.3-1-0.3-1.6-0.4c-0.5,0-1,0-1.5,0.1
				c-0.5,0-0.9-0.2-1.4,0.1c-0.2,0.1-0.4,0.2-0.6,0.2c-0.2,0-0.4,0-0.6,0c-0.4-0.1-0.8-0.2-1.1-0.2c-0.2,0-0.4,0-0.5,0
				c-0.2,0-0.3,0.1-0.5,0.2c-0.2,0.1-0.3,0.1-0.4,0.1c-0.1,0-0.3-0.1-0.4-0.1c-0.3,0-0.5,0.1-0.7,0.1c-0.2,0.1-0.4,0.1-0.5,0.1
				c-0.3,0-0.4,0.1-0.4,0.1L653.2,681.8z"/>
		</g>
		<g>
			<path class="st3" d="M719,684.6c0,0,0.9,0.1,2.7,0.4c1.8,0.2,4.5,0.7,8,1.6c1.7,0.5,3.7,1,5.7,1.9c1,0.4,2.1,0.8,3.2,1.4
				c0.5,0.3,1.1,0.5,1.7,0.8c0.3,0.1,0.6,0.3,0.9,0.4c0.3,0.2,0.5,0.3,0.8,0.5c4.5,2.7,9.2,6.8,12.7,12.6c1.8,2.9,3.2,6.1,4.4,9.6
				c1.2,3.5,1.8,7.4,2.3,11.3c0.2,2,0.5,4.1,0.1,6.3c-0.2,1.1-0.5,2.2-1.1,3.3c-0.6,1.1-1.6,1.9-2.6,2.5c-1,0.6-2,1.1-3.1,1.4
				c-0.5,0.2-1,0.4-1.6,0.5c-0.6,0.1-1.1,0.3-1.7,0.4c-1.1,0.3-2.2,0.4-3.4,0.6c-1.1,0.1-2.3,0.3-3.4,0.4
				c-9.2,0.8-19.1,0.3-29.3-0.2c-2.6-0.1-5.1-0.1-7.7-0.1c-2.6,0-5.3,0.1-8,0.1c-5.4,0-10.9-0.1-16.5-0.2c-2.8,0-5.7-0.1-8.5-0.1
				c-2.9,0-5.8,0.1-8.7,0.1c-5.9,0.1-11.8,0.1-17.9,0.2c-12.2-0.1-24.7-0.2-37.6-0.4c-12.9,0-26.2-0.1-39.7,0.1
				c-6.8,0.2-13.6-0.1-20.6-0.2c-3.5-0.1-6.9,0-10.4,0.1c-3.5,0.1-7,0.1-10.5,0.1c-14.1,0-28.4-0.1-42.9-0.2c-7.3,0-14.5,0-21.9,0
				c-3.7,0-7.3,0-11,0c-3.7,0-7.4-0.1-11.1-0.2c-3.7-0.1-7.4-0.1-11.1-0.2c-3.7,0-7.4,0.1-11.2,0.1l-5.6,0.1c-1.9,0-3.7,0.1-5.6,0
				c-3.7,0-7.5-0.1-11.2-0.1c-7.5-0.1-15-0.2-22.5-0.2c-7.5,0-15,0.1-22.5,0.1c-15,0.1-30.1-0.1-45,0.1c-7.5,0.1-15,0.3-22.4,0
				c-3.7-0.2-7.5-0.2-11.2-1.4c-1.8-0.7-3.6-1.5-5-2.8c-1.5-1.3-2.6-2.9-3.3-4.7c-0.7-1.8-1-3.7-1.1-5.6c-0.1-1.9,0.2-3.8,0.5-5.7
				c0.7-3.7,2.1-7.2,3.8-10.5c1.7-3.3,3.7-6.4,6-9.4c2.3-2.9,4.9-5.6,8-7.7c6.2-4.2,13.4-6.3,20.5-7.7c7.1-1.3,14.2-1.8,21.2-2.5
				c3.5-0.3,7-0.6,10.5-0.9c3.5-0.3,7-0.6,10.4-0.9c6.9-0.6,13.8-1.1,20.5-1.5c6.8-0.4,13.5-0.8,20.1-0.9c3.3,0,6.6-0.1,9.9-0.1
				c1.6,0,3.3,0,4.9,0c1.6,0,3.2-0.1,4.9-0.1c6.5-0.1,12.8-0.1,19.1-0.1c3.1,0,6.3,0.1,9.4,0.2c3.1,0.1,6.2,0.3,9.2,0.4
				c12.1,0.8,23.9,0.9,35.1,2c11.2,1.2,22,1.4,32.3,2.5c10.2,0.9,19.9,1.5,29.1,1.7c4.6,0.1,9,0.1,13.3,0.1c2.1,0,4.2,0,6.3,0
				c2.1,0,4.1,0,6.1,0c7.9,0,15.2,0,21.8-0.3c6.6-0.3,12.4-0.5,17.5-0.7c5.1-0.2,9.4-0.3,13-0.4c7-0.2,10.8-0.3,10.8-0.3l0.1,2.4
				c0,0-3.8,0.1-10.8,0.3c-3.5,0.1-7.9,0.2-13,0.4c-5.1,0.1-11,0.2-17.6,0.3c-6.6,0-13.9,0.4-21.8,0.5c-2,0-4,0.1-6.1,0.1
				c-2.1,0-4.2,0-6.3-0.1c-4.3-0.1-8.7-0.2-13.3-0.3c-4.6-0.1-9.3-0.2-14.2-0.4c-4.9-0.2-9.9-0.4-15-0.7c-2.6-0.2-5.2-0.3-7.8-0.5
				c-2.6-0.2-5.3-0.5-8-0.8c-2.7-0.3-5.4-0.6-8.1-0.9c-2.8-0.2-5.5-0.4-8.3-0.5c-11.2-0.4-22.9-1.9-35.1-1.9
				c-6.1-0.2-12.2-0.1-18.5-0.3c-6.3-0.1-12.6-0.2-19.1-0.3c-6.5-0.1-13,0.2-19.6,0.4c-3.3,0.2-6.6,0.2-10,0.3
				c-3.3,0.1-6.7,0.3-10.1,0.4c-6.8,0.3-13.6,0.7-20.5,1.2c-3.4,0.3-6.9,0.5-10.4,0.8c-3.5,0.4-6.9,0.7-10.4,1.1
				c-7,0.8-14.1,1.6-21,2.9c-6.9,1.3-13.9,3.2-19.7,7.1c-2.9,1.9-5.4,4.5-7.6,7.2c-2.2,2.8-4.2,5.8-5.9,8.9c-1.6,3.2-3,6.5-3.8,10
				c-0.4,1.7-0.7,3.5-0.7,5.2c0,1.7,0.2,3.5,0.8,5.1c0.6,1.6,1.5,3.1,2.8,4.2c1.2,1.2,2.8,2,4.5,2.6c0.8,0.3,1.7,0.6,2.6,0.7
				c0.4,0.1,0.9,0.2,1.3,0.3l1.4,0.1c1.8,0.2,3.7,0.2,5.5,0.3c7.4,0.2,14.9-0.2,22.4-0.4c7.5-0.2,15-0.1,22.5-0.2
				c7.5,0,15-0.2,22.5,0l11.3,0.2l5.6,0.1l5.6,0c3.8,0,7.5-0.1,11.3-0.1c3.7-0.1,7.5-0.2,11.2-0.3c3.7-0.1,7.5-0.2,11.2-0.2
				c1.9,0,3.7,0,5.6,0c1.9,0,3.7,0.1,5.6,0.2c7.4,0.4,14.9,0.4,22.3,0.1c3.7-0.1,7.4-0.3,11.1-0.3c3.7,0,7.4,0,11,0
				c7.3,0.1,14.6,0.1,21.9,0.2c14.5,0,28.8,0.1,42.9,0.1c3.5,0,7,0,10.5,0.1c3.5,0.1,7,0.3,10.4,0.1c6.9-0.1,13.8-0.3,20.6-0.1
				c13.6,0.3,26.8,0.3,39.7,0.3c12.9,0,25.5,0,37.6-0.1c6.1,0,12.1,0,17.9,0.1c2.9,0,5.8,0,8.7,0c2.9,0,5.7-0.1,8.5-0.1
				c11.3-0.1,22-0.4,32.4,0c10.3,0.6,20,1.3,29,0.6c1.1-0.1,2.2-0.2,3.3-0.3c1.1-0.2,2.2-0.3,3.2-0.5c0.5-0.1,1-0.2,1.6-0.3
				c0.5-0.1,1-0.3,1.6-0.5c1-0.3,1.9-0.7,2.8-1.3c0.8-0.5,1.5-1.2,1.9-2c0.4-0.8,0.7-1.7,0.9-2.7c0.3-1.9,0-3.8-0.3-5.8
				c-0.6-3.9-1.4-7.5-2.4-10.9c-1.1-3.4-2.4-6.5-4-9.3c-3.4-5.5-7.9-9.2-12.2-11.7c-0.3-0.2-0.5-0.3-0.8-0.5
				c-0.3-0.1-0.5-0.3-0.8-0.4c-0.5-0.3-1.1-0.5-1.6-0.8c-1-0.5-2.1-0.9-3.1-1.3c-2-0.8-3.8-1.3-5.5-1.7c-3.3-0.8-5.9-1.3-7.8-1.5
				c-1.8-0.2-2.7-0.4-2.7-0.4L719,684.6z"/>
		</g>
		<path class="st2" d="M753.7,732.8c1.2-7.7-6.7-14.7-15.9-17c-9.1-2.3-19-0.9-28.3,1.1c-22.8,4.8-45.8,12.7-68.9,9.5
			c-29.9-4.1-52-23.6-84-16.5c-13.5,3-26.5,9.5-40.3,8.9c-16.6-0.6-31.1-11.3-47.1-15.5c-42-11.2-88.6,22.1-128.4,4.6
			c-12.3-5.4-22.9-15.4-36.2-17.6c-14-2.3-29,5.9-34.8,18.8c-2,4.5-3,9.6-1.8,14.4c1.8,7.9,9.1,13.7,16.8,16.2
			c32.9,10.4,76.7,3.3,110.9,3.3c38.2,0,76.3-0.1,114.5-0.1c73-0.1,145.9-0.1,218.9,1.7c7.2,0.2,16.2-0.5,19.1-5.8"/>
		<g>
			<polyline class="st6" points="754.7,848.4 754.7,859 274.7,859 274.7,848.4 			"/>
			<path class="st3" d="M755.9,848.4l-0.1,10.6l0,1.1l-1.1,0l-7.5-0.1c-1.3,0-2.5,0-3.8,0l-3.8,0.1c-5,0.2-10-0.3-15-0.2
				c-10,0.2-20,0.4-30,0.5c-5,0-10-0.4-15-0.2l-7.5,0.2c-2.5,0.1-5,0-7.5,0l-15-0.3c-5,0-10-0.1-15,0l-7.5,0.2c-2.5,0.1-5,0-7.5-0.2
				c-1.2-0.1-2.5-0.1-3.8-0.1c-1.2,0-2.5,0.1-3.8,0.2c-2.5,0.1-5,0-7.5,0c-10,0-20-0.2-30-0.1c-2.5,0-5,0-7.5,0
				c-2.5-0.1-5-0.2-7.5-0.3c-2.5-0.1-5-0.1-7.5-0.1c-2.5,0.1-5,0.2-7.5,0.2l-15-0.4c-2.5-0.1-5,0-7.5,0l-7.5,0.1c-5,0.1-10,0-15,0
				c-5,0-10,0-15-0.1c-10-0.2-20,0.3-30,0.4c-5,0.1-10,0.2-15,0.2c-5,0-10,0.1-15-0.1l-3.8-0.1l-3.8,0l-7.5,0.1l-15,0.3
				c-5,0.2-10-0.3-15-0.1l-7.5,0.1l-3.8,0c-1.2,0-2.5,0-3.8-0.1l-7.5-0.3c-2.5,0-5,0-7.5,0c-5,0.2-10-0.4-15-0.1
				c-2.5,0.1-5,0.2-7.5,0.1c-2.5,0-5-0.1-7.5-0.2l-7.5-0.1c-2.5,0-5,0.1-7.5,0.1l-3.8,0.1c-1.3,0-2.5,0-3.8-0.1l-7.5-0.1
				c-5,0-10,0.3-15,0.3l-1.1,0l0-1.1c0-3.5-0.1-7.1-0.1-10.6h2.4l0,10.6l-1.2-1.2c2.5,0,5,0.1,7.5,0.1c2.5,0,5,0.1,7.5,0.1
				c2.5,0,5-0.2,7.5-0.3c1.2,0,2.5-0.1,3.8-0.1l3.8,0.1c2.5,0,5,0.1,7.5,0.1c2.5,0,5-0.1,7.5-0.1c5-0.2,10-0.5,15,0
				c5,0.4,10-0.3,15,0c2.5,0.1,5,0.2,7.5,0.2c2.5,0,5-0.1,7.5-0.2c1.2,0,2.5-0.1,3.8-0.1l3.8,0.1l7.5,0.1l3.8,0.1l3.8-0.1
				c2.5,0,5-0.1,7.5-0.1l15,0.2l7.5,0.1l3.8-0.1l3.8-0.2c5-0.3,10-0.3,15-0.3l7.5,0l7.5,0.1c10,0,20,0.9,30,0.4
				c10-0.3,20-0.4,30-0.3c5,0.1,10,0.4,15,0.3c5-0.1,10-0.6,15-0.6c2.5-0.1,5,0.2,7.5,0.4c2.5,0.2,5,0.1,7.5,0l3.8-0.3
				c1.2-0.1,2.5-0.1,3.8-0.2c2.5,0,5,0,7.5,0c10,0.2,20,0.1,30,0.2l3.8,0c1.2,0,2.5,0,3.8,0.1c1.2,0.1,2.5,0.2,3.8,0.2
				c1.2,0,2.5,0,3.8-0.1c2.5-0.1,5-0.2,7.5-0.1l7.5,0.2c5,0.1,10,0.1,15,0.2l15,0c5-0.1,10,0.1,15,0c5,0,10-0.3,15-0.3
				c10,0,20,0.2,30,0.3c5,0,10-0.4,15-0.2c5,0.2,10,0,15-0.1l-1.1,1.1l-0.1-10.6H755.9z"/>
		</g>
		<g>
			<rect x="723.6" y="748.1" class="st5" width="22.3" height="156"/>
			<g>
				<path class="st3" d="M747.1,905.2l-23.5,0.1l-1.3,0l0-1.3l-0.1-19.5c0-6.5,0-13,0-19.5c0-6.5,0-13,0.1-19.5l0.1-19.5
					c0.1-3.2,0.2-6.5,0.2-9.7l0-9.7l0-19.5c0-3.2,0.1-6.5,0.1-9.7l0.1-9.7l0.1-19.5l0-0.6l0.6,0c3.7,0,7.4,0,11.1,0l11.1-0.1l0.7,0
					l0,0.7l0.5,78c0,3.2,0,6.5,0,9.7l-0.1,9.7l-0.1,19.5L747.1,905.2z M744.7,902.8l-0.2-37.8l0-9.7c0-3.2,0-6.5,0.1-9.7l0.1-9.7
					c0-3.2,0.1-6.5,0.1-9.7l-0.1-78l1.2,1.2l-11.1,0c-3.7,0-7.4,0-11.1,0l1.3-1.3l0.2,19.5l0.1,9.7c0,3.2,0.1,6.5,0,9.7l-0.3,19.5
					l-0.2,9.7c-0.1,3.2,0,6.5,0.1,9.7l-0.2,19.5l-0.1,9.7c-0.1,3.2,0,6.5,0.1,9.7l0.2,9.7c0.1,3.2,0,6.5,0.1,9.7l0,19.5l-1.1-1.1
					L744.7,902.8z"/>
			</g>
		</g>
		<g>
			<rect x="284.4" y="748.1" class="st5" width="22.3" height="156"/>
			<g>
				<path class="st3" d="M307.9,905.2l-23.5,0.1l-1.3,0l0-1.3l-0.1-19.5c0-6.5,0-13,0-19.5c0-6.5,0-13,0.1-19.5l0.1-19.5
					c0.1-3.2,0.2-6.5,0.2-9.7l0-9.7l0-19.5c0-3.2,0.1-6.5,0.1-9.7l0.1-9.7l0.1-19.5l0-0.6l0.6,0c3.7,0,7.4,0,11.1,0l11.1-0.1l0.7,0
					l0,0.7l0.5,78c0,3.2,0,6.5,0,9.7l-0.1,9.7l-0.1,19.5L307.9,905.2z M305.4,902.8l-0.2-37.8l0-9.7c0-3.2,0-6.5,0.1-9.7l0.1-9.7
					c0-3.2,0.1-6.5,0.1-9.7l-0.1-78l1.2,1.2l-11.1,0c-3.7,0-7.4,0-11.1,0l1.3-1.3l0.2,19.5l0.1,9.7c0,3.2,0.1,6.5,0,9.7l-0.3,19.5
					l-0.2,9.7c-0.1,3.2,0,6.5,0.1,9.7l-0.2,19.5l-0.1,9.7c-0.1,3.2,0,6.5,0.1,9.7l0.2,9.7c0.1,3.2,0,6.5,0.1,9.7l0,19.5l-1.1-1.1
					L305.4,902.8z"/>
			</g>
		</g>
		<path class="st2" d="M741,803.9c-1.2,5.6-2.4,9.8-3.7,11.3c-0.9,1.1-1.9,2.1-2.6,3.4c-0.9,1.8-0.9,3.9-1,6
			c-0.3,4.7-1.4,9.4-3.3,13.7c-0.4,0.9-0.9,1.8-1.8,2c-0.5,0.1-1.1-0.1-1.5-0.3c-2.5-1.4-2.8-4.9-2.8-7.8c0-6.9,0.3-84.1-0.8-84.1
			h22.3C748.1,748.1,745,784.4,741,803.9z"/>
		<path class="st2" d="M305.6,805.7c-0.5,1.6-1,3.1-1.6,4.5c-2,4.7-4.9,9.1-6,14.2c-1.1,5.3-0.1,11.1-2.3,16.1
			c-0.3,0.6-0.6,1.2-1.1,1.5c-1.3,0.9-3.1-0.2-4.1-1.4c-3.8-4.4-4.2-10.7-4.5-16.5c-1-25.4-1.5-50.6-1.5-76.1l22.3,0
			C306.7,765.4,310.7,788.5,305.6,805.7z"/>
		<g>
			<polyline class="st5" points="382.8,758.6 274.7,758.6 274.7,737.5 754.7,737.5 754.7,758.6 690.9,758.6 			"/>
			<path class="st3" d="M382.8,759.8l-13.5-0.1l-13.5-0.1c-4.5-0.1-9,0.2-13.5,0.2l-6.8-0.1c-2.3,0-4.5-0.1-6.8-0.1
				c-2.3,0-4.5,0-6.8,0.1l-6.8,0.1l-13.5,0.2l-13.5,0.2c-2.3,0-4.5,0-6.8-0.1l-6.8-0.1l-1.3,0l0-1.3l0.1-5.3c0-0.9,0-1.8,0-2.6
				l0-2.6l-0.2-10.6l0-1.4l1.4,0l3.8-0.1l3.8,0l7.5,0.1l15,0.2c10,0,20,0.1,30-0.1c2.5,0,5-0.1,7.5,0c2.5,0,5,0.2,7.5,0.2
				c2.5,0.1,5,0,7.5-0.1c2.5-0.1,5-0.1,7.5-0.1l30,0.1l15,0c5,0,10-0.1,15,0.1l7.5,0.2l3.8,0.1c1.3,0,2.5,0,3.8,0l7.5-0.2
				c2.5,0,5,0,7.5,0c10,0.1,20,0.4,30,0.3c5,0,10-0.1,15-0.1l15,0l30,0.1l30-0.5c10-0.2,20-0.2,30-0.3c5,0,10,0.1,15,0.2l7.5,0.1
				c2.5,0,5,0,7.5-0.1l15-0.2l7.5-0.1c2.5,0,5-0.1,7.5,0c10,0.3,20,0,30,0c5,0.1,10,0.2,15,0.3c5,0.1,10,0,15,0c5,0,10,0.3,15,0.1
				l7.5-0.2c2.5-0.1,5,0,7.5,0l1.1,0l0,1c0,3.5-0.2,7.1-0.2,10.6l0,5.3c0,1.8,0,3.5,0,5.3l0,0.8l-0.8,0l-8,0.1l-4,0
				c-1.3,0-2.7,0-4,0l-8-0.1l-4,0c-1.3,0-2.7,0-4,0l-8,0.1c-2.7,0-5.3,0.1-8,0.1l-15.9,0.1v-2.4l15.9,0c2.7,0,5.3,0.1,8,0.1l8,0.1
				c1.3,0,2.7,0,4,0l4-0.1l8-0.2c1.3,0,2.7-0.1,4,0l4,0l8,0.1l-1.1,1.1c0-1.8,0-3.5,0-5.3l-0.1-5.3c0-3.5-0.2-7.1-0.2-10.6l1.4,1.4
				c-2.5,0-5,0.1-7.5,0c-2.5,0-5-0.3-7.5-0.3c-5-0.2-10,0.2-15,0.2c-5-0.1-10-0.3-15-0.2c-5,0.1-10,0.2-15,0.3
				c-10-0.1-20-0.4-30-0.2c-2.5,0.1-5,0-7.5,0l-7.5-0.1l-15-0.1c-5-0.1-10-0.1-15,0.1l-7.5,0.2c-2.5,0-5,0.1-7.5,0.1l-15,0
				c-5,0-10-0.1-15-0.1l-7.5-0.1l-7.5-0.2c-5-0.1-10-0.3-15-0.3l-7.5,0.1l-7.5,0.1l-15,0.2c-10,0.1-20,0.2-30-0.2
				c-2.5-0.1-5-0.1-7.5-0.1c-2.5,0-5,0-7.5,0.1c-5,0.1-10,0.4-15,0.5c-2.5,0-5,0.1-7.5,0c-2.5-0.1-5-0.3-7.5-0.4
				c-5-0.2-10,0.1-15,0.4c-5,0.2-10,0.2-15,0.1l-15-0.2l-30-0.1c-2.5,0-5,0-7.5-0.1c-2.5-0.2-5-0.2-7.5-0.2c-2.5,0-5,0.2-7.5,0.2
				c-2.5,0.1-5,0-7.5-0.1c-10-0.3-20-0.3-30-0.3l-30,0l0.8-0.8l0,10.6c0,1.8,0,3.5,0,5.3l0.1,5.3l-0.9-0.9l6.8-0.1
				c2.3,0,4.5-0.1,6.8-0.1l13.5,0.1l13.5,0.1l6.8,0.1c2.3,0,4.5,0.1,6.8,0l13.5-0.3c4.5,0,9,0.2,13.5,0.1l13.5-0.2l13.5-0.1V759.8z"
				/>
		</g>
		<g>
			<path class="st3" d="M672,759.8c0,0-1,0-2.9,0c-1,0-2.1,0-3.5-0.1c-1.4-0.1-3-0.1-4.7-0.1c-0.9,0-1.8,0.1-2.8,0.2
				c-1,0-2,0-3.1-0.1c-1.1-0.1-2.2-0.2-3.3-0.2c-1.2,0-2.4,0-3.6,0.1c-2.5,0.1-5.1,0.2-7.9,0.4c-1.4,0-2.8,0.1-4.3,0.1
				c-1.5,0-2.9-0.1-4.5-0.2c-1.5-0.1-3.1-0.1-4.7,0c-1.6,0.1-3.2,0.2-4.8,0.2c-3.3-0.1-6.7-0.2-10.2-0.4c-3.5-0.1-7.1-0.1-10.7,0.2
				c-0.9,0-1.8,0.1-2.8,0c-0.9-0.1-1.9-0.2-2.8-0.2c-0.9-0.1-1.9,0-2.8,0.1c-0.9,0.1-1.9,0-2.8,0c-3.8,0-7.7-0.1-11.6-0.2
				c-2,0-3.9,0-5.9,0c-1,0-2,0-3,0c-1,0-2-0.1-3-0.2c-2-0.2-4-0.3-6,0c-2,0.2-4,0.1-6.1,0c-2-0.1-4-0.3-6.1-0.3c-2,0-4.1,0-6.1,0.1
				c-4.1,0.1-8.1,0-12.2,0c-2,0-4-0.1-6.1-0.1c-2-0.1-4,0.1-6,0.2c-4,0.2-8,0.3-11.9,0.5c-2,0-3.9,0.1-5.8,0.1c-1,0-1.9,0-2.9,0
				c-1-0.1-1.9-0.1-2.9-0.2c-3.8-0.2-7.5,0.1-11.2,0.2c-1.8,0-3.6,0.2-5.4,0.2c-1.8-0.1-3.6-0.2-5.3-0.1c-1.7,0-3.5,0.1-5.2,0.1
				c-1.7,0.1-3.4-0.1-5-0.3c-3.3-0.3-6.5,0.2-9.5-0.1c-3-0.4-6,0.4-8.7,0.1c-2.8-0.2-5.4-0.3-7.9-0.3c-1.2,0-2.4,0.1-3.6,0.1
				c-0.6,0-1.1,0-1.7,0c-0.6,0-1.1,0-1.6,0c-2.1-0.1-4.1-0.2-5.9-0.1c-1.8,0.1-3.4,0.2-4.7,0.3c-1.4,0-2.6,0.1-3.5,0.1
				c-1,0-1.7,0-2.2,0c-0.5,0-0.7,0-0.7,0v-2.4c0,0,0.3,0,0.7,0c0.5,0,1.2,0,2.2,0c1,0,2.1,0,3.5,0c1.4,0,3,0.1,4.7,0.2
				c1.8,0.1,3.7,0,5.9-0.2c2.1-0.2,4.5,0,6.9,0.1c2.5,0,5.1-0.2,7.9-0.4c1.4-0.1,2.8-0.1,4.3,0.1c1.5,0.3,2.9,0.3,4.5,0.1
				c3-0.4,6.2,0.4,9.5,0.1c3.3-0.4,6.7-0.2,10.2,0c1.7,0.1,3.5,0,5.3-0.1c1.8,0,3.6,0.1,5.4,0.1c3.7,0.1,7.4,0.4,11.2,0
				c1-0.1,1.9-0.2,2.9-0.2c1,0,1.9-0.1,2.9-0.1c1.9,0,3.9,0,5.8,0c2,0,3.9,0.1,5.9,0.1c2,0,4,0.1,6,0.3c2,0.2,4,0.3,6,0.2
				c2-0.1,4-0.2,6.1-0.3c4-0.1,8.1-0.3,12.2-0.2c2,0.1,4.1,0.3,6.1,0.3c1,0,2-0.1,3-0.1l3-0.3c1-0.1,2-0.2,3-0.2c1-0.1,2,0,3,0.2
				c2,0.4,4,0.4,6,0c1-0.2,2-0.2,3-0.3c1-0.1,2,0,3,0c2,0.1,3.9,0.1,5.9,0.2c3.9,0,7.8,0.1,11.6,0.1c1,0,1.9,0,2.8,0.1
				c0.9,0.2,1.9,0.3,2.8,0.2c0.9,0,1.9-0.2,2.8-0.2c0.9,0,1.8,0,2.8,0c3.7,0.3,7.2,0.3,10.7,0.4c3.5,0,6.9,0,10.2-0.1
				c1.6,0,3.3,0,4.8,0.1c1.6,0,3.1,0,4.7-0.1c6.1-0.5,11.7,0,16.6,0c1.2,0,2.4,0.1,3.6,0.1c1.2,0,2.3-0.1,3.3-0.2
				c1.1-0.1,2.1-0.1,3.1-0.1c1,0,1.9,0.1,2.8,0.1c1.8,0,3.4-0.1,4.7-0.1c1.4-0.1,2.6-0.1,3.5-0.1c1.9,0,2.9-0.1,2.9-0.1V759.8z"/>
		</g>
	</g>
	<g>
		<path class="st33" d="M1095.3,196.3c1.3-1.8,2.6-3.6,4.4-4.9c6.2-4.7,15.5-5.2,22.9-7c2.1-0.5,4.6-0.9,6.2,0.5
			c1,0.9,1.4,2.3,1.7,3.7c1.9,8.2,4.3,16.3,1.4,24.6c-1.9,5.5-5.1,10.3-8.3,15.2c-4.9,7.4-10.8,14.8-14.8,22.7
			c-0.9,1.1-1.9,2.4-3.3,2.7c-1.1,0.3-2.2-0.1-3.3-0.5c-10-3.8-22.6-11.4-29.1-20c-2.1-2.8,18.1-30.4,20.3-34
			C1094.1,198.3,1094.7,197.3,1095.3,196.3z"/>
		<path class="st83" d="M1096.5,238.3c0,0.7,0.6,1.5,1.3,1.7c1-7.4,0.3-15-2-22.1c-1.7,5.4,1.1,11.7,6.2,14.2
			c0.6,0.3,1.2,0.5,1.8,0.2c0.4-0.2,0.6-0.7,0.8-1.1c1.7-4.5,1.4-9.6-0.7-13.9c-0.4,2.1-0.9,4.2-0.2,6.2c0.7,2,3,3.5,4.9,2.7
			c3.9-1.8,0.2-8.7,3.3-11.7"/>
		<path class="st5" d="M1120.2,194.9c-2.9-0.9-6.5,1.1-7,4.1c-0.9,4.8,5.4,8.4,9,5.1C1125.2,201.4,1124.1,196,1120.2,194.9z"/>
	</g>
	<g>
		<path class="st0" d="M1091.3,136.7c0,0-0.1,0.5-0.2,1.5c-0.1,1-0.3,2.4,0,4.1c0.2,0.8,0.5,1.7,1.2,2.4c0.2,0.2,0.3,0.4,0.5,0.5
			c0.2,0.2,0.4,0.3,0.7,0.5c0.5,0.3,1,0.4,1.6,0.5c2.4,0.4,5.1-0.4,7.9-1.9c0.7-0.4,1.5-0.7,2.2-1.1c0.4-0.2,0.8-0.4,1.2-0.6
			c0.4-0.2,0.8-0.3,1.2-0.5c1.7-0.6,3.6-1.1,5.4-1.4c3.8-0.6,8-0.4,12,0.9c2,0.6,3.9,1.6,5.7,2.9c1.8,1.3,3.3,2.8,4.9,4.2
			c0.8,0.7,1.6,1.3,2.5,1.7c0.4,0.2,1,0.4,1.4,0.5c0.6,0.1,0.9,0.1,1.5,0c0.9-0.2,1.9-0.6,2.6-1.4c0.7-0.7,1.1-1.7,0.8-2.5
			c-0.1-0.2-0.2-0.4-0.3-0.6c-0.1-0.1-0.2-0.2-0.2-0.3c-0.1-0.1-0.1-0.1-0.2-0.2c-0.3-0.3-0.8-0.4-1.3-0.4c-0.9-0.1-1.9,0.3-2.7,0.9
			c-1.7,1.1-2,3.4-1.7,5.5c0.1,1,0.4,2,0.5,3.1l0.1,0.8l0.1,0.8l0.2,1.6c0.2,1,0.1,2.1,0.2,3.2c0.1,1.1,0,2.1,0,3.1
			c-0.2,4.1-0.9,8.1-2.2,11.7c-1.3,3.6-2.8,6.8-4.5,9.7c-1.6,2.9-3.6,5.2-5.4,7.2c-0.9,1-1.7,1.9-2.6,2.7c-0.9,0.8-1.6,1.6-2.3,2.2
			c-0.7,0.6-1.4,1.2-2,1.6c-0.6,0.5-1.1,0.8-1.6,1.1c-0.9,0.6-1.3,0.9-1.3,0.9l-0.8-1.3c0,0,0.4-0.3,1.3-0.9c0.4-0.3,0.9-0.6,1.5-1
			c0.6-0.5,1.2-1,1.9-1.6c0.7-0.6,1.4-1.3,2.3-2.1c0.8-0.8,1.6-1.7,2.5-2.6c1.6-2,3.3-4.4,5-7.1c1.6-2.7,3.3-5.8,4.4-9.3
			c1.1-3.5,2.3-7.2,2.3-11.2c0-1,0.1-2,0-3c-0.1-1,0-2-0.2-3l-0.2-1.6l-0.1-0.7l-0.1-0.8c-0.2-1-0.4-2.1-0.4-3.2
			c0-1.1,0.1-2.3,0.3-3.4c0.1-0.3,0.2-0.6,0.3-0.8l0.1-0.2c0.1-0.1,0.1-0.2,0.1-0.2c0.1-0.1,0.1-0.3,0.2-0.4c0.3-0.6,0.8-1,1.3-1.4
			c1-0.8,2.2-1.3,3.6-1.2c0.7,0,1.4,0.2,2,0.7c0.2,0.1,0.3,0.3,0.5,0.4c0.1,0.1,0.2,0.2,0.3,0.3l0.1,0.1c0,0,0.1,0.2,0.1,0.1l0,0.1
			l0.1,0.2c0.1,0.2,0.2,0.3,0.2,0.5c0.3,0.7,0.1,1.5-0.1,2.2c-0.2,0.7-0.6,1.2-1.1,1.7c-0.9,0.9-2,1.5-3.3,1.8
			c-0.6,0.1-1.5,0.1-1.9,0l-0.1,0l-0.1,0l-0.1,0l-0.2-0.1c-0.1,0-0.3-0.1-0.4-0.1c-0.3-0.1-0.6-0.2-0.8-0.3c-1.1-0.5-2-1.2-2.9-1.9
			c-0.8-0.7-1.6-1.5-2.4-2.2c-0.8-0.7-1.6-1.3-2.5-1.8c-0.9-0.5-1.7-1-2.6-1.5c-0.4-0.2-0.9-0.4-1.3-0.6c-0.5-0.2-0.9-0.4-1.4-0.5
			c-1.8-0.7-3.8-0.9-5.7-1.1c-1.9-0.2-3.8-0.1-5.6,0.1c-1.8,0.3-3.5,0.8-5.1,1.4c-0.4,0.2-0.8,0.4-1.2,0.5c-0.4,0.2-0.8,0.4-1.1,0.6
			c-0.7,0.4-1.5,0.8-2.2,1.2c-1.5,0.8-2.9,1.4-4.5,1.8c-1.6,0.3-3.1,0.3-4.5,0c-1.4-0.3-2.6-1-3.5-1.9c-0.9-0.9-1.4-2.1-1.6-3.1
			c-0.4-2-0.2-3.6-0.1-4.6c0.1-1,0.2-1.6,0.2-1.6L1091.3,136.7z"/>
	</g>
	<g>
		<path class="st3" d="M862.5,978.2c0,0,4.8,0,13.3-0.1c4.2,0,9.3-0.1,15.2-0.1c5.9,0,12.5-0.1,19.8-0.1c3.6,0,7.4,0,11.3,0
			c3.9,0,7.9,0.1,12.1,0.1c4.1,0,8.4,0.1,12.8,0.1c4.4,0,8.8,0.3,13.3,0.2c9,0,18.4,0,27.9,0.1c4.8,0.1,9.5,0.1,14.3,0.2
			c4.8,0,9.6,0.1,14.5,0.1c9.7,0,19.3-0.1,28.8-0.2c9.5-0.1,18.9-0.1,27.9-0.2c9-0.1,17.8-0.1,26.1-0.2c8.3-0.1,16.1,0,23.4,0.1
			c7.2,0.1,13.9,0.2,19.8,0.1c5.9,0,11-0.1,15.2-0.1c8.4-0.1,13.3-0.1,13.3-0.1v2.4c0,0-4.8,0-13.3,0.1c-8.4,0-20.5,0.2-35,0.1
			c-7.2-0.1-15.1-0.2-23.4-0.2c-8.3,0-17,0-26.1,0c-18.1,0-37.4,0.1-56.7,0.1c-9.7,0.1-19.3,0.2-28.8,0.2c-9.5,0-18.9-0.2-27.9-0.4
			c-4.5-0.2-9,0.1-13.3,0c-4.4-0.1-8.6-0.1-12.8-0.2c-4.1,0-8.2-0.1-12.1-0.1c-3.9,0.1-7.7,0.1-11.3,0.2c-1.8,0-3.6,0.1-5.3,0.1
			c-1.7,0-3.4,0-5.1,0c-3.3,0-6.4,0-9.4,0c-5.9,0-11,0-15.2,0c-8.4,0-13.3,0-13.3,0V978.2z"/>
	</g>
	<g>
		<path class="st3" d="M979.9,959.5c0,0,1.4,0,3.8-0.1c1.2,0,2.7-0.1,4.4-0.1c1.7,0,3.6-0.1,5.7-0.1c1,0,2.1,0,3.2,0
			c1.1,0,2.3,0.1,3.5,0.1c1.2,0,2.4,0.1,3.7,0.1c0.6,0,1.3,0.1,1.9,0.1c0.6,0.1,1.3,0.1,1.9,0.1c2.6,0,5.3,0,8,0.1
			c1.4,0.1,2.7,0.1,4.1,0.2l2.1,0.1l2.1,0c2.8,0,5.6-0.1,8.3-0.2c2.7-0.1,5.4-0.1,8-0.2c2.6-0.1,5.1-0.1,7.5-0.2
			c2.4-0.1,4.6,0,6.7,0.1c2.1,0.1,4,0.1,5.7,0.1c1.7,0,3.2-0.1,4.4-0.1c1.2,0,2.2-0.1,2.8-0.1c0.7,0,1,0,1,0v2.4c0,0-1.4,0-3.8,0.1
			c-2.4,0-5.9,0.2-10.1,0.1c-2.1-0.1-4.3-0.2-6.7-0.2c-2.4,0-4.9,0-7.5,0c-5.2,0-10.8,0.1-16.3,0.1c-2.8,0-5.6,0.3-8.3,0.3
			c-2.7,0-5.4-0.3-8-0.4c-0.7,0-1.3-0.1-1.9-0.1c-0.6,0.1-1.3,0.1-1.9,0.1c-1.3-0.1-2.5-0.1-3.7-0.2c-2.4-0.1-4.6-0.2-6.7,0.1
			c-2.1,0.2-4,0.1-5.7,0.2c-1.7,0-3.2,0-4.4,0.1c-2.4,0-3.8,0-3.8,0V959.5z"/>
	</g>
	<g>
		<path class="st3" d="M1219.4,918.4c0,0,3.5,0,9.7-0.1c3.1,0,6.8-0.1,11.1-0.1c4.3,0,9.1-0.1,14.4-0.1c2.6,0,5.4,0,8.2,0
			c2.8,0,5.8,0.1,8.8,0.1c3,0,6.1,0.1,9.3,0.1c3.2,0,6.4,0.3,9.7,0.2c6.6,0,13.4,0,20.3,0.1c3.5,0.1,6.9,0.1,10.4,0.2
			c3.5,0,7,0.1,10.5,0.1c7,0,14-0.1,21-0.2c6.9-0.1,13.7-0.1,20.3-0.2c6.6-0.1,12.9-0.1,19-0.2c6-0.1,11.7,0,17,0.1
			c5.3,0.1,10.1,0.1,14.4,0.1c4.3,0,8-0.1,11.1-0.1c6.1-0.1,9.7-0.1,9.7-0.1v2.4c0,0-3.5,0-9.7,0.1c-6.1,0-14.9,0.2-25.5,0.1
			c-5.3-0.1-11-0.2-17-0.2c-6,0-12.4,0-19,0c-13.2,0-27.2,0.1-41.3,0.1c-7,0.1-14,0.2-21,0.2c-6.9,0.1-13.7-0.3-20.3-0.4
			c-1.6,0-3.3-0.1-4.9-0.1c-1.6,0-3.2,0.1-4.8,0.1c-3.2-0.1-6.3-0.1-9.3-0.2c-3,0-6-0.1-8.8-0.1c-2.8,0-5.6,0.1-8.2,0.2
			c-1.3,0-2.6,0.1-3.9,0.1c-1.3,0-2.5,0-3.7,0c-2.4,0-4.7,0-6.8,0c-4.3,0-8,0-11.1,0c-6.1,0-9.7,0-9.7,0V918.4z"/>
	</g>
	<g>
		<path class="st3" d="M1790.9,918.4c0,0,1.4,0,3.8-0.1c1.2,0,2.7-0.1,4.4-0.1c1.7,0,3.6-0.1,5.7-0.1c1,0,2.1,0,3.2,0
			c1.1,0,2.3,0.1,3.5,0.1c1.2,0,2.4,0.1,3.7,0.1c0.6,0,1.3,0.1,1.9,0.1c0.6,0.1,1.3,0.1,1.9,0.1c2.6,0,5.3,0,8,0.1
			c1.4,0.1,2.7,0.1,4.1,0.2l2.1,0.1l2.1,0c2.8,0,5.6-0.1,8.3-0.2c2.7-0.1,5.4-0.1,8-0.2c2.6-0.1,5.1-0.1,7.5-0.2
			c2.4-0.1,4.6,0,6.7,0.1c2.1,0.1,4,0.1,5.7,0.1c1.7,0,3.2-0.1,4.4-0.1c1.2,0,2.2-0.1,2.8-0.1c0.7,0,1,0,1,0v2.4c0,0-1.4,0-3.8,0.1
			c-2.4,0-5.9,0.2-10.1,0.1c-2.1-0.1-4.3-0.2-6.7-0.2c-2.4,0-4.9,0-7.5,0c-5.2,0-10.8,0.1-16.3,0.1c-2.8,0-5.6,0.3-8.3,0.3
			c-2.7,0-5.4-0.3-8-0.4c-0.7,0-1.3-0.1-1.9-0.1c-0.6,0.1-1.3,0.1-1.9,0.1c-1.3-0.1-2.5-0.1-3.7-0.2c-2.4-0.1-4.6-0.2-6.7,0.1
			c-2.1,0.2-4,0.1-5.7,0.2c-1.7,0-3.2,0-4.4,0.1c-2.4,0-3.8,0-3.8,0V918.4z"/>
	</g>
</g>
</svg>
