<svg id="Artwork" xmlns="http://www.w3.org/2000/svg" viewBox="0 0 1920 1080"><title>emptystate-referrals</title><path d="M126.35,880.44c145.5-.16,291-.58,436.49-.16l54.56.1c18.19.11,36.37.28,54.56.25l109.12.07,218.25.5,436.49-.68c36.37-.06,72.75-.17,109.12-.09l109.12.24,218.25-.25v3.2l-218.25.24-54.56,0-54.56-.17c-36.37-.13-72.75-.08-109.12-.08l-436.49.15L890.22,884c-36.37,0-72.75.19-109.12,0L672,883.5c-18.19-.15-36.37,0-54.56,0l-54.56-.17-109.12-.25-54.56.2c-18.19.09-36.37.18-54.56.16l-218.25.14Z" style="fill:#e0e3ed"/><path d="M1615.27,943c2,0,3.91,0,5.87.15,1,0,2,.1,2.93,0a14,14,0,0,1,2.93-.1c1,.06,2,.23,2.93.22s2-.06,2.93-.08l5.87-.37c1,0,2-.1,2.93-.08s2,.1,2.93.17a23.42,23.42,0,0,0,2.93,0c1-.05,2-.19,2.93-.21,2-.05,3.91.11,5.87.21s3.91.2,5.87.19c1,0,2,0,2.93-.09a22.22,22.22,0,0,1,2.93-.16c1,0,2,.3,2.93.31a6.05,6.05,0,0,0,1.47-.12,7.18,7.18,0,0,1,1.47-.08c2,0,3.91,0,5.87.09s3.91.09,5.87.08a40.4,40.4,0,0,1,5.87.21,17.68,17.68,0,0,0,2.93.19c1,0,2-.25,2.93-.23,2,0,3.91.27,5.87.36s3.91,0,5.87-.08,3.91,0,5.87,0,3.91,0,5.87.1a42.3,42.3,0,0,0,5.87-.14c2-.15,3.91-.25,5.87-.34s3.91-.13,5.87-.18c1,0,2,0,2.93,0l2.93.21c3.91.16,7.82-.5,11.73-.39a32.59,32.59,0,0,0,5.87,0,24.29,24.29,0,0,1,2.93,0c1,.06,2,.26,2.93.31,2,.17,3.91-.25,5.87.05a11.1,11.1,0,0,0,2.93,0,13.19,13.19,0,0,1,2.93-.15c2,.14,3.91.33,5.87.3,1,0,2-.09,2.93-.16a22.39,22.39,0,0,1,2.93.06,21.76,21.76,0,0,0,2.93.09c1,0,2-.16,2.93-.22s2-.1,2.93-.13,2-.06,2.93,0v2.4c-1,0-2,0-2.93,0s-2,0-2.93-.08-2-.16-2.93-.16a19.83,19.83,0,0,0-2.93.18,18,18,0,0,1-2.93.12c-1-.06-2-.16-2.93-.16-2,0-3.91.23-5.87.4-.49,0-1,0-1.47,0a13.51,13.51,0,0,1-1.47-.24,8.15,8.15,0,0,0-2.93,0c-2,.38-3.91-.29-5.87-.15-1,0-2,.21-2.93.26a22.86,22.86,0,0,1-2.93,0,30,30,0,0,0-5.87-.09c-3.91.14-7.82-.48-11.73-.21l-2.93.33-1.47.08h-1.47c-2,0-3.91,0-5.87-.08s-3.91-.1-5.87-.36a24.29,24.29,0,0,0-5.87-.13,113.23,113.23,0,0,1-11.73.35c-1-.06-2-.18-2.93-.25a24.34,24.34,0,0,0-2.93,0,52.89,52.89,0,0,1-5.87.59c-1,0-2-.43-2.93-.52a10.88,10.88,0,0,0-2.93.27,14,14,0,0,1-2.93.31c-1,0-2-.08-2.93-.12-2-.11-3.91-.12-5.87-.13l-5.87-.09a6.75,6.75,0,0,1-1.47-.13,5.84,5.84,0,0,0-1.47-.17c-1,0-2,.24-2.93.23a24.09,24.09,0,0,1-2.93-.2c-1-.1-2-.12-2.93-.14-3.91-.16-7.82,0-11.73,0a53.16,53.16,0,0,0-5.87.07c-1,.09-2,.2-2.93.21s-2,0-2.93,0l-5.87-.24c-1,0-2-.06-2.93,0s-2,.17-2.93.24a15.12,15.12,0,0,1-2.93-.06c-1-.07-2,0-2.93.05-2,.13-3.91.14-5.87.2Z" style="fill:#e0e3ed"/><path d="M1709.16,931a19.75,19.75,0,0,1,2,.15,2.85,2.85,0,0,0,1,0,4.28,4.28,0,0,1,.5-.13,1.57,1.57,0,0,1,.5,0,5.59,5.59,0,0,0,1,.23,7.08,7.08,0,0,0,1-.09l2-.38a7,7,0,0,1,1-.08,5.32,5.32,0,0,1,1,.18,2.49,2.49,0,0,0,1,0c.33-.06.67-.18,1-.22a8.29,8.29,0,0,1,2,.23,11,11,0,0,0,2,.17,4.26,4.26,0,0,0,1-.09,2.67,2.67,0,0,1,1-.17c.33,0,.67.29,1,.32a.77.77,0,0,0,.5-.12.86.86,0,0,1,.5-.08c1.33,0,2.66.21,4,.18l1,0a2.92,2.92,0,0,1,1,.22,2.33,2.33,0,0,0,1,.2c.33,0,.67-.25,1-.25a12.07,12.07,0,0,1,2,.38,7.74,7.74,0,0,0,2-.1,26.9,26.9,0,0,1,4,.09,4.85,4.85,0,0,0,2-.14,17.63,17.63,0,0,1,2-.33,16.89,16.89,0,0,1,2-.19,4.39,4.39,0,0,1,1,0l1,.21c1.33.18,2.66-.52,4-.39a3.81,3.81,0,0,0,2,0,2.7,2.7,0,0,1,1,0c.33.08.67.26,1,.32.67.16,1.33-.26,2,0a1.27,1.27,0,0,0,1,0,1.43,1.43,0,0,1,1-.15,7.65,7.65,0,0,0,2,.3,7.44,7.44,0,0,0,1-.16,2.48,2.48,0,0,1,1,.06,3.27,3.27,0,0,0,2-.15,9.25,9.25,0,0,1,2-.16v2.4a10.18,10.18,0,0,1-2-.07,7.88,7.88,0,0,0-1-.18,2.49,2.49,0,0,0-1,.19,2,2,0,0,1-1,.12,6.31,6.31,0,0,0-1-.17,7.61,7.61,0,0,0-2,.4,1.39,1.39,0,0,1-.5,0,2,2,0,0,1-.5-.24,1,1,0,0,0-1,0c-.67.38-1.33-.28-2-.16-.33,0-.67.21-1,.28a2.55,2.55,0,0,1-1,0,3.44,3.44,0,0,0-2-.09c-1.33.15-2.66-.51-4-.21l-1,.33a3.82,3.82,0,0,1-1,.1,11.74,11.74,0,0,1-2-.09,7.38,7.38,0,0,1-2-.36,2.88,2.88,0,0,0-2-.13,15.82,15.82,0,0,1-2,.33,7.71,7.71,0,0,1-2,0,4.32,4.32,0,0,0-2-.27c-.67.16-1.33.64-2,.6-.33,0-.67-.45-1-.53a1.39,1.39,0,0,0-1,.27,1.75,1.75,0,0,1-1,.31c-.33,0-.67-.08-1-.12-1.33-.22-2.66-.07-4-.21a.86.86,0,0,1-.5-.14.81.81,0,0,0-.5-.18c-.33,0-.67.24-1,.24a3,3,0,0,1-1-.21,5.33,5.33,0,0,0-1-.16c-1.33-.13-2.66,0-4,0a5.37,5.37,0,0,0-2,.06,5.54,5.54,0,0,1-1,.22c-.33,0-.67,0-1,0-.67-.05-1.33-.18-2-.24-.33,0-.67-.05-1,0a6.61,6.61,0,0,0-1,.25,1.76,1.76,0,0,1-1-.06,3.09,3.09,0,0,0-1,.05c-.67.13-1.33.14-2,.2Z" style="fill:#e0e3ed"/><path d="M717.19,952c1.74,0,3.49,0,5.23.15a24,24,0,0,0,2.62,0,11.12,11.12,0,0,1,2.62-.1c.87.06,1.74.23,2.62.22s1.74-.06,2.62-.08l5.23-.37c.87,0,1.74-.1,2.62-.08s1.74.1,2.62.17a18.64,18.64,0,0,0,2.62,0c.87-.05,1.74-.19,2.62-.21,1.74-.05,3.49.11,5.23.21s3.49.2,5.23.19c.87,0,1.74,0,2.62-.09a17.71,17.71,0,0,1,2.62-.16c.87,0,1.74.3,2.62.31a4.83,4.83,0,0,0,1.31-.12,5.72,5.72,0,0,1,1.31-.08c1.74,0,3.49,0,5.23.09s3.49.09,5.23.08a32.17,32.17,0,0,1,5.23.21,14.09,14.09,0,0,0,2.62.19c.87,0,1.74-.25,2.62-.23,1.74,0,3.49.27,5.23.36s3.49,0,5.23-.08,3.49,0,5.23,0,3.49,0,5.23.1a33.67,33.67,0,0,0,5.23-.14c1.74-.15,3.49-.25,5.23-.34s3.49-.13,5.23-.18c.87,0,1.74,0,2.62,0l2.62.21c3.49.16,7-.5,10.46-.39a25.94,25.94,0,0,0,5.23,0,19.33,19.33,0,0,1,2.62,0c.87.06,1.74.26,2.62.31,1.74.17,3.49-.25,5.23.05a8.84,8.84,0,0,0,2.62,0,10.52,10.52,0,0,1,2.62-.15c1.74.14,3.49.33,5.23.3.87,0,1.74-.09,2.62-.16a17.82,17.82,0,0,1,2.62.06,17.36,17.36,0,0,0,2.62.09c.87,0,1.74-.16,2.62-.22s1.74-.1,2.62-.13,1.74-.06,2.62,0v2.4c-.87,0-1.74,0-2.62,0s-1.74,0-2.62-.08-1.74-.16-2.62-.16a15.82,15.82,0,0,0-2.62.18,14.37,14.37,0,0,1-2.62.12c-.87-.06-1.74-.16-2.62-.16a51.37,51.37,0,0,0-5.23.4,12.57,12.57,0,0,1-1.31,0,10.86,10.86,0,0,1-1.31-.24,6.5,6.5,0,0,0-2.62,0c-1.74.38-3.49-.29-5.23-.15-.87,0-1.74.21-2.62.26a18.19,18.19,0,0,1-2.62,0,23.89,23.89,0,0,0-5.23-.09c-3.49.14-7-.48-10.46-.21l-2.62.33-1.31.08h-1.31c-1.74,0-3.49,0-5.23-.08a49.7,49.7,0,0,1-5.23-.36,19.35,19.35,0,0,0-5.23-.13,90.1,90.1,0,0,1-10.46.35c-.87-.06-1.74-.18-2.62-.25a19.37,19.37,0,0,0-2.62,0,42.25,42.25,0,0,1-5.23.59c-.87,0-1.74-.43-2.62-.52a8.69,8.69,0,0,0-2.62.27,11.15,11.15,0,0,1-2.62.31c-.87,0-1.74-.08-2.62-.12-1.74-.11-3.49-.12-5.23-.13l-5.23-.09a5.39,5.39,0,0,1-1.31-.13,4.67,4.67,0,0,0-1.31-.17c-.87,0-1.74.24-2.62.23a19.21,19.21,0,0,1-2.62-.2c-.87-.1-1.74-.12-2.62-.14-3.49-.16-7,0-10.46,0a42.3,42.3,0,0,0-5.23.07c-.87.09-1.74.2-2.62.21s-1.74,0-2.62,0l-5.23-.24c-.87,0-1.74-.06-2.62,0s-1.74.17-2.62.24a12,12,0,0,1-2.62-.06,25.73,25.73,0,0,0-2.62.05c-1.74.13-3.49.14-5.23.2Z" style="fill:#e0e3ed"/><path d="M806.44,940.07c1.84,0,3.68,0,5.52.15a26.68,26.68,0,0,0,2.76,0,12.36,12.36,0,0,1,2.76-.1c.92.06,1.84.23,2.76.22s1.84-.06,2.76-.08l5.52-.37c.92,0,1.84-.1,2.76-.08s1.84.1,2.76.17a20.74,20.74,0,0,0,2.76,0c.92-.05,1.84-.19,2.76-.21,1.84-.05,3.68.11,5.52.21s3.68.2,5.52.19c.92,0,1.84,0,2.76-.09a19.66,19.66,0,0,1,2.76-.16c.92,0,1.84.3,2.76.31a5.36,5.36,0,0,0,1.38-.12,6.35,6.35,0,0,1,1.38-.08c1.84,0,3.68,0,5.52.09s3.68.09,5.52.08a35.74,35.74,0,0,1,5.52.21,15.64,15.64,0,0,0,2.76.19c.92,0,1.84-.25,2.76-.23,1.84,0,3.68.27,5.52.36s3.68,0,5.52-.08,3.68,0,5.52,0,3.68,0,5.52.1a37.39,37.39,0,0,0,5.52-.14c1.84-.15,3.68-.25,5.52-.34s3.68-.13,5.52-.18c.92,0,1.84,0,2.76,0l2.76.21c3.68.16,7.35-.5,11-.39a28.83,28.83,0,0,0,5.52,0,21.46,21.46,0,0,1,2.76,0c.92.06,1.84.26,2.76.31,1.84.17,3.68-.25,5.52.05a9.82,9.82,0,0,0,2.76,0,11.68,11.68,0,0,1,2.76-.15c1.84.14,3.68.33,5.52.3.92,0,1.84-.09,2.76-.16a19.8,19.8,0,0,1,2.76.06,19.25,19.25,0,0,0,2.76.09c.92,0,1.84-.16,2.76-.22s1.84-.1,2.76-.13,1.84-.06,2.76,0v2.4c-.92,0-1.84,0-2.76,0s-1.84,0-2.76-.08-1.84-.16-2.76-.16a17.56,17.56,0,0,0-2.76.18,16,16,0,0,1-2.76.12c-.92-.06-1.84-.16-2.76-.16-1.84,0-3.68.23-5.52.4-.46,0-.92,0-1.38,0a12,12,0,0,1-1.38-.24,7.21,7.21,0,0,0-2.76,0c-1.84.38-3.68-.29-5.52-.15-.92,0-1.84.21-2.76.26a20.24,20.24,0,0,1-2.76,0,26.53,26.53,0,0,0-5.52-.09c-3.68.14-7.35-.48-11-.21l-2.76.33-1.38.08h-1.38c-1.84,0-3.68,0-5.52-.08a55.23,55.23,0,0,1-5.52-.36,21.5,21.5,0,0,0-5.52-.13,100.08,100.08,0,0,1-11,.35c-.92-.06-1.84-.18-2.76-.25a21.5,21.5,0,0,0-2.76,0,46.89,46.89,0,0,1-5.52.59c-.92,0-1.84-.43-2.76-.52a9.64,9.64,0,0,0-2.76.27,12.36,12.36,0,0,1-2.76.31c-.92,0-1.84-.08-2.76-.12-1.84-.11-3.68-.12-5.52-.13l-5.52-.09a6,6,0,0,1-1.38-.13,5.18,5.18,0,0,0-1.38-.17c-.92,0-1.84.24-2.76.23a21.3,21.3,0,0,1-2.76-.2c-.92-.1-1.84-.12-2.76-.14-3.68-.16-7.35,0-11,0a47,47,0,0,0-5.52.07c-.92.09-1.84.2-2.76.21s-1.84,0-2.76,0l-5.52-.24c-.92,0-1.84-.06-2.76,0s-1.84.17-2.76.24a13.37,13.37,0,0,1-2.76-.06c-.92-.07-1.84,0-2.76.05-1.84.13-3.68.14-5.52.2Z" style="fill:#e0e3ed"/><path d="M704,843.32c44.64-.12,89.28-.43,133.92-.12l16.74.08c5.58.08,11.16.21,16.74.19l33.48.06,67,.38,133.92-.51c11.16,0,22.32-.13,33.48-.06l33.48.18q8.37.06,16.74,0l16.74-.06,33.48-.12v2.4l-67,.18c-5.58,0-11.16,0-16.74,0l-16.74-.13c-11.16-.1-22.32-.06-33.48-.06l-133.92.11-33.48.19c-11.16,0-22.32.14-33.48,0l-33.48-.35c-5.58-.11-11.16,0-16.74,0l-16.74-.12c-11.16-.08-22.32-.17-33.48-.19l-16.74.15c-5.58.07-11.16.13-16.74.12l-67,.11Z" style="fill:#e0e3ed"/><path d="M348.72,843.32c26.14-.12,52.27-.43,78.41-.12l9.8.08c3.27.08,6.53.21,9.8.19l19.6.06c6.53,0,13.07.11,19.6.19l19.6.18,78.41-.51c6.53,0,13.07-.13,19.6-.06l19.6.18c3.27,0,6.53,0,9.8,0l9.8-.06,19.6-.12v2.4l-39.2.18c-3.27,0-6.53,0-9.8,0l-9.8-.13c-6.53-.1-13.07-.06-19.6-.06l-78.41.11-19.6.19c-6.53,0-13.07.14-19.6,0l-19.6-.35c-3.27-.11-6.53,0-9.8,0l-9.8-.12c-6.53-.08-13.07-.17-19.6-.19l-9.8.15c-3.27.07-6.53.13-9.8.12l-39.2.11Z" style="fill:#e0e3ed"/><path d="M853.42,318.14c-.05,3.17-.05,6.35-.17,9.52,0,1.59-.11,3.17,0,4.76a36.66,36.66,0,0,1,.08,4.76c-.06,1.59-.24,3.17-.23,4.76s0,3.17.07,4.76l.34,9.52c0,1.59.09,3.17.07,4.76s-.11,3.17-.19,4.76-.1,3.17-.05,4.76.18,3.17.2,4.76c0,6.35-.47,12.69-.44,19,0,1.59,0,3.17.08,4.76s.18,3.17.15,4.76-.3,3.17-.32,4.76a15.76,15.76,0,0,0,.11,2.38,18.82,18.82,0,0,1,.07,2.38l-.12,9.52c-.06,3.17-.11,6.35-.1,9.52s.06,6.35-.24,9.52c-.11,1.59-.24,3.17-.19,4.76s.24,3.17.22,4.76c0,3.17-.29,6.35-.38,9.52-.08,1.59,0,3.17,0,4.76l.07,4.76c.09,3.17,0,6.35,0,9.52s0,6.35-.12,9.52c0,1.59,0,3.17,0,4.76l.16,4.76c.15,3.17.24,6.35.31,9.52s.12,6.35.16,9.52c0,1.59,0,3.17,0,4.76l-.22,4.76c-.14,6.35.42,12.69.34,19a92.32,92.32,0,0,0,0,9.52c0,1.59.06,3.17,0,4.76s-.27,3.17-.32,4.76c-.18,3.17.23,6.35-.07,9.52a29.17,29.17,0,0,0,0,4.76,34.61,34.61,0,0,1,.14,4.76c-.15,3.17-.35,6.35-.32,9.52s.28,6.35.08,9.52c-.08,1.59-.15,3.17-.1,4.76s.15,3.17.21,4.76.09,3.17.12,4.76,0,3.17,0,4.76h-2.4c0-1.59,0-3.17,0-4.76s0-3.17.1-4.76.16-3.17.17-4.76-.06-3.17-.17-4.76a47.37,47.37,0,0,1-.11-4.76l.18-4.76c0-3.17-.22-6.35-.38-9.52a26.2,26.2,0,0,1,.24-4.76,21.94,21.94,0,0,0,0-4.76c-.37-3.17.3-6.35.18-9.52,0-1.59-.2-3.17-.25-4.76s0-3.17.05-4.76a78.88,78.88,0,0,0,.11-9.52c-.07-6.35.49-12.69.26-19l-.31-4.76-.08-2.38V518c0-3.17,0-6.35.1-9.52s.11-6.35.39-9.52a64.64,64.64,0,0,0,.16-9.52c-.29-6.35-.44-12.69-.31-19,.06-1.59.19-3.17.26-4.76s.1-3.17,0-4.76c-.13-3.17-.59-6.35-.55-9.52,0-1.59.44-3.17.54-4.76a30,30,0,0,0-.26-4.76,36.32,36.32,0,0,1-.3-4.76l.13-4.76c.12-3.17.14-6.35.16-9.52l.11-9.52a17.63,17.63,0,0,1,.14-2.38,15.13,15.13,0,0,0,.18-2.38c0-1.59-.24-3.17-.21-4.76,0-3.17.41-6.35.37-9.52.18-6.35,0-12.69.09-19,0-3.17.13-6.35,0-9.52-.08-1.59-.19-3.17-.2-4.76s0-3.17,0-4.76l.23-9.52c0-1.59.1-3.17.07-4.76s-.16-3.17-.22-4.76a39.8,39.8,0,0,1,.07-4.76c.07-1.59,0-3.17,0-4.76-.12-3.17-.12-6.35-.18-9.52Z" style="fill:#e8eaf2"/><path d="M868.74,724a57.53,57.53,0,0,1-13.29-14.12c-8.09-11.75-14-26.57-19.91-41.21-1.16-2.3,1.56-4.49,3.43-4.4,59.79,3.14,150,3.26,209.78-5,27.85-3.86,55.89-1.93,83.82,0,4.06.28,8.41.73,11.59,4.67-5.91,11.75-16,16.37-25.53,17.23s-19.13-1.34-28.65-.07c-29.79,4-54.24,27.14-85,23.17-17.22-2.22-64.18-6.24-80.56,2.32-13.32,7-25.19,22-39.23,22.9C879.5,729.82,873.92,727.72,868.74,724Z" style="fill:#e8eaf2;stroke:#e8eaf2;stroke-miterlimit:10;stroke-width:3px;opacity:0.5"/><path d="M1143.75,659.68l-.15-29.7,1.35,1.35q-40.1.32-80.21-.25c-13.37,0-26.74.07-40.1,0s-26.74-.21-40.11-.18l-80.21.68-20.05.18c-6.68.06-13.37,0-20.05,0l-20.05-.14-10,0-10,0,1-1,.17,29.15a1.2,1.2,0,1,1-2.4,0h0l-.14-29.15a1.33,1.33,0,0,1,1.32-1.34h0c26.74-.24,53.47.39,80.21.1l80.21-.31,40.1-.38c6.68-.11,13.37,0,20.05.09l20.05.26c3.34,0,6.68-.06,10-.1l10,.1,20.05.2c6.68,0,13.37-.14,20.05-.25l20.05-.06a1.12,1.12,0,0,1,1.13,1.12h0l.07,29.7a1.2,1.2,0,1,1-2.4,0Z" style="fill:#fff"/><path d="M851.08,292.76c2.82,0,5.64,0,8.46.15,1.41,0,2.82.1,4.23,0a29,29,0,0,1,4.23-.1c1.41.06,2.82.23,4.23.22s2.82-.06,4.23-.08l8.46-.37c1.41,0,2.82-.1,4.23-.08s2.82.1,4.23.17,2.82.09,4.23,0,2.82-.19,4.23-.21c5.64,0,11.29.44,16.93.4,1.41,0,2.82,0,4.23-.09s2.82-.19,4.23-.16,2.82.3,4.23.31a12.51,12.51,0,0,0,2.12-.12,14.9,14.9,0,0,1,2.12-.08l8.46.09c2.82.05,5.64.09,8.46.08a83.22,83.22,0,0,1,8.46.21,38.77,38.77,0,0,0,4.23.18c1.41,0,2.82-.25,4.23-.23,2.82,0,5.64.27,8.46.36,1.41.07,2.82,0,4.23,0l4.23-.08c2.82-.1,5.64,0,8.46,0s5.64,0,8.46.1c1.41,0,2.82,0,4.23,0l4.23-.17c2.82-.15,5.64-.25,8.46-.34s5.64-.13,8.46-.18c1.41,0,2.82,0,4.23,0l4.23.21c5.64.13,11.29-.45,16.93-.39a73,73,0,0,0,8.46,0c1.41,0,2.82-.06,4.23,0s2.82.26,4.23.31c2.82.18,5.64-.24,8.46.05a23.05,23.05,0,0,0,4.23,0,27.38,27.38,0,0,1,4.23-.15c2.82.14,5.64.33,8.46.3s5.64-.29,8.46-.1c1.41.08,2.82.14,4.23.09s2.82-.16,4.23-.22,2.82-.1,4.23-.13,2.82-.06,4.23,0v2.4c-1.41,0-2.82,0-4.23,0s-2.82,0-4.23-.08-2.82-.16-4.23-.16a41.15,41.15,0,0,0-4.23.18,37.49,37.49,0,0,1-4.23.12c-1.41-.07-2.82-.12-4.23-.16-2.82,0-5.64.23-8.46.4a20.73,20.73,0,0,1-4.23-.23,17.37,17.37,0,0,0-4.23,0c-2.82.38-5.64-.29-8.46-.15-1.41,0-2.82.21-4.23.26s-2.82,0-4.23,0a62.37,62.37,0,0,0-8.46-.09c-5.64.09-11.29-.45-16.93-.21l-4.23.33-2.12.08h-2.12c-2.82,0-5.64,0-8.46-.08s-5.64-.1-8.46-.36a51.11,51.11,0,0,0-8.46-.14c-5.64.3-11.29.47-16.93.36-1.41-.06-2.82-.18-4.23-.25a41.14,41.14,0,0,0-4.23,0c-2.82.14-5.64.61-8.46.57-1.41,0-2.82-.43-4.23-.52a23.74,23.74,0,0,0-4.23.27,28.76,28.76,0,0,1-4.23.31l-4.23-.12c-2.82-.11-5.64-.12-8.46-.13l-8.46-.09a14,14,0,0,1-2.12-.13,12,12,0,0,0-2.12-.17c-1.41,0-2.82.24-4.23.23-2.82,0-5.64-.4-8.46-.34-5.64-.16-11.29,0-16.93,0-2.82,0-5.64-.12-8.46.07-1.41.09-2.82.2-4.23.21s-2.82,0-4.23,0l-8.46-.21c-1.41,0-2.82-.09-4.23-.06s-2.82.17-4.23.24a31.44,31.44,0,0,1-4.23-.06c-1.41-.07-2.82,0-4.23.05-2.82.13-5.64.14-8.46.2Z" style="fill:#e8eaf2"/><path d="M875.81,314.79c1.51-1,205.08.25,228.38-.07.7,12.11-3.12,23.5-2.86,35.6.46,21.55,4.72,41.76,1.3,63.49-4.11,26.11-17.4,52.09-40.4,65.11-10.84,6.13-23.41,9.21-33.28,16.79-14.36,11-20.48,29.42-26.33,46.55-10,29.38-25.9,81.66-59.56,88.94-28.19,6.1-44.61.06-73.79.09C869.26,631.29,875.73,318.06,875.81,314.79Z" style="fill:#fff"/><polyline points="1316.26 880.73 1316.26 322.65 1558.34 322.65 1558.34 880.73" style="fill:#f4f6f8;stroke:#e0e3ed;stroke-miterlimit:10;stroke-width:3px"/><polyline points="1594.99 736.13 1594.99 316.92 1834.39 316.92" style="fill:#f4f6f8;stroke:#e0e3ed;stroke-miterlimit:10;stroke-width:3px"/><path d="M1617.93,729.5l-.25-98.33c0-16.39.08-32.78.13-49.17s.35-32.78.28-49.17l0-24.58q0-12.29.1-24.58l.27-49.17-.3-98.33a.92.92,0,0,1,.92-.93h0c16.57-.07,33.13.05,49.7.22l24.84.26,24.83.41c16.55.27,33.11.46,49.66.19s33.09-.7,49.61-1.56a1.2,1.2,0,0,1,.13,2.4h0c-16.56.86-33.13,1.32-49.7,1.53l-12.43.12h-12.43l-12.43-.06-12.42-.18-24.84-.47-24.84-.35c-16.56-.22-33.11-.4-49.66-.39l1.2-1.2.09,98.33.22,49.17,0,12.29-.1,12.29-.22,24.58c-.31,16.39,0,32.78-.22,49.17l-.15,24.58c-.09,8.19,0,16.39.06,24.58.22,16.39.18,32.78.21,49.17l.07,49.17a1.2,1.2,0,1,1-2.4,0Z" style="fill:#fff"/><rect x="1348.5" y="350.01" width="177.61" height="442.19" style="fill:#fff"/><path d="M1838.67,299.38c-66.82-5.18-101.8,77-158.75,99.59-62.29,24.7-123.55-30.81-184.34,3.12-20.27,11.31-37.6,27.11-56,41.31-22.56,17.46-47.59,32.95-75.57,38.5s-59.47-.29-79.52-20.58c-19.68-19.92-25.29-49.69-26.63-77.66s.55-56.65-7.9-83.35" style="fill:#e8eaf2;stroke:#e8eaf2;stroke-miterlimit:10;stroke-width:3px;opacity:0.30000000000000004"/><rect x="1538.06" y="574.51" width="10.04" height="100.48" style="fill:#e0e3ed;stroke:#e0e3ed;stroke-miterlimit:10;stroke-width:3px"/><line x1="1647.3" y1="297.21" x2="1359.13" y2="297.21" style="fill:none;stroke:#e8eaf2;stroke-miterlimit:10;stroke-width:3px"/><line x1="1276.76" y1="55.77" x2="1276.76" y2="752.17" style="fill:#f4f6f8;stroke:#e0e3ed;stroke-miterlimit:10;stroke-width:3px"/><polyline points="1319.87 297.33 1244.36 297.33 1244.36 244.76 1266.66 118.77 1650.34 118.77" style="fill:#f4f6f8;stroke:#e8eaf2;stroke-miterlimit:10;stroke-width:3px"/><path d="M1810.51,246c-5.6,0-11.21,0-16.81-.15-2.8,0-5.6-.11-8.4,0s-5.6.18-8.4.06-5.6-.2-8.4-.2-5.6.08-8.4.12l-16.81.3c-2.8,0-5.6.14-8.4.11s-5.6-.1-8.4-.17c-5.6-.18-11.21.08-16.81.17-11.21,0-22.41-.45-33.62-.37-5.6-.13-11.21.28-16.81.22-2.8,0-5.6-.3-8.4-.31-1.4,0-2.8,0-4.2.12s-2.8.09-4.2.08l-16.81-.09c-5.6-.05-11.21-.09-16.81-.08s-11.21.08-16.81-.21c-2.8-.11-5.6-.23-8.4-.18s-5.6.25-8.4.23c-5.6-.07-11.21-.22-16.81-.34-2.8-.1-5.6,0-8.4,0l-8.4.08c-5.6.1-11.21,0-16.81,0s-11.21,0-16.81-.1l-8.4,0-8.4.17c-5.6.15-11.21.25-16.81.34s-11.21.13-16.81.18c-2.8,0-5.6,0-8.4,0l-8.4-.21c-11.21-.08-22.41.43-33.62.39l-4.2-.1c-1.4,0-2.8-.06-4.2,0l-8.4.11c-2.8,0-5.6.1-8.4,0l-8.4-.3c-2.8-.09-5.6,0-8.4,0l-4.2,0-4.2-.11c-2.8-.06-5.6-.16-8.4,0s-5.6.21-8.4.13-5.6-.14-8.4-.19l-8.4-.08c-5.6.07-11.21.28-16.81.09l-4.2-.07c-1.4,0-2.8-.06-4.2,0l-8.4.21c-2.8.1-5.6.1-8.4.13s-5.6.06-8.4,0v-2.4c5.6,0,11.21,0,16.81.08s11.21.28,16.81,0,11.21,0,16.81,0,11.21-.23,16.81-.4a81.32,81.32,0,0,1,8.4.23,68.28,68.28,0,0,0,8.4,0c5.6-.38,11.21.29,16.81.15,2.8,0,5.6-.21,8.4-.26s5.6,0,8.4.06l8.4.16c1.4,0,2.8,0,4.2,0l4.2-.07c1.4,0,2.8-.07,4.2,0l4.2.06,8.4.13,8.4.09,4.2,0,4.2-.07,8.4-.33,4.2-.08h4.2c5.6,0,11.21,0,16.81.08l8.4.11,8.4.26c5.6.25,11.21.34,16.81.13,11.21-.3,22.41-.47,33.62-.36l8.4.25c2.8,0,5.6.09,8.4,0,5.6-.14,11.21-.61,16.81-.57,2.8,0,5.6.43,8.4.52s5.6-.08,8.4-.27c5.6-.45,11.21-.27,16.81-.19l8.4.11,8.4,0,16.81.09c1.4,0,2.8,0,4.2.13s2.8.19,4.2.17c2.8,0,5.6-.24,8.4-.23,5.6,0,11.21.37,16.81.34,22.41.15,44.82,0,67.23-.19l16.81.18c2.8,0,5.6.09,8.4.06s5.6-.16,8.4-.21,5.6,0,8.4,0,5.6,0,8.4,0c5.6-.13,11.21-.14,16.81-.2Z" style="fill:#e8eaf2"/><path d="M1824.83,748.48c-20.12.1-40.23.37-60.35.18l-15.09-.12c-2.51,0-5-.18-7.54-.2l-7.54,0-15.09,0c-5,0-10.06-.14-15.09-.21l-15.09-.15c-5,0-10.06.06-15.09.08l-30.17.23-30.17.27c-10.06.07-20.12-.18-30.17-.22l1-1h0l.22,34a1.2,1.2,0,1,1-2.4,0h0l-.18-34h0a1.37,1.37,0,0,1,1.37-1.37h0c5,0,10.06-.06,15.09.06s10.06.17,15.09.15l30.17,0,30.17,0,15.09,0,15.09-.17c5,0,10.06-.12,15.09-.06l15.09.29,7.54.17c2.51,0,5-.08,7.54-.07l15.09.22,7.54.09c2.51,0,5-.07,7.54-.1l7.54-.16,7.54,0,30.17-.1a1.2,1.2,0,1,1,0,2.4Z" style="fill:#fff"/><path d="M1614.13,813.09a46.74,46.74,0,0,1-12.13-8.24c-7.39-6.86-12.82-15.51-18.17-24.06-1.06-1.34,1.42-2.62,3.13-2.57,54.58,1.83,110.29,1.9,164.9-2.93,25.43-2.25,51-1.13,76.52,0,3.7.16,7.68.42,10.59,2.73-5.39,6.86-14.6,9.55-23.31,10.06s-17.47-.78-26.16,0c-27.2,2.31-49.52,15.84-77.6,13.52-15.72-1.3-32-3.64-46.93,1.35-12.16,4.06-23,12.86-35.82,13.37A32.83,32.83,0,0,1,1614.13,813.09Z" style="fill:#e8eaf2;stroke:#e8eaf2;stroke-miterlimit:10;stroke-width:3px;opacity:0.5"/><line x1="1838.67" y1="297.21" x2="1671.09" y2="297.21" style="fill:none;stroke:#e8eaf2;stroke-miterlimit:10;stroke-width:3px"/><path d="M1155.08,80.83l13.83-.28c4.62-.1,9.27-.19,14-.21s9.39,0,14.06.08c2.33-.05,4.7.25,7,.21l7,0h0a1,1,0,0,1,1,1h0l0,5.51-.14,5.51c-.12,3.68-.16,7.35-.22,11h0a.62.62,0,0,1-.62.61c-4.58,0-9.16.1-13.75.15l-13.75.19-13.75.22c-4.58.14-9.16,0-13.75-.13h0a1,1,0,0,1-1-1h0q.07-2.85.08-5.7V92.29C1155,88.47,1155,84.63,1155.08,80.83Zm1.7,1.7.37,10.68c.11,3.52.18,7,.16,10.52l-1.38-1.38c4.58,0,9.16.3,13.75.21l13.75,0,13.75,0,13.75-.05-1.28,1.28c-.07-3.68-.17-7.35-.2-11,0-1.84-.07-3.68-.05-5.51s.07-3.68.16-5.51l1.38,1.38-6.77-.29c-2.28-.19-4.49.15-6.77,0l-6.82-.2c-2.27,0-4.57-.16-6.81-.1s-4.44.16-6.67.19l-6.76,0Z" style="fill:#fff"/><path d="M1253.81,128.09l-19.48.29c-6.5.12-13.06.18-19.63.2l-9.87-.05-4.93,0-2.46,0-2.48-.1c-1.65-.08-3.29-.09-4.92-.09l-4.9,0-9.8,0a1,1,0,0,1-1-1c0-1.84.07-3.68.09-5.51l.12-5.51.15-11h0a.62.62,0,0,1,.62-.62c6.47,0,12.94-.11,19.41-.16l19.41-.21,19.41-.23c6.47,0,12.94.24,19.41.25a1,1,0,0,1,1,1h0C1254,112.77,1254,120.5,1253.81,128.09Zm-1.7-1.7c-.25-7.2-.48-14.18-.53-21.2l1.38,1.38c-3.23,0-6.47,0-9.7,0l-9.7-.18-19.41,0-38.81.09,1.28-1.28.17,11,.06,5.51c0,1.84.07,3.68,0,5.51l-1.53-1.53c6.37,0,12.8.5,19.21.47l2.39-.05,2.41.06,4.83.11,9.67.19c3.22,0,6.36-.11,9.52-.16s6.38,0,9.57,0Z" style="fill:#fff"/><path d="M1215,151.62l-19.48.29c-6.5.12-13.06.18-19.63.2L1166,152l-4.93,0-2.46,0-2.48-.1c-1.65-.08-3.29-.09-4.92-.09l-4.9,0-9.8,0a1,1,0,0,1-1-1c0-1.84.07-3.68.09-5.51l.12-5.51.15-11h0a.62.62,0,0,1,.62-.62c6.47,0,12.94-.11,19.41-.16l19.41-.21,19.41-.23c6.47,0,12.94.24,19.41.25a1,1,0,0,1,1,1h0C1215.21,136.29,1215.15,144,1215,151.62Zm-1.7-1.7c-.25-7.2-.48-14.18-.53-21.2l1.38,1.38c-3.23,0-6.47,0-9.7,0l-9.7-.18-19.41,0-38.81.09,1.28-1.28.17,11,.06,5.51c0,1.84.07,3.68,0,5.51l-1.53-1.53c6.37,0,12.8.5,19.21.47l2.39-.05,2.41.06,4.83.11,9.67.19c3.22,0,6.36-.11,9.52-.16s6.38,0,9.57,0Z" style="fill:#fff"/><path d="M830.43,370.54l-18.67.29c-6.23.12-12.52.17-18.82.2s-12.62,0-18.93-.18c-3.17-.18-6.29-.08-9.42-.12l-9.39,0h0a1,1,0,0,1-1-1c0-3.68.14-7.35.21-11l.16-11h0a.62.62,0,0,1,.62-.61c6.2,0,12.4-.11,18.6-.16l18.6-.21,18.6-.23c6.2,0,12.4.22,18.6.24a1,1,0,0,1,1,1l0,5.71v5.74C830.56,362.91,830.5,366.74,830.43,370.54Zm-1.7-1.7c-.25-7.2-.49-14.18-.53-21.2l1.38,1.38c-3.1,0-6.2.05-9.3,0l-9.3-.17-18.6,0-37.2.09,1.28-1.28.18,11c0,3.68.13,7.35.06,11l-1.52-1.52c3.05,0,6.11.18,9.18.27l4.61.16c1.54.07,3.08.1,4.6,0s3.06,0,4.6,0l4.63.11,9.27.18c3.08,0,6.08-.12,9.11-.17s6.11,0,9.17,0Z" style="fill:#fff"/><path d="M712.3,323.27l19.48-.29c6.5-.12,13.06-.18,19.63-.2l9.87.05,4.93,0,2.46,0,2.48.1c1.65.08,3.29.09,4.92.09l4.9,0,9.8,0a1,1,0,0,1,1,1c0,1.84-.07,3.68-.09,5.51l-.12,5.51-.15,11h0a.62.62,0,0,1-.62.62c-6.47,0-12.94.11-19.41.16l-19.41.21-19.41.23c-6.47,0-12.94-.24-19.41-.25a1,1,0,0,1-1-1h0C712.08,338.59,712.14,330.87,712.3,323.27ZM714,325c.25,7.2.48,14.18.53,21.2l-1.38-1.38c3.23,0,6.47,0,9.7,0l9.7.18L752,345l38.81-.09-1.28,1.28-.17-11-.06-5.51c0-1.84-.07-3.68,0-5.51l1.53,1.53c-6.37,0-12.8-.5-19.21-.47l-2.39.05-2.41-.06-4.83-.11-9.67-.19c-3.22,0-6.36.11-9.52.16s-6.38,0-9.57,0Z" style="fill:#fff"/><path d="M751.11,299.75l19.48-.29c6.5-.12,13.06-.18,19.63-.2l9.87.05,4.93,0,2.46,0,2.48.1c1.65.08,3.29.09,4.92.09l4.9,0,9.8,0a1,1,0,0,1,1,1c0,1.84-.07,3.68-.09,5.51l-.12,5.51-.15,11h0a.62.62,0,0,1-.62.62c-6.47,0-12.94.11-19.41.16l-19.41.21-19.41.23c-6.47,0-12.94-.24-19.41-.25a1,1,0,0,1-1-1h0C750.89,315.07,750.95,307.35,751.11,299.75Zm1.7,1.7c.25,7.2.48,14.18.53,21.2L752,321.27c3.23,0,6.47,0,9.7,0l9.7.18,19.41,0,38.81-.09-1.28,1.28-.17-11-.06-5.51c0-1.84-.07-3.68,0-5.51l1.53,1.53c-6.37,0-12.8-.5-19.21-.47l-2.39.05-2.41-.06-4.83-.11-9.67-.19c-3.22,0-6.36.11-9.52.16s-6.38,0-9.57,0Z" style="fill:#fff"/><path d="M1177.53,455.7l19.49-.28,9.78-.14,9.84-.07c6.58,0,13.16,0,19.73.13,1.65.05,3.3.15,4.94.16l4.9,0,9.8,0h0a1,1,0,0,1,1,1h0c0,2.12,0,4.24-.06,6.35l-.13,6.35c-.1,4.24-.12,8.47-.18,12.71h0a.62.62,0,0,1-.62.61c-6.47,0-12.94.11-19.41.16l-19.41.2-19.41.23c-6.47.05-12.94-.16-19.41-.21h0a1,1,0,0,1-1-1h0c0-4.35,0-8.73,0-13.12S1177.46,460.07,1177.53,455.7Zm1.7,1.7.35,12.36c.09,4.08.19,8.14.18,12.21l-1.38-1.38c6.47-.08,12.94.22,19.41.22l19.41,0,38.81-.09-1.28,1.28-.18-12.71-.06-6.35c0-2.12,0-4.24,0-6.35L1256,458c-3.19-.07-6.39-.2-9.59-.29l-4.81-.15c-1.61-.07-3.19,0-4.79.06l-19.31-.36c-1.6,0-3.19,0-4.77.08l-4.74.1h-9.58Z" style="fill:#fff"/><path d="M1254.83,507.59l-10.62.19c-1.77,0-3.54.07-5.31.06s-3.54,0-5.31-.05l-5.31-.12a20.62,20.62,0,0,1-2.66-.17c-.89-.08-1.77,0-2.66-.07-3.54-.06-7.08,0-10.62-.21h-.07a.82.82,0,0,1-.77-.84l.15-6.35c.06-2.12.06-4.24.08-6.35s0-4.24,0-6.35l-.07-6.35a.72.72,0,0,1,.71-.73h0l21.24-.49c3.54,0,7.08.25,10.62.23s7.08-.08,10.62-.21a1.2,1.2,0,0,1,.09,2.4h-.09l-10.62.17c-1.77,0-3.54.05-5.31,0s-3.54-.15-5.31-.18l-21.24.08,1.24-1.24v6.35c0,2.12,0,4.24,0,6.35l.24,12.71-1.52-1.52c1.77,0,3.54,0,5.31,0s3.54.24,5.31.35c.89,0,1.77.14,2.66.09a14.7,14.7,0,0,1,2.66,0l5.31.24a41.4,41.4,0,0,0,5.31-.1c1.77-.16,3.54-.15,5.31-.17,3.54,0,7.08-.12,10.62-.08a1.2,1.2,0,0,1,0,2.4Z" style="fill:#fff"/><path d="M1572.18,843.32c20.26-.12,40.52-.43,60.77-.12l7.6.08c2.53.08,5.06.21,7.6.19l15.19.06c5.06,0,10.13.11,15.19.19s10.13.12,15.19.18c20.26-.1,40.52-.31,60.77-.51,5.06,0,10.13-.13,15.19-.06l15.19.2c10.13,0,20.26-.14,30.39-.2v2.4l-30.39.18c-2.53,0-5.06,0-7.6,0l-7.6-.13c-5.06-.1-10.13-.06-15.19-.06l-60.77.11-15.19.19c-5.06,0-10.13.13-15.19,0l-15.19-.39c-1.27,0-2.53-.08-3.8-.06l-3.8.09-7.6-.12c-5.06-.09-10.13-.17-15.19-.2s-10.13.31-15.19.28l-30.39.11Z" style="fill:#e0e3ed"/><path d="M1473.14,997.83c6.94,8.19,16.14,14,27.41,14.78,1.25.09,2.72,0,3.46-1a3.66,3.66,0,0,0,.48-2.32c-.21-5.67-2.62-11.08-5.92-15.7-2.7-3.79-6.51-6.61-9.27-10.26-2.06-2.73-2.86-5.88-5.65-8.18-2.35-1.94-5.48-3.08-7.07-5.68a22,22,0,0,1-1.68-4.67c-1-3.14-10.87-9.33-14.1-6.2-2.1,2-2.69,3.61-2.22,6.5C1460.41,976.47,1465.35,988.64,1473.14,997.83Z" style="fill:#3e4166"/><path d="M1444.67,947.35a7.31,7.31,0,0,0-1.24,5.66,16.81,16.81,0,0,0,3.62,7,72,72,0,0,0,15.81,15.3,10.87,10.87,0,0,0,5.4,2.35c10.1.57,8.19-15,6.94-20.59a12.09,12.09,0,0,0-2.66-5.81c-4.22-4.44-14.06-4.53-19.65-5.54-2.27-.41-4.76-.78-6.76.37A5,5,0,0,0,1444.67,947.35Z" style="fill:#3e4166"/><path d="M1465.56,988.88a54.48,54.48,0,0,1-5.66-13.08c-1.13-4-3.85-6.2-6.71-8.87-2.44-2.28-6.35-5.72-7.47-9-.61-1.76-.75-1.52,1.2-1.53s3.91,1,5.51,1.84a48.44,48.44,0,0,1,8.41,5.49c1.72,1.4,3.26,2.84,3.83,5,1.66,6.31,2.6,8.4,7,13.69,6.23,7.53,12.47,14.3,17.12,23.1,0,1.37-2.05,1.46-3.34,1C1477,1003.36,1470.26,996.7,1465.56,988.88Z" style="fill:#2f3155"/><path d="M1580.05,992.68a24.46,24.46,0,0,0,2,4.18,5.28,5.28,0,0,0,.85,1.13,6,6,0,0,0,2.73,1.2,11.83,11.83,0,0,0,8-.73,2.41,2.41,0,0,1,1.31-.37c2.07.28-.37,4.43-.83,5.22-5.31,9.3-21.55,6.41-28.17,1.19" style="fill:#2f3155"/><path d="M1515.52,1002.19l.85,10.37c.43,5.29,1.92,11-.17,15.94-.2.47-.41,2-.79,2.32a3.72,3.72,0,0,1-2.18.73c-2,.23-10.53.42-11.44-2-.7-1.88.92-3.33,1.28-5a6.61,6.61,0,0,0-1.05-5l-14.09-19.11" style="fill:#0c1238"/><path d="M1522.4,1001.28,1543,1020.2c1.73,1.59.73,5-.92,6.64a2.26,2.26,0,0,0,1.47,3.85c3.36,0,7,.88,10.29,0,3.82-1.07,3.85-5.08,4.59-8.4l4.11-18.61" style="fill:#0c1238"/><path d="M1486.43,975.48c.24,1.24-1.44,1.79-2.64,2.19-10.22,3.34-6.22,16-3.3,23.23,4.79,11.79,19.77,12.65,31,13.67,23.56,2.13,51.86,4.39,63.36-21.12" style="fill:#5053ab"/><path d="M1537.56,1001.64l25.77,20.48c3.57,2.8-1.85,4.06-1.41,7.15.53,3.74,4,2.6,9.87,2.34,6.4-.28,9.06-4.56,8.31-9s-1.61-5.45-2.5-10.13c-1.43-7.53-1.84-15.05-3.27-22.58,0,0-1-.1-1-.15" style="fill:#3e4166"/><path d="M1507.41,1002.19l.85,10.37c.43,5.29,1.92,11-.17,15.94a2.78,2.78,0,0,1-3,2c-2,.23-10.53,1.43-11.44-1-.7-1.88.92-3.32,1.28-5,1.3-6.14-6-13.26-8.7-18.4a102.27,102.27,0,0,1-8.72-23.72" style="fill:#3e4166"/><path d="M1563,992.77c1.91,1.19,3.75,2.5,5.59,3.8,6.64,4.72-.55,7.21-3.8,10.41a3.23,3.23,0,0,0-1.08,2.78c.42,2.24,4,3.23,3.66,5.49-.16,1.21-1.46,2.08-1.47,3.3,0,1.52,1.83,2.23,3.29,2.65s3.22,1.56,2.73,3a2.41,2.41,0,0,1-.77,1c-1.74,1.48-4.27,2-5.64,3.93-.58.81-.13,1.86-1.39,2.18a2,2,0,0,1-2.14-1.54,4,4,0,0,1,1.11-3.25c3-3.65-.8-4.89-3.4-7.06q-5.31-4.42-10.85-8.55c-1.27-.95-2.52-2-2.88-3.6-.42-1.91.22-2.88-1.61-4.42a23.15,23.15,0,0,0-12.15-5c-5.51-.69-14.66,4-18.72-1.46-8.93-12,26.11-9.71,31.44-9.2a45.27,45.27,0,0,1,11.91,2.43A36.32,36.32,0,0,1,1563,992.77Z" style="fill:#2f3155"/><path d="M1556.39,946a48.4,48.4,0,0,1,12.22,13,71.77,71.77,0,0,1,7.11,15.27,60.68,60.68,0,0,1,2.3,7.13c.51,2.45.16,4.68,2.26,6.55.39.35.84.65,1.2,1,3.77,4-.71,9.11-4.13,11.26-9.31,5.88-22.86,7-33.62,8.09-18.42,1.92-37.46.65-53.33-10-8.59-5.78-22.13-16.64-15.29-28.08,1.14-1.91,3.1-3,4.54-4.63s2.51-3.41,4-5c3.54-4,6.71-8.23,10.35-12.1C1510.17,931.31,1538.11,932.64,1556.39,946Z" style="fill:#7581ce"/><path d="M1497.51,993.38a33,33,0,0,1-10.87-7,14.66,14.66,0,0,1-3.65-12.46,10.44,10.44,0,0,1,3.2-5.88,20.14,20.14,0,0,1,5.55-3.41,8,8,0,0,1,3.3-.76,6,6,0,0,1,3.17,1.23c.89.62,1.71,1.27,2.54,1.95s1.66,1.34,2.43,2.08a18.63,18.63,0,0,1,3.84,5.17,13.13,13.13,0,0,1,1.5,6.34,9.52,9.52,0,0,1-2.48,6.16,6.05,6.05,0,0,1-3.06,1.81,5.37,5.37,0,0,1-3.55-.65,16,16,0,0,1-4.93-4.4,14.52,14.52,0,0,1-1.67-2.86,6.69,6.69,0,0,1-.65-3.4,4.75,4.75,0,0,1,.49-1.78,3.1,3.1,0,0,1,1.4-1.37,3,3,0,0,1,1.91-.29,4.81,4.81,0,0,1,1.7.65,7.84,7.84,0,0,1,3.47,5.79l-1.57.12a6.33,6.33,0,0,0-2.7-4.65,2.17,2.17,0,0,0-2.15-.3,2.11,2.11,0,0,0-.84,1.92,6.67,6.67,0,0,0,.52,2.62,13.89,13.89,0,0,0,1.4,2.58,12.64,12.64,0,0,0,4.39,3.89,3.87,3.87,0,0,0,2.52.65,4,4,0,0,0,2.3-1.35,8.12,8.12,0,0,0,2-5.25,28.81,28.81,0,0,0-.15-2.92,6.62,6.62,0,0,0-.9-2.81,19.74,19.74,0,0,0-3.82-4.62,22.29,22.29,0,0,0-2.23-2.1c-.8-.63-1.67-1.25-2.5-1.79a5.06,5.06,0,0,0-2.44-1,4.71,4.71,0,0,0-2.63.64c-.87.46-1.73,1.07-2.62,1.54a15.92,15.92,0,0,0-2.46,1.67,7.15,7.15,0,0,0-1.77,2.29,9.33,9.33,0,0,0-1.09,2.74,10.72,10.72,0,0,0,.38,6,14.78,14.78,0,0,0,3.11,5.14,16.17,16.17,0,0,0,4.64,4,36.93,36.93,0,0,0,5.56,2.67Z" style="fill:#5053ab"/><path d="M1517.46,970.67a21.83,21.83,0,0,1-5.21-1.25,15.91,15.91,0,0,1-2.6-.94,9.89,9.89,0,0,1-2.29-1.65,11.09,11.09,0,0,1-2.85-4.86,6.61,6.61,0,0,1,.75-5.63,5.31,5.31,0,0,1,2.25-1.83,8.88,8.88,0,0,1,2.69-.73,16.32,16.32,0,0,1,5.33.69,31.47,31.47,0,0,1,4.84,2.15c.4.19.82.34,1.21.54s.77.44,1.15.67c.75.47,1.48,1,2.19,1.51l.21.16,0,.29a4.36,4.36,0,0,1-.69,3,5,5,0,0,1-2.32,1.95,7.46,7.46,0,0,1-2.87.36,27.13,27.13,0,0,1-2.7-.25,11.45,11.45,0,0,1-2.68-.58,5.17,5.17,0,0,1-2.35-1.85A3.84,3.84,0,0,1,1511,961a2.67,2.67,0,0,1,0-.86,2,2,0,0,1,.37-.9,2.22,2.22,0,0,1,1.66-.88,2.05,2.05,0,0,1,1.8.85l-1.3.89a.48.48,0,0,0-.45-.19.69.69,0,0,0-.51.26.86.86,0,0,0-.1.62,2,2,0,0,0,.36.85,2.72,2.72,0,0,0,1.7,1,22.82,22.82,0,0,0,2.37.53,8.67,8.67,0,0,0,4.7,0,3.39,3.39,0,0,0,1.75-1.22,2.77,2.77,0,0,0,.42-2l.29.51c-.68-.51-1.4-.95-2.11-1.41-.35-.24-.73-.43-1.07-.68s-.65-.56-1-.79a24.82,24.82,0,0,0-4.72-1.75,9.66,9.66,0,0,0-4.75-.66,4.85,4.85,0,0,0-2.19.57,9,9,0,0,0-1.54,1.44,3.33,3.33,0,0,0-.85,2,10.06,10.06,0,0,0,.1,2.36,5.85,5.85,0,0,0,.94,2.26,8.08,8.08,0,0,0,1.63,1.84,13.36,13.36,0,0,0,2,1.36,13.77,13.77,0,0,0,2.21,1.14,30.26,30.26,0,0,0,5,.93Z" style="fill:#5053ab"/><path d="M1524,994.64a9.8,9.8,0,0,1-4.6-.31,15.26,15.26,0,0,1-4.15-2.07,8.1,8.1,0,0,1-2.59-4,12.4,12.4,0,0,1-.41-4.6,11.58,11.58,0,0,1,1.18-4.41,8.34,8.34,0,0,1,1.34-1.92,6.66,6.66,0,0,1,1.92-1.36,8.13,8.13,0,0,1,4.46-.81,13.66,13.66,0,0,1,4.27,1.28,20,20,0,0,1,3.61,2.49,20.51,20.51,0,0,0,1.71,1.35,7.27,7.27,0,0,1,1.57,1.64,5.36,5.36,0,0,1,1,2.21,3,3,0,0,1-.75,2.56,4.65,4.65,0,0,1-2.22,1.23,14.24,14.24,0,0,1-2.23.38,28.82,28.82,0,0,1-4.44-.17,15.26,15.26,0,0,1-2.22-.37,5.1,5.1,0,0,1-2.18-1.06,3.57,3.57,0,0,1-1.22-2.29,2.66,2.66,0,0,1,.15-1.37A2.84,2.84,0,0,1,1519,982a4.15,4.15,0,0,1,2.4-.8,10.82,10.82,0,0,1,2.3.15l-.3,1.55a9.17,9.17,0,0,0-2-.16,2.64,2.64,0,0,0-1.54.45,1.13,1.13,0,0,0-.43,1.11,1.89,1.89,0,0,0,.84,1.14,8.12,8.12,0,0,0,3.51,1.16,18,18,0,0,0,4.1.14,13.18,13.18,0,0,0,2-.19,2.45,2.45,0,0,0,1.52-.77,1.56,1.56,0,0,0,.34-1.37,4,4,0,0,0-.76-1.58c-.37-.52-.85-1-1.24-1.52a6.5,6.5,0,0,0-1.55-1.41,29.3,29.3,0,0,0-3.55-2.08,6.87,6.87,0,0,0-3.71-1.17,9.24,9.24,0,0,0-1.92.07,4.15,4.15,0,0,0-1.77.58,10.14,10.14,0,0,0-2.53,2.69,6,6,0,0,0-.69,1.86,14.84,14.84,0,0,0-.47,2,7.93,7.93,0,0,0,.4,4,7.73,7.73,0,0,0,2.29,3.18,8.07,8.07,0,0,0,1.58,1.21,5,5,0,0,0,1.87.73,9.17,9.17,0,0,0,3.92.12Z" style="fill:#5053ab"/><path d="M1504.64,994.88c1.59.45,3.1,1.2,4.8,1.23a22.46,22.46,0,0,1,2.41.57c.8.19,1.6.4,2.41.57s1.62.32,2.43.51,1.63.31,2.45.5,1.66.15,2.48.29a16.69,16.69,0,0,0,2.49.2c.83,0,1.66.11,2.49.14s1.67-.23,2.5-.18l2.49-.14c.83,0,1.66-.17,2.48-.21s1.67,0,2.49-.06,1.65-.22,2.48-.26a22.25,22.25,0,0,0,4.94-.69l.23,1.56-2.5.39-1.25.18-1.24.29c-1.68.19-3.38.14-5.06.24a28.75,28.75,0,0,0-5.06.2,3.55,3.55,0,0,1-1.27-.09,2.81,2.81,0,0,0-1.26-.08,20.69,20.69,0,0,1-2.54.17,51.44,51.44,0,0,1-10-1.57,10.8,10.8,0,0,0-2.48-.52c-.83-.14-1.68-.24-2.5-.41a11,11,0,0,0-2.44-.7c-.83-.19-1.65-.4-2.46-.64Z" style="fill:#5053ab"/><path d="M1523.5,1014.73a7.07,7.07,0,0,0,2.46-.53,4,4,0,0,0,1.11-.68,8,8,0,0,1,.94-.94,5.93,5.93,0,0,0,1-.93,9,9,0,0,0,.72-1.17,19,19,0,0,0,1-2.56,23.19,23.19,0,0,1,1-2.58,11.83,11.83,0,0,0,.66-2.76c.5-1.82,1.21-3.6,1.6-5.46a10.18,10.18,0,0,0,.21-1.41,7.86,7.86,0,0,1,.15-1.42c.09-.46.37-.9.46-1.36s-.06-1,.08-1.43l.46-2.81c.13-.94.25-1.88.33-2.83a21.47,21.47,0,0,1,.36-2.83,6.3,6.3,0,0,0,.21-1.42c0-.48-.1-1-.08-1.43,0-.95.21-1.89.29-2.85a15.8,15.8,0,0,0-.07-2.85c-.09-.95,0-1.9-.1-2.85s-.12-1.9-.12-2.85a11.72,11.72,0,0,0-.36-2.83c-.21-.93-.35-1.87-.55-2.8s-.37-1.86-.54-2.8c-.09-.47-.16-.93-.23-1.4l-.13-1.42c-.22-1.9-1.12-3.64-1.47-5.5a10,10,0,0,0-.75-2.74,8.54,8.54,0,0,1-.37-1.37c-.08-.47-.11-1-.23-1.42-.19-.94-.75-1.75-.85-2.72s-.87-1.7-1.08-2.63a15,15,0,0,0-.85-2.7,17.51,17.51,0,0,0-1.49-2.18,2.19,2.19,0,0,0-1-.75,2.57,2.57,0,0,0-1.18-.1,3.1,3.1,0,0,0-1,.3,1.7,1.7,0,0,0-.63.65l-1.44-.7a2.85,2.85,0,0,1,1.37-1.35,3.32,3.32,0,0,1,1.75-.32,6.32,6.32,0,0,1,3.09,1.31,3.79,3.79,0,0,1,1.07,1.21c.25.47.42,1,.63,1.41.41.91.87,1.75,1.32,2.61.36,1.92,1.32,3.63,1.63,5.55.15.46.44.87.6,1.33a8.34,8.34,0,0,1,.36,1.4,12.64,12.64,0,0,0,.7,2.8c.53,1.86.59,3.81,1.1,5.67a11.49,11.49,0,0,1,.78,2.79c.14,1,.3,1.9.37,2.87a17.34,17.34,0,0,1,.09,2.9,10.7,10.7,0,0,0,.18,2.88,28.15,28.15,0,0,1,.51,5.75,19.52,19.52,0,0,0-.15,2.89,19.37,19.37,0,0,1,.35,2.9,12.41,12.41,0,0,1-.42,1.43,4,4,0,0,0,.09,1.45,5.17,5.17,0,0,1,.12,1.46c-.05.48-.15,1-.22,1.43-.17,1-.27,1.91-.38,2.87l-.46,2.85c0,.48-.36.92-.41,1.4s0,1-.11,1.44a8.78,8.78,0,0,1-.4,1.39c-.16.46-.24.93-.36,1.4-.55,1.84-.82,3.75-1.39,5.59a23.18,23.18,0,0,0-.74,2.79,9.49,9.49,0,0,1-.9,2.79,38.81,38.81,0,0,1-3.19,5,8.88,8.88,0,0,1-5.49,2.75Z" style="fill:#0c1238"/><path d="M1525.68,934.07a19.75,19.75,0,0,1,.67-3.77c.18-.63.44-1.24.64-1.9a4.08,4.08,0,0,1,1.19-1.68,6.81,6.81,0,0,1,3.72-1.88,4.23,4.23,0,0,1,3.94,2,3.07,3.07,0,0,1,.33,2.45,6.08,6.08,0,0,1-1.11,1.94c-.43.53-.81,1-1.27,1.54a9.8,9.8,0,0,1-1.55,1.23,22.21,22.21,0,0,1-7.34,2.62l-.58.12L1524,936c-.27-.71-.5-1.4-.73-2.16s-1-1.18-1.47-1.77a7.94,7.94,0,0,0-4-2.16,2.17,2.17,0,0,0-1.83.27,1.11,1.11,0,0,0-.31.67,3.28,3.28,0,0,0,.06,1,3.69,3.69,0,0,0,1.2,2c.62.56,1.1,1.21,1.65,1.8a5.57,5.57,0,0,0,1.9,1.45,7.9,7.9,0,0,0,1.18.33,10.56,10.56,0,0,0,1.22.24c1.63.26,3.29.44,5,.54s3.35.34,5.06.3a16.21,16.21,0,0,1,5.14.81,8.36,8.36,0,0,1,1.24.53l1.18.68a7.22,7.22,0,0,1,1.88,2c.55.72.9,1.53,1.4,2.26s.78,1.57,1.14,2.38a12.44,12.44,0,0,1,.43,1.24,8.69,8.69,0,0,1,.32,1.26,18.08,18.08,0,0,0,.4,2.53,22.21,22.21,0,0,1,.5,2.47,23.45,23.45,0,0,0,.26,2.48c.19.8.53,1.55.73,2.34a4.18,4.18,0,0,0,1,2.16c.53.59.88,1.31,1.4,1.93a6.54,6.54,0,0,0,1.76,1.61,11.63,11.63,0,0,0,2.15.94,9.82,9.82,0,0,0,1.11.35,3.57,3.57,0,0,0,1.15,0c1.47-.27,3-1.22,3.18-2.3l1.56.34a3.78,3.78,0,0,1-1.9,2.43,6.15,6.15,0,0,1-2.74.71,9.83,9.83,0,0,1-2.79-.14,6.53,6.53,0,0,1-2.43-1.27,22.57,22.57,0,0,1-2.15-1.65,5.38,5.38,0,0,1-1.69-2.12,12.73,12.73,0,0,0-.47-1.29c-.2-.41-.42-.78-.62-1.18a10.9,10.9,0,0,1-.59-2.55c-.16-.85-.53-1.65-.71-2.48a19.42,19.42,0,0,1-.3-2.52A10.16,10.16,0,0,0,1544,950c-.22-.79-.34-1.6-.55-2.39-.09-.4-.24-.77-.36-1.16a7.53,7.53,0,0,0-.42-1.13,5.87,5.87,0,0,0-1.4-1.91c-.55-.57-1.21-1-1.76-1.48l-1-.59a8.9,8.9,0,0,0-1-.49,27.74,27.74,0,0,0-4.63-1.36c-1.63-.42-3.33-.13-5-.17-.85,0-1.71,0-2.56-.1l-1.29-.13c-.43-.07-.85-.18-1.28-.28a12.78,12.78,0,0,1-1.24-.43c-.41-.18-.82-.24-1.26-.44a13.36,13.36,0,0,1-2.49-1.24,4.34,4.34,0,0,1-1.76-2,13.19,13.19,0,0,0-1.46-2.36,3,3,0,0,1-.47-1.6,2.47,2.47,0,0,1,.85-1.8,3,3,0,0,1,1.72-.7,5.22,5.22,0,0,1,1.52.11,9.06,9.06,0,0,1,4.87,2.55c.74.6.95,1.58,1.55,2.26a4.54,4.54,0,0,1,1,2.55l-.75-.55a11.71,11.71,0,0,0,6.66-2.35,15,15,0,0,0,2.66-2.39,2.7,2.7,0,0,0,.63-1.45,2.45,2.45,0,0,0-.3-1.31,3.06,3.06,0,0,0-2.45-1.53,3.34,3.34,0,0,0-2.79,1.49c-.32.46-.58.95-.89,1.41a4.38,4.38,0,0,0-.6,1.62,30.81,30.81,0,0,0-.38,3.59Z" style="fill:#0c1238"/><path d="M1611.23,433.44c-3.43-1.88-8.37-1-12.44.14-5,1.36-11.52,2.06-14.3-2.32-1.84-2.89-1-6.65-1.44-10a13.85,13.85,0,0,0-7.7-10.65c-12.55-5.91-28.21,8.74-40.42,2.19-8.47-4.54-9.38-16.41-7.24-25.78a70,70,0,0,1,6.14-16.7c4.21-8.08,10-15.28,14.26-23.32s7.14-17.44,4.84-26.26c-.72-2.77-2.19-5.66-4.86-6.68-3-1.13-6.25.44-8.93,2.15-30.9,19.64-41.3,63.64-32.87,97.74,4.18,16.89,13.83,32.53,27.61,43.15,2.93,2.26,6.07,4.33,8.36,7.23s3.58,6.93,2.18,10.35c-.94,2.31-3,4.15-3.43,6.62-.5,3,1.72,5.88,4.46,7.17s5.87,1.34,8.89,1.37l-.94-13.56c21-1.91,46.64-13.37,59.43-30.86,2.15-2.94,2.75-7.3.5-10.16A6.8,6.8,0,0,0,1611.23,433.44Z" style="fill:#dee4f5"/><path d="M1600.29,322.32c-25.93-14.47-56.3-17.51-76.41,7.05a90.79,90.79,0,0,0-19.47,43c-2.68,17.51-.73,36.59,5.57,52.32,3.28,8.19,7.69,17.44,13.52,24.15,6,6.92,21.86,13.37,22.15,23.9.1,3.88-2.49,7.46-5.5,9.64,3.05,5.9,9,10,15.27,7.44-.21-1.08-2.51-12.3-2.55-12.29,17.91-3.12,33.53-7.3,47.78-19.55,28.89-24.83,44.59-68.34,30.89-102" style="fill:none;stroke:#a3b3ef;stroke-miterlimit:10;stroke-width:2px"/><path d="M1626.29,345.82a65.61,65.61,0,0,0-16.48-17.45" style="fill:none;stroke:#a3b3ef;stroke-miterlimit:10;stroke-width:2px"/><path d="M1503.48,458.44c4.8,41.55-21.67,68.48-51.27,93.39A21.42,21.42,0,0,1,1460.9,563a64.59,64.59,0,0,1-20.58,6.21l2.32-13.16c-17.44-2.31-31.22-11.79-42.94-24.66-27.3-30-40-83.16-19.11-119.73,8.68-15.16,24-27.34,41.46-28.52,8.61-.58,17.18,1.48,25.37,4.19C1479.81,398.07,1499.87,427.18,1503.48,458.44Z" style="fill:#a3b3ef;stroke:#a3b3ef;stroke-miterlimit:10;stroke-width:2px"/><path d="M1404.47,315.12c.81,44.29,25.4,70.93,59.17,94.34l-8.25,13.22a24.48,24.48,0,0,0,18.79-4.7,20.82,20.82,0,0,1-5-10.19c17.41,1,34-11.8,44.59-24.62,20.79-25.17,30.27-57.76,19.44-89.34-8.63-25.18-33.16-49.37-60.38-52.18-29.06-3-54,19.47-64.06,45.17C1405.68,294.87,1404.28,304.66,1404.47,315.12Z" style="fill:#7581ce;stroke:#7581ce;stroke-miterlimit:10;stroke-width:2px"/><path d="M1507.81,272.38a11.43,11.43,0,0,1,2.3,2.43l.23.36a.93.93,0,0,0,.17.4c.15.23.35.43.51.66.35.43.5,1,.83,1.47.7.86,1.55,1.6,2.29,2.44a3.58,3.58,0,0,1,.52.66l.36.77a15.78,15.78,0,0,0,1,1.33.8.8,0,0,1-1.2,1l0,0-.13-.17-1-1.27a2.54,2.54,0,0,1-.37-.74,3.77,3.77,0,0,0-.44-.69,28.33,28.33,0,0,0-2-2.56c-.37-.4-.9-.67-1.13-1.18-.12-.25-.18-.55-.32-.8a.48.48,0,0,0-.11-.18c-.06,0-.14-.06-.18-.11a3.68,3.68,0,0,1-.21-.36,2.77,2.77,0,0,0-.43-.71c-.2-.19-.53-.26-.69-.48a14.33,14.33,0,0,1-1.15-1.16.8.8,0,0,1,1.15-1.11Z" style="fill:#fff"/><path d="M1469.47,252.47a26.82,26.82,0,0,1,8.58.88c.35.08.69.2,1,.3.17.06.33.15.5.23a4.21,4.21,0,0,0,.51.16c.69.19,1.36.43,2,.65,1.37.43,2.61,1.17,3.92,1.72a62.17,62.17,0,0,1,7.74,3.64,13.89,13.89,0,0,1,1.82,1.15c.57.43,1.09.94,1.64,1.39l1.68,1.34,1.65,1.4a.8.8,0,1,1-1,1.22h0l-.08-.07a39.91,39.91,0,0,0-3.19-2.62c-.56-.39-1.05-.89-1.59-1.33a13.84,13.84,0,0,0-1.71-1.18,47.47,47.47,0,0,0-7.4-3.77c-1.3-.49-2.67-.75-3.94-1.31-.64-.25-1.26-.62-1.91-.84a3.09,3.09,0,0,0-.5-.16,3.86,3.86,0,0,1-.52-.07l-1-.32a15.15,15.15,0,0,0-2-.54c-.69-.07-1.41,0-2.09-.1l-2.07-.13c-.69,0-1.38,0-2.06,0h0a.8.8,0,0,1,0-1.6Z" style="fill:#fff"/><path d="M1524.79,935.48c-1-5.6-2-11.21-3-16.83l-1.32-8.44c-.51-2.8-.93-5.62-1.39-8.43-.75-5.65-1.34-11.32-2-17l-.53-4.24-.45-4.25c-.31-2.83-.6-5.67-.82-8.51s-.51-5.68-.66-8.53-.42-5.69-.43-8.55-.16-5.7-.12-8.56,0-5.7,0-8.56,0-5.71.11-8.56.26-5.7.44-8.55l.77-8.53c.32-2.84.7-5.67,1-8.5.8-5.65,1.63-11.3,2.67-16.9l1.48-8.42c.51-2.8,1-5.61,1.67-8.38s1.3-5.54,1.85-8.34,1-5.61,1.59-8.38c1.14-5.57,2.27-11.14,3.27-16.74a300.43,300.43,0,0,0,4.38-33.77l.33-4.25.21-4.26c.2-2.84.09-5.68.09-8.52l-.24-8.52c-.06-2.84-.13-5.68-.29-8.52a278.11,278.11,0,0,0-3.73-33.88c-1.76-11.23-4.09-22.37-6.69-33.44s-6.1-21.92-9.48-32.77q-1.27-4.07-2.63-8.11c-.91-2.69-1.77-5.4-2.72-8.08l-1.4-4-1.34-4-2.75-8.08c-1.83-5.39-3.85-10.71-5.89-16s-4.12-10.61-6.19-15.9-3.9-10.69-6.05-16l-3.13-7.94-1.56-4-1.47-4-2.9-8c-1-2.67-2-5.31-3-8-2.13-5.28-3.84-10.72-5.9-16a63.29,63.29,0,0,1-2.79-8.15,20.66,20.66,0,0,1-.32-8.75,12.73,12.73,0,0,1,4.62-7.45,10.3,10.3,0,0,1,4-2,7.8,7.8,0,0,1,4.52.23l-.37,1.08-4.52-1.36c-1.5-.46-3-.9-4.51-1.38l-9-2.91.29-1.06,3.17.77,3.18.7.82.18-.47.67a2.51,2.51,0,0,1-1.39.92,8.32,8.32,0,0,1-1.37.27c-.89.1-1.77.12-2.64.13l-2.58,0a14.29,14.29,0,0,0-2.4.12l.39-1.19a11.91,11.91,0,0,0,14,2.61l.73,1.42a13.43,13.43,0,0,1-15.82-3l-.92-1.06,1.34-.2a14.67,14.67,0,0,1,2.75-.07l2.56.09a22.26,22.26,0,0,0,2.49-.05,7.14,7.14,0,0,0,1.14-.19,1.61,1.61,0,0,0,.7-.36l.41,1-3.17-.76-3.18-.69.36-1.32,9.05,2.67c1.51.44,3,1,4.5,1.43l4.49,1.45-.51,1.47a6.31,6.31,0,0,0-3.76-.26,9,9,0,0,0-3.48,1.77,10.85,10.85,0,0,0-3.94,6.69,20.19,20.19,0,0,0,.52,8.07,82.32,82.32,0,0,0,2.4,8.07c1.83,5.39,4.16,10.59,6,16,1,2.67,1.91,5.36,2.94,8l3.18,7.92,1.59,4,1.5,4,3,8c1.93,5.36,4.14,10.6,6.17,15.92l5.89,16c2,5.34,3.82,10.73,5.89,16s4.05,10.65,5.78,16.08c.92,2.7,1.76,5.42,2.64,8.13s1.73,5.43,2.55,8.16c1.68,5.45,3.29,10.91,4.71,16.43l2.09,8.29,1,4.16,1.06,4.14c2.84,11,5.26,22.19,7.1,33.45s2.67,22.65,3.78,34c.12,1.42.26,2.84.36,4.27l.22,4.28c.19,2.85.07,5.71,0,8.56s-.16,5.7-.23,8.56v4.28l-.1,4.29a163.51,163.51,0,0,1-1.69,17.05q-1.18,8.48-2.71,16.9c-1,5.61-2.13,11.2-3.26,16.78-.54,2.8-1.25,5.56-1.88,8.33s-1.08,5.59-1.63,8.38c-1,5.6-2.35,11.13-3.4,16.72s-1.94,11.2-2.69,16.83a312.23,312.23,0,0,0-2.28,34c-.07,5.68.15,11.36.4,17s.47,11.35.91,17c.17,2.84.41,5.67.68,8.5l.38,4.25.45,4.24c.28,2.83.65,5.65,1.08,8.46s.81,5.63,1.28,8.43.75,5.64,1.18,8.45.94,5.61,1.45,8.4l1.53,8.39,1.6,8.38Z" style="fill:#0c1238"/><path d="M1524.87,932.86c-.52-2.48-1.13-4.95-1.56-7.44s-.9-5-1.11-7.52l-.42-3.77c-.17-1.25-.17-2.52-.31-3.78l-.35-3.78c-.07-1.26-.16-2.52-.18-3.79-.16-5.06.07-10.11.1-15.16s.35-10.1.68-15.14c.17-2.52.4-5,.6-7.55s.55-5,.86-7.52c.67-5,1.45-10,2-15l1-7.5,1.22-7.46c.81-5,1.73-9.94,2.65-14.9s2-9.9,2.89-14.86c.45-2.48,1-4.94,1.53-7.41s1.28-4.88,1.92-7.32l.49-1.83.43-1.84.84-3.69,2-7.3,2.12-7.26,2.24-7.23,2.33-7.2c.81-2.39,1.59-4.79,2.43-7.17s1.65-4.77,2.57-7.12,1.85-4.69,2.82-7c2-4.64,3.55-9.44,5.55-14.07l6.12-13.82c2-4.63,3.89-9.29,5.67-14s3.56-9.41,5-14.22c3-9.58,5.38-19.44,5.75-29.5a114.57,114.57,0,0,0-.52-15,124.86,124.86,0,0,0-2.5-14.82c-.54-2.45-1.2-4.87-1.85-7.29s-1.31-4.84-2.06-7.24c-1.46-4.8-3-9.58-4.94-14.24s-3.78-9.33-5.75-14-3.75-9.35-5.71-14-3.9-9.31-5.63-14.05-3.17-9.6-4.75-14.39c-.77-2.41-1.52-4.82-2.13-7.28l-.87-3.69c-.31-1.23-.5-2.48-.81-3.7s-.58-2.46-.83-3.7-.54-2.47-.74-3.73l-.51-3.77-.35-3.78a49.16,49.16,0,0,1-.13-7.64,20.36,20.36,0,0,1,2-7.48,12.16,12.16,0,0,1,5.61-5.44,10.18,10.18,0,0,1,3.89-.92,8,8,0,0,1,3.93.9l1,.51-1,.49a12.4,12.4,0,0,1-4.53,1.21,13.57,13.57,0,0,1-4.66-.41,12.67,12.67,0,0,1-7.59-5.37l-.34-.55.5-.42a8.06,8.06,0,0,1,11.33,1.54l-1.32.91a6.5,6.5,0,0,0-9-1.27l.17-1a11.66,11.66,0,0,0,6.63,4.94,12.35,12.35,0,0,0,4.23.48,10.21,10.21,0,0,0,4-1.17v1.26a7.5,7.5,0,0,0-6.61.26,10.91,10.91,0,0,0-5,4.7,14.15,14.15,0,0,0-1.3,3.35,21.24,21.24,0,0,0-.52,3.61,38.56,38.56,0,0,0,.34,7.4l.47,3.72.59,3.7c.14,1.24.38,2.47.53,3.71l.26,1.86c.09.62.23,1.23.35,1.85,1.06,4.9,2.58,9.69,3.89,14.53a140.19,140.19,0,0,0,5,14.2c1.8,4.69,3.55,9.41,5.41,14.09s4,9.24,5.81,14,3.69,9.39,5.46,14.11l1.3,3.55c.41,1.19.83,2.38,1.29,3.56.87,2.37,1.75,4.74,2.54,7.14s1.57,4.81,2.29,7.24,1.26,4.91,1.77,7.39a126.39,126.39,0,0,1,2.33,15,92.47,92.47,0,0,1,.08,15.21l-.35,3.78c-.13,1.26-.36,2.51-.47,3.77s-.32,2.51-.53,3.76-.36,2.51-.63,3.74a124.88,124.88,0,0,1-3.67,14.73l-1.14,3.62-1.22,3.59c-.83,2.39-1.68,4.77-2.68,7.09-1.89,4.68-3.94,9.29-5.9,13.94s-3.62,9.41-5.55,14.06c-.92,2.34-2,4.62-3.06,6.9a68.07,68.07,0,0,0-2.82,7c-.83,2.38-1.58,4.78-2.37,7.17s-1.64,4.75-2.52,7.11c-1.69,4.73-3.34,9.49-4.85,14.28l-2.22,7.21-2.1,7.24-2,7.28-1.06,3.62c-.36,1.21-.71,2.41-1,3.65l-1.62,7.37-1.76,7.34c-.57,2.45-1.14,4.9-1.61,7.37s-1,4.93-1.44,7.41c-1.81,9.9-3.18,19.89-4.73,29.83-.36,2.49-.73,5-1,7.48l-.83,7.5c-.25,2.5-.47,5-.78,7.5s-.53,5-.75,7.51a197.5,197.5,0,0,0-.8,30.12,120.73,120.73,0,0,0,1.19,15l.24,1.86.32,1.85.64,3.7c.45,2.46,1.09,4.89,1.62,7.33Z" style="fill:#0c1238"/><path d="M1524,932.41c-3.1-8.33-5.93-16.76-9.09-25.08-2.68-8.49-5.79-16.82-8.47-25.32l-2-6.38L1504,874l-.42-1.62-.84-3.24c-.58-2.15-1.08-4.32-1.57-6.49-.23-1.09-.55-2.16-.83-3.24s-.52-2.17-.79-3.25l-.77-3.25c-.26-1.08-.52-2.17-.7-3.27-.39-2.2-.82-4.38-1.17-6.59l-1-6.62c-.26-2.22-.51-4.43-.81-6.64-.49-4.43-.87-8.87-1.21-13.32a91.77,91.77,0,0,1-.12-13.38c0-1.12,0-2.23,0-3.35s0-2.23.11-3.34c.16-2.22.29-4.45.53-6.67.39-4.44,1-8.86,1.59-13.27s1.33-8.81,2.13-13.18,1.8-8.72,2.7-13.07,1.47-8.77,2.5-13.1,1.9-8.68,2.71-13,1.51-8.75,2.11-13.15,1.25-8.79,1.71-13.2c.22-2.21.44-4.41.59-6.63s.31-4.42.42-6.64.14-4.43.1-6.65-.09-4.43-.29-6.64l-.23-3.31-.33-3.3c-.17-2.21-.53-4.39-.81-6.59s-.73-4.36-1.15-6.53-.88-4.33-1.5-6.46l-.85-3.2-.39-1.61-.46-1.59-.93-3.18c-.3-1.06-.62-2.12-1-3.16-.75-2.08-1.37-4.21-2.29-6.23s-1.71-4.08-2.68-6.07-1.92-4-3-5.93l-3.22-5.79c-1.12-1.9-2.2-3.83-3.34-5.72s-2.47-3.66-3.74-5.47l-4-5.28c-1.41-1.7-2.74-3.46-4.12-5.19s-2.88-3.35-4.41-5l-4.77-4.6-4.91-4.46c-.82-.74-1.74-1.37-2.62-2l-2.67-2c-1.84-1.22-3.63-2.52-5.43-3.79s-3.71-2.39-5.59-3.56c-.92-.6-1.94-1.09-2.88-1.79a6.43,6.43,0,0,1-2.28-2.78,5.27,5.27,0,0,1,0-3.66,7.52,7.52,0,0,1,2-3,6.8,6.8,0,0,1,3.14-1.74,11.32,11.32,0,0,1,3.49-.33,33.83,33.83,0,0,1,6.66,1.31l1.14.28-1,.71c-1.4,1-2.85,2-4.34,2.83a42.67,42.67,0,0,1-4.62,2.38,51.43,51.43,0,0,1-9.88,3.19l-.33-1.57a49.87,49.87,0,0,0,9.6-3c1.54-.68,3.07-1.37,4.56-2.17a45.78,45.78,0,0,0,4.32-2.62l.2,1.16a23.65,23.65,0,0,0-6.38-1.16,9.9,9.9,0,0,0-3.06.41,6.83,6.83,0,0,0-2.54,1.44c-1.48,1.28-2.41,3.36-1.8,5.1a4.52,4.52,0,0,0,1.83,2.18c.83.6,1.84,1.06,2.8,1.65,1.91,1.16,3.9,2.19,5.81,3.38l2.8,1.86a33.12,33.12,0,0,1,2.74,2l2.54,2.2c.86.72,1.74,1.4,2.61,2.11,1.7,1.45,3.47,2.83,5.13,4.32a133.67,133.67,0,0,1,30.75,43.53c.93,2,1.71,4.13,2.57,6.18l2.4,6.25c.42,1,.78,2.09,1.12,3.16l1.06,3.18a66.33,66.33,0,0,1,1.8,6.46c.59,2.16.94,4.37,1.42,6.56s.75,4.41,1.06,6.62a108,108,0,0,1,1,13.36c.12,4.47,0,8.92-.09,13.38s-.3,8.91-.72,13.35-1,8.86-1.61,13.27-1.64,8.76-2.45,13.13-1.43,8.78-2.16,13.17l-.6,3.28c-.22,1.09-.45,2.18-.74,3.25l-.85,3.23c-.24,1.08-.52,2.16-.7,3.26-.79,4.37-1.22,8.81-2.08,13.16s-1.59,8.72-2.25,13.11-1.17,8.78-1.55,13.19-.64,8.82-1,13.24c.19,8.84.22,17.71,1.28,26.53a255.92,255.92,0,0,0,4.55,26.2c.92,4.34,2.08,8.63,3.33,12.88l3.67,12.79c2.53,8.51,5.18,17,8.4,25.27,2.79,8.43,6.12,16.68,9.22,25Z" style="fill:#0c1238"/><path d="M1437.17,1029.77c1.65,0,3.31,0,5,.15a21.61,21.61,0,0,0,2.48,0,10,10,0,0,1,2.48-.1c.83.06,1.65.23,2.48.22s1.65-.06,2.48-.08l5-.37c.83,0,1.65-.1,2.48-.08s1.65.1,2.48.17a16.8,16.8,0,0,0,2.48,0c.83-.05,1.65-.19,2.48-.21,1.65-.05,3.31.11,5,.21s3.31.2,5,.19c.83,0,1.65,0,2.48-.09a15.94,15.94,0,0,1,2.48-.16c.83,0,1.65.3,2.48.31a4.35,4.35,0,0,0,1.24-.12,5.15,5.15,0,0,1,1.24-.08c1.65,0,3.31,0,5,.09s3.31.09,5,.08a28.91,28.91,0,0,1,5,.21,12.68,12.68,0,0,0,2.48.19c.83,0,1.65-.25,2.48-.23,1.65,0,3.31.27,5,.36a47.58,47.58,0,0,0,5-.08c1.65-.1,3.31,0,5,0s3.31,0,5,.1a30.26,30.26,0,0,0,5-.14c1.65-.15,3.31-.25,5-.34s3.31-.13,5-.18c.83,0,1.65,0,2.48,0l2.48.21c3.31.16,6.61-.5,9.92-.39a23.33,23.33,0,0,0,5,0,17.38,17.38,0,0,1,2.48,0c.83.06,1.65.26,2.48.31,1.65.17,3.31-.25,5,.05a8,8,0,0,0,2.48,0,9.46,9.46,0,0,1,2.48-.15,47.42,47.42,0,0,0,5,.3c.83,0,1.65-.09,2.48-.16a16,16,0,0,1,2.48.06,15.6,15.6,0,0,0,2.48.09c.83,0,1.65-.16,2.48-.22s1.65-.1,2.48-.13,1.65-.06,2.48,0v2.4c-.83,0-1.65,0-2.48,0s-1.65,0-2.48-.08-1.65-.16-2.48-.16a14.24,14.24,0,0,0-2.48.18,12.92,12.92,0,0,1-2.48.12c-.83-.06-1.65-.16-2.48-.16a46.2,46.2,0,0,0-5,.4,11.3,11.3,0,0,1-1.24,0,9.81,9.81,0,0,1-1.24-.24,5.85,5.85,0,0,0-2.48,0c-1.65.38-3.31-.29-5-.15-.83,0-1.65.21-2.48.26a16.37,16.37,0,0,1-2.48,0,21.48,21.48,0,0,0-5-.09c-3.31.14-6.61-.48-9.92-.21l-2.48.33-1.24.08h-1.24c-1.65,0-3.31,0-5-.08a44.72,44.72,0,0,1-5-.36,17.41,17.41,0,0,0-5-.13,81,81,0,0,1-9.92.35c-.83-.06-1.65-.18-2.48-.25a17.42,17.42,0,0,0-2.48,0,38.07,38.07,0,0,1-5,.59c-.83,0-1.65-.43-2.48-.52a7.83,7.83,0,0,0-2.48.27,10.05,10.05,0,0,1-2.48.31c-.83,0-1.65-.08-2.48-.12-1.65-.11-3.31-.12-5-.13l-5-.09a4.86,4.86,0,0,1-1.24-.13,4.22,4.22,0,0,0-1.24-.17c-.83,0-1.65.24-2.48.23a17.27,17.27,0,0,1-2.48-.2,24.55,24.55,0,0,0-2.48-.14c-3.31-.16-6.61,0-9.92,0a38,38,0,0,0-5,.07c-.83.09-1.65.2-2.48.21s-1.65,0-2.48,0l-5-.24c-.83,0-1.65-.06-2.48,0s-1.65.17-2.48.24a10.83,10.83,0,0,1-2.48-.06,23.14,23.14,0,0,0-2.48.05c-1.65.13-3.31.14-5,.2Z" style="fill:#0c1238"/><path d="M1474.24,407.63a4.52,4.52,0,0,0-2,.48c-1.8,1.11-1,4,.61,5.4s3.71,2.32,4.6,4.23-18.63,6.41-20.12,6.39a2.23,2.23,0,0,1-1.14-.23c-.89-.54-.66-1.87-.29-2.84,2-5.2,4.72-10,4.08-15.79-.14-1.27-10.67-6.71-12.2-7.85a99,99,0,0,1-12.91-11.32,132.41,132.41,0,0,1-19.32-26.7c-10-18.07-12.86-40.15-9.54-60.44.76-4.64,2.69-10.09,7.3-11,3.8-.79,7.56,2.21,9,5.81s1.18,7.63.94,11.5c-.49,7.77-.75,15.75,1.65,23.16s8,14.24,15.55,16.05c10.4,2.49,22.53-4.57,31.48,1.28,8.76,5.73,8.48,20.51,17.91,25,4,1.91,8.66,1.36,13.08,1.54s9.44,1.59,11.28,5.62c1.44,3.13.4,7-1.7,9.69C1505,397.39,1486.22,406.54,1474.24,407.63Z" style="fill:#5053ab;opacity:0.30000000000000004"/><path d="M1439.09,566c-.55,1.07-1.14,2.12-1.56,3.13,7.51,1.82,17.63-1.94,24.23-5.57-.8-4.25-4.78-7-7.19-10.35-.62-.87-1.27-1.9-1-2.93,1.09-4,12-8.86,15.15-11.57a103.31,103.31,0,0,0,15.73-16.82c7.24-9.71,16.57-23.9,15.56-36.67-.31-3.92-2.38-8-6-9.46s-7.64-.23-10.65,2.06-5.16,5.51-7.34,8.61c-4.54,6.47-9.93,13-17.46,15.42-12.16,3.9-26.14-5.85-28.38-18.43-.83-4.64-.35-9.42-.81-14.11s-2.12-9.65-6-12.29c-10.13-6.87-22.92-1.9-28.12-16.7-.84-2.39-1.23-4.93-2.11-7.31-1.71-4.61-5.69-8.66-10.58-9.16-8.87-.91-11.5,9.18-12.69,16.29-3.2,19.2.35,43.36,7.69,61.47,9.29,22.9,29.16,45.13,53.27,52.5,3,.93,6.33,1.78,8.38,4.2S1440.37,563.46,1439.09,566Z" style="fill:#7581ce;opacity:0.30000000000000004"/><path d="M1081.57,1030.84c2.52.1,6-.78,10-1,8.67-.53,17.33,1.16,26,1.16h195.51c5.3,0,10.62-.12,15.92,0,3.58.08,13.45.31,15.64-3.06,2-3.13-.52-9.21-3.88-10.35-3.74-1.27-.2-33.6-.25-37.43-.18-12.83-1.13-25.65-1.18-38.48,0-11.32.05-22.35.43-33.6a4.92,4.92,0,0,1,.62-2.7,11.43,11.43,0,0,1,2.22-1.8c2.77-2.37,1.22-7.33-2-9.1-8.92-4.93-24.95,0-34.73,0-15.87,0-31.72-.8-47.59-.8h-86.41c-29.6,0-59.13-.27-88.72-1a7.89,7.89,0,0,0-3.37.4c-2.87,1.25-3.2,5.13-3.08,8.26,0,1.19.17,2.55,1.13,3.26a20.16,20.16,0,0,0,1.9.87c4.42,2.61,1.7,18.6,1.7,23v44.69c0,15.59,2.8,31.55-.14,47-1.44-1.36-4,0-4.59,1.86C1075.71,1025.35,1077.67,1030.68,1081.57,1030.84Z" style="fill:#a3b3ef;stroke:#a3b3ef;stroke-miterlimit:10;stroke-width:2px"/><path d="M1342.15,923.13c-6.88-.81-13.76-1.67-20.65-2.41-3.44-.45-6.87-.87-10.32-1.21l-10.34-1.09c-3.45-.35-6.88-.75-10.32-1a93.11,93.11,0,0,0-10.35-.28,60.12,60.12,0,0,0-10.26.9,21,21,0,0,0-4.86,1.51,7.91,7.91,0,0,0-3.69,3.2,7.61,7.61,0,0,0-.42,1.14,5.4,5.4,0,0,0-.15,1.21,4.88,4.88,0,0,0,.46,2.36,4.58,4.58,0,0,0,1.6,1.73,10.23,10.23,0,0,0,2.26,1,45.59,45.59,0,0,0,5,1.24,30.4,30.4,0,0,1,5.1,1.26,9,9,0,0,1,4.33,3.11,9.15,9.15,0,0,1,1.57,5.1,12,12,0,0,1-1.1,5.19,11.66,11.66,0,0,1-3.19,4.24,16.32,16.32,0,0,1-9.85,3.37,34.15,34.15,0,0,1-5.23-.24,43,43,0,0,1-5.14-.91,67.92,67.92,0,0,1-9.87-3.34c-3.2-1.33-6.37-2.74-9.49-4.27s-6.19-3.12-9.29-4.67-6.22-3.05-9.35-4.53c-6.25-3-12.7-5.53-19.17-8s-13.08-4.51-19.77-6.27a105.27,105.27,0,0,0-20.45-3.06c-1.72-.15-3.44-.13-5.17-.12a33.08,33.08,0,0,0-5.12.42,17.51,17.51,0,0,0-4.81,1.49,9.52,9.52,0,0,0-3.74,3.24c-1,1.39-1.6,3-2.64,4.48a15.14,15.14,0,0,1-3.54,3.9,21.93,21.93,0,0,1-4.45,2.8,23.73,23.73,0,0,1-2.43,1,21.51,21.51,0,0,1-2.54.67,31.92,31.92,0,0,1-5.2.67,45.4,45.4,0,0,1-5.23,0,58.82,58.82,0,0,1-10.34-1.36q-5.09-1.14-10.08-2.64c-3.33-1-6.58-2.23-9.8-3.54l.31-.74c3.19,1.33,6.44,2.51,9.71,3.6a73,73,0,0,0,10,2.66,84.63,84.63,0,0,0,10.23,1.39,36.76,36.76,0,0,0,10.21-.86,29.37,29.37,0,0,0,4.85-1.55,17.45,17.45,0,0,0,2.27-1.15,19.43,19.43,0,0,0,2-1.53,20.08,20.08,0,0,0,3.38-3.77c1-1.36,1.71-2.95,2.68-4.44a10.27,10.27,0,0,1,3.93-3.62,15.49,15.49,0,0,1,5.08-1.57,32.81,32.81,0,0,1,5.24-.34c1.74,0,3.48-.08,5.22.06a112.64,112.64,0,0,1,20.57,3.24c3.38.81,6.75,1.67,10.05,2.74l4.93,1.68c1.63.6,3.27,1.18,4.88,1.81,6.52,2.4,12.75,5.49,19.1,8.27s12.53,6,18.7,9.08c3.09,1.55,6.19,3.09,9.42,4.33a75.17,75.17,0,0,0,9.87,3,46.51,46.51,0,0,0,5,1.12,24.13,24.13,0,0,0,5.12.11,17.45,17.45,0,0,0,9.37-3.32,11.25,11.25,0,0,0,4-8.77,8.36,8.36,0,0,0-1.42-4.65,8.19,8.19,0,0,0-4-2.83,31.88,31.88,0,0,0-4.94-1.38,45.55,45.55,0,0,1-5.12-1.1,9.7,9.7,0,0,1-2.44-1.14,5.2,5.2,0,0,1-1.81-2.07,5.72,5.72,0,0,1-.46-2.68,6,6,0,0,1,.17-1.34,8.1,8.1,0,0,1,.47-1.27,8.51,8.51,0,0,1,4-3.46,22.7,22.7,0,0,1,5-1.6,56.27,56.27,0,0,1,10.38-1c3.48-.06,6.94.13,10.41.3s6.93.52,10.36,1c6.88.8,13.75,1.74,20.65,2.38,6.88.83,13.77,1.54,20.66,2.31Z" style="fill:#dee4f5"/><path d="M1082.1,941.68a38,38,0,0,0,14.28,10.38c.68.29,1.34.65,2,.88l2.11.72a13.36,13.36,0,0,0,2.15.6l2.18.48a18.64,18.64,0,0,0,2.2.35l2.21.28c1.48.09,3,.15,4.45.17a54.38,54.38,0,0,0,8.85-.91l2.18-.46a20.35,20.35,0,0,0,2.12-.67c.7-.24,1.41-.47,2.1-.73l2-.92a39.37,39.37,0,0,0,7.64-4.51,76,76,0,0,0,6.68-6,51.88,51.88,0,0,1,6.93-5.84c.65-.39,1.34-.73,2-1.1.34-.17.66-.37,1-.53l1.06-.43a29.77,29.77,0,0,1,4.26-1.6,38.73,38.73,0,0,1,9-1.15,57.07,57.07,0,0,1,9,.81c6,1,11.63,3.13,17.29,5.13,2.8,1.11,5.53,2.35,8.26,3.59s5.49,2.43,8.21,3.7q8.17,3.79,16.12,8c5.27,2.87,10.63,5.59,15.8,8.64a23.36,23.36,0,0,1,3.73,2.62,9.63,9.63,0,0,1,2.7,3.75,7.23,7.23,0,0,1,.22,4.65,10.52,10.52,0,0,1-2.23,4,17.15,17.15,0,0,1-7.57,5,21.73,21.73,0,0,1-4.49.87,41.27,41.27,0,0,1-4.53.21,58,58,0,0,0-8.93.41,22,22,0,0,0-8.27,2.9c-5,3.23-8.6,8.2-11.8,13.22s-6.48,10.22-11.11,14.19a29.22,29.22,0,0,1-7.66,4.85,15.42,15.42,0,0,1-9.06.73l.19-.78a15.14,15.14,0,0,0,8.62-.62,22.65,22.65,0,0,0,7.47-4.69,53.23,53.23,0,0,0,6-6.61c1.75-2.4,3.26-5,4.88-7.54a89.38,89.38,0,0,1,5.37-7.28,24.77,24.77,0,0,1,3.12-3.31c.55-.52,1.17-1,1.75-1.46s1.23-.9,1.88-1.3a19.43,19.43,0,0,1,8.53-3.16c3-.4,6-.28,9-.38a35.05,35.05,0,0,0,8.81-.93,15,15,0,0,0,7.28-4.74,9.73,9.73,0,0,0,2-3.81,7.13,7.13,0,0,0-.24-4.15,8.82,8.82,0,0,0-2.44-3.46,22.66,22.66,0,0,0-3.58-2.57c-5.19-3-10.26-6.22-15.63-8.88s-10.74-5.34-16.15-7.9c-2.7-1.3-5.39-2.62-8.16-3.77s-5.55-2.26-8.35-3.32c-1.39-.55-2.74-1.2-4.15-1.72-.69-.29-1.42-.47-2.13-.69s-1.43-.44-2.15-.62c-2.89-.74-5.78-1.47-8.71-2a51,51,0,0,0-8.87-.82,38,38,0,0,0-8.8,1.13c-.7.23-1.42.43-2.13.63a6.74,6.74,0,0,0-1,.36c-.34.14-.69.26-1,.42l-1,.46c-.33.17-.64.37-1,.55-.64.38-1.29.74-1.91,1.14a47,47,0,0,0-6.94,5.61c-2.19,2-4.32,4.18-6.71,6a37.46,37.46,0,0,1-7.74,4.66l-2.08.9c-.71.26-1.43.47-2.15.71s-1.43.49-2.16.67l-2.2.53a38.18,38.18,0,0,1-4.47.75,15.36,15.36,0,0,1-2.26.16l-2.27.07a48.12,48.12,0,0,1-17.64-3.62,40.6,40.6,0,0,1-14.62-10.51Z" style="fill:#dee4f5"/><path d="M1080.65,964.4a24.63,24.63,0,0,0,7,5.86,29.89,29.89,0,0,0,8.68,3.11,33.73,33.73,0,0,0,9.22.74,43.64,43.64,0,0,0,9.15-1.44,77.68,77.68,0,0,0,8.78-3,75.32,75.32,0,0,0,8.35-4.13c5.47-3,10.82-6.18,16.21-9.34,2.72-1.54,5.41-3.14,8.23-4.52q2.13-1,4.31-1.87c1.44-.61,2.87-1.26,4.36-1.77a47.17,47.17,0,0,1,18.51-2.89,32.74,32.74,0,0,1,9.22,1.87c1.49.51,2.92,1.14,4.35,1.78a45.81,45.81,0,0,1,4.19,2.14,42.37,42.37,0,0,1,3.88,2.67,24,24,0,0,1,3.51,3.14,13,13,0,0,1,1.39,1.92,6.43,6.43,0,0,1,.52,1.07,6.9,6.9,0,0,1,.4,1.12,10.08,10.08,0,0,1,.15,4.71,15.5,15.5,0,0,1-1.64,4.43,30.1,30.1,0,0,1-2.56,3.95,85.74,85.74,0,0,1-6.24,7l-6.48,6.76c-2.17,2.24-4.43,4.41-6.74,6.52s-4.72,4.11-7.2,6c-1.25.94-2.51,1.88-3.84,2.71l-2,1.27-2,1.2a79.41,79.41,0,0,1-8.37,4.27l-1.08.47-1.11.4-2.21.8a34.29,34.29,0,0,1-4.51,1.33c-.76.18-1.52.41-2.29.55s-1.55.27-2.32.42l-2.31.45-2.34.28a37.69,37.69,0,0,1-4.69.4c-1.57,0-3.13.14-4.7,0a91.85,91.85,0,0,1-9.38-.45c-1.55-.2-3.1-.39-4.66-.51s-3.1-.4-4.64-.67c-3.07-.59-6.14-1.2-9.18-1.92-1.53-.31-3-.68-4.57-1s-3-.76-4.53-1.19l-9-2.52c-3-.85-6-1.78-9-2.7l.24-.76,8.93,2.78c3,.93,6,1.83,9,2.56l4.53,1.14c1.51.38,3,.8,4.53,1.13s3,.68,4.58.93l4.6.77a105.43,105.43,0,0,0,18.54,1.76c1.55,0,3.1-.13,4.65-.21.77-.06,1.55-.07,2.32-.15l2.31-.24,2.32-.24,2.29-.4c.77-.13,1.53-.27,2.29-.42s1.5-.4,2.25-.59a75.24,75.24,0,0,0,8.84-2.87l2.14-.91,2.1-1a45.09,45.09,0,0,0,4.07-2.26A115.07,115.07,0,0,0,1187,993.66c4.58-4.2,9.22-8.39,13.38-13,2.07-2.33,4.28-4.55,6.11-7a22.12,22.12,0,0,0,4.08-8.15,9,9,0,0,0-2.26-8.37,23.71,23.71,0,0,0-3.54-2.95c-1.25-.9-2.56-1.73-3.89-2.52s-2.62-1.65-4-2.31a29.08,29.08,0,0,0-4.34-1.64,44.13,44.13,0,0,0-9.06-1.7,45.22,45.22,0,0,0-18.19,2.83c-1.46.53-2.94,1-4.37,1.6s-2.82,1.3-4.21,2c-2.79,1.36-5.58,2.76-8.27,4.33-5.42,3.08-10.67,6.47-16.17,9.44-2.75,1.49-5.57,2.85-8.42,4.15a52.43,52.43,0,0,1-8.87,3.11,44.83,44.83,0,0,1-18.7.63c-6.13-1.26-12.13-4.21-16.2-9.15Z" style="fill:#dee4f5"/><path d="M1082.2,976.13a15.25,15.25,0,0,0,4.4,4.31,20.63,20.63,0,0,0,5.71,2.48,26,26,0,0,0,6.18,1.11,49.49,49.49,0,0,0,6.31,0c2.1-.15,4.21-.27,6.31-.46a56.92,56.92,0,0,0,6.26-.92,94.55,94.55,0,0,0,12.33-2.86c2-.59,4-1.4,6-2.15l3-1.08c1-.39,1.93-.88,2.92-1.26a73.89,73.89,0,0,1,12.12-4,30,30,0,0,1,12.74.07,18.2,18.2,0,0,1,5.8,2.72,8.33,8.33,0,0,1,2.26,2.3,5.63,5.63,0,0,1,.78,3.14,9.77,9.77,0,0,1-2.8,5.72,18,18,0,0,1-2.35,2.18c-.85.66-1.76,1.2-2.64,1.79a60.89,60.89,0,0,1-11.4,5.69,57.69,57.69,0,0,1-12.36,3.15,90.85,90.85,0,0,1-12.71,1.16c-2.13,0-4.26-.06-6.38-.13a63.06,63.06,0,0,1-6.35-.6c-4.23-.42-8.42-1.15-12.61-1.81l-6.23-1.31c-2.08-.4-4.17-.78-6.23-1.3s-4.13-.94-6.22-1.35c-1-.19-2.09-.45-3.09-.65s-2.12-.12-2.38.61l-.74-.29a1.91,1.91,0,0,1,1.54-1.13,5,5,0,0,1,1.72,0c1.07.23,2.08.46,3.12.72,2.06.52,4.12,1,6.2,1.39s4.14.89,6.21,1.34l3.12.58,3.13.51c4.14.89,8.34,1.4,12.53,1.95,2.11.18,4.22.25,6.32.44l3.16.17c1.06,0,2.11,0,3.17,0a79.32,79.32,0,0,0,12.61-1c1-.19,2.07-.42,3.1-.64s2-.49,3.07-.74c2-.52,4.07-1.08,6.05-1.8,3.92-1.48,7.93-2.95,11.41-5.38.86-.61,1.75-1.19,2.56-1.83a17.44,17.44,0,0,0,2.26-2.14,9.9,9.9,0,0,0,2.65-5.37,5,5,0,0,0-.62-2.85,6.28,6.28,0,0,0-2.13-2.14,19,19,0,0,0-5.71-2.37,25.13,25.13,0,0,0-3-.72,17.32,17.32,0,0,0-3.13-.08,55.42,55.42,0,0,0-6.21.77c-8.25,1.65-15.73,6.07-24,8.27a103.65,103.65,0,0,1-25.06,4.41,46.85,46.85,0,0,1-12.71-1.24,22.66,22.66,0,0,1-5.9-2.57,15.5,15.5,0,0,1-4.69-4.45Z" style="fill:#dee4f5"/><path d="M1197.44,1017.84a15.28,15.28,0,0,0,9.9-4c2.94-2.26,5.1-5.33,7.19-8.38,1-1.55,2.12-3.07,3.29-4.54s2.31-3,3.63-4.32a20.24,20.24,0,0,1,4.5-3.48,22.92,22.92,0,0,1,5.26-2.12,41.39,41.39,0,0,1,5.55-1c.94-.07,1.87-.11,2.81-.15s1.86-.21,2.79-.26a37.52,37.52,0,0,0,10.89-1.86,22.27,22.27,0,0,0,4.88-2.5,10.15,10.15,0,0,0,3.54-4.1,24.45,24.45,0,0,0,1.77-5.23,13.62,13.62,0,0,1,2.45-5.06,15.21,15.21,0,0,1,4.31-3.61,35,35,0,0,1,5.08-2.39c3.5-1.29,7-2.62,10.32-4.22a18.9,18.9,0,0,0,8.17-7.08c1.89-3.17,2.62-6.92,4.61-10.2.23-.41.54-.79.8-1.19s.58-.76.92-1.11a11.2,11.2,0,0,1,2.14-1.93,14.38,14.38,0,0,1,5.25-2.22,26.6,26.6,0,0,1,5.58-.86,48.73,48.73,0,0,1,5.63,0,50.17,50.17,0,0,1,5.56.88,32.26,32.26,0,0,1,5.42,1.52c1.74.7,3.47,1.42,5.16,2.25a38.67,38.67,0,0,1,4.81,2.95l-.47.64a48.31,48.31,0,0,0-4.67-3,28.1,28.1,0,0,0-5.06-2.24c-1.77-.54-3.52-1.12-5.32-1.54a36.64,36.64,0,0,0-5.49-.65,34.13,34.13,0,0,0-11,.73,19.37,19.37,0,0,0-4.94,2.25,11,11,0,0,0-3.64,3.95c-1.85,3.15-2.93,6.77-4.74,10.1a14.41,14.41,0,0,1-3.59,4.44,24.29,24.29,0,0,1-4.84,3c-3.38,1.7-7.08,2.47-10.48,4a42.63,42.63,0,0,0-5,2.46,17,17,0,0,0-4.15,3.49,10.66,10.66,0,0,0-1.5,2.25,9.86,9.86,0,0,0-.92,2.57,22,22,0,0,1-1.55,5.46,9,9,0,0,1-.81,1.21l-1,1.08a19.33,19.33,0,0,1-2.06,2,14.83,14.83,0,0,1-5,2.72,33.29,33.29,0,0,1-5.51,1.34c-1.87.29-3.74.42-5.6.55-.93.07-1.87,0-2.79.1s-1.85.19-2.77.32a34.28,34.28,0,0,0-5.47.84,19.07,19.07,0,0,0-5.09,2.08,21.84,21.84,0,0,0-4.31,3.43,32.16,32.16,0,0,0-3.58,4.24c-1.08,1.51-2.11,3.06-3.22,4.56s-2.21,3-3.44,4.44a48.16,48.16,0,0,1-3.94,4c-2.88,2.38-6.45,4.27-10.35,4.29Z" style="fill:#dee4f5"/><path d="M1235.56,1016.78a16.33,16.33,0,0,1,3.07-7.87,27.66,27.66,0,0,1,6.15-5.78,19.7,19.7,0,0,1,1.8-1.11c.64-.31,1.27-.63,1.92-.89,1.31-.51,2.6-1.09,3.93-1.53,2.67-.88,5.44-1.34,8.15-1.95,1.37-.26,2.71-.65,4.06-.94l2.05-.36c.68-.15,1.33-.4,2-.55a56.51,56.51,0,0,0,7.87-2.59,45.79,45.79,0,0,0,7.43-3.69q1.81-1,3.56-2.15a39.81,39.81,0,0,0,3.32-2.5,71.59,71.59,0,0,0,6.12-5.63,50.34,50.34,0,0,0,5.14-6.53,73.24,73.24,0,0,1,5-6.73c.94-1,1.81-2.14,2.81-3.13a17.87,17.87,0,0,1,3.32-2.66,20.88,20.88,0,0,1,3.92-1.71,11.94,11.94,0,0,1,4.24-.42,26.74,26.74,0,0,1,8.23,1.75c1.3.53,2.57,1.12,3.83,1.7a25.26,25.26,0,0,1,3.78,1.84,15.74,15.74,0,0,1,3.31,2.69,4.62,4.62,0,0,1,1.07,4.22l-.77-.22a4,4,0,0,0-.86-3.55,8.9,8.9,0,0,0-1.39-1.44,11.65,11.65,0,0,0-1.71-1.11c-1.2-.62-2.44-1.24-3.69-1.85s-2.56-1.05-3.87-1.49a22.92,22.92,0,0,0-7.95-1.84,15.14,15.14,0,0,0-7.72,2.14,27.08,27.08,0,0,0-3.25,2.47,23.43,23.43,0,0,0-2.79,3c-1.62,2.24-3.23,4.49-4.88,6.74a77.7,77.7,0,0,1-5.42,6.4,43.55,43.55,0,0,1-6.08,5.77c-1.12.84-2.29,1.6-3.41,2.45a36.11,36.11,0,0,1-3.43,2.42c-.59.37-1.28.58-1.9.9s-1.21.7-1.82,1a21.75,21.75,0,0,1-3.79,1.82,74.89,74.89,0,0,1-16.17,4.3,71.54,71.54,0,0,0-8.06,2,29.93,29.93,0,0,0-7.46,3.49,23.37,23.37,0,0,0-3.3,2.46,14.4,14.4,0,0,0-2.71,3.08,13.93,13.93,0,0,0-2.84,7.52Z" style="fill:#dee4f5"/><path d="M1340.88,989.34c-.74-.58-1.49-1.14-2.24-1.7s-1.59-1-2.36-1.51q-.58-.39-1.19-.74a13,13,0,0,0-1.26-.6,21.46,21.46,0,0,0-2.61-.95c-.89-.22-1.77-.48-2.68-.65a9.17,9.17,0,0,0-2.73-.1,13.51,13.51,0,0,0-5.3,1.33,17.36,17.36,0,0,0-2.38,1.44c-.4.24-.81.46-1.2.72s-.7.63-1.09.89c-1.49,1.13-2.95,2.33-4.4,3.54s-3.15,2.12-4.59,3.36c-1.59,1-3.27,1.91-4.84,3s-3.29,1.87-5,2.69-3.31,1.83-5,2.65l-2.53,1.28c-.84.44-1.73.76-2.59,1.15-1.73.75-3.36,1.72-5.07,2.51a25.32,25.32,0,0,0-2.54,1.23,27.24,27.24,0,0,1-2.57,1.18c-.86.4-1.63.94-2.51,1.3s-1.58,1-2.44,1.42-1.66.89-2.46,1.38-1.55,1.07-2.35,1.56a15.69,15.69,0,0,0-2.27,1.66c-.71.61-1.46,1.17-2.19,1.76l-.51-.62c.76-.57,1.5-1.17,2.27-1.72.38-.28.78-.54,1.18-.8s.76-.57,1.14-.85a15.06,15.06,0,0,1,2.39-1.54c.8-.51,1.56-1.08,2.37-1.57,1.71-.82,3.32-1.84,5-2.61a22.08,22.08,0,0,1,2.51-1.33c.86-.4,1.74-.75,2.56-1.21,1.69-.85,3.47-1.49,5.15-2.35a26.89,26.89,0,0,1,2.51-1.32c.85-.4,1.7-.82,2.56-1.19s1.71-.78,2.59-1.13l1.3-.55c.42-.21.83-.45,1.24-.68,1.64-.94,3.24-1.92,4.9-2.8a27.34,27.34,0,0,0,2.44-1.41c.78-.52,1.45-1.21,2.25-1.71.38-.27.87-.39,1.25-.66a6.94,6.94,0,0,0,1.07-.91,20.29,20.29,0,0,1,2.18-1.77c1.5-1.14,2.9-2.41,4.43-3.54.36-.31.83-.49,1.2-.78s.76-.58,1.14-.87a26.1,26.1,0,0,1,2.55-1.33,15.29,15.29,0,0,1,5.53-1.49,24.38,24.38,0,0,1,2.88.12,10.93,10.93,0,0,1,2.81.62,42,42,0,0,1,5.18,2.43c1.61,1,3.21,2,4.73,3.18Z" style="fill:#dee4f5"/><path d="M1339.3,1006.38c-.4-.13-.81-.24-1.21-.39a2.91,2.91,0,0,0-.62-.13,2,2,0,0,1-.63-.09,6.23,6.23,0,0,0-2.54-.14,10.45,10.45,0,0,0-2.54.15l-1.27.1a6.75,6.75,0,0,0-1.27.18,10.23,10.23,0,0,0-1.23.36c-.21.05-.44,0-.65.06s-.39.21-.6.24c-.83.23-1.66.45-2.47.74s-1.72.33-2.44.87c-.4.16-.83.25-1.25.38a10.68,10.68,0,0,0-1.18.53c-.79.36-1.58.71-2.39,1a24.69,24.69,0,0,0-2.31,1.2,12.11,12.11,0,0,1-2.38,1c-.81.31-1.52.84-2.32,1.18a5.18,5.18,0,0,0-1.19.53,4.78,4.78,0,0,1-1.23.43c-.78.38-1.62.63-2.37,1.08a12.24,12.24,0,0,0-1.23.44,6.54,6.54,0,0,1-1.18.56,4.66,4.66,0,0,0-1.17.57,12.07,12.07,0,0,1-1.16.58l-.33-.73c.39-.18.79-.36,1.2-.5a3.88,3.88,0,0,0,1.18-.54,4.66,4.66,0,0,1,1.19-.52,9.61,9.61,0,0,0,1.13-.65c.87-.19,1.58-.71,2.43-.93a4.73,4.73,0,0,1,1.16-.6,4.79,4.79,0,0,0,1.2-.5c.78-.38,1.65-.57,2.4-1a9.92,9.92,0,0,1,2.33-1.16,9.28,9.28,0,0,1,1.24-.42,3.65,3.65,0,0,0,1.21-.49,15.34,15.34,0,0,1,2.34-1.16,5.55,5.55,0,0,0,1.23-.44,8.93,8.93,0,0,1,1.14-.67,6.52,6.52,0,0,1,.67-.08,1.83,1.83,0,0,0,.58-.32,3.25,3.25,0,0,1,1.21-.51c.85-.22,1.67-.53,2.52-.74.2-.09.45,0,.66-.08s.4-.19.62-.24c.42-.12.88-.08,1.31-.18a35,35,0,0,1,5.22-.61c.44,0,.88,0,1.32.12.22,0,.43.08.65.09s.45,0,.67,0c.86.19,1.74.32,2.6.55Z" style="fill:#dee4f5"/><path d="M1080.88,912.16c5.12,1.94,10.42,3.24,15.64,4.8.66.18,1.34.23,2,.37.33.07.65.23,1,.3s.69,0,1,.13c1.34.25,2.67.52,4,.69s2.68.57,4.06.43c.68,0,1.36.13,2,.19s1.36,0,2,0,1.36-.06,2-.1,1.35-.12,2-.16a17.31,17.31,0,0,0,2-.33c.66-.17,1.32-.34,2-.49,1.31-.36,2.61-.73,3.93-1.06a16.63,16.63,0,0,0,1.9-.72c.62-.26,1.2-.63,1.84-.84,1.28-.47,2.36-1.31,3.63-1.8.6-.32,1.09-.8,1.71-1.09s1-.91,1.59-1.25,1.07-.82,1.59-1.26a17.3,17.3,0,0,1,1.41-1.46,24.31,24.31,0,0,0,2.42-3.24l.67.44c-.42.56-.8,1.13-1.24,1.67a11.7,11.7,0,0,0-1.34,1.59,12.28,12.28,0,0,1-1.47,1.47l-.75.72c-.25.24-.47.52-.74.74-.5.49-1.24.66-1.71,1.19a16.48,16.48,0,0,1-1.77,1.09c-.3.17-.56.4-.86.59a7,7,0,0,1-.92.49,17.88,17.88,0,0,0-1.88.88c-1.25.59-2.6.94-3.88,1.43a16.36,16.36,0,0,1-4,1.19c-.68.11-1.37.22-2.05.27a10.21,10.21,0,0,0-2.05.25c-.68.12-1.36.21-2,.3s-1.38.11-2.07.1a13,13,0,0,0-2.06-.08c-.69,0-1.38.16-2.07.11-.34,0-.68-.2-1-.24a3.85,3.85,0,0,0-1,0,8,8,0,0,1-2.06-.16c-.68-.13-1.36-.23-2-.33l-2-.38c-.34,0-.65-.25-1-.3s-.69-.05-1-.13c-.67-.16-1.31-.42-2-.56q-4-1-7.94-2.13l-1.94-.68a13.89,13.89,0,0,0-2-.59c-1.28-.47-2.61-.84-3.91-1.26Z" style="fill:#dee4f5"/><path d="M1174.16,906.16q3.53.62,7,1.34c2.3.64,4.66,1,7,1.66s4.53,1.52,6.84,2.13c1.13.39,2.23.85,3.34,1.29s2.2.93,3.3,1.37,2.22.86,3.32,1.33c.54.26,1.07.53,1.59.81s1.12.42,1.65.69c2.16,1,4.28,2.09,6.41,3.15s4.12,2.4,6.32,3.32c1,.57,2.07,1.18,3.1,1.77s2.1,1.13,3.15,1.68q3.15,1.67,6.26,3.42a20.05,20.05,0,0,0,6.49,2.65,5,5,0,0,0,3.24-.57,3.78,3.78,0,0,0,2-2.43,3,3,0,0,0,0-.8,3.49,3.49,0,0,0-.22-.79,6.23,6.23,0,0,0-.88-1.44,16.06,16.06,0,0,1-2.15-2.92,9.63,9.63,0,0,1-.88-3.62,8.43,8.43,0,0,1,.7-3.62,13.54,13.54,0,0,1,4.21-5.88,21.07,21.07,0,0,1,3.13-1.83,16.93,16.93,0,0,1,3.33-1.37l3.45-1c1.15-.33,2.32-.55,3.49-.81l.16.78-3.48.72a18.48,18.48,0,0,0-3.41.95c-1.09.45-2.2.8-3.26,1.3a14.9,14.9,0,0,0-2.89,1.93,11.7,11.7,0,0,0-4.07,5.44,13.34,13.34,0,0,0-.51,3.37,6.27,6.27,0,0,0,.76,3.26,28.89,28.89,0,0,0,2,2.88,5.13,5.13,0,0,1,1.14,3.56,4.11,4.11,0,0,1-2.25,3.06,5.85,5.85,0,0,1-3.74.56c-2.55-.35-4.42-2-6.59-3s-4.26-2.12-6.33-3.3c-1-.59-2-1.24-3.11-1.75s-2.2-.93-3.23-1.51c-.53-.28-1-.69-1.5-1a11.72,11.72,0,0,0-1.62-.75,26.79,26.79,0,0,1-3.2-1.56c-1-.57-2.1-1.1-3.17-1.61s-2.13-1.05-3.21-1.55c-.55-.23-1-.6-1.58-.83s-1.1-.44-1.66-.65c-1.09-.47-2.13-1.06-3.23-1.5a100.13,100.13,0,0,0-13.46-4.61c-1.13-.37-2.28-.67-3.42-1-.57-.15-1.14-.32-1.72-.45s-1.17-.21-1.75-.31c-1.17-.18-2.3-.58-3.49-.7s-2.34-.35-3.52-.53Z" style="fill:#dee4f5"/><path d="M1081.44,903.64c2.71,0,5.41,0,8.12.15,1.35,0,2.71.1,4.06,0a26.68,26.68,0,0,1,4.06-.1c1.35.06,2.71.23,4.06.22s2.71-.06,4.06-.08l8.12-.37c1.35,0,2.71-.1,4.06-.08s2.71.1,4.06.17,2.71.09,4.06,0,2.71-.19,4.06-.21c5.41,0,10.82.44,16.24.4,1.35,0,2.71,0,4.06-.09s2.71-.19,4.06-.16,2.71.3,4.06.31a11.52,11.52,0,0,0,2-.12,13.7,13.7,0,0,1,2-.08l8.12.09c2.71.05,5.41.09,8.12.08a76.51,76.51,0,0,1,8.12.21,35.67,35.67,0,0,0,4.06.18c1.35,0,2.71-.25,4.06-.23,2.71,0,5.41.27,8.12.36,1.35.07,2.71,0,4.06,0l4.06-.08c2.71-.1,5.41,0,8.12,0s5.41,0,8.12.1c1.35,0,2.71,0,4.06,0l4.06-.17c2.71-.15,5.41-.25,8.12-.34s5.41-.13,8.12-.18c1.35,0,2.71,0,4.06,0l4.06.21c5.41.13,10.82-.45,16.24-.39a67.13,67.13,0,0,0,8.12,0c1.35,0,2.71-.06,4.06,0s2.71.26,4.06.31c2.71.18,5.41-.24,8.12.05a21.21,21.21,0,0,0,4.06,0,25.18,25.18,0,0,1,4.06-.15c2.71.14,5.41.33,8.12.3s5.41-.29,8.12-.1c1.35.08,2.71.14,4.06.09s2.71-.16,4.06-.22,2.71-.1,4.06-.13,2.71-.06,4.06,0V906c-1.35,0-2.71,0-4.06,0s-2.71,0-4.06-.08-2.71-.16-4.06-.16a37.88,37.88,0,0,0-4.06.18,34.5,34.5,0,0,1-4.06.12c-1.35-.07-2.71-.12-4.06-.16-2.71,0-5.41.23-8.12.4a19.08,19.08,0,0,1-4.06-.23,16,16,0,0,0-4.06,0c-2.71.38-5.41-.29-8.12-.15-1.35,0-2.71.21-4.06.26s-2.71,0-4.06,0a57.37,57.37,0,0,0-8.12-.09c-5.41.09-10.82-.45-16.24-.21l-4.06.33-2,.08h-2c-2.71,0-5.41,0-8.12-.08s-5.41-.1-8.12-.36a47,47,0,0,0-8.12-.14c-5.41.3-10.82.47-16.24.36-1.35-.06-2.71-.18-4.06-.25a37.86,37.86,0,0,0-4.06,0c-2.71.14-5.41.61-8.12.57-1.35,0-2.71-.43-4.06-.52a21.85,21.85,0,0,0-4.06.27,26.47,26.47,0,0,1-4.06.31l-4.06-.12c-2.71-.11-5.41-.12-8.12-.13l-8.12-.09a12.82,12.82,0,0,1-2-.13,11.05,11.05,0,0,0-2-.17c-1.35,0-2.71.24-4.06.23-2.71,0-5.41-.4-8.12-.34-5.41-.16-10.82,0-16.24,0-2.71,0-5.41-.12-8.12.07-1.35.09-2.71.2-4.06.21s-2.71,0-4.06,0l-8.12-.21c-1.35,0-2.71-.09-4.06-.06s-2.71.17-4.06.24a28.92,28.92,0,0,1-4.06-.06c-1.35-.07-2.71,0-4.06.05-2.71.13-5.41.14-8.12.2Z" style="fill:#7581ce"/><path d="M1081.44,1018.15c2.71,0,5.41,0,8.12.1,1.35,0,2.71.08,4.06,0s2.71-.12,4.06,0,2.71.13,4.06.13,2.71-.05,4.06-.08l8.12-.2c1.35,0,2.71-.1,4.06-.06l4.06.09c2.71.14,5.41,0,8.12-.08,5.41,0,10.82.29,16.24.23,2.71.07,5.41-.15,8.12-.15,1.35,0,2.71.2,4.06.21s2.71-.2,4.06-.13c5.41,0,10.82.13,16.24.11,2.71,0,5.41-.05,8.12.14,1.35,0,2.71.14,4.06.12s2.71-.17,4.06-.16c2.71,0,5.41.15,8.12.23s5.41,0,8.12,0,5.41,0,8.12,0,5.41,0,8.12.07c5.41.14,10.82-.28,16.24-.32s10.82-.18,16.24,0,10.82-.28,16.24-.22c1.35,0,2.71.12,4.06.07l4.06-.07c2.71-.1,5.41.07,8.12.19,1.35.06,2.71,0,4.06,0l2,0,2,.07c2.71.23,5.41-.24,8.12-.09,1.35,0,2.71.09,4.06.13l4.06.06c2.71,0,5.41-.19,8.12-.06,1.35,0,2.71.1,4.06,0l4.06-.14c2.71-.1,5.41-.07,8.12-.12v1.6c-2.71,0-5.41,0-8.12-.06l-4.06-.1c-1.35,0-2.71.08-4.06.11-2.71.18-5.41,0-8.12,0l-4.06.09c-1.35,0-2.71.14-4.06.16-5.41-.31-10.82,0-16.24-.26-1.35,0-2.71.14-4.06.17s-2.71,0-4.06,0l-4.06-.11c-1.35-.06-2.71,0-4.06,0-5.41.06-10.82-.26-16.24-.13l-4.06.22c-1.35,0-2.71.07-4.06.06-2.71,0-5.41,0-8.12-.05l-4.06-.07-4.06-.17-4.06-.16c-1.35,0-2.71,0-4.06.07-5.41.2-10.82.31-16.24.24-2.71-.1-5.41-.29-8.12-.16s-5.41.41-8.12.37c-1.35,0-2.71-.3-4.06-.33a28.74,28.74,0,0,0-4.06.16,62.25,62.25,0,0,1-8.12.13c-2.71-.07-5.41-.09-8.12-.09l-8.12-.06c-1.35.05-2.71-.23-4.06-.2s-2.71.16-4.06.15c-2.71,0-5.41-.24-8.12-.23-10.82-.1-21.65,0-32.47.13l-8.12-.12c-1.35,0-2.71-.07-4.06,0l-4.06.13c-1.35.08-2.71,0-4.06,0s-2.71,0-4.06,0c-2.71.09-5.41.09-8.12.13Z" style="fill:#7581ce"/><path d="M1266.1,1009.53l-117.71-12.06a12,12,0,0,1-4.91-1.22c-10.75-6.29.13-57.72.7-68.9.16-3.09.79-6.77,3.62-8a8.62,8.62,0,0,1,3.56-.48,906.86,906.86,0,0,1,120,8.78c2.85.4,6,1,7.77,3.21,2,2.52,1.6,6.14,1.08,9.32C1279.14,946.71,1273.58,1010.32,1266.1,1009.53Z" style="fill:#7581ce;stroke:#7581ce;stroke-miterlimit:10;stroke-width:2px"/><path d="M1239.42,962c-1.46-.87-2.88-1.78-4.24-2.77-.7-.47-1.35-1-2.08-1.41a17.11,17.11,0,0,1-2.1-1.38c-.67-.51-1.29-1.08-2-1.54s-1.41-.9-2.11-1.35c-1.42-.88-2.84-1.75-4.27-2.59-.71-.42-1.45-.81-2.15-1.25s-1.38-.91-2.08-1.37a18.74,18.74,0,0,0-2.16-1.22c-.75-.35-1.52-.65-2.27-1-2.94-1.4-6-2.83-9.19-3.16a12.8,12.8,0,0,0-4.71.36c-.77.17-1.65.22-2.44.42s-1.55.64-2.36.81c-3.19.93-6.39,1.86-9.51,3-1.56.58-3.09,1.22-4.71,1.67a17.8,17.8,0,0,0-2.35.85c-.77.33-1.46.81-2.23,1.14s-1.55.66-2.29.95a2.93,2.93,0,0,0-1.67,1.37,1.72,1.72,0,0,0,.66,1.91,10.19,10.19,0,0,0,2,1.34c1.47.81,2.85,1.75,4.27,2.65s2.8,1.83,4.16,2.81c2.7,2,5.69,3.54,8.46,5.4s5.65,3.57,8.27,5.64c2.76,1.87,5.74,3.41,8.61,5a17.26,17.26,0,0,0,2.16,1.2c.75.34,1.51.64,2.27.94l1.15.42a11.76,11.76,0,0,1,1.14.42c.76.28,1.51.62,2.3.83a14.73,14.73,0,0,0,2.4.37c.4,0,.81,0,1.21.06s.8.05,1.21.08a7.26,7.26,0,0,0,1.22,0,4.77,4.77,0,0,0,1.2-.21c.79-.22,1.56-.44,2.36-.58s1.58-.38,2.35-.66,1.53-.59,2.27-.95c1.46-.77,2.79-1.74,4.23-2.55.36-.21.7-.44,1-.67a8.38,8.38,0,0,0,1-.72c.64-.52,1.28-1.06,1.89-1.62,1.24-1.1,2.5-2.18,3.78-3.26l1,1.22c-1.29,1.06-2.56,2.17-3.93,3.16s-2.78,1.9-4.08,3a19.24,19.24,0,0,1-4.42,2.56,43.26,43.26,0,0,1-4.72,2.13,7.91,7.91,0,0,1-2.59.39,6.45,6.45,0,0,0-.65,0,5.62,5.62,0,0,0-.65,0c-.43,0-.86.12-1.3.15-1.76.29-3.47-.34-5.15-.61-.42-.09-.85-.16-1.27-.23s-.85-.16-1.27-.27a16.62,16.62,0,0,1-2.4-.92c-.78-.35-1.54-.74-2.29-1.14s-1.53-.73-2.28-1.12c-3-1.56-5.63-3.71-8.52-5.4l-2.21-1.21c-.72-.43-1.43-.88-2.11-1.36-1.38-.95-2.77-1.87-4.11-2.88s-2.72-2-4-3a25.52,25.52,0,0,0-4.09-2.89c-2.89-1.69-5.74-3.41-8.54-5.19a11.79,11.79,0,0,1-2.08-1.66,4.08,4.08,0,0,1-.84-1.25,2.68,2.68,0,0,1-.09-1.65,4.41,4.41,0,0,1,2-2.26,18.5,18.5,0,0,1,2.26-1.2c.77-.33,1.66-.41,2.45-.69a13.85,13.85,0,0,0,2.26-1.13,20.83,20.83,0,0,1,4.66-1.94l4.79-1.58c1.6-.53,3.21-1,4.83-1.45a7.43,7.43,0,0,1,1.23-.27,6.48,6.48,0,0,0,1.24-.23c.82-.21,1.55-.61,2.42-.79a16.62,16.62,0,0,1,5.22,0,33.63,33.63,0,0,1,9.68,3.07c1.52.75,3,1.58,4.5,2.3.74.39,1.52.74,2.24,1.18s1.42.91,2.12,1.37c1.39.94,2.77,1.9,4.13,2.88.69.48,1.35,1,2,1.45s1.44.86,2.14,1.31a19.38,19.38,0,0,1,2.06,1.43,24.68,24.68,0,0,0,2.08,1.38c1.43.85,2.83,1.74,4.28,2.52Z" style="fill:#5053ab"/><path d="M1172.39,960.68a7.25,7.25,0,0,1-.14,3.35,6.43,6.43,0,0,0-.19,1.44c.05.47.13.87.19,1.25a2.17,2.17,0,0,0,.5,1.13,8.63,8.63,0,0,0,1.09,1c.8.62,1.61,1.22,2.44,1.8a18.72,18.72,0,0,1,2.32,1.94,12.94,12.94,0,0,0,2.49,1.71c1.67,1.12,3.15,2.56,4.9,3.58a13.56,13.56,0,0,0,1.32.75,9,9,0,0,1,1.36.69c.43.26.77.69,1.2,1s1,.34,1.38.65c1.76,1,3.47,2.11,5.28,3.05a17.38,17.38,0,0,1,2.63,1.56,7.05,7.05,0,0,0,1.29.82c.45.23,1,.32,1.43.57.91.47,1.72,1.11,2.6,1.63a26.71,26.71,0,0,0,2.73,1.38c.93.41,1.81.93,2.72,1.36l2.74,1.3c.46.21.93.39,1.41.57s1,.27,1.47.37c1,.21,2,.38,3,.51a26.61,26.61,0,0,0,2.94.21h1.47a12.94,12.94,0,0,0,1.48,0c2-.14,3.79-1.12,5.61-1.82a8.66,8.66,0,0,0,2.66-1.3c.42-.26.84-.52,1.29-.74s.94-.38,1.37-.63c.9-.46,1.55-1.28,2.47-1.73a4.22,4.22,0,0,0,1.19-.94,5.46,5.46,0,0,1,1.1-1,12.27,12.27,0,0,0,2.31-1.89c.63-.77,1.08-1.63,1.67-2.4a4,4,0,0,0,.8-2.64,3.66,3.66,0,0,0-.82-2.27l1.22-1a4.34,4.34,0,0,1,1,3.41,8.37,8.37,0,0,1-.19.85l-.28.79-.57,1.55a4.92,4.92,0,0,1-.81,1.41c-.35.41-.74.78-1.1,1.17l-2.12,2.36c-.69.79-1.89,1-2.52,1.82s-1.77,1.08-2.59,1.73c-.43.29-.79.69-1.22,1a7,7,0,0,1-1.37.76,22.9,22.9,0,0,0-2.85,1.32,26.61,26.61,0,0,1-6.1,1.54,9.13,9.13,0,0,1-3.17.42,14.94,14.94,0,0,1-3.16-.41,13,13,0,0,1-3-1,15,15,0,0,0-2.89-1.14,27.56,27.56,0,0,1-5.68-2.43,15.79,15.79,0,0,0-2.63-1.58,21.76,21.76,0,0,1-2.89-1.07c-.45-.25-.77-.73-1.19-1a4.55,4.55,0,0,0-1.44-.56,5.77,5.77,0,0,1-1.45-.54c-.44-.25-.87-.53-1.31-.8-.87-.54-1.76-1.05-2.65-1.55s-1.77-1-2.65-1.55c-.47-.21-.77-.71-1.23-.95s-1-.38-1.4-.65c-.88-.52-1.62-1.28-2.5-1.8-1.68-1.17-3.43-2.23-5.1-3.43a28.47,28.47,0,0,0-2.5-1.8c-.44-.27-.89-.52-1.3-.83s-.79-.66-1.18-1c-.78-.67-1.48-1.43-2.22-2.14-.38-.34-.74-.71-1.12-1.11a4.73,4.73,0,0,1-1-1.45,3.1,3.1,0,0,1-.15-1.74c.08-.55.1-1.08.16-1.59a7.4,7.4,0,0,0-.05-2.72Z" style="fill:#5053ab"/><path d="M1195.31,951.18c.36-.34.7-.72,1.09-1a6.35,6.35,0,0,1,1.27-.8l.68-.32c.22-.11.47-.15.7-.26a4.12,4.12,0,0,1,1.41-.47c1-.09,2,.06,2.92,0,.47,0,1,.05,1.44.09s1,.1,1.43.18a10.7,10.7,0,0,1,2.72.82,13.65,13.65,0,0,0,2.57,1.14,10.08,10.08,0,0,1,2.48,1.29c.79.49,1.53,1.07,2.31,1.56.38.27.77.5,1.17.75a9.34,9.34,0,0,0,1.21.69,5.67,5.67,0,0,1,1.17.74c.35.3.64.69,1,1a10.64,10.64,0,0,1,2.28,1.56c.73.57,1.42,1.17,2.12,1.76l2.13,1.75a9,9,0,0,1,1,1,11.87,11.87,0,0,0,.92,1,6.37,6.37,0,0,0,1.11.82,6.7,6.7,0,0,1,1,.92c.62.69,1.19,1.41,1.87,2l.31.28-.37.19c-.89.46-1.74,1-2.64,1.46s-1.83.85-2.77,1.22a26.09,26.09,0,0,1-2.89.93,29,29,0,0,1-3,.87,12.18,12.18,0,0,1-6.22-.32c-1.89-.9-3.86-1.5-5.69-2.45a5.93,5.93,0,0,1-1.27-.85,9.52,9.52,0,0,0-1.26-.84,10.15,10.15,0,0,1-2.47-1.73,7.36,7.36,0,0,0-1.16-1c-.42-.27-.87-.51-1.27-.81s-.73-.7-1.15-1-.93-.41-1.34-.71c-.81-.59-1.51-1.33-2.34-1.89s-1.76-1-2.52-1.62a10.48,10.48,0,0,0-1.19-.91c-.42-.26-.88-.47-1.33-.7s-.88-.47-1.31-.72-.87-.49-1.28-.76l.83-1.37c.44.25.87.52,1.29.8a13.33,13.33,0,0,1,1.24.87c.4.3.79.63,1.21.91a11.09,11.09,0,0,0,1.35.7,27.16,27.16,0,0,1,2.46,1.74c.83.56,1.79.94,2.62,1.5.42.28.67.79,1.07,1.09s.91.45,1.31.74a11.22,11.22,0,0,1,1.14,1,5.68,5.68,0,0,0,1.27.79,10.45,10.45,0,0,1,2.45,1.72,7,7,0,0,0,1.24.83,8.64,8.64,0,0,1,1.29.73c.83.52,1.62,1.11,2.5,1.55a7.27,7.27,0,0,0,2.78.81,20.34,20.34,0,0,0,5.6.52,12.3,12.3,0,0,0,2.9-.27,21.69,21.69,0,0,0,2.69-1.19l2.64-1.32c.87-.46,1.88-.69,2.77-1.15l-.13,1a12.64,12.64,0,0,0-2.26-1.58,3.3,3.3,0,0,1-1-.93,3.57,3.57,0,0,0-.84-1.11,6.52,6.52,0,0,0-1.21-.69,5,5,0,0,1-1.11-.8c-.66-.62-1.31-1.26-2-1.84l-2.12-1.71a12.51,12.51,0,0,1-2-1.82,10.77,10.77,0,0,0-1.19-.67,6.34,6.34,0,0,1-1.07-.84,17.88,17.88,0,0,0-2.19-1.61c-1.51-1-3.16-1.78-4.74-2.63-.41-.18-.81-.4-1.23-.56s-.87-.25-1.3-.37a8.89,8.89,0,0,1-1.28-.38c-.42-.15-.85-.25-1.26-.41-1.66-.52-3.51-1-5.15-.31-.4.13-.84.11-1.24.26a4,4,0,0,0-1.12.56,2.36,2.36,0,0,0-.5.37l-.48.39c-.31.28-.57.61-.85.9Z" style="fill:#5053ab"/><path d="M1164,943.61a1.21,1.21,0,0,1,.79-.14,1,1,0,0,0,.38,0,.32.32,0,0,1,.37,0,2.91,2.91,0,0,0,.23.29,2.44,2.44,0,0,0,.29.14,2.24,2.24,0,0,1,.62.31.89.89,0,0,1,.22.27.82.82,0,0,1,0,.36.55.55,0,0,0,.06.34,1.16,1.16,0,0,1,.18.36.92.92,0,0,1-.28.69c-.14.18-.27.34-.39.5a.77.77,0,0,0-.13.28c0,.11,0,.25-.13.3s-.28,0-.36,0,0,.27-.15.27a4.69,4.69,0,0,1-1,.33c-.16,0-.33.15-.53,0s-.18-.13-.26-.1-.15.18-.24.18-.33-.18-.48-.26a.77.77,0,0,0-.48,0,1.53,1.53,0,0,1-.88-.36.53.53,0,0,0-.47-.15,1.32,1.32,0,0,1-.54-.13c-.33-.14-.73-.38-.66-.85a1.07,1.07,0,0,0-.34-.47c-.14-.17-.32-.37-.26-.59s.06-.41,0-.62a.33.33,0,0,1,.06-.3c.08-.09.21-.14.29-.22s0-.42.26-.49c.11,0,.19-.09.15-.23s0-.24.1-.28a1.83,1.83,0,0,0,.55-.24c.12-.13.22-.41.47-.34a.49.49,0,0,0,.3,0c.09,0,.17-.16.28-.21a1,1,0,0,1,.67-.06l-.36,1.56c-.07,0-.12,0-.19-.06s-.2-.17-.2.06,0,.13-.06.12-.13-.06-.16,0,0,.23,0,.36,0,.06-.2,0-.15,0-.1.1-.26.08-.22.22.1.14.14.19,0,.08-.05.12-.24.17-.07.25,0,.16-.06.26-.05.25.09.29c.45,0,.44.12.56.32a.81.81,0,0,1,.11.39c0,.21.1.33.27.25a2.09,2.09,0,0,1,.41-.08c.12,0,.24,0,.34.07s.19.33.33.23.25-.42.35-.39.12.29.19.34.11-.07.15-.2.07-.23.12-.23l.17,0c.25.09.41-.09.61-.12,0-.07.22.14.25.08s0-.19,0-.22.11,0,.2,0a.27.27,0,0,0,.18-.05c.2-.12.18-.39.19-.52s.07-.2-.08-.25-.23-.08-.23-.18a1.06,1.06,0,0,0-.06-.31.19.19,0,0,0-.1-.1s-.13.06-.18.09-.06,0-.07-.06-.05,0-.07,0a.8.8,0,0,0,0,.14Z" style="fill:#5053ab"/><path d="M1175.15,932.41a2.83,2.83,0,0,1,.72.22.68.68,0,0,0,.37.09.37.37,0,0,1,.39,0c.11.08.2.22.32.27a2.07,2.07,0,0,0,.39.09,4.15,4.15,0,0,1,.86.18,1.31,1.31,0,0,1,.4.23,1.29,1.29,0,0,1,.26.42,1.25,1.25,0,0,0,.27.41,1.69,1.69,0,0,1,.36.39,1.54,1.54,0,0,1,0,1,8,8,0,0,1-.29.93,2.17,2.17,0,0,0-.15.44.73.73,0,0,1-.17.44c-.11.11-.34.1-.45.19s-.07.35-.22.39a5,5,0,0,1-1.52.69,1,1,0,0,1-.81,0,.63.63,0,0,0-.4-.1c-.12,0-.25.18-.38.18s-.51-.21-.74-.31a2.27,2.27,0,0,0-.74-.1,2.88,2.88,0,0,1-1.34-.67,1.32,1.32,0,0,0-.66-.38,2.17,2.17,0,0,1-.71-.41,1.57,1.57,0,0,1-.76-1.43c0-.52-.61-1.07-.43-1.67a1.39,1.39,0,0,0,.18-.85.62.62,0,0,1,.15-.4c.11-.11.27-.19.37-.29s.13-.57.46-.66c.14-.07.25-.14.26-.31a.38.38,0,0,1,.22-.36,3.65,3.65,0,0,0,.77-.34,2.59,2.59,0,0,0,.31-.29.56.56,0,0,1,.41-.12,1.06,1.06,0,0,0,.42,0c.13-.05.26-.17.4-.22a1.64,1.64,0,0,1,.9-.06l-.3,1.57a1.63,1.63,0,0,1-.49-.07c-.17-.1-.4-.15-.5.11a.27.27,0,0,1-.21.17c-.09,0-.21,0-.29,0a.82.82,0,0,0-.27.54c0,.09-.12.12-.3.08s-.22.06-.2.2c.09.29-.37.2-.4.42s0,.23.05.33a.35.35,0,0,1-.12.24c-.16.14-.31.31-.17.51s-.34.75,0,1.08a1.7,1.7,0,0,0,.3.18c.1.05.12.13.17.21a2.15,2.15,0,0,1,.25.47,1.8,1.8,0,0,1,.23.58.43.43,0,0,0,.43.44,3.22,3.22,0,0,1,1.2.28c.16.16.33.38.55.31s.44-.38.61-.35.19.3.3.35.2-.07.27-.2c.14-.35.32-.24.5-.24a2,2,0,0,0,1-.38c0-.09.29.06.34,0s0-.24.06-.3.16-.09.26-.13a.49.49,0,0,0,.21-.19,1.05,1.05,0,0,0,0-1,.42.42,0,0,0-.3-.41,1.26,1.26,0,0,1-.29-.07,1.66,1.66,0,0,1-.2-.17c-.26-.24-.56-.74-1.08-.5a.31.31,0,0,1-.3-.12.47.47,0,0,0-.32,0,4,4,0,0,1-.67,0Z" style="fill:#5053ab"/><path d="M1243.62,971.11a3.35,3.35,0,0,1-1.42-.37,6.09,6.09,0,0,0-.64-.32,1,1,0,0,1-.62-.35c-.15-.19-.25-.42-.4-.59s-.34-.31-.47-.49a5.54,5.54,0,0,1-.87-1.1,3.59,3.59,0,0,1-.28-.65,2.78,2.78,0,0,1,0-.71,2.47,2.47,0,0,0,0-.7,3.3,3.3,0,0,1-.13-.72,2.78,2.78,0,0,1,.48-1.36c.23-.41.48-.79.73-1.17.12-.2.25-.37.36-.58a1.37,1.37,0,0,1,.39-.57c.18-.15.46-.17.65-.28s.23-.44.47-.49a7.66,7.66,0,0,1,2.51-.87l.66-.1a1.84,1.84,0,0,1,.67.12,1.67,1.67,0,0,0,.64.18,4.38,4.38,0,0,1,.67,0,3.61,3.61,0,0,1,1.14.68c.34.26.73.43,1.09.68a4.38,4.38,0,0,1,1.43,2.09,5.83,5.83,0,0,0,.49,1.17,4.19,4.19,0,0,1,.39,1.25,3.24,3.24,0,0,1-.43,2.6,2.47,2.47,0,0,0-.26.62,6.44,6.44,0,0,0-.26.64,2.66,2.66,0,0,1-.82,1.14,5.18,5.18,0,0,0-1.15.8,1.54,1.54,0,0,1-.63.29c-.23.05-.49,0-.71,0-.45,0-.84.37-1.31.2a1,1,0,0,0-.66,0,1.52,1.52,0,0,1-.34.11,1.3,1.3,0,0,1-.33,0c-.43-.15-.83-.34-1.25-.45-.21-.06-.44-.06-.66-.12a1.37,1.37,0,0,1-.58-.32,3.35,3.35,0,0,0-1.16-.68,3.61,3.61,0,0,1-1-1l1.31-.91a2.65,2.65,0,0,1,.31.39,3.16,3.16,0,0,1,.33.39,1,1,0,0,0,.85.58,1,1,0,0,1,.5.15,1.6,1.6,0,0,0,.45.28,2,2,0,0,0,1.07-.06c.33-.13.68.55,1,.19a.62.62,0,0,1,.51-.08.73.73,0,0,0,.54,0,2,2,0,0,0,.43-.34,1.57,1.57,0,0,1,.47-.18,1.07,1.07,0,0,0,.86-.52c.08-.16.23-.23.36-.35s.26-.22.39-.34a1.61,1.61,0,0,0,.51-.91,3.38,3.38,0,0,1,0-1.07c0-.34.08-.67.11-1a8.39,8.39,0,0,1,.1-1.08,1.07,1.07,0,0,0-.26-1.06c-.47-.6-1-1-1.41-1.56-.17-.3-.38-.66-.74-.73s-.78.13-1.07,0-.26-.35-.43-.43a.61.61,0,0,0-.53.14c-.34.33-.65.21-1,.22a4.62,4.62,0,0,0-2,.62c-.12.12-.42,0-.55.13s-.17.35-.3.46-.69.33-.87.64a3.6,3.6,0,0,0-.26,4,4.55,4.55,0,0,0,.36,1,2.33,2.33,0,0,0,.31.43,1.93,1.93,0,0,0,.49.24c.18,0,.27.19.39.31a.76.76,0,0,0,.46.18,4.45,4.45,0,0,0,.94,0Z" style="fill:#5053ab"/><path d="M1257.38,969.93a2.55,2.55,0,0,1,.92.24,1.41,1.41,0,0,0,.44.15.54.54,0,0,1,.45.12c.11.12.19.28.31.36s.26.15.4.21a5.25,5.25,0,0,1,.84.43,2.11,2.11,0,0,1,.34.32,1.2,1.2,0,0,1,.16.45,1,1,0,0,0,.21.4,3.81,3.81,0,0,1,.34.34,1.88,1.88,0,0,1,.14.92,8.93,8.93,0,0,0,0,.91,1.37,1.37,0,0,0,.06.46.7.7,0,0,1,.07.48c0,.16-.23.28-.29.42s.11.36,0,.49a4.84,4.84,0,0,1-1.12,1.49c-.23.19-.43.46-.79.44a1,1,0,0,0-.44.1c-.12.08-.19.28-.32.33a2.12,2.12,0,0,1-.89,0,3,3,0,0,0-.81.17,3.14,3.14,0,0,1-1.64-.26,1.79,1.79,0,0,0-.81-.23,2.48,2.48,0,0,1-.86-.29,1.83,1.83,0,0,1-1.09-1.45c-.12-.57-.72-1.08-.65-1.74a1.53,1.53,0,0,0,.07-.93.69.69,0,0,1,.1-.45c.09-.13.25-.24.33-.37s.05-.62.38-.79a.42.42,0,0,0,.22-.38.47.47,0,0,1,.17-.42,4.18,4.18,0,0,0,.75-.51c.1-.1.16-.25.27-.37a.74.74,0,0,1,.39-.22c.34,0,.53-.26.78-.47a1.87,1.87,0,0,1,.89-.32l.17,1.59a2.44,2.44,0,0,1-.59.1.42.42,0,0,0-.55.26.32.32,0,0,1-.2.25.64.64,0,0,0-.31.12,1,1,0,0,0-.23.63c0,.12-.11.17-.3.17s-.21.13-.18.26c.11.29-.35.31-.36.55a1.94,1.94,0,0,0,.09.36.48.48,0,0,1-.09.3c-.14.18-.26.4-.11.62.12.38-.23.9.13,1.23l.34.15a.81.81,0,0,1,.22.19,2.91,2.91,0,0,1,.34.45,2,2,0,0,1,.39.53.48.48,0,0,0,.58.33,4.36,4.36,0,0,1,1.34-.08c.21.08.47.26.67.09s.3-.53.5-.55.29.18.42.19.17-.15.19-.31c0-.36.2-.37.39-.45.38-.17.51-.55.74-.87,0-.11.28-.12.28-.23s-.12-.24-.1-.33.1-.19.17-.3a.94.94,0,0,0,.11-.33,3,3,0,0,0-1.2-2.36,4.62,4.62,0,0,0-.38-.57.82.82,0,0,0-.26-.21,1.25,1.25,0,0,0-.36,0c-.12,0-.2-.06-.28-.16s-.2-.06-.31-.06-.42,0-.62,0Z" style="fill:#5053ab"/><path d="M1254.36,951.24a2,2,0,0,1,1,.21l.42.25c.13.08.36.06.45.19a1,1,0,0,1,.21.43,1.11,1.11,0,0,0,.23.37,6.61,6.61,0,0,1,.54.7,1.43,1.43,0,0,1,.27.85c-.05.31-.23.58-.17.89.23.68-.42,1.23-.88,1.57-.23.17-.44.34-.66.52s-.35.55-.71.44-.47.31-.78.26a3.56,3.56,0,0,1-.8,0c-.26,0-.52,0-.78-.05a1.05,1.05,0,0,1-.74-.2,1,1,0,0,0-.33-.24c-.11-.05-.26,0-.39,0s-.45-.23-.63-.41c-.34-.4-.92-.34-1.28-.73a2.89,2.89,0,0,1-.52-.54c-.17-.2-.22-.46-.37-.67a3.7,3.7,0,0,1-.49-.68,2.48,2.48,0,0,1-.19-.88,2.07,2.07,0,0,1,.19-.89c.13-.28.45-.41.63-.62.36-.37.57-1.07,1.17-1.22a1.54,1.54,0,0,0,.81-.28.8.8,0,0,1,.4-.1,1.24,1.24,0,0,1,.42.15c.27.15.52-.06.78,0s.24.16.36.17.26-.1.39-.12.46.25.68.32a1.31,1.31,0,0,0,.71.1l-.52,1.17c-.15,0-.23-.2-.33-.32a.55.55,0,0,0-.42-.18,1.77,1.77,0,0,1-.86-.32l.84-1.36a1.84,1.84,0,0,1,.71.57.5.5,0,0,0,.38.24c.17,0,.36,0,.47.09l4,3.66-4.67-2.12c-.1,0-.18-.14-.28-.2a.55.55,0,0,0-.32,0c-.22,0-.47.21-.65.09s-.16-.29-.26-.29-.21.12-.31.12-.39-.32-.58-.15-.17.17-.26.2a.47.47,0,0,1-.28,0c-.2-.05-.4-.09-.5.11s-.76.14-.95.5c-.1.16,0,.45,0,.57s-.07.26-.12.37a1.18,1.18,0,0,0-.13.4c0,.14-.21.39-.13.57s.33.23.48.34.34.18.5.27a.88.88,0,0,1,.41.43.42.42,0,0,0,.54.26c.25-.06.51-.25.64,0s.1.36.21.37.23-.08.34-.17.39-.06.58,0a1.35,1.35,0,0,0,.56.1l.55,0c.14-.12.48.31.57,0s.34-.11.55-.15a1.11,1.11,0,0,0,.49-.3,3.12,3.12,0,0,0,.47-1c.07-.18-.08-.39-.18-.55a1.43,1.43,0,0,1-.05-.53,1.29,1.29,0,0,0-.09-.55c0-.21-.32-.21-.46-.27s-.06-.15-.12-.2a.4.4,0,0,0-.22,0,.64.64,0,0,1-.2,0,.72.72,0,0,1-.19,0Z" style="fill:#5053ab"/><path d="M1172.7,935.91a9.33,9.33,0,0,1,2.62-1.47c.26,0,.51,0,.75,0l.72-.13a6.48,6.48,0,0,1,1.52-.12,3.81,3.81,0,0,1,.76.16,2.71,2.71,0,0,1,.67.41,3.59,3.59,0,0,0,.65.43,4,4,0,0,1,.7.37,3.46,3.46,0,0,1,.86,1.28c.2.47.37.93.54,1.39.07.23.15.47.25.7a1.77,1.77,0,0,1,.23.73,5,5,0,0,1-.19.76c0,.24.17.51.06.76a6.16,6.16,0,0,1-1.34,2.66c-.16.19-.32.37-.49.55a1.85,1.85,0,0,1-.64.36,2.47,2.47,0,0,0-.65.29c-.18.14-.31.39-.53.49a4.57,4.57,0,0,1-1.37.3,10.73,10.73,0,0,0-1.31.39,6.62,6.62,0,0,1-2.72,0,5.88,5.88,0,0,0-1.37-.14,3.8,3.8,0,0,1-1.43-.35,2.88,2.88,0,0,1-1.84-2.38,6.21,6.21,0,0,1-.43-3,7,7,0,0,0,.45-1.45,1.94,1.94,0,0,1,.35-.67c.18-.18.41-.32.58-.5a2,2,0,0,0,.44-.57,1.45,1.45,0,0,1,.55-.47,1.08,1.08,0,0,0,.55-.46,1,1,0,0,1,.54-.49c.47-.16.93-.29,1.37-.46a2.38,2.38,0,0,1,1.36-.44,4.39,4.39,0,0,0,1.45-.17,4,4,0,0,1,1.49.18l-.51,1.52a3.21,3.21,0,0,1-.54-.14,5.16,5.16,0,0,1-.55-.12,1.17,1.17,0,0,0-1.14.06,1.43,1.43,0,0,1-.54.2,1.59,1.59,0,0,0-.58.07,2.27,2.27,0,0,0-.91.75.65.65,0,0,1-.23.16,2.38,2.38,0,0,1-.32,0,.49.49,0,0,0-.46.35c-.1.44-.68.42-.86.79a3.92,3.92,0,0,0-.16.58,1.72,1.72,0,0,1-.28.48,1.26,1.26,0,0,0-.39,1c0,.37-.13.72-.19,1.11a1.92,1.92,0,0,0,0,.58,1.09,1.09,0,0,0,.18.54c.63.57.86,1,1.41,1.46.27.22.6.36.93.63a1.36,1.36,0,0,0,1.18.29c.84-.1,1.62-.29,2.43-.33a1.88,1.88,0,0,0,1.22-.12c.36-.22.59-.68.94-.81.18-.07.47.07.68,0s.29-.27.38-.48c.1-.48.43-.61.71-.86a3.78,3.78,0,0,0,1-1.88c0-.18.29-.34.26-.54s-.17-.38-.17-.57a2.32,2.32,0,0,1,0-.59,1.82,1.82,0,0,0-.05-.6,3.86,3.86,0,0,0-3.36-2.87c-.7-.2-1.61-.51-2.28.06a1.08,1.08,0,0,1-.56.16,1.2,1.2,0,0,0-.5.28,8.8,8.8,0,0,0-.8.78Z" style="fill:#5053ab"/><path d="M1151.87,924a2,2,0,0,1,.56,1.63,6.85,6.85,0,0,1-4.51-.46,5.73,5.73,0,0,1,2.78-1.35l-1.77-1" style="fill:none;stroke:#dee4f5;stroke-miterlimit:10"/><path d="M1145.93,989.13c1.68.14,1.48,3.18-.18,3.49s-3.12-1.51-3-3.19c0-.48.7-.58,1.15-.41s1,.42,1.36.07-.63-.8-.47-.34" style="fill:none;stroke:#dee4f5;stroke-miterlimit:10"/><path d="M1262.38,1000.41a3.37,3.37,0,0,1,.94,4.13,6.1,6.1,0,0,1-4-3.57l1.75-1.77" style="fill:none;stroke:#dee4f5;stroke-miterlimit:10"/><path d="M1273.06,933.36c.8,1.23-.9,3.07-2.19,2.37s-.67-3.13.8-3.13" style="fill:none;stroke:#dee4f5;stroke-miterlimit:10"/><path d="M1123,192.32c-1.61,7.22-6.47,13.89-15.2,17.76-11.87,5.26-30.25,8.06-44.38.65-19.79-10.44,2.4-17.23,5.82-23.89,6.52-12.7,7.92-25.87,26.17-26.6C1115.27,159.44,1126.33,177.11,1123,192.32Z" style="fill:#5053ab"/><path d="M1252.62,815.54s48.58,53.62,68.06,67.16l-3.91-33.29-15.7-1.34-29.55-53.67" style="fill:#ffc14d"/><path d="M1147.32,820.78l10.54,65.61-39,2.25c-1.69.1-5-5.72-3.44-6.43l24.84-12L1117,791.14" style="fill:#ffc14d"/><path d="M1135.3,265.61c-7.74,16.78-6.17,46.39,9.17,59.35,6.07,5.13,14.71,6,21.76,9.72,13.66,7.11,24.12,19.24,32.89,31.9C1233,415.53,1315,488.35,1315,488.35l-10.6,8.65c-46.84-31-112.34-87.17-138.57-107.41-4.07-3.14-15.32-7-19.33,4-15.13,41.61-19.46,76.88-.15,110.42,1.54,2.68-18.27,1.86-21.16,2.93a7.07,7.07,0,0,1-2.83.24c-27.11-1.42-50.57,7.34-76.38,14.33-4.17,1.13,3-113.57,3.55-118.39,1.44-13.17-7.14-26.29-6.66-39.41.34-9.26,7.92-30.84,3.82-34.13C968.49,266.84,939.47,212.4,923.48,172c2.91,1.15,7.37-3.2,9.44-5.56-3.09,3.51,36.75,50.5,41,55.34a299.82,299.82,0,0,0,41.28,38.81C1033,274.22,1052,288,1073.33,295.36c8.64,3,19.77,6.81,28.61,3.08,9.75-4.13,4-38.35,4-38.35" style="fill:#ffc14d"/><path d="M1109.62,582.14l32.69,185.63,6.86,39c2.11,12,1.88,28.15,8.17,38.13,1.6,2.53,2.6,6.07.66,8.36-2.7,3.18-7.72.93-11.74-.2a18.29,18.29,0,0,0-14.42,2c-2.94-3.09-2.33-8-2.84-12.19-1.06-8.89-7.68-19.41-10.78-28.21q-4.95-14.05-9.84-28.12-11.61-33.34-22.9-66.79c-13.84-41.08-28-82.3-38.86-124.29q-.34-1.3-.67-2.61c-12.78-50.72-3.74-95.66-3.74-95.66l63,11.49" style="fill:#3e4166"/><path d="M1101.27,543.37c0,15.71-12.13,31.41-12.1,47.12,0,10,.08,20.31,3.9,29.57,4,9.6,11.89,18,12,28.44,0,6.92-3.52,13.53-3.15,20.44.35,6.64,4.23,12.47,7.44,18.3C1131,726.65,1124.9,777.71,1150,815c-10.82-70.67-24.69-141.35-35.51-212-3.32-21.65-3.61-43.4-10.1-64.32" style="fill:#0c1238;opacity:0.30000000000000004"/><path d="M1078.68,503.88c1.5,23.47,13.58,58.5,22.13,79.62,1.8,4.45,3.73,8.83,5.74,13.19,15.23,33.06,34.29,64.43,54,95,17,26.36,34.32,52.51,52.5,78.05q13.68,19.22,28.07,37.93c4.07,5.27,8,10.87,12.39,15.85.4.45,9.18,10.69,3.8,8.48a57.29,57.29,0,0,0,13,10.38,230.34,230.34,0,0,1,19.67-16,7.13,7.13,0,0,0,2.76-2.88c1.17-2.93-1.77-5.78-4.42-7.48-12.21-7.8-20.44-30.88-27.27-43.55q-15.79-29.29-29.83-59.48c-23.21-50-43-101.86-55.89-155.49-9.84-40.94-33.64-68.81-33.64-68.81" style="fill:#3e4166"/><path d="M1157.72,875.23c4.09,3.46,5.07,14.77.89,17.57-4.64,3.1-16.76.83-22.2.83-5.24,0-28.16,3.42-31.6.45-3.74-3.23.74-9.63,4.35-11.94,5.74-3.67,12.33-4.38,19-3.45,5.56.78,12.12,1.53,17.67.22,2.19-.52,9-4.92,10.3-4.55A4.28,4.28,0,0,1,1157.72,875.23Z" style="fill:#2f3155"/><path d="M1302.72,847.78a10.51,10.51,0,0,1,1.15-3c1-2.23,5.75-5.37,8.16-5.73,4.65-.7,4.83.17,8,4.61,5.11,7.19,7,16.7,10.36,24.77,1.32,3.21,11.26,21,10.1,23.23-2,3.86-9.82.94-12.62-.66-6.13-3.53-9.54-10.12-11.25-16.77-2.29-8.9-6.67-14.77-11-22.42C1303.92,848.75,1302.67,848.84,1302.72,847.78Z" style="fill:#2f3155"/><path d="M1139.86,402.69c-6.64-19.91,15.59-58.11,34-67.33-3.51-1.62-6.16-3.24-9.68-4.86-19,20.72-53,17.62-73.54,2.52-11.45-8.43-16-25.87-10.22-39.25-3.3-.05-5.73.84-8.7-.7.75.39-19.31,31.64-20.86,34.24-5.24,8.78-11.61,18-12,28.68-.27,7.45,3,20,4,27.39,3.38,24.86,1.1,48.44-7.54,71.86,2.92,14.07,16.74,23.51,30.69,27,15.7,3.88,31,1.33,46.57,2.24,16.08.93,33.76,9.13,47.48,17.06,2.2,1.27,1.24-11.7.92-12.65-1.44-4.2-7.39-8.16-9.9-11.91-5.74-8.56-9.08-22.51-9.73-32.84C1139.5,414.65,1148.19,427.66,1139.86,402.69Z" style="fill:#f3f4f7"/><path d="M1130.86,270.37c-4.92,4.59-11,7.4-17.54,10.67-1.77,0-2.47-2.21-3.52-3.63-1.68-2.28-4.93-2.7-7.75-2.47s-5.74.89-8.45,0c-8.72-2.74-11.52-17-13.35-24.58-2.85-11.88-2.83-24.3-1.79-36.41.6-7,1.69-14.38,6-19.95,4.83-6.24,12.89-9.12,20.41-10.47,3.42-.61,15.13-2.25,17.85.27L1165.23,223c.46.43-16.65,23.47-17.83,25.13-4.07,5.73-8.21,11.42-12.2,17.2A30.71,30.71,0,0,1,1130.86,270.37Z" style="fill:#ffc14d"/><path d="M1185.11,219.17c1.95-5.58,6.77-10.49,8.86-16.26,4.43-12.23-7.1-27.12-20-25.91-3,.28-6.25,1.25-9-.09-2.18-1.07-3.45-3.33-4.83-5.33-10-14.43-32.64-17.83-46.39-7-3.41,2.7-6.27,6.09-9.88,8.53-8.21,5.56-26-.43-20.06,15.1,2.91,7.66,16.76,13.79,23.52,17.41,9.83,5.27,14.18,15.13,16.06,25.57-.33-1.82,17.49-1.66,17.75,8.21.2,7.43-7.49,9-11,14.07-9.25,13.29-13.28,37.26,7,43,7.2,2,15.29-.18,20.91-5.12,1.68-1.48,3.19-3.2,5.13-4.33,6.75-3.91,15.21.79,23,.17,6.39-.51,12.08-4.77,15.5-10.2s4.83-11.89,5.36-18.29a18.31,18.31,0,0,0-.52-7.42c-3.8-11.18-21.58-13-22.21-26.94A13.87,13.87,0,0,1,1185.11,219.17Z" style="fill:#5053ab"/><path d="M1076.84,247.84l20.71-.4a3.52,3.52,0,0,1,1.62.23c2,.93,2.08,4.7,1.29,7.29-3.65,12-13.57,12-21.49,10.48" style="fill:#f4f6f8"/><polygon points="1077.56 226.27 1078 241.38 1069.83 236.99 1077.56 226.27" style="fill:#0c1238"/><path d="M1171,548.15c5.24,19.78-3.18,41.69,3.93,60.87,3.47,9.37,10.34,17.12,14.26,26.3,2.91,6.82,4.12,14.23,5.75,21.46a179.93,179.93,0,0,0,53.5,92.32,1144,1144,0,0,1-75.77-193.68" style="fill:#0c1238;opacity:0.30000000000000004"/><path d="M892.84,182.48c24.78-22.53,40.27-43.14,54.22-72.93,1-2.09,2-4.36,1.51-6.61-.73-3.48-4.55-5.37-7.93-6.75C922,88.54,900.7,83.11,884.77,71.09a7,7,0,0,0-3.68-1.78c-2.06-.11-3.72,1.54-5,3.08-18,21.17-28.59,47.87-48.79,67.07-5.67,5.39-12.64,11.69-11.17,19.24,1.08,5.53,6.4,9.19,11.28,12.24L855,188.25c3.81,2.39,7.77,4.83,12.26,5.53C876.86,195.27,885.56,188.67,892.84,182.48Z" style="fill:#fff"/><path d="M862.58,73.77,856.43,38.6" style="fill:none;stroke:#ffc14d;stroke-miterlimit:10"/><path d="M855.88,78a113.28,113.28,0,0,0-10.16-18.8" style="fill:none;stroke:#ffc14d;stroke-miterlimit:10"/><path d="M847.26,84.12a26.44,26.44,0,0,1-10-6.67c-1.47-1.56-2.81-3.59-2.43-5.7.09-.49.37-1,.86-1.09a1.18,1.18,0,0,1,.73.23,3.9,3.9,0,0,1-1.1,7.06c-1.86.49-3.78-.43-5.39-1.49a28.41,28.41,0,0,1-8.46-8.69" style="fill:none;stroke:#ffc14d;stroke-miterlimit:10"/><path d="M838,90.36a180,180,0,0,0-24.54-6.56" style="fill:none;stroke:#ffc14d;stroke-miterlimit:10"/><path d="M842.13,54.79l-5.69-10.63" style="fill:none;stroke:#ffc14d;stroke-miterlimit:10"/><path d="M887.94,199.48a314.91,314.91,0,0,1,13.51,35.18" style="fill:none;stroke:#ffc14d;stroke-miterlimit:10"/><path d="M880.26,203.33a284.29,284.29,0,0,1,5.34,33.34" style="fill:none;stroke:#ffc14d;stroke-miterlimit:10"/><path d="M895.37,195.28c3.68,4.17,8.75,10.86,14.11,12.83,3.11,1.14,7.33-.1,8.2-3.3-1.14-3.12-6-3.45-8.23-1s-2.05,6.4-.48,9.31c2.06,3.82,7,8.36,10.72,10.69" style="fill:none;stroke:#ffc14d;stroke-miterlimit:10"/><path d="M905,188.27a149.06,149.06,0,0,1,18.19,8.45" style="fill:none;stroke:#ffc14d;stroke-miterlimit:10"/><path d="M934.14,170.57c.25-12.18-5-25.14-15-32.09-10.71-8.86.6,5.53,2.74,13.84-3.71,6.73-10,14.16-13.45,17.86,5.33,8,15.62,6.86,21.31,16.63" style="fill:#ffc14d"/><path d="M1412.4,478l29.76,13.35c-18.71,36.58-39.21,78.2-71.48,105.52-19.28-10.22-37.55-24.49-56.83-34.71-2.22-1.17-4.62-2.56-5.33-4.83-1.44-4.62,5.06-8.75,4.22-13.49" style="fill:#fff"/><path d="M1415.68,470.25l28.71,15.19c-21.35,35.32-43.44,75.3-77.65,100.53-18.49-11.4-39.1-23.66-57.59-35.06-2.12-1.31-2.39-5.72-2.93-8-1.1-4.7,5.69-8.41,5.2-13.19" style="fill:#f4f6f8"/><path d="M1383.18,560.52c10.41-9,20.9-19.47,23.21-22,3.42-3.82,41.88-56,36.93-58.19-22-9.75-44.1-16.6-65.31-27.92-3.77-2-8.38-4.06-12.25-2.22-7.66,3.64-16.45,24.35-21.08,31.38-8.56,13-17.11,26.18-28.9,36.94-5.62,5.13-9.61,11.62-16.06,16,18.48,15.52,39.83,28.25,61.49,39.59C1364.26,575.6,1373.68,568.71,1383.18,560.52Z" style="fill:#fff"/><path d="M1312.61,489.25c12.05-1.75,25.56,1.87,33.7,10.93,10.12,9.54-5.56.09-14.07-1-6.22,4.51-12.81,11.71-16.07,15.55-8.57-4.31-19.13-22.13-19.13-22.13" style="fill:#ffc14d"/><path d="M1039.12,1029.77c30.78.44,61.55-.83,92.33.14,3.85.13,7.69-.28,11.54-.22,1.92,0,3.85.3,5.77.31a23.2,23.2,0,0,0,2.89-.12,27.64,27.64,0,0,1,2.89-.08l11.54.09c3.85.05,7.69.09,11.54.08s7.69-.08,11.54.21c1.92.11,3.85.23,5.77.18s3.85-.25,5.77-.23c3.85,0,7.69.27,11.54.36,1.92.07,3.85,0,5.77,0l5.77-.08c3.85-.1,7.69,0,11.54,0s7.69,0,11.54.1c1.92,0,3.85,0,5.77,0l5.77-.17c3.85-.15,7.69-.25,11.54-.34s7.69-.13,11.54-.18c1.92,0,3.85,0,5.77,0l5.77.21c7.69.08,15.39-.43,23.08-.39l2.89.1c1,0,1.92.06,2.89,0l5.77-.13c1.92,0,3.85-.06,5.77,0s3.85.26,5.77.31,3.85,0,5.77,0l2.89,0,2.89.11a43.55,43.55,0,0,0,5.77,0,45.27,45.27,0,0,1,5.77-.13c1.92,0,3.85.14,5.77.19l5.77.08c3.85-.07,7.69-.28,11.54-.09s7.69,0,11.54-.14c1.92-.1,3.85-.1,5.77-.13s3.85-.06,5.77,0v2.4c-1.92,0-3.85,0-5.77,0s-3.85,0-5.77-.08a106.52,106.52,0,0,0-11.54,0c-1.92.13-3.85.15-5.77.12l-5.77-.16c-3.85,0-7.69.23-11.54.4a38.41,38.41,0,0,1-5.77-.23,32.22,32.22,0,0,0-5.77,0c-3.85.38-7.69-.29-11.54-.15-1.92,0-3.85.21-5.77.26s-3.85,0-5.77,0c-3.85-.11-7.69-.34-11.54-.09-7.69.09-15.39-.45-23.08-.21l-5.77.33-2.89.08h-2.89c-3.85,0-7.69,0-11.54-.08s-7.69-.1-11.54-.36a94.94,94.94,0,0,0-11.54-.14c-7.69.3-15.39.47-23.08.36-1.92-.06-3.85-.18-5.77-.25s-3.85-.09-5.77,0c-3.85.14-7.69.61-11.54.57-1.92,0-3.85-.43-5.77-.52a44,44,0,0,0-5.77.27,83.09,83.09,0,0,1-11.54.19c-3.85-.11-7.69-.12-11.54-.13l-11.54-.09a25.84,25.84,0,0,1-2.89-.13,22.19,22.19,0,0,0-2.89-.17c-1.92,0-3.85.24-5.77.23-3.85,0-7.69-.4-11.54-.34-15.39-.15-30.78,0-46.16.19l-11.54-.18c-1.92,0-3.85-.09-5.77-.06s-3.85.17-5.77.24-3.85,0-5.77,0-3.85,0-5.77,0c-3.85.13-7.69.14-11.54.2Z" style="fill:#0c1238"/><path d="M844.5,152.21a.78.78,0,0,0,.59.5,2.72,2.72,0,0,0,1.21,0,6.27,6.27,0,0,0,1.31-.43c.41-.19.88-.49,1.32-.74l1.33-.79c.42-.29.82-.63,1.22-.95.8-.65,1.61-1.28,2.45-1.88a22.88,22.88,0,0,0,4.45-4.28c.66-.79,1.27-1.62,1.91-2.43s1.18-1.69,1.72-2.56c1-1.78,2.29-3.41,3.2-5.26.22-.46.43-.93.64-1.4s.34-1,.52-1.45.35-1,.53-1.44.34-1,.52-1.45c.38-1,.65-1.94,1-2.93s.52-2,.77-3a34.54,34.54,0,0,0,.62-6.14l.34.65c-.88-.51-1.89.15-2.92,1a5.47,5.47,0,0,0-1.32,1.51c-.33.6-.54,1.33-.86,2a48.43,48.43,0,0,0-3.14,8,38,38,0,0,0-1,4.2c-.26,1.42-.38,2.85-.64,4.27a11.41,11.41,0,0,0-.11,4.25,12.81,12.81,0,0,0,.64,2,6.15,6.15,0,0,0,1,1.71,4.07,4.07,0,0,0,1.56,1.17,4.84,4.84,0,0,0,2,.33,8.28,8.28,0,0,0,3.9-1.5,28.07,28.07,0,0,0,6.08-6c1.72-2.33,3.45-4.68,5-7.15a27.83,27.83,0,0,1,5.79-6.74,22.38,22.38,0,0,1,1.87-1.3,4.67,4.67,0,0,1,2.45-.76,3.19,3.19,0,0,1,2.41,1.32,6.33,6.33,0,0,1,1.06,2.16,17.48,17.48,0,0,1,.48,9,13.41,13.41,0,0,1-1.75,4.27,8.33,8.33,0,0,1-.71.93,6.32,6.32,0,0,1-.85.9,2.49,2.49,0,0,1-4-.49,4.46,4.46,0,0,1-.47-1.27,6.06,6.06,0,0,1,0-2.53,5.12,5.12,0,0,1,.46-1.2c.2-.33.39-.67.61-1,.42-.64.9-1.24,1.35-1.84a15.79,15.79,0,0,1,3.17-3.24,20.57,20.57,0,0,1,1.94-1.18l2-1.11a12.42,12.42,0,0,1,4.36-1.15l4.38-.46c1.44-.21,2.83-.52,4.2-.84a9.14,9.14,0,0,0,3.76-1.71c2.13-1.73,3.6-4.44,2.8-6.84l1.52-.49a6.59,6.59,0,0,1,.25,2.49,7.48,7.48,0,0,1-.71,2.35,10.05,10.05,0,0,1-3.15,3.45,15.2,15.2,0,0,1-4.09,2.16,22.46,22.46,0,0,1-4.43.7,35.91,35.91,0,0,0-4.28.69c-1.39.32-2.67.78-4,1.12a7.88,7.88,0,0,0-3.58,2.05,21,21,0,0,0-3,2.83A9.5,9.5,0,0,0,889,136c-.16.31-.28.64-.41,1a3.83,3.83,0,0,0-.26.85,4.85,4.85,0,0,0-.09,1.81,3.08,3.08,0,0,0,.23.79,1.17,1.17,0,0,0,.38.45.82.82,0,0,0,.55.07,1.17,1.17,0,0,0,.62-.37,9.15,9.15,0,0,0,1.17-1.6,15.49,15.49,0,0,0,1.74-3.73,11.13,11.13,0,0,0-.43-8.13c-.57-1.25-1.35-2.31-2.15-2.31a3.13,3.13,0,0,0-1.56.51c-.57.37-1.16.73-1.73,1.13A21.41,21.41,0,0,0,884,129.2c-1,1-2,2.08-2.88,3.2-1.86,2.24-3.11,4.91-4.87,7.29a26.79,26.79,0,0,1-2.84,3.46,14.86,14.86,0,0,1-3.54,2.84,12.19,12.19,0,0,1-2.12.95,10.6,10.6,0,0,1-2.29.56,6.87,6.87,0,0,1-2.47-.16,5.46,5.46,0,0,1-2.25-1.27,6,6,0,0,1-1.37-2.14,7.77,7.77,0,0,1-.32-2.38c0-1.53-.22-3.06-.26-4.55a19.36,19.36,0,0,1,.52-4.43c.29-1.46.69-2.9,1.08-4.33a45.18,45.18,0,0,1,3.22-8.29c.32-.68.82-1.23,1.2-1.89a14.87,14.87,0,0,1,1.35-1.93,4.47,4.47,0,0,1,2-1.42,3.21,3.21,0,0,1,1.38-.16,2.94,2.94,0,0,1,1.31.51l.34.22,0,.33c-.16,1.06-.18,2.12-.31,3.17s-.26,2.11-.5,3.14a43,43,0,0,1-1.54,6.16l-.5,1.51-.62,1.46c-.39,1-.86,1.93-1.31,2.89a31.36,31.36,0,0,1-3,5.61c-.61.87-1.28,1.7-1.92,2.55s-1.38,1.62-2.1,2.39c-1.47,1.54-3,3-4.55,4.44L853.6,150c-.41.34-.88.61-1.31.91-.89.59-1.76,1.19-2.66,1.76-.46.29-.85.59-1.37.88a6.5,6.5,0,0,1-1.64.62,4.19,4.19,0,0,1-1.9,0,2.39,2.39,0,0,1-1.71-1.43Z" style="fill:#dee4f5"/><path d="M1336.28,529.42a.78.78,0,0,0,.59.5,2.72,2.72,0,0,0,1.21,0,6.27,6.27,0,0,0,1.31-.43c.41-.19.88-.49,1.32-.74l1.33-.79c.42-.29.82-.63,1.22-.95.8-.65,1.61-1.28,2.45-1.88a22.88,22.88,0,0,0,4.45-4.28c.66-.79,1.27-1.62,1.91-2.43s1.18-1.69,1.72-2.56c1-1.78,2.29-3.41,3.2-5.26.22-.46.43-.93.64-1.4s.34-1,.52-1.45.35-1,.53-1.44.34-1,.52-1.45c.38-1,.65-1.94,1-2.93s.52-2,.77-3a34.54,34.54,0,0,0,.62-6.14l.34.65c-.88-.51-1.89.15-2.92,1a5.47,5.47,0,0,0-1.32,1.51c-.33.6-.54,1.33-.86,2a48.42,48.42,0,0,0-3.14,8,38.07,38.07,0,0,0-1,4.2c-.26,1.42-.38,2.85-.64,4.27a11.41,11.41,0,0,0-.11,4.25,12.8,12.8,0,0,0,.64,2,6.15,6.15,0,0,0,1,1.71,4.07,4.07,0,0,0,1.56,1.17,4.84,4.84,0,0,0,2,.33,8.28,8.28,0,0,0,3.9-1.5,28.07,28.07,0,0,0,6.08-6c1.72-2.33,3.45-4.68,5-7.15a27.82,27.82,0,0,1,5.79-6.74,22.36,22.36,0,0,1,1.87-1.3,4.67,4.67,0,0,1,2.45-.76,3.19,3.19,0,0,1,2.41,1.32,6.33,6.33,0,0,1,1.06,2.16,17.48,17.48,0,0,1,.48,9,13.41,13.41,0,0,1-1.75,4.27,8.32,8.32,0,0,1-.71.93,6.33,6.33,0,0,1-.85.9,2.49,2.49,0,0,1-4-.49,4.47,4.47,0,0,1-.47-1.27,6.06,6.06,0,0,1,0-2.53,5.11,5.11,0,0,1,.46-1.2c.2-.33.39-.67.61-1,.42-.64.9-1.24,1.35-1.84a15.8,15.8,0,0,1,3.17-3.24,20.55,20.55,0,0,1,1.94-1.18l2-1.11a12.42,12.42,0,0,1,4.36-1.15l4.38-.46c1.44-.21,2.83-.52,4.2-.84a9.14,9.14,0,0,0,3.76-1.71c2.13-1.73,3.6-4.44,2.8-6.84l1.52-.49a6.59,6.59,0,0,1,.25,2.49,7.48,7.48,0,0,1-.71,2.35,10.06,10.06,0,0,1-3.15,3.45,15.2,15.2,0,0,1-4.09,2.16,22.45,22.45,0,0,1-4.43.7,35.91,35.91,0,0,0-4.28.69c-1.39.32-2.67.78-4,1.12a7.88,7.88,0,0,0-3.58,2.05,21,21,0,0,0-3,2.83,9.5,9.5,0,0,0-1.07,1.79c-.16.31-.28.64-.41,1a3.83,3.83,0,0,0-.26.85,4.85,4.85,0,0,0-.09,1.81,3.09,3.09,0,0,0,.23.79,1.17,1.17,0,0,0,.38.45.82.82,0,0,0,.55.07,1.17,1.17,0,0,0,.62-.37,9.15,9.15,0,0,0,1.17-1.6,15.49,15.49,0,0,0,1.74-3.73,11.13,11.13,0,0,0-.43-8.13c-.57-1.25-1.35-2.31-2.15-2.31a3.13,3.13,0,0,0-1.56.51c-.57.37-1.16.73-1.73,1.13a21.42,21.42,0,0,0-3.14,2.78c-1,1-2,2.08-2.88,3.2-1.86,2.24-3.11,4.91-4.87,7.29a26.81,26.81,0,0,1-2.84,3.46,14.86,14.86,0,0,1-3.54,2.84,12.18,12.18,0,0,1-2.12.95,10.6,10.6,0,0,1-2.29.56,6.86,6.86,0,0,1-2.47-.16,5.46,5.46,0,0,1-2.25-1.27,6,6,0,0,1-1.37-2.14,7.77,7.77,0,0,1-.32-2.38c0-1.53-.22-3.06-.26-4.55a19.36,19.36,0,0,1,.52-4.43c.29-1.46.69-2.9,1.08-4.33a45.18,45.18,0,0,1,3.22-8.29c.32-.68.82-1.23,1.2-1.89a14.89,14.89,0,0,1,1.35-1.93,4.46,4.46,0,0,1,2-1.42,3.21,3.21,0,0,1,1.38-.16,2.94,2.94,0,0,1,1.31.51l.34.22,0,.33c-.16,1.06-.18,2.12-.31,3.17s-.26,2.11-.5,3.14a43,43,0,0,1-1.54,6.16l-.5,1.51-.62,1.46c-.39,1-.86,1.93-1.31,2.89a31.36,31.36,0,0,1-3,5.61c-.61.87-1.28,1.7-1.92,2.55s-1.38,1.62-2.1,2.39c-1.47,1.54-3,3-4.55,4.44l-1.19,1.07c-.41.34-.88.61-1.31.91-.89.59-1.76,1.19-2.66,1.76-.46.29-.85.59-1.37.88a6.51,6.51,0,0,1-1.64.62,4.19,4.19,0,0,1-1.9,0,2.39,2.39,0,0,1-1.71-1.43Z" style="fill:#dee4f5"/><path d="M1195.82,227c-1.54,7.73,17.42,17.26,19,3.15.59-5.29-5-10.28-10.17-9.14C1198.85,222.25,1196.31,224.51,1195.82,227Z" style="fill:#5053ab"/></svg>