<svg xmlns="http://www.w3.org/2000/svg" viewBox="0 0 1920 1080"><title>emptystate-themes</title><g style="isolation:isolate"><g id="Artwork"><path d="M128.51,880.74c145.27-.16,290.54-.58,435.81-.16l54.48.1c18.16.11,36.32.28,54.48.25l109,.07,217.9.5,435.81-.68c36.32-.06,72.63-.17,109-.09l109,.24,217.9-.25v3.2l-217.9.24-54.48,0-54.48-.17c-36.32-.13-72.63-.08-109-.08l-435.81.15-109,.25c-36.32,0-72.63.19-109,0l-109-.47c-18.16-.15-36.32,0-54.48,0l-54.48-.17-109-.25-54.48.2c-18.16.09-36.32.18-54.48.16l-217.9.14Z" style="fill:#e0e3ed"/><path d="M1588.78,842.72c19.56-.12,39.12-.43,58.68-.12l7.33.08c2.44.08,4.89.21,7.33.19l14.67.06c4.89,0,9.78.11,14.67.19s9.78.12,14.67.18c19.56-.1,39.12-.31,58.68-.51,4.89,0,9.78-.13,14.67-.06l14.67.2c9.78,0,19.56-.14,29.34-.2a1.2,1.2,0,0,1,0,2.4h0l-29.34.18c-2.45,0-4.89,0-7.33,0l-7.33-.13c-4.89-.1-9.78-.06-14.67-.06l-58.68.11-14.67.19c-4.89,0-9.78.13-14.67,0l-14.67-.39c-1.22,0-2.44-.08-3.67-.06l-3.67.09-7.33-.12c-4.89-.09-9.78-.17-14.67-.2s-9.78.31-14.67.28l-29.34.11a1.2,1.2,0,0,1,0-2.4Z" style="fill:#fff"/><path d="M732.28,842.72c68.82-.12,137.64-.43,206.46-.12l25.81.08c8.6.08,17.21.21,25.81.19l51.61.06,103.23.38,206.46-.51c34.41-.2,68.82.06,103.23.12q12.9.06,25.81,0l25.81-.06,51.61-.12a1.2,1.2,0,1,1,0,2.4h0l-103.23.18c-17.2,0-34.41,0-51.61-.14s-34.41-.07-51.61-.07l-206.46.11-51.61.19c-17.2,0-34.41.14-51.61,0L990.35,845c-8.6-.11-17.2,0-25.81,0l-25.81-.12-51.61-.19-25.81.15c-8.6.07-17.2.13-25.81.12l-103.23.11a1.2,1.2,0,1,1,0-2.4Z" style="fill:#fff"/><path d="M1415.63,565.22l-191.32.46-95.78.11-95.78-.09h-1.34v-1.33l.07-50.81.2-50.81.06-101.62.38-203.24v-.62h.62l382-.5h1.13v1.13l.07,50.92,0,25.47-.05,25.46-.22,101.79Zm-1.7-1.7-.42-202.92.1-202.72,1.17,1.17-382,.11,1.28-1.28.19,101.62c0,33.87.13,67.75,0,101.62l-.37,101.62,0,50.81-.14,50.81-1-1,47.67.11c15.89,0,31.8.12,47.68,0,31.78,0,63.47-.25,95.24-.19Z" style="fill:#e0e3ed"/><path d="M1414.78,568.19c-4.41,17.17-19.23,13.55-28,16.46-16.08,5.34-32,13-48,19.46-17.29,7-35,14.06-52.57,10.21-10.73-2.35-21.1-8.72-31.82-11.35-22.56-5.55-45.34,5.67-66.66,20.28-18.31,12.55-37.45,28-56.66,21.36-18.49-6.35-33.91-32.41-52.39-37.34q-1-.28-2.09-.46c-10.13-1.78-20.64,3.27-30.39-2.07s-17.47-29.21-10.33-42.53" style="fill:#e8eaf2;opacity:0.5"/><rect x="1050.24" y="171.76" width="347.06" height="377.24" style="fill:#dee4f5"/><path d="M1298.92,409c27.15,3.76,51.24,1.42,64.44-32.36,3.49-8.94,4.85-18.56,6.07-28.08,2.67-20.79,3.63-52.37-11.57-69.7-5.89-6.72-15.47-8.88-24.41-9.12-59.08-1.58-117,13.43-176,10.2-21.12-1.15-44.24-3.62-61.61,8.45a20.43,20.43,0,0,0-7.16,7.73c-1.35,2.89-1.63,6.15-1.88,9.33L1081.23,375c-.48,6-.87,12.32,2,17.54,2.73,4.88,7.87,7.86,13,10.18,53.49,24.38,102.56-6.53,156.44-1.16C1268.15,403.05,1284,407,1298.92,409Z" style="fill:#7581ce"/><path d="M1113.19,446.21c-12,2.4-12.62,11-12.63,23.5a213.05,213.05,0,0,0,1.84,28.06c.55,4.18,1.27,8.46,3.57,12.17,4.88,7.89,15.65,11.41,25.68,12.62,29.87,3.6,63.42.24,93.26-1.76,4.58-.31,9.58-.82,12.72-3.74,2.26-2.1,3.11-5.07,3.75-7.93,3.36-15,4.6-32.9-.74-47.75a16.6,16.6,0,0,0-3.07-5.68c-3.22-3.57-8.69-4.79-13.76-5.49-17.44-2.41-34.28.69-51.65-.29s-34.43-4.62-51.82-4.39A39.36,39.36,0,0,0,1113.19,446.21Z" style="fill:#f4f6f8"/><path d="M1215.23,230.92a13.11,13.11,0,0,0,.3,2.14c1.9,8.48,11.08,13.11,19.26,16.59,17.68,7.54,28.32-4.35,33.88-20.85,2.58-7.66,1.67-16.9-4.19-22.6-4.61-4.49-11.45-6.1-18-6.38-5.81-.25-11.9.49-16.74,3.62C1222.49,208.15,1214.75,222.37,1215.23,230.92Z" style="fill:#f4f6f8"/><path d="M1282.58,228.28c-.45,11,6.34,20.36,19.59,20.68,14.52.36,21.73-13.37,23.66-25.62.94-5.93,0-12.4-3.9-17.06s-10.37-6.93-16.49-6.26a23.36,23.36,0,0,0-15.49,8.84,38.75,38.75,0,0,0-5.9,11.67A27.56,27.56,0,0,0,1282.58,228.28Z" style="fill:#f4f6f8"/><path d="M1353,241.55c10.72,1.71,20.22-6.7,19.1-18.26a18.45,18.45,0,0,0-2.25-7.52,15.23,15.23,0,0,0-12.42-7.34c-16.68-.58-25.79,23.2-10.27,31.17A19.51,19.51,0,0,0,1353,241.55Z" style="fill:#5053ab"/><path d="M1089.94,233.76a17.35,17.35,0,0,0,6.39,7.2c9,5.83,28.58,10.08,39.48,11.87,9.65,1.58,21-.33,26.35-7.59a28.36,28.36,0,0,0,3.53-7.54l3.18-9c5.78-16.41-7.85-28.57-27.09-26.4-9.6,1.08-17.18,5.41-25.47,9.37-6.89,3.29-11,2.78-18.11,5C1089.23,219.46,1086.91,227.15,1089.94,233.76Z" style="fill:#5053ab"/><path d="M1084.61,466.52c2,.54,4,1,6,1.4a27.05,27.05,0,0,0,6.12.75c2,.11,4.08.62,6.15.6,1,0,2.06-.06,3.09-.1s2.05-.17,3.08-.3,2-.27,3.05-.42,2-.29,3-.47a34.27,34.27,0,0,0,5.8-1.25,12.23,12.23,0,0,0,4.71-3.16,8.43,8.43,0,0,0,1.47-2.08,5.65,5.65,0,0,0,.48-2.42l.66,1a6.27,6.27,0,0,0-2.77-.82,6.91,6.91,0,0,0-3,.53,5.89,5.89,0,0,0-2.33,1.78,5.67,5.67,0,0,0-1,2.69,11.76,11.76,0,0,0,0,2.91,4.16,4.16,0,0,0,.46,1.41,3.63,3.63,0,0,0,1,1.07,13.74,13.74,0,0,0,2.55,1.72,22,22,0,0,0,3,1.22,22.48,22.48,0,0,0,6.52,1.09c1.12,0,2.23,0,3.35-.14s2.23-.29,3.35-.47a27.84,27.84,0,0,0,6.69-1.37,50.66,50.66,0,0,1,6.45-2.39c2.21-.69,4.37-1.51,6.5-2.42a61.63,61.63,0,0,1,6.5-2.5,51.36,51.36,0,0,1,6.81-1.66,33.87,33.87,0,0,1,7-.36,24.62,24.62,0,0,1,7,1.06,11.12,11.12,0,0,1,5.92,4.48,7.46,7.46,0,0,1,.74,1.87,4.48,4.48,0,0,1,.16,1,4.13,4.13,0,0,1,0,1.1,6.22,6.22,0,0,1-2,3.62,6.49,6.49,0,0,1-3.7,1.69,4.56,4.56,0,0,1-3.94-1.59l-.27-.35.1-.41a14,14,0,0,1,5.28-7.79,14.16,14.16,0,0,1,4.15-2.21c1.5-.45,3-.85,4.49-1.21a26,26,0,0,1,4.53-.7,22.06,22.06,0,0,1,4.54.26c1.5.19,3,.26,4.48.35a21.44,21.44,0,0,1,2.22.25c.74.11,1.46.31,2.19.46,6,.2,11.58,2.56,17.45,2.3,1.45,0,2.89.15,4.33.18a15.5,15.5,0,0,0,4.26-.59,28.13,28.13,0,0,0,7.72-3.3l1.29,2a21,21,0,0,1-4.16,2.08,10.46,10.46,0,0,1-1.1.38c-.37.12-.74.23-1.12.32-.76.14-1.51.33-2.27.41-1.52.21-3,.33-4.54.53a20.66,20.66,0,0,1-4.54.2c-1.51-.12-3-.42-4.47-.56s-3-.31-4.45-.41a31.16,31.16,0,0,1-4.41-.53c-.72-.18-1.42-.45-2.13-.66a11.27,11.27,0,0,0-2.17-.36,24.7,24.7,0,0,1-4.35-.46,18.05,18.05,0,0,0-4.32-.47c-1.45.08-2.88.24-4.3.3s-2.83.15-4.25.31c-.69.14-1.41.23-2.08.43a11.31,11.31,0,0,0-2,.76,36,36,0,0,0-3.66,1.94,10.4,10.4,0,0,0-4.91,6.19l-.18-.81a2.27,2.27,0,0,0,1,.62,2.63,2.63,0,0,0,1.21,0,4.4,4.4,0,0,0,1.2-.57,3.17,3.17,0,0,0,.56-.38,3.77,3.77,0,0,0,.5-.46,3.9,3.9,0,0,0,1.25-2.15,4.13,4.13,0,0,0-.52-2.42,9.33,9.33,0,0,0-4.5-3.85,16.85,16.85,0,0,0-6.36-1.7c-4.53,0-8.9,1.25-13.21,2.6-2.13.78-4.34,1.39-6.54,2.08-.55.16-1.08.39-1.62.59s-1.07.42-1.59.67c-1.05.48-2.06,1.07-3.09,1.63a24.93,24.93,0,0,1-3.17,1.52,13.36,13.36,0,0,1-3.47.74c-2.35.31-4.41,1.67-6.76,2.21-.59.13-1.17.24-1.77.31l-1.8.15c-1.21.06-2.41.09-3.62,0a27.4,27.4,0,0,1-7.2-1.15,24.2,24.2,0,0,1-3.41-1.38,14.37,14.37,0,0,1-1.63-1,6,6,0,0,1-1.46-1.32,14.31,14.31,0,0,1-1-1.72,11.93,11.93,0,0,1-.84-1.78,6.59,6.59,0,0,1-.32-3.91,8.38,8.38,0,0,1,4.95-5.72,9,9,0,0,1,3.7-.68,8.21,8.21,0,0,1,3.68.87l.37.18,0,.41a7.85,7.85,0,0,1-.45,3.44,8.91,8.91,0,0,1-1.91,2.83,18.76,18.76,0,0,1-5.56,3.43,32.22,32.22,0,0,1-3,1.19,16.61,16.61,0,0,1-3.16.69,53.59,53.59,0,0,1-6.32.48c-2.11,0-4.22.05-6.32,0s-4.23.22-6.33-.06-4.18-.57-6.28-.85-4.17-.71-6.23-1.18Z" style="fill:#a3b3ef"/><path d="M1081.86,484.46c1.82.07,3.64.09,5.45.23a26.12,26.12,0,0,0,2.73.06,12.08,12.08,0,0,1,2.73-.06c.91.07,1.82.25,2.73.25s1.82,0,2.73-.05l5.46-.31c.91,0,1.82-.09,2.73-.06s1.82.12,2.73.2a20.28,20.28,0,0,0,2.73.06c.91,0,1.82-.18,2.73-.19,1.82,0,3.64.12,5.45.24s3.64.22,5.45.21c.91,0,1.82,0,2.73-.09a19.26,19.26,0,0,1,2.73-.16c.91,0,1.82.3,2.73.31A5.24,5.24,0,0,0,1135,485a6.21,6.21,0,0,1,1.36-.08c1.82,0,3.64,0,5.46.08s3.64.09,5.46.07a35,35,0,0,1,5.46.18,15.31,15.31,0,0,0,2.73.17c.91,0,1.82-.26,2.73-.25,1.82,0,3.64.24,5.46.32s3.64,0,5.46-.12,3.64,0,5.46-.08,3.64,0,5.46,0a36.6,36.6,0,0,0,5.45-.22c1.82-.18,3.63-.31,5.45-.41s3.63-.2,5.45-.28c.91-.06,1.82-.06,2.73,0l2.73.16c3.64.08,7.26-.66,10.9-.62a28.2,28.2,0,0,0,5.45-.14,21,21,0,0,1,2.73-.05c.91,0,1.82.22,2.73.24,1.82.12,3.63-.35,5.46-.1a9.61,9.61,0,0,0,2.73-.08,11.43,11.43,0,0,1,2.72-.23c1.82.09,3.65.22,5.46.13.91-.07,1.81-.15,2.72-.25a19.37,19.37,0,0,1,2.73,0,18.84,18.84,0,0,0,2.73,0c.91-.06,1.81-.22,2.72-.31s1.81-.16,2.72-.22,1.82-.12,2.72-.13l.08,2.4c-.91.06-1.82.08-2.73.09s-1.82.06-2.73,0-1.82-.09-2.73-.07a17.21,17.21,0,0,0-2.72.27,15.64,15.64,0,0,1-2.72.21c-.91,0-1.82-.1-2.73-.08-1.82,0-3.63.34-5.45.57-.45,0-.91.07-1.36,0a11.79,11.79,0,0,1-1.37-.2,7.07,7.07,0,0,0-2.73,0c-1.81.43-3.65-.19-5.46,0-.91,0-1.81.25-2.72.33a19.82,19.82,0,0,1-2.73,0,26,26,0,0,0-5.46,0c-3.64.21-7.29-.33-10.92,0l-2.72.37-1.36.11-1.36,0c-1.82,0-3.64.09-5.46,0a54.13,54.13,0,0,1-5.46-.28,21.06,21.06,0,0,0-5.46-.06,98.06,98.06,0,0,1-10.91.48c-.91-.05-1.82-.17-2.73-.23a21.06,21.06,0,0,0-2.73,0,45.93,45.93,0,0,1-5.46.63c-.91,0-1.82-.42-2.73-.51a9.45,9.45,0,0,0-2.73.28,12.12,12.12,0,0,1-2.73.32c-.91,0-1.82-.07-2.73-.11-1.82-.11-3.64-.12-5.46-.12l-5.46-.08a5.86,5.86,0,0,1-1.37-.13,5.07,5.07,0,0,0-1.36-.17c-.91,0-1.82.24-2.73.22a20.88,20.88,0,0,1-2.73-.21c-.91-.1-1.82-.12-2.73-.14-3.64-.18-7.28,0-10.92-.09a46.06,46.06,0,0,0-5.46,0c-.91.08-1.82.19-2.73.19s-1.82,0-2.73,0l-5.46-.3c-.91,0-1.82-.08-2.73-.06s-1.82.15-2.73.2a13.11,13.11,0,0,1-2.73-.1c-.91-.08-1.82,0-2.73,0-1.82.1-3.64.08-5.46.12Z" style="fill:#a3b3ef"/><path d="M1119,498.49c1.68,0,3.35,0,5,.07a22.21,22.21,0,0,0,2.52,0,10.28,10.28,0,0,1,2.51-.13c.84,0,1.68.21,2.52.18s1.68-.08,2.51-.12l5-.44c.84,0,1.67-.13,2.51-.12s1.68.08,2.52.14a17.25,17.25,0,0,0,2.52,0c.84-.07,1.67-.22,2.51-.25,1.68-.08,3.35.05,5,.13s3.36.15,5,.11c.84,0,1.68,0,2.51-.13a16.38,16.38,0,0,1,2.51-.2c.84,0,1.68.27,2.52.27a4.47,4.47,0,0,0,1.26-.13,5.29,5.29,0,0,1,1.26-.1c1.68,0,3.35,0,5,0s3.35,0,5,0a29.75,29.75,0,0,1,5,.13,13,13,0,0,0,2.52.15c.84,0,1.67-.28,2.51-.27,1.68,0,3.36.22,5,.28a48.91,48.91,0,0,0,5-.15c1.67-.12,3.35-.06,5-.09s3.35,0,5,0a31.11,31.11,0,0,0,5-.22c1.67-.18,3.35-.31,5-.41s3.35-.18,5-.26c.84-.05,1.68-.05,2.52,0l2.52.17c3.36.11,6.7-.61,10.05-.54a24,24,0,0,0,5-.08,17.87,17.87,0,0,1,2.52,0c.84.05,1.68.24,2.52.27,1.68.14,3.35-.3,5,0a8.17,8.17,0,0,0,2.51,0,9.72,9.72,0,0,1,2.51-.19,48.72,48.72,0,0,0,5,.22c.84-.06,1.68-.12,2.51-.2a16.47,16.47,0,0,1,2.52,0,16,16,0,0,0,2.52,0c.84,0,1.67-.18,2.51-.26s1.67-.12,2.51-.17,1.68-.08,2.51-.08l0,2.4c-.84,0-1.68,0-2.51,0s-1.68,0-2.52,0-1.68-.13-2.52-.12a14.63,14.63,0,0,0-2.51.22,13.29,13.29,0,0,1-2.51.16c-.84-.05-1.68-.13-2.52-.13a47.5,47.5,0,0,0-5,.48,11.62,11.62,0,0,1-1.26,0,10.06,10.06,0,0,1-1.26-.22,6,6,0,0,0-2.52,0c-1.67.4-3.36-.24-5-.08-.84,0-1.67.24-2.51.3a16.83,16.83,0,0,1-2.52,0,22.08,22.08,0,0,0-5,0c-3.35.19-6.71-.38-10.06-.06l-2.51.36-1.26.1-1.26,0c-1.68,0-3.35.08-5,0a46,46,0,0,1-5-.29,17.9,17.9,0,0,0-5-.06,83.29,83.29,0,0,1-10.05.51c-.84,0-1.68-.15-2.52-.21a17.89,17.89,0,0,0-2.51,0,39.12,39.12,0,0,1-5,.67c-.84,0-1.68-.41-2.52-.49a8.05,8.05,0,0,0-2.51.31,10.32,10.32,0,0,1-2.51.35c-.84,0-1.68-.06-2.52-.08-1.68-.08-3.35-.07-5-.06h-5a5,5,0,0,1-1.26-.11,4.33,4.33,0,0,0-1.26-.15c-.84,0-1.67.27-2.51.26a17.76,17.76,0,0,1-2.52-.17c-.84-.09-1.68-.09-2.52-.1-3.36-.11-6.71.09-10.06.11a39.12,39.12,0,0,0-5,.14c-.84.1-1.67.23-2.51.25s-1.68,0-2.52,0l-5-.16c-.84,0-1.68,0-2.52,0s-1.67.2-2.51.27a11.13,11.13,0,0,1-2.52,0,23.79,23.79,0,0,0-2.51.09c-1.67.15-3.35.19-5,.28Z" style="fill:#a3b3ef"/><path d="M1397.06,171.69c-3.77,6.51-7.59,17.27-22.82,21.3-17,4.5-42,5.27-62.7,3.42s-42.25-4.43-63-2.62c-21.78,1.91-37.87,8.34-48.79,15.14s-18.22,14.28-30.65,20.77-31.9,12.08-54.37,12.18c-11,0-22.31-1.22-32.91-.16-8.55.86-17.54,3.17-25.34,1.68-6.67-1.27-7.29-4.45-7.09-7.08a411.48,411.48,0,0,0-.24-64.57" style="fill:#dee4f5;opacity:0.30000000000000004;mix-blend-mode:multiply"/><path d="M1857.36,632.29c-3.44,14.53-15,11.46-21.8,13.92-12.52,4.52-24.93,11-37.36,16.46-13.46,5.93-27.23,11.89-40.91,8.63-8.35-2-16.42-7.37-24.76-9.6-17.55-4.7-35.29,4.8-51.88,17.15-14.25,10.61-29.15,23.65-44.1,18.07-14.39-5.38-26.39-27.41-40.78-31.58q-.81-.23-1.63-.39c-7.89-1.51-16.06,2.76-23.65-1.75s-13.6-24.71-8-36" style="fill:#e8eaf2;stroke:#e8eaf2;stroke-miterlimit:10;stroke-width:3px;opacity:0.5"/><path d="M1855.56,633.84l-147.55.41-147.74.19h-1.45V633l.82-545.23v-.62h.62l294.44-.35h1v1l.16,136.52,0,68.28-.14,68.23-.16,136.47Zm-1.7-1.7-.25-136.21-.14-136.07.09-136-.05-136.09,1.2,1.2L1560.27,89l1.28-1.28.22,136.31,0,34.08-.08,34.08-.21,68.15c-.06,22.72-.23,45.44-.2,68.15l.06,34.08-.09,34.08-.15,68.15-.07,34.08.06,34.08-.87-.87,73.41-.19,73.38,0Z" style="fill:#e0e3ed"/><path d="M1838.93,618.37l-130.92.4-65.54.15-65.56,0h-1.45v-1.45l.82-514.28v-.62h.62l261.17-.34h1v1l.16,128.79,0,64.42-.14,64.36c-.09,42.91-.22,85.76-.17,128.73Zm-1.7-1.7L1837,488.2q-.12-64.21-.12-128.33l.1-64.11,0-64.17-.05-128.35,1.2,1.2-261.17.08,1.28-1.28.23,128.57,0,32.14-.1,32.14-.22,64.29-.13,32.14-.06,16.07,0,16.07c.12,21.43,0,42.86-.06,64.29l-.15,64.29-.05,32.14.09,32.14-.9-.9c21.72-.05,43.39-.21,65.09-.17l65.07,0Z" style="fill:#e0e3ed"/><path d="M1690.82,179.49c15.23,6.18,39.11,6.23,50.78-7.51,2.34-2.75,2.72-6.64,2.64-10.25-.4-17.61-7.39-35.49-26.64-36.76-7.16-.47-14.66.21-20.85,3.83-11.85,6.92-15.61,22.29-15.85,36,0,2.69,0,5.49,1.21,7.9C1683.78,176.08,1687.34,178.07,1690.82,179.49Z" style="fill:#e8eaf2;stroke:#e8eaf2;stroke-miterlimit:10;stroke-width:3px;opacity:0.5"/><path d="M1803.53,240.34c-3.17-10.06-13.75-17.8-21.63-24.83-4.13-3.68-9.82-5-15.28-5.86-22.7-3.61-46.73-1.54-69.66-1.54-12-.05-24.16-.08-35.63,3.4s-22.3,11-26.73,22.17c-5.33,13.35-.58,28.3,2.52,42.34a178.35,178.35,0,0,1,4.19,38.55c0,4.36,0,9.2,3,12.38a15.2,15.2,0,0,0,4.28,2.92c34.15,17.57,75.13,11.62,113,5,6.59-1.15,13.3-2.34,19.21-5.46,15.69-8.28,21.69-27.54,24.28-45.09C1807.2,269.71,1808,254.47,1803.53,240.34Z" style="fill:#e8eaf2;stroke:#e8eaf2;stroke-miterlimit:10;stroke-width:3px;opacity:0.5"/><path d="M1757.27,376.48c-2.41,5.9.21,12.94,4.83,17.34s10.85,6.64,17,8.35c2.61.73,5.35,1.39,8,.86,10.71-2.1,13.63-17,8.91-25.35-2.32-4.07-6.18-7-9.93-9.8a12.75,12.75,0,0,0-5.18-2.74c-2.19-.39-4.4.39-6.48,1.15C1768,368.64,1760.16,369.38,1757.27,376.48Z" style="fill:#e8eaf2;stroke:#e8eaf2;stroke-miterlimit:10;stroke-width:3px;opacity:0.5"/><path d="M1764.1,416.47c-4.65,1.14-9.12,3.77-11.56,7.89-3.51,5.95-2,13.9,2.09,19.43s10.43,9,16.83,11.63c3.81,1.54,8,2.84,12,1.84,12.75-3.2,16.59-21.78,10.09-31.63C1787.6,416.68,1774,414,1764.1,416.47Z" style="fill:#e8eaf2;stroke:#e8eaf2;stroke-miterlimit:10;stroke-width:3px;opacity:0.5"/><path d="M1770.47,501.35c4.5,5.71,12.93,6.26,20.13,5.22,3.43-.5,7-1.3,9.68-3.46,11.24-8.9,3.41-32.38-10.3-33.75-5-.5-9.95,1-14.6,2.89-2.56,1-5.17,2.21-6.93,4.33C1764.92,480.83,1767.22,497.24,1770.47,501.35Z" style="fill:#e8eaf2;stroke:#e8eaf2;stroke-miterlimit:10;stroke-width:3px;opacity:0.5"/><path d="M1659.62,504.69l1,.23c16,3.62,46.57,4.67,57.57-9,12.62-15.64,16.32-42.59,15.46-61.9-2-45.65-37-85.27-84.85-74.33-6.86,1.57-13.81,4.34-18.31,9.75-4.28,5.14-5.81,12-7.45,18.44-6.92,27.37-18,56.83-6.64,82.69C1624,488,1641.11,500.22,1659.62,504.69Z" style="fill:#e8eaf2;stroke:#e8eaf2;stroke-miterlimit:10;stroke-width:3px;opacity:0.5"/><path d="M1725.72,589.07a272.71,272.71,0,0,1,29.43-.21,81.3,81.3,0,0,0,54.26-17.2c4.47-3.53,8.93-8.59,7.86-14.18-.53-2.76-2.35-5.07-4.25-7.13a60.12,60.12,0,0,0-48.82-18.73c-10,.91-19.51,4.32-29.38,5.95a82.92,82.92,0,0,1-34.2-1.55c-11.43-3-22.44-8.42-34.25-8.55-22.14-.24-39.72,16.79-47,36.13-2.4,6.33-3.25,14.33,1.53,19.11,2.44,2.45,5.9,3.54,9.25,4.41C1662.22,595.55,1693.89,590.77,1725.72,589.07Z" style="fill:#e8eaf2;stroke:#e8eaf2;stroke-miterlimit:10;stroke-width:3px;opacity:0.5"/><path d="M959.78,260.91c-.9,6.67-1.4,13.66-3.79,20-5.35,14.2-20.08,23-34.94,26.13s-30.23,1.53-45.4,1.13a292.35,292.35,0,0,0-52.67,3.4c-14.72,2.3-29.43,5.73-44.32,5.22a84.16,84.16,0,0,1-20.77-3.35c-7.11-2.09-14.14-5.26-19.13-10.74-9.6-10.56-13.59-28.82-14.16-42.61" style="fill:#e8eaf2;stroke:#e8eaf2;stroke-miterlimit:10;stroke-width:3px;opacity:0.5"/><rect x="723.86" y="87.76" width="235.92" height="173.15" style="fill:#f4f6f8"/><path d="M960.63,261.76l-118.25.49-59.27,0c-19.76-.06-39.51,0-59.24-.19h-1.19v-1.17l.11-10.82,0-10.82,0-21.64,0-43.29.36-86.57v-.62h.62l235.92-.6H961v1.23l-.31,87Zm-1.7-1.7-.42-86.25c0-14.34-.1-28.69-.06-43l.17-43,1.16,1.16L723.86,89l1.28-1.28.26,86.57-.27,43.29L725,239.27l-.07,10.82.06,10.82-1.09-1.09c4.9-.05,9.8,0,14.7,0l14.7.08,29.42.15c19.64.16,39.21,0,58.75-.1l58.74,0Z" style="fill:#e0e3ed"/><rect x="738.32" y="100.32" width="207.01" height="148.04" style="fill:#f4f6f8"/><path d="M946.17,249.21l-103.8.49c-17.34,0-34.69.09-52,0l-26-.06c-8.67,0-17.33,0-26-.15l-1.17,0,0-1.14c.09-6.17.1-12.34.1-18.5l0-18.5,0-37,.36-74V99.7h.62l207-.6h1.23v1.23l-.31,74.4Zm-1.7-1.7-.41-73.69L944,137.07l.17-36.76,1.16,1.16-207,.12,1.28-1.28.27,74-.26,37-.16,18.5-.08,9.25c0,3.08,0,6.17,0,9.25l-1.08-1.08c8.59-.11,17.18,0,25.78.06l25.8.15c17.22.15,34.4,0,51.52-.08s34.34,0,51.51,0Z" style="fill:#e0e3ed"/><path d="M763.81,142.37a29.14,29.14,0,0,0,12.66-1.86c5.55-1.92,11.39-5.42,12.58-11.17.89-4.3-1.09-8.63-3.19-12.48a14.39,14.39,0,0,0-3.48-4.65c-4-3.1-11.26.17-15,2.33-8.17,4.77-21.56,24.18-5.24,27.56Q763,142.28,763.81,142.37Z" style="fill:#e8eaf2;stroke:#e8eaf2;stroke-miterlimit:10;stroke-width:3px;opacity:0.5"/><path d="M842.92,138c4.62-.14,8.58-4.14,9.24-8.65a5.94,5.94,0,0,0-.94-4.5c-1.54-2-4.45-2.2-6.92-1.78a19.68,19.68,0,0,0-6.16,2.15c-2.31,1.27-4.49,3.22-4.95,5.82C832.35,135.75,839.24,138.1,842.92,138Z" style="fill:#e8eaf2;stroke:#e8eaf2;stroke-miterlimit:10;stroke-width:3px;opacity:0.5"/><path d="M866.14,121.61a6.45,6.45,0,0,0-.12,3.57c.56,1.88,2.26,3.16,3.94,4.17,3.46,2.08,7.41,3.6,11.44,3.38s8.11-2.49,9.65-6.22c2.67-6.45-3.42-12.21-9.38-13.36S867.9,115.35,866.14,121.61Z" style="fill:#e8eaf2;stroke:#e8eaf2;stroke-miterlimit:10;stroke-width:3px;opacity:0.5"/><path d="M910.09,135.31a14.62,14.62,0,0,0,7.43,1.06,15.74,15.74,0,0,0,7.49-2c4.53-2.86,4.08-8.28-.21-11.15s-12.23-3.64-16.47.05C904.62,126.51,905.74,133.14,910.09,135.31Z" style="fill:#e8eaf2;stroke:#e8eaf2;stroke-miterlimit:10;stroke-width:3px;opacity:0.5"/><path d="M917.9,152.82c-9.79-6.09-22-7.13-33.45-5.59s-22.38,5.47-33.45,8.7-22.6,5.81-34.07,4.57c-7.8-.85-15.31-3.44-23-5s-16-2-23.11,1.37c-4.37,2-8,5.37-11.29,8.9-4.79,5.14-9.17,11.24-9.75,18.25C749,194,756,203,764.15,208.75a60.85,60.85,0,0,0,29.3,10.92c19.51,1.87,37.07-6.8,56.18-7.86,11.42-.63,22.56,3.1,33.7,5.67,19.55,4.52,41.64,1.72,49.51-19.81,2.21-6,2-12.77.44-19C930.88,168.71,926.89,158.41,917.9,152.82Z" style="fill:#e8eaf2;stroke:#e8eaf2;stroke-miterlimit:10;stroke-width:3px;opacity:0.5"/><path d="M819.35,231.36c.75,2.19,3.59,2.78,5.9,2.55,1.38-.14,4.88-.6,5.5-2,.81-1.84-1.77-5.13-3.08-6.09C823.4,222.69,817.38,225.63,819.35,231.36Z" style="fill:#e8eaf2;stroke:#e8eaf2;stroke-miterlimit:10;stroke-width:3px;opacity:0.5"/><path d="M850.35,224.43c-1.82-6.29-10.81-4.6-9.47,1.81C842.29,233,852.4,231.54,850.35,224.43Z" style="fill:#e8eaf2;stroke:#e8eaf2;stroke-miterlimit:10;stroke-width:3px;opacity:0.5"/><path d="M862.54,230.22a5.09,5.09,0,0,0,1.8,1.42c3.39,1.79,8.23-1,6.21-5.16-.76-1.57-2.43-2.46-4-3.23a1.24,1.24,0,0,0-1.74.2C862.94,225.08,860.6,227.54,862.54,230.22Z" style="fill:#e8eaf2;stroke:#e8eaf2;stroke-miterlimit:10;stroke-width:3px;opacity:0.5"/><path d="M959.78,473c-1.59,12.17-6.88,21.67-18.19,27.31-8.77,4.37-18.65,6.35-27.08,11.35-11.35,6.73-20.47,19-33.65,19.7-11.74.64-22.26-8.44-34-8.28-12.12.16-21.68,9.81-32.51,15.24-15.76,7.89-34.47,6.76-51.81,3.65-7.51-1.35-15.13-3.1-21.57-7.18-10.67-6.77-13.93-22.46-14.7-34.24-.59-9,.08-18.11,0-27.17" style="fill:#e8eaf2;stroke:#e8eaf2;stroke-miterlimit:10;stroke-width:3px;opacity:0.5"/><rect x="723.86" y="299.87" width="235.92" height="173.15" style="fill:#f4f6f8"/><path d="M960.63,473.86l-118.25.49-59.27,0c-19.76-.06-39.51,0-59.24-.19h-1.19V473l.11-10.82,0-10.82,0-21.64,0-43.29.36-86.57v-.62h.62l235.92-.6H961v1.23l-.31,87Zm-1.7-1.7-.42-86.25c0-14.34-.1-28.69-.06-43l.17-43,1.16,1.16-235.92.13,1.28-1.28.26,86.57-.27,43.29L725,451.37l-.07,10.82L725,473l-1.09-1.09c4.9-.05,9.8,0,14.7,0l14.7.08,29.42.15c19.64.16,39.21,0,58.75-.1l58.74,0Z" style="fill:#e0e3ed"/><rect x="738.32" y="312.42" width="207.01" height="148.04" style="fill:#f4f6f8"/><path d="M946.17,461.31l-103.8.49c-17.34,0-34.69.09-52,0l-26-.06c-8.67,0-17.33,0-26-.15l-1.17,0,0-1.14c.09-6.17.1-12.34.1-18.5l0-18.5,0-37,.36-74v-.62h.62l207-.6h1.23v1.23l-.31,74.4Zm-1.7-1.7-.41-73.69L944,349.18l.17-36.76,1.16,1.16-207,.12,1.28-1.28.27,74-.26,37-.16,18.5-.08,9.25c0,3.08,0,6.17,0,9.25l-1.08-1.08c8.59-.11,17.18,0,25.78.06l25.8.15c17.22.15,34.4,0,51.52-.08s34.34,0,51.51,0Z" style="fill:#e0e3ed"/><path d="M885.81,403.57a97.36,97.36,0,0,0,15.8-3.82c7.59-2.48,15-5.73,21.33-10.62s11.47-11.52,13.57-19.22c2.56-9.4.11-18.45-1.36-27.76-1.15-7.29-4.08-14.18-10.51-18.51-5-3.37-11.19-4.41-17.19-4.94A128.39,128.39,0,0,0,876,319.78c-16.93,2.69-33,7.61-50.12,8.49a91.77,91.77,0,0,1-24.28-1.92c-8-1.64-16.26-3.39-24.38-1.66-8.55,1.83-16,7.49-20.94,14.73s-7.41,15.92-8.11,24.64c-.89,11.05,15,17.11,23.68,18,9.8.95,19.64-1.1,29.48-.89a64.71,64.71,0,0,1,20.45,3.77c13.51,4.84,25.25,14.12,39.13,17.75A62.13,62.13,0,0,0,885.81,403.57Z" style="fill:#e8eaf2;stroke:#e8eaf2;stroke-miterlimit:10;stroke-width:3px;opacity:0.5"/><path d="M793.93,394.88c-10.14.67-20.18,5-26.86,12.68s-9.62,18.7-6.69,28.43a18.35,18.35,0,0,0,5.09,8.54c3.25,2.88,7.63,4.05,11.84,5.11,10.4,2.61,21.48,5.07,31.66,1.71,9.86-3.26,18.81-11.6,26.67-18.17,4.12-3.44,8.19-7.88,8.2-13.25,0-4.59-3-8.63-6.36-11.78C826,397.4,809.21,393.87,793.93,394.88Z" style="fill:#e8eaf2;stroke:#e8eaf2;stroke-miterlimit:10;stroke-width:3px;opacity:0.5"/><path d="M787.67,418.87a47.18,47.18,0,0,0,31.84-4.49c1.84-1,3.88-2.77,3.2-4.74-.77-2.23-4-2-6.2-1.1-3.43,1.42-7.14,4.8-5.65,8.2a6.94,6.94,0,0,0,3.65,3.12,28.42,28.42,0,0,0,19.61,1.64c4.65-1.31,8.88-3.78,13.21-5.93s9-4,13.81-4,9.91,2.43,11.93,6.83a5.88,5.88,0,0,1,.35,4.63,3.28,3.28,0,0,1-3.85,2c-2-.68-2.32-3.55-1.13-5.25s3.29-2.46,5.3-3c14.36-3.79,29.6-.56,44.38-2a6.46,6.46,0,0,0,4-1.39" style="fill:none;stroke:#e0e3ed;stroke-miterlimit:10"/><path d="M797.06,430.94,887.17,429" style="fill:none;stroke:#e0e3ed;stroke-miterlimit:10"/><path d="M798.81,438.67q48-1.81,96-2.34" style="fill:none;stroke:#e0e3ed;stroke-miterlimit:10"/><path d="M768.48,341.54c-1.43,2.68-2.17,5.93-1.1,8.77,1.52,4,6.16,6,10.45,6.48,6.59.71,16.1-1.29,16.83-9.36a15,15,0,0,0-.88-5.85,14.72,14.72,0,0,0-3.2-5.91C783.48,328.4,772.55,333.91,768.48,341.54Z" style="fill:#f4f6f8"/><path d="M861.29,337.28a4.73,4.73,0,0,0,2.13.77,10.28,10.28,0,0,0,4.61.15c3.23-.9,4.64-5.66,1.78-7.78a6.29,6.29,0,0,0-4.87-.89C862,330.08,857.79,334.5,861.29,337.28Z" style="fill:#f4f6f8"/><path d="M882.27,338.5a7.27,7.27,0,0,0,.75,3.66c1.13,2.06,3.54,3.08,5.86,3.43,4.36.67,9.36-.87,11.47-4.74,2.21-4.05.53-8.35-2.33-11.49a7.75,7.75,0,0,0-3.54-2.63,7.61,7.61,0,0,0-4.43.67C885,329.26,882.39,333,882.27,338.5Z" style="fill:#f4f6f8"/><path d="M910.6,346.9a9.24,9.24,0,0,0,.75,3.35,7.48,7.48,0,0,0,5.92,4.07,10.05,10.05,0,0,0,7-2.08c3.59-2.68,3.52-8.5,1-11.91a8.19,8.19,0,0,0-6.09-3.33C913.45,336.79,910.3,341.77,910.6,346.9Z" style="fill:#f4f6f8"/><path d="M959,682.59c-1.71,7.62-5.33,13.46-13.41,15.19-5.21,1.11-10.68.73-15.82,2.14-10.54,2.89-17.61,12.55-26.78,18.49a42.34,42.34,0,0,1-38.92,3.36c-5.58-2.38-10.73-5.68-16.25-8.2-4-1.84-7.55-4.48-12.11-4.5-12.72,0-24.71,8.31-36.22,12.68a83.7,83.7,0,0,1-38.05,5,44.2,44.2,0,0,1-15.09-3.87c-7.06-3.47-12.55-9.68-16-16.74a58,58,0,0,1-5.3-22.81" style="fill:#e8eaf2;stroke:#e8eaf2;stroke-miterlimit:10;stroke-width:3px;opacity:0.5"/><rect x="723.86" y="509.55" width="235.92" height="173.15" style="fill:#f4f6f8"/><path d="M960.63,683.54,842.37,684l-59.27,0c-19.76-.06-39.51,0-59.24-.19h-1.19V682.7l.11-10.82,0-10.82,0-21.64,0-43.29.36-86.57v-.62h.62l235.92-.6H961v1.23l-.31,87Zm-1.7-1.7-.42-86.25c0-14.34-.1-28.69-.06-43l.17-43,1.16,1.16-235.92.13,1.28-1.28.26,86.57-.27,43.29L725,661.05l-.07,10.82L725,682.7l-1.09-1.09c4.9-.05,9.8,0,14.7,0l14.7.08,29.42.15c19.64.16,39.21,0,58.75-.1l58.74,0Z" style="fill:#e0e3ed"/><rect x="738.32" y="522.1" width="207.01" height="148.04" style="fill:#f4f6f8"/><path d="M946.17,671l-103.8.49c-17.34,0-34.69.09-52,0l-26-.06c-8.67,0-17.33,0-26-.15l-1.17,0,0-1.14c.09-6.17.1-12.34.1-18.5l0-18.5,0-37,.36-74v-.62h.62l207-.6h1.23v1.23l-.31,74.4Zm-1.7-1.7-.41-73.69L944,558.86l.17-36.76,1.16,1.16-207,.12,1.28-1.28.27,74-.26,37-.16,18.5-.08,9.25c0,3.08,0,6.17,0,9.25l-1.08-1.08c8.59-.11,17.18,0,25.78.06l25.8.15c17.22.15,34.4,0,51.52-.08s34.34,0,51.51,0Z" style="fill:#e0e3ed"/><path d="M767.56,531.8a13,13,0,0,0-10.87,5.94,18.23,18.23,0,0,0-2.43,7.32c-.76,5.52.32,11.84,4.78,15.18s10.72,2.64,15.68.27a19.69,19.69,0,0,0,7.66-6.13c3.19-4.48,1.84-11.1-1.44-15.18C778,535.57,772.39,531.83,767.56,531.8Z" style="fill:#e8eaf2;stroke:#e8eaf2;stroke-miterlimit:10;stroke-width:3px;opacity:0.5"/><path d="M763.2,578.6a15,15,0,0,0-6.9,2,8.23,8.23,0,0,0-4,5.77c-.39,3.2,1.69,6.35,4.49,8a17.12,17.12,0,0,0,9.38,1.8c5.76-.26,20.48-4.11,14.35-12.92-1.45-2.08-4.18-2.72-6.66-3.2A54.19,54.19,0,0,0,763.2,578.6Z" style="fill:#e8eaf2;stroke:#e8eaf2;stroke-miterlimit:10;stroke-width:3px;opacity:0.5"/><path d="M758.05,605.87c-2.19,1.85-3.94,4.95-2.65,7.51.87,1.73,2.84,2.61,4.73,3a23.69,23.69,0,0,0,9.56.05c4.83-.87,7.93-1.25,9.31-6.66.45-1.76.6-3.91-.75-5.12C773.25,600.25,762.66,602,758.05,605.87Z" style="fill:#e8eaf2;stroke:#e8eaf2;stroke-miterlimit:10;stroke-width:3px;opacity:0.5"/><path d="M755.79,634.59a5.39,5.39,0,0,0,.31,3.62c.89,1.63,2.94,2.24,4.79,2.37,6.32.44,15.26-4,14.91-11.52-.11-2.4-2.66-4.12-5.07-4.12C763.92,624.94,757.37,626.62,755.79,634.59Z" style="fill:#e8eaf2;stroke:#e8eaf2;stroke-miterlimit:10;stroke-width:3px;opacity:0.5"/><path d="M835.59,654.71c11.95,1.25,23.07-8.65,28.15-18.81,2.56-5.12,3.91-10.75,5.24-16.32,1.84-7.7,3.68-15.47,4-23.38.5-11.5-2.22-22.83-6-33.63-3.21-9.27-6.1-19.58-16.26-23.33a31.79,31.79,0,0,0-32.5,7c-5.14,5-8.36,11.68-11.26,18.26-4.42,10-8.37,20.38-9.77,31.24s-.1,22.35,5.45,31.79c4.47,7.6,11.35,13.43,18.11,19.1C825.17,650.29,829.91,654.12,835.59,654.71Z" style="fill:#e8eaf2;stroke:#e8eaf2;stroke-miterlimit:10;stroke-width:3px;opacity:0.5"/><path d="M887.2,577.19a21.06,21.06,0,0,0,1,8.33c1,2.65,3.06,4.82,4.26,7.4S894,598.6,896,600.7c2.32,2.49,6.12,2.88,9.51,2.56A25,25,0,0,0,920.42,597c4.31-4.09,6.58-9.87,8.21-15.59,1.87-6.59,3.06-13.51,2.18-20.31-.91-7-6.06-19.31-13.37-21.84-3.66-1.26-7.73-.76-11.37.55C890,545.57,887.62,562.24,887.2,577.19Z" style="fill:#e8eaf2;stroke:#e8eaf2;stroke-miterlimit:10;stroke-width:3px;opacity:0.5"/><path d="M887.18,635.65a31.22,31.22,0,0,0,2.12,12.89,17.63,17.63,0,0,0,8.78,9.39c4.69,2.06,10.19,1.44,15-.38,5-1.89,9.58-5.2,12-9.93,5.59-10.89-1.43-21.75-8.36-29.93a14.62,14.62,0,0,0-3.82-3.47,15.5,15.5,0,0,0-6.28-1.52C893.06,611.48,887.43,623.79,887.18,635.65Z" style="fill:#e8eaf2;stroke:#e8eaf2;stroke-miterlimit:10;stroke-width:3px;opacity:0.5"/><path d="M1406.23,112.35l-17.48.28c-5.84.1-11.71.19-17.61.21s-11.82,0-17.72-.08c-2.94.05-5.92-.25-8.84-.21l-8.8,0h0a1,1,0,0,1-1-1h0l0-7,.14-7c.12-4.65.16-9.3.22-14h0a.62.62,0,0,1,.62-.61c5.8,0,11.6-.1,17.4-.15l17.4-.19,17.4-.22c5.8-.14,11.6,0,17.4.13h0a1,1,0,0,1,1,1l-.08,7.16v7.2C1406.35,102.75,1406.3,107.56,1406.23,112.35Zm-1.7-1.7L1404.17,97c-.11-4.5-.18-9-.17-13.45l1.38,1.38c-5.8,0-11.6-.3-17.4-.21l-17.4,0-34.8.09,1.28-1.28c.07,4.65.17,9.3.2,14,0,2.33.07,4.65.05,7s-.07,4.65-.16,7l-1.38-1.38,8.6.29c2.89.19,5.71-.15,8.6,0l8.65.2c2.88,0,5.79.16,8.64.1s5.66-.16,8.5-.19l8.58,0Z" style="fill:#fff"/><path d="M1281.71,53l24.64-.29c8.22-.12,16.5-.18,24.79-.2l12.45.05,6.22,0,3.11,0,3.12.1c2.08.08,4.15.09,6.21.09l6.19,0,12.38,0a1,1,0,0,1,1,1c0,2.33-.07,4.65-.09,7l-.12,7-.15,14h0a.62.62,0,0,1-.62.62c-8.19,0-16.38.11-24.57.16l-24.57.21-24.57.23c-4.09,0-8.19,0-12.28-.12l-12.28-.12a1,1,0,0,1-1-1C1281.49,72.19,1281.55,62.51,1281.71,53Zm1.7,1.7c.25,9.16.48,18.09.53,27.07l-1.38-1.38c4.09,0,8.19,0,12.28,0l12.28.18,24.57,0,49.13-.09-1.28,1.28-.17-14-.06-7c0-2.33-.08-4.65,0-7l1.52,1.52-12.17-.25-6.1-.16-3.06-.08c-1,0-2,0-3,0l-3,.05-3.06-.06-6.12-.11L1332,54.56c-4.06,0-8.09.09-12.1.16s-8.1,0-12.15,0Z" style="fill:#fff"/><path d="M1383.19,53l24.64-.29c8.22-.12,16.5-.18,24.79-.2l12.45.05,6.22,0,3.11,0,3.12.1c2.08.08,4.15.09,6.21.09l6.19,0,12.38,0a1,1,0,0,1,1,1c0,2.33-.07,4.65-.09,7l-.12,7-.15,14h0a.62.62,0,0,1-.62.62c-8.19,0-16.38.11-24.57.16l-24.57.21-24.57.23c-4.09,0-8.19,0-12.28-.12L1384,82.7a1,1,0,0,1-1-1C1383,72.19,1383,62.51,1383.19,53Zm1.7,1.7c.25,9.16.48,18.09.53,27.07L1384,80.35c4.09,0,8.19,0,12.28,0l12.28.18,24.57,0,49.13-.09L1481,81.72l-.17-14-.06-7c0-2.33-.08-4.65,0-7l1.52,1.52-12.17-.25-6.1-.16-3.06-.08c-1,0-2,0-3,0l-3,.05-3.06-.06-6.12-.11-12.25-.19c-4.06,0-8.08.09-12.1.16s-8.1,0-12.15,0Z" style="fill:#fff"/><path d="M1330.84,23.18l24.64-.29c8.22-.12,16.5-.18,24.79-.2l12.45.05,6.22,0,3.11,0,3.12.1c2.08.08,4.15.09,6.21.09l6.19,0L1430,23a1,1,0,0,1,1,1c0,2.33-.07,4.65-.09,7l-.12,7-.15,14h0a.62.62,0,0,1-.62.62c-8.19,0-16.38.11-24.57.16l-24.57.21-24.57.23c-4.09,0-8.19,0-12.28-.12l-12.28-.12a1,1,0,0,1-1-1C1330.62,42.41,1330.68,32.74,1330.84,23.18Zm1.7,1.7c.25,9.16.48,18.09.53,27.07l-1.38-1.38c4.09,0,8.19,0,12.28,0l12.28.18,24.57,0,49.13-.09-1.28,1.28-.17-14-.06-7c0-2.33-.08-4.65,0-7l1.52,1.52-12.17-.25-6.1-.16-3.06-.08c-1,0-2,0-3,0l-3,.05-3.06-.06-6.12-.11-12.25-.19c-4.06,0-8.09.09-12.1.16s-8.1,0-12.15,0Z" style="fill:#fff"/><path d="M1125.09,783.57l-23.62.29c-7.88.12-15.82.17-23.76.2s-15.91,0-23.88-.18c-4-.18-7.93-.08-11.9-.12l-11.87,0h0a1,1,0,0,1-1-1c0-4.65.14-9.3.21-14l.16-14h0a.62.62,0,0,1,.62-.62c7.85,0,15.7-.11,23.54-.16l23.54-.21,23.54-.23c7.85,0,15.7.22,23.54.24a1,1,0,0,1,1,1l0,14.37C1125.22,774,1125.17,778.79,1125.09,783.57Zm-1.7-1.7c-.25-9.16-.49-18.09-.53-27.07l1.38,1.38c-3.92,0-7.85.05-11.77,0L1100.7,756l-23.54,0-47.09.09,1.28-1.28.18,14c0,4.65.13,9.3.06,14l-1.52-1.52c3.88,0,7.76.18,11.66.27l5.85.16c2,.07,3.91.1,5.83,0s3.88,0,5.84,0l5.86.11,11.74.18c3.9,0,7.73-.12,11.58-.17s7.76,0,11.64,0Z" style="fill:#fff"/><path d="M1073.54,724.18l24.64-.29c8.22-.12,16.5-.18,24.79-.2l12.45.05,6.22,0,3.11,0,3.12.1c2.08.08,4.15.09,6.21.09l6.19,0,12.38,0a1,1,0,0,1,1,1c0,2.33-.07,4.65-.09,7l-.12,7-.15,14h0a.62.62,0,0,1-.62.62c-8.19,0-16.38.11-24.57.16l-24.57.21-24.57.23c-4.09,0-8.19,0-12.28-.12l-12.28-.12a1,1,0,0,1-1-1C1073.32,743.41,1073.38,733.74,1073.54,724.18Zm1.7,1.7c.25,9.16.48,18.09.53,27.07l-1.38-1.38c4.09,0,8.19,0,12.28,0l12.28.18,24.57,0,49.13-.09-1.28,1.28-.17-14-.06-7c0-2.33-.08-4.65,0-7l1.52,1.52-12.17-.25-6.1-.16-3.06-.08c-1,0-2,0-3,0l-3,.05-3.06-.06-6.12-.11-12.25-.19c-4.06,0-8.09.09-12.1.16s-8.1,0-12.15,0Z" style="fill:#fff"/><path d="M1025.13,694.41l24.64-.29c8.22-.12,16.5-.18,24.79-.2L1087,694l6.22,0,3.11,0,3.12.1c2.08.08,4.15.09,6.21.09l6.19,0,12.38,0a1,1,0,0,1,1,1c0,2.33-.07,4.65-.09,7l-.12,7-.15,14h0a.62.62,0,0,1-.62.62c-8.19,0-16.38.11-24.57.16l-24.57.21-24.57.23c-4.09,0-8.19,0-12.28-.12l-12.28-.12a1,1,0,0,1-1-1C1024.92,713.64,1025,704,1025.13,694.41Zm1.7,1.7c.25,9.16.48,18.09.53,27.07l-1.38-1.38c4.09,0,8.19,0,12.28,0l12.28.18,24.57,0,49.13-.09-1.28,1.28-.17-14-.06-7c0-2.33-.08-4.65,0-7l1.52,1.52-12.17-.25-6.1-.16-3.06-.08c-1,0-2,0-3,0l-3,.05-3.06-.06-6.12-.11-12.25-.19c-4.06,0-8.09.09-12.1.16s-8.1,0-12.15,0Z" style="fill:#fff"/><path d="M556,170.21l23.62-.29c7.88-.12,15.82-.17,23.76-.2s15.91,0,23.88.18c4,.18,7.93.08,11.9.13l11.87,0h0a1,1,0,0,1,1,1c0,4.65-.14,9.3-.21,14l-.16,14h0a.62.62,0,0,1-.62.62c-7.85,0-15.69.11-23.54.16l-23.54.21-23.54.23c-7.85,0-15.69-.22-23.54-.24a1,1,0,0,1-1-1l0-14.37C555.85,179.79,555.91,175,556,170.21Zm1.7,1.7c.25,9.16.49,18.09.53,27.07l-1.38-1.38c3.92,0,7.85-.05,11.77,0l11.77.17,23.54,0,47.08-.09L649.72,199l-.18-14c0-4.65-.13-9.3-.06-14l1.52,1.52c-3.88,0-7.76-.18-11.66-.27l-5.85-.16c-2-.07-3.91-.1-5.83,0s-3.88,0-5.84,0L616,172l-11.74-.18c-3.9,0-7.73.12-11.58.17s-7.76,0-11.64,0Z" style="fill:#fff"/><path d="M607.53,229.6l-24.64.29c-8.22.12-16.5.18-24.79.2L545.65,230l-6.22,0-3.11,0-3.12-.1c-2.08-.08-4.15-.09-6.21-.09l-6.19,0-12.38,0a1,1,0,0,1-1-1c0-2.33.07-4.65.09-7l.12-7,.15-14h0a.62.62,0,0,1,.62-.62c8.19,0,16.38-.11,24.57-.16l24.57-.21,24.57-.23c4.09,0,8.19,0,12.28.12l12.28.12a1,1,0,0,1,1,1C607.75,210.37,607.69,220,607.53,229.6Zm-1.7-1.7c-.25-9.16-.48-18.09-.53-27.07l1.38,1.38c-4.09,0-8.19,0-12.28,0L582.12,202l-24.57,0-49.13.09,1.28-1.28.17,14,.06,7c0,2.33.08,4.65,0,7l-1.52-1.52,12.17.25,6.1.16,3.06.08c1,0,2,0,3,0l3-.05,3.06.06,6.12.11,12.25.19c4.06,0,8.09-.09,12.1-.16s8.1,0,12.15,0Z" style="fill:#fff"/><path d="M655.94,259.37l-24.64.29c-8.22.12-16.5.18-24.79.2l-12.45-.05-6.22,0-3.11,0-3.12-.1c-2.08-.08-4.15-.09-6.21-.09l-6.19,0-12.38,0a1,1,0,0,1-1-1c0-2.33.07-4.65.09-7l.12-7,.15-14h0a.62.62,0,0,1,.62-.62c8.19,0,16.38-.11,24.57-.16l24.57-.21,24.57-.23c4.09,0,8.19,0,12.28.12l12.28.12a1,1,0,0,1,1,1C656.16,240.14,656.1,249.82,655.94,259.37Zm-1.7-1.7c-.25-9.16-.48-18.09-.53-27.07l1.38,1.38c-4.09,0-8.19,0-12.28,0l-12.28-.18-24.57,0-49.13.09,1.28-1.28.17,14,.06,7c0,2.33.08,4.65,0,7L556.83,257l12.17.25,6.1.16,3.06.08c1,0,2,0,3,0l3-.05,3.06.06,6.12.11,12.25.19c4.06,0,8.09-.09,12.1-.16s8.1,0,12.15,0Z" style="fill:#fff"/><rect x="1032.99" y="582.72" width="76.65" height="50.33" style="fill:#fff"/><path d="M1043.4,592.64c1.21,0,2.41-.08,3.62-.08.3,0,.6,0,.91,0s.6-.06.9-.09l1.81-.21c2.41-.13,4.83,0,7.24,0,1.21,0,2.41.06,3.61.12s2.41.12,3.61.21,2.41,0,3.61.09a35.42,35.42,0,0,0,3.61.08c1.2,0,2.41.08,3.61.09s2.41-.22,3.61-.16l3.61-.06,3.61-.09c1.2,0,2.4.15,3.61.1s2.4-.11,3.6-.06a51.21,51.21,0,0,0,7.2-.25l.06,1.57-3.62.16-1.81.07-1.81.18c-2.41,0-4.83-.12-7.24-.12a51.92,51.92,0,0,0-7.23,0,7.43,7.43,0,0,1-1.81-.1,5.75,5.75,0,0,0-1.81-.09c-1.21.07-2.41.25-3.61.22a21.83,21.83,0,0,0-3.61-.13c-.6,0-1.2,0-1.8,0a12.7,12.7,0,0,0-1.8,0,12.11,12.11,0,0,1-3.61-.09,12.92,12.92,0,0,0-1.8-.06l-1.8-.18a58.3,58.3,0,0,0-7.21.19,64.86,64.86,0,0,0-7.2.26Z" style="fill:#dee4f5"/><path d="M1043.69,600.44c1.09,0,2.18,0,3.26,0a14.66,14.66,0,0,0,3.26-.23c2.18-.11,4.35.07,6.53.09,1.09,0,2.17.06,3.26.12s2.17.11,3.26.2,2.17,0,3.26.07a28.84,28.84,0,0,0,3.26.07c1.09,0,2.17.07,3.26.07s2.17-.23,3.26-.17l6.52-.16c1.09,0,2.17.16,3.26.11s2.17-.08,3.26,0a42.27,42.27,0,0,0,6.51-.14l0,1.57-3.26.1-1.63,0-1.63.16c-1.09,0-2.18,0-3.26-.07s-2.18,0-3.26-.08a39.1,39.1,0,0,0-6.52,0,6.06,6.06,0,0,1-1.63-.09A4.63,4.63,0,0,0,1073,602c-1.09.08-2.18.26-3.26.24a17.81,17.81,0,0,0-3.26-.11c-.54,0-1.09,0-1.63,0a10.36,10.36,0,0,0-1.63,0,9.88,9.88,0,0,1-3.26-.09,9.22,9.22,0,0,0-1.63-.06l-1.63-.18a48.66,48.66,0,0,0-6.51.15,57.4,57.4,0,0,0-6.51.16Z" style="fill:#dee4f5"/><path d="M1043.94,608.12c1.13,0,2.27-.1,3.4-.1a16,16,0,0,0,3.4-.3c2.27-.15,4.54,0,6.81,0,1.13,0,2.27,0,3.4.09s2.27.1,3.4.18,2.27,0,3.4.06a31.37,31.37,0,0,0,3.4.06c1.13,0,2.26.08,3.4.08s2.27-.21,3.4-.15l6.8-.08c1.13,0,2.26.2,3.39.17s2.26,0,3.4,0c.56.06,1.13.11,1.7.14s1.13,0,1.7,0l3.4-.1,0,1.57h-5.1l-1.7.12c-1.13,0-2.26-.07-3.4-.14s-2.26-.08-3.39-.14a40.88,40.88,0,0,0-6.79-.06,6.56,6.56,0,0,1-1.7-.1,5,5,0,0,0-1.7-.1c-1.13.07-2.27.26-3.4.23a19.28,19.28,0,0,0-3.39-.11c-.57,0-1.13,0-1.7,0a11.22,11.22,0,0,0-1.7,0,10.73,10.73,0,0,1-3.39-.06,9.86,9.86,0,0,0-1.7,0l-1.7-.16a50.3,50.3,0,0,0-6.78.26,58.49,58.49,0,0,0-6.77.31Z" style="fill:#dee4f5"/><path d="M1077.6,618.68a10.77,10.77,0,0,1,1.18,0c.4.17.78-.16,1.17-.25a16.23,16.23,0,0,1,2.37,0,9.09,9.09,0,0,1,1.19.06,11.17,11.17,0,0,1,1.19.13c.4,0,.79,0,1.19,0l.61.06a4.89,4.89,0,0,1,.7,0,9.57,9.57,0,0,0,1.09.21c.38.11.79-.2,1.18-.14.78,0,1.57-.06,2.36-.11a7,7,0,0,0,1.18.15,6.54,6.54,0,0,1,1.18,0,2.59,2.59,0,0,0,1.18.1l1.18-.12,0,1.57c-.4,0-.79,0-1.19,0a3.56,3.56,0,0,0-1.19.16,4.55,4.55,0,0,1-1.19-.11c-.4-.08-.79-.06-1.19-.11a5.4,5.4,0,0,0-2.39,0c-.2,0-.41.05-.6-.11a.71.71,0,0,0-.6-.12,3.11,3.11,0,0,1-1.35.08.39.39,0,0,0-.35-.14c-.18,0-.37,0-.56.05a5.32,5.32,0,0,1-.58,0,1.19,1.19,0,0,0-.59,0,1.33,1.33,0,0,1-1.19,0,1.46,1.46,0,0,0-.59,0,4.15,4.15,0,0,1-.6-.15,6.89,6.89,0,0,0-2.36.25c-.39,0-.8-.2-1.19,0a10.66,10.66,0,0,1-1.18.17Z" style="fill:#dee4f5"/><rect x="1561.29" y="649.26" width="79.81" height="52.24" style="fill:#e8eaf2"/><path d="M1571.62,661l3.58-.11a17.32,17.32,0,0,0,3.57-.29c2.38-.25,4.78-.13,7.16-.2s4.78,0,7.17,0c1.2.07,2.39,0,3.58-.06s2.39,0,3.58,0c2.38-.25,4.78,0,7.16-.39,2.38-.22,4.77-.3,7.15-.48.6,0,1.19-.08,1.79-.1h1.79c1.2,0,2.39-.08,3.58-.13a32.12,32.12,0,0,1,3.58,0c1.19,0,2.39-.12,3.58-.21l1.84-.14-1.34,1.35-1.62,1.63-1.08-1.15,1.66-1.6.59,1.42c-1.19.06-2.39.09-3.58.19-.6.06-1.19.16-1.79.2s-1.19,0-1.79,0c-1.19,0-2.39,0-3.58,0l-1.79,0-1.79-.05c-2.39,0-4.77.41-7.16.42-2.41-.44-4.76.62-7.16.29-1.2,0-2.39.14-3.58.14a19.7,19.7,0,0,0-3.58.18,25.49,25.49,0,0,1-3.59-.09,28.05,28.05,0,0,1-3.59-.09c-2.39,0-4.77.36-7.15.44a20.79,20.79,0,0,0-3.58.12l-3.58.24Z" style="fill:#f4f6f8"/><path d="M1572.85,669.67c1.06,0,2.11-.05,3.17,0a13.83,13.83,0,0,0,3.17-.26c2.11-.14,4.23,0,6.35,0,1.06,0,2.12,0,3.18,0s2.12.06,3.18.12,2.11-.05,3.17,0a27.34,27.34,0,0,0,3.17,0c1.06,0,2.12,0,3.17,0s2.11-.29,3.17-.26l6.34-.31c1.06,0,2.12.12,3.18.05s2.11-.11,3.17-.09c.53,0,1.06.07,1.59.08s1.06,0,1.59-.06l3.17-.2,0,1.57-3.17.11-1.59.06-1.58.17c-1.06.05-2.12,0-3.17,0s-2.12,0-3.17,0a36.1,36.1,0,0,0-6.35.17,5.74,5.74,0,0,1-1.59,0,4.38,4.38,0,0,0-1.59,0c-1.06.11-2.11.32-3.17.33a16.88,16.88,0,0,0-3.17,0c-.53,0-1.06,0-1.59,0a9.83,9.83,0,0,0-1.59,0,9.38,9.38,0,0,1-3.17,0,8.77,8.77,0,0,0-1.59,0l-1.59-.14a48.89,48.89,0,0,0-6.34.26,60.14,60.14,0,0,0-6.34.2Z" style="fill:#f4f6f8"/><path d="M1574,678.24c1.08,0,2.17-.1,3.25-.11a14.53,14.53,0,0,0,3.24-.33c2.16-.18,4.34-.07,6.5-.13,1.08,0,2.17,0,3.25,0s2.17,0,3.26.1,2.17-.06,3.25,0a28.72,28.72,0,0,0,3.25,0c1.08,0,2.17,0,3.25,0s2.16-.27,3.25-.24l6.5-.23c1.08,0,2.17.16,3.25.11s2.17-.07,3.25,0c.54.05,1.08.1,1.63.12s1.08,0,1.63,0l3.25-.11,0,1.57h-3.25l-1.62,0-1.62.13c-1.08,0-2.16,0-3.25-.09s-2.16,0-3.25-.08a36.54,36.54,0,0,0-6.49.09,6,6,0,0,1-1.62-.06,4.58,4.58,0,0,0-1.62-.05c-1.08.1-2.16.31-3.24.31a17.66,17.66,0,0,0-3.25,0c-.54,0-1.08,0-1.62,0a10.29,10.29,0,0,0-1.62,0,9.82,9.82,0,0,1-3.25,0,9.17,9.17,0,0,0-1.62,0l-1.63-.13a48.91,48.91,0,0,0-6.49.37,59.55,59.55,0,0,0-6.48.35Z" style="fill:#f4f6f8"/><path d="M1611,688.44a10.08,10.08,0,0,1,1.14-.21c.41.11.73-.27,1.1-.4a12.12,12.12,0,0,1,2.31-.24,8.45,8.45,0,0,1,1.16,0,10.48,10.48,0,0,1,1.16.08c.39,0,.77-.06,1.15,0a3.64,3.64,0,0,0,1.15,0c.38,0,.77,0,1.15,0s.77-.25,1.15-.2c.77-.05,1.54-.07,2.32-.09a6.75,6.75,0,0,0,1.14.21,5.81,5.81,0,0,1,1.15.08,2.48,2.48,0,0,0,1.13.23l1.16,0-.26,1.55a7.58,7.58,0,0,0-2.24-.09,4.21,4.21,0,0,1-1.1-.2c-.36-.1-.74-.11-1.11-.17-.18,0-.37-.11-.55-.16a2,2,0,0,0-.56,0c-.37,0-.75.12-1.12.13-.19,0-.37.07-.56-.08a.59.59,0,0,0-.56-.08,4.4,4.4,0,0,1-1.11.29c-1.5-.15-3,.15-4.5-.09-.78-.15-1.47.31-2.2.47-.37.07-.78-.1-1.11.17a9.66,9.66,0,0,1-1.07.34Z" style="fill:#f4f6f8"/><rect x="740.52" y="658.25" width="69.97" height="45.81" style="fill:#e8eaf2"/><path d="M749.57,668.44c1,0,2.09-.08,3.14-.09a12.56,12.56,0,0,0,3.13-.28c2.09-.23,4.19-.11,6.28-.17s4.19,0,6.29,0c1.05.07,2.1,0,3.14,0s2.1,0,3.14,0c2.09-.24,4.19.06,6.27-.35,2.09-.21,4.18-.27,6.27-.44.52,0,1-.07,1.57-.1l1.57,0c1,0,2.09-.07,3.14-.11.52,0,1-.08,1.57-.07l1.57.06c1,0,2.09-.11,3.14-.19l1.84-.15-1.33,1.36-1.41,1.44-1.08-1.15,1.45-1.4.59,1.42c-1,.06-2.09.08-3.14.18-.52.06-1,.15-1.56.19s-1,0-1.57,0c-1,0-2.1,0-3.14,0l-1.57,0-1.57-.06c-2.1,0-4.18.4-6.27.38-2.11-.45-4.17.59-6.28.26-1,0-2.09.13-3.14.13a15.16,15.16,0,0,0-3.14.17,19.05,19.05,0,0,1-3.15-.11,20.91,20.91,0,0,1-3.15-.11c-2.1-.08-4.18.36-6.27.41a16,16,0,0,0-3.14.1c-1,.09-2.09.15-3.14.22Z" style="fill:#f4f6f8"/><path d="M750.65,676.05c.93,0,1.85,0,2.78,0a11,11,0,0,0,2.78-.25c1.85-.14,3.71,0,5.57,0,.93,0,1.86,0,2.78.06s1.86.06,2.79.13,1.85,0,2.78,0a21,21,0,0,0,2.78,0c.93,0,1.86,0,2.78,0s1.85-.28,2.78-.25l5.56-.3c.93,0,1.86.12,2.78.06s1.85-.11,2.78-.08a14.08,14.08,0,0,0,2.78,0l2.78-.19,0,1.57-2.78.1-1.39.06-1.39.17c-.93,0-1.85,0-2.78,0s-1.86,0-2.78,0a27.78,27.78,0,0,0-5.56.15,4.32,4.32,0,0,1-1.39-.05,3.38,3.38,0,0,0-1.39,0,25.51,25.51,0,0,1-2.78.32c-3.71-.11-7.42.14-11.14-.22a37.59,37.59,0,0,0-5.56.25,13.19,13.19,0,0,0-2.78,0c-.93.09-1.85.14-2.78.17Z" style="fill:#f4f6f8"/><path d="M751.69,683.56c1,0,1.9-.09,2.85-.09a11.2,11.2,0,0,0,2.84-.31c1.9-.17,3.8,0,5.7-.1,1,0,1.9,0,2.85,0s1.9.05,2.85.11,1.9-.06,2.85,0a22.09,22.09,0,0,0,2.85,0c1,0,1.9,0,2.85,0s1.9-.27,2.85-.23l5.7-.23c1,0,1.9.16,2.85.11s1.9-.07,2.85,0c.48.05,1,.1,1.43.12s1,0,1.43,0l2.85-.11,0,1.57-2.85,0-1.42,0-1.42.14c-.95,0-1.9,0-2.85-.09s-1.9,0-2.85-.08a28.21,28.21,0,0,0-5.69.08,4.63,4.63,0,0,1-1.42-.06,3.54,3.54,0,0,0-1.42-.06,26.67,26.67,0,0,1-2.84.31,13.59,13.59,0,0,0-2.85,0c-.47,0-.95,0-1.42,0a7.91,7.91,0,0,0-1.42,0,7.56,7.56,0,0,1-2.85,0,7.07,7.07,0,0,0-1.42,0l-1.43-.13a37.82,37.82,0,0,0-5.69.34,46.1,46.1,0,0,0-5.68.32Z" style="fill:#f4f6f8"/><path d="M784.06,692.5a7.8,7.8,0,0,1,1-.18c.37.12.64-.25,1-.38a9.64,9.64,0,0,1,2-.2,6.57,6.57,0,0,1,1,0,8.2,8.2,0,0,1,1,.1c.34,0,.67-.06,1,0a2.81,2.81,0,0,0,1,0c.34,0,.67,0,1,0s.67-.25,1-.2c.68-.06,1.35-.07,2-.1a5.25,5.25,0,0,0,1,.2,4.49,4.49,0,0,1,1,.07,1.93,1.93,0,0,0,1,.21l1,0L800,693.6a5.93,5.93,0,0,0-2-.05,3.23,3.23,0,0,1-1-.18c-.32-.09-.65-.1-1-.16-.16,0-.32-.1-.48-.15a1.51,1.51,0,0,0-.49,0c-.33,0-.66.12-1,.13-.16,0-.33.07-.49-.08a.47.47,0,0,0-.49-.08,3.46,3.46,0,0,1-1,.29c-1.31-.15-2.59.13-3.94-.14-.68-.16-1.29.29-1.92.43-.32.06-.69-.11-1,.15a7.41,7.41,0,0,1-.93.31Z" style="fill:#f4f6f8"/><rect x="740.52" y="447.09" width="69.97" height="45.81" style="fill:#e8eaf2"/><path d="M749.57,457.28c1,0,2.09-.08,3.14-.09a12.56,12.56,0,0,0,3.13-.28c2.09-.23,4.19-.11,6.28-.17s4.19,0,6.29,0c1.05.07,2.1,0,3.14,0s2.1,0,3.14,0c2.09-.24,4.19.06,6.27-.35,2.09-.21,4.18-.27,6.27-.45.52,0,1-.07,1.57-.1l1.57,0c1,0,2.09-.07,3.14-.11.52,0,1-.08,1.57-.07l1.57.06c1,0,2.09-.11,3.14-.19l1.84-.15-1.33,1.36-1.41,1.44L797.82,457l1.45-1.4.59,1.42c-1,.06-2.09.08-3.14.18-.52.06-1,.15-1.56.19s-1,0-1.57,0c-1,0-2.1,0-3.14,0l-1.57,0-1.57-.06c-2.1,0-4.18.4-6.27.38-2.11-.45-4.17.59-6.28.26-1,0-2.09.13-3.14.13a15.16,15.16,0,0,0-3.14.17,19,19,0,0,1-3.15-.11,20.91,20.91,0,0,1-3.15-.11c-2.1-.08-4.18.36-6.27.41a16,16,0,0,0-3.14.1c-1,.09-2.09.15-3.14.22Z" style="fill:#f4f6f8"/><path d="M750.65,464.89c.93,0,1.85,0,2.78,0a11,11,0,0,0,2.78-.25c1.85-.14,3.71,0,5.57,0,.93,0,1.86,0,2.78.06s1.86.06,2.79.13,1.85,0,2.78,0a21,21,0,0,0,2.78,0c.93,0,1.86,0,2.78,0s1.85-.28,2.78-.25l5.56-.3c.93,0,1.86.12,2.78.06s1.85-.11,2.78-.08a14.08,14.08,0,0,0,2.78,0l2.78-.19,0,1.57-2.78.1-1.39.06-1.39.17c-.93,0-1.85,0-2.78,0s-1.86,0-2.78,0a27.78,27.78,0,0,0-5.56.15,4.32,4.32,0,0,1-1.39-.05,3.38,3.38,0,0,0-1.39,0,25.51,25.51,0,0,1-2.78.32c-3.71-.11-7.42.14-11.14-.22a37.6,37.6,0,0,0-5.56.25,13.19,13.19,0,0,0-2.78,0c-.93.09-1.85.14-2.78.17Z" style="fill:#f4f6f8"/><path d="M751.69,472.4c1,0,1.9-.09,2.85-.09a11.19,11.19,0,0,0,2.84-.31c1.9-.17,3.8,0,5.7-.1,1,0,1.9,0,2.85,0s1.9.05,2.85.11,1.9-.06,2.85,0a22.07,22.07,0,0,0,2.85,0c1,0,1.9,0,2.85,0s1.9-.27,2.85-.23l5.7-.23c1,0,1.9.16,2.85.11s1.9-.07,2.85,0c.48.05,1,.1,1.43.12s1,0,1.43,0l2.85-.11,0,1.57-2.85,0-1.42,0-1.42.14c-.95,0-1.9,0-2.85-.09s-1.9,0-2.85-.08a28.21,28.21,0,0,0-5.69.08,4.63,4.63,0,0,1-1.42-.06,3.54,3.54,0,0,0-1.42-.06,26.68,26.68,0,0,1-2.84.31,13.58,13.58,0,0,0-2.85,0c-.47,0-.95,0-1.42,0a7.91,7.91,0,0,0-1.42,0,7.56,7.56,0,0,1-2.85,0,7.06,7.06,0,0,0-1.42,0l-1.43-.13a37.82,37.82,0,0,0-5.69.34,46.1,46.1,0,0,0-5.68.32Z" style="fill:#f4f6f8"/><path d="M784.06,481.35a7.81,7.81,0,0,1,1-.18c.37.12.64-.25,1-.38a9.63,9.63,0,0,1,2-.2,6.57,6.57,0,0,1,1,0,8.21,8.21,0,0,1,1,.1c.34,0,.67-.06,1,0a2.81,2.81,0,0,0,1,0c.34,0,.67,0,1,0s.67-.25,1-.2c.68-.06,1.35-.07,2-.1a5.24,5.24,0,0,0,1,.2,4.49,4.49,0,0,1,1,.07,1.93,1.93,0,0,0,1,.21l1,0-.26,1.55a5.93,5.93,0,0,0-2-.05,3.23,3.23,0,0,1-1-.18c-.32-.09-.65-.1-1-.16-.16,0-.32-.1-.48-.15a1.51,1.51,0,0,0-.49,0c-.33,0-.66.12-1,.13-.16,0-.33.07-.49-.08a.47.47,0,0,0-.49-.08,3.46,3.46,0,0,1-1,.29c-1.31-.15-2.59.13-3.94-.14-.68-.16-1.29.29-1.92.43-.32.06-.69-.11-1,.15a7.43,7.43,0,0,1-.93.31Z" style="fill:#f4f6f8"/><rect x="740.52" y="234.65" width="69.97" height="45.81" style="fill:#e8eaf2"/><path d="M749.57,244.84c1,0,2.09-.08,3.14-.09a12.56,12.56,0,0,0,3.13-.28c2.09-.23,4.19-.11,6.28-.17s4.19,0,6.29,0c1.05.07,2.1,0,3.14,0s2.1,0,3.14,0c2.09-.24,4.19.06,6.27-.35,2.09-.21,4.18-.27,6.27-.45.52,0,1-.07,1.57-.1l1.57,0c1,0,2.09-.07,3.14-.11.52,0,1-.08,1.57-.07l1.57.06c1,0,2.09-.11,3.14-.19l1.84-.15-1.33,1.36-1.41,1.44-1.08-1.15,1.45-1.4.59,1.42c-1,.06-2.09.08-3.14.18-.52.06-1,.15-1.56.19s-1,0-1.57,0c-1,0-2.1,0-3.14,0l-1.57,0L787.3,245c-2.1,0-4.18.4-6.27.38-2.11-.45-4.17.59-6.28.26-1,0-2.09.13-3.14.13a15.16,15.16,0,0,0-3.14.17,19.06,19.06,0,0,1-3.15-.11,20.91,20.91,0,0,1-3.15-.11c-2.1-.08-4.18.36-6.27.41a16,16,0,0,0-3.14.1c-1,.09-2.09.15-3.14.22Z" style="fill:#f4f6f8"/><path d="M750.65,252.45c.93,0,1.85,0,2.78,0a11,11,0,0,0,2.78-.25c1.85-.14,3.71,0,5.57,0,.93,0,1.86,0,2.78.06s1.86.06,2.79.13,1.85,0,2.78,0a21,21,0,0,0,2.78,0c.93,0,1.86,0,2.78,0s1.85-.28,2.78-.25l5.56-.3c.93,0,1.86.12,2.78.06s1.85-.11,2.78-.08a14.08,14.08,0,0,0,2.78,0l2.78-.19,0,1.57-2.78.1-1.39.06-1.39.17c-.93,0-1.85,0-2.78,0s-1.86,0-2.78,0a27.77,27.77,0,0,0-5.56.15,4.32,4.32,0,0,1-1.39-.05,3.38,3.38,0,0,0-1.39,0,25.51,25.51,0,0,1-2.78.32c-3.71-.11-7.42.14-11.14-.22a37.59,37.59,0,0,0-5.56.25,13.19,13.19,0,0,0-2.78,0c-.93.09-1.85.14-2.78.17Z" style="fill:#f4f6f8"/><path d="M751.69,260c1,0,1.9-.09,2.85-.09a11.2,11.2,0,0,0,2.84-.31c1.9-.17,3.8,0,5.7-.1,1,0,1.9,0,2.85,0s1.9.05,2.85.11,1.9-.06,2.85,0a22.08,22.08,0,0,0,2.85,0c1,0,1.9,0,2.85,0s1.9-.27,2.85-.23l5.7-.23c1,0,1.9.16,2.85.11s1.9-.07,2.85,0c.48.05,1,.1,1.43.12s1,0,1.43,0l2.85-.11,0,1.57-2.85,0-1.42,0-1.42.14c-.95,0-1.9,0-2.85-.09s-1.9,0-2.85-.08a28.21,28.21,0,0,0-5.69.08,4.63,4.63,0,0,1-1.42-.06,3.54,3.54,0,0,0-1.42-.06,26.68,26.68,0,0,1-2.84.31,13.59,13.59,0,0,0-2.85,0c-.47,0-.95,0-1.42,0a7.91,7.91,0,0,0-1.42,0,7.56,7.56,0,0,1-2.85,0,7.06,7.06,0,0,0-1.42,0l-1.43-.13a37.82,37.82,0,0,0-5.69.34,46.1,46.1,0,0,0-5.68.32Z" style="fill:#f4f6f8"/><path d="M784.06,268.91a7.8,7.8,0,0,1,1-.18c.37.12.64-.25,1-.38a9.63,9.63,0,0,1,2-.2,6.57,6.57,0,0,1,1,0,8.2,8.2,0,0,1,1,.1c.34,0,.67-.06,1,0a2.81,2.81,0,0,0,1,0c.34,0,.67,0,1,0s.67-.25,1-.2c.68-.06,1.35-.07,2-.1a5.25,5.25,0,0,0,1,.2,4.49,4.49,0,0,1,1,.07,1.93,1.93,0,0,0,1,.21l1,0L800,270a5.93,5.93,0,0,0-2-.05,3.23,3.23,0,0,1-1-.18c-.32-.09-.65-.1-1-.16-.16,0-.32-.1-.48-.15a1.51,1.51,0,0,0-.49,0c-.33,0-.66.12-1,.13-.16,0-.33.07-.49-.08a.47.47,0,0,0-.49-.08,3.46,3.46,0,0,1-1,.29c-1.31-.15-2.59.13-3.94-.14-.68-.16-1.29.29-1.92.43-.32.06-.69-.11-1,.15a7.42,7.42,0,0,1-.93.31Z" style="fill:#f4f6f8"/><path d="M1517.41,973q-.79,12.8-2.64,25.5c-.36,2.47-1,5.27-3.17,6.47a8.13,8.13,0,0,1-4.33.59q-8.13-.4-16.23-1.29a1.19,1.19,0,0,1-1.32-1.6l3.49-31.64" style="fill:#fff"/><path d="M1561,921.5a219.76,219.76,0,0,0,23.86,26.38l-13.4,24.27a2.66,2.66,0,0,1-1.28,1.38c-1,.35-2-.59-2.66-1.44q-7.63-9.75-14.43-20.12c-1-1.51-2-3.37-1.31-5" style="fill:#fff"/><path d="M1392,522.37c-7.12,41.91-17.25,81.36-27.78,122.47-10.36,40.45-17.68,81.18-20.36,122.9a12.35,12.35,0,0,0,.34,4.89,11.3,11.3,0,0,0,3.38,4.35c68.26,62.42,131.61,131.91,206.54,186.08,3.17-2.59,25.28-29.91,22.1-34-24.12-31.17-48.48-62.13-72.58-93.32C1482.29,808,1457.73,782,1439,752.32c-1.29-2.05-2.6-4.3-2.51-6.75a12.52,12.52,0,0,1,1.66-5c24.21-48.43,65.63-93.92,75.42-148,4-22.14,4.38-44.75,5.82-67.21" style="fill:#2f3155"/><path d="M1498.94,630.62c-25.6,26-52.77,51-81.74,73.3-4.51,3.47-9.6,9-6.88,14s12.3,6.31,11.09,11.93c-8.19-1.87-17,6.24-15.72,14.55,5.9-.59,13.71.08,15.14,5.83.79,3.17-1,6.42-1,9.69-.07,9,9.82,10.76,15.2,15.57,8.37,7.48,11.7,15.73,18.2,24.78,12.59,17.53,29.5,33,43.76,49.23,6.91,7.87,14.58,16.18,24.84,18.24,6.12-18-9.73-35.27-23.41-48.48a493.25,493.25,0,0,1-51.16-57.85c-3.92-5.21-7.9-10.95-8-17.46-.11-5.89,3-11.31,6-16.36a781.78,781.78,0,0,1,67.16-94.86" style="fill:#0c1238;opacity:0.30000000000000004"/><path d="M1583.08,544.9c1.17,58.12-6,115.28-14.75,172.62l-20.24,133c-7,45.72-21.12,89.32-28.11,134.59l-28.87,1.14a5,5,0,0,1-3.23-.61c-1.05-.78-1.31-2.22-1.48-3.52-9-66.58-17.58-133.44-13.38-200.76a685.32,685.32,0,0,0,.21-81.6c-2.59-45.54-1-91.13-5.14-136.6" style="fill:#3e4166"/><path d="M1313.41,441.45c-19.41-9.58-42.28-9.8-62.23-20.81-5.37-3-11.68-6.33-17.27-3.8-2.43,1.1-4.26,3.17-6,5.18-2.45,2.82-4.82,7.42-1.93,9.79,1.17,1,2.79,1.06,4.29,1.28,8.45,1.29,14.54,7.9,18.69,14.79,9.19,15.27,20.63,27,34.09,38.49,10.82,9.28,25.36,21.51,40,23.54,31.8,4.42,20.48-43.74,8.3-57.26-2.84-3.16-6.6-5.32-10.35-7.33Q1317.21,443.32,1313.41,441.45Z" style="fill:#ffc14d"/><path d="M1524.49,997.11c-3.54-3.68-25.92,2.43-33.53-.58-3.28-1.3-6.39-3.05-9.81-3.91-11.54-2.88-37.19,10.51-44.36,20-2.1,2.8-3,6.82-1.17,9.83l60-.56,35.85-.34A27.73,27.73,0,0,0,1524.49,997.11Z" style="fill:#0c1238"/><path d="M1630.95,1024.1c-3.19,0-6.39,0-9.58-.15-1.6,0-3.19-.1-4.79,0a37.11,37.11,0,0,1-4.79.1c-1.6-.06-3.19-.23-4.79-.22s-3.19.06-4.79.08l-9.58.37c-1.6,0-3.19.1-4.79.08s-3.19-.1-4.79-.17-3.19-.09-4.79,0-3.19.19-4.79.21c-6.39,0-12.77-.44-19.16-.4-1.6,0-3.19,0-4.79.09s-3.19.19-4.79.16-3.19-.3-4.79-.31a16,16,0,0,0-2.39.12,19.08,19.08,0,0,1-2.39.08l-9.58-.09c-3.19-.05-6.39-.09-9.58-.08s-6.39.08-9.58-.21c-1.6-.11-3.19-.23-4.79-.18s-3.19.25-4.79.23c-3.19,0-6.39-.27-9.58-.36-1.6-.07-3.19,0-4.79,0l-4.79.08c-3.19.1-6.39,0-9.58,0s-6.39,0-9.58-.1c-1.6,0-3.19,0-4.79,0l-4.79.17c-3.19.15-6.39.25-9.58.34s-6.39.13-9.58.18c-1.6,0-3.19,0-4.79,0l-4.79-.21c-6.39-.13-12.77.45-19.16.39a93.4,93.4,0,0,0-9.58,0c-1.6,0-3.19.06-4.79,0s-3.19-.26-4.79-.31c-3.19-.18-6.39.24-9.58-.05a29.51,29.51,0,0,0-4.79,0,35,35,0,0,1-4.79.15c-3.19-.14-6.39-.33-9.58-.3s-6.39.29-9.58.1c-1.6-.08-3.19-.14-4.79-.09s-3.19.16-4.79.22-3.19.1-4.79.13-3.19.06-4.79,0v-2.4c1.6,0,3.19,0,4.79,0s3.19,0,4.79.08,3.19.16,4.79.16,3.19-.07,4.79-.18,3.19-.15,4.79-.12l4.79.16c3.19,0,6.39-.23,9.58-.4a26.5,26.5,0,0,1,4.79.23,22.22,22.22,0,0,0,4.79,0c3.19-.38,6.39.29,9.58.15,1.6,0,3.19-.21,4.79-.26s3.19,0,4.79,0a79.84,79.84,0,0,0,9.58.09c6.39-.09,12.77.45,19.16.21l4.79-.33,2.39-.08h2.39c3.19,0,6.39,0,9.58.08s6.39.1,9.58.36a65.41,65.41,0,0,0,9.58.14c6.39-.3,12.77-.47,19.16-.36,1.6.06,3.19.18,4.79.25s3.19.09,4.79,0c3.19-.14,6.39-.61,9.58-.57,1.6,0,3.19.43,4.79.52a30.37,30.37,0,0,0,4.79-.27,36.71,36.71,0,0,1,4.79-.31l4.79.12c3.19.11,6.39.12,9.58.13l9.58.09a17.81,17.81,0,0,1,2.39.13,15.31,15.31,0,0,0,2.39.17c1.6,0,3.19-.24,4.79-.23,3.19,0,6.39.4,9.58.34,6.39.16,12.77,0,19.16,0,3.19,0,6.39.12,9.58-.07,1.6-.09,3.19-.2,4.79-.21s3.19,0,4.79,0l9.58.21c1.6,0,3.19.09,4.79.06s3.19-.17,4.79-.24a40.26,40.26,0,0,1,4.79.06c1.6.07,3.19,0,4.79,0,3.19-.13,6.39-.14,9.58-.2Z" style="fill:#0c1238"/><path d="M1587,934.74c-5,1.24-10.77,23.7-17.17,28.81-2.75,2.2-5.83,4-8.27,6.57-8.24,8.58-9.37,37.49-4.68,48.45,1.39,3.21,4.44,6,7.94,5.9l29.35-52.37,17.53-31.27A27.73,27.73,0,0,0,1587,934.74Z" style="fill:#0c1238"/><path d="M1532.38,238.39c-.08,10.4-.89,21.2-6.6,30.27-2.94,4.68-6.89,8.64-10.28,13a66.9,66.9,0,0,0-11.45,57.73c1.49,5.44,3.52,11.83,0,16.26-2.28,2.87-6.18,3.81-9.81,4.32a78.8,78.8,0,0,1-41.36-5.47,5.52,5.52,0,0,1-3-2.19c-.74-1.41-.18-3.12.39-4.61L1468,301.58c7.14-18.69-16.39-28.21-16.1-48.68l.53-36.43c.12-8.06.4-16.66,5-23.3,6.3-9.15,18.68-11.67,29.79-11.84,14.27-.23,24.22,4,35.41,12.9,3.68,2.93,7.52,6.09,9.08,10.52a25.22,25.22,0,0,1,.92,8.6Z" style="fill:#ffc14d"/><polygon points="1482.43 233.44 1472.5 248.8 1490.91 248.94 1482.43 233.44" style="fill:#5053ab"/><path d="M1401.42,294.59c-10,4.2-19.75,9.18-29.22,13.4-3.41,1.52-6.9,3.09-9.49,5.78-3.92,4.08-5.1,10-6.19,15.55a641.22,641.22,0,0,1-32.69,112.11c-1-6.27-10.56-8.88-14.62-4-.6.73,2.89,14.32,3,16.42a57.89,57.89,0,0,1-2.37,18.53c-3.88,12.85-12,15.84-19.11,25.1-1.7,2.22-2.1,5.69-.13,7.67,2.52,2.53,6.33,1,9.17,2.54,2.61,1.4,4.11,4.17,6.49,5.54,7.76,4.46,6.1,2,14.08.29,1.77-.38,3.56.42,5.19,1.19l18.83,8.94c1.45.69,3.08,1.39,4.6.88a6.2,6.2,0,0,0,2.44-1.88c7.41-8.08,14-17.18,20.87-25.52,4.66-5.65,19.59-21.39,19.71-28.78-.23,14.54,2.67,29.55.27,43.84-3.53,21-8.59,39.9-17.69,59.11a172.92,172.92,0,0,1,37,11.84c1.6.72,27.31,14.13,27.51,12.89,2.55-16.09,5.33-32.06,7.44-48.21a227.43,227.43,0,0,0,12.6,39.94c2.55,6.08,5.67,12.39,11.3,15.82,3.6,2.2,7.86,3,12,3.69q30.77,5.28,61.84,8.58l-.46-30.6c-.09-6-.09-12.28,3-17.38,7.14-11.78,24.67-3.73,31.39,4.13,2.09,2.45,4.24,5,5.13,8.1.81,2.81.49,5.8.18,8.71-1,8.91-.88,17.82-1.86,26.73-.26,2.34,12.31-7.65,12.93-8.64,5.57-8.8,3.7-20.19,1.6-30.39-3.22-15.65-4.4-48.09,19.34-47.56,22.9.51,33.74-15.57,34.79-37.5.21-4.48-.07-9.61-3.52-12.47-1-.87-2.36-1.51-3-2.72-1.72-3.4.58-9.25-1.37-12.6-2.95-5.06-8.9-2.52-10.08-8.8-4.83-25.65-10.24-54.33-10.24-80.58-.56-8.28-.83-16.64-2.86-24.69-4.95-19.58-20.51-32.81-37.1-42.88-12.85-7.8-25.42-17.48-39.84-22.25-9.68-3.2-18.46-.32-28.12.74-2.66.29-22.46.42-22.51.61-5.15,18.65-10.27,37.49-16.18,56-2.79-14.74-1.15-30.08-3.41-44.4-1.82-11.47-9.59-11.69-19.08-11.31-4.73.19-9.5-.58-14.24-.55C1426,285.59,1413.49,289.53,1401.42,294.59Z" style="fill:#f4f6f8"/><path d="M1469.49,299.27c-11.72-.94-23.72-5-27.71-16.63a10.51,10.51,0,0,1-.71-4.68,4.64,4.64,0,0,1,2.59-3.76,11,11,0,0,1,2.77-.49c3.14-.42,5-2.42,6.47-5.21,2.5-4.64,0-6.86-3.27-9.37-2.22-1.71-4.21-4-4.67-6.76s1.09-6,3.82-6.6A7.19,7.19,0,0,0,1453,250a18.14,18.14,0,0,0,6,1.08,22.15,22.15,0,0,0,9.36-1c2.56-1,4.72-2.84,7.12-4.19,6.28-3.53,13.07.61,19.06,3.11s12.25,4.51,18.73,2.44c9.6-3.05,17.76-8.08,18-18.6a3.82,3.82,0,0,0-.42-2.15,5.35,5.35,0,0,0-2.21-1.55c-12.09-6.38,4.2-22.27-5.25-30.78-3.83-3.45-9.73-2.94-14.74-1.75-13.48,3.22-26,9.9-39.48,12.94s-29.47,1.56-38.55-8.91c-3-3.44-5.06-7.87-4.8-12.4s3.28-9,7.68-10.18c3.87-1,8.37.54,11.74-1.6,2.56-1.63,3.57-4.88,5.73-7,4.2-4.16,11.07-3,16.91-2,12.85,2.14,22.13-8.59,33.92-12.21,11.55-3.54,26.53.23,28.17,13.79,31.34-1.63,22.81,38.89,16.18,55.94-3.34,8.59-17.4,25.7-11.09,34.75.71,1,1.62,1.89,2.24,3,2.3,3.93.11,8.91-2.37,12.72-12.3,18.93-33,22.93-54.49,24.09A82.23,82.23,0,0,1,1469.49,299.27Z" style="fill:#0c1238"/><path d="M1633.22,516.38a56.76,56.76,0,0,1-5.7,8.22,172.49,172.49,0,0,1-22.67,23.35c-7.55,6.43-15.74,12.3-21.8,20.15-9.12,11.8-3.92,23.55-9.61,35.43a76.06,76.06,0,0,1-21.92-28,15.71,15.71,0,0,1-1.67-5.63,17.51,17.51,0,0,1,1.05-5.82c7.79-25.9,13.48-54.15,29.09-76.75,14.45-20.92,61.8-3.49,55.77,22.56A25.89,25.89,0,0,1,1633.22,516.38Z" style="fill:#ffc14d"/><path d="M1252.76,423.14a20.67,20.67,0,0,0-15.81-12c-11.92-1.66-22.83,7.25-34.82,8.32-9.55.86-19.17-3.33-28.6-1.57,8.79,17.73,31.23,27.38,50.15,21.55,7.12-2.2,13.7-6.29,21.09-7.25" style="fill:#ffc14d"/><path d="M603.19,907.22c6.09-.12,12.19-.43,18.28-.12l2.29.07c.38,0,.76.1,1.14.15s.76,0,1.14,0l4.57.06c3,0,6.09.39,9.14.39,6.09,0,12.19-.35,18.28-.52,1.52,0,3-.14,4.57-.08s3,.17,4.57.21,3,0,4.57-.06,3-.07,4.57-.14v2.4l-9.14.19c-1.52,0-3-.08-4.57-.17s-3,0-4.57,0l-18.28.11c-3,.08-6.09.41-9.14.21-1.52-.09-3-.32-4.57-.4a9.91,9.91,0,0,0-1.14,0c-.38,0-.76.1-1.14.09-.76,0-1.52-.06-2.29-.11-1.52-.12-3-.22-4.57-.21-.76,0-1.52.1-2.29.18s-1.52.11-2.29.11c-3,0-6.09.15-9.14.1Z" style="fill:#e0e3ed"/><path d="M148.44,907.22c26.93-.12,53.85-.43,80.78-.12l10.1.08c3.37.08,6.73.21,10.1.19l20.19.06c6.73,0,13.46.11,20.19.19l20.19.18,80.78-.51c6.73,0,13.46-.13,20.19-.06l20.19.18c3.37,0,6.73,0,10.1,0l10.1-.06,20.19-.12v2.4l-40.39.18c-3.37,0-6.73,0-10.1,0l-10.1-.13c-6.73-.1-13.46-.06-20.19-.06L310,909.7l-20.19.19c-6.73,0-13.46.14-20.19,0l-20.19-.35c-3.37-.11-6.73,0-10.1,0l-10.1-.12c-6.73-.08-13.46-.17-20.19-.19l-10.1.15c-3.37.07-6.73.13-10.1.12l-40.39.11Z" style="fill:#e0e3ed"/><path d="M565.5,686.18a6.1,6.1,0,0,1,1.18.14,1,1,0,0,0,.59,0,1.78,1.78,0,0,1,.29-.14.56.56,0,0,1,.29,0,2.25,2.25,0,0,0,.59.23,2.53,2.53,0,0,0,.59-.09c.39-.11.79-.27,1.18-.38a2.48,2.48,0,0,1,.59-.08,2,2,0,0,1,.59.18.89.89,0,0,0,.59,0,5.51,5.51,0,0,1,.59-.22,2.93,2.93,0,0,1,1.18.24,4.39,4.39,0,0,0,1.18.18,1.5,1.5,0,0,0,.59-.1,1,1,0,0,1,.59-.16c.2,0,.39.3.59.32s.2,0,.3-.12a.33.33,0,0,1,.3-.08c.79,0,1.57.23,2.36.2.39,0,.79-.1,1.18.22a.91.91,0,0,0,.59.21c.2,0,.4-.25.59-.25a4.63,4.63,0,0,1,1.17.39,2.67,2.67,0,0,0,1.18-.08,9.42,9.42,0,0,1,2.36.14,1.75,1.75,0,0,0,1.18-.12,6.64,6.64,0,0,1,1.19-.31,6,6,0,0,1,1.18-.16,1.55,1.55,0,0,1,.59,0l.58.23c.78.21,1.59-.49,2.37-.32a1.34,1.34,0,0,0,1.18,0,1,1,0,0,1,.59,0c.19.09.38.27.58.34.39.17.8-.23,1.18.09a.48.48,0,0,0,.59,0,.59.59,0,0,1,.6-.13,2.86,2.86,0,0,0,1.17.35,2.8,2.8,0,0,0,.6-.14.87.87,0,0,1,.59.09,1,1,0,0,0,.58.12,3.92,3.92,0,0,0,.6-.21,3.31,3.31,0,0,1,1.19-.11l-.11,2.4a3.55,3.55,0,0,1-1.17-.12,3,3,0,0,0-.58-.2,1,1,0,0,0-.6.16.74.74,0,0,1-.59.1,2.15,2.15,0,0,0-.58-.19,2.94,2.94,0,0,0-1.19.35.49.49,0,0,1-.29,0c-.1,0-.19-.16-.28-.25a.39.39,0,0,0-.59-.06c-.41.36-.77-.31-1.17-.21a4.61,4.61,0,0,0-.6.26.91.91,0,0,1-.59-.06c-.39-.16-.77-.36-1.17-.13-.79.14-1.55-.56-2.34-.28l-.6.31a1.37,1.37,0,0,1-.59.08,4.11,4.11,0,0,1-1.17-.12,2.81,2.81,0,0,1-1.17-.39,1.07,1.07,0,0,0-1.17-.16,5.94,5.94,0,0,1-1.18.31,2.7,2.7,0,0,1-1.18,0c-.39-.17-.78-.45-1.17-.29s-.79.64-1.18.58c-.2,0-.39-.44-.58-.54s-.39.06-.59.26a.76.76,0,0,1-.59.3c-.2,0-.39-.09-.59-.13a20.07,20.07,0,0,0-2.35-.23.36.36,0,0,1-.29-.14c-.1-.1-.19-.2-.29-.18s-.39.24-.59.23a1.17,1.17,0,0,1-.59-.21,2,2,0,0,0-.59-.16,16.33,16.33,0,0,0-2.35,0,1.9,1.9,0,0,0-1.18.06,2.19,2.19,0,0,1-.59.22,2.65,2.65,0,0,1-.59,0c-.39-.06-.78-.17-1.18-.24a2.74,2.74,0,0,0-.59,0,2.69,2.69,0,0,0-.59.25.64.64,0,0,1-.59-.06,1.09,1.09,0,0,0-.59.05,6.27,6.27,0,0,1-1.18.21Z" style="fill:#e0e3ed"/><path d="M631.27,689a74.46,74.46,0,0,1,14.92,3.23,40.44,40.44,0,0,1,13.4,7.48c.95.87,1.88,1.77,2.81,2.67s1.7,1.94,2.48,3,1.51,2.09,2.15,3.2l1,1.67a14.28,14.28,0,0,1,.9,1.7,48.65,48.65,0,0,1,4.48,14.61,44.2,44.2,0,0,1,.69,7.68,11.2,11.2,0,0,1-.86,4A6.86,6.86,0,0,1,672.1,740a7.94,7.94,0,0,1-1.61,1.39,14.35,14.35,0,0,1-3.63,1.66,30.54,30.54,0,0,1-3.75,1,63.46,63.46,0,0,1-7.57,1c-10.11.71-20.2,0-30.15-.36-4.91-.09-10,.12-15,0l-15-.14c-10-.21-20,.06-30.06.13-20,0-40.08-.44-60.12-.35-10-.1-20,.23-30.06.22l-15-.3c-5,0-10,.24-15,.19-20-.05-40.08-.19-60.12-.17-10,0-20,.07-30.06-.21l-7.52-.12c-2.5,0-5-.1-7.52,0l-15,.21c-10,0-20-.22-30.06-.33-5-.1-10,0-15,0l-15,.08c-10,.1-20,0-30.06,0-5,0-10,0-15,.06s-10,.17-15,.16c-2.51,0-5,0-7.53-.13a63.5,63.5,0,0,1-7.55-.6,17.49,17.49,0,0,1-7.19-2.66,12.3,12.3,0,0,1-4.69-6.15,18.28,18.28,0,0,1-.83-7.69,32,32,0,0,1,1.64-7.5,52,52,0,0,1,7.1-13.48,40.06,40.06,0,0,1,11-10.68,49.68,49.68,0,0,1,14.2-5.69q3.7-.92,7.45-1.53c2.5-.38,5-.68,7.5-.95,5-.52,10-1,15-1.4,20-1.72,40-3.5,60.06-4l7.53-.09,3.76,0,3.76-.06c5-.11,10-.13,15.05-.14,10-.08,20.07.42,30.08,1,2.5.19,5,.25,7.51.37s5,.25,7.51.37,5,.24,7.51.42l7.5.62c10,1.06,20,1.31,30,2.27,5,.41,10,.86,15,1.19s10,.52,15,.68c10,.2,20,0,30,.11,5,0,10,0,15-.18s10-.36,15-.59c10-.43,20-.7,30-1L541,689c-10,.21-20,.6-30,.76l-15,.24c-2.51,0-5,.11-7.52.2l-7.52.22c-10,.37-20.07.1-30.1-.24-5-.09-10-.26-15.05-.47s-10-.4-15-.76c-2.5-.18-5-.3-7.5-.56s-5-.55-7.47-.84-5-.57-7.48-.75l-7.49-.48-7.5-.39c-2.49-.21-5-.39-7.48-.56-5-.35-10-.72-15-.88-10-.25-20-.24-30-.51-5,0-10-.15-15-.12s-10,.21-15,.34c-2.5.07-5,.23-7.5.29s-5,.13-7.5.23c-5,.16-10,.4-15,.65s-10,.57-15,1c-2.5.19-5,.35-7.49.56l-7.47.79c-5,.56-10,1.12-14.9,1.77-2.47.33-4.93.69-7.37,1.13s-4.87.86-7.26,1.43a47.29,47.29,0,0,0-13.56,5.26,37.85,37.85,0,0,0-10.42,10A49.94,49.94,0,0,0,180.38,720a32.63,32.63,0,0,0-1.75,7,16.61,16.61,0,0,0,.51,7,10.73,10.73,0,0,0,4,5.53,16.21,16.21,0,0,0,6.61,2.63,52.85,52.85,0,0,0,7.38.55c2.49.06,5,.08,7.49,0,5-.07,10-.32,15-.43s10-.14,15-.17l15-.09,7.52,0,7.52.09c10,.11,20,.4,30.06.21s20-.62,30.06-.56c5,0,10,.45,15,.49s10-.07,15-.24,10-.35,15-.31l15,.11c10,.11,20,.14,30.06.15l30.06.07c5,0,10,.29,15,.29l15-.21c10,0,20,.36,30.06.34,40.1.17,80.13,0,120.28-.13,10,.5,20,1.37,29.95.84a61.69,61.69,0,0,0,7.36-.81,28.87,28.87,0,0,0,3.54-.9,10.57,10.57,0,0,0,3.2-1.49,6.23,6.23,0,0,0,1.23-1.11,5.1,5.1,0,0,0,.8-1.41,9.36,9.36,0,0,0,.64-3.37,41.58,41.58,0,0,0-.88-7.27,60.1,60.1,0,0,0-4.24-14.08,32.28,32.28,0,0,0-8.83-11.5,39.67,39.67,0,0,0-12.81-6.91,72.19,72.19,0,0,0-14.43-3Z" style="fill:#e0e3ed"/><path d="M666,737.13c1.16-7.68-6.74-14.72-15.87-17s-19-.86-28.32,1.09C599,726,576,733.94,552.92,730.74c-29.94-4.15-52-23.58-84-16.55-13.5,3-26.49,9.47-40.3,8.94-16.61-.64-31.05-11.26-47.11-15.53-42-11.16-88.62,22.09-128.44,4.62-12.34-5.41-22.85-15.42-36.15-17.56-14-2.25-29,5.88-34.77,18.84a23.09,23.09,0,0,0-1.84,14.42c1.84,7.93,9.06,13.73,16.83,16.19,32.94,10.44,76.71,3.3,110.94,3.27q57.25-.06,114.5-.11c73-.07,145.94-.15,218.85,1.72,7.25.19,16.24-.45,19.12-5.84" style="fill:#e8eaf2;stroke:#e8eaf2;stroke-miterlimit:10;stroke-width:3px;opacity:0.5"/><polyline points="666.99 852.77 666.99 863.36 186.96 863.36 186.96 852.77" style="fill:#e8eaf2"/><path d="M668.19,852.77l-.07,10.59v1.15l-1.12,0-7.5-.11c-1.25,0-2.5,0-3.75,0l-3.75.1c-5,.22-10-.27-15-.2-10,.17-20,.42-30,.53-5,0-10-.36-15-.2l-7.5.18c-2.5.05-5,0-7.5,0l-15-.28c-5,0-10-.06-15,0l-7.5.21c-2.5.06-5,0-7.5-.18-1.25-.08-2.5-.1-3.75-.13s-2.5.07-3.75.15c-2.5.13-5,0-7.5,0-10,0-20-.2-30-.15-2.5,0-5,0-7.5,0s-5-.18-7.5-.28-5-.14-7.5-.07-5,.24-7.5.2l-15-.35c-2.5-.1-5,0-7.5,0l-7.5.08c-5,.1-10,0-15,0s-10,0-15-.08c-10-.23-20,.31-30,.42-5,.1-10,.17-15,.2s-10,.12-15-.09l-3.75-.1-3.75,0-7.5.12-15,.29c-5,.18-10-.3-15-.09l-7.5.1-3.75,0c-1.25,0-2.5,0-3.75-.09l-7.5-.29c-2.5,0-5,0-7.5,0-5,.18-10-.37-15-.08-2.5.15-5,.22-7.5.14s-5-.11-7.5-.18l-7.5-.09c-2.5,0-5,.08-7.5.11l-3.75.06c-1.25,0-2.5,0-3.75-.05l-7.5-.13c-5,0-10,.29-15,.34h-1.12v-1.14c0-3.53-.09-7.06-.07-10.59h2.4l0,10.59L187,862.18c2.5,0,5,.07,7.5.12s5,.1,7.5.1,5-.16,7.5-.25c1.25,0,2.5-.07,3.75-.06l3.75.06c2.5,0,5,.14,7.5.11s5-.07,7.5-.14a114.67,114.67,0,0,1,15,0c5,.44,10-.32,15,0,2.5.11,5,.22,7.5.21s5-.14,7.5-.24c1.25,0,2.5-.06,3.75-.07l3.75.07,7.5.15,3.75.07,3.75-.07c2.5,0,5-.15,7.5-.07l15,.22,7.5.07,3.75-.07,3.75-.16c5-.3,10-.25,15-.25h7.5l7.5.1c10,0,20,.94,30,.43,10-.27,20-.44,30-.32,40-.7,80-.23,120,.31,5,.08,10,.11,15,.15l15,0c5-.05,10,.06,15,0s10-.27,15-.32c10,0,20,.2,30,.3,5,0,10-.43,15-.25s10,0,15-.09l-1.1,1.1-.1-10.59Z" style="fill:#e0e3ed"/><rect x="635.9" y="752.44" width="22.27" height="155.98" style="fill:#f4f6f8"/><path d="M659,909.27c-7.59.23-15.38.44-23.12.46H634.6v-1.32c-.05-13-.16-26-.14-39s.13-26,.2-39c.06-3.25.2-6.5.18-9.75l0-9.75,0-19.5.21-19.5.15-19.5v-.63h.62c3.71,0,7.42,0,11.13,0l11.13-.06h.71v.72l.4,78.46c0,13.1-.25,26.06-.31,39.09Zm-1.7-1.7L657,868.65c0-6.45-.1-13,0-19.35s.11-12.85.09-19.31l-.17-77.55,1.24,1.24H647c-3.71,0-7.42,0-11.13,0l1.28-1.28c.12,13,.25,26,.24,39l-.28,19.5-.17,9.75c-.09,3.25,0,6.5.06,9.75l-.22,19.5c-.05,6.5-.17,13,0,19.5.28,13,.2,26,.26,39l-1.15-1.15C643.06,907.24,650.11,907.37,657.32,907.57Z" style="fill:#e0e3ed"/><rect x="196.69" y="752.44" width="22.27" height="155.98" style="fill:#f4f6f8"/><path d="M219.81,909.27c-7.59.23-15.38.44-23.12.46h-1.31v-1.32c-.05-13-.16-26-.14-39s.13-26,.2-39c.06-3.25.2-6.5.19-9.75l0-9.75,0-19.5.21-19.5.15-19.5v-.63h.62c3.71,0,7.42,0,11.13,0l11.13-.06h.71v.72l.4,78.46c0,13.1-.25,26.06-.31,39.09Zm-1.7-1.7-.29-38.92c0-6.45-.1-13,0-19.35s.11-12.85.09-19.31l-.17-77.55,1.24,1.24H207.83c-3.71,0-7.42,0-11.13,0l1.28-1.28c.12,13,.25,26,.24,39l-.28,19.5-.17,9.75c-.09,3.25,0,6.5.06,9.75l-.22,19.5c-.05,6.5-.17,13,0,19.5.28,13,.2,26,.26,39l-1.15-1.15C203.85,907.24,210.9,907.37,218.11,907.57Z" style="fill:#e0e3ed"/><path d="M653.28,808.27c-1.17,5.62-2.42,9.82-3.65,11.33a19.09,19.09,0,0,0-2.56,3.41c-.89,1.82-.87,3.93-1,6a40,40,0,0,1-3.26,13.74c-.37.85-.89,1.79-1.8,2a2.24,2.24,0,0,1-1.53-.34c-2.5-1.45-2.8-4.88-2.8-7.77,0-6.9.31-84.15-.78-84.15h22.27C660.42,752.44,657.34,788.82,653.28,808.27Z" style="fill:#e8eaf2;stroke:#e8eaf2;stroke-miterlimit:10;stroke-width:3px;opacity:0.5"/><path d="M217.9,810.12a41.88,41.88,0,0,1-1.61,4.52c-2,4.74-4.95,9.15-6,14.19-1.13,5.32-.11,11.11-2.34,16.07a3.37,3.37,0,0,1-1.14,1.53c-1.34.85-3.08-.2-4.11-1.4-3.81-4.4-4.22-10.7-4.46-16.51-1-25.39-1.53-50.6-1.53-76.08H219C219,769.78,223,792.87,217.9,810.12Z" style="fill:#e8eaf2;stroke:#e8eaf2;stroke-miterlimit:10;stroke-width:3px;opacity:0.5"/><polyline points="295.08 763.02 186.96 763.02 186.96 741.85 666.99 741.85 666.99 763.02 603.2 763.02" style="fill:#f4f6f8"/><path d="M295.08,764.23l-13.51-.06L268,764c-4.5-.06-9,.17-13.51.15l-6.76-.13c-2.25,0-4.5-.12-6.76-.12-9,0-18,.23-27,.33l-13.51.19c-4.5,0-9-.09-13.51-.14l-1.31,0,0-1.27.08-5.29c0-1.76,0-3.53,0-5.29l-.16-10.59,0-1.38,1.42,0,3.75-.05,3.75,0,7.5.08,15,.22c10,0,20,.15,30-.12,2.5,0,5-.11,7.5,0s5,.19,7.5.25,5,0,7.5-.09,5-.06,7.5-.06l30,.15h15c5,0,10-.06,15,.14l7.5.19,3.75.08c1.25,0,2.5,0,3.75,0l7.5-.2c2.5,0,5,0,7.5,0,10,.15,20,.44,30,.29,5,0,10-.12,15-.11l15,0,30,.13,30-.45c10-.15,20-.21,30-.26,5,0,10,.12,15,.17l7.5.09c2.5,0,5,0,7.5-.07l15-.2,7.5-.11c2.5,0,5-.08,7.5,0,10,.26,20,0,30,0,5,.07,10,.22,15,.35s10,0,15,0,10,.27,15,.15l7.5-.19c2.5-.08,5,0,7.5,0h1.06v1c0,3.53-.17,7.06-.18,10.59l0,5.29c0,1.76,0,3.53,0,5.29v.8H667c-5.32.05-10.63.2-15.95.14l-8-.11c-2.66,0-5.32-.09-8,0-5.32.06-10.63.25-15.95.29l-15.95.09v-2.4l15.95,0c5.32,0,10.63.17,15.95.2,2.66.06,5.32,0,8-.08l8-.17c2.66-.1,5.32,0,8,0l8,.11L665.88,763c0-1.76,0-3.53,0-5.29l-.06-5.29c0-3.53-.18-7.06-.23-10.59l1.44,1.44c-2.5,0-5,.12-7.5,0s-5-.25-7.5-.32c-5-.2-10,.25-15,.16s-10-.26-15-.24-10,.23-15,.28c-10-.08-20-.41-30-.15-2.5.06-5,0-7.5,0L562,743l-15-.14c-5-.06-10-.06-15,.11l-7.5.23c-2.5,0-5,.1-7.5.1H502c-5,0-10-.09-15-.12l-7.5-.08-7.5-.19c-5-.11-10-.26-15-.29l-7.5.08-7.5.15-15,.2c-10,.06-20,.2-30-.15-2.5-.07-5-.12-7.5-.11s-5,0-7.5.07c-5,.1-10,.41-15,.49-2.5,0-5,.1-7.5,0s-5-.3-7.5-.41c-5-.22-10,.09-15,.35s-10,.15-15,.1l-15-.16-30-.1c-2.5,0-5,0-7.5-.13s-5-.23-7.5-.17-5,.16-7.5.19-5,0-7.5-.07c-10-.29-20-.28-30-.34l-30,0,.78-.78,0,10.59c0,1.76,0,3.53,0,5.29l.1,5.29-.88-.88c4.5-.08,9-.17,13.51-.2l13.51.11c9,0,18,.2,27,.18l13.51-.26c4.5,0,9,.17,13.51.1l13.51-.16,13.51-.1Z" style="fill:#e0e3ed"/><path d="M584.35,764.23c-2.71,0-5.41,0-8.12-.15-1.35,0-2.71-.1-4.06,0a26.68,26.68,0,0,1-4.06.1c-1.35-.06-2.71-.23-4.06-.22s-2.71.06-4.06.08l-8.12.37c-1.35,0-2.71.1-4.06.08s-2.71-.1-4.06-.17-2.71-.09-4.06,0-2.71.19-4.06.21c-5.41,0-10.82-.44-16.23-.4-1.35,0-2.71,0-4.06.09s-2.71.19-4.06.16-2.71-.3-4.06-.31a11.52,11.52,0,0,0-2,.12,13.7,13.7,0,0,1-2,.08l-8.12-.09c-2.71-.05-5.41-.09-8.12-.08a76.53,76.53,0,0,1-8.12-.21,35.66,35.66,0,0,0-4.06-.18c-1.35,0-2.71.25-4.06.23-2.71,0-5.41-.27-8.12-.36-1.35-.07-2.71,0-4.06,0l-4.06.08c-2.71.1-5.41,0-8.12,0s-5.41,0-8.12-.1c-1.35,0-2.71,0-4.06,0l-4.06.17c-2.71.15-5.41.25-8.12.34s-5.41.13-8.12.18c-1.35,0-2.71,0-4.06,0l-4.06-.21c-5.41-.13-10.82.45-16.23.39a67.12,67.12,0,0,0-8.12,0c-1.35,0-2.71.06-4.06,0s-2.71-.26-4.06-.31c-2.71-.18-5.41.24-8.12-.05a21.21,21.21,0,0,0-4.06,0,25.19,25.19,0,0,1-4.06.15c-2.71-.14-5.41-.33-8.12-.3s-5.41.29-8.12.1c-1.35-.08-2.71-.14-4.06-.09s-2.71.16-4.06.22-2.71.1-4.06.13-2.71.06-4.06,0v-2.4c1.35,0,2.71,0,4.06,0s2.71,0,4.06.08,2.71.16,4.06.16a37.85,37.85,0,0,0,4.06-.18,34.49,34.49,0,0,1,4.06-.12c1.35.07,2.71.12,4.06.16,2.71,0,5.41-.23,8.12-.4a19.08,19.08,0,0,1,4.06.23,16,16,0,0,0,4.06,0c2.71-.38,5.41.29,8.12.15,1.35,0,2.71-.21,4.06-.26s2.71,0,4.06,0a57.37,57.37,0,0,0,8.12.09c5.41-.09,10.82.45,16.23.21l4.06-.33,2-.08h2c2.71,0,5.41,0,8.12.08s5.41.1,8.12.36a47,47,0,0,0,8.12.14c5.41-.3,10.82-.47,16.23-.36,1.35.06,2.71.18,4.06.25a37.84,37.84,0,0,0,4.06,0c2.71-.14,5.41-.61,8.12-.57,1.35,0,2.71.43,4.06.52a21.86,21.86,0,0,0,4.06-.27,26.46,26.46,0,0,1,4.06-.31l4.06.12c2.71.11,5.41.12,8.12.13l8.12.09a12.82,12.82,0,0,1,2,.13,11.05,11.05,0,0,0,2,.17c1.35,0,2.71-.24,4.06-.23,2.71,0,5.41.4,8.12.34,5.41.16,10.82,0,16.23,0,2.71,0,5.41.12,8.12-.07,1.35-.09,2.71-.2,4.06-.21s2.71,0,4.06,0l8.12.21c1.35,0,2.71.09,4.06.06s2.71-.17,4.06-.24a28.93,28.93,0,0,1,4.06.06c1.35.07,2.71,0,4.06,0,2.71-.13,5.41-.14,8.12-.2Z" style="fill:#e0e3ed"/><path d="M1033.64,200.71a20,20,0,0,1,4.42-4.9c6.2-4.66,15.53-5.21,22.89-7,2.09-.5,4.56-.92,6.17.5a6.6,6.6,0,0,1,1.72,3.65c1.86,8.22,4.29,16.31,1.44,24.59-1.88,5.46-5.11,10.35-8.31,15.16-4.91,7.4-10.81,14.78-14.79,22.7a6.25,6.25,0,0,1-3.25,2.68,5.77,5.77,0,0,1-3.31-.5c-10-3.84-22.64-11.41-29.14-20-2.09-2.78,18.12-30.41,20.31-34C1032.39,202.64,1033,201.66,1033.64,200.71Z" style="fill:#ffc14d"/><path d="M1034.77,242.63a1.9,1.9,0,0,0,1.26,1.69,49.1,49.1,0,0,0-2-22.13,12.28,12.28,0,0,0,6.17,14.2,2,2,0,0,0,1.76.2,2,2,0,0,0,.8-1.14,17.55,17.55,0,0,0-.74-13.88c-.44,2.06-.87,4.24-.16,6.22s3,3.54,4.93,2.66c3.87-1.78.24-8.69,3.29-11.66" style="fill:none;stroke:#fff;stroke-miterlimit:10"/><path d="M1058.53,199.27a5.72,5.72,0,0,0-7,4.12c-.91,4.79,5.36,8.39,9,5.1C1063.53,205.74,1062.43,200.41,1058.53,199.27Z" style="fill:#f4f6f8"/><path d="M1029.64,141.05a21.12,21.12,0,0,0-.38,4.16,6.45,6.45,0,0,0,1.11,3.64,4.34,4.34,0,0,0,1.38,1.25,5.28,5.28,0,0,0,1.83.59,8.72,8.72,0,0,0,3.9-.36c2.61-.69,5-2.34,7.82-3.44a27.47,27.47,0,0,1,8.71-2,26.22,26.22,0,0,1,4.47.08,25.51,25.51,0,0,1,4.38.91,21.2,21.2,0,0,1,7.81,4.24c1.11,1,2.15,2,3.24,2.89a10.41,10.41,0,0,0,3.52,2.1,4.25,4.25,0,0,0,3.73-.59c1.1-.71,1.91-2,1.52-3.16a2.23,2.23,0,0,0-1.13-1.3,3,3,0,0,0-1.84-.16,4.35,4.35,0,0,0-3,2.27,6.13,6.13,0,0,0-.53,2,10.71,10.71,0,0,0,.07,2.08c.19,1.39.54,2.78.73,4.24a42.12,42.12,0,0,1-1,17.5,52.73,52.73,0,0,1-7.71,15.76,52.16,52.16,0,0,1-12.72,12.09l-.82-1.34,1.76-1.2.88-.6.83-.67,1.66-1.33,1.56-1.45.78-.73.72-.78,1.45-1.56,1.29-1.7.64-.85.59-.88a62.17,62.17,0,0,0,4.43-7.25,44.66,44.66,0,0,0,3.07-7.94,32.89,32.89,0,0,0,1.59-8.36l.07-2.13c0-.71-.05-1.42-.07-2.12a36,36,0,0,0-.44-4.22c-.56-2.73-1-5.91.14-9a5.62,5.62,0,0,1,3.82-3.1,4.39,4.39,0,0,1,2.71.17,3.42,3.42,0,0,1,1.93,2.17,3.6,3.6,0,0,1-.4,2.83,6,6,0,0,1-1.78,1.86,6.35,6.35,0,0,1-2.31,1,5.92,5.92,0,0,1-1.3.11l-.67-.08-.6-.15a11,11,0,0,1-4-2.37c-1.14-1-2.11-2.06-3.24-2.88a32.74,32.74,0,0,0-3.51-2.19,21.87,21.87,0,0,0-3.81-1.68,17.72,17.72,0,0,0-4.11-.84,25,25,0,0,0-4.22-.22,21.39,21.39,0,0,0-8.24,1.92c-2.59,1.12-5,2.86-8,3.68a10.29,10.29,0,0,1-4.6.13,7.26,7.26,0,0,1-4.07-2.35,7.44,7.44,0,0,1-1.5-4.45,22.57,22.57,0,0,1,.34-4.47Z" style="fill:#fff"/><path d="M800.8,982.56c25.74-.12,51.47-.43,77.21-.12l9.65.08c3.22.08,6.43.21,9.65.19l19.3.06c6.43,0,12.87.11,19.3.19l19.3.18,77.21-.51c6.43,0,12.87-.13,19.3-.06l19.3.18c3.22,0,6.43,0,9.65,0l9.65-.06,19.3-.12V985l-38.6.18c-3.22,0-6.43,0-9.65,0l-9.65-.13c-6.43-.1-12.87-.06-19.3-.06l-77.21.11-19.3.19c-6.43,0-12.87.14-19.3,0l-19.3-.35c-3.22-.11-6.43,0-9.65,0l-9.65-.12c-6.43-.08-12.87-.17-19.3-.19l-9.65.15c-3.22.07-6.43.13-9.65.12L800.8,985Z" style="fill:#e0e3ed"/><path d="M918.18,963.9c7.4-.12,14.81-.43,22.21-.12l2.78.07c.46,0,.93.1,1.39.15s.93,0,1.39,0l5.55.06c3.7,0,7.4.39,11.11.39,7.4-.12,14.81-.31,22.21-.52,1.85,0,3.7-.13,5.55-.06l5.55.2c1.85.05,3.7,0,5.55-.06s3.7-.07,5.55-.14v2.4c-3.7.06-7.4.16-11.11.18-.93,0-1.85,0-2.78,0l-2.78-.13c-1.85-.1-3.7-.06-5.55-.06l-22.21.1c-3.7.08-7.4.41-11.11.21-1.85-.09-3.7-.32-5.55-.4-.46,0-.93-.06-1.39,0s-.93.1-1.39.09l-2.78-.13c-1.85-.09-3.7-.21-5.55-.2-.93,0-1.85.1-2.78.18s-1.85.11-2.78.11c-3.7,0-7.4.15-11.11.1Z" style="fill:#e0e3ed"/><path d="M1157.69,922.82c18.72-.12,37.45-.43,56.17-.12l7,.08c2.34.08,4.68.21,7,.19l14,.06c4.68,0,9.36.11,14,.19s9.36.12,14,.18c18.72-.1,37.45-.31,56.17-.51,4.68,0,9.36-.13,14-.06l14,.2c9.36,0,18.72-.14,28.09-.2v2.4l-28.09.18c-2.34,0-4.68,0-7,0l-7-.13c-4.68-.1-9.36-.06-14-.06l-56.17.11-14,.19c-4.68,0-9.36.13-14,0l-14-.39c-1.17,0-2.34-.08-3.51-.06l-3.51.09-7-.12c-4.68-.09-9.36-.17-14-.2s-9.36.31-14,.28l-28.09.11Z" style="fill:#e0e3ed"/><path d="M1729.18,922.82c7.4-.12,14.81-.43,22.21-.12l2.78.07c.46,0,.93.1,1.39.15s.93,0,1.39,0l5.55.06c3.7,0,7.4.39,11.11.39,7.4-.12,14.81-.31,22.21-.52,1.85,0,3.7-.13,5.55-.06l5.55.2c1.85.05,3.7,0,5.55-.06s3.7-.07,5.55-.14v2.4c-3.7.06-7.4.16-11.11.18-.93,0-1.85,0-2.78,0l-2.78-.13c-1.85-.1-3.7-.06-5.55-.06l-22.21.1c-3.7.08-7.4.41-11.11.21-1.85-.09-3.7-.32-5.55-.4-.46,0-.93-.06-1.39,0s-.93.1-1.39.09l-2.78-.13c-1.85-.09-3.7-.21-5.55-.2-.93,0-1.85.1-2.78.18s-1.85.11-2.78.11c-3.7,0-7.4.15-11.11.1Z" style="fill:#e0e3ed"/></g></g></svg>