<svg id="Artwork" xmlns="http://www.w3.org/2000/svg" viewBox="0 0 1920 1080"><title>emptystate-scripts</title><path d="M476.41,882.4l216.42-.33h50.63l54.19.11,57.24.12c19.53,0,39.48.36,59.78.29l125.14.15,129.2.42,254.34-.46,117-.27,27.51-.06,26.69,0,50.65.15c32.47.07,62.23.21,88.61.1l68.19-.13,59.4-.11v3.2l-59.4.09-68.26.11h-88.58l-50.63-.19-26.68-.07h-27.51l-117,0-254.34.12-129.2.33-15.95,0L1008,886l-31.51-.15-61.81-.35c-10.15-.06-20.21-.15-30.17-.07s-19.84.13-29.6.05l-57.24-.23-54.2-.17-50.65.22-23.83.14-22.76,0-42,0-68.28.06-59.49,0Z" style="fill:#dfe2ec"/><polygon points="1775.75 609.78 1775.75 958.25 1566.93 958.25 1278.65 958.25 1278.65 609.78 1477.4 609.78 1775.75 609.78" style="fill:#ebecf2;stroke:#ebecf2;stroke-miterlimit:10;stroke-width:3px"/><path d="M1637.22,918.43c.6-2.69,1.15-5.34,1.65-8l.36-2c.1-.67.28-1.34.4-2s.29-1.33.38-2,.16-1.35.22-2c.12-1.36.14-2.72.2-4.07s0-2.7.08-4c0-.67,0-1.33,0-2v-2c0-.66-.06-1.31-.09-2s-.12-1.28-.17-1.92L1642,888a40.24,40.24,0,0,1-7.69-1.77c-2.45-.79-4.81-1.65-7.16-2.39l-.06,0a1.66,1.66,0,0,1-1.08-2.08,1.75,1.75,0,0,1,.14-.32,14.57,14.57,0,0,1,1.5-2.08q.77-.89,1.56-1.72c1.07-1.09,2.17-2.12,3.27-3.14s2.22-2,3.35-3,2.25-2,3.4-2.91l3.47-2.82c1.17-.92,2.27-1.92,3.41-2.88s2.25-1.94,3.41-2.88,2.3-1.88,3.49-2.79l0,0a.94.94,0,0,1,1.33.17l.06.08,2.4,3.93,2.52,3.85c.41.65.85,1.27,1.24,1.94l1.19,2,2.37,3.95,2.36,4c.38.67.81,1.31,1.22,2l1.32,1.9c.88,1.27,1.65,2.61,2.4,4,.38.68.75,1.36,1.11,2.07a14.57,14.57,0,0,1,1,2.34,1.29,1.29,0,0,1-1.53,1.64l-.08,0a59.62,59.62,0,0,0-7.61-1.36,33.36,33.36,0,0,0-3.81-.19c-1.27,0-2.54.1-3.8.21l1.45-1.42c-.16,1.44-.23,2.88-.46,4.31l-.6,4.29-.29,2.14c-.09.71-.21,1.43-.27,2.14l-.39,4.3-.34,4.3c-.12,1.43-.16,2.86-.31,4.29-.06.71-.13,1.43-.22,2.14l-.2,2.14c-.05.71-.12,1.43-.15,2.14l0,2.15a1.25,1.25,0,0,1-1.26,1.23l-.22,0c-1.35-.26-2.62-.61-3.88-.95l-3.72-1.08c-1.23-.36-2.45-.7-3.65-1-.6-.14-1.19-.26-1.75-.33a4.35,4.35,0,0,0-1.36,0,1.51,1.51,0,0,1-1.89-1.77Zm3.43-1.22.27,0c.72.1,1.38.25,2,.41,1.31.32,2.56.7,3.8,1.08a66.81,66.81,0,0,0,7.23,2l-2,1.64c0-1.46,0-2.92,0-4.38s0-2.92,0-4.37.23-2.9.36-4.35.29-2.89.48-4.33l.56-4.31c.19-1.43.34-2.87.51-4.31l.52-4.3c.16-1.43.42-2.85.62-4.28v-.1a1.47,1.47,0,0,1,1.38-1.26c1.37-.06,2.74,0,4.11,0s2.73.1,4.09.24a69.7,69.7,0,0,1,8,1.31l-2,2a14.41,14.41,0,0,0-.83-1.79c-.33-.65-.68-1.31-1-2l-1.11-2c-.36-.67-.72-1.33-1-2l-.93-2.1a17.86,17.86,0,0,0-1.15-2c-.82-1.29-1.65-2.57-2.55-3.81l-1.33-1.87c-.44-.63-.9-1.24-1.32-1.88l-1.29-1.9c-.44-.62-.82-1.29-1.22-1.94l-1.1-2c-.36-.68-.76-1.33-1.15-2-.83-1.28-1.66-2.57-2.51-3.83l2.66.41c-1.11,1-2.26,1.91-3.39,2.85l-1.7,1.43-1.74,1.38c-.58.46-1.14.94-1.71,1.41s-1.11,1-1.65,1.48-1,1.06-1.57,1.57-1.05,1-1.6,1.54-1.12,1-1.68,1.44-1.15.92-1.72,1.39q-1.73,1.38-3.41,2.81c-1.1,1-2.07,2.07-3.09,3.1q-.79.74-1.53,1.51a13.47,13.47,0,0,0-1.27,1.52l-.71-1.71c1.2.45,2.36.94,3.55,1.35s2.36.82,3.55,1.18,2.39.64,3.59.88a29.49,29.49,0,0,0,3.6.47,1.11,1.11,0,0,1,1,1v0c.1.71.22,1.42.3,2.12s.16,1.42.18,2.12.09,1.41.07,2.11,0,1.41,0,2.11,0,1.4-.12,2.1-.14,1.39-.23,2.08c-.17,1.38-.37,2.76-.58,4.13-.11.68-.24,1.37-.31,2.06s-.13,1.38-.21,2.07-.13,1.38-.24,2.07l-.33,2.05C1641.46,913,1641.05,915.13,1640.64,917.21Z" style="fill:#fff"/><path d="M1693.93,918.87c-.06-1-.11-2-.12-3s0-2,0-3.06.09-2,.16-3l.12-1.51.21-1.5c.16-1,.33-2,.44-3s.21-2,.28-3,.19-2,.3-3,.2-2,.39-3l.5-2.95c.19-1,.39-2,.54-2.85a11.23,11.23,0,0,0,.13-1.17c0-.12,0-.24,0-.23a.64.64,0,0,0,.14.17c.2.13,0,0-.35-.08a9,9,0,0,0-1.23-.16c-.92-.07-1.89-.1-2.81-.08s-1.9.07-2.86.15c-1.93.17-3.89.43-5.91.63h0a1.67,1.67,0,0,1-1.6-2.51c.74-1.25,1.5-2.49,2.32-3.69s1.69-2.36,2.59-3.5a75,75,0,0,1,5.72-6.51c1-1,2.08-2,3.15-3,.53-.49,1.09-.94,1.61-1.44.2-.2.52-.49.72-.72s.44-.47.68-.74a36.82,36.82,0,0,1,2.94-3.2,12.28,12.28,0,0,1,1.83-1.43,5.92,5.92,0,0,1,2.35-.92,4.64,4.64,0,0,1,2.62.4,10,10,0,0,1,1.11.69,6.4,6.4,0,0,1,.85.86,40.13,40.13,0,0,1,2.47,3.64c.38.6.75,1.19,1.14,1.74s.78,1,1.25,1.58l2.76,3.25c.91,1.11,1.83,2.23,2.65,3.44s1.54,2.42,2.39,3.56,1.76,2.22,2.61,3.32,1.71,2.17,2.65,3.15a1.16,1.16,0,0,1,.29.52v0a11.38,11.38,0,0,1,.21,1.39,4.62,4.62,0,0,0,.21,1,1.29,1.29,0,0,1-1.46,1.68h-.05c-2.58-.5-5.1-1-7.63-1.34a31.65,31.65,0,0,0-3.73-.33,8.56,8.56,0,0,0-1.63.12l-.26.07c-.05,0,0,0,0,0h0l.15-.14,0,0-.08.09a1.87,1.87,0,0,0-.15.17s.06,0,0,0a6.18,6.18,0,0,0-.38,1.46c-.1.56-.14,1.18-.19,1.79-.12,1.24-.19,2.51-.26,3.84,0,.34,0,.68-.08,1.06l-.12,1-.24,1.95c-.18,1.29-.27,2.59-.38,3.89-.2,2.59-.38,5.18-.48,7.75l-.05,1.93-.09,1.93-.09,1.94a12.82,12.82,0,0,1-.2,2.2,3.24,3.24,0,0,1-.68,1.44,3,3,0,0,1-.69.58,3.43,3.43,0,0,1-.71.31,7.64,7.64,0,0,1-2.33.25l-4-.16a33,33,0,0,0-3.77.08,17.72,17.72,0,0,0-3.54.66,1.48,1.48,0,0,1-1.85-1,1.66,1.66,0,0,1-.05-.24l-.42-3.3Zm3.14-.2.36,3.09-2-1.32a25.45,25.45,0,0,1,8.29-.71c1.31.06,2.69.18,3.85.18a5,5,0,0,0,1.4-.13c.09,0,0,0,.07,0s-.05,0-.09.05-.06,0,0-.12a12.77,12.77,0,0,0,0-1.61l-.11-2v-2l.11-2c.16-2.65.42-5.27.74-7.88.15-1.3.33-2.6.45-3.9l.2-1.94.1-1c0-.26,0-.56.06-.88.06-1.27.09-2.62.22-4,.09-.69.18-1.37.34-2.08a9.05,9.05,0,0,1,.75-2.26,5.34,5.34,0,0,1,.52-.78c.08-.09.12-.12.19-.19l.09-.08,0,0c.28-.26.09-.08.16-.14l0,0,.05,0a4.37,4.37,0,0,1,.84-.4l.68-.15a11.33,11.33,0,0,1,2.25-.09,38.8,38.8,0,0,1,4.06.35c1.32.19,2.64.36,3.94.57l3.88.67-2,2.16a7.92,7.92,0,0,1-.35-1.56,9.59,9.59,0,0,0-.15-1l.41.79a31.78,31.78,0,0,1-2.81-3.46c-.86-1.2-1.4-2.57-2.12-3.8s-1.59-2.34-2.4-3.46a38.19,38.19,0,0,0-2.74-3.06c-1-1-2-2-3-3.05-.27-.29-.46-.48-.76-.83a11.82,11.82,0,0,1-.73-1,19.56,19.56,0,0,1-1.11-1.94,16.3,16.3,0,0,0-2.07-3.37l-.13-.15-.09-.09a2.81,2.81,0,0,0-.33-.29l0,0h0l.07.05,0,0-.07,0-.15-.08a1.94,1.94,0,0,0-.29-.16,1.85,1.85,0,0,0-1-.1,6.19,6.19,0,0,0-2.64,1.67c-.92.88-1.84,1.91-2.85,3-.24.26-.51.55-.8.84s-.49.47-.82.79c-.53.45-1,1-1.48,1.47-.94,1-1.8,2.12-2.75,3.13l-2.88,3c-1,1-1.89,2-2.8,3.09a39.52,39.52,0,0,0-2.41,3.4c-.8,1.14-1.62,2.26-2.39,3.43l-1.21-1.85,3-.16,3-.26a50.26,50.26,0,0,1,6.1-.26,11.68,11.68,0,0,1,1.62.13,3.51,3.51,0,0,1,1.95.85,2.66,2.66,0,0,1,.67,1.12,4.45,4.45,0,0,1,.17,1,12.07,12.07,0,0,1-.1,1.68c-.13,1-.29,2-.44,3l-.49,2.93c-.14,1-.39,1.94-.58,2.91l-.57,2.9c-.18,1-.36,1.94-.52,2.91s-.17,2-.22,2.94c-.07,2-.25,3.9-.25,5.84,0,1,0,1.95,0,2.9s.1,1.93.18,2.92Z" style="fill:#fff"/><path d="M1744.77,723.18c.83-14.48,2.05-28.93,4.18-43.31,1.92-13-2.48-15.64-13.78-18-13.23-2.81-27.46.05-41.14.12-9.32,0-21.78.1-29.79,5.69-10.64,7.44-12,25.79-11.62,38.06,1,31.64-8,63.12-4.86,94.67,15,6.8,33.19,10.72,49.22,8.14,12.84-2.07,26.1.11,38.53-2.45,8.3-1.71,7.77-3.46,7.74-13.59C1743.2,769.34,1743.44,746.38,1744.77,723.18Z" style="fill:#fff"/><path d="M1742.41,723c.34-5.8.75-11.62,1.25-17.42q.37-4.35.83-8.7l1.2-8.67c.2-1.44.34-2.9.49-4.35s.34-2.9.47-4.35l.16-2.11,0-2c0-.64,0-1.3-.11-1.93a12.14,12.14,0,0,0-.32-1.77,8.7,8.7,0,0,0-.53-1.54,6.33,6.33,0,0,0-.82-1.21,7.41,7.41,0,0,0-2.46-1.89,36,36,0,0,0-7.54-2.32l-.51-.12-.46-.09-1.07-.2c-.73-.15-1.39-.24-2-.33-1.29-.2-2.71-.33-4.08-.44-2.77-.22-5.59-.25-8.42-.19-5.68.11-11.44.6-17.31.86-1.46.08-2.94.13-4.42.17s-3,0-4.41,0c-2.88,0-5.73,0-8.54.21-5.59.39-11.22,1.08-16,3.42l-.88.44-.83.51-.42.25-.1.06-.05,0s-.15.11.07-.06l-.21.17-.86.67-.85.67-.63.65a10.63,10.63,0,0,0-1.25,1.39,25.26,25.26,0,0,0-4,7,52.84,52.84,0,0,0-2.36,8,75.25,75.25,0,0,0-1.16,8.42c-.19,2.84-.21,5.7-.13,8.56s.18,5.78,0,8.75c-.09,5.89-.6,11.68-1.18,17.48l-.44,4.34c-.17,1.44-.33,2.89-.46,4.34l-.85,8.67c-.28,2.89-.58,5.77-.93,8.64s-.63,5.75-.92,8.63c-.57,5.75-.9,11.51-1.07,17.27s.64,11.5,1.16,17.18l-1.05-1.47a105,105,0,0,0,20.62,6.58,90.42,90.42,0,0,0,10.67,1.54,69,69,0,0,0,10.71.11c1.77-.16,3.54-.34,5.29-.64l2.74-.43c.9-.14,1.91-.23,2.86-.34a97.86,97.86,0,0,1,11.24-.45c3.7,0,7.36.11,11,0a60.15,60.15,0,0,0,10.67-1l.65-.12.63-.14c.44-.1.93-.2,1.3-.32s.8-.21,1.16-.35l.56-.19.49-.22a3.22,3.22,0,0,0,1.29-1,4.26,4.26,0,0,0,.53-1.7,39.2,39.2,0,0,0,.16-5.17l0-5.53,0-5.53.14-5.53.34-11.06.29-22.13Q1741.93,734.11,1742.41,723Zm4.72.27q-.56,11-.84,22c-.21,7.34-.34,14.69-.32,22l.27,11c.06,1.84.05,3.68.08,5.52l0,5.52,0,5.52a41,41,0,0,1-.32,6,9.07,9.07,0,0,1-1.43,3.76,8.08,8.08,0,0,1-3.3,2.6l-.82.34-.78.26c-.52.18-1,.3-1.54.42s-.95.21-1.41.31l-.73.14-.72.12A85.62,85.62,0,0,1,1723.8,810c-3.76.12-7.46.07-11.12.07s-7.28,0-10.84.21c-.88.08-1.72.11-2.64.22l-2.73.31q-2.84.33-5.69.51a83.78,83.78,0,0,1-11.35-.14,98.39,98.39,0,0,1-32.77-8.31l-1.39-.61-.18-1.58c-.67-5.91.06-11.83,0-17.69,0-2.93.08-5.87.16-8.79s.18-5.85.31-8.77.32-5.84.58-8.73l.37-4.35c.18-1.44.32-2.88.52-4.32.39-2.87.91-5.73,1.24-8.6s.59-5.75.84-8.61c.14-1.44.21-2.87.3-4.3s.2-2.87.24-4.3l.22-4.29.11-4.25,0-2.13,0-2.18,0-4.32c0-3,0-5.94.24-8.92.06-1.49.14-3,.27-4.48s.26-3,.45-4.51l.37-2.26c.12-.75.34-1.49.52-2.24a29.57,29.57,0,0,1,1.42-4.42,27.78,27.78,0,0,1,4.82-8.2c.27-.31.48-.63.8-.93l.94-.91.94-.89.88-.66.88-.65.22-.16c.27-.21.11-.08.19-.13l.07,0,.13-.08.52-.31,1-.6,1.08-.52a42,42,0,0,1,17.75-3.88c3-.09,5.9,0,8.82.06s5.73.09,8.63,0c5.75-.35,11.54-.91,17.4-1.19,2.93-.15,5.89-.21,8.86-.07,1.49.08,3,.17,4.49.36s2.86.4,4.42.68a34.44,34.44,0,0,1,8.82,2.7A11.82,11.82,0,0,1,1749,666a11.27,11.27,0,0,1,1.35,2.34,13.58,13.58,0,0,1,.7,2.48,17,17,0,0,1,.29,2.45c0,.8,0,1.58,0,2.37s-.12,1.58-.2,2.33l-.31,2.2c-.44,2.85-1,5.69-1.26,8.57s-.47,5.76-.68,8.64-.51,5.75-.72,8.63C1747.73,711.77,1747.4,717.52,1747.13,723.31Z" style="fill:#fff"/><path d="M1668.08,736.72s.82-.17,2.28-.4c.72-.12,1.62-.24,2.66-.38s2.22-.26,3.49-.37,2.66-.17,4.11-.21,3,0,4.59,0,3.23.09,4.89.1l2.51,0,2.53-.07c1.69-.05,3.37-.06,5,0l4.86.24c1.57.09,3.09.21,4.53.27l2.1,0c.68,0,1.33,0,2,0,1.26,0,2.41-.08,3.42,0l2.63,0c.73,0,1.3,0,1.69,0l.6,0a1.8,1.8,0,0,1,0,3.6h0l-.61,0c-.4,0-1,.05-1.72.07l-2.66.05c-1,0-2.19,0-3.45-.05s-2.63-.14-4.07-.24l-4.54-.13-4.84-.15-5-.3c-1.67-.07-3.34-.16-5-.2s-3.26,0-4.82.1-3.07.14-4.49.25-2.78.08-4,.13a27.28,27.28,0,0,0-3.37.29c-1,.12-1.86.25-2.58.41s-1.29.27-1.67.36l-.59.14a1.8,1.8,0,1,1-.83-3.5h0Z" style="fill:#a7b3d9"/><path d="M1667.57,760.84s.74-.06,2-.11l5.33-.27c1.11-.05,2.31-.08,3.59-.11l4,0c1.4,0,2.85,0,4.32,0l2.22-.11,2.24-.16c1.5-.11,3-.17,4.49-.17s2.95.12,4.36.23,2.62.2,3.92.2,2.52,0,3.69-.07a16.09,16.09,0,0,1,3.29.24,10.63,10.63,0,0,1,2.68.83,5.88,5.88,0,0,1,1.7,1.14l.54.56a1.74,1.74,0,0,1-2.17,2.68l-.59-.37a2.48,2.48,0,0,1-.24-.17,1.4,1.4,0,0,0-.32-.2,3,3,0,0,0-.51-.25,7.16,7.16,0,0,0-1.79-.46c-.76-.11-1.69-.22-2.74-.27s-2.22-.12-3.49-.16-2.75,0-4.13-.06-2.78-.12-4.22-.13-2.91-.13-4.39-.17-3,0-4.41,0-2.89.12-4.28.23l-4,.28c-1.28.06-2.49,0-3.62,0s-2.15,0-3.06.09-1.72.09-2.37.16-1.16.11-1.51.15l-.53.06a1.8,1.8,0,1,1-.43-3.57h.06Z" style="fill:#a7b3d9"/><path d="M1692,691.67c-4,6.73-11.48,12.34-18.59,10.15-6.51,2.18-14.56-1.43-19.41-7.08-7.87-9.15-10.3-23.43-5.14-34.55s18-17.84,29.27-14.58c8.52,2.46,15.34,10.14,17.81,19.13A35.51,35.51,0,0,1,1692,691.67Z" style="fill:#fff"/><path d="M1694,692.93l-.75,1.21-.92,1.32c-.32.42-.64.82-1,1.22s-.69.78-1,1.16-.74.73-1.11,1.09-.79.69-1.18,1-.83.64-1.25,1a11.6,11.6,0,0,1-1.36.82c-.46.26-1,.47-1.43.7s-1,.44-1.43.72a14.74,14.74,0,0,1-1.49.67c-.5.23-1,.38-1.57.57a17,17,0,0,1-1.66.42,13.52,13.52,0,0,1-1.74.2c-.59,0-1.19,0-1.79-.06s-1.17-.23-1.76-.36l1.77,0-1.38.42c-.47.12-.94.2-1.41.29a16.51,16.51,0,0,1-2.82.11,19.08,19.08,0,0,1-5.34-1.06,26.18,26.18,0,0,1-8.86-5.41,23.51,23.51,0,0,1-1.82-1.84l-.43-.48-.11-.12-.16-.19-.18-.23-.71-.92a24.77,24.77,0,0,1-1.43-2.07c-.49-.74-.83-1.48-1.23-2.22a36.35,36.35,0,0,1-3.23-9.35,57.71,57.71,0,0,1-.65-9.77,27.51,27.51,0,0,1,2-9.53c.28-.76.65-1.5,1-2.24l1.05-2.16c.37-.7.84-1.43,1.26-2.15a23.89,23.89,0,0,1,1.46-2,29.84,29.84,0,0,1,7.49-6.22c1.41-.82,2.84-1.56,4.28-2.39a15.38,15.38,0,0,1,4.7-1.66,23.37,23.37,0,0,1,10.09,0l.63.14.16,0h0l.11,0,.07,0,.28.09,1.11.34a25.94,25.94,0,0,1,2.43,1,28,28,0,0,1,4.43,2.51,19.91,19.91,0,0,1,2,1.58,18,18,0,0,1,1.8,1.79,25.36,25.36,0,0,1,2.91,4.11,42.57,42.57,0,0,1,4.19,9.06c.23.91.45,1.47.61,2.38l.24,1.27L1699,669a22.79,22.79,0,0,1,.12,2.49c-.05.83-.06,1.66-.17,2.48-.05.41-.08.82-.1,1.23l-.14,1.22c0,.82-.17,1.63-.26,2.44-.28,1.61-.51,3.23-.93,4.82a37.42,37.42,0,0,1-3.54,9.21Zm-4-2.46a35.09,35.09,0,0,0,3.29-8,29.6,29.6,0,0,0,.88-4.25,19.34,19.34,0,0,0,.14-4.31c-.14-1.43-.34-2.84-.53-4.23l-.12-1-.17-1c-.08-.58-.31-1.57-.4-2.13a23.7,23.7,0,0,0-3.2-7.78,34.16,34.16,0,0,0-5.52-6.43,13.71,13.71,0,0,0-3.52-2.37c-.65-.33-1.24-.5-1.89-.76l-1.12-.34-.28-.08-.07,0h0l-.13,0-.52-.08a13.29,13.29,0,0,0-2.06-.26l-1-.07c-.35,0-.69,0-1,0s-.69,0-1,0l-1,.14a14.81,14.81,0,0,0-2,.31c-.68.09-1.34.34-2,.5l-1,.22-1.06.15a8.24,8.24,0,0,0-2.08.56,17.7,17.7,0,0,0-1.85,1.1,25.48,25.48,0,0,0-5.86,6.09c-.35.6-.83,1.12-1.22,1.66s-.82,1-1.26,1.57c-.23.32-.41.66-.62,1l-.3.5-.07.13,0,.06,0,0,0-.07-.1.24a18.75,18.75,0,0,0-.76,2,40.2,40.2,0,0,0-1.56,8.34,14,14,0,0,0,.09,4.3c.27,1.42.81,2.77,1.1,4.16.63,2.74,1,5.73,2.41,8.28l1.14,1.81c.37.6.63,1.21,1.11,1.87.22.32.42.66.63,1l.15.25,0,0s-.07-.08,0,0l0,.05.08.11.31.44a10.24,10.24,0,0,0,.66.86,8.07,8.07,0,0,0,.72.82,16,16,0,0,0,7.48,4.25,13.31,13.31,0,0,0,8-.25l.48-.18.81.17,1.12.25c.38,0,.75.12,1.14.15s.77.06,1.17,0,.8,0,1.2-.08a7.74,7.74,0,0,0,1.21-.23,11,11,0,0,0,1.18-.4,6.64,6.64,0,0,0,1.13-.57,10.46,10.46,0,0,0,1-.77c.32-.3.67-.52,1-.83s.68-.52,1-.83.64-.57.94-.89.61-.61.89-.95c.57-.65,1.11-1.34,1.61-2l.69-1,.72-1.22Z" style="fill:#fff"/><path d="M1682.3,700.46c-4,6.73-11.48,12.34-18.59,10.15-6.51,2.18-14.56-1.43-19.41-7.08-7.87-9.15-10.3-23.43-5.14-34.55s18-17.84,29.27-14.58c8.52,2.46,15.34,10.14,17.81,19.13A35.51,35.51,0,0,1,1682.3,700.46Z" style="fill:none;stroke:#a7b3d9;stroke-linecap:round;stroke-linejoin:round;stroke-width:4px"/><path d="M1593.93,682.65c5.19,2.67,8.11,9.62,13.8,10.63,5.12.91,9.54-3.45,13.84-6.53s11.33-4.4,13.76.47" style="fill:none;stroke:#a7b3d9;stroke-linecap:round;stroke-linejoin:round;stroke-width:4px"/><path d="M1599.38,696.44c5.19,2.67,8.11,9.62,13.8,10.63,5.12.91,9.54-3.45,13.84-6.53s11.33-4.4,13.76.47" style="fill:none;stroke:#a7b3d9;stroke-linecap:round;stroke-linejoin:round;stroke-width:4px"/><path d="M1598,664.22c5.19,2.67,8.11,9.62,13.8,10.63,5.12.91,9.54-3.45,13.84-6.53s11.33-4.4,13.76.47" style="fill:none;stroke:#a7b3d9;stroke-linecap:round;stroke-linejoin:round;stroke-width:4px"/><rect x="1243.41" y="789.28" width="327" height="204" style="fill:#f3f4f6"/><path d="M1261.69,964.17c21.85-.27,78.88,1.08,78.88,1.08" style="fill:none;stroke:#fff;stroke-linecap:round;stroke-linejoin:round;stroke-width:4px"/><path d="M1316.8,948s-35.72-1.12-53.67-1.08" style="fill:none;stroke:#fff;stroke-linecap:round;stroke-linejoin:round;stroke-width:4px"/><path d="M1260.61,926.35c26.5,2.45,100.49-1.08,100.49-1.08" style="fill:none;stroke:#fff;stroke-linecap:round;stroke-linejoin:round;stroke-width:4px"/><line x1="1824.41" y1="958.28" x2="1599.41" y2="958.28" style="fill:none;stroke:#e0e3ed;stroke-miterlimit:10;stroke-width:4px"/><line x1="1242.41" y1="994.28" x2="1198.41" y2="994.28" style="fill:none;stroke:#e0e3ed;stroke-miterlimit:10;stroke-width:4px"/><polyline points="1443.07 789.42 1443.07 838.05 1370.47 851.26 1370.47 789.42" style="fill:none;stroke:#fff;stroke-linecap:round;stroke-linejoin:round;stroke-width:4px"/><rect x="780.41" y="141.28" width="704" height="496" style="fill:#fff"/><rect x="780.41" y="141.28" width="704" height="47" style="fill:#dfe2ec;stroke:#dfe2ec;stroke-miterlimit:10;stroke-width:4px"/><circle cx="840.18" cy="164.86" r="11.96" style="fill:#fff"/><rect x="865.41" y="155.28" width="20" height="20" style="fill:#fff"/><polygon points="792.65 175.28 805.55 154.49 818.46 175.28 792.65 175.28" style="fill:#fff"/><rect x="920.41" y="313.28" width="643" height="431" style="fill:#0e1438"/><rect x="920.41" y="271.28" width="643" height="47" style="fill:#8183bf"/><polygon points="932.55 306.28 945.46 285.49 958.36 306.28 932.55 306.28" style="fill:#fff"/><path d="M968.41,384s-.08,0,.14-.07a7.69,7.69,0,0,1,.87-.17c.42-.07.88-.12,1.46-.16s1.22-.07,1.94-.1a13.94,13.94,0,0,1,2.31.12,19.08,19.08,0,0,1,2.59.56,11,11,0,0,0,2.77.4,13.64,13.64,0,0,0,2.86-.33,15.26,15.26,0,0,1,2.86-.36,15,15,0,0,1,2.77.26c.9.17,1.77.28,2.59.35a7.37,7.37,0,0,0,2.32-.28,7.37,7.37,0,0,1,2-.32,11.8,11.8,0,0,1,1.38,0,5,5,0,0,1,1.18.12v9a4.94,4.94,0,0,1-1.18.3,14.46,14.46,0,0,1-1.44.2,8.59,8.59,0,0,1-1.93,0c-.36,0-.72-.06-1.1-.11s-.78-.2-1.19-.22c-.82,0-1.69,0-2.59,0l-1.37,0-1.4-.06a21.62,21.62,0,0,1-2.86-.48,18.36,18.36,0,0,0-2.86-.45,13.31,13.31,0,0,0-2.77.12,18.41,18.41,0,0,1-2.59.23,11,11,0,0,1-2.32-.32,5.68,5.68,0,0,0-2-.07,7.07,7.07,0,0,0-1.31.27,2.79,2.79,0,0,0-1.11.51Z" style="fill:#f4f6f8"/><path d="M1011.41,384s-.05,0,.17-.07a8.1,8.1,0,0,1,.89-.17c.42-.07.89-.12,1.47-.16s1.22-.07,1.94-.1a14,14,0,0,1,2.31.12,19.11,19.11,0,0,1,2.59.56,11,11,0,0,0,2.77.4,13.64,13.64,0,0,0,2.86-.33,15.26,15.26,0,0,1,2.86-.36,15,15,0,0,1,2.77.26c.9.17,1.77.28,2.59.35a7.37,7.37,0,0,0,2.32-.28,7.37,7.37,0,0,1,2-.32,11.27,11.27,0,0,1,1.34,0,4.49,4.49,0,0,1,1.15.12v9a4.29,4.29,0,0,1-1.15.3,14.1,14.1,0,0,1-1.43.2,8.52,8.52,0,0,1-1.92,0c-.36,0-.71-.06-1.1-.11s-.78-.2-1.19-.22c-.82,0-1.69,0-2.59,0l-1.37,0-1.4-.06a21.61,21.61,0,0,1-2.86-.48,18.36,18.36,0,0,0-2.86-.45,13.31,13.31,0,0,0-2.77.12,18.42,18.42,0,0,1-2.59.23,11,11,0,0,1-2.32-.32,5.68,5.68,0,0,0-2-.07,7.47,7.47,0,0,0-1.34.27,3.17,3.17,0,0,0-1.15.51Z" style="fill:#fdd991"/><path d="M1055.41,384l1.34-.07c.77,0,2-.12,3.41-.15l5.22-.16c2-.08,4.28-.08,6.74-.12s5.14.06,8,.12l4.34.22,4.53.33c3.08.23,6.25.37,9.48.39l4.88-.08,4.91-.25c1.64-.08,3.28-.19,4.91-.25l4.88-.11,4.8.06,4.68.2c3.08.16,6,.28,8.87.35s5.48-.12,7.94-.28,4.72-.32,6.71-.31,3.74,0,5.18,0,2.41,0,3.18.08l1,0v9l-1,.09c-.77.06-1.82.15-3.26.21s-3.14.14-5.14.2c-1,0-2,.06-3.17.05s-2.29,0-3.52,0-2.51-.06-3.83-.12-2.69-.18-4.1-.22c-2.82,0-5.79,0-8.87,0l-4.68,0-4.8-.06-4.88-.19-4.91-.29-4.91-.29-4.88-.16c-3.23-.05-6.41,0-9.48.12l-4.53.16-4.34.06c-1.41,0-2.78-.05-4.11-.1l-3.84-.22c-1.23-.09-2.41-.1-3.53-.1s-2.19,0-3.18.05l-2.8.1c-.87,0-1.66.12-2.38.17-1.44.09-2.73.24-3.5.33l-1.34.16Z" style="fill:#fdbe4e"/><path d="M1011.41,489s-.05,0,.17-.07a8.13,8.13,0,0,1,.89-.17c.42-.07.89-.12,1.47-.16s1.22-.07,1.94-.1a14,14,0,0,1,2.31.12,19.11,19.11,0,0,1,2.59.56,11,11,0,0,0,2.77.4,13.64,13.64,0,0,0,2.86-.33,15.26,15.26,0,0,1,2.86-.36,15,15,0,0,1,2.77.26c.9.17,1.77.28,2.59.35a7.37,7.37,0,0,0,2.32-.28,7.37,7.37,0,0,1,2-.32,11.27,11.27,0,0,1,1.34,0,4.49,4.49,0,0,1,1.15.12v9a4.28,4.28,0,0,1-1.15.3,14.13,14.13,0,0,1-1.43.2,8.52,8.52,0,0,1-1.92,0c-.36,0-.71-.06-1.1-.11s-.78-.2-1.19-.22c-.82,0-1.69,0-2.59,0l-1.37,0-1.4-.06a21.61,21.61,0,0,1-2.86-.48,18.36,18.36,0,0,0-2.86-.45,13.33,13.33,0,0,0-2.77.12,18.43,18.43,0,0,1-2.59.23,11,11,0,0,1-2.32-.32,5.67,5.67,0,0,0-2-.07,7.46,7.46,0,0,0-1.34.27,3.17,3.17,0,0,0-1.15.51Z" style="fill:#fdd991"/><path d="M1055.41,489l1.34-.07c.77,0,2-.12,3.41-.15l5.22-.16c2-.08,4.28-.08,6.74-.12s5.14.06,8,.12l4.34.22,4.53.33c3.08.23,6.25.37,9.48.39l4.88-.08,4.91-.25c1.64-.08,3.28-.19,4.91-.25l4.88-.11,4.8.06,4.68.2c3.08.16,6,.28,8.87.35s5.48-.12,7.94-.28,4.72-.32,6.71-.31,3.74,0,5.18,0,2.41,0,3.18.08l1,0v9l-1,.09c-.77.06-1.82.15-3.26.21s-3.14.14-5.14.2c-1,0-2,.06-3.17.05s-2.29,0-3.52,0-2.51-.06-3.83-.12-2.69-.18-4.1-.22c-2.82,0-5.79,0-8.87,0l-4.68,0-4.8-.06-4.88-.19-4.91-.29-4.91-.29-4.88-.16c-3.23-.05-6.41,0-9.48.12l-4.53.16-4.34.06c-1.41,0-2.78-.05-4.11-.1l-3.84-.22c-1.23-.09-2.41-.1-3.53-.1s-2.19,0-3.18.05l-2.8.1c-.87,0-1.66.12-2.38.17-1.44.09-2.73.24-3.5.33l-1.34.16Z" style="fill:#fdbe4e"/><path d="M1209.41,489s0,0,.22-.07a8.77,8.77,0,0,1,.91-.17c.42-.07.9-.12,1.48-.16s1.23-.07,1.95-.1a14,14,0,0,1,2.31.12,19.12,19.12,0,0,1,2.59.56,11,11,0,0,0,2.77.4,13.63,13.63,0,0,0,2.86-.33,15.28,15.28,0,0,1,2.86-.36,15,15,0,0,1,2.77.26c.9.17,1.77.28,2.59.35a7.37,7.37,0,0,0,2.32-.28,7.37,7.37,0,0,1,2-.32,10.52,10.52,0,0,1,1.3,0,3.81,3.81,0,0,1,1.1.12v9a3.49,3.49,0,0,1-1.1.3,13.55,13.55,0,0,1-1.41.2,8.41,8.41,0,0,1-1.91,0c-.36,0-.71-.06-1.09-.11s-.78-.2-1.19-.22c-.82,0-1.69,0-2.59,0l-1.37,0-1.4-.06a21.63,21.63,0,0,1-2.86-.48,18.34,18.34,0,0,0-2.86-.45,13.33,13.33,0,0,0-2.77.12,18.43,18.43,0,0,1-2.59.23,11,11,0,0,1-2.32-.32,5.68,5.68,0,0,0-2-.07,8.06,8.06,0,0,0-1.39.27,3.85,3.85,0,0,0-1.19.51Z" style="fill:#fdd991"/><path d="M1253.41,489l1.39-.07c.77,0,2-.12,3.44-.15l5.23-.16c2-.08,4.28-.08,6.74-.12s5.14.06,8,.12l4.34.22,4.53.33c3.08.23,6.25.37,9.48.39l4.88-.08,4.91-.25c1.64-.08,3.28-.19,4.91-.25l4.88-.11,4.8.06,4.68.2c3.08.16,6,.28,8.87.35s5.48-.12,7.94-.28,4.72-.32,6.71-.31,3.74,0,5.18,0,2.37,0,3.14.08l1,0v9s-.21,0-1,.09-1.8.15-3.23.21-3.13.14-5.13.2c-1,0-2,.06-3.16.05s-2.29,0-3.52,0-2.51-.06-3.83-.12-2.69-.18-4.1-.22c-2.82,0-5.79,0-8.87,0l-4.68,0-4.8-.06-4.88-.19-4.91-.29-4.91-.29-4.88-.16c-3.23-.05-6.41,0-9.48.12l-4.53.16-4.34.06c-1.41,0-2.78-.05-4.11-.1l-3.84-.22c-1.23-.09-2.41-.1-3.53-.1s-2.18,0-3.18.05l-2.8.1c-.86,0-1.66.12-2.38.17-1.44.09-2.77.24-3.54.33l-1.39.16Z" style="fill:#fdbe4e"/><path d="M1201.41,541.44l1.34-.07c1,0,2.33-.12,4.16-.15l6.55-.16c2.55-.08,5.4-.08,8.53-.12s6.52.06,10.11.12l5.52.22,5.77.33c3.92.23,8,.37,12.07.39l6.21-.08,6.26-.25c2.09-.08,4.18-.19,6.26-.25l6.21-.11,6.11.06,6,.2c3.92.16,7.7.28,11.29.35s7-.12,10.12-.28,6-.32,8.55-.31,4.76,0,6.59,0,3.09,0,4.07.08l1.33,0v9l-1.33.09c-1,.06-2.33.15-4.16.21s-4,.14-6.55.2c-1.27,0-2.61.06-4,.05s-2.92,0-4.48,0l-4.88-.12c-1.69-.06-3.43-.18-5.23-.22-3.59,0-7.37,0-11.29,0l-6,0-6.11-.06-6.21-.19-6.26-.29-6.26-.29-6.21-.16c-4.11-.05-8.16,0-12.08.12l-5.77.16-5.52.06c-1.79,0-3.54-.05-5.23-.1l-4.89-.22c-1.57-.09-3.07-.1-4.5-.1s-2.78,0-4.05.05l-3.57.1c-1.1,0-2.11.12-3,.17-1.83.09-3.1.24-4.08.33a12.86,12.86,0,0,0-1.34.16Z" style="fill:#fdbe4e"/><path d="M1370.41,489l1-.07c.77,0,1.82-.12,3.26-.15l5.14-.16c2-.08,4.24-.08,6.7-.12s5.12.06,7.93.12l4.33.22,4.53.33c3.08.23,6.25.37,9.48.39l4.87-.08,4.91-.25c1.64-.08,3.28-.19,4.91-.25l4.88-.11,4.8.06,4.68.2c3.08.16,6,.28,8.87.35s5.48-.12,7.94-.28,4.72-.32,6.71-.31,3.74,0,5.18,0,2.73,0,3.5.08l1.35,0v9l-1.35.09c-.77.06-2,.15-3.42.21s-3.22.14-5.22.2c-1,0-2.08.06-3.21.05s-2.31,0-3.54,0-2.52-.06-3.84-.12-2.7-.18-4.11-.22c-2.82,0-5.79,0-8.87,0l-4.68,0-4.8-.06-4.88-.19-4.91-.29-4.91-.29-4.88-.16c-3.23-.05-6.41,0-9.48.12l-4.53.16-4.34.06c-1.41,0-2.78-.05-4.11-.1l-3.84-.22c-1.23-.09-2.41-.1-3.53-.1s-2.19,0-3.18.05l-2.8.1c-.87,0-1.66.12-2.38.17-1.44.09-2.41.24-3.18.33a7,7,0,0,0-1,.16Z" style="fill:#fdbe4e"/><path d="M1412.41,541.44l1-.07c.77,0,1.82-.12,3.25-.15l5.14-.16c2-.08,4.23-.08,6.69-.12s5.12.06,7.93.12l4.33.22,4.53.33c3.08.23,6.25.37,9.48.39l4.87-.08,4.91-.25c1.64-.08,3.28-.19,4.91-.25l4.88-.11,4.8.06,4.68.2c3.08.16,6,.28,8.87.35s5.48-.12,7.94-.28,4.72-.32,6.71-.31,3.74,0,5.18,0,2.74,0,3.51.08l1.35,0v9l-1.35.09c-.77.06-2,.15-3.42.21s-3.22.14-5.22.2c-1,0-2.08.06-3.21.05s-2.31,0-3.54,0-2.52-.06-3.84-.12-2.7-.18-4.11-.22c-2.82,0-5.79,0-8.87,0l-4.68,0-4.8-.06-4.88-.19-4.91-.29-4.91-.29-4.88-.16c-3.23-.05-6.41,0-9.48.12l-4.53.16-4.34.06c-1.41,0-2.78-.05-4.11-.1l-3.84-.22c-1.23-.09-2.41-.1-3.53-.1s-2.19,0-3.18.05l-2.8.1c-.87,0-1.66.12-2.38.17-1.44.09-2.4.24-3.17.33a6.72,6.72,0,0,0-1,.16Z" style="fill:#fdbe4e"/><path d="M968.41,436.48s-.08,0,.14-.07a7.72,7.72,0,0,1,.87-.17c.42-.07.88-.12,1.46-.16s1.22-.07,1.94-.1a13.94,13.94,0,0,1,2.31.12,19.08,19.08,0,0,1,2.59.56,11,11,0,0,0,2.77.4,13.64,13.64,0,0,0,2.86-.33,15.26,15.26,0,0,1,2.86-.36,15,15,0,0,1,2.77.26c.9.17,1.77.28,2.59.35a7.37,7.37,0,0,0,2.32-.28,7.37,7.37,0,0,1,2-.32,11.8,11.8,0,0,1,1.38,0,5,5,0,0,1,1.18.12v9a4.94,4.94,0,0,1-1.18.3,14.49,14.49,0,0,1-1.44.2,8.59,8.59,0,0,1-1.93,0c-.36,0-.72-.06-1.1-.11s-.78-.2-1.19-.22c-.82,0-1.69,0-2.59,0l-1.37,0-1.4-.06a21.62,21.62,0,0,1-2.86-.48,18.36,18.36,0,0,0-2.86-.45,13.32,13.32,0,0,0-2.77.12,18.43,18.43,0,0,1-2.59.23,11,11,0,0,1-2.32-.32,5.67,5.67,0,0,0-2-.07,7.06,7.06,0,0,0-1.31.27,2.79,2.79,0,0,0-1.11.51Z" style="fill:#f4f6f8"/><path d="M968.41,593.92s-.08,0,.14-.07a7.69,7.69,0,0,1,.87-.17c.42-.07.88-.12,1.46-.16s1.22-.07,1.94-.1a14,14,0,0,1,2.31.12,19.06,19.06,0,0,1,2.59.56,11,11,0,0,0,2.77.4,13.65,13.65,0,0,0,2.86-.33,15.26,15.26,0,0,1,2.86-.36,15,15,0,0,1,2.77.26c.9.17,1.77.28,2.59.35a7.37,7.37,0,0,0,2.32-.28,7.36,7.36,0,0,1,2-.32,11.83,11.83,0,0,1,1.38,0,5,5,0,0,1,1.18.12v9a4.94,4.94,0,0,1-1.18.3,14.49,14.49,0,0,1-1.44.2,8.59,8.59,0,0,1-1.93,0c-.36,0-.72-.06-1.1-.11s-.78-.2-1.19-.22c-.82,0-1.69,0-2.59,0l-1.37,0-1.4-.06a21.62,21.62,0,0,1-2.86-.48,18.37,18.37,0,0,0-2.86-.45,13.33,13.33,0,0,0-2.77.12,18.43,18.43,0,0,1-2.59.23,11,11,0,0,1-2.32-.32,5.68,5.68,0,0,0-2-.07,7.06,7.06,0,0,0-1.31.27,2.79,2.79,0,0,0-1.11.51Z" style="fill:#f4f6f8"/><path d="M983.41,489a2.46,2.46,0,0,1,.63-.24,4.71,4.71,0,0,1,.74-.16,9.33,9.33,0,0,1,1-.1,3.55,3.55,0,0,1,1.16.12,5.65,5.65,0,0,1,1.29.56,3,3,0,0,0,1.38.39,3.45,3.45,0,0,0,1.43-.33,4.11,4.11,0,0,1,1.43-.36,3.93,3.93,0,0,1,1.39.26,6.72,6.72,0,0,0,1.3.35,2,2,0,0,0,1.16-.28,2.13,2.13,0,0,1,1-.33,2.28,2.28,0,0,1,.62,0c.42,0,.52.12.52.12v9a1,1,0,0,1-.52.3,3.54,3.54,0,0,1-.69.2,2.09,2.09,0,0,1-.95,0c-.18,0-.35-.06-.54-.11s-.39-.2-.59-.22a6.7,6.7,0,0,0-1.29,0,5.11,5.11,0,0,1-1.38,0,6.11,6.11,0,0,1-1.43-.48,5.11,5.11,0,0,0-1.43-.45,3.39,3.39,0,0,0-1.39.12,4.78,4.78,0,0,1-1.3.23,2.78,2.78,0,0,1-1.16-.33,1.54,1.54,0,0,0-1-.06,2.58,2.58,0,0,0-.72.27,2.21,2.21,0,0,0-.63.51Z" style="fill:#f4f6f8"/><path d="M1181.41,489a3.64,3.64,0,0,1,.67-.24,5.07,5.07,0,0,1,.76-.16,9.54,9.54,0,0,1,1-.1,3.59,3.59,0,0,1,1.16.12,5.68,5.68,0,0,1,1.3.56,3,3,0,0,0,1.39.39,3.45,3.45,0,0,0,1.43-.33,4.11,4.11,0,0,1,1.43-.36,3.93,3.93,0,0,1,1.39.26,6.74,6.74,0,0,0,1.3.35,2,2,0,0,0,1.16-.28,2.13,2.13,0,0,1,1-.33,2,2,0,0,1,.57,0c.42,0,.48.12.48.12v9s-.06.16-.48.3a3.28,3.28,0,0,1-.67.2,2,2,0,0,1-.94,0c-.18,0-.34-.06-.54-.11s-.38-.2-.59-.22a6.69,6.69,0,0,0-1.29,0,5.1,5.1,0,0,1-1.38,0,6.11,6.11,0,0,1-1.43-.48,5.11,5.11,0,0,0-1.43-.45,3.39,3.39,0,0,0-1.39.12,4.78,4.78,0,0,1-1.3.23,2.78,2.78,0,0,1-1.16-.33,1.54,1.54,0,0,0-1-.06,2.93,2.93,0,0,0-.77.27,3.08,3.08,0,0,0-.67.51Z" style="fill:#f4f6f8"/><path d="M1168.41,541.44a5.25,5.25,0,0,1,.71-.24,5.37,5.37,0,0,1,.78-.16,9.75,9.75,0,0,1,1-.1,3.62,3.62,0,0,1,1.17.12,5.67,5.67,0,0,1,1.3.56,3,3,0,0,0,1.39.39,3.46,3.46,0,0,0,1.43-.33,4.11,4.11,0,0,1,1.43-.36,3.93,3.93,0,0,1,1.39.26,6.74,6.74,0,0,0,1.3.35,2,2,0,0,0,1.16-.28,2.13,2.13,0,0,1,1-.33,1.68,1.68,0,0,1,.53,0c.42,0,.44.12.44.12v9s0,.16-.44.3a3.06,3.06,0,0,1-.64.2,2,2,0,0,1-.93,0c-.18,0-.34-.06-.53-.11s-.38-.2-.59-.22a6.67,6.67,0,0,0-1.29,0,5.1,5.1,0,0,1-1.38,0,6.1,6.1,0,0,1-1.43-.48,5.11,5.11,0,0,0-1.43-.45,3.39,3.39,0,0,0-1.39.12,4.78,4.78,0,0,1-1.3.23,2.78,2.78,0,0,1-1.16-.33,1.54,1.54,0,0,0-1-.06,3.25,3.25,0,0,0-.81.27,4.27,4.27,0,0,0-.71.51Z" style="fill:#f4f6f8"/><path d="M1345.41,541.44s.07-.13.49-.24a3.79,3.79,0,0,1,.67-.16,8.62,8.62,0,0,1,.94-.1,3.46,3.46,0,0,1,1.14.12,5.59,5.59,0,0,1,1.29.56,3,3,0,0,0,1.38.39,3.44,3.44,0,0,0,1.43-.33,4.1,4.1,0,0,1,1.43-.36,3.93,3.93,0,0,1,1.39.26,6.73,6.73,0,0,0,1.3.35,2,2,0,0,0,1.16-.28,2.13,2.13,0,0,1,1-.33,3.36,3.36,0,0,1,.75,0,2,2,0,0,1,.66.12v9a2.78,2.78,0,0,1-.66.3,4.37,4.37,0,0,1-.75.2,2.24,2.24,0,0,1-1,0c-.18,0-.37-.06-.56-.11s-.39-.2-.6-.22a6.74,6.74,0,0,0-1.3,0,5.13,5.13,0,0,1-1.39,0,6.11,6.11,0,0,1-1.43-.48,5.12,5.12,0,0,0-1.43-.45,3.39,3.39,0,0,0-1.39.12,4.78,4.78,0,0,1-1.3.23,2.78,2.78,0,0,1-1.16-.33,1.54,1.54,0,0,0-1-.06,1.74,1.74,0,0,0-.59.27,1,1,0,0,0-.49.51Z" style="fill:#f4f6f8"/><path d="M1011.41,436.48l.95-.07c.73,0,1.71-.12,3.07-.15l4.87-.16c1.9-.08,4-.08,6.35-.12s4.85.06,7.53.12l4.11.22,4.29.33c2.92.23,5.93.37,9,.39l4.62-.08,4.66-.25c1.56-.08,3.11-.19,4.66-.25l4.63-.11,4.55.06,4.44.2c2.92.16,5.74.28,8.41.35a72.48,72.48,0,0,0,7.54-.28c2.33-.17,4.47-.32,6.37-.31s3.55,0,4.91,0,2.31,0,3,.08l1,0v9l-1,.09c-.73.06-1.74.15-3.1.21s-3,.14-4.88.2c-.95,0-1.94.06-3,.05s-2.17,0-3.34,0-2.38-.06-3.64-.12-2.56-.18-3.89-.22c-2.67,0-5.49,0-8.41,0l-4.44,0-4.55-.06-4.63-.19-4.66-.29-4.66-.29-4.63-.16c-3.06-.05-6.08,0-9,.12l-4.3.16-4.11.06c-1.34,0-2.64-.05-3.9-.1l-3.64-.22c-1.17-.09-2.29-.1-3.35-.1s-2.07,0-3,.05l-2.66.1c-.82,0-1.57.12-2.25.17-1.36.09-2.26.24-3,.33a5.29,5.29,0,0,0-.95.16Z" style="fill:#fdbe4e"/><path d="M1002.41,541.44l.36-.07c.23,0,.57-.12,1-.17s.93-.12,1.52-.16,1.25-.07,2-.1a14.11,14.11,0,0,1,2.32.12,19.17,19.17,0,0,1,2.59.56,11,11,0,0,0,2.77.4,13.65,13.65,0,0,0,2.86-.33,15.28,15.28,0,0,1,2.86-.36,15,15,0,0,1,2.77.26c.9.17,1.77.28,2.59.35a7.37,7.37,0,0,0,2.32-.28,7.36,7.36,0,0,1,2-.32c.58,0,1.23,0,1.65,0a11.22,11.22,0,0,1,1.46.12v9s-.62.16-1.46.3c-.42.09-1,.14-1.58.2a9.21,9.21,0,0,1-2,0c-.36,0-.75-.06-1.14-.11s-.8-.2-1.21-.22c-.82,0-1.7,0-2.6,0l-1.37,0-1.4-.06a21.66,21.66,0,0,1-2.86-.48,18.38,18.38,0,0,0-2.86-.45,13.33,13.33,0,0,0-2.77.12,18.43,18.43,0,0,1-2.59.23,11,11,0,0,1-2.32-.32,5.68,5.68,0,0,0-2-.07,10.15,10.15,0,0,0-1.53.27,7.28,7.28,0,0,0-1.34.51Z" style="fill:#fdd991"/><path d="M1370.41,541.44s.24,0,.46-.07.61-.12,1-.17,1-.12,1.54-.16,1.26-.07,2-.1a14.18,14.18,0,0,1,2.33.12,19.22,19.22,0,0,1,2.6.56,11,11,0,0,0,2.77.4,13.66,13.66,0,0,0,2.86-.33,15.29,15.29,0,0,1,2.86-.36,15,15,0,0,1,2.77.26c.9.17,1.77.28,2.59.35a7.37,7.37,0,0,0,2.32-.28,7.36,7.36,0,0,1,2-.32,15.07,15.07,0,0,1,1.56,0,8.66,8.66,0,0,1,1.36.12v9a11,11,0,0,1-1.36.3c-.42.09-.95.14-1.53.2a9,9,0,0,1-2,0c-.36,0-.74-.06-1.13-.11s-.79-.2-1.2-.22c-.82,0-1.69,0-2.59,0l-1.37,0-1.4-.06a21.67,21.67,0,0,1-2.86-.48,18.37,18.37,0,0,0-2.86-.45,13.33,13.33,0,0,0-2.77.12,18.44,18.44,0,0,1-2.59.23,11,11,0,0,1-2.32-.32,5.68,5.68,0,0,0-2-.07,11.66,11.66,0,0,0-1.63.27,11.43,11.43,0,0,0-1.44.51Z" style="fill:#fdd991"/><path d="M1047.41,541.44l1-.07c.77,0,1.83-.12,3.26-.15l5.14-.16c2-.08,4.24-.08,6.7-.12s5.12.06,7.94.12l4.33.22,4.53.33c3.08.23,6.25.37,9.48.39l4.87-.08,4.91-.25c1.64-.08,3.28-.19,4.91-.25l4.88-.11,4.8.06,4.68.2c3.08.16,6,.28,8.87.35s5.48-.12,7.94-.28,4.72-.32,6.71-.31,3.74,0,5.18,0,2.72,0,3.49.08l1.34,0v9l-1.34.09c-.77.06-2,.15-3.41.21s-3.22.14-5.22.2c-1,0-2.08.06-3.2.05s-2.31,0-3.54,0-2.52-.06-3.84-.12-2.7-.18-4.11-.22c-2.82,0-5.79,0-8.87,0l-4.68,0-4.8-.06-4.88-.19-4.91-.29-4.91-.29-4.88-.16c-3.23-.05-6.41,0-9.48.12l-4.53.16-4.34.06c-1.41,0-2.78-.05-4.11-.1l-3.84-.22c-1.23-.09-2.41-.1-3.53-.1s-2.18,0-3.18.05l-2.8.1c-.86,0-1.66.12-2.38.17-1.44.09-2.42.24-3.19.33a7.55,7.55,0,0,0-1,.16Z" style="fill:#fdbe4e"/><path d="M1131.41,436.48l1.23-.07c.73,0,1.86-.12,3.22-.15l4.94-.16c1.9-.08,4.05-.08,6.38-.12s4.87.06,7.54.12l4.12.22,4.3.33c2.92.23,5.93.37,9,.39l4.63-.08,4.66-.25c1.56-.08,3.11-.19,4.66-.25l4.63-.11,4.55.06,4.44.2c2.92.16,5.74.28,8.41.35a72.48,72.48,0,0,0,7.54-.28c2.33-.17,4.47-.32,6.37-.31s3.55,0,4.91,0,2.52,0,3.25.08l1.21,0v9l-1.21.09c-.73.06-1.84.15-3.21.21s-3,.14-4.93.2c-.95,0-2,.06-3,.05s-2.19,0-3.35,0-2.39-.06-3.64-.12-2.56-.18-3.9-.22c-2.67,0-5.5,0-8.41,0l-4.44,0-4.55-.06-4.63-.19-4.66-.29-4.66-.29-4.63-.16c-3.06-.05-6.08,0-9,.12l-4.3.16-4.11.06c-1.34,0-2.64-.05-3.9-.1l-3.64-.22c-1.17-.09-2.29-.1-3.35-.1s-2.07,0-3,.05l-2.66.1c-.82,0-1.57.12-2.25.17-1.36.09-2.55.24-3.28.33s-1.23.16-1.23.16Z" style="fill:#fdbe4e"/><polygon points="1043.64 652.19 1038.17 643.6 1038.45 641.98 1048.57 647.63 1052.91 656.35 1043.64 652.19" style="fill:#8183bf"/><path d="M585.93,927.51c-3-.65-50.61-27-91-54.79-33.09-22.84-61.37-46.57-56.24-57.84,6.69-14.82,159.7-225.63,159.62-225.7,16.44-10.6,99.84-51.42,102.93-51.14,5,.53,54.27,24.44,71,50a41.52,41.52,0,0,1,2.82,4.87c.6,28.34,1.38,56.63,1.51,85C776.69,711.09,617.7,934.17,585.93,927.51Z" style="fill:#ebecf2;stroke:#ebecf2;stroke-miterlimit:10;stroke-width:3px"/><path d="M585.93,927.51c-3-.65-50.61-27-91-54.79,9.3-56.18,51.67-81.25,109.29-108.18,32.22-15,68-30.14,93.52-55,28.86-28,38.89-64.75,58.69-98.81a154.4,154.4,0,0,1,15.83-22.72,41.52,41.52,0,0,1,2.82,4.87c.6,28.34,1.38,56.63,1.51,85C776.69,711.09,617.7,934.17,585.93,927.51Z" style="fill:#e0e3ed;stroke:#e0e3ed;stroke-miterlimit:10;stroke-width:5px"/><path d="M705.33,587.51c22.86-13.83,37.58,51.44,1.73,44.93-13.79-2.51-17.81-25.88-9.57-37.22A28.12,28.12,0,0,1,705.33,587.51Z" style="fill:#e0e3ed;stroke:#e0e3ed;stroke-miterlimit:10;stroke-width:5px"/><path d="M593.4,687.33a3.63,3.63,0,0,0,.78.66,5.52,5.52,0,0,0,.71.38,9.18,9.18,0,0,0,2,.56,14.87,14.87,0,0,0,2.19.23,21.41,21.41,0,0,0,2.28,0,34.4,34.4,0,0,0,4.62-.58c.77-.15,1.53-.32,2.3-.5s1.52-.39,2.28-.6a37.88,37.88,0,0,0,8.58-3.65l1-.61.91-.65.86-.69.78-.73a9.13,9.13,0,0,0,1.27-1.55,5,5,0,0,0,.69-1.6l2.35,2.13a11.67,11.67,0,0,0-7.28,5.53,14,14,0,0,0-1.6,4.53,18.7,18.7,0,0,0-.12,5,8.06,8.06,0,0,0,1.37,4.19c.72,1,2.2,1.56,3.87,2.18a40.8,40.8,0,0,1,5.2,2.16l1.28.7,1.18.72,2.3,1.47,4.54,2.92c1.52.94,3,1.93,4.49,2.79a16.33,16.33,0,0,0,2.24,1.07c.41.17.84.37,1.23.51l1.17.41a22.87,22.87,0,0,0,4.88,1.09,22.4,22.4,0,0,0,5,0c1.7-.19,3.43-.49,5.18-.85,3.49-.77,7.09-1.54,10.73-2.13a1.67,1.67,0,0,1,1.8,2.3l-.07.15-.25.58-.19.58-.12.58,0,.58a5.12,5.12,0,0,0,.11,1.14,5,5,0,0,0,.38,1.12,6.53,6.53,0,0,0,.62,1.09,11,11,0,0,0,.82,1,14.19,14.19,0,0,0,2.06,1.88,24.29,24.29,0,0,0,5.07,2.89,25.91,25.91,0,0,0,5.61,1.7,1.8,1.8,0,0,1-.59,3.56,29.52,29.52,0,0,1-6.47-1.85,28,28,0,0,1-5.93-3.26,17.93,17.93,0,0,1-2.64-2.35,12.09,12.09,0,0,1-1.13-1.47,10.27,10.27,0,0,1-.92-1.7,8.76,8.76,0,0,1-.6-1.92,8.89,8.89,0,0,1-.15-2c0-.34.07-.68.11-1s.14-.66.23-1,.21-.63.32-.94l.4-.88,2,2.88c-1.74.25-3.48.53-5.22.85s-3.5.69-5.28,1-3.61.74-5.5,1a26,26,0,0,1-5.8.09,25.52,25.52,0,0,1-5.69-1.21l-1.39-.48c-.46-.16-.85-.34-1.27-.51a20.39,20.39,0,0,1-2.64-1.25c-3.27-1.86-6.18-4-9.18-6L628.95,708l-1.11-.71-1.08-.62a36.19,36.19,0,0,0-4.74-2.09,21.83,21.83,0,0,1-2.67-1.18,10.57,10.57,0,0,1-1.37-.89,7.68,7.68,0,0,1-1.19-1.25,8.76,8.76,0,0,1-1.43-2.95l-.32-1.48-.18-1.49a23.49,23.49,0,0,1,.08-5.75A17.18,17.18,0,0,1,616.8,684a15.13,15.13,0,0,1,9.2-7.31h0a1.57,1.57,0,0,1,1.94,1.09,1.59,1.59,0,0,1,0,.75,8.44,8.44,0,0,1-1.09,2.85,12.57,12.57,0,0,1-1.74,2.25c-.33.32-.67.62-1,.92l-1.05.83-1.08.75-1.11.69a42,42,0,0,1-9.44,3.93c-.82.23-1.63.45-2.46.63s-1.65.38-2.49.55a37.72,37.72,0,0,1-5.09.66,24.7,24.7,0,0,1-2.61,0,18.18,18.18,0,0,1-2.67-.27,13.71,13.71,0,0,1-2.74-.76,8.43,8.43,0,0,1-2.55-1.68l-.06-.06a1.8,1.8,0,0,1,2.57-2.52Z" style="fill:#a7b3d9"/><path d="M574.28,721.68l1.28.8,1.12.53c.42.15.83.32,1.26.46s.87.25,1.31.35a21.4,21.4,0,0,0,2.73.4c.93.07,1.87.08,2.81.06s1.9-.09,2.86-.18,1.91-.24,2.87-.39c1.92-.33,3.83-.77,5.74-1.28a2,2,0,0,1,1.93,3.26l0,0a17.39,17.39,0,0,0-3.09,4l-.26.52-.16.52a4.59,4.59,0,0,0-.2,1,4,4,0,0,0,.38,2,9.72,9.72,0,0,0,3.28,3.58,32.2,32.2,0,0,0,4.73,2.81c3.39,1.62,7,3,10.55,4.55a55.57,55.57,0,0,1,5.36,2.61c.44.25.89.51,1.32.81a15,15,0,0,1,1.3.93,15.3,15.3,0,0,1,1.26,1.1l.3.33.24.27.47.55a26.93,26.93,0,0,1,1.85,2.55c.56.87,1,1.75,1.52,2.64.92,1.77,1.7,3.54,2.53,5.21a22.9,22.9,0,0,0,2.84,4.57,15.11,15.11,0,0,0,4,3.35,21.57,21.57,0,0,0,5,2,25.58,25.58,0,0,0,5.28.73c3.64.2,7.41-.29,11.32-.46a1.8,1.8,0,0,1,.25,3.59h0a90.81,90.81,0,0,1-11.74.71,26.1,26.1,0,0,1-6.16-1,25.53,25.53,0,0,1-5.72-2.48,20.85,20.85,0,0,1-4.83-4.17,26.29,26.29,0,0,1-3.37-5.18l-2.58-5.15c-.44-.8-.88-1.6-1.37-2.35a11.84,11.84,0,0,0-.73-1.06,10.65,10.65,0,0,0-.81-1l-.89-1a11.64,11.64,0,0,0-.89-.82,11.45,11.45,0,0,0-1-.78c-.35-.26-.73-.5-1.12-.73a52.12,52.12,0,0,0-4.94-2.6c-3.43-1.62-7-3.09-10.52-4.88a42,42,0,0,1-5.21-3,13,13,0,0,1-4.43-4.73,7.44,7.44,0,0,1-.79-3.52,7.94,7.94,0,0,1,.27-1.77l.24-.85.34-.77a17.22,17.22,0,0,1,3.75-5.08l1.55,2.7c-2,.5-4,.94-6.07,1.27-1,.16-2.06.3-3.11.4l-1.57.11c-.53,0-1.06,0-1.58.07a31.46,31.46,0,0,1-3.2-.06,24.72,24.72,0,0,1-3.22-.47c-.54-.12-1.06-.28-1.6-.43s-1-.39-1.57-.57-1.08-.49-1.62-.74l-1.32-.76a1.8,1.8,0,0,1,1.81-3.12l0,0Z" style="fill:#a7b3d9"/><path d="M540,765.91c.41.21.86.47,1.25.65s.75.36,1.18.53A26.68,26.68,0,0,0,545,768c.86.28,1.74.51,2.63.72s1.79.39,2.69.54,1.81.28,2.73.38,1.83.18,2.75.23,1.84.09,2.76.11,1.84,0,2.76,0a47,47,0,0,0,5.47-.53c.9-.14,1.8-.31,2.68-.52s1.76-.43,2.61-.71a24.8,24.8,0,0,0,2.51-.92c.41-.16.82-.34,1.21-.53s.79-.38,1.17-.6a17,17,0,0,0,2.18-1.4,15.7,15.7,0,0,0,1.9-1.68l-.13,2.28a13.57,13.57,0,0,0-11.19-5.67,7.51,7.51,0,0,0-5.47,2.44,10.63,10.63,0,0,0-2.35,5.9,7.48,7.48,0,0,0,0,.77,4.07,4.07,0,0,0,0,.75c0,.26,0,.52.07.78l.15.76a9.09,9.09,0,0,0,1.25,2.81,15.36,15.36,0,0,0,4.95,4.34,39.48,39.48,0,0,0,6.41,3c2.23.87,4.54,1.62,6.89,2.35s4.72,1.41,7.14,2.33c.3.11.61.25.91.37a3.2,3.2,0,0,0,.65.21,4,4,0,0,0,.54.06,7.43,7.43,0,0,0,.75,0c1.08-.06,2.29-.31,3.75-.35a5.92,5.92,0,0,1,2.51.41l.35.18.17.1.08,0,.14.1,0,0,.36.29a7.08,7.08,0,0,1,.85.81,14.92,14.92,0,0,1,2.21,3.57,59.68,59.68,0,0,0,3.05,6.52,10.18,10.18,0,0,0,.95,1.24,7,7,0,0,0,.52.51l.1.09.18.14.37.28c.49.38,1,.76,1.44,1.05s.93.63,1.44.93a62.55,62.55,0,0,0,6.37,3.25c2.21,1,4.5,2,6.79,3.08a28.06,28.06,0,0,1,6.61,4.32,1.8,1.8,0,0,1-2.41,2.68l0,0a24.67,24.67,0,0,0-5.8-3.63c-2.15-1-4.43-1.93-6.73-2.93a48.34,48.34,0,0,1-6.81-3.53,30.83,30.83,0,0,1-3.19-2.28l-.36-.29-.18-.14c-.16-.13-.17-.15-.26-.23a10.87,10.87,0,0,1-.81-.82,13.84,13.84,0,0,1-1.29-1.77,60.57,60.57,0,0,1-3.14-6.95,10.18,10.18,0,0,0-1.57-2.65,2.3,2.3,0,0,0-.46-.44l-.37-.28,0,0,.11.08h0l0,0a2.63,2.63,0,0,0-1-.1c-1,0-2.21.29-3.61.39a11.12,11.12,0,0,1-1.11,0,6.84,6.84,0,0,1-1.33-.16,6.27,6.27,0,0,1-1.13-.37c-.27-.1-.52-.22-.8-.31-2.19-.81-4.57-1.48-6.94-2.21s-4.77-1.48-7.14-2.39a42.78,42.78,0,0,1-6.94-3.39,18.75,18.75,0,0,1-5.93-5.51,12.58,12.58,0,0,1-1.66-3.94l-.18-1.06c0-.35-.05-.71-.08-1.06a13.51,13.51,0,0,1,.09-2.16,13.76,13.76,0,0,1,3.26-7.51,11.17,11.17,0,0,1,7.6-3.49,16.14,16.14,0,0,1,7.92,1.68,16.65,16.65,0,0,1,6.25,5.16h0a1.56,1.56,0,0,1-.12,2,19.11,19.11,0,0,1-2.3,2.15,20.44,20.44,0,0,1-2.57,1.73c-.44.26-.89.51-1.35.73s-.91.45-1.38.64a28.3,28.3,0,0,1-2.84,1q-1.44.45-2.9.76c-1,.22-1.95.39-2.92.54a51.46,51.46,0,0,1-5.89.53c-1,0-2,0-2.95,0s-2-.08-2.94-.13-2-.13-2.94-.24-2-.23-2.93-.4-1.94-.35-2.91-.58-1.93-.48-2.88-.78-1.91-.62-2.85-1c-.47-.17-1-.4-1.44-.62s-.87-.43-1.31-.65a1.8,1.8,0,1,1,1.59-3.23h0Z" style="fill:#a7b3d9"/><line x1="649.41" y1="928.28" x2="495.41" y2="928.28" style="fill:none;stroke:#e0e3ed;stroke-miterlimit:10;stroke-width:4px"/><path d="M1570.91,788.78v205h-185.8c1.8-37,4.55-67.48,42.25-85.29,20.5-9.68,37.27-21.58,51.49-39.5,17.08-21.53,18.14-46.36,23.27-72.2.53-2.67,1.06-5,1.65-8Z" style="fill:#e7e9f0;stroke:#e7e9f0;stroke-miterlimit:10;stroke-width:3px;opacity:0.5"/><line x1="1569.91" y1="840.28" x2="1569.91" y2="860.28" style="fill:none;stroke:#dfe2ec;stroke-miterlimit:10;stroke-width:3px"/><polyline points="1569.91 921.28 1569.91 993.78 1242.91 993.78 1242.91 849.28" style="fill:none;stroke:#dfe2ec;stroke-miterlimit:10;stroke-width:3px"/><polyline points="1242.91 818.28 1242.91 789.78 1569.91 789.78 1569.91 815.28" style="fill:none;stroke:#dfe2ec;stroke-miterlimit:10;stroke-width:3px"/><path d="M719.33,631.34c3.42,34.78-2.75,53.06-4.56,89.6-1.82,37-5.62,73.47-7.2,110.32-1.24,28.79,1.87,63.42,34.58,70.09,48.2,9.83,101.24-2.16,149.91-4.46,31.87-1.51,66.09-3.7,97.41,3.63,11.24,2.63,44.59,10.06,44.89,25-61.94,11.73-127.66,13.29-191.25,13.72-37.08.25-85.21,1.18-114.9,27.37-31.79,28,11.13,25.33,28.9,32.62" style="fill:none;stroke:#fff;stroke-linecap:round;stroke-linejoin:round;stroke-width:5px"/><path d="M753,800.09l1.24.33c.81.22,2,.53,3.49,1l5.4,1.6c2.09.6,4.42,1.36,7,2.16s5.28,1.79,8.17,2.8l4.41,1.68,4.58,1.85c3.11,1.26,6.35,2.47,9.68,3.57l5.06,1.58,5.16,1.43c1.72.48,3.45.93,5.16,1.43l5.07,1.54,4.94,1.68,4.78,1.77c3.13,1.19,6.16,2.31,9.06,3.33s5.71,1.74,8.3,2.42,5,1.29,7,2,3.88,1.22,5.35,1.74,2.63.91,3.42,1.2l1.21.44-2.8,8.56-1.25-.32c-.81-.2-2-.5-3.51-.93s-3.33-.94-5.41-1.56c-1-.3-2.15-.64-3.31-1s-2.39-.75-3.64-1.21-2.58-.9-3.93-1.41-2.73-1.08-4.18-1.6c-2.91-1-6-1.94-9.17-3l-4.85-1.55-4.94-1.68-5-1.83-5-1.94-5-1.93-5-1.8c-3.32-1.14-6.62-2.17-9.84-3.09L780,817.92l-4.5-1.41c-1.46-.48-2.86-1-4.21-1.48l-3.9-1.51c-1.24-.5-2.46-.91-3.62-1.29s-2.26-.73-3.31-1l-2.93-.85c-.91-.26-1.75-.45-2.51-.64-1.51-.4-2.72-.64-3.55-.81s-1.27-.24-1.27-.24Z" style="fill:#fdbe4e"/><path d="M849.45,980.42c-2.86,6.48-2.25,14.19-5.22,20.52-1,2.16-13.17,13.46-13.91,12.13A95.57,95.57,0,0,0,840.77,1028a11.13,11.13,0,0,0,3.32,2.93,11.83,11.83,0,0,0,4.66.9l7.6.43c-2-6.12-10.75-15.62-9.13-22.15a13.74,13.74,0,0,1,2.38-4.48,197.32,197.32,0,0,1,20.35-24" style="fill:#8183bf"/><path d="M905.72,800.77c-15.87,10.6-27.31,32.15-24.19,51.58.69,4.29,2.1,8.42,3.15,12.63,3,12.15,2.22,24.23.82,36.54-2.1,18.42-15.87,25.79-24.46,40.76-3.46,6-5.82,13-7.92,19.6-3.93,12.4-6,18.12-7.56,26.81-1.5,8.4-2.64,1.6,2.86,9.45.44.62,5.46,4.35,5.66,4.11,9.06-10.63,19.25-20.3,28-31,8.09-9.88,15.25-20.9,23.24-31.06,3.75-4.77,7.54-9.59,10.2-15a85.5,85.5,0,0,0,4.59-12.66c6.15-20.21,10.67-40.38,16.13-60.54" style="fill:#3e4166"/><path d="M915.95,921.33a72.11,72.11,0,0,1-5,9.32c-1.58,2.54-3.28,5-5,7.46a403.3,403.3,0,0,1-41.68,50.16c-.23-10.61,8-19.15,14.27-27.74,6.92-9.53,11.94-21.31,10-32.92-.29-1.67-.7-3.45,0-5a7.59,7.59,0,0,1,2.05-2.42c10-8.9,20.58-15.75,25.33-29,1.51-4.22,2.21-9.42-.76-12.78a41,41,0,0,0-3.63-3.06c-3.91-3.51-4.93-9.57-3.16-14.51,2.52-7,12.53-14.31,20-9,1.72,1.21-.56,2.38.49,4.21a23,23,0,0,1,2.42,7.7c1.65,10-3.19,18.48-6.74,27.45C920.58,901,920.21,911.54,915.95,921.33Z" style="fill:#0c1238;opacity:0.30000000000000004"/><path d="M933.79,993a89.59,89.59,0,0,1-5.85,34.82c-.35.91-.66,2.07,0,2.75a2.5,2.5,0,0,0,1.61.51c7.34.55,20.55,3.63,27.3-.25a29.64,29.64,0,0,0-15.35-9.9c1.38-11.74,2.31-23,6.46-34.12" style="fill:#8183bf"/><path d="M956.39,798.39c27.13,66.81,5.42,145.14-12.89,211.51-1.16,4.19-8.9,1.75-13.17,2.58-.62-25.1-7.26-48.38-2.15-73.5,1.88-9.23,8.5-19.75,8.45-28.84-.09-15.85-6.17-30.22-14.86-43-14.4-21.22-10.72-45.49,2.6-66" style="fill:#3e4166"/><path d="M893.7,721.67c-3,6,3.24,12.39,7.67,15.72,4.79,3.6,10.46,5.79,16,7.94,22.53,10,31.13-12.26,37.34-29.46a2,2,0,0,0,0-1.9c-.41-.52-1.19-.49-1.86-.44-5.59.42-12.72-2.24-16.12-6.89-3.82-5.24-1.74-13,2.69-17.74-3.43,3.66-9.73-6.08-13-5.8-6.09.53-4.28,9.84-4.73,13.84-1,9.35-8.22,11.55-15.61,14.34C901,713.25,896.2,716.59,893.7,721.67Z" style="fill:#8183bf"/><path d="M902.14,714c-8.55,5.42-12.42,12.8-15.95,21.39-28,68.07-54.82,83.36-52.75,87.86,1.19,2.59-.15,4.92,2,6.79,29.79-26,51.93-56.89,74.67-88.85" style="fill:#8183bf"/><path d="M931.53,834.43a23.86,23.86,0,0,0,6.36-6c2.58-3.51,4-7.89,7.3-10.79,5.84-5.19,15.19-3.57,21.87.49a5.83,5.83,0,0,0,.41-4c-1-5.72-5.39-10.15-9-14.69-13.29-16.59.57-30.66,6.08-46.85,4.16-12.23,2.31-23.2-.22-35.57-.36-1.78-1-3.85-2.95-4.4-1.13-.33-2.36,0-3.54-.1-10.46-.9-15.94,11.8-25,15.88-6.91,3.12-15.68,3.19-21.5-1.67-4.08-3.41-6.14-8.6-8-13.57a9.37,9.37,0,0,1-5,1.42c-5.44-.05,3.4,45.78,3.64,50.65.69,14.13-1.17,30.39-11.84,40.81-2.49,2.44-5.41,4.47-7.56,7.21s-3.43,6.55-2.05,9.75a10.49,10.49,0,0,0,3.78,4.21C896.53,835.94,917.85,843.2,931.53,834.43Z" style="fill:#fff"/><polygon points="952.43 664.96 952.92 678.42 958.5 672.89 952.43 664.96" style="fill:#fdbe4e"/><path d="M954.4,665.1a134.2,134.2,0,0,1-.91,13.83c-.63,6.21-1.43,18.58-9.6,18.55-3.68,0-6.94-1.44-10.41-2.49-3.92-1.19-7.49-3.21-11.22-4.88-3.19-1.43-6.39-1.78-8.75-4.4-4.54-5-6.47-12.12-6.47-18.76,0-16.35,11.72-24.53,23.63-29.6,6.8-2.9,12.68-.38,16.86,4.82a31.14,31.14,0,0,1,5.81,12.6A46.41,46.41,0,0,1,954.4,665.1Z" style="fill:#8183bf"/><polyline points="1037.14 670.35 1034.52 651.72 1038.36 642.39 1040.29 645.36 1039.51 651.07 1041.4 656.9 1043.64 652.19 1038.17 643.6 1038.45 641.98 1048.57 647.63 1052.91 656.35 1045.89 669.03" style="fill:#8183bf"/><polyline points="836.54 819.17 820.55 822.17 815.34 828.59 816.44 828.05 814.98 828.79 820.78 836.8 827.82 838.37 837.87 827.92" style="fill:#8183bf"/><path d="M1049.64,659.42c-4.73,16.08-8.35,30.55-18.6,44.4-9.94,13.44-23.65,24.37-39.94,28.87-7.37,2-15.15,2.81-22.06,6.07a21.56,21.56,0,0,0-12.73,17.06c-10.1-4.92-3.38-29.76.18-37a8.27,8.27,0,0,1,3.3-4,9.57,9.57,0,0,1,4.76-.57c31.94,1.3,62-17.14,73.64-47" style="fill:#8183bf"/><path d="M968.74,1033.58l-.91,0c-.3,0-.66,0-1.09-.06a12.8,12.8,0,0,0-1.48-.11,6.49,6.49,0,0,0-.88.16,2.69,2.69,0,0,1-1-.08,5.3,5.3,0,0,0-1-.18c-.36,0-.73.05-1.12.08-.77.08-1.59.24-2.46.36-.43,0-.88.08-1.33.1a7.15,7.15,0,0,1-1.39-.18,3.8,3.8,0,0,0-1.45,0,5.86,5.86,0,0,1-1.51.19c-1,0-2.08-.29-3.17-.36a10.46,10.46,0,0,0-3.35.17,2.35,2.35,0,0,1-.86,0c-.29-.07-.58-.2-.87-.26a1.31,1.31,0,0,0-.44,0,3.1,3.1,0,0,0-.44.14,2.7,2.7,0,0,1-.89.06c-1.19,0-2.39-.11-3.62-.17-.61,0-1.23,0-1.84,0a4.87,4.87,0,0,1-1.86-.22,2.79,2.79,0,0,0-1.88,0,3.69,3.69,0,0,1-1.89,0,9.23,9.23,0,0,0-1.9-.26,17.24,17.24,0,0,0-1.9.13c-1.27.07-2.53,0-3.79,0-.63,0-1.26-.09-1.89-.13a8.87,8.87,0,0,0-1.88.18c-1.25.24-2.48.32-3.71.46a11.23,11.23,0,0,1-3.62-.11,10.93,10.93,0,0,0-3.5.23c-.29.05-.57.07-.85.1a4.26,4.26,0,0,1-.84,0c-.28,0-.56-.11-.83-.15a4,4,0,0,0-.82,0,6.14,6.14,0,0,1-3.17-.1c-1-.35-2,.18-3-.14a2,2,0,0,0-1.39,0,2.35,2.35,0,0,1-1.33.08,10.56,10.56,0,0,0-2.46-.26c-.39,0-.76.1-1.12.15a4.17,4.17,0,0,1-1,0,4.85,4.85,0,0,0-1.84-.1,12,12,0,0,1-2.57.35,8.71,8.71,0,0,1-.91,0v-2.4h.23a6.56,6.56,0,0,1,.68,0,12.69,12.69,0,0,1,2.57.23,4.23,4.23,0,0,0,.88,0c.31,0,.63-.15,1-.23a3.1,3.1,0,0,1,1-.05,11,11,0,0,0,1.12.16,9.68,9.68,0,0,0,2.46-.36,1.79,1.79,0,0,1,1.33.13,1.58,1.58,0,0,0,1.39.09c.95-.41,1.94.45,3,.09a5.91,5.91,0,0,1,3.17,0,4.7,4.7,0,0,0,1.65-.11,4.55,4.55,0,0,1,.84,0c.28,0,.57,0,.85.08a9.09,9.09,0,0,0,3.5.06,9.68,9.68,0,0,1,3.62-.34c.61,0,1.23.1,1.84.14a7.61,7.61,0,0,1,1.86.31,4.84,4.84,0,0,0,1.88.23c.63-.09,1.26-.26,1.89-.3a18.23,18.23,0,0,1,3.79-.16,11.79,11.79,0,0,0,1.9.32,3.64,3.64,0,0,0,.95-.12l.95-.31a3.46,3.46,0,0,1,.95-.21,1.34,1.34,0,0,1,.94.22,1.67,1.67,0,0,0,1.88,0,2.84,2.84,0,0,1,1.86-.28l1.84.18c1.22,0,2.43,0,3.62.09a2.58,2.58,0,0,1,.89.13,3.27,3.27,0,0,0,.44.18,1.27,1.27,0,0,0,.44,0c.29,0,.58-.15.87-.2a2.87,2.87,0,0,1,.86,0,13.27,13.27,0,0,0,3.35.37l3.17-.06a11.66,11.66,0,0,0,3-.05,7.54,7.54,0,0,1,1.39-.22c.45,0,.9,0,1.33,0,.87.08,1.69.19,2.46.24.39,0,.76,0,1.12,0a6.15,6.15,0,0,0,1-.19,3.31,3.31,0,0,1,1-.09,7.19,7.19,0,0,0,.88.13,13.93,13.93,0,0,0,1.48-.14c.43-.05.8-.06,1.09-.08l.91-.06Z" style="fill:#0c1238"/><path d="M860.31,1033.58a4.44,4.44,0,0,1-.46,0c-.15,0-.33,0-.55-.06a3.39,3.39,0,0,0-.75-.11,1.84,1.84,0,0,0-.44.16.72.72,0,0,1-.48-.08,1.53,1.53,0,0,0-.53-.18,2.76,2.76,0,0,0-.56.07c-.39.09-.8.24-1.24.37a3.74,3.74,0,0,1-.67.1,2,2,0,0,1-.7-.18,1,1,0,0,0-.73,0,1.66,1.66,0,0,1-.76.2c-.52,0-1-.29-1.6-.36a2.61,2.61,0,0,0-1.69.17.61.61,0,0,1-.43,0c-.15-.07-.29-.2-.44-.26a.35.35,0,0,0-.22,0,1.14,1.14,0,0,0-.22.14c-.15.11-.3,0-.45.06-.6,0-1.21-.11-1.82-.17-.31,0-.62,0-.93,0a1.33,1.33,0,0,1-.94-.22.77.77,0,0,0-.95,0,1,1,0,0,1-1,0,2.57,2.57,0,0,0-1-.27,5,5,0,0,0-1,.14,11.85,11.85,0,0,1-1.91,0c-.32,0-.64-.09-1-.13a2.37,2.37,0,0,0-.95.18,12.28,12.28,0,0,1-1.87.46,2.92,2.92,0,0,1-1.82-.11,2.82,2.82,0,0,0-1.76.23,2.2,2.2,0,0,1-.85.14c-.14,0-.28-.1-.42-.15a1,1,0,0,0-.41,0,7.12,7.12,0,0,1-.81.17,1.29,1.29,0,0,1-.79-.27c-.52-.37-1,.19-1.49-.14a.57.57,0,0,0-.7,0,.63.63,0,0,1-.67.08,2.77,2.77,0,0,0-1.24-.26c-.39.06-.75.28-1.09.14a3.25,3.25,0,0,0-.48-.15,1,1,0,0,0-.44.05,3.3,3.3,0,0,1-1.3.35,2.22,2.22,0,0,1-.46,0v-2.4a2.54,2.54,0,0,1,.46,0,3.39,3.39,0,0,1,1.3.24.92.92,0,0,0,.44,0,3.92,3.92,0,0,0,.48-.23.77.77,0,0,1,.53-.05,3.16,3.16,0,0,0,.56.16,2.76,2.76,0,0,0,1.24-.36.52.52,0,0,1,.67.13.47.47,0,0,0,.7.09c.48-.41,1,.45,1.49.09a1.18,1.18,0,0,1,.79-.22c.27,0,.54.17.81.24a1,1,0,0,0,.41,0l.42-.14a2.3,2.3,0,0,1,.85.1,2.38,2.38,0,0,0,1.76.06,2.61,2.61,0,0,1,1.82-.34c.31,0,.62.1.93.14a2.19,2.19,0,0,1,.94.31,1.34,1.34,0,0,0,.95.23,7.31,7.31,0,0,1,1-.3,4.71,4.71,0,0,1,1.91-.16,3.19,3.19,0,0,0,1,.32,1,1,0,0,0,.48-.12l.48-.31a1.16,1.16,0,0,1,.48-.2c.16-.06.32,0,.48.22.32.46.63.36.95,0a.83.83,0,0,1,.94-.28c.31.05.62.15.93.18.62.06,1.22,0,1.82.09.15,0,.3,0,.45.13a1.43,1.43,0,0,0,.22.18.33.33,0,0,0,.22,0c.15,0,.29-.15.44-.2a.67.67,0,0,1,.43,0,3.59,3.59,0,0,0,1.69.37l1.6-.06c.52,0,1,.19,1.49-.05a2.14,2.14,0,0,1,.7-.22,4,4,0,0,1,.67,0c.44.08.85.19,1.24.24a3,3,0,0,0,.56,0,1.81,1.81,0,0,0,.53-.19.8.8,0,0,1,.48-.09,1.84,1.84,0,0,0,.44.13,3.81,3.81,0,0,0,.75-.14c.22-.05.4-.06.55-.09a4.47,4.47,0,0,1,.46,0Z" style="fill:#0c1238"/><path d="M1043.3,680A88.45,88.45,0,0,1,1031,703.83c-9.94,13.44-23.65,24.38-39.93,28.87-7.37,2-19.14,4-25.44,8.33-4.46,3.08-1.15,11.65-10.66,17.67-10.09-4.93-5.69-31.32-2.12-38.61.77-1.58,1.14-6.66,2.71-7.46s4.14,0,5.76.08c28.54,1.16,58.75-11.95,72.51-36.4Z" style="fill:#fff"/><path d="M912.08,743.06c-16.94,23.82-34.65,46-54.9,66.52l-7.65-8.65c9.25-12.82,21.59-32.85,34.6-64.54,3.53-8.59,4.86-22.37,22.05-25.11Z" style="fill:#fff"/><path d="M911.21,689.68c-.55-4-2.17-7.64-3.83-11.75-3-7.53-4.43-17,2.88-22.49,7.55-5.63,16.77-11.24,26.37-12,3.87-.3,11.32-1.45,13,3.33q.07.19.12.38c.5,1.83-1,4.42-1.23,6.24-1,7-8.17,11.54-13.19,15.68-2.19,1.8-5.41,3-6.88,5.42-1.73,2.82-1.42,6.55-3.17,9.41a30.48,30.48,0,0,0-3.83,9.91c-.88,3.84.32,9.22,1,13.16.58,3.39,1.9,5.61,1.34,9.44-.32,2.22-1.54,4.29-1.27,6.55.25,2.11,1.74,2.89,2.65,4.49,3.17,5.55-3,16.57-9.93,14.21-3.5-1.19-3.58-6.85-7.34-8s-5.43,1-7.82-3.47a10.73,10.73,0,0,1,.68-11.48c1.44-2,3-3.62,3.44-6.14.39-2.08-.38-4.08.12-6.12,1.1-4.51,6.09-6.72,6.88-11.43.76-4.54-1.34-8.24-4-11.69-2.1-2.68-2.17-5.56-1.89-8.88.3-3.54.75-6.26.27-9.79-.39-2.84-.57-5.25,1-7.82" style="fill:#0e1438"/><path d="M905.63,675a2.23,2.23,0,0,1-2-.95l-.1-.15c-.14-.2-.28-.43-.44-.68-2.52-4.05-6.88-13.4-7.25-18.72-1.45-20.65,24.39-37.6,44.85-26.62,2.61,1.41,4.21,4.59,6,7.45,1.33,2.09,2.77,4,4.82,5a6.74,6.74,0,0,0,1.77.53c2.76.41,7.14-3.46,9.3-.8C968.32,647.12,921.27,673.64,905.63,675Z" style="fill:#fdbe4e"/><path d="M904.33,658.81a19.72,19.72,0,0,1-1-4.46c-1.15-16.49,19.47-30,35.8-21.25a7.78,7.78,0,0,1,2.46,2.29" style="fill:none;stroke:#ffa800;stroke-miterlimit:10;stroke-width:2px"/><path d="M908.84,692.2s.92,0,2.28.11a18,18,0,0,1,2.32.35,12.7,12.7,0,0,0,2.67.26,15.11,15.11,0,0,1,2.67.22l1.22.18a9.11,9.11,0,0,0,1.1,0c.34,0,.66,0,.94,0l.72.06a5.94,5.94,0,0,1,.62.08l-.16,1.79s-.23,0-.63,0-1,0-1.65-.1c-.34,0-.71-.1-1.09-.17l-1.23-.11-1.31-.13L916,694.6a16.35,16.35,0,0,0-2.66-.31l-1.23-.07c-.39,0-.76-.1-1.09-.16a9,9,0,0,0-1.65-.11,5.2,5.2,0,0,0-.63,0Z" style="fill:#fdbe4e"/><path d="M938.68,670.38a3.31,3.31,0,0,1-.1.73,6.17,6.17,0,0,1-2,3.4c-.77.73-2.18,2.12-3.39,1.4-1.42-.85-2-3.51-2.36-5-.68-2.72-.22-6.22,3-6.49C936.64,664.22,938.73,668,938.68,670.38Z" style="fill:#8183bf"/><path d="M905.63,675a2.23,2.23,0,0,1-2-.95l-.1-.15c-.14-.2-.28-.43-.44-.68,2.61-2.11,7-2.7,9.39-4.92,5.06-4.63,3.58-12.28,8.25-17.14a12.84,12.84,0,0,1,9.17-3.45c3.38.12,6.92,2,10.42.92,4.72-1.5,4.9-5.92,5.56-9.92a20.07,20.07,0,0,1,.83-3.38c1.33,2.09,2.77,4,4.82,5a6.74,6.74,0,0,0,1.77.53c2.76.41,7.14-3.46,9.3-.8C968.32,647.12,921.27,673.64,905.63,675Z" style="fill:#ffa800"/><path d="M939.8,899.61a16.31,16.31,0,0,0-4.38-3.51c3,1.66,1.49,15.53,1,18.44-.93,6-3.33,11-5.39,16.7a82.68,82.68,0,0,0-3.94,41.33c.34,2.11,1.06,4.55,3.07,5.25,6.06-11.35,2.06-24.48,7.35-35.88,2.43-5.24,6.37-9.8,7.91-15.37C947.72,918.38,945.56,906.08,939.8,899.61Z" style="fill:#0c1238;opacity:0.30000000000000004"/><path d="M1026.43,618.61l.28.26c.18.17.46.41.77.74s.7.73,1.12,1.21.87,1,1.37,1.64a16.65,16.65,0,0,1,1.44,2.08,22.44,22.44,0,0,1,1.26,2.58,13,13,0,0,0,1.51,2.64,16.1,16.1,0,0,0,2.15,2.28,18,18,0,0,1,2.17,2.26,17.72,17.72,0,0,1,1.62,2.55c.46.88.94,1.7,1.43,2.46a8.68,8.68,0,0,0,1.75,1.84,8.67,8.67,0,0,1,1.54,1.51c.4.49.76.92,1,1.3a9,9,0,0,1,.77,1.22l-7.17,5.45a10.58,10.58,0,0,1-1.11-1c-.35-.31-.72-.72-1.16-1.19a10.51,10.51,0,0,1-1.32-1.68c-.21-.33-.44-.67-.65-1s-.36-.8-.61-1.17c-.51-.74-1.09-1.48-1.72-2.23l-.93-1.16-.87-1.25a25.48,25.48,0,0,1-1.5-2.77,21.6,21.6,0,0,0-1.53-2.75,15.71,15.71,0,0,0-1.92-2.32,21.83,21.83,0,0,1-1.89-2.11,12.91,12.91,0,0,1-1.27-2.2,6.69,6.69,0,0,0-1.24-1.74,11.53,11.53,0,0,0-1.21-1.14,7.59,7.59,0,0,0-1.27-.83Z" style="fill:#fdd991"/><path d="M1713.93,530.91l-21.58.35-10.84.17-10.91.08c-7.3,0-14.6-.06-21.88-.16-1.83-.07-3.66-.18-5.47-.2l-5.44,0-10.86,0h0a1.22,1.22,0,0,1-1.21-1.22h0c0-2.34,0-4.69.08-7l.16-7,.16-7c.07-2.34,0-4.69.07-7h0a.76.76,0,0,1,.75-.75c7.16,0,14.32-.14,21.49-.2l21.49-.25,21.49-.28c7.16-.06,14.32.19,21.49.26h0a1.22,1.22,0,0,1,1.21,1.22l0,14.57Zm-2.08-2.08-.43-13.64c-.11-4.5-.23-9-.22-13.46l1.69,1.69c-7.16.1-14.32-.26-21.49-.27l-21.49,0-21.49,0-21.49.07,1.57-1.57.25,14.07c.09,4.69.1,9.38,0,14.07l-1.83-1.83c3.53.08,7.06.25,10.61.36l5.33.19c1.78.09,3.53-.07,5.29-.08,7.09.15,14.24.36,21.37.45,3.56,0,7-.22,10.5-.23h10.58C1697.68,528.73,1704.73,528.74,1711.85,528.83Z" style="fill:#fff"/><path d="M1674,558.72l-21.58.35-10.84.17-10.91.08c-7.3,0-14.6-.06-21.88-.15-1.83-.07-3.66-.18-5.47-.2l-5.44,0-10.86,0h0a1.22,1.22,0,0,1-1.21-1.22h0c0-2.34,0-4.69.08-7l.16-7,.16-7c.07-2.34,0-4.69.07-7h0a.76.76,0,0,1,.75-.75c7.16,0,14.32-.14,21.49-.2l21.49-.25,21.49-.28c7.16-.06,14.32.19,21.49.26h0a1.22,1.22,0,0,1,1.21,1.22l0,14.57Zm-2.08-2.08-.43-13.64c-.11-4.5-.23-9-.22-13.46l1.69,1.69c-7.16.1-14.32-.26-21.49-.27L1630,531l-21.49,0-21.49.07,1.57-1.57.25,14.07c.09,4.69.1,9.38,0,14.07l-1.83-1.82c3.53.08,7.06.25,10.61.36l5.33.19c1.78.09,3.53-.07,5.29-.08,7.09.15,14.24.37,21.37.45,3.56,0,7-.22,10.5-.23h10.58C1657.74,556.54,1664.79,556.56,1671.91,556.64Z" style="fill:#fff"/><path d="M1674,503.16l-21.58.35-10.84.17-10.91.08c-7.3,0-14.6-.06-21.88-.15-1.83-.07-3.66-.18-5.47-.2l-5.44,0-10.86,0h0a1.22,1.22,0,0,1-1.21-1.22h0c0-2.34,0-4.69.08-7l.16-7,.16-7c.07-2.34,0-4.69.07-7h0a.76.76,0,0,1,.75-.75c7.16,0,14.32-.14,21.49-.2l21.49-.25,21.49-.28c7.16-.06,14.32.19,21.49.26h0a1.22,1.22,0,0,1,1.21,1.22l0,14.57Zm-2.08-2.08-.43-13.64c-.11-4.5-.23-9-.22-13.46l1.69,1.69c-7.16.1-14.32-.26-21.49-.27l-21.49,0-21.49,0-21.49.07,1.57-1.57.25,14.07c.09,4.69.1,9.38,0,14.07l-1.83-1.82c3.53.08,7.06.25,10.61.36l5.33.19c1.78.09,3.53-.07,5.29-.08,7.09.15,14.24.36,21.37.45,3.56,0,7-.22,10.5-.23h10.58C1657.74,501,1664.79,501,1671.91,501.08Z" style="fill:#fff"/></svg>