<svg id="Artwork" xmlns="http://www.w3.org/2000/svg" viewBox="0 0 1920 1080"><title>emptystate-buybutton</title><path d="M812.4,606.46c3.65-19.14,26.69-27.26,39.66-41.8,2.62-2.94,4.94-6.36,5.45-10.26.44-3.32-.47-6.65-.8-10-1.49-15.18,8.91-28.6,17.77-41s17-28.37,10.76-42.3c-1.91-4.28-5.07-8-6.59-12.39-1.45-4.22-1.31-8.83-.75-13.26,1.44-11.46,5.5-22.43,7.49-33.8s1.62-23.91-5-33.38c-6.23-8.92-17.2-14-22.37-23.55-1.5-2.78-2.54-6-5-8-4.58-3.78-12.06-1.24-15.38,3.68s-3.55,11.25-3.36,17.19.66,12.1-1.56,17.61c-2.07,5.14-6.3,9.19-8.38,14.33-5.54,13.76,6,28.79,4.76,43.58-1.47,18-21.12,30.66-22.22,48.69-.58,9.54,4.26,18.68,4.36,28.24.09,8-3.12,15.57-5.33,23.25-6.79,23.58-5,49.77,6.57,71.38" style="fill:#e7e9f0"/><path d="M810.32,701.7a440.27,440.27,0,0,1,22-180.6c7.54-22,16.83-43.4,23-65.8s9.3-46.23,4.12-68.89" style="fill:none;stroke:#fff;stroke-miterlimit:10;stroke-width:2px"/><path d="M792,594.43c1-13.76,8.54-26,15-38.21s12-26.09,8.71-39.48c-3-12.21-12.92-21.68-16.79-33.65-3.27-10.12-2-21.09-3.13-31.66-1.52-13.69-8.06-35.86-25-37.11-4.41-.33-9.17,2-10.78,6.09-1.7,4.34.34,9.14,1,13.76,2.12,15.31-11.31,28.81-12.08,44.25S760,507.09,762.4,522.33c1.21,7.75-.08,15.67.23,23.51a57.75,57.75,0,0,0,14,35.29c5.8,6.65,11.59,5.32,15.36,13.3" style="fill:#fff"/><path d="M830.4,713.13c-15-39.39-31.7-80-38.54-121.81" style="fill:none;stroke:#e7e9f0;stroke-miterlimit:10;stroke-width:3px"/><path d="M791.65,590.58c-7-42.54-2.56-85.44-11.18-127.78" style="fill:none;stroke:#f3f4f6;stroke-miterlimit:10;stroke-width:3px"/><path d="M787.87,615.84H823.4S844.33,685.7,843,709.27c-.59,10.62-16.32,41.15-16.32,41.15H784.57s-15.73-30.53-16.32-41.15C766.94,685.7,787.87,615.84,787.87,615.84Z" style="fill:#f3f4f6"/><path d="M772.44,676.87q5.6-27.3,13.31-54.12c4,2.12,2.17,10.48,2.18,14.17C788,649.69,798.31,650.6,802,661a15.38,15.38,0,0,1,.25,7.49c-1.71,11.18-7.84,25.75,1.94,35.15,3.53,3.39,8.44,4.8,13,6.64a36.46,36.46,0,0,1,13.15,8.48c2.65,2.85,4.71,6.57,4.41,10.44a19.59,19.59,0,0,1-1.88,6.15l-4.24,9.85a10.92,10.92,0,0,1-2.91,4.51c-1.87,1.47-4.21.61-6.35.48-3.74-.23-7.59.06-11.34.08-7.57,0-13.58.08-21.15.11a2.24,2.24,0,0,1-1.55-.38,3.87,3.87,0,0,1-1.3-1.81c-1.89-4.16-4.86-8.28-6.53-12.5-.51-1.28-4.81-12.92-5.61-12.92a62.88,62.88,0,0,1-2.94-8.69c-1.89-8.09-.51-16.54,1-24.7Q771.16,683.13,772.44,676.87Z" style="fill:#e7e9f0;stroke:#e7e9f0;stroke-miterlimit:10;stroke-width:3px;opacity:0.5"/><path d="M824.55,615.5A18,18,0,0,1,826,620l.07.6a1.5,1.5,0,0,1-.06.33,1,1,0,0,0,0,.3c.06.39.2.76.29,1.15.21.76.06,1.63.26,2.39.46,1.51,1.22,2.94,1.82,4.41a5.14,5.14,0,0,1,.38,1.12c0,.4.06.8.12,1.2a12.6,12.6,0,0,0,.85,2.23l-2.32.63-.83-2.22a3.42,3.42,0,0,1-.15-1.18,5.64,5.64,0,0,0-.26-1.15c-.41-1.52-.89-3-1.41-4.51a6.67,6.67,0,0,1-.85-2.21c0-.41.08-.84.07-1.25a.74.74,0,0,0,0-.3c-.06-.09-.15-.16-.17-.26a5.15,5.15,0,0,1-.05-.6,3.86,3.86,0,0,0-.12-1.2c-.15-.37-.53-.67-.61-1.05a17.55,17.55,0,0,1-.74-2.25Z" style="fill:#dfe2ec"/><line x1="782.7" y1="615.84" x2="828.57" y2="615.84" style="fill:none;stroke:#d0d4e4;stroke-linejoin:round;stroke-width:2px"/><path d="M839.43,673.09c1.44,6.59,2.77,13.22,3.78,19.92.5,3.35.92,6.73,1.15,10.14.12,1.71.18,3.43.14,5.17a19.12,19.12,0,0,1-.23,2.67,22.75,22.75,0,0,1-.52,2.6,117.63,117.63,0,0,1-7.14,19.14c-2.77,6.17-5.72,12.24-9,18.17l-.32.58h-.63l-21.07-.07c-3.51,0-7-.1-10.53-.14l-10.53-.14h-.44l-.19-.38c-2.6-5.25-5.06-10.55-7.55-15.85s-4.77-10.7-6.7-16.26a41.24,41.24,0,0,1-2.21-8.66,59.41,59.41,0,0,1,.1-8.9c.14-3,.6-5.85.92-8.77s.87-5.8,1.36-8.69c1-5.77,2.12-11.53,3.45-17.22.67-2.85,1.33-5.7,2.08-8.53l2.21-8.49,4.44-17c1.51-5.65,3.05-11.28,4.67-16.91l2.3.69c-3.24,11.19-6.21,22.49-9.08,33.79-1.39,5.66-3,11.28-4.28,17s-2.48,11.39-3.56,17.1c-.51,2.86-1,5.73-1.42,8.6s-.82,5.75-1,8.62a56.59,56.59,0,0,0-.16,8.54,39.65,39.65,0,0,0,2.06,8.2c1.86,5.46,4.14,10.82,6.53,16.12s5,10.54,7.67,15.67l-1.24-.75,10.53-.1,5.27,0c1.76,0,3.51,0,5.27,0q10.53.17,21.07.45l-.94.57c1.58-3,2.86-6.07,4.42-9s3-6,4.34-9.08,2.72-6.13,4-9.24a75.9,75.9,0,0,0,2.9-9.54,23.73,23.73,0,0,0,.59-4.79c0-1.64,0-3.29-.12-4.95-.21-3.31-.61-6.63-1.09-9.94-1-6.62-2.27-13.21-3.68-19.77Z" style="fill:#dfe2ec"/><path d="M831.56,640.57a24.77,24.77,0,0,1,1.49,5.37l.08.7a1.89,1.89,0,0,1-.06.38,1.32,1.32,0,0,0,0,.35c.07.46.21.9.3,1.36.22.9.08,1.9.28,2.8.48,1.79,1.27,3.51,1.88,5.27a7.09,7.09,0,0,1,.4,1.34c0,.47.07.94.13,1.4a17.35,17.35,0,0,0,.88,2.66l-2.34.55-.86-2.65a4.67,4.67,0,0,1-.17-1.39,7.77,7.77,0,0,0-.28-1.36c-.43-1.8-.93-3.59-1.47-5.36a9.18,9.18,0,0,1-.88-2.64c0-.47.08-1,.06-1.45a1,1,0,0,0,0-.35,1.26,1.26,0,0,1-.18-.31,7,7,0,0,1-.06-.7,5.25,5.25,0,0,0-.13-1.4c-.15-.44-.54-.82-.63-1.27a24.21,24.21,0,0,1-.77-2.67Z" style="fill:#dfe2ec"/><path d="M806.46,615.25c1.4-11.56,2.84-23.27,7.21-34.06s12.1-20.71,22.83-25.12c2.78,1.4,1.73,6.31-1.26,7.16s-6.16-1.58-7.11-4.56-.2-6.22.91-9.14c3.37-8.92,9.82-16.26,15-24.24s9.33-17.6,7.15-26.89c-.38-1.63-1.19-3.44-2.81-3.84s-3.29,2.08-1.86,3c7.64-5,11.38-14.06,15.45-22.26s9.82-16.76,18.73-18.77" style="fill:none;stroke:#d0d4e4;stroke-linejoin:round;stroke-width:2px"/><path d="M813.9,614.73c8.33-35.55-7.11-72.72-3-109,2.89-25.69,15.3-52.58,4.62-76.13-.92-2-2.27-4.18-4.45-4.61s-4.55,2.43-3,4c.72,1.8,3.49,1.9,4.91.58s1.76-3.43,1.81-5.37c.42-16.21-13.66-30.13-13.25-46.33" style="fill:none;stroke:#fff;stroke-linejoin:round;stroke-width:2px"/><path d="M790.8,616.64a255,255,0,0,0-4.32-47.88,32.74,32.74,0,0,0-2.61-8.89c-2.47-4.87-7-8.27-10.67-12.32A40.55,40.55,0,0,1,763.53,514c1.06-1.52,3.77.55,3,2.23s-3.34,1.76-4.8.63-2.12-3-2.7-4.76l-5.88-17.88" style="fill:none;stroke:#d0d4e4;stroke-linejoin:round;stroke-width:2px"/><path d="M743.27,748.48c80-.16,160-.58,240-.16l30,.1c10,.11,20,.28,30,.25l60,.07,120,.5,240-.68c20-.06,40-.17,60-.09l60,.24,15,0,15,0,30-.08,60-.17v3.2l-120,.24-30,0-30-.17c-20-.13-40-.08-60-.08l-240,.15-60,.25c-20,0-40,.19-60,0l-60-.47c-10-.15-20,0-30,0l-30-.17c-20-.11-40-.23-60-.25l-30,.2c-10,.09-20,.18-30,.16l-120,.15Z" style="fill:#dfe2ec"/><path d="M1608.51,612.22c-6.21-2.12-8.06,7.39-6.26,12.23.93,2.49,2.54,4.84,4.82,5.65,5.28,1.88,6.92-4.86,6.31-9.32C1612.66,615.57,1610.68,613,1608.51,612.22Z" style="fill:#0e1438"/><rect x="872.43" y="120.16" width="704" height="495.83" style="fill:#fff"/><rect x="872.43" y="120.16" width="704" height="46.96" style="fill:#dfe2ec;stroke:#dfe2ec;stroke-miterlimit:10;stroke-width:4px"/><circle cx="932.43" cy="144.21" r="11.96" style="fill:#fff"/><rect x="956.86" y="134" width="20.41" height="20.41" style="fill:#fff"/><polygon points="884.9 154.6 897.8 133.81 910.71 154.6 884.9 154.6" style="fill:#fff"/><rect x="931.92" y="212.83" width="586.52" height="94.41" style="fill:#ebecf2;stroke:#ebecf2;stroke-miterlimit:10;stroke-width:3px"/><path d="M959.78,285.78A30.71,30.71,0,0,0,978,280.95a28.52,28.52,0,0,0,7.76-5.74,17.18,17.18,0,0,0,1.65-1.78l1.58-1.84c1-1.31,1.93-2.59,2.83-3.93s1.78-2.68,2.54-4.11c.4-.7.8-1.4,1.24-2.08s.77-1.42,1.16-2.13.72-1.45,1.08-2.17.55-1.52.82-2.28.53-1.53.7-2.32.36-1.58.58-2.35c.45-1.55.78-3.12,1.15-4.7a22.78,22.78,0,0,0,.69-4.65,7.11,7.11,0,0,0-1.05-4.12,7.32,7.32,0,0,0-3.28-2.8,7,7,0,0,0-4.28-.58,13.52,13.52,0,0,0-4.1,1.61,16.41,16.41,0,0,0-3.68,2.75c-.27.28-.49.61-.73.92a11.37,11.37,0,0,0-.58,1c-.38.68-.71,1.39-1.1,2.06a19.72,19.72,0,0,0-1.53,4.4,23.81,23.81,0,0,0-.5,4.7,25.78,25.78,0,0,0,1.64,9.36,37.91,37.91,0,0,0,4.61,8.37,15.75,15.75,0,0,0,3.34,3.46,28.63,28.63,0,0,0,4.19,2.38,30.78,30.78,0,0,0,9.15,3,31.41,31.41,0,0,0,9.74-.26,47.13,47.13,0,0,0,9.41-2.57,47.82,47.82,0,0,0,8.66-4.54,39.84,39.84,0,0,0,3.87-3c.62-.54,1.18-1.13,1.74-1.73a23.54,23.54,0,0,0,1.64-1.82,46.28,46.28,0,0,0,5.46-8.05l.58-1.06.51-1.1c.32-.74.72-1.46,1-2.19a24.36,24.36,0,0,0,1.82-9.18,9.7,9.7,0,0,0-.85-4.38,6.22,6.22,0,0,0-1.29-1.71,4.4,4.4,0,0,0-1.82-.9,3.94,3.94,0,0,0-2,.08,7,7,0,0,0-1,.36,10.05,10.05,0,0,0-.95.55,12.92,12.92,0,0,0-3.25,3.13,26,26,0,0,0-2.3,4,23.92,23.92,0,0,0-2.52,9.14c0,.8-.17,1.59-.19,2.38s-.08,1.59-.13,2.39-.05,1.6-.08,2.41,0,1.61.09,2.42c.24,3.24,1.43,6.27,2.36,9.34a14.82,14.82,0,0,0,2.15,4.3c1,1.28,1.94,2.52,2.95,3.73a17.56,17.56,0,0,0,7.57,5.52,23.09,23.09,0,0,0,9.35.89l.59,0,.58-.11c.39-.07.78-.14,1.17-.23a17.45,17.45,0,0,0,2.27-.74c.74-.3,1.43-.71,2.13-1.08l2-1.32c.6-.51,1.21-1,1.82-1.51s1.14-1.08,1.69-1.65,1-1.2,1.51-1.81l1.36-1.93,2,1.28-1.48,2.14c-.55.67-1.14,1.31-1.71,2s-1.27,1.18-1.9,1.77-1.4,1-2.11,1.53-1.51.85-2.27,1.26-1.58.7-2.38,1a36.86,36.86,0,0,1-5,1.48,13.22,13.22,0,0,1-2.6.32c-.44,0-.88,0-1.32,0s-.87-.09-1.31-.13-.87-.12-1.3-.2l-1.28-.32a17.34,17.34,0,0,1-2.49-.82,24.23,24.23,0,0,1-8.83-5.56,8.26,8.26,0,0,1-.87-1c-.28-.34-.55-.68-.8-1a15.28,15.28,0,0,1-1.26-2.29c-.72-1.58-1.5-3.08-2.27-4.62-.18-.39-.41-.76-.56-1.16l-.43-1.21-.37-1.23c-.1-.41-.18-.84-.26-1.26-.15-.84-.33-1.68-.4-2.52s-.28-1.68-.38-2.52-.25-1.68-.37-2.53-.19-1.7-.23-2.55a27.11,27.11,0,0,1,.37-5.11,55.45,55.45,0,0,1,2.82-9.86c.16-.4.34-.79.53-1.18a7.69,7.69,0,0,1,.61-1.16,19.06,19.06,0,0,1,1.55-2.15,15.06,15.06,0,0,1,4.06-3.46,12.06,12.06,0,0,1,1.24-.6,8.9,8.9,0,0,1,1.36-.39,6.44,6.44,0,0,1,2.89,0,7.28,7.28,0,0,1,4.36,3.51,12.11,12.11,0,0,1,1.62,5.2,20.75,20.75,0,0,1,0,2.66,22.15,22.15,0,0,1-.4,2.6,27,27,0,0,1-1.58,5c-.33.82-.74,1.54-1.13,2.31l-.59,1.13-.67,1.09c-.85,1.47-1.86,2.85-2.84,4.23-.54.66-1.1,1.3-1.64,1.95s-1.19,1.21-1.78,1.81c-2.48,2.31-5,4.46-7.67,6.56a39.28,39.28,0,0,1-18.57,7.77,59.08,59.08,0,0,1-10.17,0,26.11,26.11,0,0,1-10-2.36,23,23,0,0,1-4.11-3.22c-1.33-1.08-2.64-2.21-3.92-3.4l-.93-.92-.84-1a8.43,8.43,0,0,1-.78-1.05,11.8,11.8,0,0,1-.69-1.11,31.18,31.18,0,0,1-2.1-4.76,34.87,34.87,0,0,1-1.27-5,27.45,27.45,0,0,1-.47-5.17,22.68,22.68,0,0,1,2.27-10.16,11,11,0,0,1,1.43-2.21c.55-.69,1.17-1.3,1.71-2a18.27,18.27,0,0,1,3.86-3.59,11.21,11.21,0,0,1,10.42-.61,9.42,9.42,0,0,1,5.54,8.56,23.12,23.12,0,0,1-.56,5.07,40.59,40.59,0,0,1-1.11,4.9c-.48,1.61-.94,3.21-1.57,4.77-.29.79-.61,1.56-.87,2.36s-.67,1.54-1,2.32a37.77,37.77,0,0,1-4.89,8.8,21.86,21.86,0,0,1-1.57,2L990.6,273l-1.76,1.81a21.62,21.62,0,0,1-1.81,1.76l-1.9,1.66c-.61.58-1.34,1-2,1.56l-1,.78a11.88,11.88,0,0,1-1,.8c-.69.48-1.37,1-2.08,1.46a39.29,39.29,0,0,1-9.32,4l-2.46.7c-.84.15-1.69.26-2.54.39l-1.27.19-1.29,0-2.58.07Z" style="fill:#fff"/><path d="M1086.58,270c1.15,0,2.3,0,3.45.15a8.58,8.58,0,0,0,1.73,0,4.88,4.88,0,0,1,1.73-.1c.58.06,1.15.22,1.73.23s1.15-.06,1.73-.09c1.15-.1,2.3-.27,3.45-.37.58,0,1.15-.09,1.73-.09a15.39,15.39,0,0,1,1.73.18,8.15,8.15,0,0,0,1.73,0c.58-.06,1.15-.18,1.73-.22a24.41,24.41,0,0,1,3.45.23,32.49,32.49,0,0,0,3.45.17,12.62,12.62,0,0,0,1.73-.09,8.25,8.25,0,0,1,1.73-.17c.58,0,1.15.29,1.73.32a2.15,2.15,0,0,0,.86-.12,2.34,2.34,0,0,1,.86-.08c1.15,0,2.3,0,3.45.09s2.3.09,3.45.08h1.73a8.32,8.32,0,0,1,1.73.22,7,7,0,0,0,1.73.2c.58,0,1.15-.25,1.73-.25,1.15,0,2.3.27,3.45.37a20.91,20.91,0,0,0,3.45-.09c2.3-.06,4.6,0,6.9.1a14.49,14.49,0,0,0,3.45-.15c1.15-.17,2.3-.24,3.45-.33s2.3-.18,3.45-.19a13.12,13.12,0,0,1,1.73,0l1.73.21c2.3.15,4.6-.51,6.9-.39a11.33,11.33,0,0,0,3.45,0,8.93,8.93,0,0,1,1.73,0c.58.08,1.15.27,1.73.31,1.15.17,2.3-.25,3.45.05a3.77,3.77,0,0,0,1.73,0,6.43,6.43,0,0,1,.86-.17,7.15,7.15,0,0,1,.86,0,22.2,22.2,0,0,0,3.45.3c.58,0,1.15-.1,1.73-.16a7.79,7.79,0,0,1,1.73.06,9.64,9.64,0,0,0,3.45-.15c.58-.08,1.15-.09,1.73-.12s1.15-.06,1.73,0v2.4c-.58,0-1.15,0-1.73,0s-1.15,0-1.73-.07a8.67,8.67,0,0,0-3.45,0,6.3,6.3,0,0,1-1.73.12c-.58-.06-1.15-.16-1.73-.17a21.81,21.81,0,0,0-3.45.4,5.48,5.48,0,0,1-.86,0,5,5,0,0,1-.86-.24,2.8,2.8,0,0,0-1.73,0c-1.15.38-2.3-.28-3.45-.16-.58,0-1.15.21-1.73.28a8.44,8.44,0,0,1-1.73,0,10.44,10.44,0,0,0-3.45-.09c-2.3.13-4.6-.48-6.9-.21l-1.73.33a11.3,11.3,0,0,1-1.73.1c-1.15,0-2.3,0-3.45-.09a21.86,21.86,0,0,1-3.45-.36,8.42,8.42,0,0,0-3.45-.13c-1.15.19-2.3.23-3.45.33a23,23,0,0,1-3.45,0,12.58,12.58,0,0,0-3.45-.27,18.87,18.87,0,0,1-3.45.59,15.75,15.75,0,0,1-1.73-.52,3.89,3.89,0,0,0-1.73.27,4.72,4.72,0,0,1-1.73.31c-.58,0-1.15-.08-1.73-.12-2.3-.22-4.6-.07-6.9-.21a2.35,2.35,0,0,1-.86-.14,2.12,2.12,0,0,0-.86-.18c-.58,0-1.15.24-1.73.24a9,9,0,0,1-1.73-.21,15.53,15.53,0,0,0-1.73-.16c-2.3-.13-4.6,0-6.9,0a16.75,16.75,0,0,0-3.45.07,13.52,13.52,0,0,1-1.73.21c-.58,0-1.15,0-1.73,0-1.15-.05-2.3-.18-3.45-.24-.58,0-1.15-.06-1.73,0a16.48,16.48,0,0,0-1.73.24,5.27,5.27,0,0,1-1.73-.06,9.18,9.18,0,0,0-1.73.05c-1.15.13-2.3.14-3.45.2Z" style="fill:#fff"/><path d="M1086.58,283.81c2.26,0,4.52,0,6.78.15,1.13,0,2.26.1,3.39,0a18.63,18.63,0,0,1,3.39-.1c1.13.06,2.26.23,3.39.22s2.26-.06,3.39-.08l6.78-.37c1.13,0,2.26-.1,3.39-.08s2.26.1,3.39.17a31.28,31.28,0,0,0,3.39,0c1.13-.05,2.26-.19,3.39-.21,2.26-.05,4.52.11,6.78.21s4.52.2,6.78.19c1.13,0,2.26,0,3.39-.09a29.67,29.67,0,0,1,3.39-.16c1.13,0,2.26.3,3.39.31a8,8,0,0,0,1.69-.12,9.58,9.58,0,0,1,1.69-.08l6.78.09c2.26.05,4.52.09,6.78.08a53.92,53.92,0,0,1,6.78.21,23.55,23.55,0,0,0,3.39.19c1.13,0,2.26-.25,3.39-.23,2.26,0,4.52.27,6.78.36s4.52,0,6.78-.08,4.52,0,6.78,0,4.52,0,6.78.1a56.44,56.44,0,0,0,6.78-.14c2.26-.15,4.52-.25,6.78-.34s4.52-.13,6.78-.18c1.13,0,2.26,0,3.39,0l3.39.21c4.52.16,9-.5,13.56-.39a43.49,43.49,0,0,0,6.78,0,32.43,32.43,0,0,1,3.39,0c1.13.06,2.26.26,3.39.31,2.26.17,4.52-.25,6.78.05a14.81,14.81,0,0,0,3.39,0,17.6,17.6,0,0,1,3.39-.15c2.26.14,4.52.33,6.78.3,1.13,0,2.26-.09,3.39-.16a29.89,29.89,0,0,1,3.39.06,29,29,0,0,0,3.39.09c1.13,0,2.26-.16,3.39-.22s2.26-.1,3.39-.13,2.26-.06,3.39,0v2.4c-1.13,0-2.26,0-3.39,0s-2.26,0-3.39-.08-2.26-.16-3.39-.16a26.44,26.44,0,0,0-3.39.18,24.06,24.06,0,0,1-3.39.12c-1.13-.06-2.26-.16-3.39-.16-2.26,0-4.52.23-6.78.4-.56,0-1.13,0-1.69,0s-1.13-.15-1.69-.24a10.87,10.87,0,0,0-3.39,0c-2.26.38-4.52-.29-6.78-.15-1.13,0-2.26.21-3.39.26a30.55,30.55,0,0,1-3.39,0,40,40,0,0,0-6.78-.09c-4.52.14-9-.48-13.56-.21l-3.39.33-1.69.08h-1.69c-2.26,0-4.52,0-6.78-.08s-4.52-.1-6.78-.36a32.43,32.43,0,0,0-6.78-.13c-4.52.3-9,.46-13.56.35-1.13-.06-2.26-.18-3.39-.25a32.47,32.47,0,0,0-3.39,0c-2.26.16-4.52.65-6.78.59-1.13,0-2.26-.43-3.39-.52a14.48,14.48,0,0,0-3.39.27,18.53,18.53,0,0,1-3.39.31c-1.13,0-2.26-.08-3.39-.12-2.26-.11-4.52-.12-6.78-.13l-6.78-.09a9,9,0,0,1-1.69-.13A7.75,7.75,0,0,0,1151,286c-1.13,0-2.26.24-3.39.23a32.08,32.08,0,0,1-3.39-.2c-1.13-.1-2.26-.12-3.39-.14-4.52-.16-9,0-13.56,0-2.26,0-4.52-.12-6.78.07-1.13.09-2.26.2-3.39.21s-2.26,0-3.39,0l-6.78-.24c-1.13,0-2.26-.06-3.39,0s-2.26.17-3.39.24a20.19,20.19,0,0,1-3.39-.06c-1.13-.07-2.26,0-3.39,0-2.26.13-4.52.14-6.78.2Z" style="fill:#fff"/><rect x="937.94" y="345.4" width="192.83" height="196.84" style="fill:none;stroke:#fff;stroke-miterlimit:10;stroke-width:3px"/><path d="M941.14,416.06a95.52,95.52,0,0,1,4.67-29.92c5.19-15.56,15-26.24,29.7-31.24a82,82,0,0,1,53.8-.16c17.41,5.86,27.79,19.11,31.95,37.93a105.68,105.68,0,0,1-.35,48.22c-5,20.57-17.44,33.28-36.64,38.12a85.16,85.16,0,0,1-45.87-.76C952.23,470.44,941.17,443,941.14,416.06Z" style="fill:#ebecf2;stroke:#ebecf2;stroke-miterlimit:10;stroke-width:3px"/><polygon points="998.46 458.82 955.95 414.23 998.46 369.63 1040.98 414.23 998.46 458.82" style="fill:#fff"/><path d="M1104.66,370.31c2.36,0,4.73,0,7.09.15,1.18,0,2.36.1,3.55,0a20.38,20.38,0,0,1,3.55-.1c1.18.06,2.36.23,3.55.22s2.36-.06,3.55-.08l7.09-.37c1.18,0,2.36-.1,3.55-.08s2.36.1,3.55.17a34.24,34.24,0,0,0,3.55,0c1.18-.05,2.36-.19,3.55-.21,2.36-.05,4.73.11,7.09.21s4.73.2,7.09.19c1.18,0,2.36,0,3.55-.09a32.46,32.46,0,0,1,3.55-.16c1.18,0,2.36.3,3.55.31a8.8,8.8,0,0,0,1.77-.12,10.48,10.48,0,0,1,1.77-.08l7.09.09c2.36.05,4.73.09,7.09.08a59,59,0,0,1,7.09.21,25.77,25.77,0,0,0,3.55.19c1.18,0,2.36-.25,3.55-.23,2.36,0,4.73.27,7.09.36s4.73,0,7.09-.08,4.73,0,7.09,0,4.73,0,7.09.1a61.75,61.75,0,0,0,7.09-.14c2.36-.15,4.73-.25,7.09-.34s4.73-.13,7.09-.18c1.18,0,2.36,0,3.55,0l3.55.21c4.73.16,9.46-.5,14.19-.39a47.6,47.6,0,0,0,7.09,0c1.18,0,2.36-.06,3.55,0s2.36.26,3.55.31c2.36.17,4.73-.25,7.09.05a16.21,16.21,0,0,0,3.55,0,19.25,19.25,0,0,1,3.55-.15c2.36.14,4.73.33,7.09.3l3.55-.16a32.72,32.72,0,0,1,3.55.06,31.79,31.79,0,0,0,3.55.09c1.18,0,2.36-.16,3.55-.22s2.36-.1,3.55-.13,2.36-.06,3.55,0v2.4c-1.18,0-2.36,0-3.55,0s-2.36,0-3.55-.08-2.36-.16-3.55-.16a28.9,28.9,0,0,0-3.55.18,26.36,26.36,0,0,1-3.55.12c-1.18-.06-2.36-.16-3.55-.16-2.36,0-4.73.23-7.09.4-.59,0-1.18,0-1.77,0s-1.18-.15-1.77-.24a11.89,11.89,0,0,0-3.55,0c-2.36.38-4.73-.29-7.09-.15-1.18,0-2.36.21-3.55.26a33.44,33.44,0,0,1-3.55,0,43.82,43.82,0,0,0-7.09-.09c-4.73.14-9.46-.48-14.19-.21l-3.55.33-1.77.08h-1.77c-2.36,0-4.73,0-7.09-.08s-4.73-.1-7.09-.36a35.49,35.49,0,0,0-7.09-.13c-4.73.3-9.46.47-14.19.35-1.18-.06-2.36-.18-3.55-.25s-2.36-.08-3.55,0c-2.36.16-4.73.65-7.09.59-1.18,0-2.36-.43-3.55-.52a15.83,15.83,0,0,0-3.55.27,20.27,20.27,0,0,1-3.55.31c-1.18,0-2.36-.08-3.55-.12-2.36-.11-4.73-.12-7.09-.13l-7.09-.09a9.81,9.81,0,0,1-1.77-.13,8.47,8.47,0,0,0-1.77-.17c-1.18,0-2.36.24-3.55.23a35.1,35.1,0,0,1-3.55-.2c-1.18-.1-2.36-.12-3.55-.14-4.73-.16-9.46,0-14.19,0-2.36,0-4.73-.12-7.09.07-1.18.09-2.36.2-3.55.21s-2.36,0-3.55,0l-7.09-.24c-1.18,0-2.36-.06-3.55,0s-2.36.17-3.55.24a22.09,22.09,0,0,1-3.55-.06c-1.18-.07-2.36,0-3.55.05-2.36.13-4.73.14-7.09.2Z" style="fill:#dfe2ec"/><path d="M1104.66,406.46c2.36,0,4.73,0,7.09.15,1.18,0,2.36.1,3.55,0a20.4,20.4,0,0,1,3.55-.1c1.18.06,2.36.23,3.55.22s2.36-.06,3.55-.08l7.09-.37c1.18,0,2.36-.1,3.55-.08s2.36.1,3.55.17a34.27,34.27,0,0,0,3.55,0c1.18-.05,2.36-.19,3.55-.21,2.36-.05,4.73.11,7.09.21s4.73.2,7.09.19c1.18,0,2.36,0,3.55-.09a32.43,32.43,0,0,1,3.55-.16c1.18,0,2.36.3,3.55.31a8.8,8.8,0,0,0,1.77-.12,10.47,10.47,0,0,1,1.77-.08l7.09.09c2.36.05,4.73.09,7.09.08a59,59,0,0,1,7.09.21,25.77,25.77,0,0,0,3.55.19c1.18,0,2.36-.25,3.55-.23,2.36,0,4.73.27,7.09.36s4.73,0,7.09-.08,4.73,0,7.09,0,4.73,0,7.09.1a61.75,61.75,0,0,0,7.09-.14c2.36-.15,4.73-.25,7.09-.34s4.73-.13,7.09-.18c1.18,0,2.36,0,3.55,0l3.55.21c4.73.16,9.46-.5,14.19-.39a47.64,47.64,0,0,0,7.09,0c1.18,0,2.36-.06,3.55,0s2.36.26,3.55.31c2.36.17,4.73-.25,7.09.05a16.21,16.21,0,0,0,3.55,0,19.25,19.25,0,0,1,3.55-.15c2.36.14,4.73.33,7.09.3l3.55-.16a32.72,32.72,0,0,1,3.55.06,31.79,31.79,0,0,0,3.55.09c1.18,0,2.36-.16,3.55-.22s2.36-.1,3.55-.13,2.36-.06,3.55,0v2.4c-1.18,0-2.36,0-3.55,0s-2.36,0-3.55-.08-2.36-.16-3.55-.16a28.93,28.93,0,0,0-3.55.18,26.36,26.36,0,0,1-3.55.12c-1.18-.06-2.36-.16-3.55-.16-2.36,0-4.73.23-7.09.4-.59,0-1.18,0-1.77,0s-1.18-.15-1.77-.24a11.89,11.89,0,0,0-3.55,0c-2.36.38-4.73-.29-7.09-.15-1.18,0-2.36.21-3.55.26a33.44,33.44,0,0,1-3.55,0,43.82,43.82,0,0,0-7.09-.09c-4.73.14-9.46-.48-14.19-.21l-3.55.33-1.77.08h-1.77c-2.36,0-4.73,0-7.09-.08s-4.73-.1-7.09-.36a35.49,35.49,0,0,0-7.09-.13c-4.73.3-9.46.47-14.19.35-1.18-.06-2.36-.18-3.55-.25s-2.36-.08-3.55,0c-2.36.16-4.73.65-7.09.59-1.18,0-2.36-.43-3.55-.52a15.82,15.82,0,0,0-3.55.27,20.27,20.27,0,0,1-3.55.31c-1.18,0-2.36-.08-3.55-.12-2.36-.11-4.73-.12-7.09-.13l-7.09-.09a9.83,9.83,0,0,1-1.77-.13,8.47,8.47,0,0,0-1.77-.17c-1.18,0-2.36.24-3.55.23a35.1,35.1,0,0,1-3.55-.2c-1.18-.1-2.36-.12-3.55-.14-4.73-.16-9.46,0-14.19,0-2.36,0-4.73-.12-7.09.07-1.18.09-2.36.2-3.55.21s-2.36,0-3.55,0l-7.09-.24c-1.18,0-2.36-.06-3.55,0s-2.36.17-3.55.24a22.09,22.09,0,0,1-3.55-.06c-1.18-.07-2.36,0-3.55.05-2.36.13-4.73.14-7.09.2Z" style="fill:#dfe2ec"/><path d="M1104.66,442.62c2.36,0,4.73,0,7.09.15,1.18,0,2.36.1,3.55,0a20.38,20.38,0,0,1,3.55-.1c1.18.06,2.36.23,3.55.22s2.36-.06,3.55-.08l7.09-.37c1.18,0,2.36-.1,3.55-.08s2.36.1,3.55.17a34.31,34.31,0,0,0,3.55,0c1.18-.05,2.36-.19,3.55-.21,2.36-.05,4.73.11,7.09.21s4.73.2,7.09.19c1.18,0,2.36,0,3.55-.09a32.47,32.47,0,0,1,3.55-.16c1.18,0,2.36.3,3.55.31a8.81,8.81,0,0,0,1.77-.12,10.47,10.47,0,0,1,1.77-.08l7.09.09c2.36.05,4.73.09,7.09.08a59,59,0,0,1,7.09.21,25.79,25.79,0,0,0,3.55.19c1.18,0,2.36-.25,3.55-.23,2.36,0,4.73.27,7.09.36s4.73,0,7.09-.08,4.73,0,7.09,0,4.73,0,7.09.1a61.78,61.78,0,0,0,7.09-.14c2.36-.15,4.73-.25,7.09-.34s4.73-.13,7.09-.18c1.18,0,2.36,0,3.55,0l3.55.21c4.73.16,9.46-.5,14.19-.39a47.64,47.64,0,0,0,7.09,0c1.18,0,2.36-.06,3.55,0s2.36.26,3.55.31c2.36.17,4.73-.25,7.09.05a16.2,16.2,0,0,0,3.55,0,19.26,19.26,0,0,1,3.55-.15c2.36.14,4.73.33,7.09.3l3.55-.16a32.75,32.75,0,0,1,3.55.06,31.79,31.79,0,0,0,3.55.09c1.18,0,2.36-.16,3.55-.22s2.36-.1,3.55-.13,2.36-.06,3.55,0V445c-1.18,0-2.36,0-3.55,0s-2.36,0-3.55-.08-2.36-.16-3.55-.16a29,29,0,0,0-3.55.18,26.36,26.36,0,0,1-3.55.12c-1.18-.06-2.36-.16-3.55-.16-2.36,0-4.73.23-7.09.4-.59,0-1.18,0-1.77,0s-1.18-.15-1.77-.24a11.88,11.88,0,0,0-3.55,0c-2.36.38-4.73-.29-7.09-.15-1.18,0-2.36.21-3.55.26a33.44,33.44,0,0,1-3.55,0,43.82,43.82,0,0,0-7.09-.09c-4.73.14-9.46-.48-14.19-.21l-3.55.33-1.77.08h-1.77c-2.36,0-4.73,0-7.09-.08s-4.73-.1-7.09-.36a35.49,35.49,0,0,0-7.09-.13c-4.73.3-9.46.47-14.19.35-1.18-.06-2.36-.18-3.55-.25s-2.36-.08-3.55,0c-2.36.16-4.73.65-7.09.59-1.18,0-2.36-.43-3.55-.52a15.82,15.82,0,0,0-3.55.27,20.28,20.28,0,0,1-3.55.31c-1.18,0-2.36-.08-3.55-.12-2.36-.11-4.73-.12-7.09-.13l-7.09-.09a9.83,9.83,0,0,1-1.77-.13,8.47,8.47,0,0,0-1.77-.17c-1.18,0-2.36.24-3.55.23a35.1,35.1,0,0,1-3.55-.2c-1.18-.1-2.36-.12-3.55-.14-4.73-.16-9.46,0-14.19,0-2.36,0-4.73-.12-7.09.07-1.18.09-2.36.2-3.55.21s-2.36,0-3.55,0l-7.09-.24c-1.18,0-2.36-.06-3.55,0s-2.36.17-3.55.24a22.09,22.09,0,0,1-3.55-.06c-1.18-.07-2.36,0-3.55.05-2.36.13-4.73.14-7.09.2Z" style="fill:#dfe2ec"/><path d="M1104.66,478.77c1.07,0,2.13,0,3.2.15a7.36,7.36,0,0,0,1.6,0,4.2,4.2,0,0,1,1.6-.1,15.13,15.13,0,0,0,1.6.23c.53,0,1.07-.06,1.6-.09,1.07-.1,2.13-.27,3.2-.37.53,0,1.07-.09,1.6-.09a13.28,13.28,0,0,1,1.6.18,7,7,0,0,0,1.6,0c.53-.06,1.07-.18,1.6-.22a21,21,0,0,1,3.2.23,28,28,0,0,0,3.2.17,10.86,10.86,0,0,0,1.6-.09,7.12,7.12,0,0,1,1.6-.17c.53,0,1.07.29,1.6.32a1.86,1.86,0,0,0,.8-.12,2,2,0,0,1,.8-.08c1.07,0,2.13,0,3.2.09s2.13.09,3.2.08h1.6a7.18,7.18,0,0,1,1.6.22,6.07,6.07,0,0,0,1.6.2c.53,0,1.07-.25,1.6-.25,1.07,0,2.13.27,3.2.37a18,18,0,0,0,3.2-.09c2.13-.06,4.27,0,6.4.1a12.47,12.47,0,0,0,3.2-.15c1.07-.17,2.13-.24,3.2-.33s2.13-.18,3.2-.19a11.28,11.28,0,0,1,1.6,0l1.6.21c2.13.15,4.27-.51,6.4-.39a9.75,9.75,0,0,0,3.2,0,7.68,7.68,0,0,1,1.6,0c.53.08,1.07.27,1.6.31,1.07.17,2.13-.25,3.2.05a3.25,3.25,0,0,0,1.6,0,5.58,5.58,0,0,1,.8-.17,6.15,6.15,0,0,1,.8,0,19.12,19.12,0,0,0,3.2.3c.53,0,1.07-.1,1.6-.16a6.7,6.7,0,0,1,1.6.06,8.3,8.3,0,0,0,3.2-.15c.53-.08,1.07-.09,1.6-.12s1.07-.06,1.6,0v2.4c-.53,0-1.07,0-1.6,0s-1.07,0-1.6-.07a7.46,7.46,0,0,0-3.2,0,5.43,5.43,0,0,1-1.6.12,15.78,15.78,0,0,0-1.6-.17,18.82,18.82,0,0,0-3.2.4,4.71,4.71,0,0,1-.8,0,4.4,4.4,0,0,1-.8-.24,2.42,2.42,0,0,0-1.6,0c-1.07.38-2.13-.28-3.2-.16-.53,0-1.07.21-1.6.28a7.26,7.26,0,0,1-1.6,0,9,9,0,0,0-3.2-.09c-2.13.13-4.27-.48-6.4-.21l-1.6.33a9.73,9.73,0,0,1-1.6.1,30.12,30.12,0,0,1-3.2-.09,18.85,18.85,0,0,1-3.2-.36,7.26,7.26,0,0,0-3.2-.13c-1.07.19-2.13.23-3.2.33a19.77,19.77,0,0,1-3.2,0,10.85,10.85,0,0,0-3.2-.27,16.34,16.34,0,0,1-3.2.59c-.53,0-1.07-.43-1.6-.52a3.37,3.37,0,0,0-1.6.27,4.09,4.09,0,0,1-1.6.31c-.53,0-1.07-.08-1.6-.12-2.13-.22-4.27-.07-6.4-.21a2,2,0,0,1-.8-.14,1.84,1.84,0,0,0-.8-.18c-.53,0-1.07.24-1.6.24a7.76,7.76,0,0,1-1.6-.21,13.39,13.39,0,0,0-1.6-.16c-2.13-.13-4.27,0-6.4,0a14.41,14.41,0,0,0-3.2.07,11.67,11.67,0,0,1-1.6.21c-.53,0-1.07,0-1.6,0-1.07-.05-2.13-.18-3.2-.24-.53,0-1.07-.06-1.6,0a14.26,14.26,0,0,0-1.6.24,4.54,4.54,0,0,1-1.6-.06,7.9,7.9,0,0,0-1.6.05c-1.07.13-2.13.14-3.2.2Z" style="fill:#dfe2ec"/><path d="M944,514.93c32.31.44,64.61-.83,96.92.14,4,.13,8.08-.28,12.11-.22,2,0,4,.3,6.06.31a25.56,25.56,0,0,0,3-.12c1-.09,2-.09,3-.08l12.11.09c4,.05,8.08.09,12.11.08s8.08-.08,12.11.21c2,.11,4,.23,6.06.18s4-.25,6.06-.23c4,0,8.08.27,12.11.36,2,.07,4,0,6.06,0l6.06-.08c4-.1,8.08,0,12.11,0s8.08,0,12.11.1c2,0,4,0,6.06,0l6.06-.17c4-.15,8.08-.25,12.11-.34s8.08-.13,12.11-.18c2,0,4,0,6.06,0l6.06.21c8.08.08,16.15-.43,24.23-.39l3,.1c1,0,2,.06,3,0l6.06-.13c2,0,4-.06,6.06,0s4,.26,6.06.31,4,0,6.06,0l3,0,3,.11a48,48,0,0,0,6.06,0,49.85,49.85,0,0,1,6.06-.13c2,0,4,.14,6.06.19l6.06.08c4-.07,8.08-.28,12.11-.09s8.08,0,12.11-.14c2-.1,4-.1,6.06-.13s4-.06,6.06,0v2.4c-2,0-4,0-6.06,0s-4,0-6.06-.08a117.33,117.33,0,0,0-12.11,0c-2,.13-4,.15-6.06.12l-6.06-.16c-4,0-8.08.23-12.11.4a42.31,42.31,0,0,1-6.06-.23,35.49,35.49,0,0,0-6.06,0c-4,.38-8.08-.29-12.11-.15-2,0-4,.21-6.06.26s-4,0-6.06,0c-4-.11-8.08-.34-12.11-.09-8.08.09-16.15-.45-24.23-.21l-6.06.33-3,.08h-3c-4,0-8.08,0-12.11-.08s-8.08-.1-12.11-.36A104.58,104.58,0,0,0,1162,517c-8.08.3-16.15.47-24.23.36l-6.06-.25c-2,0-4-.09-6.06,0-4,.14-8.08.61-12.11.57-2,0-4-.43-6.06-.52a48.45,48.45,0,0,0-6.06.27,91.55,91.55,0,0,1-12.11.19c-4-.11-8.08-.12-12.11-.13l-12.11-.09a28.47,28.47,0,0,1-3-.13,24.44,24.44,0,0,0-3-.17c-2,0-4,.24-6.06.23-4,0-8.08-.4-12.11-.34-16.15-.15-32.31,0-48.46.19L980.31,517c-2,0-4-.09-6.06-.06s-4,.17-6.06.24-4,0-6.06,0-4,0-6.06,0c-4,.13-8.08.14-12.11.2Z" style="fill:#dfe2ec"/><path d="M944,551.08c32.31.44,64.61-.82,96.92.14,4,.13,8.08-.28,12.11-.23,2,0,4,.3,6.06.31a25.53,25.53,0,0,0,3-.12c1-.09,2-.09,3-.08l12.11.09c4,.05,8.08.09,12.11.08s8.08-.08,12.11.21c2,.11,4,.23,6.06.18s4-.25,6.06-.23c4,0,8.08.27,12.11.36,2,.07,4,0,6.06,0l6.06-.08c4-.1,8.08,0,12.11,0s8.08,0,12.11.1c2,0,4,0,6.06,0l6.06-.17c4-.15,8.08-.25,12.11-.34s8.08-.13,12.11-.18c2,0,4,0,6.06,0l6.06.21c8.08.08,16.15-.43,24.23-.39l3,.1c1,0,2,.06,3,0l6.06-.13c2,0,4-.06,6.06,0s4,.26,6.06.31,4,0,6.06,0l3,0,3,.11a48,48,0,0,0,6.06,0,49.83,49.83,0,0,1,6.06-.13c2,0,4,.14,6.06.19l6.06.08c4-.07,8.08-.28,12.11-.09s8.08,0,12.11-.14c2-.1,4-.1,6.06-.13s4-.06,6.06,0v2.4c-2,0-4,0-6.06,0s-4,0-6.06-.08a117.4,117.4,0,0,0-12.11,0c-2,.13-4,.15-6.06.12l-6.06-.16c-4,0-8.08.23-12.11.4a42.31,42.31,0,0,1-6.06-.23,35.47,35.47,0,0,0-6.06,0c-4,.38-8.08-.29-12.11-.15-2,0-4,.21-6.06.26s-4,0-6.06,0c-4-.11-8.08-.34-12.11-.09-8.08.09-16.15-.45-24.23-.21l-6.06.33-3,.08h-3c-4,0-8.08,0-12.11-.08s-8.08-.1-12.11-.36a104.63,104.63,0,0,0-12.11-.14c-8.08.3-16.15.47-24.23.36l-6.06-.25c-2,0-4-.09-6.06,0-4,.14-8.08.61-12.11.57-2,0-4-.43-6.06-.52a48.4,48.4,0,0,0-6.06.27,91.55,91.55,0,0,1-12.11.19c-4-.11-8.08-.12-12.11-.13l-12.11-.08a28.5,28.5,0,0,1-3-.13,24.41,24.41,0,0,0-3-.17c-2,0-4,.24-6.06.23-4,0-8.08-.4-12.11-.34-16.15-.15-32.31,0-48.46.19l-12.11-.18c-2,0-4-.09-6.06-.06s-4,.17-6.06.24-4,0-6.06,0-4,0-6.06,0c-4,.13-8.08.14-12.11.2Z" style="fill:#dfe2ec"/><path d="M944,587.24c1.4,0,2.8,0,4.21.15a12.71,12.71,0,0,0,2.1,0,7.21,7.21,0,0,1,2.1-.1c.7.06,1.4.22,2.1.23s1.4-.06,2.1-.09l4.21-.37c.7,0,1.4-.09,2.1-.09s1.4.11,2.1.18a12.08,12.08,0,0,0,2.1,0c.7-.06,1.4-.18,2.1-.22a36.08,36.08,0,0,1,4.21.23c1.4.11,2.8.19,4.21.17a18.7,18.7,0,0,0,2.1-.09,12.16,12.16,0,0,1,2.1-.17c.7,0,1.4.29,2.1.32a3.16,3.16,0,0,0,1.05-.12,3.45,3.45,0,0,1,1.05-.08c1.4,0,2.8,0,4.21.09s2.8.09,4.21.08h2.1a12.25,12.25,0,0,1,2.1.22,10.34,10.34,0,0,0,2.1.2c.7,0,1.4-.25,2.1-.25,1.4,0,2.8.27,4.21.37a31,31,0,0,0,4.21-.09c2.8-.06,5.61,0,8.41.1a21.46,21.46,0,0,0,4.21-.15c1.4-.17,2.8-.24,4.21-.33s2.8-.18,4.21-.19a19.43,19.43,0,0,1,2.1,0l2.1.21c2.8.15,5.61-.51,8.41-.39a16.79,16.79,0,0,0,4.21,0,13.26,13.26,0,0,1,2.1,0c.7.08,1.4.27,2.1.31,1.4.17,2.8-.25,4.21.05a5.57,5.57,0,0,0,2.1,0,9.4,9.4,0,0,1,1.05-.17c.35,0,.7,0,1.05,0a32.78,32.78,0,0,0,4.21.3c.7,0,1.4-.1,2.1-.16a11.54,11.54,0,0,1,2.1.06,14.25,14.25,0,0,0,4.21-.15c.7-.08,1.4-.09,2.1-.12s1.4-.06,2.1,0v2.4c-.7,0-1.4,0-2.1,0s-1.4,0-2.1-.07a12.82,12.82,0,0,0-4.21,0,9.32,9.32,0,0,1-2.1.12c-.7-.06-1.4-.16-2.1-.17a32.12,32.12,0,0,0-4.21.4,8.17,8.17,0,0,1-1.05,0,7.2,7.2,0,0,1-1.05-.24,4.13,4.13,0,0,0-2.1,0c-1.4.38-2.8-.28-4.21-.16-.7,0-1.4.21-2.1.28a12.5,12.5,0,0,1-2.1,0,15.45,15.45,0,0,0-4.21-.09c-2.8.13-5.61-.48-8.41-.21l-2.1.33a16.75,16.75,0,0,1-2.1.1c-1.4,0-2.8,0-4.21-.09a32.25,32.25,0,0,1-4.21-.36,12.44,12.44,0,0,0-4.21-.13c-1.4.19-2.8.23-4.21.33a34.1,34.1,0,0,1-4.21,0,18.59,18.59,0,0,0-4.21-.27,27.58,27.58,0,0,1-4.21.59c-.7,0-1.4-.43-2.1-.52a5.68,5.68,0,0,0-2.1.27,6.88,6.88,0,0,1-2.1.31c-.7,0-1.4-.08-2.1-.12-2.8-.22-5.61-.07-8.41-.21a3.44,3.44,0,0,1-1.05-.14,3.07,3.07,0,0,0-1.05-.18c-.7,0-1.4.24-2.1.24a13.23,13.23,0,0,1-2.1-.21c-.7-.1-1.4-.13-2.1-.16-2.8-.13-5.61,0-8.41,0a24.85,24.85,0,0,0-4.21.07,19.91,19.91,0,0,1-2.1.21c-.7,0-1.4,0-2.1,0l-4.21-.24c-.7,0-1.4-.06-2.1,0s-1.4.17-2.1.24a7.79,7.79,0,0,1-2.1-.06,13.6,13.6,0,0,0-2.1.05c-1.4.13-2.8.14-4.21.2Z" style="fill:#dfe2ec"/><rect x="1378.75" y="368.54" width="123.74" height="168.07" style="fill:none;stroke:#3e4166;stroke-linejoin:round;stroke-width:3px;stroke-dasharray:11,9"/><path d="M815.85,431.79l1.16-.38" style="fill:none"/><path d="M1328.58,773.79c-61.47-56-160.71,43.52-99.15,104.64,40,39.73,122.87,31.26,129.13-33.11C1361.16,818.65,1348.4,791.86,1328.58,773.79Z" style="fill:#abb7d2"/><path d="M1327.42,775.12a79.54,79.54,0,0,0-11.42-8.4c-1-.63-2.06-1.15-3.1-1.7l-1.56-.82-.78-.41-.81-.34-3.25-1.37c-1.09-.44-2.22-.76-3.33-1.15l-1.67-.56-1.72-.41c-1.15-.25-2.28-.59-3.45-.76s-2.34-.31-3.5-.46-2.35-.12-3.53-.19a58.46,58.46,0,0,0-14,1.24,75.71,75.71,0,0,0-26.05,10.47,82.5,82.5,0,0,0-11.31,8.51,81.38,81.38,0,0,0-9.76,10.27c-.75.91-1.5,1.83-2.17,2.81s-1.39,1.91-2.06,2.88c-1.26,2-2.58,4-3.68,6.06s-2.17,4.2-3.22,6.31c-.88,2.19-1.86,4.35-2.54,6.61s-1.33,4.53-1.95,6.81c-.42,2.32-1,4.63-1.14,7-.34,2.34-.35,4.71-.46,7.07.1,2.36.1,4.73.41,7.08a60.12,60.12,0,0,0,10.24,26.23,69.4,69.4,0,0,0,9.16,10.89,73,73,0,0,0,11.2,8.82,88.33,88.33,0,0,0,26,11.48c9.22,2.53,18.87,3,28.32,2.47a73.72,73.72,0,0,0,27.33-7.11,62.15,62.15,0,0,0,21.8-17.63A55.7,55.7,0,0,0,1357,851.35a66.46,66.46,0,0,0,.94-14.11,86.69,86.69,0,0,0-5.91-27.68,93.09,93.09,0,0,0-6.42-12.71A91.6,91.6,0,0,0,1327.42,775.12Zm1.56-1.77a96.59,96.59,0,0,1,29.67,49.27,71.51,71.51,0,0,1,1.89,14.53,67.32,67.32,0,0,1-1.12,14.63,63.81,63.81,0,0,1-4.37,14,59.19,59.19,0,0,1-7.65,12.53A66.22,66.22,0,0,1,1337,888.59a69.8,69.8,0,0,1-6,4.19c-1,.62-2.07,1.3-3.14,1.88s-2.14,1.17-3.24,1.71a75.64,75.64,0,0,1-28.13,7.39,68.6,68.6,0,0,1-14.58-.35l-1.81-.24-1.8-.31c-1.2-.19-2.4-.36-3.59-.61q-3.59-.6-7.13-1.47a86.92,86.92,0,0,1-26.79-11.36,81.67,81.67,0,0,1-11.38-9.21,70.87,70.87,0,0,1-9.55-11.11,64.2,64.2,0,0,1-6.92-12.94,69.48,69.48,0,0,1-3.7-14.22c-.39-2.43-.47-4.89-.62-7.34a53.47,53.47,0,0,1,.37-7.35c.21-2.45.78-4.84,1.23-7.24.65-2.36,1.22-4.74,2.09-7s1.78-4.54,2.65-6.81c1.06-2.19,2-4.43,3.26-6.53s2.55-4.14,3.87-6.18c.7-1,1.44-2,2.16-2.93s1.48-1.92,2.26-2.85,1.52-1.89,2.35-2.77l2.47-2.66c.82-.89,1.74-1.68,2.58-2.55l1.29-1.28,1.35-1.21a89,89,0,0,1,11.5-8.85,75.64,75.64,0,0,1,26.79-11,63.67,63.67,0,0,1,29,1.57,58.71,58.71,0,0,1,13.38,5.88A81.88,81.88,0,0,1,1329,773.34Z" style="fill:#0e1438"/><path d="M1277.73,870a88.28,88.28,0,0,1-1.22,24.47l16.27.12a4.06,4.06,0,0,0,2.45-.51c1.06-.77,1.12-2.29,1.08-3.6l-.69-21.44" style="fill:#8183bf"/><path d="M1292.23,870a88.28,88.28,0,0,1-1.22,24.47l16.27.12a4.06,4.06,0,0,0,2.45-.51c1.06-.77,1.12-2.29,1.08-3.6l-.69-21.44" style="fill:#8183bf"/><path d="M1188.18,693.89c-4-.17-8-.33-11.87-.28l-1.44,0c-.23,0-.48,0-.69,0l-.33,0-.25,0h-.07a.28.28,0,0,0,.13-.06l0,0h0l.09-.06a1.19,1.19,0,0,0,.3-.32,1.41,1.41,0,0,0,.14-.32,0,0,0,0,1,0,0c0,.16,0,.4-.07.62l-.09,1.45c-.13,2-.25,3.95-.35,5.93l-.15,3c0,.5-.12,1-.18,1.49s-.06,1-.07,1.49l-.17,6c-.07,4-.5,8-.55,11.95,0,8,.14,15.94.29,23.92,0,2,.1,4,0,6l-.24,6c-.07,2,0,4,0,6s0,4,.11,6h-2.4c0-4-.11-8-.11-12,0-1,0-2,0-3l.15-3c.11-2,.09-4,.1-6l.12-23.92c-.06-4-.28-8,0-12,.12-2,.38-4,.51-6,0-.5.09-1,.08-1.49s-.08-1-.06-1.5l.2-3c.15-2,.33-4,.42-6,0-.5,0-1,0-1.52,0-.26,0-.52,0-.82l0-.29a1.26,1.26,0,0,1,.35-.56.86.86,0,0,1,.21-.14l.37-.16a2.11,2.11,0,0,1,.25-.07,15,15,0,0,1,3.18-.28c4,0,8,.13,12,.41Z" style="fill:#0e1438"/><path d="M1238.92,764.17l45.41-3.15c3.58-.25,7.24-.49,10.71.44,6.65,1.78,11.57,7.67,14,14.11s2.75,13.45,3.05,20.33l3.05,69.94a8.45,8.45,0,0,1-.4,3.75c-1.24,2.86-5,3.42-8.09,3.57l-44.87,2.2c-2.58.13-6.31-1.18-5.38-3.59" style="fill:#2f3155"/><path d="M1229.59,768.67l45.41-3.15c3.58-.25,7.24-.49,10.71.44,6.65,1.78,11.57,7.67,14,14.11s2.75,13.45,3.05,20.33l3.05,69.94a8.45,8.45,0,0,1-.4,3.75c-1.24,2.86-5,3.42-8.09,3.57l-44.87,2.2c-2.58.13-6.31-1.18-5.38-3.59" style="fill:#3e4166"/><path d="M1256.25,771.79c-59.63-56-155.88,43.52-96.17,104.64,38.82,39.73,119.18,31.26,125.25-33.11C1287.85,816.65,1275.48,789.86,1256.25,771.79Z" style="fill:#f3f4f6"/><path d="M1270.3,886c2.15-2.24,15.74,1.48,20.36-.35a48.62,48.62,0,0,1,6-2.37c7-1.75,22.58,6.38,26.94,12.16,1.27,1.7,1.8,4.14.71,6l-36.45-.34-21.77-.2A16.84,16.84,0,0,1,1270.3,886Z" style="fill:#0e1438"/><path d="M1132.27,900.46c2.7,0,5.41,0,8.11.15,1.35,0,2.7.1,4.05,0a26.62,26.62,0,0,1,4.05-.1c1.35.06,2.7.23,4.05.22s2.7-.06,4.05-.08l8.11-.37c1.35,0,2.7-.1,4.05-.08s2.7.1,4.05.17,2.7.09,4.05,0,2.7-.19,4.05-.21c5.41,0,10.81.44,16.22.4,1.35,0,2.7,0,4.05-.09s2.7-.19,4.05-.16,2.7.3,4.05.31a11.48,11.48,0,0,0,2-.12,13.67,13.67,0,0,1,2-.08l8.11.09c2.7.05,5.41.09,8.11.08a76.48,76.48,0,0,1,8.11.21,35.59,35.59,0,0,0,4.05.18c1.35,0,2.7-.25,4.05-.23,2.7,0,5.41.27,8.11.36,1.35.07,2.7,0,4.05,0l4.05-.08c2.7-.1,5.41,0,8.11,0s5.41,0,8.11.1c1.35,0,2.7,0,4.05,0l4.05-.17c2.7-.15,5.41-.25,8.11-.34s5.41-.13,8.11-.18c1.35,0,2.7,0,4.05,0l4.05.21c5.41.13,10.81-.45,16.22-.39a67,67,0,0,0,8.11,0c1.35,0,2.7-.06,4.05,0s2.7.26,4.05.31c2.7.18,5.41-.24,8.11.05a21.16,21.16,0,0,0,4.05,0,25.12,25.12,0,0,1,4.05-.15c2.7.14,5.41.33,8.11.3s5.41-.29,8.11-.1c1.35.08,2.7.14,4.05.09s2.7-.16,4.05-.22,2.7-.1,4.05-.13,2.7-.06,4.05,0v2.4c-1.35,0-2.7,0-4.05,0s-2.7,0-4.05-.08-2.7-.16-4.05-.16a37.8,37.8,0,0,0-4.05.18,34.4,34.4,0,0,1-4.05.12c-1.35-.07-2.7-.12-4.05-.17-2.7,0-5.41.23-8.11.4a19,19,0,0,1-4.05-.23,15.93,15.93,0,0,0-4.05,0c-2.7.38-5.41-.29-8.11-.15-1.35,0-2.7.21-4.05.26s-2.7,0-4.05,0a57.27,57.27,0,0,0-8.11-.09c-5.41.09-10.81-.45-16.22-.21l-4.05.33-2,.08h-2c-2.7,0-5.41,0-8.11-.08s-5.41-.1-8.11-.36a46.92,46.92,0,0,0-8.11-.14c-5.41.3-10.81.47-16.22.36-1.35-.06-2.7-.18-4.05-.25a37.75,37.75,0,0,0-4.05,0c-2.7.14-5.41.61-8.11.57-1.35,0-2.7-.43-4.05-.52a21.79,21.79,0,0,0-4.05.27,26.4,26.4,0,0,1-4.05.31l-4.05-.12c-2.7-.11-5.41-.12-8.11-.13l-8.11-.09a12.83,12.83,0,0,1-2-.13,11,11,0,0,0-2-.17c-1.35,0-2.7.24-4.05.23-2.7,0-5.41-.4-8.11-.34-5.41-.16-10.81,0-16.22,0-2.7,0-5.41-.12-8.11.07-1.35.09-2.7.2-4.05.21s-2.7,0-4.05,0l-8.11-.21c-1.35,0-2.7-.09-4.05-.06s-2.7.17-4.05.24a28.86,28.86,0,0,1-4.05-.06c-1.35-.07-2.7,0-4.05.05-2.7.13-5.41.14-8.11.2Z" style="fill:#0e1438"/><path d="M1228.08,646.66a13.27,13.27,0,0,1,15.9,4.25,24.35,24.35,0,0,1,3.1,7.33A221.63,221.63,0,0,1,1256,720c0,12.39,8.23,31.4,12.68,43a89,89,0,0,1-58.41-12.49c-1.12-.7-4.21-9.44-5-10.48a11.64,11.64,0,0,1-1.83-5.13c-4.94-26.89-17-53.82-13.14-80.89.23-1.66,11.33-6.22,12.58-7.34" style="fill:#fff"/><path d="M1199.85,637.36a30.27,30.27,0,0,1,10.35-4,23.61,23.61,0,0,0-5.11,11.32C1203.35,642.7,1196.54,639.4,1199.85,637.36Z" style="fill:#dfe2ec"/><path d="M1240.59,614.26c-1-10.14-3.25-14.22-9.63-22.2-7.2-9-16.28-12.1-25.79-17.64-7.34-4.27-18.09,6.64-20.53,12.71-4.42,11,1.11,24,10.18,31.68s28.24,8.54,28.24,8.54,14.27-1.11,16.87-6.66A12.29,12.29,0,0,0,1240.59,614.26Z" style="fill:#8183bf"/><polygon points="1224.35 585.69 1240.67 592.49 1234.2 600.67 1224.35 585.69" style="fill:#3e4166"/><path d="M1230.94,673.69a59.07,59.07,0,0,1-11.67-12.17c-8.19-11.56-15-13-15-13s.26-18.88-4.7-23.84l21.38-8.14c-3.91,12.31,7.24,31.32,10.31,43C1234.24,670.81,1230.94,673.69,1230.94,673.69Z" style="fill:#8183bf"/><path d="M1204.75,576.62c-5.17,4.27-14.63,5.85-17.66,11.45-1,1.77-1.39,4.09.14,5.35,3.15,2.6,8.28-2.61,12.62-2,4.71.68,4.2,6.89,1.74,10.69s-2.94,7.82-.11,10.67,2.82.89,5.79.72c2.12,1.66,2.23,4.71,1.05,7.14s-3.37,4.37-5.52,6.25c-1,.86-2.15,1.78-3.47,1.7a4.34,4.34,0,0,1-2.62-1.47l-19.6-18.52a6.36,6.36,0,0,1-2.19-3.1c-.38-1.9,1.1-3.77,1.63-5.7,1.48-5.3-4.16-10.77-1.28-15.67s10.78-4.26,16-7.17c7.54-4.21,9-18.29,15.32-16.51S1209.63,572.59,1204.75,576.62Z" style="fill:#0e1438"/><path d="M1216.94,577.16a6.46,6.46,0,0,1,1,.56c.2.43.76.17,1.13.26a9.76,9.76,0,0,1,1.92,1.17l.48.3.44.36a5.92,5.92,0,0,1,.86.77,1.35,1.35,0,0,0,.49.27,2.49,2.49,0,0,1,.48.3,2,2,0,0,0,1,.56,10.23,10.23,0,0,1,1,.6c.28.27.84,0,1.14.23s.7.27,1.05.41.74.2,1.07.38.55.57.91.68a3.78,3.78,0,0,1,1,.47,1.54,1.54,0,0,0,.94.63l1.09.34-1.09,2.09c-.34-.15-.69-.29-1-.46a2,2,0,0,0-1.12-.29,2.77,2.77,0,0,1-.93-.64c-.29-.25-.63-.41-.94-.62a5.19,5.19,0,0,1-.41-.43,1.28,1.28,0,0,0-.5-.26c-.36-.11-.76-.16-1.12-.29-.17-.08-.37-.09-.44-.37s-.25-.33-.44-.36c-.39-.06-.87,0-1.18-.16-.14-.13-.23-.37-.41-.43s-.36-.12-.53-.2a2.3,2.3,0,0,1-.48-.29c-.14-.14-.27-.3-.48-.29s-.44,0-.58-.11a2.86,2.86,0,0,1-.37-.51c-.07-.08-.12-.17-.21-.21a.87.87,0,0,1-.26-.11,3.11,3.11,0,0,1-.37-.5,1.41,1.41,0,0,0-1-.55,8.64,8.64,0,0,1-1.11-.3c-.33-.17-.49-.67-1-.56a6.51,6.51,0,0,1-1.07-.37Z" style="fill:#0e1438"/><path d="M1222.17,582.19c-.5.52-1,1-1.57,1.49-.71.3-.88,1.16-1.33,1.72a35.9,35.9,0,0,1-3.18,2.94l-.8.73-.85.68a21,21,0,0,1-1.74,1.32,5,5,0,0,0-.78.75c-.25.26-.54.48-.8.73a7.69,7.69,0,0,0-1.57,1.49c-.49.53-1.08,1-1.6,1.45s-.76,1.28-1.31,1.74l-2.87,3.24a15.52,15.52,0,0,0-1.66,1.39,13.62,13.62,0,0,1-1.5,1.56,7,7,0,0,0-.89.64,8.33,8.33,0,0,0-.73.8l-1.39,1.67-1.66-1.68c.5-.52,1-1.06,1.49-1.57.26-.25.49-.53.74-.79s.41-.61.62-.91a10.48,10.48,0,0,1,1.63-1.43c.58-.43,1.07-1,1.62-1.43,1.33-.7,2.08-2,3-3.09.25-.26.44-.58.85-.68a1.42,1.42,0,0,0,.85-.68,9.87,9.87,0,0,1,1.25-1.81,5.31,5.31,0,0,0,.9-.62c.26-.25.48-.54.72-.81s.51-.51.79-.74a2.58,2.58,0,0,0,.8-.73,2.35,2.35,0,0,1,.65-.88,8.41,8.41,0,0,1,1-.56,2.53,2.53,0,0,0,.45-.32,3.17,3.17,0,0,1,.37-.39,8.75,8.75,0,0,1,1-.57,5.16,5.16,0,0,0,1.57-1.49c.46-.56.86-1.18,1.36-1.7s1.27-.76,1.57-1.48c.45-.57.92-1.12,1.42-1.64Z" style="fill:#0e1438"/><polyline points="1188.21 700.28 1189.65 779.36 1239.98 772.17" style="fill:#dfe2ec"/><path d="M1177.6,693.89c-5.88.08-11.76.21-17.64.25h-4.41l-4.41-.08c-2.94-.07-5.88-.05-8.82-.3l-8.82-.07c-.73,0-1.47,0-2.2,0a8.76,8.76,0,0,0-1,0l-.48,0-.46.11a5.31,5.31,0,0,0-3.13,2.09,9.22,9.22,0,0,0-1.6,3.78,14.14,14.14,0,0,0-.2,4.22,7.37,7.37,0,0,0,1.16,3.74,1.45,1.45,0,0,0,1.32.55,3.42,3.42,0,0,0,1.6-.64l-.12.11a8.66,8.66,0,0,0,1.22-2.2c.36-.84.68-1.72,1.16-2.63a6.12,6.12,0,0,1,1-1.36,3.13,3.13,0,0,1,1.77-.89,2.67,2.67,0,0,1,1.06.07c.17,0,.35.1.51.16l.42.25a5.17,5.17,0,0,1,1.25,1.19c1.25,1.65,2,3.41,3,4.64l.38.39c.13.08.25.19.36.25a1.09,1.09,0,0,0,.58.12,2.64,2.64,0,0,0,1.33-1.12c.48-.65.92-1.45,1.4-2.25a19,19,0,0,1,1.65-2.48,4.73,4.73,0,0,1,1.35-1.16,2.9,2.9,0,0,1,2.06-.29,3.91,3.91,0,0,1,1.64.95,9.41,9.41,0,0,1,1,1.18c.6.78,1.1,1.57,1.63,2.13a1.7,1.7,0,0,0,.67.5.5.5,0,0,0,.39-.09,2.88,2.88,0,0,0,.73-1.75,13.27,13.27,0,0,0,.1-2.55l2.4,0a15.36,15.36,0,0,1-.18,3,7.42,7.42,0,0,1-.46,1.61,3.73,3.73,0,0,1-1.26,1.64,2.86,2.86,0,0,1-2.44.4,4,4,0,0,1-1.69-1.15c-.76-.84-1.26-1.64-1.78-2.32a7,7,0,0,0-.76-.86,1.72,1.72,0,0,0-.56-.35.44.44,0,0,0-.36.07,2.36,2.36,0,0,0-.63.59,21.35,21.35,0,0,0-1.4,2.13c-.48.79-.95,1.64-1.58,2.48a6.89,6.89,0,0,1-1.16,1.23,3.72,3.72,0,0,1-1.86.84,3.46,3.46,0,0,1-2.07-.46,7.24,7.24,0,0,1-.76-.57l-.58-.63a18.08,18.08,0,0,1-1.6-2.52,20.39,20.39,0,0,0-1.36-2.24,3,3,0,0,0-.7-.7l-.15-.1-.13,0c-.08-.06-.16,0-.24,0a1,1,0,0,0-.54.28,4.24,4.24,0,0,0-.6.85c-.39.7-.72,1.56-1.11,2.44a10.31,10.31,0,0,1-1.62,2.73l-.08.09-.1.07a5.86,5.86,0,0,1-1.25.67,4.53,4.53,0,0,1-1.44.33,3.48,3.48,0,0,1-1.64-.28,3.12,3.12,0,0,1-.73-.44,2.86,2.86,0,0,1-.58-.56,6.2,6.2,0,0,1-1.16-2.47,14.75,14.75,0,0,1-.39-2.39,19.67,19.67,0,0,1,.24-4.73,12.2,12.2,0,0,1,1.72-4.62,7.51,7.51,0,0,1,4.24-3.21l.66-.18.66-.07a11.68,11.68,0,0,1,1.26-.08c.73,0,1.47,0,2.2,0,2.94.07,5.88.36,8.82.46,5.88-.29,11.76.65,17.64,0,2.94-.14,5.88-.09,8.82-.15s5.88-.06,8.82,0Z" style="fill:#0e1438"/><path d="M1255.76,759a18.71,18.71,0,0,1,9.39-4,8.4,8.4,0,0,1-3.42,10.44" style="fill:#dfe2ec"/><path d="M1215.27,728c.26-20.55,6.08-26.42,2.36-46.63-1.3-7.09-3.82-15.77-8.36-21.37-3.91-4.83-18.33-7.67-19.67-1.67-5.52,24.86-6,52.61-.77,77.19.77,3.72,1.71,7.58,4.16,10.49s4.59,4.24,9.27,6c10.42,3.87,18.41,5.89,21.58,7.15,8,3.16,16.54,4.85,23.86,9.3,3.14-6.5,6.65-11.36,13.56-13.45C1246,747.9,1234.27,735.53,1215.27,728Z" style="fill:#fff"/><path d="M1266.23,765.34l11.84-1.52a13.56,13.56,0,0,1,11.52,2.52c1.76,1.07,3.69,2.37,4.1,4.39.62,3-2.77,5.62-5.88,5.65s-6-1.57-8.9-2.6a25.65,25.65,0,0,0-11.64-1.24c-2,.25-4.38.55-5.54-1.06-1.32-1.84.43-4.48,2.53-5.31s4.49-.65,6.62-1.43" style="fill:#8183bf"/><path d="M1273.7,765.77c-5.17-1.15-9.14-5.13-13.6-8a3.5,3.5,0,0,0-1.76-.69,3.44,3.44,0,0,0-1.82.68c-3.08,1.94-7.69,7.62-7.69,7.62l13.94,6.64" style="fill:#8183bf"/><path d="M1285.34,843.33a65.2,65.2,0,0,1-8.08,26.52c-22.52,39.32-84.53,40-117.17,6.59-29.43-30.13-21-69.59,2.31-95.15,24-26.31,63.61-37.91,93.85-9.49C1275.48,789.86,1287.85,816.65,1285.34,843.33Z" style="fill:#dfe2ec"/><path d="M1215.36,825.4c-2.63-2.47-6.88,1.92-4.25,4.62,1.71,1.75,5.26,1.38,5.53-1.46A4,4,0,0,0,1215.36,825.4Z" style="fill:#0e1438"/><path d="M1295,649.91c2.86-7.56,7.83-18.48,10.48-26.57.71-2.17,1.58-4.7,3.74-5.43a7,7,0,0,1,3-.12c1.39.15,3.21.8,3,2.18a3.2,3.2,0,0,1-.84,1.44c-2,2.5-2,5.86-1.33,8.8a58.33,58.33,0,0,1,.49,19.19c-.59,5.29-1.45,12.33-4.91,16.6-7.56,9.3-15.51-1.68-15.63-8.47a13.85,13.85,0,0,1,1-4.63Q1294.46,651.39,1295,649.91Z" style="fill:#8183bf"/><path d="M1305.7,624.44a7.72,7.72,0,0,1,1.25-7.31c2.83-3.49,8.08-3.83,11.62-6.59,2.82-2.2,4.39-5.79,7.41-7.71a16.25,16.25,0,0,1-8.2,18.65c-2.5,1.21-5.34,1.77-7.6,3.39" style="fill:#8183bf"/><path d="M1285.34,843.33a65.2,65.2,0,0,1-8.08,26.52,12.92,12.92,0,0,1-2.11-3.21c-2.42-5.24-1.17-11.32-1-17.08.75-19.15-11.8-38.1-29.71-44.9-10.14-3.84-21.86-4.24-30.42-10.89-7.78-6-11.92-16.56-21-20.49-10.18-4.43-21.64,1.46-30.72,8,24-26.31,63.61-37.91,93.85-9.49C1275.48,789.86,1287.85,816.65,1285.34,843.33Z" style="fill:#abb7d2;opacity:0.30000000000000004"/><path d="M1256.86,772.73a77.84,77.84,0,0,0-24.77-13.1,54.14,54.14,0,0,0-6.82-1.68,31.13,31.13,0,0,0-3.48-.48l-1.75-.17c-.58,0-1.17-.05-1.75-.08a59.55,59.55,0,0,0-13.93,1.08,68.82,68.82,0,0,0-25.69,10.65,81.61,81.61,0,0,0-20.21,19.4,87,87,0,0,0-12.9,24.95,70.66,70.66,0,0,0-3.34,27.82,55.33,55.33,0,0,0,9.49,26.23,56.71,56.71,0,0,0,9.34,10.56,67.24,67.24,0,0,0,5.48,4.5c.94.71,1.95,1.34,2.92,2s1.95,1.34,3,1.92l3.05,1.8c1,.57,2.09,1.1,3.14,1.65l1.57.82c.53.26,1.08.49,1.61.73l3.24,1.45,3.32,1.26,1.66.63,1.7.53,3.39,1,3.45.86c.58.14,1.15.3,1.73.42l1.74.33c1.16.21,2.32.47,3.49.64,2.36.25,4.7.6,7.07.67,1.18,0,2.36.16,3.54.15h3.54c1.18,0,2.36-.07,3.54-.11s2.36-.07,3.53-.22l3.52-.37c1.17-.14,2.33-.37,3.49-.55l1.74-.29c.58-.11,1.15-.26,1.72-.39l3.44-.81a77.23,77.23,0,0,0,13.17-5,64.14,64.14,0,0,0,11.76-7.64c.93-.71,1.74-1.56,2.61-2.34l1.29-1.19c.42-.41.79-.86,1.19-1.28.78-.87,1.59-1.71,2.34-2.6l2.12-2.78a54.82,54.82,0,0,0,6.88-12.16,61.78,61.78,0,0,0,2.34-6.62c.36-1.12.53-2.29.81-3.43l.38-1.72.19-.86.12-.87a78.88,78.88,0,0,0,1-14.05,90.71,90.71,0,0,0-1.52-14,77,77,0,0,0-9.88-26.32,75.33,75.33,0,0,0-8.28-11.41A77.44,77.44,0,0,0,1256.86,772.73Zm1.45-1.87a79.78,79.78,0,0,1,10.55,10c.83.88,1.53,1.87,2.31,2.8s1.53,1.88,2.2,2.89l2.08,3,1.9,3.1c.31.52.64,1,.93,1.56l.85,1.61c.55,1.08,1.16,2.13,1.67,3.23,1,2.21,2,4.39,2.85,6.68s1.64,4.55,2.41,6.85c.36,1.16.64,2.34,1,3.51l.46,1.76.36,1.78a78,78,0,0,1,.45,29l-.13.9-.2.89-.41,1.78c-.29,1.18-.5,2.38-.87,3.54a64.18,64.18,0,0,1-2.39,6.89,57.25,57.25,0,0,1-7.11,12.73l-2.27,2.86c-.8.92-1.66,1.78-2.49,2.67-.42.44-.82.9-1.27,1.31l-1.36,1.21c-.92.79-1.77,1.67-2.75,2.39l-2.9,2.2c-1,.74-2,1.32-3,2l-1.52,1-1.58.89c-1.06.58-2.1,1.21-3.19,1.74a79.4,79.4,0,0,1-13.56,5.16l-3.53.84c-.59.13-1.18.29-1.77.4l-1.79.3c-1.19.19-2.38.43-3.58.57l-3.61.39c-1.2.16-2.41.16-3.62.23s-2.42.16-3.63.12-2.42-.07-3.63-.1-2.41-.23-3.61-.34c-4.8-.58-9.57-1.27-14.28-2.3l-3.53-.82-3.48-1-1.74-.51-1.71-.61-3.42-1.22-3.34-1.42c-.56-.24-1.12-.46-1.67-.72l-1.63-.81c-1.08-.55-2.18-1.06-3.25-1.63l-3.11-1.89c-1.05-.61-2-1.31-3-2s-2-1.38-3-2.12c-1.88-1.54-3.8-3-5.57-4.67a58.4,58.4,0,0,1-9.77-10.82,55.62,55.62,0,0,1-6.69-13c-.39-1.16-.75-2.32-1.1-3.49s-.65-2.35-.88-3.55-.51-2.38-.67-3.59l-.31-1.8c-.09-.6-.15-1.21-.23-1.81a60.07,60.07,0,0,1-.44-7.29c0-1.22.06-2.43.08-3.65s.2-2.43.35-3.63a75.52,75.52,0,0,1,3.29-14.16,100.55,100.55,0,0,1,5.56-13.37,90,90,0,0,1,7.82-12.15,92.14,92.14,0,0,1,20.69-20,69.15,69.15,0,0,1,26.5-11.26,62.21,62.21,0,0,1,14.49-.72c.6,0,1.21.07,1.81.13l1.8.22c1.21.12,2.39.36,3.59.54s2.38.44,3.56.69,2.35.57,3.52.88A78.06,78.06,0,0,1,1258.3,770.86Z" style="fill:#0e1438"/><path d="M1257.26,749.73c-6.59-2-13.25-4-19.28-7.27s-11.49-8.08-14.39-14.31a48.93,48.93,0,0,1-3-9.75L1212,681a37.73,37.73,0,0,0-2.3,16.18c.45,5.84,2.27,11.57,2,17.42s-3.53,12.22-9.25,13.44a16.54,16.54,0,0,1,11.2.2,69.33,69.33,0,0,0-11.66,9.83,32.42,32.42,0,0,0,12.7-3.88l-1.24,7.09c2.19-1.64,4.53-3.34,7.26-3.63,3.41-.35,6.59,1.57,9.58,3.25a84.91,84.91,0,0,0,28.06,9.74" style="fill:#f3f4f6"/><path d="M1232.39,645.32,1272,661.27c4.15,1.67,13.72,4.3,15.31,3s3.1-15.1,3.62-15.85c1-1.45,16,.28,21.52,1,1.46.19,3.07.45,4,1.59,1.34,1.61-6.11,21.73-11.63,36a6.78,6.78,0,0,1-2.13,3.34,6.62,6.62,0,0,1-3.39.86c-8.39.55-41.49,1.11-49.86.26" style="fill:#fff"/><path d="M1224.08,660.24l-10.14-15a10.91,10.91,0,0,0-9-6.09,43.9,43.9,0,0,1-7-2.47s-.81,9.69,2.51,12.08a18,18,0,0,0,2.75,1.46c5.26,2.55,9.47,6.8,13.58,11s10.44,9.38,14.5,13.5C1231.94,669.9,1226.79,664.25,1224.08,660.24Z" style="fill:#fff"/><path d="M1233.53,641.17c-3.84-1.54-10.26-5.14-10.26-5.14,4.63,12.05,8.94,25.92,6.46,38.59a6,6,0,0,1,3,1.88C1235.54,665,1231.92,652.87,1233.53,641.17Z" style="fill:#fff"/><path d="M1146.05,674.87c1.88,4.09,4.66,8.8,9.16,8.9,2.73.06,5.85-1.62,8,.12,1.29,1.06,1.49,2.94,2.36,4.37,1.38,2.27,4.22,3.1,6.8,3.75,3.28.83,6.67,1.66,10,1.18,1.84-.27,3.67-.93,5.52-.72s3.76,1.76,3.45,3.6c-2.2.28-3.93,1.92-5.83,3.06-4.16,2.48-9.27,2.55-14.12,2.55-4.13,0-8.27,0-12.4,0-5,0-5.15.57-7.12-3.39C1148.36,691.26,1149.56,681.89,1146.05,674.87Z" style="fill:#f3f4f6"/><path d="M1181.59,668.5a32.5,32.5,0,0,1,7.5,10.79,8.93,8.93,0,0,0-2.66-8.13,23.13,23.13,0,0,1,7.11,2.69,10.22,10.22,0,0,0-5.56-6.63,3.58,3.58,0,0,0,2.54-1.9,6.59,6.59,0,0,1-3.93-2.17,11.4,11.4,0,0,1-5.17,6.51" style="fill:#f3f4f6"/><rect x="1413.12" y="157.42" width="288.96" height="356.78" style="fill:#fff"/><path d="M1702.92,515l-72.42.12c-12.09,0-24.21-.08-36.26,0l-36.13.26-18.09.13-18.13,0-36.26.05-72.51-.11a1.32,1.32,0,0,1-1.32-1.32l.13-89.19.27-89.19c.21-29.73,0-59.46.14-89.19l.1-44.6c.07-14.87,0-29.73,0-44.6a.71.71,0,0,1,.71-.71h0l72.24.05,18.06,0q9,0,18.06,0l36.12-.22,144.48-.25a1.15,1.15,0,0,1,1.15,1.15h0c.13,29.8,0,59.61-.12,89.39v89.43l-.19,44.63c-.1,14.85,0,29.79,0,44.69Zm-1.67-1.67-.21-89.07-.36-89.07.11-88.86c0-29.64,0-59.28.19-88.95l1.11,1.11c-24.08-.13-48.16,0-72.24.06l-72.24.18c-12,0-24.08-.17-36.12-.24l-9-.07-9,0-18.06.09-36.12.19-18.06.1-9,0-9,0,1.47-1.47c0,14.87-.22,29.73-.15,44.6l0,44.6c.07,29.73-.26,59.46,0,89.19s-.33,59.46-.3,89.19c0,14.87-.09,29.73-.19,44.6s-.2,29.73-.19,44.6l-.73-.73,72.07-.15,36-.08,18,0,18,.07,36.08.14,36-.08Z" style="fill:#3e4166"/><path d="M1447,418.66c9.46-.08,18.92.31,28.38-.24,9.46-.15,18.92.13,28.38.15l7.1,0,7.09.12q7.1.1,14.19.28c2.36.08,4.73,0,7.09,0s4.73,0,7.1,0l7.1.1c2.36,0,4.73,0,7.09,0,4.73,0,9.46.08,14.19.07,4.73.15,9.46-.37,14.19-.29l28.38-.29,7.1.12c2.36.05,4.73.08,7.1,0l7.09,0c2.36,0,4.73-.07,7.1,0l7.09.16c2.37,0,4.73,0,7.1,0l14.19-.21a1.18,1.18,0,1,1,0,2.36h0l-14.19.08-7.1,0-7.09.19c-2.36.09-4.73,0-7.1,0l-7.09-.1c-4.73-.1-9.46-.08-14.19-.13-9.46-.39-18.92,0-28.38,0a69.21,69.21,0,0,1-7.1-.09,58.69,58.69,0,0,0-7.1-.11c-4.73.13-9.46.42-14.19.4-18.92-.28-37.84,0-56.76-.63-9.46-.36-18.92.14-28.38.2l-7.1-.13c-1.18,0-2.36-.07-3.55,0l-3.55.11c-4.73.11-9.46.11-14.19.18a1.18,1.18,0,0,1,0-2.36h0Z" style="fill:#3e4166"/><path d="M1469.15,396.53c8.26-.12,16.53-.43,24.79-.12l3.1.07c.52,0,1,.1,1.55.15s1,0,1.55,0l6.2.06c4.13,0,8.26.39,12.4.39,8.26-.12,16.53-.31,24.79-.52,2.07,0,4.13-.13,6.2-.06l6.2.2c2.07.05,4.13,0,6.2-.06s4.13-.07,6.2-.14v2.4c-4.13.06-8.26.16-12.4.18-1,0-2.07,0-3.1,0l-3.1-.13c-2.07-.1-4.13-.06-6.2-.06l-24.79.11c-4.13.11-8.26.38-12.4.2-2.07-.09-4.13-.32-6.2-.4-.52,0-1-.06-1.55,0s-1,.1-1.55.09l-3.1-.13c-2.07-.09-4.13-.21-6.2-.2-1,0-2.07.1-3.1.18s-2.07.11-3.1.11c-4.13,0-8.26.15-12.4.1Z" style="fill:#616eb3"/><path d="M1469.15,404.27c5.78-.12,11.55-.43,17.33-.12l2.17.07c.36,0,.72.1,1.08.15s.72,0,1.08,0l4.33.06c2.89,0,5.78.39,8.67.39,5.78,0,11.55-.35,17.33-.52,1.44,0,2.89-.14,4.33-.08s2.89.17,4.33.21,2.89,0,4.33-.06,2.89-.07,4.33-.14v2.4l-8.67.19c-1.44,0-2.89-.08-4.33-.17s-2.89,0-4.33,0l-17.33.11c-2.89.08-5.78.41-8.67.21-1.44-.09-2.89-.32-4.33-.4a8.88,8.88,0,0,0-1.08,0c-.36,0-.72.1-1.08.09-.72,0-1.44-.06-2.17-.11-1.44-.12-2.89-.22-4.33-.21a21.44,21.44,0,0,0-2.17.18c-.72.08-1.44.11-2.17.11-2.89,0-5.78.15-8.67.1Z" style="fill:#616eb3"/><rect x="1470.62" y="441.95" width="176.92" height="47.18" rx="23.59" ry="23.59" style="fill:#8183bf"/><path d="M1551.06,285.48c-.82-8.46-1.8-16.92-2.09-25.42l-.15-3.19c0-.53,0-1.07,0-1.6s0-1.06-.07-1.59l-.36-6.37c-.27-4.24-.13-8.51-.37-12.75l-1.87-25.43c-.16-2.12-.35-4.24-.4-6.36l-.14-6.37c-.06-2.12-.27-4.24-.4-6.36s-.3-4.24-.5-6.35l2.4-.14c.29,4.24.63,8.48.88,12.72,0,1.06.14,2.12.15,3.18l0,3.19c0,2.13.16,4.25.28,6.37.48,8.48.91,17,1.46,25.45.34,4.23.87,8.45,1,12.7,0,2.12-.05,4.26,0,6.38,0,.53,0,1.06.06,1.59s.17,1.05.2,1.58l.1,3.19c.06,2.12.09,4.25.27,6.37.09,1.06.25,2.11.41,3.16s.27,2.11.36,3.17c.36,4.23.82,8.45,1.13,12.69Z" style="fill:#2a3376"/><path d="M1552.23,285.31c-13.26-.38-28.4-10.63-32.86-23.17-.58-1.62,11.36.62,12.5.91,12.37,3.14,12.57,12.7,20.07,21.49" style="fill:#2a3376"/><path d="M1552.09,285.31c13.26-.38,28.4-10.63,32.86-23.17.58-1.62-11.36.62-12.5.91-12.37,3.14-12.57,12.7-20.07,21.49" style="fill:#2a3376"/><path d="M1550.43,254.67c-10.29-.3-22-8.24-25.49-18-.45-1.26,8.81.48,9.7.71,9.6,2.44,9.75,9.85,15.57,16.67" style="fill:#2a3376"/><path d="M1550.32,254.67c10.29-.3,22-8.24,25.49-18,.45-1.26-8.81.48-9.7.71-9.6,2.44-9.75,9.85-15.57,16.67" style="fill:#2a3376"/><path d="M1548.63,229.08c-8.31-.24-17.78-6.65-20.58-14.51-.36-1,7.11.39,7.83.57,7.75,2,7.87,7.95,12.56,13.46" style="fill:#2a3376"/><path d="M1548.55,229.08c8.31-.24,17.78-6.65,20.58-14.51.36-1-7.11.39-7.83.57-7.75,2-7.87,7.95-12.56,13.46" style="fill:#2a3376"/><path d="M1547.43,203.84c-5.38-.16-11.53-4.31-13.34-9.41-.23-.66,4.61.25,5.08.37,5,1.28,5.1,5.15,8.15,8.73" style="fill:#2a3376"/><path d="M1547.37,203.84c5.38-.16,11.53-4.31,13.34-9.41.23-.66-4.61.25-5.08.37-5,1.28-5.1,5.15-8.15,8.73" style="fill:#2a3376"/><path d="M1545.71,186.19a27.64,27.64,0,0,1-3.82-17.25,16.22,16.22,0,0,1,4.08,16.44" style="fill:#2a3376"/><path d="M1613.44,284.25c2.85.07-4.41,35-6,39.13-7.11,18.89-25.39,38.35-46.93,38.35-53.89,0-57.5-34.77-63.13-77.47C1497.43,284.25,1585.18,284.24,1613.44,284.25Z" style="fill:#f3f4f6;stroke:#f3f4f6;stroke-miterlimit:10"/><path d="M1487.75,305.34a43.36,43.36,0,0,0,8.41.69,21.23,21.23,0,0,0,8-1.68,14.06,14.06,0,0,0,6.11-5.06,10,10,0,0,0,1.48-7.44l.86,1c-2.81-.83-5.86,2.28-6.18,5.37a6.68,6.68,0,0,0,1.28,4.49,12.2,12.2,0,0,0,3.78,3.47,20.7,20.7,0,0,0,10.41,2.7,23.92,23.92,0,0,0,10.66-2.4,18.89,18.89,0,0,0,4.51-3,8.78,8.78,0,0,0,2.69-4.23,5.3,5.3,0,0,0-1-4.47,3.23,3.23,0,0,0-3.9-1.08,5.21,5.21,0,0,0-2.78,3.7,7.13,7.13,0,0,0,1.13,4.85,13.42,13.42,0,0,0,3.77,3.91,16.3,16.3,0,0,0,5,2.44,8.83,8.83,0,0,0,1.35.36c.46.09.91.21,1.37.28a25.1,25.1,0,0,0,2.78.25,23.05,23.05,0,0,0,2.8-.07,23.31,23.31,0,0,0,2.76-.47,24.38,24.38,0,0,0,2.69-.79,21.69,21.69,0,0,0,2.54-1.18,20.13,20.13,0,0,0,2.36-1.5,18.3,18.3,0,0,0,2.07-1.88,10.91,10.91,0,0,0,2.85-4.63,5.46,5.46,0,0,0,.13-2.55,4.49,4.49,0,0,0-1.18-2.17,3.25,3.25,0,0,0-2.07-1,3.08,3.08,0,0,0-2.18.78,5.35,5.35,0,0,0-1.51,2.07,6.48,6.48,0,0,0-.43,1.26,5.5,5.5,0,0,0-.2,1.31,9.19,9.19,0,0,0,1.37,5.16,13.32,13.32,0,0,0,3.77,4,13.07,13.07,0,0,0,5.06,2.08,12.91,12.91,0,0,0,2.73.19,17.36,17.36,0,0,0,2.73-.26,13.33,13.33,0,0,0,8.94-5.59,11.3,11.3,0,0,0,1.26-10.16l.84.66a5.58,5.58,0,0,0-4.7,1.87,6.89,6.89,0,0,0-1.42,2.26,6.82,6.82,0,0,0-.38,2.63,9.53,9.53,0,0,0,1.89,5.15,12.16,12.16,0,0,0,4.29,3.67,13.06,13.06,0,0,0,11.2.43,13.41,13.41,0,0,0,7.19-8.65,12.92,12.92,0,0,0,.4-2.82,4.35,4.35,0,0,0-.79-2.3,4.79,4.79,0,0,0-.81-.91,1.59,1.59,0,0,0-.76-.39c-.16,0-.27,0-.49.24a1.78,1.78,0,0,0-.35.92,9.5,9.5,0,0,0,1,5.49,11.09,11.09,0,0,0,3.9,4.19,9.51,9.51,0,0,0,5.39,1.55,9.28,9.28,0,0,0,5.23-1.91,10.44,10.44,0,0,0,4.23-9.89l2.33-.41a11.75,11.75,0,0,1-.93,6.83,13.4,13.4,0,0,1-4.29,5.31,11.28,11.28,0,0,1-13.17.4,13.86,13.86,0,0,1-4.68-5,11.78,11.78,0,0,1-1.46-6.88,4.25,4.25,0,0,1,.84-2.18,3.56,3.56,0,0,1,1.07-.89A3,3,0,0,1,1601,293a4.06,4.06,0,0,1,2.31.91,6.12,6.12,0,0,1,1.37,1.5,6.92,6.92,0,0,1,1.2,3.81,15.39,15.39,0,0,1-.53,3.47,15.4,15.4,0,0,1-22,9.73,13.88,13.88,0,0,1-5.19-4.42,11.9,11.9,0,0,1-2.2-6.51,8.66,8.66,0,0,1,2.56-6.45,7.8,7.8,0,0,1,6.56-2.51l.62.08.24.6a13.46,13.46,0,0,1-1.43,12.17,15.55,15.55,0,0,1-10.4,6.58,14.71,14.71,0,0,1-6.25-.14,16.77,16.77,0,0,1-5.63-2.71,15.85,15.85,0,0,1-4.32-4.47,11,11,0,0,1-1.75-6.18,7.37,7.37,0,0,1,.21-1.67,8.42,8.42,0,0,1,.51-1.6,7.34,7.34,0,0,1,2-2.86,5.18,5.18,0,0,1,3.64-1.34,5.33,5.33,0,0,1,3.54,1.65,6.67,6.67,0,0,1,1.7,3.28,7.42,7.42,0,0,1-.23,3.55,13.81,13.81,0,0,1-3.42,5.41,22.18,22.18,0,0,1-22.77,5.66c-.49-.17-1-.3-1.46-.51l-1.42-.63c-.47-.21-.9-.5-1.36-.75l-.68-.38-.64-.44a15.76,15.76,0,0,1-4.54-4.37,8.87,8.87,0,0,1-1.56-6.54,7.59,7.59,0,0,1,4.2-5.45,5.57,5.57,0,0,1,3.7-.25,5.85,5.85,0,0,1,3,2,7.8,7.8,0,0,1,1.5,6.44,9.33,9.33,0,0,1-1.29,3,12.6,12.6,0,0,1-2.1,2.37,21.15,21.15,0,0,1-5.12,3.27,28.18,28.18,0,0,1-11.61,2.54,25,25,0,0,1-5.93-.67,20.11,20.11,0,0,1-5.63-2.16,14.22,14.22,0,0,1-4.6-4.08,10.79,10.79,0,0,1-1.41-2.85,7.62,7.62,0,0,1-.33-3.27,9.29,9.29,0,0,1,2.93-5.71,7.26,7.26,0,0,1,2.94-1.61,6.07,6.07,0,0,1,3.45.09l.56.18.11.57a12.16,12.16,0,0,1-2.09,8.93,16.46,16.46,0,0,1-6.84,6,23.47,23.47,0,0,1-8.83,1.94,45.65,45.65,0,0,1-8.87-.64Z" style="fill:#fff"/><path d="M1604.56,320.2a33.92,33.92,0,0,0-6.57-.54,16.47,16.47,0,0,0-6.21,1.3,10.8,10.8,0,0,0-4.73,3.89,7.63,7.63,0,0,0-1.09,5.68l-.86-1c2,.58,4.24-1.71,4.48-4a5,5,0,0,0-1-3.33,9.37,9.37,0,0,0-2.88-2.65,16,16,0,0,0-8-2.11,18.52,18.52,0,0,0-8.27,1.85,14.64,14.64,0,0,0-3.49,2.31,6.71,6.71,0,0,0-2.05,3.19,3.92,3.92,0,0,0,.73,3.31,2.31,2.31,0,0,0,2.8.8,3.89,3.89,0,0,0,2.07-2.75,5.43,5.43,0,0,0-.85-3.68,10.38,10.38,0,0,0-2.9-3,12.5,12.5,0,0,0-3.86-1.9c-5.52-1.66-12.09-.36-16.15,3.88a8.38,8.38,0,0,0-2.21,3.59,4.16,4.16,0,0,0-.09,1.94,3.39,3.39,0,0,0,.89,1.63,2.42,2.42,0,0,0,1.53.78,2.28,2.28,0,0,0,1.61-.58,5.14,5.14,0,0,0,1.64-3.55c.16-2.77-1.65-5.48-4-7.11a10.11,10.11,0,0,0-3.94-1.58,13.09,13.09,0,0,0-4.24.08A10.3,10.3,0,0,0,1530,321a8.69,8.69,0,0,0-1,7.81l-.84-.66a4.17,4.17,0,0,0,3.5-1.41,5.19,5.19,0,0,0,1.06-1.71,5.13,5.13,0,0,0,.28-2,7.26,7.26,0,0,0-1.45-3.91,9.42,9.42,0,0,0-3.28-2.82,10,10,0,0,0-8.62-.36,10.34,10.34,0,0,0-5.53,6.67,10,10,0,0,0-.3,2.16,3.2,3.2,0,0,0,.58,1.68,3.74,3.74,0,0,0,.58.67,1.14,1.14,0,0,0,.46.26c.05,0,.05,0,.2-.1a1.16,1.16,0,0,0,.23-.61,7.27,7.27,0,0,0-.73-4.2,8.47,8.47,0,0,0-3-3.22,7.29,7.29,0,0,0-4.13-1.18,7.08,7.08,0,0,0-4,1.47,8,8,0,0,0-3.22,7.56l-2.33.41a9.51,9.51,0,0,1,.74-5.53,10.81,10.81,0,0,1,3.46-4.29,9.44,9.44,0,0,1,5.28-1.89,9.53,9.53,0,0,1,5.39,1.55,11.24,11.24,0,0,1,3.79,4.06,9.55,9.55,0,0,1,1.21,5.59,3.64,3.64,0,0,1-.73,1.87,3.11,3.11,0,0,1-.94.78,2.64,2.64,0,0,1-1.33.3,3.52,3.52,0,0,1-2-.78,5,5,0,0,1-1.15-1.26,5.77,5.77,0,0,1-1-3.18,12.41,12.41,0,0,1,.43-2.81,12.44,12.44,0,0,1,17.74-7.82,11.13,11.13,0,0,1,4.18,3.57,9.63,9.63,0,0,1,1.76,5.27,7,7,0,0,1-2.09,5.25,6.38,6.38,0,0,1-5.36,2.05l-.62-.08-.24-.6a10.85,10.85,0,0,1,1.13-9.82,12.52,12.52,0,0,1,8.36-5.32,11.44,11.44,0,0,1,5,.13,13.85,13.85,0,0,1,4.51,2.22,12.82,12.82,0,0,1,3.48,3.58,8.93,8.93,0,0,1,1.44,5,7.37,7.37,0,0,1-.58,2.68,6.05,6.05,0,0,1-1.64,2.36,4.38,4.38,0,0,1-3.08,1.14,4.5,4.5,0,0,1-3-1.39,5.57,5.57,0,0,1-1.41-2.74,6.11,6.11,0,0,1,.19-2.94,11.28,11.28,0,0,1,2.78-4.37,17.67,17.67,0,0,1,18.22-4.53,16.83,16.83,0,0,1,2.3.92c.38.17.72.4,1.09.6l.54.3.52.35a12.72,12.72,0,0,1,3.68,3.5,7.18,7.18,0,0,1,1.28,5.37,6.27,6.27,0,0,1-3.5,4.5,4.66,4.66,0,0,1-3.1.19,4.85,4.85,0,0,1-2.45-1.7,6.43,6.43,0,0,1-1.22-5.29,7.57,7.57,0,0,1,1-2.45,10.14,10.14,0,0,1,1.7-1.9,16.86,16.86,0,0,1,4.1-2.58,22.81,22.81,0,0,1,9.23-2,19.85,19.85,0,0,1,4.71.53,16.05,16.05,0,0,1,4.49,1.7,11.39,11.39,0,0,1,3.69,3.26,8.69,8.69,0,0,1,1.15,2.3,6.21,6.21,0,0,1,.28,2.66,7.53,7.53,0,0,1-2.37,4.64,5.91,5.91,0,0,1-2.41,1.31,5,5,0,0,1-2.84-.08l-.56-.19-.11-.57a9.77,9.77,0,0,1,1.69-7.18,13.19,13.19,0,0,1,5.46-4.85,18.73,18.73,0,0,1,7-1.56,36.23,36.23,0,0,1,7,.5Z" style="fill:#fff"/><path d="M1608.23,323.38c-7.11,18.89-25.39,38.35-46.93,38.35-53.89,0-57.5-34.76-63.13-77.47h1.68c5.17,36.78,12.94,64.94,61.45,64.94,21.55,0,39.82-19.45,46.93-38.35.93-2.46,3.93-16.11,5.55-26.6h.41C1617,284.32,1609.77,319.29,1608.23,323.38Z" style="fill:#dfe2ec;opacity:0.5"/><path d="M1452.51,386.11a30.12,30.12,0,0,0,11.53-6c.87-.66,1.62-1.47,2.42-2.21s1.5-1.59,2.16-2.46a31.74,31.74,0,0,0,3.61-5.44,32.48,32.48,0,0,0,2.5-6,32,32,0,0,0,.7-3.19c.08-.53.19-1.09.24-1.6a13.1,13.1,0,0,0,.06-1.47c0-2.06-1.49-2.71-3.06-1.42a10.14,10.14,0,0,0-2.05,2.33,31.25,31.25,0,0,0-1.77,2.8,26.39,26.39,0,0,0-2.58,6,16.72,16.72,0,0,0-.52,6.51c.56,4.34,3.29,8.47,7.26,10.1s8.69,1,12.56-.92,7.27-5,10.52-8.14l2.43-2.36-.44,3.4a24.41,24.41,0,0,0-.21,3.77,7.13,7.13,0,0,0,.82,3.27,3.31,3.31,0,0,0,2.48,1.58,9,9,0,0,0,3.57-.52,31.73,31.73,0,0,1,4-1.1,21.08,21.08,0,0,1,4.22-.35,21.82,21.82,0,0,1,8.27,1.84l-1,2.17a18.53,18.53,0,0,0-11.05-1.34,28.67,28.67,0,0,0-3.72,1,11.79,11.79,0,0,1-4.49.67,5.62,5.62,0,0,1-4.29-2.65,9.15,9.15,0,0,1-1.18-4.48,26,26,0,0,1,.28-4.25l1.95,1c-3.32,3.13-6.86,6.31-11.22,8.38a20.08,20.08,0,0,1-7,1.91,15.2,15.2,0,0,1-7.28-1.12,13.33,13.33,0,0,1-5.69-4.79,16.26,16.26,0,0,1-1.7-3.29,17.69,17.69,0,0,1-1-3.55,21.22,21.22,0,0,1,2.85-14.07,25.57,25.57,0,0,1,2-3,12.38,12.38,0,0,1,2.64-2.73,5.92,5.92,0,0,1,2-.94,3.53,3.53,0,0,1,4.1,1.88,6.85,6.85,0,0,1,.65,2,6.75,6.75,0,0,1,.06,1.93c-.07.62-.19,1.18-.29,1.77a34.34,34.34,0,0,1-.81,3.44,35,35,0,0,1-1.24,3.3c-.24.53-.44,1.09-.7,1.61l-.8,1.56a41.36,41.36,0,0,1-3.67,6,30.18,30.18,0,0,1-2.31,2.66c-.87.79-1.68,1.66-2.62,2.37a31.51,31.51,0,0,1-12.54,6.41Z" style="fill:#2a3376"/><path d="M1517.15,470.47c5.24-1,10.49-2,15.23-4a21.64,21.64,0,0,0,6.37-3.91,11.31,11.31,0,0,0,2.27-2.72,6.34,6.34,0,0,0,.86-3.14l1.51,1.23a10.54,10.54,0,0,0-3,.92,8,8,0,0,0-1.39.75,4.94,4.94,0,0,0-1.09,1.08,3.51,3.51,0,0,0-.79,2.61,4.61,4.61,0,0,0,1.35,2.57,10,10,0,0,0,5.88,2.6,26,26,0,0,0,7-.19c2.36-.34,4.72-.89,7.17-1.15a17.37,17.37,0,0,1,7.45.58,9,9,0,0,1,3.43,1.95,4.61,4.61,0,0,1,1.19,1.85,3.16,3.16,0,0,1-.2,2.41,5.82,5.82,0,0,1-3.27,2.69,7.08,7.08,0,0,1-2.09.38,5.83,5.83,0,0,1-2.18-.42l-.13-.05-.15-.13a2.62,2.62,0,0,1-.87-1.63A2.89,2.89,0,0,1,1562,473a4.59,4.59,0,0,1,2.18-1.93A14.91,14.91,0,0,1,1569,470c3-.26,6.06-.27,9.07-.27s6-.11,9-.3a86.76,86.76,0,0,0,8.87-.92l.32,2.38a155.68,155.68,0,0,1-18.12,1.27c-3,.05-6,0-9,.22a12.74,12.74,0,0,0-4,.79,3.08,3.08,0,0,0-.7.42,1.8,1.8,0,0,0-.44.51.65.65,0,0,0-.11.38.37.37,0,0,0,.14.23l-.32-.21a3.67,3.67,0,0,0,1.27.25,5,5,0,0,0,1.38-.24,3.76,3.76,0,0,0,2.08-1.59,1,1,0,0,0,.09-.83,2.57,2.57,0,0,0-.66-1,7,7,0,0,0-2.64-1.5,15.45,15.45,0,0,0-6.61-.57,68.27,68.27,0,0,0-7,1.18,30,30,0,0,1-7.54.62,14.31,14.31,0,0,1-3.93-.88,10.06,10.06,0,0,1-3.48-2.36,7,7,0,0,1-1.87-4,5.87,5.87,0,0,1,1.34-4.19,10.22,10.22,0,0,1,1.47-1.45,10,10,0,0,1,1.63-1.18,11.19,11.19,0,0,1,3.78-1.14l1.17-.17v1.13a8.52,8.52,0,0,1-1.2,4.32,14.53,14.53,0,0,1-2.73,3.29,22.88,22.88,0,0,1-6.95,4.6,50.64,50.64,0,0,1-7.83,2.48c-2.64.65-5.3,1.13-7.94,1.58Z" style="fill:#fff"/><path d="M1613.78,876s5.7,15.16,4.89,17,9.51,1.05,7.24,0-4.37-19.66-4.37-19.66" style="fill:#fdbe4e"/><path d="M1506.24,876s-6.22,13.66-6.07,17.41-9.15,1.2-7.05-.6,5.92-19.51,5.92-19.51" style="fill:#fdbe4e"/><path d="M1536,707.37c1.17-8.49,1.86-11.52,7.75-17.29,1.27-1.25,1.05-2.12,2.74-2.68,9.89-3.27,20.4-1.07,30.8-.47a21.77,21.77,0,0,1,6.11,1c4.76,1.71,9.42-.79,14.61,5.53,16.66,20.26,8.55,35.12,13.36,60.25,7.52,39.35,6.69,86.29,12.15,125.83H1614c-.11-.24-5.08-22.3-10.25-40.66-2.91-10.35-4.24-23-7.65-35.12-3.06-10.9-7-20.19-9.82-30.39-6.92-24.66-12.12-32.78-12.4-34.24s-4.66,1.54-5.63,3.95S1508.08,874,1505.88,879.57c-3.08-.18-9.87,0-9.87,0S1533.87,722.87,1536,707.37Z" style="fill:#3e4166"/><path d="M1503.9,513.27,1483,512.2c-.19,3,3.56,7.51,7.94,9.06,5.23,1.86,12.88-2.34,12.88-2.34" style="fill:#fdbe4e"/><path d="M1499.94,519.16c-2.1-2.84,36.23,165.15,32.66,149.52,0,0,7-6.57,14-6.28,7.59.31,14.22,0,21.84-.36a51,51,0,0,1,9,.33c33.87-129.53,33.5-135.63,37.08-145l-2.66-3.88-2.2,6.2c-5.4,13.57-36.45,101.13-40.34,103-6.56,3.18-14.69,1-21.65,1.08-3.72.06-8-1.11-11.63-2-5.09-1.21-32.5-108.55-32.5-108.55" style="fill:#fdbe4e"/><path d="M1612.12,517.94s8.12,4.7,13.25,2.57c4.29-1.78,7.8-6.5,7.46-9.46L1612,513.2l-.05,0" style="fill:#fdbe4e"/><path d="M1577.93,587.7c3,.92-1.53-26.27-2.71-28-3.23-4.7-8.51-12.41-14.73-13.08-2.54-.27-5.79-.06-5.64,2.5,0,.63-.88.06-.6.63,1.8,3.73,6,6.88,9.58,8.87,2.83,1.56,6.82,2.62,8.44,5.41C1572.38,564.25,1570.86,585.54,1577.93,587.7Z" style="fill:#3e4166"/><path d="M1618.35,897.23l18.82-.12c.58-1.75-2.47-4.56-5.8-5.93-3.09-1.27-4.5-.64-7.47.83a3.94,3.94,0,0,1-1.89.42,5.09,5.09,0,0,1-2.94-1.15,1.64,1.64,0,0,0-2.23.22,6.5,6.5,0,0,0-1.91,3.38C1614.9,895,1614.34,897.44,1618.35,897.23Z" style="fill:#3e4166"/><path d="M1501.43,897.23l-18.83-.12c-.58-1.75,2.47-4.56,5.81-5.93,3.09-1.27,4.5-.64,7.48.83a3.94,3.94,0,0,0,1.89.42,5.1,5.1,0,0,0,2.94-1.15,1.64,1.64,0,0,1,2.23.22,6.5,6.5,0,0,1,1.91,3.38C1504.88,895,1505.45,897.44,1501.43,897.23Z" style="fill:#3e4166"/><path d="M1596.3,691.68s-34.91,4.95-43.43,13.05-19.36,17.11-19.36,17.11l-4.9,22.73c6.22,0,11.35-5.47,14.48-11s5.52-11.89,10.59-15.6c5.81-4.26,13.81-4,19.82-8,5.7-3.74,9-10.82,15.07-13.79,3.2-1.56,7.72-2.81,7.77-6.45" style="fill:#0e1438;opacity:0.30000000000000004"/><path d="M1597,691.68a79.22,79.22,0,0,0-5.85-5.85c-3.66-3.44-11-5.18-13.9-9.94-1.79-10,5-23.19,5-23.19s-10.87-24.09-11.92-31.59c.1.92-5.25,1.35-5.25,1.35s6.25,13.28,2.85,14.71c-3.8,1.6-24.35,2.54-26.71,2.4-4.68-.27.3-16.81.3-16.81l-5.85-1.35-8.85,29.71s6.61,18.35,8.1,32c1.29,11.71-3,36.5-2.55,38.75s11.26-13.51,24.76-19.59C1578.74,692.5,1597,691.68,1597,691.68Z" style="fill:#fff"/><path d="M1619.15,656.36c-1.55-6.39-9.15-12.29-14.25-17.76-13.25-14.23-6.66-27.84-9.78-44.93-1.42-7.77-3.53-17-8.34-23.4-4.06-5.43-8.68-9.44-11.22-15.85-2.46-6.18-2.49-9.06-10.24-10.07-10-1.3-24.31,4.36-31.32,11.54-3.5,3.58-2.6,8.22-4.08,12.56-1.83,5.37-7,7.68-8.67,12.8-1.63,4.87,1.31,9.79,3,14.23,7.77,20.67-19.93,34-14.59,53,1.16,4.13,4.09,7.49,6.94,10.71,9.81,11.07,25.72,15.9,40,17.56,17.79,2.07,41.26,3.59,56.48-8C1618.75,664.45,1620.11,660.31,1619.15,656.36Z" style="fill:#0e1438"/><path d="M1449.06,896.66c1.32,0,2.64,0,4,.15a11.3,11.3,0,0,0,2,0,6.41,6.41,0,0,1,2-.1c.66.06,1.32.22,2,.23s1.32-.06,2-.09l4-.37c.66,0,1.32-.09,2-.09s1.32.11,2,.18a10.74,10.74,0,0,0,2,0c.66-.06,1.32-.18,2-.22a32.14,32.14,0,0,1,4,.23c1.32.11,2.64.19,4,.17a16.63,16.63,0,0,0,2-.09,10.82,10.82,0,0,1,2-.17c.66,0,1.32.29,2,.32a2.82,2.82,0,0,0,1-.12,3.07,3.07,0,0,1,1-.08c1.32,0,2.64,0,4,.09s2.64.09,4,.08h2a10.89,10.89,0,0,1,2,.22,9.23,9.23,0,0,0,2,.2c.66,0,1.32-.25,2-.25,1.32,0,2.64.27,4,.37a27.58,27.58,0,0,0,4-.09c2.64-.06,5.29,0,7.93.1a19.07,19.07,0,0,0,4-.15c1.32-.17,2.64-.24,4-.33s2.64-.18,4-.19a17.27,17.27,0,0,1,2,0l2,.21c2.64.15,5.29-.51,7.93-.39a14.92,14.92,0,0,0,4,0,11.79,11.79,0,0,1,2,0c.66.08,1.32.27,2,.31,1.32.17,2.64-.25,4,.05a5,5,0,0,0,2,0,8.34,8.34,0,0,1,1-.17,9.52,9.52,0,0,1,1,0,29.17,29.17,0,0,0,4,.3c.66,0,1.32-.1,2-.16a10.26,10.26,0,0,1,2,.06,12.68,12.68,0,0,0,4-.15c.66-.08,1.32-.09,2-.12s1.32-.06,2,0v2.4c-.66,0-1.32,0-2,0s-1.32,0-2-.07a11.41,11.41,0,0,0-4,0,8.28,8.28,0,0,1-2,.12c-.66-.06-1.32-.16-2-.17a28.63,28.63,0,0,0-4,.4,7.22,7.22,0,0,1-1,0,6.43,6.43,0,0,1-1-.24,3.68,3.68,0,0,0-2,0c-1.32.38-2.64-.28-4-.16-.66,0-1.32.21-2,.28a11.12,11.12,0,0,1-2,0,13.75,13.75,0,0,0-4-.09c-2.64.13-5.29-.48-7.93-.21l-2,.33a14.85,14.85,0,0,1-2,.1c-1.32,0-2.64,0-4-.09a28.74,28.74,0,0,1-4-.36,11.07,11.07,0,0,0-4-.13c-1.32.19-2.64.23-4,.33a30.27,30.27,0,0,1-4,0,16.53,16.53,0,0,0-4-.27,24.66,24.66,0,0,1-4,.59,20.14,20.14,0,0,1-2-.52,5.07,5.07,0,0,0-2,.27,6.15,6.15,0,0,1-2,.31c-.66,0-1.32-.08-2-.12-2.64-.22-5.29-.07-7.93-.21a3.07,3.07,0,0,1-1-.14,2.75,2.75,0,0,0-1-.18c-.66,0-1.32.24-2,.24a11.83,11.83,0,0,1-2-.21c-.66-.1-1.32-.13-2-.16-2.64-.13-5.29,0-7.93,0a22.09,22.09,0,0,0-4,.07,17.74,17.74,0,0,1-2,.21c-.66,0-1.32,0-2,0l-4-.24c-.66,0-1.32-.06-2,0s-1.32.17-2,.24a6.92,6.92,0,0,1-2-.06,12.09,12.09,0,0,0-2,.05c-1.32.13-2.64.14-4,.2Z" style="fill:#0e1438"/><path d="M1528.28,722.54c1.61.92,3.55-.32,5-1.44,21-16.07,50.44-20.32,75.11-10.84C1607,698,1592,684,1579.94,686.16c-10.46,1.88-22.15,7.48-31.75,12S1530.56,712.16,1528.28,722.54Z" style="fill:#fff"/></svg>