<svg width="12" height="12" viewBox="0 0 12 12" fill="none" xmlns="http://www.w3.org/2000/svg">
<rect x="7.59064" y="3.70229" width="1" height="5.49891" rx="0.5" transform="rotate(45 7.59064 3.70229)" fill="black"/>
<path fill-rule="evenodd" clip-rule="evenodd" d="M6.9198 8.61572C6.72454 8.42046 6.40795 8.42046 6.21269 8.61572L5.29288 9.53553C4.51183 10.3166 3.2455 10.3166 2.46445 9.53553C1.6834 8.75448 1.6834 7.48815 2.46445 6.70711L3.38426 5.78729C3.57953 5.59203 3.57953 5.27545 3.38426 5.08018V5.08018C3.189 4.88492 2.87242 4.88492 2.67716 5.08018L1.75734 6C0.585769 7.17157 0.585769 9.07107 1.75734 10.2426C2.92891 11.4142 4.82841 11.4142 5.99998 10.2426L6.9198 9.32283C7.11506 9.12756 7.11506 8.81098 6.9198 8.61572V8.61572ZM4.90383 3.56062C5.09909 3.75588 5.41567 3.75588 5.61093 3.56062L6.70709 2.46447C7.48814 1.68342 8.75447 1.68342 9.53552 2.46447C10.3166 3.24551 10.3166 4.51184 9.53552 5.29289L8.43936 6.38905C8.2441 6.58431 8.2441 6.90089 8.43936 7.09615V7.09615C8.63462 7.29142 8.95121 7.29142 9.14647 7.09615L10.2426 6C11.4142 4.82843 11.4142 2.92893 10.2426 1.75736C9.07105 0.585786 7.17156 0.585786 5.99998 1.75736L4.90383 2.85351C4.70857 3.04878 4.70857 3.36536 4.90383 3.56062V3.56062Z" fill="black"/>
</svg>
