<svg viewBox="0 0 20 20" xmlns="http://www.w3.org/2000/svg"><g fill="none" fill-rule="evenodd"><path d="M6 4.038a2 2 0 1 0-3.999-.001A2 2 0 0 0 6 4.038zm2 0c0 2.21-1.79 4-4 4s-4-1.79-4-4 1.79-4 4-4 4 1.79 4 4zM18 4a2 2 0 1 0-3.999-.001A2 2 0 0 0 18 4zm2 0c0 2.21-1.79 4-4 4s-4-1.79-4-4 1.79-4 4-4 4 1.79 4 4zm-2 12a2 2 0 1 0-3.999-.001A2 2 0 0 0 18 16zm2 0c0 2.21-1.79 4-4 4s-4-1.79-4-4 1.79-4 4-4 4 1.79 4 4zm-14 .038a2 2 0 1 0-3.999-.001A2 2 0 0 0 6 16.038zm2 0c0 2.21-1.79 4-4 4s-4-1.79-4-4 1.79-4 4-4 4 1.79 4 4z" fill="#47C1BF" fill-rule="nonzero"/><path d="M18 10.038a8 8 0 1 1-16 0 8 8 0 0 1 16 0zM10 14c2.21 0 4-1.79 4-4s-1.79-4-4-4-4 1.79-4 4 1.79 4 4 4z" fill="#FFF"/><path d="M17 10.038a7 7 0 1 0-14 0 7 7 0 0 0 14 0zm2 0a9 9 0 1 1-18.001-.001A9 9 0 0 1 19 10.038z" fill="#47C1BF" fill-rule="nonzero"/><path d="M13 10.038a3 3 0 1 0-6 0 3 3 0 0 0 6 0zm2 0c0 2.76-2.24 5-5 5s-5-2.24-5-5 2.24-5 5-5 5 2.24 5 5z" fill="#47C1BF" fill-rule="nonzero"/><path d="M13.707 7.707l2-2a1 1 0 0 0-1.414-1.414l-2 2a1 1 0 0 0 1.414 1.414zm-1.414 6l2 2a1 1 0 0 0 1.414-1.414l-2-2a1 1 0 0 0-1.414 1.414zM7.707 6.33l-2-2a1 1 0 0 0-1.414 1.415l2 2a1 1 0 0 0 1.414-1.414zm-1.414 6l-2 2a1 1 0 0 0 1.414 1.415l2-2a1 1 0 0 0-1.414-1.414z" fill="#47C1BF" fill-rule="nonzero"/></g></svg>