<svg xmlns="http://www.w3.org/2000/svg" viewBox="0 0 24 24"><path d="M12 0C5.373 0 0 5.373 0 12s5.373 12 12 12 12-5.373 12-12S18.627 0 12 0zm-.1 20c-.83 0-1.5-.67-1.5-1.5s.67-1.5 1.5-1.5c.827 0 1.5.67 1.5 1.5s-.673 1.5-1.5 1.5zm1.766-6.996c-.22.087-.39.367-.39.602V14c0 .55-.45 1-1 1h-.67c-.55 0-1-.448-1-1v-.87c0-1.18.805-2.16 1.92-2.55.44-.157.824-.456 1.08-.844.938-1.415-.248-3.07-1.665-3.07-.87 0-1.61.555-1.89 1.327-.14.4-.51.674-.94.674h-.7c-.644 0-1.144-.608-.974-1.23.622-2.28 2.936-3.87 5.502-3.333h.007c1.496.312 2.758 1.39 3.326 2.808 1.01 2.527-.32 5.182-2.6 6.092z"/></svg>
