<svg xmlns="http://www.w3.org/2000/svg" viewBox="0 0 178 158"><path d="M9.2 129.8a40 40 0 01-5-7.1C-13.8 88.6 58.2-41.9 136 18.4a106 106 0 018.3 7.2l1 1c87.4 85-82.4 166.2-136 103.2z" fill="#f4f6f8"/><path d="M122.6 100.9a35.6 35.6 0 01-13.6 13.6c-4.3 2-14.5 9.7-31.8 7-7.5-14.5 40.5-11.3 23.2-32.8-8-10.1 13.3-14.2 10.7-23.7-1.7-6.4-12.5-7.4-6-19.2 4.1-7.6-5-8.2-9.9-10.9a8.4 8.4 0 01-3-2.7 25.5 25.5 0 012.7.5c4.6 1 9.3 3.6 13.3 6a38.2 38.2 0 0117.2 19.6 45 45 0 01-2.8 42.6z" fill="#fff" opacity=".4"/><path d="M113.7 28.2l-.5.4-1.3 1.2a24.1 24.1 0 01-3.6 2.8 19.3 19.3 0 01-4.6 1c-2.4-1.6-7.7-1.4-7.5-5 .2-2.2 2.3-4.8 4.2-6.3l.4-.3c3.6-2.6 8.3-2.5 12.4-1.7 4.5.8 3.6 5.2.5 8z" fill="#afbadd"/><path d="M114 28.5c-.9.7-1.8 1.4-2.5 2.2-1 .6-1.7 1.4-2.7 2l-.3.3a3.1 3.1 0 01-.5.2 4.2 4.2 0 01-.8.2 9.9 9.9 0 00-1.7.4 9.2 9.2 0 01-1.7.2.8.8 0 01-.2 0 .4.4 0 01-.1-.1l-.2-.2a4.5 4.5 0 00-.4-.2 8.6 8.6 0 00-.7-.3 7 7 0 01-1.6-.4 1.9 1.9 0 00-.8-.3l-.8-.2a7.8 7.8 0 01-1.5-.8 3.4 3.4 0 01-1.3-1.3 4 4 0 01-.2-1.8 3.2 3.2 0 01.5-1.6 17.9 17.9 0 011.9-2.8 12.8 12.8 0 012.4-2.2 9.9 9.9 0 013-1.7 10 10 0 011.6-.4l1.7-.1 1.7-.2a5.8 5.8 0 011.7.1l1.7.2a15.4 15.4 0 011.6.4 5.7 5.7 0 01.8.3 3.2 3.2 0 01.8.5l.7.6a2.1 2.1 0 01.4.8 4.7 4.7 0 010 1.8 3.8 3.8 0 01-.5 1.7l-.9 1.4a7.7 7.7 0 01-1.1 1.3zm-.6-.6a11.3 11.3 0 001.2-1.1 3.6 3.6 0 00.8-1.3l.5-1.5a2.2 2.2 0 00-.2-1.4l-.3-.6a1.1 1.1 0 00-.4-.6l-.7-.3a5.4 5.4 0 00-.7-.3c-.5-.2-1-.1-1.6-.2a13.7 13.7 0 00-1.6-.3c-1 0-2.2-.2-3.2-.1a7.8 7.8 0 00-1.6.3l-1.6.4a12.4 12.4 0 00-1.5.5 8 8 0 00-1.4.7 16 16 0 00-2.3 2.3c-.6.8-1.5 1.6-1.7 2.7a5.3 5.3 0 01-.5 1.4.9.9 0 000 .7l.3.6a2.7 2.7 0 001 1 8.2 8.2 0 001.4.7l.8.3a1.7 1.7 0 00.7.3 5.4 5.4 0 011.6.5l.8.4.4.2h.1l.1.1a15.8 15.8 0 001.6-.2 7.6 7.6 0 001.6-.4l.7-.3a2.7 2.7 0 00.4 0l.3-.3a10.5 10.5 0 002.6-2c.9-.6 1.6-1.5 2.4-2.2z" fill="#afbadd"/><g opacity=".4" fill="#7b8ed0"><path d="M113.2 28.6l-1.3 1.2a24.1 24.1 0 01-3.6 2.8 19.3 19.3 0 01-4.6 1c-2.4-1.6-7.7-1.4-7.5-5 .2-2.2 2.3-4.8 4.2-6.3a22.7 22.7 0 0112.8 6.3z"/><path d="M113.6 28.6a13.6 13.6 0 01-1.5 1.4l-.6.7-.7.5-1.4 1.2a8.3 8.3 0 01-.7.5 1.5 1.5 0 01-.5.2l-.5.1a4.7 4.7 0 00-.9.3 4.3 4.3 0 01-.9.2l-1.8.2H103.8h-.2a.5.5 0 01-.1 0 3.9 3.9 0 00-.4-.2 3 3 0 01-.8-.4l-1.6-.5-1.7-.6c-.6-.1-1-.7-1.6-.9a2.3 2.3 0 01-1.2-1.5 3.1 3.1 0 010-1.8 6.4 6.4 0 01.6-1.7l1-1.5A9.7 9.7 0 01100 22h.1a.2.2 0 01.2-.1c1.2.3 2.5.2 3.6.7l1.8.6a9 9 0 00.8.5l.9.3a3.7 3.7 0 00.8.5 2.4 2.4 0 01.8.4 11.3 11.3 0 001.5 1c.6.3 1 .9 1.5 1.2l.7.5a4.1 4.1 0 01.8 1zm-.8 0a1.2 1.2 0 01-.5-.3l-.6-.7c-.4-.4-1-.6-1.5-1a5 5 0 00-1.5-.9 1.9 1.9 0 01-.8-.5 2.4 2.4 0 00-.8-.4c-.3 0-.5-.3-.8-.4a5.2 5.2 0 00-.8-.3l-1.7-.7c-1.2-.2-2.3-.8-3.5-.7h.3L98.2 25a3.2 3.2 0 00-1 1.4 9.4 9.4 0 00-.5 1.6 3.7 3.7 0 000 1.6c.1.5.7.6 1 1a.9.9 0 00.7.5 2.3 2.3 0 01.8.2 11.3 11.3 0 001.7.6 7.4 7.4 0 011.7.7 2 2 0 01.8.3c.2 0 .3.2.4.3h.3a11.3 11.3 0 001.7-.3 15.2 15.2 0 001.7-.4l.4-.2a2.5 2.5 0 00.3-.2l.8-.4 1.4-1 .6-.7.7-.5a7 7 0 011.1-1z"/></g><path d="M114.8 62.8c0 21.5-12.2 18.8-31.5 35.2-12.9 10.9-22.7 6.5-24.2-.8a9.6 9.6 0 01-.2-2.5C59 89.4 63.6 83.4 74 81c10.8-2.6 6.8-21.2 25.6-29.5l1.4-.6.6-.2c9.4-3.4 13.2 1.8 13.2 12.2z" fill="#ffbf4d"/><path d="M115 62.8a33.9 33.9 0 01-1.5 10.5 17 17 0 01-2.4 4.7l-.9 1c-.2.4-.6.7-.9 1l-1 1-1 .8a86.1 86.1 0 01-8.8 5.8c-3 1.8-6 3.7-8.9 5.8-2.9 2-5.5 4.3-8.4 6.4a24.7 24.7 0 01-9.5 4.6l-1.3.2H69a7.3 7.3 0 01-1.3 0 6.5 6.5 0 01-1.3-.2 9.3 9.3 0 01-7.2-12.2 14.8 14.8 0 016.6-8 26.3 26.3 0 014.7-2.4c1.7-.6 3.5-.9 5-1.6a9.6 9.6 0 004-3.4 28.3 28.3 0 002.4-4.6 82.1 82.1 0 014.6-9.5 27.7 27.7 0 017-8A30.7 30.7 0 01103 50a12 12 0 015.3-.4 6.6 6.6 0 014.4 2.9 13.5 13.5 0 011.9 5 34 34 0 01.4 5.3zm-.4 0a33.7 33.7 0 00-.4-5.2 13.1 13.1 0 00-1.8-4.9 6.2 6.2 0 00-4.2-2.7 11.5 11.5 0 00-5 .4 30.8 30.8 0 00-9.4 4.7 27.4 27.4 0 00-7 7.7 81.9 81.9 0 00-4.6 9.5 28.6 28.6 0 01-2.5 4.7 10 10 0 01-4 3.5c-1.7.8-3.4 1-5 1.6a26 26 0 00-4.8 2.3 14.4 14.4 0 00-6.4 7.9 9.2 9.2 0 002.4 9.5 9.1 9.1 0 004.6 2.2 6.2 6.2 0 001.2.2 7.4 7.4 0 001.3 0h1.3l1.3-.2a24.3 24.3 0 009.4-4.5c2.8-2 5.5-4.5 8.4-6.5 2.9-2 5.8-3.9 8.9-5.7a90 90 0 008.8-5.8l1-.9 1-.9.8-1 .8-1a16.5 16.5 0 002.5-4.5 33.5 33.5 0 001.4-10.4zM59.3 87.5a3.2 3.2 0 01.8-1l.1-.2h.2l.2-.3.5-.4.9-1a1.3 1.3 0 01.5-.4 4 4 0 00.5-.5l.5.7-.5.4-.5.4-1 .8c0 .2-.1.4-.3.5l-.3.2v.1l-.2.1a1 1 0 00-.3.2v.3l-.4.5z" fill="#ffbf4d"/><path d="M66.4 81.7a29.8 29.8 0 015.7-2.2 9 9 0 005-2.8 12.6 12.6 0 00.9-1.1 9.5 9.5 0 00.8-1.3 33.7 33.7 0 001.4-2.6l2.5-5.5A35.1 35.1 0 0189.3 56a22.3 22.3 0 014.7-3.8 35.3 35.3 0 015.5-2.8l.3.8a32.5 32.5 0 00-5.3 2.7 24.7 24.7 0 00-4.7 3.7 33.4 33.4 0 00-6.5 9.9c-.8 1.8-1.5 3.7-2.4 5.5a29.6 29.6 0 01-1.5 2.7l-.8 1.3a11.7 11.7 0 01-1 1.2 10 10 0 01-2.4 2 10.7 10.7 0 01-1.4.7 13.5 13.5 0 01-1.5.4 29 29 0 00-5.6 2z" fill="#ffbf4d"/><path d="M114.8 62.8c0 21.5-12.2 18.8-31.5 35.2-12.9 10.9-22.7 6.5-24.2-.8a9.6 9.6 0 01-.2-2.5 19.5 19.5 0 018.4-4c4.4-.6 9-.2 13.4-1.1 8.4-1.7 19-10.4 17.3-20-.9-4.6-2.4-8.6-.7-13.4a23 23 0 012.3-4.8l1.4-.6.6-.2c9.4-3.4 13.2 1.8 13.2 12.2z" fill="#ffaa10" stroke="#ffaa10" stroke-linejoin="round" stroke-width=".5"/><path d="M38.1 84.7a17.3 17.3 0 01-3.2 3.6 29.3 29.3 0 01-3.7 2.7 12.2 12.2 0 01-1.5.8c-3.6 1.6-7.7 1.8-11 4-2.7 1.7-4.6 5.2-8.3 4.9-3.5-.3-5.2-3.4-4.2-6.7 1.4-4.4 7.5-3.9 10.6-6.5a41.8 41.8 0 004.5-4.9l1-1a13.7 13.7 0 014.5-3.6 8 8 0 011.7-.5c4.2-.8 13.6 1 9.6 7.2z" fill="#afbadd"/><path d="M38.4 84.9a21.2 21.2 0 01-3.7 4 42.5 42.5 0 01-4.5 3.1 10 10 0 01-2.5 1c-1 .2-1.8.5-2.6.8a25.4 25.4 0 00-5 1.6 9.3 9.3 0 00-2.2 1.5l-1 .8-1 1a12.5 12.5 0 01-2.2 1.6 5.8 5.8 0 01-2.8.7 4.9 4.9 0 01-2.7-.7 6.6 6.6 0 01-1-.9 4.6 4.6 0 01-1-1 5 5 0 01-.5-2.8 6.9 6.9 0 01.8-2.6 5 5 0 012-2 11.7 11.7 0 012.4-1.1 23 23 0 004.9-2 10.4 10.4 0 002-1.8l1.8-2c1.2-1.2 2.2-2.8 3.5-4a25.6 25.6 0 012.2-1.7 6.9 6.9 0 012.6-1 9.2 9.2 0 012.7-.4 22.6 22.6 0 012.8.2 16.6 16.6 0 012.6.8 5.5 5.5 0 012.4 1.5 4 4 0 011 2.7 5.6 5.6 0 01-1 2.7zm-.6-.5a5.6 5.6 0 00.9-2.3 2.7 2.7 0 00-.1-1.1 2.7 2.7 0 00-.7-1 8.8 8.8 0 00-2.1-1.4 10.5 10.5 0 00-2.6-.6 12.3 12.3 0 00-5.1 0 15.6 15.6 0 00-2.3 1 8.5 8.5 0 00-2.1 1.7 43.9 43.9 0 00-3.6 3.9 15 15 0 01-1.7 2.1 9.8 9.8 0 01-2.2 1.8c-1.7 1-3.5 1-5.2 1.8-1.6.7-3.2 1.5-4 3a4.4 4.4 0 00-.8 2.3A5.2 5.2 0 007 98a5 5 0 00.6 1 2.4 2.4 0 001 .7 8.9 8.9 0 002.4.5c1.7 0 3.1-1 4.5-2.2l1-.8 1-1a12.3 12.3 0 012.4-1.4c3.3-1.6 7-1.8 10.1-3.5l1.2-.6 1.1-.7a12.7 12.7 0 002-1.6 19 19 0 002-1.9 17.7 17.7 0 001.6-2z" fill="#afbadd"/><g opacity=".4" fill="#7b8ed0"><path d="M38.1 84.7a17.3 17.3 0 01-3.2 3.6 29.3 29.3 0 01-3.7 2.7 12.2 12.2 0 01-1.5.8c-.2-3.3.4-6.4-.9-9.8a27 27 0 00-2-4 8 8 0 011.7-.5c4.2-.8 13.6 1 9.6 7.2z"/><path d="M38.4 84.9a9.8 9.8 0 01-.8 1.1c-.4.3-.6.8-1 1-.7.7-1.2 1.5-2 2a5.8 5.8 0 01-1.1 1l-1.1.8-2.5 1.3a.3.3 0 01-.5-.2 6.9 6.9 0 01-.1-1 4.9 4.9 0 000-.9 3 3 0 010-.9v-.9a16.8 16.8 0 000-1.8c0-.5.2-1.2 0-1.7a11.1 11.1 0 01-.4-1.8 9 9 0 00-.6-1.6 27 27 0 00-.8-1.6 7.5 7.5 0 00-.9-1.6.2.2 0 010-.2h.1a6.9 6.9 0 014.4-.9 16.3 16.3 0 012.2.1c.7.3 1.5.2 2.2.5a8.5 8.5 0 001 .6l.5.2a4.3 4.3 0 01.4.3l1 .7a3.8 3.8 0 01.6 1 4.6 4.6 0 01.4 1.2 3.3 3.3 0 01-.2 1.1A6.7 6.7 0 0139 84a9 9 0 01-.6 1zm-.6-.5a8.2 8.2 0 00.5-.9 3.3 3.3 0 00.4-.9 5 5 0 000-1 1.8 1.8 0 00-.3-.9 2.7 2.7 0 00-.6-.7c-.3-.2-.4-.6-.7-.7a3 3 0 01-1-.5 2.4 2.4 0 00-1-.3 7.5 7.5 0 00-2-.5 13.4 13.4 0 00-2-.4 5.5 5.5 0 00-1 .2l-1.1.1a16.5 16.5 0 00-2 .4l.1-.4a5.7 5.7 0 00.9 1.6 12.2 12.2 0 01.9 1.6l.5 1.7c.2.6.6 1.1.5 1.8-.2.6.4 1.2.3 1.8v1.8l-.1 1a3 3 0 01-.1.8 3.3 3.3 0 000 .9v.9l-.4-.3a13.2 13.2 0 002.4-1.3 11.4 11.4 0 001.1-.8 9.3 9.3 0 011-1l1.1-.8a4 4 0 001-1l.8-1 .8-1.2z"/></g><path d="M144.2 25.6a40.5 40.5 0 00-5.6 3.1c-3 2.3-4 8-8.3 8.4-3.2.2-5.8-2-5.2-5.4.5-3.4 4-4.4 6.3-6.5 2-1.9 3.1-4.4 4.4-6.8a106 106 0 018.4 7.2z" fill="#afbadd"/><path d="M117.9 37a51 51 0 104.2 72 50.7 50.7 0 00-4.2-72zm9.7 49.7a50.3 50.3 0 01-10 18.7 35.6 35.6 0 01-15.8 11.1c-4 1.2-8 3-12.1 3.6a45.3 45.3 0 01-8.8.3 44.5 44.5 0 01-27-11.2 44.3 44.3 0 01-14.4-28.6 37.2 37.2 0 01-.2-10.6c1.2-8.5 5.1-18 10.8-24.4 10-11.2 27.9-18.8 42.7-14.7a70.7 70.7 0 018.9 2.6c4.3 1.9 8.5 5.1 12 8.3a48 48 0 019.3 10.6 28.2 28.2 0 012 3.6 38.5 38.5 0 012.5 7.9c1.4 7 2.3 15.8 0 22.8z" fill="#fff"/><path d="M123.3 110a51.6 51.6 0 01-16.4 12.3c-1.5.7-3.2 1.2-4.7 2l-4.9 1.6-5 1.2-5.1.8a49.6 49.6 0 01-20.5-2.9 53.8 53.8 0 01-17.6-10.5l-3.7-3.7-3.3-4c-1-1.3-1.9-2.8-2.8-4.2-.9-1.5-1.6-3-2.4-4.6l-2-4.8-1.4-4.9-1-5-.4-5.1V73l.4-5.1 1-5 1.4-4.9 2-4.7 2.4-4.5 2.8-4.2 3.1-4a51.4 51.4 0 0116.2-12.2 53 53 0 014.7-2 81.2 81.2 0 014.8-1.6 46.6 46.6 0 015-1.3 52.5 52.5 0 015-.6 52.5 52.5 0 0138 12.8l3.7 3.7 3.2 4 2.8 4.3c.9 1.4 1.7 3 2.5 4.5s1.4 3.1 2 4.7l1.6 4.9 1.1 5 .5 5.1v5.2l-.6 5-1 5.1-1.3 5a52.3 52.3 0 01-10.1 17.7zm-2.4-2.1a49.6 49.6 0 009.7-16.7l1.3-4.6.9-4.8.3-4.8-.2-4.8-.6-4.8-1-4.7-1.3-4.6-1.8-4.4a48.3 48.3 0 00-11.5-15.4 44 44 0 00-16.5-10 50 50 0 00-19-2.3 49.2 49.2 0 00-4.9.6l-4.7.8a31 31 0 00-9.2 3.2 53.4 53.4 0 00-15 12l-3 3.7a75.3 75.3 0 00-2.8 4l-2.2 4.2-1.8 4.5-1.3 4.7-1 4.7-.5 4.8v2.4L35 78l.8 4.8 1 4.7.6 2.3.6 2.3 1.8 4.5c.7 1.5 1.3 3 2.2 4.4l2.7 4 3 3.8 3.4 3.5a44 44 0 0016.7 10 51.2 51.2 0 0019.3 2.2l4.8-.4 4.8-1 4.7-1.3 4.4-2a51 51 0 0015.2-12zm7 3.7c2.8 2.3 5.7 4.7 8.4 7.3l4 4c1.3 1.3 2.7 2.5 4.2 3.6s2.9 2.4 4.3 3.6l4 4 2.1 1.8 2.2 1.7 2.1 1.8a42 42 0 012.1 2 1.8 1.8 0 01-2.3 2.6h-.1l-2.2-1.7-2.1-1.8-2-2-2.1-1.9a158.3 158.3 0 01-12.3-11.4l-4.3-3.6-4-3.8a41.2 41.2 0 00-4.5-3.5 1.8 1.8 0 012-3l.2.1z" fill="#081140"/><path d="M170 141.8a7 7 0 01-1.7 4.4c-1 1.5-3.2 5-5 5.6-2.7.8-6.5-2.7-8.3-4-4.7-3.6-4.5-3.1-8.7-7l-12.8-12.2c-2.3-2.2-9.3-5.9-7.3-10.1a26 26 0 016.7-6.5c5.8-4.4 17.1 10.1 21 13.6 4.5 4 4.5 3.6 9 7.7 2.9 2.5 7 5 7.1 8.5z" fill="#081140"/><path d="M170.2 141.8a6.6 6.6 0 01-1.2 3.7 214.3 214.3 0 01-2.2 3.2 14.2 14.2 0 01-2.7 2.9 3 3 0 01-1.9.6 5.6 5.6 0 01-2-.5c-2.4-1.1-4.2-3-6.3-4.5a64.6 64.6 0 01-6-4.7c-3.9-3.5-7.5-7.1-11.2-10.7a56.5 56.5 0 00-5.8-5.1 29 29 0 01-3-2.5 7.6 7.6 0 01-2-3.3 3.6 3.6 0 010-2 5 5 0 011-1.7 21.4 21.4 0 012.7-2.7l3-2.4a4.4 4.4 0 013.7-1 10.8 10.8 0 013.6 1.4 26.3 26.3 0 013.2 2.3 67.6 67.6 0 015.6 5.2l2.7 2.8 2.7 2.7c2 1.8 4 3.4 6 5l2.8 2.5 3 2.5a19.4 19.4 0 012.8 2.7 6.2 6.2 0 011.5 3.6zm-.4 0a5.8 5.8 0 00-1.4-3.4 18.8 18.8 0 00-2.7-2.6l-3-2.5-3-2.5c-2-1.6-4-3.2-5.9-5-1.9-1.7-3.5-3.7-5.3-5.5a59.7 59.7 0 00-5.7-5.3 26 26 0 00-3-2.2 10.5 10.5 0 00-3.6-1.3 4.1 4.1 0 00-3.5.8 44 44 0 00-3 2.4 21 21 0 00-2.6 2.7 3.8 3.8 0 00-.9 3.4 7.1 7.1 0 002 3.1 28.8 28.8 0 003 2.5 28.4 28.4 0 013 2.5l2.7 2.6 11.2 10.7 2.9 2.5 3.1 2.2c2.1 1.5 4 3.4 6.3 4.4 1.2.5 2.5.8 3.5 0a11.8 11.8 0 002.6-2.8l2.2-3.2a6.3 6.3 0 001.1-3.5z" fill="#081140"/><path d="M141.8 114a35.5 35.5 0 01-2.8 3.2 23.7 23.7 0 00-2.8 3 30 30 0 01-2.8 3 15.6 15.6 0 00-1.3 1.7 21.7 21.7 0 01-1.4 1.5.9.9 0 01-1.4-1.2 25.7 25.7 0 012.8-3c.9-1.1 1.8-2.2 2.8-3.1a33.4 33.4 0 002.8-3 20.2 20.2 0 002.7-3.2.9.9 0 111.6.9 1 1 0 01-.1 0zm15 35.2a39.2 39.2 0 012.1-3.4 26.9 26.9 0 002.4-3.3 19.1 19.1 0 012.5-3.2l1.3-1.6a13.3 13.3 0 011.5-1.5.9.9 0 011.2 1.3 94.9 94.9 0 01-2.6 2.9l-2.5 3.1a25.6 25.6 0 00-2.3 3.3 21 21 0 00-2.2 3.4.9.9 0 11-1.6-.8z" fill="#ffc757"/><path d="M38.8 67.7c.5-2.8 1.4-5.4 2-8.2a43.9 43.9 0 013.4-7.7 33.5 33.5 0 012.2-3.5 30.9 30.9 0 012.7-3.3c.9-1 1.8-2.1 2.8-3l3.2-2.8a45 45 0 013.3-2.5c1.2-.7 2.2-1.7 3.4-2.4l1.8-1 1.9-1c1.3-.6 2.5-1.3 3.8-1.7l2-.7c.7-.2 1.4-.3 2-.6a32 32 0 014.1-1c.7 0 1.4 0 2.1-.2a33 33 0 012.1-.2l4.2-.3a.8.8 0 110 1.6c-1.4 0-2.8 0-4 .2a19.1 19.1 0 00-4 .7l-2 .4-2 .4a40 40 0 00-3.9 1.2 28.8 28.8 0 00-7.3 3.5 10.6 10.6 0 01-1.8 1 5 5 0 00-1 .4l-.7.7-3.1 2.6-1.6 1.2-1.5 1.5-1.4 1.4a10.3 10.3 0 00-1.3 1.5 25.1 25.1 0 01-2.5 3.2 11.2 11.2 0 00-1 1.7c-.5.6-.9 1.1-1.2 1.7a32.7 32.7 0 00-3.2 7.6 19.3 19.3 0 00-1.2 3.9 71.3 71.3 0 00-.7 4 .8.8 0 01-1.6-.3zm83 34.3l-2 2.3a21 21 0 01-1.9 2.2l-1 1-1 1-2 2.2a29 29 0 01-10.4 6l-5.6 1.6a46.5 46.5 0 01-5.6 1.5l-3 .5a28.5 28.5 0 01-3 .2l-2.8-.1-3-.1a38.9 38.9 0 01-5.8-.9A51.5 51.5 0 0169 118a47 47 0 01-10.6-5.1l-4.6-3.7a36.3 36.3 0 01-4.1-4.2 51.2 51.2 0 01-1.8-2.3l-1.7-2.4a43.3 43.3 0 01-3-5.1.8.8 0 111.4-.7 41.5 41.5 0 002.8 5 38.9 38.9 0 001.7 2.3l1.8 2c1.3 1.5 2.6 2.9 4 4.2a40.4 40.4 0 004.5 3.5 33.8 33.8 0 0010.1 5.1c1.9.5 3.6 1.5 5.5 1.7 1.9.3 3.8.4 5.6.5l2.9.3h2.9l2.8-.2a12.3 12.3 0 002.7-.5l2.8-.8 2.7-.7 2.8-1 2.8-.6a48.6 48.6 0 0011.9-7.7 16 16 0 002-2.1c1.3-1.4 2.4-3 3.6-4.5a.8.8 0 011.2 1zM40.1 87.4a4.7 4.7 0 01-.4-1.5 3.6 3.6 0 00-.3-1.6 4 4 0 01-.3-1.6 2.5 2.5 0 00-.2-.8 3.2 3.2 0 01-.1-.8.9.9 0 011.7-.4v.1a3.8 3.8 0 01.4 1.6 7 7 0 01.2 1.5 4 4 0 00.3 1.5 4.3 4.3 0 01.1.8 1.7 1.7 0 00.4.7 1 1 0 11-1.6 1z" fill="#081140"/><path d="M25.3 123.6c-1.7 3.6-5.1 4.3-8.6 4.6a71.6 71.6 0 00-7.5 1.6 40 40 0 01-5-7.1c2-.5 4-1 4.5-1.3 5-2.1 7.7-6.8 12.5-9.1 1.3-.7 4.4-1.2 5.7-.1 2 1.7-1.3 10.8-1.6 11.4z" fill="#afbadd"/><path d="M80.5 59l-1.3-2.5a14.6 14.6 0 00-1.4-2.4l-1.6-2.4a11 11 0 00-.9-1l-.9-1.2a.5.5 0 01.7-.6 15.9 15.9 0 011.8 2.3 22 22 0 011.6 2.4l1.5 2.5.6 1.3.7 1.2a.5.5 0 01-.8.5zm-3 4a19.5 19.5 0 01-7.8-5.5 10.1 10.1 0 01-1.3-2 3.5 3.5 0 01-.3-2.7 2.7 2.7 0 01.9-1.1 3.4 3.4 0 011.2-.6 3.6 3.6 0 012.5.3 1.9 1.9 0 01.6.4 2.6 2.6 0 01.4.6 2 2 0 01.1 1.4 3 3 0 01-2 1.8 8.3 8.3 0 01-4.8.1 9.7 9.7 0 01-4.2-2.3 10 10 0 01-2.5-4.2.5.5 0 11.9-.3 8.8 8.8 0 006 6 7.4 7.4 0 004.4-.1 2.2 2.2 0 001.4-1.2 1.1 1.1 0 000-.8 1.7 1.7 0 00-.3-.4 1 1 0 00-.4-.3c-1-.6-3-.3-3.4 1a2.8 2.8 0 00.3 2 9.3 9.3 0 001.2 1.8 18.3 18.3 0 003.4 3.2 18.5 18.5 0 004 2.1.5.5 0 01-.3.9zm-.9 3.6l-3.7-1A47.7 47.7 0 0171 65a18.5 18.5 0 00-1.8-.5 31.6 31.6 0 01-3.8-1l-1.8-.7a9.8 9.8 0 01-1.8-.9.5.5 0 01.4-.8 20.9 20.9 0 003.5 1.5l3.7 1c1.2.5 2.5.9 3.7 1.2l1.9.5 1.9.4a.5.5 0 01-.2 1v-.1z" fill="#22266d"/><path d="M80.5 59c-.2-.4-.2-1-.6-1.3l-.6-1.2a18 18 0 01-.6-1.3l-.4-.6a2.7 2.7 0 00-.3-.6l-.4-.6c0-.3-.4-.4-.5-.6l-.9-1a6.9 6.9 0 00-.8-1.2 3.9 3.9 0 00-1-1 .4.4 0 01.6-.6 8.7 8.7 0 001 1l.9 1.2a4 4 0 00.8 1.2c.3.1.2.5.4.6a3.5 3.5 0 01.5.6 14.8 14.8 0 011.3 2.5 6 6 0 00.7 1.3 8 8 0 00.7 1.3.4.4 0 01-.8.3z" fill="#ffc657"/><path d="M80.1 59.2a23.4 23.4 0 00-1.5-2.9 26 26 0 00-1.6-2.7l-.9-1.3c-.2-.5-.6-.9-.9-1.3l-1-1.3a.7.7 0 01.3-1 .7.7 0 01.5 0 .7.7 0 01.3.1l.1.1a15.2 15.2 0 011 1.3c.4.5.8.8 1 1.3l2 2.6 1.4 2.9a9.3 9.3 0 00.8 1.4.9.9 0 010 .6.8.8 0 01-.3.6.8.8 0 01-1-.2 1.2 1.2 0 01-.2-.2zm.7-.4v.1h.1v-.1l-.4-.7-.4-.7-.7-1.4-.8-1.4a14.8 14.8 0 00-1.7-2.7c-.4-.4-.5-1-.9-1.3L75 49.5l-.1-.2 1 1.2a4.3 4.3 0 011 1.3 5 5 0 00.4.7l.4.7a10.7 10.7 0 00.9 1.4 12 12 0 01.9 1.4 27.8 27.8 0 001.4 2.8zM77.5 63a34.5 34.5 0 01-4.2-2.3 17.3 17.3 0 01-3.5-3.3 9.4 9.4 0 01-1.3-2 3.4 3.4 0 01-.2-2.5 2.7 2.7 0 01.7-1.1 3 3 0 011.2-.5 3.8 3.8 0 012.5.2 2 2 0 01.8 1 1.8 1.8 0 01.1 1.3 3 3 0 01-1.8 1.7 8.3 8.3 0 01-4.8.2 9.8 9.8 0 01-4.2-2.4 10.2 10.2 0 01-.7-1 9.5 9.5 0 01-.7-1 12.3 12.3 0 01-1-2.2.4.4 0 01.7-.2 8.5 8.5 0 002.3 3.8 11.4 11.4 0 001.8 1.4 7.7 7.7 0 002 .8 6.4 6.4 0 004.4 0l.9-.6a1 1 0 00.6-.7 1.5 1.5 0 00-.8-1.4 2.4 2.4 0 00-2-.3 1.8 1.8 0 00-1.3 1.2 4 4 0 00.2 2 4.3 4.3 0 00.5 1l.6.9a13.7 13.7 0 003.5 3 14.8 14.8 0 004 2.3.4.4 0 01-.3.7z" fill="#ffc657"/><path d="M77.3 63.4a22 22 0 01-8-5.7 10.1 10.1 0 01-1.3-2.2 4 4 0 01-.3-2.7 3.1 3.1 0 011.9-2 4.3 4.3 0 012.6 0 3 3 0 011.3.6 2.9 2.9 0 01.4.5 2.2 2.2 0 01.3.7 2.3 2.3 0 010 1.4 2.8 2.8 0 01-.8 1.2 5 5 0 01-2.4 1 8.2 8.2 0 01-2.5.1 10 10 0 01-4.6-1.7 10.1 10.1 0 01-3.7-5 2 2 0 01-.1-.6.7.7 0 011.3-.2l.2.6a10.2 10.2 0 00.5 1 8.5 8.5 0 003.3 3.4 7.9 7.9 0 004.4 1 5.2 5.2 0 002.2-.6 1.4 1.4 0 00.6-.7.9.9 0 00-.2-.8c-.6-1-3-.7-3.2.7a3.5 3.5 0 00.6 2 15.4 15.4 0 001.5 2 14.7 14.7 0 003.6 3 17 17 0 002.1 1.1l.6.2.2.1a1 1 0 01.4.3.8.8 0 01.1 1 .8.8 0 01-1 .3zm.3-.7l-.3-.3-.6-.2a19 19 0 01-2.2-1.2 16.6 16.6 0 01-2-1.4 18.2 18.2 0 01-1.9-1.7 10.8 10.8 0 01-1.5-2 4.3 4.3 0 01-.7-2.6A2.1 2.1 0 0169 52a2.9 2.9 0 011.3-.6 3.3 3.3 0 011.4 0 2.7 2.7 0 01.7.3 1.4 1.4 0 01.6.5 1.6 1.6 0 01.3 1.5 2.1 2.1 0 01-1 1 6.6 6.6 0 01-2.5.8 8.5 8.5 0 01-5-1 9.6 9.6 0 01-3.4-3.8 10.8 10.8 0 01-.5-1.1l-.2-.6.6 1.5a8.5 8.5 0 001.2 2 8.7 8.7 0 001.7 1.5 9.1 9.1 0 004.3 1.6 9.3 9.3 0 002.3-.2 4.4 4.4 0 002-.8 1.8 1.8 0 00.6-.8 1.5 1.5 0 000-1 1.6 1.6 0 00-.3-.4 2.2 2.2 0 00-.2-.5 2.2 2.2 0 00-1-.5c-1.4-.5-3.3.2-3.6 1.6a3.3 3.3 0 00.3 2.2 9.4 9.4 0 001.3 2 18 18 0 007.6 5.5zm-1 3.8a6.1 6.1 0 00-1.8-.4l-2-.5a12.4 12.4 0 01-1.7-.7l-1-.3a4.7 4.7 0 00-.9-.3l-1-.2c-.2-.2-.6 0-.9-.2l-1.9-.4-1.8-.8-1.8-.9a.4.4 0 01.4-.6 6.2 6.2 0 001.7.8l1.8.7a6.5 6.5 0 001.8.5c.4 0 .6.3 1 .3a6 6 0 011 .1 3.5 3.5 0 00.8.3c.4 0 .7.2 1 .3a1.8 1.8 0 01.9.3 1.7 1.7 0 00.4.2l.5.2a9.2 9.2 0 001.9.4 18.3 18.3 0 001.9.5.4.4 0 01-.3.7z" fill="#ffc657"/><path d="M76.5 67c-1.4-.4-2.7-.8-4.1-1-1.4-.5-2.7-1-4-1.2a27.8 27.8 0 01-4.1-1.4l-1-.4a7.7 7.7 0 01-1-.5l-.4-.3-.3-.1a.7.7 0 01-.2-.3.7.7 0 01.1-.8.7.7 0 01.8-.1 16.5 16.5 0 001.9 1 16 16 0 002 .5l4 1.1 2 .7 2.1.5 1 .3 1 .3h.6a1 1 0 01.3.2.8.8 0 01.2 1.3.9.9 0 01-1 .2zm.2-.8h.1a.6.6 0 00-.1 0l-.5-.2-2.1-.4c-1.3-.4-2.8-.8-4-1.3a34.6 34.6 0 00-4.2-1.1c-.7-.1-1.2-.7-2-.8l-1-.4-.5-.2-.2-.1-.1-.1H62s0-.1 0 0h.2l.5.3a8.2 8.2 0 001.8.8 9.8 9.8 0 012 .7 6.7 6.7 0 001 .3l1 .4 4.1 1a39.2 39.2 0 004.1 1.1z" fill="#ffc657"/><path d="M68.1 45c0-.4-.2-.7-.5-.6a.5.5 0 000 .8c.1.2.5 0 .5-.3" fill="#ffc757"/><path d="M67.7 44.9s-.2 0 0 0v-.1h0c0 .1.2.2 0 0v.1a.7.7 0 11.8-.7v.8a.8.8 0 01-.2.5c-.2.2-.5.1-.7.1a.7.7 0 01-.5-.4 1 1 0 010-.5c0-.2-.1-.4.1-.5a.8.8 0 01.4-.1h.2a.5.5 0 01.2 0 2.4 2.4 0 01.1.2c.1 0 .2 0 .3.2a.7.7 0 01.1.5.3.3 0 01-.5.1zm4.1 1.3c0-.6-.5-1.1-1-1a.9.9 0 00-.1 1.5.7.7 0 001.1-.5" fill="#ffc757"/><path d="M71.4 46.2c0-.2-.2-.4-.3-.5v-.1a.2.2 0 00-.2 0l-.3.3c0 .3.3.6.4.5h.3a.2.2 0 00.1-.2.4.4 0 11.8-.2v.3a1.1 1.1 0 01-.4.8 1.3 1.3 0 01-1 0 1 1 0 01-.6-.5 1.5 1.5 0 01-.2-.8 1 1 0 01.4-.8 1 1 0 01.5-.1h.2a.8.8 0 01.2 0 2.9 2.9 0 01.4.3l.3.3a1 1 0 01.2.8.4.4 0 01-.8 0z" fill="#ffc757"/></svg>
