<svg xmlns="http://www.w3.org/2000/svg" viewBox="0 0 178 158"><path d="M9.19 129.84a40.029 40.029 0 01-4.9-7.14C-13.91 88.59 58.08-41.88 135.85 18.43a105.946 105.946 0 018.34 7.18c.32.3.63.6.95.91 87.49 85-82.3 166.28-135.95 103.32z" fill="#f4f6f8"/><path d="M122.6 100.885c-3.367 5.4-7.834 10.765-13.646 13.605-4.287 2.1-14.453 9.75-31.709 7.033-7.56-14.523 40.431-11.323 23.149-32.87-8.072-10.081 13.327-14.12 10.747-23.607-1.756-6.452-12.59-7.41-6.093-19.216 4.174-7.589-4.97-8.194-9.839-10.914a8.439 8.439 0 01-2.96-2.714 25.54 25.54 0 012.624.472c4.609 1.1 9.317 3.624 13.325 6.119 10.881 6.787 14.836 13.414 17.221 19.48 5.775 14.749 5.705 28.951-2.819 42.612z" fill="#fff" opacity=".4"/><path d="M113.7 28.206c-.155.136-.314.272-.469.412-.442.39-.885.79-1.331 1.184a24.1 24.1 0 01-3.642 2.81 19.335 19.335 0 01-4.569.938c-2.405-1.532-7.723-1.4-7.466-4.879.17-2.288 2.3-4.856 4.138-6.343.163-.132.325-.253.48-.367 3.532-2.549 8.26-2.421 12.345-1.66 4.559.847 3.614 5.238.514 7.905z" fill="#afbadd"/><path d="M113.964 28.508c-.823.721-1.72 1.375-2.488 2.179-.955.591-1.7 1.44-2.647 2.077l-.358.248a3.1 3.1 0 01-.465.212 4.157 4.157 0 01-.839.178 9.881 9.881 0 00-1.629.4 9.238 9.238 0 01-1.725.162.813.813 0 01-.222-.036.407.407 0 01-.13-.066l-.039-.027-.156-.109a4.472 4.472 0 00-.344-.179 8.552 8.552 0 00-.733-.307 7.051 7.051 0 01-1.561-.478 1.87 1.87 0 00-.8-.221c-.271-.069-.532-.172-.8-.268a7.825 7.825 0 01-1.552-.752 3.449 3.449 0 01-1.276-1.288 3.967 3.967 0 01-.169-1.789A3.231 3.231 0 0196.5 26.8a17.9 17.9 0 011.856-2.8 12.823 12.823 0 012.494-2.221 9.891 9.891 0 012.94-1.659 10.05 10.05 0 011.644-.428c.561-.083 1.13-.06 1.686-.125s1.119-.113 1.68-.136a5.835 5.835 0 011.679.089c.556.067 1.117.078 1.671.158a15.434 15.434 0 011.643.432 5.7 5.7 0 01.837.276 3.18 3.18 0 01.739.507c.215.21.472.374.691.6a2.122 2.122 0 01.422.829 4.674 4.674 0 01.051 1.788 3.788 3.788 0 01-.53 1.649c-.3.489-.566.992-.884 1.474a7.714 7.714 0 01-1.155 1.275zm-.525-.6a11.277 11.277 0 001.116-1.121 3.609 3.609 0 00.862-1.313c.139-.508.366-.964.476-1.46a2.2 2.2 0 00-.188-1.42c-.1-.209-.222-.389-.317-.6a1.114 1.114 0 00-.422-.571c-.215-.123-.447-.2-.667-.315a5.411 5.411 0 00-.687-.332c-.484-.173-1.071-.083-1.6-.21a13.747 13.747 0 00-1.608-.271c-1.087.031-2.161-.209-3.247-.112a7.8 7.8 0 00-1.582.34c-.519.121-1.04.225-1.545.389a12.371 12.371 0 00-1.5.519 8 8 0 00-1.46.67 16.064 16.064 0 00-2.26 2.3c-.634.839-1.553 1.56-1.742 2.65a5.317 5.317 0 01-.442 1.468.878.878 0 00-.011.725c.1.227.243.4.331.593a2.73 2.73 0 00.933 1.01 8.22 8.22 0 001.411.664c.248.1.509.174.76.28a1.686 1.686 0 00.77.292 5.431 5.431 0 011.575.559c.262.1.523.214.778.344l.38.2.189.109c.119.06-.035 0 .064.019a15.848 15.848 0 001.585-.243 7.626 7.626 0 001.594-.382c.256-.1.513-.191.762-.266a2.726 2.726 0 00.323-.1l.345-.2A10.523 10.523 0 00111 30.14c.878-.666 1.612-1.496 2.439-2.24z" fill="#afbadd"/><g opacity=".4" fill="#7b8ed0"><path d="M113.233 28.618c-.442.39-.885.79-1.331 1.184a24.1 24.1 0 01-3.642 2.81 19.335 19.335 0 01-4.569.938c-2.405-1.532-7.723-1.4-7.466-4.879.17-2.288 2.3-4.856 4.138-6.343a22.668 22.668 0 0112.87 6.29z"/><path d="M113.632 28.631a13.631 13.631 0 01-1.5 1.418c-.24.177-.392.454-.637.628-.23.191-.515.316-.739.515l-1.358 1.2a8.313 8.313 0 01-.738.542 1.518 1.518 0 01-.5.214l-.466.091a4.673 4.673 0 00-.867.274 4.259 4.259 0 01-.883.175c-.6.072-1.19.123-1.8.208l-.243.018h-.143c-.042-.006-.059 0-.123-.012a.546.546 0 01-.134-.052l-.024-.01a3.878 3.878 0 00-.383-.154 3 3 0 01-.745-.408c-.566-.123-1.112-.326-1.677-.507l-1.7-.57c-.6-.144-1.033-.666-1.618-.881a2.267 2.267 0 01-1.125-1.487 3.137 3.137 0 01-.093-1.843 6.373 6.373 0 01.664-1.69c.317-.514.625-1.025.933-1.546a9.7 9.7 0 012.407-2.7l.056-.041a.242.242 0 01.21-.037c1.193.352 2.483.227 3.64.726.575.228 1.2.306 1.76.59a9.046 9.046 0 00.808.466c.278.131.574.226.846.371a3.737 3.737 0 00.8.46 2.415 2.415 0 01.827.414 11.3 11.3 0 001.529 1.038c.557.284.918.825 1.464 1.126.251.179.518.344.752.547a4.143 4.143 0 01.8.917zm-.8-.026a1.227 1.227 0 01-.526-.323c-.228-.191-.419-.425-.635-.634-.4-.457-1.037-.612-1.468-1.029a4.941 4.941 0 00-1.543-.906 1.891 1.891 0 01-.74-.508 2.408 2.408 0 00-.813-.376c-.277-.111-.505-.326-.774-.458a5.153 5.153 0 00-.859-.267c-.57-.174-1.08-.518-1.662-.666-1.166-.214-2.27-.847-3.5-.69l.312-.091c-.821.8-1.65 1.588-2.452 2.427a3.236 3.236 0 00-.952 1.434 9.407 9.407 0 00-.5 1.6 3.674 3.674 0 00-.084 1.563c.211.521.793.607 1.076 1.089a.851.851 0 00.717.4 2.288 2.288 0 01.82.232 11.34 11.34 0 001.644.6 7.444 7.444 0 011.677.67 2.085 2.085 0 01.867.327c.13.09.258.187.382.287-.1-.017-.023.007.043 0l.2-.009a11.281 11.281 0 001.729-.278 15.248 15.248 0 001.709-.408c.134-.056.269-.11.391-.174a2.537 2.537 0 00.317-.2c.249-.146.5-.289.745-.447.489-.314.973-.645 1.435-1.007.229-.185.4-.439.613-.639s.48-.346.685-.559a6.913 6.913 0 011.147-.965z"/></g><path d="M114.8 62.791c.069 21.478-12.181 18.842-31.5 35.187-12.876 10.893-22.7 6.477-24.246-.738a9.648 9.648 0 01-.2-2.524C59.114 89.41 63.6 83.444 74 80.925 84.837 78.3 80.8 59.7 99.645 51.4c.446-.2.9-.386 1.374-.571.206-.082.408-.155.605-.227 9.335-3.37 13.146 1.836 13.176 12.189z" fill="#ffbf4d"/><path d="M115 62.79a33.853 33.853 0 01-1.454 10.5 16.954 16.954 0 01-2.479 4.71l-.821 1.059c-.281.346-.621.638-.929.96s-.627.634-.952.939l-1.035.84a86.132 86.132 0 01-8.861 5.817c-3.025 1.809-5.99 3.706-8.858 5.745-2.891 2.021-5.539 4.31-8.372 6.456a24.684 24.684 0 01-9.54 4.544l-1.315.236-1.336.072a7.27 7.27 0 01-1.336-.047 6.5 6.5 0 01-1.324-.185 9.322 9.322 0 01-7.2-12.221 14.8 14.8 0 016.581-8.086 26.315 26.315 0 014.777-2.308c1.645-.651 3.441-.92 5.022-1.6a9.578 9.578 0 003.861-3.4 28.315 28.315 0 002.484-4.621 82.129 82.129 0 014.587-9.548 27.7 27.7 0 017.029-7.915A30.709 30.709 0 01103 49.993a12.042 12.042 0 015.3-.407 6.6 6.6 0 014.388 2.918 13.525 13.525 0 011.872 4.988 34.034 34.034 0 01.44 5.298zm-.4 0a33.651 33.651 0 00-.436-5.228 13.141 13.141 0 00-1.808-4.838 6.2 6.2 0 00-4.135-2.753 11.546 11.546 0 00-5.115.4 30.787 30.787 0 00-9.334 4.681 27.37 27.37 0 00-6.942 7.795 81.875 81.875 0 00-4.587 9.5 28.644 28.644 0 01-2.526 4.68 9.931 9.931 0 01-4.008 3.509c-1.682.717-3.414.959-5.051 1.6a25.987 25.987 0 00-4.717 2.268 14.406 14.406 0 00-6.451 7.9 9.242 9.242 0 002.41 9.496 9.135 9.135 0 004.567 2.238 6.17 6.17 0 001.278.171 7.443 7.443 0 001.292.047l1.3-.064 1.282-.225a24.31 24.31 0 009.409-4.434c2.789-2.114 5.443-4.493 8.356-6.485 2.88-2.044 5.864-3.938 8.888-5.751a90.007 90.007 0 008.795-5.821l1.021-.827.933-.92c.3-.315.637-.6.912-.939l.8-1.034a16.541 16.541 0 002.429-4.6 33.471 33.471 0 001.438-10.365zM59.313 87.5a3.216 3.216 0 01.768-1.082l.125-.111c.056-.025.13-.034.156-.084l.233-.234c.148-.163.391-.234.544-.388l.837-1.023a1.262 1.262 0 01.533-.388 3.932 3.932 0 00.478-.456l.48.64c-.156.142-.3.3-.46.433s-.4.176-.526.351c-.309.284-.613.573-.892.885-.128.168-.19.394-.379.5-.093.056-.217.085-.307.146-.065.013-.068.08-.09.129l-.133.093a.928.928 0 00-.249.2c-.057.089-.044.232-.117.308-.117.174-.208.365-.338.528z" fill="#ffbf4d"/><path d="M66.4 81.655a29.768 29.768 0 015.723-2.155 9.055 9.055 0 004.912-2.808 12.566 12.566 0 00.916-1.135 9.457 9.457 0 00.846-1.211 33.67 33.67 0 001.376-2.649l2.572-5.459a35.124 35.124 0 016.52-10.208 22.284 22.284 0 014.782-3.79 35.335 35.335 0 015.409-2.813l.294.744a32.514 32.514 0 00-5.275 2.742 24.732 24.732 0 00-4.664 3.657 33.359 33.359 0 00-6.49 9.934c-.815 1.828-1.49 3.723-2.408 5.536a29.577 29.577 0 01-1.5 2.665c-.3.42-.527.877-.818 1.3a11.711 11.711 0 01-.985 1.2 10.023 10.023 0 01-2.426 1.93 10.7 10.7 0 01-1.387.715 13.491 13.491 0 01-1.471.461 28.943 28.943 0 00-5.577 2.062z" fill="#ffbf4d"/><path d="M114.8 62.791c.069 21.478-12.181 18.842-31.5 35.187-12.876 10.893-22.7 6.477-24.246-.738a9.648 9.648 0 01-.2-2.524 19.513 19.513 0 018.464-3.983c4.382-.6 8.975-.258 13.378-1.142 8.387-1.682 19.087-10.365 17.314-19.937-.871-4.7-2.412-8.674-.7-13.451a23.009 23.009 0 012.335-4.8c.446-.2.9-.386 1.374-.571.206-.082.408-.155.605-.227 9.335-3.373 13.146 1.833 13.176 12.186z" fill="#ffaa10" stroke="#ffaa10" stroke-linejoin="round" stroke-width=".5"/><path d="M38.113 84.659a17.265 17.265 0 01-3.207 3.616 29.3 29.3 0 01-3.672 2.708 12.172 12.172 0 01-1.513.813c-3.589 1.645-7.738 1.785-11.093 3.99-2.651 1.744-4.573 5.178-8.181 4.89-3.555-.284-5.276-3.423-4.255-6.653 1.392-4.425 7.477-3.915 10.62-6.528a41.821 41.821 0 004.5-4.871c.318-.374.651-.745.98-1.1a13.673 13.673 0 014.527-3.48 8.036 8.036 0 011.694-.53c4.154-.814 13.564.976 9.6 7.145z" fill="#afbadd"/><path d="M38.449 84.875a21.218 21.218 0 01-3.71 4.029 42.489 42.489 0 01-4.5 3.112 9.975 9.975 0 01-2.56 1.008c-.888.21-1.736.526-2.6.777a25.391 25.391 0 00-5.05 1.587 9.316 9.316 0 00-2.129 1.477q-.53.388-1.055.808c-.347.283-.591.679-.949.962a12.542 12.542 0 01-2.228 1.642 5.768 5.768 0 01-2.73.742 4.9 4.9 0 01-2.719-.709 6.562 6.562 0 01-1.1-.877 4.579 4.579 0 01-.895-1.095 4.991 4.991 0 01-.479-2.738 6.861 6.861 0 01.725-2.65A5.053 5.053 0 018.408 91a11.7 11.7 0 012.49-1.1 22.972 22.972 0 004.9-2.067 10.4 10.4 0 001.958-1.711c.585-.659 1.239-1.265 1.828-1.939 1.2-1.321 2.185-2.859 3.542-4.107a25.649 25.649 0 012.174-1.722 6.88 6.88 0 012.593-1.043 9.208 9.208 0 012.751-.3 22.6 22.6 0 012.738.19 16.555 16.555 0 012.628.821 5.518 5.518 0 012.362 1.489 3.986 3.986 0 011.021 2.677 5.587 5.587 0 01-.944 2.687zm-.673-.433a5.585 5.585 0 00.905-2.3 2.709 2.709 0 00-.11-1.182 2.654 2.654 0 00-.69-.982 8.769 8.769 0 00-2.108-1.363 10.549 10.549 0 00-2.534-.573 12.258 12.258 0 00-5.166-.051 15.61 15.61 0 00-2.319 1.1 8.483 8.483 0 00-2.063 1.588 43.856 43.856 0 00-3.613 3.921 14.958 14.958 0 01-1.722 2.111 9.813 9.813 0 01-2.173 1.761c-1.636 1.007-3.516 1.089-5.138 1.836C9.426 91 7.811 91.8 6.97 93.238a4.409 4.409 0 00-.739 2.385 5.223 5.223 0 00.686 2.347 4.936 4.936 0 00.583 1.077 2.411 2.411 0 001.041.656 8.9 8.9 0 002.385.494c1.666.088 3.124-1.005 4.43-2.158.31-.315.733-.519 1.051-.838s.637-.645.971-.96a12.285 12.285 0 012.374-1.415c3.309-1.59 7.026-1.858 10.145-3.51l1.169-.595q.572-.345 1.131-.709a12.652 12.652 0 002.091-1.645 19 19 0 001.922-1.82 17.684 17.684 0 001.566-2.105z" fill="#afbadd"/><g opacity=".4" fill="#7b8ed0"><path d="M38.113 84.659a17.265 17.265 0 01-3.207 3.616 29.3 29.3 0 01-3.672 2.708 12.172 12.172 0 01-1.513.813c-.219-3.283.363-6.388-.915-9.766a27.018 27.018 0 00-1.982-3.99 8.036 8.036 0 011.694-.53c4.149-.81 13.559.98 9.595 7.149z"/><path d="M38.449 84.875A9.754 9.754 0 0137.575 86c-.349.324-.526.8-.915 1.088-.768.569-1.292 1.377-2.005 2.005a5.826 5.826 0 01-1.153.822c-.4.252-.7.644-1.111.873-.791.5-1.7.846-2.524 1.325a.329.329 0 01-.492-.241l-.007-.057a6.861 6.861 0 01-.117-.905 4.9 4.9 0 00.078-.906 3.01 3.01 0 01-.044-.9l.027-.894a16.832 16.832 0 00-.007-1.774c-.091-.579.146-1.194-.056-1.764a11.114 11.114 0 01-.312-1.736 9.067 9.067 0 00-.648-1.645 26.992 26.992 0 00-.754-1.608 7.528 7.528 0 00-.893-1.543.187.187 0 01.037-.262l.02-.013.04-.022a6.867 6.867 0 014.34-.808 16.341 16.341 0 012.221.065c.7.264 1.477.232 2.172.547a8.526 8.526 0 001.007.517c.174.073.345.152.516.235a4.308 4.308 0 01.453.349c.275.257.7.349.934.681a3.816 3.816 0 01.606 1.012 4.558 4.558 0 01.374 1.125 3.274 3.274 0 01-.132 1.164 6.66 6.66 0 01-.266 1.124 8.992 8.992 0 01-.515 1.021zm-.673-.433a8.223 8.223 0 00.5-.9 3.3 3.3 0 00.391-.931 5.024 5.024 0 00-.038-.971 1.812 1.812 0 00-.217-.912 2.718 2.718 0 00-.65-.7c-.247-.189-.359-.582-.683-.722a2.955 2.955 0 01-.894-.5 2.432 2.432 0 00-.991-.322 7.464 7.464 0 00-2.031-.531 13.353 13.353 0 00-2.1-.307 5.5 5.5 0 00-1.055.149c-.347.059-.693.066-1.033.119a16.474 16.474 0 00-2.017.431l.153-.47a5.717 5.717 0 00.875 1.579 12.219 12.219 0 01.87 1.6c.27.549.294 1.194.541 1.756.224.564.652 1.124.468 1.779-.126.629.386 1.192.292 1.816-.017.612-.045 1.215-.042 1.815l-.023.9A2.952 2.952 0 0130 90a3.345 3.345 0 00.07.885c0 .295-.039.59-.056.887l-.413-.247a13.247 13.247 0 002.378-1.349 11.359 11.359 0 001.129-.793 9.324 9.324 0 011.032-.914c.364-.276.725-.563 1.074-.858a3.983 3.983 0 00.945-.993c.245-.391.661-.632.886-1.037.246-.381.504-.75.731-1.139z"/></g><path d="M144.19 25.61a.249.249 0 01-.07.04 40.521 40.521 0 00-5.49 3.07c-3.1 2.32-3.98 8.05-8.36 8.36-3.21.22-5.72-2.06-5.2-5.4.53-3.39 4.12-4.4 6.32-6.46 2.02-1.9 3.12-4.42 4.46-6.79a105.946 105.946 0 018.34 7.18z" fill="#afbadd"/><path d="M117.855 37.033a50.936 50.936 0 104.265 71.908 50.671 50.671 0 00-4.265-71.908zm9.7 49.638c-2.176 6.892-5.175 13.295-10.012 18.742-4.225 4.753-9.533 9.3-15.739 11.119-3.978 1.17-8.02 2.966-12.134 3.607a45.328 45.328 0 01-8.793.212 44.516 44.516 0 01-26.967-11.164c-8.7-7.729-12.943-17.379-14.446-28.616a37.2 37.2 0 01-.175-10.564c1.225-8.49 5.146-18.036 10.847-24.453 9.9-11.152 27.817-18.735 42.686-14.639a70.674 70.674 0 018.84 2.594c4.36 1.863 8.577 5.138 12.107 8.271a47.943 47.943 0 019.187 10.636 28.155 28.155 0 012.065 3.608 38.5 38.5 0 012.451 7.853c1.472 7.077 2.294 15.799.087 22.794z" fill="#fff"/><path d="M123.3 109.986a51.554 51.554 0 01-16.366 12.306c-1.566.7-3.2 1.231-4.769 1.922l-4.865 1.678c-1.657.441-3.337.814-5.013 1.228l-5.126.741a49.553 49.553 0 01-20.414-2.843 53.8 53.8 0 01-17.667-10.546l-3.663-3.639c-1.125-1.3-2.2-2.649-3.29-3.977-.995-1.4-1.9-2.871-2.844-4.3-.855-1.488-1.6-3.038-2.406-4.552-.7-1.563-1.3-3.176-1.946-4.759-.536-1.625-.978-3.282-1.468-4.92-.368-1.67-.634-3.362-.945-5.038l-.443-5.1c.029-1.7.013-3.406 0-5.106.153-1.694.256-3.394.433-5.085.3-1.675.586-3.356.964-5.012.494-1.628.924-3.277 1.474-4.884.656-1.569 1.259-3.16 1.976-4.7.815-1.49 1.555-3.02 2.409-4.482.957-1.4 1.821-2.861 2.773-4.263l3.146-4a51.384 51.384 0 0116.173-12.133 53.04 53.04 0 014.68-1.977 81.19 81.19 0 014.8-1.689 46.608 46.608 0 014.961-1.22 52.512 52.512 0 015.082-.6 52.467 52.467 0 0137.985 12.772l3.621 3.669c1.113 1.307 2.165 2.666 3.245 4 .993 1.4 1.889 2.862 2.833 4.289.865 1.475 1.656 3 2.485 4.5.736 1.544 1.36 3.143 2.043 4.715.572 1.613 1.045 3.263 1.57 4.9.4 1.666.723 3.351 1.084 5.028.235 1.7.362 3.413.507 5.118l-.061 5.136-.549 5.1c-.311 1.677-.571 3.368-.929 5.035-.481 1.638-.88 3.3-1.393 4.931a52.326 52.326 0 01-10.087 17.757zm-2.355-2.091a49.581 49.581 0 009.634-16.655c.5-1.531.881-3.1 1.331-4.645.334-1.574.573-3.17.869-4.751.15-1.6.187-3.216.29-4.816l-.169-4.81c-.22-1.59-.416-3.176-.568-4.77-.318-1.567-.595-3.146-.939-4.71-.468-1.531-.894-3.077-1.387-4.6-.609-1.481-1.156-2.994-1.811-4.459a48.272 48.272 0 00-11.455-15.394 43.92 43.92 0 00-16.507-9.921 49.953 49.953 0 00-19.106-2.355 49.17 49.17 0 00-4.789.586c-1.59.245-3.172.523-4.768.8a30.928 30.928 0 00-9.134 3.212 53.434 53.434 0 00-14.987 12.006c-1.018 1.235-2.083 2.436-3.123 3.665a75.328 75.328 0 00-2.719 3.983c-.783 1.4-1.478 2.857-2.209 4.288-.642 1.472-1.155 3-1.756 4.488-.508 1.522-.9 3.083-1.362 4.621-.35 1.567-.584 3.159-.934 4.731-.211 1.593-.347 3.2-.5 4.8-.02.8 0 1.611 0 2.416l.083 2.414.722 4.77c.368 1.563.689 3.131 1 4.7l.659 2.313c.216.772.381 1.565.638 2.326.573 1.5 1.093 3.03 1.716 4.52.724 1.438 1.372 2.933 2.222 4.307.918 1.332 1.785 2.7 2.74 4 1.014 1.258 1.966 2.574 2.993 3.834l3.354 3.551a44.023 44.023 0 0016.748 9.875 51.158 51.158 0 0019.251 2.326l4.845-.446c1.592-.31 3.2-.581 4.786-.918 1.551-.479 3.144-.848 4.669-1.413 1.481-.679 2.987-1.3 4.429-2.039a50.929 50.929 0 0015.242-11.83zm6.889 3.705c2.9 2.347 5.764 4.74 8.44 7.343 1.346 1.292 2.6 2.684 3.975 3.947 1.35 1.288 2.795 2.469 4.251 3.637s2.9 2.345 4.267 3.619 2.7 2.577 4.049 3.864c.667.653 1.4 1.237 2.093 1.855l2.2 1.737c.742.568 1.417 1.213 2.121 1.824s1.4 1.235 2.065 1.887a1.8 1.8 0 01-2.344 2.732l-.049-.037c-.748-.562-1.47-1.152-2.187-1.749s-1.454-1.171-2.142-1.8c-.706-.609-1.38-1.254-2.062-1.89s-1.316-1.326-2.023-1.934c-2.809-2.452-5.6-4.921-8.236-7.572-1.326-1.315-2.655-2.626-4.061-3.85s-2.852-2.4-4.264-3.622c-1.451-1.173-2.7-2.572-4.085-3.824a41.242 41.242 0 00-4.4-3.47 1.8 1.8 0 012-3q.068.046.131.1z" fill="#081140"/><path d="M170 141.818a6.943 6.943 0 01-1.67 4.385c-1.1 1.46-3.268 5.083-5.06 5.622-2.693.808-6.5-2.746-8.317-4.1-4.675-3.484-4.406-3.024-8.676-6.982-4.31-4-8.529-8.089-12.778-12.15-2.3-2.193-9.253-5.883-7.318-10.134.976-2.11 4.873-5.129 6.7-6.493 5.832-4.361 17.145 10.183 20.986 13.593 4.555 4.044 4.528 3.648 9.082 7.692 2.831 2.518 6.929 4.975 7.051 8.567z" fill="#081140"/><path d="M170.194 141.811a6.639 6.639 0 01-1.176 3.735 214.25 214.25 0 01-2.237 3.16 14.212 14.212 0 01-2.631 2.89 2.92 2.92 0 01-1.948.565 5.578 5.578 0 01-1.936-.5c-2.429-1.082-4.292-2.945-6.365-4.425a64.637 64.637 0 01-6.075-4.785c-3.777-3.5-7.449-7.1-11.167-10.664a56.533 56.533 0 00-5.759-5.106 29.091 29.091 0 01-2.942-2.517 7.627 7.627 0 01-2.105-3.252 3.6 3.6 0 01.024-1.967 5.054 5.054 0 01.954-1.713 21.384 21.384 0 012.729-2.751c.973-.848 1.993-1.636 3.012-2.423a4.44 4.44 0 013.712-.968 10.841 10.841 0 013.621 1.433 26.348 26.348 0 013.173 2.234 67.611 67.611 0 015.662 5.269l2.673 2.786c.885.932 1.753 1.882 2.7 2.73 1.894 1.743 3.911 3.322 5.911 4.951 1 .817 1.958 1.676 2.915 2.537s1.966 1.645 2.96 2.467a19.364 19.364 0 012.79 2.707 6.186 6.186 0 011.505 3.607zm-.393.013a5.8 5.8 0 00-1.407-3.387 18.783 18.783 0 00-2.73-2.656c-.985-.819-2.007-1.606-2.985-2.457l-2.93-2.5c-1.98-1.625-3.99-3.261-5.9-4.987-1.918-1.76-3.588-3.709-5.383-5.551a59.668 59.668 0 00-5.618-5.253 25.985 25.985 0 00-3.131-2.2 10.484 10.484 0 00-3.494-1.381 4.14 4.14 0 00-3.476.833 44.002 44.002 0 00-2.986 2.421 21.075 21.075 0 00-2.659 2.731 3.778 3.778 0 00-.9 3.378 7.133 7.133 0 001.992 3.108 28.779 28.779 0 002.923 2.468 28.426 28.426 0 012.995 2.467l2.785 2.671c3.8 3.467 7.4 7.157 11.184 10.632.943.873 1.9 1.72 2.923 2.5s2.08 1.511 3.114 2.277c2.106 1.481 3.98 3.316 6.314 4.341 1.126.488 2.5.787 3.514.015a11.752 11.752 0 002.556-2.8l2.2-3.157a6.259 6.259 0 001.098-3.513z" fill="#081140"/><path d="M141.752 114.062a35.54 35.54 0 01-2.726 3.123 23.714 23.714 0 00-2.84 3.023 30.066 30.066 0 01-2.792 3.065 15.566 15.566 0 00-1.321 1.6 21.737 21.737 0 01-1.381 1.546.9.9 0 01-1.369-1.17l.008-.011a25.653 25.653 0 012.741-3.119c.911-1.042 1.831-2.076 2.842-3.03a33.437 33.437 0 002.792-3.074 20.231 20.231 0 002.7-3.153.9.9 0 111.559.91.913.913 0 01-.063.094zm14.987 35.114a39.212 39.212 0 012.2-3.359 26.856 26.856 0 002.37-3.3 19.142 19.142 0 012.506-3.239c.467-.5.871-1.063 1.3-1.609a13.28 13.28 0 011.469-1.476.9.9 0 011.263 1.279l-.036.041a94.868 94.868 0 01-2.642 2.884c-.825 1.022-1.611 2.082-2.475 3.1a25.643 25.643 0 00-2.285 3.3 21.073 21.073 0 00-2.191 3.407.9.9 0 11-1.611-.807z" fill="#ffc757"/><path d="M38.834 67.691c.44-2.779 1.386-5.409 1.942-8.173a43.89 43.89 0 013.424-7.672 33.5 33.5 0 012.236-3.563A30.9 30.9 0 0149.063 45c.931-1.048 1.844-2.1 2.869-3.053l3.129-2.767a44.949 44.949 0 013.362-2.467c1.181-.728 2.2-1.728 3.419-2.4l1.8-1.063 1.862-.961c1.264-.59 2.5-1.259 3.822-1.731.669-.21 1.323-.461 2-.628s1.349-.371 2.013-.593a31.924 31.924 0 014.086-.962c.691-.118 1.393-.158 2.089-.227.692-.106 1.384-.2 2.082-.262 1.392-.181 2.8-.229 4.2-.277a.787.787 0 11.053 1.572h-.1c-1.349.02-2.7.036-4.039.185a19.136 19.136 0 00-3.98.705c-.651.177-1.326.232-1.981.393l-1.978.433a40.033 40.033 0 00-3.875 1.2 28.779 28.779 0 00-7.327 3.5 10.6 10.6 0 01-1.77 1 5 5 0 00-.921.451c-.278.2-.544.409-.816.612-1.083.826-2.024 1.822-3.087 2.648-.531.415-1.109.78-1.618 1.225l-1.424 1.427c-.5.454-.926.979-1.42 1.441a10.258 10.258 0 00-1.347 1.5 25.123 25.123 0 01-2.435 3.228 11.243 11.243 0 00-1.122 1.693c-.4.552-.765 1.126-1.153 1.69a32.736 32.736 0 00-3.112 7.544 19.283 19.283 0 00-1.21 3.9 71.333 71.333 0 00-.749 4 .787.787 0 01-1.556-.239zm82.905 34.26l-1.854 2.309a21.091 21.091 0 01-1.946 2.215l-1.052 1.03c-.347.347-.661.727-1 1.083q-1 1.084-2.077 2.116a29.085 29.085 0 01-10.324 5.907l-5.541 1.714a46.5 46.5 0 01-5.678 1.516c-.971.17-1.942.377-2.928.487a28.531 28.531 0 01-2.947.149c-.98 0-1.956-.032-2.93-.083s-1.942-.045-2.923-.119a38.862 38.862 0 01-5.8-.867 51.547 51.547 0 01-5.709-1.4 47 47 0 01-10.6-5.118c-1.613-1.14-3.1-2.436-4.6-3.7a36.25 36.25 0 01-4.174-4.171 51.205 51.205 0 01-1.777-2.359c-.6-.78-1.161-1.586-1.719-2.4a43.318 43.318 0 01-2.99-5.1.787.787 0 111.407-.706v.006l.016.032a41.546 41.546 0 002.811 4.953 38.9 38.9 0 001.653 2.316c.6.738 1.252 1.427 1.889 2.126 1.287 1.385 2.561 2.787 3.957 4.078a40.427 40.427 0 004.454 3.547 33.8 33.8 0 0010.162 5.088c1.841.451 3.537 1.467 5.454 1.67 1.882.319 3.788.391 5.669.535.933.11 1.9.241 2.856.264s1.911.01 2.86-.021c.949-.011 1.89-.082 2.823-.147a12.327 12.327 0 002.761-.467c.906-.259 1.789-.6 2.712-.836.915-.263 1.856-.473 2.787-.738.944-.226 1.846-.586 2.775-.887.925-.273 1.931-.474 2.826-.722 3.706-.949 6.833-3.357 9.7-5.817.741-.6 1.473-1.213 2.18-1.858a15.976 15.976 0 001.978-2.076c1.292-1.425 2.376-2.985 3.559-4.472l.05-.063a.786.786 0 011.231.979zM40.218 87.414a4.71 4.71 0 01-.454-1.554 3.573 3.573 0 00-.251-1.6 3.928 3.928 0 01-.271-1.59 2.486 2.486 0 00-.219-.78 3.182 3.182 0 01-.13-.8.9.9 0 011.734-.384l.047.11a3.779 3.779 0 01.295 1.539 6.937 6.937 0 01.2 1.556 4.025 4.025 0 00.312 1.536 4.251 4.251 0 01.116.778 1.685 1.685 0 00.356.716.91.91 0 11-1.51.981z" fill="#081140"/><path d="M25.3 123.627c-1.723 3.553-5.114 4.233-8.592 4.616a71.637 71.637 0 00-7.521 1.6 39.931 39.931 0 01-4.893-7.143c1.855-.5 3.829-1.082 4.366-1.307 4.953-2.1 7.736-6.837 12.492-9.118 1.375-.663 4.437-1.15 5.755-.075 2.081 1.7-1.3 10.783-1.607 11.427z" fill="#afbadd"/><path d="M80.475 58.995c-.4-.838-.838-1.66-1.258-2.5a14.631 14.631 0 00-1.407-2.436c-.554-.76-1.067-1.545-1.59-2.327a11.079 11.079 0 00-.887-1.095c-.307-.355-.588-.73-.891-1.087a.45.45 0 01.667-.6l.018.019a15.862 15.862 0 011.8 2.245 22.023 22.023 0 011.6 2.388c.471.834.979 1.644 1.468 2.47.244.414.429.859.639 1.291s.43.86.676 1.282a.451.451 0 01-.779.455l-.017-.032zm-3.007 4.06a19.547 19.547 0 01-7.725-5.566 10.133 10.133 0 01-1.307-2.078 3.55 3.55 0 01-.29-2.594 2.665 2.665 0 01.811-1.117 3.416 3.416 0 011.2-.577 3.639 3.639 0 012.581.241 1.9 1.9 0 01.578.455 2.566 2.566 0 01.377.58 2 2 0 01.153 1.445 3.049 3.049 0 01-1.955 1.8 8.317 8.317 0 01-4.885.095 9.693 9.693 0 01-4.232-2.388 9.922 9.922 0 01-2.46-4.185.451.451 0 11.86-.27 8.835 8.835 0 006.052 5.989 7.443 7.443 0 004.333-.11A2.245 2.245 0 0073 53.595a1.129 1.129 0 00-.078-.833 1.74 1.74 0 00-.25-.406 1.08 1.08 0 00-.335-.27c-1.121-.618-3.042-.27-3.441 1a2.758 2.758 0 00.3 1.969 9.276 9.276 0 001.234 1.867 18.31 18.31 0 003.337 3.131 18.509 18.509 0 004.033 2.166.451.451 0 01-.324.841zm-.868 3.526c-1.212-.345-2.468-.595-3.722-.954a47.74 47.74 0 01-1.863-.613 18.516 18.516 0 00-1.846-.5 31.551 31.551 0 01-3.746-1.046c-.618-.215-1.248-.4-1.87-.638a9.847 9.847 0 01-1.785-.934.45.45 0 01.471-.767l.027.016a20.866 20.866 0 003.421 1.486c1.21.382 2.46.674 3.7 1.063 1.254.36 2.482.806 3.713 1.08.623.146 1.239.336 1.867.5s1.263.309 1.91.453a.451.451 0 01-.2.88l-.025-.006z" fill="#22266d"/><path d="M80.527 58.973c-.214-.412-.272-.9-.658-1.234-.252-.394-.388-.849-.608-1.264s-.4-.851-.578-1.293c-.1-.215-.25-.4-.349-.615a2.694 2.694 0 00-.364-.607c-.136-.193-.238-.408-.37-.6-.094-.222-.367-.321-.481-.528-.3-.366-.591-.735-.9-1.092a6.893 6.893 0 00-.819-1.15 3.892 3.892 0 00-.913-1.072.392.392 0 01.563-.546l.036.036a8.728 8.728 0 001 1.044c.3.372.52.81.805 1.194a3.988 3.988 0 00.853 1.154c.208.148.126.493.342.635a3.508 3.508 0 01.505.527 14.822 14.822 0 011.3 2.571 5.929 5.929 0 00.73 1.24 7.98 7.98 0 00.64 1.3.393.393 0 01-.713.329z" fill="#ffc657"/><path d="M80.12 59.164a23.381 23.381 0 00-1.509-2.833A25.918 25.918 0 0077 53.638c-.3-.446-.587-.9-.867-1.364-.274-.476-.6-.85-.892-1.3-.311-.427-.683-.824-1-1.258a.691.691 0 01.223-1.048.72.72 0 01.58-.027.7.7 0 01.24.164l.144.143a15.18 15.18 0 011.036 1.256c.3.461.726.809 1.006 1.274.605.89 1.3 1.756 1.844 2.667.464.965 1.086 1.834 1.528 2.844a9.254 9.254 0 00.709 1.422.861.861 0 01.135.615.8.8 0 01-.4.561.824.824 0 01-1.006-.17 1.167 1.167 0 01-.16-.253zm.711-.339c.039.081.045.082.045.082a.043.043 0 00.02.01.043.043 0 00.04-.007.037.037 0 00.017-.032.055.055 0 000-.016l-.041-.074-.393-.718c-.14-.231-.307-.465-.43-.689-.272-.452-.419-.948-.7-1.418-.246-.479-.526-.937-.787-1.406A14.829 14.829 0 0076.86 51.9c-.375-.381-.453-.991-.85-1.338-.354-.388-.752-.732-1.113-1.106-.046-.047-.081-.1-.122-.154-.022-.031.008-.013.005-.024s0-.031 0-.022.01.015.011 0c.354.4.626.856 1 1.255a4.251 4.251 0 01.98 1.326 5.083 5.083 0 00.427.677l.383.709a10.684 10.684 0 00.9 1.351 12 12 0 01.872 1.39 27.758 27.758 0 001.477 2.861zM77.489 63a34.466 34.466 0 01-4.208-2.27 17.26 17.26 0 01-3.49-3.281 9.373 9.373 0 01-1.284-2.072 3.39 3.39 0 01-.226-2.516 2.688 2.688 0 01.758-1.061 2.958 2.958 0 011.154-.541 3.827 3.827 0 012.458.26 1.911 1.911 0 01.858.964 1.774 1.774 0 01.115 1.293 2.969 2.969 0 01-1.788 1.728 8.329 8.329 0 01-4.828.227 9.785 9.785 0 01-4.172-2.44 10.216 10.216 0 01-.758-.951 9.495 9.495 0 01-.682-1 12.265 12.265 0 01-1.027-2.19.393.393 0 01.736-.278v.006l.013.036a8.543 8.543 0 002.325 3.774 11.354 11.354 0 001.725 1.375 7.729 7.729 0 002.044.867 6.394 6.394 0 004.356-.122c.331-.139.618-.325.926-.471a1.041 1.041 0 00.561-.729 1.463 1.463 0 00-.759-1.453 2.391 2.391 0 00-1.929-.207 1.83 1.83 0 00-1.411 1.155 4.029 4.029 0 00.248 1.947 4.323 4.323 0 00.53.979c.173.334.4.645.605.966a13.711 13.711 0 003.425 3.061 14.793 14.793 0 004.016 2.212.394.394 0 01-.294.73z" fill="#ffc657"/><path d="M77.321 63.421a21.987 21.987 0 01-8.021-5.733 10.135 10.135 0 01-1.342-2.172 3.944 3.944 0 01-.3-2.684 3.1 3.1 0 011.915-1.977 4.263 4.263 0 012.666-.141 2.968 2.968 0 011.242.664 2.86 2.86 0 01.421.569 2.155 2.155 0 01.317.636 2.316 2.316 0 01-.017 1.447 2.817 2.817 0 01-.789 1.149 4.982 4.982 0 01-2.37 1.054 8.183 8.183 0 01-2.517.067 10.01 10.01 0 01-4.643-1.718 10.134 10.134 0 01-3.647-4.928 2 2 0 01-.165-.685.68.68 0 011.318-.163l.2.57a10.162 10.162 0 00.493 1.082 8.52 8.52 0 003.276 3.324 7.859 7.859 0 004.488 1 5.178 5.178 0 002.158-.623 1.385 1.385 0 00.63-.67.865.865 0 00-.208-.778c-.667-.919-3.115-.665-3.233.7a3.54 3.54 0 00.654 2.051 15.354 15.354 0 001.433 1.873 14.676 14.676 0 003.62 3.071 17.019 17.019 0 002.12 1.1l.551.228.278.107a.952.952 0 01.4.247.834.834 0 01.068 1.036.844.844 0 01-.996.297zm.293-.731a.054.054 0 00.064-.084c.06.014-.22-.087-.4-.161l-.573-.243a18.965 18.965 0 01-2.2-1.158 16.568 16.568 0 01-2.025-1.453 18.164 18.164 0 01-1.847-1.678A10.786 10.786 0 0169.1 55.9a4.267 4.267 0 01-.72-2.607 2.116 2.116 0 01.761-1.309 2.886 2.886 0 011.3-.572 3.347 3.347 0 011.383.031 2.741 2.741 0 01.668.246 1.35 1.35 0 01.589.532 1.65 1.65 0 01.281 1.509 2.133 2.133 0 01-.994 1.064 6.592 6.592 0 01-2.483.7 8.547 8.547 0 01-4.919-1.076 9.605 9.605 0 01-3.421-3.684 10.767 10.767 0 01-.555-1.134l-.222-.576c-.008-.009-.027-.007-.023 0-.1-.313.337.842.615 1.461a8.531 8.531 0 001.191 1.977 8.7 8.7 0 001.727 1.526 9.1 9.1 0 004.311 1.589 9.3 9.3 0 002.281-.15 4.374 4.374 0 002.016-.824 1.817 1.817 0 00.589-.824 1.547 1.547 0 00-.007-.963 1.6 1.6 0 00-.22-.463 2.241 2.241 0 00-.289-.438 2.172 2.172 0 00-.919-.52c-1.392-.462-3.305.171-3.678 1.633a3.31 3.31 0 00.328 2.171 9.38 9.38 0 001.26 1.973 17.923 17.923 0 007.664 5.518zm-.997 3.837a6.123 6.123 0 00-1.858-.435c-.633-.107-1.239-.348-1.868-.514a12.409 12.409 0 01-1.837-.685c-.294-.124-.612-.179-.91-.3a4.716 4.716 0 00-.925-.269c-.313-.075-.617-.186-.93-.265-.3-.128-.656-.042-.962-.152-.631-.145-1.27-.275-1.9-.445-.593-.289-1.235-.437-1.836-.718-.556-.372-1.2-.548-1.788-.9a.393.393 0 01.395-.679l.041.023a6.174 6.174 0 001.688.767c.579.226 1.141.53 1.749.718a6.475 6.475 0 001.845.515c.335-.014.579.326.916.309a6.092 6.092 0 01.971.115 3.5 3.5 0 00.931.293c.32.073.613.231.936.3a1.811 1.811 0 01.9.313 1.7 1.7 0 00.452.157l.441.207a9.19 9.19 0 001.893.4 18.258 18.258 0 001.9.49.393.393 0 01-.221.755z" fill="#ffc657"/><path d="M76.492 66.96c-1.375-.339-2.709-.775-4.126-1-1.4-.44-2.647-.872-4.028-1.2a27.814 27.814 0 01-4.046-1.383c-.328-.143-.665-.227-1.005-.362a7.684 7.684 0 01-.972-.49l-.458-.289-.227-.155a.676.676 0 01-.24-.31.7.7 0 01.148-.731.683.683 0 01.739-.154 16.49 16.49 0 001.893.942 15.976 15.976 0 002.007.622l4.088 1.082c.673.224 1.322.5 2 .668s1.36.3 2.038.522c.338.1.674.229 1.014.315l1.03.222.515.111a.95.95 0 01.372.137.812.812 0 01.118 1.25.862.862 0 01-.86.203zm.216-.757c.142.043.111-.031.111-.055a.05.05 0 00-.018-.018.6.6 0 00-.1-.024l-.519-.117c-.689-.169-1.391-.3-2.077-.435-1.345-.33-2.767-.794-4.08-1.233a34.636 34.636 0 00-4.08-1.167c-.725-.1-1.289-.626-1.99-.791-.338-.12-.686-.225-1.022-.365l-.506-.214-.251-.117-.12-.068c-.048-.029-.079-.046-.059-.036.062-.01.006-.069.01-.041h.005l.21.129.444.247a8.2 8.2 0 001.879.8 9.842 9.842 0 011.972.7 6.708 6.708 0 001 .319l.995.34c1.341.425 2.8.673 4.106 1.1a39.164 39.164 0 004.09 1.043z" fill="#ffc657"/><path d="M68.1 44.906c.036-.293-.233-.576-.451-.473a.515.515 0 00-.09.727c.182.191.5.039.541-.254" fill="#ffc757"/><path d="M67.707 44.857c-.038-.032-.159.023-.022-.015a.31.31 0 00.05-.014c.021-.027.03-.076.045-.068.027-.013.038-.032.035-.038s-.144-.008-.154.065c0 .154.2.219.12.082-.05-.077-.077.018-.029.039.01-.007 0-.041-.045-.051a.656.656 0 11.809-.625l-.015.724a.772.772 0 01-.229.551c-.166.161-.429.121-.656.113a.7.7 0 01-.5-.415 1.085 1.085 0 01-.082-.5c0-.155-.054-.392.172-.547a.766.766 0 01.4-.091c.069.025.124-.023.19-.031a.45.45 0 01.159.078 2.412 2.412 0 01.193.2c.063.043.191.052.223.137a.7.7 0 01.133.506.294.294 0 01-.477.17zm4.1 1.343c.067-.553-.507-1.1-.962-.921a.9.9 0 00-.167 1.372.687.687 0 001.129-.451" fill="#ffc757"/><path d="M71.41 46.154c-.022-.188-.242-.324-.325-.455l-.038-.035c-.008-.029-.027-.078-.041-.062a.172.172 0 00-.093.025c-.055.042-.241.124-.263.29-.012.33.245.589.4.523.072-.05.153.005.273-.022a.232.232 0 00.086-.263.416.416 0 11.806-.127l-.011.224a1.1 1.1 0 01-.415.809 1.258 1.258 0 01-.9.13 1.039 1.039 0 01-.712-.552 1.48 1.48 0 01-.149-.8.912.912 0 01.338-.829.986.986 0 01.528-.111c.086.026.162-.016.245-.021a.762.762 0 01.211.094 2.886 2.886 0 01.309.257c.1.068.259.106.323.228a1.092 1.092 0 01.225.8.4.4 0 01-.785-.015z" fill="#ffc757"/></svg>
