<svg width="14" height="12" viewBox="0 0 14 12" fill="none" xmlns="http://www.w3.org/2000/svg">
<path fill-rule="evenodd" clip-rule="evenodd" d="M3.25 0.25C2.14543 0.25 1.25 1.14543 1.25 2.25V7.25C1.25 8.35457 2.14543 9.25 3.25 9.25H7.36315L5.87964 4.82928C5.68257 4.24203 6.24203 3.68257 6.82928 3.87964L11.25 5.36316V2.25C11.25 1.14543 10.3546 0.25 9.25 0.25H3.25Z" fill="black"/>
<path d="M9.67838 11.5982C9.54711 11.7288 9.32428 11.6764 9.26511 11.5008L7.28185 5.61793C7.21589 5.42227 7.40212 5.23553 7.59796 5.30095L13.5079 7.27515C13.6843 7.33409 13.7369 7.55821 13.605 7.68945L9.67838 11.5982Z" fill="black"/>
<rect x="10.364" y="9.79595" width="2" height="3.03208" rx="0.5" transform="rotate(-45 10.364 9.79595)" fill="black"/>
</svg>
