<svg viewBox="0 0 20 20" xmlns="http://www.w3.org/2000/svg"><path d="M5.75 4a2.75 2.75 0 0 0-2.75 2.75v1.94l-.78.78a.75.75 0 0 0 0 1.06l.78.78v1.94a2.75 2.75 0 0 0 2.75 2.75h.25a.75.75 0 0 0 0-1.5h-.25c-.69 0-1.25-.56-1.25-1.25v-2.25a.75.75 0 0 0-.22-.53l-.47-.47.47-.47a.75.75 0 0 0 .22-.53v-2.25c0-.69.56-1.25 1.25-1.25h.25a.75.75 0 0 0 0-1.5h-.25Z" fill="#5C5F62"/><path d="M16.72 10.53a.75.75 0 1 0 1.06-1.06l-.78-.78v-1.94a2.75 2.75 0 0 0-2.75-2.75h-.25a.75.75 0 0 0 0 1.5h.25c.69 0 1.25.56 1.25 1.25v2.25c0 .199.079.39.22.53l1 1Z" fill="#5C5F62"/><path fill-rule="evenodd" d="M9.214 6.056a1.75 1.75 0 0 1 1.572 0l2.25 1.13c.59.297.964.902.964 1.564v2.5a1.75 1.75 0 0 1-.964 1.564l-2.25 1.13a1.75 1.75 0 0 1-1.572 0l-2.25-1.13a1.75 1.75 0 0 1-.964-1.564v-2.5c0-.662.373-1.267.964-1.564l2.25-1.13Zm.898 1.34a.25.25 0 0 0-.224 0l-2.25 1.13a.25.25 0 0 0-.138.224v2.5c0 .095.053.18.138.223l2.25 1.131a.25.25 0 0 0 .224 0l2.25-1.13a.25.25 0 0 0 .138-.224v-2.5a.25.25 0 0 0-.138-.223l-2.25-1.131Z" fill="#5C5F62"/><path d="M18.885 15.825a.75.75 0 1 1-1.06 1.06l-2.063-2.063.027 1.131a.75.75 0 0 1-1.5.037l-.073-3.006a.75.75 0 0 1 .768-.768l3.005.074a.75.75 0 0 1-.036 1.5l-1.13-.028 2.062 2.063Z" fill="#5C5F62"/></svg>