<svg width="99" height="99" viewBox="0 0 99 99" fill="none" xmlns="http://www.w3.org/2000/svg">
  <path d="M98.9999 49.5C98.9999 76.838 76.838 98.9999 49.5 98.9999C22.1619 98.9999 0 76.838 0 49.5C0 22.1619 22.1619 0 49.5 0C76.838 0 98.9999 22.1619 98.9999 49.5Z" fill="white"/>
  <path d="M99.0001 49.6709C99.0001 76.9144 76.9149 98.9996 49.6714 98.9996C49.6714 71.7561 71.7566 49.6709 99.0001 49.6709Z" fill="white"/>
  <path d="M49.5 0C49.5 27.3381 27.3381 49.5 0 49.5C27.3381 49.5 49.5 71.6618 49.5 98.9999C49.5 71.6618 71.6618 49.5 98.9999 49.5C71.6618 49.5 49.5 27.3381 49.5 0Z" fill="black"/>
</svg>
