<svg width="300" height="125" viewBox="0 0 300 125" fill="none" xmlns="http://www.w3.org/2000/svg">
<circle opacity="0.7" cx="150.012" cy="63.5371" r="50" fill="#E8E9EB"/>
<mask id="mask0_233_16519" style="mask-type:alpha" maskUnits="userSpaceOnUse" x="100" y="13" width="101" height="101">
<circle cx="150.012" cy="63.5371" r="50" fill="white"/>
</mask>
<g mask="url(#mask0_233_16519)">
<path d="M128.135 90.5371H109.012V112.537H132.012V100.513C132.012 99.1206 131.275 97.9027 130.415 96.8781C129.029 95.1962 128.38 92.8763 128.135 90.5371Z" fill="#D2D5D9"/>
<path d="M202.484 70.3726V68.7973H202.062C201.29 68.7973 200.658 68.17 200.658 67.4033V59.5129C200.658 59.4851 200.644 59.4711 200.644 59.4432C200.602 58.7044 199.998 58.1189 199.253 58.1189H181.234C180.475 58.1189 179.885 58.7044 179.843 59.4432C179.843 59.4711 179.829 79.7128 179.829 79.7128C179.829 80.4795 179.197 81.1068 178.425 81.1068H177.441C176.669 81.1068 176.037 80.4795 176.037 79.7128V70.0102V68.7555C176.037 68.2676 175.644 67.8773 175.152 67.8773C174.661 67.8773 174.267 67.4869 174.267 66.999V56.1115C174.267 55.1356 173.481 54.355 172.498 54.355H172.245H171.866C171.248 54.355 170.742 53.8531 170.742 53.2397C170.742 52.6263 170.236 52.1245 169.618 52.1245H169.197C168.467 52.1245 167.849 51.6226 167.694 50.9116L166.5 45.1403C166.458 44.959 166.444 44.7639 166.444 44.5826V38.5325C166.444 37.8354 166.177 37.1663 165.686 36.6784C165.672 36.6644 165.658 36.6505 165.658 36.6366C165.222 36.1626 164.956 35.5631 164.941 34.9219L164.548 24.7871H163.523L163.256 34.9219C163.242 35.5492 162.989 36.1486 162.582 36.6087C162.568 36.6366 162.554 36.6505 162.526 36.6784C162.048 37.1802 161.795 37.8354 161.795 38.5185V44.5826C161.795 44.7639 161.781 44.959 161.739 45.1403L160.545 50.8977C160.405 51.6087 159.759 52.1245 159.029 52.1245H158.607C157.989 52.1245 157.484 52.6263 157.484 53.2397C157.484 53.8531 156.978 54.355 156.36 54.355H155.728C154.759 54.355 153.972 55.1356 153.972 56.0975V66.999C153.972 67.4869 153.579 67.8773 153.088 67.8773C152.779 67.8773 152.526 68.0445 152.371 68.2676C152.273 68.407 152.203 68.5743 152.203 68.7555V90.0566C152.203 90.8234 151.571 91.4507 150.798 91.4507H149.815C149.043 91.4507 148.411 90.8234 148.411 90.0566V79.736C148.411 79.2481 148.144 78.8299 147.75 78.5929C147.526 83.4535 147.287 78.3419 147.006 78.3419L135.391 73.3419H134.45C134.169 73.3419 133.916 73.4395 133.706 73.5929C133.326 73.8438 133.045 74.2481 133.045 74.736V88.4256C133.116 88.4535 133.172 88.4813 133.242 88.5092L137.189 90.7676C138.537 91.5343 138.986 93.249 138.214 94.5733L133.565 102.575C132.793 103.914 131.065 104.36 129.731 103.593L128.762 103.035V113.537H165.279L202.512 107.287L202.484 70.3726Z" fill="#D2D5D9"/>
<path d="M159.628 87.4146L156.181 85.2514C156.12 85.2114 156.071 85.198 156.009 85.1713C154.869 84.5704 153.47 85.0111 152.832 86.2262L152.268 87.281V86.2128C152.268 85.9992 152.256 85.7989 152.244 85.5986C152.011 80.9117 149.189 77.1195 145.043 76.5053C144.381 76.4118 143.841 75.8377 143.841 75.1166V70.9639V65.6628L148.122 65.2755C148.453 65.2488 148.711 64.9417 148.711 64.5812C148.711 64.2207 148.453 63.9136 148.122 63.8869L143.375 63.4596C143.191 63.0189 142.946 62.6317 142.651 62.2712C142.725 62.2177 142.799 62.1777 142.848 62.0976L146.307 57.6511C146.528 57.3707 146.503 56.9567 146.27 56.703C146.037 56.4493 145.657 56.4226 145.399 56.663L141.314 60.4285C141.167 60.562 141.069 60.7356 141.008 60.9225C140.591 60.7089 140.137 60.5887 139.659 60.5219C139.695 60.3884 139.72 60.2415 139.708 60.0813L139.266 54.2728C139.241 53.9123 138.959 53.6319 138.628 53.6319C138.297 53.6319 138.015 53.9123 137.99 54.2728L137.549 60.0813C137.536 60.2682 137.561 60.4418 137.622 60.6021C137.328 60.6822 137.046 60.7756 136.776 60.9092C136.764 60.8958 136.751 60.8691 136.727 60.8424L132.642 57.0769C132.385 56.8366 132.004 56.8633 131.771 57.117C131.538 57.3707 131.514 57.7846 131.735 58.065L135.059 62.3379C134.789 62.6851 134.568 63.059 134.384 63.4729L130.483 63.8201L128.668 52.5503L127.687 46.4614C128.226 45.7804 128.558 44.9125 128.558 43.9377C128.558 43.4704 128.472 43.0164 128.325 42.6024C128.828 42.1084 129.146 41.414 129.146 40.6262V40.1589C129.146 38.69 128.042 37.4883 126.693 37.4883H123.308C121.958 37.4883 120.854 38.69 120.854 40.1589V40.6262C120.854 41.414 121.173 42.1217 121.676 42.6024C121.529 43.0164 121.443 43.4704 121.443 43.9377C121.443 45.313 122.118 46.5282 123.111 47.2092C123.516 50.3204 123.909 53.5918 124.215 56.5695C124.682 61.1362 124.915 64.9684 124.596 66.3171C124.583 66.3972 124.547 66.4773 124.534 66.5574C124.203 67.8527 123.59 69.3215 123.087 70.9772C122.155 74.0217 121.64 77.667 124.203 81.9132C124.62 82.5942 124.78 83.4354 124.669 84.2366C124.632 84.4769 124.608 84.744 124.583 84.9977C124.559 85.2247 124.547 85.4651 124.534 85.7188C124.498 86.4799 124.51 87.281 124.583 88.0822C124.743 89.6979 125.197 91.3002 126.19 92.4619C126.791 93.1696 127.307 94.0109 127.307 94.9723V100.487V112.488L152.256 115.488V100.487V99.2051L153.102 99.7392C154.28 100.474 155.776 100.033 156.451 98.7645L160.511 91.1C161.21 89.778 160.805 88.149 159.628 87.4146ZM133.943 65.6361V68.7873C133.943 69.5752 133.354 70.2161 132.63 70.2161C131.992 70.2161 131.452 69.722 131.342 69.0411L130.753 65.3557L133.943 65.6361Z" fill="#B6BABF"/>
<path d="M124.354 36.4883C125.735 36.4883 126.854 34.4736 126.854 31.9883C126.854 29.503 125.735 27.4883 124.354 27.4883C122.974 27.4883 121.854 29.503 121.854 31.9883C121.854 34.4736 122.974 36.4883 124.354 36.4883Z" fill="#B6BABF"/>
</g>
<path d="M210.012 53.5105C210.012 58.4622 207.722 62.9348 204.155 65.8632C203.889 66.1294 203.569 66.3424 203.25 66.5554C203.25 66.5554 203.037 66.7151 202.93 66.7684C202.717 66.8749 202.504 67.0346 202.291 67.1411C199.895 68.6319 197.02 69.4306 194.038 69.4306C193.24 69.4306 192.494 69.3774 191.749 69.2709C191.749 69.2709 191.749 69.2709 191.696 69.2709C191.642 69.2709 191.589 69.2709 191.536 69.2709C190.95 69.1644 190.418 69.0579 189.885 68.9514C188.448 68.5787 187.063 67.993 185.839 67.2476C181.153 64.4789 178.012 59.3674 178.012 53.5105C178.012 44.6719 185.146 37.5371 193.985 37.5371C202.824 37.5371 210.012 44.6719 210.012 53.5105Z" fill="#E9AF58"/>
<path d="M184.508 55.6414L185.466 56.2271C185.572 56.2803 185.626 56.4401 185.626 56.5998L185.466 57.079C185.466 57.1322 185.413 57.1323 185.413 57.1855C185.306 57.505 185.785 57.7179 185.785 57.7179C185.679 57.6647 185.572 57.8777 185.572 57.9842C185.572 58.0907 185.572 58.1971 185.626 58.3036C185.626 58.3569 185.679 58.4101 185.679 58.4634C185.785 58.6231 185.945 58.8361 185.945 59.0491C185.945 59.2088 185.839 59.4218 185.785 59.5815C185.732 59.7412 185.732 59.901 185.732 60.0607C185.732 60.3802 185.945 60.8594 186.371 61.1256C187.543 61.9775 191.749 61.658 191.802 61.7113L191.855 63.7878L191.909 65.8111L200.481 66.1306C200.108 65.8644 199.416 62.6697 199.416 61.871C199.416 58.9426 200.215 57.1855 201.493 55.2154C202.558 53.5649 203.196 51.9143 203.143 49.9442C202.824 41.5848 194.571 40.4135 191.642 42.2238C191.642 42.2238 189.033 43.2887 187.33 45.4184C186.105 46.9625 186.105 49.3585 186.211 50.6364C186.265 51.2221 186.478 51.7546 186.211 52.287L184.401 55.2687C184.295 55.3752 184.348 55.5349 184.508 55.6414Z" fill="#BF8563"/>
<path d="M186.424 44.885C186.105 45.524 189.14 50.5822 193.027 51.0614C194.092 51.1679 192.92 53.1379 194.518 53.2444C195.689 53.3509 196.008 51.1679 197.819 51.6471C198.617 51.8601 198.884 53.1379 198.617 53.8833C197.925 55.5339 196.701 55.3742 196.701 55.9066C196.701 57.6637 198.298 58.7286 199.682 59.2078C199.682 59.2078 200.108 57.717 201.067 56.5456C201.067 56.5456 204.954 53.2444 203.143 47.068C202.398 44.4591 200.481 42.3825 197.819 41.5306C194.784 40.519 191.323 41.2111 188.767 43.0215C188.288 43.3409 186.691 44.2993 186.424 44.885Z" fill="#50372E"/>
<path d="M199.896 55.4274C199.896 55.7469 199.044 58.6221 202.558 59.2078C206.072 59.7935 207.776 52.8184 205.806 51.4873C203.836 50.1562 201.972 51.1679 201.972 51.1679L199.896 55.4274Z" fill="#50372E"/>
<path d="M196.061 57.2909C196.62 57.2909 197.073 56.8379 197.073 56.2792C197.073 55.7205 196.62 55.2676 196.061 55.2676C195.503 55.2676 195.05 55.7205 195.05 56.2792C195.05 56.8379 195.503 57.2909 196.061 57.2909Z" fill="white"/>
<path d="M196.061 58.5689C196.444 58.5689 196.753 58.259 196.753 57.8767C196.753 57.4945 196.444 57.1846 196.061 57.1846C195.679 57.1846 195.369 57.4945 195.369 57.8767C195.369 58.259 195.679 58.5689 196.061 58.5689Z" fill="white"/>
<path d="M202.291 67.1941C199.895 68.6849 197.02 69.4836 194.039 69.4836C193.24 69.4836 192.494 69.4303 191.749 69.3238C191.749 69.3238 191.749 69.3238 191.696 69.3238C191.643 69.3238 191.589 69.3238 191.536 69.3238C190.95 69.2174 190.418 69.1109 189.885 69.0044C188.448 68.6317 187.063 68.046 185.839 67.3006C187.702 66.6616 191.855 65.5435 191.855 65.5435V63.7332C192.015 63.7864 196.701 64.5318 199.416 61.9229C199.416 62.0293 199.416 62.1891 199.469 62.3488C199.469 62.4553 199.469 62.615 199.523 62.7748C199.523 62.8813 199.576 62.9877 199.576 63.0942C199.576 63.1475 199.576 63.2007 199.629 63.254C199.789 64.1059 200.162 65.1175 200.907 65.9162C200.854 65.8097 201.546 66.4486 202.291 67.1941Z" fill="#F0F1F2"/>
<path d="M99.5117 93.5371C107.52 93.5371 114.012 87.0452 114.012 79.0371C114.012 71.029 107.52 64.5371 99.5117 64.5371C91.5036 64.5371 85.0117 71.029 85.0117 79.0371C85.0117 87.0452 91.5036 93.5371 99.5117 93.5371Z" fill="#5AB2AC"/>
<path d="M103.401 70.377L105.236 73.7869C105.447 74.1766 105.496 74.615 105.382 75.0372C105.269 75.4269 105.139 75.9627 105.48 76.3687C106.097 77.1319 107.315 77.7327 107.152 78.6907C106.99 79.6487 106.422 79.1129 106.357 79.5513C106.292 79.9897 106.584 80.4281 106.616 80.7854C106.633 81.0127 106.292 81.1264 106.21 81.1751C106.21 81.1751 106.6 81.4024 106.503 81.6784C106.292 82.263 106.292 82.263 106.422 82.6852C106.551 83.1236 107.087 85.1858 103.596 84.6012L101.859 84.2765L101.502 89.3102L93.8535 85.8674V81.8079L96.6302 71.0265L103.401 70.377Z" fill="#FFCEB1"/>
<path d="M104.164 70.9612L104.148 70.9775C104.132 70.9937 104.115 71.0099 104.099 71.0424C103.222 72.0004 102.069 72.4876 101.014 72.4226L101.209 74.0302C101.241 74.29 101.16 74.5498 100.982 74.7446L100.527 75.248C100.251 75.5403 100.088 75.8975 100.024 76.3035L99.6988 78.252C99.6825 78.3819 99.5201 78.4144 99.439 78.3332L99.1792 78.0734C98.7083 77.57 98.075 77.2452 97.393 77.1478C96.1914 76.9692 95.071 77.2452 95.9803 79.8595L95.8991 80.2979C95.6718 81.4021 94.8924 82.3114 93.8207 82.6849L91.8234 78.869L91.4175 78.0896C90.8492 76.8231 90.6219 75.3941 90.8654 73.9165C91.0927 72.5363 91.6935 71.3022 92.5541 70.3117C93.1062 66.9505 98.3023 66.236 102.492 67.8761C103.482 68.2658 104.408 68.282 105.252 68.006C105.317 68.964 104.944 70.0682 104.164 70.9612Z" fill="#1F2225"/>
<path fill-rule="evenodd" clip-rule="evenodd" d="M104.895 92.5048C103.231 93.1708 101.414 93.5371 99.5116 93.5371C96.1059 93.5371 92.9745 92.363 90.5 90.3975L91.7568 89.2473C93.0925 88.025 93.8532 86.2978 93.8532 84.4873L102.329 89.2774V90.5282C103.269 91.0864 104.129 91.7515 104.895 92.5048Z" fill="#208B86"/>
<path d="M89.9285 47.0729C89.9285 56.5172 83.847 64.5305 75.3328 67.3924C73.9734 67.8217 72.614 68.1794 71.1831 68.3225C70.3245 68.4656 69.3944 68.4656 68.4643 68.4656C64.6722 68.4656 61.0949 67.464 58.0183 65.7468C57.9468 65.6753 57.8037 65.6753 57.7321 65.6037C51.8652 62.241 47.787 56.231 47.0716 49.1478C47 48.4323 47 47.7168 47 47.0014C47 35.1245 56.5874 25.5371 68.4643 25.5371C74.4027 25.5371 79.8403 27.9697 83.7039 31.9048C87.4959 35.84 89.9285 41.206 89.9285 47.0729Z" fill="#EC856F"/>
<path d="M83.132 50.4347C82.7743 50.7925 83.7044 51.1502 83.7044 51.3649C83.7759 52.0803 83.4182 52.5096 82.7743 52.8674C82.7743 52.8674 83.7044 53.5828 83.2035 54.5845C83.2035 54.5845 82.1303 54.5845 82.2734 55.3C82.4881 56.6594 82.1303 58.5196 78.5529 58.5196C78.4099 58.5196 73.4731 58.305 73.4731 58.305L71.6844 65.889L71.112 68.3932C70.2534 68.5363 69.3233 68.5363 68.3932 68.5363C64.6012 68.5363 61.0238 67.5346 57.9473 65.8175L61.0954 61.1669L62.5979 58.9489L63.528 57.5895L68.6794 38.057L80.1985 37.4131C80.4132 38.057 80.6278 38.7009 80.8425 39.2733C80.9856 39.7742 81.1287 40.3465 81.2717 40.8474C81.9872 43.5662 81.3433 43.7093 81.3433 44.9971C81.3433 47.072 83.3467 47.859 83.8475 48.7176C84.1337 49.2184 84.0621 50.0055 83.4897 50.2916C83.4897 50.3632 83.3467 50.3632 83.132 50.4347Z" fill="#6D493C"/>
<path d="M70.6107 57.0173C72.9025 57.0173 74.7605 55.1594 74.7605 52.8675C74.7605 50.5757 72.9025 48.7178 70.6107 48.7178C68.3188 48.7178 66.4609 50.5757 66.4609 52.8675C66.4609 55.1594 68.3188 57.0173 70.6107 57.0173Z" fill="#E9AF58"/>
<path d="M71.7557 65.8176L61.1667 61.167L57.7324 65.6745C57.804 65.746 57.9471 65.8176 58.0186 65.8176C61.0952 67.5347 64.6725 68.5364 68.4646 68.5364C69.3947 68.5364 70.3248 68.4648 71.1834 68.3933C72.6143 68.2502 73.9737 67.8925 75.3331 67.4632L71.7557 65.8176Z" fill="#CD5747"/>
<path d="M80.9135 39.2737C80.6989 39.3453 80.4842 39.3453 80.2696 39.3453C79.411 39.4168 78.6956 39.2022 77.9801 38.8444C77.9801 38.8444 75.619 39.1306 75.7621 41.9925C75.8337 43.8528 74.832 45.4268 73.1864 46.1423C72.7571 46.3569 72.2563 46.4285 71.7555 46.5C71.3977 46.5 71.04 46.5 70.6822 46.4285C71.04 47.0724 71.3262 47.7879 71.4693 48.5749C71.4693 48.6464 71.5408 48.7895 71.5408 48.8611C71.6124 49.2188 71.6124 49.5766 71.6839 50.0058C71.827 52.6531 70.7538 55.0857 68.9651 56.7313C67.5342 58.0192 65.6739 58.8777 63.6706 59.0208C63.3129 59.0208 62.9551 59.0208 62.6689 59.0208C62.5258 59.0208 62.3827 59.0208 62.2396 59.0208C55.8004 58.3769 50.2912 54.6564 47.0716 49.2904C47 48.5749 47 47.8594 47 47.1439C47 35.2671 56.5874 25.6797 68.4643 25.6797C74.4027 25.6797 79.8403 28.1123 83.7039 32.0474C83.9185 32.7629 83.9901 33.4068 84.0616 34.0507C84.3478 37.1273 83.1315 38.916 80.9135 39.2737Z" fill="#1F2225"/>
<path d="M231.96 101.432C220.391 101.432 211.012 92.0536 211.012 80.4846C211.012 68.9156 220.391 59.5371 231.96 59.5371C243.529 59.5371 252.907 68.9156 252.907 80.4846C252.907 92.0536 243.529 101.432 231.96 101.432Z" fill="#7FBEC6"/>
<path d="M239.227 74.9243V86.1281C239.227 86.1949 239.227 86.284 239.204 86.3508C239.182 86.529 239.115 86.7072 239.048 86.8631L238.892 86.4622L236.442 88.6673L229.248 94.7926C229.203 94.7926 229.159 94.8149 229.136 94.7481C228.802 93.7012 227.911 91.7856 227.221 90.917C226.53 90.0483 224.904 90.271 223.835 90.0706C223.234 89.9592 222.543 89.9815 222.143 89.5137C221.519 88.8232 222.076 87.6427 221.719 86.774C221.63 86.5513 221.474 86.3285 221.407 86.0835C221.341 85.8385 221.452 85.5267 221.697 85.4599C221.296 85.393 221.229 84.8362 221.296 84.4575C221.385 84.0566 221.519 83.6111 221.274 83.2993C220.984 82.9429 220.383 83.0543 220.026 82.787C219.737 82.5643 219.648 82.141 219.715 81.7847C219.781 81.4283 220.004 81.1165 220.205 80.8046C220.695 80.0696 221.207 79.3345 221.697 78.5995C221.831 78.399 221.964 78.1986 221.987 77.9758C222.031 77.664 221.875 77.3522 221.786 77.0403C221.63 76.4612 221.786 75.8375 221.987 75.2584C222.454 73.8997 223.323 72.541 224.325 71.405C225.305 70.2913 226.441 69.3781 227.555 68.8213C227.889 68.6654 228.223 68.5317 228.535 68.4203C228.58 68.3981 228.646 68.3981 228.691 68.3758C230.295 67.9303 231.542 68.0862 232.21 68.2644C232.277 68.2867 232.344 68.2867 232.433 68.309C232.745 68.3758 233.079 68.4203 233.413 68.4649C234.638 68.5985 235.752 69.044 236.665 69.7568C238.224 70.9373 239.227 72.8083 239.227 74.9243Z" fill="#FFCEB1"/>
<path fill-rule="evenodd" clip-rule="evenodd" d="M223.067 99.4572C225.766 100.725 228.78 101.433 231.959 101.433C236.802 101.433 241.262 99.7894 244.81 97.0297C244.501 95.9975 244.087 95.007 243.548 94.0583C243.437 93.9024 243.347 93.7465 243.258 93.5906L243.258 93.5905L239.049 86.8638L238.893 86.4629L236.443 88.668L228.134 94.7933C226.282 96.2693 224.5 97.8599 223.067 99.4572Z" fill="#5BA7B1"/>
<path d="M244.795 84.5469C244.795 86.0392 243.592 87.2197 242.122 87.2197C241.343 87.2197 240.63 86.8856 240.14 86.3288C239.65 86.8634 238.937 87.2197 238.157 87.2197C236.665 87.2197 235.485 86.017 235.485 84.5469C235.485 83.8118 237.244 80.248 237.244 80.248C237.757 79.023 237.177 77.642 235.952 77.1297C235.396 76.8847 234.772 76.8847 234.237 77.0851C233.992 77.1742 233.77 77.2856 233.569 77.4415C233.28 77.6643 233.034 77.9538 232.879 78.3102L231.297 81.6958H228.001L228.847 77.4861L228.958 76.9738L230.295 70.5812C230.518 69.512 229.783 68.5097 228.713 68.3983C227.043 68.8661 225.484 70.1357 224.348 71.4053C222.521 70.7148 222.254 68.2201 223.902 67.151C227.421 65.0127 232.344 64.5895 235.819 65.9927C236.598 66.3269 237.244 67.0842 237.244 67.9528C241.031 68.4206 243.949 71.628 243.949 75.526C243.949 76.261 243.837 76.9515 243.659 77.6197C244.35 78.1097 244.817 78.9116 244.817 79.8248C244.817 80.8271 244.261 81.7181 243.436 82.1636C244.238 82.6536 244.795 83.5223 244.795 84.5469Z" fill="#F0F1F2"/>
<path d="M234.215 77.0624C233.97 77.1515 233.747 77.2629 233.547 77.4188L221.92 77.7529L222.12 79.2452C222.142 79.4902 222.076 79.713 221.942 79.8689C221.808 80.0471 221.608 80.1585 221.363 80.203L220.94 76.8174L234.215 77.0624Z" fill="#1F2225"/>
<path fill-rule="evenodd" clip-rule="evenodd" d="M234.928 76.2002H236.108V76.4246C237.198 76.6084 238.048 77.5846 238.068 78.7116C238.068 79.0011 238.024 79.2907 237.935 79.558C237.89 79.6693 237.779 79.7584 237.667 79.7584C237.511 79.7584 237.378 79.6248 237.378 79.4689V79.4466V79.1348C237.316 78.3115 236.809 77.5965 236.108 77.2241V77.3027H234.928C234.631 77.3027 234.388 77.5459 234.388 77.8429V79.9143H233.285V77.8429C233.285 76.937 234.022 76.2002 234.928 76.2002Z" fill="#E9AF58"/>
<path fill-rule="evenodd" clip-rule="evenodd" d="M168 121C164.134 121 161 117.866 161 114L161 103C161 99.134 164.134 96 168 96L198.813 96L205.012 90.5371L205.012 96L207 96C210.866 96 214 99.134 214 103L214 114C214 117.866 210.866 121 207 121L168 121Z" fill="#7FBEC6"/>
<path fill-rule="evenodd" clip-rule="evenodd" d="M127.354 112.951C131.22 112.951 134.354 109.817 134.354 105.951L134.354 103.951C134.354 100.085 131.22 96.9512 127.354 96.9512L123.123 96.9512L115.845 90.5371L115.845 96.9512L90.3545 96.9512C86.4885 96.9512 83.3545 100.085 83.3545 103.951L83.3545 105.951C83.3545 109.817 86.4885 112.951 90.3545 112.951L127.354 112.951Z" fill="#5AB2AC"/>
<path fill-rule="evenodd" clip-rule="evenodd" d="M206.354 17.9512C210.22 17.9512 213.354 21.0852 213.354 24.9512V25.9512C213.354 29.8172 210.22 32.9512 206.354 32.9512H183.35L177.012 38.5371V32.9512H176.354C172.488 32.9512 169.354 29.8172 169.354 25.9512V24.9512C169.354 21.0852 172.488 17.9512 176.354 17.9512L206.354 17.9512Z" fill="#E9AF58"/>
<path fill-rule="evenodd" clip-rule="evenodd" d="M136 3C139.866 3 143 6.13401 143 10V18C143 21.866 139.866 25 136 25H97.4295L90.0117 31.5371V25H89C85.134 25 82 21.866 82 18V10C82 6.13401 85.134 3 89 3H136Z" fill="#EC856F"/>
</svg>
