<svg width="1400" height="468" viewBox="0 0 1400 468" fill="none" xmlns="http://www.w3.org/2000/svg">
<g clip-path="url(#clip0)">
<rect width="1400" height="468" fill="white"/>
<path d="M934 468C934 338.765 1038.77 234 1168 234H1400V468H934Z" fill="#008060"/>
<path d="M934 468C934 338.765 1038.77 234 1168 234H1400V468H934Z" fill="url(#paint0_linear)"/>
<path d="M934 0C934 129.235 1038.77 234 1168 234H1400V0H934Z" fill="#42474C"/>
<circle cx="1400" r="234" fill="#008060"/>
<circle cx="1400" r="234" fill="url(#paint1_linear)"/>
<circle cx="700" r="234" fill="#42474C"/>
<path d="M817 0C817 -64.6173 764.617 -117 700 -117C635.383 -117 583 -64.6173 583 0C583 64.6173 635.383 117 700 117C738.814 117 773.214 98.0995 794.498 69H934V0H817Z" fill="#008060"/>
<path d="M817 0C817 -64.6173 764.617 -117 700 -117C635.383 -117 583 -64.6173 583 0C583 64.6173 635.383 117 700 117C738.814 117 773.214 98.0995 794.498 69H934V0H817Z" fill="url(#paint2_linear)"/>
<circle cx="934" cy="234" r="234" fill="#F5C666"/>
<circle cx="934" cy="234" r="234" fill="url(#paint3_radial)"/>
<path d="M1168 234C1168 363.235 1063.23 468 934 468C934 338.765 1038.77 234 1168 234Z" fill="#FFA781"/>
<path d="M1168 234C1168 363.235 1063.23 468 934 468C934 338.765 1038.77 234 1168 234Z" fill="url(#paint4_radial)"/>
<path d="M934 0C934 129.235 829.235 234 700 234C829.235 234 934 338.765 934 468C934 338.765 1038.77 234 1168 234C1038.77 234 934 129.235 934 0Z" fill="white"/>
</g>
<defs>
<linearGradient id="paint0_linear" x1="934" y1="234" x2="1400" y2="468" gradientUnits="userSpaceOnUse">
<stop stop-color="#019E76"/>
<stop offset="1" stop-color="#008060"/>
</linearGradient>
<linearGradient id="paint1_linear" x1="1072.5" y1="171" x2="1400" y2="-1.48565e-05" gradientUnits="userSpaceOnUse">
<stop stop-color="#019D76"/>
<stop offset="1" stop-color="#018060"/>
</linearGradient>
<linearGradient id="paint2_linear" x1="689" y1="2.37858e-06" x2="805" y2="116" gradientUnits="userSpaceOnUse">
<stop stop-color="#008060"/>
<stop offset="1" stop-color="#00B084"/>
</linearGradient>
<radialGradient id="paint3_radial" cx="0" cy="0" r="1" gradientUnits="userSpaceOnUse" gradientTransform="translate(934 234) rotate(90) scale(234)">
<stop stop-color="#FFD59B"/>
<stop offset="1" stop-color="#F2B537" stop-opacity="0.65"/>
</radialGradient>
<radialGradient id="paint4_radial" cx="0" cy="0" r="1" gradientUnits="userSpaceOnUse" gradientTransform="translate(934 234) rotate(90) scale(234)">
<stop stop-color="#FFA781"/>
<stop offset="1" stop-color="#FF996C"/>
</radialGradient>
<clipPath id="clip0">
<rect width="1400" height="468" fill="white"/>
</clipPath>
</defs>
</svg>
