<svg width="826" height="1320" viewBox="0 0 826 1320" fill="none" xmlns="http://www.w3.org/2000/svg">
<g clip-path="url(#clip0)">
<rect width="826" height="1320" transform="matrix(-1 0 0 1 826 0)" fill="white"/>
<path d="M501.321 -0.0856323C501.321 180.821 354.667 327.474 173.761 327.474L-150.999 327.474L-150.999 -0.0856894L501.321 -0.0856323Z" fill="#008060"/>
<path d="M501.321 -0.0856323C501.321 180.821 354.667 327.474 173.761 327.474L-150.999 327.474L-150.999 -0.0856894L501.321 -0.0856323Z" fill="url(#paint0_linear)"/>
<path d="M826.057 326.878C645.151 326.878 498.497 180.225 498.497 -0.68158L498.497 -325.442L826.057 -325.442L826.057 326.878Z" fill="#42474C"/>
<circle r="327.56" transform="matrix(1.19249e-08 -1 -1 -1.19249e-08 826.055 654.44)" fill="#42474C"/>
<path d="M826.055 490.657C916.508 490.657 989.835 563.984 989.835 654.437C989.835 744.89 916.508 818.217 826.055 818.217C735.602 818.217 662.275 744.89 662.275 654.437C662.275 600.103 688.733 551.95 729.467 522.156L729.467 326.877L826.055 326.877L826.055 490.657Z" fill="#008060"/>
<path d="M826.055 490.657C916.508 490.657 989.835 563.984 989.835 654.437C989.835 744.89 916.508 818.217 826.055 818.217C735.602 818.217 662.275 744.89 662.275 654.437C662.275 600.103 688.733 551.95 729.467 522.156L729.467 326.877L826.055 326.877L826.055 490.657Z" fill="url(#paint1_linear)"/>
<circle r="327.56" transform="matrix(1.19249e-08 -1 -1 -1.19249e-08 498.496 326.879)" fill="#F5C666"/>
<circle r="327.56" transform="matrix(1.19249e-08 -1 -1 -1.19249e-08 498.496 326.879)" fill="url(#paint2_radial)"/>
<path d="M498.497 -0.681702C317.591 -0.681704 170.937 145.972 170.937 326.878C351.844 326.878 498.497 180.225 498.497 -0.681702Z" fill="#FFA781"/>
<path d="M498.497 -0.681702C317.591 -0.681704 170.937 145.972 170.937 326.878C351.844 326.878 498.497 180.225 498.497 -0.681702Z" fill="url(#paint3_radial)"/>
<path d="M826.056 326.879C645.15 326.879 498.496 473.533 498.496 654.439C498.496 473.533 351.843 326.879 170.937 326.879C351.843 326.879 498.496 180.226 498.496 -0.680546C498.496 180.226 645.15 326.879 826.056 326.879Z" fill="white"/>
</g>
<defs>
<linearGradient id="paint0_linear" x1="501.321" y1="327.474" x2="-150.999" y2="-0.0857212" gradientUnits="userSpaceOnUse">
<stop stop-color="#00A97E"/>
<stop offset="1" stop-color="#008060"/>
</linearGradient>
<linearGradient id="paint1_linear" x1="826.055" y1="669.835" x2="663.675" y2="507.455" gradientUnits="userSpaceOnUse">
<stop stop-color="#008060"/>
<stop offset="1" stop-color="#00A97F"/>
</linearGradient>
<radialGradient id="paint2_radial" cx="0" cy="0" r="1" gradientUnits="userSpaceOnUse" gradientTransform="translate(327.56 327.56) rotate(90) scale(327.56)">
<stop stop-color="#FFD59B"/>
<stop offset="1" stop-color="#F2B537"/>
</radialGradient>
<radialGradient id="paint3_radial" cx="0" cy="0" r="1" gradientUnits="userSpaceOnUse" gradientTransform="translate(498 327) rotate(-90) scale(328)">
<stop stop-color="#FFA781"/>
<stop offset="1" stop-color="#FF996C"/>
</radialGradient>
<clipPath id="clip0">
<rect width="826" height="1320" fill="white" transform="matrix(-1 0 0 1 826 0)"/>
</clipPath>
</defs>
</svg>
