<svg id="Layer_1" data-name="Layer 1" xmlns="http://www.w3.org/2000/svg" viewBox="0 0 100 100"><defs><style>.cls-1{fill:#ffe0c3}.cls-2{fill:#ff967d}.cls-3{fill:#32cac6}.cls-4{fill:#009796}.cls-5,.cls-6{fill:none;stroke:#fff;stroke-linecap:round;stroke-miterlimit:10}.cls-5{stroke-width:5px}.cls-6{stroke-width:4px}</style></defs><path class="cls-1" d="M-.02-.01h100v100h-100z"/><path class="cls-2" d="M0 0h69.41v100H0z"/><path class="cls-1" d="M69.92 0v44.32L51.34 55v45H100V0z"/><path class="cls-3" d="M39.32 76a11.85 11.85 0 0 0 12 11.62V76"/><path class="cls-4" d="M39.32 76a12 12 0 0 1 12-11.82V76"/><path class="cls-5" d="M43.74 19.83a12.82 12.82 0 1 1-25.64 0"/><path class="cls-6" d="M27.39 31.6l-1.58 5.96m9.37-5.72l2.55 5.47m4.26-9.85l3.53 4.5m-25.43-4.5l-3.53 4.5"/></svg>