<svg width="14" height="14" viewBox="0 0 14 14" fill="none" xmlns="http://www.w3.org/2000/svg">
<g clip-path="url(#clip0_768_171998)">
<rect width="14" height="14" fill="white"/>
<path fill-rule="evenodd" clip-rule="evenodd" d="M10.5355 9.12208L8.41421 7.00076L10.5355 4.87943C10.9259 4.48911 10.9266 3.85625 10.5355 3.46522C10.1445 3.07419 9.51164 3.0749 9.12132 3.46522L7 5.58654L4.87868 3.46522C4.48765 3.07419 3.85479 3.0749 3.46447 3.46522C3.07414 3.85554 3.07344 4.4884 3.46447 4.87943L5.58579 7.00076L3.46447 9.12208C3.07414 9.5124 3.07344 10.1453 3.46447 10.5363C3.8555 10.9273 4.48836 10.9266 4.87868 10.5363L7 8.41497L9.12132 10.5363C9.51235 10.9273 10.1452 10.9266 10.5355 10.5363C10.9259 10.146 10.9266 9.51311 10.5355 9.12208Z" fill="#5C5F62"/>
</g>
<defs>
<clipPath id="clip0_768_171998">
<rect width="14" height="14" fill="white"/>
</clipPath>
</defs>
</svg>
