<svg width="16" height="16" viewBox="0 0 16 16" fill="none" xmlns="http://www.w3.org/2000/svg">
<path fill-rule="evenodd" clip-rule="evenodd" d="M4 8C4 7.44772 4.44772 7 5 7H11C11.5523 7 12 7.44772 12 8C12 8.55228 11.5523 9 11 9H5C4.44772 9 4 8.55228 4 8Z" fill="#5C5F62"/>
<path fill-rule="evenodd" clip-rule="evenodd" d="M6 12C6 11.4477 6.44772 11 7 11H9C9.55228 11 10 11.4477 10 12C10 12.5523 9.55228 13 9 13H7C6.44772 13 6 12.5523 6 12Z" fill="#5C5F62"/>
<path fill-rule="evenodd" clip-rule="evenodd" d="M2 4C2 3.44772 2.44772 3 3 3H13C13.5523 3 14 3.44772 14 4C14 4.55228 13.5523 5 13 5H3C2.44772 5 2 4.55228 2 4Z" fill="#5C5F62"/>
</svg>
