<svg width="32" height="16" viewBox="0 0 32 16" fill="none" xmlns="http://www.w3.org/2000/svg">
  <path fill-rule="evenodd" clip-rule="evenodd" d="M6.5 12C7.6575 12 8.73148 11.6424 9.61752 11.0317L13.2929 14.7071C13.6834 15.0976 14.3166 15.0976 14.7071 14.7071C15.0976 14.3166 15.0976 13.6834 14.7071 13.2929L11.0317 9.61752C11.6424 8.73148 12 7.6575 12 6.5C12 3.46243 9.53757 1 6.5 1C3.46243 1 1 3.46243 1 6.5C1 9.53757 3.46243 12 6.5 12ZM6.5 10C8.433 10 10 8.433 10 6.5C10 4.567 8.433 3 6.5 3C4.567 3 3 4.567 3 6.5C3 8.433 4.567 10 6.5 10Z" fill="#5C5F62"/>
  <path d="M21 7C20.4477 7 20 7.44772 20 8C20 8.55228 20.4477 9 21 9H27C27.5523 9 28 8.55228 28 8C28 7.44772 27.5523 7 27 7H21Z" fill="#5C5F62"/>
  <path d="M22 12C22 11.4477 22.4477 11 23 11H25C25.5523 11 26 11.4477 26 12C26 12.5523 25.5523 13 25 13H23C22.4477 13 22 12.5523 22 12Z" fill="#5C5F62"/>
  <path d="M19 3C18.4477 3 18 3.44772 18 4C18 4.55228 18.4477 5 19 5H29C29.5523 5 30 4.55228 30 4C30 3.44772 29.5523 3 29 3H19Z" fill="#5C5F62"/>
</svg>
