<svg width="16" height="16" viewBox="0 0 16 16" fill="none" xmlns="http://www.w3.org/2000/svg">
<path fill-rule="evenodd" clip-rule="evenodd" d="M4.29289 1.29289C4.47386 1.11193 4.72386 1 5 1C5.27614 1 5.52614 1.11193 5.70711 1.29289L8.70711 4.29289C9.09763 4.68342 9.09763 5.31658 8.70711 5.70711C8.31658 6.09763 7.68342 6.09763 7.29289 5.70711L6 4.41421V9C6 9.55229 5.55228 10 5 10C4.44772 10 4 9.55229 4 9V4.41421L2.70711 5.70711C2.31658 6.09763 1.68342 6.09763 1.29289 5.70711C0.902369 5.31658 0.902369 4.68342 1.29289 4.29289L4.29289 1.29289ZM10 7C10 6.448 10.448 6 11 6C11.553 6 12 6.448 12 7V11.585L13.293 10.293C13.683 9.902 14.317 9.902 14.707 10.293C14.903 10.488 15 10.744 15 11.001C15 11.256 14.903 11.512 14.707 11.707L11.707 14.707C11.527 14.888 11.277 15 11 15C10.724 15 10.474 14.888 10.293 14.707L7.293 11.707C7.098 11.512 7 11.256 7 11.001C7 10.744 7.098 10.488 7.293 10.293C7.684 9.902 8.316 9.902 8.707 10.293L10 11.585V7Z" fill="#5C5F62"/>
</svg>
