<svg width="882" height="305" viewBox="0 0 882 305" fill="none" xmlns="http://www.w3.org/2000/svg">
<rect x="41" width="800" height="305" rx="16" fill="#280271"/>
<mask id="mask0_616_67371" style="mask-type:alpha" maskUnits="userSpaceOnUse" x="41" y="0" width="800" height="305">
<rect x="41" width="800" height="305" rx="16" fill="#280271"/>
</mask>
<g mask="url(#mask0_616_67371)">
<g clip-path="url(#clip0_616_67371)">
<path d="M586.532 -21.5556L579.128 -12.1763C578.967 -11.9746 578.908 -11.7108 578.965 -11.4587L580.659 -3.98193C580.711 -3.75352 580.854 -3.55712 581.056 -3.43761L648.586 36.588C648.954 36.807 649.431 36.717 649.694 36.3782L657.32 26.5782C657.385 26.4954 657.416 26.3916 657.408 26.285L656.863 18.8738C656.841 18.5931 656.684 18.3408 656.44 18.2005L587.628 -21.7641C587.261 -21.9765 586.794 -21.8887 586.532 -21.5556Z" fill="#26E7AF"/>
<path d="M649.694 36.3783L657.219 26.7069C657.35 26.5403 657.412 26.3308 657.397 26.1214L656.87 18.9881C656.855 18.7931 656.605 18.7187 656.488 18.8753L648.571 29.3286L648.564 29.4384C648.577 29.4724 648.585 29.5094 648.589 29.5484L649.161 36.1456C649.191 36.4918 648.818 36.7249 648.519 36.5489L648.586 36.5881C648.956 36.8061 649.43 36.7172 649.694 36.3783Z" fill="#176F6D" style="mix-blend-mode:multiply"/>
<path d="M650.934 18.4723L650.742 18.3716C650.742 18.3716 650.743 18.3955 650.746 18.4059L650.79 19.1093C650.732 21.2448 648.903 23.009 646.575 23.1018C644.523 23.1853 642.75 21.9426 642.202 20.1914C642.202 20.1914 642.487 21.6989 642.515 21.7783C642.836 22.7642 643.546 23.5833 644.474 24.0905L647.133 25.5488C648.878 26.5062 651.063 26.0406 652.266 24.4533C653.763 22.4776 653.13 19.6312 650.938 18.4751L650.934 18.4723Z" fill="#176F6D" style="mix-blend-mode:multiply"/>
<path d="M640.532 17.4975C642.006 15.5511 641.384 12.7473 639.225 11.6094L639.036 11.5095L639.037 11.5238L639.035 11.5201C639.034 11.5325 639.036 11.5458 639.038 11.5572L639.081 12.2397C639.026 14.3417 637.224 16.0795 634.934 16.1712C632.915 16.2539 631.173 15.0313 630.632 13.3076C630.632 13.3076 630.913 14.7904 630.938 14.8688C631.253 15.8339 631.949 16.6392 632.858 17.1393L635.476 18.5758C637.195 19.5186 639.347 19.0605 640.531 17.4956L640.532 17.4975Z" fill="#176F6D" style="mix-blend-mode:multiply"/>
<path d="M628.801 10.542C630.253 8.62673 629.639 5.86656 627.514 4.74489L627.328 4.64593L627.33 4.67163L627.327 4.66599C627.329 4.67928 627.329 4.69357 627.331 4.70686L627.373 5.36843C627.323 7.43696 625.55 9.14917 623.295 9.23903C621.31 9.32075 619.596 8.11654 619.065 6.42399C619.065 6.42399 619.343 7.88207 619.367 7.95867C619.675 8.90584 620.357 9.69426 621.248 10.1872L623.825 11.6019C625.518 12.5292 627.635 12.0778 628.802 10.5391L628.801 10.542Z" fill="#176F6D" style="mix-blend-mode:multiply"/>
<path d="M617.073 3.58878C618.501 1.7027 617.897 -1.01196 615.805 -2.11546L615.624 -2.21167L615.626 -2.17168L615.622 -2.1792C615.625 -2.16403 615.625 -2.14974 615.628 -2.13457L615.669 -1.49206C615.621 0.544001 613.879 2.22774 611.661 2.31758C609.709 2.39552 608.025 1.21437 607.502 -0.448839C607.502 -0.448839 607.774 0.983668 607.8 1.05926C608.102 1.9875 608.769 2.76201 609.641 3.24595L612.177 4.63699C613.844 5.55161 615.928 5.1059 617.075 3.58966L617.073 3.58878Z" fill="#176F6D" style="mix-blend-mode:multiply"/>
<path d="M605.341 -3.36641C606.747 -5.22139 606.153 -7.89532 604.093 -8.97965L603.913 -9.07397L603.916 -9.02258L603.911 -9.03198C603.914 -9.01681 603.916 -9.00063 603.919 -8.98547L603.958 -8.36389C603.914 -6.36131 602.2 -4.70215 600.019 -4.61521C598.1 -4.53816 596.445 -5.69814 595.931 -7.3349C595.931 -7.3349 596.199 -5.92709 596.222 -5.85238C596.518 -4.94017 597.174 -4.1787 598.032 -3.70203L600.52 -2.33642C602.16 -1.43633 604.212 -1.8745 605.341 -3.36641Z" fill="#176F6D" style="mix-blend-mode:multiply"/>
<path d="M607.331 -1.39201C607.368 -0.462399 607.755 0.374917 608.371 1.01731C608.714 1.37522 609.304 0.946573 609.054 0.519413C608.705 -0.0814681 608.502 -0.782585 608.472 -1.51788C608.385 -3.65806 609.804 -5.26644 612.108 -5.36046C612.189 -5.36262 612.268 -5.35902 612.348 -5.3583C612.023 -5.41922 611.688 -5.44841 611.343 -5.43535C609.04 -5.34133 607.244 -3.5322 607.331 -1.39201Z" fill="#A5EFBD" style="mix-blend-mode:hard-light"/>
<path d="M618.894 5.4743C618.933 6.42009 619.326 7.27057 619.951 7.92512C620.3 8.28955 620.881 7.85163 620.627 7.41695C620.272 6.80667 620.063 6.09427 620.035 5.34844C619.946 3.17303 621.398 1.53041 623.739 1.43538C623.824 1.4312 623.906 1.43568 623.991 1.43627C623.663 1.37448 623.324 1.34541 622.975 1.36048C620.632 1.45652 618.804 3.29701 618.894 5.4743Z" fill="#A5EFBD" style="mix-blend-mode:hard-light"/>
<path d="M630.458 12.3397C630.496 13.2979 630.895 14.1626 631.528 14.8274C631.875 15.1928 632.459 14.7529 632.203 14.3192C631.841 13.6987 631.629 12.9759 631.597 12.2149C631.507 10.0013 632.989 8.32836 635.371 8.23318C635.459 8.22989 635.546 8.23424 635.633 8.2357C635.302 8.17592 634.959 8.1441 634.606 8.15829C632.225 8.25535 630.366 10.1272 630.456 12.3407L630.458 12.3397Z" fill="#A5EFBD" style="mix-blend-mode:hard-light"/>
<path d="M642.023 19.2051C642.063 20.1765 642.466 21.0535 643.105 21.7296C643.452 22.095 644.038 21.657 643.781 21.2214C643.41 20.5906 643.194 19.8555 643.162 19.0802C643.069 16.8296 644.584 15.1271 647.005 15.028C647.097 15.0246 647.188 15.027 647.279 15.0293C646.944 14.9686 646.597 14.9388 646.24 14.9531C643.819 15.0522 641.929 16.9554 642.021 19.2061L642.023 19.2051Z" fill="#A5EFBD" style="mix-blend-mode:hard-light"/>
<path d="M579.844 -10.8846L641.234 24.9926L579.646 -11.4018C579.487 -11.4957 579.408 -11.6977 579.491 -11.863C579.498 -11.8784 579.508 -11.891 579.516 -11.9027C581.367 -14.2463 586.794 -21.8888 586.532 -21.5557L579.128 -12.1765C578.968 -11.9748 578.908 -11.711 578.965 -11.4589L580.646 -4.03799L580.721 -3.71294C580.734 -3.65703 580.77 -3.60652 580.82 -3.57733L581.117 -3.4003L579.485 -10.6175C579.438 -10.827 579.662 -10.9903 579.846 -10.8808L579.844 -10.8846Z" fill="#A5EFBD" style="mix-blend-mode:hard-light"/>
</g>
<path d="M341.559 -8.303L321.707 -27.9584C321.182 -28.4764 320.468 -28.765 319.729 -28.7569L280.369 -28.2687C279.857 -28.2619 279.393 -27.9753 279.159 -27.5211L277.653 -24.5856C277.128 -24.1031 276.614 -23.5692 276.132 -22.984C274.113 -20.5316 273.038 -17.794 273.068 -15.6572L264.863 0.322988C264.339 0.805467 263.829 1.33728 263.351 1.92039C261.332 4.3728 260.261 7.10834 260.289 9.24101L255.367 18.8258C254.802 19.922 255.038 21.263 255.938 22.1023L275.718 40.6073C276.297 41.1497 277.057 41.4565 277.849 41.4729L316.782 42.3313C317.319 42.3429 317.812 42.0417 318.052 41.5587L341.836 -6.71927C342.098 -7.24977 341.99 -7.8915 341.566 -8.31127L341.559 -8.303Z" fill="#FEC535"/>
<path d="M341.559 -8.30296L321.707 -27.9584C321.583 -28.0812 321.444 -28.1917 321.298 -28.2876C321.289 -28.2938 321.281 -28.2999 321.273 -28.306C321.134 -28.3959 320.99 -28.4672 320.843 -28.5323C320.823 -28.5424 320.802 -28.5526 320.784 -28.5587L296 20.9125C295.725 21.4595 295.846 22.1259 296.295 22.5435L317.458 42.1692C317.706 42.0382 317.915 41.8292 318.046 41.567L341.829 -6.71097C342.092 -7.24146 341.983 -7.8832 341.559 -8.30296Z" fill="#FAB502" style="mix-blend-mode:multiply"/>
<path d="M301.108 9.04572C307.181 2.1084 303.464 -5.80802 295.708 0.180992C294.63 -0.867302 294.347 -1.40518 293.193 -1.87869C297.774 1.15195 293.293 7.97372 290.246 10.6581C287.367 13.1851 284.109 14.0774 282.325 12.6129C284.775 15.0147 286.342 17.4047 289.747 16.1286C292.316 15.0176 298.963 11.4638 301.104 9.0478L301.108 9.04572Z" fill="#FAB502" style="mix-blend-mode:multiply"/>
<path d="M282.092 -1.7189C280.444 -3.07707 277.541 -2.41101 274.836 -0.313159C273.758 -1.36145 273.475 -1.89932 272.322 -2.37283C276.902 0.657808 272.422 7.47956 269.375 10.1639C266.496 12.6909 263.238 13.5833 261.453 12.1188C264.137 14.9599 266.148 17.259 269.972 15.1716L275.581 12.3295C280.188 10.6867 285.891 1.11417 282.094 -1.71479L282.092 -1.7189Z" fill="#FAB502" style="mix-blend-mode:multiply"/>
<path d="M282.318 12.6113C282.976 13.2274 284.717 15.003 284.752 15.042C285.705 16.0662 286.868 16.4573 288.111 16.3848C286.851 15.1605 284.059 12.462 283.55 11.9871C279.992 8.83571 284.347 1.19525 289.235 -1.70481C283.899 0.503866 278.461 9.19387 282.318 12.6113Z" fill="#D9CDA3" style="mix-blend-mode:hard-light"/>
<path d="M272.247 -14.0588L264.864 0.3236C265.148 0.0606249 265.435 -0.187951 265.73 -0.420102L272.252 -14.0609L272.247 -14.0588Z" fill="#D9CDA3" style="mix-blend-mode:hard-light"/>
<path d="M257.334 22.1385C257.28 22.0008 257.238 21.857 257.206 21.713C257.206 21.713 295.346 21.8325 295.011 21.8219L256.689 20.1738C256.315 20.1573 256.082 19.7694 256.241 19.431L260.471 10.5786C260.674 11.2137 261.025 11.7841 261.551 12.2507C262.209 12.8668 263.95 14.6424 263.985 14.6813C264.937 15.7056 266.1 16.0967 267.344 16.0242C266.083 14.7998 263.292 12.1014 262.783 11.6265C259.225 8.4751 263.579 0.834646 268.468 -2.06541C264.331 -0.351061 260.13 5.26075 260.257 9.28895L255.36 18.8242C255.057 19.4167 254.99 20.08 255.134 20.6989C255.163 20.8284 255.203 20.9579 255.251 21.0832L255.255 21.0914C255.301 21.2126 255.355 21.3297 255.42 21.4467C255.436 21.4796 255.459 21.5041 255.476 21.537C255.53 21.6232 255.584 21.7093 255.644 21.7872C255.731 21.898 255.826 22.0045 255.934 22.1048L276.231 41.0908C276.477 41.3221 258.091 23.2667 258.091 23.2667C257.973 23.1562 257.868 23.0394 257.774 22.9164C257.704 22.8282 257.646 22.7338 257.588 22.6395C257.571 22.6066 257.544 22.5738 257.523 22.543C257.455 22.4178 257.394 22.2885 257.342 22.1549L257.338 22.1467L257.334 22.1385Z" fill="#D9CDA3" style="mix-blend-mode:hard-light"/>
<path d="M622.944 217.832L601.883 203.605C599.754 198.551 594.491 193.379 587.35 189.962C583.831 188.273 580.27 187.21 576.929 186.746L565.688 179.146C564.615 178.421 563.199 178.442 562.149 179.211L527.457 204.479C526.133 205.444 525.088 206.745 524.431 208.25L439.499 402.867C438.916 404.206 439.35 405.769 440.536 406.607L494.962 445.234C496.693 446.46 499.037 446.352 500.648 444.974L535.042 415.418C535.379 415.131 535.65 414.771 535.835 414.365L624.021 221.665C624.648 220.295 624.193 218.673 622.944 217.832Z" fill="#26E7AF"/>
<path d="M624.269 220.739C624.284 220.647 624.284 220.554 624.291 220.469C624.292 220.415 624.293 220.36 624.287 220.304C624.261 219.34 623.791 218.411 622.942 217.84L601.902 203.624C603.09 206.562 603.224 209.449 602.038 211.92C600.771 214.557 598.196 216.328 594.853 217.182L595.159 217.311C595.159 217.311 595.086 217.33 595.044 217.347C594.391 217.519 593.712 217.655 593 217.762C592.64 217.812 592.273 217.86 591.901 217.891C591.6 217.919 591.3 217.939 590.993 217.958C590.379 217.988 589.746 217.991 589.108 217.979C588.487 217.961 587.862 217.919 587.224 217.859C586.863 217.822 586.502 217.785 586.144 217.733C584.122 217.458 582.011 216.965 579.876 216.241C579.168 215.998 578.454 215.738 577.738 215.447C577.022 215.155 576.309 214.841 575.602 214.497C567.747 210.734 562.173 204.854 560.526 199.342C559.894 197.332 559.778 195.361 560.266 193.562L555.212 204.097C551.966 210.868 558.467 221.008 569.963 226.245C582.17 231.805 603.86 233.392 607.397 233.803L589.208 248.497C588.467 249.099 587.88 249.859 587.486 250.722L499.319 444.237C498.986 444.97 499.88 445.642 500.491 445.12L534.521 415.87C535.196 415.288 535.737 414.574 536.106 413.762L624.02 221.665C624.093 221.513 624.142 221.357 624.185 221.193C624.197 221.124 624.208 221.056 624.227 220.989C624.241 220.906 624.256 220.814 624.27 220.731L624.269 220.739Z" fill="#3DA5A3" style="mix-blend-mode:multiply"/>
<path d="M585.977 247.934L528.507 208.096C528.333 207.973 528.153 207.881 527.963 207.802C528.607 206.708 529.462 205.743 530.493 204.994C530.493 204.994 563.197 178.449 562.148 179.218L527.456 204.486C526.132 205.451 525.087 206.752 524.43 208.258L523.112 211.285L483.01 303.177L524.23 212.907C524.994 211.092 527.259 210.432 528.925 211.53L587.274 250.078C587.164 249.24 586.718 248.456 585.984 247.943L585.977 247.934Z" fill="#7EDECD" style="mix-blend-mode:hard-light"/>
<path d="M560.786 192.135C560.664 192.395 560.55 192.657 560.458 192.931C560.557 192.666 560.664 192.395 560.786 192.135L555.155 203.885C554.233 205.807 554.11 207.987 554.661 210.249L560.444 199.04C560.298 197.298 560.561 195.633 561.283 194.114C564.768 186.845 577.508 185.711 589.743 191.571C591.361 192.349 592.889 193.205 594.311 194.13C592.265 192.5 589.906 191.013 587.297 189.766C575.909 184.304 564.04 185.365 560.794 192.136L560.786 192.135Z" fill="#7EDECD" style="mix-blend-mode:hard-light"/>
</g>
<path d="M277.63 266.71L275.031 264.433L275.064 264.331C275.257 263.745 274.28 262.897 272.882 262.436C272.816 262.415 272.749 262.396 272.683 262.375L270.152 260.158C270.198 259.581 269.257 258.809 267.946 258.377C266.548 257.916 265.256 258.017 265.065 258.602L264.915 259.061L261.61 259.158C261.261 259.168 260.961 259.409 260.875 259.746L258.578 268.694C258.504 268.985 258.603 269.293 258.831 269.487L267.584 276.858C267.73 276.982 267.916 277.045 268.107 277.041L274.859 276.872C275.208 276.864 275.508 276.623 275.597 276.286L277.873 267.496C277.947 267.21 277.853 266.906 277.631 266.712L277.63 266.71Z" fill="#F55BAB"/>
<path d="M269.119 259.254L270.152 260.158C270.198 259.581 269.257 258.809 267.946 258.377C266.548 257.916 265.257 258.017 265.065 258.602L264.915 259.061L268.314 258.962C268.609 258.953 268.899 259.057 269.121 259.253L269.119 259.254Z" fill="#D085E3" style="mix-blend-mode:multiply"/>
<path d="M275.064 264.331C275.257 263.745 274.28 262.897 272.882 262.436C272.816 262.415 272.749 262.396 272.684 262.375L275.03 264.431L275.063 264.33L275.064 264.331Z" fill="#D085E3" style="mix-blend-mode:multiply"/>
<path d="M277.812 266.87L269.246 259.366C269.029 259.174 268.686 259.28 268.611 259.56L266.136 268.798C266.098 268.946 266.146 269.103 266.264 269.2L274.973 276.462C275.193 276.646 275.529 276.538 275.601 276.259L277.931 267.261C277.968 267.119 277.922 266.966 277.809 266.87L277.812 266.87Z" fill="#D085E3" style="mix-blend-mode:multiply"/>
<path d="M265.87 270.067C265.8 270.012 265.713 269.98 265.626 269.98L261.112 269.959C261.02 269.959 260.978 270.072 261.049 270.131L268.169 276.068C268.241 276.129 268.333 276.16 268.426 276.159L272.706 276.072C272.888 276.068 272.966 275.841 272.825 275.725L265.87 270.067ZM268.886 273.606C268.779 274.034 267.897 274.18 266.916 273.935C265.935 273.691 265.225 273.146 265.33 272.719C265.437 272.291 266.32 272.144 267.301 272.389C268.281 272.634 268.992 273.179 268.886 273.606Z" fill="#D085E3" style="mix-blend-mode:multiply"/>
<g style="mix-blend-mode:screen">
<path d="M259.464 268.912C259.206 268.916 259.013 268.674 259.079 268.424C259.078 268.425 260.956 259.427 260.874 259.745L258.584 268.673C258.52 268.922 258.712 269.167 258.969 269.161L265.778 269.045C265.935 269.042 259.462 268.913 259.462 268.913L259.464 268.912Z" fill="#FDB891" style="mix-blend-mode:hard-light"/>
</g>
<path d="M179.781 41.8004L179.003 41.1179L179.012 41.0876C179.07 40.9119 178.777 40.6578 178.358 40.5197C178.339 40.5133 178.319 40.5077 178.299 40.5013L177.54 39.837C177.554 39.664 177.272 39.4327 176.879 39.3033C176.46 39.1652 176.073 39.1953 176.016 39.3706L175.971 39.5082L174.981 39.5374C174.876 39.5403 174.786 39.6124 174.761 39.7136L174.072 42.3949C174.05 42.4821 174.08 42.5743 174.148 42.6326L176.771 44.8411C176.815 44.8783 176.87 44.8974 176.927 44.8962L178.951 44.8454C179.056 44.843 179.145 44.7709 179.172 44.67L179.854 42.0359C179.876 41.9501 179.848 41.8591 179.782 41.8009L179.781 41.8004Z" fill="white"/>
<path d="M684.781 208.8L684.003 208.118L684.012 208.088C684.07 207.912 683.777 207.658 683.358 207.52C683.339 207.513 683.319 207.508 683.299 207.501L682.54 206.837C682.554 206.664 682.272 206.433 681.879 206.303C681.46 206.165 681.073 206.195 681.016 206.371L680.971 206.508L679.981 206.537C679.876 206.54 679.786 206.612 679.761 206.714L679.072 209.395C679.05 209.482 679.08 209.574 679.148 209.633L681.771 211.841C681.815 211.878 681.87 211.897 681.927 211.896L683.951 211.845C684.056 211.843 684.145 211.771 684.172 211.67L684.854 209.036C684.876 208.95 684.848 208.859 684.782 208.801L684.781 208.8Z" fill="white"/>
<path d="M654.781 62.8004L654.003 62.1179L654.012 62.0876C654.07 61.9119 653.777 61.6578 653.358 61.5197C653.339 61.5133 653.319 61.5077 653.299 61.5013L652.54 60.837C652.554 60.664 652.272 60.4327 651.879 60.3033C651.46 60.1652 651.073 60.1953 651.016 60.3706L650.971 60.5082L649.981 60.5374C649.876 60.5403 649.786 60.6124 649.761 60.7136L649.072 63.3949C649.05 63.4821 649.08 63.5743 649.148 63.6326L651.771 65.8411C651.815 65.8783 651.87 65.8974 651.927 65.8962L653.951 65.8454C654.056 65.843 654.145 65.7709 654.172 65.67L654.854 63.0359C654.876 62.9501 654.848 62.8591 654.782 62.8009L654.781 62.8004Z" fill="#F55BAB"/>
<path d="M80.811 72.5815L80.3629 73.5151L80.331 73.5138C80.1462 73.5053 79.9801 73.8556 79.9597 74.2963C79.9588 74.317 79.9588 74.3377 79.9579 74.3584L79.5219 75.2676C79.3516 75.3009 79.2045 75.6347 79.1854 76.0476C79.1649 76.4884 79.2979 76.8531 79.4822 76.8612L79.6268 76.8676L79.921 77.8137C79.9519 77.9136 80.0455 77.9808 80.1499 77.9784L82.9176 77.9209C83.0075 77.919 83.0883 77.8656 83.1261 77.7841L84.5487 74.6644C84.5728 74.6122 84.5762 74.5534 84.5597 74.4987L83.9672 72.5634C83.9367 72.4631 83.8431 72.3959 83.7388 72.3974L81.0183 72.4484C80.9296 72.4499 80.8496 72.5016 80.8114 72.5811L80.811 72.5815Z" fill="#F55BAB"/>
<path d="M383.09 198.616L382.642 199.549L382.61 199.548C382.426 199.539 382.259 199.89 382.239 200.33C382.238 200.351 382.238 200.372 382.237 200.393L381.801 201.302C381.631 201.335 381.484 201.669 381.465 202.082C381.444 202.523 381.577 202.887 381.762 202.895L381.906 202.902L382.2 203.848C382.231 203.948 382.325 204.015 382.429 204.013L385.197 203.955C385.287 203.953 385.368 203.9 385.405 203.818L386.828 200.699C386.852 200.646 386.856 200.588 386.839 200.533L386.247 198.598C386.216 198.497 386.122 198.43 386.018 198.432L383.298 198.483C383.209 198.484 383.129 198.536 383.091 198.615L383.09 198.616Z" fill="#FEC535"/>
<path d="M264.862 102.841L264.447 103.706L264.418 103.705C264.247 103.697 264.093 104.022 264.074 104.43C264.073 104.449 264.073 104.468 264.072 104.488L263.668 105.33C263.51 105.361 263.374 105.67 263.356 106.052C263.337 106.461 263.461 106.799 263.631 106.806L263.765 106.812L264.038 107.689C264.067 107.781 264.153 107.843 264.25 107.841L266.814 107.788C266.897 107.786 266.972 107.737 267.007 107.661L268.325 104.771C268.347 104.723 268.351 104.668 268.335 104.618L267.786 102.825C267.758 102.732 267.671 102.669 267.575 102.671L265.054 102.718C264.972 102.72 264.898 102.767 264.863 102.841L264.862 102.841Z" fill="#FEC535"/>
<path d="M97.7814 266.8L97.0025 266.118L97.0123 266.088C97.0702 265.912 96.7774 265.658 96.3584 265.52C96.3387 265.513 96.3187 265.508 96.299 265.501L95.5404 264.837C95.5541 264.664 95.2721 264.433 94.8795 264.303C94.4604 264.165 94.0734 264.195 94.0161 264.371L93.9711 264.508L92.9807 264.537C92.8762 264.54 92.7863 264.612 92.7605 264.714L92.0723 267.395C92.0501 267.482 92.0797 267.574 92.1481 267.633L94.7708 269.841C94.8146 269.878 94.8704 269.897 94.9275 269.896L96.9508 269.845C97.0556 269.843 97.1455 269.771 97.1721 269.67L97.8539 267.036C97.8763 266.95 97.848 266.859 97.7817 266.801L97.7814 266.8Z" fill="white"/>
<path d="M748.023 251.429L747.845 251.839L747.831 251.838C747.751 251.838 747.685 251.991 747.683 252.181C747.683 252.19 747.683 252.199 747.683 252.208L747.509 252.606C747.437 252.623 747.378 252.769 747.376 252.948C747.374 253.138 747.437 253.293 747.517 253.293L747.579 253.294L747.72 253.697C747.735 253.739 747.777 253.767 747.822 253.764L749.013 253.697C749.052 253.695 749.086 253.67 749.101 253.635L749.665 252.269C749.675 252.246 749.675 252.221 749.668 252.198L749.382 251.373C749.368 251.33 749.326 251.303 749.282 251.305L748.11 251.369C748.072 251.371 748.039 251.394 748.023 251.429L748.023 251.429Z" fill="white"/>
<path d="M438.284 82.7205L438.105 83.1295L438.092 83.1295C438.012 83.1287 437.946 83.2821 437.944 83.4722C437.944 83.4812 437.944 83.4901 437.944 83.499L437.77 83.8974C437.697 83.9143 437.639 84.0604 437.637 84.2385C437.635 84.4287 437.698 84.5837 437.778 84.5844L437.84 84.5849L437.981 84.9879C437.996 85.0305 438.037 85.058 438.082 85.0553L439.274 84.988C439.312 84.9857 439.346 84.9615 439.361 84.9258L439.926 83.5601C439.936 83.5373 439.936 83.5119 439.928 83.4886L439.643 82.6641C439.629 82.6214 439.587 82.5939 439.542 82.5961L438.371 82.66C438.333 82.662 438.299 82.6855 438.284 82.7203L438.284 82.7205Z" fill="white"/>
<path d="M37.3353 146.862C42.2621 145.454 55.3261 141.982 68.0052 140.819C69.1753 140.711 70.2377 141.52 70.4609 142.674L72.909 155.184L38.1436 161.997L35.7032 149.526C35.4723 148.348 36.1805 147.193 37.3353 146.862Z" fill="#7E48FA"/>
<path d="M93.3946 135.884C98.3215 134.475 111.385 131.003 124.064 129.841C125.235 129.733 126.297 130.541 126.52 131.696L128.968 144.206L94.2029 151.019L91.7626 138.547C91.5316 137.37 92.2398 136.215 93.3946 135.884Z" fill="#7E48FA"/>
<path d="M148.691 125.053C153.618 123.644 166.682 120.172 179.361 119.01C180.532 118.902 181.594 119.71 181.817 120.865L184.265 133.375L149.5 140.188L147.059 127.716C146.828 126.539 147.537 125.384 148.691 125.053Z" fill="#7E48FA"/>
<path d="M19.0749 147.755C24.0018 146.346 37.0657 142.874 49.7448 141.712C50.9149 141.604 51.9773 142.412 52.2005 143.567L54.6486 156.077L19.8832 162.89L17.4428 150.419C17.2119 149.241 17.9201 148.086 19.0749 147.755Z" fill="#7E48FA"/>
<path d="M75.8804 136.631C80.8073 135.222 93.8713 131.75 106.55 130.588C107.72 130.48 108.783 131.288 109.006 132.443L111.454 144.953L76.6887 151.766L74.2484 139.294C74.0174 138.117 74.7257 136.962 75.8804 136.631Z" fill="#7E48FA"/>
<path d="M131.938 125.653C136.865 124.245 149.929 120.773 162.608 119.61C163.778 119.502 164.841 120.311 165.064 121.465L167.512 133.975L132.747 140.788L130.306 128.317C130.075 127.139 130.784 125.984 131.938 125.653Z" fill="#7E48FA"/>
<path d="M167.035 128.772L1.83821 163.144C0.598793 163.398 -0.201827 164.607 0.0445174 165.846L12.9468 231.72C13.1932 232.975 14.4018 233.791 15.6566 233.545L180.969 201.166C182.216 200.92 183.032 199.711 182.794 198.464L169.776 130.596C169.53 129.326 168.298 128.51 167.035 128.772Z" fill="#7E48FA"/>
<path d="M199.083 127.185L169.329 128.294L167.035 128.771C168.298 128.509 169.529 129.333 169.776 130.596L182.793 198.464C183.032 199.711 182.216 200.919 180.969 201.166L15.6562 233.545L46.0413 228.479L212.285 196.501C213.54 196.262 214.364 195.046 214.118 193.791L201.439 129.041C201.223 127.924 200.222 127.132 199.083 127.178V127.185Z" fill="#7E48FA"/>
<g style="mix-blend-mode:screen">
<path d="M162.601 119.61C149.93 120.772 136.858 124.244 131.931 125.653C130.777 125.984 130.068 127.139 130.299 128.317L131.824 136.092L133.179 135.807L131.808 129.379C131.562 128.201 132.247 127.039 133.402 126.684C138.306 125.199 151.316 121.519 163.972 120.156C164.079 120.149 164.18 120.156 164.287 120.156C163.833 119.771 163.24 119.548 162.609 119.61H162.601Z" fill="#0247FA" style="mix-blend-mode:hard-light"/>
</g>
<g style="mix-blend-mode:screen">
<path d="M19.2214 159.525L20.5994 159.241L18.9519 151.496C18.7056 150.318 19.3907 149.156 20.5455 148.802C25.4493 147.316 38.4594 143.636 51.1153 142.274C51.2231 142.266 51.3232 142.274 51.4309 142.274C50.9767 141.889 50.384 141.665 49.7527 141.727C37.0814 142.889 24.0097 146.361 19.0828 147.77C17.9281 148.101 17.2198 149.256 17.4508 150.434L19.2368 159.533L19.2214 159.525Z" fill="#0247FA" style="mix-blend-mode:hard-light"/>
</g>
<g style="mix-blend-mode:screen">
<path d="M3.10073 164.583L150.338 132.243L76.165 147.678L77.2582 147.447L75.7493 140.364C75.5029 139.186 76.1881 138.024 77.3428 137.67C82.2466 136.184 95.2567 132.504 107.913 131.142C108.02 131.134 108.121 131.142 108.228 131.142C107.774 130.757 107.181 130.534 106.55 130.595C93.8787 131.758 80.8071 135.229 75.8802 136.638C74.7254 136.969 74.0172 138.124 74.2481 139.302L75.9033 147.739L1.83821 163.143C0.598793 163.397 -0.201827 164.606 0.0445174 165.845L12.9468 231.72C13.1701 232.844 1.35322 167.308 1.35322 167.308C1.09148 166.069 1.86901 164.852 3.10843 164.575L3.10073 164.583Z" fill="#0247FA" style="mix-blend-mode:hard-light"/>
</g>
<path d="M214.118 193.798L201.439 129.048C201.223 127.932 200.222 127.139 199.083 127.185L183.171 127.778L181.816 120.865C181.592 119.71 180.53 118.902 179.36 119.01C179.021 119.04 178.675 119.071 178.336 119.11L178.706 121.011C178.998 122.497 178.105 123.952 176.65 124.368C174.371 125.022 170.692 126.023 166.165 127.101L165.064 121.465C164.841 120.311 163.779 119.502 162.609 119.61C162.27 119.641 161.923 119.672 161.585 119.71L162.532 124.537C162.893 126.369 161.785 128.171 159.991 128.679C154.879 130.134 144.125 133.028 131.685 135.322L131.839 136.092L166.527 128.879L167.05 128.771C168.313 128.509 169.545 129.333 169.791 130.596L182.809 198.463C183.047 199.711 182.231 200.919 180.984 201.166L15.6562 233.544L46.0413 228.479L212.285 196.5C213.54 196.262 214.364 195.045 214.118 193.791V193.798Z" fill="#A3ABD9" style="mix-blend-mode:multiply"/>
<path d="M110.585 140.519L127.552 136.986L126.513 131.697C126.289 130.542 125.227 129.734 124.057 129.842C123.718 129.872 123.372 129.903 123.033 129.942L123.402 131.843C123.695 133.329 122.802 134.784 121.347 135.2C118.937 135.885 114.98 136.963 110.115 138.117L109.007 132.451C108.783 131.297 107.721 130.488 106.551 130.596C106.212 130.627 105.866 130.658 105.527 130.696L106.474 135.523C106.836 137.355 105.727 139.157 103.933 139.665C98.8218 141.12 88.0751 144.014 75.627 146.308L75.9041 147.74L110.592 140.527L110.585 140.519Z" fill="#A3ABD9" style="mix-blend-mode:multiply"/>
<path d="M53.9013 152.313L71.6227 148.625L70.4603 142.682C70.2371 141.528 69.1747 140.719 68.0046 140.827C67.6658 140.858 67.3194 140.889 66.9807 140.927L67.3502 142.829C67.6427 144.314 66.7497 145.769 65.2948 146.185C62.7697 146.909 58.5203 148.063 53.3086 149.272L52.1923 143.583C51.9691 142.428 50.9067 141.62 49.7366 141.728C49.3978 141.759 49.0514 141.789 48.7127 141.828L49.6596 146.655C50.0214 148.487 48.9129 150.288 47.1192 150.796C42.0075 152.251 31.2607 155.146 18.8126 157.44L19.2206 159.534L53.909 152.321L53.9013 152.313Z" fill="#A3ABD9" style="mix-blend-mode:multiply"/>
<path d="M823.935 47.7547L782.936 78.0673C782.41 78.4583 782.161 79.119 782.305 79.7595L788.085 105.628C788.161 105.972 788.381 106.267 788.691 106.442L827.471 128.11C828.337 128.594 829.414 128.515 830.2 127.908L870.353 96.8484C870.721 96.5643 870.898 96.0953 870.814 95.6386L865.987 70.0186C865.847 69.2672 865.366 68.6215 864.685 68.2717L824.804 47.684C824.524 47.5401 824.184 47.5661 823.931 47.7528L823.935 47.7547Z" fill="#F55BAB"/>
<path d="M824.783 81.2462C831.3 80.1492 836.021 75.9197 835.328 71.7994C834.634 67.679 828.789 65.2282 822.271 66.3252C815.754 67.4222 811.033 71.6517 811.726 75.772C812.42 79.8924 818.266 82.3432 824.783 81.2462Z" fill="#F55BAB"/>
<path d="M811.236 89.182L814.925 91.3081L814.023 86.9218L811.236 89.182Z" fill="#D085E3" style="mix-blend-mode:multiply"/>
<path d="M824.445 79.239C829.208 78.4374 832.657 75.3459 832.15 72.3339C831.643 69.3219 827.372 67.5301 822.609 68.3317C817.847 69.1334 814.397 72.2249 814.904 75.2368C815.411 78.2488 819.683 80.0406 824.445 79.239Z" fill="#D085E3" style="mix-blend-mode:multiply"/>
<path d="M822.27 66.3295C823.88 66.061 825.448 66.0056 826.907 66.1405L824.345 53.287C824.034 53.3048 823.728 53.4061 823.464 53.596L817.467 57.9505L790.713 77.3829C790.467 77.5642 790.49 77.9354 790.758 78.0825L811.23 89.1842L814.017 86.9239L811.721 75.778C811.028 71.6569 815.748 67.4281 822.265 66.3311L822.27 66.3295Z" fill="#D085E3" style="mix-blend-mode:multiply"/>
<path d="M822.001 100.789L821.521 100.521L822.001 100.789Z" fill="#D085E3" style="mix-blend-mode:multiply"/>
<path d="M870.814 95.6387L865.987 70.0187C865.847 69.2674 865.366 68.6216 864.685 68.2719L864.653 68.2965C865.232 68.7979 865.235 69.7385 864.582 70.2246L823.789 100.66C823.269 101.049 822.569 101.095 822 100.783L822.275 100.934C822.692 101.162 822.99 101.566 823.093 102.033L828.8 128.414C829.299 128.39 829.792 128.222 830.202 127.904L870.355 96.845C870.724 96.5609 870.9 96.0918 870.816 95.6351L870.814 95.6387Z" fill="#D085E3" style="mix-blend-mode:multiply"/>
<path d="M828.801 128.419L828.783 128.418C828.783 128.418 828.796 128.421 828.801 128.419Z" fill="#D085E3" style="mix-blend-mode:multiply"/>
<path d="M827.016 127.855L827.474 128.112L827.016 127.855Z" fill="#D085E3" style="mix-blend-mode:multiply"/>
<path d="M848.421 76.4167C847.649 73.1257 843.92 69.8874 838.861 68.4961C836.646 67.8902 834.469 67.7151 832.523 67.9172C834.041 68.9003 835.062 70.2293 835.328 71.7999L837.721 84.4619L848.417 76.4148L848.421 76.4167Z" fill="#D085E3" style="mix-blend-mode:multiply"/>
<path d="M856.508 69.5907L838.954 60.5507L825.196 53.4651C824.927 53.3272 824.637 53.2717 824.345 53.2866L824.432 53.7305L838.184 61.1713L855.927 70.7719L856.565 70.287C856.807 70.1037 856.777 69.7286 856.505 69.5887L856.508 69.5907Z" fill="#FDB891" style="mix-blend-mode:hard-light"/>
<path d="M812.165 72.7144C811.72 73.7065 811.551 74.746 811.727 75.7764L814.924 91.3086L816.006 91.8735L813.286 78.6548C815.433 80.8039 819.475 81.916 823.94 81.3688C818.417 81.6001 813.825 79.2713 813.216 75.6495C813.039 74.5802 813.224 73.5024 813.711 72.4768C815.348 69.8602 818.941 67.6694 823.364 66.9244C826.837 66.3378 830.11 66.7691 832.523 67.9176C830.322 66.4939 827.072 65.8061 823.526 66.1642C823.47 66.1713 823.411 66.1765 823.355 66.1836C822.998 66.2238 822.637 66.2712 822.274 66.3315C821.255 66.5039 820.279 66.752 819.364 67.0616C818.812 67.2499 818.282 67.4594 817.78 67.6884C817.44 67.8421 817.116 68.0038 816.8 68.1751C814.751 69.2878 813.186 70.7501 812.349 72.3438C812.282 72.4671 812.223 72.5908 812.169 72.7164L812.165 72.7144Z" fill="#FDB891" style="mix-blend-mode:hard-light"/>
<path d="M783.432 80.3966L822.477 101.082C822.414 101.033 822.351 100.985 822.278 100.945L782.357 78.873C782.26 79.1544 782.237 79.4627 782.307 79.7653L782.785 81.9048L788.087 105.634C788.109 105.731 788.146 105.827 788.189 105.912C788.189 105.912 783.68 84.0232 783.107 80.6286C783.075 80.446 783.269 80.3071 783.432 80.3966Z" fill="#FDB891" style="mix-blend-mode:hard-light"/>
<rect x="464" y="137.712" width="70" height="32" rx="2" transform="rotate(-7.14948 464 137.712)" fill="#F55BAB"/>
<path d="M477.173 159.525C480.013 159.169 481.7 157.008 481.345 154.179C481 151.427 478.956 149.725 476.369 150.049C475.138 150.204 474.195 150.765 473.611 151.685L473.456 151.704L473.272 147.092L479.57 146.302L479.377 144.761L471.731 145.72L472.015 153.706L473.633 153.503C474.061 152.445 475.026 151.743 476.276 151.587C478.069 151.362 479.443 152.508 479.684 154.427C479.922 156.326 478.879 157.746 477.077 157.972C475.44 158.178 474.063 157.327 473.725 155.883L472.077 156.09C472.524 158.474 474.567 159.852 477.173 159.525ZM491.06 157.498L492.62 157.302L492.249 154.347L494.391 154.078L494.202 152.576L492.071 152.844L491.572 148.871L490.022 149.065L490.523 153.057L485.94 153.632L485.924 153.506L489.422 143.501L487.678 143.72L484.14 153.956L484.313 155.342L490.689 154.542L491.06 157.498ZM495.873 146.688L495.88 146.746L497.527 146.539L497.52 146.481C497.313 144.834 498.244 143.625 499.853 143.423C501.481 143.219 502.661 144.075 502.849 145.576C502.988 146.681 502.655 147.481 501.131 149.689L497.062 155.544L497.211 156.726L506.057 155.617L505.863 154.066L499.458 154.87L499.437 154.705L502.282 150.706C504.206 147.995 504.719 146.749 504.536 145.296C504.243 142.961 502.281 141.593 499.713 141.915C497.164 142.234 495.564 144.227 495.873 146.688ZM513.077 143.88C511.575 144.069 510.558 144.826 510.151 146.058L509.977 146.08L509.775 144.471L508.147 144.676L509.911 158.735L511.587 158.525L510.938 153.351L511.122 153.328C511.722 154.424 512.918 154.933 514.439 154.742C516.871 154.437 518.24 152.484 517.902 149.79L517.657 147.833C517.318 145.13 515.509 143.575 513.077 143.88ZM512.791 145.451C514.526 145.234 515.786 146.335 516.029 148.273L516.219 149.785C516.462 151.723 515.514 153.111 513.78 153.329C512.045 153.547 510.785 152.445 510.541 150.497L510.351 148.986C510.108 147.048 511.057 145.669 512.791 145.451ZM525.457 149.069L528.61 152.788L530.519 152.548L526.227 147.673L529.171 142.039L527.321 142.271L525.214 146.58L525.078 146.597L521.962 142.943L520.015 143.187L524.307 147.983L521.362 153.697L523.184 153.468L525.331 149.085L525.457 149.069Z" fill="white"/>
<path d="M775.786 96.0005L218 163.457" stroke="#F55BAB"/>
<path d="M217 160L217.996 167.938" stroke="#F55BAB"/>
<path d="M775 91.9997L775.996 99.9375" stroke="#F55BAB"/>
<defs>
<clipPath id="clip0_616_67371">
<rect width="80.9987" height="56.61" fill="white" transform="translate(624.495 -41.9062) rotate(61.9029)"/>
</clipPath>
</defs>
</svg>
