<svg viewBox="0 0 20 20" fill="none" xmlns="http://www.w3.org/2000/svg"><path d="M12.72 7.53a.75.75 0 1 0 1.06-1.06l-1.47-1.47 1.47-1.47a.75.75 0 0 0-1.06-1.06l-1.47 1.47-1.47-1.47a.75.75 0 0 0-1.06 1.06l1.47 1.47-1.47 1.47a.75.75 0 0 0 1.06 1.06l1.47-1.47 1.47 1.47Z" fill="#000"/><path d="M3 3.75a.75.75 0 0 1 .75-.75h2a.75.75 0 0 1 .744.66l.804 6.59h7.802l.658-4.606a.75.75 0 0 1 1.485.212l-.75 5.25a.75.75 0 0 1-.743.644h-8.269l.183 1.5h7.586a.75.75 0 0 1 0 1.5h-8.25a.75.75 0 0 1-.744-.66l-.365-2.988a.722.722 0 0 1-.003-.02l-.802-6.582h-1.336a.75.75 0 0 1-.75-.75Z" fill="#000"/><path d="M9 16.5a1 1 0 1 1-2 0 1 1 0 0 1 2 0Z" fill="#000"/><path d="M14 17.5a1 1 0 1 0 0-2 1 1 0 0 0 0 2Z" fill="#000"/></svg>