<svg width="20" height="20" viewBox="0 0 20 20" fill="none" xmlns="http://www.w3.org/2000/svg">
<path fill-rule="evenodd" clip-rule="evenodd" d="M17.5 5C17.5 6.38071 16.3807 7.5 15 7.5C14.5828 7.5 14.1894 7.3978 13.8436 7.21707L10.6681 10.3926C11.1919 11.1282 11.5 12.0281 11.5 13C11.5 13.2245 11.4836 13.4451 11.4518 13.6608L12.7555 13.8978C13.1628 13.0698 14.0149 12.5 15 12.5C16.3807 12.5 17.5 13.6193 17.5 15C17.5 16.3807 16.3807 17.5 15 17.5C13.7489 17.5 12.7124 16.581 12.5289 15.3812L10.9811 15.0998C10.2266 16.5272 8.72692 17.5 7 17.5C4.51472 17.5 2.5 15.4853 2.5 13C2.5 11.2001 3.55678 9.64693 5.08373 8.92723L4.72313 7.48484C3.47271 7.34708 2.5 6.28713 2.5 5C2.5 3.61929 3.61929 2.5 5 2.5C6.38071 2.5 7.5 3.61929 7.5 5C7.5 5.94709 6.97335 6.77118 6.19693 7.19539L6.52917 8.52434C6.68392 8.50825 6.841 8.5 7 8.5C7.97189 8.5 8.87181 8.8081 9.60743 9.33196L12.783 6.15643C12.6022 5.81061 12.5 5.41724 12.5 5C12.5 3.61929 13.6193 2.5 15 2.5C16.3807 2.5 17.5 3.61929 17.5 5ZM16 5C16 5.55228 15.5523 6 15 6C14.4477 6 14 5.55228 14 5C14 4.44772 14.4477 4 15 4C15.5523 4 16 4.44772 16 5ZM7 16C8.65685 16 10 14.6569 10 13C10 11.3431 8.65685 10 7 10C5.34315 10 4 11.3431 4 13C4 14.6569 5.34315 16 7 16ZM15 16C15.5523 16 16 15.5523 16 15C16 14.4477 15.5523 14 15 14C14.4477 14 14 14.4477 14 15C14 15.5523 14.4477 16 15 16ZM6 5C6 5.55228 5.55228 6 5 6C4.44772 6 4 5.55228 4 5C4 4.44772 4.44772 4 5 4C5.55228 4 6 4.44772 6 5Z" fill="black"/>
</svg>
