<svg width="20" height="20" viewBox="0 0 20 20" fill="none" xmlns="http://www.w3.org/2000/svg">
<path fill-rule="evenodd" clip-rule="evenodd" d="M3 5C3 3.89543 3.89543 3 5 3H15C16.1046 3 17 3.89543 17 5V15C17 16.1046 16.1046 17 15 17H5C3.89543 17 3 16.1046 3 15V5ZM8.75 4.5H11.25V7H8.75V4.5ZM7.25 4.5H5C4.72386 4.5 4.5 4.72386 4.5 5V7H7.25V4.5ZM7.25 8.5H4.5V15C4.5 15.2761 4.72386 15.5 5 15.5H7.25V8.5ZM8.75 15.5H11.25V8.5H8.75V15.5ZM12.75 7V4.5H15C15.2761 4.5 15.5 4.72386 15.5 5V7H12.75ZM12.75 8.5V15.5H15C15.2761 15.5 15.5 15.2761 15.5 15V8.5H12.75Z" fill="black"/>
</svg>
