<svg width="20" height="20" viewBox="0 0 20 20" fill="none" xmlns="http://www.w3.org/2000/svg">
<path d="M4.75 3.75C4.75 3.33579 4.41421 3 4 3C3.58579 3 3.25 3.33579 3.25 3.75V16.25C3.25 16.6642 3.58579 17 4 17C4.41421 17 4.75 16.6642 4.75 16.25V3.75Z" fill="black"/>
<path d="M12.75 3.75C12.75 3.33579 12.4142 3 12 3C11.5858 3 11.25 3.33579 11.25 3.75V16.25C11.25 16.6642 11.5858 17 12 17C12.4142 17 12.75 16.6642 12.75 16.25V3.75Z" fill="black"/>
<path d="M8 3C8.41421 3 8.75 3.33579 8.75 3.75V16.25C8.75 16.6642 8.41421 17 8 17C7.58579 17 7.25 16.6642 7.25 16.25V3.75C7.25 3.33579 7.58579 3 8 3Z" fill="black"/>
<path d="M16.75 3.75C16.75 3.33579 16.4142 3 16 3C15.5858 3 15.25 3.33579 15.25 3.75V16.25C15.25 16.6642 15.5858 17 16 17C16.4142 17 16.75 16.6642 16.75 16.25V3.75Z" fill="black"/>
</svg>
