<svg viewBox="0 0 20 20" fill="none" xmlns="http://www.w3.org/2000/svg"><path d="M8.25 10.75a.75.75 0 0 1 .75-.75h2a.75.75 0 0 1 0 1.5h-2a.75.75 0 0 1-.75-.75Z" fill="#5C5F62"/><path fill-rule="evenodd" clip-rule="evenodd" d="M4.75 3a1.75 1.75 0 0 0-1.75 1.75v2c0 .595.297 1.12.75 1.436v6.064a2.75 2.75 0 0 0 2.75 2.75h7a2.75 2.75 0 0 0 2.75-2.75v-6.064c.453-.316.75-.841.75-1.436v-2a1.75 1.75 0 0 0-1.75-1.75h-10.5Zm10 5.5h-9.5v5.75c0 .69.56 1.25 1.25 1.25h7c.69 0 1.25-.56 1.25-1.25v-5.75Zm-10.25-3.75a.25.25 0 0 1 .25-.25h10.5a.25.25 0 0 1 .25.25v2a.25.25 0 0 1-.25.25h-10.5a.25.25 0 0 1-.25-.25v-2Z" fill="#5C5F62"/></svg>