<svg width="20" height="20" viewBox="0 0 20 20" fill="none" xmlns="http://www.w3.org/2000/svg">
<path fill-rule="evenodd" clip-rule="evenodd" d="M9.95777 2.80927C10.1517 2.72724 10.3711 2.73048 10.5625 2.8182L16.5625 5.5682C16.8291 5.69039 17 5.95674 17 6.25V7.25C17 7.66421 16.6642 8 16.25 8H16V12.7927C16.2913 12.8956 16.5 13.1734 16.5 13.5C16.5 13.9142 16.1642 14.25 15.75 14.25H4.25C3.83579 14.25 3.5 13.9142 3.5 13.5C3.5 13.1734 3.7087 12.8956 4 12.7927V8H3.75C3.33579 8 3 7.66421 3 7.25V6.25C3 5.94871 3.18029 5.67667 3.45777 5.55927L9.95777 2.80927ZM14.5 12.75V8H12.5V12.75H14.5ZM9 8H11V12.75H9V8ZM7.5 12.75V8H5.5V12.75H7.5ZM5.08394 6.5H14.9954L10.2379 4.31948L5.08394 6.5Z" fill="black"/>
<path d="M2.75 16.25C2.75 15.8358 3.08579 15.5 3.5 15.5H16.5C16.9142 15.5 17.25 15.8358 17.25 16.25C17.25 16.6642 16.9142 17 16.5 17H3.5C3.08579 17 2.75 16.6642 2.75 16.25Z" fill="black"/>
</svg>
