<svg viewBox="0 0 20 20" fill="none" xmlns="http://www.w3.org/2000/svg"><path d="M9.75 2a.75.75 0 0 1 .75.75v3.5a.75.75 0 0 1-1.5 0v-3.5a.75.75 0 0 1 .75-.75Z" fill="#000"/><path d="M15.28 4.22a.75.75 0 0 1 0 1.06l-2 2a.75.75 0 1 1-1.06-1.06l2-2a.75.75 0 0 1 1.06 0Z" fill="#000"/><path d="M7.28 12.22a.75.75 0 0 1 0 1.06l-2 2a.75.75 0 1 1-1.06-1.06l2-2a.75.75 0 0 1 1.06 0Z" fill="#000"/><path d="M6.25 10.5a.75.75 0 0 0 0-1.5h-3.5a.75.75 0 0 0 0 1.5h3.5Z" fill="#000"/><path d="M7.03 7.28a.75.75 0 0 1-1.06 0l-2-2a.75.75 0 0 1 1.06-1.06l2 2a.75.75 0 0 1 0 1.06Z" fill="#000"/><path d="M9.944 8.987a.75.75 0 0 0-.957.957l2.122 6.01a.75.75 0 0 0 1.237.281l1.238-1.237 1.414 1.414a.75.75 0 0 0 1.06 0l.354-.354a.75.75 0 0 0 0-1.06l-1.414-1.414 1.237-1.238a.75.75 0 0 0-.28-1.237l-6.01-2.122Z" fill="#000"/></svg>