<svg viewBox="0 0 20 20" fill="none" xmlns="http://www.w3.org/2000/svg"><path fill-rule="evenodd" clip-rule="evenodd" d="M5.75 4.5c-.69 0-1.25.56-1.25 1.25v1.5a.75.75 0 0 1-1.5 0v-1.5a2.75 2.75 0 0 1 2.75-2.75h1.5a.75.75 0 0 1 0 1.5h-1.5Z" fill="#000"/><path fill-rule="evenodd" clip-rule="evenodd" d="M15.5 5.75c0-.69-.56-1.25-1.25-1.25h-1.5a.75.75 0 0 1 0-1.5h1.5a2.75 2.75 0 0 1 2.75 2.75v1.5a.75.75 0 0 1-1.5 0v-1.5Z" fill="#000"/><path fill-rule="evenodd" clip-rule="evenodd" d="M14.25 15.5c.69 0 1.25-.56 1.25-1.25v-1.5a.75.75 0 0 1 1.5 0v1.5a2.75 2.75 0 0 1-2.75 2.75h-1.5a.75.75 0 0 1 0-1.5h1.5Z" fill="#000"/><path fill-rule="evenodd" clip-rule="evenodd" d="M4.5 14.25c0 .69.56 1.25 1.25 1.25h1.5a.75.75 0 0 1 0 1.5h-1.5a2.75 2.75 0 0 1-2.75-2.75v-1.5a.75.75 0 0 1 1.5 0v1.5Z" fill="#000"/></svg>