<svg viewBox="0 0 20 20" fill="none" xmlns="http://www.w3.org/2000/svg"><path d="M5.75 2a1.75 1.75 0 0 0-1.75 1.75v3.5c0 .966.784 1.75 1.75 1.75a.75.75 0 0 0 0-1.5.25.25 0 0 1-.25-.25v-3.5a.25.25 0 0 1 .25-.25h8.5a.25.25 0 0 1 .25.25v3.5a.25.25 0 0 1-.25.25h-.5a.75.75 0 0 0 0 1.5h.5a1.75 1.75 0 0 0 1.75-1.75v-3.5a1.75 1.75 0 0 0-1.75-1.75h-8.5Z" fill="#000"/><path fill-rule="evenodd" clip-rule="evenodd" d="M9.88 4.5a2.25 2.25 0 0 0-2.25 2.25v4.402l-1.258-.48a1.748 1.748 0 0 0-1.996 2.716l3.116 3.946c.332.42.838.666 1.373.666h4.681a1.75 1.75 0 0 0 1.722-1.437l.683-3.757a1.75 1.75 0 0 0-1.297-2.01l-2.523-.632v-3.414a2.25 2.25 0 0 0-2.25-2.25Zm-.75 2.25a.75.75 0 0 1 1.5 0v4a.75.75 0 0 0 .569.728l3.091.772a.25.25 0 0 1 .185.288l-.683 3.757a.25.25 0 0 1-.246.205h-4.68a.25.25 0 0 1-.197-.095l-3.116-3.947a.248.248 0 0 1 .284-.386l2.276.87a.75.75 0 0 0 1.018-.7v-5.492Z" fill="#000"/></svg>