<svg viewBox="0 0 20 20" fill="none" xmlns="http://www.w3.org/2000/svg"><path fill-rule="evenodd" clip-rule="evenodd" d="M7.75 2.75a.75.75 0 0 0-1.5 0v.82c-.438.053-.832.15-1.202.339a3.75 3.75 0 0 0-1.64 1.639c-.226.444-.32.924-.365 1.47-.043.531-.043 1.187-.043 2v2.464c0 .813 0 1.469.043 2 .045.546.14 1.026.366 1.47a3.75 3.75 0 0 0 1.639 1.64c.444.226.924.32 1.47.365.531.043 1.187.043 2 .043h4.11c.575 0 .967 0 1.308-.063a3.75 3.75 0 0 0 3-3c.064-.342.064-.734.064-1.308v-3.611c0-.813 0-1.469-.043-2-.045-.546-.14-1.026-.366-1.47a3.75 3.75 0 0 0-1.639-1.64c-.37-.188-.764-.285-1.202-.338v-.82a.75.75 0 0 0-1.5 0v.752c-.239-.002-.495-.002-.768-.002h-2.964c-.273 0-.529 0-.768.002v-.752Zm-2.021 2.495c.197-.1.458-.17.912-.207.462-.037 1.057-.038 1.909-.038h2.9c.853 0 1.447 0 1.91.038.453.037.714.107.912.207.423.216.767.56.983.984.1.197.17.458.207.912.02.243.03.524.034.859h-10.992c.005-.335.014-.616.034-.86.037-.453.107-.714.207-.911a2.25 2.25 0 0 1 .984-.984Zm-1.229 4.255v1.95c0 .853 0 1.447.038 1.91.037.453.107.714.207.912.216.423.56.767.984.983.197.1.458.17.912.207.462.037 1.057.038 1.909.038h3.997c.687 0 .928-.003 1.115-.038a2.25 2.25 0 0 0 1.8-1.8c.035-.187.038-.428.038-1.115v-3.047h-11Z" fill="#000"/></svg>