<svg viewBox="0 0 20 20" fill="none" xmlns="http://www.w3.org/2000/svg"><path d="M10.75 3a.75.75 0 0 0-1.5 0v2.164l-.714-.73a.75.75 0 1 0-1.072 1.05l2 2.041a.75.75 0 0 0 1.072 0l2-2.04a.75.75 0 0 0-1.072-1.05l-.714.729v-2.164Z" fill="#000"/><path d="M12.928 9.289a2.279 2.279 0 0 1 4.142 1.9l-1.857 4.178a2.75 2.75 0 0 1-2.513 1.633h-4.7a.75.75 0 1 1 0-1.5h4.7c.494 0 .942-.291 1.143-.742l1.856-4.177a.779.779 0 0 0-1.415-.65l-1.335 2.818c-.29.611-.905 1-1.582 1h-1.851l-.016.001h-1.5a.75.75 0 1 1 0-1.5h1.51a.75.75 0 0 0-.01-1.5h-2.426a2.25 2.25 0 0 0-2.224 1.908l-.609 3.956a.75.75 0 0 1-1.482-.228l.608-3.956a3.75 3.75 0 0 1 3.707-3.18h2.426a2.25 2.25 0 0 1 2.227 2.575l1.201-2.536Z" fill="#000"/></svg>