<svg width="20" height="20" viewBox="0 0 20 20" fill="none" xmlns="http://www.w3.org/2000/svg">
<path d="M9.5 6.5C9.5 6.08579 9.83579 5.75 10.25 5.75C10.6642 5.75 11 6.08579 11 6.5V6.75H11.75C12.1642 6.75 12.5 7.08579 12.5 7.5C12.5 7.91421 12.1642 8.25 11.75 8.25H9.5C9.22386 8.25 9 8.47386 9 8.75C9 9.02614 9.22386 9.25 9.5 9.25H10.5C11.6046 9.25 12.5 10.1454 12.5 11.25C12.5 12.3546 11.6046 13.25 10.5 13.25V13.5C10.5 13.9142 10.1642 14.25 9.75 14.25C9.33579 14.25 9 13.9142 9 13.5V13.25H8.25C7.83579 13.25 7.5 12.9142 7.5 12.5C7.5 12.0858 7.83579 11.75 8.25 11.75H10.5C10.7761 11.75 11 11.5261 11 11.25C11 10.9739 10.7761 10.75 10.5 10.75H9.5C8.39543 10.75 7.5 9.85457 7.5 8.75C7.5 7.64543 8.39543 6.75 9.5 6.75V6.5Z" fill="black"/>
<path fill-rule="evenodd" clip-rule="evenodd" d="M18 10C18 14.4183 14.4183 18 10 18C5.58172 18 2 14.4183 2 10C2 5.58172 5.58172 2 10 2C14.4183 2 18 5.58172 18 10ZM16.5 10C16.5 13.5899 13.5899 16.5 10 16.5C6.41015 16.5 3.5 13.5899 3.5 10C3.5 6.41015 6.41015 3.5 10 3.5C13.5899 3.5 16.5 6.41015 16.5 10Z" fill="black"/>
</svg>
