<svg viewBox="0 0 20 20" fill="none" xmlns="http://www.w3.org/2000/svg"><path d="M7.78 10.682a.75.75 0 0 0-1.06 1.06l2.048 2.049a.75.75 0 0 0 1.06 0l3.463-3.463a.75.75 0 1 0-1.06-1.06l-2.933 2.932-1.518-1.518Z" fill="#000"/><path fill-rule="evenodd" clip-rule="evenodd" d="M8.5 2a2 2 0 0 0-1.986 1.76 2.75 2.75 0 0 0-2.514 2.74v8.75a2.75 2.75 0 0 0 2.75 2.75h6.5a2.75 2.75 0 0 0 2.75-2.75v-8.75a2.75 2.75 0 0 0-2.514-2.74 2 2 0 0 0-1.986-1.76h-3Zm3 1.5h-3a.5.5 0 0 0-.5.5v1a.5.5 0 0 0 .5.5h3a.5.5 0 0 0 .5-.5v-1a.5.5 0 0 0-.5-.5Zm-4.982 1.771a2 2 0 0 0 1.982 1.729h3a2 2 0 0 0 1.982-1.729 1.25 1.25 0 0 1 1.018 1.229v8.75c0 .69-.56 1.25-1.25 1.25h-6.5c-.69 0-1.25-.56-1.25-1.25v-8.75c0-.611.439-1.12 1.018-1.229Z" fill="#000"/></svg>