<svg width="20" height="20" viewBox="0 0 20 20" fill="none" xmlns="http://www.w3.org/2000/svg">
<path d="M9.99999 14.75C9.58578 14.75 9.24999 14.4142 9.25 14L9.25006 9.24999C9.25007 8.83578 9.58586 8.49999 10.0001 8.5C10.4143 8.50001 10.7501 8.8358 10.7501 9.25001L10.75 14C10.75 14.4142 10.4142 14.75 9.99999 14.75Z" fill="black"/>
<path d="M9 6.25C9 5.69771 9.44772 5.25 10 5.25C10.5523 5.25 11 5.69771 11 6.25C11 6.80228 10.5523 7.25 10 7.25C9.44772 7.25 9 6.80228 9 6.25Z" fill="black"/>
<path fill-rule="evenodd" clip-rule="evenodd" d="M18 10C18 14.4183 14.4183 18 10 18C5.58172 18 2 14.4183 2 10C2 5.58172 5.58172 2 10 2C14.4183 2 18 5.58172 18 10ZM16.5 10C16.5 13.5899 13.5899 16.5 10 16.5C6.41015 16.5 3.5 13.5899 3.5 10C3.5 6.41015 6.41015 3.5 10 3.5C13.5899 3.5 16.5 6.41015 16.5 10Z" fill="black"/>
</svg>
