<svg width="20" height="20" viewBox="0 0 20 20" fill="none" xmlns="http://www.w3.org/2000/svg">
<path d="M12.7413 11.8011C13.0457 12.0821 13.5202 12.0631 13.8011 11.7587C14.0821 11.4543 14.0631 10.9798 13.7587 10.6989L10.5087 7.6989C10.2214 7.4337 9.77859 7.4337 9.49129 7.6989L6.24129 10.6989C5.93692 10.9798 5.91794 11.4543 6.1989 11.7587C6.47985 12.0631 6.95434 12.0821 7.25871 11.8011L10 9.27068L12.7413 11.8011Z" fill="black"/>
<path fill-rule="evenodd" clip-rule="evenodd" d="M18 10C18 14.4183 14.4183 18 10 18C5.58172 18 2 14.4183 2 10C2 5.58172 5.58172 2 10 2C14.4183 2 18 5.58172 18 10ZM16.5 10C16.5 13.5899 13.5899 16.5 10 16.5C6.41015 16.5 3.5 13.5899 3.5 10C3.5 6.41015 6.41015 3.5 10 3.5C13.5899 3.5 16.5 6.41015 16.5 10Z" fill="black"/>
</svg>
