<svg width="20" height="20" viewBox="0 0 20 20" fill="none" xmlns="http://www.w3.org/2000/svg">
<path d="M8.1989 12.7413C7.91794 13.0457 7.93692 13.5202 8.24129 13.8011C8.54566 14.0821 9.02015 14.0631 9.3011 13.7587L12.3011 10.5087C12.5663 10.2214 12.5663 9.77859 12.3011 9.49129L9.3011 6.24129C9.02015 5.93692 8.54566 5.91794 8.24129 6.1989C7.93692 6.47985 7.91794 6.95434 8.1989 7.25871L10.7293 10L8.1989 12.7413Z" fill="black"/>
<path fill-rule="evenodd" clip-rule="evenodd" d="M18 10C18 14.4183 14.4183 18 10 18C5.58172 18 2 14.4183 2 10C2 5.58172 5.58172 2 10 2C14.4183 2 18 5.58172 18 10ZM16.5 10C16.5 13.5899 13.5899 16.5 10 16.5C6.41015 16.5 3.5 13.5899 3.5 10C3.5 6.41015 6.41015 3.5 10 3.5C13.5899 3.5 16.5 6.41015 16.5 10Z" fill="black"/>
</svg>
