<svg width="20" height="20" viewBox="0 0 20 20" fill="none" xmlns="http://www.w3.org/2000/svg">
<path d="M8.03032 9.46967C7.73743 9.17678 7.26255 9.17678 6.96966 9.46967C6.67677 9.76256 6.67677 10.2374 6.96966 10.5303L9.01776 12.5784C9.31065 12.8713 9.78553 12.8713 10.0784 12.5784L13.5407 9.11612C13.8336 8.82322 13.8336 8.34835 13.5407 8.05546C13.2478 7.76256 12.773 7.76256 12.4801 8.05546L9.54809 10.9874L8.03032 9.46967Z" fill="black"/>
<path fill-rule="evenodd" clip-rule="evenodd" d="M18 10C18 14.4183 14.4183 18 10 18C5.58172 18 2 14.4183 2 10C2 5.58172 5.58172 2 10 2C14.4183 2 18 5.58172 18 10ZM16.5 10C16.5 13.5899 13.5899 16.5 10 16.5C6.41015 16.5 3.5 13.5899 3.5 10C3.5 6.41015 6.41015 3.5 10 3.5C13.5899 3.5 16.5 6.41015 16.5 10Z" fill="black"/>
</svg>
