<svg width="20" height="20" viewBox="0 0 20 20" fill="none" xmlns="http://www.w3.org/2000/svg">
<path d="M7.25871 8.1989C6.95434 7.91794 6.47985 7.93692 6.1989 8.24129C5.91794 8.54566 5.93692 9.02015 6.24129 9.3011L9.49129 12.3011C9.77859 12.5663 10.2214 12.5663 10.5087 12.3011L13.7587 9.3011C14.0631 9.02015 14.0821 8.54566 13.8011 8.24129C13.5201 7.93692 13.0457 7.91794 12.7413 8.1989L10 10.7293L7.25871 8.1989Z" fill="black"/>
<path fill-rule="evenodd" clip-rule="evenodd" d="M18 10C18 14.4183 14.4183 18 10 18C5.58172 18 2 14.4183 2 10C2 5.58172 5.58172 2 10 2C14.4183 2 18 5.58172 18 10ZM16.5 10C16.5 13.5899 13.5899 16.5 10 16.5C6.41015 16.5 3.5 13.5899 3.5 10C3.5 6.41015 6.41015 3.5 10 3.5C13.5899 3.5 16.5 6.41015 16.5 10Z" fill="black"/>
</svg>
