<svg width="20" height="20" viewBox="0 0 20 20" fill="none" xmlns="http://www.w3.org/2000/svg">
<path fill-rule="evenodd" clip-rule="evenodd" d="M18 10C18 14.4183 14.4183 18 10 18C5.58172 18 2 14.4183 2 10C2 5.58172 5.58172 2 10 2C14.4183 2 18 5.58172 18 10ZM14.0353 15.096C12.9268 15.975 11.5247 16.5 10 16.5C6.41015 16.5 3.5 13.5899 3.5 10C3.5 8.47531 4.02496 7.07323 4.90399 5.96465L14.0353 15.096ZM15.096 14.0353L5.96465 4.90399C7.07323 4.02496 8.47531 3.5 10 3.5C13.5899 3.5 16.5 6.41015 16.5 10C16.5 11.5247 15.975 12.9268 15.096 14.0353Z" fill="black"/>
</svg>
