<svg width="20" height="20" viewBox="0 0 20 20" fill="none" xmlns="http://www.w3.org/2000/svg">
<path fill-rule="evenodd" clip-rule="evenodd" d="M10 16.5C13.5899 16.5 16.5 13.5899 16.5 10C16.5 6.41015 13.5899 3.5 10 3.5C6.41015 3.5 3.5 6.41015 3.5 10C3.5 13.5899 6.41015 16.5 10 16.5ZM10 18C14.4183 18 18 14.4183 18 10C18 5.58172 14.4183 2 10 2C5.58172 2 2 5.58172 2 10C2 14.4183 5.58172 18 10 18Z" fill="black"/>
<path fill-rule="evenodd" clip-rule="evenodd" d="M6 10C6 9.58579 6.33579 9.25 6.75 9.25H13.25C13.6642 9.25 14 9.58579 14 10C14 10.4142 13.6642 10.75 13.25 10.75H6.75C6.33579 10.75 6 10.4142 6 10Z" fill="black"/>
</svg>
