<svg width="20" height="20" viewBox="0 0 20 20" fill="none" xmlns="http://www.w3.org/2000/svg">
<path d="M10 5.25C10.4142 5.25001 10.75 5.5858 10.75 6.00001L10.7499 11C10.7499 11.4142 10.4141 11.75 9.99993 11.75C9.58572 11.75 9.24993 11.4142 9.24994 11L9.25 5.99999C9.25001 5.58578 9.5858 5.24999 10 5.25Z" fill="black"/>
<path d="M11 14C11 14.5523 10.5523 15 10 15C9.44772 15 9 14.5523 9 14C9 13.4477 9.44772 13 10 13C10.5523 13 11 13.4477 11 14Z" fill="black"/>
<path fill-rule="evenodd" clip-rule="evenodd" d="M18 10C18 14.4183 14.4183 18 10 18C5.58172 18 2 14.4183 2 10C2 5.58172 5.58172 2 10 2C14.4183 2 18 5.58172 18 10ZM16.5 10C16.5 13.5899 13.5899 16.5 10 16.5C6.41015 16.5 3.5 13.5899 3.5 10C3.5 6.41015 6.41015 3.5 10 3.5C13.5899 3.5 16.5 6.41015 16.5 10Z" fill="black"/>
</svg>
