<svg viewBox="0 0 20 20" fill="none" xmlns="http://www.w3.org/2000/svg"><path fill-rule="evenodd" clip-rule="evenodd" d="M5.75 4a3.75 3.75 0 0 0-3.75 3.75v4.5a3.75 3.75 0 0 0 3.75 3.75h5.5a.75.75 0 0 0 0-1.5h-5.5a2.25 2.25 0 0 1-2.25-2.25v-3.25h13v.25a.75.75 0 0 0 1.5 0v-1.5a3.75 3.75 0 0 0-3.75-3.75h-8.5Zm10.736 3.5a2.25 2.25 0 0 0-2.236-2h-8.5a2.25 2.25 0 0 0-2.236 2h12.972Z" fill="#000"/><path d="M5 12.25a.75.75 0 0 1 .75-.75h4a.75.75 0 0 1 0 1.5h-4a.75.75 0 0 1-.75-.75Z" fill="#000"/><path d="m17.47 11.47-4 4a.75.75 0 1 0 1.06 1.06l4-4a.75.75 0 1 0-1.06-1.06Z" fill="#000"/><path d="M15 12a1 1 0 1 1-2 0 1 1 0 0 1 2 0Z" fill="#000"/><path d="M18 17a1 1 0 1 0 0-2 1 1 0 0 0 0 2Z" fill="#000"/></svg>