<svg viewBox="0 0 20 20" fill="none" xmlns="http://www.w3.org/2000/svg"><path d="M2 6.75a2.75 2.75 0 0 1 2.75-2.75h10.5a2.75 2.75 0 0 1 2.75 2.75v.25a.75.75 0 0 1-1.5 0v-.25c0-.69-.56-1.25-1.25-1.25h-10.5c-.69 0-1.25.56-1.25 1.25v.75h7.25a.75.75 0 0 1 0 1.5h-7.25v4.25c0 .69.56 1.25 1.25 1.25h4.5a.75.75 0 0 1 0 1.5h-4.5a2.75 2.75 0 0 1-2.75-2.75v-6.5Z" fill="#000"/><path d="M5.75 11.5a.75.75 0 0 0 0 1.5h2a.75.75 0 0 0 0-1.5h-2Z" fill="#000"/><path fill-rule="evenodd" clip-rule="evenodd" d="M13 12a1 1 0 0 0-1 1v3a1 1 0 0 0 1 1h5a1 1 0 0 0 1-1v-3a1 1 0 0 0-1-1v-1a2 2 0 0 0-2-2h-1a2 2 0 0 0-2 2v1Zm3-1.5h-1a.5.5 0 0 0-.5.5v1h2v-1a.5.5 0 0 0-.5-.5Z" fill="#000"/></svg>