<svg viewBox="0 0 20 20" fill="none" xmlns="http://www.w3.org/2000/svg"><path d="M5.75 11.5a.75.75 0 0 0 0 1.5h4a.75.75 0 0 0 0-1.5h-4Z" fill="#000"/><path fill-rule="evenodd" clip-rule="evenodd" d="M2 7.75a3.75 3.75 0 0 1 3.75-3.75h8.5a3.75 3.75 0 0 1 3.75 3.75v4.5a3.75 3.75 0 0 1-3.75 3.75h-8.5a3.75 3.75 0 0 1-3.75-3.75v-4.5Zm12.25-2.25a2.25 2.25 0 0 1 2.194 1.75h-12.888a2.25 2.25 0 0 1 2.194-1.75h8.5Zm2.25 3.75h-13v3a2.25 2.25 0 0 0 2.25 2.25h8.5a2.25 2.25 0 0 0 2.25-2.25v-3Z" fill="#000"/></svg>