<svg viewBox="0 0 20 20" fill="none" xmlns="http://www.w3.org/2000/svg"><path d="M10.25 6.875a.75.75 0 0 1 .75-.75h5.014l-.81-.861a.75.75 0 0 1 1.092-1.028l2 2.125a.75.75 0 0 1 0 1.028l-2 2.125a.75.75 0 1 1-1.092-1.028l.81-.861h-5.014a.75.75 0 0 1-.75-.75Z" fill="#000"/><path d="M1.5 8.375a2.375 2.375 0 0 1 2.375-2.375h.375v-.75a.75.75 0 0 1 1.5 0v.75h1.03a.75.75 0 1 1 0 1.5h-2.905a.875.875 0 0 0 0 1.75h1.28a2.375 2.375 0 0 1 0 4.75h-.405v.75a.75.75 0 0 1-1.5 0v-.75h-1a.75.75 0 0 1 0-1.5h2.904a.875.875 0 1 0 0-1.75h-1.279a2.375 2.375 0 0 1-2.375-2.375Z" fill="#000"/><path d="M17.75 13.875a.75.75 0 0 0 0-1.5h-5.014l.81-.861a.75.75 0 0 0-1.092-1.028l-2 2.125a.75.75 0 0 0 0 1.028l2 2.125a.75.75 0 0 0 1.092-1.028l-.81-.861h5.014Z" fill="#000"/></svg>