<svg viewBox="0 0 20 20" fill="none" xmlns="http://www.w3.org/2000/svg"><path fill-rule="evenodd" clip-rule="evenodd" d="M10 3a3.5 3.5 0 1 0 0 7 3.5 3.5 0 0 0 0-7Zm-2 3.5a2 2 0 1 1 4 0 2 2 0 0 1-4 0Z" fill="#5C5F62"/><path fill-rule="evenodd" clip-rule="evenodd" d="M8.98 11a7.891 7.891 0 0 0-5.357 2.096 1.94 1.94 0 0 0-.623 1.425v.164a2.315 2.315 0 0 0 2.315 2.315h9.37a2.315 2.315 0 0 0 2.315-2.315v-.164a1.94 1.94 0 0 0-.623-1.425 7.891 7.891 0 0 0-5.356-2.096h-2.042Zm2.04 1.5c1.609 0 3.158.606 4.338 1.697.09.084.142.2.142.324v.164c0 .45-.365.815-.815.815h-9.37a.815.815 0 0 1-.815-.815v-.164a.44.44 0 0 1 .141-.324 6.392 6.392 0 0 1 4.338-1.697h2.042Z" fill="#5C5F62"/></svg>