<svg viewBox="0 0 20 20" fill="none" xmlns="http://www.w3.org/2000/svg"><path d="M13.5 6.75a.75.75 0 0 0-1.5 0v3.5a.75.75 0 0 0 1.5 0v-3.5Z" fill="#000"/><path d="M7.25 8.5a.75.75 0 0 1 .75.75v1a.75.75 0 0 1-1.5 0v-1a.75.75 0 0 1 .75-.75Z" fill="#000"/><path d="M10.75 8a.75.75 0 0 0-1.5 0v2.25a.75.75 0 0 0 1.5 0v-2.25Z" fill="#000"/><path fill-rule="evenodd" clip-rule="evenodd" d="M2.5 3.75a.75.75 0 0 1 .75-.75h13.5a.75.75 0 0 1 0 1.5h-.25v6.5a3 3 0 0 1-3 3h-.543l.754 2.263a.75.75 0 0 1-1.422.474l-.913-2.737h-2.752l-.913 2.737a.75.75 0 1 1-1.423-.474l.755-2.263h-.543a3 3 0 0 1-3-3v-6.5h-.25a.75.75 0 0 1-.75-.75Zm2.5.75h10v6.5a1.5 1.5 0 0 1-1.5 1.5h-7a1.5 1.5 0 0 1-1.5-1.5v-6.5Z" fill="#000"/></svg>