<svg viewBox="0 0 20 20" fill="none" xmlns="http://www.w3.org/2000/svg"><path d="M10 3a1 1 0 1 1-2 0 1 1 0 0 1 2 0Z" fill="#000"/><path d="m9.78 7.53 4-4a.75.75 0 0 0-1.06-1.06l-4 4a.75.75 0 0 0 1.06 1.06Z" fill="#000"/><path d="M3.75 3a.75.75 0 0 0 0 1.5h1.336l.802 6.581.003.021.365 2.989a.75.75 0 0 0 .744.659h8.25a.75.75 0 0 0 0-1.5h-7.586l-.183-1.5h8.269a.75.75 0 0 0 .742-.644l.75-5.25a.75.75 0 0 0-1.485-.212l-.657 4.606h-7.802l-.804-6.59a.75.75 0 0 0-.744-.66h-2Z" fill="#000"/><path d="M8 17.5a1 1 0 1 0 0-2 1 1 0 0 0 0 2Z" fill="#000"/><path d="M15 16.5a1 1 0 1 1-2 0 1 1 0 0 1 2 0Z" fill="#000"/><path d="M13 8a1 1 0 1 0 0-2 1 1 0 0 0 0 2Z" fill="#000"/></svg>