<svg viewBox="0 0 20 20" fill="none" xmlns="http://www.w3.org/2000/svg"><path fill-rule="evenodd" clip-rule="evenodd" d="M2 9.75c0-.06.004-.12.011-.177a8 8 0 0 1 15.978 0 1.396 1.396 0 0 1 .009.235l.002.192c0 .374-.026.742-.075 1.102a.75.75 0 0 1-1.486-.204 6.552 6.552 0 0 0 .058-1.109.824.824 0 0 0-.2-.15c-.268-.158-.71-.32-1.335-.46-.435-.098-.934-.18-1.485-.246.005.117.01.235.013.353a.75.75 0 0 1-1.5.042 22.375 22.375 0 0 0-.02-.524 34.621 34.621 0 0 0-1.97-.054c-.688 0-1.348.018-1.97.054a22.932 22.932 0 0 0 .063 3.244 36.532 36.532 0 0 1 1.907-.048.75.75 0 0 1 0 1.5c-.589 0-1.156.013-1.695.04.097.494.215.943.354 1.337.213.602.457 1.028.703 1.292.234.251.443.331.638.331.305 0 .604-.02.898-.061a.75.75 0 0 1 .204 1.486 8 8 0 0 1-9.1-8.116.76.76 0 0 1-.002-.059Zm5.496-5.75a6.519 6.519 0 0 0-3.668 3.957 8.99 8.99 0 0 1 .881-.242c.57-.128 1.222-.23 1.933-.304.121-1.041.321-1.99.603-2.787.076-.216.16-.425.251-.624Zm-.899 8.165a24.7 24.7 0 0 1-.075-3.232c-.55.066-1.049.148-1.484.245-.625.14-1.068.303-1.336.462a.823.823 0 0 0-.199.15l-.003.21c0 .938.199 1.83.556 2.634.698-.208 1.565-.364 2.541-.469Zm-1.743 1.807c.542-.134 1.2-.241 1.946-.32.114.628.262 1.208.445 1.724.076.216.16.425.251.624a6.52 6.52 0 0 1-2.642-2.028Zm7.65-9.972a6.519 6.519 0 0 1 3.668 3.957 8.997 8.997 0 0 0-.881-.242 17.12 17.12 0 0 0-1.933-.304c-.134-1.148-.364-2.187-.695-3.035a6.834 6.834 0 0 0-.16-.376Zm-1.238.922c.249.637.44 1.444.566 2.372a36.666 36.666 0 0 0-1.832-.044c-.629 0-1.243.015-1.832.044.112-.83.278-1.566.491-2.17.213-.603.457-1.03.703-1.293.234-.251.443-.331.638-.331.344 0 .826.294 1.266 1.422Z" fill="#5C5F62"/><path d="M11.61 10.973a.5.5 0 0 0-.637.637l2.121 6.01a.5.5 0 0 0 .871.135l1.172-1.558 1.038 1.038a.5.5 0 0 0 .707 0l.353-.354a.5.5 0 0 0 0-.707l-1.037-1.037 1.558-1.172a.5.5 0 0 0-.135-.871l-6.01-2.121Z" fill="#5C5F62"/></svg>