<svg viewBox="0 0 20 20" fill="none" xmlns="http://www.w3.org/2000/svg"><path d="M3 5.75a2.75 2.75 0 0 1 2.75-2.75.75.75 0 0 1 0 1.5c-.69 0-1.25.56-1.25 1.25a.75.75 0 0 1-1.5 0Z" fill="#000"/><path d="M5.75 17a2.75 2.75 0 0 1-2.75-2.75.75.75 0 0 1 1.5 0c0 .69.56 1.25 1.25 1.25a.75.75 0 0 1 0 1.5Z" fill="#000"/><path d="M17 5.75a2.75 2.75 0 0 0-2.75-2.75.75.75 0 0 0 0 1.5c.69 0 1.25.56 1.25 1.25a.75.75 0 0 0 1.5 0Z" fill="#000"/><path d="M3.75 8.25a.75.75 0 0 1 .75.75v2a.75.75 0 0 1-1.5 0v-2a.75.75 0 0 1 .75-.75Z" fill="#000"/><path d="M11 4.5a.75.75 0 0 0 0-1.5h-2a.75.75 0 0 0 0 1.5h2Z" fill="#000"/><path d="M7 8.75c0-.966.784-1.75 1.75-1.75h4.5c.966 0 1.75.784 1.75 1.75v.75a.75.75 0 0 1-1.5 0v-.75a.25.25 0 0 0-.25-.25h-4.5a.25.25 0 0 0-.25.25v4.5c0 .138.112.25.25.25h.75a.75.75 0 0 1 0 1.5h-.75a1.75 1.75 0 0 1-1.75-1.75v-4.5Z" fill="#000"/><path d="M11.36 10.723a.5.5 0 0 0-.637.638l2.121 6.01a.5.5 0 0 0 .871.135l1.172-1.558 1.038 1.037a.5.5 0 0 0 .707 0l.353-.353a.5.5 0 0 0 0-.707l-1.037-1.038 1.558-1.171a.5.5 0 0 0-.135-.872l-6.01-2.12Z" fill="#000"/></svg>