<svg width="20" height="20" viewBox="0 0 20 20" fill="none" xmlns="http://www.w3.org/2000/svg">
<path d="M13 4.5H7C6.72386 4.5 6.5 4.72386 6.5 5V10L5 9.03571V5C5 3.89543 5.89543 3 7 3H13C14.1046 3 15 3.89543 15 5V9.03571L13.5 10V5C13.5 4.72386 13.2761 4.5 13 4.5Z" fill="black"/>
<path fill-rule="evenodd" clip-rule="evenodd" d="M4.54076 8.74054L10 12.25L15.4592 8.74054C16.1248 8.31271 17 8.79055 17 9.58171V14C17 15.6569 15.6569 17 14 17H6C4.34315 17 3 15.6569 3 14V9.58171C3 8.79055 3.87525 8.31271 4.54076 8.74054ZM4.5 10.4975L10 14.0333L15.5 10.4975V14C15.5 14.8285 14.8284 15.5 14 15.5H6C5.17157 15.5 4.5 14.8285 4.5 14V10.4975Z" fill="black"/>
<path d="M7.75 6.5C7.75 6.08579 8.08579 5.75 8.5 5.75H11.5C11.9142 5.75 12.25 6.08579 12.25 6.5C12.25 6.91421 11.9142 7.25 11.5 7.25H8.5C8.08579 7.25 7.75 6.91421 7.75 6.5Z" fill="black"/>
<path d="M8.5 8.5C8.08579 8.5 7.75 8.83579 7.75 9.25C7.75 9.66421 8.08579 10 8.5 10H11.5C11.9142 10 12.25 9.66421 12.25 9.25C12.25 8.83579 11.9142 8.5 11.5 8.5H8.5Z" fill="black"/>
</svg>
