<svg width="20" height="20" viewBox="0 0 20 20" fill="none" xmlns="http://www.w3.org/2000/svg">
<path d="M13 3.25C13 3.66421 13.3358 4 13.75 4H14.9393L9.96967 8.96967C9.67678 9.26256 9.67678 9.73744 9.96967 10.0303C10.2626 10.3232 10.7374 10.3232 11.0303 10.0303L16 5.06066V6.25C16 6.66421 16.3358 7 16.75 7C17.1642 7 17.5 6.66421 17.5 6.25V3.25C17.5 2.83579 17.1642 2.5 16.75 2.5H13.75C13.3358 2.5 13 2.83579 13 3.25Z" fill="black"/>
<path d="M16.5 10.25C16.5 9.83579 16.1642 9.5 15.75 9.5C15.3358 9.5 15 9.83579 15 10.25V12.75C15 13.9926 13.9926 15 12.75 15H7.25C6.00736 15 5 13.9926 5 12.75L5 7.25C5 6.00736 6.00736 5 7.25 5L9.75 5C10.1642 5 10.5 4.66421 10.5 4.25C10.5 3.83579 10.1642 3.5 9.75 3.5L7.25 3.5C5.17893 3.5 3.5 5.17893 3.5 7.25V12.75C3.5 14.8211 5.17893 16.5 7.25 16.5H12.75C14.8211 16.5 16.5 14.8211 16.5 12.75V10.25Z" fill="black"/>
</svg>
