<svg width="20" height="20" viewBox="0 0 20 20" fill="none" xmlns="http://www.w3.org/2000/svg">
<path d="M2 6C2 5.58579 2.33579 5.25 2.75 5.25H17.25C17.6642 5.25 18 5.58579 18 6C18 6.41421 17.6642 6.75 17.25 6.75H2.75C2.33579 6.75 2 6.41421 2 6Z" fill="black"/>
<path d="M6.75 14C6.75 13.5858 7.08579 13.25 7.5 13.25H12.5C12.9142 13.25 13.25 13.5858 13.25 14C13.25 14.4142 12.9142 14.75 12.5 14.75H7.5C7.08579 14.75 6.75 14.4142 6.75 14Z" fill="black"/>
<path d="M5.5 9.25C5.08579 9.25 4.75 9.58579 4.75 10C4.75 10.4142 5.08579 10.75 5.5 10.75H14.5C14.9142 10.75 15.25 10.4142 15.25 10C15.25 9.58579 14.9142 9.25 14.5 9.25H5.5Z" fill="black"/>
</svg>
