<svg viewBox="0 0 20 20" fill="none" xmlns="http://www.w3.org/2000/svg"><path fill-rule="evenodd" clip-rule="evenodd" d="M14.08 4h-5.41c-.535 0-.98 0-1.345.03-.38.03-.736.098-1.073.27a2.75 2.75 0 0 0-1.202 1.202c-.172.337-.24.693-.27 1.073-.005.062-.01.126-.013.192l-.192.013c-.38.03-.736.098-1.073.27a2.75 2.75 0 0 0-1.202 1.202c-.172.337-.24.693-.27 1.073-.03.365-.03.81-.03 1.345v1.41c0 .535 0 .98.03 1.345.03.38.098.736.27 1.073a2.75 2.75 0 0 0 1.202 1.202c.337.172.693.24 1.073.27.365.03.81.03 1.345.03h5.66c.535 0 .98 0 1.345-.03.38-.03.736-.098 1.073-.27a2.751 2.751 0 0 0 1.202-1.201c.172-.338.24-.694.27-1.074a7.14 7.14 0 0 0 .014-.21c.358-.033.695-.102 1.014-.265a2.751 2.751 0 0 0 1.202-1.201c.172-.338.24-.694.27-1.074.03-.365.03-.81.03-1.344v-1.411c0-.535 0-.98-.03-1.345-.03-.38-.098-.736-.27-1.073a2.75 2.75 0 0 0-1.201-1.202c-.338-.172-.694-.24-1.074-.27-.365-.03-.81-.03-1.345-.03Zm-3.094 10.5h.564c.572 0 .957 0 1.252-.025.288-.023.425-.065.516-.111a1.25 1.25 0 0 0 .546-.546c.046-.091.088-.228.111-.515.024-.296.025-.68.025-1.253v-1.35c0-.572 0-.957-.025-1.253-.023-.287-.065-.424-.111-.514a1.25 1.25 0 0 0-.546-.547c-.091-.046-.228-.088-.515-.111-.296-.024-.68-.025-1.253-.025h-.725c.57.82.925 1.972.925 3.25 0 1.152-.289 2.204-.764 3Zm-4.311-6.25c-.57.82-.925 1.972-.925 3.25 0 1.152.289 2.204.764 3h-.564c-.572 0-.957 0-1.253-.025-.287-.023-.424-.065-.514-.111a1.25 1.25 0 0 1-.547-.546c-.046-.091-.088-.228-.111-.515-.024-.296-.025-.68-.025-1.253v-1.35c0-.572 0-.957.025-1.253.023-.287.065-.424.111-.514a1.25 1.25 0 0 1 .547-.547c.09-.046.227-.088.514-.111.296-.024.68-.025 1.253-.025h.725Zm2.075 6.25c-.17 0-.51-.104-.873-.65-.357-.536-.627-1.362-.627-2.35s.27-1.814.627-2.35c.364-.546.702-.65.873-.65.17 0 .51.104.873.65.357.536.627 1.362.627 2.35s-.27 1.814-.627 2.35c-.364.546-.702.65-.873.65Zm2.83-7.75h-5.31l.005-.053c.023-.287.065-.424.111-.514a1.25 1.25 0 0 1 .547-.547c.09-.046.227-.088.514-.111.296-.024.68-.025 1.253-.025h5.35c.572 0 .957 0 1.252.025.288.023.425.065.516.111.235.12.426.311.546.547.046.09.088.227.111.514.024.296.025.68.025 1.253v1.35c0 .572 0 .957-.025 1.252-.023.288-.065.425-.111.516a1.25 1.25 0 0 1-.546.546 1.009 1.009 0 0 1-.318.09v.377-1.412c0-.534 0-.98-.03-1.344-.03-.38-.098-.736-.27-1.073a2.75 2.75 0 0 0-1.201-1.202c-.338-.172-.694-.24-1.074-.27-.365-.03-.81-.03-1.345-.03Z" fill="#000"/></svg>