<svg viewBox="0 0 20 20" fill="none" xmlns="http://www.w3.org/2000/svg"><path d="m8.795 8.44.705-.303v3.863h-1a.75.75 0 0 0 0 1.5h3.5a.75.75 0 0 0 0-1.5h-1v-4.242a1.25 1.25 0 0 0-1.742-1.149l-1.053.452a.75.75 0 0 0 .59 1.378Z" fill="#000"/><path fill-rule="evenodd" clip-rule="evenodd" d="M12.209 3.264c-.867-1.889-3.55-1.889-4.418 0a.93.93 0 0 1-1.169.484c-1.949-.722-3.846 1.175-3.124 3.124a.93.93 0 0 1-.484 1.17c-1.889.866-1.889 3.55 0 4.417a.93.93 0 0 1 .484 1.169c-.722 1.948 1.175 3.846 3.124 3.124a.93.93 0 0 1 1.17.484c.866 1.889 3.55 1.889 4.417 0a.93.93 0 0 1 1.169-.484c1.949.722 3.846-1.175 3.124-3.124a.93.93 0 0 1 .484-1.17c1.889-.866 1.889-3.55 0-4.417a.93.93 0 0 1-.484-1.169c.722-1.949-1.175-3.846-3.124-3.124a.93.93 0 0 1-1.17-.484Zm-3.055.626a.93.93 0 0 1 1.692 0 2.43 2.43 0 0 0 3.053 1.265.93.93 0 0 1 1.196 1.196 2.43 2.43 0 0 0 1.265 3.053.93.93 0 0 1 0 1.692 2.43 2.43 0 0 0-1.265 3.053.93.93 0 0 1-1.196 1.196 2.43 2.43 0 0 0-3.053 1.265.93.93 0 0 1-1.692 0 2.43 2.43 0 0 0-3.053-1.265.93.93 0 0 1-1.196-1.196 2.43 2.43 0 0 0-1.265-3.053.93.93 0 0 1 0-1.692 2.43 2.43 0 0 0 1.265-3.053.93.93 0 0 1 1.196-1.196 2.43 2.43 0 0 0 3.053-1.265Z" fill="#000"/></svg>