<svg viewBox="0 0 20 20" fill="none" xmlns="http://www.w3.org/2000/svg"><path fill-rule="evenodd" clip-rule="evenodd" d="M4.34 8.457a.75.75 0 0 1 .56.9l-.206.893h2.265c.795 0 1.501.509 1.753 1.263.047.142.18.237.329.237h1.918c.15 0 .282-.095.33-.237a1.847 1.847 0 0 1 1.752-1.263h2.265l-.207-.893a.75.75 0 0 1 1.462-.339l.42 1.813c.012.055.019.112.019.169v2.25a3.75 3.75 0 0 1-3.75 3.75h-6.5a3.75 3.75 0 0 1-3.75-3.75v-2.25a.75.75 0 0 1 .02-.17l.42-1.812a.75.75 0 0 1 .9-.561Zm11.16 3.293h-2.46a.347.347 0 0 0-.329.237 1.847 1.847 0 0 1-1.752 1.263h-1.918c-.795 0-1.501-.509-1.753-1.263a.347.347 0 0 0-.329-.237h-2.459v1.5a2.25 2.25 0 0 0 2.25 2.25h6.5a2.25 2.25 0 0 0 2.25-2.25v-1.5Z" fill="#5C5F62"/><path fill-rule="evenodd" clip-rule="evenodd" d="m9.776 5.168-.52 3.985a.75.75 0 1 0 1.488.194l.719-5.515a.85.85 0 0 0-1.353-.79l-1.81 1.358a.75.75 0 1 0 .9 1.2l.576-.432Z" fill="#5C5F62"/><path fill-rule="evenodd" clip-rule="evenodd" d="M14.78 2.72a.75.75 0 0 1 0 1.06l-.5.5a.75.75 0 1 1-1.06-1.06l.5-.5a.75.75 0 0 1 1.06 0Zm2.182 3.293a.75.75 0 0 1-.475.949l-1.5.5a.75.75 0 0 1-.474-1.424l1.5-.5a.75.75 0 0 1 .948.475Z" fill="#5C5F62"/><path fill-rule="evenodd" clip-rule="evenodd" d="M5.22 2.72a.75.75 0 0 0 0 1.06l.5.5a.75.75 0 0 0 1.06-1.06l-.5-.5a.75.75 0 0 0-1.06 0Zm-2.182 3.293a.75.75 0 0 0 .475.949l1.5.5a.75.75 0 1 0 .474-1.424l-1.5-.5a.75.75 0 0 0-.949.475Z" fill="#5C5F62"/></svg>