<svg viewBox="0 0 20 20" fill="none" xmlns="http://www.w3.org/2000/svg"><path fill-rule="evenodd" clip-rule="evenodd" d="M2 7.75a3.75 3.75 0 0 1 3.75-3.75h8.5a3.75 3.75 0 0 1 3.75 3.75v1a.75.75 0 0 1-1.5 0v-1c0-.43-.12-.833-.33-1.174l-5.45 3.835a1.25 1.25 0 0 1-1.44 0l-5.45-3.835a2.24 2.24 0 0 0-.33 1.174v4.5a2.25 2.25 0 0 0 2.25 2.25h4a.75.75 0 0 1 0 1.5h-4a3.75 3.75 0 0 1-3.75-3.75v-4.5Zm3.061-2.143 4.939 3.476 4.939-3.476a2.248 2.248 0 0 0-.689-.107h-8.5c-.24 0-.472.038-.689.107Z" fill="#000"/><path d="M12 14a.75.75 0 0 1 .75-.75h3.83l-.89-1.002a.75.75 0 0 1 1.12-.996l2 2.25a.75.75 0 0 1 0 .996l-2 2.25a.75.75 0 0 1-1.12-.996l.89-1.002h-3.83a.75.75 0 0 1-.75-.75Z" fill="#000"/></svg>