<svg viewBox="0 0 20 20" fill="none" xmlns="http://www.w3.org/2000/svg"><path fill-rule="evenodd" clip-rule="evenodd" d="M5.75 4a3.75 3.75 0 0 0-3.75 3.75v4.5a3.75 3.75 0 0 0 3.75 3.75h8.5a3.75 3.75 0 0 0 3.75-3.75v-4.5a3.75 3.75 0 0 0-3.75-3.75h-8.5Zm-.689 1.607c.217-.07.449-.107.689-.107h8.5c.24 0 .472.038.689.107l-4.939 3.476-4.939-3.476Zm-1.23.969a2.24 2.24 0 0 0-.331 1.174v4.5a2.25 2.25 0 0 0 2.25 2.25h8.5a2.25 2.25 0 0 0 2.25-2.25v-4.5c0-.43-.12-.833-.33-1.174l-5.45 3.835a1.25 1.25 0 0 1-1.44 0l-5.45-3.835Z" fill="#000"/></svg>