<svg width="20" height="20" viewBox="0 0 20 20" fill="none" xmlns="http://www.w3.org/2000/svg">
<path fill-rule="evenodd" clip-rule="evenodd" d="M5.5 4.75C5.5 4.05964 6.05964 3.5 6.75 3.5H9.25V7C9.25 7.9665 10.0335 8.75 11 8.75H14.5V10.5C14.5 10.9142 14.8358 11.25 15.25 11.25C15.6642 11.25 16 10.9142 16 10.5V8C16 7.80109 15.921 7.61032 15.7803 7.46967L10.5303 2.21967C10.3897 2.07902 10.1989 2 10 2H6.75C5.23122 2 4 3.23122 4 4.75V15.25C4 16.7688 5.23122 18 6.75 18H8.75C9.16421 18 9.5 17.6642 9.5 17.25C9.5 16.8358 9.16421 16.5 8.75 16.5H6.75C6.05964 16.5 5.5 15.9404 5.5 15.25V4.75ZM13.4393 7.25L10.75 4.56066V7C10.75 7.13807 10.8619 7.25 11 7.25H13.4393Z" fill="black"/>
<path d="M14.75 13.5C14.75 13.0858 14.4142 12.75 14 12.75C13.5858 12.75 13.25 13.0858 13.25 13.5V16.5799L12.2483 15.6894C11.9387 15.4143 11.4646 15.4421 11.1895 15.7517C10.9143 16.0613 10.9421 16.5354 11.2517 16.8106L13.5017 18.8106C13.7859 19.0631 14.2141 19.0631 14.4983 18.8106L16.7483 16.8106C17.0579 16.5354 17.0858 16.0613 16.8106 15.7517C16.5354 15.4421 16.0613 15.4143 15.7517 15.6894L14.75 16.5799V13.5Z" fill="black"/>
</svg>
