<svg viewBox="0 0 20 20" fill="none" xmlns="http://www.w3.org/2000/svg"><path fill-rule="evenodd" clip-rule="evenodd" d="m15.383 5.588.936-.936a.75.75 0 1 0-1.06-1.061l-11.668 11.667a.75.75 0 0 0 1.06 1.06l1.419-1.417a12.666 12.666 0 0 0 3.168 2.55 1.56 1.56 0 0 0 1.524 0c1.403-.781 5.892-3.753 6.22-9.996a1.704 1.704 0 0 0-1.093-1.669l-.42-.164a13.963 13.963 0 0 1-.086-.034Zm-1.145 1.144-7.106 7.107a11.106 11.106 0 0 0 2.836 2.301c.013.007.024.01.032.01a.066.066 0 0 0 .032-.01c1.247-.694 5.165-3.3 5.451-8.764.004-.065-.038-.152-.142-.193l-.42-.165c-.23-.09-.458-.185-.683-.286Z" fill="#000"/><path d="M3.019 7.455c.102 1.958.614 3.594 1.312 4.942l1.123-1.123a10.603 10.603 0 0 1-.937-3.898c-.004-.065.038-.152.142-.193l.42-.165a16.354 16.354 0 0 0 4.773-2.894.225.225 0 0 1 .296 0c.44.384.901.743 1.379 1.077l1.079-1.08a14.854 14.854 0 0 1-1.473-1.128 1.725 1.725 0 0 0-2.266 0 14.854 14.854 0 0 1-4.336 2.629l-.42.164a1.704 1.704 0 0 0-1.092 1.669Z" fill="#000"/></svg>