<svg viewBox="0 0 20 20" fill="none" xmlns="http://www.w3.org/2000/svg"><path d="M8.867 2.993a1.725 1.725 0 0 1 2.266 0 14.853 14.853 0 0 0 4.336 2.629l.42.164c.662.26 1.132.912 1.092 1.669-.03.588-.099 1.149-.198 1.683a.75.75 0 1 1-1.475-.275c.088-.469.148-.964.175-1.487.004-.065-.038-.152-.142-.193l-.42-.165a16.355 16.355 0 0 1-4.773-2.894.225.225 0 0 0-.296 0 16.354 16.354 0 0 1-4.773 2.894l-.42.165c-.104.04-.146.128-.142.193.17 3.254 1.622 5.485 3.036 6.913.71.716 1.409 1.228 1.928 1.56a8.942 8.942 0 0 0 .781.446l.022.01a.875.875 0 0 0 .016.008l.007.003a.75.75 0 0 1-.614 1.369l.307-.685-.307.685-.001-.001-.002-.001-.006-.003-.018-.008a6.666 6.666 0 0 1-.27-.136 10.448 10.448 0 0 1-.722-.423 12.824 12.824 0 0 1-2.186-1.769c-1.61-1.625-3.275-4.187-3.47-7.89a1.704 1.704 0 0 1 1.093-1.668l.42-.164a14.854 14.854 0 0 0 4.336-2.63Z" fill="#000"/><path d="M17.722 16.988a2.768 2.768 0 0 0-2.455-1.488h-.034a2.768 2.768 0 0 0-2.455 1.488.692.692 0 0 0 .614 1.012h3.716c.52 0 .854-.551.614-1.012Z" fill="#000"/><path d="M15.25 14.5a1.5 1.5 0 1 0 0-3 1.5 1.5 0 0 0 0 3Z" fill="#000"/></svg>