<svg viewBox="0 0 20 20" fill="none" xmlns="http://www.w3.org/2000/svg"><path fill-rule="evenodd" clip-rule="evenodd" d="M10 18a8 8 0 1 0 .005-16 8 8 0 0 0-.007 16h.002Zm.001-1.5c.195 0 .404-.08.637-.331.246-.264.49-.69.703-1.292a10.61 10.61 0 0 0 .455-1.92 36.81 36.81 0 0 1-1.796.043c-.617 0-1.218-.014-1.796-.042.11.728.264 1.376.455 1.919.213.602.457 1.028.703 1.292.234.251.443.331.638.331h.001Zm-.001-5c.682 0 1.337-.018 1.955-.053.03-.464.045-.948.045-1.447 0-.537-.018-1.055-.052-1.55a36.38 36.38 0 0 1-1.948.05c-.672 0-1.325-.017-1.948-.05a22.413 22.413 0 0 0-.052 1.55c0 .5.015.983.045 1.447.618.035 1.273.053 1.955.053Zm-1.782-4.544c.109-.693.257-1.312.441-1.833.213-.602.457-1.028.703-1.292.234-.251.443-.331.638-.331s.404.08.638.331c.246.264.49.69.703 1.292.184.521.332 1.14.441 1.833-.567.03-1.164.044-1.782.044a35.09 35.09 0 0 1-1.782-.044Zm5.225 1.374a24.42 24.42 0 0 1 .022 2.988c.404-.047.78-.104 1.125-.17.605-.114 1.086-.251 1.432-.4.278-.12.408-.22.46-.273a6.488 6.488 0 0 0-.361-2.664c-.63.205-1.395.357-2.232.466-.146.019-.294.037-.446.053Zm2.002-1.881c-.465.134-1.053.25-1.75.34-.135.018-.272.035-.413.05a12.123 12.123 0 0 0-.527-2.215 7.319 7.319 0 0 0-.251-.624 6.524 6.524 0 0 1 2.941 2.449Zm-8.727.39c-.14-.015-.278-.032-.413-.05a12.143 12.143 0 0 1-1.75-.34 6.524 6.524 0 0 1 2.941-2.45c-.092.2-.175.41-.251.625a12.13 12.13 0 0 0-.527 2.215Zm-2.84.971c.63.206 1.396.358 2.234.467.145.019.293.037.445.053a24.38 24.38 0 0 0-.022 2.988c-.404-.047-.78-.104-1.125-.17-.606-.114-1.086-.251-1.432-.4-.278-.12-.408-.22-.46-.273a6.489 6.489 0 0 1 .361-2.665Zm8.877 7.566c.259-.732.448-1.592.572-2.533a18.741 18.741 0 0 0 1.542-.22c.434-.083.839-.18 1.202-.296a6.522 6.522 0 0 1-3.567 3.673c.092-.2.175-.408.251-.624Zm-5.259.624a6.522 6.522 0 0 1-3.567-3.673c.363.116.768.213 1.202.295.47.09.989.163 1.542.22.124.942.313 1.802.572 2.534.076.216.16.425.251.624Z" fill="#5C5F62"/></svg>