<svg viewBox="0 0 20 20" fill="none" xmlns="http://www.w3.org/2000/svg"><path fill-rule="evenodd" clip-rule="evenodd" d="m3.591 15.258 11.667-11.667a.75.75 0 1 1 1.06 1.06l-1.358 1.36c1.852 1.51 3.04 3.413 3.04 3.989 0 1-3.582 6-8 6-1.387 0-2.692-.493-3.83-1.2l-1.518 1.519a.75.75 0 0 1-1.061-1.06Zm10.302-8.18-1.342 1.342a3 3 0 0 1-4.13 4.13l-1.156 1.155c.871.49 1.802.795 2.735.795 1.655 0 3.301-.957 4.624-2.213a10.607 10.607 0 0 0 1.498-1.758 5.19 5.19 0 0 0 .313-.53 5.193 5.193 0 0 0-.313-.528 10.61 10.61 0 0 0-1.498-1.758 10.764 10.764 0 0 0-.731-.636Zm-2.464 2.464-1.887 1.887a1.499 1.499 0 0 0 1.958-1.43c0-.159-.025-.313-.071-.457Zm5.093.26v-.002l-.001.006.001-.005Z" fill="#000"/><path d="M3.849 12.879c-1.155-1.223-1.849-2.439-1.849-2.88 0-1 3.582-6 8-6 .797 0 1.566.164 2.293.436l-1.198 1.198a4.7 4.7 0 0 0-1.095-.133c-1.655 0-3.301.956-4.624 2.213a10.605 10.605 0 0 0-1.498 1.758 5.2 5.2 0 0 0-.313.529c.068.136.171.316.313.53.255.383.604.831 1.032 1.288l-1.061 1.061Z" fill="#000"/><path d="M7.013 9.715a3 3 0 0 1 2.702-2.702l-2.702 2.702Z" fill="#000"/></svg>