<svg width="20" height="20" viewBox="0 0 20 20" fill="none" xmlns="http://www.w3.org/2000/svg">
<path fill-rule="evenodd" clip-rule="evenodd" d="M8.40901 3.53035C9.28769 2.65167 10.7123 2.65167 11.591 3.53035L15.9017 7.84101C16.6049 8.54427 17 9.4981 17 10.4927V14.25C17 15.7688 15.7688 17 14.25 17H12.5C11.6716 17 11 16.3284 11 15.5V13H9V15.5C9 16.3284 8.32843 17 7.5 17H5.75C4.23122 17 3 15.7688 3 14.25V10.4927C3 9.4981 3.39509 8.54427 4.09835 7.84101L8.40901 3.53035ZM10.5303 4.59101C10.2374 4.29811 9.76256 4.29811 9.46967 4.59101L5.15901 8.90167C4.73705 9.32362 4.5 9.89592 4.5 10.4927V14.25C4.5 14.9404 5.05964 15.5 5.75 15.5H7.5V13C7.5 12.1716 8.17157 11.5 9 11.5H11C11.8284 11.5 12.5 12.1716 12.5 13V15.5H14.25C14.9404 15.5 15.5 14.9404 15.5 14.25V10.4927C15.5 9.89592 15.2629 9.32363 14.841 8.90167L10.5303 4.59101Z" fill="black"/>
</svg>
