<svg viewBox="0 0 20 20" fill="none" xmlns="http://www.w3.org/2000/svg"><path fill-rule="evenodd" clip-rule="evenodd" d="m9.11 15-.508.872a.75.75 0 0 0 .648 1.128h7a.75.75 0 0 0 .648-1.128l-.883-1.513a2.744 2.744 0 0 0 .985-2.109v-5.5a2.75 2.75 0 0 0-2.75-2.75h-5.377a3.5 3.5 0 0 0-5.854 3.834.753.753 0 0 0-.019.166v4.25a2.75 2.75 0 0 0 2.75 2.75h3.36Zm-1.11-9a2 2 0 1 1-4 0 2 2 0 0 1 4 0Zm1.5 0a3.5 3.5 0 0 1-5 3.163v3.087c0 .69.56 1.25 1.25 1.25h4.236l2.116-3.628a.75.75 0 0 1 1.296 0l1.836 3.149c.167-.213.266-.48.266-.771v-5.5c0-.69-.56-1.25-1.25-1.25h-4.785c.023.163.035.33.035.5Zm3.25 5.739 2.194 3.761h-4.388l2.194-3.761Z" fill="#000"/></svg>