<svg width="14" height="15" viewBox="0 0 14 15" fill="none" xmlns="http://www.w3.org/2000/svg">
<path d="M7.75 1.25C7.75 0.835787 7.41422 0.5 7 0.5C6.58579 0.5 6.25 0.835787 6.25 1.25V9.03701L4.25871 7.1989C3.95435 6.91794 3.47985 6.93692 3.1989 7.24129C2.91795 7.54566 2.93693 8.02015 3.24129 8.3011L6.49129 11.3011C6.77859 11.5663 7.22142 11.5663 7.50871 11.3011L10.7587 8.3011C11.0631 8.02015 11.0821 7.54566 10.8011 7.24129C10.5202 6.93692 10.0457 6.91794 9.74129 7.1989L7.75 9.03701L7.75 1.25Z" fill="black"/>
<path d="M14 11.75C14 11.3358 13.6642 11 13.25 11C12.8358 11 12.5 11.3358 12.5 11.75V12.25C12.5 12.9404 11.9404 13.5 11.25 13.5L2.75 13.5C2.05964 13.5 1.5 12.9404 1.5 12.25V11.75C1.5 11.3358 1.16421 11 0.75 11C0.335787 11 0 11.3358 0 11.75V12.25C0 13.7688 1.23122 15 2.75 15L11.25 15C12.7688 15 14 13.7688 14 12.25V11.75Z" fill="black"/>
</svg>
