<svg viewBox="0 0 20 20" fill="none" xmlns="http://www.w3.org/2000/svg"><path fill-rule="evenodd" clip-rule="evenodd" d="M7.518 4h4.964c.813 0 1.469 0 2 .043.546.045 1.026.14 1.47.366a3.75 3.75 0 0 1 1.64 1.639c.226.444.32.924.365 1.47.043.531.043 1.187.043 2v.964c0 .813 0 1.469-.043 2-.045.546-.14 1.026-.366 1.47a3.75 3.75 0 0 1-1.639 1.64c-.444.226-.924.32-1.47.365-.531.043-1.187.043-2 .043h-4.964c-.813 0-1.469 0-2-.043-.546-.045-1.026-.14-1.47-.366a3.75 3.75 0 0 1-1.64-1.638c-.226-.445-.32-.925-.365-1.471-.043-.531-.043-1.187-.043-2v-.964c0-.813 0-1.469.043-2 .045-.546.14-1.026.366-1.47a3.75 3.75 0 0 1 1.639-1.64c.444-.226.924-.32 1.47-.365.531-.043 1.187-.043 2-.043Zm-1.877 1.538c-.454.037-.715.107-.912.207a2.25 2.25 0 0 0-.984.984c-.1.197-.17.458-.207.912-.037.462-.038 1.057-.038 1.909v.9c0 .853 0 1.447.038 1.91.034.41.094.663.18.854a6.5 6.5 0 0 1 8.905 1.286c.761 0 1.306-.003 1.736-.038.454-.037.715-.107.912-.207.424-.216.768-.56.984-.984.1-.197.17-.458.207-.912.037-.462.038-1.056.038-1.909v-.9c0-.852 0-1.447-.038-1.91-.038-.453-.107-.714-.207-.911a2.25 2.25 0 0 0-.983-.984c-.198-.1-.459-.17-.913-.207-.462-.037-1.056-.038-1.909-.038h-4.9c-.852 0-1.447 0-1.91.038Zm4.859 8.962a4.989 4.989 0 0 0-2.313-.953 4.999 4.999 0 0 0-3.384.743c.189.082.439.139.838.172.462.037 1.057.038 1.909.038h2.95Zm1-3.25a.75.75 0 0 1 .75-.75h2a.75.75 0 0 1 0 1.5h-2a.75.75 0 0 1-.75-.75Zm.75-3.25a.75.75 0 0 0 0 1.5h2a.75.75 0 0 0 0-1.5h-2Zm-4.75 1.75a1 1 0 1 0 0-2 1 1 0 0 0 0 2Zm0 1.5a2.5 2.5 0 1 0 0-5 2.5 2.5 0 0 0 0 5Z" fill="#000"/></svg>