<svg viewBox="0 0 20 20" fill="none" xmlns="http://www.w3.org/2000/svg"><path fill-rule="evenodd" clip-rule="evenodd" d="M6.5 4.75v.75h-.5a3 3 0 0 0-3 3.018v5.482a3 3 0 0 0 3 3h8a3 3 0 0 0 3-3v-5.5a3 3 0 0 0-3-3h-.5v-.75a1.75 1.75 0 0 0-1.75-1.75h-3.5a1.75 1.75 0 0 0-1.75 1.75Zm1.75-.25a.25.25 0 0 0-.25.25v.75h4v-.75a.25.25 0 0 0-.25-.25h-3.5Zm5.75 2.5h-8a1.5 1.5 0 0 0-1.476 1.233 7.785 7.785 0 0 0 1.259 1.012 7.707 7.707 0 0 0 4.217 1.255 7.707 7.707 0 0 0 4.217-1.255 7.782 7.782 0 0 0 1.26-1.012 1.5 1.5 0 0 0-1.477-1.233Zm-9.5 3.182a9.228 9.228 0 0 0 4.75 1.788v1.03a.75.75 0 0 0 1.5 0v-1.03a9.228 9.228 0 0 0 4.75-1.788v3.818a1.5 1.5 0 0 1-1.5 1.5h-8a1.5 1.5 0 0 1-1.5-1.5v-3.818Z" fill="#5C5F62"/></svg>