<svg viewBox="0 0 20 20" fill="none" xmlns="http://www.w3.org/2000/svg"><path d="M11 6.5a1 1 0 1 1-2 0 1 1 0 0 1 2 0Z" fill="#5C5F62"/><path fill-rule="evenodd" clip-rule="evenodd" d="M4.5 7.5a5.5 5.5 0 1 1 11 0v1a2.5 2.5 0 0 1-2.5 2.5h-.13c.784.84.683 2.139-.137 2.861l.177.178a2 2 0 0 1-.186 2.993l-1.427 1.11a2 2 0 0 1-2.746-.278l-1.07-1.247a2 2 0 0 1-.481-1.302v-4.315a2.5 2.5 0 0 1-2.5-2.5v-1Zm1.5 0a4 4 0 1 1 8 0v1a1 1 0 0 1-1 1h-1.5a.5.5 0 0 0-.5.5v1.043a.5.5 0 0 0 .146.353l.613.613a.5.5 0 0 1-.13.801l-.758.38a.5.5 0 0 0-.13.8l1.109 1.11a.5.5 0 0 1-.047.748l-1.427 1.11a.5.5 0 0 1-.686-.07l-1.07-1.248a.5.5 0 0 1-.12-.325v-5.315a.5.5 0 0 0-.5-.5h-1a1 1 0 0 1-1-1v-1Z" fill="#5C5F62"/></svg>