<svg viewBox="0 0 20 20" fill="none" xmlns="http://www.w3.org/2000/svg"><path fill-rule="evenodd" clip-rule="evenodd" d="M13.5 10c0-.51-.015-1.012-.046-1.5h2.872c.114.482.174.984.174 1.5a.75.75 0 0 0 1.5 0 8 8 0 1 0-8 8 .75.75 0 0 0 0-1.5c-.195 0-.404-.08-.638-.331-.246-.264-.49-.69-.703-1.292a10.54 10.54 0 0 1-.448-1.877h4.085a1.129 1.129 0 0 0 1.124-1.032c.053-.63.08-1.29.08-1.968Zm-3.5-6.5c-.195 0-.404.08-.638.331-.246.264-.49.69-.703 1.292a10.54 10.54 0 0 0-.448 1.877h3.578c-.11-.71-.26-1.345-.448-1.877-.213-.602-.457-1.028-.703-1.292-.234-.251-.443-.331-.638-.331Zm-2.755 1.124c-.244.69-.427 1.496-.55 2.376h-2.463a6.525 6.525 0 0 1 3.264-3c-.092.2-.175.408-.251.624Zm-.7 3.876h-2.871a6.518 6.518 0 0 0 0 3h2.871a24.138 24.138 0 0 1 0-3Zm5.455 1.5c0-.518-.017-1.02-.049-1.5h-3.902c-.032.48-.049.982-.049 1.5s.017 1.02.049 1.5h3.902c.033-.482.049-.984.049-1.5Zm3.768-3h-2.463c-.123-.88-.306-1.685-.55-2.376a7.319 7.319 0 0 0-.251-.624 6.525 6.525 0 0 1 3.264 3Zm-11.536 6a6.525 6.525 0 0 0 3.264 3 7.343 7.343 0 0 1-.251-.624c-.244-.69-.427-1.496-.55-2.376h-2.463Z" fill="#5C5F62"/><path d="M14 17.75a.75.75 0 0 0 1.5 0v-1.19l2.345 2.345a.75.75 0 1 0 1.06-1.06l-2.344-2.345h1.189a.75.75 0 0 0 0-1.5h-3a.75.75 0 0 0-.75.75v3Z" fill="#5C5F62"/></svg>