<svg viewBox="0 0 20 20" fill="none" xmlns="http://www.w3.org/2000/svg"><path fill-rule="evenodd" clip-rule="evenodd" d="M8.25 3.25a.75.75 0 0 0-1.5 0v.75h-3.5a.75.75 0 0 0 0 1.5h1.505a6.721 6.721 0 0 0 1.62 4.143 5.225 5.225 0 0 1-2.875.857.75.75 0 0 0 0 1.5 6.72 6.72 0 0 0 4-1.312 6.716 6.716 0 0 0 3.304 1.276l-2.225 4.45a.75.75 0 1 0 1.342.671l.668-1.335h4.822l.668 1.335a.75.75 0 1 0 1.342-.67l-3.75-7.5a.75.75 0 0 0-1.342 0l-.848 1.697a.748.748 0 0 0-.365-.126 5.219 5.219 0 0 1-2.491-.843 6.722 6.722 0 0 0 1.62-4.143h1.505a.75.75 0 0 0 0-1.5h-3.5v-.75Zm.494 2.25h-2.488a5.228 5.228 0 0 0 1.244 3.15 5.227 5.227 0 0 0 1.244-3.15Zm4.256 5.427 1.662 3.323h-3.324l1.662-3.323Z" fill="#5C5F62"/></svg>