<svg viewBox="0 0 20 20" fill="none" xmlns="http://www.w3.org/2000/svg"><path fill-rule="evenodd" clip-rule="evenodd" d="M5.5 4.802c0-.966.784-1.75 1.75-1.75h8c.94 0 1.75.758 1.75 1.698v9.5c0 1.044-.452 1.77-1.062 2.208a2.982 2.982 0 0 1-1.688.542h-8.5c-.963 0-1.82-.308-2.421-1.014-.584-.686-.829-1.638-.829-2.736a.75.75 0 0 1 .75-.75h2.25v-7.698Zm1.5 7.698h4.75a.75.75 0 0 1 .75.75c0 .749.338 1.31.759 1.699.213.196.44.341.639.435.098.046.184.077.252.096.063.017.095.02.1.02.213 0 .55-.07.812-.259.223-.16.438-.436.438-.991v-9.5c0-.024-.012-.072-.063-.121a.27.27 0 0 0-.187-.077h-8a.25.25 0 0 0-.25.25v7.698Zm4.744 3a3.707 3.707 0 0 1-.671-1.5h-7.017c.079.473.233.799.415 1.014.25.293.642.486 1.279.486h5.994Zm-3.494-5.75a.75.75 0 0 1 .75-.75h4.5a.75.75 0 0 1 0 1.5h-4.5a.75.75 0 0 1-.75-.75Zm.75-3.75a.75.75 0 0 0 0 1.5h4.5a.75.75 0 0 0 0-1.5h-4.5Z" fill="#5C5F62"/></svg>