<svg viewBox="0 0 20 20" fill="none" xmlns="http://www.w3.org/2000/svg"><path fill-rule="evenodd" clip-rule="evenodd" d="M15.842 4.176a3.746 3.746 0 0 0-5.298 0l-2.116 2.116a3.75 3.75 0 0 0 .01 5.313l.338.337a.75.75 0 1 0 1.057-1.065l-.339-.336a2.25 2.25 0 0 1-.005-3.188l2.116-2.116a2.246 2.246 0 1 1 3.173 3.18l-1.052 1.047a.75.75 0 0 0 1.058 1.063l1.052-1.047a3.746 3.746 0 0 0 .006-5.304Zm-11.664 11.67a3.75 3.75 0 0 0 5.304 0l2.121-2.121a3.75 3.75 0 0 0 0-5.304l-.362-.362a.75.75 0 0 0-1.06 1.06l.362.363a2.25 2.25 0 0 1 0 3.182l-2.122 2.121a2.25 2.25 0 0 1-3.182-3.182l1.07-1.069a.75.75 0 1 0-1.062-1.06l-1.069 1.069a3.75 3.75 0 0 0 0 5.303Z" fill="#5C5F62"/></svg>