<svg width="20" height="20" viewBox="0 0 20 20" fill="none" xmlns="http://www.w3.org/2000/svg">
<path d="M3 6C3.55228 6 4 5.55228 4 5C4 4.44772 3.55228 4 3 4C2.44772 4 2 4.44772 2 5C2 5.55228 2.44772 6 3 6Z" fill="black"/>
<path d="M3 11C3.55228 11 4 10.5523 4 10C4 9.44772 3.55228 9 3 9C2.44772 9 2 9.44772 2 10C2 10.5523 2.44772 11 3 11Z" fill="black"/>
<path d="M4 15C4 15.5523 3.55228 16 3 16C2.44772 16 2 15.5523 2 15C2 14.4477 2.44772 14 3 14C3.55228 14 4 14.4477 4 15Z" fill="black"/>
<path d="M6.25 4.25C5.83579 4.25 5.5 4.58579 5.5 5C5.5 5.41421 5.83579 5.75 6.25 5.75H17.25C17.6642 5.75 18 5.41421 18 5C18 4.58579 17.6642 4.25 17.25 4.25H6.25Z" fill="black"/>
<path d="M5.5 10C5.5 9.58579 5.83579 9.25 6.25 9.25H17.25C17.6642 9.25 18 9.58579 18 10C18 10.4142 17.6642 10.75 17.25 10.75H6.25C5.83579 10.75 5.5 10.4142 5.5 10Z" fill="black"/>
<path d="M6.25 14.25C5.83579 14.25 5.5 14.5858 5.5 15C5.5 15.4142 5.83579 15.75 6.25 15.75H17.25C17.6642 15.75 18 15.4142 18 15C18 14.5858 17.6642 14.25 17.25 14.25H6.25Z" fill="black"/>
</svg>
