<svg viewBox="0 0 20 20" fill="none" xmlns="http://www.w3.org/2000/svg"><path d="M3 6a1 1 0 1 0 0-2 1 1 0 0 0 0 2Z" fill="#5C5F62"/><path d="M3 11a1 1 0 1 0 0-2 1 1 0 0 0 0 2Z" fill="#5C5F62"/><path d="M4 15a1 1 0 1 1-2 0 1 1 0 0 1 2 0Z" fill="#5C5F62"/><path d="M6.25 4.25a.75.75 0 0 0 0 1.5h11a.75.75 0 0 0 0-1.5h-11Z" fill="#5C5F62"/><path d="M5.5 10a.75.75 0 0 1 .75-.75h11a.75.75 0 0 1 0 1.5h-11a.75.75 0 0 1-.75-.75Z" fill="#5C5F62"/><path d="M6.25 14.25a.75.75 0 0 0 0 1.5h11a.75.75 0 0 0 0-1.5h-11Z" fill="#5C5F62"/></svg>