<svg width="20" height="20" viewBox="0 0 20 20" fill="none" xmlns="http://www.w3.org/2000/svg">
<path d="M3.5 10C3.5 6.41015 6.41015 3.5 10 3.5C13.5899 3.5 16.5 6.41015 16.5 10C16.5 10.4142 16.8358 10.75 17.25 10.75C17.6642 10.75 18 10.4142 18 10C18 5.58172 14.4183 2 10 2C5.58172 2 2 5.58172 2 10C2 14.4183 5.58172 18 10 18C10.4142 18 10.75 17.6642 10.75 17.25C10.75 16.8358 10.4142 16.5 10 16.5C6.41015 16.5 3.5 13.5899 3.5 10Z" fill="black"/>
<path d="M12.4756 9.65183C12.5333 10.062 12.9125 10.3478 13.3227 10.2902C13.7329 10.2325 14.0187 9.85325 13.961 9.44307C13.8584 8.71256 13.5557 8.02467 13.0864 7.45545C12.6172 6.88623 11.9997 6.45786 11.3022 6.21769C10.6047 5.97752 9.8544 5.93492 9.13419 6.09458C8.41399 6.25425 7.75197 6.60996 7.22132 7.12241C6.69067 7.63485 6.31206 8.28405 6.12736 8.99825C5.94266 9.71244 5.95905 10.4638 6.17473 11.1693C6.39041 11.8747 6.79698 12.5068 7.34947 12.9956C7.90197 13.4844 8.57888 13.8109 9.30536 13.939C9.71328 14.0109 10.1023 13.7385 10.1742 13.3306C10.2461 12.9227 9.97375 12.5337 9.56583 12.4618C9.11178 12.3817 8.68871 12.1777 8.3434 11.8722C7.99809 11.5667 7.74399 11.1716 7.60919 10.7307C7.47439 10.2898 7.46414 9.82019 7.57958 9.37382C7.69502 8.92744 7.93165 8.52169 8.26331 8.20142C8.59496 7.88114 9.00873 7.65882 9.45885 7.55903C9.90898 7.45923 10.3779 7.48586 10.8139 7.63597C11.2498 7.78607 11.6357 8.05381 11.929 8.40957C12.2223 8.76533 12.4115 9.19526 12.4756 9.65183Z" fill="black"/>
<path d="M11.6109 10.9726C11.4294 10.9085 11.2271 10.9544 11.091 11.0906C10.9548 11.2267 10.9089 11.429 10.973 11.6105L13.0944 17.6209C13.1557 17.7947 13.3076 17.9207 13.4897 17.9487C13.6719 17.9768 13.8547 17.9024 13.9654 17.7551L15.1371 16.1974L16.1746 17.2349C16.3699 17.4301 16.6865 17.4301 16.8817 17.2349L17.2353 16.8813C17.4305 16.686 17.4305 16.3695 17.2353 16.1742L16.1978 15.1367L17.7555 13.965C17.9028 13.8543 17.9772 13.6715 17.9491 13.4893C17.9211 13.3072 17.7951 13.1553 17.6213 13.094L11.6109 10.9726Z" fill="black"/>
</svg>
