<svg width="20" height="20" viewBox="0 0 20 20" fill="none" xmlns="http://www.w3.org/2000/svg">
<path fill-rule="evenodd" clip-rule="evenodd" d="M10 3.5C6.41015 3.5 3.5 6.41015 3.5 10C3.5 13.5899 6.41015 16.5 10 16.5C10.4142 16.5 10.75 16.8358 10.75 17.25C10.75 17.6642 10.4142 18 10 18C5.58172 18 2 14.4183 2 10C2 5.58172 5.58172 2 10 2C14.4183 2 18 5.58172 18 10C18 11.5878 16.7128 12.875 15.125 12.875C14.3494 12.875 13.6455 12.5679 13.1283 12.0686C12.457 13.0818 11.3065 13.75 10 13.75C7.92893 13.75 6.25 12.0711 6.25 10C6.25 7.92893 7.92893 6.25 10 6.25C12.0711 6.25 13.75 7.92893 13.75 10C13.75 10.7594 14.3656 11.375 15.125 11.375C15.8844 11.375 16.5 10.7594 16.5 10C16.5 6.41015 13.5899 3.5 10 3.5ZM12.25 10C12.25 8.75736 11.2426 7.75 10 7.75C8.75736 7.75 7.75 8.75736 7.75 10C7.75 11.2426 8.75736 12.25 10 12.25C11.2426 12.25 12.25 11.2426 12.25 10Z" fill="black"/>
</svg>
