<svg width="20" height="20" viewBox="0 0 20 20" fill="none" xmlns="http://www.w3.org/2000/svg">
<path d="M8.5 13.25C8.08579 13.25 7.75 13.5858 7.75 14C7.75 14.4142 8.08579 14.75 8.5 14.75H11.5C11.9142 14.75 12.25 14.4142 12.25 14C12.25 13.5858 11.9142 13.25 11.5 13.25H8.5Z" fill="black"/>
<path fill-rule="evenodd" clip-rule="evenodd" d="M4 4C4 2.89543 4.89543 2 6 2H14C15.1046 2 16 2.89543 16 4V16C16 17.1046 15.1046 18 14 18H6C4.89543 18 4 17.1046 4 16V4ZM6 3.5H14C14.2761 3.5 14.5 3.72386 14.5 4V16C14.5 16.2761 14.2761 16.5 14 16.5H6C5.72386 16.5 5.5 16.2761 5.5 16V4C5.5 3.72386 5.72386 3.5 6 3.5Z" fill="black"/>
</svg>
