<svg width="20" height="20" viewBox="0 0 20 20" fill="none" xmlns="http://www.w3.org/2000/svg">
<path fill-rule="evenodd" clip-rule="evenodd" d="M13.5303 7.53033C13.8232 7.23744 13.8232 6.76256 13.5303 6.46967C13.2374 6.17678 12.7626 6.17678 12.4697 6.46967L11.1564 7.78295C10.8106 7.60221 10.4172 7.5 10 7.5C8.61929 7.5 7.5 8.61929 7.5 10C7.5 10.4172 7.60221 10.8106 7.78295 11.1564L6.46967 12.4697C6.17678 12.7626 6.17678 13.2374 6.46967 13.5303C6.76256 13.8232 7.23744 13.8232 7.53033 13.5303L8.84361 12.2171C9.18942 12.3978 9.58277 12.5 10 12.5C11.3807 12.5 12.5 11.3807 12.5 10C12.5 9.58277 12.3978 9.18942 12.2171 8.84361L13.5303 7.53033ZM10 11C10.5523 11 11 10.5523 11 10C11 9.44772 10.5523 9 10 9C9.44772 9 9 9.44772 9 10C9 10.5523 9.44772 11 10 11Z" fill="black"/>
<path fill-rule="evenodd" clip-rule="evenodd" d="M18 10C18 14.4183 14.4183 18 10 18C5.58172 18 2 14.4183 2 10C2 5.58172 5.58172 2 10 2C14.4183 2 18 5.58172 18 10ZM16.5 10C16.5 13.5899 13.5899 16.5 10 16.5C6.41015 16.5 3.5 13.5899 3.5 10C3.5 6.41015 6.41015 3.5 10 3.5C13.5899 3.5 16.5 6.41015 16.5 10Z" fill="black"/>
</svg>
