<svg width="20" height="20" viewBox="0 0 20 20" fill="none" xmlns="http://www.w3.org/2000/svg">
<path d="M6.04999 6.7498C6.04999 6.36321 6.36339 6.0498 6.74999 6.0498H13.25C13.6366 6.0498 13.95 6.36321 13.95 6.7498C13.95 7.1364 13.6366 7.4498 13.25 7.4498H6.74999C6.36339 7.4498 6.04999 7.1364 6.04999 6.7498Z" fill="black"/>
<path d="M6.99999 9.0498C6.61339 9.0498 6.29999 9.36321 6.29999 9.7498C6.29999 10.1364 6.61339 10.4498 6.99999 10.4498H9.24999C9.63659 10.4498 9.94999 10.1364 9.94999 9.7498C9.94999 9.36321 9.63659 9.0498 9.24999 9.0498H6.99999Z" fill="black"/>
<path fill-rule="evenodd" clip-rule="evenodd" d="M3 5.75C3 4.23122 4.23122 3 5.75 3H14.25C15.7688 3 17 4.23122 17 5.75V11.75C17 11.9489 16.921 12.1397 16.7803 12.2803L12.2803 16.7803C12.1397 16.921 11.9489 17 11.75 17H5.75C4.23122 17 3 15.7688 3 14.25V5.75ZM5.75 4.5C5.05964 4.5 4.5 5.05964 4.5 5.75V14.25C4.5 14.9404 5.05964 15.5 5.75 15.5H11V12.75C11 11.7835 11.7835 11 12.75 11H15.5V5.75C15.5 5.05964 14.9404 4.5 14.25 4.5H5.75ZM14.4393 12.5H12.75C12.6119 12.5 12.5 12.6119 12.5 12.75V14.4393L14.4393 12.5Z" fill="black"/>
</svg>
