<svg viewBox="0 0 20 20" fill="none" xmlns="http://www.w3.org/2000/svg"><path fill-rule="evenodd" clip-rule="evenodd" d="M16.25 12a.748.748 0 0 1-.559-.25h-2.65a.347.347 0 0 0-.33.237 1.847 1.847 0 0 1-1.752 1.263h-1.918c-.795 0-1.501-.509-1.753-1.263a.347.347 0 0 0-.329-.237h-2.459v1.5a2.25 2.25 0 0 0 2.25 2.25h4a.75.75 0 0 1 0 1.5h-4a3.75 3.75 0 0 1-3.75-3.75v-2.25a.75.75 0 0 1 .02-.17l1.141-4.927a3.75 3.75 0 0 1 3.653-2.903h4.372a3.75 3.75 0 0 1 3.653 2.903l1.142 4.928c.012.055.019.112.019.169v.25a.75.75 0 0 1-.75.75Zm-10.628-5.758a2.25 2.25 0 0 1 2.192-1.742h4.372a2.25 2.25 0 0 1 2.192 1.742l.928 4.008h-2.265c-.795 0-1.501.509-1.752 1.263a.347.347 0 0 1-.33.237h-1.918a.347.347 0 0 1-.33-.237 1.847 1.847 0 0 0-1.752-1.263h-2.265l.928-4.008Z" fill="#5C5F62"/><path fill-rule="evenodd" clip-rule="evenodd" d="M13 15.75a2.75 2.75 0 1 0 5.5 0 2.75 2.75 0 0 0-5.5 0Zm4 0c0 .69-.56 1.25-1.25 1.25v-2.5c.69 0 1.25.56 1.25 1.25Z" fill="#5C5F62"/></svg>