<svg viewBox="0 0 20 20" fill="none" xmlns="http://www.w3.org/2000/svg"><path fill-rule="evenodd" clip-rule="evenodd" d="M7.814 4.5a2.25 2.25 0 0 0-2.192 1.742l-.928 4.008h2.265c.795 0 1.501.509 1.753 1.263.047.142.18.237.329.237h1.918c.15 0 .282-.095.33-.237a1.847 1.847 0 0 1 1.752-1.263h2.265l-.928-4.008a2.25 2.25 0 0 0-2.192-1.742h-4.372Zm7.686 7.25h-2.46a.347.347 0 0 0-.329.237 1.847 1.847 0 0 1-1.752 1.263h-1.918c-.795 0-1.501-.509-1.753-1.263a.347.347 0 0 0-.329-.237h-2.459v1.5a2.25 2.25 0 0 0 2.25 2.25h6.5a2.25 2.25 0 0 0 2.25-2.25v-1.5Zm-11.339-5.847a3.75 3.75 0 0 1 3.653-2.903h4.372a3.75 3.75 0 0 1 3.653 2.903l1.142 4.928c.012.055.019.112.019.169v2.25a3.75 3.75 0 0 1-3.75 3.75h-6.5a3.75 3.75 0 0 1-3.75-3.75v-2.25a.75.75 0 0 1 .02-.17l1.141-4.927Z" fill="#5C5F62"/></svg>