<svg viewBox="0 0 20 20" fill="none" xmlns="http://www.w3.org/2000/svg"><path d="M6.5 9.25a.75.75 0 0 0 0 1.5h2a.75.75 0 0 0 0-1.5h-2Z" fill="#5C5F62"/><path fill-rule="evenodd" clip-rule="evenodd" d="M7.18 3a3.75 3.75 0 0 0-3.482 2.36l-.644 1.612a.75.75 0 0 0-.054.278v6a3.75 3.75 0 0 0 3.75 3.75h6.5a3.75 3.75 0 0 0 3.75-3.75v-6a.75.75 0 0 0-.044-.252l-.539-1.51a3.75 3.75 0 0 0-3.531-2.488h-5.706Zm-2.09 2.915a2.25 2.25 0 0 1 2.09-1.415h2.07v2h-4.393l.234-.585Zm5.66.585v-2h2.136c.95 0 1.799.598 2.119 1.493l.18.507h-4.435Zm-6.25 1.5h11v5.25a2.25 2.25 0 0 1-2.25 2.25h-6.5a2.25 2.25 0 0 1-2.25-2.25v-5.25Z" fill="#5C5F62"/></svg>