<svg width="20" height="20" viewBox="0 0 20 20" fill="none" xmlns="http://www.w3.org/2000/svg">
<path d="M6.5 9.25C6.08579 9.25 5.75 9.58579 5.75 10C5.75 10.4142 6.08579 10.75 6.5 10.75H8.5C8.91421 10.75 9.25 10.4142 9.25 10C9.25 9.58579 8.91421 9.25 8.5 9.25H6.5Z" fill="black"/>
<path fill-rule="evenodd" clip-rule="evenodd" d="M7.18014 3C5.64604 3 4.26665 3.93441 3.69764 5.35907L3.0535 6.97181C3.01816 7.0603 3 7.15472 3 7.25V13.25C3 15.3211 4.67893 17 6.75 17H13.25C15.3211 17 17 15.3211 17 13.25V7.25C17 7.16403 16.9852 7.07871 16.9563 6.99775L16.4174 5.48874C15.8843 3.99626 14.4706 3 12.8858 3H7.18014ZM5.09064 5.91544C5.43205 5.06064 6.25968 4.5 7.18014 4.5H9.25V6.5H4.85716L5.09064 5.91544ZM10.75 6.5V4.5H12.8858C13.8367 4.5 14.6849 5.09776 15.0048 5.99324L15.1857 6.5H10.75ZM4.5 8H15.5V13.25C15.5 14.4926 14.4926 15.5 13.25 15.5H6.75C5.50736 15.5 4.5 14.4926 4.5 13.25V8Z" fill="black"/>
</svg>
