<svg viewBox="0 0 20 20" fill="none" xmlns="http://www.w3.org/2000/svg"><path fill-rule="evenodd" clip-rule="evenodd" d="M5.5 4.75c0-.69.56-1.25 1.25-1.25h2.5v3.5c0 .966.784 1.75 1.75 1.75h3.5v3.5a.75.75 0 0 0 1.5 0v-4.25a.75.75 0 0 0-.22-.53l-5.25-5.25a.75.75 0 0 0-.53-.22h-3.25a2.75 2.75 0 0 0-2.75 2.75v10.5a2.75 2.75 0 0 0 2.75 2.75h3.5a.75.75 0 0 0 0-1.5h-3.5c-.69 0-1.25-.56-1.25-1.25v-10.5Zm7.94 2.5-2.69-2.69v2.44c0 .138.112.25.25.25h2.44Z" fill="#5C5F62"/><path d="M15.977 19.038a.75.75 0 0 0 1.061-1.06l-1.961-1.963.838-.028a.75.75 0 1 0-.052-1.5l-2.563.089a.75.75 0 0 0-.724.724l-.088 2.563a.75.75 0 0 0 1.499.052l.029-.839 1.961 1.962Z" fill="#5C5F62"/></svg>