<svg viewBox="0 0 20 20" fill="none" xmlns="http://www.w3.org/2000/svg"><path fill-rule="evenodd" clip-rule="evenodd" d="M5.5 4.75c0-.69.56-1.25 1.25-1.25h2.5v3.5c0 .966.784 1.75 1.75 1.75h3.5v2a.75.75 0 0 0 1.5 0v-2.75a.75.75 0 0 0-.22-.53l-5.25-5.25a.75.75 0 0 0-.53-.22h-3.25a2.75 2.75 0 0 0-2.75 2.75v10.5a2.75 2.75 0 0 0 2.75 2.75h3a.75.75 0 0 0 0-1.5h-3c-.69 0-1.25-.56-1.25-1.25v-10.5Zm7.94 2.5-2.69-2.69v2.44c0 .138.112.25.25.25h2.44Z" fill="#5C5F62"/><path d="M13.625 18.25a.75.75 0 0 0 1.5 0v-2.774l.613.572a.75.75 0 0 0 1.024-1.096l-1.875-1.75a.75.75 0 0 0-1.024 0l-1.875 1.75a.75.75 0 1 0 1.024 1.096l.613-.572v2.774Z" fill="#5C5F62"/></svg>