<svg viewBox="0 0 20 20" fill="none" xmlns="http://www.w3.org/2000/svg"><path d="m14.25 4.75-.646.647-1.5-1.5.646-.647a1.06 1.06 0 0 1 1.5 1.5Z" fill="#5C5F62"/><path d="m9.588 9.413 3.308-3.31-1.5-1.5-3.308 3.31a3 3 0 0 0-.79 1.393l-.197.79a.25.25 0 0 0 .303.303l.79-.197a3 3 0 0 0 1.394-.79Z" fill="#5C5F62"/><path d="M3.5 9.25c0-.69.56-1.25 1.25-1.25h1a.75.75 0 0 0 0-1.5h-1a2.75 2.75 0 0 0-2.75 2.75v4a2.75 2.75 0 0 0 2.75 2.75h10.5a2.75 2.75 0 0 0 2.75-2.75v-4a2.75 2.75 0 0 0-2.75-2.75h-.5a.75.75 0 0 0 0 1.5h.5c.69 0 1.25.56 1.25 1.25v4c0 .69-.56 1.25-1.25 1.25h-10.5c-.69 0-1.25-.56-1.25-1.25v-4Z" fill="#5C5F62"/><path d="M5 12.25a.75.75 0 0 1 .75-.75h5.5a.75.75 0 0 1 0 1.5h-5.5a.75.75 0 0 1-.75-.75Z" fill="#5C5F62"/><path d="M13.75 11.5a.75.75 0 0 0 0 1.5h.5a.75.75 0 0 0 0-1.5h-.5Z" fill="#5C5F62"/></svg>