<svg viewBox="0 0 20 20" fill="none" xmlns="http://www.w3.org/2000/svg"><path fill-rule="evenodd" clip-rule="evenodd" d="M6.5 6.5a3.5 3.5 0 1 1 7 0 3.5 3.5 0 0 1-7 0Zm3.5-2a2 2 0 1 0 0 4 2 2 0 0 0 0-4Z" fill="#5C5F62"/><path d="M3.623 13.096a7.891 7.891 0 0 1 5.356-2.096h1.836a.75.75 0 0 1 0 1.5h-1.836a6.392 6.392 0 0 0-4.338 1.697.44.44 0 0 0-.141.324v.164c0 .45.365.815.815.815h6.935a.75.75 0 0 1 0 1.5h-6.935a2.315 2.315 0 0 1-2.315-2.315v-.164c0-.541.226-1.058.623-1.425Z" fill="#5C5F62"/><path fill-rule="evenodd" clip-rule="evenodd" d="M15.5 9.25a2.5 2.5 0 0 0-2.5 2.5v1.1a.9.9 0 0 0 .9.9h.1a.5.5 0 0 1 .5.5v2.575a.5.5 0 0 0 .11.312l.594.743a.5.5 0 0 0 .681.095l.775-.554a.5.5 0 0 0-.013-.823l-.163-.108a.432.432 0 0 1 .103-.77.432.432 0 0 0 .17-.714l-.36-.36a.5.5 0 0 1-.147-.353v-.043a.5.5 0 0 1 .5-.5h.35a.9.9 0 0 0 .9-.9v-1.1a2.5 2.5 0 0 0-2.5-2.5Zm.75 2.25a.75.75 0 1 1-1.5 0 .75.75 0 0 1 1.5 0Z" fill="#5C5F62"/></svg>