<svg width="20" height="20" viewBox="0 0 20 20" fill="none" xmlns="http://www.w3.org/2000/svg">
<path fill-rule="evenodd" clip-rule="evenodd" d="M12.9333 6.19973C13.5953 5.75368 14 5.15638 14 4.5C14 3.11929 12.2091 2 10 2C7.79086 2 6 3.11929 6 4.5C6 5.15638 6.40473 5.75368 7.06673 6.19973L6.30288 9.63703C4.90092 10.1862 4 11.0405 4 12C4 13.5299 6.29027 14.7923 9.25 14.9768V17.25C9.25 17.6642 9.58579 18 10 18C10.4142 18 10.75 17.6642 10.75 17.25V14.9768C13.7097 14.7923 16 13.5299 16 12C16 11.0405 15.0991 10.1862 13.6971 9.63703L12.9333 6.19973Z" fill="black"/>
</svg>
