<svg viewBox="0 0 20 20" fill="none" xmlns="http://www.w3.org/2000/svg"><path fill-rule="evenodd" clip-rule="evenodd" d="M7.067 6.2c-.662-.446-1.067-1.044-1.067-1.7 0-1.38 1.79-2.5 4-2.5s4 1.12 4 2.5c0 .656-.405 1.254-1.067 1.7l.764 3.437c1.402.55 2.303 1.403 2.303 2.363 0 1.53-2.29 2.792-5.25 2.977v2.273a.75.75 0 0 1-1.5 0v-2.273c-2.96-.185-5.25-1.447-5.25-2.977 0-.96.9-1.814 2.303-2.363l.764-3.437Zm5.024-1.241a2.064 2.064 0 0 1-.058.037c-.45.281-1.165.504-2.033.504-.868 0-1.583-.223-2.033-.504a2.15 2.15 0 0 1-.058-.037l-.004-.003a1.82 1.82 0 0 1-.136-.101 1.24 1.24 0 0 1-.164-.16.74.74 0 0 1-.084-.124.173.173 0 0 1-.021-.068v-.003c0-.008 0-.049.057-.132.062-.093.188-.225.41-.364.45-.281 1.165-.504 2.033-.504.76 0 1.402.17 1.852.402.065.033.125.067.181.102.222.139.348.271.41.364.011.015.02.03.027.042a.19.19 0 0 1 .03.09s0-.001 0 0c0 0 0 .001 0 0m-.968 2.31.874 3.932.744.292c.572.224.95.476 1.161.69.103.102.15.18.172.224a.218.218 0 0 1 .017.052l-.001.008a.169.169 0 0 1-.01.029.644.644 0 0 1-.106.162c-.136.162-.393.372-.811.58-.837.419-2.097.721-3.572.721-1.474 0-2.735-.302-3.572-.72-.418-.21-.674-.42-.811-.581a.64.64 0 0 1-.107-.162.164.164 0 0 1-.01-.037l.002-.01a.211.211 0 0 1 .015-.042.86.86 0 0 1 .172-.225c.212-.213.59-.465 1.161-.69l.744-.29.874-3.933c.472.122.99.19 1.532.19.543 0 1.06-.068 1.532-.19Z" fill="#5C5F62"/></svg>