<svg viewBox="0 0 20 20" fill="none" xmlns="http://www.w3.org/2000/svg"><path fill-rule="evenodd" clip-rule="evenodd" d="M7 8a3 3 0 1 1 6 0 3 3 0 0 1-6 0Zm3-1.5a1.5 1.5 0 1 0 0 3 1.5 1.5 0 0 0 0-3Z" fill="#5C5F62"/><path fill-rule="evenodd" clip-rule="evenodd" d="M10 18a8 8 0 1 1 0-16 8 8 0 0 1 0 16Zm-5.101-3.971a6.5 6.5 0 1 1 10.202 0 7.45 7.45 0 0 0-5.101-2.029 7.45 7.45 0 0 0-5.101 2.029Zm1.06 1.062a6.472 6.472 0 0 0 4.041 1.409 6.472 6.472 0 0 0 4.041-1.409 5.95 5.95 0 0 0-4.041-1.591 5.95 5.95 0 0 0-4.041 1.591Z" fill="#5C5F62"/></svg>