<svg width="20" height="20" viewBox="0 0 20 20" fill="none" xmlns="http://www.w3.org/2000/svg">
<path d="M10 6.25C9.0335 6.25 8.25 7.0335 8.25 8C8.25 8.41421 7.91421 8.75 7.5 8.75C7.08579 8.75 6.75 8.41421 6.75 8C6.75 6.20507 8.20507 4.75 10 4.75C11.7949 4.75 13.25 6.20507 13.25 8C13.25 9.23129 12.565 10.3015 11.5588 10.8523C11.3071 10.9901 11.0887 11.1543 10.9416 11.3259C10.7977 11.4937 10.75 11.633 10.75 11.75C10.75 12.1642 10.4142 12.5 10 12.5C9.58579 12.5 9.25 12.1642 9.25 11.75C9.25 11.1766 9.49889 10.7039 9.80297 10.3494C10.1038 9.99864 10.4848 9.73021 10.8386 9.53653C11.3833 9.23833 11.75 8.66145 11.75 8C11.75 7.0335 10.9665 6.25 10 6.25Z" fill="black"/>
<path d="M10 15.25C10.5523 15.25 11 14.8023 11 14.25C11 13.6977 10.5523 13.25 10 13.25C9.44772 13.25 9 13.6977 9 14.25C9 14.8023 9.44772 15.25 10 15.25Z" fill="black"/>
<path fill-rule="evenodd" clip-rule="evenodd" d="M10 18C14.4183 18 18 14.4183 18 10C18 5.58172 14.4183 2 10 2C5.58172 2 2 5.58172 2 10C2 14.4183 5.58172 18 10 18ZM10 16.5C13.5899 16.5 16.5 13.5899 16.5 10C16.5 6.41015 13.5899 3.5 10 3.5C6.41015 3.5 3.5 6.41015 3.5 10C3.5 13.5899 6.41015 16.5 10 16.5Z" fill="black"/>
</svg>
