<svg viewBox="0 0 20 20" fill="none" xmlns="http://www.w3.org/2000/svg"><path d="M6.97 2.22a.75.75 0 0 0 0 1.06l.72.72h-.77c-.535 0-.98 0-1.345.03-.38.03-.736.098-1.073.27a2.75 2.75 0 0 0-1.202 1.202c-.172.337-.24.693-.27 1.073-.03.365-.03.81-.03 1.345v1.33a.75.75 0 0 0 1.5 0v-1.3c0-.572 0-.957.025-1.253.023-.287.065-.424.111-.514a1.25 1.25 0 0 1 .547-.547c.09-.046.227-.088.514-.111.296-.024.68-.025 1.253-.025h.74l-.72.72a.75.75 0 0 0 1.06 1.06l2-2a.747.747 0 0 0 .22-.523v-.007a.747.747 0 0 0-.225-.536l-1.995-1.994a.75.75 0 0 0-1.06 0Z" fill="#5C5F62"/><path fill-rule="evenodd" clip-rule="evenodd" d="M11 6c0-.932 0-1.398.152-1.765a2 2 0 0 1 1.083-1.083c.367-.152.833-.152 1.765-.152.932 0 1.398 0 1.765.152a2 2 0 0 1 1.083 1.083c.152.367.152.833.152 1.765 0 .932 0 1.398-.152 1.765a2 2 0 0 1-1.083 1.083c-.367.152-.833.152-1.765.152-.932 0-1.398 0-1.765-.152a2 2 0 0 1-1.083-1.083c-.152-.367-.152-.833-.152-1.765Zm3 1.5c-.486 0-.776 0-.992-.016a1.28 1.28 0 0 1-.205-.025.5.5 0 0 1-.262-.262 1.287 1.287 0 0 1-.025-.205 16.516 16.516 0 0 1-.016-.992c0-.486 0-.776.016-.992.009-.134.02-.19.025-.205a.5.5 0 0 1 .262-.262 1.28 1.28 0 0 1 .205-.025c.216-.015.506-.016.992-.016s.776 0 .992.016c.134.009.19.02.205.025a.5.5 0 0 1 .262.262c.004.014.016.071.025.205.015.216.016.506.016.992s0 .776-.016.992c-.009.134-.02.19-.025.205a.5.5 0 0 1-.262.262 1.28 1.28 0 0 1-.205.025c-.216.015-.506.016-.992.016Z" fill="#5C5F62"/><path d="M13.05 14.5c.572 0 .957 0 1.252-.025.288-.023.425-.065.516-.111a1.25 1.25 0 0 0 .546-.546c.046-.091.088-.228.111-.515.024-.296.025-.68.025-1.253v-1.3a.75.75 0 0 1 1.5 0v1.33c0 .535 0 .98-.03 1.345-.03.38-.098.736-.27 1.073a2.751 2.751 0 0 1-1.201 1.202c-.338.172-.694.24-1.074.27-.365.03-.81.03-1.345.03h-.77l.72.72a.75.75 0 1 1-1.06 1.06l-1.995-1.994a.77.77 0 0 1-.154-.218.747.747 0 0 1 .149-.848l2-2a.75.75 0 1 1 1.06 1.06l-.72.72h.74Z" fill="#5C5F62"/><path fill-rule="evenodd" clip-rule="evenodd" d="M8.848 15.765c.152-.367.152-.833.152-1.765 0-.932 0-1.398-.152-1.765a2 2 0 0 0-1.083-1.083c-.367-.152-.833-.152-1.765-.152-.932 0-1.398 0-1.765.152a2 2 0 0 0-1.083 1.083c-.152.367-.152.833-.152 1.765 0 .932 0 1.398.152 1.765a2 2 0 0 0 1.083 1.083c.367.152.833.152 1.765.152.932 0 1.398 0 1.765-.152a2 2 0 0 0 1.083-1.083Zm-1.856-3.25a16.516 16.516 0 0 0-.992-.015c-.486 0-.776 0-.992.016-.134.009-.19.02-.205.025a.5.5 0 0 0-.262.262 1.28 1.28 0 0 0-.025.205c-.015.216-.016.506-.016.992s0 .776.016.992c.009.134.02.19.025.205a.5.5 0 0 0 .262.262c.014.004.071.016.205.025.216.015.506.016.992.016s.776 0 .992-.016c.134-.009.19-.02.205-.025a.5.5 0 0 0 .262-.262 1.28 1.28 0 0 0 .025-.205c.015-.216.016-.506.016-.992s0-.776-.016-.992a1.28 1.28 0 0 0-.025-.205.5.5 0 0 0-.262-.262 1.287 1.287 0 0 0-.205-.025Z" fill="#5C5F62"/></svg>