<svg width="20" height="20" viewBox="0 0 20 20" fill="none" xmlns="http://www.w3.org/2000/svg">
<path d="M8.5 12.25C8.5 11.8358 8.16421 11.5 7.75 11.5C7.33579 11.5 7 11.8358 7 12.25V14.25C7 14.6642 7.33579 15 7.75 15C8.16421 15 8.5 14.6642 8.5 14.25V12.25Z" fill="black"/>
<path d="M12.25 11.5C12.6642 11.5 13 11.8358 13 12.25V14.25C13 14.6642 12.6642 15 12.25 15C11.8358 15 11.5 14.6642 11.5 14.25V12.25C11.5 11.8358 11.8358 11.5 12.25 11.5Z" fill="black"/>
<path d="M10.75 10.75C10.75 10.3358 10.4142 10 10 10C9.58579 10 9.25 10.3358 9.25 10.75V14.25C9.25 14.6642 9.58579 15 10 15C10.4142 15 10.75 14.6642 10.75 14.25V10.75Z" fill="black"/>
<path fill-rule="evenodd" clip-rule="evenodd" d="M6.75 2C5.23122 2 4 3.23122 4 4.75V15.25C4 16.7688 5.23122 18 6.75 18H13.25C14.7688 18 16 16.7688 16 15.25V8C16 7.80109 15.921 7.61032 15.7803 7.46967L10.5303 2.21967C10.3897 2.07902 10.1989 2 10 2H6.75ZM5.5 4.75C5.5 4.05964 6.05964 3.5 6.75 3.5H9.25V7C9.25 7.9665 10.0335 8.75 11 8.75H14.5V15.25C14.5 15.9404 13.9404 16.5 13.25 16.5H6.75C6.05964 16.5 5.5 15.9404 5.5 15.25V4.75ZM13.4393 7.25L10.75 4.56066V7C10.75 7.13807 10.8619 7.25 11 7.25H13.4393Z" fill="black"/>
</svg>
