<svg viewBox="0 0 20 20" fill="none" xmlns="http://www.w3.org/2000/svg"><path d="M17 9.25a.75.75 0 0 1-1.5 0 3 3 0 0 0-3-3h-7.566l1.123 1.248a.75.75 0 1 1-1.114 1.004l-2.25-2.5a.75.75 0 0 1 .027-1.032l2.25-2.25a.75.75 0 0 1 1.06 1.06l-.97.97h7.44a4.5 4.5 0 0 1 4.5 4.5Z" fill="#5C5F62"/><path d="M3 10.75a.75.75 0 0 1 1.5 0 3 3 0 0 0 3 3h7.566l-1.123-1.248a.75.75 0 1 1 1.114-1.004l2.25 2.5a.75.75 0 0 1-.027 1.032l-2.25 2.25a.75.75 0 1 1-1.06-1.06l.97-.97h-7.44a4.5 4.5 0 0 1-4.5-4.5Z" fill="#5C5F62"/></svg>