<svg viewBox="0 0 20 20" fill="none" xmlns="http://www.w3.org/2000/svg"><path fill-rule="evenodd" clip-rule="evenodd" d="M5 3a2 2 0 0 0-2 2v3a2 2 0 0 0 2 2h3a2 2 0 0 0 2-2v-3a2 2 0 0 0-2-2h-3Zm3 1.5h-3a.5.5 0 0 0-.5.5v3a.5.5 0 0 0 .5.5h3a.5.5 0 0 0 .5-.5v-3a.5.5 0 0 0-.5-.5Z" fill="#5C5F62"/><path d="M3 15.75a.75.75 0 0 1 .75-.75h8.5a.75.75 0 0 1 0 1.5h-8.5a.75.75 0 0 1-.75-.75Z" fill="#5C5F62"/><path d="M3.75 11.5a.75.75 0 0 0 0 1.5h12.5a.75.75 0 0 0 0-1.5h-12.5Z" fill="#5C5F62"/><path d="M11.25 8.75a.75.75 0 0 1 .75-.75h4.25a.75.75 0 0 1 0 1.5h-4.25a.75.75 0 0 1-.75-.75Z" fill="#5C5F62"/><path d="M12 4.5a.75.75 0 0 0 0 1.5h4.25a.75.75 0 0 0 0-1.5h-4.25Z" fill="#5C5F62"/></svg>