<svg viewBox="0 0 20 20" fill="none" xmlns="http://www.w3.org/2000/svg"><path d="M10 6.75a.75.75 0 0 1 .75.75v3.5a.75.75 0 1 1-1.5 0v-3.5a.75.75 0 0 1 .75-.75Z" fill="#5C5F62"/><path d="M11 13.5a1 1 0 1 1-2 0 1 1 0 0 1 2 0Z" fill="#5C5F62"/><path fill-rule="evenodd" clip-rule="evenodd" d="M5.533 8.795c-.984 1.877-1.98 3.779-2.21 4.244-.393.792-.499 1.831.092 2.726.59.894 1.603 1.235 2.585 1.235h8c.982 0 1.995-.341 2.585-1.235.59-.895.485-1.934.093-2.726-.23-.465-1.224-2.362-2.206-4.235l-.032-.062a471.431 471.431 0 0 1-2.207-4.234c-.388-.785-1.157-1.508-2.233-1.508s-1.844.723-2.233 1.508c-.212.429-1.2 2.312-2.207 4.235l-.027.052Zm-.866 4.91c.222-.45 1.224-2.363 2.225-4.273a464.05 464.05 0 0 0 2.22-4.259c.444-.897 1.332-.897 1.777 0 .222.45 1.223 2.36 2.224 4.269 1 1.907 1.998 3.813 2.22 4.262.445.898 0 1.796-1.333 1.796h-8c-1.333 0-1.778-.898-1.333-1.796Z" fill="#5C5F62"/></svg>