<svg viewBox="0 0 20 20" fill="none" xmlns="http://www.w3.org/2000/svg"><path fill-rule="evenodd" clip-rule="evenodd" d="M13 10a3 3 0 1 1-6 0 3 3 0 0 1 6 0Zm-1.5 0a1.5 1.5 0 1 1-3 0 1.5 1.5 0 0 1 3 0Z" fill="#000"/><path fill-rule="evenodd" clip-rule="evenodd" d="M9.326 2a1.75 1.75 0 0 0-1.75 1.75v.743c0 .087-.062.229-.245.324-.164.086-.324.18-.479.28-.174.114-.33.098-.406.054l-.648-.374a1.75 1.75 0 0 0-2.39.64l-.673 1.166a1.75 1.75 0 0 0 .64 2.39l.7.404c.075.044.165.166.158.368a5.861 5.861 0 0 0 .005.496c.011.207-.08.334-.157.378l-.706.408a1.75 1.75 0 0 0-.64 2.39l.673 1.166a1.75 1.75 0 0 0 2.39.64l.757-.436c.075-.044.226-.06.398.047.123.076.25.148.378.216.183.095.245.236.245.324v.876c0 .966.784 1.75 1.75 1.75h1.346a1.75 1.75 0 0 0 1.75-1.75v-.876c0-.088.063-.229.245-.324.13-.068.255-.14.378-.216.173-.107.324-.09.399-.047l.756.436a1.75 1.75 0 0 0 2.39-.64l.674-1.166a1.75 1.75 0 0 0-.64-2.39l-.706-.408c-.077-.044-.168-.17-.157-.378a5.923 5.923 0 0 0 .005-.496c-.007-.202.083-.324.158-.368l.7-.404a1.75 1.75 0 0 0 .64-2.39l-.673-1.166a1.75 1.75 0 0 0-2.39-.64l-.648.373c-.077.045-.233.06-.407-.053a5.778 5.778 0 0 0-.479-.28c-.182-.095-.245-.237-.245-.324v-.743a1.75 1.75 0 0 0-1.75-1.75h-1.346Zm-.25 1.75a.25.25 0 0 1 .25-.25h1.346a.25.25 0 0 1 .25.25v.743c0 .76.482 1.357 1.05 1.654.123.063.24.132.355.207.544.354 1.31.48 1.976.096l.647-.374a.25.25 0 0 1 .342.091l.673 1.166a.25.25 0 0 1-.092.341l-.699.404c-.65.375-.928 1.08-.908 1.715a4.348 4.348 0 0 1-.003.37c-.034.646.24 1.372.905 1.755l.705.408a.25.25 0 0 1 .092.341l-.673 1.166a.25.25 0 0 1-.342.091l-.756-.436c-.651-.376-1.402-.264-1.942.072a4.3 4.3 0 0 1-.28.16c-.568.297-1.05.894-1.05 1.654v.876a.25.25 0 0 1-.25.25h-1.346a.25.25 0 0 1-.25-.25v-.876c0-.76-.482-1.357-1.05-1.654a4.285 4.285 0 0 1-.28-.16c-.54-.336-1.29-.448-1.941-.072l-.757.436a.25.25 0 0 1-.341-.091l-.673-1.166a.25.25 0 0 1 .091-.341l.706-.408c.664-.383.94-1.109.905-1.756a4.351 4.351 0 0 1-.004-.369c.02-.635-.258-1.34-.908-1.715l-.699-.404a.25.25 0 0 1-.091-.341l.673-1.166a.25.25 0 0 1 .341-.091l.648.374c.665.384 1.432.258 1.975-.096.115-.075.233-.144.355-.207.568-.297 1.05-.895 1.05-1.654v-.743Z" fill="#000"/></svg>