<svg width="20" height="20" viewBox="0 0 20 20" fill="none" xmlns="http://www.w3.org/2000/svg">
<path fill-rule="evenodd" clip-rule="evenodd" d="M4.75 4C4.33579 4 4 4.33579 4 4.75C4 5.16421 4.33579 5.5 4.75 5.5H12.0809L13.8613 8.39307C13.9499 8.53716 14.0847 8.64703 14.2437 8.70485L16.5 9.52532V12.5H16.292C15.9062 11.617 15.0252 11 14 11C12.9748 11 12.0938 11.617 11.708 12.5H8.29198C7.9062 11.617 7.02516 11 6 11C4.97484 11 4.0938 11.617 3.70802 12.5H2.75C2.33579 12.5 2 12.8358 2 13.25C2 13.6642 2.33579 14 2.75 14H3.55001C3.78164 15.1411 4.79052 16 6 16C7.20948 16 8.21836 15.1411 8.44999 14H11.55C11.7816 15.1411 12.7905 16 14 16C15.2095 16 16.2184 15.1411 16.45 14H17.25C17.6642 14 18 13.6642 18 13.25V9C18 8.68462 17.8027 8.40293 17.5063 8.29515L15.0018 7.38443L13.1387 4.35693C13.0022 4.13512 12.7604 4 12.5 4H4.75ZM5 13.5C5 14.0523 5.44772 14.5 6 14.5C6.55228 14.5 7 14.0523 7 13.5C7 12.9477 6.55228 12.5 6 12.5C5.44772 12.5 5 12.9477 5 13.5ZM13 13.5C13 14.0523 13.4477 14.5 14 14.5C14.5523 14.5 15 14.0523 15 13.5C15 12.9477 14.5523 12.5 14 12.5C13.4477 12.5 13 12.9477 13 13.5Z" fill="black"/>
<path d="M3 9.75C3 9.33579 3.33579 9 3.75 9H5.25C5.66421 9 6 9.33579 6 9.75C6 10.1642 5.66421 10.5 5.25 10.5H3.75C3.33579 10.5 3 10.1642 3 9.75Z" fill="black"/>
<path d="M2.75 6.5C2.33579 6.5 2 6.83579 2 7.25C2 7.66421 2.33579 8 2.75 8H6.25C6.66421 8 7 7.66421 7 7.25C7 6.83579 6.66421 6.5 6.25 6.5H2.75Z" fill="black"/>
</svg>
