<svg viewBox="0 0 20 20" fill="none" xmlns="http://www.w3.org/2000/svg"><path d="M5.5 6a.5.5 0 0 1 .5-.5h.5a.5.5 0 0 1 .5.5v.5a.5.5 0 0 1-.5.5h-.5a.5.5 0 0 1-.5-.5v-.5Z" fill="#5C5F62"/><path fill-rule="evenodd" clip-rule="evenodd" d="M5 3a2 2 0 0 0-2 2v2.5a2 2 0 0 0 2 2h2.5a2 2 0 0 0 2-2v-2.5a2 2 0 0 0-2-2h-2.5Zm2.5 1.5h-2.5a.5.5 0 0 0-.5.5v2.5a.5.5 0 0 0 .5.5h2.5a.5.5 0 0 0 .5-.5v-2.5a.5.5 0 0 0-.5-.5Z" fill="#5C5F62"/><path d="M6 13a.5.5 0 0 0-.5.5v.5a.5.5 0 0 0 .5.5h.5a.5.5 0 0 0 .5-.5v-.5a.5.5 0 0 0-.5-.5h-.5Z" fill="#5C5F62"/><path fill-rule="evenodd" clip-rule="evenodd" d="M5 10.5a2 2 0 0 0-2 2v2.5a2 2 0 0 0 2 2h2.5a2 2 0 0 0 2-2v-2.5a2 2 0 0 0-2-2h-2.5Zm2.5 1.5h-2.5a.5.5 0 0 0-.5.5v2.5a.5.5 0 0 0 .5.5h2.5a.5.5 0 0 0 .5-.5v-2.5a.5.5 0 0 0-.5-.5Z" fill="#5C5F62"/><path d="M13 6a.5.5 0 0 1 .5-.5h.5a.5.5 0 0 1 .5.5v.5a.5.5 0 0 1-.5.5h-.5a.5.5 0 0 1-.5-.5v-.5Z" fill="#5C5F62"/><path fill-rule="evenodd" clip-rule="evenodd" d="M10.5 5a2 2 0 0 1 2-2h2.5a2 2 0 0 1 2 2v2.5a2 2 0 0 1-2 2h-2.5a2 2 0 0 1-2-2v-2.5Zm2-.5h2.5a.5.5 0 0 1 .5.5v2.5a.5.5 0 0 1-.5.5h-2.5a.5.5 0 0 1-.5-.5v-2.5a.5.5 0 0 1 .5-.5Z" fill="#5C5F62"/><path d="M11.5 11a.5.5 0 0 0-.5.5v1a.5.5 0 0 0 .5.5h1a.5.5 0 0 0 .5-.5v-1a.5.5 0 0 0-.5-.5h-1Z" fill="#5C5F62"/><path d="M11 15.5a.5.5 0 0 1 .5-.5h1a.5.5 0 0 1 .5.5v1a.5.5 0 0 1-.5.5h-1a.5.5 0 0 1-.5-.5v-1Z" fill="#5C5F62"/><path d="M15.5 11a.5.5 0 0 0-.5.5v1a.5.5 0 0 0 .5.5h1a.5.5 0 0 0 .5-.5v-1a.5.5 0 0 0-.5-.5h-1Z" fill="#5C5F62"/><path d="M15 15.5a.5.5 0 0 1 .5-.5h1a.5.5 0 0 1 .5.5v1a.5.5 0 0 1-.5.5h-1a.5.5 0 0 1-.5-.5v-1Z" fill="#5C5F62"/><path d="M13.5 13a.5.5 0 0 0-.5.5v1a.5.5 0 0 0 .5.5h1a.5.5 0 0 0 .5-.5v-1a.5.5 0 0 0-.5-.5h-1Z" fill="#5C5F62"/></svg>