<svg viewBox="0 0 20 20" fill="none" xmlns="http://www.w3.org/2000/svg"><path d="M8.75 5.25a.75.75 0 0 0 0 1.5h2.5a.75.75 0 0 0 0-1.5h-2.5Z" fill="#5C5F62"/><path d="M7 11.75a.75.75 0 0 1 .75-.75h2.5a.75.75 0 0 1 0 1.5h-2.5a.75.75 0 0 1-.75-.75Z" fill="#5C5F62"/><path d="M7.75 13.5a.75.75 0 0 0 0 1.5h4.5a.75.75 0 0 0 0-1.5h-4.5Z" fill="#5C5F62"/><path fill-rule="evenodd" clip-rule="evenodd" d="M4 4a2 2 0 0 1 2-2h8a2 2 0 0 1 2 2v12a2 2 0 0 1-2 2h-8a2 2 0 0 1-2-2v-12Zm2-.5h8a.5.5 0 0 1 .5.5v1.25h-.75a.75.75 0 0 0 0 1.5h.75v9.25a.5.5 0 0 1-.5.5h-8a.5.5 0 0 1-.5-.5v-9.25h.75a.75.75 0 0 0 0-1.5h-.75v-1.25a.5.5 0 0 1 .5-.5Z" fill="#5C5F62"/></svg>