<svg width="20" height="20" viewBox="0 0 20 20" fill="none" xmlns="http://www.w3.org/2000/svg">
<path d="M9.25 3.5428C6.01342 3.91465 3.5 6.66381 3.5 10C3.5 13.5899 6.41015 16.5 10 16.5C13.5899 16.5 16.5 13.5899 16.5 10C16.5 9.58579 16.8358 9.25 17.25 9.25C17.6642 9.25 18 9.58579 18 10C18 14.4183 14.4183 18 10 18C5.58172 18 2 14.4183 2 10C2 5.58172 5.58172 2 10 2C10.4142 2 10.75 2.33579 10.75 2.75V8.70067C11.1984 8.96003 11.5 9.44479 11.5 10C11.5 10.8284 10.8284 11.5 10 11.5C9.17157 11.5 8.5 10.8284 8.5 10C8.5 9.44479 8.80165 8.96003 9.25 8.70067V6.83697C7.81665 7.17555 6.75 8.46321 6.75 10C6.75 11.7949 8.20507 13.25 10 13.25C11.7949 13.25 13.25 11.7949 13.25 10C13.25 9.58579 13.5858 9.25 14 9.25C14.4142 9.25 14.75 9.58579 14.75 10C14.75 12.6234 12.6234 14.75 10 14.75C7.37665 14.75 5.25 12.6234 5.25 10C5.25 7.63185 6.98301 5.66846 9.25 5.30888V3.5428Z" fill="black"/>
</svg>
