<svg viewBox="0 0 20 20" fill="none" xmlns="http://www.w3.org/2000/svg"><path fill-rule="evenodd" clip-rule="evenodd" d="M6.374 3a2.75 2.75 0 0 0-2.567 1.763l-.63 1.639a2.648 2.648 0 0 0 .823 3.023v4.825a2.75 2.75 0 0 0 2.75 2.75h6.5a2.75 2.75 0 0 0 2.75-2.75v-4.825a2.643 2.643 0 0 0 .823-3.023l-.63-1.64a2.75 2.75 0 0 0-2.567-1.762h-7.252Zm4.626 11v1.5h-2v-1.5a.5.5 0 0 1 .5-.5h1a.5.5 0 0 1 .5.5Zm1.5 0v1.5h.75c.69 0 1.25-.56 1.25-1.25v-4.254a2.687 2.687 0 0 1-.148.004h-8.704c-.05 0-.1-.001-.148-.004v4.254c0 .69.56 1.25 1.25 1.25h.75v-1.5a2 2 0 0 1 2-2h1a2 2 0 0 1 2 2Zm2.924-7.06a1.147 1.147 0 0 1-1.072 1.56h-.602v-1.25a.75.75 0 0 0-1.5 0v1.25h-1.5v-1.25a.75.75 0 0 0-1.5 0v1.25h-1.5v-1.25a.75.75 0 0 0-1.5 0v1.25h-.602a1.148 1.148 0 0 1-1.071-1.56l.63-1.639a1.25 1.25 0 0 1 1.167-.801h7.252c.518 0 .981.319 1.167.801l.63 1.64Z" fill="#5C5F62"/></svg>