<svg viewBox="0 0 20 20" fill="none" xmlns="http://www.w3.org/2000/svg"><path fill-rule="evenodd" clip-rule="evenodd" d="M6.75 2.5a.75.75 0 0 1 .695.468l3.25 8a.75.75 0 1 1-1.39.564l-.826-2.032h-3.459l-.825 2.032a.75.75 0 0 1-1.39-.564l3.25-8a.75.75 0 0 1 .695-.468Zm1.12 5.5-1.12-2.757-1.12 2.757h2.24Z" fill="#5C5F62"/><path d="M3.5 13a.75.75 0 0 0 0 1.5h13a.75.75 0 0 0 0-1.5h-13Z" fill="#5C5F62"/><path d="M3.5 15.5a.75.75 0 0 0 0 1.5h8.75a.75.75 0 0 0 0-1.5h-8.75Z" fill="#5C5F62"/><path fill-rule="evenodd" clip-rule="evenodd" d="M15.566 6.44a3 3 0 1 0 0 5.118.75.75 0 0 0 1.434-.308v-4.5a.75.75 0 0 0-1.434-.31Zm-1.566 4.06a1.5 1.5 0 1 0 0-3 1.5 1.5 0 0 0 0 3Z" fill="#5C5F62"/></svg>