<svg viewBox="0 0 20 20" fill="none" xmlns="http://www.w3.org/2000/svg"><path fill-rule="evenodd" clip-rule="evenodd" d="M6.02 3.33a4.768 4.768 0 0 1 6.423 5.374l3.783 3.782a2.644 2.644 0 0 1-3.74 3.74l-3.782-3.782a4.768 4.768 0 0 1-5.374-6.424.75.75 0 0 1 1.229-.255l1.896 1.896a.853.853 0 0 0 1.206-1.206l-1.896-1.896a.75.75 0 0 1 .255-1.228Zm1.808 1.17.894.894a2.353 2.353 0 1 1-3.327 3.328l-.894-.894a3.268 3.268 0 0 0 4.216 3.068.75.75 0 0 1 .748.187l4.082 4.082a1.144 1.144 0 1 0 1.618-1.618l-4.082-4.082a.75.75 0 0 1-.187-.748 3.268 3.268 0 0 0-3.068-4.217Z" fill="#5C5F62"/></svg>