<svg viewBox="0 0 20 20" fill="none" xmlns="http://www.w3.org/2000/svg"><path fill-rule="evenodd" clip-rule="evenodd" d="M13 10a3 3 0 1 1-6 0 3 3 0 0 1 6 0Zm-1.5 0a1.5 1.5 0 1 1-3 0 1.5 1.5 0 0 1 3 0Z" fill="#000"/><path fill-rule="evenodd" clip-rule="evenodd" d="M18 10c0 1-3.582 6-8 6s-8-5-8-6 3.582-6 8-6 8 5 8 6Zm-1.478-.199v-.002l-.001.007.001-.005Zm-.4-.33c.142.213.245.392.313.529a5.202 5.202 0 0 1-.313.53 10.611 10.611 0 0 1-1.498 1.757c-1.323 1.257-2.969 2.213-4.624 2.213-1.655 0-3.301-.956-4.624-2.213a10.607 10.607 0 0 1-1.498-1.758 5.21 5.21 0 0 1-.313-.529c.068-.137.171-.316.313-.53.342-.514.855-1.147 1.498-1.757 1.323-1.257 2.969-2.213 4.624-2.213 1.655 0 3.301.956 4.624 2.213a10.61 10.61 0 0 1 1.498 1.758Z" fill="#000"/></svg>