<svg viewBox="0 0 20 20" fill="none" xmlns="http://www.w3.org/2000/svg"><path fill-rule="evenodd" clip-rule="evenodd" d="M13.5 4.5v3.114a3 3 0 0 0 .481 1.63l3.022 4.67c.86 1.33-.094 3.086-1.68 3.086h-10.647c-1.585 0-2.54-1.756-1.679-3.086l3.022-4.67a3 3 0 0 0 .481-1.63v-3.114h-.5a.75.75 0 0 1 0-1.5h8a.75.75 0 0 1 0 1.5h-.5Zm-5.5 3.114v-3.114h4v2.75h-.75a.75.75 0 0 0 0 1.5h.896c.12.462.314.904.576 1.309l.124.191h-5.692l.124-.191a4.5 4.5 0 0 0 .722-2.445Zm-1.816 4.136h7.632l1.927 2.978a.5.5 0 0 1-.42.772h-10.647a.5.5 0 0 1-.42-.772l1.928-2.978Z" fill="#5C5F62"/></svg>