<svg viewBox="0 0 20 20" fill="none" xmlns="http://www.w3.org/2000/svg"><path fill-rule="evenodd" clip-rule="evenodd" d="M15.237 3.177a1.75 1.75 0 0 0-2.474 0l-9.586 9.585a1.75 1.75 0 0 0 0 2.475l1.586 1.586a1.75 1.75 0 0 0 2.474 0l7.284-7.284.01-.009.008-.009 2.284-2.284a1.75 1.75 0 0 0 0-2.475l-1.586-1.585Zm-1.237 4.762 1.763-1.762a.25.25 0 0 0 0-.354l-1.586-1.586a.25.25 0 0 0-.354 0l-1.762 1.763 1.939 1.94Zm-3-.878-6.763 6.762a.25.25 0 0 0 0 .354l1.586 1.585a.25.25 0 0 0 .354 0l6.762-6.762-1.94-1.94Z" fill="#5C5F62"/><path d="M14.75 12.5a.75.75 0 0 1 .75.75v.75h.75a.75.75 0 0 1 0 1.5h-.75v.75a.75.75 0 0 1-1.5 0v-.75h-.75a.75.75 0 0 1 0-1.5h.75v-.75a.75.75 0 0 1 .75-.75Z" fill="#5C5F62"/><path d="M6 3.75a.75.75 0 0 0-1.5 0v.75h-.75a.75.75 0 0 0 0 1.5h.75v.75a.75.75 0 0 0 1.5 0v-.75h.75a.75.75 0 0 0 0-1.5h-.75v-.75Z" fill="#5C5F62"/></svg>