<svg viewBox="0 0 20 20" fill="none" xmlns="http://www.w3.org/2000/svg"><path d="M11.136 5.607a.75.75 0 0 1 .257 1.029l-.41.683a1 1 0 1 1-1.286-.772l.41-.683a.75.75 0 0 1 1.029-.257Z" fill="#5C5F62"/><path fill-rule="evenodd" clip-rule="evenodd" d="M17 9a3 3 0 0 0-2.752-2.99 4.502 4.502 0 0 0-8.495 0 3 3 0 0 0-2.753 2.99v5a3 3 0 0 0 3 3h8a3 3 0 0 0 3-3v-5Zm-7 1.5a3 3 0 1 0 0-6 3 3 0 0 0 0 6Zm0 1.5a4.5 4.5 0 0 0 4.5-4.415 1.5 1.5 0 0 1 1 1.415v5a1.5 1.5 0 0 1-1.5 1.5h-8a1.5 1.5 0 0 1-1.5-1.5v-5a1.5 1.5 0 0 1 1-1.415 4.5 4.5 0 0 0 4.5 4.415Z" fill="#5C5F62"/></svg>