<svg viewBox="0 0 20 20" xmlns="http://www.w3.org/2000/svg"><path d="M20 10c0-5.514-4.486-10-10-10S0 4.486 0 10s4.486 10 10 10 10-4.486 10-10zm-12.986.392a10.62 10.62 0 01.014-1H6.75a.75.75 0 110-1.5h.49C7.696 5.868 8.807 4.4 10.326 4.4c1.142 0 1.911.334 2.47 1.385a.992.992 0 01-1.75.932c-.16-.298-.24-.333-.72-.333-.335 0-.757.581-1.036 1.508h.959a.75.75 0 110 1.5H9.018a8.247 8.247 0 00-.019 1h1.251a.75.75 0 110 1.5H9.208c.272 1.102.749 1.812 1.119 1.812h.053c.329 0 .444.001.516-.054.04-.032.067-.081.11-.159a.993.993 0 011.738.958c-.555 1.006-1.205 1.24-2.366 1.239h-.051c-1.594 0-2.739-1.617-3.151-3.796H6.75a.75.75 0 110-1.5h.264z" fill="#5C5F62"/></svg>