<svg viewBox="0 0 20 20" xmlns="http://www.w3.org/2000/svg"><path d="M9.896 2.141A.98.98 0 1011.283.755.98.98 0 009.896 2.14z" fill="#5C5F62"/><path fill-rule="evenodd" d="M2.812 12.676a7.055 7.055 0 010-9.97A7.025 7.025 0 017.274.661a.9.9 0 01.132 1.795 5.225 5.225 0 00-3.321 1.521 5.255 5.255 0 000 7.425 5.256 5.256 0 005.491 1.227 2.95 2.95 0 11.674 1.67 7.057 7.057 0 01-7.438-1.624zm8.893.551a1.15 1.15 0 111.627-1.626 1.15 1.15 0 01-1.627 1.626z" fill="#5C5F62"/><path fill-rule="evenodd" d="M11.651 19.408a.9.9 0 01.22-1.786 5.242 5.242 0 004.36-1.496 5.255 5.255 0 000-7.425 5.257 5.257 0 00-5.556-1.204 2.95 2.95 0 11-.621-1.69 7.057 7.057 0 017.45 1.621 7.055 7.055 0 010 9.97 7.042 7.042 0 01-5.853 2.01zM6.914 6.81a1.15 1.15 0 101.627 1.627 1.15 1.15 0 00-1.627-1.627z" fill="#5C5F62"/><circle cx="8.646" cy="17.934" r=".94" fill="#5C5F62"/></svg>
