<svg viewBox="0 0 20 20" xmlns="http://www.w3.org/2000/svg"><path d="m11.4277 13.9986 1.572-3.538 1.573 3.538zm6.486 2.594-4-9c-.161-.361-.518-.594-.914-.594-.395 0-.753.233-.914.594l-1.958 4.406h-.12801c-1.276 0-2.24-.299-2.965-.716.004-.005.008-.007.012-.012 1.292-1.443 1.777-3.536 1.941-5.272h1.012c.55301 0 1.00001-.448 1.00001-1s-.447-1-1.00001-1h-.942c-.01499-.63-.058-1.051-.064-1.11-.06-.548-.543-.938-1.103-.884-.549.061-.944.555-.885 1.103.001.013.03501.359.05001.891h-4.05601c-.552 0-1 .448-1 1s.448 1 1 1h3.981c-.144 1.37-.516 2.921-1.42 3.934-.425-.606-.576-1.125-.592-1.183-.137-.532-.676-.856-1.211-.721-.536.134-.862.677-.727 1.213.118.474.373 1.071.778 1.679-.254.05-.522.078-.809.078-.552 0-1 .448-1 1s.448 1 1 1c.856 0 1.628-.16 2.321-.467.962.734 2.253 1.303 3.932 1.435l-1.167 2.626c-.223.505.003 1.095.508 1.32.506.227 1.097-.003 1.32-.508l.62501-1.406h4.922l.625 1.406c.166.373.531.594.915.594.136 0 .274-.027.406-.086.504-.225.731-.815.507-1.32z" fill="#5c5f62"/></svg>
