<svg viewBox="0 0 20 20" xmlns="http://www.w3.org/2000/svg">
<path fill-rule="evenodd" d="M0 10C0 4.486 4.486 0 10 0C15.514 0 20 4.486 20 10C20 15.514 15.514 20 10 20C8.273 20 6.576 19.55 5.076 18.695L2.036 19.899C0.827 20.358 -0.357 19.174 0.101 17.965L1.304 14.924C0.45 13.42 0 11.728 0 10ZM15.7 9.3547C15.8832 9.54163 15.9859 9.79294 15.9859 10.0547C15.9859 10.3165 15.8832 10.5678 15.7 10.7547L12.7 13.7547C12.5131 13.9379 12.2618 14.0406 12 14.0406C11.7382 14.0406 11.4869 13.9379 11.3 13.7547C11.1168 13.5678 11.0141 13.3165 11.0141 13.0547C11.0141 12.7929 11.1168 12.5416 11.3 12.3547L12.59 11.0547H6C5.73478 11.0547 5.48043 10.9493 5.29289 10.7618C5.10536 10.5743 5 10.3199 5 10.0547C5 9.78948 5.10536 9.53513 5.29289 9.34759C5.48043 9.16006 5.73478 9.0547 6 9.0547H12.59L11.29 7.7547C11.186 7.66429 11.1018 7.55338 11.0427 7.4289C10.9836 7.30442 10.9509 7.16907 10.9466 7.03135C10.9422 6.89362 10.9664 6.75649 11.0176 6.62855C11.0688 6.50062 11.1459 6.38464 11.244 6.2879C11.3421 6.19115 11.4592 6.11574 11.5878 6.06637C11.7165 6.01701 11.8539 5.99476 11.9916 6.00104C12.1292 6.00731 12.2641 6.04196 12.3877 6.10282C12.5114 6.16368 12.6211 6.24943 12.71 6.3547L15.71 9.3547H15.7Z" fill="#5C5F62"/>
</svg>
