<svg viewBox="0 0 20 20" xmlns="http://www.w3.org/2000/svg"><path d="M13.635 7.666c0 .272.106.528.298.72a1.044 1.044 0 001.441 0L17.7 6.059a1.013 1.013 0 000-1.442L15.374 2.29a1.042 1.042 0 00-1.44 0 1.008 1.008 0 00-.299.72c0 .272.106.528.3.72l.588.59H8.836C5.066 4.318 2 7.388 2 11.158 2 14.933 5.066 18 8.836 18c3.346 0 6.252-2.495 6.757-5.8.002-.009.016-.115.016-.194l.002-.352a1.02 1.02 0 00-1.018-1.019 1.02 1.02 0 00-1.019 1.019v.19c0 .318-.117.658-.139.728-.628 1.97-2.51 3.39-4.599 3.39a4.806 4.806 0 01-4.8-4.802 4.807 4.807 0 014.8-4.803h5.687l-.589.589a1.012 1.012 0 00-.299.72z" fill="#5C5F62"/></svg>