<svg viewBox="0 0 20 20" xmlns="http://www.w3.org/2000/svg"><path d="M1.791 2.253l-.597 3.583A1 1 0 002.18 7h.893a1.5 1.5 0 001.342-.83L5 5l.585 1.17A1.5 1.5 0 006.927 7h1.146a1.5 1.5 0 001.342-.83L10 5l.585 1.17a1.5 1.5 0 001.342.83h1.146a1.5 1.5 0 001.342-.83L15 5l.585 1.17a1.5 1.5 0 001.342.83h.893a1 1 0 00.986-1.164l-.597-3.583A1.5 1.5 0 0016.729 1H3.271a1.5 1.5 0 00-1.48 1.253z" fill="#5C5F62"/><path d="M18 9H2v8.5A1.5 1.5 0 003.5 19H7v-7h6v7h3.5a1.5 1.5 0 001.5-1.5V9z" fill="#5C5F62"/></svg>