<svg viewBox="0 0 20 20" xmlns="http://www.w3.org/2000/svg"><path d="M11 13a1 1 0 010 2c-2.206 0-4-1.794-4-4V4H5.816A2.997 2.997 0 013 6C1.346 6 0 4.654 0 3s1.346-3 3-3c1.302 0 2.401.839 2.816 2h8.368A2.997 2.997 0 0117 0c1.654 0 3 1.346 3 3s-1.346 3-3 3a2.995 2.995 0 01-2.815-2H9v7c0 1.103.897 2 2 2zm4.848 2.562l2.08 2.761a1 1 0 11-1.596 1.204l-3.01-3.993a1 1 0 011.259-1.49c.233.037.492.056.776.056.702 0 1.242-.478 1.494-1.235H13.75a.75.75 0 110-1.5h3.23c-.091-.72-.395-1.283-.844-1.58H14a1 1 0 110-2h5a1 1 0 110 2h-.944c.232.467.38 1.004.431 1.58h.763a.75.75 0 110 1.5h-.849c-.298 1.407-1.21 2.486-2.553 2.697z" fill="#5C5F62"/></svg>