<svg width="20" height="20" viewBox="0 0 20 20" fill="none" xmlns="http://www.w3.org/2000/svg">
<path d="M8.25 10.75C8.25 10.3358 8.58579 10 9 10H11C11.4142 10 11.75 10.3358 11.75 10.75C11.75 11.1642 11.4142 11.5 11 11.5H9C8.58579 11.5 8.25 11.1642 8.25 10.75Z" fill="#4A4A4A"/>
<path fill-rule="evenodd" clip-rule="evenodd" d="M5.25 3.5C4.2835 3.5 3.5 4.2835 3.5 5.25V7.25C3.5 7.84469 3.79663 8.37009 4.25 8.68633V13.75C4.25 15.2688 5.48122 16.5 7 16.5H13C14.5188 16.5 15.75 15.2688 15.75 13.75V8.68633C16.2034 8.37009 16.5 7.84469 16.5 7.25V5.25C16.5 4.2835 15.7165 3.5 14.75 3.5H5.25ZM14.25 9H5.75V13.75C5.75 14.4404 6.30964 15 7 15H13C13.6904 15 14.25 14.4404 14.25 13.75V9ZM5 5.25C5 5.11193 5.11193 5 5.25 5H14.75C14.8881 5 15 5.11193 15 5.25V7.25C15 7.38807 14.8881 7.5 14.75 7.5H5.25C5.11193 7.5 5 7.38807 5 7.25V5.25Z" fill="#4A4A4A"/>
</svg>
