<svg viewBox="0 0 20 20" xmlns="http://www.w3.org/2000/svg"><path fill-rule="evenodd" d="M4 16a1.5 1.5 0 0 0 2.574 1.047l1.176-1.206 1.176 1.206a1.5 1.5 0 0 0 2.148 0l1.176-1.206 1.176 1.206a1.5 1.5 0 0 0 2.574-1.047v-11a2.5 2.5 0 0 0-2.5-2.5h-7a2.5 2.5 0 0 0-2.5 2.5v11Zm1.5 0 1.534-1.573a1 1 0 0 1 1.432 0l1.534 1.573 1.534-1.573a1 1 0 0 1 1.432 0l1.534 1.573v-11a1 1 0 0 0-1-1h-7a1 1 0 0 0-1 1v11Zm4-10a2 2 0 1 0 0 4h1a.5.5 0 0 1 0 1h-2.25a.75.75 0 0 0 0 1.5h.75v.25a.75.75 0 0 0 1.5 0v-.25a2 2 0 1 0 0-4h-1a.5.5 0 0 1 0-1h2.25a.75.75 0 0 0 0-1.5h-.75v-.25a.75.75 0 0 0-1.5 0v.25Z" fill="#5C5F62"/></svg>