<svg viewBox="0 0 20 20" xmlns="http://www.w3.org/2000/svg"><path fill-rule="evenodd" d="M4.963 17.4a1.5 1.5 0 0 1-.963-1.4v-11a2.5 2.5 0 0 1 2.5-2.5h7a2.5 2.5 0 0 1 2.5 2.5v11a1.5 1.5 0 0 1-2.615 1.003l-1.135-1.26-1.135 1.26a1.5 1.5 0 0 1-2.23 0l-1.135-1.26-1.135 1.26a1.5 1.5 0 0 1-1.652.397Zm2.787-2.405Zm4.601-.995h-.203a.995.995 0 0 0-.641.326l-1.507 1.674-1.507-1.674a.995.995 0 0 0-.641-.326h-.204a.995.995 0 0 0-.641.326l-1.507 1.674v-11a1 1 0 0 1 1-1h7a1 1 0 0 1 1 1v11l-1.507-1.674a.995.995 0 0 0-.642-.326Z" fill="#5C5F62"/><path d="M8.494 5.436a.75.75 0 1 0-.988 1.128l1.744 1.526v.41h-1.25a.75.75 0 0 0 0 1.5h1.25v.5h-1.25a.75.75 0 0 0 0 1.5h1.25v.5a.75.75 0 0 0 1.5 0v-.5h1.25a.75.75 0 0 0 0-1.5h-1.25v-.5h1.25a.75.75 0 0 0 0-1.5h-1.25v-.41l1.744-1.526a.75.75 0 0 0-.988-1.128l-1.506 1.317-1.506-1.317Z" fill="#5C5F62"/></svg>