<svg width="20" height="20" viewBox="0 0 20 20" fill="none" xmlns="http://www.w3.org/2000/svg">
<path d="M3.5 5.25C3.5 4.2835 4.2835 3.5 5.25 3.5H6.25C6.66421 3.5 7 3.83579 7 4.25C7 4.66421 6.66421 5 6.25 5H5.25C5.11193 5 5 5.11193 5 5.25V6.25C5 6.66421 4.66421 7 4.25 7C3.83579 7 3.5 6.66421 3.5 6.25V5.25Z" fill="#4A4A4A"/>
<path fill-rule="evenodd" clip-rule="evenodd" d="M6.5 7C5.39543 7 4.5 7.89543 4.5 9V11C4.5 12.1046 5.39543 13 6.5 13H8.5C9.60457 13 10.5 12.1046 10.5 11V9C10.5 7.89543 9.60457 7 8.5 7H6.5ZM8.5 8.5H6.5C6.22386 8.5 6 8.72386 6 9V11C6 11.2761 6.22386 11.5 6.5 11.5H8.5C8.77614 11.5 9 11.2761 9 11V9C9 8.72386 8.77614 8.5 8.5 8.5Z" fill="#4A4A4A"/>
<path d="M11 8.5C11 8.08579 11.3358 7.75 11.75 7.75H14.75C15.1642 7.75 15.5 8.08579 15.5 8.5C15.5 8.91421 15.1642 9.25 14.75 9.25H11.75C11.3358 9.25 11 8.91421 11 8.5Z" fill="#4A4A4A"/>
<path d="M11.75 10.75C11.3358 10.75 11 11.0858 11 11.5C11 11.9142 11.3358 12.25 11.75 12.25H13.25C13.6642 12.25 14 11.9142 14 11.5C14 11.0858 13.6642 10.75 13.25 10.75H11.75Z" fill="#4A4A4A"/>
<path d="M3.5 14.75C3.5 15.7165 4.2835 16.5 5.25 16.5H6.25C6.66421 16.5 7 16.1642 7 15.75C7 15.3358 6.66421 15 6.25 15H5.25C5.11193 15 5 14.8881 5 14.75L5 13.75C5 13.3358 4.66421 13 4.25 13C3.83579 13 3.5 13.3358 3.5 13.75V14.75Z" fill="#4A4A4A"/>
<path d="M14.75 3.5C15.7165 3.5 16.5 4.2835 16.5 5.25V6.25C16.5 6.66421 16.1642 7 15.75 7C15.3358 7 15 6.66421 15 6.25V5.25C15 5.11193 14.8881 5 14.75 5L13.75 5C13.3358 5 13 4.66421 13 4.25C13 3.83579 13.3358 3.5 13.75 3.5H14.75Z" fill="#4A4A4A"/>
<path d="M14.75 16.5C15.7165 16.5 16.5 15.7165 16.5 14.75V13.75C16.5 13.3358 16.1642 13 15.75 13C15.3358 13 15 13.3358 15 13.75V14.75C15 14.8881 14.8881 15 14.75 15H13.75C13.3358 15 13 15.3358 13 15.75C13 16.1642 13.3358 16.5 13.75 16.5H14.75Z" fill="#4A4A4A"/>
<path d="M11.75 4.25C11.75 4.66421 11.4142 5 11 5L9 5C8.58579 5 8.25 4.66421 8.25 4.25C8.25 3.83579 8.58579 3.5 9 3.5H11C11.4142 3.5 11.75 3.83579 11.75 4.25Z" fill="#4A4A4A"/>
<path d="M11 16.5C11.4142 16.5 11.75 16.1642 11.75 15.75C11.75 15.3358 11.4142 15 11 15H9C8.58579 15 8.25 15.3358 8.25 15.75C8.25 16.1642 8.58579 16.5 9 16.5H11Z" fill="#4A4A4A"/>
</svg>
