<svg width="20" height="20" viewBox="0 0 20 20" fill="none" xmlns="http://www.w3.org/2000/svg">
<path d="M5.25 3.5C4.2835 3.5 3.5 4.2835 3.5 5.25V6.25C3.5 6.66421 3.83579 7 4.25 7C4.66421 7 5 6.66421 5 6.25V5.25C5 5.11193 5.11193 5 5.25 5H6.25C6.66421 5 7 4.66421 7 4.25C7 3.83579 6.66421 3.5 6.25 3.5H5.25Z" fill="#4A4A4A"/>
<path d="M16.5 5.25C16.5 4.2835 15.7165 3.5 14.75 3.5H13.75C13.3358 3.5 13 3.83579 13 4.25C13 4.66421 13.3358 5 13.75 5L14.75 5C14.8881 5 15 5.11193 15 5.25V6.25C15 6.66421 15.3358 7 15.75 7C16.1642 7 16.5 6.66421 16.5 6.25V5.25Z" fill="#4A4A4A"/>
<path d="M16.5 14.75C16.5 15.7165 15.7165 16.5 14.75 16.5H13.75C13.3358 16.5 13 16.1642 13 15.75C13 15.3358 13.3358 15 13.75 15H14.75C14.8881 15 15 14.8881 15 14.75V13.75C15 13.3358 15.3358 13 15.75 13C16.1642 13 16.5 13.3358 16.5 13.75V14.75Z" fill="#4A4A4A"/>
<path d="M3.5 14.75C3.5 15.7165 4.2835 16.5 5.25 16.5H6.25C6.66421 16.5 7 16.1642 7 15.75C7 15.3358 6.66421 15 6.25 15H5.25C5.11193 15 5 14.8881 5 14.75L5 13.75C5 13.3358 4.66421 13 4.25 13C3.83579 13 3.5 13.3358 3.5 13.75V14.75Z" fill="#4A4A4A"/>
<path d="M15.75 11.75C15.3358 11.75 15 11.4142 15 11V9C15 8.58579 15.3358 8.25 15.75 8.25C16.1642 8.25 16.5 8.58579 16.5 9V11C16.5 11.4142 16.1642 11.75 15.75 11.75Z" fill="#4A4A4A"/>
<path d="M3.5 11C3.5 11.4142 3.83579 11.75 4.25 11.75C4.66421 11.75 5 11.4142 5 11L5 9C5 8.58579 4.66421 8.25 4.25 8.25C3.83579 8.25 3.5 8.58579 3.5 9V11Z" fill="#4A4A4A"/>
<path fill-rule="evenodd" clip-rule="evenodd" d="M9 5.5C7.89543 5.5 7 6.39543 7 7.5V9.5C7 10.6046 7.89543 11.5 9 11.5H11C12.1046 11.5 13 10.6046 13 9.5V7.5C13 6.39543 12.1046 5.5 11 5.5H9ZM11 7H9C8.72386 7 8.5 7.22386 8.5 7.5V9.5C8.5 9.77614 8.72386 10 9 10H11C11.2761 10 11.5 9.77614 11.5 9.5V7.5C11.5 7.22386 11.2761 7 11 7Z" fill="#4A4A4A"/>
<path d="M7.75 13C7.33579 13 7 13.3358 7 13.75C7 14.1642 7.33579 14.5 7.75 14.5H12.25C12.6642 14.5 13 14.1642 13 13.75C13 13.3358 12.6642 13 12.25 13H7.75Z" fill="#4A4A4A"/>
</svg>
