<svg width="20" height="20" viewBox="0 0 20 20" fill="none" xmlns="http://www.w3.org/2000/svg">
<path d="M9.5 6.5C9.5 6.08579 9.83579 5.75 10.25 5.75C10.6642 5.75 11 6.08579 11 6.5V6.75H11.75C12.1642 6.75 12.5 7.08579 12.5 7.5C12.5 7.91421 12.1642 8.25 11.75 8.25H9.5C9.22386 8.25 9 8.47386 9 8.75C9 9.02614 9.22386 9.25 9.5 9.25H10.5C11.6046 9.25 12.5 10.1454 12.5 11.25C12.5 12.3546 11.6046 13.25 10.5 13.25V13.5C10.5 13.9142 10.1642 14.25 9.75 14.25C9.33579 14.25 9 13.9142 9 13.5V13.25H8.25C7.83579 13.25 7.5 12.9142 7.5 12.5C7.5 12.0858 7.83579 11.75 8.25 11.75H10.5C10.7761 11.75 11 11.5261 11 11.25C11 10.9739 10.7761 10.75 10.5 10.75H9.5C8.39543 10.75 7.5 9.85457 7.5 8.75C7.5 7.64543 8.39543 6.75 9.5 6.75V6.5Z" fill="#4A4A4A"/>
<path fill-rule="evenodd" clip-rule="evenodd" d="M17 10C17 13.866 13.866 17 10 17C6.13401 17 3 13.866 3 10C3 6.13401 6.13401 3 10 3C13.866 3 17 6.13401 17 10ZM15.5 10C15.5 13.0376 13.0376 15.5 10 15.5C6.96243 15.5 4.5 13.0376 4.5 10C4.5 6.96243 6.96243 4.5 10 4.5C13.0376 4.5 15.5 6.96243 15.5 10Z" fill="#4A4A4A"/>
</svg>
