<svg width="20" height="20" viewBox="0 0 20 20" fill="none" xmlns="http://www.w3.org/2000/svg">
<path fill-rule="evenodd" clip-rule="evenodd" d="M17 10C17 13.866 13.866 17 10 17C6.13401 17 3 13.866 3 10C3 6.13401 6.13401 3 10 3C13.866 3 17 6.13401 17 10ZM13.3226 14.3833C12.3996 15.0841 11.2484 15.5 10 15.5C6.96243 15.5 4.5 13.0376 4.5 10C4.5 8.75165 4.9159 7.60043 5.6167 6.67736L13.3226 14.3833ZM14.3833 13.3226L6.67736 5.6167C7.60043 4.9159 8.75165 4.5 10 4.5C13.0376 4.5 15.5 6.96243 15.5 10C15.5 11.2484 15.0841 12.3996 14.3833 13.3226Z" fill="#4A4A4A"/>
</svg>
