<svg width="20" height="20" viewBox="0 0 20 20" fill="none" xmlns="http://www.w3.org/2000/svg">
<path d="M9.99998 14C9.58577 14 9.24999 13.6642 9.25 13.25L9.25006 9.74999C9.25007 9.33577 9.58586 8.99999 10.0001 9C10.4143 9.00001 10.7501 9.3358 10.7501 9.75001L10.75 13.25C10.75 13.6642 10.4142 14 9.99998 14Z" fill="#4A4A4A"/>
<path d="M9 7C9 6.44772 9.44772 6 10 6C10.5523 6 11 6.44772 11 7C11 7.55228 10.5523 8 10 8C9.44772 8 9 7.55228 9 7Z" fill="#4A4A4A"/>
<path fill-rule="evenodd" clip-rule="evenodd" d="M17 10C17 13.866 13.866 17 10 17C6.13401 17 3 13.866 3 10C3 6.13401 6.13401 3 10 3C13.866 3 17 6.13401 17 10ZM15.5 10C15.5 13.0376 13.0376 15.5 10 15.5C6.96243 15.5 4.5 13.0376 4.5 10C4.5 6.96243 6.96243 4.5 10 4.5C13.0376 4.5 15.5 6.96243 15.5 10Z" fill="#4A4A4A"/>
</svg>
