<svg width="20" height="20" viewBox="0 0 20 20" fill="none" xmlns="http://www.w3.org/2000/svg">
<path d="M7.53033 8.21967C7.23744 7.92678 6.76256 7.92678 6.46967 8.21967C6.17678 8.51256 6.17678 8.98744 6.46967 9.28033L9.46967 12.2803C9.76256 12.5732 10.2374 12.5732 10.5303 12.2803L13.5303 9.28033C13.8232 8.98744 13.8232 8.51256 13.5303 8.21967C13.2374 7.92678 12.7626 7.92678 12.4697 8.21967L10 10.6893L7.53033 8.21967Z" fill="#4A4A4A"/>
<path fill-rule="evenodd" clip-rule="evenodd" d="M17 10C17 13.866 13.866 17 10 17C6.13401 17 3 13.866 3 10C3 6.13401 6.13401 3 10 3C13.866 3 17 6.13401 17 10ZM15.5 10C15.5 13.0376 13.0376 15.5 10 15.5C6.96243 15.5 4.5 13.0376 4.5 10C4.5 6.96243 6.96243 4.5 10 4.5C13.0376 4.5 15.5 6.96243 15.5 10Z" fill="#4A4A4A"/>
</svg>
