<svg width="20" height="20" viewBox="0 0 20 20" fill="none" xmlns="http://www.w3.org/2000/svg">
<path d="M6.5 11.25C7.19036 11.25 7.75 10.6904 7.75 10C7.75 9.30964 7.19036 8.75 6.5 8.75C5.80964 8.75 5.25 9.30964 5.25 10C5.25 10.6904 5.80964 11.25 6.5 11.25Z" fill="#4A4A4A"/>
<path d="M10 11.25C10.6904 11.25 11.25 10.6904 11.25 10C11.25 9.30964 10.6904 8.75 10 8.75C9.30964 8.75 8.75 9.30964 8.75 10C8.75 10.6904 9.30964 11.25 10 11.25Z" fill="#4A4A4A"/>
<path d="M14.75 10C14.75 10.6904 14.1904 11.25 13.5 11.25C12.8096 11.25 12.25 10.6904 12.25 10C12.25 9.30964 12.8096 8.75 13.5 8.75C14.1904 8.75 14.75 9.30964 14.75 10Z" fill="#4A4A4A"/>
<path fill-rule="evenodd" clip-rule="evenodd" d="M17 10C17 13.866 13.866 17 10 17C6.13401 17 3 13.866 3 10C3 6.13401 6.13401 3 10 3C13.866 3 17 6.13401 17 10ZM15.5 10C15.5 13.0376 13.0376 15.5 10 15.5C6.96243 15.5 4.5 13.0376 4.5 10C4.5 6.96243 6.96243 4.5 10 4.5C13.0376 4.5 15.5 6.96243 15.5 10Z" fill="#4A4A4A"/>
</svg>
