<svg width="20" height="20" viewBox="0 0 20 20" fill="none" xmlns="http://www.w3.org/2000/svg">
<path d="M8.21967 12.4697C7.92678 12.7626 7.92678 13.2374 8.21967 13.5303C8.51256 13.8232 8.98744 13.8232 9.28033 13.5303L12.2803 10.5303C12.5728 10.2379 12.5733 9.76386 12.2814 9.47079L9.28145 6.45811C8.98917 6.1646 8.5143 6.1636 8.22079 6.45588C7.92728 6.74815 7.92628 7.22302 8.21855 7.51653L10.6905 9.99888L8.21967 12.4697Z" fill="#4A4A4A"/>
<path fill-rule="evenodd" clip-rule="evenodd" d="M17 10C17 13.866 13.866 17 10 17C6.13401 17 3 13.866 3 10C3 6.13401 6.13401 3 10 3C13.866 3 17 6.13401 17 10ZM15.5 10C15.5 13.0376 13.0376 15.5 10 15.5C6.96243 15.5 4.5 13.0376 4.5 10C4.5 6.96243 6.96243 4.5 10 4.5C13.0376 4.5 15.5 6.96243 15.5 10Z" fill="#4A4A4A"/>
</svg>
