<svg width="20" height="20" viewBox="0 0 20 20" fill="none" xmlns="http://www.w3.org/2000/svg">
<path d="M11.2652 2.95192C10.5016 2.4327 9.49836 2.43269 8.7348 2.95192L4.64134 5.73547C3.61459 6.43366 3 7.5948 3 8.83645V16.2486C3 16.6628 3.33579 16.9986 3.75 16.9986C4.16421 16.9986 4.5 16.6628 4.5 16.2486V8.83645C4.5 8.09146 4.86875 7.39477 5.4848 6.97586L9.57827 4.1923C9.83279 4.01923 10.1672 4.01923 10.4217 4.19231L14.5152 6.97586C15.1312 7.39477 15.5 8.09146 15.5 8.83645V16.2486C15.5 16.6628 15.8358 16.9986 16.25 16.9986C16.6642 16.9986 17 16.6628 17 16.2486V8.83645C17 7.5948 16.3854 6.43366 15.3587 5.73547L11.2652 2.95192Z" fill="#4A4A4A"/>
<path fill-rule="evenodd" clip-rule="evenodd" d="M10 16.9675C9.92009 16.9881 9.83632 16.999 9.75 16.999H6.75C6.19772 16.999 5.75 16.5513 5.75 15.999L5.75 12.499C5.75 11.9467 6.19772 11.499 6.75 11.499H7.5V8.49902C7.5 7.94674 7.94772 7.49902 8.5 7.49902H11.5C12.0523 7.49902 12.5 7.94674 12.5 8.49902V11.499H13.25C13.8023 11.499 14.25 11.9467 14.25 12.499V15.999C14.25 16.5513 13.8023 16.999 13.25 16.999H10.25C10.1637 16.999 10.0799 16.9881 10 16.9675ZM10.75 12.999V15.499H12.75V12.999H10.75ZM9.25 15.499L9.25 12.999H7.25V15.499H9.25ZM11 11.499L11 8.99902H9V11.499H11Z" fill="#4A4A4A"/>
</svg>
