<svg width="20" height="20" viewBox="0 0 20 20" fill="none" xmlns="http://www.w3.org/2000/svg">
<path d="M11.75 3.5C11.3358 3.5 11 3.83579 11 4.25C11 4.66421 11.3358 5 11.75 5H13.9393L8.96967 9.96967C8.67678 10.2626 8.67678 10.7374 8.96967 11.0303C9.26256 11.3232 9.73744 11.3232 10.0303 11.0303L15 6.06066V8.25C15 8.66421 15.3358 9 15.75 9C16.1642 9 16.5 8.66421 16.5 8.25V4.25C16.5 3.83579 16.1642 3.5 15.75 3.5H11.75Z" fill="#4A4A4A"/>
<path d="M15 10.9674C15 10.5532 14.6642 10.2174 14.25 10.2174C13.8358 10.2174 13.5 10.5532 13.5 10.9674V13.75C13.5 14.4404 12.9404 15 12.25 15H6.25C5.55964 15 5 14.4404 5 13.75L5 7.75C5 7.05964 5.55965 6.5 6.25 6.5L9.03261 6.5C9.44682 6.5 9.78261 6.16421 9.78261 5.75C9.78261 5.33579 9.44682 5 9.03261 5L6.25 5C4.73122 5 3.5 6.23122 3.5 7.75V13.75C3.5 15.2688 4.73122 16.5 6.25 16.5H12.25C13.7688 16.5 15 15.2688 15 13.75V10.9674Z" fill="#4A4A4A"/>
</svg>
