<svg width="20" height="20" viewBox="0 0 20 20" fill="none" xmlns="http://www.w3.org/2000/svg">
<path fill-rule="evenodd" clip-rule="evenodd" d="M9.75489 3.14518C10.078 3.00846 10.4438 3.01386 10.7628 3.16006L16.4167 5.75143C16.7721 5.91434 17 6.26948 17 6.66049V7.25007C17 7.80235 16.5523 8.25007 16 8.25007H15.5V12H15.75C16.1642 12 16.5 12.3358 16.5 12.75C16.5 13.1642 16.1642 13.5 15.75 13.5H4.25C3.83579 13.5 3.5 13.1642 3.5 12.75C3.5 12.3358 3.83579 12 4.25 12H4.5V8.25007H4C3.44772 8.25007 3 7.80235 3 7.25007V6.66575C3 6.26403 3.24039 5.90131 3.61036 5.74478L9.75489 3.14518ZM10.2379 4.56955L5.08394 6.75007H14.9954L10.2379 4.56955ZM14 12V8.25007H12.5V12H14ZM9 8.25007H11V12H9V8.25007ZM7.5 12V8.25007H6V12H7.5Z" fill="#4A4A4A"/>
<path d="M3.5 15.25C3.5 14.8358 3.83579 14.5 4.25 14.5H15.75C16.1642 14.5 16.5 14.8358 16.5 15.25C16.5 15.6642 16.1642 16 15.75 16H4.25C3.83579 16 3.5 15.6642 3.5 15.25Z" fill="#4A4A4A"/>
</svg>
