<svg viewBox="0 0 20 20" xmlns="http://www.w3.org/2000/svg"><path d="M3.5 5.25c0-.966.784-1.75 1.75-1.75h.5a.75.75 0 0 1 0 1.5h-.5a.25.25 0 0 0-.25.25v.5a.75.75 0 0 1-1.5 0v-.5Z" fill="#5C5F62"/><path fill-rule="evenodd" d="M3.5 13.25c0-.966.784-1.75 1.75-1.75h9.5c.966 0 1.75.784 1.75 1.75v1.5a1.75 1.75 0 0 1-1.75 1.75h-9.5a1.75 1.75 0 0 1-1.75-1.75v-1.5Zm1.75-.25a.25.25 0 0 0-.25.25v1.5c0 .138.112.25.25.25h9.5a.25.25 0 0 0 .25-.25v-1.5a.25.25 0 0 0-.25-.25h-9.5Z" fill="#5C5F62"/><path d="M3.5 8.75c0 .966.784 1.75 1.75 1.75h.5a.75.75 0 0 0 0-1.5h-.5a.25.25 0 0 1-.25-.25v-.5a.75.75 0 0 0-1.5 0v.5Z" fill="#5C5F62"/><path d="M14.75 3.5c.966 0 1.75.784 1.75 1.75v.5a.75.75 0 0 1-1.5 0v-.5a.25.25 0 0 0-.25-.25h-.5a.75.75 0 0 1 0-1.5h.5Z" fill="#5C5F62"/><path d="M14.75 10.5a1.75 1.75 0 0 0 1.75-1.75v-.5a.75.75 0 0 0-1.5 0v.5a.25.25 0 0 1-.25.25h-.5a.75.75 0 0 0 0 1.5h.5Z" fill="#5C5F62"/><path d="M11.75 4.25a.75.75 0 0 1-.75.75h-2a.75.75 0 0 1 0-1.5h2a.75.75 0 0 1 .75.75Z" fill="#5C5F62"/><path d="M11 10.5a.75.75 0 0 0 0-1.5h-2a.75.75 0 0 0 0 1.5h2Z" fill="#5C5F62"/></svg>