<svg width="20" height="20" viewBox="0 0 20 20" fill="none" xmlns="http://www.w3.org/2000/svg">
<path fill-rule="evenodd" clip-rule="evenodd" d="M8.34416 3.69244C9.23548 2.72361 10.7645 2.72361 11.6558 3.69244L15.5097 7.88146C16.1466 8.57365 16.5 9.47986 16.5 10.4204V13.7503C16.5 15.2691 15.2688 16.5003 13.75 16.5003H12C11.1716 16.5003 10.5 15.8288 10.5 15.0003V13.0003H9.5V15.0003C9.5 15.8288 8.82843 16.5003 8 16.5003H6.25C4.73122 16.5003 3.5 15.2691 3.5 13.7503V10.4204C3.5 9.47986 3.85345 8.57365 4.49026 7.88146L8.34416 3.69244ZM10.5519 4.70803C10.2548 4.38508 9.74516 4.38508 9.44805 4.70803L5.59416 8.89705C5.21207 9.31236 5 9.85609 5 10.4204V13.7503C5 14.4407 5.55964 15.0003 6.25 15.0003H8V13.0003C8 12.1719 8.67157 11.5003 9.5 11.5003H10.5C11.3284 11.5003 12 12.1719 12 13.0003V15.0003H13.75C14.4404 15.0003 15 14.4407 15 13.7503V10.4204C15 9.85609 14.7879 9.31236 14.4058 8.89705L10.5519 4.70803Z" fill="#4A4A4A"/>
</svg>
