<svg width="20" height="20" viewBox="0 0 20 20" fill="none" xmlns="http://www.w3.org/2000/svg">
<path d="M3.5 10.25C3.5 9.83579 3.83579 9.5 4.25 9.5C4.66421 9.5 5 9.83579 5 10.25L5 13.75C5 14.4404 5.55964 15 6.25 15H13.75C14.4404 15 15 14.4404 15 13.75V6.25C15 5.55964 14.4404 5 13.75 5L10.25 5C9.83579 5 9.5 4.66421 9.5 4.25C9.5 3.83579 9.83579 3.5 10.25 3.5H13.75C15.2688 3.5 16.5 4.73122 16.5 6.25V13.75C16.5 15.2688 15.2688 16.5 13.75 16.5H6.25C4.73122 16.5 3.5 15.2688 3.5 13.75V10.25Z" fill="#4A4A4A"/>
<path d="M6.75 11.5C6.33579 11.5 6 11.1642 6 10.75C6 10.3358 6.33579 10 6.75 10H8.93934L3.96967 5.03033C3.67678 4.73744 3.67678 4.26256 3.96967 3.96967C4.26256 3.67678 4.73744 3.67678 5.03033 3.96967L10 8.93934V6.75C10 6.33579 10.3358 6 10.75 6C11.1642 6 11.5 6.33579 11.5 6.75V10.75C11.5 11.1642 11.1642 11.5 10.75 11.5H6.75Z" fill="#4A4A4A"/>
</svg>
