<svg width="20" height="20" viewBox="0 0 20 20" fill="none" xmlns="http://www.w3.org/2000/svg">
<path d="M11 6.5C11 7.05228 10.5523 7.5 10 7.5C9.44772 7.5 9 7.05228 9 6.5C9 5.94772 9.44772 5.5 10 5.5C10.5523 5.5 11 5.94772 11 6.5Z" fill="#4A4A4A"/>
<path d="M10.75 9.25C10.75 8.83579 10.4142 8.5 10 8.5C9.58579 8.5 9.25 8.83579 9.25 9.25V13.75C9.25 14.1642 9.58579 14.5 10 14.5C10.4142 14.5 10.75 14.1642 10.75 13.75V9.25Z" fill="#4A4A4A"/>
<path fill-rule="evenodd" clip-rule="evenodd" d="M10 17C13.866 17 17 13.866 17 10C17 6.13401 13.866 3 10 3C6.13401 3 3 6.13401 3 10C3 13.866 6.13401 17 10 17ZM10 15.5C13.0376 15.5 15.5 13.0376 15.5 10C15.5 6.96243 13.0376 4.5 10 4.5C6.96243 4.5 4.5 6.96243 4.5 10C4.5 13.0376 6.96243 15.5 10 15.5Z" fill="#4A4A4A"/>
</svg>
