<svg width="20" height="20" viewBox="0 0 20 20" fill="none" xmlns="http://www.w3.org/2000/svg">
<path fill-rule="evenodd" clip-rule="evenodd" d="M15.8424 4.17535C14.3794 2.71238 12.0075 2.71238 10.5445 4.17535L8.4279 6.29194C6.95981 7.76003 6.96398 10.1416 8.43721 11.6045L8.7764 11.9413C9.07032 12.2332 9.54519 12.2315 9.83705 11.9376C10.1289 11.6437 10.1273 11.1688 9.83334 10.877L9.49414 10.5401C8.61021 9.66238 8.6077 8.23346 9.48856 7.3526L11.6051 5.23601C12.4823 4.35883 13.9045 4.35883 14.7817 5.23601C15.6605 6.11478 15.6587 7.54011 14.7776 8.41662L13.7256 9.46325C13.432 9.7554 13.4308 10.2303 13.7229 10.5239C14.0151 10.8176 14.4899 10.8188 14.7836 10.5266L15.8356 9.47999C17.3049 8.01813 17.308 5.64096 15.8424 4.17535ZM4.17849 15.8453C5.64296 17.3098 8.01733 17.3098 9.4818 15.8453L11.6031 13.724C13.0676 12.2596 13.0676 9.88518 11.6031 8.42071L11.2411 8.0587C10.9482 7.76581 10.4733 7.76581 10.1804 8.0587C9.88755 8.35159 9.88755 8.82647 10.1804 9.11936L10.5425 9.48138C11.4211 10.3601 11.4211 11.7847 10.5425 12.6634L8.42114 14.7847C7.54246 15.6634 6.11783 15.6634 5.23916 14.7847C4.36048 13.906 4.36048 12.4814 5.23915 11.6027L6.30812 10.5337C6.60102 10.2408 6.60102 9.76596 6.30812 9.47307C6.01523 9.18017 5.54036 9.18017 5.24746 9.47307L4.17849 10.542C2.71403 12.0065 2.71403 14.3809 4.17849 15.8453Z" fill="#4A4A4A"/>
</svg>
