<svg width="20" height="20" viewBox="0 0 20 20" fill="none" xmlns="http://www.w3.org/2000/svg">
<path d="M4.52296 6.28033C2.47271 8.33058 2.47271 11.6547 4.52296 13.705C4.81586 13.9978 4.81586 14.4727 4.52296 14.7656C4.23007 15.0585 3.7552 15.0585 3.4623 14.7656C0.826263 12.1296 0.826262 7.85571 3.4623 5.21967C3.75519 4.92678 4.23007 4.92678 4.52296 5.21967C4.81585 5.51256 4.81585 5.98744 4.52296 6.28033Z" fill="#4A4A4A"/>
<path fill-rule="evenodd" clip-rule="evenodd" d="M7.25 9.99997C7.25 8.48118 8.48122 7.24996 10 7.24996C11.5188 7.24996 12.75 8.48118 12.75 9.99997C12.75 11.5187 11.5188 12.75 10 12.75C8.48122 12.75 7.25 11.5187 7.25 9.99997ZM10 8.74996C9.30964 8.74996 8.75 9.30961 8.75 9.99997C8.75 10.6903 9.30964 11.25 10 11.25C10.6904 11.25 11.25 10.6903 11.25 9.99997C11.25 9.30961 10.6904 8.74996 10 8.74996Z" fill="#4A4A4A"/>
<path d="M15.4623 13.705C17.5126 11.6547 17.5126 8.33058 15.4623 6.28033C15.1694 5.98744 15.1694 5.51256 15.4623 5.21967C15.7552 4.92678 16.2301 4.92678 16.523 5.21967C19.159 7.85571 19.159 12.1296 16.523 14.7656C16.2301 15.0585 15.7552 15.0585 15.4623 14.7656C15.1694 14.4727 15.1694 13.9978 15.4623 13.705Z" fill="#4A4A4A"/>
<path d="M6.79072 8.0481C5.71678 9.12204 5.71678 10.8632 6.79072 11.9372C7.08361 12.2301 7.08361 12.705 6.79072 12.9978C6.49782 13.2907 6.02295 13.2907 5.73006 12.9978C4.07033 11.3381 4.07033 8.64717 5.73006 6.98744C6.02295 6.69454 6.49782 6.69454 6.79072 6.98744C7.08361 7.28033 7.08361 7.7552 6.79072 8.0481Z" fill="#4A4A4A"/>
<path d="M13.1945 11.9372C14.2685 10.8632 14.2685 9.12204 13.1945 8.0481C12.9016 7.7552 12.9016 7.28033 13.1945 6.98744C13.4874 6.69454 13.9623 6.69454 14.2552 6.98744C15.9149 8.64717 15.9149 11.3381 14.2552 12.9978C13.9623 13.2907 13.4874 13.2907 13.1945 12.9978C12.9016 12.705 12.9016 12.2301 13.1945 11.9372Z" fill="#4A4A4A"/>
</svg>
