<svg width="20" height="20" viewBox="0 0 20 20" fill="none" xmlns="http://www.w3.org/2000/svg">
<path fill-rule="evenodd" clip-rule="evenodd" d="M6.5 6.25C6.5 5.69772 6.94772 5.25 7.5 5.25H12.5C13.0523 5.25 13.5 5.69772 13.5 6.25V9.25C13.5 9.80228 13.0523 10.25 12.5 10.25H7.5C6.94772 10.25 6.5 9.80228 6.5 9.25V6.25ZM8 8.75V6.75H12V8.75H8Z" fill="#4A4A4A"/>
<path d="M6.5 11.75C6.5 11.3358 6.83579 11 7.25 11H8.75C9.16421 11 9.5 11.3358 9.5 11.75C9.5 12.1642 9.16421 12.5 8.75 12.5H7.25C6.83579 12.5 6.5 12.1642 6.5 11.75Z" fill="#4A4A4A"/>
<path d="M11.25 11C10.8358 11 10.5 11.3358 10.5 11.75C10.5 12.1642 10.8358 12.5 11.25 12.5H12.75C13.1642 12.5 13.5 12.1642 13.5 11.75C13.5 11.3358 13.1642 11 12.75 11H11.25Z" fill="#4A4A4A"/>
<path d="M6.5 14C6.5 13.5858 6.83579 13.25 7.25 13.25H8.75C9.16421 13.25 9.5 13.5858 9.5 14C9.5 14.4142 9.16421 14.75 8.75 14.75H7.25C6.83579 14.75 6.5 14.4142 6.5 14Z" fill="#4A4A4A"/>
<path d="M11.25 13.25C10.8358 13.25 10.5 13.5858 10.5 14C10.5 14.4142 10.8358 14.75 11.25 14.75H12.75C13.1642 14.75 13.5 14.4142 13.5 14C13.5 13.5858 13.1642 13.25 12.75 13.25H11.25Z" fill="#4A4A4A"/>
<path fill-rule="evenodd" clip-rule="evenodd" d="M6.75 3C5.23122 3 4 4.23122 4 5.75V14.25C4 15.7688 5.23122 17 6.75 17H13.25C14.7688 17 16 15.7688 16 14.25V5.75C16 4.23122 14.7688 3 13.25 3H6.75ZM5.5 5.75C5.5 5.05964 6.05964 4.5 6.75 4.5H13.25C13.9404 4.5 14.5 5.05964 14.5 5.75V14.25C14.5 14.9404 13.9404 15.5 13.25 15.5H6.75C6.05964 15.5 5.5 14.9404 5.5 14.25V5.75Z" fill="#4A4A4A"/>
</svg>
