<svg viewBox="0 0 20 20" xmlns="http://www.w3.org/2000/svg"><path d="M14.25 9.75a.75.75 0 0 0-1.5 0v.5a.75.75 0 0 0 1.5 0v-.5Z" fill="#5C5F62"/><path d="M13.5 12.25a.75.75 0 0 1 .75.75v.5a.75.75 0 0 1-1.5 0v-.5a.75.75 0 0 1 .75-.75Z" fill="#5C5F62"/><path d="M7.25 6.5a.75.75 0 0 0-1.5 0v.5a.75.75 0 0 0 1.5 0v-.5Z" fill="#5C5F62"/><path d="M6.5 9a.75.75 0 0 1 .75.75v.5a.75.75 0 0 1-1.5 0v-.5a.75.75 0 0 1 .75-.75Z" fill="#5C5F62"/><path d="M7.25 13a.75.75 0 0 0-1.5 0v.5a.75.75 0 0 0 1.5 0v-.5Z" fill="#5C5F62"/><path d="M9.25 5.75a.75.75 0 0 1 .75.75v.5a.75.75 0 0 1-1.5 0v-.5a.75.75 0 0 1 .75-.75Z" fill="#5C5F62"/><path d="M10 9.75a.75.75 0 0 0-1.5 0v.5a.75.75 0 0 0 1.5 0v-.5Z" fill="#5C5F62"/><path d="M9.25 12.25a.75.75 0 0 1 .75.75v.5a.75.75 0 0 1-1.5 0v-.5a.75.75 0 0 1 .75-.75Z" fill="#5C5F62"/><path fill-rule="evenodd" d="M5.25 3.5a1.75 1.75 0 0 0-1.75 1.75v9.5c0 .966.784 1.75 1.75 1.75h9.5a1.75 1.75 0 0 0 1.75-1.75v-6.25a1.75 1.75 0 0 0-1.75-1.75h-2.5v-1.5a1.75 1.75 0 0 0-1.75-1.75h-5.25Zm7 4.75v6.5c0 .085-.006.168-.018.25h2.518a.25.25 0 0 0 .25-.25v-6.25a.25.25 0 0 0-.25-.25h-2.5Zm-1.75 6.75a.25.25 0 0 0 .25-.25v-9.5a.25.25 0 0 0-.25-.25h-5.25a.25.25 0 0 0-.25.25v9.5c0 .138.112.25.25.25h5.25Z" fill="#5C5F62"/></svg>