<svg width="20" height="20" viewBox="0 0 20 20" fill="none" xmlns="http://www.w3.org/2000/svg">
<path fill-rule="evenodd" clip-rule="evenodd" d="M5.5 5.25C5.5 4.55964 6.05964 4 6.75 4H9V7.75C9 8.7165 9.7835 9.5 10.75 9.5H14.5V11.25C14.5 11.6642 14.8358 12 15.25 12C15.6642 12 16 11.6642 16 11.25V8.75C16 8.55109 15.921 8.36032 15.7803 8.21967L10.2803 2.71967C10.1397 2.57902 9.94891 2.5 9.75 2.5H6.75C5.23122 2.5 4 3.73122 4 5.25V14.75C4 16.2688 5.23122 17.5 6.75 17.5H11C11.4142 17.5 11.75 17.1642 11.75 16.75C11.75 16.3358 11.4142 16 11 16H6.75C6.05964 16 5.5 15.4404 5.5 14.75V5.25ZM13.4393 8L10.5 5.06066V7.75C10.5 7.88807 10.6119 8 10.75 8H13.4393Z" fill="#4A4A4A"/>
<path d="M12.25 13.25C11.8358 13.25 11.5 13.5858 11.5 14C11.5 14.4142 11.8358 14.75 12.25 14.75H16.25C16.6642 14.75 17 14.4142 17 14C17 13.5858 16.6642 13.25 16.25 13.25H12.25Z" fill="#4A4A4A"/>
</svg>
