<svg width="20" height="20" viewBox="0 0 20 20" fill="none" xmlns="http://www.w3.org/2000/svg">
<path fill-rule="evenodd" clip-rule="evenodd" d="M7 3.75C6.30964 3.75 5.75 4.30964 5.75 5V14.5C5.75 15.1904 6.30964 15.75 7 15.75H13.5C14.1904 15.75 14.75 15.1904 14.75 14.5V9.25H11C10.0335 9.25 9.25 8.4665 9.25 7.5V3.75H7ZM10.75 4.81066L13.6893 7.75H11C10.8619 7.75 10.75 7.63807 10.75 7.5V4.81066ZM4.25 5C4.25 3.48122 5.48122 2.25 7 2.25H10C10.1989 2.25 10.3897 2.32902 10.5303 2.46967L16.0303 7.96967C16.171 8.11032 16.25 8.30109 16.25 8.5V14.5C16.25 16.0188 15.0188 17.25 13.5 17.25H7C5.48122 17.25 4.25 16.0188 4.25 14.5V5Z" fill="#4A4A4A"/>
</svg>
