<svg viewBox="0 0 20 20" xmlns="http://www.w3.org/2000/svg"><path fill-rule="evenodd" d="M5.5 5.25c0-.69.56-1.25 1.25-1.25h2.25v3.75c0 .966.784 1.75 1.75 1.75h3.75v1.25a.75.75 0 0 0 1.5 0v-2a.75.75 0 0 0-.22-.53l-5.5-5.5a.75.75 0 0 0-.53-.22h-3a2.75 2.75 0 0 0-2.75 2.75v9.5a2.75 2.75 0 0 0 2.75 2.75h3.25a.75.75 0 0 0 0-1.5h-3.25c-.69 0-1.25-.56-1.25-1.25v-9.5Zm7.94 2.75-2.94-2.94v2.69c0 .138.112.25.25.25h2.69Z" fill="#5C5F62"/><path d="M15.22 17.28a.75.75 0 0 0 1.06-1.06l-1.97-1.97h.94a.75.75 0 0 0 0-1.5h-2.75a.75.75 0 0 0-.75.75v2.75a.75.75 0 0 0 1.5 0v-.94l1.97 1.97Z" fill="#5C5F62"/></svg>