<svg width="20" height="20" viewBox="0 0 20 20" fill="none" xmlns="http://www.w3.org/2000/svg">
<path d="M14.208 4.68798L15.7409 2.38867C15.8516 2.22254 15.7325 2 15.5329 2H12.4671C12.2675 2 12.1484 2.22254 12.2591 2.38868L13.792 4.68798C13.8909 4.83641 14.1091 4.83641 14.208 4.68798Z" fill="#4A4A4A"/>
<path fill-rule="evenodd" clip-rule="evenodd" d="M11.25 7C11.25 6.30964 11.8096 5.75 12.5 5.75H15.75C16.4404 5.75 17 6.30964 17 7V15.75C17 16.4404 16.4404 17 15.75 17H4.25C3.55964 17 3 16.4404 3 15.75V13C3 12.3096 3.55964 11.75 4.25 11.75H7V10C7 9.30964 7.55964 8.75 8.25 8.75H11.25V7ZM13.5 9.5V7.25H15.5V15.5H5.25V13.25H8.5C8.91421 13.25 9.25 12.9142 9.25 12.5V10.25H12.75C13.1642 10.25 13.5 9.91421 13.5 9.5Z" fill="#4A4A4A"/>
</svg>
