<svg width="20" height="20" viewBox="0 0 20 20" fill="none" xmlns="http://www.w3.org/2000/svg">
<path d="M5.5 4.5C5.5 5.05228 5.05228 5.5 4.5 5.5C3.94772 5.5 3.5 5.05228 3.5 4.5C3.5 3.94772 3.94772 3.5 4.5 3.5C5.05228 3.5 5.5 3.94772 5.5 4.5Z" fill="#4A4A4A"/>
<path fill-rule="evenodd" clip-rule="evenodd" d="M13.1889 14.2495C12.6145 14.5684 11.9535 14.75 11.25 14.75C9.57131 14.75 8.13415 13.7159 7.54076 12.25H6.75C6.33579 12.25 6 11.9142 6 11.5C6 11.0858 6.33579 10.75 6.75 10.75H7.25C7.25 10.0214 7.44479 9.33835 7.78513 8.75H6.75C6.33579 8.75 6 8.41421 6 8C6 7.58579 6.33579 7.25 6.75 7.25H9.312C9.88612 6.93142 10.5469 6.75 11.25 6.75C13.4591 6.75 15.25 8.54086 15.25 10.75C15.25 11.7118 14.9105 12.5943 14.3449 13.2843L16.2803 15.2197C16.5732 15.5126 16.5732 15.9874 16.2803 16.2803C15.9874 16.5732 15.5126 16.5732 15.2197 16.2803L13.1889 14.2495ZM13.75 10.75C13.75 12.1307 12.6307 13.25 11.25 13.25C9.86929 13.25 8.75 12.1307 8.75 10.75C8.75 9.36929 9.86929 8.25 11.25 8.25C12.6307 8.25 13.75 9.36929 13.75 10.75Z" fill="#4A4A4A"/>
<path d="M4.5 9C5.05228 9 5.5 8.55228 5.5 8C5.5 7.44772 5.05228 7 4.5 7C3.94772 7 3.5 7.44772 3.5 8C3.5 8.55228 3.94772 9 4.5 9Z" fill="#4A4A4A"/>
<path d="M5.5 11.5C5.5 12.0523 5.05228 12.5 4.5 12.5C3.94772 12.5 3.5 12.0523 3.5 11.5C3.5 10.9477 3.94772 10.5 4.5 10.5C5.05228 10.5 5.5 10.9477 5.5 11.5Z" fill="#4A4A4A"/>
<path d="M6.75 3.75C6.33579 3.75 6 4.08579 6 4.5C6 4.91421 6.33579 5.25 6.75 5.25H13.25C13.6642 5.25 14 4.91421 14 4.5C14 4.08579 13.6642 3.75 13.25 3.75H6.75Z" fill="#4A4A4A"/>
</svg>
