<svg width="20" height="20" viewBox="0 0 20 20" fill="none" xmlns="http://www.w3.org/2000/svg">
<path d="M5.75 6.25C5.75 5.97386 5.97386 5.75 6.25 5.75H6.75C7.02614 5.75 7.25 5.97386 7.25 6.25V6.75C7.25 7.02614 7.02614 7.25 6.75 7.25H6.25C5.97386 7.25 5.75 7.02614 5.75 6.75V6.25Z" fill="#4A4A4A"/>
<path fill-rule="evenodd" clip-rule="evenodd" d="M3.5 5.25C3.5 4.2835 4.2835 3.5 5.25 3.5H7.75C8.7165 3.5 9.5 4.2835 9.5 5.25V7.75C9.5 8.7165 8.7165 9.5 7.75 9.5H5.25C4.2835 9.5 3.5 8.7165 3.5 7.75V5.25ZM5.25 5C5.11193 5 5 5.11193 5 5.25V7.75C5 7.88807 5.11193 8 5.25 8H7.75C7.88807 8 8 7.88807 8 7.75V5.25C8 5.11193 7.88807 5 7.75 5H5.25Z" fill="#4A4A4A"/>
<path d="M6.25 12.75C5.97386 12.75 5.75 12.9739 5.75 13.25V13.75C5.75 14.0261 5.97386 14.25 6.25 14.25H6.75C7.02614 14.25 7.25 14.0261 7.25 13.75V13.25C7.25 12.9739 7.02614 12.75 6.75 12.75H6.25Z" fill="#4A4A4A"/>
<path fill-rule="evenodd" clip-rule="evenodd" d="M3.5 12.25C3.5 11.2835 4.2835 10.5 5.25 10.5H7.75C8.7165 10.5 9.5 11.2835 9.5 12.25V14.75C9.5 15.7165 8.7165 16.5 7.75 16.5H5.25C4.2835 16.5 3.5 15.7165 3.5 14.75V12.25ZM5.25 12C5.11193 12 5 12.1119 5 12.25V14.75C5 14.8881 5.11193 15 5.25 15H7.75C7.88807 15 8 14.8881 8 14.75V12.25C8 12.1119 7.88807 12 7.75 12H5.25Z" fill="#4A4A4A"/>
<path d="M12.75 6.25C12.75 5.97386 12.9739 5.75 13.25 5.75H13.75C14.0261 5.75 14.25 5.97386 14.25 6.25V6.75C14.25 7.02614 14.0261 7.25 13.75 7.25H13.25C12.9739 7.25 12.75 7.02614 12.75 6.75V6.25Z" fill="#4A4A4A"/>
<path fill-rule="evenodd" clip-rule="evenodd" d="M12.25 3.5C11.2835 3.5 10.5 4.2835 10.5 5.25V7.75C10.5 8.7165 11.2835 9.5 12.25 9.5H14.75C15.7165 9.5 16.5 8.7165 16.5 7.75V5.25C16.5 4.2835 15.7165 3.5 14.75 3.5H12.25ZM12 5.25C12 5.11193 12.1119 5 12.25 5H14.75C14.8881 5 15 5.11193 15 5.25V7.75C15 7.88807 14.8881 8 14.75 8H12.25C12.1119 8 12 7.88807 12 7.75V5.25Z" fill="#4A4A4A"/>
<path d="M11 10.5C10.7239 10.5 10.5 10.7239 10.5 11V12C10.5 12.2761 10.7239 12.5 11 12.5H12C12.2761 12.5 12.5 12.2761 12.5 12V11C12.5 10.7239 12.2761 10.5 12 10.5H11Z" fill="#4A4A4A"/>
<path d="M10.5 15C10.5 14.7239 10.7239 14.5 11 14.5H12C12.2761 14.5 12.5 14.7239 12.5 15V16C12.5 16.2761 12.2761 16.5 12 16.5H11C10.7239 16.5 10.5 16.2761 10.5 16V15Z" fill="#4A4A4A"/>
<path d="M15 10.5C14.7239 10.5 14.5 10.7239 14.5 11V12C14.5 12.2761 14.7239 12.5 15 12.5H16C16.2761 12.5 16.5 12.2761 16.5 12V11C16.5 10.7239 16.2761 10.5 16 10.5H15Z" fill="#4A4A4A"/>
<path d="M14.5 15C14.5 14.7239 14.7239 14.5 15 14.5H16C16.2761 14.5 16.5 14.7239 16.5 15V16C16.5 16.2761 16.2761 16.5 16 16.5H15C14.7239 16.5 14.5 16.2761 14.5 16V15Z" fill="#4A4A4A"/>
<path d="M13 12.5C12.7239 12.5 12.5 12.7239 12.5 13V14C12.5 14.2761 12.7239 14.5 13 14.5H14C14.2761 14.5 14.5 14.2761 14.5 14V13C14.5 12.7239 14.2761 12.5 14 12.5H13Z" fill="#4A4A4A"/>
</svg>
