<svg width="20" height="20" viewBox="0 0 20 20" fill="none" xmlns="http://www.w3.org/2000/svg">
<path d="M11.5 7C11.0858 7 10.75 7.33579 10.75 7.75V9.25C10.75 9.66421 11.0858 10 11.5 10C11.9142 10 12.25 9.66421 12.25 9.25V7.75C12.25 7.33579 11.9142 7 11.5 7Z" fill="#4A4A4A"/>
<path d="M7.75 7.75C7.75 7.33579 8.08579 7 8.5 7C8.91421 7 9.25 7.33579 9.25 7.75V9.25C9.25 9.66421 8.91421 10 8.5 10C8.08579 10 7.75 9.66421 7.75 9.25V7.75Z" fill="#4A4A4A"/>
<path d="M11.5219 11.9834C11.0853 12.3184 10.5503 12.5 10 12.5C9.44966 12.5 8.91471 12.3184 8.4781 11.9834C8.04148 11.6484 7.72762 11.1786 7.58518 10.647C7.47798 10.2469 7.06673 10.0095 6.66663 10.1167C6.26653 10.2239 6.02909 10.6352 6.1363 11.0353C6.3642 11.8858 6.86638 12.6374 7.56495 13.1734C8.26353 13.7094 9.11946 14 10 14C10.8805 14 11.7365 13.7095 12.435 13.1734C13.1336 12.6374 13.6358 11.8858 13.8637 11.0353C13.9709 10.6352 13.7335 10.2239 13.3334 10.1167C12.9333 10.0095 12.522 10.2469 12.4148 10.647C12.2724 11.1786 11.9585 11.6484 11.5219 11.9834Z" fill="#4A4A4A"/>
<path fill-rule="evenodd" clip-rule="evenodd" d="M17 10C17 13.866 13.866 17 10 17C6.13401 17 3 13.866 3 10C3 6.13401 6.13401 3 10 3C13.866 3 17 6.13401 17 10ZM15.5 10C15.5 13.0376 13.0376 15.5 10 15.5C6.96243 15.5 4.5 13.0376 4.5 10C4.5 6.96243 6.96243 4.5 10 4.5C13.0376 4.5 15.5 6.96243 15.5 10Z" fill="#4A4A4A"/>
</svg>
