<svg width="20" height="20" viewBox="0 0 20 20" fill="none" xmlns="http://www.w3.org/2000/svg">
<path d="M4.63037 8.8101C5.28782 5.84454 8.22485 3.97344 11.1904 4.63089C11.5948 4.72054 11.9953 4.46539 12.085 4.061C12.1746 3.6566 11.9195 3.2561 11.5151 3.16645C7.74072 2.32969 4.00268 4.71109 3.16592 8.48544C2.32917 12.2598 4.71056 15.9978 8.48492 16.8346C12.2593 17.6713 15.9973 15.29 16.8341 11.5156C16.9237 11.1112 16.6686 10.7107 16.2642 10.621C15.8598 10.5314 15.4593 10.7865 15.3696 11.1909C14.7122 14.1565 11.7751 16.0276 8.80958 15.3701C5.84401 14.7127 3.97292 11.7757 4.63037 8.8101Z" fill="#4A4A4A"/>
<path d="M16.0303 6.78033C16.3232 6.48744 16.3232 6.01257 16.0303 5.71967C15.7374 5.42678 15.2626 5.42678 14.9697 5.71967L10 10.6893L7.78033 8.46967C7.48744 8.17678 7.01256 8.17678 6.71967 8.46967C6.42678 8.76257 6.42678 9.23744 6.71967 9.53033L9.46967 12.2803C9.76256 12.5732 10.2374 12.5732 10.5303 12.2803L16.0303 6.78033Z" fill="#4A4A4A"/>
</svg>
