<svg width="20" height="20" viewBox="0 0 20 20" fill="none" xmlns="http://www.w3.org/2000/svg">
<path fill-rule="evenodd" clip-rule="evenodd" d="M8.25 7.25C7.69772 7.25 7.25 7.69772 7.25 8.25V11.75C7.25 12.3023 7.69772 12.75 8.25 12.75H11.75C12.3023 12.75 12.75 12.3023 12.75 11.75V8.25C12.75 7.69772 12.3023 7.25 11.75 7.25H8.25ZM8.75 11.25V8.75H11.25V11.25H8.75Z" fill="#4A4A4A"/>
<path fill-rule="evenodd" clip-rule="evenodd" d="M17 10C17 13.866 13.866 17 10 17C6.13401 17 3 13.866 3 10C3 6.13401 6.13401 3 10 3C13.866 3 17 6.13401 17 10ZM15.5 10C15.5 13.0376 13.0376 15.5 10 15.5C6.96243 15.5 4.5 13.0376 4.5 10C4.5 6.96243 6.96243 4.5 10 4.5C13.0376 4.5 15.5 6.96243 15.5 10Z" fill="#4A4A4A"/>
</svg>
