<svg width="20" height="20" viewBox="0 0 20 20" fill="none" xmlns="http://www.w3.org/2000/svg">
<path d="M9.25 4.55071C6.56724 4.9165 4.5 7.21684 4.5 10C4.5 13.0376 6.96243 15.5 10 15.5C13.0376 15.5 15.5 13.0376 15.5 10C15.5 9.58579 15.8358 9.25 16.25 9.25C16.6642 9.25 17 9.58579 17 10C17 13.866 13.866 17 10 17C6.13401 17 3 13.866 3 10C3 6.13401 6.13401 3 10 3C10.4142 3 10.75 3.33579 10.75 3.75V8.70067C11.1984 8.96003 11.5 9.44479 11.5 10C11.5 10.8284 10.8284 11.5 10 11.5C9.17157 11.5 8.5 10.8284 8.5 10C8.5 9.44479 8.80165 8.96003 9.25 8.70067V7.35352C8.09575 7.67998 7.25 8.74122 7.25 10C7.25 11.5188 8.48122 12.75 10 12.75C11.5188 12.75 12.75 11.5188 12.75 10C12.75 9.58579 13.0858 9.25 13.5 9.25C13.9142 9.25 14.25 9.58579 14.25 10C14.25 12.3472 12.3472 14.25 10 14.25C7.65279 14.25 5.75 12.3472 5.75 10C5.75 7.9087 7.26049 6.1702 9.25 5.81597V4.55071Z" fill="#4A4A4A"/>
</svg>
