<svg width="20" height="20" viewBox="0 0 20 20" fill="none" xmlns="http://www.w3.org/2000/svg">
<path d="M8.5 13C8.08579 13 7.75 13.3358 7.75 13.75C7.75 14.1642 8.08579 14.5 8.5 14.5H11.5C11.9142 14.5 12.25 14.1642 12.25 13.75C12.25 13.3358 11.9142 13 11.5 13H8.5Z" fill="#4A4A4A"/>
<path fill-rule="evenodd" clip-rule="evenodd" d="M6.75 3C5.23122 3 4 4.23122 4 5.75V14.25C4 15.7688 5.23122 17 6.75 17H13.25C14.7688 17 16 15.7688 16 14.25V5.75C16 4.23122 14.7688 3 13.25 3H6.75ZM5.5 5.75C5.5 5.05964 6.05964 4.5 6.75 4.5H13.25C13.9404 4.5 14.5 5.05964 14.5 5.75V14.25C14.5 14.9404 13.9404 15.5 13.25 15.5H6.75C6.05964 15.5 5.5 14.9404 5.5 14.25V5.75Z" fill="#4A4A4A"/>
</svg>
