<svg width="20" height="20" viewBox="0 0 20 20" fill="none" xmlns="http://www.w3.org/2000/svg">
<path fill-rule="evenodd" clip-rule="evenodd" d="M3.5 7.25C3.5 5.17893 5.17893 3.5 7.25 3.5H12.75C14.8211 3.5 16.5 5.17893 16.5 7.25V12.75C16.5 14.8211 14.8211 16.5 12.75 16.5H7.25C5.17893 16.5 3.5 14.8211 3.5 12.75V7.25ZM7.25 5C6.00736 5 5 6.00736 5 7.25V7.75H15V7.25C15 6.00736 13.9926 5 12.75 5H7.25ZM11 9.25H5V12.75C5 13.9926 6.00736 15 7.25 15H11V9.25ZM12.5 15V9.25H15V12.75C15 13.9926 13.9926 15 12.75 15H12.5Z" fill="#4A4A4A"/>
</svg>
