<svg width="20" height="20" viewBox="0 0 20 20" fill="none" xmlns="http://www.w3.org/2000/svg">
<path fill-rule="evenodd" clip-rule="evenodd" d="M7.25 3.5C5.17893 3.5 3.5 5.17893 3.5 7.25V12.75C3.5 14.8211 5.17893 16.5 7.25 16.5H12.75C14.8211 16.5 16.5 14.8211 16.5 12.75V7.25C16.5 5.17893 14.8211 3.5 12.75 3.5H7.25ZM5 7.25C5 6.00736 6.00736 5 7.25 5H10.5V8H5V7.25ZM12 5H12.75C13.9926 5 15 6.00736 15 7.25V11H12V5ZM12 12.5V15H12.75C13.9926 15 15 13.9926 15 12.75V12.5H12ZM10.5 9.5V15H7.25C6.00736 15 5 13.9926 5 12.75V9.5H10.5Z" fill="#4A4A4A"/>
</svg>
