<svg width="20" height="20" viewBox="0 0 20 20" fill="none" xmlns="http://www.w3.org/2000/svg">
<path fill-rule="evenodd" clip-rule="evenodd" d="M13.0488 17C14.5397 17 15.8392 15.9853 16.2008 14.5389L16.7957 12.1595C17.3874 9.79271 15.5973 7.5 13.1577 7.5H12.6173C12.4683 7.5 12.3523 7.37048 12.3688 7.22239L12.4816 6.20683C12.6717 4.49613 11.3326 3 9.61138 3H9.15474C8.69554 3 8.30501 3.33504 8.23519 3.7889L8.0652 4.89383C7.93699 5.72719 7.28031 6.37739 6.44947 6.5H4.75C3.7835 6.5 3 7.2835 3 8.25V11.75C3 12.7165 3.7835 13.5 4.75 13.5H5.22281C5.64119 13.5 6.0364 13.6921 6.29487 14.0211C7.77262 15.9018 10.0321 17 12.4239 17H13.0488ZM14.7456 14.1751C14.551 14.9538 13.8514 15.5 13.0488 15.5H12.4239C10.4924 15.5 8.66772 14.6132 7.47435 13.0943C7.33404 12.9158 7.17455 12.7564 7 12.6182V7.91822C8.32128 7.58778 9.33663 6.49422 9.54776 5.12192L9.64338 4.50036C10.4551 4.51861 11.081 5.22966 10.9908 6.04118L10.878 7.05674C10.7628 8.09339 11.5742 9 12.6173 9H13.1577C14.6215 9 15.6955 10.3756 15.3405 11.7957L14.7456 14.1751ZM5.5 8H4.75C4.61193 8 4.5 8.11193 4.5 8.25V11.75C4.5 11.8881 4.61193 12 4.75 12H5.22281C5.31585 12 5.40834 12.0045 5.5 12.0134V8Z" fill="#4A4A4A"/>
</svg>
