<svg width="20" height="20" viewBox="0 0 20 20" fill="none" xmlns="http://www.w3.org/2000/svg">
<path d="M16.75 4.25C16.75 3.83579 16.4142 3.5 16 3.5C15.5858 3.5 15.25 3.83579 15.25 4.25V15.75C15.25 16.1642 15.5858 16.5 16 16.5C16.4142 16.5 16.75 16.1642 16.75 15.75V4.25Z" fill="#4A4A4A"/>
<path d="M4.75 13.25C4.75 12.8358 4.41421 12.5 4 12.5C3.58579 12.5 3.25 12.8358 3.25 13.25V15.75C3.25 16.1642 3.58579 16.5 4 16.5C4.41421 16.5 4.75 16.1642 4.75 15.75V13.25Z" fill="#4A4A4A"/>
<path d="M8 10C8.41421 10 8.75 10.3358 8.75 10.75V15.75C8.75 16.1642 8.41421 16.5 8 16.5C7.58579 16.5 7.25 16.1642 7.25 15.75V10.75C7.25 10.3358 7.58579 10 8 10Z" fill="#4A4A4A"/>
<path d="M12.75 7.75C12.75 7.33579 12.4142 7 12 7C11.5858 7 11.25 7.33579 11.25 7.75V15.75C11.25 16.1642 11.5858 16.5 12 16.5C12.4142 16.5 12.75 16.1642 12.75 15.75V7.75Z" fill="#4A4A4A"/>
</svg>
