<svg width="20" height="20" viewBox="0 0 20 20" fill="none" xmlns="http://www.w3.org/2000/svg">
<path d="M4 4.75C4 4.33579 4.33579 4 4.75 4H15.25C15.6642 4 16 4.33579 16 4.75V6.25C16 6.66421 15.6642 7 15.25 7C14.8358 7 14.5 6.66421 14.5 6.25V5.5H11V14.25H12.25C12.6642 14.25 13 14.5858 13 15C13 15.4142 12.6642 15.75 12.25 15.75H7.75C7.33579 15.75 7 15.4142 7 15C7 14.5858 7.33579 14.25 7.75 14.25H9V5.5H5.5L5.5 6.25C5.5 6.66421 5.16421 7 4.75 7C4.33579 7 4 6.66421 4 6.25V4.75Z" fill="#4A4A4A"/>
</svg>
