<svg width="20" height="20" viewBox="0 0 20 20" fill="none" xmlns="http://www.w3.org/2000/svg">
<path d="M8 13C9.65685 13 11 11.6569 11 10C11 8.34315 9.65685 7 8 7C6.34315 7 5 8.34315 5 10C5 11.6569 6.34315 13 8 13Z" fill="#4A4A4A"/>
<path fill-rule="evenodd" clip-rule="evenodd" d="M8 4.5C4.96243 4.5 2.5 6.96243 2.5 10C2.5 13.0376 4.96243 15.5 8 15.5H12C15.0376 15.5 17.5 13.0376 17.5 10C17.5 6.96243 15.0376 4.5 12 4.5H8ZM4 10C4 7.79086 5.79086 6 8 6H12C14.2091 6 16 7.79086 16 10C16 12.2091 14.2091 14 12 14H8C5.79086 14 4 12.2091 4 10Z" fill="#4A4A4A"/>
</svg>
