<svg xmlns="http://www.w3.org/2000/svg" viewBox="0 0 400 300"><path fill="#95A7B7" fill-rule="evenodd" d="M200 10C123 10 60 73 60 150s63 140 140 140 140-63 140-140S277 10 200 10zm0 246.8c-59.5 0-106.8-47.3-106.8-106.8 0-15.8 3.5-31.5 10.5-45.5v5.3c0 3.5 5.3 8.7 5.3 12.2 0 5.3 3.5 8.8 7 12.3 5.3 1.7 10.5 3.4 14 7 3.5 3.4 7 5.2 12.3 3.4 3.4 3.6 1.7 7 0 10.6-3.6 3.4-5.3 7-5.3 8.7-1.8 5.3-1.8 10.5 3.5 14 3.5 1.8 5.3 5.3 5.3 8.8 0 3.4 3.4 7 5.2 8.7 7 3.5 7 10.5 8.8 17.5 1.7 14 12.2 35 15.7 28 3.5-5.3 10.5-15.8 14-19.3 1.8-1.7 3.5-3.4 3.5-5.2 1.8-3.5 3.5-7 7-8.8 1.8-1.7 3.5-3.4 3.5-5.2 0-7 3.5-14 7-19.3 7-8.7 3.5-14-7-17.4-5.3-1.8-12.3-5.3-19.3-1.8v-3.5c1.8-8.8 0-10.5-8.7-14-3.5-3.5-7-5.3-10.5-7-3.5-1.8-8.8 0-14-1.8-5.3 1.8-3.5-7-8.8-8.7-10.4-10.5 5.3-14 12.3-10.5 1.8 1.8 8.8-8.8 22.8-17.5 3.4 0 1.7-17.5 5.2-17.5-29.8-17.5-35-24.5-35-24.5H144c15.8-10.5 35-15.8 56-15.8h10.5l-1.8 1.8s-8.7 5.3 1.8 17.5c3.5 3.5 12.3 14 10.5 15.8 0 3.5 24.5-1.8 28-1.8 7 0 5.3 10.5 0 12.3 0 1.7-31.5 5.2-33.3 5.2-5.2 7-5.2 5.3-3.4 12.3 0 3.5-1.8 5.2-1.8 10.5 3.5 3.5 7 8.7 10.5 14 5.3 5.2 8.8 14 14 12.2 1.8 0 3.5-1.8 7-3.5 1.8 1.8 5.3 7 8.8 8.8-1.8 5.2 0 8.7 3.4 14 1.8 1.7 0 14-1.7 15.7-1.8 3.5 0 10.5 3.5 17.5s12.3 7 15.8 0l12.2-33.3c3.5-7 8.8-12.2 15.8-15.7l5.2-1.8v5.3c1.8 59.5-45.5 106.8-105 106.8z"/></svg>