<svg width="20" height="20" viewBox="0 0 20 20" fill="none" xmlns="http://www.w3.org/2000/svg">
<path fill-rule="evenodd" clip-rule="evenodd" d="M6 4.5C6 4.08579 6.33579 3.75 6.75 3.75C7.16421 3.75 7.5 4.08579 7.5 4.5V6.7C7.5 7.55245 7.50058 8.14669 7.53838 8.60932C7.57547 9.0632 7.6446 9.32396 7.74524 9.52148C7.96095 9.94484 8.30516 10.289 8.72852 10.5048C8.92604 10.6054 9.1868 10.6745 9.64068 10.7116C10.1033 10.7494 10.6975 10.75 11.55 10.75H14.4393L12.7197 9.03033C12.4268 8.73744 12.4268 8.26256 12.7197 7.96967C13.0126 7.67678 13.4874 7.67678 13.7803 7.96967L16.7803 10.9697C17.0732 11.2626 17.0732 11.7374 16.7803 12.0303L13.7803 15.0303C13.4874 15.3232 13.0126 15.3232 12.7197 15.0303C12.4268 14.7374 12.4268 14.2626 12.7197 13.9697L14.4393 12.25H11.55H11.5179C10.7051 12.25 10.0494 12.25 9.51853 12.2066C8.97189 12.162 8.49175 12.0676 8.04754 11.8413C7.34193 11.4817 6.76825 10.9081 6.40873 10.2025C6.18239 9.75825 6.08803 9.27811 6.04336 8.73147C5.99999 8.20056 5.99999 7.54495 6 6.73212V6.7V4.5Z" fill="#8A8A8A"/>
</svg>
