<svg xmlns="http://www.w3.org/2000/svg" viewBox="0 0 100 60"><g fill="none" fill-rule="evenodd"><path fill="#FFF" d="M0 0h100v60H0z"/><g fill-rule="nonzero"><path fill="#004686" d="M38.048 39.695l3.455-20.342h5.527l-3.458 20.342zm25.569-19.841c-1.095-.413-2.81-.854-4.953-.854-5.461 0-9.308 2.759-9.34 6.713-.032 2.923 2.745 4.553 4.842 5.526 2.151.997 2.874 1.633 2.864 2.524-.014 1.362-1.718 1.986-3.306 1.986-2.212 0-3.388-.308-5.203-1.068l-.712-.324-.775 4.554c1.29.568 3.677 1.06 6.156 1.086 5.81 0 9.58-2.728 9.624-6.95.02-2.314-1.452-4.075-4.64-5.527-1.932-.941-3.115-1.569-3.103-2.521 0-.846 1.002-1.75 3.165-1.75a10.154 10.154 0 0 1 4.137.78l.495.234.75-4.409h-.001zm14.172-.482h-4.27c-1.323 0-2.314.363-2.895 1.688L62.417 39.7h5.803s.949-2.506 1.164-3.056l7.077.008c.166.712.673 3.048.673 3.048h5.129l-4.474-20.329zm-6.815 13.112a4741.27 4741.27 0 0 0 2.202-5.686c-.032.054.454-1.178.733-1.942l.374 1.754 1.279 5.874h-4.588zM33.413 19.368l-5.411 13.871-.577-2.818c-1.007-3.25-4.145-6.77-7.654-8.533l4.948 17.79 5.847-.008 8.7-20.302h-5.853z"/><path fill="#EF9B11" d="M22.982 19.355h-8.911L14 19.78c6.933 1.683 11.52 5.753 13.425 10.642l-1.938-9.348c-.334-1.288-1.305-1.672-2.505-1.718z"/></g></g></svg>
