<svg xmlns="http://www.w3.org/2000/svg" viewBox="0 0 100 60"><g fill="none" fill-rule="evenodd"><path fill="#0072CE" d="M0 0h100v60H0z"/><path fill="#FFF" d="M87.307 35.383h-4.13c-.413 0-.687.016-.918.169-.24.151-.331.375-.331.671 0 .352.202.592.495.695.24.082.496.106.874.106l1.228.033c1.24.03 2.067.24 2.572.75.092.072.147.152.21.232v-2.656zm0 6.153c-.55.792-1.623 1.193-3.076 1.193h-4.377v-2h4.36c.432 0 .735-.057.917-.232a.814.814 0 0 0 .268-.608c0-.272-.11-.488-.277-.617-.165-.143-.404-.208-.799-.208-2.128-.07-4.783.065-4.783-2.888 0-1.353.873-2.778 3.252-2.778h4.515V31.54h-4.195c-1.266 0-2.185.298-2.837.762v-.762h-6.204c-.992 0-2.157.242-2.708.762v-.762h-11.08v.762c-.881-.626-2.37-.762-3.056-.762h-7.308v.762c-.698-.665-2.25-.762-3.195-.762h-8.18l-1.87 1.993-1.754-1.993H22.702v13.021H34.69l1.929-2.024 1.817 2.024 7.39.007v-3.063h.726c.98.015 2.137-.024 3.157-.458v3.514h6.095v-3.394h.294c.375 0 .412.015.412.384v3.01h18.516c1.175 0 2.404-.296 3.084-.834v.834h5.873c1.222 0 2.416-.169 3.324-.6v-2.426zm-9.041-3.728c.441.45.678 1.016.678 1.977 0 2.007-1.275 2.944-3.561 2.944h-4.415v-2h4.397c.43 0 .735-.057.926-.232a.821.821 0 0 0 .268-.608.795.795 0 0 0-.277-.617c-.173-.143-.412-.208-.807-.208-2.12-.07-4.774.065-4.774-2.888 0-1.353.864-2.778 3.24-2.778h4.544v1.986h-4.157c-.413 0-.68.015-.908.168-.249.152-.34.376-.34.672 0 .352.21.591.495.695.24.082.496.106.882.106l1.22.032c1.23.03 2.075.24 2.589.75zm-20.453-.577c-.303.177-.678.193-1.119.193h-2.753v-2.096h2.79c.404 0 .808.008 1.082.168.294.151.47.44.47.84 0 .399-.176.72-.47.895zm1.37 1.162c.504.183.916.511 1.11.783.32.456.366.88.375 1.703v1.85h-2.276v-1.167c0-.562.055-1.393-.366-1.827-.331-.334-.836-.414-1.663-.414h-2.422v3.408h-2.278v-9.332h5.233c1.148 0 1.984.05 2.728.44.715.426 1.165 1.009 1.165 2.073 0 1.49-1.01 2.25-1.607 2.483zm2.862-4.996h7.565v1.93h-5.307v1.697h5.178v1.904h-5.178v1.857l5.307.008v1.936h-7.565v-9.332zm-15.292 4.307h-2.93v-2.376h2.956c.819 0 1.387.328 1.387 1.144 0 .807-.542 1.232-1.413 1.232zm-5.187 4.177l-3.48-3.801 3.48-3.681v7.482zm-8.987-1.096h-5.572v-1.857h4.976v-1.904h-4.976v-1.697h5.682l2.48 2.72-2.59 2.738zm18.02-4.313c0 2.592-1.966 3.127-3.947 3.127h-2.828v3.13h-4.406l-2.79-3.089-2.901 3.09h-8.978v-9.333h9.116l2.789 3.06 2.883-3.06h7.242c1.8 0 3.82.49 3.82 3.075zM18.652 22.648l-1.317-3.722-1.309 3.722h2.626zm29.005-1.482c-.264.186-.577.192-.952.192H44.37v-2.073h2.368c.335 0 .685.017.912.168.25.136.404.426.404.826 0 .408-.147.736-.396.887zm16.67 1.482l-1.33-3.722-1.324 3.722h2.655zm-31.075 4.029H31.28l-.007-7.312-2.79 7.312h-1.688l-2.797-7.319v7.319h-3.912l-.74-2.083h-4.005l-.746 2.083h-2.09l3.445-9.336h2.858l3.272 8.839v-8.84h3.14l2.517 6.334 2.312-6.333h3.203v9.336zm7.86 0h-6.426V17.34h6.426v1.944H36.61v1.683h4.394v1.913H36.61v1.865h4.502v1.93zm9.06-6.822c0 1.489-.856 2.258-1.355 2.488.42.186.78.515.951.787.272.464.319.879.319 1.713v1.834h-1.94l-.008-1.178c0-.562.047-1.37-.303-1.819-.281-.328-.71-.4-1.402-.4h-2.065v3.397h-1.924V17.34h4.425c.983 0 1.707.03 2.329.447.609.417.973 1.026.973 2.067zm3.079 6.822h-1.963V17.34h1.963v9.336zm22.77 0h-2.725l-3.646-7.008v7.008h-3.918l-.749-2.083h-3.996l-.726 2.083h-2.25c-.936 0-2.12-.24-2.79-1.033-.676-.793-1.028-1.866-1.028-3.564 0-1.385.21-2.65 1.037-3.65.622-.746 1.596-1.09 2.921-1.09h1.863v2.001H58.19c-.702 0-1.099.121-1.48.553-.329.393-.554 1.136-.554 2.115 0 1 .172 1.721.53 2.192.295.37.834.482 1.34.482h.864l2.711-7.342h2.882l3.257 8.83v-8.83h2.929l3.381 6.502V17.34h1.97v9.336zM12.484 28.51h3.287l.74-2.073h1.66l.74 2.073h6.466v-1.585l.577 1.592h3.357l.577-1.616v1.61H45.96l-.008-3.405h.311c.218.01.281.033.281.45v2.954h8.313v-.792c.67.417 1.713.792 3.085.792h3.497l.748-2.073h1.66l.731 2.073h6.739v-1.97l1.02 1.97h5.4V15.49h-5.344v1.537l-.748-1.538H66.16v1.538l-.687-1.538h-7.407c-1.24 0-2.33.201-3.21.76v-.76h-5.112v.76c-.56-.576-1.324-.76-2.173-.76H28.897l-1.253 3.364-1.287-3.364h-5.882v1.538l-.646-1.538h-5.017l-2.33 6.191v6.83h.001z"/></g></svg>
