<svg xmlns="http://www.w3.org/2000/svg" viewBox="0 0 100 60"><g fill="none" fill-rule="evenodd"><path fill="#FFF" d="M0 0h100v60H0z"/><path fill="#000" d="M45.352 16.63a37.523 37.523 0 0 1 2.072-.288 22.282 22.282 0 0 1 2.493-.128c1.295 0 2.412.155 3.35.464.94.309 1.71.75 2.314 1.326a5.455 5.455 0 0 1 1.214 1.822c.291.704.436 1.514.436 2.43 0 1.108-.199 2.078-.598 2.91a6.039 6.039 0 0 1-1.634 2.093c-.692.565-1.511.985-2.46 1.263-.95.277-1.986.415-3.109.415-1.014 0-1.866-.074-2.556-.223v9.207h-1.522V16.63zm1.522 10.742c.367.106.777.18 1.23.223.453.042.939.063 1.456.063 1.942 0 3.448-.447 4.516-1.342 1.067-.895 1.602-2.206 1.602-3.932 0-.831-.14-1.556-.42-2.174a3.9 3.9 0 0 0-1.198-1.52c-.518-.394-1.133-.692-1.845-.895a8.64 8.64 0 0 0-2.364-.303c-.69 0-1.284.027-1.78.08a12.34 12.34 0 0 0-1.198.176v9.624h.001zm22.459 6.905c0 .618.01 1.237.032 1.855.021.618.086 1.214.194 1.79h-1.424l-.226-2.174h-.066a5.418 5.418 0 0 1-.744.894c-.302.298-.653.57-1.052.816a5.594 5.594 0 0 1-1.36.591 5.914 5.914 0 0 1-1.666.224c-.755 0-1.42-.123-1.992-.368-.572-.245-1.04-.565-1.408-.959a3.92 3.92 0 0 1-.825-1.358 4.518 4.518 0 0 1-.274-1.535c0-1.811.77-3.207 2.313-4.188 1.544-.981 3.87-1.45 6.977-1.407v-.415c0-.406-.038-.87-.113-1.392a4.33 4.33 0 0 0-.503-1.486c-.258-.469-.647-.863-1.164-1.182-.518-.32-1.22-.48-2.104-.48-.67 0-1.333.101-1.991.304a6.761 6.761 0 0 0-1.796.846l-.486-1.119a7.222 7.222 0 0 1 2.136-1.006 8.609 8.609 0 0 1 2.298-.303c1.08 0 1.96.18 2.639.543.68.362 1.214.831 1.602 1.406a5.21 5.21 0 0 1 .793 1.935c.14.714.211 1.423.211 2.126v6.042h-.001zm-1.521-4.571c-.821-.022-1.68.01-2.575.095a9.446 9.446 0 0 0-2.476.56c-.755.287-1.38.708-1.877 1.263-.496.554-.744 1.289-.744 2.205 0 1.087.313 1.886.939 2.398.625.511 1.326.767 2.103.767.626 0 1.187-.085 1.683-.256a4.4 4.4 0 0 0 1.295-.687 4.547 4.547 0 0 0 1.49-2.094c.108-.427.162-.736.162-.928v-3.323zm4.497-7.13l3.947 9.974c.217.554.422 1.124.616 1.71.195.586.367 1.125.518 1.615h.065a226 226 0 0 1 .518-1.583c.194-.586.41-1.188.647-1.807l3.69-9.91h1.618L79.43 33.829a129.72 129.72 0 0 1-1.279 3.245c-.398.97-.804 1.843-1.214 2.621-.41.778-.825 1.465-1.247 2.062a8.638 8.638 0 0 1-1.408 1.566c-.603.533-1.16.923-1.667 1.168-.506.245-.846.4-1.02.463l-.518-1.246c.389-.171.82-.395 1.295-.672s.94-.639 1.392-1.087c.39-.383.815-.889 1.28-1.518.463-.629.878-1.39 1.246-2.286.129-.341.194-.565.194-.672 0-.149-.064-.373-.194-.671l-5.6-14.227h1.619z"/><g fill-rule="nonzero"><path fill="#95BF47" d="M36.01 19.918a.226.226 0 0 0-.212-.199c-.088 0-1.982-.145-1.982-.145s-1.31-1.338-1.47-1.482c-.141-.145-.424-.109-.53-.073-.018 0-.284.09-.744.235-.443-1.32-1.221-2.513-2.584-2.513h-.124c-.372-.506-.868-.741-1.275-.741-3.186 0-4.708 4.068-5.186 6.13-1.239.397-2.124.668-2.23.704-.69.217-.708.235-.797.904-.07.507-1.876 14.79-1.876 14.79l14.072 2.694 7.629-1.681c0-.018-2.673-18.497-2.69-18.623zm-5.717-1.447a40.88 40.88 0 0 0-1.186.38v-.271c0-.796-.106-1.447-.283-1.97.708.108 1.168.921 1.47 1.861zM27.94 16.79c.195.506.319 1.211.319 2.188v.144c-.78.253-1.611.507-2.46.778.477-1.862 1.38-2.767 2.141-3.11zm-.938-.922a.7.7 0 0 1 .407.144c-1.027.489-2.106 1.718-2.567 4.195-.672.217-1.327.416-1.947.615.531-1.88 1.823-4.954 4.107-4.954z"/><path fill="#5E8E3E" d="M35.798 19.7c-.088 0-1.982-.144-1.982-.144s-1.31-1.338-1.47-1.482a.282.282 0 0 0-.194-.09L31.09 40.221l7.629-1.681s-2.673-18.497-2.69-18.623a.309.309 0 0 0-.231-.217z"/><path fill="#FFF" d="M28.488 24.004l-.938 2.857s-.832-.452-1.841-.452c-1.487 0-1.558.958-1.558 1.193 0 1.302 3.328 1.808 3.328 4.864 0 2.404-1.487 3.96-3.505 3.96-2.425 0-3.646-1.538-3.646-1.538l.655-2.187s1.274 1.12 2.336 1.12c.708 0 .991-.56.991-.976 0-1.7-2.726-1.772-2.726-4.574 0-2.35 1.647-4.629 4.992-4.629 1.274-.018 1.912.362 1.912.362z"/></g></g></svg>
