<svg xmlns="http://www.w3.org/2000/svg" viewBox="0 0 20 20"><path fill-rule="evenodd" d="M5.709 4.723c-.262 0-.512.104-.697.289-.185.185-.289.435-.289.697v1.597c0 .338-.274.612-.611.612-.338 0-.612-.274-.612-.612v-1.597c0-.586.233-1.148.647-1.562.414-.414.976-.647 1.562-.647h1.597c.338 0 .611.274.611.612 0 .337-.273.611-.611.611h-1.597Z" clip-rule="evenodd" style="fill:color(display-p3 .2902 .2902 .2902);fill-opacity:1"/><path fill-rule="evenodd" d="M4.112 12.083c.337 0 .611.274.611.611v1.598c0 .26.104.512.289.696.185.185.435.289.697.289h1.597c.338 0 .611.274.611.612 0 .338-.273.611-.611.611h-1.597c-.586 0-1.148-.232-1.562-.647-.414-.414-.647-.976-.647-1.561v-1.598c0-.337.274-.611.612-.611Z" clip-rule="evenodd" style="fill:color(display-p3 .2902 .2902 .2902);fill-opacity:1"/><path fill-rule="evenodd" d="M12.082 4.112c0-.338.274-.612.612-.612h1.597c.586 0 1.148.233 1.562.647.414.414.647.976.647 1.562v1.597c0 .338-.274.612-.612.612-.338 0-.611-.274-.611-.612v-1.597c0-.262-.104-.512-.289-.697-.185-.185-.435-.289-.697-.289h-1.597c-.338 0-.612-.274-.612-.611Z" clip-rule="evenodd" style="fill:color(display-p3 .2902 .2902 .2902);fill-opacity:1"/><path fill-rule="evenodd" d="M15.888 12.083c.338 0 .612.274.612.611v1.598c0 .585-.233 1.147-.647 1.561-.414.415-.976.647-1.562.647h-1.597c-.338 0-.612-.273-.612-.611 0-.338.274-.612.612-.612h1.597c.262 0 .512-.104.697-.289.185-.184.289-.435.289-.696v-1.598c0-.337.274-.611.611-.611Z" clip-rule="evenodd" style="fill:color(display-p3 .2902 .2902 .2902);fill-opacity:1"/><path fill-rule="evenodd" d="M13.71 8.079c.18.286.093.664-.194.843l-3.194 1.996c-.286.18-.664.092-.843-.194-.179-.287-.092-.664.195-.843l3.194-1.997c.286-.179.664-.092.843.195Z" clip-rule="evenodd" style="fill:color(display-p3 .2902 .2902 .2902);fill-opacity:1"/><path fill-rule="evenodd" d="M9.675 5.888c.198-.124.45-.124.648 0l3.194 1.996c.179.112.288.308.288.519v3.593c0 .211-.109.407-.288.519l-3.194 1.996c-.189.118-.426.124-.62.017-.195-.108-.316-.313-.316-.535v-3.255l-2.906-1.816c-.18-.112-.288-.308-.288-.52 0-.21.109-.406.288-.518l3.194-1.996Zm-1.716 2.515 2.364 1.478c.179.111.287.307.287.518v2.49l1.971-1.232v-2.915l-2.582-1.614-2.04 1.275Z" clip-rule="evenodd" style="fill:color(display-p3 .2902 .2902 .2902);fill-opacity:1"/><path fill-rule="evenodd" d="M6.805 7.791c.338 0 .611.274.611.612v3.254l2.907 1.817c.287.179.374.556.194.843-.178.286-.556.373-.842.194l-3.194-1.996c-.18-.112-.288-.308-.288-.519v-3.593c0-.338.274-.612.612-.612Z" clip-rule="evenodd" style="fill:color(display-p3 .2902 .2902 .2902);fill-opacity:1"/></svg>