<svg viewBox="0 0 20 20" xmlns="http://www.w3.org/2000/svg"><path d="M10 18C2.334 18 .061 10.352.038 10.274a1 1 0 010-.548C.061 9.648 2.334 2 10 2c7.633 0 9.927 6.617 9.948 6.684a1 1 0 11-1.895.635A8.348 8.348 0 0010 4c-5.467 0-7.513 4.772-7.948 6 .434 1.225 2.479 6 7.948 6a1 1 0 010 2zm0-4c-2.206 0-4-1.794-4-4s1.794-4 4-4 4 1.794 4 4a1 1 0 11-2 0c0-1.103-.897-2-2-2s-2 .897-2 2 .897 2 2 2a1 1 0 010 2zm5 4a.997.997 0 01-.707-.293l-2-2a1 1 0 011.414-1.414L15 15.586l3.293-3.293a1 1 0 011.414 1.414l-4 4A.995.995 0 0115 18z" fill="#5C5F62"/></svg>
