<svg viewBox="0 0 20 20" xmlns="http://www.w3.org/2000/svg"><path d="M3.501 10v-.002c.004-.018.018-.091.074-.228.067-.165.174-.375.324-.617.3-.483.75-1.058 1.333-1.607 1.171-1.103 2.809-2.046 4.768-2.046 1.97 0 3.547.89 4.682 1.928a8.682 8.682 0 0 1 1.328 1.537c.329.49.481.842.512.967a.75.75 0 0 0 1.456-.364c-.094-.375-.359-.897-.722-1.44a10.18 10.18 0 0 0-1.562-1.806c-1.322-1.211-3.245-2.322-5.694-2.322-2.46 0-4.446 1.182-5.796 2.454a9.747 9.747 0 0 0-1.58 1.908 5.704 5.704 0 0 0-.439.843c-.098.242-.185.525-.185.795s.087.553.185.795c.106.26.255.546.44.843.368.594.902 1.27 1.579 1.908 1.35 1.272 3.337 2.454 5.796 2.454a.75.75 0 0 0 0-1.5c-1.96 0-3.597-.943-4.768-2.046a8.253 8.253 0 0 1-1.333-1.607 4.223 4.223 0 0 1-.324-.617 1.233 1.233 0 0 1-.074-.229v-.001Z" fill="#5C5F62"/><path fill-rule="evenodd" d="M10 13a3 3 0 1 0 0-6 3 3 0 0 0 0 6Zm0-1.5a1.5 1.5 0 1 0 0-3 1.5 1.5 0 0 0 0 3Z" fill="#5C5F62"/><path d="M13.28 13.682a.75.75 0 1 0-1.06 1.06l2.048 2.049a.75.75 0 0 0 1.06 0l3.463-3.463a.75.75 0 1 0-1.06-1.06l-2.933 2.932-1.518-1.518Z" fill="#5C5F62"/></svg>