<svg width="20" height="20" viewBox="0 0 20 20" fill="none" xmlns="http://www.w3.org/2000/svg">
<path d="M7.75 12C7.75 11.5858 7.41421 11.25 7 11.25C6.58579 11.25 6.25 11.5858 6.25 12V13.2929C6.25 13.6244 6.3817 13.9424 6.61612 14.1768L7.46967 15.0303C7.76256 15.3232 8.23744 15.3232 8.53033 15.0303C8.82322 14.7374 8.82322 14.2626 8.53033 13.9697L7.75 13.1893V12Z" fill="#4A4A4A"/>
<path fill-rule="evenodd" clip-rule="evenodd" d="M14.25 17H9.82867C9.0558 17.6254 8.07165 18 7 18C4.51472 18 2.5 15.9853 2.5 13.5C2.5 11.2703 4.12172 9.41928 6.25 9.06222V5.75C6.25 4.23122 7.48122 3 9 3H12C12.1989 3 12.3897 3.07902 12.5303 3.21967L16.7803 7.46967C16.921 7.61032 17 7.80109 17 8V14.25C17 15.7688 15.7688 17 14.25 17ZM7.75 5.75C7.75 5.05964 8.30964 4.5 9 4.5H11.25V7C11.25 7.9665 12.0335 8.75 13 8.75H15.5V14.25C15.5 14.9404 14.9404 15.5 14.25 15.5H11.0322C11.3316 14.8975 11.5 14.2184 11.5 13.5C11.5 11.2703 9.87828 9.41928 7.75 9.06222V5.75ZM14.4393 7.25L12.75 5.56066V7C12.75 7.13807 12.8619 7.25 13 7.25H14.4393ZM7 16.5C8.65685 16.5 10 15.1569 10 13.5C10 11.8431 8.65685 10.5 7 10.5C5.34315 10.5 4 11.8431 4 13.5C4 15.1569 5.34315 16.5 7 16.5Z" fill="#4A4A4A"/>
</svg>
