<svg width="20" height="20" viewBox="0 0 20 20" fill="none" xmlns="http://www.w3.org/2000/svg">
<path d="M13 3.68934V7H16.3107L13 3.68934Z" fill="#4A4A4A"/>
<path d="M7.75 12C7.75 11.5858 7.41421 11.25 7 11.25C6.58579 11.25 6.25 11.5858 6.25 12V13.2929C6.25 13.6244 6.3817 13.9424 6.61612 14.1768L7.46967 15.0303C7.76256 15.3232 8.23744 15.3232 8.53033 15.0303C8.82322 14.7374 8.82322 14.2626 8.53033 13.9697L7.75 13.1893V12Z" fill="#4A4A4A"/>
<path fill-rule="evenodd" clip-rule="evenodd" d="M17 8.5V14.25C17 15.7688 15.7688 17 14.25 17H9.82867C9.0558 17.6254 8.07165 18 7 18C4.51472 18 2.5 15.9853 2.5 13.5C2.5 11.2703 4.12172 9.41928 6.25 9.06222V5.75C6.25 4.23122 7.48122 3 9 3H11.5V7C11.5 7.82843 12.1716 8.5 13 8.5H17ZM7 16.5C8.65685 16.5 10 15.1569 10 13.5C10 11.8431 8.65685 10.5 7 10.5C5.34315 10.5 4 11.8431 4 13.5C4 15.1569 5.34315 16.5 7 16.5Z" fill="#4A4A4A"/>
</svg>
