<svg viewBox="0 0 20 20" xmlns="http://www.w3.org/2000/svg"><path d="M14.199 12.741a.75.75 0 1 0 1.102 1.018l3-3.25a.75.75 0 0 0 0-1.018l-3-3.25a.75.75 0 1 0-1.102 1.018l2.53 2.741-2.53 2.741Z" fill="#5C5F62"/><path d="M5.801 7.259a.75.75 0 0 0-1.102-1.018l-3 3.25a.75.75 0 0 0 0 1.018l3 3.25a.75.75 0 1 0 1.102-1.018l-2.53-2.741 2.53-2.741Z" fill="#5C5F62"/><path d="M10 6.75a.75.75 0 0 1 .75.75v1.75h1.75a.75.75 0 0 1 0 1.5h-1.75v1.75a.75.75 0 0 1-1.5 0v-1.75h-1.75a.75.75 0 0 1 0-1.5h1.75v-1.75a.75.75 0 0 1 .75-.75Z" fill="#5C5F62"/></svg>