<svg xmlns="http://www.w3.org/2000/svg" viewBox="0 0 20 20"><path d="M9.018 3.5h1.964c.813 0 1.469 0 2 .043.546.045 1.026.14 1.47.366a3.75 3.75 0 0 1 1.64 1.639c.226.444.32.924.365 1.47.043.531.043 1.187.043 2v.232a.75.75 0 0 1-1.5 0v-.2c0-.852 0-1.447-.038-1.91-.037-.453-.107-.714-.207-.911a2.25 2.25 0 0 0-.984-.984c-.197-.1-.458-.17-.912-.207-.462-.037-1.056-.038-1.909-.038h-1.9c-.852 0-1.447 0-1.91.038-.453.037-.714.107-.911.207a2.25 2.25 0 0 0-.984.984c-.1.197-.17.458-.207.912-.037.462-.038 1.057-.038 1.909v1.39l1.013-1.013a1.75 1.75 0 0 1 2.474 0l2.763 2.762 1.47-1.47a.75.75 0 1 1 1.06 1.061l-2 2a.75.75 0 0 1-1.06 0l-3.293-3.293a.25.25 0 0 0-.354 0l-2.054 2.055c.005.113.011.218.02.317.036.454.106.715.206.912.216.424.56.768.984.984.197.1.458.17.912.207.462.037 1.057.038 1.909.038h1.2a.75.75 0 0 1 0 1.5h-1.232c-.813 0-1.469 0-2-.043-.546-.045-1.026-.14-1.47-.366a3.75 3.75 0 0 1-1.64-1.639c-.226-.444-.32-.924-.365-1.47a11.671 11.671 0 0 1-.03-.597.754.754 0 0 1-.006-.234c-.007-.348-.007-.736-.007-1.169v-1.964c0-.813 0-1.469.043-2 .045-.546.14-1.026.366-1.47a3.75 3.75 0 0 1 1.639-1.64c.444-.226.924-.32 1.47-.365.531-.043 1.187-.043 2-.043Z"/><path d="M12.5 9a1.5 1.5 0 1 0 0-3 1.5 1.5 0 0 0 0 3Z"/><path d="M15.75 11.25a.75.75 0 0 1 .75.75v1.75h1.75a.75.75 0 0 1 0 1.5h-1.75v1.75a.75.75 0 0 1-1.5 0v-1.75h-1.75a.75.75 0 0 1 0-1.5h1.75v-1.75a.75.75 0 0 1 .75-.75Z"/></svg>