<svg xmlns="http://www.w3.org/2000/svg" viewBox="0 0 20 20"><path d="M3.5 6.25a2.75 2.75 0 0 1 2.75-2.75h7.5a2.75 2.75 0 0 1 2.75 2.75v4.52a.75.75 0 0 1-1.5 0v-4.52c0-.69-.56-1.25-1.25-1.25h-7.5c-.69 0-1.25.56-1.25 1.25v7.5c0 .69.56 1.25 1.25 1.25h4.92a.75.75 0 0 1 0 1.5h-4.92a2.75 2.75 0 0 1-2.75-2.75v-7.5Z"/><path d="M15.75 12.5a.75.75 0 0 1 .75.75v1.25h1.25a.75.75 0 0 1 0 1.5h-1.25v1.25a.75.75 0 0 1-1.5 0v-1.25h-1.25a.75.75 0 0 1 0-1.5h1.25v-1.25a.75.75 0 0 1 .75-.75Z"/><path d="M6.55 7.25a.7.7 0 0 1 .7-.7h5.5a.7.7 0 1 1 0 1.4h-5.5a.7.7 0 0 1-.7-.7Z"/><path d="M7 9.05a.7.7 0 1 0 0 1.4h2.25a.7.7 0 1 0 0-1.4h-2.25Z"/></svg>