<svg viewBox="0 0 20 20" xmlns="http://www.w3.org/2000/svg"><path fill-rule="evenodd" d="M10.095 6.25a3.001 3.001 0 0 1 5.81 0h1.345a.75.75 0 0 1 0 1.5h-1.345a3.001 3.001 0 0 1-5.81 0h-7.345a.75.75 0 0 1 0-1.5h7.345Zm1.405.75a1.5 1.5 0 1 1 3 0 1.5 1.5 0 0 1-3 0Z" fill="#5C5F62"/><path fill-rule="evenodd" d="M7 16a3.001 3.001 0 0 0 2.905-2.25h7.345a.75.75 0 0 0 0-1.5h-7.345a3.001 3.001 0 0 0-5.81 0h-1.345a.75.75 0 0 0 0 1.5h1.345a3.001 3.001 0 0 0 2.905 2.25Zm1.5-3a1.5 1.5 0 1 1-3 0 1.5 1.5 0 0 1 3 0Z" fill="#5C5F62"/></svg>