<svg xmlns="http://www.w3.org/2000/svg" viewBox="0 0 20 20"><path fill-rule="evenodd" d="M9.08 5.75c.344-1.573 1.744-2.75 3.42-2.75s3.076 1.177 3.42 2.75h1.33c.414 0 .75.336.75.75s-.336.75-.75.75h-1.33c-.344 1.573-1.744 2.75-3.42 2.75s-3.076-1.177-3.42-2.75h-6.33c-.414 0-.75-.336-.75-.75s.336-.75.75-.75h6.33Zm1.42.75c0-1.105.895-2 2-2s2 .895 2 2-.895 2-2 2-2-.895-2-2Z"/><path fill-rule="evenodd" d="M7.5 17c1.676 0 3.076-1.177 3.42-2.75h6.33c.414 0 .75-.336.75-.75s-.336-.75-.75-.75h-6.33c-.344-1.573-1.744-2.75-3.42-2.75s-3.076 1.177-3.42 2.75h-1.33c-.414 0-.75.336-.75.75s.336.75.75.75h1.33c.344 1.573 1.744 2.75 3.42 2.75Zm2-3.5c0 1.105-.895 2-2 2s-2-.895-2-2 .895-2 2-2 2 .895 2 2Z"/></svg>