<svg xmlns="http://www.w3.org/2000/svg" viewBox="0 0 16 16"><path fill-rule="evenodd" d="M7.095 4.25c.333-1.294 1.507-2.25 2.905-2.25s2.572.956 2.905 2.25h1.345c.414 0 .75.336.75.75s-.336.75-.75.75h-1.345c-.332 1.294-1.507 2.25-2.905 2.25s-2.572-.956-2.905-2.25h-5.345c-.414 0-.75-.336-.75-.75s.336-.75.75-.75h5.345Zm1.405.75c0-.828.672-1.5 1.5-1.5s1.5.672 1.5 1.5-.672 1.5-1.5 1.5-1.5-.672-1.5-1.5Z"/><path fill-rule="evenodd" d="M6 14c1.398 0 2.572-.956 2.905-2.25h5.345c.414 0 .75-.336.75-.75s-.336-.75-.75-.75h-5.345c-.333-1.294-1.507-2.25-2.905-2.25s-2.572.956-2.905 2.25h-1.345c-.414 0-.75.336-.75.75s.336.75.75.75h1.345c.333 1.294 1.507 2.25 2.905 2.25Zm1.5-3c0 .828-.672 1.5-1.5 1.5s-1.5-.672-1.5-1.5.672-1.5 1.5-1.5 1.5.672 1.5 1.5Z"/></svg>