<svg xmlns="http://www.w3.org/2000/svg" viewBox="0 0 16 16"><path fill-rule="evenodd" d="M14.5 4c0 1.38-1.12 2.5-2.5 2.5-.417 0-.81-.102-1.156-.283l-2.896 2.896c.35.544.552 1.192.552 1.887v.023l1.148.128c.348-.963 1.27-1.651 2.352-1.651 1.38 0 2.5 1.12 2.5 2.5s-1.12 2.5-2.5 2.5c-1.155 0-2.127-.783-2.414-1.847l-1.419-.158v-.005c-.559 1.188-1.767 2.01-3.167 2.01-1.933 0-3.5-1.567-3.5-3.5 0-1.51.956-2.796 2.295-3.287l-.17-1.24c-1.203-.182-2.125-1.22-2.125-2.473 0-1.38 1.12-2.5 2.5-2.5s2.5 1.12 2.5 2.5c0 .983-.567 1.833-1.392 2.242l.173 1.27c.589.046 1.136.238 1.606.54l2.896-2.896c-.18-.345-.283-.739-.283-1.156 0-1.38 1.12-2.5 2.5-2.5s2.5 1.12 2.5 2.5Zm-1.5 0c0 .552-.448 1-1 1s-1-.448-1-1 .448-1 1-1 1 .448 1 1Zm-8 9c1.105 0 2-.895 2-2s-.895-2-2-2-2 .895-2 2 .895 2 2 2Zm7 0c.552 0 1-.448 1-1s-.448-1-1-1-1 .448-1 1 .448 1 1 1Zm-7-9c0 .552-.448 1-1 1s-1-.448-1-1 .448-1 1-1 1 .448 1 1Z"/></svg>