<svg xmlns="http://www.w3.org/2000/svg" viewBox="0 0 20 20"><path fill-rule="evenodd" d="M17.5 5c0 1.38-1.12 2.5-2.5 2.5-.417 0-.81-.102-1.156-.283l-4.035 4.035c.401.59.65 1.292.686 2.05l2.23.159c.395-.862 1.265-1.461 2.275-1.461 1.38 0 2.5 1.12 2.5 2.5s-1.12 2.5-2.5 2.5c-1.227 0-2.247-.883-2.46-2.049l-2.253-.16c-.536 1.575-2.03 2.709-3.787 2.709-2.21 0-4-1.79-4-4 0-1.795 1.182-3.313 2.81-3.82l-.238-2.216c-1.177-.203-2.072-1.23-2.072-2.464 0-1.38 1.12-2.5 2.5-2.5s2.5 1.12 2.5 2.5c0 1.002-.59 1.866-1.44 2.265l.24 2.246c.72.053 1.385.297 1.948.68l4.035-4.035c-.18-.345-.283-.739-.283-1.156 0-1.38 1.12-2.5 2.5-2.5s2.5 1.12 2.5 2.5Zm-1.5 0c0 .552-.448 1-1 1s-1-.448-1-1 .448-1 1-1 1 .448 1 1Zm-9.5 11c1.38 0 2.5-1.12 2.5-2.5s-1.12-2.5-2.5-2.5-2.5 1.12-2.5 2.5 1.12 2.5 2.5 2.5Zm8.5-.5c.552 0 1-.448 1-1s-.448-1-1-1-1 .448-1 1 .448 1 1 1Zm-8.5-10.5c0 .552-.448 1-1 1s-1-.448-1-1 .448-1 1-1 1 .448 1 1Z"/></svg>