<svg viewBox="0 0 20 20" xmlns="http://www.w3.org/2000/svg"><path fill-rule="evenodd" d="M17.5 5a2.5 2.5 0 0 1-3.656 2.217l-3.176 3.176a4.48 4.48 0 0 1 .784 3.268l1.303.237a2.5 2.5 0 1 1-.226 1.483l-1.548-.281a4.5 4.5 0 1 1-5.897-6.173l-.36-1.442a2.5 2.5 0 1 1 1.473-.29l.332 1.33a4.48 4.48 0 0 1 3.078.808l3.176-3.177a2.5 2.5 0 1 1 4.717-1.156Zm-1.5 0a1 1 0 1 1-2 0 1 1 0 0 1 2 0Zm-9 11a3 3 0 1 0 0-6 3 3 0 0 0 0 6Zm8 0a1 1 0 1 0 0-2 1 1 0 0 0 0 2Zm-9-11a1 1 0 1 1-2 0 1 1 0 0 1 2 0Z" fill="#5C5F62"/></svg>