<svg xmlns="http://www.w3.org/2000/svg" viewBox="0 0 16 16"><path fill-rule="evenodd" d="M13.259 10.25c1.35 0 2.192-1.465 1.512-2.632l-.294-.504c-.493-.844-1.398-1.364-2.376-1.364h-1.612l-1.368-2.21c-.593-.958-1.638-1.54-2.764-1.54h-.607c-.217 0-.424.094-.567.259-.142.164-.206.382-.175.597l.413 2.894h-.133l-.205-.443c-.368-.797-1.165-1.307-2.043-1.307h-1.29c-.226 0-.44.102-.582.277-.143.176-.198.406-.152.628l1 4.75c.073.347.38.595.734.595h2.671l-.413 2.894c-.031.215.033.433.175.597.143.165.35.259.567.259h.607c1.126 0 2.171-.582 2.764-1.54l1.368-2.21h2.77Zm-4.534-4.5-.88-1.421c-.272-.44-.724-.734-1.227-.81l.318 2.231h1.79Zm-2.726 1.5h-1.191c-.293 0-.559-.17-.681-.436l-.406-.878c-.122-.266-.388-.436-.68-.436h-.367l.685 3.25h2.927c.217 0 .424.094.566.259.143.164.207.382.176.597l-.41 2.875c.503-.076.955-.37 1.227-.81l1.589-2.566c.136-.22.378-.355.637-.355h3.188c.193 0 .313-.21.216-.376l-.294-.504c-.224-.384-.635-.62-1.08-.62h-6.102Z"/></svg>