<svg xmlns="http://www.w3.org/2000/svg" viewBox="0 0 20 20"><path fill-rule="evenodd" d="M17.009 12.25c1.35 0 2.192-1.465 1.512-2.632l-.294-.504c-.493-.844-1.398-1.364-2.376-1.364h-3.217l-1.515-2.798c-.568-1.049-1.665-1.702-2.858-1.702h-.511c-.215 0-.42.092-.562.254-.143.16-.209.376-.182.589l.457 3.657h-1.02l-.946-1.026c-.426-.462-1.026-.724-1.654-.724h-1.593c-.226 0-.44.102-.582.277-.143.176-.198.406-.152.628l1 4.75c.073.347.38.595.734.595h4.213l-.457 3.657c-.027.213.04.428.182.59.142.16.347.253.562.253h.511c1.193 0 2.29-.653 2.858-1.702l1.515-2.798h4.375Zm-6.08-4.5-1.13-2.083c-.25-.463-.691-.782-1.195-.883l.37 2.966h1.954Zm-2.93 1.5h-1.884c-.209 0-.409-.087-.55-.241l-1.17-1.268c-.143-.154-.342-.241-.552-.241h-.669l.685 3.25h4.454c.215 0 .42.092.562.254.142.16.208.376.182.589l-.453 3.623c.504-.1.945-.42 1.196-.882l1.728-3.191c.131-.242.384-.393.66-.393h4.821c.193 0 .313-.21.216-.376l-.294-.504c-.224-.384-.635-.62-1.08-.62h-7.851Z"/></svg>