<svg xmlns="http://www.w3.org/2000/svg" viewBox="0 0 16 16"><path d="M8 4c.414 0 .75.336.75.75v2.5c0 .414-.336.75-.75.75s-.75-.336-.75-.75v-2.5c0-.414.336-.75.75-.75Z"/><path d="M8 11c.552 0 1-.448 1-1s-.448-1-1-1-1 .448-1 1 .448 1 1 1Z"/><path fill-rule="evenodd" d="M1.5 6.25c0-2.623 2.127-4.75 4.75-4.75h3.5c2.623 0 4.75 2.127 4.75 4.75v2.5c0 2.564-2.031 4.653-4.573 4.747l-1.335 1.714c-.143.184-.363.29-.596.289-.233-.001-.452-.11-.593-.296l-1.3-1.706c-2.555-.078-4.603-2.174-4.603-4.748v-2.5Zm4.75-3.25c-1.795 0-3.25 1.455-3.25 3.25v2.5c0 1.795 1.455 3.25 3.25 3.25h.226c.234 0 .455.11.597.296l.934 1.225.96-1.232c.142-.182.36-.289.591-.289h.192c1.795 0 3.25-1.455 3.25-3.25v-2.5c0-1.795-1.455-3.25-3.25-3.25h-3.5Z"/></svg>