<svg xmlns="http://www.w3.org/2000/svg" viewBox="0 0 12 12"><path d="M6.75 8.5c0 .414-.336.75-.75.75s-.75-.336-.75-.75.336-.75.75-.75.75.336.75.75Z"/><path d="M6.5 4.5c0-.276-.224-.5-.5-.5s-.5.224-.5.5v2c0 .276.224.5.5.5s.5-.224.5-.5v-2Z"/><path fill-rule="evenodd" d="M4.43 1.417c.698-1.223 2.442-1.223 3.14 0l4.184 7.333c.698 1.222-.174 2.75-1.569 2.75h-8.37c-1.395 0-2.267-1.528-1.57-2.75l4.186-7.333Zm2.054.62c-.218-.382-.75-.382-.968 0l-4.185 7.333c-.234.41.073.88.484.88h8.37c.41 0 .718-.47.484-.88l-4.185-7.334Z"/></svg>