<svg xmlns="http://www.w3.org/2000/svg" viewBox="0 0 20 20"><path fill-rule="evenodd" d="M7 4c-1.795 0-3.25 1.455-3.25 3.25v4c0 1.795 1.455 3.25 3.25 3.25h1c.234 0 .455.11.597.296l1.41 1.85 1.447-1.857c.142-.182.36-.289.591-.289h.955c1.795 0 3.25-1.455 3.25-3.25v-4c0-1.795-1.455-3.25-3.25-3.25h-6Zm-4.75 3.25c0-2.623 2.127-4.75 4.75-4.75h6c2.623 0 4.75 2.127 4.75 4.75v4c0 2.623-2.127 4.75-4.75 4.75h-.588l-1.82 2.336c-.143.184-.363.29-.596.289-.233-.001-.452-.11-.593-.296l-1.774-2.329h-.629c-2.623 0-4.75-2.127-4.75-4.75v-4Z"/><path fill-rule="evenodd" d="M10 5.25c.414 0 .75.336.75.75v3.5c0 .414-.336.75-.75.75s-.75-.336-.75-.75v-3.5c0-.414.336-.75.75-.75Z"/><path d="M11 12.75c0 .552-.448 1-1 1s-1-.448-1-1 .448-1 1-1 1 .448 1 1Z"/></svg>