<svg xmlns="http://www.w3.org/2000/svg" viewBox="0 0 12 12"><path d="M6.75 7.75c0 .414-.336.75-.75.75s-.75-.336-.75-.75.336-.75.75-.75.75.336.75.75Z"/><path d="M6.5 3.75c0-.276-.224-.5-.5-.5s-.5.224-.5.5v2c0 .276.224.5.5.5s.5-.224.5-.5v-2Z"/><path fill-rule="evenodd" d="m4.804.995-3.809 3.81c-.66.66-.66 1.73 0 2.39l3.81 3.81c.66.66 1.73.66 2.39 0l3.81-3.81c.66-.66.66-1.73 0-2.39l-3.81-3.81c-.66-.66-1.73-.66-2.39 0Zm.884.884-3.809 3.81c-.172.171-.172.45 0 .623l3.81 3.809c.171.172.45.172.623 0l3.809-3.81c.172-.171.172-.45 0-.623l-3.81-3.809c-.171-.172-.45-.172-.623 0Z"/></svg>