<svg xmlns="http://www.w3.org/2000/svg" viewBox="0 0 16 16"><path d="M8 4.75c.414 0 .75.336.75.75v3.5c0 .414-.336.75-.75.75s-.75-.336-.75-.75v-3.5c0-.414.336-.75.75-.75Z"/><path d="M9 11.5c0 .552-.448 1-1 1s-1-.448-1-1 .448-1 1-1 1 .448 1 1Z"/><path fill-rule="evenodd" d="M8 1.5c-1.045 0-1.784.702-2.152 1.447-.192.387-1.088 2.097-2.005 3.847l-.028.052c-.892 1.703-1.798 3.432-2.008 3.856-.372.752-.478 1.75.093 2.614.57.863 1.542 1.184 2.464 1.184h7.272c.922 0 1.895-.32 2.465-1.184.57-.864.464-1.862.092-2.614-.21-.424-1.113-2.147-2.004-3.847l-.032-.061c-.917-1.75-1.813-3.46-2.005-3.847-.368-.745-1.107-1.447-2.152-1.447Zm-.808 2.112c.404-.816 1.212-.816 1.616 0 .202.409 1.112 2.145 2.022 3.88.908 1.734 1.817 3.467 2.018 3.875.404.817 0 1.633-1.212 1.633h-7.272c-1.212 0-1.617-.816-1.212-1.633.202-.408 1.113-2.147 2.023-3.883.908-1.733 1.815-3.464 2.017-3.872Z"/></svg>