<svg xmlns="http://www.w3.org/2000/svg" viewBox="0 0 16 16"><path d="M8 4c.414 0 .75.336.75.75v3.5c0 .414-.336.75-.75.75s-.75-.336-.75-.75v-3.5c0-.414.336-.75.75-.75Z"/><path d="M9 11c0 .552-.448 1-1 1s-1-.448-1-1 .448-1 1-1 1 .448 1 1Z"/><path fill-rule="evenodd" d="M9.237 1.177c-.683-.684-1.791-.684-2.474 0l-5.586 5.585c-.684.684-.684 1.792 0 2.475l5.586 5.586c.683.684 1.791.684 2.474 0l5.586-5.586c.684-.683.684-1.791 0-2.475l-5.586-5.585Zm-1.414 1.06c.098-.097.256-.097.354 0l5.585 5.586c.098.098.098.256 0 .354l-5.585 5.585c-.098.098-.256.098-.354 0l-5.586-5.585c-.097-.098-.097-.256 0-.354l5.586-5.586Z"/></svg>