<svg xmlns="http://www.w3.org/2000/svg" viewBox="0 0 20 20"><path d="M11 14.5c0 .552-.448 1-1 1s-1-.448-1-1 .448-1 1-1 1 .448 1 1Z"/><path fill-rule="evenodd" d="M10 6c-.414 0-.75.336-.75.75v4.5c0 .414.336.75.75.75s.75-.336.75-.75v-4.5c0-.414-.336-.75-.75-.75Z"/><path fill-rule="evenodd" d="M2.353 13.712c.27-.547 1.449-2.796 2.614-5.02l.028-.052c1.19-2.27 2.358-4.5 2.61-5.01.43-.866 1.259-1.63 2.395-1.63 1.136 0 1.966.764 2.395 1.63.252.51 1.42 2.74 2.61 5.01l.033.063c1.164 2.22 2.34 4.463 2.61 5.01.432.873.538 1.994-.093 2.95-.63.955-1.725 1.337-2.828 1.337h-9.454c-1.104 0-2.198-.382-2.828-1.337-.63-.956-.525-2.077-.092-2.95Zm3.974-4.383c1.18-2.253 2.36-4.503 2.622-5.033.526-1.061 1.576-1.061 2.101 0 .263.53 1.446 2.788 2.629 5.044 1.18 2.254 2.362 4.507 2.624 5.038.525 1.06 0 2.122-1.576 2.122h-9.454c-1.576 0-2.101-1.061-1.576-2.122.263-.532 1.447-2.791 2.63-5.05Z"/></svg>