<svg xmlns="http://www.w3.org/2000/svg" viewBox="0 0 12 12"><path d="M6.75 7c0 .414-.336.75-.75.75s-.75-.336-.75-.75.336-.75.75-.75.75.336.75.75Z"/><path d="M6.5 3c0-.276-.224-.5-.5-.5s-.5.224-.5.5v2c0 .276.224.5.5.5s.5-.224.5-.5v-2Z"/><path fill-rule="evenodd" d="M.25 3.761c0-2.077 1.716-3.761 3.834-3.761h3.832c2.118 0 3.834 1.684 3.834 3.761v2.658c0 1.981-1.567 3.622-3.582 3.753l-.486.031c-.016.001-.03.009-.04.022l-1.193 1.56c-.22.287-.657.287-.876 0l-1.193-1.56c-.01-.013-.025-.02-.04-.022l-.507-.032c-2.016-.13-3.583-1.772-3.583-3.754v-2.656Zm6.399 5.704c.232-.303.581-.485.952-.51l.487-.03c1.377-.09 2.412-1.204 2.412-2.506v-2.658c0-1.364-1.134-2.511-2.584-2.511h-3.832c-1.45 0-2.584 1.147-2.584 2.511v2.656c0 1.303 1.035 2.418 2.413 2.506l.507.033c.371.024.72.206.953.51l.638.834.638-.835Z"/></svg>