<svg xmlns="http://www.w3.org/2000/svg" viewBox="0 0 20 20"><path d="M9.983 4c-.101 0-.212 0-.308.006a1.262 1.262 0 0 0-.403.09 1.25 1.25 0 0 0-.677.676 1.262 1.262 0 0 0-.088.403 4.73 4.73 0 0 0-.007.308v10.034c0 .101 0 .212.007.308.007.108.025.25.088.403.127.307.37.55.677.677.152.063.295.081.403.088.096.007.206.007.308.007h.034c.101 0 .212 0 .308-.006a1.246 1.246 0 0 0 1.08-.766c.063-.152.081-.295.088-.403.007-.096.007-.207.007-.308v-10.034c0-.101 0-.212-.007-.308a1.266 1.266 0 0 0-.088-.403 1.25 1.25 0 0 0-.677-.677 1.262 1.262 0 0 0-.403-.088 4.728 4.728 0 0 0-.308-.007h-.034Z"/><path d="M5.483 9c-.101 0-.212 0-.308.007a1.262 1.262 0 0 0-.403.088 1.25 1.25 0 0 0-.677.677 1.263 1.263 0 0 0-.088.403 4.728 4.728 0 0 0-.007.308v5.034c0 .101 0 .212.006.308a1.246 1.246 0 0 0 .766 1.08c.152.063.295.081.403.088.096.007.207.007.308.007h.034c.101 0 .212 0 .308-.006a1.246 1.246 0 0 0 1.08-.766 1.28 1.28 0 0 0 .089-.403c.006-.096.006-.207.006-.308v-5.034c0-.101 0-.212-.006-.308a1.263 1.263 0 0 0-.09-.403 1.25 1.25 0 0 0-.676-.677 1.262 1.262 0 0 0-.403-.088 4.73 4.73 0 0 0-.308-.007h-.034Z"/><path d="M14.483 6c-.101 0-.212 0-.308.006a1.262 1.262 0 0 0-.403.09 1.25 1.25 0 0 0-.677.676 1.264 1.264 0 0 0-.088.403c-.007.096-.007.207-.007.308v8.034c0 .101 0 .212.007.308.007.108.025.25.088.403.127.307.37.55.677.677.152.063.296.081.403.088.096.007.207.007.308.007h.034c.101 0 .212 0 .308-.006a1.246 1.246 0 0 0 1.08-.766c.063-.152.081-.295.088-.403.007-.096.007-.207.007-.308v-8.034c0-.101 0-.212-.007-.308a1.266 1.266 0 0 0-.088-.403 1.25 1.25 0 0 0-.677-.677 1.262 1.262 0 0 0-.403-.088 4.728 4.728 0 0 0-.308-.007h-.034Z"/></svg>