<svg xmlns="http://www.w3.org/2000/svg" viewBox="0 0 20 20"><path fill="#5C5F62" fill-rule="evenodd" d="M5.393 11.296c-.148.385-.366.793-.71 1.115a1 1 0 0 1-1.366-1.461c.041-.039.12-.141.21-.373.088-.228.164-.523.233-.89a23.178 23.178 0 0 0 .205-1.371c.05-.38.103-.782.167-1.176.143-.882.36-1.873.83-2.656C5.476 3.626 6.309 3 7.532 3c.78 0 1.418.32 1.9.828.452.477.75 1.1.96 1.728.42 1.245.612 2.859.778 4.332l.024.21c.164 1.456.313 2.771.597 3.747.149.51.308.826.453 1 .115.139.187.155.27.155.148 0 .198-.035.218-.05.034-.024.099-.09.175-.26.17-.38.255-.938.359-1.704l.01-.075c.09-.663.203-1.506.506-2.18.166-.37.415-.755.805-1.046.404-.3.885-.445 1.413-.445a1 1 0 1 1 0 2c-.148 0-.199.035-.219.05-.033.025-.099.09-.175.26-.17.38-.255.938-.358 1.704l-.01.075c-.09.663-.204 1.506-.506 2.18-.166.37-.416.756-.806 1.046-.403.3-.884.445-1.412.445-.772 0-1.378-.359-1.808-.877-.4-.482-.655-1.102-.835-1.718-.335-1.148-.5-2.626-.656-4.007l-.032-.286c-.173-1.527-.347-2.913-.686-3.918-.167-.497-.348-.812-.517-.99A.559.559 0 0 0 7.533 5c-.409 0-.641.154-.855.511-.259.432-.432 1.09-.571 1.95-.06.362-.108.733-.159 1.115l-.023.173c-.058.435-.12.885-.2 1.308-.079.421-.182.85-.332 1.24Z"/></svg>
