<svg width="20" height="20" viewBox="0 0 20 20" fill="none" xmlns="http://www.w3.org/2000/svg">
<path d="M9.97107 4C9.76667 3.99995 9.62735 3.99992 9.50615 4.02403C9.01028 4.12266 8.62266 4.51028 8.52403 5.00615C8.49992 5.12735 8.49995 5.26667 8.5 5.47107V14.5289C8.49995 14.7333 8.49992 14.8727 8.52403 14.9939C8.62266 15.4897 9.01028 15.8774 9.50615 15.976C9.62735 16.0001 9.76667 16.0001 9.97106 16H10.029C10.2334 16.0001 10.3727 16.0001 10.4939 15.976C10.9897 15.8774 11.3774 15.4897 11.476 14.9939C11.5001 14.8727 11.5001 14.7334 11.5 14.5289V5.47107C11.5001 5.26667 11.5001 5.12735 11.476 5.00615C11.3774 4.51028 10.9897 4.12266 10.4939 4.02403C10.3727 3.99992 10.2333 3.99995 10.0289 4H9.97107Z" fill="#4A4A4A"/>
<path d="M5.47107 9.5C5.26667 9.49995 5.12735 9.49992 5.00615 9.52403C4.51028 9.62266 4.12266 10.0103 4.02403 10.5061C3.99992 10.6273 3.99995 10.7667 4 10.9711V14.5289C3.99995 14.7333 3.99992 14.8727 4.02403 14.9939C4.12266 15.4897 4.51028 15.8774 5.00615 15.976C5.12735 16.0001 5.26667 16.0001 5.47107 16H5.52894C5.73335 16.0001 5.87267 16.0001 5.99387 15.976C6.48974 15.8774 6.87736 15.4897 6.97599 14.9939C7.0001 14.8727 7.00006 14.7333 7.00001 14.5289V10.9711C7.00006 10.7667 7.0001 10.6273 6.97599 10.5061C6.87736 10.0103 6.48974 9.62266 5.99387 9.52403C5.87267 9.49992 5.73335 9.49995 5.52895 9.5H5.47107Z" fill="#4A4A4A"/>
<path d="M14.4711 6.5C14.2667 6.49995 14.1273 6.49992 14.0061 6.52403C13.5103 6.62266 13.1227 7.01028 13.024 7.50615C12.9999 7.62734 13 7.76666 13 7.97105V14.5289C13 14.7333 12.9999 14.8727 13.024 14.9939C13.1227 15.4897 13.5103 15.8774 14.0061 15.976C14.1273 16.0001 14.2667 16.0001 14.4711 16H14.529C14.7334 16.0001 14.8727 16.0001 14.9939 15.976C15.4897 15.8774 15.8774 15.4897 15.976 14.9939C16.0001 14.8727 16.0001 14.7333 16 14.5289V7.97107C16.0001 7.76667 16.0001 7.62735 15.976 7.50615C15.8774 7.01028 15.4897 6.62266 14.9939 6.52403C14.8727 6.49992 14.7333 6.49995 14.5289 6.5H14.4711Z" fill="#4A4A4A"/>
</svg>
