<svg xmlns="http://www.w3.org/2000/svg" viewBox="0 0 20 20"><path fill-rule="evenodd" d="M9.952 3.5h.096c.182 0 .371 0 .543.034a1.75 1.75 0 0 1 1.375 1.375c.035.172.034.361.034.543v9.096c0 .182 0 .371-.034.543a1.75 1.75 0 0 1-1.375 1.376 2.825 2.825 0 0 1-.543.033h-.096c-.182 0-.371 0-.543-.034a1.75 1.75 0 0 1-1.375-1.375 2.825 2.825 0 0 1-.034-.543v-9.096c0-.182 0-.371.034-.543a1.75 1.75 0 0 1 1.375-1.375c.172-.035.361-.034.543-.034Zm-.253 1.505a.25.25 0 0 0-.194.194 8.217 8.217 0 0 0-.005.3v9.001a8.221 8.221 0 0 0 .005.3.25.25 0 0 0 .194.195l.053.003c.055.002.127.002.248.002s.193 0 .248-.002l.053-.003a.25.25 0 0 0 .194-.194l.003-.053a8.05 8.05 0 0 0 .002-.248v-9c0-.121 0-.193-.002-.248l-.003-.053a.25.25 0 0 0-.194-.194 8.217 8.217 0 0 0-.3-.005 8.216 8.216 0 0 0-.302.005Z"/><path fill-rule="evenodd" d="M5.452 9h.096c.182 0 .371 0 .543.034a1.75 1.75 0 0 1 1.375 1.375c.035.172.034.361.034.543v3.596c0 .182 0 .371-.034.543a1.75 1.75 0 0 1-1.375 1.376 2.825 2.825 0 0 1-.543.033h-.096c-.182 0-.371 0-.543-.034a1.75 1.75 0 0 1-1.375-1.375 2.825 2.825 0 0 1-.034-.543v-3.596c0-.182 0-.371.034-.543a1.75 1.75 0 0 1 1.375-1.375c.172-.035.361-.034.543-.034Zm-.253 1.505a.25.25 0 0 0-.194.194 8.217 8.217 0 0 0-.005.3v3.501a8.221 8.221 0 0 0 .005.3.25.25 0 0 0 .194.195l.053.003c.055.002.127.002.248.002s.193 0 .248-.002l.053-.003a.25.25 0 0 0 .194-.194l.003-.053c.002-.054.002-.127.002-.248v-3.5a8.217 8.217 0 0 0-.005-.3.25.25 0 0 0-.194-.195 8.045 8.045 0 0 0-.3-.005 8.045 8.045 0 0 0-.302.005Z"/><path fill-rule="evenodd" d="M14.5 6h-.048c-.182 0-.371 0-.543.034a1.75 1.75 0 0 0-1.375 1.375 2.825 2.825 0 0 0-.034.543v6.596c0 .182 0 .371.034.543a1.75 1.75 0 0 0 1.375 1.376c.172.034.361.033.543.033h.096c.182 0 .371 0 .543-.034a1.75 1.75 0 0 0 1.375-1.375c.035-.172.034-.36.034-.543v-6.596c0-.182 0-.371-.034-.543a1.75 1.75 0 0 0-1.375-1.375c-.172-.035-.361-.034-.543-.034h-.048Zm-.495 1.7a.25.25 0 0 1 .194-.195 8.217 8.217 0 0 1 .3-.005 8.221 8.221 0 0 1 .302.005.25.25 0 0 1 .194.194l.003.053c.002.055.002.127.002.248v6.5c0 .121 0 .194-.002.248l-.003.053a.25.25 0 0 1-.194.194l-.053.003a8.05 8.05 0 0 1-.248.002c-.121 0-.193 0-.248-.002l-.053-.003a.25.25 0 0 1-.194-.194l-.003-.053a8.05 8.05 0 0 1-.002-.248v-6.5c0-.121 0-.193.002-.248l.003-.053v.002-.002Z"/></svg>