<svg viewBox="0 0 20 20" xmlns="http://www.w3.org/2000/svg">
<path fill-rule="evenodd" d="M1.42857 0C2.21754 0 2.85714 0.639593 2.85714 1.42857V18.5714C2.85714 19.3604 2.21754 20 1.42857 20C0.639594 20 4.25747e-07 19.3604 3.40599e-07 18.5714L0 1.42857C0 0.639593 0.639593 0 1.42857 0ZM7.14286 0C7.93183 0 8.57143 0.639593 8.57143 1.42857V18.5714C8.57143 19.3604 7.93184 20 7.14286 20C6.35389 20 5.71429 19.3604 5.71429 18.5714V1.42857C5.71429 0.639593 6.35389 0 7.14286 0ZM12.8571 0C13.6461 0 14.2857 0.639593 14.2857 1.42857V18.5714C14.2857 19.3604 13.6461 20 12.8571 20C12.0682 20 11.4286 19.3604 11.4286 18.5714V1.42857C11.4286 0.639593 12.0682 0 12.8571 0ZM18.5714 0C19.3604 0 20 0.639593 20 1.42857V18.5714C20 19.3604 19.3604 20 18.5714 20C17.7824 20 17.1429 19.3604 17.1429 18.5714V1.42857C17.1429 0.639593 17.7824 0 18.5714 0Z" fill="#5C5F62"/>
</svg>
