<svg width="14" height="14" viewBox="0 0 14 14" fill="none" xmlns="http://www.w3.org/2000/svg">
<path fill-rule="evenodd" clip-rule="evenodd" d="M1 0C1.55228 0 2 0.447715 2 1L2 13C2 13.5523 1.55228 14 1 14C0.447716 14 2.98023e-07 13.5523 2.38419e-07 13L0 1C0 0.447715 0.447715 0 1 0ZM5 0C5.55228 0 6 0.447715 6 1L6 13C6 13.5523 5.55229 14 5 14C4.44772 14 4 13.5523 4 13L4 1C4 0.447715 4.44772 0 5 0ZM9 0C9.55229 0 10 0.447715 10 1V13C10 13.5523 9.55229 14 9 14C8.44772 14 8 13.5523 8 13V1C8 0.447715 8.44772 0 9 0ZM13 0C13.5523 0 14 0.447715 14 1V13C14 13.5523 13.5523 14 13 14C12.4477 14 12 13.5523 12 13V1C12 0.447715 12.4477 0 13 0Z" fill="#616A75"/>
</svg>
