<svg viewBox="0 0 20 20" xmlns="http://www.w3.org/2000/svg">
<path fill-rule="evenodd" d="M4 3C4.55228 3 5 3.44772 5 4L5 16C5 16.5523 4.55229 17 4 17C3.44772 17 3 16.5523 3 16L3 4C3 3.44772 3.44772 3 4 3ZM8 3C8.55228 3 9 3.44772 9 4L9 16C9 16.5523 8.55229 17 8 17C7.44772 17 7 16.5523 7 16L7 4C7 3.44772 7.44772 3 8 3ZM12 3C12.5523 3 13 3.44772 13 4V16C13 16.5523 12.5523 17 12 17C11.4477 17 11 16.5523 11 16V4C11 3.44772 11.4477 3 12 3ZM16 3C16.5523 3 17 3.44772 17 4V16C17 16.5523 16.5523 17 16 17C15.4477 17 15 16.5523 15 16V4C15 3.44772 15.4477 3 16 3Z" fill="#5C5F62"/>
</svg>
