<svg xmlns="http://www.w3.org/2000/svg" viewBox="0 0 20 20"><path fill-rule="evenodd" d="M4.75 2.5c-1.243 0-2.25 1.007-2.25 2.25v3.25c0 .552.448 1 1 1h4.5c.552 0 1-.448 1-1v-4.5c0-.552-.448-1-1-1h-3.25Zm-.75 2.25c0-.414.336-.75.75-.75h2.75v3.5h-3.5v-2.75Z"/><path d="M12.28 8.78c-.292.293-.767.293-1.06 0-.293-.293-.293-.767 0-1.06l3.72-3.72h-1.69c-.414 0-.75-.336-.75-.75s.336-.75.75-.75h3.5c.2 0 .39.08.53.22.141.14.22.331.22.53v3.5c0 .414-.336.75-.75.75s-.75-.336-.75-.75v-1.69l-3.72 3.72Z"/><path fill-rule="evenodd" d="M2.5 15.25c0 1.243 1.007 2.25 2.25 2.25h3.25c.552 0 1-.448 1-1v-4.5c0-.552-.448-1-1-1h-4.5c-.552 0-1 .448-1 1v3.25Zm2.25.75c-.414 0-.75-.336-.75-.75v-2.75h3.5v3.5h-2.75Z"/><path fill-rule="evenodd" d="M15.25 17.5c1.243 0 2.25-1.007 2.25-2.25v-3.25c0-.552-.448-1-1-1h-4.5c-.552 0-1 .448-1 1v4.5c0 .552.448 1 1 1h3.25Zm.75-2.25c0 .414-.336.75-.75.75h-2.75v-3.5h3.5v2.75Z"/></svg>