<svg xmlns="http://www.w3.org/2000/svg" viewBox="0 0 16 16"><path d="M10.28 6.78c-.293.293-.767.293-1.06 0-.293-.293-.293-.767 0-1.06l3.22-3.22h-1.19c-.414 0-.75-.336-.75-.75s.336-.75.75-.75h3c.2 0 .39.08.53.22.141.14.22.331.22.53v3c0 .414-.336.75-.75.75s-.75-.336-.75-.75v-1.19l-3.22 3.22Z"/><path fill-rule="evenodd" d="M3.75 1.5c-1.243 0-2.25 1.007-2.25 2.25v2.75c0 .552.448 1 1 1h4c.552 0 1-.448 1-1v-4c0-.552-.448-1-1-1h-2.75Zm-.75 2.25c0-.414.336-.75.75-.75h2.25v3h-3v-2.25Z"/><path fill-rule="evenodd" d="M1.5 12.25c0 1.243 1.007 2.25 2.25 2.25h2.75c.552 0 1-.448 1-1v-4c0-.552-.448-1-1-1h-4c-.552 0-1 .448-1 1v2.75Zm2.25.75c-.414 0-.75-.336-.75-.75v-2.25h3v3h-2.25Z"/><path fill-rule="evenodd" d="M12.25 14.5c1.243 0 2.25-1.007 2.25-2.25v-2.75c0-.552-.448-1-1-1h-4c-.552 0-1 .448-1 1v4c0 .552.448 1 1 1h2.75Zm.75-2.25c0 .414-.336.75-.75.75h-2.25v-3h3v2.25Z"/></svg>