<svg width="20" height="20" viewBox="0 0 20 20" fill="none" xmlns="http://www.w3.org/2000/svg">
<path d="M13.5 3.625C13.9832 3.625 14.375 4.01675 14.375 4.5V5.625L15.5 5.625C15.9832 5.625 16.375 6.01675 16.375 6.5C16.375 6.98325 15.9832 7.375 15.5 7.375H14.375V8.5C14.375 8.98325 13.9832 9.375 13.5 9.375C13.0168 9.375 12.625 8.98325 12.625 8.5V7.375H11.5C11.0168 7.375 10.625 6.98325 10.625 6.5C10.625 6.01675 11.0168 5.625 11.5 5.625L12.625 5.625V4.5C12.625 4.01675 13.0168 3.625 13.5 3.625Z" fill="#4A4A4A"/>
<path d="M5.75 3.75C4.64543 3.75 3.75 4.64543 3.75 5.75V8.5C3.75 8.91421 4.08579 9.25 4.5 9.25H8.5C8.91421 9.25 9.25 8.91421 9.25 8.5V4.5C9.25 4.08579 8.91421 3.75 8.5 3.75H5.75Z" fill="#4A4A4A"/>
<path d="M3.75 14.25C3.75 15.3546 4.64543 16.25 5.75 16.25H8.5C8.91421 16.25 9.25 15.9142 9.25 15.5V11.5C9.25 11.0858 8.91421 10.75 8.5 10.75H4.5C4.08579 10.75 3.75 11.0858 3.75 11.5V14.25Z" fill="#4A4A4A"/>
<path d="M14.25 16.25C15.3546 16.25 16.25 15.3546 16.25 14.25V11.5C16.25 11.0858 15.9142 10.75 15.5 10.75H11.5C11.0858 10.75 10.75 11.0858 10.75 11.5V15.5C10.75 15.9142 11.0858 16.25 11.5 16.25H14.25Z" fill="#4A4A4A"/>
</svg>
