<svg xmlns="http://www.w3.org/2000/svg" viewBox="0 0 16 16"><path d="M11.5 1.625c.483 0 .875.392.875.875v1.125h1.125c.483 0 .875.392.875.875s-.392.875-.875.875h-1.125v1.125c0 .483-.392.875-.875.875s-.875-.392-.875-.875v-1.125h-1.125c-.483 0-.875-.392-.875-.875s.392-.875.875-.875h1.125v-1.125c0-.483.392-.875.875-.875Z"/><path d="M3.75 1.75c-1.105 0-2 .895-2 2v2.75c0 .414.336.75.75.75h4c.414 0 .75-.336.75-.75v-4c0-.414-.336-.75-.75-.75h-2.75Z"/><path d="M1.75 12.25c0 1.105.895 2 2 2h2.75c.414 0 .75-.336.75-.75v-4c0-.414-.336-.75-.75-.75h-4c-.414 0-.75.336-.75.75v2.75Z"/><path d="M12.25 14.25c1.105 0 2-.895 2-2v-2.75c0-.414-.336-.75-.75-.75h-4c-.414 0-.75.336-.75.75v4c0 .414.336.75.75.75h2.75Z"/></svg>