<svg xmlns="http://www.w3.org/2000/svg" viewBox="0 0 20 20"><path d="M14.25 2.25c.414 0 .75.336.75.75v2h2c.414 0 .75.336.75.75s-.336.75-.75.75h-2v2c0 .414-.336.75-.75.75s-.75-.336-.75-.75v-2h-2c-.414 0-.75-.336-.75-.75s.336-.75.75-.75h2v-2c0-.414.336-.75.75-.75Z"/><path fill-rule="evenodd" d="M2.5 4.75c0-1.243 1.007-2.25 2.25-2.25h3.25c.552 0 1 .448 1 1v4.5c0 .552-.448 1-1 1h-4.5c-.552 0-1-.448-1-1v-3.25Zm2.25-.75c-.414 0-.75.336-.75.75v2.75h3.5v-3.5h-2.75Z"/><path fill-rule="evenodd" d="M2.5 15.25c0 1.243 1.007 2.25 2.25 2.25h3.25c.552 0 1-.448 1-1v-4.5c0-.552-.448-1-1-1h-4.5c-.552 0-1 .448-1 1v3.25Zm2.25.75c-.414 0-.75-.336-.75-.75v-2.75h3.5v3.5h-2.75Z"/><path fill-rule="evenodd" d="M15.25 17.5c1.243 0 2.25-1.007 2.25-2.25v-3.25c0-.552-.448-1-1-1h-4.5c-.552 0-1 .448-1 1v4.5c0 .552.448 1 1 1h3.25Zm.75-2.25c0 .414-.336.75-.75.75h-2.75v-3.5h3.5v2.75Z"/></svg>