<svg viewBox="0 0 20 20" xmlns="http://www.w3.org/2000/svg"><path d="M14 2.75a.75.75 0 0 1 .75.75v1.75h1.75a.75.75 0 0 1 0 1.5h-1.75v1.75a.75.75 0 0 1-1.5 0v-1.75h-1.75a.75.75 0 0 1 0-1.5h1.75v-1.75a.75.75 0 0 1 .75-.75Z" fill="#5C5F62"/><path fill-rule="evenodd" d="M3 5.25a2.25 2.25 0 0 1 2.25-2.25h2a2.25 2.25 0 0 1 2.25 2.25v2a2.25 2.25 0 0 1-2.25 2.25h-2a2.25 2.25 0 0 1-2.25-2.25v-2Zm2.25-.75a.75.75 0 0 0-.75.75v2c0 .414.336.75.75.75h2a.75.75 0 0 0 .75-.75v-2a.75.75 0 0 0-.75-.75h-2Z" fill="#5C5F62"/><path fill-rule="evenodd" d="M3 12.75a2.25 2.25 0 0 1 2.25-2.25h2a2.25 2.25 0 0 1 2.25 2.25v2a2.25 2.25 0 0 1-2.25 2.25h-2a2.25 2.25 0 0 1-2.25-2.25v-2Zm2.25-.75a.75.75 0 0 0-.75.75v2c0 .414.336.75.75.75h2a.75.75 0 0 0 .75-.75v-2a.75.75 0 0 0-.75-.75h-2Z" fill="#5C5F62"/><path fill-rule="evenodd" d="M12.75 10.5a2.25 2.25 0 0 0-2.25 2.25v2a2.25 2.25 0 0 0 2.25 2.25h2a2.25 2.25 0 0 0 2.25-2.25v-2a2.25 2.25 0 0 0-2.25-2.25h-2Zm-.75 2.25a.75.75 0 0 1 .75-.75h2a.75.75 0 0 1 .75.75v2a.75.75 0 0 1-.75.75h-2a.75.75 0 0 1-.75-.75v-2Z" fill="#5C5F62"/></svg>