<svg xmlns="http://www.w3.org/2000/svg" viewBox="0 0 20 20"><path fill-rule="evenodd" d="M3.5 5.75a2.25 2.25 0 0 1 2.25-2.25h2.75a1 1 0 0 1 1 1v4a1 1 0 0 1-1 1h-4a1 1 0 0 1-1-1v-2.75Zm2.25-.75a.75.75 0 0 0-.75.75v2.25h3v-3h-2.25Z"/><path fill-rule="evenodd" d="M3.5 14.25a2.25 2.25 0 0 0 2.25 2.25h2.75a1 1 0 0 0 1-1v-4a1 1 0 0 0-1-1h-4a1 1 0 0 0-1 1v2.75Zm2.25.75a.75.75 0 0 1-.75-.75v-2.25h3v3h-2.25Z"/><path fill-rule="evenodd" d="M14.25 16.5a2.25 2.25 0 0 0 2.25-2.25v-2.75a1 1 0 0 0-1-1h-4a1 1 0 0 0-1 1v4a1 1 0 0 0 1 1h2.75Zm.75-2.25a.75.75 0 0 1-.75.75h-2.25v-3h3v2.25Z"/><path d="M13.5 3.5a.75.75 0 0 1 .75.75v1.5h1.5a.75.75 0 0 1 0 1.5h-1.5v1.5a.75.75 0 0 1-1.5 0v-1.5h-1.5a.75.75 0 0 1 0-1.5h1.5v-1.5a.75.75 0 0 1 .75-.75Z"/></svg>