<svg xmlns="http://www.w3.org/2000/svg" viewBox="0 0 16 16"><path d="M6.25 8.75c0-.414.336-.75.75-.75h2c.414 0 .75.336.75.75s-.336.75-.75.75h-2c-.414 0-.75-.336-.75-.75Z"/><path fill-rule="evenodd" d="M3.25 1.5c-.966 0-1.75.784-1.75 1.75v2c0 .595.297 1.12.75 1.436v5.064c0 1.519 1.231 2.75 2.75 2.75h6c1.519 0 2.75-1.231 2.75-2.75v-5.064c.453-.316.75-.841.75-1.436v-2c0-.966-.784-1.75-1.75-1.75h-9.5Zm9 5.5h-8.5v4.75c0 .69.56 1.25 1.25 1.25h6c.69 0 1.25-.56 1.25-1.25v-4.75Zm-9.25-3.75c0-.138.112-.25.25-.25h9.5c.138 0 .25.112.25.25v2c0 .138-.112.25-.25.25h-9.5c-.138 0-.25-.112-.25-.25v-2Z"/></svg>