<svg xmlns="http://www.w3.org/2000/svg" viewBox="0 0 20 20"><path d="M8.25 10.75a.75.75 0 0 1 .75-.75h2a.75.75 0 0 1 0 1.5h-2a.75.75 0 0 1-.75-.75Z"/><path fill-rule="evenodd" d="M5.25 3.5a1.75 1.75 0 0 0-1.75 1.75v2c0 .595.297 1.12.75 1.436v5.064a2.75 2.75 0 0 0 2.75 2.75h6a2.75 2.75 0 0 0 2.75-2.75v-5.064c.453-.316.75-.841.75-1.436v-2a1.75 1.75 0 0 0-1.75-1.75h-9.5Zm9 5.5h-8.5v4.75c0 .69.56 1.25 1.25 1.25h6c.69 0 1.25-.56 1.25-1.25v-4.75Zm-9.25-3.75a.25.25 0 0 1 .25-.25h9.5a.25.25 0 0 1 .25.25v2a.25.25 0 0 1-.25.25h-9.5a.25.25 0 0 1-.25-.25v-2Z"/></svg>