<svg xmlns="http://www.w3.org/2000/svg" viewBox="0 0 20 20"><path d="M7.75 10.75c0-.414.336-.75.75-.75h3c.414 0 .75.336.75.75s-.336.75-.75.75h-3c-.414 0-.75-.336-.75-.75Z"/><path fill-rule="evenodd" d="M4.25 2.5c-.966 0-1.75.784-1.75 1.75v2c0 .698.409 1.3 1 1.582v6.918c0 1.519 1.231 2.75 2.75 2.75h7.5c1.519 0 2.75-1.231 2.75-2.75v-6.918c.591-.281 1-.884 1-1.582v-2c0-.966-.784-1.75-1.75-1.75h-11.5Zm10.75 5.5h-10v6.75c0 .69.56 1.25 1.25 1.25h7.5c.69 0 1.25-.56 1.25-1.25v-6.75Zm-11-3.75c0-.138.112-.25.25-.25h11.5c.138 0 .25.112.25.25v2c0 .138-.112.25-.25.25h-11.5c-.138 0-.25-.112-.25-.25v-2Z"/></svg>