<svg xmlns="http://www.w3.org/2000/svg" viewBox="0 0 16 16"><path fill-rule="evenodd" d="M4 11c0 .552.448 1 1 1h6.74l-.98 1.077c-.371.409-.341 1.041.067 1.413.409.371 1.041.341 1.413-.067l2.5-2.75c.347-.382.347-.964 0-1.346l-2.5-2.75c-.372-.408-1.004-.438-1.413-.067-.408.372-.438 1.004-.067 1.413l.98 1.077h-6.74c-.552 0-1 .448-1 1Z"/><path fill-rule="evenodd" d="M12 5c0 .552-.448 1-1 1h-6.74l.98 1.077c.371.409.341 1.041-.067 1.413-.409.371-1.041.341-1.413-.067l-2.5-2.75c-.347-.382-.347-.964 0-1.346l2.5-2.75c.372-.408 1.004-.438 1.413-.067.408.372.438 1.004.067 1.413l-.98 1.077h6.74c.552 0 1 .448 1 1Z"/></svg>