<svg xmlns="http://www.w3.org/2000/svg" viewBox="0 0 16 16"><path d="M11.25 6c.414 0 .75-.336.75-.75s-.336-.75-.75-.75h-7.19l1.22-1.22c.293-.293.293-.767 0-1.06-.293-.293-.767-.293-1.06 0l-2.5 2.5c-.293.293-.293.767 0 1.06l2.5 2.5c.293.293.767.293 1.06 0 .293-.293.293-.767 0-1.06l-1.22-1.22h7.19Z"/><path d="M4.75 11.5c-.414 0-.75-.336-.75-.75s.336-.75.75-.75h7.19l-1.22-1.22c-.293-.293-.293-.767 0-1.06.293-.293.767-.293 1.06 0l2.5 2.5c.293.293.293.767 0 1.06l-2.5 2.5c-.293.293-.767.293-1.06 0-.293-.293-.293-.767 0-1.06l1.22-1.22h-7.19Z"/></svg>