<svg width="20" height="20" viewBox="0 0 20 20" fill="none" xmlns="http://www.w3.org/2000/svg">
<path fill-rule="evenodd" clip-rule="evenodd" d="M5.22806 14.7719C4.92398 14.4679 4.92398 13.9748 5.22806 13.6708L12.3414 6.5574L8.34812 6.5576C7.91808 6.55762 7.56945 6.20903 7.56943 5.77899C7.5694 5.34895 7.918 5.00032 8.34804 5.0003L14.2213 5C14.4278 4.99999 14.6259 5.08203 14.7719 5.22806C14.918 5.3741 15 5.57217 15 5.77869L14.9997 11.652C14.9997 12.082 14.6511 12.4306 14.221 12.4306C13.791 12.4306 13.4424 12.0819 13.4424 11.6519L13.4426 7.65858L6.32924 14.7719C6.02516 15.076 5.53215 15.076 5.22806 14.7719Z" fill="#4A4A4A"/>
</svg>
