<svg xmlns="http://www.w3.org/2000/svg" viewBox="0 0 20 20"><path fill-rule="evenodd" d="M14.5 6.5c0-.552-.448-1-1-1h-8.086l1.793-1.793c.39-.39.39-1.024 0-1.414-.39-.39-1.024-.39-1.414 0l-3.5 3.5c-.39.39-.39 1.024 0 1.414l3.5 3.5c.39.39 1.024.39 1.414 0 .39-.39.39-1.024 0-1.414l-1.793-1.793h8.086c.552 0 1-.448 1-1Z"/><path fill-rule="evenodd" d="M5.5 13.5c0-.552.448-1 1-1h8.086l-1.793-1.793c-.39-.39-.39-1.024 0-1.414.39-.39 1.024-.39 1.414 0l3.5 3.5c.39.39.39 1.024 0 1.414l-3.5 3.5c-.39.39-1.024.39-1.414 0-.39-.39-.39-1.024 0-1.414l1.793-1.793h-8.086c-.552 0-1-.448-1-1Z"/></svg>