<svg xmlns="http://www.w3.org/2000/svg" viewBox="0 0 20 20"><path fill-rule="evenodd" d="M12.58 3.5h-5.16c-.535 0-.98 0-1.345.03-.38.03-.736.098-1.073.27-.518.263-.939.684-1.202 1.202-.172.337-.24.693-.27 1.073-.03.365-.03.81-.03 1.345v5.16c0 .535 0 .98.03 1.345.03.38.098.736.27 1.073.263.518.684.939 1.202 1.202.337.172.693.24 1.073.27.365.03.81.03 1.345.03h5.16c.535 0 .98 0 1.345-.03.38-.03.736-.098 1.073-.27.518-.263.939-.684 1.202-1.201.172-.338.24-.694.27-1.074.03-.365.03-.81.03-1.345v-5.16c0-.535 0-.98-.03-1.345-.03-.38-.098-.736-.27-1.073-.263-.518-.684-.939-1.201-1.202-.338-.172-.694-.24-1.074-.27-.365-.03-.81-.03-1.345-.03Zm1.223 1.525c.287.023.424.065.514.111.236.12.427.311.547.547.046.09.088.227.111.514.024.296.025.68.025 1.253v5.1c0 .572 0 .957-.025 1.252-.023.288-.065.425-.111.516-.12.235-.311.426-.546.546-.091.046-.228.088-.515.111-.296.024-.68.025-1.253.025h-5.1c-.572 0-.957 0-1.253-.025-.287-.023-.424-.065-.514-.111-.236-.12-.427-.311-.547-.546-.046-.091-.088-.228-.111-.515-.024-.296-.025-.68-.025-1.253v-5.1c0-.572 0-.957.025-1.253.023-.287.065-.424.111-.514.12-.236.311-.427.547-.547.09-.046.227-.088.514-.111.296-.024.68-.025 1.253-.025h5.1c.572 0 .957 0 1.252.025Z" clip-rule="evenodd" style="fill:color(display-p3 .2902 .2902 .2902);fill-opacity:1"/></svg>