<svg xmlns="http://www.w3.org/2000/svg" viewBox="0 0 20 20"><path fill-rule="evenodd" d="M3.9 9.511c-1.82 1.82-1.82 4.77 0 6.59l.248.248c1.683 1.682 4.41 1.682 6.093 0 .39-.39.39-1.024 0-1.414-.39-.39-1.024-.39-1.414 0-.902.901-2.363.901-3.265 0l-.248-.249c-1.038-1.038-1.038-2.722 0-3.76l5.791-5.791c1.035-1.036 2.714-1.036 3.75 0 1.035 1.035 1.035 2.714 0 3.75l-2.595 2.593c-.355.356-.932.356-1.288 0s-.356-.932 0-1.288l2.627-2.627c.39-.39.39-1.024 0-1.414-.39-.391-1.023-.391-1.414 0l-2.627 2.627c-1.137 1.136-1.137 2.98 0 4.116 1.137 1.137 2.98 1.137 4.117 0l2.594-2.593c1.816-1.817 1.816-4.762 0-6.578-1.817-1.817-4.762-1.817-6.578 0l-5.791 5.79Z"/></svg>