<svg xmlns="http://www.w3.org/2000/svg" viewBox="0 0 20 20"><path fill-rule="evenodd" d="M4.077 9.688c-1.722 1.722-1.722 4.514 0 6.236l.248.248c1.585 1.585 4.154 1.585 5.739 0 .293-.293.293-.768 0-1.06-.293-.293-.768-.293-1.06 0-1 .998-2.62.998-3.618 0l-.249-.249c-1.136-1.136-1.136-2.978 0-4.114l5.791-5.791c1.133-1.133 2.97-1.133 4.103 0 1.133 1.133 1.133 2.97 0 4.103l-2.594 2.594c-.453.453-1.188.453-1.642 0-.453-.453-.453-1.188 0-1.642l2.627-2.627c.293-.293.293-.768 0-1.06-.292-.294-.767-.294-1.06 0l-2.627 2.626c-1.04 1.04-1.04 2.725 0 3.764 1.039 1.039 2.724 1.039 3.763 0l2.594-2.594c1.719-1.72 1.719-4.506 0-6.225-1.719-1.718-4.506-1.718-6.224 0l-5.791 5.791Z"/></svg>