<svg xmlns="http://www.w3.org/2000/svg" viewBox="0 0 16 16"><path fill-rule="evenodd" d="M2.843 7.854c-1.464 1.464-1.464 3.839 0 5.303l.147.147c1.383 1.383 3.626 1.383 5.01 0 .293-.293.293-.768 0-1.061-.293-.293-.768-.293-1.06 0-.798.798-2.092.798-2.89 0l-.146-.146c-.879-.88-.879-2.304 0-3.182l5.015-5.015c.876-.877 2.296-.877 3.173 0 .876.876.876 2.296 0 3.172l-2.286 2.286c-.32.32-.836.32-1.155 0-.32-.319-.32-.836 0-1.155l2.25-2.25c.293-.294.293-.769 0-1.061-.292-.293-.767-.293-1.06 0l-2.25 2.25c-.906.905-.906 2.372 0 3.277.904.905 2.37.905 3.275 0l2.286-2.286c1.462-1.462 1.462-3.832 0-5.294-1.462-1.462-3.832-1.462-5.294 0l-5.015 5.015Z"/></svg>