<svg xmlns="http://www.w3.org/2000/svg" viewBox="0 0 16 16"><path fill-rule="evenodd" d="M2.666 7.677c-1.562 1.562-1.562 4.095 0 5.657l.147.146c1.481 1.482 3.883 1.482 5.364 0 .39-.39.39-1.023 0-1.414-.39-.39-1.024-.39-1.414 0-.7.7-1.836.7-2.536 0l-.146-.146c-.781-.781-.781-2.048 0-2.829l5.015-5.015c.778-.778 2.04-.778 2.819 0 .778.779.778 2.041 0 2.82l-2.286 2.285c-.221.222-.58.222-.801 0-.222-.22-.222-.58 0-.801l2.25-2.251c.391-.39.391-1.024 0-1.414-.39-.39-1.023-.39-1.414 0l-2.25 2.25c-1.003 1.003-1.003 2.628 0 3.63 1.002 1.003 2.627 1.003 3.63 0l2.285-2.285c1.56-1.56 1.56-4.088 0-5.648-1.56-1.56-4.088-1.56-5.648 0l-5.015 5.015Z"/></svg>