<svg xmlns="http://www.w3.org/2000/svg" viewBox="0 0 20 20"><path d="M9.377 2.5c-.926 0-1.676.75-1.676 1.676v.688c0 .056-.043.17-.198.251-.153.08-.303.168-.448.262-.147.097-.268.076-.318.048l-.6-.346a1.676 1.676 0 0 0-2.29.613l-.622 1.08a1.676 1.676 0 0 0 .613 2.289l.648.374c.048.028.124.12.119.29a5.484 5.484 0 0 0 .005.465c.009.175-.07.27-.119.299l-.653.377a1.676 1.676 0 0 0-.613 2.29l.623 1.08a1.676 1.676 0 0 0 2.29.613l.7-.405c.048-.028.166-.048.312.043.115.071.233.139.353.202.155.08.198.195.198.251v.811c0 .926.75 1.676 1.676 1.676h.873a.75.75 0 0 0 0-1.5h-.873a.176.176 0 0 1-.176-.176v-.81c0-.73-.462-1.3-1.003-1.582a3.873 3.873 0 0 1-.255-.146c-.514-.32-1.23-.428-1.855-.068l-.7.405a.176.176 0 0 1-.241-.065l-.623-1.08a.176.176 0 0 1 .064-.24l.653-.377c.637-.368.899-1.062.867-1.677a3.97 3.97 0 0 1-.004-.337c.02-.604-.245-1.278-.868-1.638l-.648-.374a.176.176 0 0 1-.064-.24l.623-1.08a.176.176 0 0 1 .24-.064l.6.346c.638.368 1.37.247 1.888-.09a3.85 3.85 0 0 1 .323-.19c.54-.282 1.003-.852 1.003-1.58v-.688c0-.097.078-.176.176-.176h1.246c.097 0 .176.079.176.176v.688c0 .728.462 1.298 1.003 1.58.11.058.219.122.323.19.517.337 1.25.458 1.888.09l.6-.346a.176.176 0 0 1 .24.064l.623 1.08a.176.176 0 0 1-.064.24l-.648.374c-.623.36-.888 1.034-.868 1.638v.073l.001.155v.248a.75.75 0 0 0 1.5 0c0-.042 0-.458-.002-.524-.005-.171.07-.263.12-.291l.647-.374a1.676 1.676 0 0 0 .613-2.29l-.623-1.079a1.676 1.676 0 0 0-2.29-.613l-.6.346c-.049.028-.17.048-.318-.048a5.4 5.4 0 0 0-.448-.262c-.155-.081-.197-.195-.197-.251v-.688c0-.926-.75-1.676-1.676-1.676h-1.246Z"/><path fill-rule="evenodd" d="M12.5 10a2.5 2.5 0 1 1-5 0 2.5 2.5 0 0 1 5 0Zm-1.5 0a1 1 0 1 1-2 0 1 1 0 0 1 2 0Z"/><path d="M12.874 12.101a.75.75 0 0 1 .748-.002l3.5 2a.75.75 0 0 1 0 1.302l-3.5 2a.75.75 0 0 1-1.122-.651v-4a.75.75 0 0 1 .374-.649Z"/></svg>