<svg viewBox="0 0 20 20" xmlns="http://www.w3.org/2000/svg"><path fill-rule="evenodd" d="M7.576 3.75c0-.966.784-1.75 1.75-1.75h1.346c.967 0 1.75.784 1.75 1.75v.743c0 .087.063.229.245.324.165.086.325.18.48.28.173.114.329.098.406.053l.647-.373a1.75 1.75 0 0 1 2.39.64l.674 1.166a1.75 1.75 0 0 1-.64 2.39l-.7.404c-.075.044-.165.166-.159.368.003.068.004.2.004.255a.75.75 0 0 1-1.5 0c0-.054-.001-.165-.003-.207-.02-.635.258-1.34.908-1.715l.7-.404a.25.25 0 0 0 .091-.341l-.673-1.166a.25.25 0 0 0-.342-.091l-.647.374c-.665.384-1.432.258-1.976-.096a4.256 4.256 0 0 0-.354-.207c-.569-.297-1.05-.895-1.05-1.654v-.743a.25.25 0 0 0-.25-.25h-1.347a.25.25 0 0 0-.25.25v.743c0 .76-.482 1.357-1.05 1.654-.122.063-.24.132-.355.207-.543.354-1.31.48-1.975.096l-.648-.374a.25.25 0 0 0-.341.091l-.673 1.166a.25.25 0 0 0 .091.341l.7.404c.65.375.928 1.08.907 1.715a4.343 4.343 0 0 0 .004.37c.034.646-.241 1.372-.905 1.755l-.706.408a.25.25 0 0 0-.091.341l.673 1.166a.25.25 0 0 0 .341.091l.757-.436c.65-.376 1.401-.264 1.941.072.091.057.184.11.28.16.568.297 1.05.894 1.05 1.654v.876c0 .138.112.25.25.25h.673a.75.75 0 1 1 0 1.5h-.673a1.75 1.75 0 0 1-1.75-1.75v-.876c0-.088-.062-.229-.245-.324a5.757 5.757 0 0 1-.378-.216c-.172-.107-.323-.09-.398-.047l-.757.436a1.75 1.75 0 0 1-2.39-.64l-.673-1.166a1.75 1.75 0 0 1 .64-2.39l.706-.408c.076-.044.168-.17.157-.378a5.846 5.846 0 0 1-.005-.496c.007-.202-.083-.324-.159-.368l-.699-.404a1.75 1.75 0 0 1-.64-2.39l.673-1.166a1.75 1.75 0 0 1 2.39-.64l.648.374c.077.044.232.06.406-.054.155-.1.315-.194.479-.28.183-.095.245-.237.245-.324v-.743Zm2.424 7.75a1.5 1.5 0 1 0 0-3 1.5 1.5 0 0 0 0 3Zm0 1.5a3 3 0 1 0 0-6 3 3 0 0 0 0 6Zm4.124.351a.75.75 0 0 1 .748-.002l3.5 2a.75.75 0 0 1 0 1.302l-3.5 2a.75.75 0 0 1-1.122-.651v-4a.75.75 0 0 1 .374-.649Z" fill="#5C5F62"/></svg>