<svg xmlns="http://www.w3.org/2000/svg" viewBox="0 0 16 16"><path d="M7.377.5c-.926 0-1.676.75-1.676 1.676v.688c0 .056-.043.17-.198.251-.153.08-.303.168-.448.262-.147.097-.268.076-.318.048l-.6-.346c-.801-.463-1.826-.189-2.29.613l-.622 1.08c-.463.801-.189 1.826.613 2.289l.648.374c.048.028.124.12.119.29l-.003.177c0 .096.003.192.008.288.009.175-.07.27-.119.299l-.653.377c-.802.463-1.076 1.488-.613 2.29l.623 1.08c.463.8 1.488 1.075 2.29.613l.7-.405c.048-.028.166-.048.312.043.115.071.233.139.353.202.155.08.198.195.198.251v.811c0 .926.75 1.676 1.676 1.676h1.246c.926 0 1.676-.75 1.676-1.676v-.81c0-.415-.336-.75-.75-.75s-.75.335-.75.75v.81c0 .097-.079.176-.176.176h-1.246c-.098 0-.176-.079-.176-.176v-.81c0-.73-.462-1.3-1.003-1.582-.087-.045-.172-.094-.255-.146-.514-.32-1.23-.428-1.855-.068l-.7.405c-.085.048-.192.02-.241-.065l-.623-1.08c-.049-.084-.02-.191.064-.24l.653-.377c.637-.368.899-1.062.867-1.677-.004-.07-.006-.139-.006-.21 0-.042 0-.085.002-.127.02-.604-.245-1.278-.868-1.638l-.648-.374c-.084-.049-.113-.156-.064-.24l.623-1.08c.049-.084.156-.113.24-.064l.6.346c.638.368 1.37.247 1.888-.09.104-.068.212-.132.323-.19.54-.282 1.003-.852 1.003-1.58v-.688c0-.097.078-.176.176-.176h1.246c.097 0 .176.079.176.176v.688c0 .728.462 1.298 1.003 1.58.11.058.219.122.323.19.517.337 1.25.458 1.888.09l.6-.346c.084-.049.191-.02.24.064l.623 1.08c.049.084.02.191-.064.24l-.648.374c-.623.36-.888 1.034-.868 1.638l.002.128c0 .082-.002.247-.006.309-.021.413.296.766.71.788.413.022.766-.296.788-.71.006-.103.008-.302.008-.387 0-.059-.001-.118-.003-.176-.005-.171.07-.263.12-.291l.647-.374c.801-.463 1.076-1.488.613-2.29l-.623-1.079c-.463-.802-1.488-1.076-2.29-.613l-.6.346c-.049.028-.17.048-.318-.048-.144-.094-.294-.182-.448-.262-.155-.081-.197-.195-.197-.251v-.688c0-.926-.75-1.676-1.676-1.676h-1.246Z"/><path fill-rule="evenodd" d="M8 11c1.657 0 3-1.343 3-3s-1.343-3-3-3-3 1.343-3 3 1.343 3 3 3Zm0-1.5c.828 0 1.5-.672 1.5-1.5s-.672-1.5-1.5-1.5-1.5.672-1.5 1.5.672 1.5 1.5 1.5Z"/><path d="M12.035 9.839c-.153-.106-.352-.118-.517-.032-.165.086-.268.257-.268.443v4.5c0 .186.103.357.268.443.165.086.364.074.517-.032l3.25-2.25c.134-.093.215-.247.215-.411 0-.164-.08-.318-.215-.411l-3.25-2.25Z"/></svg>