<svg xmlns="http://www.w3.org/2000/svg" viewBox="0 0 16 16"><path fill-rule="evenodd" d="M6 2.176c0-.76.617-1.376 1.377-1.376h1.246c.76 0 1.376.616 1.376 1.376v.688c0 .19.126.396.358.517.146.076.287.159.424.248.221.144.465.152.632.056l.6-.347c.658-.38 1.5-.154 1.88.504l.622 1.08c.38.658.155 1.5-.503 1.88l-.648.373c-.163.094-.277.303-.269.56l.002.908v.411l-.35-.243c-.536-.37-1.233-.413-1.81-.111-.576.302-.937.9-.937 1.55v3.501c0 .76-.617 1.376-1.377 1.376h-1.246c-.76 0-1.376-.616-1.376-1.376v-.81c0-.192-.127-.397-.359-.518-.114-.06-.225-.123-.333-.19-.22-.138-.458-.143-.621-.049l-.7.405c-.659.38-1.5.154-1.88-.504l-.624-1.08c-.38-.658-.154-1.499.504-1.879l.653-.377c.167-.097.282-.311.268-.575-.005-.09-.007-.18-.007-.272 0-.056.001-.111.003-.167.008-.257-.106-.465-.27-.56l-.647-.374c-.658-.38-.884-1.221-.504-1.88l.624-1.079c.38-.658 1.221-.884 1.88-.504l.6.347c.166.096.41.088.631-.056.137-.09.278-.172.423-.248.232-.121.359-.326.359-.517v-.688Zm2 7.324c.828 0 1.5-.672 1.5-1.5s-.672-1.5-1.5-1.5-1.5.672-1.5 1.5.672 1.5 1.5 1.5Z"/><path d="m12.035 9.839 3.25 2.25c.134.093.215.247.215.411 0 .164-.08.318-.215.411l-3.25 2.25c-.153.106-.352.118-.517.032-.165-.086-.268-.257-.268-.443v-4.5l.001-.035c.012-.172.113-.327.267-.408.02-.01.042-.02.063-.028.15-.054.32-.033.454.06Z"/></svg>