<svg xmlns="http://www.w3.org/2000/svg" viewBox="0 0 20 20"><path fill-rule="evenodd" d="M8.013 4.389c0-.767.621-1.389 1.389-1.389h1.196c.767 0 1.39.622 1.39 1.389v.66c0 .153.101.33.307.436.141.074.278.155.411.241.196.128.402.13.536.052l.576-.332a1.389 1.389 0 0 1 1.897.508l.599 1.037a1.389 1.389 0 0 1-.509 1.897l-.621.359c-.131.075-.232.249-.225.477a5.135 5.135 0 0 1-.004.427c-.012.233.09.412.223.489l.627.362c.543.313.794.937.66 1.517l-2.048-1.26a1.75 1.75 0 0 0-2.667 1.491v3.528c-.25.37-.672.612-1.152.612h-1.196a1.389 1.389 0 0 1-1.39-1.389v-.778c0-.153-.102-.33-.307-.437a4.96 4.96 0 0 1-.325-.185c-.194-.121-.395-.12-.526-.045l-.672.388a1.389 1.389 0 0 1-1.898-.508l-.598-1.037a1.389 1.389 0 0 1 .509-1.897l.627-.362c.133-.077.235-.256.223-.49a5.04 5.04 0 0 1-.004-.426c.007-.228-.094-.401-.225-.477l-.622-.359a1.389 1.389 0 0 1-.508-1.897l.598-1.037a1.389 1.389 0 0 1 1.898-.508l.576.332c.133.078.34.076.535-.052a4.96 4.96 0 0 1 .412-.24c.205-.108.308-.284.308-.437v-.66Zm1.987 7.611a2 2 0 1 0 0-4 2 2 0 0 0 0 4Z"/><path d="m13.762 12.324 3.25 2a.5.5 0 0 1 0 .852l-3.25 2a.5.5 0 0 1-.762-.426v-4a.5.5 0 0 1 .762-.426Z"/></svg>