<svg xmlns="http://www.w3.org/2000/svg" viewBox="0 0 20 20"><path fill-rule="evenodd" d="M7.889 3.552c0-.83.672-1.502 1.502-1.502h1.415c.83 0 1.502.672 1.502 1.502v.78c0 .245.16.496.44.642.163.086.322.178.475.279.267.173.568.188.782.065l.681-.393c.719-.415 1.637-.169 2.052.55l.708 1.226c.414.718.168 1.636-.55 2.05l-.735.425c-.21.121-.347.381-.337.692.002.062.003.124.003.187 0 .103-.002.204-.008.306-.016.317.121.585.335.709l.742.428c.621.359.89 1.094.682 1.751l-2.996-1.997c-.46-.307-1.052-.336-1.54-.075-.487.261-.792.77-.792 1.323v4.613c-.18.628-.758 1.087-1.444 1.087h-1.415c-.83 0-1.502-.672-1.502-1.502v-.92c0-.245-.16-.497-.44-.642-.128-.067-.253-.139-.375-.215-.264-.164-.558-.176-.768-.055l-.795.46c-.719.414-1.637.168-2.052-.55l-.708-1.227c-.414-.718-.168-1.636.55-2.051l.742-.428c.214-.124.351-.392.335-.71-.006-.1-.008-.203-.008-.305 0-.063 0-.125.003-.187.01-.31-.127-.57-.337-.691l-.735-.425c-.718-.415-.964-1.333-.55-2.051l.708-1.227c.415-.718 1.333-.964 2.052-.55l.68.394c.215.123.516.108.783-.065.153-.1.312-.193.475-.279.28-.146.44-.397.44-.641v-.781Zm4.111 6.448c0 1.105-.895 2-2 2s-2-.895-2-2 .895-2 2-2 2 .895 2 2Z"/><path d="m13.25 12.5.001-.034c.012-.171.11-.325.263-.407.02-.01.041-.02.063-.028.148-.055.316-.037.45.053l3.75 2.5c.14.093.223.249.223.416 0 .167-.084.323-.223.416l-3.75 2.5c-.153.102-.35.112-.513.025-.162-.087-.264-.257-.264-.441v-5Z"/></svg>