<svg xmlns="http://www.w3.org/2000/svg" viewBox="0 0 20 20"><path d="M7.576 3.75c0-.966.784-1.75 1.75-1.75h1.346c.967 0 1.75.784 1.75 1.75v.743c0 .087.063.229.245.324.165.086.325.18.48.28.173.114.329.098.406.053l.647-.373c.837-.484 1.908-.197 2.39.64l.674 1.166c.483.837.197 1.907-.64 2.39l-.7.404c-.075.044-.165.166-.159.368.002.063.004.125.004.188 0 .092-.003.306-.008.416-.022.413-.375.731-.789.71-.414-.022-.731-.375-.71-.79.004-.067.007-.247.007-.336 0-.047-.001-.093-.003-.14-.02-.635.258-1.34.908-1.715l.7-.404c.119-.069.16-.222.091-.341l-.673-1.166c-.07-.12-.222-.16-.342-.091l-.647.374c-.665.384-1.432.258-1.976-.096-.114-.075-.232-.144-.354-.207-.569-.297-1.05-.895-1.05-1.654v-.743c0-.138-.113-.25-.25-.25h-1.347c-.138 0-.25.112-.25.25v.743c0 .76-.482 1.357-1.05 1.654-.122.063-.24.132-.355.207-.543.354-1.31.48-1.975.096l-.648-.374c-.12-.07-.272-.028-.341.091l-.673 1.166c-.07.12-.029.272.091.341l.7.404c.65.375.928 1.08.907 1.715l-.002.14c0 .077.002.153.006.23.034.646-.241 1.372-.905 1.755l-.706.408c-.12.069-.16.221-.091.341l.673 1.166c.069.12.222.16.341.091l.757-.436c.65-.376 1.401-.264 1.941.072.091.057.184.11.28.16.568.297 1.05.894 1.05 1.654v.876c0 .138.112.25.25.25h1.346c.138 0 .25-.112.25-.25v-.876c0-.414.336-.75.75-.75.415 0 .75.336.75.75v.876c0 .966-.783 1.75-1.75 1.75h-1.346c-.966 0-1.75-.784-1.75-1.75v-.876c0-.088-.062-.229-.245-.324-.129-.068-.255-.14-.378-.216-.172-.107-.323-.09-.398-.047l-.757.436c-.837.484-1.907.197-2.39-.64l-.673-1.166c-.484-.837-.197-1.907.64-2.39l.706-.408c.076-.044.168-.17.157-.378-.005-.102-.008-.204-.008-.308 0-.063.001-.125.003-.188.007-.202-.083-.324-.159-.368l-.699-.404c-.837-.483-1.124-1.553-.64-2.39l.673-1.166c.483-.837 1.553-1.124 2.39-.64l.648.374c.077.044.232.06.406-.054.155-.1.315-.194.479-.28.183-.095.245-.237.245-.324v-.743Z"/><path d="M14.027 12.084c-.153-.102-.35-.112-.513-.025-.162.087-.264.257-.264.441v5c0 .184.101.354.264.44.163.088.36.078.513-.024l3.75-2.5c.14-.093.223-.249.223-.416 0-.167-.084-.323-.223-.416l-3.75-2.5Z"/><path fill-rule="evenodd" d="M12.75 10c0 1.519-1.231 2.75-2.75 2.75s-2.75-1.231-2.75-2.75 1.231-2.75 2.75-2.75 2.75 1.231 2.75 2.75Zm-1.5 0c0 .69-.56 1.25-1.25 1.25s-1.25-.56-1.25-1.25.56-1.25 1.25-1.25 1.25.56 1.25 1.25Z"/></svg>