<svg width="20" height="20" viewBox="0 0 20 20" fill="none" xmlns="http://www.w3.org/2000/svg">
<path fill-rule="evenodd" clip-rule="evenodd" d="M8.0006 4.17606C8.0006 3.41611 8.61666 2.80005 9.37662 2.80005H10.6232C11.3831 2.80005 11.9992 3.41611 11.9992 4.17606V4.86369C11.9992 5.05456 12.1254 5.25964 12.3575 5.38091C12.5028 5.45681 12.6439 5.5395 12.7805 5.62855C13.0021 5.77298 13.2456 5.78112 13.4127 5.68467L14.0124 5.33841C14.6706 4.95844 15.5121 5.18393 15.8921 5.84207L16.5154 6.92162C16.8954 7.57975 16.6699 8.42131 16.0117 8.80129L15.3644 9.17503C15.2008 9.26946 15.0869 9.47766 15.0952 9.73541C15.0963 9.77 15.0968 10.2205 15.0972 10.6435L15.0975 11.0544L14.7461 10.8112C14.211 10.4407 13.5144 10.3978 12.9378 10.6999C12.3613 11.002 12 11.5991 12 12.25V14.9135C11.9995 14.9225 11.9992 14.9314 11.9992 14.9403V15.7512C11.9992 16.5112 11.3831 17.1272 10.6232 17.1272H9.37662C8.61666 17.1272 8.0006 16.5112 8.0006 15.7512V14.9402C8.0006 14.7493 7.87444 14.5443 7.64232 14.423C7.52844 14.3635 7.4171 14.2998 7.30851 14.2322C7.08906 14.0955 6.85147 14.09 6.68779 14.1845L5.98734 14.5889C5.3292 14.9688 4.48765 14.7433 4.10767 14.0852L3.48439 13.0057C3.10442 12.3475 3.32991 11.506 3.98805 11.126L4.6414 10.7488C4.80834 10.6524 4.92311 10.4377 4.90922 10.1739C4.90448 10.0838 4.90208 9.99316 4.90208 9.90197C4.90208 9.84628 4.90298 9.79078 4.90476 9.73549C4.91304 9.47774 4.79909 9.26955 4.63553 9.17511L3.98804 8.80129C3.3299 8.42131 3.10441 7.57976 3.48439 6.92162L4.10766 5.84207C4.48764 5.18393 5.32919 4.95844 5.98733 5.33841L6.58714 5.68472C6.7542 5.78116 6.99776 5.77302 7.21931 5.62859C7.3559 5.53955 7.49704 5.45687 7.64232 5.38096C7.87444 5.25969 8.0006 5.05462 8.0006 4.86375V4.17606ZM10 11.5C10.8284 11.5 11.5 10.8284 11.5 10C11.5 9.17157 10.8284 8.5 10 8.5C9.17157 8.5 8.5 9.17157 8.5 10C8.5 10.8284 9.17157 11.5 10 11.5Z" fill="#4A4A4A"/>
<path d="M14.0346 11.8389L17.2846 14.0889C17.4195 14.1823 17.5 14.3359 17.5 14.5C17.5 14.6641 17.4195 14.8177 17.2846 14.9111L14.0346 17.1611C13.8817 17.267 13.6827 17.2792 13.5179 17.1929C13.3532 17.1066 13.25 16.936 13.25 16.75V12.25C13.25 12.2384 13.2504 12.2268 13.2512 12.2153C13.2631 12.043 13.3635 11.888 13.5179 11.8071C13.5385 11.7963 13.5597 11.7871 13.5812 11.7794C13.7317 11.7253 13.9008 11.7463 14.0346 11.8389Z" fill="#4A4A4A"/>
</svg>
