<svg xmlns="http://www.w3.org/2000/svg" viewBox="0 0 20 20"><path d="M14.03 7.22c.293.293.293.767 0 1.06l-1.72 1.72 1.72 1.72c.293.293.293.767 0 1.06-.293.293-.767.293-1.06 0l-1.72-1.72-1.72 1.72c-.293.293-.767.293-1.06 0-.293-.293-.293-.767 0-1.06l1.72-1.72-1.72-1.72c-.293-.293-.293-.767 0-1.06.293-.293.767-.293 1.06 0l1.72 1.72 1.72-1.72c.293-.293.767-.293 1.06 0Z"/><path fill-rule="evenodd" d="M5.306 4.865c.52-.552 1.244-.865 2.002-.865h7.942c1.519 0 2.75 1.231 2.75 2.75v6.5c0 1.519-1.231 2.75-2.75 2.75h-7.942c-.758 0-1.482-.313-2.002-.865l-3.06-3.25c-.998-1.059-.998-2.711 0-3.77l3.06-3.25Zm2.002.635c-.344 0-.674.142-.91.393l-3.06 3.25c-.454.481-.454 1.233 0 1.714l3.06 3.25c.236.25.566.393.91.393h7.942c.69 0 1.25-.56 1.25-1.25v-6.5c0-.69-.56-1.25-1.25-1.25h-7.942Z"/></svg>