<svg xmlns="http://www.w3.org/2000/svg" viewBox="0 0 16 16"><path d="M12.03 5.47c.293.293.293.767 0 1.06l-1.47 1.47 1.47 1.47c.293.293.293.767 0 1.06-.293.293-.767.293-1.06 0l-1.47-1.47-1.47 1.47c-.293.293-.767.293-1.06 0-.293-.293-.293-.767 0-1.06l1.47-1.47-1.47-1.47c-.293-.293-.293-.767 0-1.06.293-.293.767-.293 1.06 0l1.47 1.47 1.47-1.47c.293-.293.767-.293 1.06 0Z"/><path fill-rule="evenodd" d="M3.553 3.083c.52-.682 1.33-1.083 2.188-1.083h6.509c1.519 0 2.75 1.231 2.75 2.75v6.5c0 1.519-1.231 2.75-2.75 2.75h-6.51c-.858 0-1.667-.4-2.187-1.083l-2.476-3.25c-.75-.985-.75-2.35 0-3.334l2.476-3.25Zm2.188.417c-.39 0-.758.182-.995.492l-2.476 3.25c-.34.448-.34 1.068 0 1.516l2.476 3.25c.237.31.604.492.995.492h6.509c.69 0 1.25-.56 1.25-1.25v-6.5c0-.69-.56-1.25-1.25-1.25h-6.51Z"/></svg>