<svg xmlns="http://www.w3.org/2000/svg" viewBox="0 0 20 20"><path d="M14.03 7.47a.75.75 0 0 1 0 1.06l-1.47 1.47 1.47 1.47a.75.75 0 1 1-1.06 1.06l-1.47-1.47-1.47 1.47a.75.75 0 1 1-1.06-1.06l1.47-1.47-1.47-1.47a.75.75 0 0 1 1.06-1.06l1.47 1.47 1.47-1.47a.75.75 0 0 1 1.06 0Z"/><path fill-rule="evenodd" d="M5.553 5.083a2.75 2.75 0 0 1 2.188-1.083h6.509a2.75 2.75 0 0 1 2.75 2.75v6.5a2.75 2.75 0 0 1-2.75 2.75h-6.51a2.75 2.75 0 0 1-2.187-1.083l-2.476-3.25a2.75 2.75 0 0 1 0-3.334l2.476-3.25Zm2.188.417c-.39 0-.758.182-.995.492l-2.476 3.25a1.25 1.25 0 0 0 0 1.516l2.476 3.25c.237.31.604.492.995.492h6.509c.69 0 1.25-.56 1.25-1.25v-6.5c0-.69-.56-1.25-1.25-1.25h-6.51Z"/></svg>