<svg xmlns="http://www.w3.org/2000/svg" viewBox="0 0 21 21"><path fill-rule="evenodd" d="M5.462 4.696c0-.966.784-1.75 1.75-1.75h9.42c.966 0 1.75.784 1.75 1.75v2.182c0 .372-.116.717-.314 1 .198.284.314.629.314 1v2.182c0 .372-.116.717-.314 1 .198.284.314.628.314 1v2.182c0 .967-.784 1.75-1.75 1.75h-3.32c-.066 0-.131-.008-.193-.025-1.114 1.018-2.597 1.64-4.225 1.64-3.458 0-6.262-2.804-6.262-6.263 0-3.458 2.804-6.262 6.262-6.262 1.285 0 2.479.387 3.473 1.05.025-.002.05-.004.076-.004h4.191c.137 0 .248-.112.248-.25v-2.182c0-.138-.112-.25-.25-.25h-9.42c-.138 0-.25.112-.25.25v.222c0 .414-.336.75-.75.75s-.75-.336-.75-.75v-.222Zm8.473 3.932c.574.777.972 1.69 1.137 2.682h1.56c.138 0 .25-.112.25-.25v-2.182c0-.137-.111-.249-.248-.25h-2.699Zm1.205 4.182c-.072.973-.366 1.884-.83 2.682h2.322c.138 0 .25-.112.25-.25v-2.182c0-.138-.112-.25-.25-.25h-1.492Zm-1.483-.466c0 2.63-2.133 4.763-4.763 4.763s-4.762-2.132-4.762-4.763c0-2.63 2.132-4.762 4.762-4.762 2.63 0 4.763 2.132 4.763 4.762Z" clip-rule="evenodd"/><path fill-rule="evenodd" d="M10.376 15.043c.347.226.445.69.219 1.038-.226.347-.691.445-1.038.219l-2.528-1.647c-.733-.479-.395-1.618.481-1.618.42 0 .764-.316.81-.723h-1.01c-.415 0-.751-.335-.751-.749s.335-.75.75-.75l1.017-.001v-.523h-1.032c-.415 0-.75-.335-.75-.75 0-.414.335-.75.75-.75h3.118c.414 0 .75.336.75.75 0 .415-.336.75-.75.75h-.586v.522h.788c.414 0 .75.335.75.75 0 .414-.335.75-.75.75h-.79c-.029.723-.388 1.36-.931 1.766l1.483.966Z" clip-rule="evenodd"/></svg>