<svg xmlns="http://www.w3.org/2000/svg" viewBox="0 0 21 21"><path fill-rule="evenodd" d="M5.462 4.696c0-.966.784-1.75 1.75-1.75h9.42c.966 0 1.75.784 1.75 1.75v2.182c0 .372-.116.717-.314 1 .198.284.314.629.314 1v2.182c0 .372-.116.717-.314 1 .198.284.314.628.314 1v2.182c0 .967-.784 1.75-1.75 1.75h-3.32c-.066 0-.131-.008-.193-.025-1.114 1.018-2.597 1.64-4.225 1.64-3.458 0-6.262-2.804-6.262-6.263 0-3.458 2.804-6.262 6.262-6.262 1.285 0 2.479.387 3.473 1.05.025-.002.05-.004.076-.004h4.191c.137 0 .248-.112.248-.25v-2.182c0-.138-.112-.25-.25-.25h-9.42c-.138 0-.25.112-.25.25v.222c0 .414-.336.75-.75.75s-.75-.336-.75-.75v-.222Zm8.473 3.932c.574.777.972 1.69 1.137 2.682h1.56c.138 0 .25-.112.25-.25v-2.182c0-.137-.111-.249-.248-.25h-2.699Zm1.205 4.182c-.072.973-.366 1.884-.83 2.682h2.322c.138 0 .25-.112.25-.25v-2.182c0-.138-.112-.25-.25-.25h-1.492Zm-1.483-.466c0 2.63-2.133 4.763-4.763 4.763s-4.762-2.132-4.762-4.763c0-2.63 2.132-4.762 4.762-4.762 2.63 0 4.763 2.132 4.763 4.762Zm-8.195 0c0-.414.336-.75.75-.75h.3c.145-1.258.662-2.17 1.448-2.643.941-.564 2.066-.363 2.792.363.292.293.292.768 0 1.06-.293.294-.768.294-1.061 0-.274-.274-.65-.322-.959-.136-.248.149-.58.533-.707 1.356h1.687c.414 0 .75.336.75.75 0 .415-.336.75-.75.75h-1.687c.127.824.459 1.208.707 1.357.31.186.685.137.959-.137.293-.293.768-.293 1.06 0 .293.293.293.768 0 1.06-.725.726-1.85.928-2.79.364-.787-.473-1.304-1.386-1.448-2.644h-.301c-.414 0-.75-.335-.75-.75Z" clip-rule="evenodd"/></svg>