<svg xmlns="http://www.w3.org/2000/svg" viewBox="0 0 21 21"><path fill-rule="evenodd" d="M5.462 4.696c0-.966.784-1.75 1.75-1.75h9.42c.966 0 1.75.784 1.75 1.75v2.182c0 .372-.116.717-.314 1 .198.284.314.629.314 1v2.182c0 .372-.116.717-.314 1 .198.284.314.628.314 1v2.182c0 .967-.784 1.75-1.75 1.75h-3.32c-.066 0-.131-.008-.193-.025-1.114 1.018-2.597 1.64-4.225 1.64-3.458 0-6.262-2.804-6.262-6.263 0-3.458 2.804-6.262 6.262-6.262 1.285 0 2.479.387 3.473 1.05.025-.002.05-.004.076-.004h4.191c.137 0 .248-.112.248-.25v-2.182c0-.138-.112-.25-.25-.25h-9.42c-.138 0-.25.112-.25.25v.222c0 .414-.336.75-.75.75s-.75-.336-.75-.75v-.222Zm8.473 3.932c.574.777.972 1.69 1.137 2.682h1.56c.138 0 .25-.112.25-.25v-2.182c0-.137-.111-.249-.248-.25h-2.699Zm1.205 4.182c-.072.973-.366 1.884-.83 2.682h2.322c.138 0 .25-.112.25-.25v-2.182c0-.138-.112-.25-.25-.25h-1.492Zm-1.483-.466c0 2.63-2.133 4.763-4.763 4.763s-4.762-2.132-4.762-4.763c0-2.63 2.132-4.762 4.762-4.762 2.63 0 4.763 2.132 4.763 4.762Z" clip-rule="evenodd"/><path fill-rule="evenodd" d="M7.578 9.518c0-.415.336-.75.75-.75 2.005 0 3.75 1.498 3.75 3.488 0 .591-.158 1.147-.435 1.633-.205.36-.663.485-1.023.28-.36-.205-.485-.663-.28-1.023.153-.27.238-.571.238-.89 0-1.035-.941-1.988-2.25-1.988-.414 0-.75-.336-.75-.75Z" clip-rule="evenodd"/></svg>