<svg viewBox="0 0 20 20" xmlns="http://www.w3.org/2000/svg"><path fill-rule="evenodd" d="M9.958 2.81a.75.75 0 0 1 .604.008l6 2.75a.75.75 0 0 1 .438.682v1a.75.75 0 0 1-.75.75h-.25v4.793a.75.75 0 0 1-.25 1.457h-11.5a.75.75 0 0 1-.25-1.457v-4.793h-.25a.75.75 0 0 1-.75-.75v-1a.75.75 0 0 1 .458-.69l6.5-2.75Zm4.542 9.94v-4.75h-2v4.75h2Zm-5.5-4.75h2v4.75h-2v-4.75Zm-1.5 4.75v-4.75h-2v4.75h2Zm-2.416-6.25h9.911l-4.757-2.18-5.154 2.18Z" fill="#5C5F62"/><path d="M2.75 16.25a.75.75 0 0 1 .75-.75h13a.75.75 0 0 1 0 1.5h-13a.75.75 0 0 1-.75-.75Z" fill="#5C5F62"/></svg>