<svg xmlns="http://www.w3.org/2000/svg" viewBox="0 0 16 16"><path fill-rule="evenodd" d="M8.54 1.177c-.342-.164-.738-.164-1.08 0l-5.25 2.51c-.434.208-.71.647-.71 1.128v1.185c0 .69.56 1.25 1.25 1.25v2.75h-.25c-.552 0-1 .448-1 1v2c0 .552.448 1 1 1h11c.552 0 1-.448 1-1v-2c0-.552-.448-1-1-1h-.25v-2.75c.69 0 1.25-.56 1.25-1.25v-1.185c0-.481-.276-.92-.71-1.128l-5.25-2.51Zm3.21 8.823v-2.75h-1.5v2.75h1.5Zm-3 0v-2.75h-1.5v2.75h1.5Zm-3 0v-2.75h-1.5v2.75h1.5Zm-2.75-5.027 5-2.392 5 2.392v.777h-10v-.777Zm0 7.527v-1h10v1h-10Z"/></svg>