<svg xmlns="http://www.w3.org/2000/svg" viewBox="0 0 20 20"><path fill-rule="evenodd" d="M10.472 2.382c-.303-.123-.641-.123-.944 0l-6.25 2.547c-.47.191-.778.649-.778 1.157v1.664c0 .69.56 1.25 1.25 1.25h.25v3.5h-.5c-.552 0-1 .448-1 1v2.5c0 .552.448 1 1 1h13c.552 0 1-.448 1-1v-2.5c0-.552-.448-1-1-1h-.5v-3.5h.25c.69 0 1.25-.56 1.25-1.25v-1.664c0-.508-.308-.966-.778-1.157l-6.25-2.547Zm4.028 10.118v-3.5h-2v3.5h2Zm-3.5 0v-3.5h-2v3.5h2Zm-3.5 0v-3.5h-2v3.5h2Zm-3.5-6.246 6-2.444 6 2.444v1.246h-12v-1.246Zm0 9.246v-1.5h12v1.5h-12Z"/></svg>