<svg xmlns="http://www.w3.org/2000/svg" viewBox="0 0 20 20"><path d="M3.5 5.25c0-.414.336-.75.75-.75h1.5c.414 0 .75-.336.75-.75s-.336-.75-.75-.75h-1.5c-1.243 0-2.25 1.007-2.25 2.25v1.5c0 .414.336.75.75.75s.75-.336.75-.75v-1.5Z"/><path d="M3.5 14.76c0 .414.336.75.75.75h1.5c.414 0 .75.336.75.75s-.336.75-.75.75h-1.5c-1.243 0-2.25-1.008-2.25-2.25v-1.5c0-.414.336-.75.75-.75s.75.336.75.75v1.5Z"/><path d="M15.75 4.5c.414 0 .75.336.75.75v1.5c0 .414.336.75.75.75s.75-.336.75-.75v-1.5c0-1.243-1.007-2.25-2.25-2.25h-1.5c-.414 0-.75.336-.75.75s.336.75.75.75h1.5Z"/><path d="M16.5 14.76c0 .414-.336.75-.75.75h-1.5c-.414 0-.75.336-.75.75s.336.75.75.75h1.5c1.243 0 2.25-1.008 2.25-2.25v-1.5c0-.414-.336-.75-.75-.75s-.75.336-.75.75v1.5Z"/><path d="M5 6.5c0-.276.224-.5.5-.5s.5.224.5.5v7c0 .276-.224.5-.5.5s-.5-.224-.5-.5v-7Z"/><path d="M11 6c-.276 0-.5.224-.5.5v7c0 .276.224.5.5.5s.5-.224.5-.5v-7c0-.276-.224-.5-.5-.5Z"/><path d="M7.5 6.75c0-.414.336-.75.75-.75s.75.336.75.75v6.5c0 .414-.336.75-.75.75s-.75-.336-.75-.75v-6.5Z"/><path d="M14 6c-.552 0-1 .448-1 1v6c0 .552.448 1 1 1s1-.448 1-1v-6c0-.552-.448-1-1-1Z"/></svg>