<svg xmlns="http://www.w3.org/2000/svg" viewBox="0 0 16 16"><path d="M2.5 4.25c0-.414.336-.75.75-.75h.487c.414 0 .75-.336.75-.75s-.336-.75-.75-.75h-.487c-1.243 0-2.25 1.007-2.25 2.25v.5c0 .414.336.75.75.75s.75-.336.75-.75v-.5Z"/><path d="M2.5 11.76c0 .414.336.75.75.75h.5c.414 0 .75.336.75.75s-.336.75-.75.75h-.5c-1.243 0-2.25-1.008-2.25-2.25v-.5c0-.414.336-.75.75-.75s.75.336.75.75v.5Z"/><path d="M12.75 3.5c.414 0 .75.336.75.75v.5c0 .414.336.75.75.75s.75-.336.75-.75v-.5c0-1.243-1.007-2.25-2.25-2.25h-.5c-.414 0-.75.336-.75.75s.336.75.75.75h.5Z"/><path d="M13.5 11.76c0 .414-.336.75-.75.75h-.5c-.414 0-.75.336-.75.75s.336.75.75.75h.5c1.243 0 2.25-1.008 2.25-2.25v-.5c0-.414-.336-.75-.75-.75s-.75.336-.75.75v.5Z"/><path d="M4 5.5c0-.276.224-.5.5-.5s.5.224.5.5v5c0 .276-.224.5-.5.5s-.5-.224-.5-.5v-5Z"/><path d="M8.5 5c-.276 0-.5.224-.5.5v5c0 .276.224.5.5.5s.5-.224.5-.5v-5c0-.276-.224-.5-.5-.5Z"/><path d="M6 5.625c0-.345.28-.625.625-.625s.625.28.625.625v4.75c0 .345-.28.625-.625.625s-.625-.28-.625-.625v-4.75Z"/><path d="M11 5c-.552 0-1 .448-1 1v4c0 .552.448 1 1 1s1-.448 1-1v-4c0-.552-.448-1-1-1Z"/></svg>