<svg xmlns="http://www.w3.org/2000/svg" viewBox="0 0 20 20"><path d="M3.75 5.25c0-.276.224-.5.5-.5h1.5c.552 0 1-.448 1-1s-.448-1-1-1h-1.5c-1.38 0-2.5 1.12-2.5 2.5v1.5c0 .552.448 1 1 1s1-.448 1-1v-1.5Z"/><path d="M3.75 14.76c0 .276.224.5.5.5h1.5c.552 0 1 .447 1 1 0 .552-.448 1-1 1h-1.5c-1.38 0-2.5-1.12-2.5-2.5v-1.5c0-.553.448-1 1-1s1 .447 1 1v1.5Z"/><path d="M15.75 4.75c.276 0 .5.224.5.5v1.5c0 .552.448 1 1 1s1-.448 1-1v-1.5c0-1.38-1.12-2.5-2.5-2.5h-1.5c-.552 0-1 .448-1 1s.448 1 1 1h1.5Z"/><path d="M16.25 14.76c0 .276-.224.5-.5.5h-1.5c-.552 0-1 .447-1 1 0 .552.448 1 1 1h1.5c1.38 0 2.5-1.12 2.5-2.5v-1.5c0-.553-.448-1-1-1s-1 .447-1 1v1.5Z"/><path d="M5 6.5c0-.276.224-.5.5-.5s.5.224.5.5v7c0 .276-.224.5-.5.5s-.5-.224-.5-.5v-7Z"/><path d="M11 6c-.276 0-.5.224-.5.5v7c0 .276.224.5.5.5s.5-.224.5-.5v-7c0-.276-.224-.5-.5-.5Z"/><path d="M7.5 6.75c0-.414.336-.75.75-.75s.75.336.75.75v6.5c0 .414-.336.75-.75.75s-.75-.336-.75-.75v-6.5Z"/><path d="M14 6c-.552 0-1 .448-1 1v6c0 .552.448 1 1 1s1-.448 1-1v-6c0-.552-.448-1-1-1Z"/></svg>