<svg viewBox="0 0 20 20" xmlns="http://www.w3.org/2000/svg"><path d="M4.5 0h11c.828 0 1.5.677 1.5 1.512v18.21a.2.2 0 01-.334.149l-1.664-1.515a.497.497 0 00-.67 0l-1.664 1.514a.497.497 0 01-.67 0l-1.663-1.514a.497.497 0 00-.67 0L8.002 19.87a.497.497 0 01-.67 0l-1.664-1.514a.497.497 0 00-.67 0l-1.664 1.515a.2.2 0 01-.334-.15V1.512C3 .677 3.672 0 4.5 0zm7.744 10.523h-1.25v-.75h1.25a.75.75 0 100-1.5h-.847l1.85-3.204a1 1 0 00-1.732-1L10 6.693 8.485 4.069a1 1 0 00-1.732 1l1.85 3.204h-.859a.75.75 0 000 1.5h1.25v.75h-1.25a.75.75 0 100 1.5h1.25v1a1 1 0 002 0v-1h1.25a.75.75 0 000-1.5z" fill="#5C5F62"/></svg>
