<svg width="20" height="20" viewBox="0 0 20 20" fill="none" xmlns="http://www.w3.org/2000/svg">
<path fill-rule="evenodd" clip-rule="evenodd" d="M5.5 3.5C4.39543 3.5 3.5 4.39543 3.5 5.5V9.25C3.5 9.66421 3.83579 10 4.25 10H6.25V15.7686C6.25 16.5135 7.14012 16.8981 7.68256 16.3875L9.125 15.0299L10.736 16.5462C11.0248 16.818 11.4752 16.818 11.764 16.5462L13.375 15.0299L14.8174 16.3875C15.3599 16.8981 16.25 16.5135 16.25 15.7686V5.5C16.25 4.39543 15.3546 3.5 14.25 3.5H5.75571L5.76051 3.51681C5.67524 3.50572 5.58829 3.5 5.5 3.5ZM5 5.5C5 5.22386 5.22386 5 5.5 5C5.77614 5 6 5.22386 6 5.5V8.5H5V5.5ZM9 7.25C9 6.83579 9.33579 6.5 9.75 6.5H13.25C13.6642 6.5 14 6.83579 14 7.25C14 7.66421 13.6642 8 13.25 8H9.75C9.33579 8 9 7.66421 9 7.25ZM9.75 9.5C9.33579 9.5 9 9.83579 9 10.25C9 10.6642 9.33579 11 9.75 11H13.25C13.6642 11 14 10.6642 14 10.25C14 9.83579 13.6642 9.5 13.25 9.5H9.75Z" fill="#4A4A4A"/>
</svg>
