<svg viewBox="0 0 20 20" xmlns="http://www.w3.org/2000/svg"><path d="M4.5 0h11c.828 0 1.5.677 1.5 1.512v18.21a.2.2 0 01-.334.149l-1.664-1.515a.497.497 0 00-.67 0l-1.664 1.514a.497.497 0 01-.67 0l-1.663-1.514a.497.497 0 00-.67 0L8.002 19.87a.497.497 0 01-.67 0l-1.664-1.514a.497.497 0 00-.67 0l-1.664 1.515a.2.2 0 01-.334-.15V1.512C3 .677 3.672 0 4.5 0zm2.543 8.865c-.02.324-.025.65-.014.974h-.268a.778.778 0 00-.538.214.716.716 0 00-.223.517c0 .194.08.38.223.517a.778.778 0 00.538.214h.433C7.612 13.424 8.774 15 10.392 15h.052c1.178.001 1.838-.227 2.401-1.207a.94.94 0 00-.095-1.07.999.999 0 00-.3-.244 1.038 1.038 0 00-1.115.091.977.977 0 00-.254.29c-.042.074-.07.122-.11.152-.072.056-.188.055-.525.055h-.054c-.375 0-.86-.692-1.136-1.766h1.058a.778.778 0 00.538-.214.716.716 0 00.223-.517c0-.194-.08-.38-.223-.517a.778.778 0 00-.538-.214h-1.27a7.719 7.719 0 01.02-.974h1.249a.778.778 0 00.538-.214.716.716 0 00.223-.517c0-.194-.08-.38-.223-.517a.778.778 0 00-.538-.214H9.34c.283-.903.711-1.47 1.051-1.47.487 0 .569.034.731.325.13.216.344.376.595.445.25.068.52.04.75-.077a.978.978 0 00.484-.554.931.931 0 00-.053-.722C12.331 4.325 11.55 4 10.391 4 8.85 4 7.721 5.43 7.26 7.403H6.76a.778.778 0 00-.538.214.716.716 0 00-.223.517c0 .194.08.38.223.517a.778.778 0 00.538.214h.282z" fill="currentColor"/></svg>
