<svg width="20" height="20" viewBox="0 0 20 20" fill="none" xmlns="http://www.w3.org/2000/svg">
<path fill-rule="evenodd" clip-rule="evenodd" d="M5.14173 16.9336C4.75517 16.7853 4.5 16.4141 4.5 16V14V12.5001V5C4.5 3.89543 5.39543 3 6.5 3H13.5C14.6046 3 15.5 3.89543 15.5 5V12.5001V14V16C15.5 16.4141 15.2448 16.7853 14.8583 16.9336C14.4717 17.082 14.0337 16.9768 13.7567 16.669L12.2546 15H12.2454L10.7433 16.669C10.5537 16.8797 10.2835 17.0001 10 17.0001C9.71651 17.0001 9.44635 16.8797 9.25671 16.669L7.75458 15H7.74541L6.24329 16.669C5.9663 16.9768 5.5283 17.082 5.14173 16.9336ZM10.024 6.99496C9.70263 7.1878 9.29632 7.68727 9.1784 8.74999H11.5254C11.9396 8.74999 12.2754 9.08577 12.2754 9.49999C12.2754 9.9142 11.9396 10.25 11.5254 10.25H9.20672C9.353 11.1948 9.73306 11.709 10.0643 11.9377C10.4704 12.2181 10.8948 12.1583 11.1799 11.8732C11.4728 11.5803 11.9476 11.5803 12.2405 11.8732C12.5334 12.1661 12.5334 12.641 12.2405 12.9339C11.4205 13.7539 10.1872 13.8454 9.21201 13.172C8.4106 12.6187 7.85602 11.6165 7.69392 10.25H7.5C7.08579 10.25 6.75 9.9142 6.75 9.49999C6.75 9.08577 7.08579 8.74999 7.5 8.74999H7.67198C7.79981 7.28278 8.37406 6.23565 9.25227 5.70872C10.2589 5.10473 11.4623 5.31953 12.2405 6.0978C12.5334 6.39069 12.5334 6.86557 12.2405 7.15846C11.9476 7.45135 11.4727 7.45135 11.1798 7.15845C10.853 6.83163 10.3987 6.77013 10.024 6.99496Z" fill="#4A4A4A"/>
</svg>
