<svg width="20" height="20" viewBox="0 0 20 20" fill="none" xmlns="http://www.w3.org/2000/svg">
<path fill-rule="evenodd" clip-rule="evenodd" d="M5.14173 16.9336C4.75517 16.7853 4.5 16.414 4.5 16V5C4.5 3.89543 5.39543 3 6.5 3H13.5C14.6046 3 15.5 3.89543 15.5 5V16C15.5 16.414 15.2448 16.7853 14.8583 16.9336C14.4717 17.082 14.0337 16.9767 13.7567 16.669L12.2546 15H12.2454L10.7433 16.669C10.5537 16.8797 10.2835 17 10 17C9.71651 17 9.44635 16.8797 9.25671 16.669L7.75461 15H7.74538L6.24329 16.669C5.9663 16.9767 5.5283 17.082 5.14173 16.9336ZM10.25 5C9.2835 5 8.5 5.7835 8.5 6.75V8.75H7.75C7.33579 8.75 7 9.08579 7 9.5C7 9.91421 7.33579 10.25 7.75 10.25H8.5V11.75H7.75C7.33579 11.75 7 12.0858 7 12.5C7 12.9142 7.33579 13.25 7.75 13.25H12.25C12.6642 13.25 13 12.9142 13 12.5C13 12.0858 12.6642 11.75 12.25 11.75H10V10.25H10.75C11.1642 10.25 11.5 9.91421 11.5 9.5C11.5 9.08579 11.1642 8.75 10.75 8.75H10V6.75C10 6.61193 10.1119 6.5 10.25 6.5H11V7.5C11 7.91421 11.3358 8.25 11.75 8.25C12.1642 8.25 12.5 7.91421 12.5 7.5V6.25C12.5 5.55964 11.9404 5 11.25 5H10.25Z" fill="#4A4A4A"/>
</svg>
