<svg viewBox="0 0 20 20" xmlns="http://www.w3.org/2000/svg"><path d="M4.5 0h11c.828 0 1.5.677 1.5 1.512v18.21a.2.2 0 01-.334.149l-1.664-1.515a.497.497 0 00-.67 0l-1.664 1.514a.497.497 0 01-.67 0l-1.663-1.514a.497.497 0 00-.67 0L8.002 19.87a.497.497 0 01-.67 0l-1.664-1.514a.497.497 0 00-.67 0l-1.664 1.515a.2.2 0 01-.334-.15V1.512C3 .677 3.672 0 4.5 0zm2.511 9.827h.247c-.16.943-.39 1.863-.696 2.76-.04.12-.06.244-.056.37 0 .276.106.542.296.737.19.196.447.306.715.306h4.472c.268 0 .525-.11.715-.306a1.06 1.06 0 00.296-.737 1.06 1.06 0 00-.296-.738.996.996 0 00-.715-.305H8.88c.18-.687.322-1.384.427-2.087h1.75c.268 0 .525-.11.714-.305a1.06 1.06 0 00.297-.738 1.06 1.06 0 00-.297-.738.996.996 0 00-.715-.305H9.513c.017-.355.026-.712.026-1.072 0-.985.385-1.492.877-1.573.35-.057.561.107.561.444 0 .276.107.542.297.737.19.196.447.306.715.306.268 0 .525-.11.715-.306A1.06 1.06 0 0013 5.54c0-1.685-1.378-2.753-2.9-2.504-1.514.247-2.583 1.659-2.583 3.633 0 .36-.01.717-.028 1.072H7.01a.996.996 0 00-.715.305A1.06 1.06 0 006 8.784c0 .277.107.542.296.738.19.195.447.305.715.305z" fill="#5C5F62"/></svg>
