<svg width="20" height="20" viewBox="0 0 20 20" fill="none" xmlns="http://www.w3.org/2000/svg">
<path fill-rule="evenodd" clip-rule="evenodd" d="M5.14173 16.9336C4.75517 16.7853 4.5 16.414 4.5 16V14V12.5V5C4.5 3.89543 5.39543 3 6.5 3H13.5C14.6046 3 15.5 3.89543 15.5 5V12.5V14V16C15.5 16.414 15.2448 16.7853 14.8583 16.9336C14.4717 17.082 14.0337 16.9767 13.7567 16.669L12.2546 15H12.2454L10.7433 16.669C10.5537 16.8797 10.2835 17 10 17C9.71651 17 9.44635 16.8797 9.25671 16.669L7.75461 15H7.74538L6.24329 16.669C5.9663 16.9767 5.5283 17.082 5.14173 16.9336ZM7.43558 5.50613C7.70834 5.1944 8.18216 5.16282 8.49389 5.43558L10 6.75343L11.5061 5.43558C11.8179 5.16282 12.2917 5.1944 12.5644 5.50613C12.8372 5.81786 12.8056 6.29168 12.4939 6.56444L10.75 8.09034V8.50001H12C12.4142 8.50001 12.75 8.8358 12.75 9.25001C12.75 9.66422 12.4142 10 12 10H10.75V10.5H12C12.4142 10.5 12.75 10.8358 12.75 11.25C12.75 11.6642 12.4142 12 12 12H10.75V12.5C10.75 12.9142 10.4142 13.25 10 13.25C9.5858 13.25 9.25001 12.9142 9.25001 12.5V12H8.00001C7.5858 12 7.25001 11.6642 7.25001 11.25C7.25001 10.8358 7.5858 10.5 8.00001 10.5H9.25001V10H8.00001C7.5858 10 7.25001 9.66422 7.25001 9.25001C7.25001 8.8358 7.5858 8.50001 8.00001 8.50001H9.25001V8.09034L7.50613 6.56444C7.1944 6.29168 7.16282 5.81786 7.43558 5.50613Z" fill="#4A4A4A"/>
</svg>
