<svg width="20" height="20" viewBox="0 0 20 20" fill="none" xmlns="http://www.w3.org/2000/svg">
<path fill-rule="evenodd" clip-rule="evenodd" d="M5.14173 16.9336C4.75517 16.7853 4.5 16.414 4.5 16V5C4.5 3.89543 5.39543 3 6.5 3H13.5C14.6046 3 15.5 3.89543 15.5 5V16C15.5 16.414 15.2448 16.7853 14.8583 16.9336C14.4717 17.082 14.0337 16.9767 13.7567 16.669L12.2546 15H12.2454L10.7433 16.669C10.5537 16.8797 10.2835 17 10 17C9.71651 17 9.44635 16.8797 9.25671 16.669L7.75461 15H7.74538L6.24329 16.669C5.9663 16.9767 5.5283 17.082 5.14173 16.9336ZM9.5 5.25C9.5 4.83579 9.83579 4.5 10.25 4.5C10.6642 4.5 11 4.83579 11 5.25V5.75H11.75C12.1642 5.75 12.5 6.08579 12.5 6.5C12.5 6.91421 12.1642 7.25 11.75 7.25H9.375C9.02982 7.25 8.75 7.52982 8.75 7.875C8.75 8.22018 9.02982 8.5 9.375 8.5H10.625C11.7986 8.5 12.75 9.4514 12.75 10.625C12.75 11.7986 11.7986 12.75 10.625 12.75H10.5V13.25C10.5 13.6642 10.1642 14 9.75 14C9.33579 14 9 13.6642 9 13.25V12.75H8.25C7.83579 12.75 7.5 12.4142 7.5 12C7.5 11.5858 7.83579 11.25 8.25 11.25H10.625C10.9702 11.25 11.25 10.9702 11.25 10.625C11.25 10.2798 10.9702 10 10.625 10H9.375C8.2014 10 7.25 9.0486 7.25 7.875C7.25 6.7014 8.2014 5.75 9.375 5.75H9.5V5.25Z" fill="#4A4A4A"/>
</svg>
