<svg xmlns="http://www.w3.org/2000/svg" viewBox="0 0 16 16"><path fill-rule="evenodd" d="M3.5 1.5c-1.105 0-2 .895-2 2v3.75c0 .414.336.75.75.75h2v5.769c0 .745.89 1.13 1.433.618l1.442-1.357 1.611 1.516c.289.272.74.272 1.028 0l1.611-1.516 1.442 1.357c.543.511 1.433.127 1.433-.618v-10.269c0-1.105-.895-2-2-2h-8.494l.005.017c-.086-.011-.173-.017-.261-.017Zm-.5 2c0-.276.224-.5.5-.5s.5.224.5.5v3h-1v-3Zm4 1.75c0-.414.336-.75.75-.75h3.5c.414 0 .75.336.75.75s-.336.75-.75.75h-3.5c-.414 0-.75-.336-.75-.75Zm.75 2.25c-.414 0-.75.336-.75.75s.336.75.75.75h3.5c.414 0 .75-.336.75-.75s-.336-.75-.75-.75h-3.5Z"/></svg>