<svg viewBox="0 0 20 20" xmlns="http://www.w3.org/2000/svg"><path d="M9.5 5.75a2 2 0 1 0 0 4h1a.5.5 0 0 1 0 1h-2.25a.75.75 0 0 0 0 1.5h.75v.25a.75.75 0 0 0 1.5 0v-.25a2 2 0 1 0 0-4h-1a.5.5 0 0 1 0-1h2.25a.75.75 0 0 0 0-1.5h-.75v-.25a.75.75 0 0 0-1.5 0v.25Z" fill="#5C5F62"/><path fill-rule="evenodd" d="M4 16.5a1.5 1.5 0 0 0 2.615 1.003l1.135-1.26 1.135 1.26a1.5 1.5 0 0 0 2.23 0l1.135-1.26 1.135 1.26a1.5 1.5 0 0 0 2.615-1.003v-12a2.5 2.5 0 0 0-2.5-2.5h-7a2.5 2.5 0 0 0-2.5 2.5v12Zm1.5 0 1.507-1.674a1 1 0 0 1 1.486 0l1.507 1.674 1.507-1.674a1 1 0 0 1 1.486 0l1.507 1.674v-12a1 1 0 0 0-1-1h-7a1 1 0 0 0-1 1v12Z" fill="#5C5F62"/></svg>