<svg width="20" height="20" viewBox="0 0 20 20" fill="none" xmlns="http://www.w3.org/2000/svg">
<path fill-rule="evenodd" clip-rule="evenodd" d="M5.14173 16.9336C4.75517 16.7853 4.5 16.414 4.5 16V14V12.5V5C4.5 3.89543 5.39543 3 6.5 3H13.5C14.6046 3 15.5 3.89543 15.5 5V12.5V14V16C15.5 16.414 15.2448 16.7853 14.8583 16.9336C14.4717 17.082 14.0337 16.9767 13.7567 16.669L12.2546 15H12.2454L10.7433 16.669C10.5537 16.8797 10.2835 17 10 17C9.71651 17 9.44635 16.8797 9.25671 16.669L7.75461 15H7.74538L6.24329 16.669C5.9663 16.9767 5.5283 17.082 5.14173 16.9336ZM11.8887 13.1431C12.1058 12.7903 11.9958 12.3283 11.6431 12.1113L9.92959 11.0568C10.5765 10.6075 11 9.85908 11 9.01177V9.00001H12.25C12.6642 9.00001 13 8.66423 13 8.25001C13 7.8358 12.6642 7.50001 12.25 7.50001H11V6.5H12.25C12.6642 6.5 13 6.16421 13 5.75C13 5.33579 12.6642 5 12.25 5H7.75C7.33579 5 7 5.33579 7 5.75C7 6.16421 7.33579 6.5 7.75 6.5H9.5V7.50001H7.75C7.33579 7.50001 7 7.8358 7 8.25001C7 8.66423 7.33579 9.00001 7.75 9.00001H9.5V9.01177C9.5 9.55755 9.05755 10 8.51177 10C7.60947 10 7.27433 11.1841 8.04278 11.657L10.8569 13.3887C11.2097 13.6058 11.6717 13.4958 11.8887 13.1431Z" fill="#4A4A4A"/>
</svg>
