<svg xmlns="http://www.w3.org/2000/svg" viewBox="0 0 20 20"><path fill-rule="evenodd" d="M5.32 16.467a.5.5 0 0 1-.32-.467v-11a1.5 1.5 0 0 1 1.5-1.5h7a1.5 1.5 0 0 1 1.5 1.5v11a.5.5 0 0 1-.872.334l-1.506-1.674a.495.495 0 0 0-.3-.16h-.144a.495.495 0 0 0-.3.16l-1.506 1.674a.5.5 0 0 1-.744 0l-1.506-1.674a.495.495 0 0 0-.3-.16h-.144a.495.495 0 0 0-.3.16l-1.506 1.674a.5.5 0 0 1-.551.133Zm4.93-11.467a1.75 1.75 0 0 0-1.75 1.75v2h-.75a.75.75 0 0 0 0 1.5h.75v1.5h-.75a.75.75 0 0 0 0 1.5h4.5a.75.75 0 0 0 0-1.5h-2.25v-1.5h.75a.75.75 0 0 0 0-1.5h-.75v-2a.25.25 0 0 1 .25-.25h.75v1a.75.75 0 0 0 1.5 0v-1.25c0-.69-.56-1.25-1.25-1.25h-1Z"/></svg>