<svg xmlns="http://www.w3.org/2000/svg" viewBox="0 0 12 12"><path fill-rule="evenodd" d="M5 2v1.25h2v-1.25h-2Zm-1 1.564c-.17.118-.318.266-.436.436h-1.393c.301-.852.977-1.528 1.829-1.83v1.394Zm-2 1.436h1.25v2h-1.25v-2Zm.17 3c.302.852.978 1.528 1.83 1.83v-1.394c-.17-.118-.318-.266-.436-.436h-1.393Zm6.266 0c-.118.17-.266.318-.436.436v1.393c.852-.301 1.528-.977 1.83-1.829h-1.394Zm1.564-1v-2h-1.25v2h1.25Zm-1.564-3h1.393c-.301-.852-.977-1.528-1.829-1.83v1.394c.17.118.318.266.436.436Zm-3.436 6h2v-1.25h-2v1.25Z"/></svg>