<svg xmlns="http://www.w3.org/2000/svg" viewBox="0 0 20 20"><path d="M14.75 2.5c1.519 0 2.75 1.231 2.75 2.75v2c0 .414-.336.75-.75.75s-.75-.336-.75-.75v-2c0-.69-.56-1.25-1.25-1.25h-2c-.414 0-.75-.336-.75-.75s.336-.75.75-.75h2Z"/><path d="M2.5 14.75c0 1.519 1.231 2.75 2.75 2.75h2c.414 0 .75-.336.75-.75s-.336-.75-.75-.75h-2c-.69 0-1.25-.56-1.25-1.25v-2c0-.414-.336-.75-.75-.75s-.75.336-.75.75v2Z"/><path d="M17.5 14.75c0 1.519-1.231 2.75-2.75 2.75h-2c-.414 0-.75-.336-.75-.75s.336-.75.75-.75h2c.69 0 1.25-.56 1.25-1.25v-2c0-.414.336-.75.75-.75s.75.336.75.75v2Z"/><path d="M2.5 5.25c0-1.519 1.231-2.75 2.75-2.75h2c.414 0 .75.336.75.75s-.336.75-.75.75h-2c-.69 0-1.25.56-1.25 1.25v2c0 .414-.336.75-.75.75s-.75-.336-.75-.75v-2Z"/><path fill-rule="evenodd" d="M7.5 5.75c-.966 0-1.75.784-1.75 1.75v5c0 .966.784 1.75 1.75 1.75h5c.966 0 1.75-.784 1.75-1.75v-5c0-.966-.784-1.75-1.75-1.75h-5Zm-.25 1.75c0-.138.112-.25.25-.25h5c.138 0 .25.112.25.25v5c0 .138-.112.25-.25.25h-5c-.138 0-.25-.112-.25-.25v-5Z"/></svg>