<svg xmlns="http://www.w3.org/2000/svg" viewBox="0 0 20 20"><path d="M17.5 5.25c0-1.519-1.231-2.75-2.75-2.75h-2c-.414 0-.75.336-.75.75s.336.75.75.75h2c.69 0 1.25.56 1.25 1.25v2c0 .414.336.75.75.75s.75-.336.75-.75v-2Z"/><path d="M5.25 17.5c-1.519 0-2.75-1.231-2.75-2.75v-2c0-.414.336-.75.75-.75s.75.336.75.75v2c0 .69.56 1.25 1.25 1.25h2c.414 0 .75.336.75.75s-.336.75-.75.75h-2Z"/><path d="M14.75 17.5c1.519 0 2.75-1.231 2.75-2.75v-2c0-.414-.336-.75-.75-.75s-.75.336-.75.75v2c0 .69-.56 1.25-1.25 1.25h-2c-.414 0-.75.336-.75.75s.336.75.75.75h2Z"/><path d="M5.25 2.5c-1.519 0-2.75 1.231-2.75 2.75v2c0 .414.336.75.75.75s.75-.336.75-.75v-2c0-.69.56-1.25 1.25-1.25h2c.414 0 .75-.336.75-.75s-.336-.75-.75-.75h-2Z"/><path d="M7.5 6.25c-.69 0-1.25.56-1.25 1.25v5c0 .69.56 1.25 1.25 1.25h5c.69 0 1.25-.56 1.25-1.25v-5c0-.69-.56-1.25-1.25-1.25h-5Z"/></svg>