<svg xmlns="http://www.w3.org/2000/svg" viewBox="0 0 20 20"><path d="M5 6.25c0-.69.56-1.25 1.25-1.25h2a.75.75 0 0 0 0-1.5h-2a2.75 2.75 0 0 0-2.75 2.75v2a.75.75 0 0 0 1.5 0v-2Z"/><path d="M13.75 5c.69 0 1.25.56 1.25 1.25v2a.75.75 0 0 0 1.5 0v-2a2.75 2.75 0 0 0-2.75-2.75h-2a.75.75 0 0 0 0 1.5h2Z"/><path d="M13.75 15c.69 0 1.25-.56 1.25-1.25v-2a.75.75 0 0 1 1.5 0v2a2.75 2.75 0 0 1-2.75 2.75h-2a.75.75 0 0 1 0-1.5h2Z"/><path d="M6.25 15c-.69 0-1.25-.56-1.25-1.25v-2a.75.75 0 0 0-1.5 0v2a2.75 2.75 0 0 0 2.75 2.75h2a.75.75 0 0 0 0-1.5h-2Z"/></svg>