<svg xmlns="http://www.w3.org/2000/svg" viewBox="0 0 20 20"><path d="M17.79 2.56c.196-.196.196-.512 0-.708l-1.328-1.328c-.195-.195-.512-.195-.707 0l-1.126 1.126 2.035 2.036 1.127-1.126Z"/><path d="m15.59 4.76-2.035-2.035-4.116 4.116c-.374.373-.584.879-.586 1.407l-.003.966c0 .139.112.252.25.251l.967-.003c.528-.002 1.034-.213 1.407-.586l4.116-4.116Z"/><path d="M4.5 3.75c0-.69.56-1.25 1.25-1.25h4.5c.414 0 .75-.336.75-.75s-.336-.75-.75-.75h-4.5c-1.519 0-2.75 1.231-2.75 2.75v12.5c0 1.519 1.231 2.75 2.75 2.75h8.5c1.519 0 2.75-1.231 2.75-2.75v-8.5c0-.414-.336-.75-.75-.75s-.75.336-.75.75v8.5c0 .69-.56 1.25-1.25 1.25h-8.5c-.69 0-1.25-.56-1.25-1.25v-12.5Z"/><path d="M7.75 11c-.414 0-.75.336-.75.75s.336.75.75.75h4.5c.414 0 .75-.336.75-.75s-.336-.75-.75-.75h-4.5Z"/><path d="M7 14.75c0-.414.336-.75.75-.75h2.75c.414 0 .75.336.75.75s-.336.75-.75.75h-2.75c-.414 0-.75-.336-.75-.75Z"/></svg>