<svg viewBox="0 0 20 20" xmlns="http://www.w3.org/2000/svg">
<path fill-rule="evenodd" clip-rule="evenodd" d="M6 3C5.44772 3 5 3.44771 5 4V15.9615C5 16.5351 5.46493 17 6.03846 17H10C12.2091 17 14 15.2091 14 13C14 11.4583 13.1278 10.1202 11.8498 9.4525C12.5588 8.77026 13 7.81165 13 6.75C13 4.67893 11.3211 3 9.25 3H6ZM9.25 9C10.4926 9 11.5 7.99264 11.5 6.75C11.5 5.50736 10.4926 4.5 9.25 4.5H6.5V9H9.25ZM6.5 10.5V15.5H10C11.3807 15.5 12.5 14.3807 12.5 13C12.5 11.6193 11.3807 10.5 10 10.5H6.5Z" fill="#5C5F62"/>
</svg>
