<svg xmlns="http://www.w3.org/2000/svg" viewBox="0 0 20 20"><path d="M5.25 6.5c-.414 0-.75.336-.75.75s.336.75.75.75h2c.414 0 .75-.336.75-.75s-.336-.75-.75-.75h-2Z"/><path d="M5.25 9.5c-.414 0-.75.336-.75.75s.336.75.75.75h2c.414 0 .75-.336.75-.75s-.336-.75-.75-.75h-2Z"/><path d="M5.25 12.5c-.414 0-.75.336-.75.75s.336.75.75.75h2c.414 0 .75-.336.75-.75s-.336-.75-.75-.75h-2Z"/><path d="M12 7.25c0-.414.336-.75.75-.75h2c.414 0 .75.336.75.75s-.336.75-.75.75h-2c-.414 0-.75-.336-.75-.75Z"/><path d="M12 10.25c0-.414.336-.75.75-.75h2c.414 0 .75.336.75.75s-.336.75-.75.75h-2c-.414 0-.75-.336-.75-.75Z"/><path fill-rule="evenodd" d="m9.714 2.826.286.112.286-.112c.55-.215 1.137-.326 1.729-.326h4.235c.966 0 1.75.784 1.75 1.75v11.543c0 .966-.784 1.75-1.75 1.75h-1.044c-1.064 0-2.12.183-3.122.542l-1.83.657c-.158.056-.33.058-.488.006l-2.262-.743c-.932-.306-1.906-.462-2.887-.462h-.867c-.966 0-1.75-.784-1.75-1.75v-11.543c0-.966.784-1.75 1.75-1.75h4.235c.592 0 1.178.11 1.73.326Zm-6.214 1.424c0-.138.112-.25.25-.25h4.235c.405 0 .806.076 1.183.223l.082.032v12.745l-1.278-.42c-1.083-.356-2.215-.537-3.355-.537h-.867c-.138 0-.25-.112-.25-.25v-11.543Zm7.25 12.72v-12.715l.082-.032c.377-.147.778-.223 1.183-.223h4.235c.138 0 .25.112.25.25v11.543c0 .138-.112.25-.25.25h-1.044c-1.237 0-2.464.213-3.628.63l-.828.297Z"/></svg>