<svg xmlns="http://www.w3.org/2000/svg" viewBox="0 0 16 16"><path d="M8.25 4c-.414 0-.75.336-.75.75s.336.75.75.75h2.5c.414 0 .75-.336.75-.75s-.336-.75-.75-.75h-2.5Z"/><path d="M7.5 7.25c0-.414.336-.75.75-.75h2.5c.414 0 .75.336.75.75s-.336.75-.75.75h-2.5c-.414 0-.75-.336-.75-.75Z"/><path fill-rule="evenodd" d="M3.75 1c-.966 0-1.75.784-1.75 1.75v10c0 1.243 1.007 2.25 2.25 2.25h9c.414 0 .75-.336.75-.75s-.336-.75-.75-.75h-.25v-1.668c.591-.281 1-.884 1-1.582v-7.5c0-.966-.784-1.75-1.75-1.75h-8.5Zm1.25 1.5h-1.25c-.138 0-.25.112-.25.25v7.878c.235-.083.487-.128.75-.128h.75v-8Zm1.5 8v-8h5.75c.138 0 .25.112.25.25v7.5c0 .138-.112.25-.25.25h-5.75Zm-2.25 3c-.414 0-.75-.336-.75-.75s.336-.75.75-.75h7.25v1.5h-7.25Z"/></svg>