<svg xmlns="http://www.w3.org/2000/svg" viewBox="0 0 20 20"><path d="M10.75 6c-.414 0-.75.336-.75.75s.336.75.75.75h2.5c.414 0 .75-.336.75-.75s-.336-.75-.75-.75h-2.5Z"/><path d="M10 9.25c0-.414.336-.75.75-.75h2.5c.414 0 .75.336.75.75s-.336.75-.75.75h-2.5c-.414 0-.75-.336-.75-.75Z"/><path fill-rule="evenodd" d="M4.75 2c-.966 0-1.75.784-1.75 1.75v11.76c0 1.375 1.115 2.49 2.49 2.49h10.76c.414 0 .75-.336.75-.75s-.336-.75-.75-.75h-.44v-2.071c.692-.234 1.19-.888 1.19-1.659v-9.02c0-.966-.784-1.75-1.75-1.75h-10.5Zm-.25 1.75v9.475c.303-.132.638-.205.99-.205h1.01v-9.52h-1.75c-.138 0-.25.112-.25.25Zm3.5-.25v9.52h7.25c.138 0 .25-.112.25-.25v-9.02c0-.138-.112-.25-.25-.25h-7.25Zm-2.51 13c-.547 0-.99-.443-.99-.99 0-.547.443-.99.99-.99h8.82v1.98h-8.82Z"/></svg>