<svg xmlns="http://www.w3.org/2000/svg" viewBox="0 0 16 16"><path d="M4.75 4c-.414 0-.75.336-.75.75s.336.75.75.75h.5c.414 0 .75-.336.75-.75s-.336-.75-.75-.75h-.5Z"/><path d="M4.75 7c-.414 0-.75.336-.75.75s.336.75.75.75h.5c.414 0 .75-.336.75-.75s-.336-.75-.75-.75h-.5Z"/><path d="M4.75 10c-.414 0-.75.336-.75.75s.336.75.75.75h.5c.414 0 .75-.336.75-.75s-.336-.75-.75-.75h-.5Z"/><path d="M10 4.75c0-.414.336-.75.75-.75h.5c.414 0 .75.336.75.75s-.336.75-.75.75h-.5c-.414 0-.75-.336-.75-.75Z"/><path d="M10 7.75c0-.414.336-.75.75-.75h.5c.414 0 .75.336.75.75s-.336.75-.75.75h-.5c-.414 0-.75-.336-.75-.75Z"/><path fill-rule="evenodd" d="M5.586 1.5c.87 0 1.714.273 2.414.771.7-.498 1.543-.771 2.414-.771h2.336c.966 0 1.75.784 1.75 1.75v9.5c0 .966-.784 1.75-1.75 1.75h-.238c-1.078 0-2.148.188-3.161.557l-1.095.398c-.159.058-.333.06-.493.006l-1.46-.486c-.944-.315-1.932-.475-2.926-.475h-.127c-.966 0-1.75-.784-1.75-1.75v-9.5c0-.966.784-1.75 1.75-1.75h2.336Zm-2.586 1.75c0-.138.112-.25.25-.25h2.336c.608 0 1.194.208 1.664.584v10.125l-.473-.157c-1.096-.366-2.244-.552-3.4-.552h-.127c-.138 0-.25-.112-.25-.25v-9.5Zm5.75 10.43v-10.096c.47-.376 1.056-.584 1.664-.584h2.336c.138 0 .25.112.25.25v9.5c0 .138-.112.25-.25.25h-.238c-1.253 0-2.497.219-3.674.647l-.088.032Z"/></svg>