<svg xmlns="http://www.w3.org/2000/svg" viewBox="0 0 16 16"><path fill-rule="evenodd" d="M11.28 1.97c.293.293.293.767 0 1.06l-.793.794c.4.475.667 1.067.742 1.717.349.073.663.241.914.477l1.157-.868c.331-.249.801-.181 1.05.15.248.331.181.801-.15 1.05l-1.45 1.088v1.312h1.5c.414 0 .75.336.75.75s-.336.75-.75.75h-1.605c-.074.344-.185.675-.33.987l1.885 1.413c.331.248.399.719.15 1.05-.248.331-.719.399-1.05.15l-1.821-1.366c-.867.933-2.105 1.516-3.479 1.516s-2.612-.583-3.479-1.516l-1.821 1.366c-.331.248-.801.181-1.05-.15-.249-.331-.181-.801.15-1.05l1.884-1.413c-.144-.312-.255-.643-.329-.987h-1.605c-.414 0-.75-.336-.75-.75s.336-.75.75-.75h1.5v-1.313l-1.45-1.087c-.331-.249-.399-.719-.15-1.05.249-.331.719-.399 1.05-.15l1.157.868c.25-.236.565-.404.914-.477.075-.65.342-1.242.742-1.717l-.793-.794c-.293-.293-.293-.767 0-1.06.293-.293.767-.293 1.06 0l.953.953c.39-.165.818-.256 1.267-.256.45 0 .877.09 1.267.256l.953-.953c.293-.293.767-.293 1.06 0Zm-6.53 6.78v.5c0 1.537 1.067 2.825 2.5 3.163v-5.413h-2.083c-.23 0-.417.187-.417.417v1.333Zm6.5-1.333v1.833c0 1.537-1.067 2.825-2.5 3.163v-5.413h2.083c.23 0 .417.187.417.417Zm-3.25-3.25c.823 0 1.513.568 1.7 1.333h-3.4c.187-.765.877-1.333 1.7-1.333Z"/></svg>