<svg xmlns="http://www.w3.org/2000/svg" viewBox="0 0 20 20"><path fill-rule="evenodd" d="M13.78 2.97c.293.293.293.767 0 1.06l-1.028 1.028c.592.657.952 1.526.952 2.48v.026c.438.064.83.264 1.135.557l1.506-1.13c.332-.249.802-.181 1.05.15.249.331.182.801-.15 1.05l-1.77 1.328.002.1v1.654h1.91c.413 0 .75.335.75.75 0 .414-.337.75-.75.75h-2.051c-.085.363-.205.712-.357 1.044l2.28 1.799c.326.256.382.728.125 1.053-.256.325-.728.38-1.053.124l-2.165-1.707c-1.005 1.176-2.498 1.921-4.166 1.921-1.668 0-3.161-.745-4.166-1.92l-2.165 1.706c-.325.257-.797.201-1.053-.124-.257-.325-.201-.797.124-1.053l2.281-1.8c-.152-.33-.272-.68-.357-1.043h-2.05c-.415 0-.75-.336-.75-.75 0-.415.335-.75.75-.75h1.909v-1.654c0-.034 0-.067.002-.1l-1.77-1.328c-.332-.249-.399-.719-.15-1.05.248-.331.718-.399 1.05-.15l1.506 1.13c.304-.292.697-.493 1.134-.557v-.026c0-.954.36-1.823.953-2.48l-1.028-1.028c-.293-.293-.293-.767 0-1.06.292-.293.767-.293 1.06 0l1.192 1.192c.466-.211.983-.329 1.528-.329.544 0 1.062.118 1.527.329l1.193-1.192c.292-.293.767-.293 1.06 0Zm-1.575 4.568v.003h-4.41v-.003c0-1.218.987-2.205 2.205-2.205 1.217 0 2.204.987 2.204 2.205Zm-5.605 1.503c-.319 0-.577.26-.577.578v1.91c0 1.941 1.389 3.557 3.227 3.908v-6.396h-2.65Zm4.15 0v6.396c1.838-.351 3.227-1.967 3.227-3.907v-1.91c0-.32-.258-.579-.577-.579h-2.65Z"/></svg>