<svg xmlns="http://www.w3.org/2000/svg" viewBox="0 0 16 16"><path d="M3.75.5c-.966 0-1.75.784-1.75 1.75v3.5c0 .966.784 1.75 1.75 1.75.414 0 .75-.336.75-.75s-.336-.75-.75-.75c-.138 0-.25-.112-.25-.25v-3.5c0-.138.112-.25.25-.25h8.5c.138 0 .25.112.25.25v3.5c0 .138-.112.25-.25.25h-.5c-.414 0-.75.336-.75.75s.336.75.75.75h.5c.966 0 1.75-.784 1.75-1.75v-3.5c0-.966-.784-1.75-1.75-1.75h-8.5Z"/><path fill-rule="evenodd" d="M7.75 3c-1.243 0-2.25 1.007-2.25 2.25v3.58l-.57-.258c-1.012-.456-2.188.132-2.429 1.216l-.07.312c-.154.696.03 1.423.497 1.962l2.456 2.834c.333.384.815.604 1.323.604h4.465c.84 0 1.562-.597 1.72-1.423l.67-3.523c.172-.901-.381-1.782-1.267-2.018l-2.295-.612v-2.674c0-1.243-1.007-2.25-2.25-2.25Zm-.75 2.25c0-.414.336-.75.75-.75s.75.336.75.75v3.25c0 .34.228.637.557.725l2.851.76c.127.034.206.16.181.288l-.67 3.524c-.023.118-.126.203-.247.203h-4.465c-.073 0-.142-.031-.19-.086l-2.456-2.835c-.155-.179-.217-.422-.165-.654l.07-.312c.034-.155.202-.239.346-.173l1.63.735c.232.105.501.085.715-.054.214-.138.343-.375.343-.63v-4.741Z"/></svg>