<svg xmlns="http://www.w3.org/2000/svg" viewBox="0 0 20 20"><path d="M4.75 2c-.966 0-1.75.784-1.75 1.75v4c0 .966.784 1.75 1.75 1.75h1c.414 0 .75-.336.75-.75s-.336-.75-.75-.75h-1c-.138 0-.25-.112-.25-.25v-4c0-.138.112-.25.25-.25h10.5c.138 0 .25.112.25.25v4c0 .138-.112.25-.25.25h-1c-.414 0-.75.336-.75.75s.336.75.75.75h1c.966 0 1.75-.784 1.75-1.75v-4c0-.966-.784-1.75-1.75-1.75h-10.5Z"/><path fill-rule="evenodd" d="M10.043 4.5c-1.363 0-2.468 1.105-2.468 2.468v4.175l-1.344-.611c-1.01-.46-2.19.126-2.432 1.21l-.13.577c-.144.643.002 1.317.398 1.844l2.358 3.139c.331.44.85.698 1.4.698h5.999c.839 0 1.56-.596 1.718-1.42l.77-4.007c.172-.898-.375-1.777-1.257-2.018l-2.544-.696v-2.891c0-1.363-1.105-2.468-2.468-2.468Zm-.968 2.468c0-.535.433-.968.968-.968.534 0 .968.433.968.968v3.464c0 .338.226.634.552.723l3.096.847c.126.034.204.16.18.288l-.77 4.007c-.022.118-.125.203-.245.203h-6c-.078 0-.152-.037-.2-.1l-2.358-3.138c-.132-.176-.18-.4-.133-.615l.13-.577c.034-.155.203-.239.347-.173l2.404 1.094c.233.106.502.087.717-.052.214-.138.344-.375.344-.63v-5.341Z"/></svg>