<svg viewBox="0 0 20 20" xmlns="http://www.w3.org/2000/svg"><path d="M5.75 4a3.75 3.75 0 0 0-3.75 3.75v2.5a3.75 3.75 0 0 0 3.75 3.75h2.5a.75.75 0 0 0 0-1.5h-2.5a2.25 2.25 0 0 1-2.25-2.25v-2.5a2.25 2.25 0 0 1 2.25-2.25h8.5a2.25 2.25 0 0 1 2.25 2.25v.5a.75.75 0 0 0 1.5 0v-.5a3.75 3.75 0 0 0-3.75-3.75h-8.5Z" fill="#5C5F62"/><path d="M10.994 8.288a.75.75 0 0 0-.957.956l2.122 6.01a.75.75 0 0 0 1.237.282l1.238-1.238 1.414 1.414a.75.75 0 0 0 1.06 0l.354-.353a.75.75 0 0 0 0-1.06l-1.414-1.415 1.238-1.238a.75.75 0 0 0-.281-1.237l-6.01-2.121Z" fill="#5C5F62"/></svg>