<svg xmlns="http://www.w3.org/2000/svg" viewBox="0 0 16 16"><path d="M4.75 2c-2.071 0-3.75 1.679-3.75 3.75v2.5c0 2.071 1.679 3.75 3.75 3.75h1.5c.414 0 .75-.336.75-.75s-.336-.75-.75-.75h-1.5c-1.243 0-2.25-1.007-2.25-2.25v-2.5c0-1.243 1.007-2.25 2.25-2.25h6.5c1.243 0 2.25 1.007 2.25 2.25v.5c0 .414.336.75.75.75s.75-.336.75-.75v-.5c0-2.071-1.679-3.75-3.75-3.75h-6.5Z"/><path d="M7.464 6.464c.205-.204.508-.273.78-.176l6.01 2.12c.244.087.426.291.483.542.057.251-.02.514-.201.696l-1.238 1.238 1.414 1.414c.293.293.293.768 0 1.06l-.353.354c-.293.293-.768.293-1.06 0l-1.415-1.414-1.238 1.238c-.182.182-.445.258-.696.2-.251-.056-.455-.238-.541-.481l-2.121-6.01c-.097-.273-.028-.576.176-.78Z"/></svg>