<svg xmlns="http://www.w3.org/2000/svg" viewBox="0 0 20 20"><path fill-rule="evenodd" d="M6.5 6c0-.552.448-1 1-1h5c.552 0 1 .448 1 1v3c0 .552-.448 1-1 1h-5c-.552 0-1-.448-1-1v-3Zm1.5 2.5v-2h4v2h-4Z"/><path d="M7.25 11c-.414 0-.75.336-.75.75s.336.75.75.75h1.5c.414 0 .75-.336.75-.75s-.336-.75-.75-.75h-1.5Z"/><path d="M10.5 11.75c0-.414.336-.75.75-.75h1.5c.414 0 .75.336.75.75s-.336.75-.75.75h-1.5c-.414 0-.75-.336-.75-.75Z"/><path d="M7.25 13.5c-.414 0-.75.336-.75.75s.336.75.75.75h1.5c.414 0 .75-.336.75-.75s-.336-.75-.75-.75h-1.5Z"/><path d="M10.5 14.25c0-.414.336-.75.75-.75h1.5c.414 0 .75.336.75.75s-.336.75-.75.75h-1.5c-.414 0-.75-.336-.75-.75Z"/><path fill-rule="evenodd" d="M5.75 2c-1.519 0-2.75 1.231-2.75 2.75v10.5c0 1.519 1.231 2.75 2.75 2.75h8.5c1.519 0 2.75-1.231 2.75-2.75v-10.5c0-1.519-1.231-2.75-2.75-2.75h-8.5Zm-1.25 2.75c0-.69.56-1.25 1.25-1.25h8.5c.69 0 1.25.56 1.25 1.25v10.5c0 .69-.56 1.25-1.25 1.25h-8.5c-.69 0-1.25-.56-1.25-1.25v-10.5Z"/></svg>