<svg xmlns="http://www.w3.org/2000/svg" viewBox="0 0 16 16"><path fill-rule="evenodd" d="M4.5 4.25c0-.552.448-1 1-1h5c.552 0 1 .448 1 1v3c0 .552-.448 1-1 1h-5c-.552 0-1-.448-1-1v-3Zm1.5 2.5v-2h4v2h-4Z"/><path d="M4.5 9.75c0-.414.336-.75.75-.75h1.5c.414 0 .75.336.75.75s-.336.75-.75.75h-1.5c-.414 0-.75-.336-.75-.75Z"/><path d="M9.25 9c-.414 0-.75.336-.75.75s.336.75.75.75h1.5c.414 0 .75-.336.75-.75s-.336-.75-.75-.75h-1.5Z"/><path d="M4.5 12c0-.414.336-.75.75-.75h1.5c.414 0 .75.336.75.75s-.336.75-.75.75h-1.5c-.414 0-.75-.336-.75-.75Z"/><path d="M9.25 11.25c-.414 0-.75.336-.75.75s.336.75.75.75h1.5c.414 0 .75-.336.75-.75s-.336-.75-.75-.75h-1.5Z"/><path fill-rule="evenodd" d="M4.75 1c-1.519 0-2.75 1.231-2.75 2.75v8.5c0 1.519 1.231 2.75 2.75 2.75h6.5c1.519 0 2.75-1.231 2.75-2.75v-8.5c0-1.519-1.231-2.75-2.75-2.75h-6.5Zm-1.25 2.75c0-.69.56-1.25 1.25-1.25h6.5c.69 0 1.25.56 1.25 1.25v8.5c0 .69-.56 1.25-1.25 1.25h-6.5c-.69 0-1.25-.56-1.25-1.25v-8.5Z"/></svg>