<svg xmlns="http://www.w3.org/2000/svg" viewBox="0 0 20 20"><path fill-rule="evenodd" d="M6 2.25c.414 0 .75.336.75.75v.528c.487-.028 1.07-.028 1.768-.028h2.482v-.5c0-.414.336-.75.75-.75s.75.336.75.75v.604c1.296.347 2.25 1.53 2.25 2.936 0 .835-.678 1.513-1.513 1.513h-8.733c-.004.288-.004.617-.004.997v2.468c0 1.233 1 2.232 2.232 2.232.414 0 .75.336.75.75s-.336.75-.75.75c-2.061 0-3.732-1.67-3.732-3.732v-2.5c0-.813 0-1.469.043-2 .045-.546.14-1.026.366-1.47.36-.706.933-1.28 1.639-1.64.066-.033.134-.064.202-.093v-.815c0-.414.336-.75.75-.75Zm7.237 4.303h-8.61c.033-.13.072-.234.118-.324.216-.424.56-.768.984-.984.197-.1.458-.17.912-.207.462-.037 1.057-.038 1.909-.038h3.16c.85 0 1.54.69 1.54 1.54v.005l-.004.004-.004.003h-.005Z"/><path d="M14.25 12c0-.414-.336-.75-.75-.75s-.75.336-.75.75v1.293c0 .331.132.65.366.884l.854.853c.293.293.767.293 1.06 0 .293-.293.293-.767 0-1.06l-.78-.78v-1.19Z"/><path fill-rule="evenodd" d="M13.5 18c2.485 0 4.5-2.015 4.5-4.5s-2.015-4.5-4.5-4.5-4.5 2.015-4.5 4.5 2.015 4.5 4.5 4.5Zm0-1.5c1.657 0 3-1.343 3-3s-1.343-3-3-3-3 1.343-3 3 1.343 3 3 3Z"/></svg>