<svg viewBox="0 0 20 20" xmlns="http://www.w3.org/2000/svg"><path d="M6 2a1 1 0 0 1 1 1v1h4V3a1 1 0 1 1 2 0v1h1a2 2 0 0 1 2 2v4.257a4.48 4.48 0 0 0-2-.23V8H4v7h6.028c.081.734.34 1.415.732 2H4a2 2 0 0 1-2-2V6a2 2 0 0 1 2-2h1V3a1 1 0 0 1 1-1Z" fill="#5C5F62"/><path fill-rule="evenodd" d="M14.5 18c-1.93 0-3.5-1.57-3.5-3.5s1.57-3.5 3.5-3.5 3.5 1.57 3.5 3.5-1.57 3.5-3.5 3.5Zm0-6a.5.5 0 0 0-.5.5v2.32a.5.5 0 0 0 .214.402l1.014.71a.5.5 0 1 0 .573-.819l-.801-.56V12.5a.5.5 0 0 0-.5-.5Z" fill="#5C5F62"/></svg>
