<svg xmlns="http://www.w3.org/2000/svg" viewBox="0 0 20 20"><path fill-rule="evenodd" d="M7.75 3.5a.75.75 0 0 0-1.5 0v.407a3.075 3.075 0 0 0-.702.252 3.75 3.75 0 0 0-1.64 1.639c-.226.444-.32.924-.365 1.47-.043.531-.043 1.187-.043 2v1.464c0 .813 0 1.469.043 2 .045.546.14 1.026.366 1.47a3.75 3.75 0 0 0 1.639 1.64c.444.226.924.32 1.47.365.531.043 1.187.043 2 .043h3.383c.323 0 .542 0 .735-.02a3.75 3.75 0 0 0 3.344-3.344c.02-.193.02-.412.02-.735v-2.883c0-.813 0-1.469-.043-2-.045-.546-.14-1.026-.366-1.47a3.75 3.75 0 0 0-1.639-1.64 3.076 3.076 0 0 0-.702-.251v-.407a.75.75 0 0 0-1.5 0v.259c-.373-.009-.794-.009-1.268-.009h-1.964c-.474 0-.895 0-1.268.009v-.259Zm-1.521 1.995c.197-.1.458-.17.912-.207.462-.037 1.057-.038 1.909-.038h1.9c.853 0 1.447 0 1.91.038.453.037.714.107.912.207.423.216.767.56.983.984.1.197.17.458.207.912.014.18.024.38.029.609h-9.982c.006-.228.015-.429.03-.61.036-.453.106-.714.206-.911a2.25 2.25 0 0 1 .984-.984Zm-1.229 4.005v1.2c0 .853 0 1.447.038 1.91.037.453.107.714.207.912.216.423.56.767.984.983.197.1.458.17.912.207.462.037 1.057.038 1.909.038h3.306c.385 0 .52-.001.626-.012a2.25 2.25 0 0 0 2.006-2.006c.011-.106.012-.241.012-.626v-2.606h-10Z"/></svg>