<svg xmlns="http://www.w3.org/2000/svg" viewBox="0 0 12 12"><path d="M4.237.5c-.057-.285-.31-.5-.612-.5-.336 0-.61.265-.624.597-1.437.358-2.501 1.656-2.501 3.203v4.4c0 1.823 1.477 3.3 3.3 3.3h.988c.345 0 .625-.28.625-.625s-.28-.625-.625-.625h-.988c-1.132 0-2.05-.918-2.05-2.05v-4.4c0-1.084.842-1.972 1.907-2.045h.593v-.005h3.5v.005h.593c1.065.073 1.907.96 1.907 2.045v.2h-8.492v1.25h8.492v.761c0 .346.28.625.625.625s.625-.28.625-.625v-2.211c0-1.547-1.064-2.845-2.5-3.203-.015-.332-.289-.597-.625-.597-.302 0-.555.215-.612.5h-3.526Z"/><path d="M11.317 8.317c.244-.244.244-.64 0-.884s-.64-.244-.884 0l-2.516 2.516-.812-.974c-.22-.265-.615-.301-.88-.08-.265.22-.301.615-.08.88l1.25 1.5c.112.135.276.216.452.224.175.008.346-.058.47-.182l3-3Z"/></svg>