<svg xmlns="http://www.w3.org/2000/svg" viewBox="0 0 20 20"><path fill-rule="evenodd" d="M6 1.75a.75.75 0 0 1 .75.75v.528c.487-.028 1.07-.028 1.768-.028h2.482v-.5a.75.75 0 0 1 1.5 0v.604a3.041 3.041 0 0 1 2.25 2.936c0 .835-.678 1.513-1.513 1.513h-8.733c-.004.288-.004.617-.004.997v2.468c0 1.233 1 2.232 2.232 2.232a.75.75 0 0 1 0 1.5 3.732 3.732 0 0 1-3.732-3.732v-2.5c0-.813 0-1.469.043-2 .045-.546.14-1.026.366-1.47a3.75 3.75 0 0 1 1.841-1.733v-.815a.75.75 0 0 1 .75-.75Zm7.237 4.303h-8.61c.033-.13.072-.234.118-.324a2.25 2.25 0 0 1 .984-.984c.197-.1.458-.17.912-.207.462-.037 1.057-.038 1.909-.038h3.16c.85 0 1.54.69 1.54 1.54v.005a.015.015 0 0 1-.004.004.015.015 0 0 1-.004.003h-.005Z"/><path d="M14.25 12a.75.75 0 0 0-1.5 0v1.293c0 .331.132.65.366.884l.854.853a.75.75 0 1 0 1.06-1.06l-.78-.78v-1.19Z"/><path fill-rule="evenodd" d="M13.5 18a4.5 4.5 0 1 0 0-9 4.5 4.5 0 0 0 0 9Zm0-1.5a3 3 0 1 0 0-6 3 3 0 0 0 0 6Z"/></svg>