<svg xmlns="http://www.w3.org/2000/svg" viewBox="0 0 20 20"><path fill-rule="evenodd" d="M7.75 3.5a.75.75 0 0 0-1.5 0v.407a3.075 3.075 0 0 0-.702.252 3.75 3.75 0 0 0-1.64 1.639c-.226.444-.32.924-.365 1.47-.043.531-.043 1.187-.043 2v1.513c0 .79 0 1.428.041 1.944.042.532.131 1 .346 1.434a3.75 3.75 0 0 0 1.704 1.704c.435.215.902.304 1.434.346.517.041 1.154.041 1.944.041h.031a.75.75 0 0 0 0-1.5c-.829 0-1.406 0-1.856-.036-.442-.035-.696-.1-.89-.196a2.25 2.25 0 0 1-1.022-1.023c-.095-.193-.16-.447-.196-.889-.035-.45-.036-1.027-.036-1.856v-1.25h10v1.5a.75.75 0 0 0 1.5 0v-1.732c0-.813 0-1.469-.043-2-.045-.546-.14-1.026-.366-1.47a3.75 3.75 0 0 0-1.639-1.64 3.076 3.076 0 0 0-.702-.251v-.407a.75.75 0 0 0-1.5 0v.259c-.373-.009-.794-.009-1.268-.009h-1.964c-.474 0-.895 0-1.268.009v-.259Zm7.241 4.5a10.674 10.674 0 0 0-.03-.61c-.037-.453-.106-.714-.206-.911a2.25 2.25 0 0 0-.984-.984c-.197-.1-.458-.17-.912-.207-.462-.037-1.056-.038-1.909-.038h-1.9c-.852 0-1.447 0-1.91.038-.453.037-.714.107-.911.207a2.25 2.25 0 0 0-.984.984c-.1.197-.17.458-.207.912-.014.18-.023.38-.03.609h9.983Z"/><path d="M17.28 12.72a.75.75 0 0 1 0 1.06l-3.5 3.5a.75.75 0 0 1-1.06 0l-1.75-1.75a.75.75 0 1 1 1.06-1.06l1.22 1.22 2.97-2.97a.75.75 0 0 1 1.06 0Z"/></svg>