<svg xmlns="http://www.w3.org/2000/svg" viewBox="0 0 20 20"><path fill-rule="evenodd" d="M7.75 2.75c0-.414-.336-.75-.75-.75s-.75.336-.75.75v.778c-.08.004-.157.01-.231.015-.547.045-1.027.14-1.471.366-.706.36-1.28.933-1.64 1.639-.226.444-.32.924-.365 1.47-.043.531-.043 1.187-.043 2v2.964c0 .813 0 1.469.043 2 .045.546.14 1.026.366 1.47.36.706.933 1.28 1.639 1.64.444.226.924.32 1.47.365.531.043 1.187.043 2 .043h1.482c.414 0 .75-.336.75-.75s-.336-.75-.75-.75h-1.45c-.852 0-1.447 0-1.91-.038-.453-.037-.714-.107-.911-.207-.424-.216-.768-.56-.984-.984-.1-.197-.17-.458-.207-.912-.037-.462-.038-1.056-.038-1.909v-2.95h12v1.5c0 .414.336.75.75.75s.75-.336.75-.75v-1.482c0-.813 0-1.469-.043-2-.045-.546-.14-1.026-.366-1.47-.36-.706-.933-1.28-1.639-1.64-.444-.226-.924-.32-1.47-.365-.075-.006-.152-.011-.232-.015v-.778c0-.414-.336-.75-.75-.75s-.75.336-.75.75v.75h-4.5v-.75Zm8.233 4.75c-.005-.129-.012-.248-.021-.36-.037-.453-.107-.714-.207-.911-.216-.424-.56-.768-.984-.984-.197-.1-.458-.17-.912-.207-.462-.037-1.056-.038-1.909-.038h-3.9c-.852 0-1.447 0-1.91.038-.453.037-.714.107-.911.207-.424.216-.768.56-.984.984-.1.197-.17.458-.207.912-.009.111-.016.23-.021.359h11.966Z"/><path d="M18.78 12.72c.293.293.293.767 0 1.06l-4 4c-.293.293-.767.293-1.06 0l-2-2c-.293-.293-.293-.767 0-1.06.293-.293.767-.293 1.06 0l1.47 1.47 3.47-3.47c.293-.293.767-.293 1.06 0Z"/></svg>