<svg xmlns="http://www.w3.org/2000/svg" viewBox="0 0 20 20"><path fill-rule="evenodd" d="M7.75 2.75c0-.414-.336-.75-.75-.75s-.75.336-.75.75v.758c-.376.013-.687.044-.97.12-1.295.347-2.305 1.357-2.652 2.651-.128.48-.128 1.037-.128 1.855v3.848c0 .813 0 1.469.043 2 .045.546.14 1.026.366 1.47.36.706.933 1.28 1.639 1.64.444.226.924.32 1.47.365.531.043 1.187.043 2 .043h.232c.414 0 .75-.336.75-.75s-.336-.75-.75-.75h-.2c-.852 0-1.447 0-1.91-.038-.453-.037-.714-.107-.911-.207-.424-.216-.768-.56-.984-.984-.1-.197-.17-.458-.207-.912-.037-.462-.038-1.056-.038-1.909v-2.95h11.75c.966 0 1.75-.784 1.75-1.75 0-2.071-1.679-3.75-3.75-3.75v-.75c0-.414-.336-.75-.75-.75s-.75.336-.75.75v.75h-4.5v-.75Zm8 4.75h-11.746c.006-.435.024-.652.073-.832.208-.777.814-1.383 1.59-1.591.263-.07.605-.077 1.583-.077h6.5c1.243 0 2.25 1.007 2.25 2.25 0 .138-.112.25-.25.25Z"/><path d="M14.5 12.25c.414 0 .75.336.75.75v1.19l.78.78c.293.293.293.767 0 1.06-.293.293-.767.293-1.06 0l-.854-.853c-.234-.235-.366-.553-.366-.884v-1.293c0-.414.336-.75.75-.75Z"/><path fill-rule="evenodd" d="M14.5 19c2.485 0 4.5-2.015 4.5-4.5s-2.015-4.5-4.5-4.5-4.5 2.015-4.5 4.5 2.015 4.5 4.5 4.5Zm0-1.5c1.657 0 3-1.343 3-3s-1.343-3-3-3-3 1.343-3 3 1.343 3 3 3Z"/></svg>