<svg xmlns="http://www.w3.org/2000/svg" viewBox="0 0 20 20"><path fill-rule="evenodd" d="M7.75 2.75c0-.414-.336-.75-.75-.75s-.75.336-.75.75v.778c-.08.004-.157.01-.231.015-.547.045-1.027.14-1.471.366-.706.36-1.28.933-1.64 1.639-.226.444-.32.924-.365 1.47-.043.531-.043 1.187-.043 2v2.964c0 .813 0 1.469.043 2 .045.546.14 1.026.366 1.47.36.706.933 1.28 1.639 1.64.444.226.924.32 1.47.365.531.043 1.187.043 2 .043h4.974c.701 0 1.179 0 1.592-.094 1.405-.32 2.501-1.417 2.822-2.821.094-.414.094-.892.094-1.593v-3.974c0-.813 0-1.469-.043-2-.045-.546-.14-1.026-.366-1.47-.36-.706-.933-1.28-1.639-1.64-.444-.226-.924-.32-1.47-.365-.075-.006-.152-.011-.232-.015v-.778c0-.414-.336-.75-.75-.75s-.75.336-.75.75v.75h-4.5v-.75Zm-2.521 2.495c.197-.1.458-.17.912-.207.462-.037 1.057-.038 1.909-.038h3.9c.853 0 1.447 0 1.91.038.453.037.714.107.912.207.423.216.767.56.983.984.1.197.17.458.207.912.02.243.03.524.034.859h-11.992c.005-.335.014-.616.034-.86.037-.453.107-.714.207-.911.216-.424.56-.768.984-.984Zm-1.229 4.255v2.45c0 .853 0 1.447.038 1.91.037.453.107.714.207.912.216.423.56.767.984.983.197.1.458.17.912.207.462.037 1.057.038 1.909.038h4.843c.838 0 1.131-.005 1.358-.056.842-.193 1.5-.85 1.693-1.693.051-.227.056-.52.056-1.358v-3.393h-12Z"/></svg>