<svg xmlns="http://www.w3.org/2000/svg" viewBox="0 0 12 12"><path fill-rule="evenodd" d="M3.625 0c.302 0 .555.215.612.5h3.526c.057-.285.31-.5.612-.5.336 0 .61.265.624.597 1.437.358 2.501 1.656 2.501 3.203v4.4c0 1.823-1.477 3.3-3.3 3.3h-4.4c-1.823 0-3.3-1.477-3.3-3.3v-4.4c0-1.547 1.064-2.845 2.5-3.203.015-.332.289-.597.625-.597Zm4.125 1.75v.005h.593c1.065.073 1.907.96 1.907 2.045v.2h-8.492v1.25h8.492v2.95c0 1.132-.918 2.05-2.05 2.05h-4.4c-1.132 0-2.05-.918-2.05-2.05v-4.4c0-1.084.842-1.972 1.907-2.045h.593v-.005h3.5Z"/></svg>