<svg viewBox="0 0 20 20" xmlns="http://www.w3.org/2000/svg"><path fill-rule="evenodd" d="M7 2a.75.75 0 0 1 .75.75v.752c.239-.002.495-.002.768-.002h2.964c.273 0 .529 0 .768.002v-.752a.75.75 0 0 1 1.5 0v.82c.438.053.832.15 1.203.339a3.75 3.75 0 0 1 1.638 1.639c.227.444.321.924.366 1.47.043.531.043 1.187.043 2v1.982a.75.75 0 0 1-1.5 0v-1.5h-11v1.95c0 .853 0 1.447.038 1.91.037.453.107.714.207.912.216.423.56.767.984.983.197.1.458.17.912.207.462.037 1.057.038 1.909.038h.2a.75.75 0 0 1 0 1.5h-.232c-.813 0-1.469 0-2-.043-.546-.045-1.026-.14-1.47-.366a3.75 3.75 0 0 1-1.64-1.639c-.226-.444-.32-.924-.365-1.47-.043-.531-.043-1.187-.043-2v-2.464c0-.813 0-1.469.043-2 .045-.546.14-1.026.366-1.47a3.75 3.75 0 0 1 1.639-1.64c.37-.188.764-.285 1.202-.338v-.82a.75.75 0 0 1 .75-.75Zm8.462 5.14c.02.244.03.525.034.86h-10.992c.005-.335.014-.616.034-.86.037-.453.107-.714.207-.911a2.25 2.25 0 0 1 .984-.984c.197-.1.458-.17.912-.207.462-.037 1.057-.038 1.909-.038h2.9c.853 0 1.447 0 1.91.038.453.037.714.107.912.207.423.216.767.56.983.984.1.197.17.458.207.912Z" fill="#5C5F62"/><path d="M12.28 14.682a.75.75 0 1 0-1.06 1.06l2.048 2.049a.75.75 0 0 0 1.06 0l3.463-3.463a.75.75 0 0 0-1.06-1.06l-2.933 2.932-1.518-1.518Z" fill="#5C5F62"/></svg>