<svg xmlns="http://www.w3.org/2000/svg" viewBox="0 0 16 16"><path fill-rule="evenodd" d="M5.75 1.5c0-.414-.336-.75-.75-.75s-.75.336-.75.75v.407c-.246.057-.479.138-.702.252-.706.36-1.28.933-1.64 1.639-.226.444-.32.924-.365 1.47-.043.531-.043 1.187-.043 2v1.513c0 .79 0 1.428.041 1.944.042.532.132 1 .346 1.434.365.74.964 1.34 1.704 1.704.435.215.902.304 1.434.346.517.041 1.154.041 1.944.041h.031c.414 0 .75-.336.75-.75s-.336-.75-.75-.75c-.829 0-1.406 0-1.856-.036-.442-.035-.696-.1-.89-.196-.443-.22-.803-.579-1.022-1.023-.095-.193-.16-.447-.196-.889-.035-.45-.036-1.027-.036-1.856v-1.25h10v1.5c0 .414.336.75.75.75s.75-.336.75-.75v-1.732c0-.813 0-1.469-.043-2-.045-.546-.14-1.026-.366-1.47-.36-.706-.933-1.28-1.638-1.64-.224-.113-.457-.194-.703-.251v-.407c0-.414-.336-.75-.75-.75s-.75.336-.75.75v.259c-.373-.009-.794-.009-1.268-.009h-1.964c-.474 0-.895 0-1.268.009v-.259Zm7.241 4.5c-.005-.228-.015-.429-.03-.61-.037-.453-.106-.714-.206-.911-.216-.424-.56-.768-.984-.984-.197-.1-.458-.17-.912-.207-.462-.037-1.057-.038-1.909-.038h-1.9c-.852 0-1.447 0-1.91.038-.453.037-.714.107-.911.207-.424.216-.768.56-.984.984-.1.197-.17.458-.207.912-.014.18-.023.38-.029.609h9.982Z"/><path d="M15.28 10.72c.293.293.293.767 0 1.06l-3.5 3.5c-.293.293-.767.293-1.06 0l-1.75-1.75c-.293-.293-.293-.767 0-1.06.293-.293.767-.293 1.06 0l1.22 1.22 2.97-2.97c.293-.293.767-.293 1.06 0Z"/></svg>