<svg xmlns="http://www.w3.org/2000/svg" viewBox="0 0 20 20"><path fill-rule="evenodd" d="M10 7c-1.933 0-3.5 1.567-3.5 3.5s1.567 3.5 3.5 3.5 3.5-1.567 3.5-3.5-1.567-3.5-3.5-3.5Zm-2 3.5c0-1.105.895-2 2-2s2 .895 2 2-.895 2-2 2-2-.895-2-2Z"/><path fill-rule="evenodd" d="M8.178 3c-1.032 0-1.978.578-2.448 1.498l-.502.98c-.156.306-.47.498-.814.498-1.333 0-2.414 1.081-2.414 2.415v5.859c0 1.519 1.231 2.75 2.75 2.75h10.5c1.519 0 2.75-1.231 2.75-2.75v-5.86c0-1.333-1.081-2.414-2.414-2.414-.344 0-.658-.192-.815-.498l-.501-.98c-.47-.92-1.416-1.498-2.448-1.498h-3.644Zm-1.112 2.18c.213-.417.643-.68 1.112-.68h3.644c.469 0 .899.263 1.113.68l.501.981c.413.807 1.243 1.315 2.15 1.315.505 0 .914.41.914.915v5.859c0 .69-.56 1.25-1.25 1.25h-10.5c-.69 0-1.25-.56-1.25-1.25v-5.86c0-.504.41-.914.914-.914.907 0 1.737-.508 2.15-1.315l.502-.98Z"/></svg>