<svg xmlns="http://www.w3.org/2000/svg" viewBox="0 0 16 16"><path fill-rule="evenodd" d="M8 5.25c-1.795 0-3.25 1.455-3.25 3.25s1.455 3.25 3.25 3.25 3.25-1.455 3.25-3.25-1.455-3.25-3.25-3.25Zm-1.75 3.25c0-.966.784-1.75 1.75-1.75s1.75.784 1.75 1.75-.784 1.75-1.75 1.75-1.75-.784-1.75-1.75Z"/><path fill-rule="evenodd" d="M6.584 2c-1.022 0-1.96.567-2.435 1.472l-.346.658c-.119.228-.355.37-.612.37-1.21 0-2.191.981-2.191 2.191v4.559c0 1.519 1.231 2.75 2.75 2.75h8.5c1.519 0 2.75-1.231 2.75-2.75v-4.559c0-1.21-.981-2.191-2.191-2.191-.257 0-.493-.142-.612-.37l-.346-.658c-.475-.905-1.413-1.472-2.435-1.472h-2.832Zm-1.107 2.169c.216-.411.642-.669 1.107-.669h2.832c.465 0 .89.258 1.107.669l.345.658c.38.721 1.126 1.173 1.94 1.173.383 0 .692.31.692.691v4.559c0 .69-.56 1.25-1.25 1.25h-8.5c-.69 0-1.25-.56-1.25-1.25v-4.559c0-.381.31-.691.691-.691.815 0 1.562-.452 1.94-1.173l.346-.658Z"/></svg>