<svg  viewBox="0 0 20 20" fill="none" xmlns="http://www.w3.org/2000/svg">
<path d="M2.75 8.25C2.75 7.14543 3.64543 6.25 4.75 6.25H4.85363C5.59693 6.25 6.27891 5.83778 6.62442 5.17967L6.81308 4.82033C7.15859 4.16222 7.84057 3.75 8.58387 3.75H10H11.4161C12.1594 3.75 12.8414 4.16222 13.1869 4.82033L13.3756 5.17967C13.7211 5.83778 14.4031 6.25 15.1464 6.25H15.25C16.3546 6.25 17.25 7.14543 17.25 8.25V14.25C17.25 15.3546 16.3546 16.25 15.25 16.25H4.75C3.64543 16.25 2.75 15.3546 2.75 14.25V8.25Z" stroke="currentColor" />
<path d="M12.5 10.5C12.5 11.8807 11.3807 13 10 13C8.61929 13 7.5 11.8807 7.5 10.5C7.5 9.11929 8.61929 8 10 8C11.3807 8 12.5 9.11929 12.5 10.5Z" stroke="currentColor" />
</svg>
