<svg xmlns="http://www.w3.org/2000/svg" viewBox="0 0 16 16"><path d="M7.47 4.22c.293-.293.767-.293 1.06 0l1.5 1.5c.293.293.293.767 0 1.06l-1.5 1.5c-.293.293-.767.293-1.06 0-.293-.293-.293-.767 0-1.06l.185-.186c-.801.16-1.405.867-1.405 1.716 0 .966.784 1.75 1.75 1.75h.294c.804 0 1.456-.652 1.456-1.456 0-.414.336-.75.75-.75s.75.336.75.75c0 1.633-1.323 2.956-2.956 2.956h-.294c-1.795 0-3.25-1.455-3.25-3.25 0-1.695 1.297-3.086 2.953-3.237l-.233-.233c-.293-.293-.293-.767 0-1.06Z"/><path fill-rule="evenodd" d="M4.149 3.472c.475-.905 1.413-1.472 2.435-1.472h2.832c1.022 0 1.96.567 2.435 1.472l.346.658c.119.228.355.37.612.37 1.21 0 2.191.981 2.191 2.191v4.559c0 1.519-1.231 2.75-2.75 2.75h-8.5c-1.519 0-2.75-1.231-2.75-2.75v-4.559c0-1.21.981-2.191 2.191-2.191.257 0 .493-.142.612-.37l.346-.658Zm2.435.028c-.465 0-.89.258-1.107.669l-.346.658c-.378.721-1.125 1.173-1.94 1.173-.381 0-.691.31-.691.691v4.559c0 .69.56 1.25 1.25 1.25h8.5c.69 0 1.25-.56 1.25-1.25v-4.559c0-.381-.31-.691-.691-.691-.815 0-1.562-.452-1.94-1.173l-.346-.658c-.216-.411-.642-.669-1.107-.669h-2.832Z"/></svg>