<svg  viewBox="0 0 18 18" fill="none" xmlns="http://www.w3.org/2000/svg">
<path d="M2.25 7.50295C2.25 6.53482 3.03482 5.75 4.00295 5.75V5.75C4.65444 5.75 5.25218 5.3887 5.55501 4.81188L5.81308 4.32033C6.15859 3.66222 6.84057 3.25 7.58387 3.25H9H10.4161C11.1594 3.25 11.8414 3.66222 12.1869 4.32033L12.445 4.81188C12.7478 5.3887 13.3456 5.75 13.997 5.75V5.75C14.9652 5.75 15.75 6.53482 15.75 7.50295V12.75C15.75 13.8546 14.8546 14.75 13.75 14.75H4.25C3.14543 14.75 2.25 13.8546 2.25 12.75V7.50295Z" stroke="currentColor" />
<path d="M11.5 9.5C11.5 10.8807 10.3807 12 9 12C7.61929 12 6.5 10.8807 6.5 9.5C6.5 8.11929 7.61929 7 9 7C10.3807 7 11.5 8.11929 11.5 9.5Z" stroke="currentColor" />
</svg>
