<svg xmlns="http://www.w3.org/2000/svg" viewBox="0 0 21 21"><path fill-rule="evenodd" d="M6.31 8.856c1.106-2.078 3.467-2.891 5.775-3.136 1.13-.12 2.19-.096 2.971-.041.262.018.49.04.679.06.011.18.022.399.028.646.02.76.003 1.792-.146 2.886-.307 2.246-1.13 4.483-3 5.448-2.04 1.051-3.802.684-5.018-.308l3.967-3.626-.066 1.71c-.016.414.307.763.72.779.415.015.763-.307.779-.721l.134-3.503c.008-.199-.064-.392-.199-.538-.135-.146-.323-.233-.522-.24l-3.37-.126c-.414-.016-.763.307-.778.721-.015.414.308.762.721.778l1.542.058-3.922 3.584c-.848-1.333-1.032-3.047-.296-4.43Zm-.825 5.454c-1.215-1.752-1.572-4.145-.5-6.159 1.471-2.763 4.502-3.664 6.942-3.923 1.243-.132 2.395-.105 3.234-.046.421.03.766.068 1.007.098.121.016.216.03.283.04l.077.011.021.004.006.001h.003l-.127.74.745-.09v.003l.001.006.003.021.007.075c.007.064.016.157.025.274.019.236.04.571.05.98.023.815.005 1.932-.159 3.13-.32 2.336-1.232 5.253-3.8 6.577-2.687 1.385-5.159.838-6.82-.622l-1.397 1.276c-.306.28-.78.259-1.06-.047-.279-.306-.257-.78.048-1.06l1.411-1.29Zm11.691-9.324c-.04-.329-.29-.593-.617-.65l-.128.74.745-.09Z" clip-rule="evenodd"/></svg>