<svg viewBox="0 0 20 20" xmlns="http://www.w3.org/2000/svg"><path fill-rule="evenodd" d="M13.8 11.5h-7.6c-.585 0-.933.001-1.191.022-.158.013-.224.03-.242.036a.5.5 0 0 0-.21.209 1.255 1.255 0 0 0-.035.242c-.02.258-.022.606-.022 1.191v2.3h11v-2.3c0-.585-.001-.933-.022-1.191a1.253 1.253 0 0 0-.036-.242.5.5 0 0 0-.209-.21 1.253 1.253 0 0 0-.242-.035c-.258-.02-.606-.022-1.191-.022Zm1.689 4.46v-.002Zm.469-.471h.002Zm-11.918 0h.002Zm.471.469v.002Zm-1.293-4.866c-.218.428-.218.988-.218 2.108v2.2c0 .56 0 .84.109 1.054a1 1 0 0 0 .437.437c.214.109.494.109 1.054.109h10.8c.56 0 .84 0 1.054-.109a1 1 0 0 0 .437-.437c.109-.214.109-.494.109-1.054v-2.2c0-1.12 0-1.68-.218-2.108a2 2 0 0 0-.874-.874c-.428-.218-.988-.218-2.108-.218h-7.6c-1.12 0-1.68 0-2.108.218a2 2 0 0 0-.874.874Z" fill="#5C5F62"/><path fill-rule="evenodd" d="M5 6.2c0-1.12 0-1.68.218-2.108a2 2 0 0 1 .874-.874c.428-.218.988-.218 2.108-.218h3.6c1.12 0 1.68 0 2.108.218a2 2 0 0 1 .874.874c.218.428.218.988.218 2.108v5.3h-10v-5.3Zm7-1.7v5.5h1.5v-3.8c0-.585-.001-.933-.022-1.191a1.253 1.253 0 0 0-.036-.242.5.5 0 0 0-.209-.21 1.255 1.255 0 0 0-.242-.035 13.522 13.522 0 0 0-.991-.022Zm-2 5.5v-5.5h-1.8c-.585 0-.933.001-1.191.022-.158.013-.224.03-.242.036a.5.5 0 0 0-.21.209 1.254 1.254 0 0 0-.035.242c-.02.258-.022.606-.022 1.191v3.8h3.5Z" fill="#5C5F62"/></svg>