<svg xmlns="http://www.w3.org/2000/svg" viewBox="0 0 16 16"><path d="M1.25 1c-.414 0-.75.336-.75.75s.336.75.75.75h1.612c.127 0 .233.095.248.22l1.04 8.737c.105.88.852 1.543 1.738 1.543h6.362c.414 0 .75-.336.75-.75s-.336-.75-.75-.75h-6.362c-.127 0-.233-.095-.248-.22l-.093-.78h6.35c1.438 0 2.633-1.106 2.743-2.54l.358-4.652c.032-.413-.277-.774-.69-.806-.413-.032-.774.277-.806.69l-.358 4.654c-.05.651-.593 1.154-1.246 1.154h-6.53l-.768-6.457c-.105-.88-.852-1.543-1.738-1.543h-1.612Z"/><path d="M7 4.25c.552 0 1-.448 1-1s-.448-1-1-1-1 .448-1 1 .448 1 1 1Z"/><path d="M11.28 4.03c.293-.293.293-.767 0-1.06-.293-.293-.767-.293-1.06 0l-3.5 3.5c-.293.293-.293.767 0 1.06.293.293.767.293 1.06 0l3.5-3.5Z"/><path d="M12 7.25c0 .552-.448 1-1 1s-1-.448-1-1 .448-1 1-1 1 .448 1 1Z"/><path d="M8 15c0 .552-.448 1-1 1s-1-.448-1-1 .448-1 1-1 1 .448 1 1Z"/><path d="M13 15c0 .552-.448 1-1 1s-1-.448-1-1 .448-1 1-1 1 .448 1 1Z"/></svg>