<svg xmlns="http://www.w3.org/2000/svg" viewBox="0 0 16 16"><path fill-rule="evenodd" d="M2.25 1c-.414 0-.75.336-.75.75s.336.75.75.75h1.612c.127 0 .233.095.248.22l1.04 8.737c.105.88.852 1.543 1.738 1.543h5.362c.414 0 .75-.336.75-.75s-.336-.75-.75-.75h-5.362c-.127 0-.233-.095-.248-.22l-.093-.78h5.35c1.438 0 2.633-1.106 2.743-2.54l.358-4.652c.016-.209-.056-.414-.198-.568-.142-.153-.341-.24-.55-.24h-8.656c-.124-.859-.86-1.5-1.732-1.5h-1.612Zm9.648 8h-5.53l-.595-5h7.667l-.296 3.846c-.05.651-.593 1.154-1.246 1.154Z"/><path d="M.75 4.5c-.414 0-.75.336-.75.75s.336.75.75.75h.5c.414 0 .75-.336.75-.75s-.336-.75-.75-.75h-.5Z"/><path d="M.75 7.5c-.414 0-.75.336-.75.75s.336.75.75.75h1.5c.414 0 .75-.336.75-.75s-.336-.75-.75-.75h-1.5Z"/><path d="M0 11.25c0-.414.336-.75.75-.75h2.5c.414 0 .75.336.75.75s-.336.75-.75.75h-2.5c-.414 0-.75-.336-.75-.75Z"/><path d="M8 15c0 .552-.448 1-1 1s-1-.448-1-1 .448-1 1-1 1 .448 1 1Z"/><path d="M13 15c0 .552-.448 1-1 1s-1-.448-1-1 .448-1 1-1 1 .448 1 1Z"/></svg>