<svg xmlns="http://www.w3.org/2000/svg" viewBox="0 0 16 16"><path d="M1.25 1c-.414 0-.75.336-.75.75s.336.75.75.75h1.612c.127 0 .233.095.248.22l1.04 8.737c.105.88.852 1.543 1.738 1.543h6.362c.414 0 .75-.336.75-.75s-.336-.75-.75-.75h-6.362c-.127 0-.233-.095-.248-.22l-.093-.78h6.35c1.438 0 2.633-1.106 2.743-2.54l.358-4.652c.016-.209-.056-.414-.198-.568-.142-.153-.341-.24-.55-.24h-9.656c-.124-.859-.86-1.5-1.732-1.5h-1.612Z"/><path d="M7 16c.552 0 1-.448 1-1s-.448-1-1-1-1 .448-1 1 .448 1 1 1Z"/><path d="M13 15c0 .552-.448 1-1 1s-1-.448-1-1 .448-1 1-1 1 .448 1 1Z"/></svg>