<svg xmlns="http://www.w3.org/2000/svg" viewBox="0 0 20 20"><path d="M3.25 3a.75.75 0 0 0 0 1.5h1.612a.25.25 0 0 1 .248.22l1.04 8.737a1.75 1.75 0 0 0 1.738 1.543h6.362a.75.75 0 0 0 0-1.5h-6.362a.25.25 0 0 1-.248-.22l-.093-.78h6.35a2.75 2.75 0 0 0 2.743-2.54l.358-4.652a.75.75 0 0 0-.748-.808h-4.25v3.94l1.22-1.22a.75.75 0 1 1 1.06 1.06l-2.5 2.5a.75.75 0 0 1-1.06 0l-2.5-2.5a.75.75 0 0 1 1.06-1.06l1.22 1.22v-3.94h-3.906a1.75 1.75 0 0 0-1.732-1.5h-1.612Z"/><path d="M10 17a1 1 0 1 1-2 0 1 1 0 0 1 2 0Z"/><path d="M15 17a1 1 0 1 1-2 0 1 1 0 0 1 2 0Z"/></svg>