<svg xmlns="http://www.w3.org/2000/svg" viewBox="0 0 20 20"><path d="M2 1.5c-.414 0-.75.336-.75.75s.336.75.75.75h1.612c.127 0 .233.095.248.22l.073.612.98 9.842c.09.894.843 1.576 1.742 1.576h8.345c.414 0 .75-.336.75-.75s-.336-.75-.75-.75h-8.345c-.128 0-.236-.097-.248-.225l-.128-1.275h7.408c1.978 0 3.615-1.535 3.743-3.509l.318-4.943c.027-.413-.286-.77-.7-.796-.413-.027-.77.286-.796.7l-.32 4.943c-.076 1.184-1.058 2.105-2.245 2.105h-7.557l-.705-7.074-.002-.015-.073-.618c-.105-.88-.852-1.543-1.738-1.543h-1.612Z"/><path d="M13.28 4.22c.293.293.293.767 0 1.06l-1.47 1.47 1.47 1.47c.293.293.293.767 0 1.06-.293.293-.767.293-1.06 0l-1.47-1.47-1.47 1.47c-.293.293-.767.293-1.06 0-.293-.293-.293-.767 0-1.06l1.47-1.47-1.47-1.47c-.293-.293-.293-.767 0-1.06.293-.293.767-.293 1.06 0l1.47 1.47 1.47-1.47c.293-.293.767-.293 1.06 0Z"/><path d="M9.5 17.75c0 .69-.56 1.25-1.25 1.25s-1.25-.56-1.25-1.25.56-1.25 1.25-1.25 1.25.56 1.25 1.25Z"/><path d="M15.75 17.75c0 .69-.56 1.25-1.25 1.25s-1.25-.56-1.25-1.25.56-1.25 1.25-1.25 1.25.56 1.25 1.25Z"/></svg>