<svg xmlns="http://www.w3.org/2000/svg" viewBox="0 0 20 20"><path fill-rule="evenodd" d="M2.5 3.75a.75.75 0 0 1 .75-.75h1.612a1.75 1.75 0 0 1 1.732 1.5h9.656a.75.75 0 0 1 .748.808l-.358 4.653a2.75 2.75 0 0 1-2.742 2.539h-6.351l.093.78a.25.25 0 0 0 .248.22h6.362a.75.75 0 0 1 0 1.5h-6.362a1.75 1.75 0 0 1-1.738-1.543l-1.04-8.737a.25.25 0 0 0-.248-.22h-1.612a.75.75 0 0 1-.75-.75Zm4.868 7.25h6.53a1.25 1.25 0 0 0 1.246-1.154l.296-3.846h-8.667l.595 5Z"/><path d="M10 17a1 1 0 1 1-2 0 1 1 0 0 1 2 0Z"/><path d="M15 17a1 1 0 1 1-2 0 1 1 0 0 1 2 0Z"/></svg>