<svg xmlns="http://www.w3.org/2000/svg" viewBox="0 0 20 20"><path d="M1.25 2.25c0-.414.336-.75.75-.75h1.612c.872 0 1.608.641 1.732 1.5h4.906v4.94l-1.72-1.72c-.293-.293-.767-.293-1.06 0-.293.293-.293.767 0 1.06l3 3c.293.293.767.293 1.06 0l3-3c.293-.293.293-.767 0-1.06-.293-.293-.767-.293-1.06 0l-1.72 1.72v-4.94h5.25c.207 0 .405.086.547.237.142.151.215.354.201.561l-.319 4.943c-.127 1.974-1.764 3.509-3.742 3.509h-7.408l.128 1.275c.012.128.12.225.248.225h8.345c.414 0 .75.336.75.75s-.336.75-.75.75h-8.345c-.899 0-1.652-.682-1.741-1.576l-.981-9.842-.073-.612c-.015-.125-.121-.22-.248-.22h-1.612c-.414 0-.75-.336-.75-.75Z"/><path d="M8.25 19c.69 0 1.25-.56 1.25-1.25s-.56-1.25-1.25-1.25-1.25.56-1.25 1.25.56 1.25 1.25 1.25Z"/><path d="M14.5 19c.69 0 1.25-.56 1.25-1.25s-.56-1.25-1.25-1.25-1.25.56-1.25 1.25.56 1.25 1.25 1.25Z"/></svg>