<svg xmlns="http://www.w3.org/2000/svg" viewBox="0 0 16 16"><path fill-rule="evenodd" d="M1.25 1c-.414 0-.75.336-.75.75s.336.75.75.75h1.612c.127 0 .233.095.248.22l1.04 8.737c.105.88.852 1.543 1.738 1.543h6.362c.414 0 .75-.336.75-.75s-.336-.75-.75-.75h-6.362c-.127 0-.233-.095-.248-.22l-.093-.78h6.35c1.438 0 2.633-1.106 2.743-2.54l.358-4.652c.016-.209-.056-.414-.198-.568-.142-.153-.341-.24-.55-.24h-4.25v3.94l1.22-1.22c.293-.293.767-.293 1.06 0 .293.293.293.767 0 1.06l-2.5 2.5c-.293.293-.767.293-1.06 0l-2.5-2.5c-.293-.293-.293-.767 0-1.06.293-.293.767-.293 1.06 0l1.22 1.22v-3.94h-3.906c-.124-.859-.86-1.5-1.732-1.5h-1.612Zm6.75 14c0 .552-.448 1-1 1s-1-.448-1-1 .448-1 1-1 1 .448 1 1Zm5 0c0 .552-.448 1-1 1s-1-.448-1-1 .448-1 1-1 1 .448 1 1Z"/></svg>