<svg xmlns="http://www.w3.org/2000/svg" viewBox="0 0 16 16"><path fill-rule="evenodd" d="M.5 1.75c0-.414.336-.75.75-.75h1.612c.872 0 1.608.641 1.732 1.5h9.656c.209 0 .408.087.55.24.142.154.214.36.198.568l-.358 4.653c-.11 1.433-1.305 2.539-2.742 2.539h-6.351l.093.78c.015.125.121.22.248.22h6.362c.414 0 .75.336.75.75s-.336.75-.75.75h-6.362c-.886 0-1.633-.663-1.738-1.543l-1.04-8.737c-.015-.125-.121-.22-.248-.22h-1.612c-.414 0-.75-.336-.75-.75Zm6.708 2.458c-.244.244-.244.64 0 .884l1.408 1.408-1.408 1.408c-.244.244-.244.64 0 .884s.64.244.884 0l1.408-1.408 1.408 1.408c.244.244.64.244.884 0s.244-.64 0-.884l-1.408-1.408 1.408-1.408c.244-.244.244-.64 0-.884s-.64-.244-.884 0l-1.408 1.408-1.408-1.408c-.244-.244-.64-.244-.884 0Z"/><path d="M8 15c0 .552-.448 1-1 1s-1-.448-1-1 .448-1 1-1 1 .448 1 1Z"/><path d="M12 16c.552 0 1-.448 1-1s-.448-1-1-1-1 .448-1 1 .448 1 1 1Z"/></svg>