<svg viewBox="0 0 20 20" xmlns="http://www.w3.org/2000/svg"><path fill-rule="evenodd" d="M3 3.75a.75.75 0 0 1 .75-.75h2a.75.75 0 0 1 .744.66l.106.868 9.936.473a.75.75 0 0 1 .706.855l-.75 5.25a.75.75 0 0 1-.742.644h-8.269l.183 1.5h7.586a.75.75 0 0 1 0 1.5h-8.25a.75.75 0 0 1-.744-.66l-.365-2.988a.722.722 0 0 1-.003-.02l-.802-6.582h-1.336a.75.75 0 0 1-.75-.75Zm4.298 6.5h7.802l.541-3.79-8.856-.422.513 4.212Z" fill="#5C5F62"/><path d="M9 16.5a1 1 0 1 1-2 0 1 1 0 0 1 2 0Z" fill="#5C5F62"/><path d="M15 16.5a1 1 0 1 1-2 0 1 1 0 0 1 2 0Z" fill="#5C5F62"/></svg>