<svg xmlns="http://www.w3.org/2000/svg" viewBox="0 0 20 20"><path fill-rule="evenodd" d="M10 18c4.418 0 8-3.582 8-8s-3.582-8-8-8-8 3.582-8 8 3.582 8 8 8Zm-.75-12.25c0-.414.336-.75.75-.75s.75.336.75.75v.25h1.25c.414 0 .75.336.75.75s-.336.75-.75.75h-2.375c-.483 0-.875.392-.875.875s.392.875.875.875h.75c1.312 0 2.375 1.063 2.375 2.375 0 1.184-.867 2.166-2 2.346v.279c0 .414-.336.75-.75.75s-.75-.336-.75-.75v-.25h-1.25c-.414 0-.75-.336-.75-.75s.336-.75.75-.75h2.375c.483 0 .875-.392.875-.875s-.392-.875-.875-.875h-.75c-1.312 0-2.375-1.063-2.375-2.375 0-1.184.867-2.166 2-2.346v-.279Z"/></svg>