<svg xmlns="http://www.w3.org/2000/svg" viewBox="0 0 20 20"><path d="M12.396 14.63c.21-.357.091-.816-.266-1.026l-2.541-1.496c.747-.439 1.277-1.209 1.39-2.108h1.771c.414 0 .75-.336.75-.75s-.336-.75-.75-.75h-1.75v-1h1.75c.414 0 .75-.336.75-.75s-.336-.75-.75-.75h-5.5c-.414 0-.75.336-.75.75s.336.75.75.75h2.25v1h-2.25c-.414 0-.75.336-.75.75s.336.75.75.75h2.203c-.156.576-.683 1-1.309 1-.942 0-1.282 1.245-.469 1.723l3.695 2.173c.357.21.816.091 1.027-.266Z"/><path fill-rule="evenodd" d="M18 10c0 4.418-3.582 8-8 8s-8-3.582-8-8 3.582-8 8-8 8 3.582 8 8Zm-1.5 0c0 3.59-2.91 6.5-6.5 6.5s-6.5-2.91-6.5-6.5 2.91-6.5 6.5-6.5 6.5 2.91 6.5 6.5Z"/></svg>