<svg xmlns="http://www.w3.org/2000/svg" viewBox="0 0 20 20"><path d="M9.852 7.081c-.416.221-.926.822-1.066 2.169h2.214c.414 0 .75.335.75.75 0 .414-.336.75-.75.75h-2.214c.14 1.347.65 1.948 1.066 2.169.493.262 1.141.152 1.615-.327.291-.295.766-.297 1.06-.006.295.291.298.766.006 1.06-.86.87-2.212 1.22-3.385.597-1.038-.551-1.718-1.744-1.867-3.493h-.781c-.414 0-.75-.336-.75-.75 0-.415.336-.75.75-.75h.78c.15-1.75.83-2.942 1.868-3.493 1.173-.624 2.526-.273 3.385.596.292.295.289.77-.005 1.061-.295.291-.77.289-1.061-.006-.474-.479-1.121-.59-1.615-.327Z"/><path fill-rule="evenodd" d="M18 10c0 4.418-3.582 8-8 8s-8-3.582-8-8 3.582-8 8-8 8 3.582 8 8Zm-1.5 0c0 3.59-2.91 6.5-6.5 6.5s-6.5-2.91-6.5-6.5 2.91-6.5 6.5-6.5 6.5 2.91 6.5 6.5Z"/></svg>