<svg xmlns="http://www.w3.org/2000/svg" viewBox="0 0 16 16"><path d="M7.5 4.5c0-.414.336-.75.75-.75s.75.336.75.75v.25h.75c.414 0 .75.336.75.75s-.336.75-.75.75h-2.25c-.276 0-.5.224-.5.5s.224.5.5.5h1c1.105 0 2 .895 2 2s-.895 2-2 2v.25c0 .414-.336.75-.75.75s-.75-.336-.75-.75v-.25h-.75c-.414 0-.75-.336-.75-.75s.336-.75.75-.75h2.25c.276 0 .5-.224.5-.5s-.224-.5-.5-.5h-1c-1.105 0-2-.895-2-2s.895-2 2-2v-.25Z"/><path fill-rule="evenodd" d="M15 8c0 3.866-3.134 7-7 7s-7-3.134-7-7 3.134-7 7-7 7 3.134 7 7Zm-1.5 0c0 3.038-2.462 5.5-5.5 5.5s-5.5-2.462-5.5-5.5 2.462-5.5 5.5-5.5 5.5 2.462 5.5 5.5Z"/></svg>