<svg xmlns="http://www.w3.org/2000/svg" viewBox="0 0 16 16"><path d="M7.76 5.893c-.248.149-.579.533-.707 1.357h1.697c.414 0 .75.335.75.75 0 .414-.336.75-.75.75h-1.697c.128.823.46 1.207.708 1.357.309.185.684.137.959-.138.293-.293.767-.293 1.06 0 .293.293.293.768 0 1.061-.725.726-1.85.927-2.79.363-.788-.472-1.304-1.385-1.449-2.643h-.291c-.414 0-.75-.336-.75-.75 0-.415.336-.75.75-.75h.291c.145-1.258.661-2.171 1.448-2.643.941-.565 2.066-.363 2.791.362.293.293.293.768 0 1.061-.293.293-.767.293-1.06 0-.275-.274-.65-.323-.96-.137Z"/><path fill-rule="evenodd" d="M8 1c-3.866 0-7 3.134-7 7s3.134 7 7 7 7-3.134 7-7-3.134-7-7-7Zm-5.5 7c0-3.038 2.462-5.5 5.5-5.5s5.5 2.462 5.5 5.5-2.462 5.5-5.5 5.5-5.5-2.462-5.5-5.5Z"/></svg>