<svg xmlns="http://www.w3.org/2000/svg" viewBox="0 0 16 16"><path d="M8 4c-.966 0-1.75.784-1.75 1.75v1.5h-.75c-.414 0-.75.336-.75.75s.336.75.75.75h.75v1h-.75c-.414 0-.75.336-.75.75s.336.75.75.75h4.5c.414 0 .75-.336.75-.75s-.336-.75-.75-.75h-2.25v-1h.75c.414 0 .75-.336.75-.75s-.336-.75-.75-.75h-.75v-1.5c0-.138.112-.25.25-.25h.75v.5c0 .414.336.75.75.75s.75-.336.75-.75v-.75c0-.69-.56-1.25-1.25-1.25h-1Z"/><path fill-rule="evenodd" d="M8 1c-3.866 0-7 3.134-7 7s3.134 7 7 7 7-3.134 7-7-3.134-7-7-7Zm-5.5 7c0-3.038 2.462-5.5 5.5-5.5s5.5 2.462 5.5 5.5-2.462 5.5-5.5 5.5-5.5-2.462-5.5-5.5Z"/></svg>