<svg xmlns="http://www.w3.org/2000/svg" viewBox="0 0 20 20"><path d="M6.943 5.998c.277-.308.75-.333 1.059-.055l1.998 1.798 1.998-1.798c.308-.278.782-.253 1.06.055.277.308.252.782-.056 1.06l-2.252 2.026v.666h1.75c.414 0 .75.336.75.75s-.336.75-.75.75h-1.75v.75h1.75c.414 0 .75.336.75.75s-.336.75-.75.75h-1.75v.5c0 .414-.336.75-.75.75s-.75-.336-.75-.75v-.5h-1.75c-.414 0-.75-.336-.75-.75s.336-.75.75-.75h1.75v-.75h-1.75c-.414 0-.75-.336-.75-.75s.336-.75.75-.75h1.75v-.666l-2.252-2.027c-.308-.277-.333-.75-.055-1.059Z"/><path fill-rule="evenodd" d="M18 10c0 4.418-3.582 8-8 8s-8-3.582-8-8 3.582-8 8-8 8 3.582 8 8Zm-1.5 0c0 3.59-2.91 6.5-6.5 6.5s-6.5-2.91-6.5-6.5 2.91-6.5 6.5-6.5 6.5 2.91 6.5 6.5Z"/></svg>