<svg xmlns="http://www.w3.org/2000/svg" viewBox="0 0 20 20"><path d="M10 5.25c-.966 0-1.75.784-1.75 1.75v2.25h-1.25c-.414 0-.75.336-.75.75s.336.75.75.75h1.25v1.5h-1.25c-.414 0-.75.336-.75.75s.336.75.75.75h5.5c.414 0 .75-.336.75-.75s-.336-.75-.75-.75h-2.75v-1.5h1.25c.414 0 .75-.336.75-.75s-.336-.75-.75-.75h-1.25v-2.25c0-.138.112-.25.25-.25h1.25v.75c0 .414.336.75.75.75s.75-.336.75-.75v-1c0-.69-.56-1.25-1.25-1.25h-1.5Z"/><path fill-rule="evenodd" d="M18 10c0 4.418-3.582 8-8 8s-8-3.582-8-8 3.582-8 8-8 8 3.582 8 8Zm-1.5 0c0 3.59-2.91 6.5-6.5 6.5s-6.5-2.91-6.5-6.5 2.91-6.5 6.5-6.5 6.5 2.91 6.5 6.5Z"/></svg>