<svg xmlns="http://www.w3.org/2000/svg" viewBox="0 0 16 16"><path d="M9.889 11.893c.217-.353.107-.815-.246-1.032l-1.713-1.054c.585-.407.988-1.059 1.059-1.807h1.261c.414 0 .75-.336.75-.75s-.336-.75-.75-.75h-1.25v-.75h1.25c.414 0 .75-.336.75-.75s-.336-.75-.75-.75h-4.5c-.414 0-.75.336-.75.75s.336.75.75.75h1.75v.75h-1.75c-.414 0-.75.336-.75.75s.336.75.75.75h1.721c-.107.43-.496.75-.96.75-.902 0-1.237 1.184-.468 1.657l2.814 1.732c.353.217.815.107 1.032-.246Z"/><path fill-rule="evenodd" d="M8 1c-3.866 0-7 3.134-7 7s3.134 7 7 7 7-3.134 7-7-3.134-7-7-7Zm-5.5 7c0-3.038 2.462-5.5 5.5-5.5s5.5 2.462 5.5 5.5-2.462 5.5-5.5 5.5-5.5-2.462-5.5-5.5Z"/></svg>