<svg xmlns="http://www.w3.org/2000/svg" viewBox="0 0 20 20"><path fill-rule="evenodd" fill="currentColor" d="M14.772 9c-.63 0-1.232.254-1.669.704l-2.628 2.709c-.642.661-.632 1.712.023 2.361l1.79 1.777c.595.59 1.557.6 2.164.02l2.933-2.802c.393-.376.615-.894.615-1.436v-1.34c0-1.1-.899-1.993-2.008-1.993h-1.22Zm.978 3c.414 0 .75-.336.75-.75s-.336-.75-.75-.75-.75.336-.75.75.336.75.75.75Z"/><path d="M4.95 6.7c0-1.27 1.03-2.3 2.3-2.3h5.55c1.27 0 2.3 1.03 2.3 2.3v.4c0 .387.313.7.7.7.387 0 .7-.313.7-.7v-.4c0-2.043-1.656-3.7-3.7-3.7h-5.55c-2.043 0-3.7 1.657-3.7 3.7v6.55c0 2.044 1.657 3.7 3.7 3.7h1.75c.387 0 .7-.313.7-.7 0-.386-.313-.7-.7-.7h-1.75c-1.27 0-2.3-1.03-2.3-2.3v-6.55Z"/><path d="M7 7c0-.414.336-.75.75-.75h4.5c.414 0 .75.336.75.75s-.336.75-.75.75h-4.5c-.414 0-.75-.336-.75-.75Z"/><path d="M7 10c0-.414.336-.75.75-.75h2c.414 0 .75.336.75.75s-.336.75-.75.75h-2c-.414 0-.75-.336-.75-.75Z"/></svg>
