<svg viewBox="0 0 20 20" xmlns="http://www.w3.org/2000/svg"><path fill-rule="evenodd" d="M14.5 12.5v-.5h.5a2 2 0 0 0 2-2v-5a2 2 0 0 0-2-2h-5a2 2 0 0 0-2 2v.5h-.5a2 2 0 0 0-2 2v.5h-.5a2 2 0 0 0-2 2v5a2 2 0 0 0 2 2h5a2 2 0 0 0 2-2v-.5h.5a2 2 0 0 0 2-2Zm-4.5-8h5a.5.5 0 0 1 .5.5v5a.5.5 0 0 1-.5.5h-.5v-3a2 2 0 0 0-2-2h-3v-.5a.5.5 0 0 1 .5-.5Zm2 8.5h.5a.5.5 0 0 0 .5-.5v-5a.5.5 0 0 0-.5-.5h-5a.5.5 0 0 0-.5.5v.5h3a2 2 0 0 1 2 2v3Zm-7.5-3a.5.5 0 0 1 .5-.5h5a.5.5 0 0 1 .5.5v5a.5.5 0 0 1-.5.5h-5a.5.5 0 0 1-.5-.5v-5Z" fill="#5C5F62"/></svg>