<svg xmlns="http://www.w3.org/2000/svg" viewBox="0 0 16 16"><path d="M5.25 1.5c-.414 0-.75.336-.75.75s.336.75.75.75h5.5c.414 0 .75-.336.75-.75s-.336-.75-.75-.75h-5.5Z"/><path d="M3 4.5c0-.414.336-.75.75-.75h8.5c.414 0 .75.336.75.75s-.336.75-.75.75h-8.5c-.414 0-.75-.336-.75-.75Z"/><path fill-rule="evenodd" d="M1.5 8.75c0-1.519 1.231-2.75 2.75-2.75h7.5c1.519 0 2.75 1.231 2.75 2.75v3c0 1.519-1.231 2.75-2.75 2.75h-7.5c-1.519 0-2.75-1.231-2.75-2.75v-3Zm2.75-1.25c-.69 0-1.25.56-1.25 1.25v3c0 .69.56 1.25 1.25 1.25h7.5c.69 0 1.25-.56 1.25-1.25v-3c0-.69-.56-1.25-1.25-1.25h-7.5Z"/></svg>