<svg xmlns="http://www.w3.org/2000/svg" viewBox="0 0 20 20"><path d="M6.5 2.5c-.414 0-.75.336-.75.75s.336.75.75.75h7c.414 0 .75-.336.75-.75s-.336-.75-.75-.75h-7Z"/><path d="M4.25 6.25c0-.414.336-.75.75-.75h10c.414 0 .75.336.75.75s-.336.75-.75.75h-10c-.414 0-.75-.336-.75-.75Z"/><path fill-rule="evenodd" d="M2.5 11.25c0-1.519 1.231-2.75 2.75-2.75h9.5c1.519 0 2.75 1.231 2.75 2.75v3.5c0 1.519-1.231 2.75-2.75 2.75h-9.5c-1.519 0-2.75-1.231-2.75-2.75v-3.5Zm2.75-1.25c-.69 0-1.25.56-1.25 1.25v3.5c0 .69.56 1.25 1.25 1.25h9.5c.69 0 1.25-.56 1.25-1.25v-3.5c0-.69-.56-1.25-1.25-1.25h-9.5Z"/></svg>