<svg xmlns="http://www.w3.org/2000/svg" viewBox="0 0 16 16"><path fill-rule="evenodd" d="M4.25 1.5c-.552 0-1 .448-1 1v2c0 .552.448 1 1 1h.25v1.5h-.25c-1.519 0-2.75 1.231-2.75 2.75v2c0 1.519 1.231 2.75 2.75 2.75h2c1.519 0 2.75-1.231 2.75-2.75v-.25h1.5v.25c0 .552.448 1 1 1h2c.552 0 1-.448 1-1v-2c0-.552-.448-1-1-1h-2c-.552 0-1 .448-1 1v.25h-1.5v-.25c0-.487-.127-.944-.348-1.34l2.909-2.91h1.939c.552 0 1-.448 1-1v-2c0-.552-.448-1-1-1h-2c-.552 0-1 .448-1 1v1.94l-2.91 2.908c-.396-.221-.853-.348-1.34-.348h-.25v-1.5h.25c.552 0 1-.448 1-1v-2c0-.552-.448-1-1-1h-2Zm.5 1.5v1h1v-1h-1Zm-.5 5.5c-.69 0-1.25.56-1.25 1.25v2c0 .69.56 1.25 1.25 1.25h2c.69 0 1.25-.56 1.25-1.25v-2c0-.69-.56-1.25-1.25-1.25h-2Zm7.75-4.5v-1h1v1h-1Zm0 6.25v1h1v-1h-1Z"/></svg>