<svg viewBox="0 0 20 20" xmlns="http://www.w3.org/2000/svg"><path fill-rule="evenodd" d="M6.25 3a1 1 0 0 0-1 1v2a1 1 0 0 0 1 1h.25v1.5h-.5a3 3 0 0 0-3 3v2.5a3 3 0 0 0 3 3h2.5a3 3 0 0 0 3-3v-.5h1.5v.25a1 1 0 0 0 1 1h2a1 1 0 0 0 1-1v-2a1 1 0 0 0-1-1h-2a1 1 0 0 0-1 1v.25h-1.5v-.5c0-.556-.151-1.077-.415-1.524l2.976-2.976h1.939a1 1 0 0 0 1-1v-2a1 1 0 0 0-1-1h-2a1 1 0 0 0-1 1v1.94l-2.976 2.975a2.986 2.986 0 0 0-1.524-.415h-.5v-1.5h.25a1 1 0 0 0 1-1v-2a1 1 0 0 0-1-1h-2Zm.5 1.5v1h1v-1h-1Zm-.75 5.5a1.5 1.5 0 0 0-1.5 1.5v2.5a1.5 1.5 0 0 0 1.5 1.5h2.5a1.5 1.5 0 0 0 1.5-1.5v-2.5a1.5 1.5 0 0 0-1.5-1.5h-2.5Zm8.5-4.5v-1h1v1h-1Zm0 6.75v1h1v-1h-1Z" fill="#5C5F62"/></svg>