<svg xmlns="http://www.w3.org/2000/svg" viewBox="0 0 20 20"><path fill-rule="evenodd" d="M4 3.5c0-.552.448-1 1-1h3c.552 0 1 .448 1 1v3c0 .552-.448 1-1 1h-.75v2.25h.5c.42 0 .82.094 1.176.263l3.574-3.574v-2.939c0-.552.448-1 1-1h3c.552 0 1 .448 1 1v3c0 .552-.448 1-1 1h-2.94l-3.503 3.503c.28.431.443.945.443 1.497v.25h2v-.75c0-.552.448-1 1-1h3c.552 0 1 .448 1 1v3c0 .552-.448 1-1 1h-3c-.552 0-1-.448-1-1v-.75h-2v.75c0 1.519-1.231 2.75-2.75 2.75h-2.5c-1.519 0-2.75-1.231-2.75-2.75v-2.5c0-1.519 1.231-2.75 2.75-2.75h.5v-2.25h-.75c-.552 0-1-.448-1-1v-3Zm1.5 2.5v-2h2v2h-2Zm8.5 0h2v-2h-2v2Zm-8.75 5.25c-.69 0-1.25.56-1.25 1.25v2.5c0 .69.56 1.25 1.25 1.25h2.5c.69 0 1.25-.56 1.25-1.25v-2.5c0-.69-.56-1.25-1.25-1.25h-2.5Zm8.75 1.25v2h2v-2h-2Z"/></svg>