<svg xmlns="http://www.w3.org/2000/svg" viewBox="0 0 16 16"><path d="M2.75 2.25c0-.414-.336-.75-.75-.75s-.75.336-.75.75v11.5c0 .414.336.75.75.75s.75-.336.75-.75v-11.5Z"/><path d="M10.75 2.25c0-.414-.336-.75-.75-.75s-.75.336-.75.75v11.5c0 .414.336.75.75.75s.75-.336.75-.75v-11.5Z"/><path d="M6 1.5c.414 0 .75.336.75.75v11.5c0 .414-.336.75-.75.75s-.75-.336-.75-.75v-11.5c0-.414.336-.75.75-.75Z"/><path d="M14.75 2.25c0-.414-.336-.75-.75-.75s-.75.336-.75.75v11.5c0 .414.336.75.75.75s.75-.336.75-.75v-11.5Z"/></svg>