<svg xmlns="http://www.w3.org/2000/svg" viewBox="0 0 16 16"><path d="M7.971 2c-.204 0-.344 0-.465.024-.496.099-.883.486-.982.982-.024.121-.024.26-.024.465v9.058c0 .204 0 .344.024.465.099.496.486.883.982.982.121.024.26.024.465.024h.058c.204 0 .344 0 .465-.024.496-.099.883-.486.982-.982.024-.121.024-.26.024-.465v-9.058c0-.204 0-.344-.024-.465-.099-.496-.486-.883-.982-.982-.121-.024-.26-.024-.465-.024h-.058Z"/><path d="M3.471 7.5c-.204 0-.344 0-.465.024-.496.099-.883.486-.982.982-.024.121-.024.26-.024.465v3.558c0 .204 0 .344.024.465.099.496.486.883.982.982.121.024.26.024.465.024h.058c.204 0 .344 0 .465-.024.496-.099.883-.486.982-.982.024-.121.024-.26.024-.465v-3.558c0-.204 0-.344-.024-.465-.099-.496-.486-.883-.982-.982-.121-.024-.26-.024-.465-.024h-.058Z"/><path d="M12.471 4.5c-.204 0-.344 0-.465.024-.496.099-.883.486-.982.982-.024.121-.024.26-.024.465v6.558c0 .204 0 .344.024.465.099.496.486.883.982.982.121.024.26.024.465.024h.058c.204 0 .344 0 .465-.024.496-.099.883-.486.982-.982.024-.121.024-.26.024-.465v-6.558c0-.204 0-.344-.024-.465-.099-.496-.486-.883-.982-.982-.121-.024-.26-.024-.465-.024h-.058Z"/></svg>