<svg xmlns="http://www.w3.org/2000/svg" viewBox="0 0 16 16"><path fill-rule="evenodd" d="M2 7.5c.414 0 .75.336.75.75v6c0 .414-.336.75-.75.75s-.75-.336-.75-.75v-6c0-.414.336-.75.75-.75Z"/><path fill-rule="evenodd" d="M14 7.5c.414 0 .75.336.75.75v6c0 .414-.336.75-.75.75s-.75-.336-.75-.75v-6c0-.414.336-.75.75-.75Z"/><path fill-rule="evenodd" d="M6 7.5c.414 0 .75.336.75.75v6c0 .414-.336.75-.75.75s-.75-.336-.75-.75v-6c0-.414.336-.75.75-.75Z"/><path fill-rule="evenodd" d="M10 1c.414 0 .75.336.75.75v12.5c0 .414-.336.75-.75.75s-.75-.336-.75-.75v-12.5c0-.414.336-.75.75-.75Z"/></svg>