<svg xmlns="http://www.w3.org/2000/svg" viewBox="0 0 16 16"><path fill-rule="evenodd" d="M1.758 4.681c-.645-1.792.683-3.681 2.588-3.681h7.308c1.905 0 3.233 1.89 2.588 3.681l-3.06 8.5c-.393 1.092-1.428 1.819-2.588 1.819h-1.188c-1.16 0-2.195-.727-2.588-1.819l-3.06-8.5Zm2.588-2.181c-.866 0-1.47.859-1.176 1.673l.297.827h9.066l.297-.827c.294-.814-.31-1.673-1.176-1.673h-7.308Zm.651 6.75-.99-2.75h7.986l-.99 2.75h-6.006Zm.54 1.5.693 1.923c.178.496.649.827 1.176.827h1.188c.527 0 .998-.33 1.176-.827l.693-1.923h-4.926Z"/></svg>