<svg xmlns="http://www.w3.org/2000/svg" viewBox="0 0 16 16"><path fill-rule="evenodd" d="M7.952 1.5h.096c.182 0 .371 0 .543.034.695.138 1.237.68 1.375 1.375.035.172.034.361.034.543v9.096c0 .182 0 .371-.034.543-.138.695-.68 1.237-1.375 1.375-.172.035-.361.034-.543.034h-.096c-.182 0-.371 0-.543-.034-.695-.138-1.237-.68-1.375-1.375-.035-.172-.034-.361-.034-.543v-9.096c0-.182 0-.371.034-.543.138-.695.68-1.237 1.375-1.375.172-.035.361-.034.543-.034Zm-.253 1.505c-.097.02-.174.097-.194.194l-.003.053c-.002.055-.002.127-.002.248v9c0 .121 0 .193.002.248l.003.053c.02.097.097.174.194.194l.053.003c.055.002.127.002.248.002s.193 0 .248-.002l.053-.003c.097-.02.174-.097.194-.194l.003-.053c.002-.055.002-.127.002-.248v-9c0-.121 0-.193-.002-.248l-.003-.053c-.02-.097-.097-.174-.194-.194l-.053-.003c-.055-.002-.127-.002-.248-.002s-.193 0-.248.002l-.053.003Z"/><path fill-rule="evenodd" d="M3.452 7h.096c.182 0 .371 0 .543.034.695.138 1.237.68 1.375 1.375.035.172.034.361.034.543v3.596c0 .182 0 .371-.034.543-.138.695-.68 1.237-1.375 1.375-.172.035-.361.034-.543.034h-.096c-.182 0-.371 0-.543-.034-.695-.138-1.237-.68-1.375-1.375-.035-.172-.034-.361-.034-.543v-3.596c0-.182 0-.371.034-.543.138-.695.68-1.237 1.375-1.375.172-.035.361-.034.543-.034Zm-.253 1.505c-.097.02-.174.097-.194.194l-.003.053c-.002.055-.002.127-.002.248v3.5c0 .121 0 .193.002.248l.003.053c.02.097.097.174.194.194l.053.003c.055.002.127.002.248.002s.193 0 .248-.002l.053-.003c.097-.02.174-.097.194-.194l.003-.053c.002-.055.002-.127.002-.248v-3.5c0-.121 0-.193-.002-.248l-.003-.053c-.02-.097-.097-.174-.194-.194l-.053-.003c-.055-.002-.127-.002-.248-.002s-.193 0-.248.002l-.053.003Z"/><path fill-rule="evenodd" d="M12.5 4h-.048c-.182 0-.371 0-.543.034-.695.138-1.237.68-1.375 1.375-.035.172-.034.361-.034.543v6.596c0 .182 0 .371.034.543.138.695.68 1.237 1.375 1.375.172.035.361.034.543.034h.096c.182 0 .371 0 .543-.034.695-.138 1.237-.68 1.375-1.375.035-.172.034-.361.034-.543v-6.596c0-.182 0-.371-.034-.543-.138-.695-.68-1.237-1.375-1.375-.172-.035-.361-.034-.543-.034h-.048Zm-.495 1.7c.02-.098.097-.175.194-.195l.053-.003c.054-.002.127-.002.248-.002s.193 0 .248.002l.053.003c.097.02.174.097.194.194l.003.053c.002.055.002.127.002.248v6.5c0 .121 0 .193-.002.248l-.003.053c-.02.097-.097.174-.194.194l-.053.003c-.055.002-.127.002-.248.002s-.194 0-.248-.002l-.053-.003c-.097-.02-.174-.097-.194-.194l-.003-.053c-.002-.055-.002-.127-.002-.248v-6.5c0-.121 0-.193.002-.248l.003-.053v.002-.002Z"/></svg>