<svg xmlns="http://www.w3.org/2000/svg" viewBox="0 0 20 20"><path d="M9.971 4c-.204 0-.344 0-.465.024a1.25 1.25 0 0 0-.982.982c-.024.121-.024.26-.024.465v9.058c0 .204 0 .344.024.465.099.496.486.883.982.982a2.5 2.5 0 0 0 .465.024h.058c.204 0 .344 0 .465-.024a1.25 1.25 0 0 0 .982-.982 2.5 2.5 0 0 0 .024-.465v-9.058c0-.204 0-.344-.024-.465a1.25 1.25 0 0 0-.982-.982 2.504 2.504 0 0 0-.465-.024h-.058Z"/><path d="M5.471 9.5c-.204 0-.344 0-.465.024a1.25 1.25 0 0 0-.982.982c-.024.121-.024.26-.024.465v3.558c0 .204 0 .344.024.465.099.496.486.883.982.982a2.5 2.5 0 0 0 .465.024h.058c.204 0 .344 0 .465-.024a1.25 1.25 0 0 0 .982-.982c.024-.121.024-.26.024-.465v-3.558c0-.204 0-.344-.024-.465a1.25 1.25 0 0 0-.982-.982 2.503 2.503 0 0 0-.465-.024h-.058Z"/><path d="M14.471 6.5c-.204 0-.344 0-.465.024a1.25 1.25 0 0 0-.982.982c-.024.121-.024.26-.024.465v6.558c0 .204 0 .344.024.465.099.496.486.883.982.982.121.024.26.024.465.024h.058c.204 0 .344 0 .465-.024a1.25 1.25 0 0 0 .982-.982c.024-.121.024-.26.024-.465v-6.558c0-.204 0-.344-.024-.465a1.25 1.25 0 0 0-.982-.982 2.504 2.504 0 0 0-.465-.024h-.058Z"/></svg>