<svg xmlns="http://www.w3.org/2000/svg" viewBox="0 0 16 16"><path fill-rule="evenodd" d="M9 3.452v.096c0 .182 0 .371-.034.543-.138.695-.68 1.237-1.375 1.375-.172.035-.361.034-.543.034h-3.596c-.182 0-.371 0-.543-.034-.695-.138-1.237-.68-1.375-1.375-.035-.172-.034-.361-.034-.543v-.096c0-.182 0-.371.034-.543.138-.695.68-1.237 1.375-1.375.172-.035.361-.034.543-.034h3.596c.182 0 .371 0 .543.034.695.138 1.237.68 1.375 1.375.035.172.034.361.034.543Zm-1.505-.253c-.02-.097-.097-.174-.194-.194l-.053-.003c-.055-.002-.127-.002-.248-.002h-3.5c-.121 0-.193 0-.248.002l-.053.003c-.097.02-.174.097-.194.194l-.003.053c-.002.055-.002.127-.002.248s0 .193.002.248l.003.053c.02.097.097.174.194.194l.053.003c.055.002.127.002.248.002h3.5c.121 0 .193 0 .248-.002l.053-.003c.097-.02.174-.097.194-.194l.003-.053c.002-.055.002-.127.002-.248s0-.193-.002-.248l-.003-.053Z"/><path fill-rule="evenodd" d="M14.5 7.952v.096c0 .182 0 .371-.034.543-.138.695-.68 1.237-1.375 1.375-.172.035-.361.034-.543.034h-9.096c-.182 0-.371 0-.543-.034-.695-.138-1.237-.68-1.375-1.375-.035-.172-.034-.361-.034-.543v-.096c0-.182 0-.371.034-.543.138-.695.68-1.237 1.375-1.375.172-.035.361-.034.543-.034h9.096c.182 0 .371 0 .543.034.695.138 1.237.68 1.375 1.375.035.172.034.361.034.543Zm-1.505-.253c-.02-.097-.097-.174-.194-.194l-.053-.003c-.055-.002-.127-.002-.248-.002h-9c-.121 0-.193 0-.248.002l-.053.003c-.097.02-.174.097-.194.194l-.003.053c-.002.055-.002.127-.002.248s0 .193.002.248l.003.053c.02.097.097.174.194.194l.053.003c.055.002.127.002.248.002h9c.121 0 .193 0 .248-.002l.053-.003c.097-.02.174-.097.194-.194l.003-.053c.002-.055.002-.127.002-.248s0-.193-.002-.248l-.003-.053Z"/><path fill-rule="evenodd" d="M12 12.5v-.048c0-.182 0-.371-.034-.543-.138-.695-.68-1.237-1.375-1.375-.172-.035-.361-.034-.543-.034h-6.596c-.182 0-.371 0-.543.034-.695.138-1.237.68-1.375 1.375-.035.172-.034.361-.034.543v.096c0 .182 0 .371.034.543.138.695.68 1.237 1.375 1.375.172.035.361.034.543.034h6.596c.182 0 .371 0 .543-.034.695-.138 1.237-.68 1.375-1.375.035-.172.034-.361.034-.543v-.048Zm-1.7-.495c.098.02.175.097.195.194l.003.053c.002.055.002.127.002.248s0 .193-.002.248l-.003.053c-.02.097-.097.174-.194.194l-.053.003c-.055.002-.127.002-.248.002h-6.5c-.121 0-.193 0-.248-.002l-.053-.003c-.097-.02-.174-.097-.194-.194l-.003-.053c-.002-.055-.002-.127-.002-.248s0-.193.002-.248l.003-.053c.02-.097.097-.174.194-.194l.053-.003c.055-.002.127-.002.248-.002h6.5c.121 0 .193 0 .248.002l.053.003h-.002.002Z"/></svg>