<svg xmlns="http://www.w3.org/2000/svg" viewBox="0 0 20 20"><path fill-rule="evenodd" d="M15.728 2h.044c.214 0 .41 0 .576.011.178.012.373.04.572.122.428.178.77.519.947.947.082.199.11.394.122.572.011.165.011.362.011.576v11.544c0 .214 0 .41-.011.576-.012.178-.04.373-.122.572-.178.428-.518.77-.947.947-.199.082-.394.11-.572.122-.165.011-.362.011-.576.011h-.044c-.214 0-.41 0-.576-.011-.178-.012-.373-.04-.572-.122-.428-.178-.77-.518-.947-.947-.082-.199-.11-.394-.122-.572-.011-.165-.011-.362-.011-.576v-11.544c0-.214 0-.41.011-.576.012-.178.04-.373.122-.572.178-.428.519-.77.947-.947.199-.082.394-.11.572-.122.165-.011.362-.011.576-.011Zm-.577 1.52c-.059.026-.105.072-.13.131-.003.008-.009.036-.013.103-.008.108-.008.253-.008.496v11.5c0 .243 0 .388.008.496.004.067.01.095.012.103.026.058.072.105.131.13.008.003.036.009.103.013.108.008.253.008.496.008s.388 0 .496-.008c.067-.004.095-.01.103-.012.058-.026.105-.073.13-.131.003-.008.009-.036.013-.103.008-.108.008-.253.008-.496v-11.5c0-.243 0-.388-.008-.496-.004-.067-.01-.095-.012-.103-.026-.059-.073-.105-.131-.13-.008-.003-.036-.009-.103-.013-.108-.008-.253-.008-.496-.008s-.388 0-.496.008c-.067.004-.095.01-.103.012Z"/><path fill-rule="evenodd" d="M4.228 10h.044c.214 0 .41 0 .576.011.178.012.373.04.572.122.428.178.77.519.947.947.082.199.11.394.122.572.011.165.011.362.011.576v3.544c0 .214 0 .41-.011.576-.012.178-.04.373-.122.572-.178.428-.519.77-.947.947-.199.082-.394.11-.572.122-.165.011-.362.011-.576.011h-.044c-.214 0-.41 0-.576-.011-.178-.012-.373-.04-.572-.122-.428-.178-.77-.518-.947-.947-.082-.199-.11-.394-.122-.572-.011-.165-.011-.362-.011-.576v-3.544c0-.214 0-.41.011-.576.012-.178.04-.373.122-.572.178-.428.519-.77.947-.947.199-.082.394-.11.572-.122.165-.011.362-.011.576-.011Zm-.577 1.52c-.059.026-.105.072-.13.131-.003.008-.009.036-.013.103-.008.108-.008.253-.008.496v3.5c0 .243 0 .388.008.496.004.067.01.095.012.103.026.058.072.105.131.13.008.003.036.009.103.013.108.008.253.008.496.008s.388 0 .496-.008c.067-.004.095-.01.103-.012.059-.026.105-.073.13-.131.003-.008.009-.036.013-.103.008-.108.008-.253.008-.496v-3.5c0-.243 0-.388-.008-.496-.004-.067-.01-.095-.012-.103-.026-.059-.072-.105-.131-.13-.008-.003-.036-.009-.103-.013-.108-.008-.253-.008-.496-.008s-.388 0-.496.008c-.067.004-.095.01-.103.012Z"/><path fill-rule="evenodd" d="M9.978 6c-.214 0-.41 0-.576.011-.178.012-.373.04-.572.122-.428.178-.77.519-.947.947-.082.199-.11.394-.122.572-.011.165-.011.362-.011.576v7.544c0 .214 0 .41.011.576.012.178.04.373.122.572.178.428.519.77.947.947.199.082.394.11.572.122.165.011.362.011.576.011h.044c.214 0 .41 0 .576-.011.178-.012.373-.04.572-.122.428-.178.77-.518.947-.947.082-.199.11-.394.122-.572.011-.165.011-.362.011-.576v-7.544c0-.214 0-.41-.011-.576-.012-.178-.04-.373-.122-.572-.178-.428-.519-.77-.947-.947-.199-.082-.394-.11-.572-.122-.165-.011-.362-.011-.576-.011h-.044Zm-.708 1.651c.026-.059.072-.105.131-.13.008-.003.036-.009.103-.013.108-.008.253-.008.496-.008s.388 0 .496.008c.067.004.095.01.103.012.059.026.105.072.13.131.003.008.009.036.013.103.008.108.008.253.008.496v7.5c0 .243 0 .388-.008.496-.004.067-.01.095-.012.103-.026.058-.072.105-.131.13-.008.003-.036.009-.103.013-.108.008-.253.008-.496.008s-.388 0-.496-.008c-.067-.004-.095-.01-.103-.012-.059-.026-.105-.073-.13-.131-.003-.008-.009-.036-.013-.103-.008-.108-.008-.253-.008-.496v-7.5c0-.243 0-.388.008-.496.004-.067.01-.095.012-.103Z"/></svg>