<svg xmlns="http://www.w3.org/2000/svg" viewBox="0 0 16 16"><path fill-rule="evenodd" d="M15.938 7.003c.068.548-.386.997-.938.997 0 3.866-3.134 7-7 7s-7-3.134-7-7 3.134-7 7-7v1.5c-3.038 0-5.5 2.462-5.5 5.5s2.462 5.5 5.5 5.5 5.5-2.462 5.5-5.5h-2.5c0 1.657-1.343 3-3 3s-3-1.343-3-3 1.343-3 3-3v-4c0-.552.45-1.006.997-.938.708.09 1.403.273 2.065.547.97.402 1.852.991 2.595 1.734.743.743 1.332 1.625 1.734 2.596.274.661.458 1.356.547 2.064Zm-1.613-.503c-.08-.336-.187-.667-.32-.987-.326-.79-.805-1.506-1.409-2.11-.603-.603-1.32-1.082-2.109-1.408-.32-.133-.65-.24-.987-.32v3.612c.253.14.486.315.692.521.206.206.38.439.52.692h3.613Zm-6.325 3c-.828 0-1.5-.672-1.5-1.5s.672-1.5 1.5-1.5 1.5.672 1.5 1.5-.672 1.5-1.5 1.5Z"/></svg>