<svg xmlns="http://www.w3.org/2000/svg" viewBox="0 0 20 20"><path fill-rule="evenodd" d="M3.258 6.181c-.645-1.792.683-3.681 2.588-3.681h8.308c1.905 0 3.233 1.89 2.588 3.681l-3.406 9.462c-.393 1.091-1.428 1.819-2.588 1.819h-1.496c-1.16 0-2.195-.728-2.588-1.819l-3.406-9.462Zm2.588-2.181c-.866 0-1.47.859-1.176 1.673l.297.828.033-.001h10.033l.298-.827c.293-.814-.31-1.673-1.177-1.673h-8.308Zm.741 7-1.08-3h8.986l-1.08 3h-6.826Zm.54 1.5.949 2.635c.178.496.649.826 1.176.826h1.496c.527 0 .998-.33 1.176-.826l.949-2.635h-5.746Z"/></svg>