<svg xmlns="http://www.w3.org/2000/svg" viewBox="0 0 20 20"><path fill-rule="evenodd" d="M7.92 3.5c-.488 0-.906.35-.991.83l-1.187 6.672c-.234 1.312-1.375 2.268-2.708 2.268h-.284c-.414 0-.75-.336-.75-.75s.336-.75.75-.75h.284c.606 0 1.125-.434 1.231-1.031l1.187-6.671c.213-1.196 1.253-2.068 2.468-2.068 1.282 0 2.357.967 2.493 2.242l1.21 11.364c.053.508.482.894.993.894h.063c.49 0 .91-.357.987-.841l.613-3.815c.214-1.334 1.365-2.314 2.715-2.314h.256c.414 0 .75.336.75.75s-.336.75-.75.75h-.256c-.613 0-1.136.446-1.234 1.052l-.613 3.815c-.195 1.212-1.24 2.103-2.468 2.103h-.063c-1.278 0-2.35-.964-2.486-2.236l-1.209-11.364c-.054-.512-.486-.9-1.001-.9Z"/></svg>