<svg xmlns="http://www.w3.org/2000/svg" viewBox="0 0 16 16"><path fill-rule="evenodd" d="M6.447 2.5c-.446 0-.828.319-.908.757l-1.002 5.487c-.238 1.307-1.377 2.256-2.705 2.256h-.082c-.414 0-.75-.336-.75-.75s.336-.75.75-.75h.082c.604 0 1.121-.432 1.23-1.026l1.001-5.486c.21-1.151 1.214-1.988 2.384-1.988 1.268 0 2.322.978 2.416 2.243l.716 9.612c.027.364.33.645.695.645.34 0 .632-.246.688-.582l.52-3.12c.22-1.326 1.368-2.298 2.712-2.298h.056c.414 0 .75.336.75.75s-.336.75-.75.75h-.056c-.61 0-1.132.442-1.233 1.044l-.52 3.12c-.176 1.06-1.093 1.836-2.167 1.836-1.15 0-2.105-.887-2.19-2.034l-.717-9.612c-.035-.481-.437-.854-.92-.854Z"/></svg>