<svg xmlns="http://www.w3.org/2000/svg" viewBox="0 0 20 20"><path d="M10.009 3h-.018c-.225 0-.407 0-.555.01-.152.01-.287.032-.414.085-.307.127-.55.37-.677.677-.053.127-.075.262-.085.414-.01.148-.01.33-.01.555v10.518c0 .225 0 .407.01.555.01.152.032.287.085.414.127.307.37.55.677.677.127.053.262.075.414.085.148.01.33.01.555.01h.018c.225 0 .407 0 .555-.01.152-.01.287-.032.414-.085.307-.127.55-.37.677-.677.053-.127.075-.262.085-.414.01-.148.01-.33.01-.555v-10.518c0-.225 0-.407-.01-.555-.01-.152-.032-.287-.085-.414-.127-.307-.37-.55-.677-.677-.127-.053-.262-.075-.414-.085-.148-.01-.33-.01-.555-.01Z"/><path d="M4.259 8.5h-.018c-.225 0-.407 0-.555.01-.152.01-.287.032-.414.085-.307.127-.55.37-.677.677-.053.127-.075.262-.085.414-.01.148-.01.33-.01.555v5.018c0 .225 0 .407.01.555.01.152.032.287.085.414.127.307.37.55.677.677.127.053.262.075.414.085.148.01.33.01.555.01h.018c.225 0 .407 0 .555-.01.152-.01.287-.032.414-.085.307-.127.55-.37.677-.677.053-.127.075-.262.085-.414.01-.148.01-.33.01-.555v-5.018c0-.225 0-.407-.01-.555-.01-.152-.032-.287-.085-.414-.127-.307-.37-.55-.677-.677-.127-.053-.262-.075-.414-.085-.148-.01-.33-.01-.555-.01Z"/><path d="M15.759 5.5h-.018c-.225 0-.407 0-.555.01-.152.01-.287.032-.414.085-.307.127-.55.37-.677.677-.053.127-.075.262-.085.414-.01.148-.01.33-.01.555v8.018c0 .225 0 .407.01.555.01.152.032.287.085.414.127.307.37.55.677.677.127.053.262.075.414.085.148.01.33.01.555.01h.018c.225 0 .407 0 .555-.01.152-.01.287-.032.414-.085.307-.127.55-.37.677-.677.053-.127.075-.262.085-.414.01-.148.01-.33.01-.555v-8.018c0-.225 0-.407-.01-.555-.01-.152-.032-.287-.085-.414-.127-.307-.37-.55-.677-.677-.127-.053-.262-.075-.414-.085-.148-.01-.33-.01-.555-.01Z"/></svg>