<svg xmlns="http://www.w3.org/2000/svg" viewBox="0 0 20 20"><path fill-rule="evenodd" d="M17.941 9.502c.065.549-.389.998-.941.998h-.504c.003.083.004.166.004.25 0 4.004-3.246 7.25-7.25 7.25s-7.25-3.246-7.25-7.25 3.246-7.25 7.25-7.25c.084 0 .167.001.25.004v1.501c-.083-.003-.166-.005-.25-.005-3.176 0-5.75 2.574-5.75 5.75s2.574 5.75 5.75 5.75 5.75-2.574 5.75-5.75c0-.084-.002-.167-.005-.25h-2.254c.006.083.009.166.009.25 0 1.933-1.567 3.5-3.5 3.5s-3.5-1.567-3.5-3.5 1.567-3.5 3.5-3.5c.084 0 .167.003.25.009v-4.259c0-.552.45-1.006.998-.941.773.091 1.532.289 2.255.588 1.031.427 1.968 1.053 2.757 1.843.79.789 1.416 1.726 1.843 2.757.3.723.497 1.482.588 2.255Zm-1.604-.502c-.088-.402-.212-.797-.37-1.179-.352-.849-.867-1.62-1.517-2.27-.65-.65-1.422-1.166-2.271-1.518-.382-.158-.777-.282-1.179-.37v4.01c.28.15.537.34.763.564.225.226.415.483.564.763h4.01Zm-7.087 3.75c-1.105 0-2-.895-2-2s.895-2 2-2 2 .895 2 2-.895 2-2 2Z"/></svg>