<svg xmlns="http://www.w3.org/2000/svg" viewBox="0 0 20 20"><path fill-rule="evenodd" d="M3.25 3c.414 0 .75.336.75.75v12.5c0 .414-.336.75-.75.75s-.75-.336-.75-.75v-12.5c0-.414.336-.75.75-.75Z"/><path fill-rule="evenodd" d="M12.25 3c.414 0 .75.336.75.75v12.5c0 .414-.336.75-.75.75s-.75-.336-.75-.75v-12.5c0-.414.336-.75.75-.75Z"/><path fill-rule="evenodd" d="M7.75 3c.414 0 .75.336.75.75v12.5c0 .414-.336.75-.75.75s-.75-.336-.75-.75v-12.5c0-.414.336-.75.75-.75Z"/><path fill-rule="evenodd" d="M16.75 3c.414 0 .75.336.75.75v12.5c0 .414-.336.75-.75.75s-.75-.336-.75-.75v-12.5c0-.414.336-.75.75-.75Z"/></svg>