<svg xmlns="http://www.w3.org/2000/svg" viewBox="0 0 20 20"><path fill-rule="evenodd" d="M11 5.452v.096c0 .182 0 .371-.034.544a1.75 1.75 0 0 1-1.375 1.374 2.824 2.824 0 0 1-.543.034h-3.596c-.182 0-.371 0-.543-.034a1.75 1.75 0 0 1-1.375-1.375 2.825 2.825 0 0 1-.034-.543v-.096c0-.182 0-.371.034-.543a1.75 1.75 0 0 1 1.375-1.375c.172-.035.361-.034.543-.034h3.596c.182 0 .371 0 .543.034a1.75 1.75 0 0 1 1.375 1.375c.035.172.034.361.034.543Zm-1.505-.253a.25.25 0 0 0-.194-.194 8.216 8.216 0 0 0-.3-.005h-3.501a8.216 8.216 0 0 0-.3.005.25.25 0 0 0-.195.194 8.217 8.217 0 0 0-.005.3 8.216 8.216 0 0 0 .005.302.25.25 0 0 0 .194.194l.053.003c.055.002.127.002.248.002h3.5a8.207 8.207 0 0 0 .3-.005.25.25 0 0 0 .195-.194 8.216 8.216 0 0 0 .005-.3 8.217 8.217 0 0 0-.005-.302Z"/><path fill-rule="evenodd" d="M16.5 9.952v.096c0 .182 0 .371-.034.543a1.75 1.75 0 0 1-1.375 1.376 2.825 2.825 0 0 1-.543.033h-9.096c-.182 0-.371 0-.543-.034a1.75 1.75 0 0 1-1.375-1.374 2.826 2.826 0 0 1-.034-.544v-.096c0-.182 0-.371.034-.543a1.75 1.75 0 0 1 1.375-1.375c.172-.035.361-.034.543-.034h9.096c.182 0 .371 0 .543.034a1.75 1.75 0 0 1 1.375 1.375c.035.172.034.361.034.543Zm-1.505-.253a.25.25 0 0 0-.194-.194 8.221 8.221 0 0 0-.3-.005h-9.001a8.216 8.216 0 0 0-.3.005.25.25 0 0 0-.195.194 8.217 8.217 0 0 0-.005.3 8.221 8.221 0 0 0 .005.302.25.25 0 0 0 .194.194l.053.003c.055.002.127.002.248.002h9c.121 0 .193 0 .248-.002l.053-.003a.25.25 0 0 0 .194-.194l.003-.053a8.05 8.05 0 0 0 .002-.248c0-.121 0-.193-.002-.248l-.003-.053Z"/><path fill-rule="evenodd" d="M14 14.5v-.048c0-.182 0-.371-.034-.543a1.75 1.75 0 0 0-1.375-1.375c-.172-.035-.361-.034-.543-.034h-6.596c-.182 0-.371 0-.543.034a1.75 1.75 0 0 0-1.375 1.375 2.826 2.826 0 0 0-.034.543v.096c0 .182 0 .371.034.543a1.75 1.75 0 0 0 1.375 1.376c.172.034.361.033.543.033h6.596c.182 0 .371 0 .543-.034a1.75 1.75 0 0 0 1.375-1.375c.035-.172.034-.36.034-.543v-.048Zm-1.7-.495a.25.25 0 0 1 .195.194l.003.053c.002.055.002.127.002.248s0 .194-.002.248l-.003.053a.25.25 0 0 1-.194.194l-.053.003a8.05 8.05 0 0 1-.248.002h-6.5c-.121 0-.193 0-.248-.002l-.053-.003a.25.25 0 0 1-.194-.194 8.221 8.221 0 0 1-.005-.3 8.217 8.217 0 0 1 .005-.302.25.25 0 0 1 .194-.194l.053-.003c.055-.002.127-.002.248-.002h6.5a8.05 8.05 0 0 1 .3.005h-.001.002Z"/></svg>