<svg xmlns="http://www.w3.org/2000/svg" viewBox="0 0 16 16"><path d="M4 6c0-.414.336-.75.75-.75h5.5c.414 0 .75.336.75.75s-.336.75-.75.75h-5.5c-.414 0-.75-.336-.75-.75Z"/><path d="M4.75 7.5c-.414 0-.75.336-.75.75s.336.75.75.75h3.5c.414 0 .75-.336.75-.75s-.336-.75-.75-.75h-3.5Z"/><path fill-rule="evenodd" d="M1 6.75c0-2.623 2.127-4.75 4.75-4.75h4.5c2.623 0 4.75 2.127 4.75 4.75v.75c0 2.623-2.127 4.75-4.75 4.75h-1.626l-3.178 2.353c-.227.168-.53.194-.783.067-.253-.128-.413-.387-.413-.67v-1.992c-1.888-.628-3.25-2.408-3.25-4.508v-.75Zm4.75-3.25c-1.795 0-3.25 1.455-3.25 3.25v.75c0 1.586 1.137 2.908 2.64 3.193.354.067.61.377.61.737v1.082l2.18-1.615c.13-.095.286-.147.447-.147h1.873c1.795 0 3.25-1.455 3.25-3.25v-.75c0-1.795-1.455-3.25-3.25-3.25h-4.5Z"/></svg>