<svg viewBox="0 0 20 20" xmlns="http://www.w3.org/2000/svg"><path fill-rule="evenodd" d="m7.5 14.89-1.5 1.11v-2.625a2.5 2.5 0 0 1-2.5-2.5v-2.875a2.5 2.5 0 0 1 2.5-2.5h8a2.5 2.5 0 0 1 2.5 2.5v2.875a2.5 2.5 0 0 1-2.5 2.5h-4.455l-2.045 1.514Zm2.54-.015h3.96a4 4 0 0 0 4-4v-2.875a4 4 0 0 0-4-4h-8a4 4 0 0 0-4 4v2.875a4.001 4.001 0 0 0 2.5 3.71v1.415a1.5 1.5 0 0 0 2.393 1.206l3.147-2.331Zm-4.54-6.875a.75.75 0 0 1 .75-.75h5.5a.75.75 0 0 1 0 1.5h-5.5a.75.75 0 0 1-.75-.75Zm.75 2a.75.75 0 0 0 0 1.5h3.5a.75.75 0 0 0 0-1.5h-3.5Z" fill="#5C5F62"/></svg>