<svg xmlns="http://www.w3.org/2000/svg" viewBox="0 0 20 20"><path d="M3.5 8.18c0-2.05 1.616-3.68 3.57-3.68h3.82c.414 0 .75-.336.75-.75s-.336-.75-.75-.75h-3.82c-2.818 0-5.07 2.338-5.07 5.18v.832c0 2.294 1.464 4.255 3.51 4.93v2.27c0 .276.152.53.396.66.244.131.54.117.77-.037l3.958-2.643h2.296c2.426 0 4.434-1.735 4.944-4.03.09-.404-.165-.804-.57-.894-.404-.09-.804.165-.894.57-.366 1.647-1.797 2.854-3.48 2.854h-2.523c-.149 0-.293.044-.417.127l-2.98 1.99v-1.444c0-.36-.254-.668-.607-.737-1.64-.319-2.903-1.806-2.903-3.616v-.831Z"/><path d="M13.722 3c-.414 0-.75.336-.75.75s.336.75.75.75h1.717l-3.97 3.97c-.292.293-.292.767 0 1.06.294.293.768.293 1.061 0l3.97-3.97v1.718c0 .414.336.75.75.75s.75-.336.75-.75v-3.528c0-.199-.079-.39-.22-.53-.14-.141-.331-.22-.53-.22h-3.528Z"/></svg>