<svg xmlns="http://www.w3.org/2000/svg" viewBox="0 0 20 20"><path d="M6 7.25c0-.414.336-.75.75-.75h5.5c.414 0 .75.336.75.75s-.336.75-.75.75h-5.5c-.414 0-.75-.336-.75-.75Z"/><path d="M6.75 9.5c-.414 0-.75.336-.75.75s.336.75.75.75h3.5c.414 0 .75-.336.75-.75s-.336-.75-.75-.75h-3.5Z"/><path fill-rule="evenodd" d="M2 7.75c0-2.623 2.127-4.75 4.75-4.75h6.5c2.623 0 4.75 2.127 4.75 4.75v1.722c0 2.624-2.127 4.75-4.75 4.75h-2.574l-3.722 2.64c-.229.162-.53.183-.778.054-.25-.128-.406-.386-.406-.666v-2.13c-2.153-.45-3.77-2.36-3.77-4.648v-1.722Zm4.75-3.25c-1.795 0-3.25 1.455-3.25 3.25v1.722c0 1.732 1.355 3.148 3.062 3.245.398.022.708.351.708.749v1.333l2.733-1.939c.127-.09.278-.138.434-.138h2.813c1.795 0 3.25-1.455 3.25-3.25v-1.722c0-1.795-1.455-3.25-3.25-3.25h-6.5Z"/></svg>