<svg xmlns="http://www.w3.org/2000/svg" viewBox="0 0 16 16"><path d="M2.5 6.75c0-1.795 1.455-3.25 3.25-3.25h3.75c.414 0 .75-.336.75-.75s-.336-.75-.75-.75h-3.75c-2.623 0-4.75 2.127-4.75 4.75v.75c0 2.1 1.362 3.88 3.25 4.508v1.992c0 .283.16.542.413.67.252.127.556.101.783-.067l3.178-2.353h1.626c2.623 0 4.75-2.127 4.75-4.75 0-.414-.336-.75-.75-.75s-.75.336-.75.75c0 1.795-1.455 3.25-3.25 3.25h-1.873c-.161 0-.318.052-.447.147l-2.18 1.614v-1.081c0-.36-.256-.67-.61-.737-1.503-.285-2.64-1.607-2.64-3.193v-.75Z"/><path d="M11.75 2c-.414 0-.75.336-.75.75s.336.75.75.75h.69l-3.22 3.22c-.293.293-.293.767 0 1.06.293.293.767.293 1.06 0l3.22-3.22v.69c0 .414.336.75.75.75s.75-.336.75-.75v-2.5c0-.414-.336-.75-.75-.75h-2.5Z"/></svg>