<svg xmlns="http://www.w3.org/2000/svg" viewBox="0 0 16 16"><path d="M11.28 6.78c.293-.293.293-.767 0-1.06-.293-.293-.767-.293-1.06 0l-2.97 2.97-1.22-1.22c-.293-.293-.767-.293-1.06 0-.293.293-.293.767 0 1.06l1.75 1.75c.293.293.767.293 1.06 0l3.5-3.5Z"/><path fill-rule="evenodd" d="M4.25 1.5c-1.519 0-2.75 1.231-2.75 2.75v7.5c0 1.519 1.231 2.75 2.75 2.75h7.5c1.519 0 2.75-1.231 2.75-2.75v-7.5c0-1.519-1.231-2.75-2.75-2.75h-7.5Zm-1.25 2.75c0-.69.56-1.25 1.25-1.25h7.5c.69 0 1.25.56 1.25 1.25v7.5c0 .69-.56 1.25-1.25 1.25h-7.5c-.69 0-1.25-.56-1.25-1.25v-7.5Z"/></svg>