<svg xmlns="http://www.w3.org/2000/svg" viewBox="0 0 20 20"><path d="M8.75 10.25a1 1 0 1 1-2 0 1 1 0 0 1 2 0Z"/><path d="M7.75 14.25a1 1 0 1 0 0-2 1 1 0 0 0 0 2Z"/><path d="M9.75 10.25a.75.75 0 0 1 .75-.75h2a.75.75 0 0 1 0 1.5h-2a.75.75 0 0 1-.75-.75Z"/><path d="M10.5 12.5a.75.75 0 0 0 0 1.5h2a.75.75 0 0 0 0-1.5h-2Z"/><path fill-rule="evenodd" d="M6.515 4.75a2 2 0 0 1 1.985-1.75h3a2 2 0 0 1 1.985 1.75h.265a2.25 2.25 0 0 1 2.25 2.25v7.75a2.25 2.25 0 0 1-2.25 2.25h-7.5a2.25 2.25 0 0 1-2.25-2.25v-7.75a2.25 2.25 0 0 1 2.25-2.25h.265Zm1.985-.25h3a.5.5 0 0 1 .5.5v1a.5.5 0 0 1-.5.5h-3a.5.5 0 0 1-.5-.5v-1a.5.5 0 0 1 .5-.5Zm-2.25 1.75h.265a2 2 0 0 0 1.985 1.75h3a2 2 0 0 0 1.985-1.75h.265a.75.75 0 0 1 .75.75v7.75a.75.75 0 0 1-.75.75h-7.5a.75.75 0 0 1-.75-.75v-7.75a.75.75 0 0 1 .75-.75Z"/></svg>