<svg xmlns="http://www.w3.org/2000/svg" viewBox="0 0 20 20"><path fill-rule="evenodd" d="M2.5 5.25c0-1.519 1.231-2.75 2.75-2.75h9.5c1.519 0 2.75 1.231 2.75 2.75v9.5c0 1.519-1.231 2.75-2.75 2.75h-9.5c-1.519 0-2.75-1.231-2.75-2.75v-9.5Zm2.75-1.25c-.69 0-1.25.56-1.25 1.25v9.5c0 .69.56 1.25 1.25 1.25h9.5c.69 0 1.25-.56 1.25-1.25v-9.5c0-.69-.56-1.25-1.25-1.25h-9.5Z"/><path fill-rule="evenodd" d="M14.194 7.47c.293.293.293.767 0 1.06l-4.207 4.207c-.292.293-.767.293-1.06 0l-2.457-2.457c-.293-.293-.293-.767 0-1.06.293-.293.767-.293 1.06 0l1.927 1.926 3.677-3.676c.293-.293.768-.293 1.06 0Z"/></svg>