<svg xmlns="http://www.w3.org/2000/svg" viewBox="0 0 12 12"><path d="m6.816 8.442 2-2c.245-.244.245-.64 0-.884l-2-2c-.244-.244-.64-.244-.883 0-.244.244-.244.64 0 .884l.933.933h-3.242c-.345 0-.625.28-.625.625s.28.625.625.625h3.242l-.933.933c-.244.244-.244.64 0 .884s.64.244.883 0Z"/><path fill-rule="evenodd" d="M11.5 6c0 3.038-2.462 5.5-5.5 5.5s-5.5-2.462-5.5-5.5 2.462-5.5 5.5-5.5 5.5 2.462 5.5 5.5Zm-1.25 0c0 2.347-1.903 4.25-4.25 4.25s-4.25-1.903-4.25-4.25 1.903-4.25 4.25-4.25 4.25 1.903 4.25 4.25Z"/></svg>