<svg xmlns="http://www.w3.org/2000/svg" viewBox="0 0 12 12"><path d="M6.441 3.183c-.244-.244-.64-.244-.883 0l-2 2c-.245.244-.245.64 0 .884.244.244.64.244.883 0l.934-.933v3.241c0 .345.28.625.625.625s.625-.28.625-.625v-3.241l.933.933c.244.244.64.244.883 0 .245-.244.245-.64 0-.884l-2-2Z"/><path fill-rule="evenodd" d="M11.5 6c0 3.038-2.462 5.5-5.5 5.5s-5.5-2.462-5.5-5.5 2.462-5.5 5.5-5.5 5.5 2.462 5.5 5.5Zm-1.25 0c0 2.347-1.903 4.25-4.25 4.25s-4.25-1.903-4.25-4.25 1.903-4.25 4.25-4.25 4.25 1.903 4.25 4.25Z"/></svg>