<svg xmlns="http://www.w3.org/2000/svg" viewBox="0 0 20 20"><path d="M6.5 11.25c.69 0 1.25-.56 1.25-1.25s-.56-1.25-1.25-1.25-1.25.56-1.25 1.25.56 1.25 1.25 1.25Z"/><path d="M10 11.25c.69 0 1.25-.56 1.25-1.25s-.56-1.25-1.25-1.25-1.25.56-1.25 1.25.56 1.25 1.25 1.25Z"/><path d="M14.75 10c0 .69-.56 1.25-1.25 1.25s-1.25-.56-1.25-1.25.56-1.25 1.25-1.25 1.25.56 1.25 1.25Z"/><path fill-rule="evenodd" d="M18 10c0 4.418-3.582 8-8 8s-8-3.582-8-8 3.582-8 8-8 8 3.582 8 8Zm-1.5 0c0 3.59-2.91 6.5-6.5 6.5s-6.5-2.91-6.5-6.5 2.91-6.5 6.5-6.5 6.5 2.91 6.5 6.5Z"/></svg>