<svg xmlns="http://www.w3.org/2000/svg" viewBox="0 0 12 12"><path d="m5.182 3.558-2 2c-.244.244-.244.64 0 .884l2 2c.244.244.64.244.884 0s.244-.64 0-.884l-.933-.933h3.241c.346 0 .625-.28.625-.625s-.28-.625-.625-.625h-3.24l.932-.933c.244-.244.244-.64 0-.884s-.64-.244-.884 0Z"/><path fill-rule="evenodd" d="M11.5 6c0 3.038-2.462 5.5-5.5 5.5s-5.5-2.462-5.5-5.5 2.462-5.5 5.5-5.5 5.5 2.462 5.5 5.5Zm-1.25 0c0 2.347-1.903 4.25-4.25 4.25s-4.25-1.903-4.25-4.25 1.903-4.25 4.25-4.25 4.25 1.903 4.25 4.25Z"/></svg>