<svg xmlns="http://www.w3.org/2000/svg" viewBox="0 0 20 20"><path d="M14.03 8.47c.293.293.293.767 0 1.06l-4.5 4.5c-.293.293-.767.293-1.06 0l-2.25-2.25c-.293-.293-.293-.767 0-1.06.293-.293.767-.293 1.06 0l1.72 1.72 3.97-3.97c.293-.293.767-.293 1.06 0Z"/><path fill-rule="evenodd" d="M6.015 3.75c.123-.987.965-1.75 1.985-1.75h4c1.02 0 1.861.763 1.985 1.75h.765c1.243 0 2.25 1.007 2.25 2.25v9.75c0 1.243-1.007 2.25-2.25 2.25h-9.5c-1.243 0-2.25-1.007-2.25-2.25v-9.75c0-1.243 1.007-2.25 2.25-2.25h.765Zm1.985-.25h4c.276 0 .5.224.5.5v1c0 .276-.224.5-.5.5h-4c-.276 0-.5-.224-.5-.5v-1c0-.276.224-.5.5-.5Zm-1.985 1.75h-.765c-.414 0-.75.336-.75.75v9.75c0 .414.336.75.75.75h9.5c.414 0 .75-.336.75-.75v-9.75c0-.414-.336-.75-.75-.75h-.765c-.123.987-.965 1.75-1.985 1.75h-4c-1.02 0-1.862-.763-1.985-1.75Z"/></svg>