<svg  viewBox="0 0 20 20" xmlns="http://www.w3.org/2000/svg">
<path d="M9.5 9.5C9.08579 9.5 8.75 9.83579 8.75 10.25C8.75 10.6642 9.08579 11 9.5 11V9.5ZM13.25 11C13.6642 11 14 10.6642 14 10.25C14 9.83579 13.6642 9.5 13.25 9.5V11ZM9.5 12.5C9.08579 12.5 8.75 12.8358 8.75 13.25C8.75 13.6642 9.08579 14 9.5 14V12.5ZM13.1002 14C13.5144 14 13.8502 13.6642 13.8502 13.25C13.8502 12.8358 13.5144 12.5 13.1002 12.5V14ZM7 11C7.41421 11 7.75 10.6642 7.75 10.25C7.75 9.83579 7.41421 9.5 7 9.5V11ZM6.75 9.5C6.33579 9.5 6 9.83579 6 10.25C6 10.6642 6.33579 11 6.75 11V9.5ZM7 14C7.41421 14 7.75 13.6642 7.75 13.25C7.75 12.8358 7.41421 12.5 7 12.5V14ZM6.75 12.5C6.33579 12.5 6 12.8358 6 13.25C6 13.6642 6.33579 14 6.75 14V12.5ZM15.5 6.5V15.25H17V6.5H15.5ZM14.25 16.5H5.75V18H14.25V16.5ZM4.5 15.25V6.5H3V15.25H4.5ZM14.25 3.75H13V5.25H14.25V3.75ZM5.75 5.25H7V3.75H5.75V5.25ZM6.25 4.5V4.75H7.75V4.5H6.25ZM8.5 7H11.5V5.5H8.5V7ZM13.75 4.75V4.25H12.25V4.75H13.75ZM11.5 2H8.5V3.5H11.5V2ZM6.25 4.25V4.5H7.75V4.25H6.25ZM9.5 11H13.25V9.5H9.5V11ZM9.5 14H13.1002V12.5H9.5V14ZM7 9.5H6.75V11H7V9.5ZM7 12.5H6.75V14H7V12.5ZM8.5 2C7.25736 2 6.25 3.00736 6.25 4.25H7.75C7.75 3.83579 8.08579 3.5 8.5 3.5V2ZM13.75 4.25C13.75 3.00736 12.7426 2 11.5 2V3.5C11.9142 3.5 12.25 3.83579 12.25 4.25H13.75ZM11.5 7C12.7426 7 13.75 5.99264 13.75 4.75H12.25C12.25 5.16421 11.9142 5.5 11.5 5.5V7ZM5.75 16.5C5.05964 16.5 4.5 15.9404 4.5 15.25H3C3 16.7688 4.23122 18 5.75 18V16.5ZM15.5 15.25C15.5 15.9404 14.9404 16.5 14.25 16.5V18C15.7688 18 17 16.7688 17 15.25H15.5ZM6.25 4.75C6.25 5.99264 7.25736 7 8.5 7V5.5C8.08579 5.5 7.75 5.16421 7.75 4.75H6.25ZM17 6.5C17 4.98122 15.7688 3.75 14.25 3.75V5.25C14.9404 5.25 15.5 5.80964 15.5 6.5H17ZM4.5 6.5C4.5 5.80964 5.05964 5.25 5.75 5.25V3.75C4.23122 3.75 3 4.98122 3 6.5H4.5Z" />
</svg>
