<svg xmlns="http://www.w3.org/2000/svg" viewBox="0 0 20 20"><path fill-rule="evenodd" d="M8 2c-1.02 0-1.862.763-1.985 1.75h-.765c-1.243 0-2.25 1.007-2.25 2.25v9.75c0 1.243 1.007 2.25 2.25 2.25h9.5c1.243 0 2.25-1.007 2.25-2.25v-9.75c0-1.243-1.007-2.25-2.25-2.25h-.765c-.123-.987-.965-1.75-1.985-1.75h-4Zm4 1.5h-4c-.276 0-.5.224-.5.5v1c0 .276.224.5.5.5h4c.276 0 .5-.224.5-.5v-1c0-.276-.224-.5-.5-.5Zm2.03 6.03c.293-.293.293-.767 0-1.06-.293-.293-.767-.293-1.06 0l-3.97 3.97-1.72-1.72c-.293-.293-.767-.293-1.06 0-.293.293-.293.767 0 1.06l2.25 2.25c.293.293.767.293 1.06 0l4.5-4.5Z"/></svg>