<svg xmlns="http://www.w3.org/2000/svg" viewBox="0 0 16 16"><path fill-rule="evenodd" d="M4.515 2.75c.123-.987.965-1.75 1.985-1.75h3c1.027 0 1.873.774 1.987 1.77l-.002-.02h.265c1.243 0 2.25 1.007 2.25 2.25v7.75c0 1.243-1.007 2.25-2.25 2.25h-7.5c-1.243 0-2.25-1.007-2.25-2.25v-7.75c0-1.243 1.007-2.25 2.25-2.25h.265Zm1.985-.25h3c.276 0 .5.224.5.5v1c0 .276-.224.5-.5.5h-3c-.276 0-.5-.224-.5-.5v-1c0-.276.224-.5.5-.5Zm-1.987 1.73.002.02h-.265c-.414 0-.75.336-.75.75v7.75c0 .414.336.75.75.75h7.5c.414 0 .75-.336.75-.75v-7.75c0-.414-.336-.75-.75-.75h-.265c-.123.987-.965 1.75-1.985 1.75h-3c-1.027 0-1.873-.774-1.987-1.77Z"/></svg>