<svg  viewBox="0 0 18 18" xmlns="http://www.w3.org/2000/svg">
<path d="M9.5 8.5C9.08579 8.5 8.75 8.83579 8.75 9.25C8.75 9.66421 9.08579 10 9.5 10V8.5ZM11.25 10C11.6642 10 12 9.66421 12 9.25C12 8.83579 11.6642 8.5 11.25 8.5V10ZM9.5 11.5C9.08579 11.5 8.75 11.8358 8.75 12.25C8.75 12.6642 9.08579 13 9.5 13V11.5ZM11.1002 13C11.5144 13 11.8502 12.6642 11.8502 12.25C11.8502 11.8358 11.5144 11.5 11.1002 11.5V13ZM7 10C7.41421 10 7.75 9.66421 7.75 9.25C7.75 8.83579 7.41421 8.5 7 8.5V10ZM6.75 8.5C6.33579 8.5 6 8.83579 6 9.25C6 9.66421 6.33579 10 6.75 10V8.5ZM7 13C7.41421 13 7.75 12.6642 7.75 12.25C7.75 11.8358 7.41421 11.5 7 11.5V13ZM6.75 11.5C6.33579 11.5 6 11.8358 6 12.25C6 12.6642 6.33579 13 6.75 13V11.5ZM14 5.5V14.25H15.5V5.5H14ZM13.25 15H4.75V16.5H13.25V15ZM4 14.25V5.5H2.5V14.25H4ZM13.25 3.25H12V4.75H13.25V3.25ZM4.75 4.75H6V3.25H4.75V4.75ZM5.25 4V4.25H6.75V4H5.25ZM7.5 6.5H10.5V5H7.5V6.5ZM12.75 4.25V3.75H11.25V4.25H12.75ZM10.5 1.5H7.5V3H10.5V1.5ZM5.25 3.75V4H6.75V3.75H5.25ZM9.5 10H11.25V8.5H9.5V10ZM9.5 13H11.1002V11.5H9.5V13ZM7 8.5H6.75V10H7V8.5ZM7 11.5H6.75V13H7V11.5ZM7.5 1.5C6.25736 1.5 5.25 2.50736 5.25 3.75H6.75C6.75 3.33579 7.08579 3 7.5 3V1.5ZM12.75 3.75C12.75 2.50736 11.7426 1.5 10.5 1.5V3C10.9142 3 11.25 3.33579 11.25 3.75H12.75ZM10.5 6.5C11.7426 6.5 12.75 5.49264 12.75 4.25H11.25C11.25 4.66421 10.9142 5 10.5 5V6.5ZM4.75 15C4.33579 15 4 14.6642 4 14.25H2.5C2.5 15.4926 3.50736 16.5 4.75 16.5V15ZM14 14.25C14 14.6642 13.6642 15 13.25 15V16.5C14.4926 16.5 15.5 15.4926 15.5 14.25H14ZM5.25 4.25C5.25 5.49264 6.25736 6.5 7.5 6.5V5C7.08579 5 6.75 4.66421 6.75 4.25H5.25ZM15.5 5.5C15.5 4.25736 14.4926 3.25 13.25 3.25V4.75C13.6642 4.75 14 5.08579 14 5.5H15.5ZM4 5.5C4 5.08579 4.33579 4.75 4.75 4.75V3.25C3.50736 3.25 2.5 4.25736 2.5 5.5H4Z" />
</svg>
