<svg xmlns="http://www.w3.org/2000/svg" viewBox="0 0 16 16"><path fill-rule="evenodd" d="M9.5 2.5h-3c-.276 0-.5.224-.5.5v1c0 .276.224.5.5.5h3c.276 0 .5-.224.5-.5v-1c0-.276-.224-.5-.5-.5Zm-3-1.5c-1.02 0-1.862.763-1.985 1.75h-.265c-1.243 0-2.25 1.007-2.25 2.25v7.75c0 1.243 1.007 2.25 2.25 2.25h7.5c1.243 0 2.25-1.007 2.25-2.25v-7.75c0-1.243-1.007-2.25-2.25-2.25h-.265c-.123-.987-.965-1.75-1.985-1.75h-3Zm4.78 7.28c.293-.293.293-.767 0-1.06-.293-.293-.767-.293-1.06 0l-2.97 2.97-1.22-1.22c-.293-.293-.767-.293-1.06 0-.293.293-.293.767 0 1.06l1.75 1.75c.293.293.767.293 1.06 0l3.5-3.5Z"/></svg>