<svg xmlns="http://www.w3.org/2000/svg" viewBox="0 0 20 20"><path fill-rule="evenodd" d="M6.515 4.75a2 2 0 0 1 1.985-1.75h3a2 2 0 0 1 1.985 1.75h.265a2.25 2.25 0 0 1 2.25 2.25v7.75a2.25 2.25 0 0 1-2.25 2.25h-7.5a2.25 2.25 0 0 1-2.25-2.25v-7.75a2.25 2.25 0 0 1 2.25-2.25h.265Zm1.985-.25h3a.5.5 0 0 1 .5.5v1a.5.5 0 0 1-.5.5h-3a.5.5 0 0 1-.5-.5v-1a.5.5 0 0 1 .5-.5Zm-1.987 1.73.002.02h-.265a.75.75 0 0 0-.75.75v7.75c0 .414.336.75.75.75h7.5a.75.75 0 0 0 .75-.75v-7.75a.75.75 0 0 0-.75-.75h-.265a2 2 0 0 1-1.985 1.75h-3a2 2 0 0 1-1.987-1.77Z"/></svg>