<svg viewBox="0 0 20 20" xmlns="http://www.w3.org/2000/svg"><path d="m8 3c0-0.55228 0.44772-1 1-1h2c0.5523 0 1 0.44772 1 1 0 0 0 0.99713 0.9957 1h2.0043c1.1046 0 2 0.89543 2 2v7.5858c0 0.5304-0.2107 1.0391-0.5858 1.4142l-2.4142 2.4142c-0.3751 0.3751-0.8838 0.5858-1.4142 0.5858h-7.5858c-1.1046 0-2-0.8954-2-2v-10c0-1.1046 0.89543-2 2-2h2.0043c0.99569-0.00287 0.99569-1 0.99569-1zm5 3v1c0 0.55228-0.4477 1-1 1h-4c-0.55228 0-1-0.44772-1-1v-1h-2v10h7v-2c0-0.5523 0.4477-1 1-1h2v-7h-2z" clip-rule="evenodd" fill="#5C5F62" fill-rule="evenodd"/></svg>
