<svg viewBox="0 0 20 20" xmlns="http://www.w3.org/2000/svg"><path fill-rule="evenodd" d="M6.514 3.76a2 2 0 0 1 1.986-1.76h3a2 2 0 0 1 1.986 1.76 2.75 2.75 0 0 1 2.514 2.74v8.75a2.75 2.75 0 0 1-2.75 2.75h-6.5a2.75 2.75 0 0 1-2.75-2.75v-8.75a2.75 2.75 0 0 1 2.514-2.74Zm1.986-.26h3a.5.5 0 0 1 .5.5v1a.5.5 0 0 1-.5.5h-3a.5.5 0 0 1-.5-.5v-1a.5.5 0 0 1 .5-.5Zm-2 1.552c.003.074.008.147.018.22a1.25 1.25 0 0 0-1.018 1.228v8.75c0 .69.56 1.25 1.25 1.25h6.5c.69 0 1.25-.56 1.25-1.25v-8.75a1.25 1.25 0 0 0-1.018-1.229 2 2 0 0 1-1.982 1.729h-3a2 2 0 0 1-2-1.948Z" fill="#5C5F62"/></svg>