<svg xmlns="http://www.w3.org/2000/svg" viewBox="0 0 20 20"><path d="M8.5 10c0 .552-.448 1-1 1s-1-.448-1-1 .448-1 1-1 1 .448 1 1Z"/><path d="M8.5 13.5c0 .552-.448 1-1 1s-1-.448-1-1 .448-1 1-1 1 .448 1 1Z"/><path d="M10 9.25c-.414 0-.75.336-.75.75s.336.75.75.75h3c.414 0 .75-.336.75-.75s-.336-.75-.75-.75h-3Z"/><path d="M9.25 13.5c0-.414.336-.75.75-.75h3c.414 0 .75.336.75.75s-.336.75-.75.75h-3c-.414 0-.75-.336-.75-.75Z"/><path fill-rule="evenodd" d="M8 2c-1.02 0-1.862.763-1.985 1.75h-.765c-1.243 0-2.25 1.007-2.25 2.25v9.75c0 1.243 1.007 2.25 2.25 2.25h9.5c1.243 0 2.25-1.007 2.25-2.25v-9.75c0-1.243-1.007-2.25-2.25-2.25h-.765c-.123-.987-.965-1.75-1.985-1.75h-4Zm4 1.5h-4c-.276 0-.5.224-.5.5v1c0 .276.224.5.5.5h4c.276 0 .5-.224.5-.5v-1c0-.276-.224-.5-.5-.5Zm-6.75 1.75h.765c.123.987.965 1.75 1.985 1.75h4c1.02 0 1.861-.763 1.985-1.75h.765c.414 0 .75.336.75.75v9.75c0 .414-.336.75-.75.75h-9.5c-.414 0-.75-.336-.75-.75v-9.75c0-.414.336-.75.75-.75Z"/></svg>