<svg xmlns="http://www.w3.org/2000/svg" viewBox="0 0 20 20"><path fill-rule="evenodd" d="M10 5.25c.414 0 .75.336.75.75v3.69l1.78 1.78c.293.293.293.767 0 1.06-.293.293-.767.293-1.06 0l-2-2c-.141-.14-.22-.331-.22-.53v-4c0-.414.336-.75.75-.75Z" clip-rule="evenodd" style="fill:color(display-p3 .2902 .2902 .2902);fill-opacity:1"/><path fill-rule="evenodd" d="M13.611 14.143c-1.02.89-2.334 1.372-3.69 1.357-1.356-.016-2.658-.529-3.659-1.44-1-.912-1.629-2.159-1.766-3.503-.042-.412-.41-.712-.822-.67-.412.042-.712.41-.67.823.175 1.711.975 3.298 2.248 4.458 1.273 1.16 2.929 1.812 4.652 1.832 1.723.02 3.393-.595 4.692-1.725 1.3-1.13 2.136-2.7 2.35-4.407.214-1.707-.21-3.433-1.19-4.848s-2.448-2.42-4.123-2.824c-1.675-.404-3.441-.179-4.96.633-.971.518-1.798 1.253-2.423 2.137v-1.606c0-.414-.336-.75-.75-.75s-.75.336-.75.75v3.496c0 .414.336.75.75.75h3.5c.414 0 .75-.336.75-.75 0-.415-.336-.75-.75-.75h-1.707c.508-.818 1.225-1.494 2.086-1.954 1.195-.638 2.584-.816 3.902-.498 1.318.318 2.472 1.109 3.242 2.22.77 1.112 1.102 2.468.934 3.808-.168 1.34-.825 2.573-1.846 3.461Z" clip-rule="evenodd" style="fill:color(display-p3 .2902 .2902 .2902);fill-opacity:1"/></svg>