<svg viewBox="0 0 20 20" xmlns="http://www.w3.org/2000/svg"><path d="M4.707 9.707A.996.996 0 0 0 5 9V5a1 1 0 0 1 1-1 1 1 0 0 0 0-2C4.346 2 3 3.346 3 5v3.586l-.707.707a.999.999 0 0 0 0 1.414l.707.707V15c0 1.654 1.346 3 3 3a1 1 0 0 0 0-2 1 1 0 0 1-1-1v-4a.997.997 0 0 0-.293-.707L4.414 10l.293-.293ZM17.924 9.617a1 1 0 0 0-.217-.324L17 8.586V5c0-1.654-1.346-3-3-3a1 1 0 1 0 0 2 1 1 0 0 1 1 1v4a.996.996 0 0 0 .293.707l.293.293-.293.293A.996.996 0 0 0 15 11v4a1 1 0 0 1-1 1 1 1 0 0 0 0 2c1.654 0 3-1.346 3-3v-3.586l.707-.707a1 1 0 0 0 .217-1.09Z" fill="currentColor"/><path d="M12.626 5.284a1.002 1.002 0 0 0-1.63.346l-1.998 4-1.998 4a.999.999 0 0 0 .56 1.299 1.006 1.006 0 0 0 1.302-.557l3.995-8a1.001 1.001 0 0 0-.231-1.088Z" fill="currentColor"/></svg>
