<svg xmlns="http://www.w3.org/2000/svg" viewBox="0 0 20 20"><path d="M11.69 3.524c.4.105.64.514.536.915l-3 11.5c-.105.401-.515.641-.915.537-.401-.105-.641-.515-.537-.915l3-11.5c.105-.401.515-.641.915-.537Z"/><path d="M6.28 5.47c.293.293.293.767 0 1.06l-3.47 3.47 3.47 3.47c.293.292.293.767 0 1.06-.293.293-.767.293-1.06 0l-4-4c-.293-.293-.293-.768 0-1.06l4-4c.293-.293.767-.293 1.06 0Z"/><path d="M13.72 6.53c-.293-.293-.293-.768 0-1.06.293-.293.767-.293 1.06 0l4 4c.141.14.22.331.22.53s-.079.39-.22.53l-4 4c-.293.293-.767.293-1.06 0-.293-.293-.293-.768 0-1.06l3.47-3.47-3.47-3.47Z"/></svg>