<svg xmlns="http://www.w3.org/2000/svg" viewBox="0 0 16 16"><path d="M10.221 2.956c.114-.398-.117-.813-.515-.927-.398-.114-.813.117-.927.515l-3 10.5c-.114.398.117.813.515.927.398.114.813-.117.927-.515l3-10.5Z"/><path d="M5.03 4.22c.293.293.293.767 0 1.06l-2.72 2.72 2.72 2.72c.293.293.293.767 0 1.06-.293.293-.767.293-1.06 0l-3.25-3.25c-.293-.293-.293-.767 0-1.06l3.25-3.25c.293-.293.767-.293 1.06 0Z"/><path d="M10.97 11.78c-.293-.293-.293-.767 0-1.06l2.72-2.72-2.72-2.72c-.293-.293-.293-.767 0-1.06.293-.293.767-.293 1.06 0l3.25 3.25c.293.293.293.767 0 1.06l-3.25 3.25c-.293.293-.767.293-1.06 0Z"/></svg>