<svg xmlns="http://www.w3.org/2000/svg" viewBox="0 0 20 20"><path d="M6.28 5.47c.293.293.293.767 0 1.06l-3.47 3.47 3.47 3.47c.293.293.293.767 0 1.06-.293.293-.767.293-1.06 0l-4-4c-.293-.293-.293-.767 0-1.06l4-4c.293-.293.767-.293 1.06 0Z"/><path d="M10.75 6.5c0-.414-.336-.75-.75-.75s-.75.336-.75.75v2.75h-2.75c-.414 0-.75.336-.75.75s.336.75.75.75h2.75v2.75c0 .414.336.75.75.75s.75-.336.75-.75v-2.75h2.75c.414 0 .75-.336.75-.75s-.336-.75-.75-.75h-2.75v-2.75Z"/><path d="M13.72 6.53c-.293-.293-.293-.767 0-1.06.293-.293.767-.293 1.06 0l4 4c.141.14.22.331.22.53s-.079.39-.22.53l-4 4c-.293.293-.767.293-1.06 0-.293-.293-.293-.767 0-1.06l3.47-3.47-3.47-3.47Z"/></svg>