<svg xmlns="http://www.w3.org/2000/svg" viewBox="0 0 16 16"><path d="M5.03 5.28c.293-.293.293-.767 0-1.06-.293-.293-.767-.293-1.06 0l-3.25 3.25c-.293.293-.293.767 0 1.06l3.25 3.25c.293.293.767.293 1.06 0 .293-.293.293-.767 0-1.06l-2.72-2.72 2.72-2.72Z"/><path d="M10.97 11.78c.293.293.767.293 1.06 0l3.25-3.25c.141-.14.22-.331.22-.53s-.079-.39-.22-.53l-3.25-3.25c-.293-.293-.767-.293-1.06 0-.293.293-.293.767 0 1.06l2.72 2.72-2.72 2.72c-.293.293-.293.767 0 1.06Z"/><path d="M8 4.75c.414 0 .75.336.75.75v1.75h1.75c.414 0 .75.336.75.75s-.336.75-.75.75h-1.75v1.75c0 .414-.336.75-.75.75s-.75-.336-.75-.75v-1.75h-1.75c-.414 0-.75-.336-.75-.75s.336-.75.75-.75h1.75v-1.75c0-.414.336-.75.75-.75Z"/></svg>