<svg xmlns="http://www.w3.org/2000/svg" viewBox="0 0 20 20"><path d="M11.25 7c.552 0 1-.448 1-1s-.448-1-1-1-1 .448-1 1 .448 1 1 1Z"/><path fill-rule="evenodd" d="M7.043 2.975c.754-.783 1.794-1.225 2.88-1.225h2.327c1.933 0 3.5 1.567 3.5 3.5v2.539c0 .95-.387 1.861-1.072 2.52l-5.16 4.97c-1.08 1.04-2.793 1.023-3.853-.036l-3.234-3.235c-1.156-1.156-1.174-3.025-.04-4.202l4.652-4.83Zm2.88.775c-.543 0-1.063.221-1.44.613l-4.651 4.83c-.378.393-.372 1.016.013 1.4l3.235 3.236c.289.289.756.293 1.05.01l5.16-4.97c.294-.283.46-.673.46-1.08v-2.539c0-.828-.672-1.5-1.5-1.5h-2.326Z" clip-rule="evenodd"/><path d="M17.753 4.75c.552 0 1 .448 1 1v3.535c0 .929-.369 1.819-1.025 2.475l-5.71 5.71c-.391.391-1.024.391-1.415 0-.39-.39-.39-1.023 0-1.414l5.71-5.71c.282-.281.44-.663.44-1.06v-3.536c0-.552.448-1 1-1Z"/></svg>