<svg xmlns="http://www.w3.org/2000/svg" viewBox="0 0 20 20"><path d="M10.672 7.5c.552 0 1-.448 1-1s-.448-1-1-1c-.553 0-1 .448-1 1s.447 1 1 1Z"/><path fill-rule="evenodd" d="M6.688 4.098c.704-.703 1.658-1.098 2.652-1.098h2.082c1.518 0 2.75 1.231 2.75 2.75v2.289c0 .861-.343 1.688-.952 2.298l-4.207 4.206c-.976.976-2.559.976-3.535 0l-2.673-2.672c-1.073-1.075-1.073-2.816 0-3.89l3.883-3.883Zm2.652.402c-.597 0-1.169.237-1.59.659l-3.884 3.883c-.488.488-.488 1.28 0 1.768l2.673 2.672c.39.39 1.023.39 1.414 0l4.206-4.206c.328-.328.513-.773.513-1.237v-2.289c0-.69-.56-1.25-1.25-1.25h-2.082Z"/><path d="M16.672 6.25c0-.414-.336-.75-.75-.75-.415 0-.75.336-.75.75v2.964c0 .465-.185.91-.513 1.238l-.018.018c-.293.293-.293.767 0 1.06.293.293.768.293 1.06 0l.019-.017c.61-.61.952-1.437.952-2.299v-2.964Z"/><path d="M11.62 14.05c0-.413.336-.75.75-.75h5.5c.414 0 .75.337.75.75 0 .415-.336.75-.75.75h-5.5c-.414 0-.75-.335-.75-.75Z"/><path d="M11.62 17.05c0-.413.336-.75.75-.75h5.5c.414 0 .75.337.75.75 0 .415-.336.75-.75.75h-5.5c-.414 0-.75-.335-.75-.75Z"/></svg>