<svg xmlns="http://www.w3.org/2000/svg" viewBox="0 0 20 21"><path d="M13 2.912c.414 0 .75.335.75.75 0 .414-.336.75-.75.75h-3.029c-.468 0-.917.187-1.245.52l-4.692 4.756c-.291.295-.766.298-1.06.008-.296-.291-.299-.766-.008-1.061l4.692-4.756c.61-.619 1.444-.967 2.313-.967h3.029Z"/><path fill-rule="evenodd" d="M8.767 6.51c.703-.703 1.657-1.098 2.652-1.098h2.081c1.519 0 2.75 1.23 2.75 2.75v2.288c0 .862-.342 1.689-.952 2.298l-4.206 4.207c-.976.976-2.56.976-3.536 0l-2.672-2.673c-1.074-1.074-1.074-2.815 0-3.889l3.883-3.883Zm3.983 3.402c.552 0 1-.448 1-1 0-.553-.448-1-1-1s-1 .447-1 1c0 .552.448 1 1 1Z" clip-rule="evenodd"/></svg>