<svg xmlns="http://www.w3.org/2000/svg" viewBox="0 0 20 20">
  <path d="M11.5 7.5C12.0523 7.5 12.5 7.05228 12.5 6.5C12.5 5.94772 12.0523 5.5 11.5 5.5C10.9477 5.5 10.5 5.94772 10.5 6.5C10.5 7.05228 10.9477 7.5 11.5 7.5Z"/>
  <path fill-rule="evenodd" d="M7.51692 4.09835C8.22018 3.39509 9.17401 3 10.1686 3H12.25C13.7688 3 15 4.23122 15 5.75V8.03854C15 8.9005 14.6576 9.72714 14.0481 10.3366L9.84184 14.5429C8.86553 15.5192 7.28262 15.5192 6.30631 14.5429L3.63389 11.8705C2.55995 10.7965 2.55994 9.05532 3.63389 7.98138L7.51692 4.09835ZM10.1686 4.5C9.57183 4.5 8.99954 4.73705 8.57758 5.15901L4.69455 9.04204C4.20639 9.5302 4.20639 10.3217 4.69455 10.8098L7.36697 13.4822C7.75749 13.8728 8.39066 13.8728 8.78118 13.4822L12.9874 9.27598C13.3156 8.94779 13.5 8.50267 13.5 8.03854V5.75C13.5 5.05965 12.9404 4.5 12.25 4.5H10.1686Z"/>
  <path d="M17.5 6.25C17.5 5.83579 17.1642 5.5 16.75 5.5C16.3358 5.5 16 5.83579 16 6.25V9.21447C16 9.6786 15.8156 10.1237 15.4874 10.4519L15.4697 10.4697C15.1768 10.7626 15.1768 11.2374 15.4697 11.5303C15.7626 11.8232 16.2374 11.8232 16.5303 11.5303L16.5481 11.5126C17.1576 10.9031 17.5 10.0764 17.5 9.21447V6.25Z"/>
  <path d="M12.4482 14.0508C12.4482 13.6366 12.784 13.3008 13.1982 13.3008H18.6982C19.1125 13.3008 19.4482 13.6366 19.4482 14.0508C19.4482 14.465 19.1125 14.8008 18.6982 14.8008H13.1982C12.784 14.8008 12.4482 14.465 12.4482 14.0508Z"/>
  <path d="M12.4482 17.0508C12.4482 16.6366 12.784 16.3008 13.1982 16.3008H18.6982C19.1125 16.3008 19.4482 16.6366 19.4482 17.0508C19.4482 17.465 19.1125 17.8008 18.6982 17.8008H13.1982C12.784 17.8008 12.4482 17.465 12.4482 17.0508Z"/>
</svg>


