<svg xmlns="http://www.w3.org/2000/svg" viewBox="0 0 20 20"><path d="M13 2.5c.414 0 .75.336.75.75s-.336.75-.75.75h-3.029c-.468 0-.917.188-1.245.521l-4.692 4.756c-.291.295-.766.298-1.06.007-.296-.291-.299-.766-.008-1.06l4.692-4.756c.61-.62 1.444-.968 2.313-.968h3.029Z"/><path fill-rule="evenodd" d="M8.767 6.098c.703-.703 1.657-1.098 2.652-1.098h2.081c1.519 0 2.75 1.231 2.75 2.75v2.289c0 .861-.342 1.688-.952 2.298l-4.206 4.206c-.976.976-2.56.976-3.536 0l-2.672-2.672c-1.074-1.075-1.074-2.816 0-3.89l3.883-3.883Zm3.983 3.402c.552 0 1-.448 1-1s-.448-1-1-1-1 .448-1 1 .448 1 1 1Z"/></svg>