<svg xmlns="http://www.w3.org/2000/svg" viewBox="0 0 16 16"><path d="M10.5 4.5c0 .552-.448 1-1 1s-1-.448-1-1 .448-1 1-1 1 .448 1 1Z"/><path fill-rule="evenodd" d="M8.169 1c-.995 0-1.949.395-2.652 1.098l-3.883 3.883c-1.074 1.074-1.074 2.816 0 3.89l2.672 2.672c.977.976 2.56.976 3.536 0l4.206-4.206c.61-.61.952-1.436.952-2.298v-2.289c0-1.519-1.231-2.75-2.75-2.75h-2.081Zm-1.591 2.159c.422-.422.994-.659 1.59-.659h2.082c.69 0 1.25.56 1.25 1.25v2.289c0 .464-.184.909-.513 1.237l-4.206 4.206c-.39.39-1.024.39-1.414 0l-2.672-2.672c-.489-.488-.489-1.28 0-1.768l3.883-3.883Z"/><path d="M15.5 4.25c0-.414-.336-.75-.75-.75s-.75.336-.75.75v2.964c0 .465-.184.91-.513 1.238l-.017.018c-.293.293-.293.767 0 1.06.293.293.767.293 1.06 0l.018-.017c.61-.61.952-1.437.952-2.299v-2.964Z"/><path d="M15.53 14.47c.293.292.293.767 0 1.06-.292.293-.767.293-1.06 0l-2.22-2.22v1.19c0 .414-.336.75-.75.75s-.75-.336-.75-.75v-3c0-.2.08-.39.22-.53.14-.141.331-.22.53-.22h3c.414 0 .75.336.75.75s-.336.75-.75.75h-1.19l2.22 2.22Z"/></svg>