<svg xmlns="http://www.w3.org/2000/svg" viewBox="0 0 20 21"><path d="M13 2.912c.414 0 .75.335.75.75 0 .414-.336.75-.75.75h-3.029c-.468 0-.917.187-1.245.52l-4.692 4.756c-.291.295-.766.298-1.06.008-.296-.291-.299-.766-.008-1.061l4.692-4.756c.61-.619 1.444-.967 2.313-.967h3.029Z"/><path d="M11.419 5.412c-.995 0-1.949.395-2.652 1.098l-3.883 3.883c-1.074 1.074-1.074 2.815 0 3.89l3.058 3.057c.763.763 2 .763 2.764 0 .293-.293.293-.768 0-1.06-.293-.294-.768-.294-1.06 0-.178.177-.466.177-.643 0l-3.058-3.059c-.489-.488-.489-1.28 0-1.767l3.883-3.883c.421-.422.994-.66 1.59-.66h2.082c.69 0 1.25.56 1.25 1.25v3.325c0 .414.336.75.75.75s.75-.336.75-.75v-3.324c0-1.52-1.231-2.75-2.75-2.75h-2.081Z"/><path d="M13.75 8.912c0 .552-.448 1-1 1s-1-.448-1-1c0-.553.448-1 1-1s1 .447 1 1Z"/><path d="M17.03 16.881c.293.293.293.768 0 1.06-.293.294-.767.294-1.06 0l-2.22-2.219v1.19c0 .414-.336.75-.75.75s-.75-.336-.75-.75v-3c0-.2.08-.39.22-.531.14-.14.331-.22.53-.22h3c.414 0 .75.336.75.75 0 .415-.336.75-.75.75h-1.19l2.22 2.22Z"/></svg>