<svg xmlns="http://www.w3.org/2000/svg" viewBox="0 0 20 21"><path d="M13.75 3.662c0-.415-.336-.75-.75-.75h-3.029c-.87 0-1.703.348-2.313.967l-4.692 4.756c-.29.295-.288.77.007 1.06.295.291.77.288 1.06-.007l4.693-4.755c.328-.334.777-.521 1.245-.521h3.029c.414 0 .75-.336.75-.75Z"/><path d="M12.75 9.912c.552 0 1-.448 1-1 0-.553-.448-1-1-1s-1 .447-1 1c0 .552.448 1 1 1Z"/><path fill-rule="evenodd" d="M8.767 6.51c.703-.703 1.657-1.098 2.652-1.098h2.081c1.519 0 2.75 1.23 2.75 2.75v2.288c0 .862-.342 1.689-.952 2.298l-4.206 4.207c-.976.976-2.56.976-3.536 0l-2.672-2.673c-1.074-1.074-1.074-2.815 0-3.889l3.883-3.883Zm2.652.402c-.597 0-1.17.237-1.591.659l-3.883 3.883c-.489.488-.489 1.28 0 1.767l2.672 2.673c.39.39 1.024.39 1.414 0l4.206-4.206c.329-.329.513-.774.513-1.238v-2.288c0-.69-.56-1.25-1.25-1.25h-2.081Z" clip-rule="evenodd"/></svg>