<svg xmlns="http://www.w3.org/2000/svg" viewBox="0 0 20 20"><path d="M13 2.5c.414 0 .75.336.75.75s-.336.75-.75.75h-3.029c-.468 0-.917.188-1.245.521l-4.692 4.756c-.291.295-.766.298-1.06.007-.296-.291-.299-.766-.008-1.06l4.692-4.756c.61-.62 1.444-.968 2.313-.968h3.029Z"/><path d="M11.418 5c-.994 0-1.948.395-2.651 1.098l-3.883 3.883c-1.074 1.074-1.074 2.816 0 3.89l3.058 3.057c.763.764 2 .764 2.764 0 .293-.292.293-.767 0-1.06-.293-.293-.768-.293-1.06 0-.178.177-.466.177-.644 0l-3.058-3.058c-.488-.488-.488-1.28 0-1.768l3.884-3.883c.421-.422.994-.659 1.59-.659h2.082c.69 0 1.25.56 1.25 1.25v3.324c0 .414.336.75.75.75s.75-.336.75-.75v-3.324c0-1.519-1.231-2.75-2.75-2.75h-2.082Z"/><path d="M13.75 8.5c0 .552-.448 1-1 1s-1-.448-1-1 .448-1 1-1 1 .448 1 1Z"/><path fill-rule="evenodd" d="M11.325 12.806c.706-.69 1.814-.738 2.575-.142.761-.596 1.87-.548 2.575.142.767.75.767 1.974 0 2.724l-1.7 1.664c-.487.475-1.263.475-1.75 0l-1.7-1.664c-.767-.75-.767-1.974 0-2.724Zm1.05 1.072c.174-.17.464-.17.639 0l.362.354c.291.285.757.285 1.049 0l.361-.354c.175-.17.465-.17.64 0 .165.162.165.418 0 .58l-1.526 1.493-1.526-1.493c-.165-.162-.165-.418 0-.58Z"/></svg>