<svg viewBox="0 0 20 20" xmlns="http://www.w3.org/2000/svg"><path d="m6.172 3.171-2 2A4 4 0 0 0 3 8v7.171a2 2 0 0 1-2-2V6a2 2 0 0 1 .586-1.414l2-2a2 2 0 0 1 2.828 0l.202.201a4.034 4.034 0 0 0-.444.384ZM14.793 7.965a1 1 0 0 1 1.414 0l2.5 2.5a1 1 0 0 1 0 1.415l-2.5 2.499a1 1 0 0 1-1.414-1.414l.793-.793H14c-1.105 0-2 .482-2 1.428v2.715c0 .473-.448.857-1 .857s-1-.384-1-.857V13.6c0-1.893 1.79-3.428 4-3.428h1.586l-.793-.793a1 1 0 0 1 0-1.414Z" fill="#5C5F62"/><path fill-rule="evenodd" d="m5.586 6.586 2-2a2 2 0 0 1 2.828 0l2 2A2 2 0 0 1 13 8v.255a6.002 6.002 0 0 0-5 5.917v3H7a2 2 0 0 1-2-2V8a2 2 0 0 1 .586-1.414Zm4.121 1.293a1 1 0 1 0-1.414-1.414 1 1 0 0 0 1.414 1.414Z" fill="#5C5F62"/></svg>
