<svg xmlns="http://www.w3.org/2000/svg" viewBox="0 0 12 12"><path d="M9.494 1.047c.047-.342-.193-.656-.537-.703l-2.364-.32c-.815-.11-1.634.164-2.216.741l-3.193 3.17c-.245.243-.245.638 0 .882.244.244.641.244.886 0l3.193-3.168c.305-.303.734-.447 1.16-.389l2.365.32c.343.047.66-.192.706-.533Z"/><path d="M8.25 5.503c.414 0 .75-.336.75-.75 0-.415-.336-.75-.75-.75s-.75.335-.75.75c0 .414.336.75.75.75Z"/><path fill-rule="evenodd" d="m6.464 11.414 3.95-3.95c.43-.43.64-1.03.574-1.635l-.205-1.842c-.103-.93-.837-1.663-1.767-1.766l-1.842-.205c-.604-.067-1.205.144-1.635.573l-3.95 3.95c-.78.781-.78 2.048 0 2.829l2.047 2.046c.78.781 2.047.781 2.828 0Zm-1.944-.884c.293.293.768.293 1.06 0l3.95-3.95c.161-.16.24-.386.215-.613l-.204-1.841c-.039-.35-.314-.624-.663-.663l-1.842-.205c-.226-.025-.452.054-.613.215l-3.95 3.95c-.293.293-.293.768 0 1.06l2.047 2.047Z"/></svg>