<svg xmlns="http://www.w3.org/2000/svg" viewBox="0 0 16 16"><path d="M9.5 5.5c.552 0 1-.448 1-1s-.448-1-1-1-1 .448-1 1 .448 1 1 1Z"/><path fill-rule="evenodd" d="M5.517 2.098c.703-.703 1.657-1.098 2.652-1.098h2.081c1.519 0 2.75 1.231 2.75 2.75v2.289c0 .862-.342 1.688-.952 2.298l-4.206 4.206c-.976.976-2.56.976-3.536 0l-2.672-2.673c-1.074-1.073-1.074-2.815 0-3.889l3.883-3.883Zm2.652.402c-.597 0-1.17.237-1.591.659l-3.883 3.883c-.489.488-.489 1.28 0 1.768l2.672 2.672c.39.39 1.024.39 1.414 0l4.206-4.206c.329-.328.513-.773.513-1.237v-2.289c0-.69-.56-1.25-1.25-1.25h-2.081Z"/><path d="M14.75 3.5c.414 0 .75.336.75.75v3.029c0 .87-.348 1.703-.967 2.313l-4.756 4.692c-.295.29-.77.288-1.06-.007-.292-.295-.289-.77.006-1.06l4.756-4.693c.333-.328.521-.777.521-1.245v-3.029c0-.414.336-.75.75-.75Z"/></svg>