<svg xmlns="http://www.w3.org/2000/svg" viewBox="0 0 16 16"><path fill-rule="evenodd" d="M5.517 2.348c.703-.703 1.657-1.098 2.652-1.098h1.831c1.519 0 2.75 1.231 2.75 2.75v2.039c0 .862-.342 1.688-.952 2.298l-3.956 3.956c-.976.976-2.56.976-3.536 0l-2.422-2.423c-1.074-1.073-1.074-2.815 0-3.889l3.633-3.633Zm3.983 3.152c.552 0 1-.448 1-1s-.448-1-1-1-1 .448-1 1 .448 1 1 1Z"/><path d="M15.5 4.25c0-.414-.336-.75-.75-.75s-.75.336-.75.75v3.029c0 .468-.188.917-.521 1.245l-4.756 4.692c-.295.291-.298.766-.007 1.06.291.296.766.299 1.06.008l4.757-4.692c.619-.61.967-1.444.967-2.313v-3.029Z"/></svg>