<svg viewBox="0 0 20 20" xmlns="http://www.w3.org/2000/svg"><path d="M12.5 6.5a1 1 0 1 0 0-2 1 1 0 0 0 0 2Z" fill="#5C5F62"/><path fill-rule="evenodd" d="M8.517 3.098a3.75 3.75 0 0 1 2.652-1.098h1.581a3.25 3.25 0 0 1 3.25 3.25v1.789c0 .335-.052.665-.151.979.098.31.151.64.151.982v1.788a3.25 3.25 0 0 1-.952 2.298l-4.206 4.207a2.5 2.5 0 0 1-3.536 0l-2.672-2.673a2.75 2.75 0 0 1-.067-3.82 2.75 2.75 0 0 1 .067-3.819l3.883-3.883Zm2.325 10.445 3.658-3.658v.903c0 .464-.184.91-.513 1.238l-4.206 4.206a1 1 0 0 1-1.414 0l-2.672-2.672a1.25 1.25 0 0 1-.067-1.696l1.678 1.679a2.5 2.5 0 0 0 3.536 0Zm.327-10.043a2.25 2.25 0 0 0-1.591.659l-3.883 3.883a1.25 1.25 0 0 0 0 1.768l2.672 2.672a1 1 0 0 0 1.414 0l4.206-4.206a1.75 1.75 0 0 0 .513-1.237v-1.789a1.75 1.75 0 0 0-1.75-1.75h-1.581Z" fill="#5C5F62"/></svg>