<svg xmlns="http://www.w3.org/2000/svg" viewBox="0 0 20 20"><path fill-rule="evenodd" d="m4.104 16.572 10.927-10.927.007-.007c.294-.286.763-.283 1.053.007.293.293.293.768 0 1.06l-.97.97c.655 1.21 1.129 2.557 1.129 3.935 0 1.077-.252 2.076-.703 2.943-1.012 1.948-3.01 3.197-5.297 3.197-1.458 0-2.793-.506-3.831-1.372l-1.254 1.254c-.293.293-.768.293-1.06 0-.291-.29-.294-.76-.008-1.053l.007-.007Zm9.904-7.783-6.522 6.523c.763.596 1.723.938 2.764.938 1.723 0 3.21-.934 3.967-2.389.337-.65.533-1.41.533-2.25 0-.935-.29-1.896-.742-2.822Z"/><path d="M4.659 13.896c-.264-.7-.409-1.469-.409-2.286 0-2.418 1.46-4.745 2.793-6.387.68-.838 1.36-1.535 1.868-2.022.254-.245.467-.437.618-.57l.176-.153.049-.04.013-.012.004-.003.002-.002.476.578-.416-.506-.06-.072c.277-.228.677-.228.954 0l-.477.579.476-.58.001.001.002.002.004.003.013.011.049.041.176.153c.15.133.364.325.618.57.495.473 1.15 1.146 1.812 1.953l-1.066 1.066-.042-.051c-.632-.778-1.266-1.43-1.742-1.886-.11-.105-.21-.2-.301-.283-.09.083-.191.178-.301.283-.476.457-1.11 1.108-1.742 1.886-1.291 1.59-2.457 3.569-2.457 5.441 0 .377.04.738.114 1.081l-1.205 1.205Z"/></svg>