<svg width="20" height="20" viewBox="0 0 20 20" fill="none" xmlns="http://www.w3.org/2000/svg">
<path fill-rule="evenodd" clip-rule="evenodd" d="M4.99997 3C4.58576 3 4.24997 3.33579 4.24997 3.75C4.24997 4.16421 4.58576 4.5 4.99997 4.5H7.68916L2.67675 9.51241C1.99333 10.1958 1.99333 11.3039 2.67675 11.9873L6.76253 16.0731C7.44595 16.7565 8.55399 16.7565 9.23741 16.0731L15.7803 9.53018C16.0732 9.23729 16.0732 8.76241 15.7803 8.46952L10.9874 3.67663L10.9736 3.66299L10.5303 3.21967C10.3896 3.07902 10.1989 3 9.99997 3H4.99997ZM9.92148 4.73217L10.7196 5.53033L10.7287 5.53926L14.1893 8.99985L12.4999 10.6893L10.6339 8.82327C10.1457 8.33511 9.35424 8.33512 8.86609 8.82327L7.5732 10.1162C7.08504 10.6043 7.08504 11.3958 7.5732 11.8839L9.43921 13.7499L8.17675 15.0124C8.07912 15.11 7.92083 15.11 7.82319 15.0124L3.73741 10.9266C3.63978 10.829 3.63978 10.6707 3.73741 10.5731L9.57319 4.73729C9.66909 4.64139 9.8235 4.63969 9.92148 4.73217ZM10.4999 12.6893L11.4392 11.7499L9.74997 10.0607L8.81063 11L10.4999 12.6893Z" fill="#4A4A4A"/>
<path d="M17 15C17 15.8285 16.3284 16.5 15.5 16.5C14.6715 16.5 14 15.8285 14 15C14 14.4699 14.6143 12.8776 15.0567 11.7998C15.2221 11.3968 15.7778 11.3968 15.9432 11.7998C16.3856 12.8776 17 14.4699 17 15Z" fill="#4A4A4A"/>
</svg>
