<svg xmlns="http://www.w3.org/2000/svg" viewBox="0 0 16 16"><path fill-rule="evenodd" d="m7.524 1.67-.002.002-.004.003-.012.01-.042.036c-.036.03-.088.075-.153.133-.13.114-.314.28-.533.49-.438.42-1.023 1.021-1.61 1.744-1.146 1.411-2.418 3.43-2.418 5.542 0 .69.118 1.342.335 1.937l1.223-1.224c-.038-.229-.058-.467-.058-.713 0-1.566.978-3.237 2.082-4.596.538-.663 1.078-1.218 1.484-1.607l.184-.174.184.174c.4.384.93.929 1.461 1.58l1.066-1.066c-.546-.658-1.081-1.205-1.489-1.596-.22-.21-.403-.377-.533-.491-.065-.058-.117-.102-.153-.133l-.042-.036-.012-.01-.004-.003-.002-.001c-.276-.228-.676-.228-.953 0Zm.476.58.476-.58-.476.58Zm-.476-.58.476.58-.476-.58Zm0 0s0 .002.06.073l-.06-.072Zm.06.073.416.507-.417-.507Z"/><path fill-rule="evenodd" d="m11.803 4.97-8.273 8.273-.002.002c-.29.293-.29.766.002 1.058.293.293.768.293 1.061 0l.308-.307c.868.637 1.94 1.004 3.101 1.004 2 0 3.75-1.093 4.636-2.798.394-.759.614-1.632.614-2.572 0-1.099-.345-2.173-.836-3.15l.45-.45c.293-.293.293-.767 0-1.06-.293-.293-.768-.293-1.06 0Zm-3.803 8.53c-.744 0-1.438-.21-2.023-.583l5.309-5.308c.287.671.464 1.356.464 2.021 0 .704-.164 1.339-.445 1.88-.63 1.212-1.868 1.99-3.305 1.99Z"/></svg>