<svg viewBox="0 0 20 20" xmlns="http://www.w3.org/2000/svg"><path d="M11 6a1 1 0 1 1-2 0 1 1 0 0 1 2 0Z" fill="#5C5F62"/><path d="M6.5 9a1 1 0 1 0 0-2 1 1 0 0 0 0 2Z" fill="#5C5F62"/><path d="M7.5 12a1 1 0 1 1-2 0 1 1 0 0 1 2 0Z" fill="#5C5F62"/><path d="M13.5 9a1 1 0 1 0 0-2 1 1 0 0 0 0 2Z" fill="#5C5F62"/><path fill-rule="evenodd" d="M10 2a8 8 0 1 0 0 16 2 2 0 0 0 2-2v-2a2 2 0 0 1 2-2h2a2 2 0 0 0 2-2 8 8 0 0 0-8-8Zm4 8.5h2a.5.5 0 0 0 .5-.5 6.5 6.5 0 1 0-6.5 6.5.5.5 0 0 0 .5-.5v-2a3.5 3.5 0 0 1 3.5-3.5Z" fill="#5C5F62"/></svg>