<svg viewBox="0 0 20 20" xmlns="http://www.w3.org/2000/svg"><path fill-rule="evenodd" d="m18.8676 12.4803c.7724-.8739 1.178-2.0113 1.1325-3.17608v-.19011c-.1647-1.82396-.8275-3.56779-1.9162-5.04148-1.0886-1.4737-2.5614-2.62071-4.2579-3.316073-1.6964-.6953597-3.5514-.912385-5.36283-.627428-1.81142.284957-3.50979 1.060961-4.91004 2.243461-1.40025 1.18251-2.44867 2.72614-3.031007 4.4627-.5823405 1.73656-.676266 3.59941-.271543 5.38561.404724 1.7862 1.29257 3.4272 2.5668 4.7442 1.27422 1.317 2.88595 2.2595 4.65955 2.7247 1.32188.2384 2.66457.3423 4.00737.3102h1.1522c.3758 0 .7345-.1949.9859-.4739.2515-.2791.3866-.6436.3777-1.0188 0-.3981-.1584-.7798-.4402-1.0613-.2818-.2814-.6613-.4387-1.0598-.4387-.3986 0-.7947-.1671-1.0765-.4485-.2819-.2815-.4402-.6632-.4402-1.0612 0-.3981.1583-.7798.4402-1.0613.2818-.2814.664-.4396 1.0626-.4396h3.3662c1.1629-.0994 2.2427-.6425 3.0152-1.5164zm-6.8675-8.98032c0 .82843-.6716 1.5-1.5 1.5-.82845 0-1.50003-.67157-1.50003-1.5s.67158-1.5 1.50003-1.5c.8284 0 1.5.67157 1.5 1.5zm-6.50003 3.5c.82843 0 1.5-.67157 1.5-1.5s-.67157-1.5-1.5-1.5c-.82842 0-1.5.67157-1.5 1.5s.67158 1.5 1.5 1.5zm-1 5.00002c.82843 0 1.5-.6716 1.5-1.5 0-.82845-.67157-1.50002-1.5-1.50002-.82842 0-1.5.67157-1.5 1.50002 0 .8284.67158 1.5 1.5 1.5zm10.00003-4.00002c.8284 0 1.5-.67157 1.5-1.5s-.6716-1.5-1.5-1.5c-.8285 0-1.5.67157-1.5 1.5s.6715 1.5 1.5 1.5z" fill="currentColor" /></svg>
