<svg xmlns="http://www.w3.org/2000/svg" viewBox="0 0 16 16"><path fill-rule="evenodd" d="M3 1c-.414 0-.75.336-.75.75s.336.75.75.75h2.69l-5.013 5.012c-.684.684-.684 1.792 0 2.475l4.086 4.086c.683.684 1.791.684 2.474 0l6.543-6.543c.293-.293.293-.768 0-1.06l-4.793-4.793-.013-.014-.444-.443c-.14-.141-.331-.22-.53-.22h-5Zm4.921 1.732.799.798.009.01 3.46 3.46-1.69 1.69-1.865-1.867c-.488-.488-1.28-.488-1.768 0l-1.293 1.293c-.488.488-.488 1.28 0 1.768l1.866 1.866-1.262 1.262c-.098.098-.256.098-.354 0l-4.086-4.085c-.097-.098-.097-.256 0-.354l5.836-5.836c.096-.096.25-.097.348-.005Zm.579 7.957.94-.939-1.69-1.69-.94.94 1.69 1.69Z"/><path d="M15 13c0 .829-.672 1.5-1.5 1.5-.829 0-1.5-.671-1.5-1.5 0-.53.614-2.122 1.057-3.2.165-.403.72-.403.886 0 .443 1.078 1.057 2.67 1.057 3.2Z"/></svg>