<svg xmlns="http://www.w3.org/2000/svg" viewBox="0 0 20 20"><path d="M11 6.5a1 1 0 1 1-2 0 1 1 0 0 1 2 0Z"/><path d="M7 9a1 1 0 1 0 0-2 1 1 0 0 0 0 2Z"/><path d="M8 11.5a1 1 0 1 1-2 0 1 1 0 0 1 2 0Z"/><path d="M13 9a1 1 0 1 0 0-2 1 1 0 0 0 0 2Z"/><path fill-rule="evenodd" d="M10 3a7 7 0 0 0 0 14 1.75 1.75 0 0 0 1.75-1.75v-1.5a2 2 0 0 1 2-2h1.5a1.75 1.75 0 0 0 1.75-1.75 7 7 0 0 0-7-7Zm3.75 7.25h1.5a.25.25 0 0 0 .25-.25 5.5 5.5 0 1 0-5.5 5.5.25.25 0 0 0 .25-.25v-1.5a3.5 3.5 0 0 1 3.5-3.5Z"/></svg>