<svg width="20" height="20" viewBox="0 0 20 20" fill="none" xmlns="http://www.w3.org/2000/svg">
<path fill-rule="evenodd" clip-rule="evenodd" d="M9.5235 3.67082L9.52157 3.67241L9.51801 3.67536L9.50608 3.68529L9.46374 3.72101C9.42758 3.75175 9.37586 3.79623 9.31082 3.85353C9.1808 3.96809 8.99717 4.13422 8.77778 4.34461C8.33991 4.76449 7.75481 5.36521 7.1678 6.08806C6.02174 7.49929 4.75 9.51842 4.75 11.6303C4.75 12.3205 4.86841 12.9717 5.08501 13.5666L6.30831 12.3433C6.27 12.1141 6.25 11.876 6.25 11.6303C6.25 10.064 7.22826 8.39304 8.3322 7.03366C8.87019 6.37119 9.41009 5.81649 9.81597 5.42727C9.88108 5.36483 9.94261 5.30678 10 5.25334C10.0574 5.30678 10.1189 5.36483 10.184 5.42727C10.5843 5.81109 11.1149 6.35585 11.6454 7.00618L12.7111 5.94055C12.1653 5.28338 11.6299 4.73559 11.2222 4.34461C11.0028 4.13422 10.8192 3.96809 10.6892 3.85353C10.6241 3.79623 10.5724 3.75175 10.5363 3.72101L10.4939 3.68529L10.482 3.67536L10.4784 3.67241L10.4765 3.67082C10.1997 3.44306 9.80034 3.44306 9.5235 3.67082ZM10 4.25L10.4765 3.67082C10.4763 3.67068 10.4765 3.67082 10 4.25ZM9.5235 3.67082L10 4.25ZM9.5235 3.67082C9.52359 3.67076 9.52425 3.67155 9.58322 3.74328ZM9.58322 3.74328C9.6428 3.81573 9.76188 3.96057 10 4.25Z" fill="#4A4A4A"/>
<path fill-rule="evenodd" clip-rule="evenodd" d="M13.8033 6.96967L5.53033 15.2426C5.52955 15.2434 5.52878 15.2442 5.528 15.2449C5.23741 15.538 5.23818 16.0112 5.5303 16.3033C5.82319 16.5962 6.29807 16.5962 6.59096 16.3033L6.89853 15.9957C7.76668 16.6327 8.83843 17 10 17C12.0004 17 13.7496 15.9069 14.6358 14.2022C15.0304 13.443 15.25 12.5699 15.25 11.6303C15.25 10.5311 14.9055 9.45705 14.4135 8.48076L14.8639 8.03033C15.1568 7.73744 15.1568 7.26256 14.8639 6.96967C14.571 6.67678 14.0962 6.67678 13.8033 6.96967ZM10 15.5C9.25621 15.5 8.5616 15.2905 7.97728 14.917L13.2855 9.60879C13.5734 10.2802 13.75 10.9647 13.75 11.6303C13.75 12.3336 13.5863 12.9689 13.3048 13.5103C12.6752 14.7217 11.4371 15.5 10 15.5Z" fill="#4A4A4A"/>
</svg>
