<svg xmlns="http://www.w3.org/2000/svg" viewBox="0 0 20 20"><path fill-rule="evenodd" d="M5 2.75c-.414 0-.75.336-.75.75s.336.75.75.75h3.383l-5.664 5.428c-.709.679-.72 1.807-.027 2.501l4.39 4.39c.686.686 1.799.684 2.481-.005l6.967-7.033.012-.013c.286-.299.276-.774-.024-1.06l-5.75-5.5c-.14-.133-.325-.208-.518-.208h-5.25Zm9.93 6.264-4.507-4.31c-.096-.093-.249-.093-.345 0l-6.322 6.057c-.1.097-.102.258-.003.357l4.39 4.391c.098.098.257.098.355 0l1.343-1.357-2.268-2.268c-.488-.488-.488-1.28 0-1.768l1.793-1.793c.488-.488 1.28-.488 1.768 0l2.25 2.251 1.546-1.56Zm-2.6 2.626-1.433 1.446-2.086-2.086 1.439-1.44 2.08 2.08Z"/><path d="M16.5 18c.828 0 1.5-.672 1.5-1.5 0-.53-.614-2.122-1.057-3.2-.165-.403-.72-.403-.886 0-.443 1.078-1.057 2.67-1.057 3.2 0 .828.672 1.5 1.5 1.5Z"/></svg>