<svg xmlns="http://www.w3.org/2000/svg" viewBox="0 0 16 16"><path d="M12.666 1.604c.195-.196.512-.196.707 0l1.06 1.06c.196.195.196.512 0 .707l-.957.957-1.767-1.767.957-.957Z"/><path d="m11.002 3.268 1.767 1.768-3.83 3.83c-.359.359-.84.568-1.348.585l-.772.025c-.145.005-.263-.113-.258-.258l.025-.772c.017-.507.226-.989.585-1.348l3.83-3.83Z"/><path d="M3 5.25c0-1.243 1.007-2.25 2.25-2.25h1.83c.414 0 .75-.336.75-.75s-.336-.75-.75-.75h-1.83c-2.071 0-3.75 1.679-3.75 3.75v5.5c0 2.071 1.679 3.75 3.75 3.75h5.5c2.071 0 3.75-1.679 3.75-3.75v-1.83c0-.414-.336-.75-.75-.75s-.75.336-.75.75v1.83c0 1.243-1.007 2.25-2.25 2.25h-5.5c-1.243 0-2.25-1.007-2.25-2.25v-5.5Z"/></svg>