<svg xmlns="http://www.w3.org/2000/svg" viewBox="0 0 16 16"><path fill-rule="evenodd" d="M11.28 4.72c.194.194.267.478.19.742l-1.25 4.25c-.072.244-.264.436-.508.508l-4.25 1.25c-.264.077-.548.004-.742-.19-.194-.194-.267-.478-.19-.742l1.25-4.25c.072-.244.264-.436.508-.508l4.25-1.25c.264-.077.548-.004.742.19Zm-4.176 2.384-.747 2.539 2.539-.747-1.792-1.792Z"/><path fill-rule="evenodd" d="M1 8c0-3.866 3.134-7 7-7s7 3.134 7 7-3.134 7-7 7-7-3.134-7-7Zm7-5.5c-3.038 0-5.5 2.462-5.5 5.5s2.462 5.5 5.5 5.5 5.5-2.462 5.5-5.5-2.462-5.5-5.5-5.5Z"/></svg>