<svg xmlns="http://www.w3.org/2000/svg" viewBox="0 0 20 20"><path d="M4 6.25c0-1.243 1.007-2.25 2.25-2.25h2.67c.414 0 .75-.336.75-.75s-.336-.75-.75-.75h-2.67c-2.071 0-3.75 1.679-3.75 3.75v7.5c0 2.071 1.679 3.75 3.75 3.75h7.5c2.071 0 3.75-1.679 3.75-3.75v-2.67c0-.414-.336-.75-.75-.75s-.75.336-.75.75v2.67c0 1.243-1.007 2.25-2.25 2.25h-7.5c-1.243 0-2.25-1.007-2.25-2.25v-7.5Z"/><path d="M17.29 4.81c.196-.196.196-.512 0-.708l-1.328-1.328c-.195-.195-.511-.195-.707 0l-1.126 1.126 2.035 2.036 1.127-1.126Z"/><path d="m15.09 7.01-2.035-2.035-4.116 4.116c-.374.373-.584.879-.586 1.407l-.003.966c0 .14.112.252.25.251l.967-.003c.528-.002 1.034-.213 1.407-.586l4.116-4.116Z"/></svg>