<svg xmlns="http://www.w3.org/2000/svg" viewBox="0 0 20 20"><path fill-rule="evenodd" d="M13.28 6.72c.194.194.267.478.19.742l-1.25 4.25c-.072.244-.264.436-.508.508l-4.25 1.25c-.264.077-.548.004-.742-.19-.194-.194-.267-.478-.19-.742l1.25-4.25c.072-.244.264-.436.508-.508l4.25-1.25c.264-.077.548-.004.742.19Zm-4.176 2.384-.747 2.539 2.539-.747-1.792-1.792Z"/><path fill-rule="evenodd" d="M2 10c0-4.418 3.582-8 8-8s8 3.582 8 8-3.582 8-8 8-8-3.582-8-8Zm8-6.5c-3.59 0-6.5 2.91-6.5 6.5s2.91 6.5 6.5 6.5 6.5-2.91 6.5-6.5-2.91-6.5-6.5-6.5Z"/></svg>