<svg viewBox="0 0 20 20" xmlns="http://www.w3.org/2000/svg"><path d="M16.5 3.25a.75.75 0 0 0-1.5 0v.25h-.25a.75.75 0 0 0 0 1.5h.25v.25a.75.75 0 0 0 1.5 0v-.25h.25a.75.75 0 0 0 0-1.5h-.25v-.25Z" fill="#5C5F62"/><path fill-rule="evenodd" d="M7.806 8.246a1.75 1.75 0 0 0-2.834.521l-2.093 4.668a2.75 2.75 0 0 0 .565 3.07l.051.05a2.75 2.75 0 0 0 3.07.566l4.668-2.093a1.75 1.75 0 0 0 .521-2.835l-3.948-3.947Zm-1.465 1.135a.25.25 0 0 1 .405-.075l3.948 3.948a.25.25 0 0 1-.075.405l-4.668 2.093a1.25 1.25 0 0 1-1.395-.257l-.051-.05a1.25 1.25 0 0 1-.257-1.396l2.093-4.668Z" fill="#5C5F62"/><path d="M5.75 2.5a.75.75 0 0 1 .75.75v.25h.25a.75.75 0 0 1 0 1.5h-.25v.25a.75.75 0 0 1-1.5 0v-.25h-.25a.75.75 0 0 1 0-1.5h.25v-.25a.75.75 0 0 1 .75-.75Z" fill="#5C5F62"/><path d="M16.5 13.25a.75.75 0 0 0-1.5 0v.25h-.25a.75.75 0 0 0 0 1.5h.25v.25a.75.75 0 0 0 1.5 0v-.25h.25a.75.75 0 0 0 0-1.5h-.25v-.25Z" fill="#5C5F62"/><path d="M13.53 7.53a.75.75 0 0 0-1.06-1.06l-1.5 1.5a.75.75 0 0 0 1.06 1.06l1.5-1.5Z" fill="#5C5F62"/><path d="M10.029 3.032c.396.12.62.54.5.936l-.703 2.313a.75.75 0 1 1-1.436-.437l.703-2.312a.75.75 0 0 1 .936-.5Z" fill="#5C5F62"/><path d="M16.578 11.032a.75.75 0 0 0-.413-1.442l-2.343.672a.75.75 0 1 0 .413 1.442l2.343-.672Z" fill="#5C5F62"/></svg>