<svg xmlns="http://www.w3.org/2000/svg" viewBox="0 0 16 16"><path d="M8.029 1.032c.396.12.62.54.5.936l-.703 2.313c-.12.396-.54.62-.936.5-.396-.121-.62-.54-.5-.937l.703-2.312c.12-.396.54-.62.936-.5Z"/><path d="M14 1.75c0-.414-.336-.75-.75-.75s-.75.336-.75.75v.25h-.25c-.414 0-.75.336-.75.75s.336.75.75.75h.25v.25c0 .414.336.75.75.75s.75-.336.75-.75v-.25h.25c.414 0 .75-.336.75-.75s-.336-.75-.75-.75h-.25v-.25Z"/><path fill-rule="evenodd" d="M6.306 5.746c-.866-.867-2.333-.597-2.834.521l-2.093 4.668c-.466 1.042-.242 2.263.565 3.07l.051.05c.807.808 2.028 1.032 3.07.566l4.668-2.093c1.118-.502 1.388-1.968.521-2.834l-3.948-3.948Zm-1.465 1.135c.071-.16.28-.199.405-.075l3.948 3.948c.123.124.085.334-.075.405l-4.668 2.093c-.473.212-1.029.11-1.395-.257l-.051-.05c-.367-.368-.469-.923-.257-1.396l2.093-4.668Z"/><path d="M3.75 1c.414 0 .75.336.75.75v.25h.25c.414 0 .75.336.75.75s-.336.75-.75.75h-.25v.25c0 .414-.336.75-.75.75s-.75-.336-.75-.75v-.25h-.25c-.414 0-.75-.336-.75-.75s.336-.75.75-.75h.25v-.25c0-.414.336-.75.75-.75Z"/><path d="M14 11.25c0-.414-.336-.75-.75-.75s-.75.336-.75.75v.25h-.25c-.414 0-.75.336-.75.75s.336.75.75.75h.25v.25c0 .414.336.75.75.75s.75-.336.75-.75v-.25h.25c.414 0 .75-.336.75-.75s-.336-.75-.75-.75h-.25v-.25Z"/><path d="M11.53 5.53c.293-.293.293-.767 0-1.06-.293-.293-.767-.293-1.06 0l-1 1c-.293.293-.293.767 0 1.06.293.293.767.293 1.06 0l1-1Z"/><path d="M14.578 9.032c.398-.115.629-.53.514-.928-.114-.398-.53-.628-.928-.514l-2.342.672c-.398.114-.629.53-.514.928.114.398.53.628.927.514l2.343-.672Z"/></svg>