<svg xmlns="http://www.w3.org/2000/svg" viewBox="0 0 20 20"><path fill-rule="evenodd" d="M5.087 7.517c.501-1.118 1.968-1.388 2.834-.521l5.083 5.083c.867.866.597 2.333-.521 2.834l-6.04 2.707c-1.041.467-2.263.242-3.07-.564l-.429-.43c-.807-.806-1.031-2.028-.565-3.069l2.708-6.04Zm1.774.54c-.124-.124-.334-.086-.405.074l-2.708 6.04c-.212.473-.11 1.028.257 1.395l.43.429c.366.367.921.469 1.394.257l6.04-2.708c.16-.071.198-.28.075-.405l-5.083-5.083Z"/><path fill-rule="evenodd" d="M16.25 2c.414 0 .75.336.75.75v2c0 .414-.336.75-.75.75s-.75-.336-.75-.75v-2c0-.414.336-.75.75-.75Z"/><path fill-rule="evenodd" d="M6.25 2c.414 0 .75.336.75.75v2c0 .414-.336.75-.75.75s-.75-.336-.75-.75v-2c0-.414.336-.75.75-.75Z"/><path fill-rule="evenodd" d="M16.25 12c.414 0 .75.336.75.75v2c0 .414-.336.75-.75.75s-.75-.336-.75-.75v-2c0-.414.336-.75.75-.75Z"/><path fill-rule="evenodd" d="M18 3.75c0 .414-.336.75-.75.75h-2c-.414 0-.75-.336-.75-.75s.336-.75.75-.75h2c.414 0 .75.336.75.75Z"/><path fill-rule="evenodd" d="M8 3.75c0 .414-.336.75-.75.75h-2c-.414 0-.75-.336-.75-.75s.336-.75.75-.75h2c.414 0 .75.336.75.75Z"/><path fill-rule="evenodd" d="M18 13.75c0 .414-.336.75-.75.75h-2c-.414 0-.75-.336-.75-.75s.336-.75.75-.75h2c.414 0 .75.336.75.75Z"/><path fill-rule="evenodd" d="M14.53 5.47c.293.293.293.767 0 1.06l-1.5 1.5c-.293.293-.767.293-1.06 0-.293-.293-.293-.767 0-1.06l1.5-1.5c.293-.293.767-.293 1.06 0Z"/><path fill-rule="evenodd" d="M11.023 2.03c.397.118.624.535.507.932l-.81 2.75c-.118.397-.535.624-.932.507-.397-.117-.624-.534-.507-.931l.81-2.75c.117-.398.534-.625.932-.508Z"/><path fill-rule="evenodd" d="M18.1 9.136c.097.402-.15.807-.553.904l-2.872.69c-.403.096-.808-.152-.904-.555-.097-.403.151-.808.554-.904l2.871-.69c.403-.096.808.152.905.555Z"/></svg>