<svg viewBox="0 0 20 20" xmlns="http://www.w3.org/2000/svg"><path d="M12.384 8.92a1.01 1.01 0 01-.363.08 1.01 1.01 0 01-.553-.17.914.914 0 01-.373-.452.93.93 0 01-.08-.572c.036-.198.13-.38.271-.522l1.007-1.004a1.01 1.01 0 011.54.17 1.001 1.001 0 01-.12 1.255L12.706 8.71a1.158 1.158 0 01-.322.21zM8.03 3.757a1 1 0 001.94.486l-1.94-.486zm2.44-1.514a1 1 0 10-1.94-.486l1.94.486zm-.5 2l.5-2-1.94-.486-.5 2 1.94.486zM15.725 10.039a1 1 0 10.55 1.922l-.55-1.922zm2.532 1.355a1 1 0 10-.55-1.922l.55 1.922zm-1.982.567l1.982-.567-.55-1.922-1.982.567.55 1.922zM4.515 7.518L.182 16.877a2.238 2.238 0 002.942 2.94l9.367-4.338a.921.921 0 00.465-1.102.918.918 0 00-.226-.369L5.987 7.27a.92.92 0 00-.8-.258.92.92 0 00-.672.506z" fill="#5C5F62"/><path d="M1.801 3.98c.109.022.197.11.219.219a1 1 0 001.96 0A.283.283 0 014.2 3.98a1 1 0 000-1.96.283.283 0 01-.219-.219 1 1 0 00-1.96 0 .283.283 0 01-.219.219 1 1 0 000 1.96zM15.801 3.98c.109.022.197.11.219.219a1 1 0 001.96 0 .283.283 0 01.219-.219 1 1 0 000-1.96.283.283 0 01-.219-.219 1 1 0 00-1.96 0 .283.283 0 01-.219.219 1 1 0 000 1.96zM15.801 17.98c.109.022.197.11.219.219a1 1 0 001.96 0 .283.283 0 01.219-.219 1 1 0 000-1.96.283.283 0 01-.219-.219 1 1 0 00-1.96 0 .283.283 0 01-.219.219 1 1 0 000 1.96z" fill="#5C5F62"/></svg>