<svg xmlns="http://www.w3.org/2000/svg" viewBox="0 0 20 20"><path d="M11.2 11.25c.26-.448.745-.75 1.3-.75.828 0 1.5.672 1.5 1.5s-.672 1.5-1.5 1.5c-.555 0-1.04-.302-1.3-.75h-5.95c-1.519 0-2.75-1.231-2.75-2.75v-4c0-1.519 1.231-2.75 2.75-2.75h7c.414 0 .75.336.75.75s-.336.75-.75.75h-7c-.69 0-1.25.56-1.25 1.25v4c0 .69.56 1.25 1.25 1.25h5.95Z"/><path d="M16 14c0 .69-.56 1.25-1.25 1.25h-7c-.414 0-.75.336-.75.75s.336.75.75.75h7c1.519 0 2.75-1.231 2.75-2.75v-4c0-1.519-1.231-2.75-2.75-2.75h-5.95c-.26-.448-.745-.75-1.3-.75-.828 0-1.5.672-1.5 1.5s.672 1.5 1.5 1.5c.555 0 1.04-.302 1.3-.75h5.95c.69 0 1.25.56 1.25 1.25v4Z"/></svg>