<svg xmlns="http://www.w3.org/2000/svg" viewBox="0 0 16 16"><path d="M8.95 9c.26-.448.745-.75 1.3-.75.828 0 1.5.672 1.5 1.5s-.672 1.5-1.5 1.5c-.555 0-1.04-.302-1.3-.75h-4.7c-1.519 0-2.75-1.231-2.75-2.75v-3.5c0-1.519 1.231-2.75 2.75-2.75h5.5c.414 0 .75.336.75.75s-.336.75-.75.75h-5.5c-.69 0-1.25.56-1.25 1.25v3.5c0 .69.56 1.25 1.25 1.25h4.7Z"/><path d="M12 14.25c1.519 0 2.75-1.231 2.75-2.75v-3.5c0-1.519-1.231-2.75-2.75-2.75h-4.7c-.26-.448-.745-.75-1.3-.75-.828 0-1.5.672-1.5 1.5s.672 1.5 1.5 1.5c.555 0 1.04-.302 1.3-.75h4.7c.69 0 1.25.56 1.25 1.25v3.5c0 .69-.56 1.25-1.25 1.25h-5.5c-.414 0-.75.336-.75.75s.336.75.75.75h5.5Z"/></svg>