<svg viewBox="0 0 20 20" xmlns="http://www.w3.org/2000/svg"><path d="M5 5.25a.25.25 0 0 1 .25-.25h6.5a.25.25 0 0 1 .25.25.75.75 0 0 0 1.5 0 1.75 1.75 0 0 0-1.75-1.75h-6.5a1.75 1.75 0 0 0-1.75 1.75v9.5c0 .966.784 1.75 1.75 1.75h6.5a1.75 1.75 0 0 0 1.75-1.75v-1a.75.75 0 0 0-1.5 0v1a.25.25 0 0 1-.25.25h-6.5a.25.25 0 0 1-.25-.25v-9.5Z" fill="#5C5F62"/><path d="M16.496 8.354a.5.5 0 0 0 0-.708l-1.06-1.06a.5.5 0 0 0-.707 0l-.957.957 1.767 1.768.957-.957Z" fill="#5C5F62"/><path d="m14.832 10.018-1.768-1.768-2.448 2.449a2 2 0 0 0-.586 1.407l-.003.698a.25.25 0 0 0 .251.25l.698-.002a2 2 0 0 0 1.407-.585l2.45-2.45Z" fill="#5C5F62"/><path d="M6 9.75a.75.75 0 0 1 .75-.75h1.5a.75.75 0 0 1 0 1.5h-1.5a.75.75 0 0 1-.75-.75Z" fill="#5C5F62"/><path d="M6.75 12a.75.75 0 0 0 0 1.5h1.5a.75.75 0 0 0 0-1.5h-1.5Z" fill="#5C5F62"/></svg>