<svg viewBox="0 0 20 20" xmlns="http://www.w3.org/2000/svg"><path d="M12 7.5a1 1 0 1 0 0-2 1 1 0 0 0 0 2Z" fill="#5C5F62"/><path fill-rule="evenodd" d="M6.92 3h6.16c.535 0 .98 0 1.345.03.38.03.736.098 1.073.27a2.75 2.75 0 0 1 1.202 1.202c.172.337.24.693.27 1.073.03.365.03.81.03 1.345v3.66c0 .535 0 .98-.03 1.345-.03.38-.098.736-.27 1.073a2.751 2.751 0 0 1-1.201 1.202c-.338.172-.694.24-1.074.27-.365.03-.81.03-1.345.03h-6.16c-.535 0-.98 0-1.345-.03-.38-.03-.736-.098-1.073-.27a2.75 2.75 0 0 1-1.202-1.201c-.172-.338-.24-.694-.27-1.074-.03-.365-.03-.81-.03-1.345v-3.66c0-.535 0-.98.03-1.345.03-.38.098-.736.27-1.073a2.75 2.75 0 0 1 1.202-1.202c.337-.172.693-.24 1.073-.27.365-.03.81-.03 1.345-.03Zm-1.223 1.525c-.287.023-.424.065-.514.111a1.25 1.25 0 0 0-.547.547c-.046.09-.088.227-.111.514-.024.296-.025.68-.025 1.253v1.49l1.263-1.263a1.75 1.75 0 0 1 2.474 0l2.763 2.762 1.263-1.262a1.75 1.75 0 0 1 2.474 0l.763.762v-2.489c0-.572 0-.957-.025-1.253-.023-.287-.065-.424-.111-.514a1.25 1.25 0 0 0-.546-.547c-.091-.046-.228-.088-.515-.111-.296-.024-.68-.025-1.253-.025h-6.1c-.572 0-.957 0-1.253.025Zm-1.172 7.277a17.03 17.03 0 0 1-.025-1.243l.03-.029 2.293-2.293a.25.25 0 0 1 .354 0l3.293 3.293a.75.75 0 0 0 1.06 0l1.793-1.793a.25.25 0 0 1 .354 0l1.793 1.793a.733.733 0 0 0 .02.02 5.769 5.769 0 0 1-.015.252c-.023.288-.065.425-.111.516a1.25 1.25 0 0 1-.546.546c-.091.046-.228.088-.515.111-.296.024-.68.025-1.253.025h-6.1c-.572 0-.957 0-1.253-.025-.287-.023-.424-.065-.514-.111a1.25 1.25 0 0 1-.547-.546c-.046-.091-.088-.228-.111-.515Z" fill="#5C5F62"/><path d="M3.5 16.25a.75.75 0 0 1 .75-.75h6a.75.75 0 0 1 0 1.5h-6a.75.75 0 0 1-.75-.75Z" fill="#5C5F62"/><path d="M13.25 15.5a.75.75 0 0 0 0 1.5h2.5a.75.75 0 0 0 0-1.5h-2.5Z" fill="#5C5F62"/></svg>