<svg xmlns="http://www.w3.org/2000/svg" viewBox="0 0 16 16"><path d="M10 6c.552 0 1-.448 1-1s-.448-1-1-1-1 .448-1 1 .448 1 1 1Z"/><path fill-rule="evenodd" d="M5.42 1.5h5.16c.535 0 .98 0 1.345.03.38.03.736.098 1.073.27.518.263.939.684 1.202 1.202.172.337.24.693.27 1.073.03.365.03.81.03 1.345v1.91c0 .535 0 .98-.03 1.345-.03.38-.098.736-.27 1.073-.263.518-.684.939-1.201 1.202-.338.172-.694.24-1.074.27-.365.03-.81.03-1.345.03h-5.16c-.535 0-.98 0-1.345-.03-.38-.03-.736-.098-1.073-.27-.518-.263-.939-.684-1.202-1.202-.172-.337-.24-.693-.27-1.073-.03-.365-.03-.81-.03-1.345v-1.91c0-.535 0-.98.03-1.345.03-.38.098-.736.27-1.073.263-.518.684-.939 1.202-1.202.337-.172.693-.24 1.073-.27.365-.03.81-.03 1.345-.03Zm-1.223 1.525c-.287.023-.424.065-.514.111-.236.12-.427.311-.547.547-.046.09-.088.227-.111.514-.024.296-.025.68-.025 1.253v1.548l.908-1.073c.703-.83 1.984-.826 2.68.01l2.412 2.893 1.086-1.303c.739-.886 2.117-.828 2.778.116l.135.192.001-.533v-1.85c0-.572 0-.957-.025-1.253-.023-.287-.065-.424-.111-.514-.12-.236-.311-.427-.546-.547-.091-.046-.228-.088-.515-.111-.296-.024-.68-.025-1.253-.025h-5.1c-.572 0-.957 0-1.253.025Zm-.514 6.589c-.217-.11-.396-.281-.516-.49l1.886-2.23c.1-.12.284-.118.383.001l2.38 2.855h-2.366c-.572 0-.957 0-1.253-.025-.287-.023-.424-.065-.514-.111Zm6.867.136h-.365l1.054-1.265c.105-.127.302-.118.397.017l.751 1.073c-.023.014-.046.027-.07.039-.09.046-.227.088-.514.111-.296.024-.68.025-1.253.025Z"/><path d="M2 13.75c0-.414.336-.75.75-.75h5.5c.414 0 .75.336.75.75s-.336.75-.75.75h-5.5c-.414 0-.75-.336-.75-.75Z"/><path d="M10.75 13c-.414 0-.75.336-.75.75s.336.75.75.75h2.5c.414 0 .75-.336.75-.75s-.336-.75-.75-.75h-2.5Z"/></svg>