<svg xmlns="http://www.w3.org/2000/svg" viewBox="0 0 20 20"><path fill-rule="evenodd" d="M4 2.5c-1.105 0-2 .895-2 2v3.75c0 .414.336.75.75.75h1.75v4.75c0 1.519 1.231 2.75 2.75 2.75h.033c.577-.32.967-.935.967-1.64v-.606c0-.416.338-.754.754-.754h6.496v-9c0-1.105-.895-2-2-2h-9.5Zm0 1.5c-.276 0-.5.224-.5.5v3h1v-3c0-.035-.003-.068-.01-.1-.047-.229-.248-.4-.49-.4Zm4.5 2c-.414 0-.75.336-.75.75s.336.75.75.75h3c.414 0 .75-.336.75-.75s-.336-.75-.75-.75h-3Zm0 3c-.414 0-.75.336-.75.75s.336.75.75.75h3c.414 0 .75-.336.75-.75s-.336-.75-.75-.75h-3Z"/><path d="M9.5 14.75v.11c0 1.422-.95 2.623-2.251 3-.276.094-.535.14-.749.14h9.3c1.215 0 2.2-.985 2.2-2.2v-1.05h-8.5Z"/></svg>