<svg xmlns="http://www.w3.org/2000/svg" viewBox="0 0 20 20"><path d="M12 8a1 1 0 1 0 0-2 1 1 0 0 0 0 2Z"/><path fill-rule="evenodd" d="M7.42 3.5h5.16c.535 0 .98 0 1.345.03.38.03.736.098 1.073.27a2.75 2.75 0 0 1 1.202 1.202c.172.337.24.693.27 1.073.03.365.03.81.03 1.345v1.91c0 .535 0 .98-.03 1.345-.03.38-.098.736-.27 1.073a2.751 2.751 0 0 1-1.201 1.202c-.338.172-.694.24-1.074.27-.365.03-.81.03-1.345.03h-5.16c-.535 0-.98 0-1.345-.03-.38-.03-.736-.098-1.073-.27a2.75 2.75 0 0 1-1.202-1.201c-.172-.338-.24-.694-.27-1.074-.03-.365-.03-.81-.03-1.345v-1.91c0-.535 0-.98.03-1.345.03-.38.098-.736.27-1.073a2.75 2.75 0 0 1 1.202-1.202c.337-.172.693-.24 1.073-.27.365-.03.81-.03 1.345-.03Zm-1.223 1.525c-.287.023-.424.065-.514.111a1.25 1.25 0 0 0-.547.547c-.046.09-.088.227-.111.514-.024.296-.025.68-.025 1.253v1.548l.908-1.073a1.75 1.75 0 0 1 2.68.01l2.412 2.894 1.086-1.304a1.75 1.75 0 0 1 2.778.116l.135.192.001-.533v-1.85c0-.572 0-.957-.025-1.253-.023-.287-.065-.424-.111-.514a1.25 1.25 0 0 0-.546-.547c-.091-.046-.228-.088-.515-.111-.296-.024-.68-.025-1.253-.025h-5.1c-.572 0-.957 0-1.253.025Zm-.514 6.589a1.25 1.25 0 0 1-.516-.49l1.886-2.23a.25.25 0 0 1 .383.001l2.38 2.855h-2.366c-.572 0-.957 0-1.253-.025-.287-.023-.424-.065-.514-.111Zm6.867.136h-.365l1.054-1.265a.25.25 0 0 1 .397.017l.751 1.073a1.274 1.274 0 0 1-.07.039c-.09.046-.227.088-.514.111-.296.024-.68.025-1.253.025Z"/><path d="M4 15.75a.75.75 0 0 1 .75-.75h5.5a.75.75 0 0 1 0 1.5h-5.5a.75.75 0 0 1-.75-.75Z"/><path d="M12.75 15a.75.75 0 0 0 0 1.5h2.5a.75.75 0 0 0 0-1.5h-2.5Z"/></svg>