<svg xmlns="http://www.w3.org/2000/svg" viewBox="0 0 20 20"><path d="M8 6.75c0-.414.336-.75.75-.75h3c.414 0 .75.336.75.75s-.336.75-.75.75h-3c-.414 0-.75-.336-.75-.75Z"/><path d="M8.75 9c-.414 0-.75.336-.75.75s.336.75.75.75h3c.414 0 .75-.336.75-.75s-.336-.75-.75-.75h-3Z"/><path fill-rule="evenodd" d="M2 4.5c0-1.105.895-2 2-2h10c1.105 0 2 .895 2 2v8.5h1.25c.414 0 .75.336.75.75v1.5c0 1.243-1.007 2.25-2.25 2.25h-8.5c-1.519 0-2.75-1.231-2.75-2.75v-5.75h-1.75c-.414 0-.75-.336-.75-.75v-3.75Zm6 11.5c.69 0 1.25-.56 1.25-1.25v-1c0-.414.336-.75.75-.75h4.5v-8.5c0-.276-.224-.5-.5-.5h-8.063c.041.16.063.327.063.5v10.25c0 .69.56 1.25 1.25 1.25h.75Zm-4.5-11.5c0-.276.224-.5.5-.5.242 0 .443.171.49.4.006.032.01.065.01.1v3h-1v-3Zm12.25 11.5h-5.3c.192-.375.3-.8.3-1.25v-.25h5.75v.75c0 .414-.336.75-.75.75Z"/></svg>