<svg xmlns="http://www.w3.org/2000/svg" viewBox="0 0 16 16"><path d="M10 6c.552 0 1-.448 1-1s-.448-1-1-1-1 .448-1 1 .448 1 1 1Z"/><path fill-rule="evenodd" d="M5.42 1.5h5.16c.535 0 .98 0 1.345.03.38.03.736.098 1.073.27.518.263.939.684 1.202 1.202.172.337.24.693.27 1.073.03.365.03.81.03 1.345v1.91c0 .535 0 .98-.03 1.345-.03.38-.098.736-.27 1.073-.263.518-.684.939-1.201 1.202-.338.172-.694.24-1.074.27-.091.008-.187.013-.288.017-.045.009-.091.013-.137.013h-6.08c-.535 0-.98 0-1.345-.03-.38-.03-.736-.098-1.073-.27-.426-.216-.786-.54-1.047-.934-.083-.088-.143-.194-.176-.31-.157-.324-.22-.667-.25-1.031-.029-.365-.029-.81-.029-1.345v-1.91c0-.535 0-.98.03-1.345.03-.38.098-.736.27-1.073.263-.518.684-.939 1.202-1.202.337-.172.693-.24 1.073-.27.365-.03.81-.03 1.345-.03Zm7.58 5.8-.001.533-.135-.192c-.66-.944-2.04-1.002-2.778-.116l-1.086 1.303-2.411-2.893c-.697-.836-1.978-.84-2.68-.01l-.909 1.073v-1.548c0-.572 0-.957.025-1.253.023-.287.065-.424.111-.514.12-.236.311-.427.547-.547.09-.046.227-.088.514-.111.296-.024.68-.025 1.253-.025h5.1c.572 0 .957 0 1.252.025.288.023.425.065.516.111.235.12.426.311.546.547.046.09.088.227.111.514.024.296.025.68.025 1.253v1.85Z"/><path d="M2 13.75c0-.414.336-.75.75-.75h5.5c.414 0 .75.336.75.75s-.336.75-.75.75h-5.5c-.414 0-.75-.336-.75-.75Z"/><path d="M10.75 13c-.414 0-.75.336-.75.75s.336.75.75.75h2.5c.414 0 .75-.336.75-.75s-.336-.75-.75-.75h-2.5Z"/></svg>