<svg xmlns="http://www.w3.org/2000/svg" viewBox="0 0 20 20"><path d="M12 8a1 1 0 1 0 0-2 1 1 0 0 0 0 2Z"/><path fill-rule="evenodd" d="M7.42 3.5h5.16c.535 0 .98 0 1.345.03.38.03.736.098 1.073.27a2.75 2.75 0 0 1 1.202 1.202c.172.337.24.693.27 1.073.03.365.03.81.03 1.345v1.91c0 .535 0 .98-.03 1.345-.03.38-.098.736-.27 1.073a2.751 2.751 0 0 1-1.201 1.202c-.338.172-.694.24-1.074.27a6.052 6.052 0 0 1-.288.017.744.744 0 0 1-.137.013h-6.08c-.535 0-.98 0-1.345-.03-.38-.03-.736-.098-1.073-.27a2.75 2.75 0 0 1-1.047-.934.75.75 0 0 1-.176-.31c-.157-.324-.22-.667-.25-1.031-.029-.365-.029-.81-.029-1.345v-1.91c0-.535 0-.98.03-1.345.03-.38.098-.736.27-1.073a2.75 2.75 0 0 1 1.202-1.202c.337-.172.693-.24 1.073-.27.365-.03.81-.03 1.345-.03Zm7.58 5.8-.001.533-.135-.192a1.75 1.75 0 0 0-2.778-.116l-1.086 1.303-2.411-2.893a1.75 1.75 0 0 0-2.68-.01l-.909 1.073v-1.548c0-.572 0-.957.025-1.253.023-.287.065-.424.111-.514a1.25 1.25 0 0 1 .547-.547c.09-.046.227-.088.514-.111.296-.024.68-.025 1.253-.025h5.1c.572 0 .957 0 1.252.025.288.023.425.065.516.111.235.12.426.311.546.547.046.09.088.227.111.514.024.296.025.68.025 1.253v1.85Z"/><path d="M4 15.75a.75.75 0 0 1 .75-.75h5.5a.75.75 0 0 1 0 1.5h-5.5a.75.75 0 0 1-.75-.75Z"/><path d="M12.75 15a.75.75 0 0 0 0 1.5h2.5a.75.75 0 0 0 0-1.5h-2.5Z"/></svg>