<svg xmlns="http://www.w3.org/2000/svg" viewBox="0 0 20 20"><path d="M13.25 7c0 .69-.56 1.25-1.25 1.25s-1.25-.56-1.25-1.25.56-1.25 1.25-1.25 1.25.56 1.25 1.25Z"/><path fill-rule="evenodd" d="M11.982 2.5h-3.964c-.813 0-1.469 0-2 .043-.546.045-1.026.14-1.47.366-.706.36-1.28.933-1.64 1.639-.226.444-.32.924-.365 1.47-.043.531-.043 1.187-.043 2v1.616c0 .813 0 1.469.043 2 .045.546.14 1.026.366 1.47.36.706.933 1.28 1.639 1.64.444.226.924.32 1.47.365.531.043 1.187.043 2 .043h3.964c.813 0 1.469 0 2-.043.546-.045 1.026-.14 1.47-.366.706-.36 1.28-.933 1.64-1.638.226-.445.32-.925.365-1.471.043-.531.043-1.187.043-2v-1.616c0-.813 0-1.469-.043-2-.045-.546-.14-1.026-.366-1.47-.36-.706-.933-1.28-1.639-1.64-.444-.226-.924-.32-1.47-.365-.531-.043-1.187-.043-2-.043Zm-6.753 1.745c.197-.1.458-.17.912-.207.462-.037 1.057-.038 1.909-.038h3.9c.853 0 1.447 0 1.91.038.453.037.714.107.912.207.423.216.767.56.983.984.1.197.17.458.207.912.037.462.038 1.057.038 1.909v1.552c0 .365 0 .683-.003.963l-1.19-1.04c-.674-.587-1.683-.573-2.34.034l-1.513 1.4-2.809-2.825c-.649-.653-1.693-.691-2.388-.087l-1.757 1.525v-1.522c0-.852 0-1.447.038-1.91.037-.453.107-.714.207-.911.216-.424.56-.768.984-.984Zm-1.19 7.28c.038.445.107.703.206.899.216.423.56.767.984.983.197.1.458.17.912.207.462.038 1.057.038 1.909.038h3.9c.853 0 1.447 0 1.91-.038.453-.037.714-.106.912-.207.423-.216.767-.56.983-.983l.026-.056-1.961-1.712c-.096-.084-.24-.082-.334.005l-2.045 1.89c-.296.274-.756.264-1.041-.022l-3.318-3.337c-.093-.094-.242-.1-.341-.013l-2.702 2.346Z"/><path d="M3.5 16.75c0-.414.336-.75.75-.75h5.75c.414 0 .75.336.75.75s-.336.75-.75.75h-5.75c-.414 0-.75-.336-.75-.75Z"/><path d="M13 16c-.414 0-.75.336-.75.75s.336.75.75.75h2.75c.414 0 .75-.336.75-.75s-.336-.75-.75-.75h-2.75Z"/></svg>