<svg xmlns="http://www.w3.org/2000/svg" viewBox="0 0 16 16"><path fill-rule="evenodd" d="M6.75 14.25c0 .414-.336.75-.75.75h-.25c-1.519 0-2.75-1.231-2.75-2.75v-9.25c0-.276-.224-.5-.5-.5-.414 0-.75-.336-.75-.75s.336-.75.75-.75h8.5c1.105 0 2 .895 2 2v8.25c0 .414-.336.75-.75.75s-.75-.336-.75-.75v-8.25c0-.276-.224-.5-.5-.5h-6.563c.041.16.063.327.063.5v9.25c0 .69.56 1.25 1.25 1.25h.25c.414 0 .75.336.75.75Z"/><path fill-rule="evenodd" d="M6 4.75c0-.414.336-.75.75-.75h2.5c.414 0 .75.336.75.75s-.336.75-.75.75h-2.5c-.414 0-.75-.336-.75-.75Z"/><path fill-rule="evenodd" d="M6 7.75c0-.414.336-.75.75-.75h2.5c.414 0 .75.336.75.75s-.336.75-.75.75h-2.5c-.414 0-.75-.336-.75-.75Z"/><path fill-rule="evenodd" d="M.5 3c0-1.105.895-2 2-2s2 .895 2 2v3.75c0 .414-.336.75-.75.75h-2.5c-.414 0-.75-.336-.75-.75v-3.75Zm2-.5c-.276 0-.5.224-.5.5v3h1v-3c0-.276-.224-.5-.5-.5Z"/><path fill-rule="evenodd" d="M7 11.25c0-.414.336-.75.75-.75h7.25c.414 0 .75.336.75.75v1.5c0 1.243-1.007 2.25-2.25 2.25h-7.75c-.414 0-.75-.336-.75-.75s.336-.75.75-.75c.69 0 1.25-.56 1.25-1.25v-1Zm1.2 2.25h5.3c.414 0 .75-.336.75-.75v-.75h-5.75v.25c0 .45-.108.875-.3 1.25Z"/></svg>