<svg xmlns="http://www.w3.org/2000/svg" viewBox="0 0 16 16"><path fill-rule="evenodd" d="M2.5 1c-1.105 0-2 .895-2 2v3.75c0 .414.336.75.75.75h2v4.36c0 1.035.84 1.874 1.875 1.874 1.036 0 1.875-.84 1.875-1.875v-.605c0-.416.338-.754.754-.754h5.246v-7.5c0-1.105-.895-2-2-2h-8.5Zm13.25 10.75h-7.5v.11c0 1.684-1.333 3.057-3.002 3.122-.088.012-.17.018-.248.018h8.55c1.215 0 2.2-.985 2.2-2.2v-1.05Zm-13.252-9.25c-.275.001-.498.225-.498.5v3h1v-3c0-.035-.003-.068-.01-.1-.047-.229-.248-.4-.49-.4h-.002Zm4.002 1.5c-.414 0-.75.336-.75.75s.336.75.75.75h3c.414 0 .75-.336.75-.75s-.336-.75-.75-.75h-3Zm-.75 3.75c0-.414.336-.75.75-.75h3c.414 0 .75.336.75.75s-.336.75-.75.75h-3c-.414 0-.75-.336-.75-.75Z"/></svg>