<svg xmlns="http://www.w3.org/2000/svg" viewBox="0 0 20 20"><path d="M12 8.25c.69 0 1.25-.56 1.25-1.25s-.56-1.25-1.25-1.25-1.25.56-1.25 1.25.56 1.25 1.25 1.25Z"/><path fill-rule="evenodd" d="M8.018 2.5h3.964c.813 0 1.469 0 2 .043.546.045 1.026.14 1.47.366.706.36 1.28.933 1.64 1.639.226.444.32.924.365 1.47.043.531.043 1.187.043 2v1.616c0 .813 0 1.469-.043 2-.045.546-.14 1.026-.366 1.47-.36.706-.933 1.28-1.639 1.64-.444.226-.924.32-1.47.365-.531.043-1.187.043-2 .043h-3.964c-.813 0-1.469 0-2-.043-.546-.045-1.026-.14-1.47-.366-.706-.36-1.28-.933-1.64-1.638-.226-.445-.32-.925-.365-1.471-.043-.531-.043-1.187-.043-2v-1.616c0-.813 0-1.469.043-2 .045-.546.14-1.026.366-1.47.36-.706.933-1.28 1.639-1.64.444-.226.924-.32 1.47-.365.531-.043 1.187-.043 2-.043Zm-1.877 1.538c-.454.037-.715.107-.912.207-.424.216-.768.56-.984.984-.1.197-.17.458-.207.912-.037.462-.038 1.057-.038 1.909v1.522l1.757-1.525c.695-.604 1.74-.566 2.388.087l2.809 2.824 1.514-1.399c.656-.607 1.665-.621 2.338-.033l1.19 1.04c.004-.281.004-.599.004-.964v-1.552c0-.852 0-1.447-.038-1.91-.037-.453-.107-.714-.207-.911-.216-.424-.56-.768-.984-.984-.197-.1-.458-.17-.912-.207-.462-.037-1.056-.038-1.909-.038h-3.9c-.852 0-1.447 0-1.91.038Z"/><path d="M4.25 16c-.414 0-.75.336-.75.75s.336.75.75.75h5.75c.414 0 .75-.336.75-.75s-.336-.75-.75-.75h-5.75Z"/><path d="M12.25 16.75c0-.414.336-.75.75-.75h2.75c.414 0 .75.336.75.75s-.336.75-.75.75h-2.75c-.414 0-.75-.336-.75-.75Z"/></svg>