<svg xmlns="http://www.w3.org/2000/svg" viewBox="0 0 20 20"><path d="M5.75 11.25c-.414 0-.75.336-.75.75s.336.75.75.75h3.5c.414 0 .75-.336.75-.75s-.336-.75-.75-.75h-3.5Z"/><path fill-rule="evenodd" d="M1 6.25c0-1.519 1.231-2.75 2.75-2.75h12.5c1.519 0 2.75 1.231 2.75 2.75v7.5c0 1.519-1.231 2.75-2.75 2.75h-12.5c-1.519 0-2.75-1.231-2.75-2.75v-7.5Zm2.75-1.25c-.69 0-1.25.56-1.25 1.25v.75h15v-.75c0-.69-.56-1.25-1.25-1.25h-12.5Zm-1.25 8.75v-4.75h15v4.75c0 .69-.56 1.25-1.25 1.25h-12.5c-.69 0-1.25-.56-1.25-1.25Z"/></svg>