<svg xmlns="http://www.w3.org/2000/svg" viewBox="0 0 20 20"><path fill-rule="evenodd" d="M4.75 2.5c-1.519 0-2.75 1.231-2.75 2.75v5.25c0 1.519 1.231 2.75 2.75 2.75h.383c-.087.36-.133.734-.133 1.12v1.13c0 .552.448 1 1 1h3.25v1c0 .414.336.75.75.75s.75-.336.75-.75v-1h3.25c.552 0 1-.448 1-1v-1.13c0-.386-.046-.76-.133-1.12h.383c1.519 0 2.75-1.231 2.75-2.75v-5.25c0-1.519-1.231-2.75-2.75-2.75h-10.5Zm5.25 7c-1.771 0-3.327.897-4.216 2.25h-1.034c-.69 0-1.25-.56-1.25-1.25v-3h13v3c0 .69-.56 1.25-1.25 1.25h-1.034c-.889-1.353-2.445-2.25-4.216-2.25Zm6.5-4v-.25c0-.69-.56-1.25-1.25-1.25h-10.5c-.69 0-1.25.56-1.25 1.25v.25h13Zm-6.5 5.5c-1.97 0-3.5 1.546-3.5 3.37v.63h7v-.63c0-1.824-1.53-3.37-3.5-3.37Z"/></svg>