<svg xmlns="http://www.w3.org/2000/svg" viewBox="0 0 20 20"><path fill-rule="evenodd" d="M7.621 2.5h4.758c.395 0 .736 0 1.017.023.297.024.592.078.875.222.424.216.768.56.984.984.144.283.198.578.222.875.023.28.023.622.023 1.017v4.629h.25c.966 0 1.75.784 1.75 1.75v3.75c0 .966-.784 1.75-1.75 1.75h-11.5c-.966 0-1.75-.784-1.75-1.75v-3.75c0-.966.784-1.75 1.75-1.75h.25v-4.629c0-.395 0-.736.023-1.017.024-.297.078-.592.222-.875.216-.424.56-.768.984-.984.283-.144.578-.198.875-.222.28-.023.622-.023 1.017-.023Zm-1.621 7.75h4v-6.25h-2.35c-.432 0-.712 0-.924.018-.204.017-.28.045-.316.064-.142.072-.256.186-.328.328-.02.037-.047.112-.064.316-.017.212-.018.492-.018.924v4.6Zm6 0h2v-4.6c0-.432 0-.712-.018-.924-.017-.204-.045-.28-.064-.316-.072-.142-.186-.256-.327-.328-.038-.02-.113-.047-.317-.064-.212-.017-.492-.018-.924-.018h-.35v6.25Zm-8 1.75c0-.138.112-.25.25-.25h11.5c.138 0 .25.112.25.25v3.75c0 .138-.112.25-.25.25h-11.5c-.138 0-.25-.112-.25-.25v-3.75Z"/></svg>