<svg xmlns="http://www.w3.org/2000/svg" viewBox="0 0 20 20"><path fill-rule="evenodd" d="M3.75 3.5c-1.519 0-2.75 1.231-2.75 2.75v7.5c0 1.519 1.231 2.75 2.75 2.75h6.604c.414 0 .75-.336.75-.75s-.336-.75-.75-.75h-6.604c-.69 0-1.25-.56-1.25-1.25v-4.5h15c0 .414.336.75.75.75s.75-.336.75-.75v-3c0-1.519-1.231-2.75-2.75-2.75h-12.5Zm13.75 3.75v-1c0-.69-.56-1.25-1.25-1.25h-12.5c-.69 0-1.25.56-1.25 1.25v1h15Z"/><path d="M18.78 11.22c.293.293.293.767 0 1.06l-4.5 4.5c-.293.293-.767.293-1.06 0-.293-.293-.293-.767 0-1.06l4.5-4.5c.293-.293.767-.293 1.06 0Z"/><path d="M14 13c.552 0 1-.448 1-1s-.448-1-1-1-1 .448-1 1 .448 1 1 1Z"/><path d="M19 16c0 .552-.448 1-1 1s-1-.448-1-1 .448-1 1-1 1 .448 1 1Z"/><path d="M5.75 11.25c-.414 0-.75.336-.75.75s.336.75.75.75h3.5c.414 0 .75-.336.75-.75s-.336-.75-.75-.75h-3.5Z"/></svg>