<svg xmlns="http://www.w3.org/2000/svg" viewBox="0 0 20 20"><path d="M19.75 8c0-3.728-3.022-6.75-6.75-6.75h-.25c-.414 0-.75.336-.75.75s.336.75.75.75h.25c2.9 0 5.25 2.35 5.25 5.25v.25c0 .414.336.75.75.75s.75-.336.75-.75v-.25Z"/><path d="M13 4.25c2.071 0 3.75 1.679 3.75 3.75v.25c0 .414-.336.75-.75.75s-.75-.336-.75-.75v-.25c0-1.243-1.007-2.25-2.25-2.25h-.25c-.414 0-.75-.336-.75-.75s.336-.75.75-.75h.25Z"/><path fill-rule="evenodd" d="M3.25 7c-1.243 0-2.25 1.007-2.25 2.25v5.5c0 1.243 1.007 2.25 2.25 2.25h8.5c1.243 0 2.25-1.007 2.25-2.25v-5.5c0-1.243-1.007-2.25-2.25-2.25h-8.5Zm-.75 2.25c0-.414.336-.75.75-.75h8.5c.414 0 .75.336.75.75v.75h-10v-.75Zm0 2.75v2.75c0 .414.336.75.75.75h8.5c.414 0 .75-.336.75-.75v-2.75h-10Z"/></svg>