<svg xmlns="http://www.w3.org/2000/svg" viewBox="0 0 16 16"><path fill-rule="evenodd" d="M3.75 1.5c-1.243 0-2.25 1.007-2.25 2.25v4.75c0 1.243 1.007 2.25 2.25 2.25h.32c-.046.243-.07.494-.07.75v.75c0 .552.448 1 1 1h2.25v.75c0 .414.336.75.75.75s.75-.336.75-.75v-.75h2.25c.552 0 1-.448 1-1v-.75c0-.256-.024-.507-.07-.75h.32c1.243 0 2.25-1.007 2.25-2.25v-4.75c0-1.243-1.007-2.25-2.25-2.25h-8.5Zm6.75 10.25v-.25c0-1.38-1.12-2.5-2.5-2.5s-2.5 1.12-2.5 2.5v.25h5Zm-2.5-4.25c-1.375 0-2.588.694-3.308 1.75h-.942c-.414 0-.75-.336-.75-.75v-2.25h10v2.25c0 .414-.336.75-.75.75h-.942c-.72-1.056-1.933-1.75-3.308-1.75Zm5-3.25v-.5c0-.414-.336-.75-.75-.75h-8.5c-.414 0-.75.336-.75.75v.5h10Z"/></svg>