<svg xmlns="http://www.w3.org/2000/svg" viewBox="0 0 16 16"><path fill-rule="evenodd" d="M.75 5.25c0-1.519 1.231-2.75 2.75-2.75h9.5c1.519 0 2.75 1.231 2.75 2.75v2.5c0 .414-.336.75-.75.75s-.75-.336-.75-.75v-.5h-12v3.5c0 .69.56 1.25 1.25 1.25h5.02c.414 0 .75.336.75.75s-.336.75-.75.75h-5.02c-1.519 0-2.75-1.231-2.75-2.75v-5.5Zm12.25-1.25c.69 0 1.25.56 1.25 1.25h-12c0-.69.56-1.25 1.25-1.25h9.5Z"/><path d="M4.25 9.25c-.414 0-.75.336-.75.75s.336.75.75.75h2.75c.414 0 .75-.336.75-.75s-.336-.75-.75-.75h-2.75Z"/><path d="M14.78 9.72c.293.293.293.767 0 1.06l-.97.97.97.97c.293.293.293.767 0 1.06-.293.293-.767.293-1.06 0l-.97-.97-.97.97c-.293.293-.767.293-1.06 0-.293-.293-.293-.767 0-1.06l.97-.97-.97-.97c-.293-.293-.293-.767 0-1.06.293-.293.767-.293 1.06 0l.97.97.97-.97c.293-.293.767-.293 1.06 0Z"/></svg>