<svg xmlns="http://www.w3.org/2000/svg" viewBox="0 0 20 20"><path d="M10 4.25a3.25 3.25 0 0 0-3.25 3.25.75.75 0 0 1-1.5 0 4.75 4.75 0 0 1 9.5 0 .75.75 0 0 1-1.5 0 3.25 3.25 0 0 0-3.25-3.25Z"/><path fill-rule="evenodd" d="M6.75 9a2.25 2.25 0 0 0-2.25 2.25v5c0 .414.336.75.75.75h9.5a.75.75 0 0 0 .75-.75v-5a2.25 2.25 0 0 0-2.25-2.25h-6.5Zm1.25 6.5h-2v-4.25a.75.75 0 0 1 .75-.75h1.25v5Zm2 0v-5h3.25a.75.75 0 0 1 .75.75v4.25h-4Z"/><path d="M9.25 7.5a.75.75 0 0 1 1.5 0 .75.75 0 0 0 1.5 0 2.25 2.25 0 0 0-4.5 0 .75.75 0 0 0 1.5 0Z"/></svg>