<svg xmlns="http://www.w3.org/2000/svg" viewBox="0 0 16 16"><path fill-rule="evenodd" d="M3.25 2c-1.519 0-2.75 1.231-2.75 2.75v6.5c0 1.519 1.231 2.75 2.75 2.75h5.104c.414 0 .75-.336.75-.75s-.336-.75-.75-.75h-5.104c-.69 0-1.25-.56-1.25-1.25v-4h12c0 .414.336.75.75.75s.75-.336.75-.75v-2.5c0-1.519-1.231-2.75-2.75-2.75h-9.5Zm10.75 3.25v-.5c0-.69-.56-1.25-1.25-1.25h-9.5c-.69 0-1.25.56-1.25 1.25v.5h12Z"/><path d="M14.47 9.47c.293-.293.767-.293 1.06 0 .293.293.293.767 0 1.06l-4 4c-.293.293-.767.293-1.06 0-.293-.293-.293-.767 0-1.06l4-4Z"/><path d="M11 11c.552 0 1-.448 1-1s-.448-1-1-1-1 .448-1 1 .448 1 1 1Z"/><path d="M16 14c0 .552-.448 1-1 1s-1-.448-1-1 .448-1 1-1 1 .448 1 1Z"/><path d="M4.25 9.25c-.414 0-.75.336-.75.75s.336.75.75.75h2.75c.414 0 .75-.336.75-.75s-.336-.75-.75-.75h-2.75Z"/></svg>