<svg xmlns="http://www.w3.org/2000/svg" viewBox="0 0 20 20"><path fill-rule="evenodd" d="M2.75 7.25a2.75 2.75 0 0 1 2.75-2.75h9.5a2.75 2.75 0 0 1 2.75 2.75v2.5a.75.75 0 0 1-1.5 0v-.5h-12v3.5c0 .69.56 1.25 1.25 1.25h5.02a.75.75 0 0 1 0 1.5h-5.02a2.75 2.75 0 0 1-2.75-2.75v-5.5Zm12.25-1.25c.69 0 1.25.56 1.25 1.25h-12c0-.69.56-1.25 1.25-1.25h9.5Z"/><path d="M6.25 11.25a.75.75 0 0 0 0 1.5h2.75a.75.75 0 0 0 0-1.5h-2.75Z"/><path d="M16.78 11.72a.75.75 0 0 1 0 1.06l-.97.97.97.97a.75.75 0 1 1-1.06 1.06l-.97-.97-.97.97a.75.75 0 1 1-1.06-1.06l.97-.97-.97-.97a.75.75 0 1 1 1.06-1.06l.97.97.97-.97a.75.75 0 0 1 1.06 0Z"/></svg>