<svg xmlns="http://www.w3.org/2000/svg" viewBox="0 0 20 20"><path d="M18 9.75c0-3.728-3.022-6.75-6.75-6.75h-.25c-.414 0-.75.336-.75.75s.336.75.75.75h.25c2.9 0 5.25 2.35 5.25 5.25v.25c0 .414.336.75.75.75s.75-.336.75-.75v-.25Z"/><path d="M11.5 5.75c2.071 0 3.75 1.679 3.75 3.75v.25c0 .414-.336.75-.75.75s-.75-.336-.75-.75v-.25c0-1.243-1.007-2.25-2.25-2.25h-.25c-.414 0-.75-.336-.75-.75s.336-.75.75-.75h.25Z"/><path fill-rule="evenodd" d="M4.75 8c-1.243 0-2.25 1.007-2.25 2.25v4c0 1.243 1.007 2.25 2.25 2.25h6c1.243 0 2.25-1.007 2.25-2.25v-4c0-1.243-1.007-2.25-2.25-2.25h-6Zm-.75 2.25c0-.414.336-.75.75-.75h6c.414 0 .75.336.75.75v.25h-7.5v-.25Zm0 2.25v1.75c0 .414.336.75.75.75h6c.414 0 .75-.336.75-.75v-1.75h-7.5Z"/></svg>