<svg xmlns="http://www.w3.org/2000/svg" viewBox="0 0 20 20"><path d="M1 6.25c0-1.519 1.231-2.75 2.75-2.75h12.5c1.519 0 2.75 1.231 2.75 2.75v2c0 .414-.336.75-.75.75s-.75-.336-.75-.75v-2c0-.69-.56-1.25-1.25-1.25h-12.5c-.69 0-1.25.56-1.25 1.25v1h9.5c.552 0 1 .448 1 1s-.448 1-1 1h-9.5v4.5c0 .69.56 1.25 1.25 1.25h6.552c.414 0 .75.336.75.75s-.336.75-.75.75h-6.552c-1.519 0-2.75-1.231-2.75-2.75v-7.5Z"/><path d="M5.75 11.5c-.414 0-.75.336-.75.75s.336.75.75.75h3.5c.414 0 .75-.336.75-.75s-.336-.75-.75-.75h-3.5Z"/><path fill-rule="evenodd" d="M17.5 12v-1c0-1.105-.895-2-2-2s-2 .895-2 2v1h-.5c-.552 0-1 .448-1 1v3c0 .552.448 1 1 1h5c.552 0 1-.448 1-1v-3c0-.552-.448-1-1-1h-.5Zm-1.5-1c0-.276-.224-.5-.5-.5s-.5.224-.5.5v1h1v-1Z"/></svg>