<svg xmlns="http://www.w3.org/2000/svg" viewBox="0 0 16 16"><path d="M.5 4.75c0-1.519 1.231-2.75 2.75-2.75h9.5c1.519 0 2.75 1.231 2.75 2.75v1.25c0 .414-.336.75-.75.75s-.75-.336-.75-.75v-1.25c0-.69-.56-1.25-1.25-1.25h-9.5c-.69 0-1.25.56-1.25 1.25v.5h8c.552 0 1 .448 1 1s-.448 1-1 1h-8v4c0 .69.56 1.25 1.25 1.25h4.052c.414 0 .75.336.75.75s-.336.75-.75.75h-4.052c-1.519 0-2.75-1.231-2.75-2.75v-6.5Z"/><path d="M3.75 9.5c-.414 0-.75.336-.75.75s.336.75.75.75h2c.414 0 .75-.336.75-.75s-.336-.75-.75-.75h-2Z"/><path fill-rule="evenodd" d="M11 10.25c-.552 0-1 .448-1 1v2.75c0 .552.448 1 1 1h4c.552 0 1-.448 1-1v-2.75c0-.552-.448-1-1-1v-.75c0-1.105-.895-2-2-2s-2 .895-2 2v.75Zm2.5 0v-.75c0-.276-.224-.5-.5-.5s-.5.224-.5.5v.75h1Z"/></svg>