<svg xmlns="http://www.w3.org/2000/svg" viewBox="0 0 20 20"><path d="M10 3.5c-2.347 0-4.25 1.903-4.25 4.25 0 .414-.336.75-.75.75s-.75-.336-.75-.75c0-3.176 2.574-5.75 5.75-5.75s5.75 2.574 5.75 5.75c0 .414-.336.75-.75.75s-.75-.336-.75-.75c0-2.347-1.903-4.25-4.25-4.25Z"/><path d="M7 14.5c0 .552.448 1 1 1s1-.448 1-1v-1.5c0-.552-.448-1-1-1s-1 .448-1 1v1.5Z"/><path fill-rule="evenodd" d="M3 12.25v5c0 .414.336.75.75.75h12.5c.199 0 .39-.079.53-.22.141-.14.22-.331.22-.53v-5c0-1.519-1.231-2.75-2.75-2.75h-8.5c-1.519 0-2.75 1.231-2.75 2.75Zm1.5 4.25v-4.25c0-.69.56-1.25 1.25-1.25h8.5c.69 0 1.25.56 1.25 1.25v4.25h-11Z"/><path d="M8.875 7.75c0-.621.504-1.125 1.125-1.125s1.125.504 1.125 1.125c0 .414.336.75.75.75s.75-.336.75-.75c0-1.45-1.175-2.625-2.625-2.625s-2.625 1.175-2.625 2.625c0 .414.336.75.75.75s.75-.336.75-.75Z"/></svg>