<svg xmlns="http://www.w3.org/2000/svg" viewBox="0 0 16 16"><path d="M8 2.25c-1.795 0-3.25 1.455-3.25 3.25 0 .414-.336.75-.75.75s-.75-.336-.75-.75c0-2.623 2.127-4.75 4.75-4.75s4.75 2.127 4.75 4.75c0 .414-.336.75-.75.75s-.75-.336-.75-.75c0-1.795-1.455-3.25-3.25-3.25Z"/><path d="M6 11.25c0 .552.448 1 1 1s1-.448 1-1v-.75c0-.552-.448-1-1-1s-1 .448-1 1v.75Z"/><path fill-rule="evenodd" d="M2.5 9.25v5c0 .414.336.75.75.75h9.5c.414 0 .75-.336.75-.75v-5c0-1.243-1.007-2.25-2.25-2.25h-6.5c-1.243 0-2.25 1.007-2.25 2.25Zm9.5 0v4.25h-8v-4.25c0-.414.336-.75.75-.75h6.5c.414 0 .75.336.75.75Z"/><path d="M7.25 5.5c0-.414.336-.75.75-.75s.75.336.75.75.336.75.75.75.75-.336.75-.75c0-1.243-1.007-2.25-2.25-2.25s-2.25 1.007-2.25 2.25c0 .414.336.75.75.75s.75-.336.75-.75Z"/></svg>