<svg xmlns="http://www.w3.org/2000/svg" viewBox="0 0 16 16"><path d="M8.25 5c0-.414.336-.75.75-.75h3.69l-.72-.72c-.293-.293-.293-.767 0-1.06.293-.293.767-.293 1.06 0l2 2c.141.14.22.331.22.53s-.079.39-.22.53l-2 2c-.293.293-.767.293-1.06 0-.293-.293-.293-.767 0-1.06l.72-.72h-3.69c-.414 0-.75-.336-.75-.75Z"/><path d="M5.25 3.25c0-.414-.336-.75-.75-.75s-.75.336-.75.75v.75h-.375c-1.312 0-2.375 1.063-2.375 2.375s1.063 2.375 2.375 2.375h1.28c.483 0 .874.392.874.875s-.391.875-.875.875h-2.904c-.414 0-.75.336-.75.75s.336.75.75.75h1v.75c0 .414.336.75.75.75s.75-.336.75-.75v-.75h.404c1.312 0 2.375-1.063 2.375-2.375s-1.063-2.375-2.375-2.375h-1.279c-.483 0-.875-.392-.875-.875s.392-.875.875-.875h2.904c.415 0 .75-.336.75-.75s-.335-.75-.75-.75h-1.029v-.75Z"/><path d="M10.81 11.75h3.69c.414 0 .75-.336.75-.75s-.336-.75-.75-.75h-3.69l.72-.72c.293-.293.293-.767 0-1.06-.293-.293-.767-.293-1.06 0l-2 2c-.293.293-.293.767 0 1.06l2 2c.293.293.767.293 1.06 0 .293-.293.293-.767 0-1.06l-.72-.72Z"/></svg>