<svg xmlns="http://www.w3.org/2000/svg" viewBox="0 0 20 20"><path d="M16.25 1.75a.75.75 0 0 0-1.5 0v1h-1a.75.75 0 0 0 0 1.5h1v1a.75.75 0 0 0 1.5 0v-1h1a.75.75 0 0 0 0-1.5h-1v-1Z"/><path fill-rule="evenodd" d="M9 3a3.5 3.5 0 1 0 0 7 3.5 3.5 0 0 0 0-7Zm-2 3.5a2 2 0 1 1 4 0 2 2 0 0 1-4 0Z"/><path fill-rule="evenodd" d="M14.484 14.227a6.273 6.273 0 0 0-10.968 0l-.437.786a1.338 1.338 0 0 0 1.17 1.987h9.502a1.338 1.338 0 0 0 1.17-1.987l-.437-.786Zm-9.657.728a4.773 4.773 0 0 1 8.346 0l.302.545h-8.95l.302-.545Z"/></svg>