<svg viewBox="0 0 20 20" xmlns="http://www.w3.org/2000/svg"><path fill-rule="evenodd" d="M6.5 6.5a3.5 3.5 0 1 1 7 0 3.5 3.5 0 0 1-7 0Zm3.5-2a2 2 0 1 0 0 4 2 2 0 0 0 0-4Z" fill="#5C5F62"/><path d="M3.623 13.096a7.891 7.891 0 0 1 5.356-2.096h4.836a.75.75 0 0 1 0 1.5h-4.836a6.392 6.392 0 0 0-4.338 1.697.44.44 0 0 0-.141.324v.164c0 .45.365.815.815.815h5.935a.75.75 0 0 1 0 1.5h-5.935a2.315 2.315 0 0 1-2.315-2.315v-.164c0-.541.226-1.058.623-1.425Z" fill="#5C5F62"/><path d="M13.75 13.5a.75.75 0 0 0 0 1.5h4.5a.75.75 0 0 0 0-1.5h-4.5Z" fill="#5C5F62"/></svg>