<svg viewBox="0 0 20 20" xmlns="http://www.w3.org/2000/svg"><path fill-rule="evenodd" d="M10 3a3.5 3.5 0 1 0 0 7 3.5 3.5 0 0 0 0-7Zm-2 3.5a2 2 0 1 1 4 0 2 2 0 0 1-4 0Z" fill="#5C5F62"/><path d="M8.98 11a7.891 7.891 0 0 0-5.357 2.096 1.94 1.94 0 0 0-.623 1.425v.164a2.315 2.315 0 0 0 2.315 2.315h4.935a.75.75 0 0 0 0-1.5h-4.935a.815.815 0 0 1-.815-.815v-.164a.44.44 0 0 1 .141-.324 6.392 6.392 0 0 1 4.338-1.697h3.336a.75.75 0 0 0 0-1.5h-3.336Z" fill="#5C5F62"/><path d="M12 15a.75.75 0 0 1 .75-.75h1.5v-1.5a.75.75 0 0 1 1.5 0v1.5h1.5a.75.75 0 0 1 0 1.5h-1.5v1.5a.75.75 0 0 1-1.5 0v-1.5h-1.5a.75.75 0 0 1-.75-.75Z" fill="#5C5F62"/></svg>