<svg xmlns="http://www.w3.org/2000/svg" viewBox="0 0 16 16"><path fill-rule="evenodd" d="M3 9.997c.206.112.426.214.656.306 1.149.46 2.685.727 4.344.727 1.659 0 3.195-.268 4.344-.727.573-.23 1.087-.52 1.47-.883.384-.363.686-.85.686-1.44v-3.43c0-.59-.302-1.077-.687-1.44-.382-.362-.896-.654-1.469-.883-1.149-.46-2.685-.727-4.344-.727-1.659 0-3.195.268-4.344.727-.573.23-1.087.52-1.47.883-.384.363-.686.85-.686 1.44v6.9c0 .59.302 1.077.687 1.44.382.362.896.654 1.469.883 1.149.46 2.685.727 4.344.727.414 0 .75-.336.75-.75s-.336-.75-.75-.75c-1.517 0-2.856-.247-3.787-.62-.468-.187-.797-.391-.996-.58-.197-.187-.217-.305-.217-.35v-1.453Zm.217-5.797c-.197.186-.217.305-.217.35 0 .045.02.164.217.35.2.189.528.393.996.58.931.373 2.27.62 3.787.62s2.855-.247 3.787-.62c.468-.187.797-.391.996-.58.197-.186.217-.305.217-.35 0-.045-.02-.164-.217-.35-.2-.189-.528-.393-.996-.58-.932-.373-2.27-.62-3.787-.62s-2.856.247-3.787.62c-.468.187-.797.391-.996.58Zm9.783 2.367c-.206.112-.426.214-.656.306-1.149.46-2.685.727-4.344.727-1.659 0-3.195-.268-4.344-.727-.23-.092-.45-.194-.656-.306v1.413c0 .045.02.164.217.35.2.189.528.393.996.58.931.373 2.27.62 3.787.62s2.855-.247 3.787-.62c.468-.187.797-.391.996-.58.197-.186.217-.305.217-.35v-1.413Z"/><path d="M10.5 13.25c0-.414.336-.75.75-.75h1.25v-1.25c0-.414.336-.75.75-.75s.75.336.75.75v1.25h1.25c.414 0 .75.336.75.75s-.336.75-.75.75h-1.25v1.25c0 .414-.336.75-.75.75s-.75-.336-.75-.75v-1.25h-1.25c-.414 0-.75-.336-.75-.75Z"/></svg>