<svg viewBox="0 0 20 20" fill="none" xmlns="http://www.w3.org/2000/svg">
<path fill-rule="evenodd" clip-rule="evenodd" d="M4 7C4.55228 7 5 7.44772 5 8L5 16C5 16.5523 4.55229 17 4 17C3.44772 17 3 16.5523 3 16L3 8C3 7.44772 3.44772 7 4 7Z" fill="#5C5F62"/>
<path fill-rule="evenodd" clip-rule="evenodd" d="M8 11C8.55228 11 9 11.4477 9 12V16C9 16.5523 8.55228 17 8 17C7.44772 17 7 16.5523 7 16V12C7 11.4477 7.44772 11 8 11Z" fill="#5C5F62"/>
<path fill-rule="evenodd" clip-rule="evenodd" d="M12 3C12.5523 3 13 3.44772 13 4L13 16C13 16.5523 12.5523 17 12 17C11.4477 17 11 16.5523 11 16L11 4C11 3.44772 11.4477 3 12 3Z" fill="#5C5F62"/>
<path fill-rule="evenodd" clip-rule="evenodd" d="M16 7C16.5523 7 17 7.44772 17 8V16C17 16.5523 16.5523 17 16 17C15.4477 17 15 16.5523 15 16V8C15 7.44772 15.4477 7 16 7Z" fill="#5C5F62"/>
</svg>
