<svg xmlns="http://www.w3.org/2000/svg" viewBox="0 0 16 16"><path d="M11.5 4.75c0-.414-.336-.75-.75-.75s-.75.336-.75.75v3.5c0 .414.336.75.75.75s.75-.336.75-.75v-3.5Z"/><path d="M5.25 6.5c.414 0 .75.336.75.75v1c0 .414-.336.75-.75.75s-.75-.336-.75-.75v-1c0-.414.336-.75.75-.75Z"/><path d="M8.75 6c0-.414-.336-.75-.75-.75s-.75.336-.75.75v2.25c0 .414.336.75.75.75s.75-.336.75-.75v-2.25Z"/><path fill-rule="evenodd" d="M1.25 2.25c0-.414.336-.75.75-.75h12c.414 0 .75.336.75.75s-.336.75-.75.75v6c0 1.616-1.277 2.933-2.877 2.998l.588 1.765c.131.393-.08.817-.474.948-.393.131-.818-.081-.948-.474l-.746-2.237h-3.086l-.745 2.237c-.131.393-.556.605-.95.474-.392-.13-.605-.555-.474-.948l.589-1.765c-1.6-.065-2.877-1.382-2.877-2.998v-6c-.414 0-.75-.336-.75-.75Zm2.25.75h9v6c0 .828-.672 1.5-1.5 1.5h-6c-.828 0-1.5-.672-1.5-1.5v-6Z"/></svg>