<svg xmlns="http://www.w3.org/2000/svg" viewBox="0 0 20 20"><path fill-rule="evenodd" d="M4 12.12c.29.172.609.326.948.462 1.33.532 3.117.845 5.052.845 1.935 0 3.721-.313 5.052-.845.663-.265 1.25-.6 1.683-1.01.435-.411.765-.95.765-1.595v-4.027c0-.645-.33-1.184-.765-1.596-.433-.41-1.02-.744-1.683-1.01-1.33-.532-3.117-.844-5.052-.844-1.935 0-3.721.312-5.052.844-.663.266-1.25.6-1.683 1.01-.435.412-.765.95-.765 1.596v8.1c0 .645.33 1.184.765 1.596.434.41 1.02.744 1.683 1.01 1.33.532 3.117.844 5.052.844.414 0 .75-.336.75-.75s-.336-.75-.75-.75c-1.793 0-3.382-.292-4.494-.737-.559-.224-.96-.47-1.21-.707-.248-.235-.296-.406-.296-.506v-1.93Zm.296-6.676c-.248.235-.296.406-.296.506 0 .1.048.271.296.506.25.236.651.483 1.21.707 1.112.445 2.701.737 4.494.737 1.793 0 3.382-.292 4.494-.737.559-.224.96-.47 1.21-.707.248-.235.296-.406.296-.506 0-.1-.048-.271-.296-.506-.25-.236-.651-.483-1.21-.707-1.112-.445-2.701-.737-4.494-.737-1.793 0-3.382.292-4.494.737-.559.224-.96.47-1.21.707Zm11.704 2.649c-.29.173-.609.327-.948.463-1.33.532-3.117.844-5.052.844-1.935 0-3.721-.312-5.052-.844-.34-.136-.659-.29-.948-.463v1.884c0 .1.048.27.296.506.25.236.651.483 1.21.706 1.112.445 2.701.738 4.494.738 1.793 0 3.382-.293 4.494-.738.559-.223.96-.47 1.21-.706.248-.235.296-.406.296-.506v-1.884Z"/><path d="M13 16.25c0-.414.336-.75.75-.75h1.5v-1.5c0-.414.336-.75.75-.75s.75.336.75.75v1.5h1.5c.414 0 .75.336.75.75s-.336.75-.75.75h-1.5v1.5c0 .414-.336.75-.75.75s-.75-.336-.75-.75v-1.5h-1.5c-.414 0-.75-.336-.75-.75Z"/></svg>