<svg xmlns="http://www.w3.org/2000/svg" viewBox="0 0 16 16"><path d="M9.5 6.25c.414 0 .75.336.75.75v4.25c0 .414-.336.75-.75.75s-.75-.336-.75-.75v-4.25c0-.414.336-.75.75-.75Z"/><path d="M7.25 7c0-.414-.336-.75-.75-.75s-.75.336-.75.75v4.25c0 .414.336.75.75.75s.75-.336.75-.75v-4.25Z"/><path fill-rule="evenodd" d="M5.25 3.25c0-1.519 1.231-2.75 2.75-2.75s2.75 1.231 2.75 2.75h3c.414 0 .75.336.75.75s-.336.75-.75.75h-.75v5.45c0 1.68 0 2.52-.327 3.162-.288.565-.747 1.023-1.311 1.311-.642.327-1.482.327-3.162.327h-.4c-1.68 0-2.52 0-3.162-.327-.565-.288-1.023-.747-1.311-1.311-.327-.642-.327-1.482-.327-3.162v-5.45h-.75c-.414 0-.75-.336-.75-.75s.336-.75.75-.75h3Zm1.5 0c0-.69.56-1.25 1.25-1.25s1.25.56 1.25 1.25h-2.5Zm-2.25 1.5h7v5.45c0 .865-.001 1.423-.036 1.848-.033.408-.09.559-.128.633-.143.282-.373.512-.655.655-.074.038-.225.095-.633.128-.425.035-.983.036-1.848.036h-.4c-.865 0-1.423-.001-1.848-.036-.408-.033-.559-.09-.633-.128-.282-.143-.512-.373-.656-.655-.037-.074-.094-.225-.127-.633-.035-.425-.036-.983-.036-1.848v-5.45Z"/></svg>