<svg xmlns="http://www.w3.org/2000/svg" viewBox="0 0 20 20"><path d="M11.75 8.25c.414 0 .75.336.75.75v5.25c0 .414-.336.75-.75.75s-.75-.336-.75-.75v-5.25c0-.414.336-.75.75-.75Z"/><path d="M9 9c0-.414-.336-.75-.75-.75s-.75.336-.75.75v5.25c0 .414.336.75.75.75s.75-.336.75-.75v-5.25Z"/><path fill-rule="evenodd" d="M7.25 4.5v-.25c0-1.519 1.231-2.75 2.75-2.75s2.75 1.231 2.75 2.75v.25h3.5c.414 0 .75.336.75.75s-.336.75-.75.75h-.25v7.2c0 1.68 0 2.52-.327 3.162-.288.565-.747 1.023-1.311 1.311-.642.327-1.482.327-3.162.327h-2.4c-1.68 0-2.52 0-3.162-.327-.565-.288-1.023-.747-1.311-1.311-.327-.642-.327-1.482-.327-3.162v-7.2h-.25c-.414 0-.75-.336-.75-.75s.336-.75.75-.75h3.5Zm1.5-.25c0-.69.56-1.25 1.25-1.25s1.25.56 1.25 1.25v.25h-2.5v-.25Zm-3.25 1.75h9v7.2c0 .865-.001 1.423-.036 1.848-.033.408-.09.559-.128.633-.143.282-.373.512-.655.656-.074.037-.225.094-.633.127-.425.035-.983.036-1.848.036h-2.4c-.865 0-1.423-.001-1.848-.036-.408-.033-.559-.09-.633-.127-.282-.144-.512-.374-.656-.656-.037-.074-.094-.225-.127-.633-.035-.425-.036-.983-.036-1.848v-7.2Z"/></svg>