<svg xmlns="http://www.w3.org/2000/svg" viewBox="0 0 20 20"><path fill-rule="evenodd" d="M4 4.25c0-.414.336-.75.75-.75h7.438c1.262 0 2.362.859 2.668 2.083l.501 2.004c.02.076.073.138.144.169l2.438 1.045c.644.276 1.061.908 1.061 1.608v1.591c0 .966-.784 1.75-1.75 1.75h-.045c.03.162.045.33.045.5 0 1.519-1.231 2.75-2.75 2.75s-2.75-1.231-2.75-2.75c0-.17.016-.338.045-.5h-3.09c.03.162.045.33.045.5 0 1.519-1.231 2.75-2.75 2.75s-2.75-1.231-2.75-2.75c0-.45.108-.875.3-1.25h-.8c-.414 0-.75-.336-.75-.75s.336-.75.75-.75h3c.029 0 .058.002.086.005.054-.003.109-.005.164-.005.73 0 1.395.285 1.887.75h4.613c.036 0 .07.002.105.007.493-.469 1.16-.757 1.895-.757.73 0 1.395.285 1.887.75h.863c.138 0 .25-.112.25-.25v-1.59c0-.1-.06-.191-.151-.23l-2.438-1.045c-.503-.216-.876-.654-1.009-1.184l-.5-2.004c-.14-.557-.64-.947-1.214-.947h-7.438c-.414 0-.75-.336-.75-.75Zm-2.25 3.25c-.414 0-.75.336-.75.75s.336.75.75.75h5c.414 0 .75-.336.75-.75s-.336-.75-.75-.75h-5Zm4.25 8c.69 0 1.25-.56 1.25-1.25s-.56-1.25-1.25-1.25-1.25.56-1.25 1.25.56 1.25 1.25 1.25Zm8.5 0c.69 0 1.25-.56 1.25-1.25s-.56-1.25-1.25-1.25-1.25.56-1.25 1.25.56 1.25 1.25 1.25Z"/></svg>