<svg xmlns="http://www.w3.org/2000/svg" viewBox="0 0 16 16"><path fill-rule="evenodd" d="M2 3.25c0-.414.336-.75.75-.75h6.991c1.228 0 2.307.814 2.645 1.995l.427 1.494c.024.086.092.152.18.173l1.681.421c.78.195 1.326.895 1.326 1.698v1.219c0 .71-.424 1.323-1.032 1.597.02.13.032.266.032.403 0 1.38-1.12 2.5-2.5 2.5s-2.5-1.12-2.5-2.5c0-.084.004-.168.012-.25h-3.024c.008.082.012.166.012.25 0 1.38-1.12 2.5-2.5 2.5s-2.5-1.12-2.5-2.5c0-.356.074-.694.208-1h-.458c-.414 0-.75-.336-.75-.75s.336-.75.75-.75h2.5c.03 0 .06.002.088.005.054-.003.108-.005.162-.005.7 0 1.332.287 1.785.75h4.43c.453-.463 1.086-.75 1.785-.75.698 0 1.33.286 1.783.748.123-.016.217-.121.217-.248v-1.22c0-.114-.078-.214-.19-.242l-1.682-.42c-.606-.152-1.086-.616-1.258-1.217l-.427-1.494c-.153-.537-.643-.907-1.202-.907h-6.991c-.414 0-.75-.336-.75-.75Zm2.5 9.25c.552 0 1-.448 1-1s-.448-1-1-1-1 .448-1 1 .448 1 1 1Zm8 0c.552 0 1-.448 1-1s-.448-1-1-1-1 .448-1 1 .448 1 1 1Z"/><path d="M1.25 6c-.414 0-.75.336-.75.75s.336.75.75.75h5c.414 0 .75-.336.75-.75s-.336-.75-.75-.75h-5Z"/></svg>