<svg xmlns="http://www.w3.org/2000/svg" viewBox="0 0 20 20"><path fill-rule="evenodd" d="M3 3.75c0-.414.336-.75.75-.75h7.916c1.276 0 2.385.878 2.677 2.12l.488 2.074c.023.097.1.17.197.189l2.545.477c.827.155 1.427.878 1.427 1.72v2.42c0 .966-.784 1.75-1.75 1.75h-.045c.03.162.045.33.045.5 0 1.519-1.231 2.75-2.75 2.75s-2.75-1.231-2.75-2.75c0-.17.016-.338.045-.5h-3.09c.03.162.045.33.045.5 0 1.519-1.231 2.75-2.75 2.75s-2.75-1.231-2.75-2.75c0-.45.108-.875.3-1.25h-.8c-.414 0-.75-.336-.75-.75s.336-.75.75-.75h2.5c.69 0 1.25-.56 1.25-1.25s-.56-1.25-1.25-1.25h-3.5c-.414 0-.75-.336-.75-.75s.336-.75.75-.75h5.25c.828 0 1.5-.672 1.5-1.5s-.672-1.5-1.5-1.5h-3.25c-.414 0-.75-.336-.75-.75Zm12.75 10.5c0 .69-.56 1.25-1.25 1.25s-1.25-.56-1.25-1.25.56-1.25 1.25-1.25 1.25.56 1.25 1.25Zm-9.75 1.25c.69 0 1.25-.56 1.25-1.25s-.56-1.25-1.25-1.25-1.25.56-1.25 1.25.56 1.25 1.25 1.25Z"/></svg>