<svg xmlns="http://www.w3.org/2000/svg" viewBox="0 0 16 16"><path fill-rule="evenodd" d="M2.75 2.5c-.414 0-.75.336-.75.75s.336.75.75.75h3.25c.552 0 1 .448 1 1s-.448 1-1 1h-4.75c-.414 0-.75.336-.75.75s.336.75.75.75h3c.414 0 .75.336.75.75s-.336.75-.75.75h-2.5c-.414 0-.75.336-.75.75s.336.75.75.75h.458c-.134.306-.208.644-.208 1 0 1.38 1.12 2.5 2.5 2.5s2.5-1.12 2.5-2.5c0-.084-.004-.168-.012-.25h3.024c-.008.082-.012.166-.012.25 0 1.38 1.12 2.5 2.5 2.5s2.5-1.12 2.5-2.5c0-.137-.011-.272-.032-.403.608-.274 1.032-.886 1.032-1.597v-1.22c0-.802-.546-1.502-1.326-1.697l-1.682-.42c-.087-.022-.155-.088-.18-.174l-.426-1.494c-.338-1.181-1.417-1.995-2.645-1.995h-6.991Zm2.75 9c0 .552-.448 1-1 1s-1-.448-1-1 .448-1 1-1 1 .448 1 1Zm8 0c0 .552-.448 1-1 1s-1-.448-1-1 .448-1 1-1 1 .448 1 1Z"/></svg>