<svg xmlns="http://www.w3.org/2000/svg" viewBox="0 0 20 20"><path fill-rule="evenodd" d="M2.5 5c0-1.519 1.231-2.75 2.75-2.75h9.5c1.519 0 2.75 1.231 2.75 2.75v6c0 1.519-1.231 2.75-2.75 2.75h-2.25v2.25h1.25c.414 0 .75.336.75.75s-.336.75-.75.75h-7.5c-.414 0-.75-.336-.75-.75s.336-.75.75-.75h1.277v-2.25h-2.277c-1.519 0-2.75-1.231-2.75-2.75v-6Zm8.5 11v-2.25h-1.973v2.25h1.973Zm3.75-3.75h-9.5c-.69 0-1.25-.56-1.25-1.25h12c0 .69-.56 1.25-1.25 1.25Zm1.25-2.75h-12v-4.5c0-.69.56-1.25 1.25-1.25h9.5c.69 0 1.25.56 1.25 1.25v4.5Z"/></svg>