<svg xmlns="http://www.w3.org/2000/svg" viewBox="0 0 16 16"><path fill-rule="evenodd" d="M1.5 4.25c0-1.519 1.231-2.75 2.75-2.75h7.5c1.519 0 2.75 1.231 2.75 2.75v4.5c0 1.519-1.231 2.75-2.75 2.75h-1.25v1.5h.75c.414 0 .75.336.75.75s-.336.75-.75.75h-6.5c-.414 0-.75-.336-.75-.75s.336-.75.75-.75h.75v-1.5h-1.25c-1.519 0-2.75-1.231-2.75-2.75v-4.5Zm5.5 7.25h2v1.5h-2v-1.5Zm-2.75-8.5c-.69 0-1.25.56-1.25 1.25v3.25h10v-3.25c0-.69-.56-1.25-1.25-1.25h-7.5Zm8.725 6c-.116.57-.62 1-1.225 1h-7.5c-.605 0-1.11-.43-1.225-1h9.95Z"/></svg>