<svg xmlns="http://www.w3.org/2000/svg" viewBox="0 0 20 20"><path d="M5.25 3.5a1.75 1.75 0 0 0-1.75 1.75v1.5a.75.75 0 0 0 1.5 0v-1.5a.25.25 0 0 1 .25-.25h1.5a.75.75 0 0 0 0-1.5h-1.5Z"/><path fill-rule="evenodd" d="M11.25 3.5a2.75 2.75 0 0 0-2.75 2.75v2.5a2.75 2.75 0 0 0 2.75 2.75h2.5a2.75 2.75 0 0 0 2.75-2.75v-2.5a2.75 2.75 0 0 0-2.75-2.75h-2.5Zm-1.25 2.75c0-.69.56-1.25 1.25-1.25h2.5c.69 0 1.25.56 1.25 1.25v2.5c0 .69-.56 1.25-1.25 1.25h-2.5c-.69 0-1.25-.56-1.25-1.25v-2.5Z"/><path d="M4.25 12.5a.75.75 0 0 1 .75.75v1.5c0 .138.112.25.25.25h1.5a.75.75 0 0 1 0 1.5h-1.5a1.75 1.75 0 0 1-1.75-1.75v-1.5a.75.75 0 0 1 .75-.75Z"/><path d="M16.5 13.25a.75.75 0 0 0-1.5 0v1.5a.25.25 0 0 1-.25.25h-1.5a.75.75 0 0 0 0 1.5h1.5a1.75 1.75 0 0 0 1.75-1.75v-1.5Z"/><path d="M4.25 8.25a.75.75 0 0 1 .75.75v2a.75.75 0 0 1-1.5 0v-2a.75.75 0 0 1 .75-.75Z"/><path d="M9 15a.75.75 0 0 0 0 1.5h2a.75.75 0 0 0 0-1.5h-2Z"/></svg>