<svg xmlns="http://www.w3.org/2000/svg" viewBox="0 0 20 20"><path fill-rule="evenodd" d="M11.4192 2.58787C10.6355 1.80404 9.36458 1.80404 8.58074 2.58787L2.58787 8.58074C1.80404 9.36458 1.80404 10.6355 2.58787 11.4192L8.58074 17.4122C9.36458 18.1959 10.6355 18.1959 11.4192 17.4122L17.4122 11.4192C18.1959 10.6355 18.1959 9.36458 17.4122 8.58074L11.4192 2.58787ZM9.1971 6.78859C9.1971 6.34518 9.55655 5.98574 9.99996 5.98574C10.4434 5.98574 10.8028 6.34518 10.8028 6.78859V10C10.8028 10.4434 10.4434 10.8029 9.99996 10.8029C9.55655 10.8029 9.1971 10.4434 9.1971 10V6.78859ZM10.8028 13.2114C10.8028 13.6548 10.4434 14.0143 9.99996 14.0143C9.55655 14.0143 9.1971 13.6548 9.1971 13.2114C9.1971 12.768 9.55655 12.4085 9.99996 12.4085C10.4434 12.4085 10.8028 12.768 10.8028 13.2114Z" fill="#5C5F62"/></svg>
