<svg xmlns="http://www.w3.org/2000/svg" viewBox="0 0 20 20"><path fill-rule="evenodd" clip-rule="evenodd" d="M11.3774 2.58526C10.5971 1.80491 9.33186 1.80491 8.55151 2.58526L2.58526 8.55151C1.80491 9.33186 1.80491 10.5971 2.58526 11.3774L8.55151 17.3437C9.33186 18.124 10.5971 18.124 11.3774 17.3437L17.3437 11.3774C18.124 10.5971 18.124 9.33186 17.3437 8.55151L11.3774 2.58526ZM9.16513 6.76732C9.16513 6.32588 9.52298 5.96803 9.96442 5.96803C10.4059 5.96803 10.7637 6.32588 10.7637 6.76732V9.96447C10.7637 10.4059 10.4059 10.7638 9.96442 10.7638C9.52298 10.7638 9.16513 10.4059 9.16513 9.96447V6.76732ZM10.7637 13.1616C10.7637 13.603 10.4059 13.9609 9.96442 13.9609C9.52298 13.9609 9.16513 13.603 9.16513 13.1616C9.16513 12.7202 9.52298 12.3623 9.96442 12.3623C10.4059 12.3623 10.7637 12.7202 10.7637 13.1616Z" fill="#5C5F62"/></svg>
