<svg viewBox="0 0 20 20" xmlns="http://www.w3.org/2000/svg"><path d="M10 5.5a.75.75 0 0 1 .75.75v4.25a.75.75 0 0 1-1.5 0v-4.25a.75.75 0 0 1 .75-.75Z" fill="#5C5F62"/><path d="M11 13.5a1 1 0 1 1-2 0 1 1 0 0 1 2 0Z" fill="#5C5F62"/><path fill-rule="evenodd" d="M11.237 2.177a1.75 1.75 0 0 0-2.474 0l-6.586 6.586a1.75 1.75 0 0 0 0 2.475l6.586 6.585a1.75 1.75 0 0 0 2.474 0l6.586-6.585a1.75 1.75 0 0 0 0-2.475l-6.586-6.586Zm-1.414 1.06a.25.25 0 0 1 .354 0l6.586 6.586a.25.25 0 0 1 0 .354l-6.586 6.586a.25.25 0 0 1-.354 0l-6.586-6.586a.25.25 0 0 1 0-.354l6.586-6.585Z" fill="#5C5F62"/></svg>