<svg xmlns="http://www.w3.org/2000/svg" viewBox="0 0 20 20"><path d="M10 6a.75.75 0 0 1 .75.75v3.5a.75.75 0 0 1-1.5 0v-3.5a.75.75 0 0 1 .75-.75Z"/><path d="M11 13a1 1 0 1 1-2 0 1 1 0 0 1 2 0Z"/><path fill-rule="evenodd" d="M11.237 3.177a1.75 1.75 0 0 0-2.474 0l-5.586 5.585a1.75 1.75 0 0 0 0 2.475l5.586 5.586a1.75 1.75 0 0 0 2.474 0l5.586-5.586a1.75 1.75 0 0 0 0-2.475l-5.586-5.585Zm-1.414 1.06a.25.25 0 0 1 .354 0l5.586 5.586a.25.25 0 0 1 0 .354l-5.586 5.585a.25.25 0 0 1-.354 0l-5.586-5.585a.25.25 0 0 1 0-.354l5.586-5.586Z"/></svg>