<svg xmlns="http://www.w3.org/2000/svg" viewBox="0 0 20 20"><path d="M3.25 5c0-.966.784-1.75 1.75-1.75h.5a.75.75 0 0 1 0 1.5h-.5a.25.25 0 0 0-.25.25v.5a.75.75 0 0 1-1.5 0v-.5Z"/><path d="M12.78 7.22a.75.75 0 0 1 0 1.06l-4.5 4.5a.75.75 0 0 1-1.06-1.06l4.5-4.5a.75.75 0 0 1 1.06 0Z"/><path d="M9 8a1 1 0 1 1-2 0 1 1 0 0 1 2 0Z"/><path d="M12 13a1 1 0 1 0 0-2 1 1 0 0 0 0 2Z"/><path d="M3.25 15c0 .966.784 1.75 1.75 1.75h.5a.75.75 0 0 0 0-1.5h-.5a.25.25 0 0 1-.25-.25v-.5a.75.75 0 0 0-1.5 0v.5Z"/><path d="M16.75 15a1.75 1.75 0 0 1-1.75 1.75h-.5a.75.75 0 0 1 0-1.5h.5a.25.25 0 0 0 .25-.25v-.5a.75.75 0 0 1 1.5 0v.5Z"/><path d="M16.75 5a1.75 1.75 0 0 0-1.75-1.75h-.5a.75.75 0 0 0 0 1.5h.5a.25.25 0 0 1 .25.25v.5a.75.75 0 0 0 1.5 0v-.5Z"/><path d="M16 8.25a.75.75 0 0 1 .75.75v2a.75.75 0 0 1-1.5 0v-2a.75.75 0 0 1 .75-.75Z"/><path d="M11 16.75a.75.75 0 0 0 0-1.5h-2a.75.75 0 0 0 0 1.5h2Z"/><path d="M4 8.25a.75.75 0 0 1 .75.75v2a.75.75 0 0 1-1.5 0v-2a.75.75 0 0 1 .75-.75Z"/><path d="M11 4.75a.75.75 0 0 0 0-1.5h-2a.75.75 0 0 0 0 1.5h2Z"/></svg>