<svg xmlns="http://www.w3.org/2000/svg" viewBox="0 0 20 20"><path fill-rule="evenodd" d="M8.018 3.118c.778-1.694 3.186-1.694 3.964 0 .257.561.904.83 1.483.615 1.748-.649 3.45 1.054 2.802 2.802-.214.58.054 1.226.615 1.483 1.694.778 1.694 3.186 0 3.964-.561.257-.83.904-.615 1.483.649 1.748-1.054 3.45-2.802 2.802-.58-.214-1.226.054-1.483.615-.778 1.694-3.186 1.694-3.964 0-.257-.561-.904-.83-1.483-.615-1.748.649-3.45-1.054-2.802-2.802.214-.58-.054-1.226-.615-1.483-1.694-.778-1.694-3.186 0-3.964.561-.257.83-.904.615-1.483-.649-1.748 1.054-3.45 2.802-2.802.58.214 1.226-.054 1.483-.615Zm4.762 5.162c.293-.293.293-.767 0-1.06-.293-.293-.767-.293-1.06 0l-4.5 4.5c-.293.293-.293.767 0 1.06.293.293.767.293 1.06 0l4.5-4.5Zm-4.78.72c.552 0 1-.448 1-1s-.448-1-1-1-1 .448-1 1 .448 1 1 1Zm5 3c0 .552-.448 1-1 1s-1-.448-1-1 .448-1 1-1 1 .448 1 1Z"/></svg>