<svg viewBox="0 0 20 20" xmlns="http://www.w3.org/2000/svg"><path fill-rule="evenodd" d="M11.566.66a2.189 2.189 0 00-3.132 0l-.962.985a2.189 2.189 0 01-1.592.66l-1.377-.017a2.189 2.189 0 00-2.215 2.215l.016 1.377a2.189 2.189 0 01-.66 1.592l-.984.962a2.189 2.189 0 000 3.132l.985.962c.428.418.667.994.66 1.592l-.017 1.377a2.189 2.189 0 002.215 2.215l1.377-.016a2.189 2.189 0 011.592.66l.962.984c.859.88 2.273.88 3.132 0l.962-.985a2.189 2.189 0 011.592-.66l1.377.017a2.189 2.189 0 002.215-2.215l-.016-1.377a2.189 2.189 0 01.66-1.592l.984-.962c.88-.859.88-2.273 0-3.132l-.985-.962a2.189 2.189 0 01-.66-1.592l.017-1.377a2.189 2.189 0 00-2.215-2.215l-1.377.016a2.189 2.189 0 01-1.592-.66L11.566.66zM7 8.5a1.5 1.5 0 100-3 1.5 1.5 0 000 3zm6 6a1.5 1.5 0 100-3 1.5 1.5 0 000 3zm.778-8.278a1.1 1.1 0 010 1.556l-6 6a1.1 1.1 0 11-1.556-1.556l6-6a1.1 1.1 0 011.556 0z" fill="currentColor"/></svg>
