<svg xmlns="http://www.w3.org/2000/svg" viewBox="0 0 20 20"><path d="M3.25 5.5c0-1.242 1.007-2.25 2.25-2.25.414 0 .75.336.75.75s-.336.75-.75.75-.75.336-.75.75-.336.75-.75.75-.75-.336-.75-.75Z"/><path d="M12.78 7.22c.293.293.293.768 0 1.06l-4.5 4.5c-.293.293-.767.293-1.06 0-.293-.292-.293-.767 0-1.06l4.5-4.5c.293-.293.767-.293 1.06 0Z"/><path d="M9 8c0 .553-.448 1-1 1s-1-.447-1-1c0-.552.448-1 1-1s1 .448 1 1Z"/><path d="M12 13c.552 0 1-.447 1-1 0-.552-.448-1-1-1s-1 .448-1 1c0 .553.448 1 1 1Z"/><path d="M3.25 14.5c0 1.243 1.007 2.25 2.25 2.25.414 0 .75-.335.75-.75 0-.414-.336-.75-.75-.75s-.75-.335-.75-.75c0-.414-.336-.75-.75-.75s-.75.336-.75.75Z"/><path d="M16.75 14.5c0 1.243-1.007 2.25-2.25 2.25-.414 0-.75-.335-.75-.75 0-.414.336-.75.75-.75s.75-.335.75-.75c0-.414.336-.75.75-.75s.75.336.75.75Z"/><path d="M16.75 5.5c0-1.242-1.007-2.25-2.25-2.25-.414 0-.75.336-.75.75s.336.75.75.75.75.336.75.75.336.75.75.75.75-.336.75-.75Z"/><path d="M16 8.25c.414 0 .75.336.75.75v2c0 .415-.336.75-.75.75s-.75-.335-.75-.75v-2c0-.414.336-.75.75-.75Z"/><path d="M11 16.75c.414 0 .75-.335.75-.75 0-.414-.336-.75-.75-.75h-2c-.414 0-.75.336-.75.75 0 .415.336.75.75.75h2Z"/><path d="M4 8.25c.414 0 .75.336.75.75v2c0 .415-.336.75-.75.75s-.75-.335-.75-.75v-2c0-.414.336-.75.75-.75Z"/><path d="M11 4.75c.414 0 .75-.336.75-.75s-.336-.75-.75-.75h-2c-.414 0-.75.336-.75.75s.336.75.75.75h2Z"/></svg>