<svg viewBox="0 0 20 20" xmlns="http://www.w3.org/2000/svg"><path d="M4 3H3v1H1V2.5A1.5 1.5 0 012.5 1H4v2zM9 3H6V1h3v2zM14 3h-3V1h3v2zM1 9V6h2v3H1zM1 11v3h2v-3H1zM17 6h2v3h-2V6zM19 11h-2v3h2v-3zM9 19v-2H6v2h3zM14 17v2h-3v-2h3zM9 7.5a1.5 1.5 0 11-3 0 1.5 1.5 0 013 0zM12.5 14a1.5 1.5 0 100-3 1.5 1.5 0 000 3zM13.707 6.293a1 1 0 010 1.414l-6 6a1 1 0 01-1.414-1.414l6-6a1 1 0 011.414 0zM18 19a1 1 0 001-1v-2h-2v1h-1v2h2zM2 19a1 1 0 01-1-1v-2h2v1h1v2H2zM17 4V3h-1V1h1.5A1.5 1.5 0 0119 2.5V4h-2z" fill="#5C5F62"/></svg>