<svg xmlns="http://www.w3.org/2000/svg" viewBox="0 0 16 16"><path d="M10.78 6.28c.293-.293.293-.767 0-1.06-.293-.293-.767-.293-1.06 0l-4.5 4.5c-.293.293-.293.767 0 1.06.293.293.767.293 1.06 0l4.5-4.5Z"/><path d="M7 6c0 .552-.448 1-1 1s-1-.448-1-1 .448-1 1-1 1 .448 1 1Z"/><path d="M10 11c.552 0 1-.448 1-1s-.448-1-1-1-1 .448-1 1 .448 1 1 1Z"/><path fill-rule="evenodd" d="M10.094 1.514c-.822-1.79-3.366-1.79-4.188 0-.176.383-.617.565-1.011.42-1.848-.686-3.647 1.113-2.962 2.96.146.395-.036.836-.419 1.012-1.79.822-1.79 3.366 0 4.188.383.176.565.617.42 1.011-.686 1.848 1.113 3.647 2.96 2.962.395-.146.836.036 1.012.419.822 1.79 3.366 1.79 4.188 0 .176-.383.617-.565 1.011-.42 1.848.686 3.647-1.113 2.962-2.96-.146-.396.036-.836.419-1.012 1.79-.822 1.79-3.366 0-4.188-.383-.176-.565-.617-.42-1.011.686-1.848-1.113-3.647-2.96-2.962-.396.146-.836-.036-1.012-.419Zm-2.825.626c.287-.625 1.175-.625 1.462 0 .503 1.096 1.765 1.619 2.896 1.2.644-.24 1.273.389 1.034 1.034-.42 1.13.103 2.392 1.199 2.895.625.287.625 1.175 0 1.462-1.096.503-1.618 1.765-1.2 2.896.24.644-.389 1.273-1.034 1.034-1.13-.42-2.392.103-2.895 1.199-.287.625-1.175.625-1.462 0-.503-1.096-1.765-1.618-2.896-1.2-.644.24-1.273-.389-1.033-1.034.419-1.13-.104-2.392-1.2-2.895-.625-.287-.625-1.175 0-1.462 1.096-.503 1.619-1.765 1.2-2.896-.24-.644.389-1.273 1.034-1.033 1.13.419 2.392-.104 2.895-1.2Z"/></svg>