<svg xmlns="http://www.w3.org/2000/svg" viewBox="0 0 16 16"><path fill-rule="evenodd" d="M9.527 1.327c-.6-1.306-2.455-1.306-3.054 0-.367.799-1.287 1.18-2.112.874-1.347-.5-2.66.813-2.16 2.16.306.825-.075 1.745-.874 2.112-1.306.6-1.306 2.455 0 3.054.799.367 1.18 1.288.874 2.112-.5 1.347.813 2.659 2.16 2.16.825-.306 1.745.075 2.112.874.6 1.306 2.455 1.306 3.054 0 .367-.799 1.288-1.18 2.112-.874 1.347.499 2.66-.813 2.16-2.16-.306-.824.075-1.745.874-2.112 1.306-.6 1.306-2.455 0-3.054-.799-.367-1.18-1.287-.874-2.112.5-1.347-.813-2.66-2.16-2.16-.824.306-1.745-.075-2.112-.874Zm-2.527 4.923c0 .552-.448 1-1 1s-1-.448-1-1 .448-1 1-1 1 .448 1 1Zm3.53.53-4 4c-.293.293-.767.293-1.06 0-.293-.293-.293-.768 0-1.06l4-4c.293-.293.767-.293 1.06 0 .293.293.293.767 0 1.06Zm.47 3.47c0 .552-.448 1-1 1s-1-.448-1-1 .448-1 1-1 1 .448 1 1Z"/></svg>