<svg xmlns="http://www.w3.org/2000/svg" viewBox="0 0 20 20"><path d="M12.78 8.28c.293-.293.293-.767 0-1.06-.293-.293-.767-.293-1.06 0l-4.5 4.5c-.293.293-.293.767 0 1.06.293.293.767.293 1.06 0l4.5-4.5Z"/><path d="M9 8c0 .552-.448 1-1 1s-1-.448-1-1 .448-1 1-1 1 .448 1 1Z"/><path d="M12 13c.552 0 1-.448 1-1s-.448-1-1-1-1 .448-1 1 .448 1 1 1Z"/><path fill-rule="evenodd" d="M12.209 3.014c-.867-1.889-3.55-1.889-4.418 0-.203.442-.713.653-1.169.484-1.949-.722-3.846 1.175-3.124 3.124.17.456-.042.966-.484 1.17-1.889.866-1.889 3.55 0 4.417.442.203.653.713.484 1.169-.722 1.948 1.175 3.846 3.124 3.124.456-.17.966.042 1.17.484.866 1.889 3.55 1.889 4.417 0 .203-.442.713-.653 1.169-.484 1.949.722 3.846-1.175 3.124-3.124-.17-.456.042-.966.484-1.17 1.889-.866 1.889-3.55 0-4.417-.442-.203-.653-.713-.484-1.169.722-1.949-1.175-3.846-3.124-3.124-.456.17-.966-.042-1.17-.484Zm-3.055.626c.332-.723 1.36-.723 1.692 0 .53 1.155 1.861 1.707 3.053 1.265.746-.277 1.473.45 1.196 1.196-.442 1.192.11 2.523 1.265 3.053.723.332.723 1.36 0 1.692-1.155.53-1.707 1.861-1.265 3.053.277.746-.45 1.473-1.196 1.196-1.192-.442-2.523.11-3.053 1.265-.332.723-1.36.723-1.692 0-.53-1.155-1.861-1.707-3.053-1.265-.746.277-1.473-.45-1.196-1.196.442-1.192-.11-2.523-1.265-3.053-.723-.332-.723-1.36 0-1.692 1.155-.53 1.707-1.861 1.265-3.053-.277-.746.45-1.473 1.196-1.196 1.192.442 2.523-.11 3.053-1.265Z"/></svg>