<svg xmlns="http://www.w3.org/2000/svg" viewBox="0 0 20 20"><path fill-rule="evenodd" d="M11.527 3.327c-.6-1.306-2.455-1.306-3.054 0a1.68 1.68 0 0 1-2.112.874c-1.347-.5-2.66.813-2.16 2.16a1.68 1.68 0 0 1-.874 2.112c-1.306.6-1.306 2.455 0 3.054a1.68 1.68 0 0 1 .874 2.112c-.5 1.347.813 2.659 2.16 2.16a1.68 1.68 0 0 1 2.112.874c.6 1.306 2.455 1.306 3.054 0a1.68 1.68 0 0 1 2.112-.874c1.347.499 2.66-.813 2.16-2.16a1.68 1.68 0 0 1 .874-2.112c1.306-.6 1.306-2.455 0-3.054a1.68 1.68 0 0 1-.874-2.112c.5-1.347-.813-2.66-2.16-2.16a1.68 1.68 0 0 1-2.112-.874Zm-2.527 4.923a1 1 0 1 1-2 0 1 1 0 0 1 2 0Zm3.53.53-4 4a.75.75 0 1 1-1.06-1.06l4-4a.75.75 0 1 1 1.06 1.06Zm.47 3.47a1 1 0 1 1-2 0 1 1 0 0 1 2 0Z"/></svg>