<svg xmlns="http://www.w3.org/2000/svg" viewBox="0 0 20 20"><path d="M2.5 4.75c0-1.243 1.007-2.25 2.25-2.25h.5c.414 0 .75.336.75.75s-.336.75-.75.75h-.5c-.414 0-.75.336-.75.75v.5c0 .414-.336.75-.75.75s-.75-.336-.75-.75v-.5Z"/><path d="M13.53 6.47c.293.293.293.767 0 1.06l-6 6c-.293.293-.767.293-1.06 0-.293-.293-.293-.767 0-1.06l6-6c.293-.293.767-.293 1.06 0Z"/><path d="M8.75 7.5c0 .69-.56 1.25-1.25 1.25s-1.25-.56-1.25-1.25.56-1.25 1.25-1.25 1.25.56 1.25 1.25Z"/><path d="M12.5 13.75c.69 0 1.25-.56 1.25-1.25s-.56-1.25-1.25-1.25-1.25.56-1.25 1.25.56 1.25 1.25 1.25Z"/><path d="M2.5 15.25c0 1.243 1.007 2.25 2.25 2.25h.5c.414 0 .75-.336.75-.75s-.336-.75-.75-.75h-.5c-.414 0-.75-.336-.75-.75v-.5c0-.414-.336-.75-.75-.75s-.75.336-.75.75v.5Z"/><path d="M17.5 15.25c0 1.243-1.007 2.25-2.25 2.25h-.5c-.414 0-.75-.336-.75-.75s.336-.75.75-.75h.5c.414 0 .75-.336.75-.75v-.5c0-.414.336-.75.75-.75s.75.336.75.75v.5Z"/><path d="M17.5 4.75c0-1.243-1.007-2.25-2.25-2.25h-.5c-.414 0-.75.336-.75.75s.336.75.75.75h.5c.414 0 .75.336.75.75v.5c0 .414.336.75.75.75s.75-.336.75-.75v-.5Z"/><path d="M16.75 7.75c.414 0 .75.336.75.75v3c0 .414-.336.75-.75.75s-.75-.336-.75-.75v-3c0-.414.336-.75.75-.75Z"/><path d="M11.5 17.5c.414 0 .75-.336.75-.75s-.336-.75-.75-.75h-3c-.414 0-.75.336-.75.75s.336.75.75.75h3Z"/><path d="M3.25 7.75c.414 0 .75.336.75.75v3c0 .414-.336.75-.75.75s-.75-.336-.75-.75v-3c0-.414.336-.75.75-.75Z"/><path d="M11.5 4c.414 0 .75-.336.75-.75s-.336-.75-.75-.75h-3c-.414 0-.75.336-.75.75s.336.75.75.75h3Z"/></svg>