<svg viewBox="0 0 20 20" xmlns="http://www.w3.org/2000/svg"><path d="M8.707 7.707l6-6A1 1 0 0013.293.293l-6 6a1 1 0 001.414 1.414z" fill="currentColor"/><path fill-rule="evenodd" d="M2 0a1 1 0 000 2h1v12.17A3.001 3.001 0 106.83 16h5.34A3 3 0 1015 14H5v-2h11.566a1.5 1.5 0 001.485-1.288l.939-6.57a1 1 0 00-1.98-.283L16.133 10H5V1.5A1.5 1.5 0 003.5 0H2zm13 16a1 1 0 100 2 1 1 0 000-2zM4 16a1 1 0 100 2 1 1 0 000-2z" fill="currentColor"/><path d="M8.5 3a1.5 1.5 0 100-3 1.5 1.5 0 000 3zM15 6.5a1.5 1.5 0 11-3 0 1.5 1.5 0 013 0z" fill="currentColor"/></svg>
