<svg xmlns="http://www.w3.org/2000/svg" viewBox="0 0 16 16"><path d="M1.25 3c0-.966.784-1.75 1.75-1.75h.5c.414 0 .75.336.75.75s-.336.75-.75.75h-.5c-.138 0-.25.112-.25.25v.5c0 .414-.336.75-.75.75s-.75-.336-.75-.75v-.5Z"/><path d="M10.78 5.22c.293.293.293.767 0 1.06l-4.5 4.5c-.293.293-.767.293-1.06 0-.293-.293-.293-.767 0-1.06l4.5-4.5c.293-.293.767-.293 1.06 0Z"/><path d="M7 6c0 .552-.448 1-1 1s-1-.448-1-1 .448-1 1-1 1 .448 1 1Z"/><path d="M10 11c.552 0 1-.448 1-1s-.448-1-1-1-1 .448-1 1 .448 1 1 1Z"/><path d="M1.25 13c0 .966.784 1.75 1.75 1.75h.5c.414 0 .75-.336.75-.75s-.336-.75-.75-.75h-.5c-.138 0-.25-.112-.25-.25v-.5c0-.414-.336-.75-.75-.75s-.75.336-.75.75v.5Z"/><path d="M14.75 13c0 .966-.784 1.75-1.75 1.75h-.5c-.414 0-.75-.336-.75-.75s.336-.75.75-.75h.5c.138 0 .25-.112.25-.25v-.5c0-.414.336-.75.75-.75s.75.336.75.75v.5Z"/><path d="M14.75 3c0-.966-.784-1.75-1.75-1.75h-.5c-.414 0-.75.336-.75.75s.336.75.75.75h.5c.138 0 .25.112.25.25v.5c0 .414.336.75.75.75s.75-.336.75-.75v-.5Z"/><path d="M14 6.25c.414 0 .75.336.75.75v2c0 .414-.336.75-.75.75s-.75-.336-.75-.75v-2c0-.414.336-.75.75-.75Z"/><path d="M9 14.75c.414 0 .75-.336.75-.75s-.336-.75-.75-.75h-2c-.414 0-.75.336-.75.75s.336.75.75.75h2Z"/><path d="M2 6.25c.414 0 .75.336.75.75v2c0 .414-.336.75-.75.75s-.75-.336-.75-.75v-2c0-.414.336-.75.75-.75Z"/><path d="M9 2.75c.414 0 .75-.336.75-.75s-.336-.75-.75-.75h-2c-.414 0-.75.336-.75.75s.336.75.75.75h2Z"/></svg>