<svg viewBox="0 0 20 20" xmlns="http://www.w3.org/2000/svg"><path fill-rule="evenodd" d="M6 3.072a2 2 0 0 0-.99 1.939 2 2 0 0 0-1.826 3.163 2 2 0 0 0 0 3.652A2 2 0 0 0 5.01 14.99a2 2 0 0 0 3.164 1.828 2 2 0 0 0 3.652 0 2 2 0 0 0 3.164-1.827 2 2 0 0 0 1.826-3.164 2 2 0 0 0 0-3.652A2 2 0 0 0 14.99 5.01a2 2 0 0 0-3.163-1.826 2 2 0 0 0-3.654 0A2 2 0 0 0 6 3.072Zm6.832 4.483a1 1 0 1 0-1.664-1.11l-4 6a1 1 0 0 0 1.664 1.11l4-6ZM7 9a1 1 0 1 0 0-2 1 1 0 0 0 0 2Zm7 3a1 1 0 1 1-2 0 1 1 0 0 1 2 0Z" fill="currentColor"/></svg>
