<svg xmlns="http://www.w3.org/2000/svg" viewBox="0 0 20 20"><path d="M10 6a.75.75 0 0 1 .75.75v2.5a.75.75 0 0 1-1.5 0v-2.5a.75.75 0 0 1 .75-.75Z"/><path d="M10 13a1 1 0 1 0 0-2 1 1 0 0 0 0 2Z"/><path fill-rule="evenodd" d="M3.5 8.25a4.75 4.75 0 0 1 4.75-4.75h3.5a4.75 4.75 0 0 1 4.75 4.75v2.5a4.75 4.75 0 0 1-4.573 4.747l-1.335 1.714a.75.75 0 0 1-1.189-.006l-1.3-1.707a4.75 4.75 0 0 1-4.603-4.748v-2.5Zm4.75-3.25a3.25 3.25 0 0 0-3.25 3.25v2.5a3.25 3.25 0 0 0 3.25 3.25h.226a.75.75 0 0 1 .597.296l.934 1.225.96-1.232a.75.75 0 0 1 .591-.289h.192a3.25 3.25 0 0 0 3.25-3.25v-2.5a3.25 3.25 0 0 0-3.25-3.25h-3.5Z"/></svg>