<svg xmlns="http://www.w3.org/2000/svg" viewBox="0 0 20 20"><path d="M8 6c0 .552-.448 1-1 1s-1-.448-1-1 .448-1 1-1 1 .448 1 1Z"/><path fill-rule="evenodd" d="M2.5 4.25c0-.966.783-1.75 1.75-1.75h11.5c.966 0 1.75.784 1.75 1.75v3.522c0 .967-.784 1.75-1.75 1.75h-11.5c-.967 0-1.75-.783-1.75-1.75v-3.522Zm1.75-.25c-.138 0-.25.112-.25.25v3.522c0 .138.112.25.25.25h11.5c.138 0 .25-.112.25-.25v-3.522c0-.138-.112-.25-.25-.25h-11.5Z"/><path d="M4.25 12.054c-.138 0-.25.112-.25.25v3.446c0 .138.112.25.25.25h6.043c.415 0 .75.336.75.75s-.335.75-.75.75h-6.043c-.967 0-1.75-.784-1.75-1.75v-3.446c0-.966.783-1.75 1.75-1.75h8.098c.414 0 .75.336.75.75s-.336.75-.75.75h-8.098Z"/><path d="M7 15c.552 0 1-.448 1-1s-.448-1-1-1-1 .448-1 1 .448 1 1 1Z"/><path fill-rule="evenodd" d="M17.943 14.234c.045.19.068.39.068.593 0 .205-.023.403-.068.594l.512.296c.359.207.482.665.275 1.024-.207.359-.666.482-1.025.275l-.512-.296c-.289.27-.64.477-1.028.594v.59c0 .415-.336.75-.75.75s-.75-.335-.75-.75v-.59c-.389-.117-.74-.323-1.028-.594l-.512.296c-.359.207-.817.084-1.024-.275-.208-.359-.085-.817.274-1.024l.512-.296c-.045-.19-.068-.39-.068-.594 0-.204.023-.403.068-.593l-.512-.296c-.359-.207-.482-.666-.274-1.024.207-.359.665-.482 1.024-.275l.512.296c.289-.271.64-.477 1.028-.594v-.591c0-.414.336-.75.75-.75s.75.336.75.75v.59c.389.118.74.324 1.028.595l.512-.296c.359-.207.818-.084 1.025.275.207.358.084.817-.275 1.024l-.512.296Zm-3.624.593c0-.194.05-.377.14-.536l.007-.012.006-.011c.19-.321.541-.537.942-.537.401 0 .753.215.944.536l.006.012.008.013c.089.158.14.34.14.535s-.051.378-.14.536l-.008.013-.006.011c-.191.322-.542.537-.943.537-.401 0-.752-.216-.943-.537l-.006-.011-.007-.012c-.09-.159-.14-.342-.14-.537Z"/></svg>