<svg xmlns="http://www.w3.org/2000/svg" viewBox="0 0 20 20"><path fill="#5C5F62" d=""/><path d="M10.5 4C10.2239 4 10 4.22386 10 4.5V15.5C10 15.7761 10.2239 16 10.5 16H15.5C15.7761 16 16 15.7761 16 15.5V4.5C16 4.22386 15.7761 4 15.5 4H10.5Z" fill="#616A75"/><path fill-rule="evenodd" clip-rule="evenodd" d="M2.5 1C1.67157 1 1 1.67157 1 2.5V17.5C1 18.3284 1.67157 19 2.5 19H17.5C18.3284 19 19 18.3284 19 17.5V2.5C19 1.67157 18.3284 1 17.5 1H2.5ZM3 3.5C3 3.22386 3.22386 3 3.5 3H16.5C16.7761 3 17 3.22386 17 3.5V16.5C17 16.7761 16.7761 17 16.5 17H3.5C3.22386 17 3 16.7761 3 16.5V3.5Z" fill="#616A75"/></svg>