<svg xmlns="http://www.w3.org/2000/svg" viewBox="0 0 20 20"><path d="M2.25 2.25c-.414 0-.75.336-.75.75v9c0 .414.336.75.75.75s.75-.336.75-.75v-8.25h10.25c.414 0 .75-.336.75-.75s-.336-.75-.75-.75h-11Z"/><path fill-rule="evenodd" d="M4.5 6c0-.414.336-.75.75-.75h10.5c.414 0 .75.336.75.75v4.5c0 .414-.336.75-.75.75s-.75-.336-.75-.75v-1h-9v5.5h4.25c.414 0 .75.336.75.75s-.336.75-.75.75h-5c-.414 0-.75-.336-.75-.75v-9.75Zm10.5.75v1.25h-9v-1.25h9Z"/><path d="M12.5 15.75c0-.414.336-.75.75-.75h1.75v-1.75c0-.414.336-.75.75-.75s.75.336.75.75v1.75h1.75c.414 0 .75.336.75.75s-.336.75-.75.75h-1.75v1.75c0 .414-.336.75-.75.75s-.75-.336-.75-.75v-1.75h-1.75c-.414 0-.75-.336-.75-.75Z"/></svg>