<svg xmlns="http://www.w3.org/2000/svg" viewBox="0 0 20 20"><path d="M1.5 3c0-.414.336-.75.75-.75h11c.414 0 .75.336.75.75s-.336.75-.75.75h-10.25v8.25c0 .414-.336.75-.75.75s-.75-.336-.75-.75v-9Z"/><path fill-rule="evenodd" d="M5.25 5.25c-.414 0-.75.336-.75.75v9.75c0 .414.336.75.75.75h6.34l-.973-3.913c-.137-.553.025-1.138.428-1.541.404-.403.988-.566 1.542-.428l3.913.973v-5.591c0-.414-.336-.75-.75-.75h-10.5Zm9.75 2.75h-9v-1.25h9v1.25Z"/><path d="M11.841 11.841c.124-.124.304-.174.474-.132l4.51 1.122c.175.043.314.178.362.351.048.174-.001.36-.129.487l-1.164 1.165.841.84c.195.196.195.512 0 .708l-.353.353c-.196.196-.512.196-.707 0l-.841-.84-1.165 1.164c-.127.127-.313.176-.487.128-.174-.048-.308-.186-.351-.361l-1.122-4.51c-.042-.171.008-.35.132-.475Z"/></svg>