<svg xmlns="http://www.w3.org/2000/svg" viewBox="0 0 20 20"><path fill-rule="evenodd" d="M11.973 8.948c.018.34.027.692.027 1.052a.75.75 0 0 0 1.5 0c0-.397-.01-.79-.032-1.173.876-.096 1.664-.234 2.32-.417.138.507.212 1.04.212 1.59a.75.75 0 0 0 1.5 0 7.5 7.5 0 1 0-7.5 7.5.75.75 0 0 0 0-1.5c-.396 0-.907-.332-1.347-1.493a8.863 8.863 0 0 1-.412-1.547c.566.027 1.155.04 1.759.04a.75.75 0 1 0 0-1.5c-.678 0-1.331-.018-1.947-.052a19.852 19.852 0 0 1-.025-2.5c.634.035 1.296.052 1.972.052a36 36 0 0 0 1.973-.052Zm-1.973-4.948c-.396 0-.907.332-1.347 1.493-.207.546-.369 1.21-.48 1.96a35.3 35.3 0 0 0 3.654.001c-.111-.751-.273-1.415-.48-1.961-.44-1.161-.95-1.493-1.347-1.493Zm-3.325 3.334c.124-.88.315-1.686.576-2.373.047-.125.098-.25.153-.372a6.026 6.026 0 0 0-2.61 2.425c.522.132 1.157.24 1.881.32Zm-2.462 1.076c.655.183 1.443.32 2.319.417a21.308 21.308 0 0 0 .008 2.492 20.112 20.112 0 0 1-.314-.04c-.947-.127-1.683-.302-2.176-.5a6.057 6.057 0 0 1 .163-2.369Zm10.992-1.396c-.52.132-1.156.24-1.88.32-.124-.88-.315-1.686-.576-2.373a6.776 6.776 0 0 0-.153-.372 6.026 6.026 0 0 1 2.61 2.425Zm-7.8 8.397a6.024 6.024 0 0 1-2.863-2.915c.455.11.955.199 1.484.27.218.03.444.056.676.08.124.81.306 1.553.549 2.193.047.125.098.25.153.372Z"/><path d="M14.75 11.75a.75.75 0 0 1 .75.75v1.5h1.5a.75.75 0 0 1 0 1.5h-1.5v1.5a.75.75 0 0 1-1.5 0v-1.5h-1.5a.75.75 0 0 1 0-1.5h1.5v-1.5a.75.75 0 0 1 .75-.75Z"/></svg>