<svg xmlns="http://www.w3.org/2000/svg" viewBox="0 0 20 20"><path fill-rule="evenodd" d="M8.027 8.948a19.856 19.856 0 0 0 .026 2.5c.616.034 1.269.052 1.947.052a.75.75 0 0 1 0 1.5c-.604 0-1.193-.014-1.759-.04.106.582.244 1.103.412 1.547.44 1.161.95 1.493 1.347 1.493a.75.75 0 0 1 0 1.5 7.5 7.5 0 1 1 7.5-7.5.75.75 0 0 1-1.5 0c0-.55-.074-1.083-.213-1.59-.655.183-1.443.32-2.319.417.021.384.032.776.032 1.173a.75.75 0 0 1-1.5 0c0-.36-.01-.711-.027-1.052a36 36 0 0 1-1.973.052 36 36 0 0 1-1.973-.052Zm-3.814-.537a6.006 6.006 0 0 0-.163 2.367c.493.199 1.229.374 2.176.501l.314.04a21.132 21.132 0 0 1-.008-2.492c-.876-.096-1.664-.234-2.32-.416Zm.582-1.397c.52.132 1.156.24 1.88.32.124-.88.315-1.686.576-2.373.047-.125.098-.25.153-.372a6.026 6.026 0 0 0-2.61 2.425Zm7.032.44c-.577.03-1.19.046-1.827.046a35.3 35.3 0 0 1-1.827-.046c.111-.751.273-1.415.48-1.961.44-1.161.95-1.493 1.347-1.493.396 0 .907.332 1.347 1.493.207.546.369 1.21.48 1.96Zm1.498-.12c.724-.08 1.36-.188 1.88-.32a6.026 6.026 0 0 0-2.61-2.425c.056.122.107.247.154.372.26.687.452 1.493.576 2.373Zm-5.92 8.077a6.024 6.024 0 0 1-2.863-2.915c.455.11.955.199 1.484.27.218.03.444.056.676.08.124.81.306 1.553.549 2.193.047.125.098.25.153.372Z"/><path d="M13.065 12.46a.5.5 0 0 0-.606.605l1.122 4.51a.5.5 0 0 0 .838.234l1.165-1.165.84.841a.5.5 0 0 0 .708 0l.353-.353a.5.5 0 0 0 0-.707l-.84-.841 1.163-1.165a.5.5 0 0 0-.232-.838l-4.51-1.122Z"/></svg>