<svg width="20" height="20" viewBox="0 0 20 20" fill="none" xmlns="http://www.w3.org/2000/svg">
<path d="M2.5 4.25C2.5 3.83579 2.83579 3.5 3.25 3.5H14.25C14.6642 3.5 15 3.83579 15 4.25C15 4.66421 14.6642 5 14.25 5H4V13.25C4 13.6642 3.66421 14 3.25 14C2.83579 14 2.5 13.6642 2.5 13.25V4.25Z" fill="#4A4A4A"/>
<path d="M12.5652 11.4594C12.395 11.4171 12.215 11.467 12.091 11.5911C11.967 11.7151 11.917 11.895 11.9593 12.0652L13.0806 16.5757C13.1241 16.7506 13.2584 16.8886 13.4321 16.9368C13.6058 16.985 13.792 16.936 13.9194 16.8086L15.0836 15.6444L15.9246 16.4854C16.1199 16.6806 16.4365 16.6806 16.6317 16.4854L16.9853 16.1318C17.1805 15.9365 17.1805 15.62 16.9853 15.4247L16.1443 14.5837L17.3085 13.4195C17.436 13.292 17.485 13.1058 17.4367 12.9322C17.3885 12.7585 17.2505 12.6242 17.0756 12.5807L12.5652 11.4594Z" fill="#4A4A4A"/>
<path fill-rule="evenodd" clip-rule="evenodd" d="M5 6.75C5 6.33579 5.33579 6 5.75 6H16.75C17.1642 6 17.5 6.33579 17.5 6.75V11.535C17.4501 11.5173 17.3991 11.5019 17.347 11.4889L12.8366 10.3676C12.2834 10.2301 11.6986 10.3925 11.2955 10.7956C10.8924 11.1986 10.73 11.7835 10.8675 12.3367L11.9026 16.5H5.75C5.33579 16.5 5 16.1642 5 15.75V6.75ZM16 8.49996H6.5V7.49996H16V8.49996Z" fill="#4A4A4A"/>
</svg>
