<svg xmlns="http://www.w3.org/2000/svg" viewBox="0 0 20 20"><path d="M2.25 2.25c-.414 0-.75.336-.75.75v9c0 .414.336.75.75.75s.75-.336.75-.75v-8.25h10.25c.414 0 .75-.336.75-.75s-.336-.75-.75-.75h-11Z"/><path fill-rule="evenodd" d="M5.25 5.25c-.414 0-.75.336-.75.75v9.75c0 .414.336.75.75.75h5c.414 0 .75-.336.75-.75s-.336-.75-.75-.75h-4.25v-5.5h9v1.5c0 .414.336.75.75.75s.75-.336.75-.75v-5c0-.414-.336-.75-.75-.75h-10.5Zm9.75 2.75h-9v-1.25h9v1.25Z"/><path d="M13.25 16.402c-.414 0-.75-.336-.75-.75s.336-.75.75-.75h3.243l-.841-.841c-.293-.293-.293-.768 0-1.061.293-.293.767-.293 1.06 0l2.122 2.121c.293.293.293.768 0 1.061l-2.122 2.121c-.293.293-.768.293-1.06 0-.293-.293-.293-.767 0-1.06l.84-.841h-3.242Z"/></svg>