<svg viewBox="0 0 20 20" xmlns="http://www.w3.org/2000/svg"><path d="M2.25 2a.75.75 0 0 0-.75.75v9a.75.75 0 0 0 1.5 0v-8.25h10.25a.75.75 0 0 0 0-1.5h-11Z" fill="#5C5F62"/><path fill-rule="evenodd" d="M4 5.25a.75.75 0 0 1 .75-.75h10.5a.75.75 0 0 1 .75.75v4.5a.75.75 0 0 1-1.5 0v-1.25h-9v5h3.25a.75.75 0 0 1 0 1.5h-4a.75.75 0 0 1-.75-.75v-9Zm10.5.75v1h-9v-1h9Z" fill="#5C5F62"/><path d="M12.5 14.25a.75.75 0 0 1 .75-.75h1.25v-1.25a.75.75 0 0 1 1.5 0v1.25h1.25a.75.75 0 0 1 0 1.5h-1.25v1.25a.75.75 0 0 1-1.5 0v-1.25h-1.25a.75.75 0 0 1-.75-.75Z" fill="#5C5F62"/></svg>