<svg xmlns="http://www.w3.org/2000/svg" viewBox="0 0 16 16"><path d="M.5 2.25c0-.414.336-.75.75-.75h11c.414 0 .75.336.75.75s-.336.75-.75.75h-10.25v8.25c0 .414-.336.75-.75.75s-.75-.336-.75-.75v-9Z"/><path d="M10.565 9.46c-.17-.043-.35.007-.474.131s-.174.304-.132.474l1.122 4.51c.043.176.177.314.351.362.174.048.36-.001.487-.128l1.165-1.165.84.841c.196.196.513.196.708 0l.353-.353c.196-.195.196-.512 0-.707l-.84-.841 1.164-1.165c.127-.127.176-.313.128-.487-.048-.174-.186-.308-.361-.351l-4.51-1.122Z"/><path fill-rule="evenodd" d="M3 4.75c0-.414.336-.75.75-.75h11c.414 0 .75.336.75.75v4.785c-.05-.018-.1-.033-.153-.046l-4.51-1.121c-.554-.138-1.138.024-1.541.428-.404.403-.566.987-.428 1.54l1.035 4.164h-6.153c-.414 0-.75-.336-.75-.75v-9Zm11 1.75h-9.5v-1h9.5v1Z"/></svg>