<svg xmlns="http://www.w3.org/2000/svg" viewBox="0 0 20 20"><path fill-rule="evenodd" d="M2.5 4.25a.75.75 0 0 1 .75-.75h11a.75.75 0 0 1 .75.75v1.75h1.75a.75.75 0 0 1 .75.75v3.75a.75.75 0 0 1-1.5 0v-.5h-9.5v5h4a.75.75 0 0 1 0 1.5h-4.75a.75.75 0 0 1-.75-.75v-1.75h-1.75a.75.75 0 0 1-.75-.75v-9Zm13.5 3.25v1h-9.5v-1h9.5Zm-2.5-2.5v1h-7.75a.75.75 0 0 0-.75.75v5.75h-1v-7.5h9.5Zm-.935 6.46a.5.5 0 0 0-.606.605l1.122 4.51a.5.5 0 0 0 .838.234l1.165-1.165.84.841a.5.5 0 0 0 .708 0l.353-.353a.5.5 0 0 0 0-.707l-.84-.841 1.163-1.165a.5.5 0 0 0-.232-.838l-4.51-1.122Z"/></svg>