<svg xmlns="http://www.w3.org/2000/svg" viewBox="0 0 20 20"><path fill-rule="evenodd" d="M8.265 9.21a19.92 19.92 0 0 0 .022 2c.545.026 1.12.04 1.713.04a1 1 0 1 1 0 2 40.4 40.4 0 0 1-1.453-.027c.094.445.208.846.34 1.195.433 1.141.884 1.332 1.113 1.332a1 1 0 1 1 0 2 7.75 7.75 0 1 1 7.75-7.75 1 1 0 1 1-2 0c0-.441-.05-.87-.144-1.283-.555.139-1.188.249-1.876.332.013.313.02.63.02.951a1 1 0 1 1-2 0c0-.269-.005-.532-.015-.79a37.233 37.233 0 0 1-3.47 0Zm-3.871-.493a5.768 5.768 0 0 0-.113 1.881c.46.167 1.125.319 1.978.433l.015.002a21.735 21.735 0 0 1-.004-1.984 15.535 15.535 0 0 1-1.876-.332Zm.795-1.868c.376.08.804.15 1.275.209.108-.692.26-1.337.455-1.914a5.78 5.78 0 0 0-1.73 1.705Zm6.347.369a35.356 35.356 0 0 1-3.072 0 8.839 8.839 0 0 1 .423-1.636c.433-1.141.884-1.332 1.113-1.332.23 0 .68.19 1.113 1.332a8.81 8.81 0 0 1 .423 1.636Zm2-.16c.471-.058.899-.128 1.275-.209a5.78 5.78 0 0 0-1.73-1.705c.195.577.347 1.222.455 1.914Zm-6.617 7.798a5.779 5.779 0 0 1-1.912-2.003 16.878 16.878 0 0 0 1.478.22c.107.643.251 1.243.434 1.783Z"/><path d="M13.065 12.46a.5.5 0 0 0-.606.605l1.122 4.51a.5.5 0 0 0 .838.234l1.165-1.165.84.841a.5.5 0 0 0 .708 0l.353-.353a.5.5 0 0 0 0-.707l-.84-.841 1.163-1.165a.5.5 0 0 0-.232-.838l-4.51-1.122Z"/></svg>