<svg width="20" height="20" viewBox="0 0 20 20" fill="none" xmlns="http://www.w3.org/2000/svg">
<path d="M1.5 2.75C1.5 2.33579 1.83579 2 2.25 2H12.75C13.1642 2 13.5 2.33579 13.5 2.75C13.5 3.16421 13.1642 3.5 12.75 3.5H3V11.75C3 12.1642 2.66421 12.5 2.25 12.5C1.83579 12.5 1.5 12.1642 1.5 11.75V2.75Z" fill="#4A4A4A"/>
<path fill-rule="evenodd" clip-rule="evenodd" d="M4.75 4.5C4.33579 4.5 4 4.83579 4 5.25V14.25C4 14.6642 4.33579 15 4.75 15H9.25C9.66421 15 10 14.6642 10 14.25C10 13.8358 9.66421 13.5 9.25 13.5H5.5V8.5H14.5V9.25C14.5 9.66421 14.8358 10 15.25 10C15.6642 10 16 9.66421 16 9.25V5.25C16 4.83579 15.6642 4.5 15.25 4.5H4.75ZM14.5 7V6H5.5V7H14.5Z" fill="#4A4A4A"/>
<path d="M12.25 14.9017C11.8358 14.9017 11.5 14.5659 11.5 14.1517C11.5 13.7375 11.8358 13.4017 12.25 13.4017H15.4926L14.6517 12.5607C14.3588 12.2678 14.3588 11.7929 14.6517 11.5C14.9445 11.2071 15.4194 11.2071 15.7123 11.5L17.8336 13.6213C18.1265 13.9142 18.1265 14.3891 17.8336 14.682L15.7123 16.8033C15.4194 17.0962 14.9445 17.0962 14.6517 16.8033C14.3588 16.5104 14.3588 16.0356 14.6517 15.7427L15.4926 14.9017H12.25Z" fill="#4A4A4A"/>
</svg>
