<svg viewBox="0 0 20 20" xmlns="http://www.w3.org/2000/svg"><path d="M1.5 2.75a.75.75 0 0 1 .75-.75h10.5a.75.75 0 0 1 0 1.5h-9.75v8.25a.75.75 0 0 1-1.5 0v-9Z" fill="currentColor"/><path fill-rule="evenodd" d="M4.75 4.5a.75.75 0 0 0-.75.75v9c0 .414.336.75.75.75h4.5a.75.75 0 0 0 0-1.5h-3.75v-5h9v.75a.75.75 0 0 0 1.5 0v-4a.75.75 0 0 0-.75-.75h-10.5Zm9.75 2.5v-1h-9v1h9Z" fill="currentColor"/><path d="M12.25 14.902a.75.75 0 0 1 0-1.5h3.243l-.841-.841a.75.75 0 0 1 1.06-1.061l2.122 2.121a.75.75 0 0 1 0 1.061l-2.122 2.121a.75.75 0 1 1-1.06-1.06l.84-.841h-3.242Z" fill="currentColor"/></svg>
