<svg xmlns="http://www.w3.org/2000/svg" viewBox="0 0 20 20"><path fill-rule="evenodd" d="M12 10c0-.36-.01-.711-.027-1.051-.635.034-1.297.051-1.973.051-.676 0-1.338-.017-1.973-.051a19.856 19.856 0 0 0 .026 2.499c.616.034 1.269.052 1.947.052a.75.75 0 1 1 0 1.5c-.604 0-1.193-.013-1.759-.04.106.582.244 1.103.412 1.547.44 1.161.95 1.493 1.347 1.493a.75.75 0 0 1 0 1.5 7.5 7.5 0 1 1 7.5-7.5.75.75 0 0 1-1.5 0c0-.55-.074-1.083-.213-1.59-.655.183-1.443.321-2.319.418.021.383.032.775.032 1.172a.75.75 0 0 1-1.5 0Zm-3.347-4.507c.44-1.161.95-1.493 1.347-1.493.396 0 .907.332 1.347 1.493.207.546.369 1.21.48 1.961-.577.03-1.19.046-1.827.046a35.3 35.3 0 0 1-1.827-.046c.111-.75.273-1.415.48-1.961Zm-1.402-.532c-.26.687-.452 1.493-.576 2.373-.724-.08-1.36-.188-1.88-.32a6.026 6.026 0 0 1 2.61-2.425 6.784 6.784 0 0 0-.154.372Zm-.72 3.867c-.875-.097-1.663-.235-2.318-.417a6.007 6.007 0 0 0-.163 2.367c.493.2 1.229.374 2.176.501l.314.04a21.13 21.13 0 0 1-.008-2.491Zm6.794-1.494c.724-.08 1.36-.188 1.88-.32a6.027 6.027 0 0 0-2.61-2.425c.056.122.107.247.154.372.26.687.452 1.493.576 2.373Zm-8.783 5.162a6.024 6.024 0 0 0 2.862 2.915 6.807 6.807 0 0 1-.153-.372c-.243-.64-.425-1.383-.55-2.193-.231-.024-.457-.05-.675-.08a14.799 14.799 0 0 1-1.484-.27Z"/><path d="m14.81 13.75 2.47 2.47a.75.75 0 1 1-1.06 1.06l-2.47-2.47v1.19a.75.75 0 0 1-1.5 0v-3a.75.75 0 0 1 .75-.75h3a.75.75 0 0 1 0 1.5h-1.19Z"/></svg>