<svg xmlns="http://www.w3.org/2000/svg" viewBox="0 0 20 20"><path d="M2.25 2.25c-.414 0-.75.336-.75.75v9c0 .414.336.75.75.75s.75-.336.75-.75v-8.25h10.25c.414 0 .75-.336.75-.75s-.336-.75-.75-.75h-11Z"/><path fill-rule="evenodd" d="M5.25 5.25c-.414 0-.75.336-.75.75v9.75c0 .414.336.75.75.75h5c.414 0 .75-.336.75-.75s-.336-.75-.75-.75h-4.25v-5.5h9v1c0 .414.336.75.75.75s.75-.336.75-.75v-4.5c0-.414-.336-.75-.75-.75h-10.5Zm9.75 2.75h-9v-1.25h9v1.25Z"/><path d="m14.81 13.75 2.47 2.47c.293.293.293.767 0 1.06-.293.293-.767.293-1.06 0l-2.47-2.47v1.19c0 .414-.336.75-.75.75s-.75-.336-.75-.75v-3c0-.414.336-.75.75-.75h3c.414 0 .75.336.75.75s-.336.75-.75.75h-1.19Z"/></svg>