<svg xmlns="http://www.w3.org/2000/svg" viewBox="0 0 16 16"><path d="M.5 1.75c0-.414.336-.75.75-.75h10.5c.414 0 .75.336.75.75s-.336.75-.75.75h-9.75v8.25c0 .414-.336.75-.75.75s-.75-.336-.75-.75v-9Z"/><path fill-rule="evenodd" d="M3.75 3.5c-.414 0-.75.336-.75.75v9c0 .414.336.75.75.75h4.5c.414 0 .75-.336.75-.75s-.336-.75-.75-.75h-3.75v-5h9v.75c0 .414.336.75.75.75s.75-.336.75-.75v-4c0-.414-.336-.75-.75-.75h-10.5Zm9.75 2.5v-1h-9v1h9Z"/><path d="m12.81 11.75 2.47 2.47c.293.293.293.767 0 1.06-.293.293-.767.293-1.06 0l-2.47-2.47v1.19c0 .414-.336.75-.75.75s-.75-.336-.75-.75v-3c0-.414.336-.75.75-.75h3c.414 0 .75.336.75.75s-.336.75-.75.75h-1.19Z"/></svg>