<svg width="20" height="20" viewBox="0 0 20 20" fill="none" xmlns="http://www.w3.org/2000/svg">
<path d="M2.25 2C1.83579 2 1.5 2.33579 1.5 2.75V11.75C1.5 12.1642 1.83579 12.5 2.25 12.5C2.66421 12.5 3 12.1642 3 11.75V3.5H13.25C13.6642 3.5 14 3.16421 14 2.75C14 2.33579 13.6642 2 13.25 2H2.25Z" fill="#4A4A4A"/>
<path fill-rule="evenodd" clip-rule="evenodd" d="M4 5.25C4 4.83579 4.33579 4.5 4.75 4.5H15.25C15.6642 4.5 16 4.83579 16 5.25V9.75C16 10.1642 15.6642 10.5 15.25 10.5C14.8358 10.5 14.5 10.1642 14.5 9.75V8.5H5.5V13.5H8.75C9.16421 13.5 9.5 13.8358 9.5 14.25C9.5 14.6642 9.16421 15 8.75 15H4.75C4.33579 15 4 14.6642 4 14.25V5.25ZM14.5 6V7H5.5V6H14.5Z" fill="#4A4A4A"/>
<path d="M12.5 14.25C12.5 13.8358 12.8358 13.5 13.25 13.5H14.5V12.25C14.5 11.8358 14.8358 11.5 15.25 11.5C15.6642 11.5 16 11.8358 16 12.25V13.5H17.25C17.6642 13.5 18 13.8358 18 14.25C18 14.6642 17.6642 15 17.25 15H16V16.25C16 16.6642 15.6642 17 15.25 17C14.8358 17 14.5 16.6642 14.5 16.25V15H13.25C12.8358 15 12.5 14.6642 12.5 14.25Z" fill="#4A4A4A"/>
</svg>
