<svg width="20" height="20" viewBox="0 0 20 20" fill="none" xmlns="http://www.w3.org/2000/svg">
<path fill-rule="evenodd" clip-rule="evenodd" d="M2.5 4.25C2.5 3.83579 2.83579 3.5 3.25 3.5H14.25C14.6642 3.5 15 3.83579 15 4.25V6H16.75C17.1642 6 17.5 6.33579 17.5 6.75V10.5C17.5 10.9142 17.1642 11.25 16.75 11.25C16.3358 11.25 16 10.9142 16 10.5V10H6.5V13.25V15H10.5C10.9142 15 11.25 15.3358 11.25 15.75C11.25 16.1642 10.9142 16.5 10.5 16.5H5.75C5.33579 16.5 5 16.1642 5 15.75V14H3.25C2.83579 14 2.5 13.6642 2.5 13.25V4.25ZM16 7.5V8.5H6.5V7.5H16ZM13.5 5V6H5.75C5.33579 6 5 6.33579 5 6.75V12.5H4V5H13.5ZM12.5652 11.4594C12.395 11.4171 12.215 11.467 12.091 11.5911C11.967 11.7151 11.917 11.895 11.9593 12.0652L13.0806 16.5757C13.1241 16.7506 13.2584 16.8886 13.4321 16.9368C13.6058 16.985 13.792 16.936 13.9194 16.8086L15.0836 15.6444L15.9246 16.4854C16.1199 16.6806 16.4365 16.6806 16.6317 16.4854L16.9853 16.1318C17.1805 15.9365 17.1805 15.62 16.9853 15.4247L16.1443 14.5837L17.3085 13.4195C17.436 13.292 17.4849 13.1058 17.4367 12.9322C17.3885 12.7585 17.2505 12.6242 17.0756 12.5807L12.5652 11.4594Z" fill="#4A4A4A"/>
</svg>
