<svg xmlns="http://www.w3.org/2000/svg" viewBox="0 0 20 20"><path fill-rule="evenodd" d="M11.943 11.448c-.615.034-1.267.052-1.943.052-.676 0-1.328-.018-1.943-.052a18.314 18.314 0 0 1-.028-2.5c.63.035 1.291.052 1.971.052a.75.75 0 0 0 0-1.5 34.96 34.96 0 0 1-1.811-.045c.11-.678.265-1.279.46-1.776.434-1.102.94-1.429 1.351-1.429a.75.75 0 0 0 0-1.5 7.25 7.25 0 0 0-.003 14.5h.003a7.25 7.25 0 0 0 7.25-7.25.75.75 0 0 0-1.5 0c0 .298-.023.59-.066.876-.478.158-1.12.297-1.91.403-.104.014-.21.028-.317.04.029-.43.043-.87.043-1.319a.75.75 0 0 0-1.5 0c0 .503-.02.988-.057 1.448Zm-.593 2.873c-.433 1.1-.937 1.428-1.349 1.429h-.001c-.412 0-.917-.327-1.35-1.429a8.037 8.037 0 0 1-.386-1.36 36.907 36.907 0 0 0 3.473 0c-.102.51-.232.967-.387 1.36Zm-4.096-9.192c-.253.642-.44 1.39-.565 2.207a20.09 20.09 0 0 1-.384-.046c-.47-.061-.89-.134-1.256-.216a5.777 5.777 0 0 1 2.302-2.179 6.594 6.594 0 0 0-.097.234Zm-1.142 3.648a14.74 14.74 0 0 1-1.658-.302 5.756 5.756 0 0 0-.138 2.4c.478.16 1.12.298 1.91.404.104.014.21.028.317.04a19.597 19.597 0 0 1-.009-2.491 21.63 21.63 0 0 1-.422-.05Zm7.17 4.07a10.07 10.07 0 0 1-.536 2.024 6.709 6.709 0 0 1-.097.234 5.775 5.775 0 0 0 2.498-2.538c-.369.078-.762.144-1.173.199-.223.03-.455.057-.692.081Zm-8.429-.28a5.775 5.775 0 0 0 2.498 2.538 6.688 6.688 0 0 1-.097-.234 10.098 10.098 0 0 1-.536-2.024 21.862 21.862 0 0 1-.692-.081c-.41-.055-.804-.121-1.173-.2Z"/><path d="M12.012 6.97a.75.75 0 1 0 1.061 1.06l2.47-2.47v1.19a.75.75 0 0 0 1.5 0v-3a.75.75 0 0 0-.75-.75h-3a.75.75 0 0 0 0 1.5h1.19l-2.47 2.47Z"/></svg>