<svg  viewBox="0 0 20 20" fill="none" xmlns="http://www.w3.org/2000/svg">
<path d="M12.8152 12.2094C12.6449 12.1671 12.465 12.217 12.341 12.3411C12.217 12.4651 12.167 12.645 12.2093 12.8153L13.3306 17.3257C13.3741 17.5006 13.5084 17.6386 13.6821 17.6868C13.8557 17.735 14.0419 17.686 14.1694 17.5586L15.3336 16.3944L16.1746 17.2354C16.3699 17.4306 16.6864 17.4306 16.8817 17.2354L17.2353 16.8818C17.4305 16.6865 17.4305 16.37 17.2353 16.1747L16.3943 15.3337L17.5585 14.1695C17.6859 14.042 17.7349 13.8558 17.6867 13.6822C17.6385 13.5085 17.5005 13.3742 17.3256 13.3307L12.8152 12.2094Z" fill="#4A4A4A"/>
<path d="M10.25 13.75H7.25C6.69772 13.75 6.25 13.3023 6.25 12.75V7.25C6.25 6.69772 6.69772 6.25 7.25 6.25H12.75C13.3023 6.25 13.75 6.69772 13.75 7.25V10.25M5.25 3.25C4.14543 3.25 3.25 4.14543 3.25 5.25M3.25 14.75C3.25 15.8546 4.14543 16.75 5.25 16.75M16.75 5.25C16.75 4.14543 15.8546 3.25 14.75 3.25M3.25 9V11M11 3.25H9" stroke="currentColor"  stroke-linecap="round"/>
</svg>
