<svg  viewBox="0 0 18 18" fill="none" xmlns="http://www.w3.org/2000/svg">
<path d="M11.3152 10.7094C11.1449 10.6671 10.965 10.717 10.841 10.8411C10.717 10.9651 10.667 11.145 10.7093 11.3153L11.8306 15.8257C11.8741 16.0006 12.0084 16.1386 12.1821 16.1868C12.3557 16.235 12.5419 16.186 12.6694 16.0586L13.8336 14.8944L14.6746 15.7354C14.8699 15.9306 15.1864 15.9306 15.3817 15.7354L15.7353 15.3818C15.9305 15.1865 15.9305 14.87 15.7353 14.6747L14.8943 13.8337L16.0585 12.6695C16.1859 12.542 16.2349 12.3558 16.1867 12.1822C16.1385 12.0085 16.0005 11.8742 15.8256 11.8307L11.3152 10.7094Z" fill="#4A4A4A"/>
<path d="M9.25 12.25H6.75C6.19772 12.25 5.75 11.8023 5.75 11.25V6.75C5.75 6.19772 6.19772 5.75 6.75 5.75H11.25C11.8023 5.75 12.25 6.19772 12.25 6.75V9.25M4.75 2.75C3.64543 2.75 2.75 3.64543 2.75 4.75M2.75 13.25C2.75 14.3546 3.64543 15.25 4.75 15.25M15.25 4.75C15.25 3.64543 14.3546 2.75 13.25 2.75M2.75 8V10M10 2.75H8" stroke="currentColor"  stroke-linecap="round"/>
</svg>
