<svg xmlns="http://www.w3.org/2000/svg" viewBox="0 0 20 20"><path stroke="#4A4A4A" stroke-linecap="round" stroke-linejoin="round" stroke-width="1.5" d="M5.185 2.75h-.435c-1.105 0-2 .895-2 2v.435"/><path stroke="#4A4A4A" stroke-linecap="round" stroke-linejoin="round" stroke-width="1.5" d="M2.75 14.315v.435c0 1.105.895 2 2 2h.435"/><path stroke="#4A4A4A" stroke-linecap="round" stroke-linejoin="round" stroke-width="1.5" d="M16.75 5.185v-.435c0-1.105-.895-2-2-2h-.435"/><path stroke="#4A4A4A" stroke-linecap="round" stroke-linejoin="round" stroke-width="1.5" d="M2.75 8.533v2.434"/><path stroke="#4A4A4A" stroke-linecap="round" stroke-linejoin="round" stroke-width="1.5" d="M10.967 2.75h-2.434"/><path stroke="#4A4A4A" stroke-linecap="round" stroke-width="1.5" d="M8.52 13.75h-1.77c-.552 0-1-.448-1-1v-6c0-.552.448-1 1-1h6c.552 0 1 .448 1 1v1.77"/><path d="m12.805 17.444-2.507-7.103 7.103 2.507-2.384 1.794 1.707 1.707-.418.418-1.707-1.707-1.794 2.384Z"/><path stroke="#4A4A4A" stroke-linecap="round" stroke-linejoin="round" d="m14.599 15.06-1.794 2.384-2.507-7.103 7.103 2.507-2.384 1.794m-.418.418 1.707 1.707.418-.418-1.707-1.707m-.418.418.418-.418"/></svg>