<svg xmlns="http://www.w3.org/2000/svg" viewBox="0 0 16 16"><path d="M5.5 2.5c-.552 0-1 .448-1 1v.5c0 .552.448 1 1 1h.5c.552 0 1-.448 1-1v-.5c0-.552-.448-1-1-1h-.5Z"/><path d="M5.5 6.75c-.552 0-1 .448-1 1v.5c0 .552.448 1 1 1h.5c.552 0 1-.448 1-1v-.5c0-.552-.448-1-1-1h-.5Z"/><path d="M4.5 12c0-.552.448-1 1-1h.5c.552 0 1 .448 1 1v.5c0 .552-.448 1-1 1h-.5c-.552 0-1-.448-1-1v-.5Z"/><path d="M10 2.5c-.552 0-1 .448-1 1v.5c0 .552.448 1 1 1h.5c.552 0 1-.448 1-1v-.5c0-.552-.448-1-1-1h-.5Z"/><path d="M9 7.75c0-.552.448-1 1-1h.5c.552 0 1 .448 1 1v.5c0 .552-.448 1-1 1h-.5c-.552 0-1-.448-1-1v-.5Z"/><path d="M10 11c-.552 0-1 .448-1 1v.5c0 .552.448 1 1 1h.5c.552 0 1-.448 1-1v-.5c0-.552-.448-1-1-1h-.5Z"/></svg>