<svg xmlns="http://www.w3.org/2000/svg" viewBox="0 0 16 16"><path d="M4.25 1.5c-1.519 0-2.75 1.231-2.75 2.75 0 .414.336.75.75.75s.75-.336.75-.75c0-.69.56-1.25 1.25-1.25.414 0 .75-.336.75-.75s-.336-.75-.75-.75Z"/><path d="M1.5 11.75c0 1.519 1.231 2.75 2.75 2.75.414 0 .75-.336.75-.75s-.336-.75-.75-.75c-.69 0-1.25-.56-1.25-1.25 0-.414-.336-.75-.75-.75s-.75.336-.75.75Z"/><path d="M11.75 1.5c1.519 0 2.75 1.231 2.75 2.75 0 .414-.336.75-.75.75s-.75-.336-.75-.75c0-.69-.56-1.25-1.25-1.25-.414 0-.75-.336-.75-.75s.336-.75.75-.75Z"/><path d="M3 7c0-.414-.336-.75-.75-.75s-.75.336-.75.75v2c0 .414.336.75.75.75s.75-.336.75-.75v-2Z"/><path d="M9.75 2.25c0 .414-.336.75-.75.75h-2c-.414 0-.75-.336-.75-.75s.336-.75.75-.75h2c.414 0 .75.336.75.75Z"/><path d="M5.75 4c-.966 0-1.75.784-1.75 1.75v4.5c0 .966.784 1.75 1.75 1.75h1.25c.414 0 .75-.336.75-.75s-.336-.75-.75-.75h-1.25c-.138 0-.25-.112-.25-.25v-4.5c0-.138.112-.25.25-.25h4.5c.138 0 .25.112.25.25v1.25c0 .414.336.75.75.75s.75-.336.75-.75v-1.25c0-.966-.784-1.75-1.75-1.75h-4.5Z"/><path d="M9.065 8.46c-.17-.043-.35.007-.474.131s-.174.304-.132.474l1.122 4.51c.043.176.177.314.351.362.174.048.36-.001.487-.128l1.165-1.165.84.841c.196.196.513.196.708 0l.353-.353c.196-.195.196-.512 0-.707l-.84-.841 1.164-1.165c.127-.127.176-.313.128-.487-.048-.174-.186-.308-.361-.351l-4.51-1.122Z"/></svg>