<svg xmlns="http://www.w3.org/2000/svg" viewBox="0 0 20 20"><path d="M7 3.5c-.552 0-1 .448-1 1v.5c0 .552.448 1 1 1h.5c.552 0 1-.448 1-1v-.5c0-.552-.448-1-1-1h-.5Z"/><path d="M7 8.75c-.552 0-1 .448-1 1v.5c0 .552.448 1 1 1h.5c.552 0 1-.448 1-1v-.5c0-.552-.448-1-1-1h-.5Z"/><path d="M6 15c0-.552.448-1 1-1h.5c.552 0 1 .448 1 1v.5c0 .552-.448 1-1 1h-.5c-.552 0-1-.448-1-1v-.5Z"/><path d="M12.5 3.5c-.552 0-1 .448-1 1v.5c0 .552.448 1 1 1h.5c.552 0 1-.448 1-1v-.5c0-.552-.448-1-1-1h-.5Z"/><path d="M11.5 9.75c0-.552.448-1 1-1h.5c.552 0 1 .448 1 1v.5c0 .552-.448 1-1 1h-.5c-.552 0-1-.448-1-1v-.5Z"/><path d="M12.5 14c-.552 0-1 .448-1 1v.5c0 .552.448 1 1 1h.5c.552 0 1-.448 1-1v-.5c0-.552-.448-1-1-1h-.5Z"/></svg>