<svg xmlns="http://www.w3.org/2000/svg" viewBox="0 0 20 20"><path d="M11.25 8.5c-.414 0-.75.336-.75.75v1.25h-1.25c-.414 0-.75.336-.75.75s.336.75.75.75h1.25v1.25c0 .414.336.75.75.75s.75-.336.75-.75v-1.25h1.25c.414 0 .75-.336.75-.75s-.336-.75-.75-.75h-1.25v-1.25c0-.414-.336-.75-.75-.75Z"/><path fill-rule="evenodd" d="M8.75 16.5c-1.438 0-2.618-1.104-2.74-2.51-1.406-.122-2.51-1.302-2.51-2.74v-5c0-1.519 1.231-2.75 2.75-2.75h5c1.438 0 2.618 1.104 2.74 2.51 1.406.122 2.51 1.302 2.51 2.74v5c0 1.519-1.231 2.75-2.75 2.75h-5Zm0-10.5c-1.519 0-2.75 1.231-2.75 2.75v3.725c-.57-.116-1-.62-1-1.225v-5c0-.69.56-1.25 1.25-1.25h5c.605 0 1.11.43 1.225 1h-3.725Zm0 1.5c-.69 0-1.25.56-1.25 1.25v5c0 .69.56 1.25 1.25 1.25h5c.69 0 1.25-.56 1.25-1.25v-5c0-.69-.56-1.25-1.25-1.25h-5Z"/></svg>