<svg xmlns="http://www.w3.org/2000/svg" viewBox="0 0 20 20"><path d="M11.5 8.25c-.414 0-.75.336-.75.75v1.75h-1.75c-.414 0-.75.336-.75.75s.336.75.75.75h1.75v1.75c0 .414.336.75.75.75s.75-.336.75-.75v-1.75h1.75c.414 0 .75-.336.75-.75s-.336-.75-.75-.75h-1.75v-1.75c0-.414-.336-.75-.75-.75Z"/><path fill-rule="evenodd" d="M14.5 5.25c0-1.519-1.231-2.75-2.75-2.75h-6.5c-1.519 0-2.75 1.231-2.75 2.75v6.5c0 1.519 1.231 2.75 2.75 2.75h.25v.25c0 1.519 1.231 2.75 2.75 2.75h6.5c1.519 0 2.75-1.231 2.75-2.75v-6.5c0-1.519-1.231-2.75-2.75-2.75h-.25v-.25Zm-1.5.25h-4.75c-1.519 0-2.75 1.231-2.75 2.75v4.75h-.25c-.69 0-1.25-.56-1.25-1.25v-6.5c0-.69.56-1.25 1.25-1.25h6.5c.69 0 1.25.56 1.25 1.25v.25Zm3 2.75c0-.69-.56-1.25-1.25-1.25h-6.5c-.69 0-1.25.56-1.25 1.25v6.5c0 .69.56 1.25 1.25 1.25h6.5c.69 0 1.25-.56 1.25-1.25v-6.5Z"/></svg>