<svg viewBox="0 0 20 20" xmlns="http://www.w3.org/2000/svg"><path d="M8.5 8.75a.75.75 0 0 1 .75.75v1.25h1.25a.75.75 0 0 1 0 1.5h-1.25v1.25a.75.75 0 0 1-1.5 0v-1.25h-1.25a.75.75 0 0 1 0-1.5h1.25v-1.25a.75.75 0 0 1 .75-.75Z" fill="#5C5F62"/><path fill-rule="evenodd" d="M6 6a3 3 0 0 1 3-3h5a3 3 0 0 1 3 3v5a3 3 0 0 1-3 3 3 3 0 0 1-3 3h-5a3 3 0 0 1-3-3v-5a3 3 0 0 1 3-3Zm8-1.5h-5a1.5 1.5 0 0 0-1.5 1.5h3.5a3 3 0 0 1 3 3v3.5a1.5 1.5 0 0 0 1.5-1.5v-5a1.5 1.5 0 0 0-1.5-1.5Zm-8 3h5a1.5 1.5 0 0 1 1.5 1.5v5a1.5 1.5 0 0 1-1.5 1.5h-5a1.5 1.5 0 0 1-1.5-1.5v-5a1.5 1.5 0 0 1 1.5-1.5Z" fill="#5C5F62"/></svg>