<svg viewBox="0 0 20 20" xmlns="http://www.w3.org/2000/svg"><path fill-rule="evenodd" clip-rule="evenodd" d="M10 9C13.866 9 17 7.65685 17 6C17 4.34315 13.866 3 10 3C6.13401 3 3 4.34315 3 6C3 7.65685 6.13401 9 10 9ZM16.6017 9C15.6407 10.1652 13.0478 11 10 11C6.95216 11 4.35926 10.1652 3.39831 9C3.14036 9.31278 3 9.64936 3 10C3 11.6569 6.13401 13 10 13C13.866 13 17 11.6569 17 10C17 9.64936 16.8596 9.31278 16.6017 9ZM16.6017 13C15.6407 14.1652 13.0478 15 10 15C6.95216 15 4.35926 14.1652 3.39831 13C3.14036 13.3128 3 13.6494 3 14C3 15.6569 6.13401 17 10 17C13.866 17 17 15.6569 17 14C17 13.6494 16.8596 13.3128 16.6017 13Z" fill="#5C5F62"/></svg>
