<svg xmlns="http://www.w3.org/2000/svg" viewBox="0 0 16 16"><path fill-rule="evenodd" d="M13.655 2.344c-1.052-1.052-2.758-1.052-3.81 0l-.599.599-.009-.009-1.06 1.06.009.01-5.88 5.88c-.516.515-.806 1.215-.806 1.944v1.922c0 .199.08.39.22.53s.331.22.53.22h1.922c.729 0 1.428-.29 1.944-.806l7.54-7.54c1.052-1.051 1.052-2.757 0-3.81Zm-4.409 2.72-5.88 5.88c-.234.235-.366.553-.366.884v1.172h1.172c.331 0 .65-.132.883-.366l5.88-5.88-1.689-1.69Zm2.75.629.599-.599c.466-.466.466-1.223 0-1.69-.467-.466-1.223-.466-1.69 0l-.598.6 1.69 1.689Z"/></svg>