<svg xmlns="http://www.w3.org/2000/svg" viewBox="0 0 20 20"><path fill-rule="evenodd" d="M16.483 3.517c-1.185-1.185-3.106-1.185-4.29 0l-8.884 8.883c-.517.518-.807 1.221-.805 1.954l.007 2.387c.002.412.336.746.748.748l2.387.007c.733.003 1.436-.287 1.954-.805l8.883-8.884c1.185-1.185 1.185-3.105 0-4.29Zm-3.23 1.06c.6-.598 1.57-.598 2.17 0 .598.6.598 1.57 0 2.17l-1.183 1.182-2.17-2.169 1.183-1.183Zm-2.243 2.244-6.64 6.64c-.235.236-.367.555-.366.888l.005 1.642 1.642.005c.333.001.653-.13.888-.366l6.64-6.64-2.169-2.17Z"/></svg>