<svg xmlns="http://www.w3.org/2000/svg" viewBox="0 0 20 20"><path fill-rule="evenodd" d="M5.75 4.5c-1.519 0-2.75 1.231-2.75 2.75v5.5c0 1.519 1.231 2.75 2.75 2.75h8.5c1.519 0 2.75-1.231 2.75-2.75v-5.5c0-1.519-1.231-2.75-2.75-2.75h-8.5Zm-1.25 2.75c0-.69.56-1.25 1.25-1.25h8.5c.69 0 1.25.56 1.25 1.25v5.5c0 .69-.56 1.25-1.25 1.25h-8.5c-.69 0-1.25-.56-1.25-1.25v-5.5Zm2.067.32c-.375-.175-.821-.013-.997.363-.175.375-.013.821.363.997l3.538 1.651c.335.156.723.156 1.058 0l3.538-1.651c.376-.176.538-.622.363-.997-.175-.376-.622-.538-.997-.363l-3.433 1.602-3.433-1.602Z"/></svg>