<svg xmlns="http://www.w3.org/2000/svg" viewBox="0 0 20 20"><path d="M6.1 7.587c-.365-.194-.819-.054-1.013.312-.194.366-.054.82.312 1.014l4.016 2.126c.366.194.804.194 1.17 0l4.016-2.126c.366-.194.506-.648.312-1.014s-.648-.506-1.014-.312l-3.899 2.064-3.9-2.064Z"/><path fill-rule="evenodd" d="M5.75 3.5c-2.071 0-3.75 1.679-3.75 3.75v5.5c0 2.071 1.679 3.75 3.75 3.75h8.5c2.071 0 3.75-1.679 3.75-3.75v-5.5c0-2.071-1.679-3.75-3.75-3.75h-8.5Zm-2.25 3.75c0-1.243 1.007-2.25 2.25-2.25h8.5c1.243 0 2.25 1.007 2.25 2.25v5.5c0 1.243-1.007 2.25-2.25 2.25h-8.5c-1.243 0-2.25-1.007-2.25-2.25v-5.5Z"/></svg>