<svg xmlns="http://www.w3.org/2000/svg" viewBox="0 0 20 20"><path d="M2 7.25c0-2.071 1.679-3.75 3.75-3.75h8.5c2.071 0 3.75 1.679 3.75 3.75v2.75c0 .414-.336.75-.75.75s-.75-.336-.75-.75v-2.75c0-1.243-1.007-2.25-2.25-2.25h-8.5c-1.243 0-2.25 1.007-2.25 2.25v5.5c0 1.243 1.007 2.25 2.25 2.25h4.25c.414 0 .75.336.75.75s-.336.75-.75.75h-4.25c-2.071 0-3.75-1.679-3.75-3.75v-5.5Z"/><path d="M11.75 14.25c0-.414.336-.75.75-.75h2.94l-.72-.72c-.293-.293-.293-.767 0-1.06.293-.293.767-.293 1.06 0l2 2c.293.293.293.767 0 1.06l-2 2c-.293.293-.767.293-1.06 0-.293-.293-.293-.767 0-1.06l.72-.72h-2.94c-.414 0-.75-.336-.75-.75Z"/><path d="M6.1 7.587c-.365-.194-.819-.054-1.013.312-.194.366-.054.82.312 1.014l4.016 2.126c.366.194.804.194 1.17 0l4.016-2.126c.366-.194.506-.648.312-1.014s-.648-.506-1.014-.312l-3.899 2.064-3.9-2.064Z"/></svg>