<svg xmlns="http://www.w3.org/2000/svg" viewBox="0 0 16 16"><path d="M1 5.25c0-1.519 1.231-2.75 2.75-2.75h8.5c1.519 0 2.75 1.231 2.75 2.75v2.5c0 .414-.336.75-.75.75s-.75-.336-.75-.75v-2.5c0-.69-.56-1.25-1.25-1.25h-8.5c-.69 0-1.25.56-1.25 1.25v5.5c0 .69.56 1.25 1.25 1.25h4.25c.414 0 .75.336.75.75s-.336.75-.75.75h-4.25c-1.519 0-2.75-1.231-2.75-2.75v-5.5Z"/><path d="M9.75 12.25c0-.414.336-.75.75-.75h2.94l-.72-.72c-.293-.293-.293-.767 0-1.06.293-.293.767-.293 1.06 0l2 2c.293.293.293.767 0 1.06l-2 2c-.293.293-.767.293-1.06 0-.293-.293-.293-.767 0-1.06l.72-.72h-2.94c-.414 0-.75-.336-.75-.75Z"/><path d="M4.567 5.57c-.375-.175-.821-.012-.997.363-.175.375-.013.822.363.997l3.538 1.651c.335.157.723.157 1.058 0l3.538-1.651c.376-.175.538-.622.363-.997-.175-.375-.622-.538-.997-.362l-3.433 1.602-3.433-1.602Z"/></svg>