<svg xmlns="http://www.w3.org/2000/svg" viewBox="0 0 16 16"><path d="M6.5 4.5c-.414 0-.75.336-.75.75s.336.75.75.75h3c.414 0 .75-.336.75-.75s-.336-.75-.75-.75h-3Z"/><path fill-rule="evenodd" d="M6 1.5c-1.519 0-2.75 1.231-2.75 2.75v.5h-1.75c-.552 0-1 .448-1 1v6c0 1.519 1.231 2.75 2.75 2.75h9.5c1.519 0 2.75-1.231 2.75-2.75v-6c0-.552-.448-1-1-1h-1.75v-.5c0-1.519-1.231-2.75-2.75-2.75h-4Zm2 7.849-3.25-2.167v-2.932c0-.69.56-1.25 1.25-1.25h4c.69 0 1.25.56 1.25 1.25v2.932l-3.25 2.167Zm6-2.198v4.599c0 .69-.56 1.25-1.25 1.25h-9.5c-.69 0-1.25-.56-1.25-1.25v-4.599l6 4 6-4Z"/></svg>