<svg xmlns="http://www.w3.org/2000/svg" viewBox="0 0 20 20"><path d="M7.75 6.5c-.414 0-.75.336-.75.75s.336.75.75.75h4.5c.414 0 .75-.336.75-.75s-.336-.75-.75-.75h-4.5Z"/><path fill-rule="evenodd" d="M7 2.5c-1.519 0-2.75 1.231-2.75 2.75v1.5h-1.5c-.552 0-1 .448-1 1v7c0 1.519 1.231 2.75 2.75 2.75h11c1.519 0 2.75-1.231 2.75-2.75v-7c0-.552-.448-1-1-1h-1.5v-1.5c0-1.519-1.231-2.75-2.75-2.75h-6Zm3 8.875-4.25-2.55v-3.575c0-.69.56-1.25 1.25-1.25h6c.69 0 1.25.56 1.25 1.25v3.575l-4.25 2.55Zm6.75-2.3v5.675c0 .69-.56 1.25-1.25 1.25h-11c-.69 0-1.25-.56-1.25-1.25v-5.675l6.75 4.05 6.75-4.05Z"/></svg>