<svg viewBox="0 0 20 20" xmlns="http://www.w3.org/2000/svg"><path d="M2.43934 17.5607C2.15804 17.2794 2 16.8978 2 16.5V15C2 14.7348 2.10536 14.4804 2.29289 14.2929C2.48043 14.1054 2.73478 14 3 14C3.26522 14 3.51957 14.1054 3.70711 14.2929C3.89464 14.4804 4 14.7348 4 15V16H16V4H4V5C4 5.26522 3.89464 5.51957 3.70711 5.70711C3.51957 5.89464 3.26522 6 3 6C2.73478 6 2.48043 5.89464 2.29289 5.70711C2.10536 5.51957 2 5.26522 2 5V3.5C2 3.10218 2.15804 2.72064 2.43934 2.43934C2.72064 2.15804 3.10218 2 3.5 2H16.5C16.8978 2 17.2794 2.15804 17.5607 2.43934C17.842 2.72064 18 3.10218 18 3.5V16.5C18 16.8978 17.842 17.2794 17.5607 17.5607C17.2794 17.842 16.8978 18 16.5 18H3.5C3.10218 18 2.72064 17.842 2.43934 17.5607Z" fill="#5C5F62"/><path d="m12.707 9.292-3-3c-0.1875-0.18756-0.44189-0.29291-0.70703-0.29291-0.04761 0-0.09521 0.00342-0.14233 0.0102-0.08228 0.01184-0.16309 0.03393-0.24024 0.06592-0.12134 0.05029-0.23169 0.1239-0.32446 0.21679-0.09277 0.09284-0.16651 0.20307-0.2168 0.32434-0.05005 0.12134-0.07593 0.25135-0.07593 0.38263 0 0.2652 0.10523 0.51947 0.29273 0.70697l1.293 1.293h-7.5859c-0.26514 0-0.51953 0.10535-0.70703 0.29291-0.1875 0.1875-0.29297 0.44189-0.29297 0.70709 0 0.26524 0.10547 0.51964 0.29297 0.70714s0.44189 0.2929 0.70703 0.2929h7.5859l-1.293 1.293c-0.02735 0.0272-0.05298 0.056-0.07691 0.0861-0.05737 0.0723-0.10449 0.1525-0.14013 0.2382-0.0503 0.1213-0.07617 0.2513-0.07617 0.3827 0 0.1313 0.02587 0.2613 0.07617 0.3827 0.05029 0.1213 0.12402 0.2315 0.21704 0.3242 0.0415 0.0418 0.08667 0.0797 0.13476 0.1134 0.05909 0.0414 0.12256 0.0765 0.18946 0.1043 0.12134 0.0504 0.25146 0.0764 0.38281 0.0764 0.06421 0 0.12817-0.0062 0.19092-0.0185 0.06567-0.0127 0.12988-0.0322 0.19189-0.0579 0.12134-0.0505 0.23145-0.1245 0.32422-0.2177l3-3c0.093-0.0927 0.1668-0.2029 0.2171-0.3242 0.0298-0.0719 0.051-0.1469 0.0632-0.2234 0.0085-0.0526 0.0129-0.1059 0.0129-0.15934 0-0.13135-0.0258-0.26135-0.0761-0.38269s-0.1241-0.2315-0.2171-0.32428z" fill="#5C5F62"/></svg>
