<svg xmlns="http://www.w3.org/2000/svg" viewBox="0 0 20 20"><path d="M9.75 3c-1.243 0-2.25 1.007-2.25 2.25 0 .414.336.75.75.75s.75-.336.75-.75.336-.75.75-.75h3.5c.69 0 1.25.56 1.25 1.25v8.5c0 .69-.56 1.25-1.25 1.25h-3.5c-.414 0-.75-.336-.75-.75s-.336-.75-.75-.75-.75.336-.75.75c0 1.243 1.007 2.25 2.25 2.25h3.5c1.519 0 2.75-1.231 2.75-2.75v-8.5c0-1.519-1.231-2.75-2.75-2.75h-3.5Z"/><path d="M4.75 9.25c-.414 0-.75.336-.75.75s.336.75.75.75h5.69l-.97.97c-.293.293-.293.767 0 1.06.293.293.767.293 1.06 0l2.25-2.25c.141-.14.22-.331.22-.53s-.079-.39-.22-.53l-2.25-2.25c-.293-.293-.767-.293-1.06 0-.293.293-.293.767 0 1.06l.97.97h-5.69Z"/></svg>