<svg xmlns="http://www.w3.org/2000/svg" viewBox="0 0 20 20"><path d="M8.75 5.5c-.414 0-.75.336-.75.75s.336.75.75.75h2.5c.414 0 .75-.336.75-.75s-.336-.75-.75-.75h-2.5Z"/><path d="M6 10.75c0-.414.336-.75.75-.75h3c.414 0 .75.336.75.75s-.336.75-.75.75h-3c-.414 0-.75-.336-.75-.75Z"/><path d="M6.75 13c-.414 0-.75.336-.75.75s.336.75.75.75h5c.414 0 .75-.336.75-.75s-.336-.75-.75-.75h-5Z"/><path fill-rule="evenodd" d="M5.75 2c-1.519 0-2.75 1.231-2.75 2.75v10.5c0 1.519 1.231 2.75 2.75 2.75h8.5c1.519 0 2.75-1.231 2.75-2.75v-10.5c0-1.519-1.231-2.75-2.75-2.75h-8.5Zm-1.25 2.75c0-.69.56-1.25 1.25-1.25h8.5c.69 0 1.25.56 1.25 1.25v.793c-.078-.028-.162-.043-.25-.043h-1.5c-.414 0-.75.336-.75.75s.336.75.75.75h1.5c.088 0 .172-.015.25-.043v8.293c0 .69-.56 1.25-1.25 1.25h-8.5c-.69 0-1.25-.56-1.25-1.25v-8.293c.078.028.162.043.25.043h1.5c.414 0 .75-.336.75-.75s-.336-.75-.75-.75h-1.5c-.088 0-.172.015-.25.043v-.793Z"/></svg>