<svg xmlns="http://www.w3.org/2000/svg" viewBox="0 0 16 16"><path d="M4 7.5c-.414 0-.75.336-.75.75s.336.75.75.75h1c.414 0 .75-.336.75-.75s-.336-.75-.75-.75h-1Z"/><path d="M3.25 10.5c0-.414.336-.75.75-.75h3c.414 0 .75.336.75.75s-.336.75-.75.75h-3c-.414 0-.75-.336-.75-.75Z"/><path fill-rule="evenodd" d="M3.25 2c-1.519 0-2.75 1.231-2.75 2.75v6.5c0 1.519 1.231 2.75 2.75 2.75h9.5c1.519 0 2.75-1.231 2.75-2.75v-6.5c0-1.519-1.231-2.75-2.75-2.75h-9.5Zm7.184 1.5h-7.184c-.69 0-1.25.56-1.25 1.25v6.5c0 .69.56 1.25 1.25 1.25h7.184l-.5-.273c-.884-.482-1.434-1.408-1.434-2.414v-3.626c0-1.006.55-1.932 1.433-2.414l.5-.273Zm3.566 7.552v-6.104c0-.76-.813-1.242-1.479-.878l-1.87 1.02c-.401.219-.651.64-.651 1.097v3.626c0 .457.25.878.651 1.097l1.87 1.02c.666.363 1.479-.119 1.479-.878Z"/></svg>