<svg xmlns="http://www.w3.org/2000/svg" viewBox="0 0 20 20"><path d="M5.25 9.5c-.414 0-.75.336-.75.75s.336.75.75.75h1.75c.414 0 .75-.336.75-.75s-.336-.75-.75-.75h-1.75Z"/><path d="M4.5 12.75c0-.414.336-.75.75-.75h3.75c.414 0 .75.336.75.75s-.336.75-.75.75h-3.75c-.414 0-.75-.336-.75-.75Z"/><path fill-rule="evenodd" d="M4.25 3c-1.519 0-2.75 1.231-2.75 2.75v8.5c0 1.519 1.231 2.75 2.75 2.75h11.5c1.519 0 2.75-1.231 2.75-2.75v-8.5c0-1.519-1.231-2.75-2.75-2.75h-11.5Zm9.78 1.5h-9.78c-.69 0-1.25.56-1.25 1.25v8.5c0 .69.56 1.25 1.25 1.25h9.78l-.933-.325c-1.106-.384-1.847-1.426-1.847-2.597v-5.156c0-1.17.741-2.213 1.847-2.597l.933-.325Zm2.97 9.039v-7.077c0-.688-.679-1.171-1.329-.945l-2.082.724c-.502.175-.839.649-.839 1.18v5.157c0 .532.337 1.006.84 1.18l2.082.725c.65.226 1.328-.257 1.328-.944Z"/></svg>