<svg xmlns="http://www.w3.org/2000/svg" viewBox="0 0 20 20"><path fill-rule="evenodd" d="m11.859 4.61-7.648 7.649c-.014.014-.022.034-.022.054 0 .02.008.04.022.054l.004.003 3.018 3.083h1.718l6.837-6.91.001-.002c.014-.014.022-.034.022-.054 0-.02-.007-.039-.021-.053l-3.823-3.823c-.015-.014-.034-.022-.054-.022-.02 0-.04.008-.054.022Zm-2.62 12.22h5.738c.38 0 .688-.308.688-.688 0-.38-.308-.689-.688-.689h-4.088l5.877-5.94c.27-.273.423-.642.423-1.026s-.152-.752-.423-1.025l-3.827-3.826-.002-.002c-.272-.27-.64-.423-1.024-.423s-.753.152-1.025.423l-.002.002-7.65 7.65-.002.002c-.27.272-.423.64-.423 1.025 0 .383.152.75.42 1.022l3.22 3.289c.13.132.307.207.492.207h2.296Z" clip-rule="evenodd" style="fill:color(display-p3 .2902 .2902 .2902);fill-opacity:1"/><path fill-rule="evenodd" d="M6.421 8.595c.269-.269.705-.269.974 0l4.59 4.59c.27.27.27.705 0 .974-.269.27-.705.27-.973 0l-4.591-4.59c-.269-.27-.269-.705 0-.974Z" clip-rule="evenodd" style="fill:color(display-p3 .2902 .2902 .2902);fill-opacity:1"/></svg>