<svg xmlns="http://www.w3.org/2000/svg" viewBox="0 0 20 20"><path fill-rule="evenodd" d="M14.977 16.83h-8.033c-.186 0-.363-.074-.492-.206l-3.22-3.289c-.27-.272-.42-.64-.42-1.022 0-.384.151-.753.422-1.025l.002-.002 7.65-7.65.002-.002c.272-.27.64-.423 1.025-.423.384 0 .752.152 1.025.423l.001.002 3.827 3.826c.27.273.423.641.423 1.025 0 .384-.153.753-.423 1.025l-5.877 5.941h4.088c.38 0 .688.309.688.689 0 .38-.308.689-.688.689Zm-7.342-7.995 4.224-4.224c.014-.014.034-.022.054-.022.02 0 .04.008.054.022l3.823 3.823c.014.014.022.033.022.053 0 .02-.008.04-.023.054v.001l-4.201 4.246-3.953-3.953Zm-.974.974-2.45 2.45c-.014.014-.022.034-.022.054 0 .02.008.04.022.054l.004.003 3.018 3.083h1.718l1.668-1.686-3.958-3.958Z" clip-rule="evenodd"/></svg>