<svg xmlns="http://www.w3.org/2000/svg" viewBox="0 0 16 16"><path fill-rule="evenodd" d="M13.5 9.364c1.014.319 1.75 1.267 1.75 2.386 0 1.38-1.12 2.5-2.5 2.5s-2.5-1.12-2.5-2.5c0-1.12.736-2.067 1.75-2.386v-2.364c0-1.243-1.007-2.25-2.25-2.25h-.44l.47.47c.293.293.293.767 0 1.06-.293.293-.767.293-1.06 0l-1.75-1.75c-.141-.14-.22-.331-.22-.53s.079-.39.22-.53l1.75-1.75c.293-.293.767-.293 1.06 0 .293.293.293.767 0 1.06l-.47.47h.44c2.071 0 3.75 1.679 3.75 3.75v2.364Zm.25 2.386c0 .552-.448 1-1 1s-1-.448-1-1 .448-1 1-1 1 .448 1 1Z"/><path fill-rule="evenodd" d="M4 9v-2.364c1.014-.319 1.75-1.267 1.75-2.386 0-1.38-1.12-2.5-2.5-2.5s-2.5 1.12-2.5 2.5c0 1.12.736 2.067 1.75 2.386v2.364c0 2.071 1.679 3.75 3.75 3.75h.44l-.47.47c-.293.293-.293.767 0 1.06.293.293.767.293 1.06 0l1.75-1.75c.141-.14.22-.331.22-.53s-.079-.39-.22-.53l-1.75-1.75c-.293-.293-.767-.293-1.06 0-.293.293-.293.767 0 1.06l.47.47h-.44c-1.243 0-2.25-1.007-2.25-2.25Zm.25-4.75c0 .552-.448 1-1 1s-1-.448-1-1 .448-1 1-1 1 .448 1 1Z"/></svg>