<svg xmlns="http://www.w3.org/2000/svg" viewBox="0 0 20 20"><path fill-rule="evenodd" d="M7.75 5.75c0 1.398-.956 2.572-2.25 2.905v2.595c0 1.243 1.007 2.25 2.25 2.25h.94l-.97-.97c-.293-.293-.293-.767 0-1.06.293-.293.767-.293 1.06 0l2.25 2.25c.141.14.22.331.22.53s-.079.39-.22.53l-2.25 2.25c-.293.293-.767.293-1.06 0-.293-.293-.293-.767 0-1.06l.97-.97h-.94c-2.071 0-3.75-1.679-3.75-3.75v-2.595c-1.294-.333-2.25-1.507-2.25-2.905 0-1.657 1.343-3 3-3s3 1.343 3 3Zm-3 1.5c.828 0 1.5-.672 1.5-1.5s-.672-1.5-1.5-1.5-1.5.672-1.5 1.5.672 1.5 1.5 1.5Z"/><path fill-rule="evenodd" d="M16 11.345c1.294.332 2.25 1.507 2.25 2.905 0 1.657-1.343 3-3 3s-3-1.343-3-3c0-1.398.956-2.572 2.25-2.905v-2.595c0-1.243-1.007-2.25-2.25-2.25h-.94l.97.97c.293.293.293.767 0 1.06-.293.293-.767.293-1.06 0l-2.25-2.25c-.141-.14-.22-.331-.22-.53s.079-.39.22-.53l2.25-2.25c.293-.293.767-.293 1.06 0 .293.293.293.767 0 1.06l-.97.97h.94c2.071 0 3.75 1.679 3.75 3.75v2.595Zm.75 2.905c0 .828-.672 1.5-1.5 1.5s-1.5-.672-1.5-1.5.672-1.5 1.5-1.5 1.5.672 1.5 1.5Z"/></svg>