<svg viewBox="0 0 20 20" xmlns="http://www.w3.org/2000/svg"><path fill-rule="evenodd" d="M16.75 11.614a2.501 2.501 0 1 1-1.5 0v-2.614a2.25 2.25 0 0 0-2.25-2.25h-2.12l.44.512a.75.75 0 1 1-1.14.976l-1.5-1.75a.75.75 0 0 1 0-.976l1.5-1.75a.75.75 0 1 1 1.14.976l-.44.512h2.12a3.75 3.75 0 0 1 3.75 3.75v2.614Zm-.753 1.386a1 1 0 1 0 .006 0h-.006Z" fill="#5C5F62"/><path fill-rule="evenodd" d="M4.75 8.386a2.501 2.501 0 1 0-1.5 0v2.614a3.75 3.75 0 0 0 3.75 3.75h2.12l-.44.512a.75.75 0 1 0 1.14.976l1.5-1.75a.75.75 0 0 0 0-.976l-1.5-1.75a.75.75 0 0 0-1.14.976l.44.512h-2.12a2.25 2.25 0 0 1-2.25-2.25v-2.614Zm.25-2.386a1 1 0 1 1-2 0 1 1 0 0 1 2 0Z" fill="#5C5F62"/></svg>