<svg xmlns="http://www.w3.org/2000/svg" viewBox="0 0 16 16"><path d="M7.75 1c-1.243 0-2.25 1.007-2.25 2.25 0 .414.336.75.75.75s.75-.336.75-.75.336-.75.75-.75h4c.414 0 .75.336.75.75v9.5c0 .414-.336.75-.75.75h-4c-.414 0-.75-.336-.75-.75s-.336-.75-.75-.75-.75.336-.75.75c0 1.243 1.007 2.25 2.25 2.25h4c1.243 0 2.25-1.007 2.25-2.25v-9.5c0-1.243-1.007-2.25-2.25-2.25h-4Z"/><path d="M10.25 8.75c.414 0 .75-.336.75-.75s-.336-.75-.75-.75h-5.69l.97-.97c.293-.293.293-.767 0-1.06-.293-.293-.767-.293-1.06 0l-2.25 2.25c-.141.14-.22.331-.22.53s.079.39.22.53l2.25 2.25c.293.293.767.293 1.06 0 .293-.293.293-.767 0-1.06l-.97-.97h5.69Z"/></svg>