<svg viewBox="0 0 20 20" xmlns="http://www.w3.org/2000/svg"><path d="M9.25 2a2.75 2.75 0 0 0-2.75 2.75v.172a.75.75 0 1 0 1.5 0v-.172c0-.69.56-1.25 1.25-1.25h4c.69 0 1.25.56 1.25 1.25v10.5c0 .69-.56 1.25-1.25 1.25h-4c-.69 0-1.25-.56-1.25-1.25v-.172a.75.75 0 0 0-1.5 0v.172a2.75 2.75 0 0 0 2.75 2.75h4a2.75 2.75 0 0 0 2.75-2.75v-10.5a2.75 2.75 0 0 0-2.75-2.75h-4Z" fill="#5C5F62"/><path d="M11.25 10.875a.75.75 0 0 0 0-1.5h-5.506l1.05-1.11a.75.75 0 1 0-1.088-1.03l-2.25 2.374a.75.75 0 0 0 0 1.032l2.25 2.375a.75.75 0 0 0 1.088-1.032l-1.05-1.109h5.506Z" fill="#5C5F62"/></svg>