<svg xmlns="http://www.w3.org/2000/svg" viewBox="0 0 20 20"><path d="M10.25 2c-1.519 0-2.75 1.231-2.75 2.75 0 .414.336.75.75.75s.75-.336.75-.75c0-.69.56-1.25 1.25-1.25h4c.69 0 1.25.56 1.25 1.25v10.5c0 .69-.56 1.25-1.25 1.25h-4c-.69 0-1.25-.56-1.25-1.25v-.031c0-.414-.336-.75-.75-.75s-.75.336-.75.75v.031c0 1.519 1.231 2.75 2.75 2.75h4c1.519 0 2.75-1.231 2.75-2.75v-10.5c0-1.519-1.231-2.75-2.75-2.75h-4Z"/><path d="M12.5 10.75c.414 0 .75-.336.75-.75s-.336-.75-.75-.75h-7.19l1.47-1.47c.293-.293.293-.767 0-1.06-.293-.293-.767-.293-1.06 0l-2.75 2.75c-.141.14-.22.331-.22.53s.079.39.22.53l2.75 2.75c.293.293.767.293 1.06 0 .293-.293.293-.767 0-1.06l-1.47-1.47h7.19Z"/></svg>