<svg xmlns="http://www.w3.org/2000/svg" viewBox="0 0 16 16"><path d="M8.75 10.75c0 .414-.336.75-.75.75s-.75-.336-.75-.75v-6.69l-1.72 1.72c-.293.293-.767.293-1.06 0-.293-.293-.293-.767 0-1.06l3-3c.293-.293.767-.293 1.06 0l3 3c.293.293.293.767 0 1.06-.293.293-.767.293-1.06 0l-1.72-1.72v6.69Z"/><path d="M14.5 11.75c0-.414-.336-.75-.75-.75s-.75.336-.75.75v.76c0 .414-.336.75-.75.75h-8.5c-.414 0-.75-.336-.75-.75v-.76c0-.414-.336-.75-.75-.75s-.75.336-.75.75v.76c0 1.243 1.007 2.25 2.25 2.25h8.5c1.243 0 2.25-1.007 2.25-2.25v-.76Z"/></svg>