<svg viewBox="0 0 20 20" xmlns="http://www.w3.org/2000/svg">
<path d="M15.7073 8.29291L18.7073 11.2929C18.8003 11.3857 18.874 11.4958 18.9243 11.6172C18.9746 11.7385 19.0005 11.8685 19.0005 11.9999C19.0005 12.0533 18.9961 12.1066 18.9875 12.1592C18.9753 12.2357 18.9541 12.3107 18.9243 12.3826C18.874 12.5039 18.8003 12.6141 18.7073 12.7068L15.7073 15.7068C15.6145 15.8 15.5044 15.874 15.3831 15.9245C15.321 15.9503 15.2568 15.9697 15.1912 15.9824C15.1284 15.9947 15.0645 16.0009 15.0002 16.0009C14.8689 16.0009 14.7388 15.9749 14.6174 15.9245C14.5505 15.8967 14.4871 15.8616 14.428 15.8202C14.3799 15.7865 14.3347 15.7486 14.2932 15.7068C14.2002 15.6141 14.1265 15.5039 14.0762 15.3826C14.0259 15.2612 14 15.1312 14 14.9999C14 14.8685 14.0259 14.7385 14.0762 14.6172C14.1118 14.5315 14.1589 14.4514 14.2163 14.379C14.2402 14.3489 14.2659 14.3201 14.2932 14.2929L15.5862 12.9999H10.0002C9.73511 12.9999 9.48071 12.8945 9.29321 12.707C9.10571 12.5195 9.00024 12.2651 9.00024 11.9999C9.00024 11.7347 9.10571 11.4803 9.29321 11.2928C9.48071 11.1052 9.73511 10.9999 10.0002 10.9999H15.5862L14.2932 9.70685C14.1057 9.51935 14.0005 9.26508 14.0005 8.99988C14.0005 8.86859 14.0264 8.73859 14.0764 8.61725C14.1267 8.49597 14.2004 8.38574 14.2932 8.29291C14.386 8.20001 14.4963 8.1264 14.6177 8.07611C14.6948 8.04413 14.7756 8.02203 14.8579 8.01019C14.905 8.00342 14.9526 8 15.0002 8C15.2654 8 15.5198 8.10535 15.7073 8.29291Z" fill="#5C5F62"/>
<path d="M4.29321 4.29291C4.48071 4.10535 4.73511 4 5.00024 4C5.26538 4 5.51978 4.10535 5.70728 4.29291C5.89478 4.48041 6 4.73468 6 4.99988C6 5.26508 5.89478 5.51935 5.70728 5.70685L4.41431 6.99988H10.0002C10.2654 6.99988 10.5198 7.10522 10.7073 7.29279C10.8948 7.48029 11.0002 7.73468 11.0002 7.99988C11.0002 8.26508 10.8948 8.51947 10.7073 8.70697C10.5198 8.89453 10.2654 8.99988 10.0002 8.99988H4.41431L5.70728 10.2929C5.80005 10.3857 5.87378 10.496 5.92407 10.6172C5.97412 10.7386 6 10.8686 6 10.9999C6 11.0333 5.99829 11.0667 5.99512 11.0999C5.99219 11.1287 5.98804 11.1574 5.98267 11.1859C5.97607 11.2213 5.96729 11.2563 5.95679 11.2909C5.94727 11.3219 5.93652 11.3525 5.92407 11.3825C5.87378 11.5038 5.80005 11.614 5.70728 11.7068C5.6145 11.7997 5.50415 11.8734 5.38281 11.9236C5.33667 11.9428 5.28906 11.9584 5.24072 11.9704C5.21558 11.9766 5.19043 11.9819 5.16504 11.9861C5.14087 11.9902 5.11646 11.9933 5.0918 11.9956C5.06128 11.9984 5.03076 11.9998 5.00024 11.9998C4.97119 11.9998 4.94214 11.9985 4.91309 11.9959C4.81177 11.9871 4.71216 11.9627 4.61768 11.9236C4.49634 11.8734 4.38599 11.7997 4.29321 11.7068L1.29321 8.70685C1.2002 8.61407 1.12646 8.50391 1.07617 8.38257C1.06006 8.34338 1.04639 8.30334 1.03516 8.26257C1.02734 8.23407 1.02075 8.20526 1.01562 8.17615C1.00537 8.1181 1 8.05914 1 7.99988C1 7.86853 1.02588 7.73853 1.07617 7.61719C1.12646 7.49585 1.2002 7.38568 1.29321 7.29291L4.29321 4.29291Z" fill="#5C5F62"/>
</svg>
