<svg xmlns="http://www.w3.org/2000/svg" viewBox="0 0 20 20"><path fill-rule="evenodd" d="M14.25 10.217c.414 0 .75.336.75.75v2.783c0 1.519-1.231 2.75-2.75 2.75h-6c-1.519 0-2.75-1.231-2.75-2.75v-6c0-1.519 1.231-2.75 2.75-2.75h2.783c.414 0 .75.336.75.75s-.336.75-.75.75h-2.783c-.69 0-1.25.56-1.25 1.25v6c0 .69.56 1.25 1.25 1.25h6c.69 0 1.25-.56 1.25-1.25v-2.783c0-.414.336-.75.75-.75Z"/><path fill-rule="evenodd" d="M11 4.25c0-.414.336-.75.75-.75h4c.414 0 .75.336.75.75v4c0 .414-.336.75-.75.75s-.75-.336-.75-.75v-2.19l-4.97 4.97c-.293.293-.767.293-1.06 0-.293-.293-.293-.767 0-1.06l4.97-4.97h-2.19c-.414 0-.75-.336-.75-.75Z"/></svg>