<svg xmlns="http://www.w3.org/2000/svg" viewBox="0 0 20 20"><path fill-rule="evenodd" d="M15.75 9.75c.414 0 .75.336.75.75v2.75c0 2.071-1.679 3.75-3.75 3.75h-6c-2.071 0-3.75-1.679-3.75-3.75v-6c0-2.071 1.679-3.75 3.75-3.75h2.75c.414 0 .75.336.75.75s-.336.75-.75.75h-2.75c-1.243 0-2.25 1.007-2.25 2.25v6c0 1.243 1.007 2.25 2.25 2.25h6c1.243 0 2.25-1.007 2.25-2.25v-2.75c0-.414.336-.75.75-.75Z"/><path fill-rule="evenodd" d="M12.75 3.5c-.414 0-.75-.336-.75-.75s.336-.75.75-.75h4.5c.414 0 .75.336.75.75v4.5c0 .414-.336.75-.75.75s-.75-.336-.75-.75v-2.69l-5.72 5.72c-.293.293-.767.293-1.06 0-.293-.293-.293-.767 0-1.06l5.72-5.72h-2.69Z"/></svg>