<svg xmlns="http://www.w3.org/2000/svg" viewBox="0 0 12 12"><path d="M1.75 3.125c0-.76.616-1.375 1.375-1.375h2c.345 0 .625-.28.625-.625s-.28-.625-.625-.625h-2c-1.45 0-2.625 1.175-2.625 2.625v5.5c0 1.45 1.175 2.625 2.625 2.625h5.5c1.45 0 2.625-1.175 2.625-2.625v-1.875c0-.345-.28-.625-.625-.625s-.625.28-.625.625v1.875c0 .76-.616 1.375-1.375 1.375h-5.5c-.76 0-1.375-.616-1.375-1.375v-5.5Z"/><path d="M7.375.5c-.345 0-.625.28-.625.625s.28.625.625.625h1.741l-3.366 3.25c-.244.244-.244.64 0 .884s.64.244.884 0l3.366-3.25v1.741c0 .345.28.625.625.625s.625-.28.625-.625v-3.25c0-.345-.28-.625-.625-.625h-3.25Z"/></svg>