<svg xmlns="http://www.w3.org/2000/svg" viewBox="0 0 16 16"><path d="M9.75 1.5c-.414 0-.75.336-.75.75s.336.75.75.75h2.19l-4.97 4.97c-.293.293-.293.767 0 1.06.293.293.767.293 1.06 0l4.97-4.97v2.19c0 .414.336.75.75.75s.75-.336.75-.75v-4c0-.414-.336-.75-.75-.75h-4Z"/><path d="M13 8.967c0-.414-.336-.75-.75-.75s-.75.336-.75.75v2.783c0 .69-.56 1.25-1.25 1.25h-6c-.69 0-1.25-.56-1.25-1.25v-6c0-.69.56-1.25 1.25-1.25h2.783c.414 0 .75-.336.75-.75s-.336-.75-.75-.75h-2.783c-1.519 0-2.75 1.231-2.75 2.75v6c0 1.519 1.231 2.75 2.75 2.75h6c1.519 0 2.75-1.231 2.75-2.75v-2.783Z"/></svg>