<svg viewBox="0 0 20 20" xmlns="http://www.w3.org/2000/svg">
<path d="M14.7073 8.29291L17.7073 11.2929C17.8003 11.3857 17.874 11.4958 17.9243 11.6172C17.9746 11.7385 18.0005 11.8685 18.0005 11.9999C18.0005 12.0533 17.9961 12.1066 17.9875 12.1592C17.9753 12.2357 17.9541 12.3107 17.9243 12.3826C17.874 12.5039 17.8003 12.6141 17.7073 12.7068L14.7073 15.7068C14.6145 15.8 14.5044 15.874 14.3831 15.9245C14.321 15.9503 14.2568 15.9697 14.1912 15.9824C14.1284 15.9947 14.0645 16.0009 14.0002 16.0009C13.8689 16.0009 13.7388 15.9749 13.6174 15.9245C13.5505 15.8967 13.4871 15.8616 13.428 15.8202C13.3799 15.7865 13.3347 15.7486 13.2932 15.7068C13.2002 15.6141 13.1265 15.5039 13.0762 15.3826C13.0259 15.2612 13 15.1312 13 14.9999C13 14.8685 13.0259 14.7385 13.0762 14.6172C13.1118 14.5315 13.1589 14.4514 13.2163 14.379C13.2402 14.3489 13.2659 14.3201 13.2932 14.2929L14.5862 12.9999H10.0002C9.73511 12.9999 9.48071 12.8945 9.29321 12.707C9.10571 12.5195 9.00024 12.2651 9.00024 11.9999C9.00024 11.7347 9.10571 11.4803 9.29321 11.2928C9.48071 11.1052 9.73511 10.9999 10.0002 10.9999H14.5862L13.2932 9.70685C13.1057 9.51935 13.0005 9.26508 13.0005 8.99988C13.0005 8.86859 13.0264 8.73859 13.0764 8.61725C13.1267 8.49597 13.2004 8.38574 13.2932 8.29291C13.386 8.20001 13.4963 8.1264 13.6177 8.07611C13.6948 8.04413 13.7756 8.02203 13.8579 8.01019C13.905 8.00342 13.9526 8 14.0002 8C14.2654 8 14.5198 8.10535 14.7073 8.29291Z" fill="#5C5F62"/>
<path d="M5.29321 4.29291C5.48071 4.10535 5.73511 4 6.00024 4C6.26538 4 6.51978 4.10535 6.70728 4.29291C6.89478 4.48041 7 4.73468 7 4.99988C7 5.26508 6.89478 5.51935 6.70728 5.70685L5.41431 6.99988H10.0002C10.2654 6.99988 10.5198 7.10522 10.7073 7.29279C10.8948 7.48029 11.0002 7.73468 11.0002 7.99988C11.0002 8.26508 10.8948 8.51947 10.7073 8.70697C10.5198 8.89453 10.2654 8.99988 10.0002 8.99988H5.41431L6.70728 10.2929C6.80005 10.3857 6.87378 10.496 6.92407 10.6172C6.97412 10.7386 7 10.8686 7 10.9999C7 11.0333 6.99829 11.0667 6.99512 11.0999C6.99219 11.1287 6.98804 11.1574 6.98267 11.1859C6.97607 11.2213 6.96729 11.2563 6.95679 11.2909C6.94727 11.3219 6.93652 11.3525 6.92407 11.3825C6.87378 11.5038 6.80005 11.614 6.70728 11.7068C6.6145 11.7997 6.50415 11.8734 6.38281 11.9236C6.33667 11.9428 6.28906 11.9584 6.24072 11.9704C6.21558 11.9766 6.19043 11.9819 6.16504 11.9861C6.14087 11.9902 6.11646 11.9933 6.0918 11.9956C6.06128 11.9984 6.03076 11.9998 6.00024 11.9998C5.97119 11.9998 5.94214 11.9985 5.91309 11.9959C5.81177 11.9871 5.71216 11.9627 5.61768 11.9236C5.49634 11.8734 5.38599 11.7997 5.29321 11.7068L2.29321 8.70685C2.2002 8.61407 2.12646 8.50391 2.07617 8.38257C2.06006 8.34338 2.04639 8.30334 2.03516 8.26257C2.02734 8.23407 2.02075 8.20526 2.01562 8.17615C2.00537 8.1181 2 8.05914 2 7.99988C2 7.86853 2.02588 7.73853 2.07617 7.61719C2.12646 7.49585 2.2002 7.38568 2.29321 7.29291L5.29321 4.29291Z" fill="#5C5F62"/>
</svg>
