<svg xmlns="http://www.w3.org/2000/svg" viewBox="0 0 20 20"><path d="M2.75 10v-.003c.004-.018.018-.108.083-.282.07-.19.18-.43.335-.708.31-.555.78-1.22 1.404-1.857 1.249-1.276 3.067-2.4 5.428-2.4 2.361 0 4.18 1.124 5.428 2.4.624.637 1.094 1.302 1.404 1.857.155.277.266.519.335.708.065.174.08.264.082.282l.001.004c0 .414.336.749.75.749s.75-.336.75-.75c0-.26-.08-.548-.175-.805-.102-.275-.248-.589-.434-.92-.372-.665-.92-1.437-1.641-2.175-1.443-1.474-3.624-2.85-6.5-2.85-2.875 0-5.057 1.376-6.5 2.85-.721.738-1.27 1.51-1.64 2.174-.187.332-.333.646-.435.921-.094.257-.175.545-.175.805s.08.548.175.805c.102.276.248.588.434.92.372.665.92 1.437 1.641 2.175 1.443 1.474 3.625 2.85 6.5 2.85.414 0 .75-.336.75-.75s-.336-.75-.75-.75c-2.361 0-4.18-1.124-5.428-2.4-.624-.637-1.094-1.302-1.404-1.857-.155-.277-.266-.519-.335-.708-.065-.174-.08-.264-.082-.282v-.003Z"/><path fill-rule="evenodd" d="M10 13.5c1.933 0 3.5-1.567 3.5-3.5s-1.567-3.5-3.5-3.5-3.5 1.567-3.5 3.5 1.567 3.5 3.5 3.5Zm0-1.5c1.105 0 2-.895 2-2s-.895-2-2-2-2 .895-2 2 .895 2 2 2Z"/><path d="M18.945 13.53c.292-.293.292-.767 0-1.06-.293-.293-.768-.293-1.061 0l-3.427 3.426-1.511-1.511c-.293-.293-.768-.293-1.061 0-.293.293-.293.768 0 1.06l2.042 2.042c.293.293.768.293 1.06 0l3.958-3.957Z"/></svg>