<svg xmlns="http://www.w3.org/2000/svg" viewBox="0 0 16 16"><path fill-rule="evenodd" d="m12.42 7.116 1.401-1.401c.976-.977.976-2.56 0-3.536s-2.56-.976-3.535 0l-.743.743-.007.007-.652.652-1.06-1.06c-.294-.294-.769-.294-1.061 0-.293.292-.293.767 0 1.06l1.06 1.06-5.644 5.645c-.976.976-.976 2.559 0 3.535s2.56.976 3.535 0l5.645-5.644 1.06 1.06c.293.293.768.293 1.061 0 .293-.292.293-.767 0-1.06l-1.06-1.06Zm-2.122 0-5.644 5.645c-.39.39-1.024.39-1.414 0-.39-.391-.39-1.024 0-1.415l5.644-5.644 1.414 1.414Z"/></svg>