<svg xmlns="http://www.w3.org/2000/svg" viewBox="0 0 20 20"><path fill-rule="evenodd" d="m14.773 10.53-.796-.795-6.982 6.983c-1.025 1.025-2.687 1.025-3.712 0-1.026-1.026-1.026-2.688 0-3.713l6.982-6.982-.795-.796c-.293-.293-.293-.768 0-1.06.293-.294.767-.294 1.06 0l.796.795 1.68-1.68c1.024-1.025 2.686-1.025 3.712 0 1.025 1.026 1.025 2.688 0 3.713l-1.68 1.68.796.795c.293.293.293.767 0 1.06-.293.293-.768.293-1.061 0Zm-8.839 5.127 6.983-6.983-1.591-1.59-6.983 6.982c-.44.44-.44 1.151 0 1.59.44.44 1.152.44 1.591 0Z"/></svg>