<svg xmlns="http://www.w3.org/2000/svg" viewBox="0 0 16 16"><path fill-rule="evenodd" d="M11.47 3.03c-.293-.293-.293-.767 0-1.06.293-.293.767-.293 1.06 0l1.267 1.267c.265.264.438.607.494.978l.709 4.73v1.805c0 1.795-1.455 3.25-3.25 3.25s-3.25-1.455-3.25-3.25v-.462c-.332-.042-.668-.042-1 0v.462c0 1.795-1.455 3.25-3.25 3.25s-3.25-1.455-3.25-3.25v-1.806l.712-4.718c.053-.376.227-.726.496-.995l1.262-1.261c.293-.293.767-.293 1.06 0 .293.293.293.767 0 1.06l-1.261 1.262c-.04.039-.064.089-.071.143l-.002.01-.574 3.805h3.128c.52 0 .988.227 1.308.588.623-.109 1.26-.109 1.884 0 .32-.36.788-.588 1.308-.588h3.13l-.573-3.813c-.008-.053-.033-.102-.07-.14l-1.267-1.267Zm-1.22 6.72h3.25v1c0 .967-.784 1.75-1.75 1.75s-1.75-.783-1.75-1.75v-.75c0-.138.112-.25.25-.25Zm-4.5 0h-3.25v1c0 .967.784 1.75 1.75 1.75s1.75-.783 1.75-1.75v-.75c0-.138-.112-.25-.25-.25Z"/></svg>