<svg xmlns="http://www.w3.org/2000/svg" viewBox="0 0 20 20"><path fill-rule="evenodd" d="M14.11 4.28c-.293-.293-.293-.767 0-1.06.293-.293.767-.293 1.06 0l1.507 1.507c.265.264.438.607.494.978l.829 5.53v2.085c0 2.016-1.634 3.65-3.65 3.65-2.102 0-3.4-1.726-3.4-3.65v-.949c-.624-.153-1.276-.153-1.9 0v.95c0 1.923-1.298 3.65-3.4 3.65-2.016 0-3.65-1.635-3.65-3.65v-2.087l.825-5.464c.057-.411.247-.793.541-1.087l1.464-1.463c.293-.293.767-.293 1.06 0 .293.293.293.767 0 1.06l-1.463 1.464c-.064.063-.104.146-.117.235l-.688 4.561h3.678c.444 0 .849.165 1.157.438 1.008-.295 2.078-.295 3.086 0 .308-.273.713-.438 1.157-.438h3.68l-.693-4.613c-.008-.053-.032-.102-.07-.14l-1.507-1.507Zm-1.41 7.76h3.8v1.28c0 1.188-.963 2.15-2.15 2.15-1.1 0-1.9-.87-1.9-2.15v-1.03c0-.138.112-.25.25-.25Zm-5.4 0h-3.8v1.28c0 1.188.963 2.15 2.15 2.15 1.1 0 1.9-.87 1.9-2.15v-1.03c0-.138-.112-.25-.25-.25Z"/></svg>