<svg xmlns="http://www.w3.org/2000/svg" viewBox="0 0 20 20"><path d="M6.5 8.5c0-.414-.336-.75-.75-.75s-.75.336-.75.75v3c0 .414.336.75.75.75s.75-.336.75-.75v-3Z"/><path d="M9.5 9.25c-.414 0-.75.336-.75.75s.336.75.75.75.75.336.75.75-.336.75-.75.75c-1.243 0-2.25-1.007-2.25-2.25s1.007-2.25 2.25-2.25c.414 0 .75.336.75.75s-.336.75-.75.75Z"/><path fill-rule="evenodd" d="M13 7.75c-1.243 0-2.25 1.007-2.25 2.25s1.007 2.25 2.25 2.25 2.25-1.007 2.25-2.25-1.007-2.25-2.25-2.25Zm-.75 2.25c0-.414.336-.75.75-.75s.75.336.75.75-.336.75-.75.75-.75-.336-.75-.75Z"/><path fill-rule="evenodd" d="M14.08 4h-8.16c-.535 0-.98 0-1.345.03-.38.03-.736.098-1.073.27-.518.263-.939.684-1.202 1.202-.172.337-.24.693-.27 1.073-.03.365-.03.81-.03 1.345v4.114c0 .534 0 .98.03 1.344.03.38.098.737.27 1.074.263.518.684.938 1.202 1.202.337.172.693.239 1.073.27.365.03.81.03 1.345.03h8.16c.535 0 .98 0 1.345-.03.38-.031.736-.098 1.073-.27.518-.264.939-.684 1.202-1.202.172-.337.24-.694.27-1.074.03-.364.03-.81.03-1.344v-4.114c0-.535 0-.98-.03-1.345-.03-.38-.098-.736-.27-1.073-.263-.518-.684-.939-1.201-1.202-.338-.172-.694-.24-1.074-.27-.365-.03-.81-.03-1.345-.03Zm-9.897 1.636c.09-.046.227-.088.514-.111.296-.024.68-.025 1.253-.025h8.1c.572 0 .957 0 1.252.025.288.023.425.065.516.111.235.12.426.311.546.547.046.09.088.227.111.514.024.296.025.68.025 1.253v4.054c0 .572 0 .956-.025 1.252-.023.287-.065.425-.111.515-.12.235-.311.427-.546.546-.091.047-.228.088-.515.112-.296.024-.68.025-1.253.025h-8.1c-.572 0-.957 0-1.253-.025-.287-.024-.424-.065-.514-.111-.236-.12-.427-.312-.547-.547-.046-.09-.088-.228-.111-.515-.024-.296-.025-.68-.025-1.252v-4.054c0-.572 0-.957.025-1.253.023-.287.065-.424.111-.514.12-.236.311-.427.547-.547Z"/></svg>