<svg viewBox="0 0 20 20" xmlns="http://www.w3.org/2000/svg"><path d="M17.71.29C17.52.11 17.27 0 17 0H3c-.27 0-.52.11-.71.29C2.11.48 2 .73 2 1v10c0 .27.11.52.29.71.19.18.44.29.71.29h14c.27 0 .52-.11.71-.29.18-.19.29-.44.29-.71V1c0-.27-.11-.52-.29-.71zM16 7l-2.41-1.832a.992.992 0 00-1.15.03L9 8 6.48 6.168c-.3-.2-.68-.22-1-.06L4 7V2h12v5zM9 16c.27 0 .52-.11.71-.29.18-.19.29-.44.29-.71 0-.27-.11-.52-.29-.71-.19-.18-.44-.29-.71-.29-1.65 0-3 1.35-3 3s1.35 3 3 3c.27 0 .52-.11.71-.29.18-.19.29-.44.29-.71 0-.27-.11-.52-.29-.71-.19-.18-.44-.29-.71-.29a.982.982 0 01-.68-.31.976.976 0 01-.28-.69c0-.26.1-.51.28-.69.18-.19.42-.3.68-.31zM15 14c-1.65 0-3 1.35-3 3s1.35 3 3 3 3-1.35 3-3-1.35-3-3-3zm.68 3.69c-.18.19-.42.3-.68.31a.982.982 0 01-.68-.31.976.976 0 01-.28-.69c0-.26.1-.51.28-.69.18-.19.42-.3.68-.31.26.01.5.12.68.31.18.18.28.43.28.69 0 .26-.1.51-.28.69zM3 14c-.27 0-.52.11-.71.29-.18.19-.29.44-.29.71v4c0 .27.11.52.29.71.19.18.44.29.71.29.27 0 .52-.11.71-.29.18-.19.29-.44.29-.71v-4c0-.27-.11-.52-.29-.71-.19-.18-.44-.29-.71-.29z" fill="#5C5F62"/></svg>