<svg viewBox="0 0 20 20" xmlns="http://www.w3.org/2000/svg">
<path d="M8.8193 3.36241C9.20842 2.24296 10.7916 2.24297 11.1807 3.36241L12.5355 7.2601L16.6611 7.34417C17.846 7.36832 18.3353 8.874 17.3908 9.59001L14.1026 12.083L15.2975 16.0326C15.6407 17.167 14.3599 18.0976 13.3871 17.4206L10 15.0637L6.61291 17.4206C5.64011 18.0976 4.35931 17.167 4.7025 16.0326L5.89741 12.083L2.60916 9.59001C1.66474 8.874 2.15397 7.36832 3.33888 7.34417L7.46446 7.2601L8.8193 3.36241ZM10 4.53426L8.82419 7.91692C8.65253 8.41075 8.19167 8.74559 7.66895 8.75624L4.08851 8.82921L6.94226 10.9928C7.35888 11.3086 7.53492 11.8504 7.38352 12.3508L6.3465 15.7786L9.28603 13.7331C9.71517 13.4345 10.2848 13.4345 10.714 13.7331L13.6535 15.7786L12.6165 12.3508C12.4651 11.8504 12.6411 11.3086 13.0577 10.9928L15.9115 8.82921L12.331 8.75624C11.8083 8.74559 11.3475 8.41076 11.1758 7.91692L10 4.53426Z" fill="#5C5F62"/>
</svg>
