<svg width="20" height="20" viewBox="0 0 20 20" fill="none" xmlns="http://www.w3.org/2000/svg">
<path fill-rule="evenodd" clip-rule="evenodd" d="M9.25059 3H6.25C5.2835 3 4.5 3.7835 4.5 4.75V15.25C4.5 16.2165 5.2835 17 6.25 17H13.75C14.7165 17 15.5 16.2165 15.5 15.25V9.20501H10.8792C9.98225 9.20501 9.25492 8.47825 9.25421 7.58129L9.25059 3ZM7.02502 14C7.02502 13.5168 7.41678 13.125 7.90002 13.125H12.1C12.5832 13.125 12.975 13.5168 12.975 14C12.975 14.4832 12.5832 14.875 12.1 14.875H7.90002C7.41678 14.875 7.02502 14.4832 7.02502 14Z" fill="#4A4A4A"/>
<path d="M15.2137 7.95501H10.8792C10.6722 7.95501 10.5044 7.78729 10.5042 7.5803L10.5008 3.25826C10.6169 3.32951 10.7253 3.41463 10.8232 3.51256L14.9874 7.67678C15.0728 7.76218 15.1485 7.85549 15.2137 7.95501Z" fill="#4A4A4A"/>
</svg>
