<svg xmlns="http://www.w3.org/2000/svg" viewBox="0 0 16 16"><path d="M6 10.5c-.552 0-1 .448-1 1s.448 1 1 1h4c.552 0 1-.448 1-1s-.448-1-1-1h-4Z"/><path fill-rule="evenodd" d="M4.75.5c-1.519 0-2.75 1.231-2.75 2.75v9.5c0 1.519 1.231 2.75 2.75 2.75h6.5c1.519 0 2.75-1.231 2.75-2.75v-6c0-.199-.079-.39-.22-.53l-5.5-5.5c-.14-.141-.331-.22-.53-.22h-3Zm-1.25 2.75c0-.69.56-1.25 1.25-1.25h2.25v3.75c0 .966.784 1.75 1.75 1.75h3.75v5.25c0 .69-.56 1.25-1.25 1.25h-6.5c-.69 0-1.25-.56-1.25-1.25v-9.5Zm7.94 2.75-2.94-2.94v2.69c0 .138.112.25.25.25h2.69Z"/></svg>