<svg xmlns="http://www.w3.org/2000/svg" viewBox="0 0 20 20"><path d="M7.5 12.5c-.552 0-1 .448-1 1s.448 1 1 1h5c.552 0 1-.448 1-1s-.448-1-1-1h-5Z"/><path fill-rule="evenodd" d="M6.25 2c-1.519 0-2.75 1.231-2.75 2.75v10.5c0 1.519 1.231 2.75 2.75 2.75h7.5c1.519 0 2.75-1.231 2.75-2.75v-7.5c0-.199-.079-.39-.22-.53l-5-5c-.14-.141-.331-.22-.53-.22h-4.5Zm-1.25 2.75c0-.69.56-1.25 1.25-1.25h3.75v3.25c0 .966.784 1.75 1.75 1.75h3.25v6.75c0 .69-.56 1.25-1.25 1.25h-7.5c-.69 0-1.25-.56-1.25-1.25v-10.5Zm8.94 2.25-2.44-2.44v2.19c0 .138.112.25.25.25h2.19Z"/></svg>