<svg viewBox="0 0 20 20" xmlns="http://www.w3.org/2000/svg"><path d="M7 11.25a.75.75 0 0 1 .75-.75h4.5a.75.75 0 0 1 0 1.5h-4.5a.75.75 0 0 1-.75-.75Z" fill="#5C5F62"/><path d="M7.75 13.5a.75.75 0 0 0 0 1.5h2.75a.75.75 0 0 0 0-1.5h-2.75Z" fill="#5C5F62"/><path fill-rule="evenodd" d="M4 4.75a2.75 2.75 0 0 1 2.75-2.75h3.25a.75.75 0 0 1 .53.22l5.25 5.25c.141.14.22.331.22.53v7.25a2.75 2.75 0 0 1-2.75 2.75h-6.5a2.75 2.75 0 0 1-2.75-2.75v-10.5Zm2.75-1.25c-.69 0-1.25.56-1.25 1.25v10.5c0 .69.56 1.25 1.25 1.25h6.5c.69 0 1.25-.56 1.25-1.25v-6.5h-3.5a1.75 1.75 0 0 1-1.75-1.75v-3.5h-2.5Zm4 1.06 2.69 2.69h-2.44a.25.25 0 0 1-.25-.25v-2.44Z" fill="#5C5F62"/></svg>