<svg xmlns="http://www.w3.org/2000/svg" viewBox="0 0 16 16"><path fill-rule="evenodd" d="M7.25 1h-3c-.966 0-1.75.784-1.75 1.75v10.5c0 .966.784 1.75 1.75 1.75h7.5c.966 0 1.75-.784 1.75-1.75v-6.045h-4.62c-.898 0-1.625-.727-1.626-1.624l-.003-4.581Zm-2.225 11c0-.483.392-.875.875-.875h4.2c.483 0 .875.392.875.875s-.392.875-.875.875h-4.2c-.483 0-.875-.392-.875-.875Z"/><path d="M13.214 5.955h-4.335c-.207 0-.375-.168-.375-.375l-.003-4.322c.116.072.224.157.322.255l4.164 4.164c.086.085.162.178.227.278Z"/></svg>