<svg xmlns="http://www.w3.org/2000/svg" viewBox="0 0 20 20"><path fill-rule="evenodd" d="M6.312 6.754c-.166-.405.048-.866.465-1l4.759-1.526c.37-.12.77.065.92.424l.095.225-6.198 1.976-.04-.099Zm7.134.496-.349-.973-3.052.973h3.401Zm1.62.072-.808-2.25-.417-.999c-.451-1.077-1.651-1.63-2.763-1.274l-4.76 1.527c-1.25.401-1.892 1.784-1.393 2.998-.964.254-1.675 1.132-1.675 2.176v5c0 1.243 1.007 2.25 2.25 2.25h9c1.243 0 2.25-1.007 2.25-2.25v-5c0-1.047-.715-1.927-1.684-2.178Zm-10.316 2.178c0-.414.336-.75.75-.75h9c.414 0 .75.336.75.75v5c0 .414-.336.75-.75.75h-9c-.414 0-.75-.336-.75-.75v-5Z" clip-rule="evenodd"/></svg>