<svg xmlns="http://www.w3.org/2000/svg" viewBox="0 0 20 20"><path fill-rule="evenodd" d="M13.08 4h-3.66c-.535 0-.98 0-1.345.03-.38.03-.736.098-1.073.27a2.75 2.75 0 0 0-1.202 1.202c-.172.337-.24.693-.27 1.073-.017.21-.025.446-.028.711-.352.034-.685.103-1 .264a2.75 2.75 0 0 0-1.202 1.202c-.172.337-.24.693-.27 1.073-.03.365-.03.81-.03 1.345v.91c0 .535 0 .98.03 1.345.03.38.098.736.27 1.073a2.75 2.75 0 0 0 1.202 1.202c.337.172.693.24 1.073.27.365.03.81.03 1.344.03h3.662c.534 0 .98 0 1.344-.03.38-.03.736-.098 1.073-.27a2.751 2.751 0 0 0 1.202-1.201c.172-.338.24-.694.27-1.074.017-.21.025-.446.028-.711.352-.034.685-.103 1-.264a2.751 2.751 0 0 0 1.202-1.201c.172-.338.24-.694.27-1.074.03-.365.03-.81.03-1.345v-.91c0-.535 0-.98-.03-1.345-.03-.38-.098-.736-.27-1.073a2.75 2.75 0 0 0-1.201-1.202c-.338-.172-.694-.24-1.074-.27-.365-.03-.81-.03-1.345-.03Zm-4.331 3.25h-1.746c.003-.218.01-.397.022-.553.023-.287.065-.424.111-.514a1.25 1.25 0 0 1 .547-.547c.09-.046.227-.088.514-.111.296-.024.68-.025 1.253-.025h3.6c.572 0 .957 0 1.252.025.288.023.425.065.516.111.235.12.426.311.546.547.046.09.088.227.111.514.024.296.025.68.025 1.253v.85c0 .572 0 .957-.025 1.252-.023.288-.065.425-.111.516a1.25 1.25 0 0 1-.546.546 1.009 1.009 0 0 1-.318.09v-.035c0-.534 0-.98-.03-1.344-.03-.38-.098-.736-.27-1.073a2.75 2.75 0 0 0-1.201-1.202c-.338-.172-.694-.24-1.074-.27-.365-.03-.81-.03-1.345-.03h-1.831Zm-2.072 1.5c-.426 0-.733.005-.98.025-.287.023-.424.065-.514.111a1.25 1.25 0 0 0-.547.547c-.046.09-.088.227-.111.514-.024.296-.025.68-.025 1.253v.85c0 .572 0 .957.025 1.252.023.288.065.425.111.516.12.235.311.426.547.546.09.046.227.088.514.111.247.02.554.024.98.025-.422-.769-.677-1.774-.677-2.875 0-1.1.255-2.106.677-2.875Zm4.146 5.75c.426 0 .733-.005.98-.025.287-.023.424-.065.514-.111a1.25 1.25 0 0 0 .547-.546c.046-.091.088-.228.111-.515.024-.296.025-.68.025-1.253v-.85c0-.572 0-.957-.025-1.253-.023-.287-.065-.424-.111-.514a1.25 1.25 0 0 0-.546-.547c-.091-.046-.228-.088-.515-.111-.247-.02-.554-.024-.98-.025.422.769.677 1.775.677 2.875s-.255 2.106-.677 2.875Zm-2.073-5.75c-.06 0-.337.043-.675.58-.325.517-.575 1.325-.575 2.295s.25 1.778.575 2.295c.338.538.615.58.675.58.06 0 .337-.042.675-.58.325-.517.575-1.325.575-2.295s-.25-1.778-.575-2.295c-.338-.537-.614-.58-.675-.58Z"/></svg>