<svg viewBox="0 0 20 20" xmlns="http://www.w3.org/2000/svg"><path d="M9.69 5.772l-.243.123a1 1 0 11-.895-1.79l2-1a.998.998 0 011.434 1.06l-1 6a1 1 0 11-1.973-.33l.677-4.063zm-5.073-.848a.997.997 0 01-.324-.217l-1-1a1 1 0 011.414-1.414l1 1a.999.999 0 01-1.09 1.631zm10.766 0a.997.997 0 01-.94-.092 1 1 0 01-.15-1.54l1-1a1 1 0 111.414 1.415l-1 1a.996.996 0 01-.324.217zm-.09 3.783A1 1 0 0116 7h2a1 1 0 110 2h-2a1 1 0 01-.707-.293zM4 9H2a1 1 0 010-2h2a1 1 0 010 2zm-3 8.5V12h2v2h3.5c.775 0 1.388.662 1.926 1.244l.11.12c.366.391.886.636 1.464.636s1.098-.245 1.463-.637l.11-.119h.001C12.112 14.662 12.725 14 13.5 14H17v-2h2v5.5a1.5 1.5 0 01-1.5 1.5h-15A1.5 1.5 0 011 17.5z" fill="currentColor"/></svg>