<svg xmlns="http://www.w3.org/2000/svg" viewBox="0 0 20 20"><path fill-rule="evenodd" d="m3.595 3.584.972-.511c1.974-1.04 4.387-.742 6.049.747.734.659 1.791.815 2.685.397l1.087-.508c1.45-.678 3.112.38 3.112 1.98v5.994c0 1.025-.594 1.958-1.523 2.393l-1.701.795c-1.645.77-3.589.482-4.94-.73-1.028-.92-2.518-1.104-3.739-.461l-1.597.84v2.23c0 .414-.336.75-.75.75s-.75-.336-.75-.75v-12.5c0-.414.336-.75.75-.75.125 0 .242.03.345.084Zm1.67.816c1.42-.748 3.155-.533 4.35.538 1.182 1.06 2.883 1.31 4.321.638l1.087-.509c.455-.212.977.12.977.622v5.994c0 .443-.257.846-.658 1.034l-1.702.796c-1.1.514-2.4.322-3.304-.488-1.494-1.339-3.662-1.607-5.437-.673l-.899.474v-7.462c0-.183.101-.351.263-.436l1.003-.528Z"/></svg>