<svg xmlns="http://www.w3.org/2000/svg" viewBox="0 0 16 16"><path fill-rule="evenodd" d="m2.964 2.02.237-.127c1.748-.932 3.888-.697 5.392.592.625.535 1.506.654 2.25.304l.844-.397c1.308-.616 2.813.34 2.813 1.786v5.044c0 .918-.53 1.754-1.361 2.145l-1.363.64c-1.458.687-3.183.454-4.406-.595-.886-.76-2.147-.898-3.176-.349l-1.194.637v2.05c0 .414-.336.75-.75.75s-.75-.336-.75-.75v-11.5c0-.414.336-.75.75-.75.334 0 .617.218.714.52Zm.943 1.196c1.202-.64 2.675-.48 3.71.408 1.073.92 2.586 1.124 3.865.522l.843-.397c.314-.147.675.082.675.429v5.044c0 .337-.195.644-.5.787l-1.362.642c-.924.434-2.017.287-2.792-.378-1.355-1.161-3.283-1.373-4.858-.533l-.488.26v-6.115c0-.114.063-.218.163-.272l.744-.397Z"/></svg>