<svg xmlns="http://www.w3.org/2000/svg" viewBox="0 0 20 20"><path fill-rule="evenodd" d="M2.75 10c0-.414.336-.75.75-.75h13c.414 0 .75.336.75.75s-.336.75-.75.75h-13c-.414 0-.75-.336-.75-.75Z" clip-rule="evenodd" style="fill:color(display-p3 .2902 .2902 .2902);fill-opacity:1"/><path fill-rule="evenodd" d="M4.25 12.75c0-.414.336-.75.75-.75h10.333c.358 0 .667.253.736.605.07.351-.12.702-.45.839l-10.334 4.25c-.231.095-.495.068-.702-.07-.208-.14-.333-.374-.333-.624v-4.25Zm1.5.75v2.38l5.788-2.38h-5.788Z" clip-rule="evenodd" style="fill:color(display-p3 .2902 .2902 .2902);fill-opacity:1"/><path fill-rule="evenodd" d="M4.582 2.377c.208-.14.472-.166.703-.07l10.333 4.246c.332.136.52.488.451.839-.07.351-.377.605-.736.605h-10.333c-.414 0-.75-.336-.75-.75v-4.247c0-.25.125-.484.332-.623Zm1.168 1.742v2.378h5.785l-5.785-2.378Z" clip-rule="evenodd" style="fill:color(display-p3 .2902 .2902 .2902);fill-opacity:1"/></svg>