<svg xmlns="http://www.w3.org/2000/svg" viewBox="0 0 20 20"><path fill-rule="evenodd" d="M10 17.25c-.414 0-.75-.336-.75-.75v-13c0-.414.336-.75.75-.75s.75.336.75.75v13c0 .414-.336.75-.75.75Z" clip-rule="evenodd" style="fill:color(display-p3 .2902 .2902 .2902);fill-opacity:1"/><path fill-rule="evenodd" d="M12.75 15.75c-.414 0-.75-.336-.75-.75v-10.333c0-.358.253-.667.605-.736.351-.07.702.12.839.45l4.25 10.334c.095.231.068.495-.07.703-.14.207-.374.332-.624.332h-4.25Zm.75-1.5h2.38l-2.38-5.788v5.788Z" clip-rule="evenodd" style="fill:color(display-p3 .2902 .2902 .2902);fill-opacity:1"/><path fill-rule="evenodd" d="M2.377 15.418c-.14-.208-.166-.472-.07-.703l4.246-10.333c.136-.332.488-.52.839-.451.351.07.605.377.605.736v10.333c0 .414-.336.75-.75.75h-4.247c-.25 0-.484-.125-.623-.332Zm1.742-1.168h2.378v-5.785l-2.378 5.785Z" clip-rule="evenodd" style="fill:color(display-p3 .2902 .2902 .2902);fill-opacity:1"/></svg>