<svg viewBox="0 0 20 20" xmlns="http://www.w3.org/2000/svg"><path fill-rule="evenodd" d="M7.059 1a1.5 1.5 0 00-1.32.786l-.54 1c-.039.07-.07.142-.096.214H1.5A1.5 1.5 0 000 4.5v11A1.5 1.5 0 001.5 17h17a1.5 1.5 0 001.5-1.5v-11A1.5 1.5 0 0018.5 3h-3.621a1.546 1.546 0 00-.1-.223l-.55-1A1.5 1.5 0 0012.914 1H7.06zm4.692 14.08c-.63.278-1.311.42-2 .42A5.016 5.016 0 014.776 11H3.501a.5.5 0 01-.405-.795l2.27-3.145a.5.5 0 01.81 0l2.275 3.145a.5.5 0 01-.4.8h-1.25a3.014 3.014 0 002.95 2.495c.32 0 .637-.05.94-.15l1.33 1.6c-.09.05-.18.09-.27.13zm2.884-2.14L16.9 9.8a.5.5 0 00-.405-.8H15.22a5.016 5.016 0 00-4.975-4.5 4.941 4.941 0 00-2.27.55l1.33 1.6c.303-.1.62-.15.94-.15a3.014 3.014 0 012.95 2.505h-1.25a.5.5 0 00-.4.795l2.28 3.14a.5.5 0 00.81 0z" fill="#5C5F62"/></svg>
