<svg xmlns="http://www.w3.org/2000/svg" viewBox="0 0 20 20"><path d="M10.75 11.465c2.96-.276 5.25-2.17 5.25-4.465 0-2.485-2.686-4.5-6-4.5s-6 2.015-6 4.5c0 2.295 2.29 4.189 5.25 4.465v5.785c0 .414.336.75.75.75s.75-.336.75-.75v-5.785Z"/><path d="M2.53 11.82c.468-.182.977-.281 1.509-.281 2.304 0 4.173 1.868 4.173 4.172 0 .532-.1 1.04-.281 1.508-.468.182-.976.281-1.508.281-2.305 0-4.173-1.868-4.173-4.173 0-.532.1-1.04.28-1.508Z"/><path d="M15.961 11.539c.532 0 1.04.099 1.508.28.182.468.281.976.281 1.508 0 2.305-1.868 4.173-4.173 4.173-.532 0-1.04-.1-1.508-.28-.181-.468-.28-.977-.28-1.508 0-2.305 1.868-4.173 4.172-4.173Z"/></svg>