<svg xmlns="http://www.w3.org/2000/svg" viewBox="0 0 20 20"><path fill-rule="evenodd" d="M10.75 11.465c2.96-.276 5.25-2.17 5.25-4.465 0-2.485-2.686-4.5-6-4.5s-6 2.015-6 4.5c0 2.295 2.29 4.189 5.25 4.465v5.785c0 .414.336.75.75.75s.75-.336.75-.75v-5.785Zm2.593-2.483c.801-.601 1.157-1.317 1.157-1.982s-.356-1.38-1.157-1.982c-.803-.602-1.98-1.018-3.343-1.018-1.364 0-2.54.416-3.343 1.018-.801.601-1.157 1.317-1.157 1.982s.356 1.38 1.157 1.982c.802.602 1.98 1.018 3.343 1.018 1.364 0 2.54-.416 3.343-1.018Z"/><path fill-rule="evenodd" d="M8.212 15.711c0 .532-.1 1.04-.281 1.508-.468.182-.976.281-1.508.281-2.305 0-4.173-1.868-4.173-4.173 0-.532.1-1.04.28-1.508.468-.181.977-.28 1.509-.28 2.304 0 4.173 1.868 4.173 4.172Zm-4.462-2.384c0-.093.005-.185.014-.275.09-.009.182-.013.275-.013 1.476 0 2.673 1.196 2.673 2.672 0 .094-.005.185-.014.275-.09.01-.182.014-.275.014-1.476 0-2.673-1.197-2.673-2.673Z"/><path fill-rule="evenodd" d="M11.788 15.711c0 .532.1 1.04.281 1.508.468.182.976.281 1.508.281 2.305 0 4.173-1.868 4.173-4.173 0-.532-.1-1.04-.28-1.508-.468-.181-.977-.28-1.508-.28-2.305 0-4.174 1.868-4.174 4.172Zm4.462-2.384c0-.093-.005-.185-.014-.275-.09-.009-.181-.013-.275-.013-1.476 0-2.673 1.196-2.673 2.672 0 .094.005.185.014.275.09.01.182.014.275.014 1.476 0 2.673-1.197 2.673-2.673Z"/></svg>