<svg xmlns="http://www.w3.org/2000/svg" viewBox="0 0 16 16"><path d="M8.749 9.957c2.545-.294 4.501-2.066 4.501-4.207 0-2.347-2.35-4.25-5.25-4.25s-5.25 1.903-5.25 4.25c0 2.141 1.956 3.913 4.501 4.207l-.001.043v4.25c0 .414.336.75.75.75s.75-.336.75-.75v-4.25l-.001-.043Z"/><path d="M3 9.5c-.446 0-.872.083-1.265.235-.152.393-.235.82-.235 1.265 0 1.933 1.567 3.5 3.5 3.5.446 0 .872-.083 1.265-.235.152-.393.235-.82.235-1.265 0-1.933-1.567-3.5-3.5-3.5Z"/><path d="M13 9.5c.446 0 .872.083 1.265.235.152.393.235.82.235 1.265 0 1.933-1.567 3.5-3.5 3.5-.446 0-.872-.083-1.265-.235-.152-.393-.235-.82-.235-1.265 0-1.933 1.567-3.5 3.5-3.5Z"/></svg>