<svg xmlns="http://www.w3.org/2000/svg" viewBox="0 0 20 20"><path d="M4.5 6.75c0-.69.56-1.25 1.25-1.25h1.514c.473 0 .906.268 1.118.691l.17.342c.297.592.903.967 1.566.967h4.132c.69 0 1.25.56 1.25 1.25 0 .414.336.75.75.75s.75-.336.75-.75c0-1.519-1.231-2.75-2.75-2.75h-4.132c-.095 0-.181-.053-.224-.138l-.17-.342c-.466-.931-1.418-1.52-2.46-1.52h-1.514c-1.519 0-2.75 1.231-2.75 2.75v6.5c0 1.519 1.231 2.75 2.75 2.75h5c.414 0 .75-.336.75-.75s-.336-.75-.75-.75h-5c-.69 0-1.25-.56-1.25-1.25v-6.5Z"/><path d="M15.75 13.31v2.94c0 .414-.336.75-.75.75s-.75-.336-.75-.75v-2.94l-.72.72c-.293.293-.767.293-1.06 0-.293-.293-.293-.767 0-1.06l2-2c.293-.293.767-.293 1.06 0l2 2c.293.293.293.767 0 1.06-.293.293-.767.293-1.06 0l-.72-.72Z"/></svg>