<svg xmlns="http://www.w3.org/2000/svg" viewBox="0 0 16 16"><path fill-rule="evenodd" d="M3.75 3.5c-.69 0-1.25.56-1.25 1.25v6.5c0 .69.56 1.25 1.25 1.25h8.5c.69 0 1.25-.56 1.25-1.25v-4.5c0-.69-.56-1.25-1.25-1.25h-3.382c-.663 0-1.269-.375-1.565-.967l-.171-.342c-.212-.423-.645-.691-1.118-.691h-2.264Zm-2.75 1.25c0-1.519 1.231-2.75 2.75-2.75h2.264c1.042 0 1.994.589 2.46 1.52l.17.342c.043.084.13.138.224.138h3.382c1.519 0 2.75 1.231 2.75 2.75v4.5c0 1.519-1.231 2.75-2.75 2.75h-8.5c-1.519 0-2.75-1.231-2.75-2.75v-6.5Z"/></svg>