<svg viewBox="0 0 20 20" xmlns="http://www.w3.org/2000/svg"><path fill-rule="evenodd" d="M4.75 5.5c-.69 0-1.25.56-1.25 1.25v6.5c0 .69.56 1.25 1.25 1.25h10.5c.69 0 1.25-.56 1.25-1.25v-4.5c0-.69-.56-1.25-1.25-1.25h-4.882a1.75 1.75 0 0 1-1.565-.967l-.171-.342a1.25 1.25 0 0 0-1.118-.691h-2.764Zm-2.75 1.25a2.75 2.75 0 0 1 2.75-2.75h2.764a2.75 2.75 0 0 1 2.46 1.52l.17.342a.25.25 0 0 0 .224.138h4.882a2.75 2.75 0 0 1 2.75 2.75v4.5a2.75 2.75 0 0 1-2.75 2.75h-10.5a2.75 2.75 0 0 1-2.75-2.75v-6.5Z" fill="#5C5F62"/></svg>