<svg xmlns="http://www.w3.org/2000/svg" viewBox="0 0 20 20"><path d="M3.5 5.75c0-.69.56-1.25 1.25-1.25h3.146c.511 0 .97.311 1.16.786l.246.614c.266.664.91 1.1 1.625 1.1h4.323c.69 0 1.25.56 1.25 1.25v2c0 .414.336.75.75.75s.75-.336.75-.75v-2c0-1.519-1.231-2.75-2.75-2.75h-4.323c-.102 0-.194-.062-.232-.157l-.246-.614c-.417-1.044-1.429-1.729-2.553-1.729h-3.146c-1.519 0-2.75 1.231-2.75 2.75v8.5c0 1.519 1.231 2.75 2.75 2.75h8c.414 0 .75-.336.75-.75s-.336-.75-.75-.75h-8c-.69 0-1.25-.56-1.25-1.25v-8.5Z"/><path d="M12.75 12.5c-.414 0-.75.336-.75.75s.336.75.75.75h5.5c.414 0 .75-.336.75-.75s-.336-.75-.75-.75h-5.5Z"/></svg>