<svg xmlns="http://www.w3.org/2000/svg" viewBox="0 0 20 20"><path fill-rule="evenodd" d="M4.75 4.5c-.69 0-1.25.56-1.25 1.25v8.5c0 .69.56 1.25 1.25 1.25h10.5c.69 0 1.25-.56 1.25-1.25v-6c0-.69-.56-1.25-1.25-1.25h-4.323c-.716 0-1.359-.436-1.625-1.1l-.245-.614c-.19-.475-.65-.786-1.161-.786h-3.146Zm-2.75 1.25c0-1.519 1.231-2.75 2.75-2.75h3.146c1.124 0 2.136.685 2.553 1.729l.246.614c.038.095.13.157.232.157h4.323c1.519 0 2.75 1.231 2.75 2.75v6c0 1.519-1.231 2.75-2.75 2.75h-10.5c-1.519 0-2.75-1.231-2.75-2.75v-8.5Z"/></svg>