<svg viewBox="0 0 20 20" xmlns="http://www.w3.org/2000/svg"><path d="M3.5 6.75c0-.69.56-1.25 1.25-1.25h2.014c.473 0 .906.268 1.118.691l.17.342a1.75 1.75 0 0 0 1.566.967h5.632c.69 0 1.25.56 1.25 1.25a.75.75 0 0 0 1.5 0 2.75 2.75 0 0 0-2.75-2.75h-5.632a.25.25 0 0 1-.224-.138l-.17-.342a2.75 2.75 0 0 0-2.46-1.52h-2.014a2.75 2.75 0 0 0-2.75 2.75v6.5a2.75 2.75 0 0 0 2.75 2.75h6a.75.75 0 0 0 0-1.5h-6c-.69 0-1.25-.56-1.25-1.25v-6.5Z" fill="#5C5F62"/><path d="M16.75 16.25a.75.75 0 0 1-1.5 0v-2.83l-1.002.89a.75.75 0 0 1-.996-1.12l2.25-2a.75.75 0 0 1 .996 0l2.25 2a.75.75 0 0 1-.996 1.12l-1.002-.89v2.83Z" fill="#5C5F62"/></svg>