<svg xmlns="http://www.w3.org/2000/svg" viewBox="0 0 16 16"><path d="M3.75 3.5c-.69 0-1.25.56-1.25 1.25v6.5c0 .69.56 1.25 1.25 1.25h5.5c.414 0 .75.336.75.75s-.336.75-.75.75h-5.5c-1.519 0-2.75-1.231-2.75-2.75v-6.5c0-1.519 1.231-2.75 2.75-2.75h1.514c1.042 0 1.994.589 2.46 1.52l.17.342c.043.084.13.138.224.138h4.132c1.519 0 2.75 1.231 2.75 2.75v1.5c0 .414-.336.75-.75.75s-.75-.336-.75-.75v-1.5c0-.69-.56-1.25-1.25-1.25h-4.132c-.663 0-1.269-.375-1.565-.967l-.171-.342c-.212-.423-.645-.691-1.118-.691h-1.514Z"/><path d="M11 12.5c0-.414.336-.75.75-.75h1v-1c0-.414.336-.75.75-.75s.75.336.75.75v1h1c.414 0 .75.336.75.75s-.336.75-.75.75h-1v1c0 .414-.336.75-.75.75s-.75-.336-.75-.75v-1h-1c-.414 0-.75-.336-.75-.75Z"/></svg>