<svg xmlns="http://www.w3.org/2000/svg" viewBox="0 0 20 20"><path d="M3 7.25a2.75 2.75 0 0 1 2.75-2.75h8.5a2.75 2.75 0 0 1 2.75 2.75v2.5a.75.75 0 0 1-1.5 0v-2.5c0-.69-.56-1.25-1.25-1.25h-8.5c-.69 0-1.25.56-1.25 1.25v5.5c0 .69.56 1.25 1.25 1.25h4.25a.75.75 0 0 1 0 1.5h-4.25a2.75 2.75 0 0 1-2.75-2.75v-5.5Z"/><path d="M11.75 14.25a.75.75 0 0 1 .75-.75h2.94l-.72-.72a.75.75 0 1 1 1.06-1.06l2 2a.75.75 0 0 1 0 1.06l-2 2a.75.75 0 1 1-1.06-1.06l.72-.72h-2.94a.75.75 0 0 1-.75-.75Z"/><path d="M6.567 7.57a.75.75 0 0 0-.634 1.36l3.538 1.651a1.25 1.25 0 0 0 1.058 0l3.538-1.651a.75.75 0 0 0-.634-1.36l-3.433 1.603-3.433-1.602Z"/></svg>