<svg width="20" height="20" viewBox="0 0 20 20" fill="none" xmlns="http://www.w3.org/2000/svg">
<path fill-rule="evenodd" clip-rule="evenodd" d="M8.72853 2.12596C7.61054 1.38064 6.30965 1.25 5.5 1.25C5.08579 1.25 4.75 1.58579 4.75 2C4.75 3.71323 5.25681 4.92311 6.02728 5.74507C5.46572 5.86544 4.98099 6.07125 4.56909 6.36039C3.33436 7.22713 3 8.66257 3 9.99999C3 11.3856 3.47808 13.1402 4.29 14.5292C5.07156 15.8663 6.34474 17.1477 8.0357 16.9999C8.734 16.997 9.49293 16.9092 10 16.8378C10.5071 16.9092 11.266 16.997 11.9643 16.9999C13.6553 17.1477 14.9284 15.8663 15.71 14.5292C16.5219 13.1402 17 11.3856 17 9.99999C17 8.66257 16.6656 7.22713 15.4309 6.36039C14.5564 5.74649 13.3535 5.5082 11.784 5.66593L12.8566 4.19118C13.1002 3.85619 13.0261 3.38713 12.6911 3.1435C12.3561 2.89987 11.8871 2.97393 11.6434 3.30892L10.5556 4.80476C10.2401 3.54705 9.56663 2.6847 8.72853 2.12596ZM9.20023 5.69485C8.66943 5.61943 8.09585 5.45418 7.60353 5.12596C7.01546 4.73392 6.46455 4.05759 6.29977 2.80515C6.83057 2.88057 7.40415 3.04582 7.89647 3.37404C8.48454 3.76608 9.03545 4.4424 9.20023 5.69485ZM5.43091 7.5881C4.79064 8.03755 4.5 8.85212 4.5 9.99999C4.5 11.0997 4.89692 12.5951 5.585 13.7722C6.29746 14.9911 7.13573 15.5827 7.92537 15.5037C7.95017 15.5012 7.97508 15.5 8 15.5C8.64885 15.5 9.40103 15.4097 9.89162 15.338C9.96349 15.3276 10.0365 15.3276 10.1084 15.338C10.599 15.4097 11.3512 15.5 12 15.5C12.0249 15.5 12.0498 15.5012 12.0746 15.5037C12.8643 15.5827 13.7025 14.9911 14.415 13.7722C15.1031 12.5951 15.5 11.0997 15.5 9.99999C15.5 8.85212 15.2094 8.03755 14.5691 7.5881C13.9034 7.12084 12.6157 6.86912 10.1819 7.47758C10.0625 7.50743 9.93753 7.50743 9.8181 7.47758C7.38431 6.86912 6.09655 7.12084 5.43091 7.5881Z" fill="#4A4A4A"/>
</svg>
