<svg xmlns="http://www.w3.org/2000/svg" viewBox="0 0 20 20"><path fill-rule="evenodd" d="M7.034 2.24c-.19.005-.375.01-.534.01-.414 0-.75.336-.75.75 0 1.146.157 2.039.475 2.707-.646.112-1.196.33-1.656.653-1.235.867-1.569 2.303-1.569 3.64 0 1.386.478 3.14 1.29 4.53.782 1.336 2.055 2.618 3.746 2.47.698-.003 1.457-.09 1.964-.162.507.071 1.266.159 1.964.162 1.691.148 2.964-1.134 3.746-2.47.812-1.39 1.29-3.144 1.29-4.53 0-1.337-.334-2.773-1.57-3.64-.874-.613-2.076-.852-3.646-.694l1.073-1.475c.243-.335.17-.804-.166-1.048-.335-.243-.804-.17-1.047.166l-1.026 1.41c-.182-1.01-.563-1.71-1.232-2.112-.475-.285-1.003-.355-1.468-.372-.26-.01-.58-.002-.884.006Zm1.183 3.426c.246.025.5.06.765.104.08 0 .163 0 .248-.002-.084-1.384-.407-1.75-.616-1.875-.15-.09-.372-.145-.751-.16-.2-.007-.384-.003-.586.002.107 1.319.5 1.71.77 1.857.052.028.109.053.17.074Zm-2.786 1.922c.467-.328 1.24-.55 2.499-.443.298.08.593.11.86.12l.049.002c.303.054.63.123.98.21.119.03.243.03.363 0 2.434-.608 3.721-.356 4.387.111.64.45.931 1.264.931 2.412 0 1.1-.397 2.595-1.085 3.772-.712 1.22-1.55 1.81-2.34 1.732-.025-.003-.05-.004-.075-.004-.649 0-1.401-.09-1.892-.162-.072-.01-.145-.01-.216 0-.491.072-1.243.162-1.892.162-.025 0-.05.001-.075.004-.79.079-1.628-.513-2.34-1.732-.688-1.177-1.085-2.672-1.085-3.772 0-1.148.29-1.962.93-2.412Z"/></svg>