<svg viewBox="0 0 20 20" xmlns="http://www.w3.org/2000/svg"><path fill-rule="evenodd" d="M8.729 2.126c-1.118-.745-2.42-.876-3.229-.876a.75.75 0 0 0-.75.75c0 1.713.507 2.923 1.277 3.745a3.943 3.943 0 0 0-1.458.615c-1.235.867-1.569 2.303-1.569 3.64 0 1.386.478 3.14 1.29 4.53.782 1.336 2.055 2.618 3.746 2.47.698-.003 1.457-.09 1.964-.162.507.071 1.266.159 1.964.162 1.691.148 2.964-1.134 3.746-2.47.812-1.39 1.29-3.144 1.29-4.53 0-1.337-.334-2.773-1.57-3.64-.874-.614-2.076-.852-3.646-.694l1.073-1.475a.75.75 0 0 0-1.214-.882l-1.087 1.496c-.316-1.258-.99-2.12-1.827-2.679Zm.471 3.569c-.53-.076-1.104-.24-1.596-.569-.589-.392-1.14-1.068-1.304-2.32.53.075 1.104.24 1.596.568.589.392 1.14 1.068 1.304 2.32Zm-3.77 1.893c-.64.45-.93 1.264-.93 2.412 0 1.1.397 2.595 1.085 3.772.712 1.22 1.55 1.81 2.34 1.732a.744.744 0 0 1 .075-.004c.649 0 1.401-.09 1.892-.162a.757.757 0 0 1 .216 0c.491.072 1.243.162 1.892.162.025 0 .05.001.075.004.79.079 1.628-.513 2.34-1.732.688-1.177 1.085-2.672 1.085-3.772 0-1.148-.29-1.962-.93-2.412-.667-.467-1.954-.719-4.388-.11a.75.75 0 0 1-.364 0c-2.434-.609-3.721-.357-4.387.11Z"/></svg>
