<svg xmlns="http://www.w3.org/2000/svg" viewBox="0 0 20 20"><path fill-rule="evenodd" d="M8.729 1.376c-1.118-.745-2.42-.876-3.229-.876-.414 0-.75.336-.75.75 0 1.67.482 2.863 1.22 3.683-.837.114-1.542.378-2.123.782-1.4.974-1.847 2.595-1.847 4.173 0 1.597.527 3.633 1.425 5.245.861 1.548 2.26 3.026 4.123 2.854.825-.004 1.82-.118 2.452-.204.632.086 1.627.2 2.452.204 1.863.172 3.262-1.306 4.123-2.853.898-1.614 1.425-3.649 1.425-5.246 0-1.578-.446-3.199-1.847-4.173-1.047-.729-2.5-1.002-4.397-.76l1.1-1.514c.244-.335.17-.804-.165-1.048-.335-.243-.804-.17-1.048.166l-1.087 1.496c-.316-1.258-.99-2.12-1.827-2.679Zm.471 3.569c-.53-.076-1.104-.24-1.596-.569-.589-.392-1.14-1.068-1.304-2.32.53.075 1.104.24 1.596.568.589.392 1.14 1.068 1.304 2.32Zm-4.497 2.001c-.824.574-1.203 1.599-1.203 2.942 0 1.326.453 3.112 1.235 4.516.812 1.458 1.78 2.183 2.697 2.087.026-.003.052-.004.078-.004.767 0 1.763-.117 2.387-.204.068-.01.138-.01.206 0 .624.087 1.62.204 2.387.204.026 0 .052.001.078.004.918.096 1.885-.629 2.697-2.087.782-1.404 1.235-3.19 1.235-4.516 0-1.343-.379-2.368-1.203-2.942-.845-.587-2.387-.867-5.107-.153-.124.032-.256.032-.38 0-2.72-.714-4.262-.434-5.107.153Z"/></svg>