<svg xmlns="http://www.w3.org/2000/svg" viewBox="0 0 16 16"><path fill-rule="evenodd" d="M13 2.25c0-.414-.336-.75-.75-.75s-.75.336-.75.75v3.98l-.8-2.001c-.418-1.044-1.43-1.729-2.554-1.729h-3.396c-.414 0-.75.336-.75.75v3.25h-1.75c-.414 0-.75.336-.75.75v3.159c-.16.33-.25.7-.25 1.091 0 1.38 1.12 2.5 2.5 2.5 1.12 0 2.067-.736 2.386-1.75h2.478c.319 1.014 1.267 1.75 2.386 1.75 1.38 0 2.5-1.12 2.5-2.5 0-.171-.017-.338-.05-.5h1.8c.414 0 .75-.336.75-.75s-.336-.75-.75-.75h-2.25v-7.25Zm-8.589 10c.208-.183.339-.451.339-.75s-.13-.567-.339-.75c-.176-.156-.407-.25-.661-.25-.254 0-.485.094-.661.25-.208.183-.339.451-.339.75s.13.567.339.75c.176.156.407.25.661.25.254 0 .485-.094.661-.25Zm-1.411-3.136c.237-.074.489-.114.75-.114 1.12 0 2.067.736 2.386 1.75h2.478c.295-.938 1.127-1.638 2.136-1.738v-.012h-3.25c-.087 0-.174-.015-.256-.045l-2.626-.955h-1.618v1.114Zm7.338 1.636c.117-.103.257-.179.412-.219.08-.02.164-.031.25-.031.552 0 1 .448 1 1 0 .286-.12.544-.313.726-.179.17-.42.274-.687.274-.254 0-.485-.094-.662-.25-.207-.183-.338-.451-.338-.75s.13-.567.338-.75Zm-2.706-3.25h2.76l-1.085-2.714c-.19-.475-.65-.786-1.161-.786h-2.646v2.725l2.132.775Z"/></svg>