<svg xmlns="http://www.w3.org/2000/svg" viewBox="0 0 20 20"><path fill-rule="evenodd" d="M16 2.75c0-.414-.336-.75-.75-.75s-.75.336-.75.75v4.467l-.825-2.37c-.384-1.106-1.426-1.847-2.597-1.847h-3.328c-.414 0-.75.336-.75.75v4h-3.5c-.414 0-.75.336-.75.75v6.25c0 .414.336.75.75.75h11c.414 0 .75-.336.75-.75v-1.75h3.25c.414 0 .75-.336.75-.75s-.336-.75-.75-.75h-2.5v-8.75Zm-11.75 6.5h3.368l2.626.955c.082.03.169.045.256.045h3.25v3.75h-9.5v-4.75Zm6.382-.5h2.813l-1.186-3.41c-.175-.503-.649-.84-1.18-.84h-2.579v3.475l2.132.775Z"/><path d="M15 14.75c0 .69-.56 1.25-1.25 1.25s-1.25-.56-1.25-1.25.56-1.25 1.25-1.25 1.25.56 1.25 1.25Z"/><path fill-rule="evenodd" d="M16.5 14.75c0 1.519-1.231 2.75-2.75 2.75s-2.75-1.231-2.75-2.75 1.231-2.75 2.75-2.75 2.75 1.231 2.75 2.75Zm-2.75 1.25c.69 0 1.25-.56 1.25-1.25s-.56-1.25-1.25-1.25-1.25.56-1.25 1.25.56 1.25 1.25 1.25Z"/><path d="M6.5 14.75c0 .69-.56 1.25-1.25 1.25s-1.25-.56-1.25-1.25.56-1.25 1.25-1.25 1.25.56 1.25 1.25Z"/><path fill-rule="evenodd" d="M8 14.75c0 1.519-1.231 2.75-2.75 2.75s-2.75-1.231-2.75-2.75 1.231-2.75 2.75-2.75 2.75 1.231 2.75 2.75Zm-2.75 1.25c.69 0 1.25-.56 1.25-1.25s-.56-1.25-1.25-1.25-1.25.56-1.25 1.25.56 1.25 1.25 1.25Z"/></svg>