<svg xmlns="http://www.w3.org/2000/svg" viewBox="0 0 16 16"><path d="M12 2.5c.414 0 .75.336.75.75s-.336.75-.75.75c-.906 0-1.412.17-1.665.296-.032.016-.06.031-.085.046v7.343c.02.011.043.023.068.034.257.12.77.281 1.682.281.414 0 .75.336.75.75s-.336.75-.75.75c-1.088 0-1.825-.191-2.318-.422-.065-.03-.126-.062-.182-.093-.056.031-.117.062-.182.093-.493.23-1.23.422-2.318.422-.414 0-.75-.336-.75-.75s.336-.75.75-.75c.912 0 1.425-.16 1.682-.28l.068-.035v-7.343c-.025-.015-.053-.03-.085-.046-.253-.127-.76-.296-1.665-.296-.414 0-.75-.336-.75-.75s.336-.75.75-.75c1.094 0 1.838.205 2.335.454.059.03.114.06.165.089.051-.03.106-.06.165-.089.497-.249 1.24-.454 2.335-.454Z"/><path d="M2.5 7.25c0-.69.56-1.25 1.25-1.25h3.25c.414 0 .75-.336.75-.75s-.336-.75-.75-.75h-3.25c-1.519 0-2.75 1.231-2.75 2.75v1.5c0 1.519 1.231 2.75 2.75 2.75h3.25c.414 0 .75-.336.75-.75s-.336-.75-.75-.75h-3.25c-.69 0-1.25-.56-1.25-1.25v-1.5Z"/><path d="M12.125 4.5c-.414 0-.75.336-.75.75s.336.75.75.75h.125c.69 0 1.25.56 1.25 1.25v1.5c0 .69-.56 1.25-1.25 1.25h-.125c-.414 0-.75.336-.75.75s.336.75.75.75h.125c1.519 0 2.75-1.231 2.75-2.75v-1.5c0-1.519-1.231-2.75-2.75-2.75h-.125Z"/></svg>