<svg viewBox="0 0 20 20" xmlns="http://www.w3.org/2000/svg"><path d="M11.133 2.993a1.725 1.725 0 0 0-2.266 0 14.854 14.854 0 0 1-4.336 2.629l-.42.164a1.704 1.704 0 0 0-1.092 1.669c.194 3.702 1.858 6.264 3.469 7.89.803.81 1.593 1.39 2.186 1.768a10.448 10.448 0 0 0 .932.53l.06.03.018.007.006.003.002.001h.001a.75.75 0 0 0 .614-1.368l-.007-.003-.038-.018a8.942 8.942 0 0 1-.78-.446 11.328 11.328 0 0 1-1.929-1.56c-1.414-1.428-2.866-3.66-3.036-6.913-.004-.065.038-.152.142-.193l.42-.165a16.354 16.354 0 0 0 4.773-2.894.225.225 0 0 1 .296 0 16.355 16.355 0 0 0 4.773 2.894l.42.165c.104.04.146.128.142.193-.036.7-.132 1.35-.273 1.954a.75.75 0 0 0 1.461.34c.16-.69.269-1.428.31-2.215a1.704 1.704 0 0 0-1.092-1.669l-.42-.164a14.853 14.853 0 0 1-4.336-2.63Z" fill="#5C5F62"/><path fill-rule="evenodd" d="M18 14.5a3.5 3.5 0 1 1-7 0 3.5 3.5 0 0 1 7 0Zm-3.5-2a.75.75 0 0 1 .75.75v1.19l.78.78a.75.75 0 1 1-1.06 1.06l-.854-.853a1.25 1.25 0 0 1-.366-.884v-1.293a.75.75 0 0 1 .75-.75Z" fill="#5C5F62"/></svg>