<svg xmlns="http://www.w3.org/2000/svg" viewBox="0 0 16 16"><path d="M11 6.25c0 .552-.448 1-1 1s-1-.448-1-1 .448-1 1-1 1 .448 1 1Z"/><path d="M11.75 9.5c.552 0 1-.448 1-1s-.448-1-1-1-1 .448-1 1 .448 1 1 1Z"/><path d="M5.25 5.25c.414 0 .75.336.75.75v.5h.5c.414 0 .75.336.75.75s-.336.75-.75.75h-.5v.5c0 .414-.336.75-.75.75s-.75-.336-.75-.75v-.5h-.5c-.414 0-.75-.336-.75-.75s.336-.75.75-.75h.5v-.5c0-.414.336-.75.75-.75Z"/><path fill-rule="evenodd" d="M10 1.75c-.69 0-1.25.56-1.25 1.25h1.5c2.623 0 4.75 2.127 4.75 4.75v3.343c0 1.605-1.302 2.907-2.907 2.907-1.276 0-2.403-.832-2.778-2.052l-.332-1.077c-.022-.072-.088-.121-.163-.121h-1.64c-.075 0-.141.049-.163.12l-.332 1.078c-.375 1.22-1.502 2.052-2.778 2.052-1.606 0-2.907-1.302-2.907-2.907v-3.343c0-2.623 2.127-4.75 4.75-4.75h1.5c0-1.519 1.231-2.75 2.75-2.75v1.5Zm-4.25 2.75c-1.795 0-3.25 1.455-3.25 3.25v3.343c0 .777.63 1.407 1.407 1.407.618 0 1.163-.403 1.345-.993l.331-1.078c.216-.7.864-1.179 1.597-1.179h1.64c.733 0 1.381.478 1.597 1.18l.331 1.077c.182.59.727.993 1.345.993.777 0 1.407-.63 1.407-1.407v-3.343c0-1.795-1.455-3.25-3.25-3.25h-4.5Z"/></svg>