<svg xmlns="http://www.w3.org/2000/svg" viewBox="0 0 20 20"><path d="M13.5 8.5c0 .552-.448 1-1 1s-1-.448-1-1 .448-1 1-1 1 .448 1 1Z"/><path d="M14.5 11.5c.552 0 1-.448 1-1s-.448-1-1-1-1 .448-1 1 .448 1 1 1Z"/><path d="M6.5 7.5c.414 0 .75.336.75.75v.5h.5c.414 0 .75.336.75.75s-.336.75-.75.75h-.5v.5c0 .414-.336.75-.75.75s-.75-.336-.75-.75v-.5h-.5c-.414 0-.75-.336-.75-.75s.336-.75.75-.75h.5v-.5c0-.414.336-.75.75-.75Z"/><path fill-rule="evenodd" d="M12.515 2.5c-.893 0-1.617.724-1.617 1.617v.138h2.648c2.623 0 4.75 2.127 4.75 4.75v4.692c0 1.824-1.479 3.303-3.303 3.303-1.45 0-2.73-.946-3.157-2.332l-.412-1.338c-.032-.105-.13-.177-.24-.177h-2.073c-.11 0-.207.072-.239.176l-.412 1.34c-.426 1.385-1.707 2.331-3.157 2.331-1.824 0-3.303-1.479-3.303-3.303v-4.692c0-2.623 2.127-4.75 4.75-4.75h2.648v-.138c0-1.721 1.396-3.117 3.117-3.117v1.5Zm-5.765 3.255c-1.795 0-3.25 1.455-3.25 3.25v4.692c0 .996.807 1.803 1.803 1.803.792 0 1.49-.516 1.723-1.273l.412-1.339c.226-.734.905-1.235 1.673-1.235h2.074c.768 0 1.447.501 1.672 1.235l.412 1.34c.233.756.932 1.272 1.724 1.272.996 0 1.803-.807 1.803-1.803v-4.692c0-1.795-1.455-3.25-3.25-3.25h-6.796Z"/></svg>