<svg width="20" height="16" viewBox="0 0 20 16" fill="none" xmlns="http://www.w3.org/2000/svg">
<path d="M16.0088 2.6439L15.2686 4.61775C16.7072 5.87772 17.6902 7.64501 17.9384 9.64037C18.0066 10.1884 18.4477 10.638 19 10.638C19.5523 10.638 20.0053 10.189 19.9508 9.6394C19.6676 6.78325 18.1827 4.28051 16.0088 2.6439Z" fill="black"/>
<path d="M11.6733 2.81326C11.1337 2.69842 10.5739 2.638 10 2.638C5.9197 2.638 2.55286 5.69271 2.06165 9.63998C1.99344 10.188 1.55228 10.638 1 10.638C0.447715 10.638 -0.00525253 10.189 0.0492363 9.6394C0.550312 4.5854 4.81417 0.637999 10 0.637999C10.8209 0.637999 11.6186 0.736901 12.382 0.923439L11.6733 2.81326Z" fill="black"/>
<path fill-rule="evenodd" clip-rule="evenodd" d="M12.0235 10.4232L15.1872 2.00091C15.3815 1.4837 15.1195 0.906936 14.6022 0.712937C14.0853 0.519089 13.5091 0.780806 13.315 1.29761L10.18 9.6433C10.1204 9.63978 10.0604 9.638 10 9.638C8.34315 9.638 7 10.9811 7 12.638C7 14.2949 8.34315 15.638 10 15.638C11.6569 15.638 13 14.2949 13 12.638C13 11.7609 12.6236 10.9717 12.0235 10.4232ZM11 12.638C11 13.1903 10.5523 13.638 10 13.638C9.44772 13.638 9 13.1903 9 12.638C9 12.0857 9.44772 11.638 10 11.638C10.5523 11.638 11 12.0857 11 12.638Z" fill="black"/>
</svg>
