<svg xmlns="http://www.w3.org/2000/svg" viewBox="0 0 20 20"><path d="M3.5 11.507c0-3.26 2.988-6.007 6.5-6.007 1.068 0 2.088.254 2.99.7l.438-.793c.102-.185.238-.34.396-.462-1.155-.603-2.467-.945-3.824-.945-4.22 0-8 3.303-8 7.507 0 1.257.324 3.002.955 4.113.205.36.663.487 1.023.282.36-.204.486-.662.282-1.022-.463-.815-.76-2.28-.76-3.373Z"/><path d="M16.121 6.721c-.02.046-.042.092-.067.137l-.709 1.283c.725.967 1.155 2.13 1.155 3.366 0 1.094-.297 2.559-.76 3.373-.204.36-.078.818.282 1.022.36.205.818.079 1.023-.282.63-1.11.955-2.856.955-4.113 0-1.833-.719-3.495-1.879-4.786Z"/><path fill-rule="evenodd" d="M10 17c1.38 0 2.5-1.12 2.5-2.5 0-.629-.232-1.204-.616-1.643l3.514-6.362c.2-.363.068-.819-.294-1.02-.363-.2-.82-.068-1.02.295l-3.48 6.303c-.194-.048-.396-.073-.604-.073-1.38 0-2.5 1.12-2.5 2.5s1.12 2.5 2.5 2.5Zm0-1.5c.552 0 1-.448 1-1s-.448-1-1-1-1 .448-1 1 .448 1 1 1Z"/></svg>