<svg xmlns="http://www.w3.org/2000/svg" viewBox="0 0 16 16"><path d="M2.5 9.5c0-3.038 2.462-5.5 5.5-5.5.68 0 1.332.124 1.934.35l.456-.981c.062-.134.141-.255.234-.36-.81-.328-1.696-.509-2.624-.509-3.866 0-7 3.134-7 7 0 1.216.31 2.362.858 3.36.2.364.655.497 1.018.298.363-.2.497-.655.297-1.018-.429-.783-.673-1.682-.673-2.64Z"/><path d="m13.084 4.689-.695 1.496c.697.922 1.111 2.07 1.111 3.315 0 .958-.244 1.857-.673 2.64-.2.363-.066.819.297 1.018.363.199.819.066 1.018-.297.547-.999.858-2.145.858-3.361 0-1.864-.728-3.557-1.916-4.811Z"/><path fill-rule="evenodd" d="M8 14c1.105 0 2-.895 2-2 0-.515-.195-.985-.515-1.34l2.945-6.344c.175-.376.011-.822-.364-.996-.376-.175-.822-.011-.996.364l-2.935 6.32c-.044-.002-.09-.004-.135-.004-1.105 0-2 .895-2 2s.895 2 2 2Zm0-1.5c.276 0 .5-.224.5-.5s-.224-.5-.5-.5-.5.224-.5.5.224.5.5.5Z"/></svg>