<svg width="16" height="13" viewBox="0 0 16 13" fill="none" xmlns="http://www.w3.org/2000/svg">
<path d="M13.3113 2.85238L12.465 4.82697C13.2093 5.65555 13.7263 6.69245 13.9178 7.83952C14.0088 8.38426 14.4477 8.83502 15 8.83502C15.5523 8.83502 16.0066 8.38546 15.9384 7.8374C15.6927 5.86182 14.7266 4.10979 13.3113 2.85238Z" fill="black"/>
<path d="M8.93573 2.90756C8.63083 2.85981 8.31831 2.83502 8 2.83502C5.02554 2.83502 2.55661 4.99944 2.08226 7.83921C1.99127 8.38395 1.55228 8.83502 1 8.83502C0.447715 8.83502 -0.00655632 8.38507 0.0616464 7.83701C0.552863 3.88974 3.9197 0.835022 8 0.835022C8.59842 0.835022 9.1815 0.900727 9.74241 1.02532L8.93573 2.90756Z" fill="black"/>
<path fill-rule="evenodd" clip-rule="evenodd" d="M10.1343 7.72677L12.5252 2.14796C12.7428 1.64033 12.5076 1.05245 12 0.834898C11.4924 0.617343 10.9045 0.852494 10.6869 1.36012L8.33273 6.85327C8.22348 6.84121 8.11246 6.83502 8 6.83502C6.34315 6.83502 5 8.17817 5 9.83502C5 11.4919 6.34315 12.835 8 12.835C9.65685 12.835 11 11.4919 11 9.83502C11 9.01322 10.6696 8.2686 10.1343 7.72677ZM9 9.83502C9 10.3873 8.55228 10.835 8 10.835C7.44772 10.835 7 10.3873 7 9.83502C7 9.28274 7.44772 8.83502 8 8.83502C8.55228 8.83502 9 9.28274 9 9.83502Z" fill="black"/>
</svg>
