<svg viewBox="0 0 20 20" xmlns="http://www.w3.org/2000/svg"><path d="M10 2.639c-5.186 0-9.45 3.946-9.951 9-.055.55.399 1 .951 1 .552 0 .994-.45 1.063-.998a8 8 0 0 1 7.937-7.002c.574 0 1.134.059 1.674.173l.709-1.888a10.03 10.03 0 0 0-2.383-.285zm4.21.011a1 1 0 0 0-.896.647l-3.134 8.346a3 3 0 1 0 1.844.781l3.163-8.424a1 1 0 0 0-.976-1.35zm1.8 1.995-.74 1.972a7.984 7.984 0 0 1 2.668 5.024c.068.548.51.998 1.062.998s1.006-.45.951-1a9.986 9.986 0 0 0-3.941-6.994zm-6.01 8.994a1 1 0 1 1 0 2 1 1 0 0 1 0-2z" fill="#5C5F62"/></svg>