<svg viewBox="0 0 20 20" fill="#5C5F62" xmlns="http://www.w3.org/2000/svg">
<path d="M15.3113 6.21438L14.465 8.18897C15.2093 9.01755 15.7263 10.0544 15.9178 11.2015C16.0088 11.7463 16.4477 12.197 17 12.197C17.5523 12.197 18.0066 11.7475 17.9384 11.1994C17.6927 9.22382 16.7266 7.47179 15.3113 6.21438Z"  />
<path d="M10.9357 6.26956C10.6308 6.22181 10.3183 6.19702 10 6.19702C7.02554 6.19702 4.55661 8.36144 4.08226 11.2012C3.99127 11.7459 3.55228 12.197 3 12.197C2.44772 12.197 1.99344 11.7471 2.06165 11.199C2.55286 7.25173 5.9197 4.19702 10 4.19702C10.5984 4.19702 11.1815 4.26273 11.7424 4.38732L10.9357 6.26956Z" />
<path fill-rule="evenodd" d="M12.1343 11.0888L14.5252 5.50996C14.7428 5.00233 14.5076 4.41445 14 4.1969C13.4924 3.97934 12.9045 4.21449 12.6869 4.72212L10.3327 10.2153C10.2235 10.2032 10.1125 10.197 10 10.197C8.34315 10.197 7 11.5402 7 13.197C7 14.8539 8.34315 16.197 10 16.197C11.6569 16.197 13 14.8539 13 13.197C13 12.3752 12.6696 11.6306 12.1343 11.0888ZM11 13.197C11 13.7493 10.5523 14.197 10 14.197C9.44772 14.197 9 13.7493 9 13.197C9 12.6447 9.44772 12.197 10 12.197C10.5523 12.197 11 12.6447 11 13.197Z" />
</svg>
