<svg viewBox="0 0 20 20" fill="#5C5F62"
 xmlns="http://www.w3.org/2000/svg">
<path d="M16.0088 4.6439L15.2686 6.61775C16.7072 7.87772 17.6902 9.64501 17.9384 11.6404C18.0066 12.1884 18.4477 12.638 19 12.638C19.5523 12.638 20.0053 12.189 19.9508 11.6394C19.6676 8.78325 18.1827 6.28051 16.0088 4.6439Z"
/>
<path d="M11.6733 4.81326C11.1337 4.69842 10.5739 4.638 10 4.638C5.9197 4.638 2.55286 7.69271 2.06165 11.64C1.99344 12.188 1.55228 12.638 1 12.638C0.447715 12.638 -0.00525253 12.189 0.0492363 11.6394C0.550312 6.5854 4.81417 2.638 10 2.638C10.8209 2.638 11.6186 2.7369 12.382 2.92344L11.6733 4.81326Z"
/>
<path fill-rule="evenodd"  d="M12.0235 12.4232L15.1872 4.00091C15.3815 3.4837 15.1195 2.90694 14.6022 2.71294C14.0853 2.51909 13.5091 2.78081 13.315 3.29761L10.18 11.6433C10.1204 11.6398 10.0604 11.638 10 11.638C8.34315 11.638 7 12.9811 7 14.638C7 16.2949 8.34315 17.638 10 17.638C11.6569 17.638 13 16.2949 13 14.638C13 13.7609 12.6236 12.9717 12.0235 12.4232ZM11 14.638C11 15.1903 10.5523 15.638 10 15.638C9.44772 15.638 9 15.1903 9 14.638C9 14.0857 9.44772 13.638 10 13.638C10.5523 13.638 11 14.0857 11 14.638Z"
/>
</svg>
