<svg xmlns="http://www.w3.org/2000/svg" viewBox="0 0 20 21"><path fill-rule="evenodd" d="M8.8 8.58c-.344-.756-1.099-1.242-1.93-1.242-1.172 0-2.118.954-2.118 2.122 0 1.172.95 2.128 2.125 2.128h.858c-.595.51-1.256.925-1.84 1.008-.41.059-.694.438-.636.848.06.41.439.695.849.637 1.11-.159 2.128-.92 2.803-1.53.121-.11.235-.218.341-.322.106.104.22.212.34.322.676.61 1.693 1.371 2.804 1.53.41.058.79-.226.848-.637.059-.41-.226-.79-.636-.848-.583-.083-1.244-.498-1.839-1.008h.858c1.176 0 2.125-.956 2.125-2.128 0-1.168-.946-2.122-2.119-2.122-.83 0-1.585.486-1.929 1.242l-.452.996-.453-.996Zm-.963 1.508h-.96c-.343 0-.625-.28-.625-.628 0-.344.28-.622.619-.622.242 0 .462.142.563.363l.403.887Zm3.79 0h-.96l.403-.887c.1-.22.32-.363.563-.363.34 0 .619.278.619.622 0 .348-.282.628-.625.628Z" clip-rule="evenodd"/><path fill-rule="evenodd" d="M2.5 7.338c0-1.518 1.231-2.75 2.75-2.75h9.5c1.519 0 2.75 1.232 2.75 2.75v2.946l.002.054c0 .019 0 .037-.002.055v3.445c0 1.52-1.231 2.75-2.75 2.75h-9.5c-1.519 0-2.75-1.23-2.75-2.75v-6.5Zm13.5 2.25h-1.248c-.414 0-.75.336-.75.75 0 .415.336.75.75.75h1.248v2.75c0 .69-.56 1.25-1.25 1.25h-4.748v-1c0-.414-.336-.75-.75-.75s-.75.336-.75.75v1h-3.252c-.69 0-1.25-.56-1.25-1.25v-2.792c.292-.102.502-.38.502-.708 0-.327-.21-.605-.502-.708v-2.292c0-.69.56-1.25 1.25-1.25h3.252v.75c0 .415.336.75.75.75s.75-.335.75-.75v-.75h4.748c.69 0 1.25.56 1.25 1.25v2.25Z" clip-rule="evenodd"/></svg>