<svg xmlns="http://www.w3.org/2000/svg" viewBox="0 0 20 20"><path fill-rule="evenodd" d="M18.5 6.5c0-1.657-1.343-3-3-3h-11c-1.657 0-3 1.343-3 3v7c0 1.657 1.343 3 3 3h11c1.657 0 3-1.343 3-3v-7Zm-3-1h-5.25v.75c0 .552-.448 1-1 1s-1-.448-1-1v-.75h-3.75c-.552 0-1 .448-1 1v2.25h.25c.305 0 .578.136.76.351-.006-.075-.01-.152-.01-.23 0-1.304 1.058-2.371 2.369-2.371.929 0 1.772.543 2.156 1.389l.225.494.225-.494c.384-.846 1.228-1.389 2.156-1.389 1.312 0 2.369 1.067 2.369 2.372 0 .077-.004.154-.01.23.182-.216.455-.352.76-.352h1.75v-2.25c0-.552-.448-1-1-1Zm-1.738 4.409c-.384.792-1.195 1.341-2.137 1.341h-.124c.4.272.794.46 1.14.51.547.078.927.585.849 1.131-.078.547-.585.927-1.131.849-1.19-.17-2.255-.976-2.936-1.592-.06-.054-.117-.107-.173-.16l-.173.16c-.681.616-1.746 1.422-2.936 1.592-.546.078-1.053-.302-1.13-.849-.08-.546.3-1.053.848-1.131.346-.05.74-.238 1.14-.51h-.124c-.942 0-1.753-.549-2.138-1.341-.076.476-.489.841-.987.841h-.25v2.75c0 .552.448 1 1 1h3.75v-1c0-.552.448-1 1-1s1 .448 1 1v1h5.25c.552 0 1-.448 1-1v-2.75h-1.75c-.498 0-.912-.364-.988-.841Zm-6.315-.659h-.572c-.204 0-.375-.168-.375-.378 0-.207.168-.372.369-.372.144 0 .275.085.335.216l.243.534Zm4.178 0h-.572l.243-.534c.06-.131.19-.216.335-.216.2 0 .369.165.369.372 0 .21-.17.378-.375.378Z" clip-rule="evenodd"/></svg>