<svg width="20" height="20" viewBox="0 0 20 20" fill="none" xmlns="http://www.w3.org/2000/svg">
<path fill-rule="evenodd" clip-rule="evenodd" d="M15.5 5.5H10V6.25C10 6.66421 9.66421 7 9.25 7C8.83579 7 8.5 6.66421 8.5 6.25V5.5H4.5C4.22386 5.5 4 5.72386 4 6V9.04268C4.2913 9.14564 4.5 9.42345 4.5 9.75C4.5 10.0766 4.2913 10.3544 4 10.4573V14C4 14.2761 4.22386 14.5 4.5 14.5H8.5V13.5C8.5 13.0858 8.83579 12.75 9.25 12.75C9.66421 12.75 10 13.0858 10 13.5V14.5H15.5C15.7761 14.5 16 14.2761 16 14V10.5H14.75C14.3358 10.5 14 10.1642 14 9.75C14 9.33579 14.3358 9 14.75 9H16V6C16 5.72386 15.7761 5.5 15.5 5.5ZM17.5 9.75V6C17.5 4.89543 16.6046 4 15.5 4H9.25H4.5C3.39543 4 2.5 4.89543 2.5 6V14C2.5 15.1046 3.39543 16 4.5 16H15.5C16.6046 16 17.5 15.1046 17.5 14V9.75ZM8.79746 7.99197C8.45366 7.23561 7.69951 6.75 6.86868 6.75C5.69632 6.75 4.75 7.70396 4.75 8.87184C4.75 10.0432 5.69915 11 6.875 11H7.73284C7.13766 11.5097 6.47708 11.9242 5.89394 12.0075C5.48389 12.0661 5.19896 12.446 5.25754 12.8561C5.31612 13.2661 5.69602 13.551 6.10607 13.4925C7.21669 13.3338 8.23422 12.5733 8.90944 11.9624C9.03044 11.8529 9.14433 11.7446 9.25 11.6403C9.35567 11.7446 9.46956 11.8529 9.59056 11.9624C10.2658 12.5733 11.2833 13.3338 12.3939 13.4925C12.804 13.551 13.1839 13.2661 13.2425 12.8561C13.301 12.446 13.0161 12.0661 12.6061 12.0075C12.0229 11.9242 11.3623 11.5097 10.7672 11H11.625C12.8009 11 13.75 10.0432 13.75 8.87184C13.75 7.70396 12.8037 6.75 11.6313 6.75C10.8005 6.75 10.0463 7.23561 9.70254 7.99197L9.25 8.98755L8.79746 7.99197ZM7.83524 9.5H6.875C6.53206 9.5 6.25 9.21926 6.25 8.87184C6.25 8.5279 6.52923 8.25 6.86868 8.25C7.1113 8.25 7.33152 8.3918 7.43191 8.61267L7.83524 9.5ZM11.625 9.5H10.6648L11.0681 8.61267C11.1685 8.3918 11.3887 8.25 11.6313 8.25C11.9708 8.25 12.25 8.5279 12.25 8.87184C12.25 9.21926 11.9679 9.5 11.625 9.5Z" fill="#4A4A4A"/>
</svg>
