<svg viewBox="0 0 20 20" fill="none" xmlns="http://www.w3.org/2000/svg"><path d="M11 6.375c-.304 0-.6.058-.876.168.158-.224.251-.498.251-.793v-.5h5.125c.69 0 1.25.56 1.25 1.25v1.875h-2.75c-.23 0-.445.056-.635.155a2.375 2.375 0 0 0-2.365-2.155Zm3 4.75h2.75v2.375c0 .69-.56 1.25-1.25 1.25h-5.125v-1c0-.293-.092-.565-.248-.789.48.309 1.042.56 1.678.65a1.375 1.375 0 1 0 .39-2.722 1.01 1.01 0 0 1-.114-.023c.257-.132.487-.31.679-.521.222.461.694.78 1.24.78Zm-6.375 2.625v1h-3.125c-.69 0-1.25-.56-1.25-1.25v-2.375h.75c.546 0 1.018-.319 1.24-.78.192.212.422.389.68.52-.04.01-.077.018-.114.024a1.375 1.375 0 0 0 .388 2.722 4.209 4.209 0 0 0 1.68-.65 1.368 1.368 0 0 0-.249.789Zm-3.625-5.375h-.75v-1.875c0-.69.56-1.25 1.25-1.25h3.125v.5c0 .295.093.569.251.793a2.374 2.374 0 0 0-3.241 1.987 1.37 1.37 0 0 0-.635-.155Zm5-1.25c.091 0 .18-.009.267-.026l-.168.225-.099.132-.099-.132-.168-.225c.086.017.176.026.267.026Zm-.451 5.326c.166-.146.317-.293.451-.432.134.14.285.286.451.432a1.373 1.373 0 0 0-.902 0Z" fill="#4A4A4A" stroke="#4A4A4A" stroke-width="1.5"/></svg>