<svg width="20" height="20" viewBox="0 0 20 20" fill="none" xmlns="http://www.w3.org/2000/svg">
<path fill-rule="evenodd" clip-rule="evenodd" d="M8.5 4V6.25C8.5 6.66421 8.83579 7 9.25 7C9.66421 7 10 6.66421 10 6.25V4H15.5C16.6046 4 17.5 4.89543 17.5 6V9H14.75C14.3358 9 14 9.33579 14 9.75C14 10.1642 14.3358 10.5 14.75 10.5H17.5V14C17.5 15.1046 16.6046 16 15.5 16H10V13.5C10 13.0858 9.66421 12.75 9.25 12.75C8.83579 12.75 8.5 13.0858 8.5 13.5V16H4.5C3.39543 16 2.5 15.1046 2.5 14V10.5H3.75C4.16421 10.5 4.5 10.1642 4.5 9.75C4.5 9.33579 4.16421 9 3.75 9H2.5V6C2.5 4.89543 3.39543 4 4.5 4H8.5ZM6.86868 6.75C7.69951 6.75 8.45366 7.23561 8.79746 7.99197L9.25 8.98755L9.70254 7.99197C10.0463 7.23561 10.8005 6.75 11.6313 6.75C12.8037 6.75 13.75 7.70396 13.75 8.87184C13.75 10.0432 12.8009 11 11.625 11H10.7672C11.3623 11.5097 12.0229 11.9242 12.6061 12.0075C13.0161 12.0661 13.301 12.446 13.2425 12.8561C13.1839 13.2661 12.804 13.551 12.3939 13.4925C11.2833 13.3338 10.2658 12.5733 9.59056 11.9624C9.46956 11.8529 9.35567 11.7446 9.25 11.6403C9.14433 11.7446 9.03044 11.8529 8.90944 11.9624C8.23422 12.5733 7.21669 13.3338 6.10607 13.4925C5.69602 13.551 5.31612 13.2661 5.25754 12.8561C5.19896 12.446 5.48389 12.0661 5.89394 12.0075C6.47708 11.9242 7.13766 11.5097 7.73284 11H6.875C5.69915 11 4.75 10.0432 4.75 8.87184C4.75 7.70396 5.69632 6.75 6.86868 6.75ZM6.875 9.5H7.83524L7.43191 8.61267C7.33152 8.3918 7.1113 8.25 6.86868 8.25C6.52923 8.25 6.25 8.5279 6.25 8.87184C6.25 9.21926 6.53206 9.5 6.875 9.5ZM10.6648 9.5H11.625C11.9679 9.5 12.25 9.21926 12.25 8.87184C12.25 8.5279 11.9708 8.25 11.6313 8.25C11.3887 8.25 11.1685 8.3918 11.0681 8.61267L10.6648 9.5Z" fill="#4A4A4A"/>
</svg>
