<svg xmlns="http://www.w3.org/2000/svg" viewBox="0 0 20 20"><path d="M7.835 9.5h-.96c-.343 0-.625-.28-.625-.628 0-.344.28-.622.619-.622.242 0 .463.142.563.363l.403.887Z"/><path d="M10.665 9.5h.96c.343 0 .625-.28.625-.628 0-.344-.28-.622-.619-.622-.242 0-.463.142-.563.363l-.403.887Z"/><path fill-rule="evenodd" d="M8.5 4h-3.25c-1.519 0-2.75 1.231-2.75 2.75v2.25h1.25c.414 0 .75.336.75.75s-.336.75-.75.75h-1.25v2.75c0 1.519 1.231 2.75 2.75 2.75h3.441c-.119-.133-.191-.308-.191-.5v-2c0-.414.336-.75.75-.75s.75.336.75.75v2c0 .192-.072.367-.191.5h4.941c1.519 0 2.75-1.231 2.75-2.75v-2.75h-2.75c-.414 0-.75-.336-.75-.75s.336-.75.75-.75h2.75v-2.25c0-1.519-1.231-2.75-2.75-2.75h-4.75v2.25c0 .414-.336.75-.75.75s-.75-.336-.75-.75v-2.25Zm.297 3.992c-.343-.756-1.097-1.242-1.928-1.242-1.173 0-2.119.954-2.119 2.122 0 1.171.95 2.128 2.125 2.128h.858c-.595.51-1.256.924-1.84 1.008-.41.058-.694.438-.635.848.058.41.438.695.848.636 1.11-.158 2.128-.919 2.803-1.53.121-.11.235-.217.341-.322.106.105.22.213.34.322.676.611 1.693 1.372 2.804 1.53.41.059.79-.226.848-.636.059-.41-.226-.79-.636-.848-.583-.084-1.244-.498-1.839-1.008h.858c1.176 0 2.125-.957 2.125-2.128 0-1.168-.946-2.122-2.119-2.122-.83 0-1.585.486-1.928 1.242l-.453.996-.453-.996Z"/></svg>