<svg xmlns="http://www.w3.org/2000/svg" viewBox="0 0 20 20"><path fill-rule="evenodd" d="M8.797 7.992c-.343-.756-1.097-1.242-1.928-1.242-1.173 0-2.119.954-2.119 2.122 0 1.171.95 2.128 2.125 2.128h.858c-.595.51-1.256.924-1.84 1.008-.41.058-.694.438-.635.848.058.41.438.695.848.636 1.11-.158 2.128-.919 2.803-1.53.121-.11.235-.217.341-.322.106.105.22.213.34.322.676.611 1.693 1.372 2.804 1.53.41.059.79-.226.848-.636.059-.41-.226-.79-.636-.848-.583-.084-1.244-.498-1.839-1.008h.858c1.176 0 2.125-.957 2.125-2.128 0-1.168-.946-2.122-2.119-2.122-.83 0-1.585.486-1.928 1.242l-.453.996-.453-.996Zm-.962 1.508h-.96c-.343 0-.625-.28-.625-.628 0-.344.28-.622.619-.622.242 0 .463.142.563.363l.403.887Zm3.79 0h-.96l.403-.887c.1-.221.32-.363.563-.363.34 0 .619.278.619.622 0 .347-.282.628-.625.628Z"/><path fill-rule="evenodd" d="M1.5 7.25c0-2.071 1.679-3.75 3.75-3.75h9.5c2.071 0 3.75 1.679 3.75 3.75v5.5c0 2.071-1.679 3.75-3.75 3.75h-9.5c-2.071 0-3.75-1.679-3.75-3.75v-5.5Zm15.5 2.5h-2.25c-.414 0-.75.336-.75.75s.336.75.75.75h2.25v1.5c0 1.243-1.007 2.25-2.25 2.25h-4.75v-1c0-.414-.336-.75-.75-.75s-.75.336-.75.75v1h-3.25c-1.243 0-2.25-1.007-2.25-2.25v-1.5h.75c.414 0 .75-.336.75-.75s-.336-.75-.75-.75h-.75v-2.5c0-1.243 1.007-2.25 2.25-2.25h3.25v1.25c0 .414.336.75.75.75s.75-.336.75-.75v-1.25h4.75c1.243 0 2.25 1.007 2.25 2.25v2.5Z"/></svg>