<svg viewBox="0 0 20 20" xmlns="http://www.w3.org/2000/svg"><path fill-rule="evenodd" d="M8.25 2c.681 0 1.3.273 1.75.715a2.5 2.5 0 0 1 4.042 2.785h.958a2 2 0 0 1 2 2v1a2 2 0 0 1-1 1.732v3.768a3 3 0 0 1-3 3h-6a3 3 0 0 1-3-3v-3.768a2 2 0 0 1-1-1.732v-1a2 2 0 0 1 2-2h.958a2.5 2.5 0 0 1 2.292-3.5Zm1 2.5a1 1 0 1 1-2 0 1 1 0 0 1 2 0Zm2.5-1a1 1 0 1 0 0 2 1 1 0 0 0 0-2Zm-1 3.5h4.25a.5.5 0 0 1 .5.5v1a.5.5 0 0 1-.5.5h-4.25v-2Zm-1.5 0h-4.25a.5.5 0 0 0-.5.5v1a.5.5 0 0 0 .5.5h4.25v-2Zm0 3.5h-3.75v3.5a1.5 1.5 0 0 0 1.5 1.5h2.25v-5Zm1.5 5h2.25a1.5 1.5 0 0 0 1.5-1.5v-3.5h-3.75v5Z" fill="#5C5F62"/></svg>