<svg xmlns="http://www.w3.org/2000/svg" viewBox="0 0 20 20"><path fill-rule="evenodd" d="M3 10a7 7 0 1 1 14 0 7 7 0 0 1-14 0Zm7-5.5a5.497 5.497 0 0 0-4.737 2.703l2 1.999c.472.472.737 1.113.737 1.78v.518a.5.5 0 0 0 .5.5 2 2 0 0 1 2 2v1.478a5.504 5.504 0 0 0 4.52-3.228h-1.02a.75.75 0 0 1-.75-.75v-.5a.75.75 0 0 0-.75-.75h-2.5a1.755 1.755 0 0 1-1.07-3.144l.463-.356a.393.393 0 0 0 .152-.312v-.04c0-.885.62-1.624 1.449-1.808a5.531 5.531 0 0 0-.994-.09Zm2.875.81a1.85 1.85 0 0 1-1.477.735.352.352 0 0 0-.353.353v.04c0 .587-.271 1.14-.736 1.499l-.462.356a.256.256 0 0 0 .153.457h2.5a2.25 2.25 0 0 1 2.236 2h.713a5.497 5.497 0 0 0-2.574-5.44Zm-8.375 4.69c0-.443.052-.875.152-1.288l1.55 1.55c.19.191.298.45.298.72v.518a2 2 0 0 0 2 2 .5.5 0 0 1 .5.5v1.41a5.502 5.502 0 0 1-4.5-5.41Z"/></svg>