<svg viewBox="0 0 20 20" xmlns="http://www.w3.org/2000/svg"><path fill-rule="evenodd" d="M3 10a7 7 0 1 1 14 0 7 7 0 0 1-14 0Zm5.577-5.314a5.502 5.502 0 0 0-3.447 7.873l.37-.37v-1.939a.75.75 0 0 1 .75-.75h1.475l.737-2.028-.433-1.516a.75.75 0 0 1 .271-.806l.4-.3-.123-.164Zm1.742-.177.031.041a.75.75 0 0 1-.15 1.05l-.587.44.358 1.254a.75.75 0 0 1-.016.462l-1 2.75a.75.75 0 0 1-.705.494h-1.25v1.5a.75.75 0 0 1-.22.53l-.763.763a5.496 5.496 0 0 0 2.573 1.525l1.16-1.417v-1.401a.75.75 0 0 1 .75-.75h2.64l1.774-2.219a.75.75 0 0 1 .536-.28 5.502 5.502 0 0 0-5.13-4.742Zm4.991 6.929a5.504 5.504 0 0 1-4.92 4.048l.69-.842a.75.75 0 0 0 .17-.475v-.919h2.25a.75.75 0 0 0 .586-.281l1.224-1.531Z" fill="#4A4A4A"/></svg>
