<svg xmlns="http://www.w3.org/2000/svg" viewBox="0 0 20 20"><path fill-rule="evenodd" d="M10 2c-4.418 0-8 3.582-8 8s3.582 8 8 8 8-3.582 8-8-3.582-8-8-8Zm-6.5 8v-.026l.032.02c.768.503 1.794.326 2.35-.405l.059-.077.04.22c.147.808.86 1.389 1.68 1.37.64-.014 1.215-.394 1.481-.976l.287-.63c.048-.106.163-.165.276-.142l.299.059c1.133.225 2.17-.69 2.087-1.842l-.01-.132c-.01-.134.088-.252.222-.266l.82-.09c.838-.093 1.486-.767 1.553-1.598.192.199.372.41.537.632l-1.62 2.108c-.458.594-.485 1.413-.07 2.037l.048.072c.536.804 1.623 1.021 2.427.485l.483-.322c-.119 1.575-.8 2.993-1.841 4.055l-.423-.492c-.712-.832-1.752-1.31-2.847-1.31h-.67c-.834 0-1.62.393-2.12 1.06-.049.065-.111.117-.183.153l-2.232 1.116c-.045.022-.086.048-.123.077-1.546-1.188-2.542-3.056-2.542-5.156Zm12.882-1.24c-.082-.424-.206-.835-.366-1.226l-1.234 1.605c-.066.085-.07.202-.01.291l.047.072c.077.115.232.146.347.07l1.216-.811Zm-12.03-.021-.634-.415c.74-2.777 3.272-4.824 6.282-4.824 1.165 0 2.258.306 3.203.843l-.022 1.005c-.002.126-.098.23-.222.244l-.82.09c-.935.102-1.621.926-1.554 1.864l.01.133c.011.164-.137.295-.299.263l-.298-.06c-.796-.158-1.597.252-1.934.991l-.287.63c-.027.06-.085.098-.15.1-.083.001-.156-.057-.17-.14l-.142-.777c-.195-1.07-1.567-1.398-2.225-.533l-.402.528c-.08.104-.226.13-.335.058Zm3.244 7.302c.743.296 1.555.459 2.404.459 1.277 0 2.468-.368 3.473-1.004l-.395-.46c-.427-.499-1.051-.786-1.708-.786h-.67c-.362 0-.703.17-.92.46-.188.251-.432.455-.712.595l-1.472.736Z"/></svg>