<svg xmlns="http://www.w3.org/2000/svg" viewBox="0 0 20 20"><path fill-rule="evenodd" d="M2 10c0-4.418 3.582-8 8-8s8 3.582 8 8-3.582 8-8 8-8-3.582-8-8Zm8-6.5c-3.59 0-6.5 2.91-6.5 6.5 0 1.911.825 3.63 2.138 4.819l.69-.615c1.091-.969 2.675-1.144 3.95-.435.239.133.514.184.785.147l4.54-.619c.57-.966.897-2.094.897-3.297 0-.614-.085-1.208-.244-1.77l-.474.15c-.138.045-.231.175-.229.32l.013.827c.02 1.19-.951 2.16-2.142 2.142-.771-.013-1.393-.635-1.406-1.407l-.004-.223c-.005-.333-.273-.601-.605-.607l-.189-.003c-.546-.008-1.048.3-1.287.792l-.043.088c-.384.788-1.19 1.284-2.067 1.27-1.077-.018-1.992-.794-2.184-1.854l-.07-.384c-.246-1.351.549-2.674 1.856-3.093l.733-.234c.212-.068.355-.267.351-.49-.013-.807.46-1.543 1.199-1.868l.355-.156h-.063Zm2.581.533-2.27.997c-.186.081-.305.267-.302.47.014.884-.552 1.673-1.394 1.943l-.733.234c-.59.189-.948.786-.837 1.395l.07.385c.064.355.371.616.732.622.295.004.565-.162.694-.427l.043-.087c.494-1.016 1.531-1.654 2.66-1.635l.189.003c1.142.018 2.063.94 2.081 2.081l.003.152c.311-.03.555-.295.55-.615l-.014-.827c-.013-.807.504-1.526 1.272-1.772l.356-.114c-.694-1.243-1.784-2.236-3.1-2.805Zm-2.581 12.467c-1.126 0-2.184-.286-3.108-.79l.433-.385c.615-.546 1.507-.644 2.225-.245.522.29 1.124.403 1.715.323l2.876-.393c-1.124.93-2.568 1.49-4.141 1.49Z"/></svg>