<svg xmlns="http://www.w3.org/2000/svg" viewBox="0 0 16 16"><path fill-rule="evenodd" d="M1 8c0-3.866 3.134-7 7-7s7 3.134 7 7-3.134 7-7 7-7-3.134-7-7Zm7-5.5c-2.016 0-3.78 1.085-4.737 2.703l2 1.999c.472.472.737 1.112.737 1.78v.518c0 .276.224.5.5.5 1.105 0 2 .895 2 2v1.478c2.02-.182 3.725-1.457 4.52-3.228h-1.02c-.199 0-.39-.079-.53-.22-.141-.14-.22-.331-.22-.53v-.5c0-.414-.336-.75-.75-.75h-2.5c-.972 0-1.75-.795-1.75-1.756 0-.54.25-1.055.68-1.388l.463-.356c.096-.075.152-.19.152-.312v-.04c0-.885.62-1.624 1.449-1.808-.323-.06-.655-.09-.994-.09Zm2.875.81c-.338.447-.874.735-1.477.735-.195 0-.353.158-.353.353v.04c0 .587-.272 1.14-.736 1.499l-.462.356c-.06.046-.097.121-.097.201 0 .144.118.256.25.256h2.5c1.158 0 2.112.875 2.236 2h.713c.034-.245.051-.496.051-.75 0-1.984-1.05-3.722-2.625-4.69Zm-8.375 4.69c0-.443.052-.875.152-1.288l1.55 1.55c.19.191.298.45.298.72v.518c0 1.105.895 2 2 2 .276 0 .5.224.5.5v1.41c-2.56-.47-4.5-2.714-4.5-5.41Z"/></svg>