<svg width="20" height="20" viewBox="0 0 20 20" fill="none" xmlns="http://www.w3.org/2000/svg">
<path fill-rule="evenodd" clip-rule="evenodd" d="M3 10C3 6.13401 6.13401 3 10 3C13.866 3 17 6.13401 17 10C17 13.866 13.866 17 10 17C6.13401 17 3 13.866 3 10ZM8.5769 4.68589C6.22916 5.31301 4.5 7.45457 4.5 10C4.5 10.9239 4.72781 11.7946 5.13032 12.559L5.49999 12.1893L5.49999 10.25C5.49999 9.83577 5.83578 9.49998 6.24999 9.49998L7.72467 9.49998L8.46204 7.47221L8.02885 5.95602C7.94345 5.65712 8.0513 5.3365 8.29999 5.14998L8.69998 4.84999L8.5769 4.68589ZM10.3193 4.50912L10.35 4.54997C10.4693 4.7091 10.5206 4.90913 10.4925 5.10604C10.4643 5.30296 10.3591 5.48063 10.2 5.59998L9.61294 6.04027L9.97114 7.29394C10.0146 7.44593 10.0089 7.60774 9.95484 7.75629L8.95484 10.5063C8.84706 10.8027 8.56537 11 8.24999 11L6.99999 11L6.99999 12.5C6.99999 12.6989 6.92097 12.8897 6.78032 13.0303L6.01737 13.7933C6.70744 14.5176 7.59307 15.0539 8.58957 15.3175L9.74999 13.9009L9.74999 12.5C9.74999 12.0858 10.0858 11.75 10.5 11.75H13.1395L14.9144 9.53147C15.0469 9.36585 15.2418 9.2657 15.4495 9.25169C15.0985 6.67144 12.9581 4.66018 10.3193 4.50912ZM15.3101 11.4379C14.7106 13.6572 12.7569 15.3205 10.3903 15.4864L11.0802 14.6442C11.19 14.5101 11.25 14.3422 11.25 14.1689V13.25H13.5C13.7278 13.25 13.9433 13.1464 14.0856 12.9685L15.3101 11.4379Z" fill="#4A4A4A"/>
</svg>
