<svg xmlns="http://www.w3.org/2000/svg" viewBox="0 0 20 20"><path fill-rule="evenodd" d="M10 17.25a7.25 7.25 0 1 0 .006-14.5 7.25 7.25 0 0 0-.009 14.5h.003Zm.001-1.5c.412 0 .916-.329 1.35-1.429a8.03 8.03 0 0 0 .385-1.36 36.907 36.907 0 0 1-3.472 0c.101.51.23.967.386 1.36.433 1.102.938 1.429 1.35 1.429h.001Zm0-4.25c.675 0 1.327-.018 1.942-.052a18.268 18.268 0 0 0 .028-2.5c-.63.035-1.291.052-1.971.052-.68 0-1.34-.017-1.97-.051a18.314 18.314 0 0 0 .027 2.499c.615.034 1.267.052 1.943.052Zm-1.812-4.045c.11-.678.265-1.279.46-1.776.434-1.102.94-1.429 1.351-1.429.412 0 .917.327 1.35 1.429.196.497.352 1.098.461 1.776a35.02 35.02 0 0 1-1.811.045 34.96 34.96 0 0 1-1.811-.045Zm5.277 1.373a19.758 19.758 0 0 1-.01 2.491c.108-.012.214-.026.318-.04.79-.106 1.432-.245 1.91-.403a5.796 5.796 0 0 0-.138-2.401c-.5.125-1.06.225-1.657.302-.139.018-.28.035-.423.05Zm1.485-1.754a14.15 14.15 0 0 1-1.256.216c-.125.016-.253.031-.384.046-.125-.816-.312-1.565-.565-2.207a6.615 6.615 0 0 0-.097-.234 5.776 5.776 0 0 1 2.302 2.18Zm-8.262.262a20.09 20.09 0 0 1-.384-.046c-.47-.061-.89-.134-1.256-.216a5.777 5.777 0 0 1 2.302-2.179 6.594 6.594 0 0 0-.097.234c-.253.642-.44 1.39-.565 2.207Zm-2.235 1.139c.501.125 1.061.225 1.658.302.138.018.279.035.422.05a19.775 19.775 0 0 0 .01 2.492 19.253 19.253 0 0 1-.318-.04c-.79-.106-1.432-.245-1.91-.403a5.797 5.797 0 0 1 .138-2.401Zm8.292 6.396a10.07 10.07 0 0 0 .536-2.024c.237-.024.469-.051.692-.081.41-.055.804-.121 1.173-.2a5.775 5.775 0 0 1-2.498 2.539c.034-.077.066-.155.097-.234Zm-5.395.234a5.775 5.775 0 0 1-2.498-2.538c.369.078.762.144 1.173.199.224.03.455.057.692.081.124.746.302 1.43.536 2.024.031.079.063.157.097.234Z"/></svg>