<svg xmlns="http://www.w3.org/2000/svg" viewBox="0 0 20 20"><path fill-rule="evenodd" d="M2 10c0-4.418 3.582-8 8-8s8 3.582 8 8-3.582 8-8 8-8-3.582-8-8Zm1.5-.026v.026c0 2.073.97 3.92 2.482 5.11.07-.072.157-.133.26-.18l2.158-.981c.076-.034.141-.087.19-.153.494-.659 1.27-1.046 2.092-1.046h.688c1.095 0 2.135.478 2.847 1.31l.423.492c.92-.938 1.559-2.155 1.777-3.512l-.419.28c-.804.535-1.89.318-2.427-.486l-.053-.08c-.411-.617-.389-1.426.056-2.02l1.712-2.281c.028-.039.06-.074.092-.105-.209-.307-.443-.595-.7-.861v.056c-.018.785-.614 1.436-1.395 1.522l-.98.108c-.134.014-.232.132-.222.266l.01.132c.082 1.152-.954 2.067-2.087 1.842l-.299-.06c-.113-.022-.228.037-.276.142l-.287.63c-.266.583-.841.963-1.481.977-.82.019-1.533-.562-1.68-1.37l-.04-.22-.059.077c-.556.73-1.582.908-2.35.405l-.032-.02Z"/></svg>