<svg xmlns="http://www.w3.org/2000/svg" viewBox="0 0 20 20"><path fill-rule="evenodd" d="M10 3a7 7 0 1 0 0 14 7 7 0 0 0 0-14Zm-5.31 5.56a5.502 5.502 0 0 1 8.56-2.998v.438a.25.25 0 0 1-.25.25h-.22a1.75 1.75 0 0 0-1.697 1.326l-.121.485a.25.25 0 0 1-.243.189h-.184a1.75 1.75 0 0 0-1.456.78l-.374.561a.357.357 0 0 1-.648-.128l-.103-.515c-.211-1.059-1.576-1.369-2.224-.505l-.262.35a.25.25 0 0 1-.34.058l-.437-.292Zm-.186 1.658a5.491 5.491 0 0 0 2.126 4.13.776.776 0 0 1 .065-.033l1.956-.87a.487.487 0 0 0 .192-.153 2.606 2.606 0 0 1 2.085-1.042h.521a3.65 3.65 0 0 1 2.772 1.276 5.48 5.48 0 0 0 1.147-2.325 1.763 1.763 0 0 1-2.083-.672c-.42-.63-.393-1.47.086-2.068l1.207-1.51a5.55 5.55 0 0 0-.057-.084 1.75 1.75 0 0 1-1.521.883h-.22a.25.25 0 0 0-.242.19l-.121.484a1.75 1.75 0 0 1-1.698 1.326h-.184a.25.25 0 0 0-.208.111l-.374.562a1.857 1.857 0 0 1-3.36-.637 1.75 1.75 0 0 1-2.089.432Zm10.78-1.748-.742.928a.258.258 0 0 0-.01.3.259.259 0 0 0 .364.068l.565-.424a5.468 5.468 0 0 0-.177-.872Zm-5.284 7.03a5.497 5.497 0 0 1-1.686-.263l.946-.42c.31-.139.58-.353.783-.625a1.11 1.11 0 0 1 .885-.442h.521c.647 0 1.256.291 1.662.787a5.475 5.475 0 0 1-3.111.963Z"/></svg>