<svg  viewBox="0 0 20 20" fill="none" xmlns="http://www.w3.org/2000/svg">
<path d="M12.5 3.19257C11.7207 2.90628 10.8786 2.75 10 2.75C7.097 2.75 4.59251 4.45621 3.43462 6.92052M12.5 3.19257C15.2723 4.21098 17.25 6.87453 17.25 10C17.25 10.5143 17.1965 11.016 17.0946 11.5M12.5 3.19257V4.19304C12.5 4.80183 12.0065 5.29535 11.3977 5.29535C10.7889 5.29535 10.2954 5.78886 10.2954 6.39763V6.43838C10.2954 6.79257 10.1312 7.12675 9.85085 7.34319L9.38892 7.69976C9.14363 7.88911 8.99998 8.18433 8.99998 8.4942C8.99998 9.04648 9.4477 9.5 9.99998 9.5L11.5 9.5H12.5C13.3284 9.5 14 10.1716 14 11V11.5H17.0946M3.43462 6.92052C2.99545 7.8552 2.75 8.89894 2.75 10C2.75 13.9204 5.8617 17.114 9.75 17.2458M3.43462 6.92052L6.65776 9.73673C7.03391 10.0627 7.25 10.536 7.25 11.0337V11.5C7.25 12.1904 7.80965 12.75 8.5 12.75C9.19036 12.75 9.75 13.3096 9.75 14V17.2458M9.75 17.2458C9.83299 17.2486 9.91633 17.25 10 17.25C13.4898 17.25 16.4037 14.7843 17.0946 11.5" stroke="currentColor" />
</svg>
