<svg xmlns="http://www.w3.org/2000/svg" viewBox="0 0 16 16"><path fill-rule="evenodd" d="M1 8c0-3.866 3.134-7 7-7s7 3.134 7 7-3.134 7-7 7-7-3.134-7-7Zm7-5.5c-2.725 0-4.988 1.982-5.424 4.584l.276.183c.33.221.777.145 1.016-.174l.262-.35c.389-.518 1.207-.332 1.334.303l.103.515c.08.4.432.689.84.689.287 0 .555-.143.714-.382l.374-.561c.232-.348.622-.557 1.04-.557h.184c.344 0 .644-.234.728-.568l.121-.485c.068-.27.22-.5.425-.667l.007-.03h.03c.212-.158.473-.25.75-.25h.22c.414 0 .75-.336.75-.75v-.023c-.982-.916-2.3-1.477-3.75-1.477Zm4 5.18v-.254c.02-.122.072-.24.152-.34l.938-1.173c.257.625.402 1.309.41 2.025l-.304.228c-.342.256-.839.17-1.08-.191-.06-.091-.099-.192-.116-.296Zm-6.186 5.369c.67.29 1.41.451 2.186.451 1.29 0 2.475-.444 3.412-1.186-.476-.59-1.196-.939-1.963-.939h-.52c-.467 0-.906.22-1.186.592-.165.22-.384.395-.635.506l-1.294.575Z"/></svg>