<svg xmlns="http://www.w3.org/2000/svg" viewBox="0 0 16 16"><path fill-rule="evenodd" d="M8 1c-3.866 0-7 3.134-7 7s3.134 7 7 7 7-3.134 7-7-3.134-7-7-7Zm-5.31 5.56c.634-2.34 2.771-4.06 5.31-4.06 1.216 0 2.34.394 3.25 1.062v.438c0 .138-.112.25-.25.25h-.22c-.802 0-1.502.546-1.697 1.326l-.121.485c-.028.11-.128.189-.243.189h-.184c-.585 0-1.131.292-1.456.78l-.374.561c-.067.1-.178.159-.297.159-.17 0-.317-.12-.35-.287l-.104-.515c-.211-1.059-1.576-1.369-2.224-.505l-.262.35c-.08.106-.229.132-.34.058l-.437-.292Zm-.186 1.658c.066 1.679.884 3.165 2.126 4.13.021-.013.043-.023.065-.033l1.956-.87c.076-.033.142-.086.192-.153.492-.656 1.265-1.042 2.085-1.042h.521c1.073 0 2.084.472 2.772 1.276.553-.66.953-1.454 1.147-2.325-.748.284-1.622.02-2.083-.672-.42-.63-.393-1.47.086-2.068l1.207-1.51-.057-.084c-.302.527-.87.883-1.521.883h-.22c-.114 0-.214.078-.242.19l-.121.484c-.195.78-.895 1.326-1.698 1.326h-.184c-.083 0-.162.042-.208.111l-.374.562c-.345.517-.925.827-1.545.827-.876 0-1.63-.61-1.815-1.464-.52.604-1.381.776-2.089.432Zm10.78-1.748-.742.928c-.064.08-.072.204-.01.3.085.126.256.149.364.068l.565-.424c-.036-.299-.095-.59-.177-.872Zm-5.284 7.03c-.588 0-1.155-.092-1.686-.263l.946-.42c.31-.139.58-.353.783-.625.21-.278.537-.442.885-.442h.521c.647 0 1.256.291 1.662.787-.885.607-1.957.963-3.111.963Z"/></svg>