<svg xmlns="http://www.w3.org/2000/svg" viewBox="0 0 16 16"><path fill-rule="evenodd" d="M1 8c0-3.866 3.134-7 7-7s7 3.134 7 7-3.134 7-7 7-7-3.134-7-7Zm2.019-2.335 1.89 1.89c.378.379.591.892.591 1.427v.518c0 .552.448 1 1 1 .828 0 1.5.672 1.5 1.5v1.5c2.426 0 4.485-1.57 5.216-3.75h-1.216c-.138 0-.25-.112-.25-.25v-.5c0-.69-.56-1.25-1.25-1.25h-2.5c-.692 0-1.25-.567-1.25-1.256 0-.386.179-.755.486-.992l.462-.357c.22-.169.347-.43.347-.707v-.04c0-.747.606-1.353 1.353-1.353h.057c.193 0 .37-.069.509-.184-.61-.233-1.272-.361-1.964-.361-2.203 0-4.103 1.295-4.981 3.165Z"/></svg>