<svg xmlns="http://www.w3.org/2000/svg" viewBox="0 0 16 16"><path fill-rule="evenodd" d="M8 1c-3.866 0-7 3.134-7 7s3.134 7 7 7 7-3.134 7-7-3.134-7-7-7Zm-2.53 11.884c.757.394 1.617.616 2.53.616 1.472 0 2.809-.578 3.796-1.52l-2.127.399c-.462.087-.94-.004-1.34-.253-.757-.473-1.74-.361-2.371.27l-.489.488Zm7.745-6.636c-.496-1.477-1.602-2.674-3.018-3.292l-1.904.858c-.33.15-.543.478-.543.841 0 .612-.392 1.156-.973 1.35l-.75.25c-.717.238-1.154.964-1.03 1.71l.06.353c.089.538.554.932 1.1.932.422 0 .808-.239.997-.616l.122-.246c.35-.697 1.062-1.138 1.842-1.138h.507c.69 0 1.25.56 1.25 1.25v.375c0 .207.168.375.375.375.552 0 1-.448 1-1v-.771c0-.543.347-1.025.862-1.197l.103-.034Z"/></svg>