<svg xmlns="http://www.w3.org/2000/svg" viewBox="0 0 20 20"><path fill-rule="evenodd" d="M2 10c0-4.418 3.582-8 8-8s8 3.582 8 8-3.582 8-8 8-8-3.582-8-8Zm8-6.5c-2.492 0-4.657 1.402-5.747 3.461l2.103 2.104c.512.511.799 1.204.799 1.927v.579c0 .357.29.647.647.647 1.185 0 2.146.96 2.146 2.146v2.136h.052c2.892 0 5.343-1.889 6.186-4.5h-1.686c-.199 0-.39-.08-.53-.22s-.22-.331-.22-.53v-.5c0-.414-.336-.75-.75-.75h-2.5c-.972 0-1.75-.795-1.75-1.756 0-.54.25-1.055.68-1.388l.463-.357c.096-.074.152-.189.152-.31v-.041c0-1.023.83-1.853 1.853-1.853.194 0 .352-.157.352-.352v-.043c-.701-.259-1.459-.4-2.25-.4Zm3.628 1.106c-.267.695-.94 1.19-1.73 1.19-.195 0-.352.157-.352.352v.04c0 .587-.272 1.14-.737 1.499l-.462.356c-.06.046-.097.121-.097.201 0 .144.118.256.25.256h2.5c1.158 0 2.112.875 2.236 2h1.245c.013-.165.019-.332.019-.5 0-2.246-1.14-4.227-2.872-5.394Zm-10.128 5.394c0-.515.06-1.016.173-1.497l1.623 1.623c.23.23.359.541.359.866v.579c0 1.186.96 2.147 2.147 2.147.357 0 .646.29.646.646v1.95c-2.84-.696-4.948-3.259-4.948-6.314Z"/></svg>