<svg xmlns="http://www.w3.org/2000/svg" viewBox="0 0 20 20"><path fill-rule="evenodd" d="M2.593 6.972c-.382.934-.593 1.957-.593 3.028 0 4.418 3.582 8 8 8s8-3.582 8-8c0-1.23-.277-2.395-.773-3.436-.027-.104-.076-.201-.143-.285-1.34-2.544-4.009-4.279-7.084-4.279-3.221 0-5.998 1.904-7.266 4.648-.072.094-.12.205-.141.324Zm9.657-3.072c-.701-.259-1.46-.4-2.25-.4-2.492 0-4.657 1.402-5.747 3.461l2.104 2.105c.511.51.798 1.204.798 1.926v.579c0 .357.29.647.647.647 1.185 0 2.146.96 2.146 2.146v2.136h.052c2.892 0 5.343-1.889 6.186-4.5h-1.686c-.414 0-.75-.336-.75-.75v-.5c0-.414-.336-.75-.75-.75h-2.5c-.972 0-1.75-.795-1.75-1.756 0-.54.25-1.055.68-1.388l.463-.357c.096-.074.152-.189.152-.31v-.041c0-1.023.83-1.853 1.853-1.853.194 0 .352-.157.352-.352v-.043Z"/></svg>