<svg xmlns="http://www.w3.org/2000/svg" viewBox="0 0 20 20"><path fill-rule="evenodd" d="M10 2c-4.418 0-8 3.582-8 8s3.582 8 8 8 8-3.582 8-8-3.582-8-8-8Zm-6.5 8c0-3.59 2.91-6.5 6.5-6.5h.063l-.355.156c-.74.325-1.212 1.061-1.199 1.869.004.222-.139.421-.351.489l-.733.234c-1.307.419-2.102 1.742-1.856 3.093l.07.384c.192 1.06 1.107 1.836 2.184 1.853.877.014 1.683-.48 2.067-1.27l.043-.087c.239-.492.74-.8 1.287-.792l.188.004c.333.005.601.273.607.606l.003.224c.012.77.635 1.393 1.406 1.406 1.191.019 2.161-.952 2.142-2.142l-.016-1.011c0-.036.022-.068.057-.08.236-.075.44-.199.605-.355.187.606.288 1.25.288 1.919 0 1.204-.327 2.332-.898 3.299l-.048.005-4.491.612c-.27.037-.546-.014-.785-.147-1.275-.709-2.859-.534-3.95.435l-.69.615c-1.313-1.19-2.138-2.908-2.138-4.819Z"/></svg>