<svg  viewBox="0 0 18 18" fill="none" xmlns="http://www.w3.org/2000/svg">
<path d="M11.3276 2.66205C10.602 2.39551 9.818 2.25 9 2.25C6.29721 2.25 3.96544 3.83854 2.8874 6.1329M11.3276 2.66205C13.9087 3.61023 15.75 6.09008 15.75 9C15.75 9.4788 15.7001 9.94595 15.6054 10.3965M11.3276 2.66205V3.59352C11.3276 4.16032 10.8681 4.61981 10.3013 4.6198C9.73452 4.6198 9.27505 5.07928 9.27505 5.64607V5.68401C9.27505 6.01377 9.12217 6.32491 8.86113 6.52641L8.43107 6.8584C8.20269 7.03469 8.06895 7.30954 8.06895 7.59805C8.06895 8.11224 8.48579 8.53448 8.99998 8.53448L10.3966 8.53448H11.3276C12.0989 8.53448 12.7241 9.15974 12.7241 9.93103V10.3965H15.6054M2.8874 6.1329C2.47852 7.00312 2.25 7.97487 2.25 9C2.25 12.65 5.1471 15.6234 8.76725 15.7461M2.8874 6.1329L5.88826 8.75489C6.23846 9.0584 6.43965 9.499 6.43965 9.96243V10.3966C6.43965 11.0393 6.9607 11.5604 7.60345 11.5603C8.2462 11.5603 8.76725 12.0814 8.76725 12.7241V15.7461M8.76725 15.7461C8.84451 15.7487 8.9221 15.75 9 15.75C12.2491 15.75 14.9621 13.4544 15.6054 10.3965" stroke="currentColor" />
</svg>
