<svg xmlns="http://www.w3.org/2000/svg" viewBox="0 0 16 16"><path fill-rule="evenodd" d="M1 8c0-3.866 3.134-7 7-7s7 3.134 7 7-3.134 7-7 7-7-3.134-7-7Zm7-5.5c-3.038 0-5.5 2.462-5.5 5.5 0 1.758.825 3.324 2.109 4.33l.641-.641c.961-.96 2.458-1.131 3.61-.411.186.116.41.158.625.118l3.259-.611c.48-.817.756-1.769.756-2.785 0-.263-.018-.522-.054-.775l-.018.006c-.106.036-.178.135-.178.248v.771c0 1.105-.895 2-2 2-.76 0-1.375-.616-1.375-1.375v-.375c0-.138-.112-.25-.25-.25h-.507c-.401 0-.768.227-.947.585l-.123.246c-.358.716-1.09 1.169-1.892 1.169-1.033 0-1.916-.747-2.086-1.767l-.059-.353c-.205-1.232.516-2.43 1.7-2.824l.75-.25c.173-.058.289-.22.289-.4 0-.757.443-1.443 1.132-1.753l.8-.361c-.223-.028-.45-.042-.682-.042Zm2.769.747-2.27 1.023c-.152.068-.249.219-.249.385 0 .827-.53 1.562-1.314 1.824l-.75.25c-.484.16-.779.65-.695 1.154l.059.353c.05.297.306.514.606.514.233 0 .446-.132.55-.34l.123-.245c.434-.867 1.32-1.415 2.29-1.415h.506c.966 0 1.75.784 1.75 1.75v.234c.216-.055.375-.251.375-.484v-.771c0-.758.485-1.431 1.204-1.67l.08-.028c-.47-1.064-1.267-1.952-2.265-2.534Zm-2.769 10.253c-.723 0-1.414-.14-2.046-.393l.357-.357c.467-.467 1.194-.55 1.754-.2.505.316 1.11.43 1.697.32l1.178-.22c-.85.538-1.859.85-2.94.85Z"/></svg>