<svg xmlns="http://www.w3.org/2000/svg" viewBox="0 0 16 16"><path fill-rule="evenodd" d="M11.629 1.511c.408.071.68.46.61.868l-.413 2.371h2.174c.414 0 .75.336.75.75s-.336.75-.75.75h-2.434l-.61 3.5h2.544c.414 0 .75.336.75.75s-.336.75-.75.75h-2.804l-.457 2.629c-.071.408-.46.681-.868.61-.408-.07-.68-.46-.61-.867l.413-2.372h-3.478l-.457 2.629c-.071.408-.46.681-.868.61-.408-.07-.68-.46-.61-.867l.413-2.372h-2.174c-.414 0-.75-.336-.75-.75s.336-.75.75-.75h2.434l.61-3.5h-2.544c-.414 0-.75-.336-.75-.75s.336-.75.75-.75h2.804l.457-2.628c.071-.408.46-.682.867-.61.409.07.682.459.61.867l-.412 2.371h3.478l.457-2.628c.071-.408.46-.682.868-.61Zm-2.195 8.239h-3.477l.609-3.5h3.477l-.609 3.5Z"/><path d="M13.5 15c.828 0 1.5-.672 1.5-1.5s-.672-1.5-1.5-1.5-1.5.672-1.5 1.5.672 1.5 1.5 1.5Z"/></svg>