<svg xmlns="http://www.w3.org/2000/svg" viewBox="0 0 20 20"><path fill-rule="evenodd" d="M2.5 7.25c0-.414.336-.75.75-.75h14c.414 0 .75.336.75.75s-.336.75-.75.75h-14c-.414 0-.75-.336-.75-.75Z"/><path fill-rule="evenodd" d="M14.379 2.011c.408.071.68.46.61.868l-2.53 14.547c-.071.408-.46.681-.867.61-.409-.07-.682-.459-.61-.867l2.53-14.547c.07-.409.458-.682.867-.61Z"/><path fill-rule="evenodd" d="M2 12.75c0-.414.336-.75.75-.75h14c.414 0 .75.336.75.75s-.336.75-.75.75h-14c-.414 0-.75-.336-.75-.75Z"/><path fill-rule="evenodd" d="M8.379 2.011c.408.071.68.46.61.868l-2.53 14.547c-.071.408-.46.681-.868.61-.408-.07-.68-.459-.61-.867l2.53-14.547c.071-.409.46-.682.868-.61Z"/></svg>