<svg xmlns="http://www.w3.org/2000/svg" viewBox="0 0 16 16"><path fill-rule="evenodd" d="M12.239 2.379c.07-.408-.202-.797-.61-.868-.409-.07-.797.203-.868.61l-.457 2.629h-3.478l.413-2.371c.07-.408-.202-.797-.61-.868-.409-.07-.797.203-.868.61l-.457 2.629h-2.804c-.414 0-.75.336-.75.75s.336.75.75.75h2.543l-.609 3.5h-2.434c-.414 0-.75.336-.75.75s.336.75.75.75h2.174l-.413 2.372c-.07.408.202.796.61.867.409.071.797-.202.868-.61l.457-2.629h3.478l-.413 2.372c-.07.408.202.796.61.867.409.071.797-.202.868-.61l.457-2.629h2.804c.414 0 .75-.336.75-.75s-.336-.75-.75-.75h-2.543l.609-3.5h2.434c.414 0 .75-.336.75-.75s-.336-.75-.75-.75h-2.174l.413-2.371Zm-6.282 7.371h3.477l.61-3.5h-3.478l-.61 3.5Z"/></svg>