<svg xmlns="http://www.w3.org/2000/svg" viewBox="0 0 20 20"><path fill-rule="evenodd" d="M14.239 4.379a.75.75 0 1 0-1.478-.257l-.457 2.628h-3.478l.413-2.371a.75.75 0 0 0-1.478-.257l-.457 2.628h-2.804a.75.75 0 0 0 0 1.5h2.543l-.609 3.5h-2.434a.75.75 0 0 0 0 1.5h2.174l-.413 2.372a.75.75 0 1 0 1.478.257l.457-2.629h3.478l-.413 2.372a.75.75 0 1 0 1.478.257l.457-2.629h2.804a.75.75 0 0 0 0-1.5h-2.543l.609-3.5h2.434a.75.75 0 0 0 0-1.5h-2.174l.413-2.371Zm-6.282 7.371h3.477l.61-3.5h-3.478l-.61 3.5Z"/></svg>