<svg viewBox="0 0 20 20" xmlns="http://www.w3.org/2000/svg"><path fill-rule="evenodd" d="M3.188 4.922a3.96 3.96 0 0 0 0 5.656l1.61 1.588.002.002c-.01.012.01-.012 0 0l4.849 4.782a.5.5 0 0 0 .702 0l6.461-6.371a3.961 3.961 0 0 0 0-5.657 4.097 4.097 0 0 0-5.736 0l-.725.714a.5.5 0 0 1-.702 0l-.725-.714a4.097 4.097 0 0 0-5.736 0Zm6.812 10.267-5.759-5.679a2.461 2.461 0 0 1 0-3.52c1-.987 2.63-.987 3.63 0l.725.714a2 2 0 0 0 2.808 0l.725-.714c1-.986 2.63-.986 3.63 0a2.46 2.46 0 0 1 0 3.52l-5.759 5.68Z" fill="#5C5F62"/></svg>