<svg xmlns="http://www.w3.org/2000/svg" viewBox="0 0 20 20"><path fill-rule="evenodd" d="M8.315 5.203c-1.16-1.27-3.009-1.27-4.168 0-1.196 1.31-1.196 3.46 0 4.77l5.853 6.414 5.853-6.413c1.196-1.31 1.196-3.46 0-4.771-1.16-1.27-3.009-1.27-4.168 0l-1.131 1.239c-.142.156-.343.244-.554.244-.21 0-.412-.088-.554-.244l-1.13-1.239Zm-5.276-1.011c1.754-1.923 4.63-1.923 6.384 0l.577.632.577-.632c1.754-1.923 4.63-1.923 6.384 0 1.719 1.883 1.719 4.91 0 6.793l-6.038 6.616c-.495.543-1.35.543-1.846 0l-6.038-6.616c-1.719-1.883-1.719-4.91 0-6.793Z"/></svg>