<svg xmlns="http://www.w3.org/2000/svg" viewBox="0 0 20 20"><path fill-rule="evenodd" d="m15.064 3.768-.005.005-11.286 11.287-.005.005c-.288.293-.286.764.005 1.055.293.293.768.293 1.06 0l.644-.644c1.236.75 2.747 1.274 4.523 1.274 2.876 0 5.057-1.376 6.5-2.85.721-.738 1.27-1.51 1.641-2.175.186-.332.332-.644.434-.92.094-.257.175-.545.175-.805s-.08-.548-.175-.805c-.102-.275-.248-.589-.434-.92-.372-.665-.92-1.437-1.641-2.175-.262-.268-.55-.532-.86-.786l.48-.48c.293-.293.293-.768 0-1.06-.291-.292-.762-.294-1.056-.006Zm-5.064 11.482c-1.31 0-2.453-.346-3.424-.872l1.472-1.472c.06.04.12.077.181.114.52.305 1.125.48 1.771.48 1.933 0 3.5-1.567 3.5-3.5 0-.646-.175-1.252-.48-1.771-.037-.062-.075-.122-.114-.18l1.667-1.668c.31.243.595.503.855.769.624.637 1.094 1.302 1.404 1.857.155.277.266.519.335.708.065.174.08.264.082.282v.006c-.003.018-.017.108-.081.282-.07.19-.18.43-.336.708-.31.555-.78 1.22-1.404 1.857-1.249 1.276-3.067 2.4-5.428 2.4Zm2-5.25c0 1.105-.895 2-2 2-.226 0-.443-.037-.645-.106l2.539-2.54c.069.203.106.42.106.646Z"/><path d="M12.946 3.765c-.883-.32-1.865-.515-2.946-.515-2.875 0-5.057 1.376-6.5 2.85-.721.738-1.27 1.51-1.64 2.174-.187.332-.333.646-.435.921-.094.257-.175.545-.175.805s.08.548.175.805c.102.276.248.588.434.92.312.559.75 1.193 1.309 1.819l1.062-1.063c-.456-.52-.811-1.04-1.062-1.488-.155-.277-.266-.519-.335-.708-.065-.174-.08-.264-.082-.282v-.006c.003-.018.017-.108.082-.282.07-.19.18-.43.335-.708.31-.555.78-1.22 1.404-1.857 1.249-1.276 3.067-2.4 5.428-2.4.62 0 1.202.077 1.747.215l1.199-1.2Z"/></svg>