<svg xmlns="http://www.w3.org/2000/svg" viewBox="0 0 16 16"><path d="M9.977 2.751c-.596-.16-1.253-.251-1.977-.251-2.444 0-4.196 1.045-5.325 2.233-.561.59-.971 1.216-1.243 1.773-.26.532-.432 1.076-.432 1.494 0 .418.171.962.432 1.494.172.353.4.733.687 1.115l1.074-1.074c-.17-.243-.307-.481-.414-.7-.221-.453-.279-.753-.279-.835 0-.082.058-.382.279-.835.21-.427.533-.926.983-1.398.89-.937 2.264-1.767 4.238-1.767.24 0 .471.012.693.036l1.284-1.285Z"/><path fill-rule="evenodd" d="M2.25 12.6c-.286.294-.283.763.007 1.053.293.293.768.293 1.06 0l1.062-1.061c.975.543 2.177.908 3.621.908 2.45 0 4.142-1.05 5.24-2.242 1.078-1.17 1.588-2.476 1.738-3.076.03-.12.03-.245 0-.364-.15-.6-.66-1.906-1.738-3.076-.158-.171-.328-.34-.51-.502l.923-.923c.293-.292.293-.767 0-1.06-.29-.29-.76-.293-1.053-.008l-.008.008-10.335 10.336-.008.007Zm5.75-.6c-.978 0-1.809-.204-2.506-.523l1.108-1.109c.41.242.888.382 1.398.382 1.519 0 2.75-1.232 2.75-2.75 0-.51-.14-.989-.381-1.398l1.298-1.299c.17.147.326.3.47.455.768.835 1.175 1.756 1.332 2.242-.157.486-.564 1.407-1.332 2.242-.86.933-2.17 1.758-4.137 1.758Zm0-2.75c-.087 0-.172-.01-.254-.026l1.478-1.478c.017.082.026.167.026.254 0 .69-.56 1.25-1.25 1.25Z"/></svg>