<svg xmlns="http://www.w3.org/2000/svg" viewBox="0 0 12 12"><path d="M7.54 1.782c-.48-.155-.993-.246-1.54-.246-3.113 0-5.166 2.932-5.869 4.116-.18.303-.175.67.014.968.232.365.604.898 1.107 1.451l.885-.885c-.35-.39-.627-.769-.827-1.068.339-.544.911-1.348 1.682-2.034.856-.762 1.864-1.298 3.008-1.298.17 0 .338.012.502.035l1.039-1.039Z"/><path fill-rule="evenodd" d="m7.833 3.258.917-.917.783-.783c.244-.244.64-.244.884 0s.244.64 0 .884l-.647.647c1.027.894 1.74 1.957 2.099 2.563.18.303.175.67-.014.968-.715 1.126-2.762 3.844-5.855 3.844-1.066 0-2.007-.323-2.813-.792l-.77.77c-.244.244-.64.244-.884 0s-.244-.64 0-.884l.619-.618.887-.889.982-.98.983-.984 1.083-1.083.983-.984.763-.762Zm1.05.718-.921.921c.183.326.288.702.288 1.103 0 1.243-1.007 2.25-2.25 2.25-.4 0-.777-.105-1.103-.288l-.788.788c.576.288 1.208.464 1.891.464 1.162 0 2.173-.508 3.02-1.212.761-.632 1.33-1.374 1.67-1.884-.338-.544-.911-1.348-1.682-2.034-.041-.037-.083-.073-.125-.108Zm-1.892 1.892-1.123 1.123c.043.006.087.009.132.009.552 0 1-.448 1-1 0-.045-.003-.089-.009-.132Z"/></svg>