<svg xmlns="http://www.w3.org/2000/svg" viewBox="0 0 20 20"><path fill-rule="evenodd" d="M7.42 3.5h5.16c.535 0 .98 0 1.345.03.38.03.736.098 1.073.27.518.263.939.684 1.202 1.202.172.337.24.693.27 1.073.03.365.03.81.03 1.345v5.16c0 .535 0 .98-.03 1.345-.03.38-.098.736-.27 1.073-.263.518-.684.939-1.201 1.202-.338.172-.694.24-1.074.27-.365.03-.81.03-1.345.03h-5.16c-.535 0-.98 0-1.345-.03-.38-.03-.736-.098-1.073-.27-.518-.263-.939-.684-1.202-1.201-.172-.338-.24-.694-.27-1.074-.03-.365-.03-.81-.03-1.345v-5.16c0-.535 0-.98.03-1.345.03-.38.098-.736.27-1.073.263-.518.684-.939 1.202-1.202.337-.172.693-.24 1.073-.27.365-.03.81-.03 1.345-.03Zm6.898 1.636c-.091-.046-.228-.088-.515-.111-.296-.024-.68-.025-1.253-.025h-1.092l.189.113 3.353 2.17c0-.482-.003-.82-.025-1.086-.023-.287-.065-.424-.111-.514-.12-.236-.311-.427-.546-.547Zm.682 3.934-4.147-2.683-.103-.062v1.843c.05.018.1.041.148.071l4.102 2.564v-1.733Zm0 3.502-4.25-2.656v1.66l4.188 2.512c.015-.074.028-.167.037-.285.024-.293.025-.67.025-1.231Zm-1.473 2.419-2.777-1.666v1.675h1.8c.41 0 .723 0 .977-.01Zm-4.277.009v-10h-1.8c-.572 0-.957 0-1.253.025-.287.023-.424.065-.514.111-.236.12-.427.311-.547.547-.046.09-.088.227-.111.514-.024.296-.025.68-.025 1.253v5.1c0 .572 0 .957.025 1.252.023.288.065.425.111.516.12.235.311.426.547.546.09.046.227.088.514.111.296.024.68.025 1.253.025h1.8Z" clip-rule="evenodd" style="fill:color(display-p3 .2902 .2902 .2902);fill-opacity:1"/></svg>