<svg viewBox="0 0 20 20" xmlns="http://www.w3.org/2000/svg"><path d="M10.75 2.75a.75.75 0 0 0-1.5 0v.5a.75.75 0 0 0 1.5 0v-.5Z" fill="#5C5F62"/><path d="M4.52 4.167a.75.75 0 0 1 1.06 0l.354.353a.75.75 0 0 1-1.06 1.06l-.354-.353a.75.75 0 0 1 0-1.06Z" fill="#5C5F62"/><path fill-rule="evenodd" d="M13.746 12.671a.897.897 0 0 1-.715.329h-6.062a.897.897 0 0 1-.715-.329 4.75 4.75 0 1 1 7.491 0Zm-1.007-1.171a3.25 3.25 0 1 0-5.479 0h5.48Z" fill="#5C5F62"/><path d="M16 9.75a.75.75 0 0 1 .75-.75h.5a.75.75 0 0 1 0 1.5h-.5a.75.75 0 0 1-.75-.75Z" fill="#5C5F62"/><path d="M2.75 9a.75.75 0 0 0 0 1.5h.5a.75.75 0 0 0 0-1.5h-.5Z" fill="#5C5F62"/><path d="M15.657 4.343a.75.75 0 0 1 0 1.061l-.354.354a.75.75 0 0 1-1.06-1.061l.353-.354a.75.75 0 0 1 1.06 0Z" fill="#5C5F62"/><path d="M8.92 14.415a.75.75 0 1 0-1.34.67l.75 1.5a.75.75 0 0 0 .67.415h2a.75.75 0 0 0 .67-.414l.75-1.5a.75.75 0 1 0-1.34-.671l-.543 1.085h-1.073l-.543-1.085Z" fill="#5C5F62"/></svg>