<svg xmlns="http://www.w3.org/2000/svg" viewBox="0 0 20 21"><path fill-rule="evenodd" d="M8.2 3.176c.984-1.02 2.617-1.02 3.6 0l4.83 5.008c.718.746 1.12 1.741 1.12 2.777v4.539c0 1.657-1.343 3-3 3h-2.25c-.966 0-1.75-.784-1.75-1.75v-2.75h-1.5v2.75c0 .966-.784 1.75-1.75 1.75h-2.25c-1.657 0-3-1.343-3-3v-4.54c0-1.035.402-2.03 1.12-2.776l4.83-5.008Zm2.16 1.388c-.197-.204-.523-.204-.72 0l-4.83 5.009c-.36.372-.56.87-.56 1.388v4.539c0 .552.448 1 1 1h2v-2.75c0-.966.784-1.75 1.75-1.75h2c.966 0 1.75.784 1.75 1.75v2.75h2c.552 0 1-.448 1-1v-4.54c0-.517-.2-1.015-.56-1.387l-4.83-5.01Z" clip-rule="evenodd"/></svg>