<svg xmlns="http://www.w3.org/2000/svg" viewBox="0 0 20 20"><path fill-rule="evenodd" d="M8.38 2.6c.885-.918 2.355-.918 3.24 0l4.83 5.008c.673.699 1.05 1.632 1.05 2.603v4.54c0 1.518-1.231 2.75-2.75 2.75h-2.25c-.828 0-1.5-.673-1.5-1.5v-3h-2v3c0 .827-.672 1.5-1.5 1.5h-2.25c-1.519 0-2.75-1.232-2.75-2.75v-4.54c0-.971.377-1.904 1.05-2.603l4.83-5.009Zm2.16 1.04c-.295-.305-.785-.305-1.08 0l-4.83 5.01c-.404.418-.63.978-.63 1.56v4.54c0 .69.56 1.25 1.25 1.25h2.25v-3c0-.828.672-1.5 1.5-1.5h2c.828 0 1.5.672 1.5 1.5v3h2.25c.69 0 1.25-.56 1.25-1.25v-4.54c0-.582-.226-1.142-.63-1.56l-4.83-5.01Z"/></svg>