<svg xmlns="http://www.w3.org/2000/svg" viewBox="0 0 16 16"><path fill-rule="evenodd" d="M6.344 1.692c.891-.969 2.42-.969 3.312 0l3.854 4.19c.637.691.99 1.598.99 2.538v3.33c0 1.519-1.231 2.75-2.75 2.75h-1.75c-.828 0-1.5-.672-1.5-1.5v-2h-1v2c0 .828-.672 1.5-1.5 1.5h-1.75c-1.519 0-2.75-1.231-2.75-2.75v-3.33c0-.94.353-1.847.99-2.539l3.854-4.189Zm2.208 1.016c-.297-.323-.807-.323-1.104 0l-3.854 4.189c-.382.415-.594.959-.594 1.523v3.33c0 .69.56 1.25 1.25 1.25h1.75v-2c0-.828.672-1.5 1.5-1.5h1c.828 0 1.5.672 1.5 1.5v2h1.75c.69 0 1.25-.56 1.25-1.25v-3.33c0-.564-.212-1.108-.594-1.523l-3.854-4.19Z"/></svg>