<svg viewBox="0 0 20 20" xmlns="http://www.w3.org/2000/svg"><path fill-rule="evenodd" d="M8.409 3.53a2.25 2.25 0 0 1 3.182 0l4.31 4.311a3.75 3.75 0 0 1 1.099 2.652v3.757a2.75 2.75 0 0 1-2.75 2.75h-1.75a1.5 1.5 0 0 1-1.5-1.5v-2.5h-2v2.5a1.5 1.5 0 0 1-1.5 1.5h-1.75a2.75 2.75 0 0 1-2.75-2.75v-3.757a3.75 3.75 0 0 1 1.098-2.652l4.311-4.31Zm2.121 1.061a.75.75 0 0 0-1.06 0l-4.311 4.31a2.25 2.25 0 0 0-.659 1.592v3.757c0 .69.56 1.25 1.25 1.25h1.75v-2.5a1.5 1.5 0 0 1 1.5-1.5h2a1.5 1.5 0 0 1 1.5 1.5v2.5h1.75c.69 0 1.25-.56 1.25-1.25v-3.757a2.25 2.25 0 0 0-.659-1.591l-4.31-4.311Z" fill="#5C5F62"/></svg>