<svg xmlns="http://www.w3.org/2000/svg" viewBox="0 0 20 20">
<path d="M10 13L13.3333 11.3333L11.6667 10.5L10 9.66667L13.3333 8L16.6667 9.66667L20 8L10 3L6.66667 4.66667L10 6.33333L6.66667 8L3.33333 6.33333L0 8L10 13Z" fill="#5C5F62"/>
<path fill-rule="evenodd" clip-rule="evenodd" d="M2.2086 11L10.0005 14.8959L11.1252 14.3336L11.6667 14.6043L12.2361 14.889L13.3333 15.4376L11.0973 16.5557L10 17.1043L2.23607 13.2223L0 12.1043L2.2086 11ZM14.4585 12.6669L16.6667 13.771L17.7639 13.2223L20 12.1043L17.7919 11.0002L14.4585 12.6669Z" fill="#5C5F62"/>
</svg>
