<svg xmlns="http://www.w3.org/2000/svg" viewBox="0 0 20 20"><path fill-rule="evenodd" d="M8.243 15.75h-3.493c-.966 0-1.75-.784-1.75-1.75v-5.354c-.622-.705-1-1.632-1-2.646 0-2.21 1.79-4 4-4 1.582 0 2.949.918 3.598 2.25h5.652c.966 0 1.75.784 1.75 1.75v8c0 .648-.353 1.214-.877 1.517l.778 1.36c.133.233.132.518-.002.75-.134.23-.382.373-.649.373h-8c-.267 0-.514-.142-.649-.374-.134-.23-.135-.516-.002-.748l.644-1.128Zm-2.243-7.25c1.38 0 2.5-1.12 2.5-2.5s-1.12-2.5-2.5-2.5-2.5 1.12-2.5 2.5 1.12 2.5 2.5 2.5Zm0 1.5c2.21 0 4-1.79 4-4 0-.084-.003-.167-.008-.25h5.258c.138 0 .25.112.25.25v8c0 .09-.049.17-.121.214l-2.478-4.336c-.133-.234-.382-.378-.651-.378-.27 0-.518.144-.651.378l-2.499 4.372h-4.35c-.138 0-.25-.112-.25-.25v-4.29c.463.187.97.29 1.5.29Zm6.25 1.762 2.708 4.738h-5.416l2.708-4.738Z"/></svg>