<svg xmlns="http://www.w3.org/2000/svg" viewBox="0 0 20 20"><path fill-rule="evenodd" d="M16.123 15.517c.524-.303.877-.869.877-1.517v-8c0-.966-.784-1.75-1.75-1.75h-5.652c-.65-1.332-2.016-2.25-3.598-2.25-2.21 0-4 1.79-4 4 0 1.014.378 1.94 1 2.646v5.354c0 .966.784 1.75 1.75 1.75h3.493l-.644 1.128c-.133.232-.132.517.002.748.135.232.382.374.649.374h8c.267 0 .515-.142.649-.374.134-.23.135-.516.002-.748l-.778-1.361Zm-6.123-9.517c0 2.21-1.79 4-4 4-.53 0-1.037-.103-1.5-.29v4.29c0 .138.112.25.25.25h4.35l2.499-4.372c.133-.234.382-.378.651-.378.27 0 .518.144.651.378l2.478 4.336c.072-.044.121-.123.121-.214v-8c0-.138-.112-.25-.25-.25h-5.258c.005.083.008.166.008.25Z"/></svg>