<svg xmlns="http://www.w3.org/2000/svg" viewBox="0 0 16 16"><path fill-rule="evenodd" d="M13.219 12.708c.47-.314.781-.85.781-1.458v-6.5c0-.966-.784-1.75-1.75-1.75h-4.587c-.562-1.182-1.767-2-3.163-2-1.933 0-3.5 1.567-3.5 3.5 0 .954.381 1.818 1 2.45v4.3c0 .966.784 1.75 1.75 1.75h2.36l-.508.872c-.135.232-.136.519-.002.752.133.232.381.376.65.376h7c.268 0 .517-.144.65-.377.134-.232.133-.519-.002-.75l-.68-1.165Zm-5.219-8.208c0 1.933-1.567 3.5-3.5 3.5-.347 0-.683-.05-1-.145v3.395c0 .138.112.25.25.25h3.236l2.116-3.628c.135-.23.381-.372.648-.372s.513.142.648.372l2.055 3.524c.03-.041.047-.092.047-.146v-6.5c0-.138-.112-.25-.25-.25h-4.25Z"/></svg>