<svg xmlns="http://www.w3.org/2000/svg" viewBox="0 0 16 16"><path fill-rule="evenodd" d="M6.11 13h-2.36c-.966 0-1.75-.784-1.75-1.75v-4.3c-.619-.632-1-1.496-1-2.45 0-1.933 1.567-3.5 3.5-3.5 1.396 0 2.601.818 3.163 2h4.587c.966 0 1.75.784 1.75 1.75v6.5c0 .608-.31 1.144-.781 1.458l.679 1.164c.135.232.136.519.002.752-.133.232-.382.376-.65.376h-7c-.269 0-.517-.144-.65-.377-.134-.232-.133-.519.002-.75l.509-.873Zm-1.61-6.5c1.105 0 2-.895 2-2s-.895-2-2-2-2 .895-2 2 .895 2 2 2Zm0 1.5c1.933 0 3.5-1.567 3.5-3.5h4.25c.138 0 .25.112.25.25v6.5c0 .054-.017.105-.047.146l-2.055-3.524c-.135-.23-.381-.372-.648-.372s-.513.142-.648.372l-2.116 3.628h-3.236c-.138 0-.25-.112-.25-.25v-3.395c.317.094.653.145 1 .145Zm5.25 1.738 2.194 3.762h-4.388l2.194-3.762Z"/></svg>