<svg xmlns="http://www.w3.org/2000/svg" viewBox="0 0 20 20"><path fill-rule="evenodd" d="M8.528 4.25h2.944c.822 0 1.469 0 1.99.043.53.043.974.133 1.377.338a3.5 3.5 0 0 1 1.53 1.53c.205.403.295.847.338 1.378.043.52.043 1.168.043 1.989v.944c0 .822 0 1.469-.043 1.99-.043.53-.133.974-.338 1.377a3.5 3.5 0 0 1-1.53 1.53c-.403.205-.847.295-1.378.338-.52.043-1.168.043-1.989.043h-2.944c-.821 0-1.468 0-1.99-.043-.53-.043-.974-.133-1.377-.339a3.5 3.5 0 0 1-1.53-1.529c-.205-.403-.295-.847-.338-1.378-.043-.52-.043-1.168-.043-1.989v-.944c0-.821 0-1.468.043-1.99.043-.53.133-.974.338-1.377a3.5 3.5 0 0 1 1.53-1.53c.403-.205.847-.295 1.378-.338.52-.043 1.168-.043 1.989-.043Zm4.097 10.244a5.748 5.748 0 0 0-7.478-.665c.169.171.365.315.582.426.197.1.458.17.912.207.462.037 1.057.038 1.909.038h2.9c.46 0 .845 0 1.175-.006Zm-4.125-3.994a2 2 0 1 0 0-4 2 2 0 0 0 0 4Zm3.25-1.75a.75.75 0 0 1 .75-.75h1.25a.75.75 0 0 1 0 1.5h-1.25a.75.75 0 0 1-.75-.75Zm0 2.25a.75.75 0 0 1 .75-.75h1.25a.75.75 0 0 1 0 1.5h-1.25a.75.75 0 0 1-.75-.75Z"/></svg>