<svg xmlns="http://www.w3.org/2000/svg" viewBox="0 0 20 20"><path fill-rule="evenodd" d="M7.518 3h4.964c.813 0 1.469 0 2 .043.546.045 1.026.14 1.47.366.706.36 1.28.933 1.64 1.639.226.444.32.924.365 1.47.043.531.043 1.187.043 2v2.964c0 .813 0 1.469-.043 2-.045.546-.14 1.026-.366 1.47-.36.706-.933 1.28-1.639 1.64-.444.226-.924.32-1.47.365-.531.043-1.187.043-2 .043h-4.964c-.813 0-1.469 0-2-.043-.546-.045-1.026-.14-1.47-.366-.706-.36-1.28-.933-1.64-1.639-.226-.444-.32-.924-.365-1.47-.043-.531-.043-1.187-.043-2v-2.964c0-.813 0-1.469.043-2 .045-.546.14-1.026.366-1.47.36-.706.933-1.28 1.639-1.64.444-.226.924-.32 1.47-.365.531-.043 1.187-.043 2-.043Zm-2.518 5.5c0-1.38 1.12-2.5 2.5-2.5s2.5 1.12 2.5 2.5-1.12 2.5-2.5 2.5-2.5-1.12-2.5-2.5Zm7.388 6.936c.016.02.03.042.042.064h-4.88c-.852 0-1.447 0-1.91-.038-.453-.037-.714-.107-.911-.207-.42-.214-.763-.555-.979-.974 1.062-.821 2.38-1.281 3.75-1.281 1.919 0 3.736.902 4.888 2.436Zm-.388-6.644c0-.415.336-.75.75-.75h1.786c.414 0 .75.335.75.75 0 .414-.336.75-.75.75h-1.786c-.414 0-.75-.336-.75-.75Zm.75 1.708c-.414 0-.75.336-.75.75s.336.75.75.75h1.79c.415 0 .75-.336.75-.75s-.335-.75-.75-.75h-1.79Z"/></svg>