<svg xmlns="http://www.w3.org/2000/svg" viewBox="0 0 16 16"><path d="M9.75 9c0-.414.336-.75.75-.75h1.25c.414 0 .75.336.75.75s-.336.75-.75.75h-1.25c-.414 0-.75-.336-.75-.75Z"/><path d="M10.5 6c-.414 0-.75.336-.75.75s.336.75.75.75h1.25c.414 0 .75-.336.75-.75s-.336-.75-.75-.75h-1.25Z"/><path fill-rule="evenodd" d="M6 9.5c1.38 0 2.5-1.12 2.5-2.5s-1.12-2.5-2.5-2.5-2.5 1.12-2.5 2.5 1.12 2.5 2.5 2.5Zm0-1.5c.552 0 1-.448 1-1s-.448-1-1-1-1 .448-1 1 .448 1 1 1Z"/><path fill-rule="evenodd" d="M6.518 2h2.964c.813 0 1.469 0 2 .043.546.045 1.026.14 1.47.366.706.36 1.28.933 1.64 1.639.226.444.32.924.365 1.47.043.531.043 1.187.043 2v.964c0 .813 0 1.469-.043 2-.045.546-.14 1.026-.366 1.47-.36.706-.933 1.28-1.638 1.64-.445.226-.925.32-1.471.365-.531.043-1.187.043-2 .043h-2.964c-.813 0-1.469 0-2-.043-.546-.045-1.026-.14-1.47-.366-.706-.36-1.28-.933-1.64-1.638-.226-.445-.32-.925-.365-1.471-.043-.531-.043-1.187-.043-2v-.964c0-.813 0-1.469.043-2 .045-.546.14-1.026.366-1.47.36-.706.933-1.28 1.639-1.64.444-.226.924-.32 1.47-.365.531-.043 1.187-.043 2-.043Zm-1.877 1.538c-.454.037-.715.107-.912.207-.424.216-.768.56-.984.984-.1.197-.17.458-.207.912-.037.462-.038 1.057-.038 1.909v.9c0 .852 0 1.447.038 1.91.02.244.05.432.088.584.438-.266.907-.48 1.399-.637.925-.295 1.905-.379 2.868-.245.962.133 1.883.48 2.693 1.017.58.383 1.092.856 1.52 1.4.09-.005.173-.01.253-.017.454-.037.715-.107.912-.207.424-.216.768-.56.984-.984.1-.197.17-.458.207-.912.037-.462.038-1.057.038-1.909v-.9c0-.852 0-1.447-.038-1.91-.037-.453-.107-.714-.207-.911-.216-.424-.56-.768-.984-.984-.197-.1-.458-.17-.912-.207-.462-.037-1.056-.038-1.909-.038h-2.9c-.852 0-1.447 0-1.91.038Zm4.359 8.962c-.079-.059-.16-.116-.241-.17-.624-.413-1.332-.68-2.072-.783-.74-.102-1.494-.038-2.207.19-.327.104-.642.242-.94.41.06.039.124.075.189.108.197.1.458.17.912.207.462.037 1.057.038 1.909.038h2.45Z"/><path fill-rule="evenodd" d="M6 6c-.552 0-1 .448-1 1s.448 1 1 1 1-.448 1-1-.448-1-1-1Zm-2.5 1c0-1.38 1.12-2.5 2.5-2.5s2.5 1.12 2.5 2.5-1.12 2.5-2.5 2.5-2.5-1.12-2.5-2.5Z"/></svg>