<svg xmlns="http://www.w3.org/2000/svg" viewBox="0 0 20 20"><path d="M12 11.25c0-.414.336-.75.75-.75h1.79c.415 0 .75.336.75.75s-.335.75-.75.75h-1.79c-.414 0-.75-.336-.75-.75Z"/><path d="M12.75 8.042c-.414 0-.75.335-.75.75 0 .414.336.75.75.75h1.786c.414 0 .75-.336.75-.75 0-.415-.336-.75-.75-.75h-1.786Z"/><path fill-rule="evenodd" d="M4.75 8.5c0-1.519 1.231-2.75 2.75-2.75s2.75 1.231 2.75 2.75-1.231 2.75-2.75 2.75-2.75-1.231-2.75-2.75Zm2.75-1.25c-.69 0-1.25.56-1.25 1.25s.56 1.25 1.25 1.25 1.25-.56 1.25-1.25-.56-1.25-1.25-1.25Z"/><path fill-rule="evenodd" d="M7.518 3h4.964c.813 0 1.469 0 2 .043.546.045 1.026.14 1.47.366.706.36 1.28.933 1.64 1.639.226.444.32.924.365 1.47.043.531.043 1.187.043 2v2.964c0 .813 0 1.469-.043 2-.045.546-.14 1.026-.366 1.47-.36.706-.933 1.28-1.639 1.64-.444.226-.924.32-1.47.365-.531.043-1.187.043-2 .043h-4.964c-.813 0-1.469 0-2-.043-.546-.045-1.026-.14-1.47-.366-.706-.36-1.28-.933-1.64-1.639-.226-.444-.32-.924-.365-1.47-.043-.531-.043-1.187-.043-2v-2.964c0-.813 0-1.469.043-2 .045-.546.14-1.026.366-1.47.36-.706.933-1.28 1.639-1.64.444-.226.924-.32 1.47-.365.531-.043 1.187-.043 2-.043Zm-1.877 1.538c-.454.037-.715.107-.912.207-.424.216-.768.56-.984.984-.1.197-.17.458-.207.912-.037.462-.038 1.057-.038 1.909v2.9c0 .853 0 1.447.038 1.91l.013.137c1.144-.802 2.522-1.247 3.949-1.247 2.153 0 4.193 1.012 5.488 2.736.121.16.196.336.231.512.464-.002.832-.011 1.14-.036.454-.037.715-.107.912-.207.424-.216.768-.56.984-.984.1-.197.17-.458.207-.912.037-.462.038-1.056.038-1.909v-2.9c0-.852 0-1.447-.038-1.91-.038-.453-.107-.714-.207-.911-.216-.424-.56-.768-.983-.984-.198-.1-.459-.17-.913-.207-.462-.037-1.056-.038-1.909-.038h-4.9c-.852 0-1.447 0-1.91.038Zm5.828 10.962c-1.01-1.108-2.453-1.75-3.969-1.75-1.206 0-2.367.407-3.3 1.132.157.148.334.274.529.373.197.1.458.17.912.207.462.037 1.057.038 1.909.038h3.919Z"/></svg>