<svg xmlns="http://www.w3.org/2000/svg" viewBox="0 0 20 20" fill="none"><path d="M13.828 5.28h-7.75a.397.397 0 01-.4-.401V2.636c0-.221.174-.4.4-.4h7.75a.4.4 0 01.4.4V4.88a.4.4 0 01-.4.4zM5.555 9.91a.835.835 0 01-.834.834.835.835 0 01-.834-.834c0-.461.372-.833.834-.833.462 0 .834.376.834.833zM4.72 11.545c-.8 0-1.47.556-1.653 1.3h3.308a1.711 1.711 0 00-1.654-1.3z" fill="#5C5F62"/><path fill-rule="evenodd" clip-rule="evenodd" d="M15.03 3.362h3.57c.773 0 1.405.626 1.4 1.404V16.36c0 .773-.627 1.404-1.404 1.404H1.399C.627 17.764 0 17.134 0 16.36V4.766a1.4 1.4 0 011.4-1.404h3.476v1.521c0 .66.542 1.202 1.202 1.202h7.75c.66 0 1.201-.542 1.201-1.202V3.362zM2.614 13.642h4.202c.227 0 .4-.174.391-.4 0-.952-.537-1.782-1.323-2.206.287-.292.461-.687.461-1.126a1.632 1.632 0 00-3.265 0c0 .439.18.834.457 1.127a2.516 2.516 0 00-1.324 2.204c0 .227.18.4.4.4zm6.902.669h7.868a.4.4 0 100-.801H9.517a.4.4 0 100 .8zm0-2.95h7.868a.4.4 0 100-.8H9.517a.4.4 0 100 .801zm0-2.949h7.868a.4.4 0 100-.8H9.517a.4.4 0 100 .8z" fill="#5C5F62"/></svg>