<svg xmlns="http://www.w3.org/2000/svg" viewBox="0 0 20 20"><path d="M11.75 11a.75.75 0 0 1 .75-.75h1.25a.75.75 0 0 1 0 1.5h-1.25a.75.75 0 0 1-.75-.75Z"/><path d="M12.5 8a.75.75 0 0 0 0 1.5h1.25a.75.75 0 0 0 0-1.5h-1.25Z"/><path fill-rule="evenodd" d="M8 11.5a2.5 2.5 0 1 0 0-5 2.5 2.5 0 0 0 0 5Zm0-1.5a1 1 0 1 0 0-2 1 1 0 0 0 0 2Z"/><path fill-rule="evenodd" d="M8.518 4h2.964c.813 0 1.469 0 2 .043.546.045 1.026.14 1.47.366a3.75 3.75 0 0 1 1.64 1.639c.226.444.32.924.365 1.47.043.531.043 1.187.043 2v.964c0 .813 0 1.469-.043 2-.045.546-.14 1.026-.366 1.47a3.75 3.75 0 0 1-1.639 1.64c-.444.226-.924.32-1.47.365-.531.043-1.187.043-2 .043h-2.964c-.813 0-1.469 0-2-.043-.546-.045-1.026-.14-1.47-.366a3.75 3.75 0 0 1-1.64-1.638c-.226-.445-.32-.925-.365-1.471-.043-.531-.043-1.187-.043-2v-.964c0-.813 0-1.469.043-2 .045-.546.14-1.026.366-1.47a3.75 3.75 0 0 1 1.639-1.64c.444-.226.924-.32 1.47-.365.531-.043 1.187-.043 2-.043Zm-1.877 1.538c-.454.037-.715.107-.912.207a2.25 2.25 0 0 0-.984.984c-.1.197-.17.458-.207.912-.037.462-.038 1.057-.038 1.909v.9c0 .853 0 1.447.038 1.91.02.244.05.432.088.584a6.505 6.505 0 0 1 6.96.135 6.47 6.47 0 0 1 1.52 1.4c.09-.005.173-.01.253-.017.454-.037.715-.107.912-.207a2.25 2.25 0 0 0 .984-.984c.1-.197.17-.458.207-.912.037-.462.038-1.056.038-1.909v-.9c0-.852 0-1.447-.038-1.91-.037-.453-.107-.714-.207-.911a2.25 2.25 0 0 0-.984-.984c-.197-.1-.458-.17-.912-.207-.462-.037-1.056-.038-1.909-.038h-2.9c-.852 0-1.447 0-1.91.038Zm4.359 8.962a4.989 4.989 0 0 0-2.313-.953 4.999 4.999 0 0 0-3.147.6c.06.039.124.075.189.108.197.1.458.17.912.207.462.037 1.057.038 1.909.038h2.45Z"/><path fill-rule="evenodd" d="M8 8a1 1 0 1 0 0 2 1 1 0 0 0 0-2Zm-2.5 1a2.5 2.5 0 1 1 5 0 2.5 2.5 0 0 1-5 0Z"/></svg>