<svg viewBox="0 0 20 20" xmlns="http://www.w3.org/2000/svg">
<path d="M2 2C0.895431 2 0 2.89543 0 4V15.3846C0 16.4892 0.895431 17.3846 2 17.3846H18C19.1046 17.3846 20 16.4892 20 15.3846V4C20 2.89543 19.1046 2 18 2H2ZM6.92308 7.76923C6.92308 8.6189 6.23428 9.30769 5.38462 9.30769C4.53495 9.30769 3.84615 8.6189 3.84615 7.76923C3.84615 6.91956 4.53495 6.23077 5.38462 6.23077C6.23428 6.23077 6.92308 6.91956 6.92308 7.76923ZM3.46154 13.1538C2.82429 13.1538 2.30769 12.6373 2.30769 12C2.30769 11.3627 2.88462 10.0769 5.38462 10.0769C7.88462 10.0769 8.46154 11.3627 8.46154 12C8.46154 12.6373 7.94494 13.1538 7.30769 13.1538H3.46154ZM10.7693 6.61538C10.7693 6.19055 11.1137 5.84615 11.5385 5.84615H16.9231C17.348 5.84615 17.6924 6.19055 17.6924 6.61538C17.6924 7.04022 17.348 7.38462 16.9231 7.38462H11.5385C11.1137 7.38462 10.7693 7.04022 10.7693 6.61538ZM10.7692 9.6923C10.7692 9.26747 11.1136 8.92307 11.5385 8.92307H16.9231C17.3479 8.92307 17.6923 9.26747 17.6923 9.6923C17.6923 10.1171 17.3479 10.4615 16.9231 10.4615H11.5385C11.1136 10.4615 10.7692 10.1171 10.7692 9.6923ZM11.5385 12C11.1136 12 10.7692 12.3444 10.7692 12.7692C10.7692 13.1941 11.1136 13.5385 11.5385 13.5385H15.3846C15.8095 13.5385 16.1538 13.1941 16.1538 12.7692C16.1538 12.3444 15.8095 12 15.3846 12H11.5385Z"/>
</svg>
