<svg xmlns="http://www.w3.org/2000/svg" viewBox="0 0 16 16"><path fill-rule="evenodd" d="M6.518 2h2.964c.813 0 1.469 0 2 .043.546.045 1.026.14 1.47.366.706.36 1.28.933 1.64 1.639.226.444.32.924.365 1.47.043.531.043 1.187.043 2v.964c0 .813 0 1.469-.043 2-.045.546-.14 1.026-.366 1.47-.36.706-.933 1.28-1.638 1.64-.445.226-.925.32-1.471.365-.531.043-1.187.043-2 .043h-2.964c-.813 0-1.469 0-2-.043-.546-.045-1.026-.14-1.47-.366-.706-.36-1.28-.933-1.64-1.638-.226-.445-.32-.925-.365-1.471-.043-.531-.043-1.187-.043-2v-.964c0-.813 0-1.469.043-2 .045-.546.14-1.026.366-1.47.36-.706.933-1.28 1.639-1.64.444-.226.924-.32 1.47-.365.531-.043 1.187-.043 2-.043Zm-2.643 5c0-1.174.951-2.125 2.125-2.125s2.125.951 2.125 2.125-.951 2.125-2.125 2.125-2.125-.951-2.125-2.125Zm-1.12 4.284c.018.035.037.073.058.111.217.367.534.665.916.86.197.1.458.17.912.207.443.036 1.007.038 1.804.038h3.961c.292 0 .45-.331.246-.54-.322-.33-.68-.625-1.066-.881-.81-.536-1.73-.884-2.693-1.017-.963-.134-1.943-.05-2.868.245-.375.12-.737.273-1.082.457-.192.102-.282.325-.187.52Zm6.995-2.284c0-.414.336-.75.75-.75h1.25c.414 0 .75.336.75.75s-.336.75-.75.75h-1.25c-.414 0-.75-.336-.75-.75Zm.75-3c-.414 0-.75.336-.75.75s.336.75.75.75h1.25c.414 0 .75-.336.75-.75s-.336-.75-.75-.75h-1.25Z"/></svg>