<svg xmlns="http://www.w3.org/2000/svg" viewBox="0 0 16 16"><path d="M8.75 8.25c.552 0 1-.448 1-1s-.448-1-1-1-1 .448-1 1 .448 1 1 1Z"/><path fill-rule="evenodd" d="M4.01 4.01c.122-1.406 1.302-2.51 2.74-2.51h5c1.519 0 2.75 1.231 2.75 2.75v5c0 1.438-1.104 2.618-2.51 2.74-.122 1.406-1.302 2.51-2.74 2.51h-5c-1.519 0-2.75-1.231-2.75-2.75v-5c0-1.438 1.104-2.618 2.51-2.74Zm-1.01 7.74v-.978l1.625-1.95c.094-.114.265-.121.369-.017l3.226 3.225c.293.293.767.293 1.06 0l1.22-1.22v.94c0 .69-.56 1.25-1.25 1.25h-5c-.69 0-1.25-.56-1.25-1.25Zm7.5-5v1.94l-1.75 1.75-2.695-2.696c-.728-.728-1.923-.673-2.582.117l-.473.567v-1.678c0-.69.56-1.25 1.25-1.25h5c.69 0 1.25.56 1.25 1.25Zm-4.975-2.75h3.725c1.519 0 2.75 1.231 2.75 2.75v3.725c.57-.116 1-.62 1-1.225v-5c0-.69-.56-1.25-1.25-1.25h-5c-.605 0-1.11.43-1.225 1Z"/></svg>