<svg xmlns="http://www.w3.org/2000/svg" viewBox="0 0 20 20"><path d="M12.5 9a1.5 1.5 0 1 0 0-3 1.5 1.5 0 0 0 0 3Z"/><path fill-rule="evenodd" d="M9.018 3.5h1.964c.813 0 1.469 0 2 .043.546.045 1.026.14 1.47.366a3.75 3.75 0 0 1 1.64 1.639c.226.444.32.924.365 1.47.043.531.043 1.187.043 2v1.964c0 .813 0 1.469-.043 2-.045.546-.14 1.026-.366 1.47a3.75 3.75 0 0 1-1.639 1.64c-.444.226-.924.32-1.47.365-.531.043-1.187.043-2 .043h-1.964c-.813 0-1.469 0-2-.043-.546-.045-1.026-.14-1.47-.366a3.75 3.75 0 0 1-1.64-1.639c-.226-.444-.32-.924-.365-1.47-.043-.531-.043-1.187-.043-2v-1.964c0-.813 0-1.469.043-2 .045-.546.14-1.026.366-1.47a3.75 3.75 0 0 1 1.639-1.64c.444-.226.924-.32 1.47-.365.531-.043 1.187-.043 2-.043Zm-1.877 1.538c-.454.037-.715.107-.912.207a2.25 2.25 0 0 0-.984.984c-.1.197-.17.458-.207.912-.037.462-.038 1.057-.038 1.909v1.428l.723-.867a1.75 1.75 0 0 1 2.582-.117l2.695 2.695 1.18-1.18a1.75 1.75 0 0 1 2.604.145l.216.27v-2.374c0-.852 0-1.447-.038-1.91-.037-.453-.107-.714-.207-.911a2.25 2.25 0 0 0-.984-.984c-.197-.1-.458-.17-.912-.207-.462-.037-1.056-.038-1.909-.038h-1.9c-.852 0-1.447 0-1.91.038Zm-2.103 7.821a7.12 7.12 0 0 1-.006-.08.746.746 0 0 0 .044-.049l1.8-2.159a.25.25 0 0 1 .368-.016l3.226 3.225a.75.75 0 0 0 1.06 0l1.71-1.71a.25.25 0 0 1 .372.021l1.213 1.516c-.021.06-.045.114-.07.165-.216.423-.56.767-.984.983-.197.1-.458.17-.912.207-.462.037-1.056.038-1.909.038h-1.9c-.852 0-1.447 0-1.91-.038-.453-.037-.714-.107-.911-.207a2.25 2.25 0 0 1-.984-.984c-.1-.197-.17-.458-.207-.912Z"/></svg>