<svg xmlns="http://www.w3.org/2000/svg" viewBox="0 0 20 20"><path d="M8.018 2.5h3.964c.813 0 1.469 0 2 .043.546.045 1.026.14 1.47.366.706.36 1.28.933 1.64 1.639.226.444.32.924.365 1.47.043.531.043 1.187.043 2v2.102c0 .414-.336.75-.75.75s-.75-.336-.75-.75v-2.07c0-.852 0-1.447-.038-1.91-.037-.453-.107-.714-.207-.911-.216-.424-.56-.768-.984-.984-.197-.1-.458-.17-.912-.207-.462-.037-1.056-.038-1.909-.038h-3.9c-.852 0-1.447 0-1.91.038-.453.037-.714.107-.911.207-.424.216-.768.56-.984.984-.1.197-.17.458-.207.912-.037.462-.038 1.057-.038 1.909v2.89l1.763-1.763c.683-.684 1.791-.684 2.474 0l2.293 2.293c.293.293.293.767 0 1.06-.293.293-.767.293-1.06 0l-2.293-2.293c-.098-.097-.256-.097-.354 0l-2.793 2.793-.025.025c.005.31.015.574.033.804.037.454.107.715.207.912.216.424.56.768.984.984.197.1.458.17.912.207.462.037 1.057.038 1.909.038h1.993c.415 0 .75.336.75.75s-.335.75-.75.75h-2.025c-.813 0-1.469 0-2-.043-.546-.045-1.026-.14-1.47-.366-.706-.36-1.28-.933-1.64-1.639-.226-.444-.32-.924-.365-1.47-.043-.531-.043-1.187-.043-2v-3.964c0-.813 0-1.469.043-2 .045-.546.14-1.026.366-1.47.36-.706.933-1.28 1.639-1.64.444-.226.924-.32 1.47-.365.531-.043 1.187-.043 2-.043Z"/><path fill-rule="evenodd" d="M11.5 14.25c0-1.519 1.231-2.75 2.75-2.75s2.75 1.231 2.75 2.75c0 .487-.127.944-.349 1.34l1.13 1.13c.292.293.292.767 0 1.06-.294.293-.768.293-1.061 0l-1.13-1.129c-.396.223-.853.349-1.34.349-1.519 0-2.75-1.231-2.75-2.75Zm2.75-1.25c-.69 0-1.25.56-1.25 1.25s.56 1.25 1.25 1.25 1.25-.56 1.25-1.25-.56-1.25-1.25-1.25Z"/><path d="M14 7.5c0 .828-.672 1.5-1.5 1.5s-1.5-.672-1.5-1.5.672-1.5 1.5-1.5 1.5.672 1.5 1.5Z"/></svg>