<svg xmlns="http://www.w3.org/2000/svg" viewBox="0 0 20 20"><path d="M13.5 10.5c.552 0 1-.448 1-1s-.448-1-1-1-1 .448-1 1 .448 1 1 1Z"/><path fill-rule="evenodd" d="M14.5 5.25c0-1.519-1.231-2.75-2.75-2.75h-6.5c-1.519 0-2.75 1.231-2.75 2.75v6.5c0 1.519 1.231 2.75 2.75 2.75h.25v.25c0 1.519 1.231 2.75 2.75 2.75h6.5c1.519 0 2.75-1.231 2.75-2.75v-6.5c0-1.519-1.231-2.75-2.75-2.75h-.25v-.25Zm-1.5.25h-4.75c-1.519 0-2.75 1.231-2.75 2.75v4.75h-.25c-.69 0-1.25-.56-1.25-1.25v-6.5c0-.69.56-1.25 1.25-1.25h6.5c.69 0 1.25.56 1.25 1.25v.25Zm3 2.75c0-.69-.56-1.25-1.25-1.25h-6.5c-.69 0-1.25.56-1.25 1.25v3.19l1.263-1.263c.683-.684 1.791-.684 2.474 0l2.809 2.808 2.454-2.045v-2.69Zm-8.97 5.28-.03.029v1.191c0 .69.56 1.25 1.25 1.25h6.5c.69 0 1.25-.56 1.25-1.25v-1.857l-2.02 1.683c-.298.248-.736.229-1.01-.046l-3.293-3.293c-.098-.097-.256-.097-.354 0l-2.293 2.293Z"/></svg>