<svg xmlns="http://www.w3.org/2000/svg" viewBox="0 0 16 16"><path fill-rule="evenodd" d="M4.678 4.929c-.124-.262-.388-.429-.678-.429-.29 0-.554.167-.678.429l-2.25 4.75c-.177.374-.017.822.357.999.374.177.821.017.999-.357l.389-.821h2.366l.39.821c.177.374.624.534.998.357.374-.178.534-.625.357-1l-2.25-4.75Zm-.205 3.071-.473-.998-.473.998h.946Z"/><path d="M8.25 4.75c.414 0 .75.336.75.75v3.75h1.5c.414 0 .75.336.75.75s-.336.75-.75.75h-2.25c-.414 0-.75-.336-.75-.75v-4.5c0-.414.336-.75.75-.75Z"/><path d="M11 4.75c-.414 0-.75.336-.75.75s.336.75.75.75h1v3.75c0 .414.336.75.75.75s.75-.336.75-.75v-3.75h1c.414 0 .75-.336.75-.75s-.336-.75-.75-.75h-3.5Z"/></svg>