<svg xmlns="http://www.w3.org/2000/svg" viewBox="0 0 20 20"><path fill-rule="evenodd" d="M5.933 6.94c-.122-.268-.389-.44-.683-.44-.294 0-.561.172-.683.44l-2.5 5.5c-.171.377-.004.821.373.993.377.171.821.004.993-.373l.482-1.06h2.585c.028 0 .056-.002.083-.005l.484 1.065c.172.377.616.544.993.373.377-.172.544-.616.373-.993l-2.5-5.5Zm-.03 3.56-.653-1.438-.653 1.438h1.306Z"/><path d="M10 6.5c.414 0 .75.336.75.75v4.75h2c.414 0 .75.336.75.75s-.336.75-.75.75h-2.75c-.414 0-.75-.336-.75-.75v-5.5c0-.414.336-.75.75-.75Z"/><path d="M13.25 6.5c-.414 0-.75.336-.75.75s.336.75.75.75h1.25v4.75c0 .414.336.75.75.75s.75-.336.75-.75v-4.75h1.25c.414 0 .75-.336.75-.75s-.336-.75-.75-.75h-4Z"/></svg>