<svg xmlns="http://www.w3.org/2000/svg" viewBox="0 0 20 20"><path d="M9.018 3.5h1.964c.813 0 1.469 0 2 .043.546.045 1.026.14 1.47.366a3.75 3.75 0 0 1 1.64 1.639c.226.444.32.924.365 1.47.043.531.043 1.187.043 2v.232a.75.75 0 0 1-1.5 0v-.2c0-.852 0-1.447-.038-1.91-.037-.453-.107-.714-.207-.911a2.25 2.25 0 0 0-.984-.984c-.197-.1-.458-.17-.912-.207-.462-.037-1.056-.038-1.909-.038h-1.9c-.852 0-1.447 0-1.91.038-.453.037-.714.107-.911.207a2.25 2.25 0 0 0-.984.984c-.1.197-.17.458-.207.912-.037.462-.038 1.057-.038 1.909v1.428l.723-.867a1.75 1.75 0 0 1 2.582-.117l1.225 1.226a.75.75 0 0 1-1.06 1.06l-1.226-1.225a.25.25 0 0 0-.369.016l-1.799 2.16a.746.746 0 0 1-.044.047l.006.081c.037.454.107.715.207.912.216.424.56.768.984.984.197.1.458.17.912.207.462.037 1.057.038 1.909.038h.2a.75.75 0 0 1 0 1.5h-.232c-.813 0-1.469 0-2-.043-.546-.045-1.026-.14-1.47-.366a3.75 3.75 0 0 1-1.64-1.639c-.226-.444-.32-.924-.365-1.47-.043-.531-.043-1.187-.043-2v-1.964c0-.813 0-1.469.043-2 .045-.546.14-1.026.366-1.47a3.75 3.75 0 0 1 1.639-1.64c.444-.226.924-.32 1.47-.365.531-.043 1.187-.043 2-.043Z"/><path d="M12.5 9a1.5 1.5 0 1 0 0-3 1.5 1.5 0 0 0 0 3Z"/><path fill-rule="evenodd" d="M10.25 13a2.75 2.75 0 1 1 5.152 1.34l1.128 1.13a.75.75 0 0 1-1.06 1.06l-1.13-1.129a2.75 2.75 0 0 1-4.09-2.402Zm2.75-1.25a1.25 1.25 0 1 0 0 2.5 1.25 1.25 0 0 0 0-2.5Z"/></svg>