<svg xmlns="http://www.w3.org/2000/svg" viewBox="0 0 16 16"><path d="M10.5 7c.828 0 1.5-.672 1.5-1.5s-.672-1.5-1.5-1.5-1.5.672-1.5 1.5.672 1.5 1.5 1.5Z"/><path fill-rule="evenodd" d="M7.018 1.5h1.964c.813 0 1.469 0 2 .043.546.045 1.026.14 1.47.366.706.36 1.28.933 1.64 1.639.226.444.32.924.365 1.47.043.531.043 1.187.043 2v1.964c0 .813 0 1.469-.043 2-.045.546-.14 1.026-.366 1.47-.36.706-.933 1.28-1.638 1.64-.445.226-.925.32-1.471.365-.531.043-1.187.043-2 .043h-1.964c-.813 0-1.469 0-2-.043-.546-.045-1.026-.14-1.47-.366-.706-.36-1.28-.933-1.64-1.638-.226-.445-.32-.925-.365-1.471-.043-.531-.043-1.187-.043-2v-1.964c0-.813 0-1.469.043-2 .045-.546.14-1.026.366-1.47.36-.706.933-1.28 1.639-1.64.444-.226.924-.32 1.47-.365.531-.043 1.187-.043 2-.043Zm-1.877 1.538c-.454.037-.715.107-.912.207-.424.216-.768.56-.984.984-.1.197-.17.458-.207.912-.037.462-.038 1.057-.038 1.909v1.429l.723-.868c.659-.79 1.854-.845 2.582-.117l2.695 2.695 1.18-1.18c.737-.737 1.952-.67 2.604.145l.216.27v-2.374c0-.852 0-1.447-.038-1.91-.037-.453-.107-.714-.207-.911-.216-.424-.56-.768-.984-.984-.197-.1-.458-.17-.912-.207-.462-.037-1.057-.038-1.909-.038h-1.9c-.852 0-1.447 0-1.91.038Zm-2.103 7.821-.006-.08.044-.049 1.8-2.159c.093-.113.264-.12.368-.016l3.226 3.225c.293.293.767.293 1.06 0l1.71-1.71c.106-.105.28-.095.372.021l1.213 1.516c-.021.06-.045.114-.07.165-.216.423-.56.767-.984.983-.197.1-.458.17-.912.207-.462.037-1.057.038-1.909.038h-1.9c-.852 0-1.447 0-1.91-.038-.453-.037-.714-.107-.911-.207-.424-.216-.768-.56-.984-.984-.1-.197-.17-.458-.207-.912Z"/></svg>