<svg xmlns="http://www.w3.org/2000/svg" viewBox="0 0 20 20"><path d="M10.75 2.5c0-.414-.336-.75-.75-.75s-.75.336-.75.75v9.44l-2.72-2.72c-.293-.293-.767-.293-1.06 0-.293.293-.293.767 0 1.06l4 4c.14.141.331.22.53.22s.39-.079.53-.22l4-4c.293-.293.293-.767 0-1.06-.293-.293-.767-.293-1.06 0l-2.72 2.72v-9.44Z"/><path d="M18 14.75c0-.414-.336-.75-.75-.75s-.75.336-.75.75v.5c0 .69-.56 1.25-1.25 1.25h-10.5c-.69 0-1.25-.56-1.25-1.25v-.5c0-.414-.336-.75-.75-.75s-.75.336-.75.75v.5c0 1.519 1.231 2.75 2.75 2.75h10.5c1.519 0 2.75-1.231 2.75-2.75v-.5Z"/></svg>