<svg width="20" height="20" viewBox="0 0 20 20" fill="none" xmlns="http://www.w3.org/2000/svg">
<path d="M10.75 2.75C10.75 2.33579 10.4142 2 10 2C9.5858 2 9.25001 2.33579 9.25001 2.75V5.43934L8.78034 4.96967C8.48745 4.67678 8.01258 4.67678 7.71968 4.96967C7.42679 5.26256 7.42679 5.73744 7.71968 6.03033L9.46968 7.78033C9.61034 7.92098 9.8011 8 10 8C10.1989 8 10.3897 7.92098 10.5303 7.78033L12.2803 6.03033C12.5732 5.73744 12.5732 5.26256 12.2803 4.96967C11.9875 4.67678 11.5126 4.67678 11.2197 4.96967L10.75 5.43934V2.75Z" fill="#4A4A4A"/>
<path fill-rule="evenodd" clip-rule="evenodd" d="M15.5 10.7758V15.25C15.5 16.2165 14.7165 17 13.75 17H6.25001C5.28352 17 4.50001 16.2165 4.50001 15.25V10.7758C3.1831 10.1932 2.49731 8.57835 3.20452 7.16393L3.2838 7.00538C3.33662 6.89973 3.40001 6.7997 3.47299 6.70682L5.85136 3.67979C6.18859 3.2506 6.70419 3 7.25001 3C7.66423 3 8.00001 3.33579 8.00001 3.75C8.00001 4.16421 7.66423 4.5 7.25001 4.5C7.16448 4.5 7.08369 4.53927 7.03084 4.60653L4.65247 7.63355C4.64204 7.64682 4.63299 7.66111 4.62544 7.6762L4.54616 7.83475C4.16363 8.59983 4.71996 9.5 5.57534 9.5C6.01118 9.5 6.40961 9.25376 6.60452 8.86393L7.07919 7.91459C7.1692 7.73457 7.32184 7.60657 7.49749 7.54379C7.68334 7.47736 7.89496 7.48395 8.08542 7.57918C8.27734 7.67514 8.41014 7.84228 8.46782 8.03261C8.47203 8.0465 8.47584 8.06051 8.47924 8.07463L8.55318 8.3704C8.71916 9.03431 9.31568 9.50006 10 9.50006C10.6844 9.50006 11.2809 9.03431 11.4468 8.3704L11.5208 8.07469C11.5244 8.05982 11.5284 8.04507 11.5329 8.03046C11.5587 7.94598 11.5982 7.86911 11.6485 7.80172C11.7164 7.71055 11.806 7.63347 11.9146 7.57918C12.1051 7.48395 12.3167 7.47736 12.5025 7.54379C12.5711 7.5682 12.6342 7.60188 12.6908 7.64301C12.7852 7.71147 12.8651 7.80304 12.9208 7.91459L13.3955 8.86393C13.5904 9.25376 13.9888 9.5 14.4247 9.5C15.2801 9.5 15.8364 8.59983 15.4539 7.83475L15.3746 7.6762C15.367 7.66111 15.358 7.64682 15.3476 7.63355L12.9692 4.60653C12.9163 4.53927 12.8355 4.5 12.75 4.5C12.3358 4.5 12 4.16421 12 3.75C12 3.33579 12.3358 3 12.75 3C13.2958 3 13.8114 3.2506 14.1487 3.67979L16.527 6.70682C16.6 6.7997 16.6634 6.89973 16.7162 7.00538L16.7955 7.16393C17.5027 8.57835 16.8169 10.1932 15.5 10.7758ZM14 10.9658V15.25C14 15.3881 13.8881 15.5 13.75 15.5H13V13C13 12.4477 12.5523 12 12 12H11C10.4477 12 10 12.4477 10 13V15.5H6.25001C6.11194 15.5 6.00001 15.3881 6.00001 15.25V10.9658C6.68188 10.8553 7.29432 10.4819 7.70501 9.9276C8.25987 10.5907 9.09135 11.0001 10 11.0001C10.9087 11.0001 11.7402 10.5907 12.295 9.9276C12.7057 10.4819 13.3181 10.8553 14 10.9658Z" fill="#4A4A4A"/>
</svg>
