<svg width="20" height="20" viewBox="0 0 20 20" fill="none" xmlns="http://www.w3.org/2000/svg">
<path d="M6 8.2267C6 5.8959 7.64924 4.25 10 4.25C10.9687 4.25 11.8183 4.5295 12.4824 5.02125L13.4686 4.0351C13.497 4.00673 13.5271 3.9811 13.5585 3.95823C12.6176 3.19352 11.3898 2.75 10 2.75C6.82792 2.75 4.5 5.06038 4.5 8.2267C4.5 9.58606 4.93252 10.8588 5.53156 11.9721L6.6475 10.8562C6.25329 10.0235 6 9.13406 6 8.2267Z" fill="#4A4A4A"/>
<path fill-rule="evenodd" clip-rule="evenodd" d="M7.42562 12.1994L5.96967 13.6553C5.67677 13.9482 5.67677 14.4231 5.96967 14.716C6.26256 15.0089 6.73743 15.0089 7.03033 14.716L7.28861 14.4577C7.82869 15.0724 8.35241 15.576 8.75765 15.9387C8.99045 16.147 9.18544 16.31 9.32376 16.4221C9.39295 16.4781 9.44806 16.5215 9.48674 16.5516C9.50608 16.5666 9.52133 16.5783 9.53218 16.5865L9.54513 16.5963L9.54907 16.5993L9.5504 16.6003C9.5506 16.6005 9.55129 16.601 10 16L9.55129 16.601C9.81743 16.7997 10.1826 16.7997 10.4487 16.601L10 16C10.4487 16.601 10.4485 16.6011 10.4487 16.601L10.4496 16.6003L10.4509 16.5993L10.4549 16.5963L10.4678 16.5865C10.4787 16.5783 10.4939 16.5666 10.5133 16.5516C10.5519 16.5215 10.6071 16.4781 10.6762 16.4221C10.8146 16.31 11.0096 16.147 11.2424 15.9387C11.707 15.5229 12.3273 14.9219 12.9495 14.1805C14.1737 12.7217 15.5 10.6071 15.5 8.2267C15.5 7.61452 15.413 7.03434 15.2497 6.49667L15.5899 6.15643C15.8828 5.86353 15.8828 5.38866 15.5899 5.09577C15.3095 4.81536 14.8623 4.80341 14.5677 5.05989C14.567 5.05886 14.5663 5.05783 14.5656 5.05679C14.554 5.0701 14.5419 5.0831 14.5293 5.09576M13.9781 7.76821L8.3517 13.3946C8.86551 13.9872 9.37021 14.4739 9.75798 14.8209C9.84521 14.899 9.9263 14.9698 10 15.033C10.0737 14.9698 10.1548 14.899 10.242 14.8209C10.668 14.4397 11.2352 13.8898 11.8005 13.2162C12.9513 11.845 14 10.073 14 8.2267C14 8.0707 13.9926 7.91778 13.9781 7.76821Z" fill="#4A4A4A"/>
<path d="M14.5293 5.09576L7.42562 12.1994Z" fill="#4A4A4A"/>
<path d="M10.7606 6.11781C10.9134 6.16656 11.0599 6.22961 11.1983 6.30537L7.80537 9.69832C7.72961 9.55985 7.66656 9.41343 7.61781 9.26062C7.5413 9.02078 7.5 8.76521 7.5 8.5C7.5 7.11929 8.61929 6 10 6C10.2652 6 10.5208 6.0413 10.7606 6.11781Z" fill="#4A4A4A"/>
</svg>
