<svg viewBox="0 0 20 20" xmlns="http://www.w3.org/2000/svg"><path d="M13.84 3.389a6 6 0 0 0-9.84 4.611c0 1.599.355 3.056.895 4.333l1.159-1.159a9.489 9.489 0 0 1-.554-3.174 4.5 4.5 0 0 1 7.273-3.545l1.066-1.066Z" fill="#5C5F62"/><path fill-rule="evenodd" d="m15.764 3.586-.006.005-11.667 11.667-.005.006a.75.75 0 0 0 1.066 1.055l1.297-1.298c1.42 1.892 3.03 2.979 3.551 2.979 1 0 6-4 6-10 0-.753-.139-1.474-.392-2.138l1.21-1.21a.75.75 0 0 0-1.054-1.066Zm-1.264 4.414c0 2.574-1.074 4.757-2.305 6.323a10.29 10.29 0 0 1-1.75 1.77 5.075 5.075 0 0 1-.445.309 5.073 5.073 0 0 1-.445-.31 10.29 10.29 0 0 1-1.75-1.769c-.096-.121-.19-.246-.283-.375l6.881-6.88c.064.3.097.612.097.932Zm-4.757 8.536s.005-.003.015-.005l-.015.005Zm.499-.005.015.005-.015-.005Z" fill="#5C5F62"/><path d="M11.488 5.74a2.5 2.5 0 0 0-3.497 3.497l1.09-1.09a1 1 0 0 1 1.315-1.315l1.091-1.092Z" fill="#5C5F62"/></svg>