<svg xmlns="http://www.w3.org/2000/svg" viewBox="0 0 16 16"><path fill-rule="evenodd" d="M7.966 2.59c-.117-.12-.3-.12-.417 0l-3.415 3.482c-.1.102-.12.235-.068.362.05.126.15.195.277.195h1.458l1.491 7.118c.033.158.164.253.296.253h.339c.132 0 .262-.095.295-.253l1.491-7.118h1.46c.128 0 .227-.07.278-.195.052-.127.032-.26-.069-.362l-3.416-3.483Zm-1.488-1.05c.705-.72 1.854-.72 2.56-.001l3.415 3.482c1.108 1.13.353 3.108-1.28 3.108h-.241l-1.242 5.926c-.174.833-.902 1.445-1.763 1.445h-.34c-.86 0-1.588-.612-1.763-1.445l-1.241-5.926h-.24c-1.632 0-2.387-1.978-1.28-3.107l3.415-3.483Z"/><path fill-rule="evenodd" d="M2.53 9.632c.396-.122.816.1.937.497l1.316 4.293c.121.396-.101.816-.497.937-.396.121-.816-.101-.937-.498l-1.316-4.293c-.121-.396.101-.815.497-.936Z"/><path fill-rule="evenodd" d="M12.929 9.62c.402.099.648.505.55.907l-1.053 4.293c-.099.403-.505.649-.907.55-.402-.098-.649-.505-.55-.907l1.053-4.293c.098-.402.505-.648.907-.55Z"/></svg>