<svg xmlns="http://www.w3.org/2000/svg" viewBox="0 0 20 20"><path fill-rule="evenodd" d="M8.689 2.54c.705-.72 1.854-.72 2.56-.001l3.416 3.482c1.107 1.13.353 3.108-1.28 3.108h-.218l-1.262 7.412-.003.014c-.175.833-.902 1.445-1.764 1.445h-.339c-.861 0-1.589-.612-1.763-1.445l-.003-.014-1.263-7.412h-.215c-1.633 0-2.387-1.978-1.28-3.107l3.414-3.483Zm1.489 1.05c-.117-.12-.3-.12-.418 0l-3.414 3.482c-.1.102-.12.235-.069.362.051.126.15.195.278.195h1.482l1.47 8.628c.035.151.163.243.292.243h.34c.129 0 .256-.091.292-.243l1.47-8.628h1.484c.128 0 .227-.07.278-.195.051-.127.031-.26-.069-.362l-3.416-3.483Z"/><path d="M4.334 10.769c.404-.092.806.16.897.565l1.25 5.5c.092.404-.16.806-.565.897-.404.092-.806-.161-.897-.565l-1.25-5.5c-.092-.404.16-.806.565-.897Z"/><path d="M16.231 11.666c.092-.404-.16-.806-.565-.897-.404-.092-.806.16-.897.565l-1.25 5.5c-.092.404.16.806.565.897.404.092.806-.16.897-.565l1.25-5.5Z"/></svg>