<svg viewBox="0 0 20 20" xmlns="http://www.w3.org/2000/svg"><path d="M3.5 10.25a.75.75 0 0 1 1.5 0v2.5a2.25 2.25 0 0 0 2.25 2.25h5.5a2.25 2.25 0 0 0 2.25-2.25v-5.5a2.25 2.25 0 0 0-2.25-2.25h-2.5a.75.75 0 0 1 0-1.5h2.5a3.75 3.75 0 0 1 3.75 3.75v5.5a3.75 3.75 0 0 1-3.75 3.75h-5.5a3.75 3.75 0 0 1-3.75-3.75v-2.5Z" fill="#5C5F62"/><path d="M6.5 10.5a.75.75 0 0 1 .75-.75h1.19l-4.97-4.97a.75.75 0 0 1 1.06-1.06l4.97 4.97v-1.19a.75.75 0 0 1 1.5 0v3a.75.75 0 0 1-.75.75h-3a.75.75 0 0 1-.75-.75Z" fill="#5C5F62"/></svg>