<svg xmlns="http://www.w3.org/2000/svg" viewBox="0 0 16 16"><path d="M1.5 8.25c0-.414.336-.75.75-.75s.75.336.75.75v3.5c0 .69.56 1.25 1.25 1.25h7.5c.69 0 1.25-.56 1.25-1.25v-7.5c0-.69-.56-1.25-1.25-1.25h-3.5c-.414 0-.75-.336-.75-.75s.336-.75.75-.75h3.5c1.519 0 2.75 1.231 2.75 2.75v7.5c0 1.519-1.231 2.75-2.75 2.75h-7.5c-1.519 0-2.75-1.231-2.75-2.75v-3.5Z"/><path d="M4.75 9.5c-.414 0-.75-.336-.75-.75s.336-.75.75-.75h2.19l-4.97-4.97c-.293-.293-.293-.767 0-1.06.293-.293.767-.293 1.06 0l4.97 4.97v-2.19c0-.414.336-.75.75-.75s.75.336.75.75v4c0 .414-.336.75-.75.75h-4Z"/></svg>