<svg viewBox="0 0 20 20" xmlns="http://www.w3.org/2000/svg"><path fill-rule="evenodd" clip-rule="evenodd" d="M19.09 2.678A1 1 0 0018.144 2c-.039 0-3.986-.022-7.692-1.893a1.007 1.007 0 00-.902 0C5.862 1.969 1.895 2 1.856 2a1 1 0 00-.947.678c-1.367 4.03-1.19 7.825.515 10.97 1.647 3.042 4.76 5.404 8.328 6.32a1 1 0 00.497 0c3.567-.916 6.68-3.278 8.328-6.32 1.703-3.145 1.88-6.94.513-10.97zm-2.273 10.02c-1.349 2.49-3.884 4.444-6.816 5.268-2.934-.824-5.469-2.778-6.818-5.268-1.343-2.48-1.54-5.485-.585-8.727 1.36-.088 4.383-.444 7.403-1.858 3.018 1.414 6.04 1.77 7.401 1.858.958 3.242.758 6.248-.585 8.727zM9 6h2v4H9V6zm2 6H9v2h2v-2z" fill="#D72C0D"/></svg>
