<svg viewBox="0 0 21 20" xmlns="http://www.w3.org/2000/svg">
<path clip-rule="evenodd" d="M10.06 9c3.866 0 7-1.343 7-3s-3.134-3-7-3-7 1.343-7 3 3.134 3 7 3zm3.278 1.651a6.028 6.028 0 0 0-2.464 2.329c-.267.013-.539.02-.814.02-3.866 0-7-1.343-7-3 0-.35.14-.687.398-1 .96 1.165 3.554 2 6.602 2 1.184 0 2.3-.126 3.278-.349zM10.06 16v1c-3.866 0-7-1.343-7-3 0-.35.14-.687.398-1 .96 1.165 3.554 2 6.602 2h.083c-.055.325-.083.66-.083 1zm5 2a1 1 0 0 1-1-1v-1h-1a1 1 0 1 1 0-2h1v-1a1 1 0 1 1 2 0v1h1a1 1 0 1 1 0 2h-1v1a1 1 0 0 1-1 1z" fill="#5C5F62"></path>
</svg>
