<svg width="20" height="20" viewBox="0 0 20 20" fill="none" xmlns="http://www.w3.org/2000/svg">
<path fill-rule="evenodd" clip-rule="evenodd" d="M10 3C8.0988 3 7.8608 3.00793 7.11413 3.042C6.36887 3.07607 5.85973 3.1946 5.41453 3.36773C4.94787 3.5432 4.5246 3.81853 4.1746 4.17507C3.81864 4.52466 3.54313 4.94763 3.36727 5.41453C3.19507 5.85973 3.07607 6.36933 3.042 7.1146C3.0084 7.8608 3 8.09833 3 10C3 11.9017 3.00793 12.1392 3.042 12.8859C3.07607 13.6311 3.1946 14.1403 3.36773 14.5855C3.5432 15.0521 3.81853 15.4754 4.17507 15.8254C4.52467 16.1814 4.94764 16.4569 5.41453 16.6327C5.85973 16.8054 6.36887 16.9239 7.11413 16.958C7.8608 16.9921 8.0988 17 10 17C11.9012 17 12.1392 16.9921 12.8859 16.958C13.6311 16.9239 14.1403 16.8054 14.5855 16.6323C15.0521 16.4568 15.4754 16.1815 15.8254 15.8249C16.1814 15.4753 16.4569 15.0524 16.6327 14.5855C16.8054 14.1403 16.9239 13.6311 16.958 12.8859C16.9921 12.1392 17 11.9012 17 10C17 8.0988 16.9921 7.8608 16.958 7.11413C16.9239 6.36887 16.8054 5.85973 16.6323 5.41453C16.4565 4.94743 16.181 4.52428 15.8249 4.1746C15.4753 3.81864 15.0524 3.54313 14.5855 3.36727C14.1403 3.19507 13.6307 3.07607 12.8854 3.042C12.1392 3.0084 11.9017 3 10 3ZM10 4.2614C11.869 4.2614 12.0907 4.2684 12.8289 4.302C13.5112 4.33327 13.8817 4.44667 14.1286 4.54327C14.4553 4.66973 14.6886 4.82187 14.9336 5.0664C15.1786 5.3114 15.3303 5.54473 15.4567 5.8714C15.5529 6.11827 15.6667 6.4888 15.698 7.17107C15.7316 7.90933 15.7386 8.131 15.7386 10C15.7386 11.869 15.7316 12.0907 15.698 12.8289C15.6667 13.5112 15.5533 13.8817 15.4567 14.1286C15.3447 14.4327 15.1659 14.7077 14.9336 14.9336C14.7078 15.166 14.4327 15.3448 14.1286 15.4567C13.8817 15.5529 13.5112 15.6667 12.8289 15.698C12.0907 15.7316 11.8695 15.7386 10 15.7386C8.13053 15.7386 7.90933 15.7316 7.17107 15.698C6.4888 15.6667 6.11827 15.5533 5.8714 15.4567C5.56735 15.3447 5.29227 15.1659 5.0664 14.9336C4.83408 14.7077 4.65533 14.4326 4.54327 14.1286C4.44713 13.8817 4.33327 13.5112 4.302 12.8289C4.2684 12.0907 4.2614 11.869 4.2614 10C4.2614 8.131 4.2684 7.90933 4.302 7.17107C4.33327 6.4888 4.44667 6.11827 4.54327 5.8714C4.66973 5.54473 4.82187 5.3114 5.0664 5.0664C5.29224 4.83402 5.56732 4.65526 5.8714 4.54327C6.11827 4.44713 6.4888 4.33327 7.17107 4.302C7.90933 4.2684 8.131 4.2614 10 4.2614Z" fill="#4A4A4A"/>
<path fill-rule="evenodd" clip-rule="evenodd" d="M10 12.3357C9.69329 12.3357 9.38957 12.2753 9.1062 12.1579C8.82282 12.0405 8.56534 11.8685 8.34845 11.6516C8.13157 11.4347 7.95952 11.1772 7.84214 10.8938C7.72477 10.6104 7.66435 10.3067 7.66435 10C7.66435 9.69328 7.72477 9.38956 7.84214 9.10618C7.95952 8.8228 8.13157 8.56532 8.34845 8.34843C8.56534 8.13155 8.82282 7.9595 9.1062 7.84213C9.38957 7.72475 9.69329 7.66433 10 7.66433C10.6195 7.66433 11.2136 7.91041 11.6516 8.34843C12.0896 8.78646 12.3357 9.38054 12.3357 10C12.3357 10.6195 12.0896 11.2135 11.6516 11.6516C11.2136 12.0896 10.6195 12.3357 10 12.3357ZM10 6.402C9.04577 6.402 8.1306 6.78107 7.45585 7.45583C6.78109 8.13059 6.40202 9.04575 6.40202 10C6.40202 10.9542 6.78109 11.8694 7.45585 12.5442C8.1306 13.2189 9.04577 13.598 10 13.598C10.9543 13.598 11.8694 13.2189 12.5442 12.5442C13.2189 11.8694 13.598 10.9542 13.598 10C13.598 9.04575 13.2189 8.13059 12.5442 7.45583C11.8694 6.78107 10.9543 6.402 10 6.402ZM14.6447 6.33667C14.6447 6.56223 14.5551 6.77856 14.3956 6.93806C14.2361 7.09756 14.0198 7.18717 13.7943 7.18717C13.5687 7.18717 13.3524 7.09756 13.1929 6.93806C13.0334 6.77856 12.9438 6.56223 12.9438 6.33667C12.9438 6.1111 13.0334 5.89477 13.1929 5.73527C13.3524 5.57577 13.5687 5.48617 13.7943 5.48617C14.0198 5.48617 14.2361 5.57577 14.3956 5.73527C14.5551 5.89477 14.6447 6.1111 14.6447 6.33667Z" fill="#4A4A4A"/>
</svg>
