<svg xmlns="http://www.w3.org/2000/svg" viewBox="0 0 20 20"><path fill-rule="evenodd" d="M6 10.5a3.5 3.5 0 1 0 7 0 3.5 3.5 0 0 0-7 0Zm1 0a2.5 2.5 0 1 1 5 0 2.5 2.5 0 0 1-5 0Z" fill="#4A4A4A"/>
<path d="M13.25 7.5a.75.75 0 1 0 0-1.5.75.75 0 0 0 0 1.5Z" fill="#4A4A4A"/>
<path fill-rule="evenodd" d="M12.5 17h-6A3.5 3.5 0 0 1 3 13.5v-6A3.5 3.5 0 0 1 6.5 4h6A3.5 3.5 0 0 1 16 7.5v6a3.5 3.5 0 0 1-3.5 3.5ZM4 7.5A2.5 2.5 0 0 1 6.5 5h6A2.5 2.5 0 0 1 15 7.5v6a2.5 2.5 0 0 1-2.5 2.5h-6A2.5 2.5 0 0 1 4 13.5v-6Z" fill="#4A4A4A"/></svg>
