<svg xmlns="http://www.w3.org/2000/svg" viewBox="0 0 20 20"><path fill-rule="evenodd" d="M6.76901 10.0001C6.76901 11.7816 8.21896 13.2309 9.99968 13.2309C11.7814 13.2309 13.2304 11.7816 13.2304 10.0001C13.2304 8.21845 11.7814 6.76926 9.99968 6.76926C8.21896 6.76926 6.76901 8.21845 6.76901 10.0001ZM7.69235 10.0001C7.69235 8.72755 8.7273 7.69235 9.99968 7.69235C11.2721 7.69235 12.308 8.72755 12.308 10.0001C12.308 11.2724 11.2721 12.3078 9.99968 12.3078C8.7273 12.3078 7.69235 11.2724 7.69235 10.0001Z" fill="#5C5F62"/>
<path d="M13.4617 7.2308C13.8442 7.2308 14.1537 6.92082 14.1537 6.53855C14.1537 6.15615 13.8442 5.84617 13.4617 5.84617C13.0792 5.84617 12.7687 6.15615 12.7687 6.53855C12.7687 6.6286 12.7859 6.7146 12.8174 6.79348C12.859 6.89863 12.926 6.99109 13.0102 7.06364C13.1319 7.16777 13.2892 7.2308 13.4617 7.2308Z" fill="#5C5F62"/>
<path fill-rule="evenodd" d="M12.7687 16H7.23068C5.44995 16 4 14.5508 4 12.7693V7.2308C4 5.44931 5.44995 4 7.23068 4H12.7687C14.5504 4 16.0004 5.44931 16.0004 7.2308V12.7693C16.0004 14.5508 14.5504 16 12.7687 16ZM4.92334 7.2308C4.92334 5.95829 5.95829 4.92309 7.23068 4.92309H12.7687C14.0421 4.92309 15.077 5.95829 15.077 7.2308V12.7693C15.077 14.0417 14.0421 15.0769 12.7687 15.0769H7.23068C5.95829 15.0769 4.92334 14.0417 4.92334 12.7693V7.2308Z" fill="#5C5F62"/></svg>
