<svg xmlns="http://www.w3.org/2000/svg" viewBox="0 0 16 16"><path fill-rule="evenodd" d="M6.77 1.406c.748-.487 1.712-.487 2.46 0l3.569 2.328c1.061.692 1.701 1.874 1.701 3.141v6.875c0 .69-.56 1.25-1.25 1.25h-10.5c-.69 0-1.25-.56-1.25-1.25v-6.875c0-1.267.64-2.449 1.701-3.141l3.57-2.328Zm.73 9.844c0-.276-.224-.5-.5-.5h-1.5c-.276 0-.5.224-.5.5v2c0 .276.224.5.5.5h1.5c.276 0 .5-.224.5-.5v-2Zm1.25-4.5c.276 0 .5.224.5.5v2c0 .276-.224.5-.5.5h-1.5c-.276 0-.5-.224-.5-.5v-2c0-.276.224-.5.5-.5h1.5Zm2.25 4.5c0-.276-.224-.5-.5-.5h-1.5c-.276 0-.5.224-.5.5v2c0 .276.224.5.5.5h1.5c.276 0 .5-.224.5-.5v-2Z"/></svg>