<svg xmlns="http://www.w3.org/2000/svg" viewBox="0 0 20 20"><path fill-rule="evenodd" d="M8.77 3.406a2.25 2.25 0 0 1 2.46 0l3.569 2.328a3.75 3.75 0 0 1 1.701 3.141v6.875c0 .69-.56 1.25-1.25 1.25h-10.5c-.69 0-1.25-.56-1.25-1.25v-6.875a3.75 3.75 0 0 1 1.702-3.141l3.569-2.328Zm.73 9.844a.5.5 0 0 0-.5-.5h-1.5a.5.5 0 0 0-.5.5v2a.5.5 0 0 0 .5.5h1.5a.5.5 0 0 0 .5-.5v-2Zm1.25-4.5a.5.5 0 0 1 .5.5v2a.5.5 0 0 1-.5.5h-1.5a.5.5 0 0 1-.5-.5v-2a.5.5 0 0 1 .5-.5h1.5Zm2.25 4.5a.5.5 0 0 0-.5-.5h-1.5a.5.5 0 0 0-.5.5v2a.5.5 0 0 0 .5.5h1.5a.5.5 0 0 0 .5-.5v-2Z"/></svg>