<svg xmlns="http://www.w3.org/2000/svg" viewBox="0 0 20 20"><path d="M11.511 1.641c-.893-.678-2.129-.678-3.022 0l-5.157 3.912c-.996.756-1.582 1.935-1.582 3.187v8.51c0 .552.448 1 1 1s1-.448 1-1v-8.51c0-.626.293-1.216.791-1.594l5.157-3.912c.178-.135.425-.135.604 0l5.157 3.912c.498.378.791.968.791 1.594v8.51c0 .552.448 1 1 1s1-.448 1-1v-8.51c0-1.252-.586-2.43-1.582-3.187l-5.157-3.912Z"/><path fill-rule="evenodd" d="M10 18.225c-.08.016-.164.025-.25.025h-3.75c-.69 0-1.25-.56-1.25-1.25v-4c0-.69.56-1.25 1.25-1.25h.75v-3.25c0-.69.56-1.25 1.25-1.25h4c.69 0 1.25.56 1.25 1.25v3.25h.75c.69 0 1.25.56 1.25 1.25v4c0 .69-.56 1.25-1.25 1.25h-3.75c-.086 0-.17-.009-.25-.025Zm1-4.475v2.5h2.25v-2.5h-2.25Zm-2 2.5v-2.5h-2.25v2.5h2.25Zm2.25-4.5v-2.5h-2.5v2.5h2.5Z" clip-rule="evenodd"/></svg>