<svg xmlns="http://www.w3.org/2000/svg" viewBox="0 0 20 20"><path d="M11.36 1.84c-.804-.61-1.916-.61-2.72 0l-5.156 3.912c-.935.71-1.484 1.815-1.484 2.988v8.51c0 .414.336.75.75.75s.75-.336.75-.75v-8.51c0-.704.33-1.367.89-1.793l5.157-3.912c.268-.203.638-.203.906 0l5.157 3.912c.56.426.89 1.089.89 1.793v8.51c0 .414.336.75.75.75s.75-.336.75-.75v-8.51c0-1.173-.549-2.279-1.484-2.988l-5.156-3.912Z"/><path fill-rule="evenodd" d="M13 12v-3.5c0-.552-.448-1-1-1h-4c-.552 0-1 .448-1 1v3.5h-1c-.552 0-1 .448-1 1v4c0 .552.448 1 1 1h3.75c.086 0 .17-.01.25-.032.08.021.164.032.25.032h3.75c.552 0 1-.448 1-1v-4c0-.552-.448-1-1-1h-1Zm-2.25 4.5h2.75v-3h-2.75v3Zm.75-4.5v-3h-3v3h3Zm-2.25 1.5h-2.75v3h2.75v-3Z"/></svg>