<svg width="20" height="20" viewBox="0 0 20 20" fill="none" xmlns="http://www.w3.org/2000/svg">
<path fill-rule="evenodd" clip-rule="evenodd" d="M8.7709 3.40615C9.51789 2.91898 10.4821 2.91898 11.2291 3.40615L14.7985 5.73402C15.86 6.42628 16.5 7.6078 16.5 8.87506V15.75C16.5 16.4403 15.9404 17 15.25 17H4.75C4.05964 17 3.5 16.4403 3.5 15.75V8.87506C3.5 7.6078 4.14003 6.42628 5.2015 5.73402L8.7709 3.40615ZM9.5 13.25C9.5 12.9739 9.27614 12.75 9 12.75H7.5C7.22386 12.75 7 12.9739 7 13.25V15.25C7 15.5261 7.22386 15.75 7.5 15.75H9C9.27614 15.75 9.5 15.5261 9.5 15.25V13.25ZM10.75 8.75C11.0261 8.75 11.25 8.97386 11.25 9.25V11.25C11.25 11.5261 11.0261 11.75 10.75 11.75H9.25C8.97386 11.75 8.75 11.5261 8.75 11.25V9.25C8.75 8.97386 8.97386 8.75 9.25 8.75H10.75ZM13 13.25C13 12.9739 12.7761 12.75 12.5 12.75H11C10.7239 12.75 10.5 12.9739 10.5 13.25V15.25C10.5 15.5261 10.7239 15.75 11 15.75H12.5C12.7761 15.75 13 15.5261 13 15.25V13.25Z" fill="#4A4A4A"/>
</svg>
