<svg xmlns="http://www.w3.org/2000/svg" viewBox="0 0 16 16"><path d="M9.265.953c-.763-.519-1.767-.519-2.53 0l-4.094 2.784c-1.026.698-1.641 1.86-1.641 3.1v7.413c0 .414.336.75.75.75s.75-.336.75-.75v-7.412c0-.745.369-1.442.985-1.86l4.093-2.784c.255-.173.59-.173.844 0l4.093 2.783c.616.42.985 1.116.985 1.86v7.413c0 .414.336.75.75.75s.75-.336.75-.75v-7.412c0-1.242-.615-2.403-1.641-3.101l-4.094-2.784Z"/><path fill-rule="evenodd" d="M8 14.969c-.08.02-.164.031-.25.031h-3c-.552 0-1-.448-1-1v-3.5c0-.552.448-1 1-1h.75v-3c0-.552.448-1 1-1h3c.552 0 1 .448 1 1v3h.75c.552 0 1 .448 1 1v3.5c0 .552-.448 1-1 1h-3c-.086 0-.17-.01-.25-.031Zm.75-3.969v2.5h2v-2.5h-2Zm-1.5 2.5v-2.5h-2v2.5h2Zm1.75-4v-2.5h-2v2.5h2Z"/></svg>