<svg xmlns="http://www.w3.org/2000/svg" viewBox="0 0 16 16"><path d="M9.265.953c-.763-.52-1.767-.52-2.53 0l-4.094 2.783c-1.026.699-1.641 1.86-1.641 3.101v7.412c0 .415.336.75.75.75s.75-.335.75-.75v-7.412c0-.745.369-1.441.985-1.86l4.093-2.784c.255-.173.59-.173.844 0l4.093 2.784c.616.419.985 1.115.985 1.86v7.412c0 .415.336.75.75.75s.75-.335.75-.75v-7.412c0-1.241-.615-2.402-1.641-3.1l-4.094-2.784Z"/><path d="M11.28 8.28c.293-.293.293-.767 0-1.06-.293-.293-.767-.293-1.06 0l-2.97 2.97-1.22-1.22c-.293-.293-.767-.293-1.06 0-.293.293-.293.767 0 1.06l1.75 1.75c.293.293.767.293 1.06 0l3.5-3.5Z"/></svg>