<svg xmlns="http://www.w3.org/2000/svg" viewBox="0 0 20 20"><path d="M11.36 1.84c-.804-.61-1.916-.61-2.72 0l-5.156 3.912c-.935.71-1.484 1.815-1.484 2.988v8.51c0 .414.336.75.75.75s.75-.336.75-.75v-8.51c0-.704.33-1.367.89-1.793l5.157-3.912c.268-.203.638-.203.906 0l5.157 3.912c.56.426.89 1.089.89 1.793v8.51c0 .414.336.75.75.75s.75-.336.75-.75v-8.51c0-1.173-.549-2.279-1.484-2.988l-5.156-3.912Z"/><path d="M13.944 10.03c.293-.293.293-.767 0-1.06-.292-.293-.767-.293-1.06 0l-3.677 3.676-1.927-1.926c-.293-.293-.767-.293-1.06 0-.293.293-.293.768 0 1.06l2.457 2.458c.293.292.768.292 1.06 0l4.207-4.208Z"/></svg>