<svg xmlns="http://www.w3.org/2000/svg" viewBox="0 0 20 20"><path fill-rule="evenodd" d="M8.705 2.494c.777-.546 1.813-.546 2.59 0l4.613 3.247c.998.702 1.592 1.846 1.592 3.066v7.943c0 .69-.56 1.25-1.25 1.25h-12.5c-.69 0-1.25-.56-1.25-1.25v-7.943c0-1.22.594-2.364 1.592-3.066l4.613-3.247Zm2.545 5.506c.276 0 .5.224.5.5v2.75c0 .276-.224.5-.5.5h-2.5c-.276 0-.5-.224-.5-.5v-2.75c0-.276.224-.5.5-.5h2.5Zm-2.5 5c.276 0 .5.224.5.5v2.75c0 .276-.224.5-.5.5h-2.5c-.276 0-.5-.224-.5-.5v-2.75c0-.276.224-.5.5-.5h2.5Zm5.5.5c0-.276-.224-.5-.5-.5h-2.5c-.276 0-.5.224-.5.5v2.75c0 .276.224.5.5.5h2.5c.276 0 .5-.224.5-.5v-2.75Z"/></svg>