<svg xmlns="http://www.w3.org/2000/svg" viewBox="0 0 20 20"><path d="M15 5c.552 0 1-.448 1-1s-.448-1-1-1-1 .448-1 1 .448 1 1 1Z"/><path fill-rule="evenodd" d="M10.167 12.75c.07 0 .137-.01.201-.027.301.888 1.142 1.527 2.132 1.527 1.243 0 2.25-1.007 2.25-2.25s-1.007-2.25-2.25-2.25c-.99 0-1.83.64-2.132 1.527-.064-.017-.131-.027-.201-.027h-2.917c-1.793 0-3.25-1.461-3.25-3.258 0-1.788 1.45-3.242 3.233-3.242h5.017c.414 0 .75-.336.75-.75s-.336-.75-.75-.75h-5.017c-2.616 0-4.733 2.13-4.733 4.742 0 2.621 2.125 4.758 4.75 4.758h2.917Zm2.333-1.5c-.414 0-.75.336-.75.75s.336.75.75.75.75-.336.75-.75-.336-.75-.75-.75Z"/><path fill-rule="evenodd" d="M12.75 16.75c2.623 0 4.75-2.127 4.75-4.75s-2.127-4.75-4.75-4.75h-2.933c-.065 0-.127.008-.187.023-.302-.886-1.142-1.523-2.13-1.523-1.243 0-2.25 1.007-2.25 2.25s1.007 2.25 2.25 2.25c.988 0 1.828-.637 2.13-1.523.06.015.122.023.187.023h2.933c1.795 0 3.25 1.455 3.25 3.25s-1.455 3.25-3.25 3.25h-5c-.414 0-.75.336-.75.75s.336.75.75.75h5Zm-6-8.75c0-.414.336-.75.75-.75s.75.336.75.75-.336.75-.75.75-.75-.336-.75-.75Z"/><path d="M6 16c0 .552-.448 1-1 1s-1-.448-1-1 .448-1 1-1 1 .448 1 1Z"/></svg>