<svg xmlns="http://www.w3.org/2000/svg" viewBox="0 0 16 16"><path d="M12.5 3.25c.552 0 1-.448 1-1s-.448-1-1-1-1 .448-1 1 .448 1 1 1Z"/><path fill-rule="evenodd" d="M8.128 10.5h-2.128c-2.485 0-4.5-2.015-4.5-4.5v-.25c0-2.347 1.903-4.25 4.25-4.25h4c.414 0 .75.336.75.75s-.336.75-.75.75h-4c-1.519 0-2.75 1.231-2.75 2.75v.25c0 1.657 1.343 3 3 3h2.128c.309-.874 1.142-1.5 2.122-1.5 1.243 0 2.25 1.007 2.25 2.25s-1.007 2.25-2.25 2.25c-.98 0-1.813-.626-2.122-1.5Zm1.372-.75c0-.414.336-.75.75-.75s.75.336.75.75-.336.75-.75.75-.75-.336-.75-.75Z"/><path fill-rule="evenodd" d="M10.25 14.25c2.485 0 4.5-2.015 4.5-4.5s-2.015-4.5-4.5-4.5h-2.128c-.309-.874-1.142-1.5-2.122-1.5-1.243 0-2.25 1.007-2.25 2.25s1.007 2.25 2.25 2.25c.98 0 1.813-.626 2.122-1.5h2.128c1.657 0 3 1.343 3 3s-1.343 3-3 3h-3.75c-.414 0-.75.336-.75.75s.336.75.75.75h3.75Zm-4.25-9c.414 0 .75.336.75.75s-.336.75-.75.75-.75-.336-.75-.75.336-.75.75-.75Z"/><path d="M4.75 13.5c0 .552-.448 1-1 1s-1-.448-1-1 .448-1 1-1 1 .448 1 1Z"/></svg>