<svg width="20" height="20" viewBox="0 0 20 20" fill="none" xmlns="http://www.w3.org/2000/svg">
<path fill-rule="evenodd" clip-rule="evenodd" d="M6.5 5.5V5.25C6.5 4.00736 7.50736 3 8.75 3H11.25C12.4926 3 13.5 4.00736 13.5 5.25V5.5H13.75C15.5449 5.5 17 6.95507 17 8.75V13.75C17 15.5449 15.5449 17 13.75 17H6.25C4.45507 17 3 15.5449 3 13.75V8.75C3 6.95507 4.45507 5.5 6.25 5.5H6.5ZM8 5.25C8 4.83579 8.33579 4.5 8.75 4.5H11.25C11.6642 4.5 12 4.83579 12 5.25V5.5H8V5.25ZM5.16062 9.54197C5.2755 9.21648 5.6325 9.04574 5.958 9.16062L6.21416 9.25103C8.66399 10.1157 11.336 10.1157 13.7858 9.25103L14.042 9.16062C14.3675 9.04574 14.7245 9.21648 14.8394 9.54197C14.9542 9.86747 14.7835 10.2245 14.458 10.3394L14.2018 10.4298C13.1584 10.798 12.0786 11.025 10.9904 11.1106C10.9967 11.1562 11 11.2027 11 11.25V12C11 12.5523 10.5523 13 10 13C9.44772 13 9 12.5523 9 12V11.25C9 11.2027 9.00329 11.1562 9.00964 11.1106C7.9214 11.025 6.84161 10.7981 5.79813 10.4298L5.54197 10.3394C5.21648 10.2245 5.04574 9.86747 5.16062 9.54197Z" fill="#4A4A4A"/>
</svg>
