<svg width="20" height="20" viewBox="0 0 20 20" fill="none" xmlns="http://www.w3.org/2000/svg">
<path d="M10.9653 11.2379C10.9879 11.3215 11 11.4093 11 11.5V12C11 12.5523 10.5523 13 10 13C9.44772 13 9 12.5523 9 12V11.5C9 11.4093 9.01207 11.3215 9.03469 11.2379C7.92389 11.1536 6.82149 10.9235 5.75654 10.5477L5.50038 10.4572C5.10979 10.3194 4.9049 9.89098 5.04276 9.50039C5.18062 9.10979 5.60902 8.9049 5.99961 9.04276L6.25577 9.13317C8.67869 9.98831 11.3213 9.98831 13.7442 9.13317L14.0004 9.04276C14.391 8.9049 14.8194 9.10979 14.9572 9.50039C15.0951 9.89098 14.8902 10.3194 14.4996 10.4572L14.2435 10.5477C13.1785 10.9235 12.0761 11.1536 10.9653 11.2379Z" fill="#4A4A4A"/>
<path fill-rule="evenodd" clip-rule="evenodd" d="M6.5 5.5V5.25C6.5 4.00736 7.50736 3 8.75 3H11.25C12.4926 3 13.5 4.00736 13.5 5.25V5.5H13.75C15.5449 5.5 17 6.95507 17 8.75V13.75C17 15.5449 15.5449 17 13.75 17H6.25C4.45507 17 3 15.5449 3 13.75V8.75C3 6.95507 4.45507 5.5 6.25 5.5H6.5ZM8 5.25C8 4.83579 8.33579 4.5 8.75 4.5H11.25C11.6642 4.5 12 4.83579 12 5.25V5.5H8V5.25ZM6.25 7C5.2835 7 4.5 7.7835 4.5 8.75V13.75C4.5 14.7165 5.2835 15.5 6.25 15.5H13.75C14.7165 15.5 15.5 14.7165 15.5 13.75V8.75C15.5 7.7835 14.7165 7 13.75 7H6.25Z" fill="#4A4A4A"/>
</svg>
