<svg viewBox="0 0 20 20" xmlns="http://www.w3.org/2000/svg"><path fill-rule="evenodd" d="M5.508 2.466L4.356 5H2.5A1.5 1.5 0 001 6.5v1.882l.503.251a19 19 0 0016.994 0L19 8.382V6.5A1.5 1.5 0 0017.5 5h-1.856l-1.152-2.534A2.5 2.5 0 0012.216 1H7.784a2.5 2.5 0 00-2.276 1.466zM7.784 3a.5.5 0 00-.455.293L6.553 5h6.894l-.776-1.707A.5.5 0 0012.216 3H7.784z" fill="currentColor"/><path d="M19 10.613a20.986 20.986 0 01-8 2.003V14a1 1 0 01-2 0v-1.384c-2.74-.131-5.46-.798-8-2.003V17.5A1.5 1.5 0 002.5 19h15a1.5 1.5 0 001.5-1.5v-6.887z" fill="currentColor"/></svg>
