<svg viewBox="0 0 20 20" xmlns="http://www.w3.org/2000/svg"><path d="M7 2a3 3 0 0 0-3 3v1.757a2 2 0 0 1-.586 1.415l-1.121 1.12a1 1 0 0 0 0 1.415l1.121 1.121A2 2 0 0 1 4 13.243V15a3 3 0 0 0 3 3h1a1 1 0 1 0 0-2H7a1 1 0 0 1-1-1v-1.757a4 4 0 0 0-1.172-2.829L4.414 10l.414-.414A4 4 0 0 0 6 6.757V5a1 1 0 0 1 1-1h1a1 1 0 0 0 0-2H7ZM13 2a3 3 0 0 1 3 3v1.757a2 2 0 0 0 .586 1.415l1.121 1.12a1 1 0 0 1 0 1.415l-1.121 1.121A2 2 0 0 0 16 13.243V15a3 3 0 0 1-3 3h-1a1 1 0 1 1 0-2h1a1 1 0 0 0 1-1v-1.757a4 4 0 0 1 1.172-2.829l.414-.414-.414-.414A4 4 0 0 1 14 6.757V5a1 1 0 0 0-1-1h-1a1 1 0 1 1 0-2h1Z" fill="#5C5F62"/></svg>
