<svg xmlns="http://www.w3.org/2000/svg" viewBox="0 0 20 20"><path d="M8.75 10.5a.75.75 0 0 0 0 1.5h2.5a.75.75 0 0 0 0-1.5h-2.5Z"/><path d="M12.5 11.25a.75.75 0 0 1 .75-.75h.5a.75.75 0 0 1 0 1.5h-.5a.75.75 0 0 1-.75-.75Z"/><path d="M6.25 10.5a.75.75 0 0 0 0 1.5h.5a.75.75 0 0 0 0-1.5h-.5Z"/><path d="M4.5 8.75a.75.75 0 0 1 .75-.75h.5a.75.75 0 0 1 0 1.5h-.5a.75.75 0 0 1-.75-.75Z"/><path d="M8.25 8a.75.75 0 0 0 0 1.5h.5a.75.75 0 0 0 0-1.5h-.5Z"/><path d="M10.5 8.75a.75.75 0 0 1 .75-.75h.5a.75.75 0 0 1 0 1.5h-.5a.75.75 0 0 1-.75-.75Z"/><path d="M14.25 8a.75.75 0 0 0 0 1.5h.5a.75.75 0 0 0 0-1.5h-.5Z"/><path fill-rule="evenodd" d="M5.25 5.5a2.75 2.75 0 0 0-2.75 2.75v3.5a2.75 2.75 0 0 0 2.75 2.75h9.5a2.75 2.75 0 0 0 2.75-2.75v-3.5a2.75 2.75 0 0 0-2.75-2.75h-9.5Zm-1.25 2.75c0-.69.56-1.25 1.25-1.25h9.5c.69 0 1.25.56 1.25 1.25v3.5c0 .69-.56 1.25-1.25 1.25h-9.5c-.69 0-1.25-.56-1.25-1.25v-3.5Z"/></svg>