<svg xmlns="http://www.w3.org/2000/svg" viewBox="0 0 16 16"><path d="m2.24 10.487-1.043 1.044-.022.023c-.42-.483-.675-1.114-.675-1.804v-3.5c0-1.519 1.231-2.75 2.75-2.75h5.978l-1.5 1.5h-4.478c-.69 0-1.25.56-1.25 1.25v3.5c0 .276.09.53.24.737Z"/><path d="m6.728 6-1.127 1.127c-.064-.111-.101-.24-.101-.377 0-.414.336-.75.75-.75h.478Z"/><path d="M10.5 9.25c0-.414.336-.75.75-.75h.5c.414 0 .75.336.75.75s-.336.75-.75.75h-.5c-.414 0-.75-.336-.75-.75Z"/><path d="M12.25 6c-.414 0-.75.336-.75.75s.336.75.75.75h.5c.414 0 .75-.336.75-.75s-.336-.75-.75-.75h-.5Z"/><path fill-rule="evenodd" d="m12.598 2.25-.006.007-10.335 10.335-.006.006c-.287.294-.285.764.006 1.055.293.293.768.293 1.06 0l1.154-1.153h8.279c1.519 0 2.75-1.231 2.75-2.75v-3.5c0-1.297-.898-2.384-2.105-2.674l.258-.259c.293-.292.293-.767 0-1.06-.29-.291-.761-.293-1.055-.006Zm.152 8.75h-6.78l1-1h2.28c.414 0 .75-.336.75-.75s-.336-.75-.75-.75h-.78l1-1h.28c.414 0 .75-.336.75-.75 0-.084-.014-.165-.04-.24l1.51-1.51h.78c.69 0 1.25.56 1.25 1.25v3.5c0 .69-.56 1.25-1.25 1.25Z"/><path d="M3.25 6c-.414 0-.75.336-.75.75s.336.75.75.75h.5c.414 0 .75-.336.75-.75s-.336-.75-.75-.75h-.5Z"/></svg>