<svg xmlns="http://www.w3.org/2000/svg" viewBox="0 0 20 20"><path d="M12.353 4.5h-8.353c-1.519 0-2.75 1.231-2.75 2.75v5.5c0 .79.334 1.504.868 2.005.028-.04.06-.08.095-.115l.956-.956c-.257-.229-.419-.563-.419-.934v-5.5c0-.69.56-1.25 1.25-1.25h6.853l1.5-1.5Z"/><path d="M8.793 8.06c-.09-.039-.189-.06-.293-.06h-.5c-.414 0-.75.336-.75.75 0 .233.107.442.274.58l1.27-1.27Z"/><path d="M13.75 11c-.414 0-.75.336-.75.75s.336.75.75.75h.5c.414 0 .75-.336.75-.75s-.336-.75-.75-.75h-.5Z"/><path d="M14.75 8c-.414 0-.75.336-.75.75s.336.75.75.75h.5c.414 0 .75-.336.75-.75s-.336-.75-.75-.75h-.5Z"/><path fill-rule="evenodd" d="m3.28 15.718.006-.006 12.478-12.478.005-.006c.297-.29.773-.288 1.067.006.296.296.296.776 0 1.072l-.255.255c1.24.267 2.169 1.37 2.169 2.689v5.5c0 1.519-1.231 2.75-2.75 2.75h-10.358l-1.284 1.284c-.296.297-.776.297-1.072 0-.295-.294-.297-.77-.006-1.066Zm12.72-1.718h-8.858l1.507-1.507c.033.005.067.007.101.007h2.5c.414 0 .75-.336.75-.75s-.336-.75-.75-.75h-1.108l1.5-1.5h.358c.414 0 .75-.336.75-.75 0-.105-.022-.206-.061-.297l2.453-2.453h.858c.69 0 1.25.56 1.25 1.25v5.5c0 .69-.56 1.25-1.25 1.25Z"/><path d="M4 8.75c0-.414.336-.75.75-.75h.5c.414 0 .75.336.75.75s-.336.75-.75.75h-.5c-.414 0-.75-.336-.75-.75Z"/></svg>