<svg xmlns="http://www.w3.org/2000/svg" viewBox="0 0 20 20"><path d="M8.75 11c-.414 0-.75.336-.75.75s.336.75.75.75h2.5c.414 0 .75-.336.75-.75s-.336-.75-.75-.75h-2.5Z"/><path d="M13 11.75c0-.414.336-.75.75-.75h.5c.414 0 .75.336.75.75s-.336.75-.75.75h-.5c-.414 0-.75-.336-.75-.75Z"/><path d="M5.75 11c-.414 0-.75.336-.75.75s.336.75.75.75h.5c.414 0 .75-.336.75-.75s-.336-.75-.75-.75h-.5Z"/><path d="M4 8.75c0-.414.336-.75.75-.75h.5c.414 0 .75.336.75.75s-.336.75-.75.75h-.5c-.414 0-.75-.336-.75-.75Z"/><path d="M8 8c-.414 0-.75.336-.75.75s.336.75.75.75h.5c.414 0 .75-.336.75-.75s-.336-.75-.75-.75h-.5Z"/><path d="M10.75 8.75c0-.414.336-.75.75-.75h.5c.414 0 .75.336.75.75s-.336.75-.75.75h-.5c-.414 0-.75-.336-.75-.75Z"/><path d="M14.75 8c-.414 0-.75.336-.75.75s.336.75.75.75h.5c.414 0 .75-.336.75-.75s-.336-.75-.75-.75h-.5Z"/><path fill-rule="evenodd" d="M4 4.5c-1.519 0-2.75 1.231-2.75 2.75v5.5c0 1.519 1.231 2.75 2.75 2.75h12c1.519 0 2.75-1.231 2.75-2.75v-5.5c0-1.519-1.231-2.75-2.75-2.75h-12Zm-1.25 2.75c0-.69.56-1.25 1.25-1.25h12c.69 0 1.25.56 1.25 1.25v5.5c0 .69-.56 1.25-1.25 1.25h-12c-.69 0-1.25-.56-1.25-1.25v-5.5Z"/></svg>