<svg xmlns="http://www.w3.org/2000/svg" viewBox="0 0 16 16"><path d="M8 5.75c.552 0 1-.448 1-1s-.448-1-1-1-1 .448-1 1 .448 1 1 1Z"/><path fill-rule="evenodd" d="M6.85.75c-2.402 0-4.35 1.948-4.35 4.35 0 1.566 1.059 2.885 2.5 3.28v3.435c0 .478.17.94.481 1.302l1.07 1.247c.695.81 1.904.933 2.746.277l1.309-1.018c.893-.694 1.002-1.94.376-2.776.549-.701.582-1.723.002-2.463 1.45-.39 2.516-1.712 2.516-3.284 0-2.402-1.948-4.35-4.35-4.35h-2.3Zm2.835 11.69c.245-.191.254-.547.044-.752l-.024-.022c-.02-.016-.04-.032-.062-.045l-.637-.399c-.331-.206-.308-.696.041-.87l.583-.292c.305-.152.37-.56.13-.8l-.614-.614c-.093-.093-.146-.22-.146-.353v-.793c0-.276.224-.5.5-.5h.6c1.05 0 1.9-.85 1.9-1.9 0-1.574-1.276-2.85-2.85-2.85h-2.3c-1.574 0-2.85 1.276-2.85 2.85 0 1.05.85 1.9 1.9 1.9h.1c.276 0 .5.224.5.5v4.315c0 .12.043.235.12.325l1.07 1.248c.173.203.476.233.686.07l1.31-1.019Z"/></svg>