<svg xmlns="http://www.w3.org/2000/svg" viewBox="0 0 20 20"><path d="M10 7.5c.69 0 1.25-.56 1.25-1.25s-.56-1.25-1.25-1.25-1.25.56-1.25 1.25.56 1.25 1.25 1.25Z"/><path fill-rule="evenodd" d="M8 1.75c-2.485 0-4.5 2.015-4.5 4.5v.75c0 1.763 1.304 3.222 3 3.465v4.828c0 .53.21 1.039.586 1.414l1.551 1.552c.696.695 1.795.782 2.59.203l1.858-1.35c1.04-.757 1.097-2.27.159-3.107.902-.69 1.05-1.995.321-2.87l-.53-.635c1.917-.02 3.465-1.579 3.465-3.5v-.75c0-2.485-2.015-4.5-4.5-4.5h-4Zm0 1.5c-1.657 0-3 1.343-3 3v.75c0 1.105.895 2 2 2h.5c.276 0 .5.224.5.5v5.793c0 .133.053.26.146.353l1.552 1.552c.174.174.449.195.647.05l1.857-1.35c.273-.198.275-.602.006-.804l-.925-.694c-.266-.2-.266-.6 0-.8l1.046-.784c.229-.172.267-.5.084-.72l-.797-.957c-.075-.09-.116-.203-.116-.32v-1.319c0-.276.224-.5.5-.5h1c1.105 0 2-.895 2-2v-.75c0-1.657-1.343-3-3-3h-4Z"/></svg>