<svg xmlns="http://www.w3.org/2000/svg" viewBox="0 0 20 20"><path d="M10 7.75a1 1 0 1 0 0-2 1 1 0 0 0 0 2Z"/><path fill-rule="evenodd" d="M8.85 2.75a4.35 4.35 0 0 0-4.35 4.35 3.401 3.401 0 0 0 2.5 3.28v3.435a2 2 0 0 0 .481 1.302l1.07 1.247a2 2 0 0 0 2.746.277l1.309-1.018a2.002 2.002 0 0 0 .376-2.776 2.004 2.004 0 0 0 .002-2.463 3.401 3.401 0 0 0 2.516-3.284 4.35 4.35 0 0 0-4.35-4.35h-2.3Zm2.835 11.69a.5.5 0 0 0-.042-.82l-.637-.397a.5.5 0 0 1 .041-.872l.582-.29a.5.5 0 0 0 .13-.802l-.613-.613a.5.5 0 0 1-.146-.353v-.793a.5.5 0 0 1 .5-.5h.6a1.9 1.9 0 0 0 1.9-1.9 2.85 2.85 0 0 0-2.85-2.85h-2.3a2.85 2.85 0 0 0-2.85 2.85c0 1.05.85 1.9 1.9 1.9h.1a.5.5 0 0 1 .5.5v4.315a.5.5 0 0 0 .12.325l1.07 1.248a.5.5 0 0 0 .686.07l1.31-1.019Z"/></svg>