<svg xmlns="http://www.w3.org/2000/svg" viewBox="0 0 16 16"><path d="M12 4.5c0 .552-.448 1-1 1s-1-.448-1-1 .448-1 1-1 1 .448 1 1Z"/><path d="M4.75 3.75c-.414 0-.75.336-.75.75s.336.75.75.75h3c.414 0 .75-.336.75-.75s-.336-.75-.75-.75h-3Z"/><path d="M6.5 11.5c0-.414.336-.75.75-.75h1.5c.414 0 .75.336.75.75s-.336.75-.75.75h-1.5c-.414 0-.75-.336-.75-.75Z"/><path d="M7.25 8.25c-.414 0-.75.336-.75.75s.336.75.75.75h1.5c.414 0 .75-.336.75-.75s-.336-.75-.75-.75h-1.5Z"/><path fill-rule="evenodd" d="M12 11.989v.511c0 1.105-.895 2-2 2h-4c-1.105 0-2-.895-2-2v-.511c-1.402-.127-2.5-1.305-2.5-2.739v-5c0-1.519 1.231-2.75 2.75-2.75h7.5c1.519 0 2.75 1.231 2.75 2.75v5c0 1.434-1.098 2.613-2.5 2.739Zm-7.75-8.989c-.69 0-1.25.56-1.25 1.25v5c0 .605.43 1.11 1 1.225v-2.475c0-1.105.895-2 2-2h4c1.105 0 2 .895 2 2v2.475c.57-.116 1-.62 1-1.225v-5c0-.69-.56-1.25-1.25-1.25h-7.5Zm1.75 4.5h4c.276 0 .5.224.5.5v4.5c0 .276-.224.5-.5.5h-4c-.276 0-.5-.224-.5-.5v-4.5c0-.276.224-.5.5-.5Z"/></svg>