<svg viewBox="0 0 20 20" xmlns="http://www.w3.org/2000/svg"><path d="M13.5 7.25a1 1 0 1 0 0-2 1 1 0 0 0 0 2Z" fill="#5C5F62"/><path d="M5.5 6.25a.75.75 0 0 1 .75-.75h3a.75.75 0 0 1 0 1.5h-3a.75.75 0 0 1-.75-.75Z" fill="#5C5F62"/><path d="M9.25 10.5a.75.75 0 0 0 0 1.5h1.5a.75.75 0 0 0 0-1.5h-1.5Z" fill="#5C5F62"/><path d="M8.5 13.75a.75.75 0 0 1 .75-.75h1.5a.75.75 0 0 1 0 1.5h-1.5a.75.75 0 0 1-.75-.75Z" fill="#5C5F62"/><path fill-rule="evenodd" d="M6 3a3 3 0 0 0-3 3v5a3 3 0 0 0 3 3v1a2 2 0 0 0 2 2h4a2 2 0 0 0 2-2v-1a3 3 0 0 0 3-3v-5a3 3 0 0 0-3-3h-8Zm8 9.5a1.5 1.5 0 0 0 1.5-1.5v-5a1.5 1.5 0 0 0-1.5-1.5h-8a1.5 1.5 0 0 0-1.5 1.5v5a1.5 1.5 0 0 0 1.5 1.5v-2.5a2 2 0 0 1 2-2h4a2 2 0 0 1 2 2v2.5Zm-6.5-2.5a.5.5 0 0 1 .5-.5h4a.5.5 0 0 1 .5.5v5a.5.5 0 0 1-.5.5h-4a.5.5 0 0 1-.5-.5v-5Z" fill="#5C5F62"/></svg>