<svg xmlns="http://www.w3.org/2000/svg" viewBox="0 0 20 20"><path d="M14 6c0 .552-.448 1-1 1s-1-.448-1-1 .448-1 1-1 1 .448 1 1Z"/><path d="M6.25 5.25c-.414 0-.75.336-.75.75s.336.75.75.75h3c.414 0 .75-.336.75-.75s-.336-.75-.75-.75h-3Z"/><path d="M8.5 13.75c0-.414.336-.75.75-.75h1.5c.414 0 .75.336.75.75s-.336.75-.75.75h-1.5c-.414 0-.75-.336-.75-.75Z"/><path d="M9.25 10.5c-.414 0-.75.336-.75.75s.336.75.75.75h1.5c.414 0 .75-.336.75-.75s-.336-.75-.75-.75h-1.5Z"/><path fill-rule="evenodd" d="M14.5 14v1.5c0 1.105-.895 2-2 2h-5c-1.105 0-2-.895-2-2v-1.5h-.25c-1.519 0-2.75-1.231-2.75-2.75v-6c0-1.519 1.231-2.75 2.75-2.75h9.5c1.519 0 2.75 1.231 2.75 2.75v6c0 1.519-1.231 2.75-2.75 2.75h-.25Zm-9.25-10c-.69 0-1.25.56-1.25 1.25v6c0 .69.56 1.25 1.25 1.25h.25v-3c0-1.105.895-2 2-2h5c1.105 0 2 .895 2 2v3h.25c.69 0 1.25-.56 1.25-1.25v-6c0-.69-.56-1.25-1.25-1.25h-9.5Zm1.75 5.5c0-.276.224-.5.5-.5h5c.276 0 .5.224.5.5v6c0 .276-.224.5-.5.5h-5c-.276 0-.5-.224-.5-.5v-6Z"/></svg>