<svg xmlns="http://www.w3.org/2000/svg" viewBox="0 0 20 20"><path d="m7.744 9.625-.744-2.046-.744 2.046h1.488Z"/><path d="M12.712 10.656c.301-.354.519-.737.679-1.109a5.454 5.454 0 0 0 .388-1.422h-2.134l.021.143c.054.339.16.798.368 1.28.16.37.377.754.678 1.108Z"/><path fill-rule="evenodd" d="M10.518 15.5h3.982a3.25 3.25 0 0 0 3.25-3.25v-6a3.25 3.25 0 0 0-3.25-3.25h-9a3.25 3.25 0 0 0-3.25 3.25v6a3.25 3.25 0 0 0 3.25 3.25h1.25v.75a1.25 1.25 0 0 0 2.134.884l1.634-1.634Zm-2.93-9.964a.625.625 0 0 0-1.175 0l-2 5.5a.625.625 0 0 0 1.174.428l.225-.618c.06.019.122.029.188.029h2.199l.214.589a.625.625 0 0 0 1.174-.428l-2-5.5Zm5.162-.161a.625.625 0 0 0-.625.625v.875h-1.875a.625.625 0 1 0 0 1.25h.136a6.711 6.711 0 0 0 .499 1.916c.202.47.484.964.874 1.423a4.399 4.399 0 0 1-1.166.481.625.625 0 1 0 .314 1.21 5.517 5.517 0 0 0 1.805-.82 5.518 5.518 0 0 0 1.805.82.625.625 0 1 0 .314-1.21 4.399 4.399 0 0 1-1.166-.48c.39-.46.672-.954.874-1.424a6.708 6.708 0 0 0 .499-1.916h.212a.625.625 0 1 0 0-1.25h-1.875v-.875a.625.625 0 0 0-.625-.625Z"/></svg>