<svg viewBox="0 0 20 20" fill="none" xmlns="http://www.w3.org/2000/svg"><path d="m7.992 9-.492-1.23-.492 1.23h.984Z" fill="#4A4A4A"/><path fill-rule="evenodd" clip-rule="evenodd" d="M10.621 15.75h3.879a3.5 3.5 0 0 0 3.5-3.5v-6a3.5 3.5 0 0 0-3.5-3.5h-9a3.5 3.5 0 0 0-3.5 3.5v6a3.5 3.5 0 0 0 3.5 3.5h1v.5a1.5 1.5 0 0 0 2.56 1.06l1.561-1.56Zm-3.121-10.75a.75.75 0 0 1 .696.471l2 5a.75.75 0 0 1-1.392.557l-.212-.528h-2.184l-.212.528a.75.75 0 0 1-1.392-.556l2-5a.75.75 0 0 1 .696-.472Zm5 1.5a.75.75 0 0 1 .75.75c0 .314-.033.748-.115 1.25h1.365a.75.75 0 0 1 .75.75c0 1.043-.128 1.977-.44 2.68-.322.724-.91 1.32-1.81 1.32a.75.75 0 0 1 0-1.5c.1 0 .262-.03.44-.43.134-.303.235-.743.282-1.32h-.945c-.326 1.02-.866 2.15-1.747 3.03a.75.75 0 1 1-1.06-1.06c.54-.542.937-1.243 1.217-1.97h-.187a.75.75 0 0 1 0-1.5h.612c.101-.53.138-.976.138-1.25a.75.75 0 0 1 .75-.75Z" fill="#4A4A4A"/></svg>