<svg viewBox="0 0 20 20" xmlns="http://www.w3.org/2000/svg"><path fill-rule="evenodd" d="M8 16.25v-2h-2.5a2 2 0 0 1-2-2v-6a2 2 0 0 1 2-2h9a2 2 0 0 1 2 2v6a2 2 0 0 1-2 2h-4.5l-2 2Zm2.621-.5h3.879a3.5 3.5 0 0 0 3.5-3.5v-6a3.5 3.5 0 0 0-3.5-3.5h-9a3.5 3.5 0 0 0-3.5 3.5v6a3.5 3.5 0 0 0 3.5 3.5h1v.5a1.5 1.5 0 0 0 2.56 1.06l1.561-1.56Zm-3.121-10.75a.75.75 0 0 1 .696.471l2 5a.75.75 0 0 1-1.392.557l-.212-.528h-2.184l-.212.528a.75.75 0 0 1-1.392-.556l2-5a.75.75 0 0 1 .696-.472Zm.492 4-.492-1.23-.492 1.23h.984Zm4.508-2.5a.75.75 0 0 1 .75.75c0 .314-.033.748-.115 1.25h1.365a.75.75 0 0 1 .702.487c.898 2.394-.58 4.263-2.202 4.263a.75.75 0 0 1 0-1.5c.337 0 1.187-.502.939-1.75h-1.162c-.326 1.02-.866 2.15-1.747 3.03a.75.75 0 1 1-1.06-1.06c.54-.542.937-1.243 1.217-1.97h-.187a.75.75 0 0 1 0-1.5h.612c.101-.53.138-.976.138-1.25a.75.75 0 0 1 .75-.75Z" fill="#5C5F62"/></svg>