<svg xmlns="http://www.w3.org/2000/svg" viewBox="0 0 20 20"><path fill-rule="evenodd" d="m9.192 15.315-1.5 1.435v-2.208h-3.192c-1.105 0-2-.896-2-2v-7.042c0-1.105.895-2 2-2h11c1.105 0 2 .895 2 2v7.042c0 1.104-.895 2-2 2h-5.5l-.808.773Zm1.41.727h4.898c1.933 0 3.5-1.567 3.5-3.5v-7.042c0-1.933-1.567-3.5-3.5-3.5h-11c-1.933 0-3.5 1.567-3.5 3.5v7.042c0 1.933 1.567 3.5 3.5 3.5h1.692v.708c0 .6.359 1.143.911 1.38.552.235 1.192.119 1.626-.296l1.873-1.792Zm-3.852-11.292c.299 0 .569.177.688.451l2.5 5.75c.165.38-.01.822-.389.987-.38.165-.822-.01-.987-.389l-.456-1.049h-2.712l-.456 1.049c-.165.38-.607.554-.987.389-.38-.165-.554-.607-.389-.987l2.5-5.75c.12-.274.39-.451.688-.451Zm.704 4.25-.704-1.619-.704 1.619h1.408Zm5.546-3c.414 0 .75.336.75.75 0 .35-.036.777-.116 1.25h1.62c.3 0 .572.179.69.455.595 1.388.563 2.646.016 3.593-.545.943-1.532 1.452-2.565 1.452-.414 0-.75-.336-.75-.75s.336-.75.75-.75c.54 0 1.01-.26 1.266-.702.215-.372.328-.966.072-1.798h-1.468c-.415 1.29-1.126 2.684-2.238 3.783-.294.292-.77.289-1.06-.006-.292-.294-.289-.77.006-1.06.789-.78 1.34-1.764 1.703-2.717h-.176c-.414 0-.75-.336-.75-.75s.336-.75.75-.75h.61c.096-.483.14-.914.14-1.25 0-.414.336-.75.75-.75Z"/></svg>