<svg viewBox="0 0 20 20" xmlns="http://www.w3.org/2000/svg"><path d="M7.74404 9.625L6.99999 7.57886L6.25594 9.625H7.74404Z" fill="#5C5F62"/><path fill-rule="evenodd" d="M10.5178 15.5H14.5C16.2949 15.5 17.75 14.0449 17.75 12.25V6.25C17.75 4.45507 16.2949 3 14.5 3H5.5C3.70507 3 2.25 4.45507 2.25 6.25V12.25C2.25 14.0449 3.70507 15.5 5.5 15.5H6.75V16.25C6.75 16.7556 7.05455 17.2114 7.52165 17.4048C7.98874 17.5983 8.52639 17.4914 8.88388 17.1339L10.5178 15.5ZM7.58736 5.53641C7.49754 5.28942 7.2628 5.125 6.99999 5.125C6.73717 5.125 6.50243 5.28942 6.41262 5.53641L4.41262 11.0364C4.29465 11.3608 4.462 11.7194 4.7864 11.8374C5.11079 11.9553 5.4694 11.788 5.58736 11.4636L5.81187 10.8462C5.87124 10.8649 5.93444 10.875 6 10.875H8.19858L8.41262 11.4636C8.53058 11.788 8.88918 11.9553 9.21358 11.8374C9.53797 11.7194 9.70532 11.3608 9.58736 11.0364L7.58736 5.53641ZM12.75 5.375C12.4048 5.375 12.125 5.65482 12.125 6V6.87499L10.25 6.87499C9.90479 6.87499 9.62497 7.15481 9.62497 7.49999C9.62497 7.84516 9.90479 8.12499 10.25 8.12499L10.3865 8.12499C10.3967 8.22265 10.4112 8.33713 10.4316 8.46518C10.4976 8.87799 10.6275 9.44137 10.8852 10.041C11.0872 10.5109 11.3692 11.0046 11.7591 11.4641C11.4278 11.6629 11.0422 11.8284 10.593 11.945C10.2589 12.0317 10.0583 12.3728 10.145 12.707C10.2317 13.0411 10.5729 13.2416 10.907 13.1549C11.6243 12.9688 12.2193 12.6816 12.7121 12.3352C13.205 12.6816 13.8 12.9688 14.5173 13.1549C14.8514 13.2416 15.1925 13.0411 15.2792 12.707C15.3659 12.3728 15.1654 12.0317 14.8313 11.945C14.3821 11.8284 13.9965 11.6629 13.6652 11.4641C14.0551 11.0046 14.3371 10.5109 14.539 10.041C14.7968 9.44137 14.9267 8.87799 14.9927 8.46518C15.0131 8.33713 15.0276 8.22266 15.0378 8.125L15.25 8.125C15.5952 8.125 15.875 7.84518 15.875 7.5C15.875 7.15483 15.5952 6.875 15.25 6.875L13.375 6.875V6C13.375 5.65482 13.0952 5.375 12.75 5.375Z" fill="#5C5F62"/></svg>