<svg xmlns="http://www.w3.org/2000/svg" viewBox="0 0 16 16"><path fill-rule="evenodd" d="M4.955 1.994c-.108-.297-.39-.494-.705-.494-.315 0-.597.197-.705.494l-2 5.5c-.141.389.06.82.449.96.389.142.82-.058.96-.448l.188-.514c.035.005.071.008.108.008h2.111l.184.506c.142.39.572.59.961.449.39-.142.59-.572.449-.961l-2-5.5Zm-.705 2.45.566 1.556h-1.132l.566-1.555Z"/><path d="M12.55 5.75v-1c0-.138-.112-.25-.25-.25h-1.49l.22.22c.293.293.293.767 0 1.06-.293.293-.768.293-1.06 0l-1.5-1.5c-.141-.14-.22-.331-.22-.53s.079-.39.22-.53l1.5-1.5c.292-.293.767-.293 1.06 0 .293.293.293.767 0 1.06l-.22.22h1.49c.966 0 1.75.783 1.75 1.75v1c0 .414-.336.75-.75.75s-.75-.336-.75-.75Z"/><path d="M3.5 10.25v1c0 .138.112.25.25.25h1.49l-.22-.22c-.293-.293-.293-.767 0-1.06.293-.293.768-.293 1.06 0l1.5 1.5c.141.14.22.331.22.53s-.079.39-.22.53l-1.5 1.5c-.292.293-.767.293-1.06 0-.293-.293-.293-.767 0-1.06l.22-.22h-1.49c-.966 0-1.75-.784-1.75-1.75v-1c0-.414.336-.75.75-.75s.75.336.75.75Z"/><path fill-rule="evenodd" d="M9.002 9.5h-.252c-.414 0-.75-.336-.75-.75s.336-.75.75-.75h1.75v-.25c0-.414.336-.75.75-.75s.75.336.75.75v.25h1.75c.414 0 .75.336.75.75s-.336.75-.75.75h-.312c-.003.11-.011.247-.027.405-.042.402-.141.951-.374 1.54-.16.405-.383.826-.689 1.227.293.161.634.3 1.03.402.401.104.642.513.538.914-.104.401-.514.642-.914.538-.71-.184-1.298-.459-1.782-.788-.485.329-1.072.604-1.782.788-.4.104-.81-.137-.914-.538-.104-.4.137-.81.538-.914.396-.103.737-.24 1.03-.402-.306-.401-.53-.822-.69-1.227-.232-.589-.33-1.138-.373-1.54-.016-.158-.024-.295-.027-.405Zm2.935 0h-1.434c.003.07.008.154.018.25.032.303.107.713.277 1.144.101.257.237.524.422.782.185-.258.32-.525.422-.782.17-.43.245-.84.277-1.144.01-.096.015-.18.018-.25Z"/></svg>