<svg xmlns="http://www.w3.org/2000/svg" viewBox="0 0 16 16"><path d="m5.744 7.625-.744-2.046-.744 2.046h1.488Z"/><path d="M10.712 8.656c.301-.354.519-.737.679-1.109.207-.481.313-.94.367-1.279l.021-.143h-2.134l.021.143c.054.339.16.798.368 1.28.16.37.377.754.678 1.108Z"/><path fill-rule="evenodd" d="M8.518 13.5h3.982c1.795 0 3.25-1.455 3.25-3.25v-6c0-1.795-1.455-3.25-3.25-3.25h-9c-1.795 0-3.25 1.455-3.25 3.25v6c0 1.795 1.455 3.25 3.25 3.25h1.25v.75c0 .506.305.961.772 1.155.467.193 1.004.086 1.362-.271l1.634-1.634Zm-2.93-9.964c-.09-.247-.325-.411-.588-.411-.263 0-.498.164-.587.411l-2 5.5c-.118.325.049.683.373.801.325.118.683-.049.801-.373l.225-.618c.06.019.122.029.188.029h2.199l.214.589c.118.324.476.491.8.373.325-.118.492-.476.374-.8l-2-5.5Zm5.162-.161c-.345 0-.625.28-.625.625v.875h-1.875c-.345 0-.625.28-.625.625s.28.625.625.625h.136c.01.098.025.212.046.34.066.413.195.976.453 1.576.202.47.484.964.874 1.423-.331.199-.717.364-1.166.481-.334.087-.535.428-.448.762.087.334.428.535.762.448.717-.186 1.312-.473 1.805-.82.493.347 1.088.634 1.805.82.334.087.676-.114.762-.448.087-.334-.114-.675-.448-.762-.449-.117-.835-.282-1.166-.48.39-.46.672-.954.874-1.424.258-.6.388-1.163.454-1.576.02-.128.035-.242.045-.34h.212c.345 0 .625-.28.625-.625s-.28-.625-.625-.625h-1.875v-.875c0-.345-.28-.625-.625-.625Z"/></svg>