<svg xmlns="http://www.w3.org/2000/svg" viewBox="0 0 20 20"><path fill-rule="evenodd" d="M5.25 1.5c.317 0 .6.2.706.498l2.5 7c.14.39-.064.819-.454.958-.39.14-.819-.064-.958-.454l-.448-1.252h-2.692l-.448 1.252c-.139.39-.568.594-.958.454-.39-.139-.594-.568-.454-.958l2.5-7c.106-.299.39-.498.706-.498Zm0 2.98.81 2.27h-1.62l.81-2.27Z"/><path d="M16.5 6.75v1c0 .414.336.75.75.75s.75-.336.75-.75v-1c0-1.519-1.231-2.75-2.75-2.75h-2.69l1.22-1.22c.293-.293.293-.767 0-1.06-.293-.293-.768-.293-1.06 0l-2.5 2.5c-.141.14-.22.331-.22.53s.079.39.22.53l2.5 2.5c.292.293.767.293 1.06 0 .293-.293.293-.767 0-1.06l-1.22-1.22h2.69c.69 0 1.25.56 1.25 1.25Z"/><path fill-rule="evenodd" d="M14.75 10.25c-.414 0-.75.336-.75.75v.25h-2c-.414 0-.75.336-.75.75s.336.75.75.75h.408l.063.226c.145.496.38 1.17.74 1.882.163.322.354.657.579.99-.529.539-1.18.97-1.977 1.176-.4.104-.642.513-.538.914.105.401.514.642.915.538 1.053-.273 1.894-.818 2.56-1.469.667.65 1.508 1.196 2.562 1.469.4.104.81-.137.914-.538.104-.4-.137-.81-.538-.914-.797-.207-1.448-.637-1.976-1.177.224-.332.416-.667.579-.99.36-.71.594-1.385.74-1.881l.063-.226h.406c.414 0 .75-.336.75-.75s-.336-.75-.75-.75h-2v-.25c0-.414-.336-.75-.75-.75Zm.781 2.5h-1.56c.127.406.315.91.578 1.43.064.126.13.25.202.375.07-.124.138-.25.201-.374.264-.521.451-1.025.58-1.431Z"/><path d="M3.5 13.25v-1c0-.414-.336-.75-.75-.75s-.75.336-.75.75v1c0 1.519 1.231 2.75 2.75 2.75h2.69l-1.22 1.22c-.293.293-.293.767 0 1.06.293.293.767.293 1.06 0l2.5-2.5c.141-.14.22-.331.22-.53s-.079-.39-.22-.53l-2.5-2.5c-.293-.293-.767-.293-1.06 0-.293.293-.293.767 0 1.06l1.22 1.22h-2.69c-.69 0-1.25-.56-1.25-1.25Z"/></svg>