<svg viewBox="0 0 20 20" xmlns="http://www.w3.org/2000/svg"><path fill-rule="evenodd" d="M15.25 8.25L15.1493 8.25C15.1405 8.32198 15.1296 8.40058 15.1161 8.4849C15.049 8.90511 14.9167 9.47895 14.6539 10.0904C14.4652 10.5293 14.2077 10.9892 13.8598 11.4243C14.1545 11.5875 14.491 11.7241 14.8759 11.824C15.2768 11.9281 15.5175 12.3374 15.4135 12.7384C15.3094 13.1393 14.9 13.38 14.4991 13.2759C13.7974 13.0938 13.2099 12.8168 12.7188 12.4826C12.2276 12.8168 11.6401 13.0938 10.9384 13.2759C10.5375 13.38 10.1281 13.1393 10.024 12.7384C9.92 12.3374 10.1607 11.9281 10.5616 11.824C10.9465 11.7241 11.283 11.5875 11.5777 11.4243C11.2298 10.9892 10.9723 10.5293 10.7836 10.0904C10.5208 9.47895 10.3885 8.90511 10.3214 8.4849C10.3079 8.40057 10.297 8.32197 10.2881 8.24999H10.25C9.83576 8.24999 9.49997 7.9142 9.49998 7.49999C9.49998 7.08577 9.83576 6.74999 10.25 6.74999L12 6.74999V6C12 5.58579 12.3358 5.25 12.75 5.25C13.1642 5.25 13.5 5.58579 13.5 6V6.75L15.25 6.75C15.6642 6.75 16 7.08579 16 7.5C16 7.91422 15.6642 8.25 15.25 8.25ZM11.8029 8.24999C11.856 8.58135 11.96 9.02884 12.1617 9.49798C12.2984 9.81595 12.4785 10.1423 12.7188 10.4501C12.959 10.1423 13.1391 9.81595 13.2758 9.49798C13.4775 9.02885 13.5815 8.58136 13.6346 8.25L11.8029 8.24999Z" fill="#5C5F62"/></svg>