<svg xmlns="http://www.w3.org/2000/svg" viewBox="0 0 20 20"><path d="M6.25 3.5c-1.519 0-2.75 1.231-2.75 2.75 0 .414.336.75.75.75s.75-.336.75-.75c0-.69.56-1.25 1.25-1.25.414 0 .75-.336.75-.75s-.336-.75-.75-.75Z"/><path d="M16.5 6.25c0-1.519-1.231-2.75-2.75-2.75-.414 0-.75.336-.75.75s.336.75.75.75c.69 0 1.25.56 1.25 1.25 0 .414.336.75.75.75s.75-.336.75-.75Z"/><path d="M16.5 13.75c0 1.519-1.231 2.75-2.75 2.75-.414 0-.75-.336-.75-.75s.336-.75.75-.75c.69 0 1.25-.56 1.25-1.25 0-.414.336-.75.75-.75s.75.336.75.75Z"/><path d="M3.5 13.75c0 1.519 1.231 2.75 2.75 2.75.414 0 .75-.336.75-.75s-.336-.75-.75-.75c-.69 0-1.25-.56-1.25-1.25 0-.414-.336-.75-.75-.75s-.75.336-.75.75Z"/><path d="M15.75 11.75c-.414 0-.75-.336-.75-.75v-2c0-.414.336-.75.75-.75s.75.336.75.75v2c0 .414-.336.75-.75.75Z"/><path d="M3.5 11c0 .414.336.75.75.75s.75-.336.75-.75v-2c0-.414-.336-.75-.75-.75s-.75.336-.75.75v2Z"/><path fill-rule="evenodd" d="M9 5.5c-1.105 0-2 .895-2 2v2c0 1.105.895 2 2 2h2c1.105 0 2-.895 2-2v-2c0-1.105-.895-2-2-2h-2Zm2 1.5h-2c-.276 0-.5.224-.5.5v2c0 .276.224.5.5.5h2c.276 0 .5-.224.5-.5v-2c0-.276-.224-.5-.5-.5Z"/><path d="M7.75 13c-.414 0-.75.336-.75.75s.336.75.75.75h4.5c.414 0 .75-.336.75-.75s-.336-.75-.75-.75h-4.5Z"/></svg>