<svg xmlns="http://www.w3.org/2000/svg" viewBox="0 0 20 20"><path d="M2.5 5.25c0-1.519 1.231-2.75 2.75-2.75h.5c.414 0 .75.336.75.75s-.336.75-.75.75h-.5c-.69 0-1.25.56-1.25 1.25v.5c0 .414-.336.75-.75.75s-.75-.336-.75-.75v-.5Z"/><path d="M5.25 17.5c-1.519 0-2.75-1.231-2.75-2.75v-.5c0-.414.336-.75.75-.75s.75.336.75.75v.5c0 .69.56 1.25 1.25 1.25h.5c.414 0 .75.336.75.75s-.336.75-.75.75h-.5Z"/><path d="M17.5 5.25c0-1.519-1.231-2.75-2.75-2.75h-.5c-.414 0-.75.336-.75.75s.336.75.75.75h.5c.69 0 1.25.56 1.25 1.25v.522c0 .414.336.75.75.75s.75-.336.75-.75v-.522Z"/><path d="M17.5 14.75c0 1.519-1.231 2.75-2.75 2.75h-.522c-.414 0-.75-.336-.75-.75s.336-.75.75-.75h.522c.69 0 1.25-.56 1.25-1.25v-.5c0-.414.336-.75.75-.75s.75.336.75.75v.5Z"/><path d="M4 8.75c0-.414-.336-.75-.75-.75s-.75.336-.75.75v2.5c0 .414.336.75.75.75s.75-.336.75-.75v-2.5Z"/><path d="M16.75 8c.414 0 .75.336.75.75v2.5c0 .414-.336.75-.75.75s-.75-.336-.75-.75v-2.5c0-.414.336-.75.75-.75Z"/><path d="M11.25 4c.414 0 .75-.336.75-.75s-.336-.75-.75-.75h-2.5c-.414 0-.75.336-.75.75s.336.75.75.75h2.5Z"/><path d="M12 16.75c0 .414-.336.75-.75.75h-2.5c-.414 0-.75-.336-.75-.75s.336-.75.75-.75h2.5c.414 0 .75.336.75.75Z"/><path fill-rule="evenodd" d="M5.5 8.5c0-1.657 1.343-3 3-3h3c1.657 0 3 1.343 3 3v3c0 1.657-1.343 3-3 3h-3c-1.657 0-3-1.343-3-3v-3Zm3-1.5h3c.828 0 1.5.672 1.5 1.5v3c0 .828-.672 1.5-1.5 1.5h-3c-.828 0-1.5-.672-1.5-1.5v-3c0-.828.672-1.5 1.5-1.5Z"/></svg>