<svg xmlns="http://www.w3.org/2000/svg" viewBox="0 0 16 16"><path fill-rule="evenodd" d="M1.5 3.25c0-.966.784-1.75 1.75-1.75h1c.414 0 .75.336.75.75s-.336.75-.75.75h-1c-.138 0-.25.112-.25.25v1c0 .414-.336.75-.75.75s-.75-.336-.75-.75v-1Zm1.75 11.25c-.966 0-1.75-.784-1.75-1.75v-1c0-.414.336-.75.75-.75s.75.336.75.75v1c0 .138.112.25.25.25h1c.414 0 .75.336.75.75s-.336.75-.75.75h-1Zm11.25-11.25c0-.966-.784-1.75-1.75-1.75h-1c-.414 0-.75.336-.75.75s.336.75.75.75h1c.138 0 .25.112.25.25v1c0 .414.336.75.75.75s.75-.336.75-.75v-1Zm0 9.5c0 .966-.784 1.75-1.75 1.75h-1c-.414 0-.75-.336-.75-.75s.336-.75.75-.75h1c.138 0 .25-.112.25-.25v-1c0-.414.336-.75.75-.75s.75.336.75.75v1Zm-5.5-9.75c.414 0 .75-.336.75-.75s-.336-.75-.75-.75h-2c-.414 0-.75.336-.75.75s.336.75.75.75h2Zm.75 10.75c0 .414-.336.75-.75.75h-2c-.414 0-.75-.336-.75-.75s.336-.75.75-.75h2c.414 0 .75.336.75.75Zm-5.75-8.25c-1.38 0-2.5 1.12-2.5 2.5s1.12 2.5 2.5 2.5h8c1.38 0 2.5-1.12 2.5-2.5s-1.12-2.5-2.5-2.5h-8Zm-1 2.5c0-.552.448-1 1-1h8c.552 0 1 .448 1 1s-.448 1-1 1h-8c-.552 0-1-.448-1-1Z"/></svg>