<svg xmlns="http://www.w3.org/2000/svg" viewBox="0 0 20 20"><path d="M2.5 5.25c0-1.519 1.231-2.75 2.75-2.75h.5c.414 0 .75.336.75.75s-.336.75-.75.75h-.5c-.69 0-1.25.56-1.25 1.25v.5c0 .414-.336.75-.75.75s-.75-.336-.75-.75v-.5Z"/><path fill-rule="evenodd" d="M2.5 9.25c0-.966.784-1.75 1.75-1.75h11.5c.966 0 1.75.784 1.75 1.75v1.5c0 .966-.784 1.75-1.75 1.75h-11.5c-.966 0-1.75-.784-1.75-1.75v-1.5Zm1.75-.25c-.138 0-.25.112-.25.25v1.5c0 .138.112.25.25.25h11.5c.138 0 .25-.112.25-.25v-1.5c0-.138-.112-.25-.25-.25h-11.5Z"/><path d="M2.5 14.75c0 1.519 1.231 2.75 2.75 2.75h.5c.414 0 .75-.336.75-.75s-.336-.75-.75-.75h-.5c-.69 0-1.25-.56-1.25-1.25v-.5c0-.414-.336-.75-.75-.75s-.75.336-.75.75v.5Z"/><path d="M14.75 2.5c1.519 0 2.75 1.231 2.75 2.75v.522c0 .414-.336.75-.75.75s-.75-.336-.75-.75v-.522c0-.69-.56-1.25-1.25-1.25h-.5c-.414 0-.75-.336-.75-.75s.336-.75.75-.75h.5Z"/><path d="M14.75 17.5c1.519 0 2.75-1.231 2.75-2.75v-.5c0-.414-.336-.75-.75-.75s-.75.336-.75.75v.5c0 .69-.56 1.25-1.25 1.25h-.522c-.414 0-.75.336-.75.75s.336.75.75.75h.522Z"/><path d="M12 3.25c0 .414-.336.75-.75.75h-2.5c-.414 0-.75-.336-.75-.75s.336-.75.75-.75h2.5c.414 0 .75.336.75.75Z"/><path d="M11.25 17.5c.414 0 .75-.336.75-.75s-.336-.75-.75-.75h-2.5c-.414 0-.75.336-.75.75s.336.75.75.75h2.5Z"/></svg>