<svg xmlns="http://www.w3.org/2000/svg" viewBox="0 0 16 16"><path d="M1.5 4.25c0-1.519 1.231-2.75 2.75-2.75.414 0 .75.336.75.75s-.336.75-.75.75c-.69 0-1.25.56-1.25 1.25 0 .414-.336.75-.75.75s-.75-.336-.75-.75Z"/><path d="M4.25 14.5c-1.519 0-2.75-1.231-2.75-2.75 0-.414.336-.75.75-.75s.75.336.75.75c0 .69.56 1.25 1.25 1.25.414 0 .75.336.75.75s-.336.75-.75.75Z"/><path d="M14.5 4.25c0-1.519-1.231-2.75-2.75-2.75-.414 0-.75.336-.75.75s.336.75.75.75c.69 0 1.25.56 1.25 1.25 0 .414.336.75.75.75s.75-.336.75-.75Z"/><path d="M14.5 11.75c0 1.519-1.231 2.75-2.75 2.75-.414 0-.75-.336-.75-.75s.336-.75.75-.75c.69 0 1.25-.56 1.25-1.25 0-.414.336-.75.75-.75s.75.336.75.75Z"/><path d="M3 7c0-.414-.336-.75-.75-.75s-.75.336-.75.75v2c0 .414.336.75.75.75s.75-.336.75-.75v-2Z"/><path d="M13.75 6.25c.414 0 .75.336.75.75v2c0 .414-.336.75-.75.75s-.75-.336-.75-.75v-2c0-.414.336-.75.75-.75Z"/><path d="M9 3c.414 0 .75-.336.75-.75s-.336-.75-.75-.75h-2c-.414 0-.75.336-.75.75s.336.75.75.75h2Z"/><path d="M9.75 13.75c0 .414-.336.75-.75.75h-2c-.414 0-.75-.336-.75-.75s.336-.75.75-.75h2c.414 0 .75.336.75.75Z"/><path fill-rule="evenodd" d="M4 7c0-1.657 1.343-3 3-3h2c1.657 0 3 1.343 3 3v2c0 1.657-1.343 3-3 3h-2c-1.657 0-3-1.343-3-3v-2Zm3-1.5h2c.828 0 1.5.672 1.5 1.5v2c0 .828-.672 1.5-1.5 1.5h-2c-.828 0-1.5-.672-1.5-1.5v-2c0-.828.672-1.5 1.5-1.5Z"/></svg>