<svg xmlns="http://www.w3.org/2000/svg" viewBox="0 0 16 16"><path d="M3.25 1.5c-.966 0-1.75.784-1.75 1.75v1.5c0 .414.336.75.75.75s.75-.336.75-.75v-1.5c0-.138.112-.25.25-.25h1.5c.414 0 .75-.336.75-.75s-.336-.75-.75-.75h-1.5Z"/><path fill-rule="evenodd" d="M9.25 1.5c-1.519 0-2.75 1.231-2.75 2.75v2.5c0 1.519 1.231 2.75 2.75 2.75h2.5c1.519 0 2.75-1.231 2.75-2.75v-2.5c0-1.519-1.231-2.75-2.75-2.75h-2.5Zm-1.25 2.75c0-.69.56-1.25 1.25-1.25h2.5c.69 0 1.25.56 1.25 1.25v2.5c0 .69-.56 1.25-1.25 1.25h-2.5c-.69 0-1.25-.56-1.25-1.25v-2.5Z"/><path d="M2.25 10.5c.414 0 .75.336.75.75v1.5c0 .138.112.25.25.25h1.5c.414 0 .75.336.75.75s-.336.75-.75.75h-1.5c-.966 0-1.75-.784-1.75-1.75v-1.5c0-.414.336-.75.75-.75Z"/><path d="M14.5 11.25c0-.414-.336-.75-.75-.75s-.75.336-.75.75v1.5c0 .138-.112.25-.25.25h-1.5c-.414 0-.75.336-.75.75s.336.75.75.75h1.5c.966 0 1.75-.784 1.75-1.75v-1.5Z"/><path d="M2.25 6.25c.414 0 .75.336.75.75v2c0 .414-.336.75-.75.75s-.75-.336-.75-.75v-2c0-.414.336-.75.75-.75Z"/><path d="M7 13c-.414 0-.75.336-.75.75s.336.75.75.75h2c.414 0 .75-.336.75-.75s-.336-.75-.75-.75h-2Z"/></svg>