<svg xmlns="http://www.w3.org/2000/svg" viewBox="0 0 16 16"><path fill-rule="evenodd" d="M1.5 3.25c0-.966.784-1.75 1.75-1.75h9.5c.966 0 1.75.784 1.75 1.75v1.5c0 .966-.784 1.75-1.75 1.75h-9.5c-.966 0-1.75-.784-1.75-1.75v-1.5Zm1.75-.25c-.138 0-.25.112-.25.25v1.5c0 .138.112.25.25.25h9.5c.138 0 .25-.112.25-.25v-1.5c0-.138-.112-.25-.25-.25h-9.5Z"/><path d="M1.5 9.25c0-.966.784-1.75 1.75-1.75h.5c.414 0 .75.336.75.75s-.336.75-.75.75h-.5c-.138 0-.25.112-.25.25v.5c0 .414-.336.75-.75.75s-.75-.336-.75-.75v-.5Z"/><path d="M1.5 12.75c0 .966.784 1.75 1.75 1.75h.5c.414 0 .75-.336.75-.75s-.336-.75-.75-.75h-.5c-.138 0-.25-.112-.25-.25v-.5c0-.414-.336-.75-.75-.75s-.75.336-.75.75v.5Z"/><path d="M12.75 7.5c.966 0 1.75.784 1.75 1.75v.5c0 .414-.336.75-.75.75s-.75-.336-.75-.75v-.5c0-.138-.112-.25-.25-.25h-.5c-.414 0-.75-.336-.75-.75s.336-.75.75-.75h.5Z"/><path d="M12.75 14.5c.966 0 1.75-.784 1.75-1.75v-.5c0-.414-.336-.75-.75-.75s-.75.336-.75.75v.5c0 .138-.112.25-.25.25h-.5c-.414 0-.75.336-.75.75s.336.75.75.75h.5Z"/><path d="M9.75 8.25c0 .414-.336.75-.75.75h-2c-.414 0-.75-.336-.75-.75s.336-.75.75-.75h2c.414 0 .75.336.75.75Z"/><path d="M9 14.5c.414 0 .75-.336.75-.75s-.336-.75-.75-.75h-2c-.414 0-.75.336-.75.75s.336.75.75.75h2Z"/></svg>