<svg xmlns="http://www.w3.org/2000/svg" viewBox="0 0 16 16"><path d="M3.25 1.5c-.966 0-1.75.784-1.75 1.75v1c0 .414.336.75.75.75s.75-.336.75-.75v-1c0-.138.112-.25.25-.25h1c.414 0 .75-.336.75-.75s-.336-.75-.75-.75h-1Z"/><path d="M14.5 3.25c0-.966-.784-1.75-1.75-1.75h-1c-.414 0-.75.336-.75.75s.336.75.75.75h1c.138 0 .25.112.25.25v1c0 .414.336.75.75.75s.75-.336.75-.75v-1Z"/><path d="M14.5 12.75c0 .966-.784 1.75-1.75 1.75h-1c-.414 0-.75-.336-.75-.75s.336-.75.75-.75h1c.138 0 .25-.112.25-.25v-1c0-.414.336-.75.75-.75s.75.336.75.75v1Z"/><path d="M1.5 12.75c0 .966.784 1.75 1.75 1.75h1c.414 0 .75-.336.75-.75s-.336-.75-.75-.75h-1c-.138 0-.25-.112-.25-.25v-1c0-.414-.336-.75-.75-.75s-.75.336-.75.75v1Z"/><path d="M13.75 9.75c-.414 0-.75-.336-.75-.75v-2c0-.414.336-.75.75-.75s.75.336.75.75v2c0 .414-.336.75-.75.75Z"/><path d="M1.5 9c0 .414.336.75.75.75s.75-.336.75-.75v-2c0-.414-.336-.75-.75-.75s-.75.336-.75.75v2Z"/><path fill-rule="evenodd" d="M7 3.5c-1.105 0-2 .895-2 2v2c0 1.105.895 2 2 2h2c1.105 0 2-.895 2-2v-2c0-1.105-.895-2-2-2h-2Zm2 1.5h-2c-.276 0-.5.224-.5.5v2c0 .276.224.5.5.5h2c.276 0 .5-.224.5-.5v-2c0-.276-.224-.5-.5-.5Z"/><path d="M5.75 11c-.414 0-.75.336-.75.75s.336.75.75.75h4.5c.414 0 .75-.336.75-.75s-.336-.75-.75-.75h-4.5Z"/></svg>