<svg xmlns="http://www.w3.org/2000/svg" viewBox="0 0 16 16"><path d="M1.5 3.25c0-.966.784-1.75 1.75-1.75h1c.414 0 .75.336.75.75s-.336.75-.75.75h-1c-.138 0-.25.112-.25.25v1c0 .414-.336.75-.75.75s-.75-.336-.75-.75v-1Z"/><path fill-rule="evenodd" d="M4.5 5c-1.105 0-2 .895-2 2v2c0 1.105.895 2 2 2h2c1.105 0 2-.895 2-2v-2c0-1.105-.895-2-2-2h-2Zm2 1.5h-2c-.276 0-.5.224-.5.5v2c0 .276.224.5.5.5h2c.276 0 .5-.224.5-.5v-2c0-.276-.224-.5-.5-.5Z"/><path d="M9 6.5c0-.414.336-.75.75-.75h3c.414 0 .75.336.75.75s-.336.75-.75.75h-3c-.414 0-.75-.336-.75-.75Z"/><path d="M9.75 8.75c-.414 0-.75.336-.75.75s.336.75.75.75h1.5c.414 0 .75-.336.75-.75s-.336-.75-.75-.75h-1.5Z"/><path d="M1.5 12.75c0 .966.784 1.75 1.75 1.75h1c.414 0 .75-.336.75-.75s-.336-.75-.75-.75h-1c-.138 0-.25-.112-.25-.25v-1c0-.414-.336-.75-.75-.75s-.75.336-.75.75v1Z"/><path d="M12.75 1.5c.966 0 1.75.784 1.75 1.75v1c0 .414-.336.75-.75.75s-.75-.336-.75-.75v-1c0-.138-.112-.25-.25-.25h-1c-.414 0-.75-.336-.75-.75s.336-.75.75-.75h1Z"/><path d="M12.75 14.5c.966 0 1.75-.784 1.75-1.75v-1c0-.414-.336-.75-.75-.75s-.75.336-.75.75v1c0 .138-.112.25-.25.25h-1c-.414 0-.75.336-.75.75s.336.75.75.75h1Z"/><path d="M9.75 2.25c0 .414-.336.75-.75.75h-2c-.414 0-.75-.336-.75-.75s.336-.75.75-.75h2c.414 0 .75.336.75.75Z"/><path d="M9 14.5c.414 0 .75-.336.75-.75s-.336-.75-.75-.75h-2c-.414 0-.75.336-.75.75s.336.75.75.75h2Z"/></svg>