<svg xmlns="http://www.w3.org/2000/svg" viewBox="0 0 16 16"><path d="M3 4.25c0-.69.56-1.25 1.25-1.25h2c.414 0 .75-.336.75-.75s-.336-.75-.75-.75h-2c-1.519 0-2.75 1.231-2.75 2.75v2c0 .414.336.75.75.75s.75-.336.75-.75v-2Z"/><path d="M11.75 3c.69 0 1.25.56 1.25 1.25v2c0 .414.336.75.75.75s.75-.336.75-.75v-2c0-1.519-1.231-2.75-2.75-2.75h-2c-.414 0-.75.336-.75.75s.336.75.75.75h2Z"/><path d="M11.75 13c.69 0 1.25-.56 1.25-1.25v-2c0-.414.336-.75.75-.75s.75.336.75.75v2c0 1.519-1.231 2.75-2.75 2.75h-2c-.414 0-.75-.336-.75-.75s.336-.75.75-.75h2Z"/><path d="M4.25 13c-.69 0-1.25-.56-1.25-1.25v-2c0-.414-.336-.75-.75-.75s-.75.336-.75.75v2c0 1.519 1.231 2.75 2.75 2.75h2c.414 0 .75-.336.75-.75s-.336-.75-.75-.75h-2Z"/></svg>