<svg xmlns="http://www.w3.org/2000/svg" viewBox="0 0 20 21"><path d="M3.5 7.044c0-1.519 1.231-2.75 2.75-2.75.414 0 .75.336.75.75s-.336.75-.75.75c-.69 0-1.25.56-1.25 1.25 0 .414-.336.75-.75.75s-.75-.336-.75-.75Z"/><path fill-rule="evenodd" d="M3.5 10.044c0-.966.784-1.75 1.75-1.75h9.5c.966 0 1.75.784 1.75 1.75v1.5c0 .967-.784 1.75-1.75 1.75h-9.5c-.966 0-1.75-.783-1.75-1.75v-1.5Zm1.75-.25c-.138 0-.25.112-.25.25v1.5c0 .138.112.25.25.25h9.5c.138 0 .25-.112.25-.25v-1.5c0-.138-.112-.25-.25-.25h-9.5Z" clip-rule="evenodd"/><path d="M3.5 14.544c0 1.519 1.231 2.75 2.75 2.75.414 0 .75-.336.75-.75s-.336-.75-.75-.75c-.69 0-1.25-.56-1.25-1.25 0-.414-.336-.75-.75-.75s-.75.336-.75.75Z"/><path d="M13.75 4.294c1.519 0 2.75 1.231 2.75 2.75 0 .414-.336.75-.75.75s-.75-.336-.75-.75c0-.69-.56-1.25-1.25-1.25-.414 0-.75-.336-.75-.75s.336-.75.75-.75Z"/><path d="M13.75 17.294c1.519 0 2.75-1.231 2.75-2.75 0-.414-.336-.75-.75-.75s-.75.336-.75.75c0 .69-.56 1.25-1.25 1.25-.414 0-.75.336-.75.75s.336.75.75.75Z"/><path d="M11.75 5.044c0 .414-.336.75-.75.75h-2c-.414 0-.75-.336-.75-.75s.336-.75.75-.75h2c.414 0 .75.336.75.75Z"/><path d="M11 17.294c.414 0 .75-.336.75-.75s-.336-.75-.75-.75h-2c-.414 0-.75.336-.75.75s.336.75.75.75h2Z"/></svg>