<svg xmlns="http://www.w3.org/2000/svg" viewBox="0 0 16 16"><path fill-rule="evenodd" d="M11.75 14.5c-.966 0-1.75-.784-1.75-1.75v-9.5c0-.966.784-1.75 1.75-1.75h1.5c.966 0 1.75.784 1.75 1.75v9.5c0 .966-.784 1.75-1.75 1.75h-1.5Zm-.25-1.75c0 .138.112.25.25.25h1.5c.138 0 .25-.112.25-.25v-9.5c0-.138-.112-.25-.25-.25h-1.5c-.138 0-.25.112-.25.25v9.5Z"/><path d="M3.25 14.5c-.966 0-1.75-.784-1.75-1.75v-.5c0-.414.336-.75.75-.75s.75.336.75.75v.5c0 .138.112.25.25.25h.5c.414 0 .75.336.75.75s-.336.75-.75.75h-.5Z"/><path d="M6.75 14.5c.966 0 1.75-.784 1.75-1.75v-.5c0-.414-.336-.75-.75-.75s-.75.336-.75.75v.5c0 .138-.112.25-.25.25h-.5c-.414 0-.75.336-.75.75s.336.75.75.75h.5Z"/><path d="M1.5 3.25c0-.966.784-1.75 1.75-1.75h.5c.414 0 .75.336.75.75s-.336.75-.75.75h-.5c-.138 0-.25.112-.25.25v.5c0 .414-.336.75-.75.75s-.75-.336-.75-.75v-.5Z"/><path d="M8.5 3.25c0-.966-.784-1.75-1.75-1.75h-.5c-.414 0-.75.336-.75.75s.336.75.75.75h.5c.138 0 .25.112.25.25v.5c0 .414.336.75.75.75s.75-.336.75-.75v-.5Z"/><path d="M2.25 6.25c.414 0 .75.336.75.75v2c0 .414-.336.75-.75.75s-.75-.336-.75-.75v-2c0-.414.336-.75.75-.75Z"/><path d="M8.5 7c0-.414-.336-.75-.75-.75s-.75.336-.75.75v2c0 .414.336.75.75.75s.75-.336.75-.75v-2Z"/></svg>