<svg xmlns="http://www.w3.org/2000/svg" viewBox="0 0 20 20"><path fill-rule="evenodd" d="M2.5 4.25c0-.966.784-1.75 1.75-1.75h11.5c.966 0 1.75.784 1.75 1.75v2.25c0 .966-.784 1.75-1.75 1.75h-11.5c-.966 0-1.75-.784-1.75-1.75v-2.25Zm1.75-.25c-.138 0-.25.112-.25.25v2.25c0 .138.112.25.25.25h11.5c.138 0 .25-.112.25-.25v-2.25c0-.138-.112-.25-.25-.25h-11.5Z"/><path d="M2.5 11.25c0-.966.784-1.75 1.75-1.75h1c.414 0 .75.336.75.75s-.336.75-.75.75h-1c-.138 0-.25.112-.25.25v1c0 .414-.336.75-.75.75s-.75-.336-.75-.75v-1Z"/><path d="M2.5 15.75c0 .966.784 1.75 1.75 1.75h1c.414 0 .75-.336.75-.75s-.336-.75-.75-.75h-1c-.138 0-.25-.112-.25-.25v-1c0-.414-.336-.75-.75-.75s-.75.336-.75.75v1Z"/><path d="M15.75 9.5c.966 0 1.75.784 1.75 1.75v1c0 .414-.336.75-.75.75s-.75-.336-.75-.75v-1c0-.138-.112-.25-.25-.25h-1c-.414 0-.75-.336-.75-.75s.336-.75.75-.75h1Z"/><path d="M15.75 17.5c.966 0 1.75-.784 1.75-1.75v-1c0-.414-.336-.75-.75-.75s-.75.336-.75.75v1c0 .138-.112.25-.25.25h-1c-.414 0-.75.336-.75.75s.336.75.75.75h1Z"/><path d="M12 10.25c0 .414-.336.75-.75.75h-2.5c-.414 0-.75-.336-.75-.75s.336-.75.75-.75h2.5c.414 0 .75.336.75.75Z"/><path d="M11.25 17.5c.414 0 .75-.336.75-.75s-.336-.75-.75-.75h-2.5c-.414 0-.75.336-.75.75s.336.75.75.75h2.5Z"/></svg>