<svg xmlns="http://www.w3.org/2000/svg" viewBox="0 0 20 21"><path d="M3.5 7.044c0-1.519 1.231-2.75 2.75-2.75.414 0 .75.336.75.75s-.336.75-.75.75c-.69 0-1.25.56-1.25 1.25 0 .414-.336.75-.75.75s-.75-.336-.75-.75Z"/><path fill-rule="evenodd" d="M6.5 7.794c-1.105 0-2 .896-2 2v2c0 1.105.895 2 2 2h2c1.105 0 2-.895 2-2v-2c0-1.104-.895-2-2-2h-2Zm2 1.5h-2c-.276 0-.5.224-.5.5v2c0 .276.224.5.5.5h2c.276 0 .5-.224.5-.5v-2c0-.276-.224-.5-.5-.5Z" clip-rule="evenodd"/><path d="M11 9.294c0-.414.336-.75.75-.75h3c.414 0 .75.336.75.75s-.336.75-.75.75h-3c-.414 0-.75-.336-.75-.75Z"/><path d="M11.75 11.544c-.414 0-.75.336-.75.75s.336.75.75.75h1.5c.414 0 .75-.336.75-.75s-.336-.75-.75-.75h-1.5Z"/><path d="M3.5 14.544c0 1.519 1.231 2.75 2.75 2.75.414 0 .75-.336.75-.75s-.336-.75-.75-.75c-.69 0-1.25-.56-1.25-1.25 0-.414-.336-.75-.75-.75s-.75.336-.75.75Z"/><path d="M13.75 4.294c1.519 0 2.75 1.231 2.75 2.75 0 .414-.336.75-.75.75s-.75-.336-.75-.75c0-.69-.56-1.25-1.25-1.25-.414 0-.75-.336-.75-.75s.336-.75.75-.75Z"/><path d="M13.75 17.294c1.519 0 2.75-1.231 2.75-2.75 0-.414-.336-.75-.75-.75s-.75.336-.75.75c0 .69-.56 1.25-1.25 1.25-.414 0-.75.336-.75.75s.336.75.75.75Z"/><path d="M11.75 5.044c0 .414-.336.75-.75.75h-2c-.414 0-.75-.336-.75-.75s.336-.75.75-.75h2c.414 0 .75.336.75.75Z"/><path d="M11 17.294c.414 0 .75-.336.75-.75s-.336-.75-.75-.75h-2c-.414 0-.75.336-.75.75s.336.75.75.75h2Z"/></svg>