<svg xmlns="http://www.w3.org/2000/svg" viewBox="0 0 20 20"><path d="M2.5 5.25c0-1.519 1.231-2.75 2.75-2.75h.5c.414 0 .75.336.75.75s-.336.75-.75.75h-.5c-.69 0-1.25.56-1.25 1.25v.5c0 .414-.336.75-.75.75s-.75-.336-.75-.75v-.5Z"/><path fill-rule="evenodd" d="M6 6.5c0-1.105.895-2 2-2h4c1.105 0 2 .895 2 2v4c0 1.105-.895 2-2 2h-4c-1.105 0-2-.895-2-2v-4Zm2-.5h4c.276 0 .5.224.5.5v4c0 .276-.224.5-.5.5h-4c-.276 0-.5-.224-.5-.5v-4c0-.276.224-.5.5-.5Z"/><path d="M7 14c-.414 0-.75.336-.75.75s.336.75.75.75h6c.414 0 .75-.336.75-.75s-.336-.75-.75-.75h-6Z"/><path d="M2.5 14.75c0 1.519 1.231 2.75 2.75 2.75h.5c.414 0 .75-.336.75-.75s-.336-.75-.75-.75h-.5c-.69 0-1.25-.56-1.25-1.25v-.5c0-.414-.336-.75-.75-.75s-.75.336-.75.75v.5Z"/><path d="M14.75 2.5c1.519 0 2.75 1.231 2.75 2.75v.522c0 .414-.336.75-.75.75s-.75-.336-.75-.75v-.522c0-.69-.56-1.25-1.25-1.25h-.5c-.414 0-.75-.336-.75-.75s.336-.75.75-.75h.5Z"/><path d="M14.75 17.5c1.519 0 2.75-1.231 2.75-2.75v-.5c0-.414-.336-.75-.75-.75s-.75.336-.75.75v.5c0 .69-.56 1.25-1.25 1.25h-.522c-.414 0-.75.336-.75.75s.336.75.75.75h.522Z"/><path d="M3.25 8c.414 0 .75.336.75.75v2.5c0 .414-.336.75-.75.75s-.75-.336-.75-.75v-2.5c0-.414.336-.75.75-.75Z"/><path d="M17.5 8.75c0-.414-.336-.75-.75-.75s-.75.336-.75.75v2.5c0 .414.336.75.75.75s.75-.336.75-.75v-2.5Z"/></svg>