<svg width="20" height="20" viewBox="0 0 20 20" fill="none" xmlns="http://www.w3.org/2000/svg">
<path fill-rule="evenodd" clip-rule="evenodd" d="M4.5 3C3.39543 3 2.5 3.89543 2.5 5V8.75C2.5 9.16421 2.83579 9.5 3.25 9.5H4H5H5.25V13.8594C5.25 14.8949 6.08947 15.7344 7.125 15.7344C8.16053 15.7344 9 14.8949 9 13.8594V13.2544C9 12.8377 9.33775 12.5 9.75438 12.5H15V5.00001C15 3.89544 14.1046 3.00001 13 3.00001H4.50558L4.5 3ZM17.75 13.75H14.809H13.691H10.25V13.8594C10.25 15.544 8.91698 16.9173 7.2482 16.982C7.16043 16.994 7.07723 17 7 17H7.75H8H15.55C16.765 17 17.75 16.015 17.75 14.8V13.75ZM4.49784 4.5C4.22269 4.50117 4 4.72458 4 5V8H5V5.00001V5C5 4.96548 4.9965 4.93178 4.98984 4.89923C4.94322 4.67139 4.74162 4.50001 4.5 4.50001L4.49784 4.5ZM8.5 6C8.08579 6 7.75 6.33579 7.75 6.75C7.75 7.16421 8.08579 7.5 8.5 7.5H11.5C11.9142 7.5 12.25 7.16421 12.25 6.75C12.25 6.33579 11.9142 6 11.5 6H8.5ZM7.75 9.75C7.75 9.33579 8.08579 9 8.5 9H11.5C11.9142 9 12.25 9.33579 12.25 9.75C12.25 10.1642 11.9142 10.5 11.5 10.5H8.5C8.08579 10.5 7.75 10.1642 7.75 9.75Z" fill="#4A4A4A"/>
</svg>
