<svg xmlns="http://www.w3.org/2000/svg" viewBox="0 0 16 16"><path d="M8 0c.414 0 .75.336.75.75v.5c0 .414-.336.75-.75.75s-.75-.336-.75-.75v-.5c0-.414.336-.75.75-.75Z"/><path d="M3.58 2.167c-.292-.293-.767-.293-1.06 0-.293.292-.293.767 0 1.06l.353.354c.293.293.768.293 1.061 0 .293-.293.293-.768 0-1.06l-.353-.354Z"/><path d="M0 7.75c0-.414.336-.75.75-.75h.5c.414 0 .75.336.75.75s-.336.75-.75.75h-.5c-.414 0-.75-.336-.75-.75Z"/><path d="M14 7.75c0-.414.336-.75.75-.75h.5c.414 0 .75.336.75.75s-.336.75-.75.75h-.5c-.414 0-.75-.336-.75-.75Z"/><path d="M13.657 3.404c.293-.293.293-.768 0-1.06-.293-.294-.768-.294-1.06 0l-.354.353c-.293.293-.293.768 0 1.06.293.293.767.293 1.06 0l.354-.353Z"/><path fill-rule="evenodd" d="M4.474 3.998c1.947-1.947 5.105-1.947 7.052 0 .95.95 1.46 2.103 1.46 3.298 0 1.194-.51 2.348-1.46 3.297l-.053.053c-.473.455-.723.866-.723 1.24v1.114c0 1.38-1.12 2.5-2.5 2.5h-.5c-1.38 0-2.5-1.12-2.5-2.5v-1.114c0-.374-.25-.785-.722-1.24l-.054-.053c-.95-.95-1.46-2.103-1.46-3.297 0-1.195.51-2.349 1.46-3.298Zm5.992 1.06c-1.362-1.36-3.57-1.36-4.932 0-.705.707-1.02 1.492-1.02 2.238 0 .745.315 1.53 1.02 2.236l.034.033c.366.353.788.836 1.015 1.435h2.834c.227-.6.649-1.082 1.015-1.435l.034-.033c.705-.706 1.02-1.49 1.02-2.236 0-.746-.315-1.531-1.02-2.237Zm-1.216 7.442h-2.5v.5c0 .552.448 1 1 1h.5c.552 0 1-.448 1-1v-.5Z"/></svg>