<svg xmlns="http://www.w3.org/2000/svg" viewBox="0 0 20 20"><path d="M10 1.25c.414 0 .75.336.75.75v1c0 .414-.336.75-.75.75s-.75-.336-.75-.75v-1c0-.414.336-.75.75-.75Z"/><path d="M5.05 3.625c-.293-.293-.767-.293-1.06 0-.293.293-.293.768 0 1.06l.391.392c.293.293.768.293 1.06 0 .294-.293.294-.768 0-1.06l-.39-.392Z"/><path d="M1.25 10c0-.414.336-.75.75-.75h1c.414 0 .75.336.75.75s-.336.75-.75.75h-1c-.414 0-.75-.336-.75-.75Z"/><path d="M16.25 10c0-.414.336-.75.75-.75h1c.414 0 .75.336.75.75s-.336.75-.75.75h-1c-.414 0-.75-.336-.75-.75Z"/><path d="M16.206 4.881c.293-.293.293-.767 0-1.06-.293-.293-.768-.293-1.06 0l-.392.391c-.293.293-.293.768 0 1.06.293.294.768.294 1.06 0l.392-.39Z"/><path fill-rule="evenodd" d="M6.147 6.134c2.128-2.128 5.578-2.128 7.706 0 1.04 1.039 1.596 2.299 1.596 3.599 0 1.3-.557 2.56-1.596 3.599-.056.055-.112.109-.17.16-.469.421-.715.834-.715 1.207v1.551c0 1.38-1.12 2.5-2.5 2.5h-.936c-1.38 0-2.5-1.12-2.5-2.5v-1.551c0-.373-.246-.786-.715-1.207-.058-.051-.114-.105-.17-.16-1.04-1.04-1.596-2.3-1.596-3.6 0-1.3.557-2.56 1.596-3.598Zm6.645 1.06c-1.542-1.542-4.042-1.542-5.584 0-.796.796-1.157 1.687-1.157 2.539 0 .851.36 1.742 1.157 2.538.036.037.073.072.11.105.433.388.907.936 1.111 1.624h3.142c.204-.688.678-1.236 1.11-1.624.038-.033.075-.068.111-.105.796-.796 1.157-1.687 1.157-2.538 0-.852-.36-1.743-1.157-2.539Zm-1.324 8.306h-2.936v.75c0 .552.448 1 1 1h.936c.552 0 1-.448 1-1v-.75Z"/></svg>