<svg viewBox="0 0 20 20" xmlns="http://www.w3.org/2000/svg"><path d="M6.534 18a4.507 4.507 0 01-3.208-1.329 4.54 4.54 0 010-6.414l1.966-1.964a.999.999 0 111.414 1.414L4.74 11.671a2.54 2.54 0 000 3.586c.961.959 2.631.958 3.587 0l1.966-1.964a1 1 0 111.415 1.414l-1.966 1.964A4.503 4.503 0 016.534 18zm7.467-6a.999.999 0 01-.707-1.707l1.966-1.964a2.54 2.54 0 000-3.586c-.961-.959-2.631-.957-3.587 0L9.707 6.707a1 1 0 11-1.415-1.414l1.966-1.964A4.503 4.503 0 0113.466 2c1.211 0 2.351.472 3.208 1.329a4.541 4.541 0 010 6.414l-1.966 1.964a.997.997 0 01-.707.293zm-6.002 1a.999.999 0 01-.707-1.707l4.001-4a1 1 0 111.415 1.414l-4.001 4a1 1 0 01-.708.293z" fill="#5C5F62"/></svg>