<svg xmlns="http://www.w3.org/2000/svg" viewBox="0 0 20 20"><path fill-rule="evenodd" d="M16.669 3.349c-1.645-1.646-4.313-1.646-5.959 0l-2.778 2.778c-1.468 1.468-1.464 3.85.01 5.313l.725.72c.293.291.768.29 1.06-.004.292-.294.29-.769-.004-1.06l-.725-.72c-.883-.879-.886-2.307-.005-3.188l2.778-2.779c1.06-1.06 2.778-1.06 3.837 0 1.062 1.062 1.06 2.783-.005 3.842l-1.216 1.21c-.293.292-.295.767-.002 1.06.292.294.767.295 1.06.003l1.216-1.21c1.653-1.643 1.656-4.317.008-5.965Zm-13.317 13.323c1.647 1.648 4.318 1.648 5.965 0l2.783-2.782c1.464-1.465 1.464-3.84 0-5.304l-.75-.749c-.293-.293-.767-.293-1.06 0-.293.293-.293.768 0 1.061l.749.75c.879.878.879 2.302 0 3.181l-2.783 2.783c-1.061 1.061-2.782 1.061-3.843 0-1.061-1.062-1.061-2.782 0-3.844l1.235-1.235c.293-.293.293-.768 0-1.06-.292-.294-.767-.294-1.06 0l-1.236 1.235c-1.647 1.647-1.647 4.317 0 5.964Z"/></svg>