<svg xmlns="http://www.w3.org/2000/svg" viewBox="0 0 16 16"><path fill-rule="evenodd" d="M13.842 2.176c-1.463-1.463-3.835-1.463-5.298 0l-2.116 2.116c-1.468 1.468-1.464 3.85.01 5.313l.338.337c.294.291.77.29 1.061-.004.292-.294.29-.769-.004-1.06l-.339-.338c-.884-.877-.886-2.306-.005-3.187l2.116-2.117c.877-.877 2.3-.877 3.177 0 .879.88.877 2.304-.004 3.18l-1.052 1.048c-.294.292-.295.767-.003 1.06.292.294.767.295 1.06.003l1.053-1.047c1.469-1.462 1.472-3.839.006-5.304Zm-11.664 11.67c1.465 1.464 3.84 1.464 5.304 0l2.121-2.122c1.465-1.464 1.465-3.839 0-5.303l-.362-.362c-.293-.293-.768-.293-1.06 0-.293.293-.293.768 0 1.06l.361.363c.88.878.88 2.303 0 3.182l-2.12 2.121c-.88.879-2.304.879-3.183 0s-.879-2.303 0-3.182l1.07-1.069c.292-.293.292-.768 0-1.06-.294-.294-.769-.294-1.062 0l-1.069 1.068c-1.464 1.465-1.464 3.84 0 5.304Z"/></svg>