<svg xmlns="http://www.w3.org/2000/svg" viewBox="0 0 20 20"><path fill-rule="evenodd" d="M15.842 4.175a3.746 3.746 0 0 0-5.298 0l-2.116 2.117a3.75 3.75 0 0 0 .01 5.313l.338.336a.75.75 0 1 0 1.057-1.064l-.339-.337a2.25 2.25 0 0 1-.005-3.187l2.116-2.117a2.246 2.246 0 1 1 3.173 3.18l-1.052 1.047a.75.75 0 0 0 1.058 1.064l1.052-1.047a3.746 3.746 0 0 0 .006-5.305Zm-11.664 11.67a3.75 3.75 0 0 0 5.304 0l2.121-2.121a3.75 3.75 0 0 0 0-5.303l-.362-.362a.75.75 0 0 0-1.06 1.06l.362.362a2.25 2.25 0 0 1 0 3.182l-2.122 2.122a2.25 2.25 0 1 1-3.182-3.182l1.07-1.07a.75.75 0 1 0-1.062-1.06l-1.069 1.069a3.75 3.75 0 0 0 0 5.303Z"/></svg>