<svg xmlns="http://www.w3.org/2000/svg" viewBox="0 0 20 20"><path d="m3 2.75-.2.15c-.22.166-.534.12-.7-.1-.166-.221-.12-.534.1-.7l.6-.45c.494-.37 1.2-.018 1.2.6v2.75h.5c.276 0 .5.224.5.5s-.224.5-.5.5h-2c-.276 0-.5-.224-.5-.5s.224-.5.5-.5h.5v-2.25Z"/><path d="M7 3.5c-.414 0-.75.336-.75.75s.336.75.75.75h10.25c.414 0 .75-.336.75-.75s-.336-.75-.75-.75h-10.25Z"/><path d="M7 9.75c-.414 0-.75.336-.75.75s.336.75.75.75h10.25c.414 0 .75-.336.75-.75s-.336-.75-.75-.75h-10.25Z"/><path d="M6.25 16.25c0-.414.336-.75.75-.75h10.25c.414 0 .75.336.75.75s-.336.75-.75.75h-10.25c-.414 0-.75-.336-.75-.75Z"/><path d="M3.5 7.75c-.828 0-1.5.671-1.5 1.5 0 .276.224.5.5.5s.5-.224.5-.5.224-.5.5-.5.5.224.5.5v.02c0 .151-.069.295-.188.39l-1.568 1.254c-.553.443-.24 1.336.469 1.336h1.787c.276 0 .5-.224.5-.5s-.224-.5-.5-.5h-1.075l1.012-.81c.356-.284.563-.715.563-1.17v-.02c0-.829-.672-1.5-1.5-1.5Z"/><path d="M2.5 14c-.276 0-.5.224-.5.5s.224.5.5.5h1.188c.166 0 .312.141.312.32 0 .178-.095.341-.24.43h-.76c-.276 0-.5.224-.5.5s.224.5.5.5h.76c.145.088.24.252.24.43s-.146.32-.312.32h-1.188c-.276 0-.5.224-.5.5s.224.5.5.5h1.188c.73 0 1.312-.602 1.312-1.32 0-.343-.117-.67-.321-.93.204-.26.321-.588.321-.93 0-.718-.581-1.32-1.312-1.32h-1.188Z"/></svg>