<svg xmlns="http://www.w3.org/2000/svg" viewBox="0 0 16 16"><path d="M2 4c.552 0 1-.448 1-1s-.448-1-1-1-1 .448-1 1 .448 1 1 1Z"/><path d="M2 9c.552 0 1-.448 1-1s-.448-1-1-1-1 .448-1 1 .448 1 1 1Z"/><path d="M3 13c0 .552-.448 1-1 1s-1-.448-1-1 .448-1 1-1 1 .448 1 1Z"/><path d="M5.25 2.25c-.414 0-.75.336-.75.75s.336.75.75.75h9c.414 0 .75-.336.75-.75s-.336-.75-.75-.75h-9Z"/><path d="M4.5 8c0-.414.336-.75.75-.75h9c.414 0 .75.336.75.75s-.336.75-.75.75h-9c-.414 0-.75-.336-.75-.75Z"/><path d="M5.25 12.25c-.414 0-.75.336-.75.75s.336.75.75.75h9c.414 0 .75-.336.75-.75s-.336-.75-.75-.75h-9Z"/></svg>