<svg xmlns="http://www.w3.org/2000/svg" viewBox="0 0 20 20"><path d="M3 5.25c.552 0 1-.448 1-1s-.448-1-1-1-1 .448-1 1 .448 1 1 1Z"/><path d="M7 3.5c-.414 0-.75.336-.75.75s.336.75.75.75h10.25c.414 0 .75-.336.75-.75s-.336-.75-.75-.75h-10.25Z"/><path d="M7 9.75c-.414 0-.75.336-.75.75s.336.75.75.75h10.25c.414 0 .75-.336.75-.75s-.336-.75-.75-.75h-10.25Z"/><path d="M6.25 16.25c0-.414.336-.75.75-.75h10.25c.414 0 .75.336.75.75s-.336.75-.75.75h-10.25c-.414 0-.75-.336-.75-.75Z"/><path d="M4 10.5c0 .552-.448 1-1 1s-1-.448-1-1 .448-1 1-1 1 .448 1 1Z"/><path d="M3 17.25c.552 0 1-.448 1-1s-.448-1-1-1-1 .448-1 1 .448 1 1 1Z"/></svg>