<svg viewBox="0 0 20 20" xmlns="http://www.w3.org/2000/svg"><path d="M5 5a1 1 0 1 1-2 0 1 1 0 0 1 2 0Z" fill="#5C5F62"/><path d="M5 10a1 1 0 1 1-2 0 1 1 0 0 1 2 0Z" fill="#5C5F62"/><path d="M5 15a1 1 0 1 1-2 0 1 1 0 0 1 2 0Z" fill="#5C5F62"/><path fill-rule="evenodd" d="M6.5 5a.75.75 0 0 1 .75-.75h9a.75.75 0 0 1 0 1.5h-9a.75.75 0 0 1-.75-.75Z" fill="#5C5F62"/><path fill-rule="evenodd" d="M6.5 10a.75.75 0 0 1 .75-.75h9a.75.75 0 0 1 0 1.5h-9a.75.75 0 0 1-.75-.75Z" fill="#5C5F62"/><path fill-rule="evenodd" d="M6.5 15a.75.75 0 0 1 .75-.75h9a.75.75 0 0 1 0 1.5h-9a.75.75 0 0 1-.75-.75Z" fill="#5C5F62"/></svg>