<svg xmlns="http://www.w3.org/2000/svg" viewBox="0 0 16 16"><path d="M2 4.5c.828 0 1.5-.672 1.5-1.5s-.672-1.5-1.5-1.5-1.5.672-1.5 1.5.672 1.5 1.5 1.5Z"/><path d="M5.5 2c-.552 0-1 .448-1 1s.448 1 1 1h8.5c.552 0 1-.448 1-1s-.448-1-1-1h-8.5Z"/><path d="M5.5 7c-.552 0-1 .448-1 1s.448 1 1 1h8.5c.552 0 1-.448 1-1s-.448-1-1-1h-8.5Z"/><path d="M4.5 13c0-.552.448-1 1-1h8.5c.552 0 1 .448 1 1s-.448 1-1 1h-8.5c-.552 0-1-.448-1-1Z"/><path d="M3.5 8c0 .828-.672 1.5-1.5 1.5s-1.5-.672-1.5-1.5.672-1.5 1.5-1.5 1.5.672 1.5 1.5Z"/><path d="M2 14.5c.828 0 1.5-.672 1.5-1.5s-.672-1.5-1.5-1.5-1.5.672-1.5 1.5.672 1.5 1.5 1.5Z"/></svg>