<svg xmlns="http://www.w3.org/2000/svg" viewBox="0 0 16 16"><path d="m1.75 1.38-.2.15c-.22.166-.534.121-.7-.1-.166-.22-.12-.534.1-.7l.6-.45c.494-.37 1.2-.018 1.2.6v3h.5c.276 0 .5.224.5.5s-.224.5-.5.5h-2c-.276 0-.5-.224-.5-.5s.224-.5.5-.5h.5v-2.5Z"/><path d="M5.75 2.25c-.414 0-.75.336-.75.75s.336.75.75.75h8.5c.414 0 .75-.336.75-.75s-.336-.75-.75-.75h-8.5Z"/><path d="M5.75 7.25c-.414 0-.75.336-.75.75s.336.75.75.75h8.5c.414 0 .75-.336.75-.75s-.336-.75-.75-.75h-8.5Z"/><path d="M5 13c0-.414.336-.75.75-.75h8.5c.414 0 .75.336.75.75s-.336.75-.75.75h-8.5c-.414 0-.75-.336-.75-.75Z"/><path d="M2.25 5.75c-.828 0-1.5.672-1.5 1.5 0 .276.224.5.5.5s.5-.224.5-.5.224-.5.5-.5.5.224.5.5v.05c0 .144-.061.28-.168.375l-1.423 1.264c-.515.459-.191 1.311.499 1.311h1.592c.276 0 .5-.224.5-.5s-.224-.5-.5-.5h-.935l.932-.828c.32-.285.503-.693.503-1.121v-.051c0-.828-.672-1.5-1.5-1.5Z"/><path d="M1.25 11.13c-.276 0-.5.224-.5.5s.224.5.5.5h1.188c.166 0 .312.141.312.32 0 .178-.095.341-.24.43h-.76c-.276 0-.5.224-.5.5s.224.5.5.5h.76c.145.088.24.252.24.43s-.146.32-.312.32h-1.188c-.276 0-.5.224-.5.5s.224.5.5.5h1.188c.73 0 1.312-.602 1.312-1.32 0-.343-.117-.67-.321-.93.204-.26.321-.588.321-.93 0-.718-.581-1.32-1.312-1.32h-1.188Z"/></svg>