<svg viewBox="0 0 20 20" xmlns="http://www.w3.org/2000/svg"><path d="M4 6.5a1.5 1.5 0 1 0 0-3 1.5 1.5 0 0 0 0 3Z" fill="currentColor"/><path d="M4 11.5a1.5 1.5 0 1 0 0-3 1.5 1.5 0 0 0 0 3Z" fill="currentColor"/><path d="M5.5 15a1.5 1.5 0 1 1-3 0 1.5 1.5 0 0 1 3 0Z" fill="currentColor"/><path d="M7.5 4a1 1 0 0 0 0 2h8.5a1 1 0 1 0 0-2h-8.5Z" fill="currentColor"/><path d="M6.5 10a1 1 0 0 1 1-1h8.5a1 1 0 1 1 0 2h-8.5a1 1 0 0 1-1-1Z" fill="currentColor"/><path d="M7.5 14a1 1 0 1 0 0 2h8.5a1 1 0 1 0 0-2h-8.5Z" fill="currentColor"/></svg>
