<svg xmlns="http://www.w3.org/2000/svg" viewBox="0 0 20 20"><path fill-rule="evenodd" d="M4.478 4.428c.316.269.354.742.086 1.058-2.105 2.477-2.105 6.536 0 9.014.268.315.23.789-.086 1.057-.315.268-.789.23-1.057-.086-2.581-3.037-2.581-7.92 0-10.957.268-.315.742-.354 1.057-.086Zm11.03 0c.315-.268.788-.23 1.056.086 2.581 3.038 2.581 7.92 0 10.957-.268.316-.741.354-1.057.086-.316-.268-.354-.742-.086-1.057 2.105-2.478 2.105-6.537 0-9.014-.268-.316-.23-.79.086-1.058Zm-8.762 2.08c.316.269.354.742.086 1.058-1.129 1.328-1.129 3.525 0 4.853.268.316.23.79-.086 1.058s-.789.23-1.057-.086c-1.605-1.889-1.605-4.908 0-6.796.268-.316.741-.354 1.057-.086Zm6.493 0c.316-.267.79-.229 1.057.087 1.605 1.888 1.605 4.907 0 6.796-.268.315-.741.354-1.057.086-.316-.269-.354-.742-.086-1.058 1.13-1.328 1.13-3.525 0-4.853-.268-.316-.23-.789.086-1.057Zm-3.239 2.242c-.69 0-1.25.56-1.25 1.25s.56 1.25 1.25 1.25 1.25-.56 1.25-1.25-.56-1.25-1.25-1.25Zm-2.75 1.25c0-1.519 1.231-2.75 2.75-2.75s2.75 1.231 2.75 2.75-1.231 2.75-2.75 2.75-2.75-1.231-2.75-2.75Z"/></svg>