<svg xmlns="http://www.w3.org/2000/svg" viewBox="0 0 20 20"><path d="M4.478 5.572c-2.075 2.441-2.075 6.4 0 8.842.269.315.269.827 0 1.143-.268.316-.703.316-.971 0-2.611-3.073-2.611-8.056 0-11.129.268-.315.703-.315.971 0 .269.316.269.828 0 1.144Z"/><path d="M10 7.5c-1.38 0-2.5 1.12-2.5 2.5s1.12 2.5 2.5 2.5 2.5-1.12 2.5-2.5-1.12-2.5-2.5-2.5Z"/><path d="M15.507 14.414c2.075-2.442 2.075-6.4 0-8.842-.268-.316-.268-.828 0-1.144.268-.315.703-.315.971 0 2.612 3.074 2.612 8.056 0 11.129-.268.316-.703.316-.971 0s-.268-.828 0-1.143Z"/><path d="M6.746 7.652c-1.099 1.293-1.099 3.389 0 4.682.268.315.268.827 0 1.143-.268.315-.703.315-.971 0-1.635-1.925-1.635-5.044 0-6.968.268-.316.703-.316.971 0 .268.315.268.827 0 1.143Z"/><path d="M13.24 12.334c1.098-1.293 1.098-3.39 0-4.682-.27-.316-.27-.828 0-1.143.267-.316.702-.316.97 0 1.636 1.924 1.636 5.043 0 6.968-.268.315-.703.315-.97 0-.27-.316-.27-.828 0-1.143Z"/></svg>