<svg xmlns="http://www.w3.org/2000/svg" viewBox="0 0 20 20"><path fill-rule="evenodd" d="M10 5.25c-1.519 0-2.75 1.231-2.75 2.75s1.231 2.75 2.75 2.75 2.75-1.231 2.75-2.75-1.231-2.75-2.75-2.75Zm-1.25 2.75c0-.69.56-1.25 1.25-1.25s1.25.56 1.25 1.25-.56 1.25-1.25 1.25-1.25-.56-1.25-1.25Z"/><path fill-rule="evenodd" d="M11.303 16.179c-.145.122-.277.23-.392.321h3.339c.414 0 .75.336.75.75s-.336.75-.75.75h-8.5c-.414 0-.75-.336-.75-.75s.336-.75.75-.75h3.34c-.116-.091-.248-.199-.393-.321-.512-.431-1.196-1.054-1.882-1.823-1.347-1.511-2.815-3.71-2.815-6.19 0-1.724.582-3.27 1.648-4.39 1.069-1.125 2.582-1.776 4.352-1.776 1.77 0 3.283.651 4.352 1.775 1.066 1.12 1.648 2.667 1.648 4.39 0 2.482-1.468 4.68-2.815 6.19-.686.77-1.37 1.393-1.882 1.824Zm-4.568-11.37c-.77.81-1.235 1.972-1.235 3.357 0 1.915 1.157 3.759 2.435 5.191.626.703 1.255 1.276 1.728 1.674.124.105.238.198.337.277.1-.08.213-.172.337-.277.473-.398 1.102-.971 1.728-1.674 1.278-1.432 2.435-3.276 2.435-5.191 0-1.385-.464-2.547-1.235-3.357-.767-.806-1.878-1.309-3.265-1.309-1.387 0-2.499.503-3.265 1.309Z"/></svg>