<svg xmlns="http://www.w3.org/2000/svg" viewBox="0 0 20 20"><path fill-rule="evenodd" d="M10 11a2.5 2.5 0 1 0 0-5 2.5 2.5 0 0 0 0 5Zm0-1.5a1 1 0 1 0 0-2 1 1 0 0 0 0 2Z"/><path fill-rule="evenodd" d="M8.827 16h-3.077a.75.75 0 0 0 0 1.5h8.5a.75.75 0 0 0 0-1.5h-3.077l.07-.061a17.427 17.427 0 0 0 1.707-1.758c1.224-1.46 2.55-3.574 2.55-5.954 0-3.167-2.328-5.477-5.5-5.477s-5.5 2.31-5.5 5.477c0 2.38 1.326 4.495 2.55 5.954a17.426 17.426 0 0 0 1.777 1.819Zm1.173-11.75c-2.35 0-4 1.646-4 3.977 0 1.846 1.049 3.618 2.2 4.99a15.919 15.919 0 0 0 1.8 1.816 15.92 15.92 0 0 0 1.8-1.817c1.151-1.371 2.2-3.143 2.2-4.99 0-2.33-1.65-3.976-4-3.976Z"/></svg>