<svg xmlns="http://www.w3.org/2000/svg" viewBox="0 0 20 20"><path fill-rule="evenodd" d="M8.827 16h-3.077c-.414 0-.75.336-.75.75s.336.75.75.75h8.5c.414 0 .75-.336.75-.75s-.336-.75-.75-.75h-3.077l.07-.061c.464-.416 1.084-1.017 1.707-1.758 1.224-1.46 2.55-3.574 2.55-5.954 0-3.167-2.328-5.477-5.5-5.477s-5.5 2.31-5.5 5.477c0 2.38 1.326 4.495 2.55 5.954.623.74 1.243 1.342 1.708 1.758l.069.061Zm1.173-11.75c-2.35 0-4 1.646-4 3.977 0 1.846 1.049 3.618 2.2 4.99.565.673 1.132 1.223 1.558 1.604.087.078.168.149.242.212.074-.063.155-.134.242-.212.426-.381.993-.931 1.558-1.605 1.151-1.371 2.2-3.143 2.2-4.99 0-2.33-1.65-3.976-4-3.976Z"/><path fill-rule="evenodd" d="M12.48 6.924c.318.265.361.738.096 1.056l-2.5 3c-.135.162-.332.26-.542.27-.21.009-.415-.07-.564-.22l-1.5-1.5c-.293-.293-.293-.767 0-1.06.293-.293.767-.293 1.06 0l.92.919 1.974-2.37c.265-.317.738-.36 1.056-.095Z"/></svg>