<svg viewBox="0 0 20 20" xmlns="http://www.w3.org/2000/svg"><path fill-rule="evenodd" d="M12.5 7.75a2.5 2.5 0 1 1-5 0 2.5 2.5 0 0 1 5 0Zm-1.5 0a1 1 0 1 1-2 0 1 1 0 0 1 2 0Z" fill="#5C5F62"/><path fill-rule="evenodd" d="M16 8c0 6-5 10-6 10s-6-4-6-10a6 6 0 1 1 12 0Zm-1.5 0c0 2.574-1.074 4.757-2.305 6.323a10.29 10.29 0 0 1-1.75 1.77 5.075 5.075 0 0 1-.445.309 5.073 5.073 0 0 1-.445-.31 10.29 10.29 0 0 1-1.75-1.769c-1.231-1.566-2.305-3.749-2.305-6.323a4.5 4.5 0 0 1 9 0Zm-4.757 8.536s.005-.003.015-.005a.137.137 0 0 1-.015.005Zm.499-.005.015.005-.015-.005Z" fill="#5C5F62"/></svg>