<svg xmlns="http://www.w3.org/2000/svg" viewBox="0 0 20 20"><path fill-rule="evenodd" d="M11.303 16.179c-.145.122-.277.23-.392.321h3.339c.414 0 .75.336.75.75s-.336.75-.75.75h-8.5c-.414 0-.75-.336-.75-.75s.336-.75.75-.75h3.34c-.116-.091-.248-.199-.393-.321-.512-.431-1.196-1.054-1.882-1.823-1.347-1.511-2.815-3.71-2.815-6.19 0-1.724.582-3.27 1.648-4.39 1.069-1.125 2.582-1.776 4.352-1.776 1.77 0 3.283.651 4.352 1.775 1.066 1.12 1.648 2.667 1.648 4.39 0 2.482-1.468 4.68-2.815 6.19-.686.77-1.37 1.393-1.882 1.824Zm.697-8.179c0 1.105-.895 2-2 2s-2-.895-2-2 .895-2 2-2 2 .895 2 2Z"/></svg>