<svg width="20" height="20" viewBox="0 0 20 20" fill="none" xmlns="http://www.w3.org/2000/svg">
<path fill-rule="evenodd" clip-rule="evenodd" d="M10 11C11.3807 11 12.5 9.88071 12.5 8.5C12.5 7.11929 11.3807 6 10 6C8.61929 6 7.5 7.11929 7.5 8.5C7.5 9.88071 8.61929 11 10 11ZM10 9.5C10.5523 9.5 11 9.05228 11 8.5C11 7.94772 10.5523 7.5 10 7.5C9.44772 7.5 9 7.94772 9 8.5C9 9.05228 9.44772 9.5 10 9.5Z" fill="#4A4A4A"/>
<path fill-rule="evenodd" clip-rule="evenodd" d="M8.82655 16H5.75C5.33579 16 5 16.3358 5 16.75C5 17.1642 5.33579 17.5 5.75 17.5H14.25C14.6642 17.5 15 17.1642 15 16.75C15 16.3358 14.6642 16 14.25 16H11.1734C11.196 15.98 11.219 15.9596 11.2424 15.9387C11.707 15.5229 12.3273 14.9219 12.9495 14.1805C14.1737 12.7217 15.5 10.6071 15.5 8.2267C15.5 5.06038 13.1721 2.75 10 2.75C6.82792 2.75 4.5 5.06038 4.5 8.2267C4.5 10.6071 5.82627 12.7217 7.0505 14.1805C7.6727 14.9219 8.29304 15.5229 8.75765 15.9387C8.781 15.9596 8.80398 15.98 8.82655 16ZM10 4.25C7.64924 4.25 6 5.8959 6 8.2267C6 10.073 7.04873 11.845 8.1995 13.2162C8.7648 13.8898 9.33196 14.4397 9.75798 14.8209C9.84521 14.899 9.9263 14.9698 10 15.033C10.0737 14.9698 10.1548 14.899 10.242 14.8209C10.668 14.4397 11.2352 13.8898 11.8005 13.2162C12.9513 11.845 14 10.073 14 8.2267C14 5.8959 12.3508 4.25 10 4.25Z" fill="#4A4A4A"/>
</svg>
