<svg xmlns="http://www.w3.org/2000/svg" viewBox="0 0 16 16"><path d="M4 6.227c0-2.331 1.65-3.977 4-3.977.969 0 1.818.28 2.482.771l.987-.986c.028-.028.058-.054.09-.077-.941-.764-2.17-1.208-3.559-1.208-3.172 0-5.5 2.31-5.5 5.477 0 1.36.433 2.632 1.032 3.745l1.115-1.116c-.394-.833-.647-1.722-.647-2.63Z"/><path fill-rule="evenodd" d="m5.426 10.2-1.456 1.455c-.293.293-.293.768 0 1.061.293.293.767.293 1.06 0l.259-.258c.54.614 1.063 1.118 1.469 1.48.232.209.427.372.566.484l.163.13.045.034.013.01.004.003.001.001s.001.001.45-.6l-.449.601c.266.199.632.199.898 0l-.449-.601.449.601.002-.002.004-.003.013-.01.045-.034.163-.13c.139-.112.334-.275.566-.483.465-.416 1.085-1.017 1.707-1.758 1.225-1.46 2.551-3.574 2.551-5.954 0-.612-.087-1.193-.25-1.73l.34-.34c.293-.293.293-.768 0-1.061-.28-.28-.728-.293-1.022-.036l-.002-.003-.037.039m-.55 2.672-5.627 5.627c.514.592 1.018 1.079 1.406 1.426.087.078.168.149.242.212.074-.063.155-.134.242-.212.426-.381.993-.931 1.558-1.605 1.151-1.371 2.2-3.143 2.2-4.99 0-.155-.007-.308-.022-.458Z"/><path d="m12.53 3.096-7.104 7.103 7.103-7.103Z"/><path d="M8.76 4.118c.153.049.3.112.438.187l-3.393 3.393c-.075-.138-.138-.285-.187-.437-.077-.24-.118-.496-.118-.761 0-1.38 1.12-2.5 2.5-2.5.265 0 .52.041.76.118Z"/></svg>