<svg xmlns="http://www.w3.org/2000/svg" viewBox="0 0 20 20"><path d="M12.576 7.98c.265-.318.222-.791-.096-1.056s-.791-.222-1.056.096l-1.974 2.369-.92-.92c-.293-.292-.767-.292-1.06 0-.293.294-.293.768 0 1.061l1.5 1.5c.149.15.353.229.564.22.21-.01.407-.108.542-.27l2.5-3Z"/><path fill-rule="evenodd" d="M10 2.5c-3.172 0-5.75 2.56-5.75 5.727 0 2.699 1.128 4.985 2.34 6.581.341.449.692.848 1.033 1.192h-1.873c-.414 0-.75.336-.75.75s.336.75.75.75h8.5c.414 0 .75-.336.75-.75s-.336-.75-.75-.75h-1.873c.34-.344.692-.743 1.033-1.192 1.212-1.596 2.34-3.882 2.34-6.581 0-3.166-2.578-5.727-5.75-5.727Zm-4.25 5.727c0-2.331 1.9-4.227 4.25-4.227s4.25 1.896 4.25 4.227c0 2.277-.955 4.253-2.035 5.674-.538.709-1.095 1.263-1.553 1.634-.23.186-.425.316-.57.396-.038.021-.069.036-.092.047-.024-.01-.054-.026-.092-.047-.145-.08-.34-.21-.57-.396-.458-.37-1.015-.925-1.553-1.634-1.08-1.421-2.035-3.397-2.035-5.674Z"/></svg>