<svg xmlns="http://www.w3.org/2000/svg" viewBox="0 0 20 20"><path fill-rule="evenodd" d="m16.087 5.782-.373.373c.188.63.286 1.305.286 2.01 0 2.482-1.468 4.68-2.815 6.19-.686.77-1.37 1.393-1.882 1.824-.256.216-.47.385-.623.5l-.179.134c-.02.016-.037.028-.05.036l-.013.01-.005.003v.001c-.001 0-.002 0-.433-.613-.431.614-.431.614-.432.613h-.001l-.005-.004-.014-.01-.05-.036c-.042-.03-.102-.076-.178-.134-.152-.115-.367-.284-.623-.5-.429-.361-.978-.857-1.548-1.46l-.713.714c-.293.293-.768.293-1.06 0-.291-.291-.293-.762-.006-1.055l.005-.006 9.651-9.65.031-.033.002.002c.294-.262.746-.252 1.028.03.293.293.293.768 0 1.061Zm-1.634 1.634-2.32 2.32c-.119.145-.252.278-.397.397l-3.525 3.525c.532.567 1.049 1.034 1.452 1.373.124.105.238.198.337.277.1-.08.213-.172.337-.277.473-.398 1.102-.971 1.728-1.674 1.278-1.432 2.435-3.276 2.435-5.191 0-.258-.016-.508-.047-.75Z"/><path d="M14.118 3.543c-.055.032-.106.071-.152.118l-.928.927c-.752-.676-1.782-1.088-3.038-1.088-1.387 0-2.499.503-3.265 1.309-.77.81-1.235 1.972-1.235 3.357 0 1.063.357 2.105.894 3.067l-1.097 1.096c-.741-1.218-1.297-2.637-1.297-4.163 0-1.724.582-3.27 1.648-4.39 1.069-1.125 2.582-1.776 4.352-1.776 1.644 0 3.067.562 4.118 1.543Z"/><path d="m7.878 9.749 1.071-1.072c-.126-.195-.199-.427-.199-.677 0-.69.56-1.25 1.25-1.25.25 0 .482.073.677.2l1.072-1.072c-.476-.392-1.085-.628-1.749-.628-1.519 0-2.75 1.231-2.75 2.75 0 .664.236 1.274.628 1.749Z"/><path d="m10 16.25.431.614c-.258.181-.604.181-.863 0l.432-.614Z"/></svg>