<svg xmlns="http://www.w3.org/2000/svg" viewBox="0 0 16 16"><path d="M8.75 11.05c.448-.26.75-.745.75-1.3 0-.828-.672-1.5-1.5-1.5s-1.5.672-1.5 1.5c0 .555.302 1.04.75 1.3v.45c0 .414.336.75.75.75s.75-.336.75-.75v-.45Z"/><path fill-rule="evenodd" d="M4.25 5.095v-.345c0-2.071 1.679-3.75 3.75-3.75 2.071 0 3.75 1.679 3.75 3.75v.345c1.294.333 2.25 1.507 2.25 2.905v4c0 1.657-1.343 3-3 3h-6c-1.657 0-3-1.343-3-3v-4c0-1.398.956-2.572 2.25-2.905Zm1.5-.345c0-1.243 1.007-2.25 2.25-2.25s2.25 1.007 2.25 2.25v.25h-4.5v-.25Zm-2.25 3.25c0-.828.672-1.5 1.5-1.5h6c.828 0 1.5.672 1.5 1.5v4c0 .828-.672 1.5-1.5 1.5h-6c-.828 0-1.5-.672-1.5-1.5v-4Z"/></svg>