<svg viewBox="0 0 20 20" xmlns="http://www.w3.org/2000/svg"><path d="M10.75 13.8a1.5 1.5 0 1 0-1.5 0v.45a.75.75 0 0 0 1.5 0v-.45Z" fill="#5C5F62"/><path fill-rule="evenodd" d="M6.25 8.095v-2.345a3.75 3.75 0 1 1 7.5 0v2.345a3.001 3.001 0 0 1 2.25 2.905v4a3 3 0 0 1-3 3h-6a3 3 0 0 1-3-3v-4c0-1.398.956-2.572 2.25-2.905Zm1.5-2.345a2.25 2.25 0 0 1 4.5 0v2.25h-4.5v-2.25Zm-2.25 5.25a1.5 1.5 0 0 1 1.5-1.5h6a1.5 1.5 0 0 1 1.5 1.5v4a1.5 1.5 0 0 1-1.5 1.5h-6a1.5 1.5 0 0 1-1.5-1.5v-4Z" fill="#5C5F62"/></svg>