<svg xmlns="http://www.w3.org/2000/svg" viewBox="0 0 20 20"><path fill-rule="evenodd" d="M6.25 5.25v1.75h-.25c-1.657 0-3 1.343-3 3v5c0 1.657 1.343 3 3 3h8c1.657 0 3-1.343 3-3v-5c0-1.657-1.343-3-3-3h-.25v-1.75c0-2.071-1.679-3.75-3.75-3.75-2.071 0-3.75 1.679-3.75 3.75Zm3.75-2.25c-1.243 0-2.25 1.007-2.25 2.25v1.75h4.5v-1.75c0-1.243-1.007-2.25-2.25-2.25Zm1.5 9c0 .555-.302 1.04-.75 1.3v.45c0 .414-.336.75-.75.75s-.75-.336-.75-.75v-.45c-.448-.26-.75-.745-.75-1.3 0-.828.672-1.5 1.5-1.5s1.5.672 1.5 1.5Z"/></svg>