<svg xmlns="http://www.w3.org/2000/svg" viewBox="0 0 20 20"><path d="M10.75 13.3c.448-.26.75-.745.75-1.3 0-.828-.672-1.5-1.5-1.5s-1.5.672-1.5 1.5c0 .555.302 1.04.75 1.3v.45c0 .414.336.75.75.75s.75-.336.75-.75v-.45Z"/><path fill-rule="evenodd" d="M6.25 7v-1.75c0-2.071 1.679-3.75 3.75-3.75 2.071 0 3.75 1.679 3.75 3.75v1.75h.25c1.657 0 3 1.343 3 3v5c0 1.657-1.343 3-3 3h-8c-1.657 0-3-1.343-3-3v-5c0-1.657 1.343-3 3-3h.25Zm1.5-1.75c0-1.243 1.007-2.25 2.25-2.25s2.25 1.007 2.25 2.25v1.75h-4.5v-1.75Zm-3.25 4.75c0-.828.672-1.5 1.5-1.5h8c.828 0 1.5.672 1.5 1.5v5c0 .828-.672 1.5-1.5 1.5h-8c-.828 0-1.5-.672-1.5-1.5v-5Z"/></svg>