<svg xmlns="http://www.w3.org/2000/svg" viewBox="0 0 16 16"><path fill-rule="evenodd" d="M4.25 4.75v.345c-1.294.333-2.25 1.507-2.25 2.905v4c0 1.657 1.343 3 3 3h6c1.657 0 3-1.343 3-3v-4c0-1.398-.956-2.572-2.25-2.905v-.345c0-2.071-1.679-3.75-3.75-3.75-2.071 0-3.75 1.679-3.75 3.75Zm3.75-2.25c-1.243 0-2.25 1.007-2.25 2.25v.25h4.5v-.25c0-1.243-1.007-2.25-2.25-2.25Zm1.5 7.25c0 .555-.302 1.04-.75 1.3v.45c0 .414-.336.75-.75.75s-.75-.336-.75-.75v-.45c-.448-.26-.75-.745-.75-1.3 0-.828.672-1.5 1.5-1.5s1.5.672 1.5 1.5Z"/></svg>