<svg xmlns="http://www.w3.org/2000/svg" viewBox="0 0 20 20"><path fill-rule="evenodd" d="M3.5 8.229c0-2.986 2.307-5.729 6.651-5.729 3.492 0 6.206 2.34 6.206 5.467 0 3.263-2.188 5.888-5.223 5.888-1.02 0-1.98-.498-2.307-1.087l-.628 2.25c-.227.823-.84 1.854-1.251 2.482-.235-.068-.462-.152-.689-.236-.088-.748-.166-1.893.036-2.709.183-.738 1.18-4.705 1.18-4.705s-.3-.567-.3-1.405c0-1.317.81-2.299 1.82-2.299.86 0 1.274.607 1.274 1.333 0 .52-.225 1.203-.461 1.923-.134.406-.27.823-.373 1.229-.238.942.502 1.711 1.49 1.711 1.79 0 3.165-1.774 3.165-4.335 0-2.266-1.732-3.851-4.205-3.851-2.863 0-4.544 2.02-4.544 4.108 0 .814.332 1.686.749 2.16.082.095.094.177.07.272l-.191.733-.09.34c-.043.174-.145.21-.336.127-1.257-.55-2.043-2.279-2.043-3.667Z"/></svg>