<svg xmlns="http://www.w3.org/2000/svg" viewBox="0 0 20 20"><path d="M10 7.084c-.845-.905-2.032-1.469-3.358-1.469-2.567 0-4.642 1.864-4.642 4.394 0 2.529 2.079 4.372 4.646 4.372 1.326 0 2.513-.568 3.359-1.468.002 0 .003-.002.005-.004l.003-.005c.084-.105.072-.26-.034-.35l-1.203-1.01c-.097-.08-.24-.07-.333.018-.484.471-1.128.736-1.801.74-1.284 0-2.323-.963-2.323-2.297 0-1.335 1.04-2.311 2.323-2.311.673.004 1.322.27 1.801.74.093.09.236.093.333.013l1.203-1.005.009-.009c.1-.093.105-.248.012-.35Z"/><path d="m16.73 11.44 1.506 2.239c.043.063.068.134.063.214 0 .206-.168.37-.374.37h-2.306c-.11 0-.22-.046-.3-.126l-.883-1.107c-.35-.412-.804-.281-.804.245v.74c0 .14-.11.249-.248.249h-2.104c-.14 0-.249-.11-.249-.249v-1.54c0-.063.055-.118.118-.122 1.217-.067 2.214-1.103 2.214-2.319 0-1.208-.99-2.264-2.214-2.332-.067-.004-.118-.054-.118-.122v-1.586c0-.14.11-.249.249-.249h3.623c1.688 0 3.056 1.292 3.056 2.93 0 .955-.434 1.784-1.124 2.247h-.004c-.173.114-.215.345-.101.518Z"/></svg>