<svg xmlns="http://www.w3.org/2000/svg" viewBox="0 0 20 20"><path d="M17.91 4.36c-.281-1.176-1.606-1.509-2.944-1.303-.687.107-3.004 1.144-3.793 3.628 1.396-.11 2.13.101 1.995 1.66-.057.653-.381 1.368-.745 2.053-.419.792-1.206 2.342-2.237 1.225-.928-1.007-.857-2.932-1.068-4.214-.12-.722-.245-1.617-.478-2.357-.198-.637-.658-1.404-1.22-1.571-.604-.178-1.35.102-1.787.364-1.362.81-2.382 1.925-3.551 2.886-.148.15-.06.277-.01.389.167.263.232.423.552.47.832.123 1.622-.786 2.173.162.337.577.442 1.21.657 1.83.286.833.509 1.736.744 2.691.4 1.614.886 4.027 2.265 4.621.702.3 1.758-.102 2.292-.424 1.45-.87 2.628-2.091 3.545-3.414 2.387-3.439 3.531-6.894 3.655-7.553.089-.477.03-.87-.044-1.142Z"/></svg>