<svg xmlns="http://www.w3.org/2000/svg" viewBox="0 0 20 20"><path d="M14.136 6.98c-.126-1.865-.782-4.23-4.199-4.23-3.416 0-4.073 2.365-4.199 4.23-.045.666-.56 1.025-1.227 1.058-.347.017-1.22-.42-1.22.15 0 1.208 2.417 1.208 2.417 2.416 0 1.209-1.812 3.021-3.02 3.625-1.209.604.383.796 1.208 1.209.824.412 1.135 1.635 2.416 1.208 1.282-.427 2.417.604 3.625.604 1.209 0 2.344-1.031 3.625-.604 1.282.427 1.592-.796 2.417-1.209.825-.412 2.417-.604 1.208-1.208-1.208-.604-3.02-2.416-3.02-3.625 0-1.208 2.416-1.208 2.416-2.416 0-.57-.873-.133-1.22-.15-.666-.033-1.181-.392-1.226-1.058Z"/></svg>