<svg xmlns="http://www.w3.org/2000/svg" viewBox="0 0 20 20"><path fill-rule="evenodd" d="M2 11.598c0 .92.186 1.729.564 2.345.464.755 1.212 1.257 2.396 1.257.997 0 1.755-.438 2.642-1.595.507-.66.763-1.06 1.776-2.818l.504-.874.124-.214.122.198 1.435 2.345c.482.79 1.11 1.668 1.646 2.162.697.645 1.329.796 2.04.796 1.146 0 1.827-.592 2.177-1.184.362-.613.574-1.388.574-2.444 0-1.775-.454-3.495-1.39-4.86-.854-1.247-1.97-1.912-3.143-1.912-.698 0-1.392.305-2.035.854-.435.37-.84.84-1.214 1.334-.46-.57-.89-1.006-1.305-1.338-.789-.63-1.544-.85-2.303-.85-1.312 0-2.455.836-3.247 2.031-.893 1.348-1.363 3.093-1.363 4.767Zm1.728.06c0 .598.134 1.057.31 1.335.23.364.572.518.922.518.45 0 .863-.11 1.657-1.185.449-.607.954-1.388 1.39-2.061.182-.283.352-.546.501-.77l.68-1.022a9.949 9.949 0 0 0-.823-1.029c-.41-.427-.94-.944-1.783-.944-.683 0-1.262.47-1.748 1.186-.686 1.014-1.106 2.523-1.106 3.973Zm8.113-2.316a29.206 29.206 0 0 0-.838-1.294l.142-.21c.747-1.088 1.412-1.698 2.239-1.698.763 0 1.458.494 1.994 1.304.755 1.14 1.098 2.737 1.098 4.175 0 1.01-.245 1.892-1.226 1.892-.387 0-.685-.15-1.11-.655-.33-.392-.895-1.225-1.888-2.843l-.41-.67Z"/></svg>