<svg xmlns="http://www.w3.org/2000/svg" viewBox="0 0 20 20"><path fill-rule="evenodd" d="M7.274 7.274c.723-.723 1.704-1.129 2.726-1.129s2.003.406 2.726 1.13c.723.722 1.129 1.703 1.129 2.725s-.406 2.003-1.13 2.726c-.722.723-1.703 1.129-2.725 1.129s-2.003-.406-2.726-1.13c-.723-.722-1.129-1.703-1.129-2.725s.406-2.003 1.13-2.726Zm1.768 5.038c.304.126.63.19.958.19.664 0 1.3-.263 1.77-.732.469-.47.732-1.106.732-1.77 0-.664-.263-1.3-.732-1.77-.47-.469-1.106-.732-1.77-.732-.329 0-.654.064-.958.19-.303.126-.58.31-.812.542-.232.233-.416.509-.542.812-.126.304-.19.63-.19.958 0 .329.064.654.19.958.126.303.31.58.542.812.233.232.509.416.812.542Z"/><path d="M14.71 6.72c.17-.171.266-.403.266-.645s-.096-.473-.266-.644c-.171-.171-.403-.267-.645-.267-.241 0-.473.096-.644.267-.171.17-.267.402-.267.644s.096.473.267.644c.17.171.403.267.644.267.242 0 .474-.096.645-.267Z"/><path fill-rule="evenodd" d="M6.908 2.545c.8-.036 1.055-.045 3.092-.045s2.292.009 3.091.045c.799.037 1.345.164 1.822.349.5.188.953.483 1.328.865.381.374.677.828.865 1.328.185.477.313 1.022.349 1.821.037.8.045 1.055.045 3.092s-.009 2.292-.045 3.092c-.036.798-.163 1.344-.348 1.821-.189.5-.484.953-.866 1.328-.374.382-.828.677-1.328.865-.477.185-1.023.313-1.821.349-.8.037-1.055.045-3.092.045s-2.292-.009-3.092-.045c-.799-.036-1.344-.163-1.821-.348-.5-.189-.953-.484-1.328-.866-.382-.374-.677-.828-.865-1.328-.186-.477-.313-1.023-.349-1.821-.036-.8-.045-1.055-.045-3.092s.009-2.292.045-3.091c.037-.799.164-1.345.349-1.822.188-.5.483-.953.865-1.328.374-.382.828-.677 1.328-.865.477-.186 1.022-.313 1.821-.349Zm6.123 1.35c-.791-.036-1.029-.043-3.031-.043-2.003 0-2.24.007-3.031.043-.731.034-1.128.156-1.393.259-.325.12-.62.311-.862.56-.262.262-.425.512-.56.862-.104.265-.225.662-.259 1.393-.036.791-.043 1.028-.043 3.031 0 2.002.007 2.24.043 3.031.034.731.156 1.128.259 1.393.12.325.311.62.56.862.242.249.537.44.862.56.265.104.662.226 1.393.259.791.036 1.028.043 3.031.043s2.24-.007 3.031-.043c.731-.034 1.128-.155 1.393-.258.325-.12.62-.312.862-.561.249-.242.44-.537.56-.862.104-.265.226-.662.259-1.393.036-.791.043-1.029.043-3.031 0-2.003-.007-2.24-.043-3.031-.034-.731-.155-1.128-.258-1.393-.136-.35-.298-.6-.561-.862-.262-.262-.512-.425-.862-.56-.265-.104-.662-.225-1.393-.259Z"/></svg>