<svg xmlns="http://www.w3.org/2000/svg" viewBox="0 0 20 20"><path fill-rule="evenodd" d="M10.163 5.185c1.203 0 2.271.408 3.125 1.193l2.337-2.29c-1.417-1.295-3.258-2.088-5.462-2.088-3.19 0-5.944 1.796-7.287 4.415-.557 1.076-.876 2.29-.876 3.585 0 1.294.32 2.51.876 3.585v.008c1.343 2.61 4.096 4.407 7.287 4.407 2.204 0 4.052-.713 5.403-1.934 1.543-1.397 2.434-3.448 2.434-5.884 0-.567-.052-1.113-.148-1.637h-7.689v3.099h4.394c-.193.996-.772 1.84-1.64 2.407-.728.48-1.655.77-2.754.77-2.122 0-3.926-1.403-4.571-3.294h-.01l.01-.007c-.163-.48-.26-.99-.26-1.52s.097-1.04.26-1.52c.645-1.89 2.449-3.295 4.571-3.295Z"/></svg>