<svg xmlns="http://www.w3.org/2000/svg" viewBox="0 0 16 16"><path fill-rule="evenodd" d="M8.143 3.787c1.052 0 1.987.357 2.734 1.044l2.045-2.005c-1.24-1.132-2.85-1.826-4.78-1.826-2.791 0-5.2 1.572-6.376 3.863-.487.942-.766 2.004-.766 3.137s.28 2.195.766 3.137v.007c1.176 2.284 3.585 3.856 6.377 3.856 1.928 0 3.545-.624 4.727-1.693 1.35-1.222 2.13-3.016 2.13-5.148 0-.496-.046-.974-.13-1.432h-6.727v2.711h3.844c-.169.872-.675 1.61-1.435 2.106-.636.42-1.448.675-2.41.675-1.856 0-3.434-1.228-4-2.883h-.008l.009-.006c-.143-.42-.227-.865-.227-1.33 0-.465.084-.91.227-1.33.565-1.655 2.143-2.883 4-2.883Z"/></svg>