<svg xmlns="http://www.w3.org/2000/svg" viewBox="0 0 20 20"><path fill-rule="evenodd" d="M17.837 6.805s-.157-1.11-.637-1.598c-.61-.642-1.291-.646-1.603-.683-2.237-.164-5.598-.164-5.598-.164h-.006s-3.358 0-5.597.164c-.313.038-.994.041-1.603.683-.48.488-.634 1.598-.634 1.598s-.159 1.303-.159 2.61v1.22c0 1.304.16 2.61.16 2.61s.155 1.11.633 1.6c.609.64 1.41.62 1.766.688 1.281.123 5.441.16 5.441.16s3.363-.006 5.6-.167c.314-.037.995-.04 1.604-.682.48-.488.637-1.6.637-1.6s.159-1.303.159-2.61v-1.22c-.003-1.304-.162-2.61-.162-2.61l-.001.001Zm-9.495 5.312v-4.528l4.322 2.272-4.322 2.256Z"/></svg>