<svg xmlns="http://www.w3.org/2000/svg" viewBox="0 0 16 16"><path fill-rule="evenodd" d="M14.857 5s-.137-.972-.557-1.399c-.533-.561-1.13-.565-1.403-.597-1.957-.144-4.898-.144-4.898-.144h-.005s-2.939 0-4.897.144c-.274.033-.87.035-1.403.597-.42.427-.555 1.399-.555 1.399s-.139 1.14-.139 2.283v1.068c0 1.14.14 2.283.14 2.283s.136.972.554 1.4c.533.56 1.233.543 1.545.602 1.121.108 4.761.14 4.761.14s2.943-.005 4.9-.146c.275-.032.87-.035 1.403-.597.421-.427.558-1.4.558-1.4s.139-1.14.139-2.283v-1.068c-.003-1.14-.142-2.283-.142-2.283h-.001Zm-8.308 4.648v-3.963l3.782 1.988-3.782 1.975Z"/></svg>