<svg xmlns="http://www.w3.org/2000/svg" viewBox="0 0 20 20"><path d="M14.358 13.637c-.087-.047-.193-.042-.276.012-.626.411-1.26.62-1.887.62-.337 0-.626-.075-.885-.23-.176-.105-.34-.287-.399-.445-.057-.15-.056-.556-.055-1.117v-3.422h2.846c.149 0 .27-.12.27-.27v-2.403c0-.149-.121-.27-.27-.27h-2.846v-2.843c0-.148-.12-.269-.27-.269h-1.916c-.137 0-.252.102-.268.237-.08.658-.23 1.205-.445 1.626-.21.414-.493.775-.843 1.073-.28.239-.761.47-1.428.687-.111.036-.186.14-.186.256v1.907c0 .148.12.269.27.269h1.56v4.451c0 .656.07 1.15.213 1.51.146.365.406.709.771 1.022.36.308.797.549 1.302.716.49.16.88.246 1.537.246.556 0 1.085-.058 1.575-.171.48-.112 1.025-.31 1.617-.589.095-.044.155-.14.155-.243v-2.123c0-.099-.054-.19-.142-.237Z"/></svg>