<svg xmlns="http://www.w3.org/2000/svg" viewBox="0 0 20 20"><path fill-rule="evenodd" d="M10.143 5.787c1.052 0 1.987.357 2.734 1.044l2.045-2.005c-1.24-1.132-2.85-1.826-4.78-1.826a7.146 7.146 0 0 0-6.376 3.863 6.802 6.802 0 0 0 0 6.274v.007a7.152 7.152 0 0 0 6.377 3.856c1.928 0 3.545-.624 4.727-1.693 1.35-1.222 2.13-3.016 2.13-5.148 0-.496-.046-.974-.13-1.432h-6.727v2.711h3.844a3.225 3.225 0 0 1-1.435 2.106c-.636.42-1.448.675-2.41.675-1.856 0-3.434-1.228-4-2.883h-.008l.009-.006a4.119 4.119 0 0 1-.227-1.33c0-.465.084-.91.227-1.33.565-1.655 2.143-2.883 4-2.883Z"/></svg>