<svg xmlns="http://www.w3.org/2000/svg" viewBox="0 0 16 16"><path fill-rule="evenodd" d="M8 1c-1.901 0-2.14.008-2.886.042-.745.034-1.254.153-1.7.326-.466.175-.89.45-1.24.807-.355.35-.63.773-.807 1.24-.172.445-.29.954-.325 1.7-.034.746-.042.983-.042 2.885 0 1.902.008 2.14.042 2.886.034.745.153 1.254.326 1.7.175.466.45.89.807 1.24.35.355.773.63 1.24.807.445.172.954.29 1.7.325.746.034.984.042 2.885.042 1.901 0 2.14-.008 2.886-.042.745-.034 1.254-.153 1.7-.326.466-.175.89-.45 1.24-.807.355-.35.63-.773.807-1.24.172-.445.29-.954.325-1.7.034-.746.042-.984.042-2.885 0-1.901-.008-2.14-.042-2.886-.034-.745-.153-1.254-.326-1.7-.175-.467-.451-.89-.807-1.24-.35-.355-.773-.63-1.24-.807-.445-.172-.954-.29-1.7-.325-.746-.034-.983-.042-2.885-.042Zm0 1.261c1.869 0 2.09.007 2.829.041.682.031 1.053.145 1.3.241.326.127.56.279.805.523.245.245.396.479.523.805.096.247.21.618.241 1.3.034.738.04.96.04 2.829 0 1.869-.006 2.09-.04 2.829-.031.682-.145 1.053-.241 1.3-.112.304-.291.579-.523.805-.226.232-.501.41-.805.523-.247.096-.618.21-1.3.241-.738.034-.96.04-2.829.04-1.87 0-2.09-.006-2.829-.04-.682-.031-1.053-.145-1.3-.241-.304-.112-.579-.291-.805-.523-.232-.226-.41-.501-.523-.805-.096-.247-.21-.618-.241-1.3-.034-.738-.04-.96-.04-2.829 0-1.869.006-2.09.04-2.829.031-.682.145-1.053.241-1.3.127-.326.279-.56.523-.805.226-.232.501-.41.805-.523.247-.096.618-.21 1.3-.241.738-.034.96-.04 2.829-.04Z"/><path fill-rule="evenodd" d="M8 10.336c-.307 0-.61-.06-.894-.178-.283-.117-.54-.29-.758-.506-.216-.217-.388-.475-.506-.758-.117-.284-.178-.587-.178-.894 0-.307.06-.61.178-.894.118-.283.29-.54.506-.758.217-.216.475-.388.758-.506.284-.117.587-.178.894-.178.62 0 1.214.246 1.652.684.438.438.684 1.033.684 1.652 0 .62-.246 1.214-.684 1.652-.438.438-1.033.684-1.652.684Zm0-5.934c-.954 0-1.87.38-2.544 1.054-.675.675-1.054 1.59-1.054 2.544s.38 1.87 1.054 2.544c.675.675 1.59 1.054 2.544 1.054s1.87-.38 2.544-1.054c.675-.675 1.054-1.59 1.054-2.544s-.38-1.87-1.054-2.544c-.675-.675-1.59-1.054-2.544-1.054Zm4.645-.065c0 .225-.09.442-.25.601-.159.16-.375.25-.6.25-.226 0-.443-.09-.602-.25-.16-.16-.25-.376-.25-.601 0-.226.09-.442.25-.602.16-.16.376-.249.601-.249.226 0 .442.09.602.25.16.159.249.375.249.6Z"/></svg>