<svg xmlns="http://www.w3.org/2000/svg" viewBox="0 0 16 16"><path d="M3.702 2.253c.237-.434.86-.434 1.096 0l.196.358c.207.378.517.688.895.895l.358.196c.434.237.434.86 0 1.097l-.358.196c-.378.206-.688.517-.895.894l-.196.359c-.237.433-.86.433-1.096 0l-.196-.359c-.207-.377-.517-.688-.895-.894l-.358-.196c-.434-.238-.434-.86 0-1.097l.358-.196c.378-.207.688-.517.895-.895l.196-.358Z"/><path fill-rule="evenodd" d="M10.948 5.89c-.18-1.167-1.852-1.19-2.064-.029l-.03.164c-.285 1.561-1.521 2.775-3.088 3.031-1.15.188-1.173 1.833-.03 2.054l.105.02c1.533.297 2.732 1.496 3.029 3.029l.032.165c.233 1.208 1.963 1.208 2.196 0l.025-.129c.3-1.552 1.522-2.76 3.077-3.045 1.184-.216 1.12-1.928-.071-2.107-1.63-.245-2.93-1.524-3.18-3.154Zm-.944 6.887c.508-1.157 1.412-2.095 2.542-2.647-1.149-.51-2.084-1.415-2.628-2.548-.515 1.098-1.396 1.985-2.488 2.508 1.15.556 2.067 1.51 2.574 2.687Z"/></svg>