<svg viewBox="0 0 20 20" xmlns="http://www.w3.org/2000/svg">
<path d="M12.1727 7.55979C12.2863 7.21449 12.343 7.04185 12.437 7.01029C12.4779 6.99657 12.5221 6.99657 12.563 7.01029C12.657 7.04185 12.7137 7.21449 12.8273 7.55979C13.3029 9.00598 13.5407 9.72908 13.9895 10.3019C14.1962 10.5658 14.4342 10.8038 14.6981 11.0105C15.2709 11.4593 15.994 11.6971 17.4402 12.1727C17.7855 12.2863 17.9582 12.343 17.9897 12.437C18.0034 12.4779 18.0034 12.5221 17.9897 12.563C17.9582 12.657 17.7855 12.7137 17.4402 12.8273C15.994 13.3029 15.2709 13.5407 14.6981 13.9895C14.4342 14.1962 14.1962 14.4342 13.9895 14.6981C13.5407 15.2709 13.3029 15.994 12.8273 17.4402C12.7137 17.7855 12.657 17.9582 12.563 17.9897C12.5221 18.0034 12.4779 18.0034 12.437 17.9897C12.343 17.9582 12.2863 17.7855 12.1727 17.4402C11.6971 15.994 11.4593 15.2709 11.0105 14.6981C10.8038 14.4342 10.5658 14.1962 10.3019 13.9895C9.72908 13.5407 9.00598 13.3029 7.55979 12.8273C7.21449 12.7137 7.04185 12.657 7.01029 12.563C6.99657 12.5221 6.99657 12.4779 7.01029 12.437C7.04185 12.343 7.21449 12.2863 7.55979 12.1727C9.00598 11.6971 9.72908 11.4593 10.3019 11.0105C10.5658 10.8038 10.8038 10.5658 11.0105 10.3019C11.4593 9.72908 11.6971 9.00598 12.1727 7.55979Z" fill="#5C5F62"/>
<path d="M5.29171 4.35623C5.36398 4.13649 5.40011 4.02663 5.45993 4.00655C5.48593 3.99782 5.51407 3.99782 5.54007 4.00655C5.59989 4.02663 5.63602 4.13649 5.70829 4.35623C6.01096 5.27654 6.16229 5.73669 6.44787 6.10123C6.57942 6.26917 6.73082 6.42057 6.89876 6.55213C7.26331 6.8377 7.72346 6.98904 8.64377 7.29171C8.86351 7.36398 8.97337 7.40011 8.99345 7.45993C9.00218 7.48593 9.00218 7.51407 8.99345 7.54007C8.97337 7.59989 8.86351 7.63602 8.64377 7.70829C7.72346 8.01096 7.26331 8.16229 6.89876 8.44787C6.73082 8.57942 6.57942 8.73082 6.44787 8.89876C6.16229 9.26331 6.01096 9.72346 5.70829 10.6438C5.63602 10.8635 5.59989 10.9734 5.54007 10.9935C5.51407 11.0022 5.48593 11.0022 5.45993 10.9935C5.40011 10.9734 5.36398 10.8635 5.29171 10.6438C4.98904 9.72346 4.83771 9.26331 4.55213 8.89876C4.42057 8.73082 4.26917 8.57942 4.10123 8.44787C3.73669 8.16229 3.27654 8.01096 2.35623 7.70829C2.13649 7.63602 2.02663 7.59989 2.00655 7.54007C1.99782 7.51407 1.99782 7.48593 2.00655 7.45993C2.02663 7.40011 2.13649 7.36398 2.35623 7.29171C3.27654 6.98904 3.73669 6.8377 4.10123 6.55213C4.26917 6.42057 4.42057 6.26917 4.55213 6.10123C4.83771 5.73669 4.98904 5.27654 5.29171 4.35623Z" fill="#5C5F62"/>
<path d="M10.881 2.20356C10.9223 2.078 10.9429 2.01522 10.9771 2.00374C10.992 1.99875 11.008 1.99875 11.0229 2.00374C11.0571 2.01522 11.0777 2.078 11.119 2.20356C11.292 2.72945 11.3785 2.99239 11.5416 3.20071C11.6168 3.29667 11.7033 3.38319 11.7993 3.45836C12.0076 3.62155 12.2706 3.70802 12.7964 3.88098C12.922 3.92227 12.9848 3.94292 12.9963 3.9771C13.0012 3.99196 13.0012 4.00804 12.9963 4.0229C12.9848 4.05708 12.922 4.07773 12.7964 4.11902C12.2706 4.29198 12.0076 4.37845 11.7993 4.54164C11.7033 4.61681 11.6168 4.70333 11.5416 4.79929C11.3785 5.00761 11.292 5.27055 11.119 5.79644C11.0777 5.922 11.0571 5.98478 11.0229 5.99626C11.008 6.00125 10.992 6.00125 10.9771 5.99626C10.9429 5.98478 10.9223 5.922 10.881 5.79644C10.708 5.27055 10.6215 5.00761 10.4584 4.79929C10.3832 4.70333 10.2967 4.61681 10.2007 4.54164C9.99239 4.37845 9.72945 4.29198 9.20356 4.11902C9.078 4.07773 9.01522 4.05708 9.00374 4.0229C8.99875 4.00804 8.99875 3.99196 9.00374 3.9771C9.01522 3.94292 9.078 3.92227 9.20356 3.88098C9.72945 3.70802 9.99239 3.62155 10.2007 3.45836C10.2967 3.38319 10.3832 3.29667 10.4584 3.20071C10.6215 2.99239 10.708 2.72945 10.881 2.20356Z" fill="#5C5F62"/>
</svg>
