<svg xmlns="http://www.w3.org/2000/svg" viewBox="0 0 12 12"><path fill-rule="evenodd" d="M2.62 6.005c1.564.586 2.8 1.828 3.385 3.39.583-1.56 1.815-2.802 3.375-3.39-1.562-.591-2.794-1.84-3.375-3.402-.583 1.565-1.819 2.813-3.384 3.402Zm4.473-4.604c-.224-1.196-1.95-1.201-2.174-.005-.335 1.785-1.736 3.196-3.522 3.528-1.198.223-1.195 1.94.003 2.163 1.784.331 3.184 1.735 3.521 3.518.226 1.194 1.944 1.19 2.17-.005.336-1.779 1.733-3.182 3.512-3.515 1.195-.224 1.197-1.935.002-2.159-1.78-.333-3.178-1.744-3.512-3.525Z"/></svg>