<svg xmlns="http://www.w3.org/2000/svg" viewBox="0 0 20 20"><path d="M4.702 2.753c.237-.434.86-.434 1.096 0l.373.681.04.07c.206.346.5.631.855.825l.681.373c.434.237.434.86 0 1.096l-.681.373c-.378.207-.688.517-.895.895l-.373.681c-.237.434-.86.434-1.096 0l-.373-.681c-.207-.378-.517-.688-.895-.895l-.681-.373c-.434-.237-.434-.86 0-1.096l.681-.373c.378-.207.688-.517.895-.895l.373-.681Z"/><path fill-rule="evenodd" d="M13.037 7c-.2-1.317-2.088-1.342-2.324-.032l-.03.167c-.32 1.769-1.716 3.146-3.489 3.44-1.297.214-1.324 2.07-.034 2.323l.12.023c1.734.34 3.088 1.7 3.42 3.436l.042.22c.258 1.353 2.196 1.353 2.455 0l.034-.178c.336-1.758 1.716-3.13 3.476-3.455 1.338-.247 1.254-2.182-.09-2.387-1.836-.279-3.3-1.723-3.58-3.558Zm-1.064 8.31c.556-1.616 1.794-2.905 3.376-3.53-1.588-.556-2.866-1.785-3.475-3.354-.579 1.523-1.78 2.73-3.297 3.317 1.598.627 2.846 1.933 3.396 3.568Z"/></svg>