<svg viewBox="0 0 20 20" xmlns="http://www.w3.org/2000/svg">
<path d="M12.6429 7.61068C12.7668 7.23399 12.8288 7.04565 12.9313 7.01122C12.9759 6.99626 13.0241 6.99626 13.0687 7.01122C13.1712 7.04565 13.2332 7.23399 13.3571 7.61068C13.8759 9.18835 14.1354 9.97718 14.6249 10.6021C14.8504 10.89 15.11 11.1496 15.3979 11.3751C16.0228 11.8646 16.8117 12.1241 18.3893 12.6429C18.766 12.7668 18.9544 12.8288 18.9888 12.9313C19.0037 12.9759 19.0037 13.0241 18.9888 13.0687C18.9544 13.1712 18.766 13.2332 18.3893 13.3571C16.8117 13.8759 16.0228 14.1354 15.3979 14.6249C15.11 14.8504 14.8504 15.11 14.6249 15.3979C14.1354 16.0228 13.8759 16.8117 13.3571 18.3893C13.2332 18.766 13.1712 18.9544 13.0687 18.9888C13.0241 19.0037 12.9759 19.0037 12.9313 18.9888C12.8288 18.9544 12.7668 18.766 12.6429 18.3893C12.1241 16.8117 11.8646 16.0228 11.3751 15.3979C11.1496 15.11 10.89 14.8504 10.6021 14.6249C9.97718 14.1354 9.18835 13.8759 7.61068 13.3571C7.23399 13.2332 7.04565 13.1712 7.01122 13.0687C6.99626 13.0241 6.99626 12.9759 7.01122 12.9313C7.04565 12.8288 7.23399 12.7668 7.61068 12.6429C9.18835 12.1241 9.97718 11.8646 10.6021 11.3751C10.89 11.1496 11.1496 10.89 11.3751 10.6021C11.8646 9.97718 12.1241 9.18835 12.6429 7.61068Z" fill="#5C5F62"/>
<path d="M4.76196 4.40712C4.84455 4.15599 4.88584 4.03043 4.95421 4.00748C4.98392 3.99751 5.01608 3.99751 5.04579 4.00748C5.11416 4.03043 5.15545 4.15599 5.23804 4.40712C5.58395 5.4589 5.75691 5.98479 6.08328 6.40141C6.23363 6.59334 6.40666 6.76637 6.59859 6.91672C7.01521 7.24309 7.5411 7.41605 8.59288 7.76196C8.84401 7.84455 8.96957 7.88584 8.99252 7.95421C9.00249 7.98392 9.00249 8.01608 8.99252 8.04579C8.96957 8.11416 8.84401 8.15545 8.59288 8.23804C7.5411 8.58395 7.01521 8.75691 6.59859 9.08328C6.40666 9.23363 6.23363 9.40666 6.08328 9.59859C5.75691 10.0152 5.58395 10.5411 5.23804 11.5929C5.15545 11.844 5.11416 11.9696 5.04579 11.9925C5.01608 12.0025 4.98392 12.0025 4.95421 11.9925C4.88584 11.9696 4.84455 11.844 4.76196 11.5929C4.41605 10.5411 4.24309 10.0152 3.91672 9.59859C3.76637 9.40666 3.59334 9.23363 3.40141 9.08328C2.98479 8.75691 2.4589 8.58395 1.40712 8.23804C1.15599 8.15545 1.03043 8.11416 1.00748 8.04579C0.997506 8.01608 0.997506 7.98392 1.00748 7.95421C1.03043 7.88584 1.15599 7.84455 1.40712 7.76196C2.4589 7.41605 2.98479 7.24309 3.40141 6.91672C3.59334 6.76637 3.76637 6.59334 3.91672 6.40141C4.24309 5.98479 4.41605 5.4589 4.76196 4.40712Z" fill="#5C5F62"/>
<path d="M10.3512 1.25445C10.4028 1.0975 10.4287 1.01902 10.4714 1.00468C10.49 0.998441 10.51 0.998441 10.5286 1.00468C10.5713 1.01902 10.5972 1.0975 10.6488 1.25445C10.865 1.91181 10.9731 2.24049 11.177 2.50088C11.271 2.62084 11.3792 2.72898 11.4991 2.82295C11.7595 3.02693 12.0882 3.13503 12.7456 3.35122C12.9025 3.40284 12.981 3.42865 12.9953 3.47138C13.0016 3.48995 13.0016 3.51005 12.9953 3.52862C12.981 3.57135 12.9025 3.59716 12.7456 3.64878C12.0882 3.86497 11.7595 3.97307 11.4991 4.17705C11.3792 4.27102 11.271 4.37916 11.177 4.49912C10.9731 4.75951 10.865 5.08819 10.6488 5.74555C10.5972 5.9025 10.5713 5.98098 10.5286 5.99532C10.51 6.00156 10.49 6.00156 10.4714 5.99532C10.4287 5.98098 10.4028 5.9025 10.3512 5.74555C10.135 5.08819 10.0269 4.75951 9.82295 4.49912C9.72898 4.37916 9.62084 4.27102 9.50088 4.17705C9.24049 3.97307 8.91181 3.86497 8.25445 3.64878C8.0975 3.59716 8.01902 3.57135 8.00468 3.52862C7.99844 3.51005 7.99844 3.48995 8.00468 3.47138C8.01902 3.42865 8.0975 3.40284 8.25445 3.35122C8.91181 3.13503 9.24049 3.02693 9.50088 2.82295C9.62084 2.72898 9.72898 2.62084 9.82295 2.50088C10.0269 2.24049 10.135 1.91181 10.3512 1.25445Z" fill="#5C5F62"/>
</svg>
