<svg xmlns="http://www.w3.org/2000/svg" viewBox="0 0 21 20"><path fill-rule="evenodd" d="M13.283 8.031c.53-1.12 1.862-1.608 2.99-1.095 1.144.52 1.648 1.87 1.124 3.012l-1.527 3.334c-.451.984-1.225 1.785-2.194 2.269l-2.24 1.12c-.37.185-.82.035-1.006-.336-.185-.37-.035-.82.335-1.006l2.24-1.12c.663-.331 1.192-.879 1.501-1.552l1.528-3.333c.177-.388.007-.846-.381-1.022-.383-.174-.835-.009-1.015.371l-1.002 2.116c-.48 1.014-1.39 1.76-2.48 2.033l-2.623.656c-.402.1-.81-.144-.91-.546-.1-.402.144-.81.546-.91l2.624-.655c.653-.164 1.199-.611 1.487-1.22l1.003-2.116Z" clip-rule="evenodd"/><path fill-rule="evenodd" d="M10.508 8.208c1.38-.16 2.593.92 2.593 2.311 0 1.068-.727 1.998-1.763 2.257l-1.805.452c-.402.1-.81-.144-.91-.546-.1-.402.144-.81.546-.91l1.806-.451c.368-.092.626-.423.626-.802 0-.494-.43-.878-.922-.821l-.821.095c-1.954.225-3.498 1.762-3.733 3.715l-.28 2.331c-.049.412-.422.705-.834.656-.41-.05-.704-.423-.655-.834l.28-2.332c.317-2.642 2.406-4.721 5.05-5.026l.822-.095Z" clip-rule="evenodd"/><path fill-rule="evenodd" d="M10.85 7.75c-.413 0-.75-.336-.75-.75v-2.097l-.755.661c-.312.273-.786.242-1.059-.07-.272-.312-.24-.786.07-1.058l2-1.75c.284-.248.706-.248.989 0l2 1.75c.311.272.343.746.07 1.058-.272.312-.746.343-1.058.07l-.756-.661v2.097c0 .414-.336.75-.75.75Z" clip-rule="evenodd"/></svg>