<svg width="20" height="20" viewBox="0 0 20 20" fill="none" xmlns="http://www.w3.org/2000/svg">
<path fill-rule="evenodd" clip-rule="evenodd" d="M12.2779 3C13.1218 3 13.919 3.38744 14.4403 4.05099L16.527 6.70682C16.6 6.7997 16.6634 6.89973 16.7162 7.00538L16.7955 7.16393C17.5027 8.57835 16.8169 10.1932 15.5 10.7758V12.375C15.5 12.7892 15.1642 13.125 14.75 13.125C14.3358 13.125 14 12.7892 14 12.375V10.9658C13.3181 10.8553 12.7057 10.4819 12.295 9.9276C11.7402 10.5907 10.9087 11.0001 10 11.0001C9.09135 11.0001 8.25987 10.5907 7.70501 9.9276C7.29432 10.4819 6.68188 10.8553 6.00001 10.9658V15.25C6.00001 15.3881 6.11194 15.5 6.25001 15.5H9.75001C10.1642 15.5 10.5 15.8358 10.5 16.25C10.5 16.6642 10.1642 17 9.75001 17H6.25001C5.28352 17 4.50001 16.2165 4.50001 15.25V10.7758C3.1831 10.1932 2.49731 8.57835 3.20452 7.16393L3.2838 7.00538C3.33662 6.89973 3.40001 6.7997 3.47299 6.70682L5.55971 4.05099C6.08107 3.38744 6.87822 3 7.72208 3H12.2779ZM8.35153 7.80176C8.28369 7.71057 8.19402 7.63348 8.08542 7.57918C7.89496 7.48395 7.68334 7.47736 7.49749 7.54379C7.32184 7.60657 7.1692 7.73457 7.07919 7.91459L6.60452 8.86393C6.40961 9.25376 6.01118 9.5 5.57534 9.5C4.71996 9.5 4.16363 8.59983 4.54616 7.83475L4.62544 7.6762C4.63299 7.66111 4.64204 7.64682 4.65247 7.63355L6.73919 4.97772C6.97617 4.67611 7.33851 4.5 7.72208 4.5H12.2779C12.6615 4.5 13.0239 4.67611 13.2608 4.97772L15.3476 7.63355C15.358 7.64682 15.367 7.66111 15.3746 7.6762L15.4539 7.83475C15.8364 8.59983 15.2801 9.5 14.4247 9.5C13.9888 9.5 13.5904 9.25376 13.3955 8.86393L12.9208 7.91459C12.8651 7.80304 12.7852 7.71147 12.6908 7.64301C12.6342 7.60188 12.5711 7.5682 12.5025 7.54379C12.3167 7.47736 12.1051 7.48395 11.9146 7.57918C11.806 7.63347 11.7164 7.71055 11.6485 7.80172C11.5983 7.86911 11.5587 7.94598 11.5329 8.03046C11.5284 8.04507 11.5244 8.05982 11.5208 8.07469L11.4468 8.3704C11.2809 9.03431 10.6844 9.50006 10 9.50006C9.31568 9.50006 8.71916 9.03431 8.55318 8.3704L8.47924 8.07463C8.47584 8.06051 8.47203 8.0465 8.46782 8.03261C8.44205 7.9473 8.40222 7.86971 8.35153 7.80176Z" fill="#4A4A4A"/>
<path d="M17.7803 14.2803C18.0732 13.9874 18.0732 13.5126 17.7803 13.2197C17.4875 12.9268 17.0126 12.9268 16.7197 13.2197L13.75 16.1893L12.5303 14.9697C12.2375 14.6768 11.7626 14.6768 11.4697 14.9697C11.1768 15.2626 11.1768 15.7374 11.4697 16.0303L13.2197 17.7803C13.5126 18.0732 13.9875 18.0732 14.2803 17.7803L17.7803 14.2803Z" fill="#4A4A4A"/>
</svg>
