<svg viewBox="0 0 20 20" xmlns="http://www.w3.org/2000/svg"><path d="M1.623 2.253l-.609 3.583C.91 6.446 1.39 7 2.021 7h.91c.58 0 1.11-.321 1.37-.83L4.897 5l.597 1.17c.26.509.79.83 1.37.83h1.169c.58 0 1.11-.321 1.369-.83L10 5l.597 1.17c.26.509.79.83 1.37.83h1.169c.58 0 1.11-.321 1.369-.83L15.102 5l.598 1.17c.259.509.789.83 1.369.83h.91c.63 0 1.11-.555 1.007-1.164l-.61-3.583A1.522 1.522 0 0016.867 1H3.134c-.748 0-1.387.53-1.51 1.253zm12.084 7.04a1 1 0 010 1.414l-4 4a1 1 0 01-1.414 0l-2-2a1 1 0 111.414-1.414L9 12.586l3.293-3.293a1 1 0 011.414 0zM4 9H2v8.5A1.5 1.5 0 003.5 19h13a1.5 1.5 0 001.5-1.5V9h-2v8H4V9z" fill="#5C5F62"/></svg>