<svg xmlns="http://www.w3.org/2000/svg" viewBox="0 0 20 20"><path d="M13.28 4.78a.75.75 0 0 0-1.06-1.06l-2.97 2.97-1.22-1.22a.75.75 0 0 0-1.06 1.06l1.75 1.75a.75.75 0 0 0 1.06 0l3.5-3.5Z"/><path fill-rule="evenodd" d="M4.86 6.883a.75.75 0 0 1 .632.852l-.336 2.265h2.484a1.25 1.25 0 0 1 1.185.855l.159.474a.25.25 0 0 0 .237.171h1.558a.25.25 0 0 0 .237-.17l.159-.475a1.25 1.25 0 0 1 1.185-.855h2.484l-.336-2.265a.75.75 0 1 1 1.484-.22l.413 2.792c.063.425.095.853.095 1.282v1.661a3.25 3.25 0 0 1-3.25 3.25h-6.5a3.25 3.25 0 0 1-3.25-3.25v-1.66c0-.43.032-.858.094-1.283l.414-2.792a.75.75 0 0 1 .852-.632Zm.14 4.706v-.089h2.46l.1.303a1.75 1.75 0 0 0 1.66 1.197h1.56a1.75 1.75 0 0 0 1.66-1.197l.1-.303h2.46v1.75a1.75 1.75 0 0 1-1.75 1.75h-6.5a1.75 1.75 0 0 1-1.75-1.75v-1.66Z"/></svg>