<svg viewBox="0 0 20 20" xmlns="http://www.w3.org/2000/svg"><path fill-rule="evenodd" d="M10.2929 10.2929C10.5702 10.0156 10.9839 9.92598 11.3511 10.0637L19.3511 13.0637C19.761 13.2174 20.0233 13.6198 19.9984 14.0569C19.9735 14.4939 19.6672 14.864 19.2425 14.9701L15.8246 15.8246L14.9701 19.2425C14.864 19.6672 14.4939 19.9735 14.0569 19.9984C13.6198 20.0233 13.2174 19.761 13.0637 19.3511L10.0637 11.3511C9.92598 10.9839 10.0156 10.5702 10.2929 10.2929Z" fill="#5C5F62"/><path d="M9 6C10.3541 6 11.4987 6.89717 11.8718 8.12952L13.9994 8.92087C13.9571 6.19594 11.735 4 9 4C6.23858 4 4 6.23858 4 9C4 11.7349 6.19585 13.957 8.9207 13.9994L8.12935 11.8717C6.89708 11.4986 6 10.3541 6 9C6 7.34315 7.34315 6 9 6Z" fill="#5C5F62"/><path d="M9.65944 15.9693C9.44235 15.9896 9.22239 16 9 16C5.13401 16 2 12.866 2 9C2 5.13401 5.13401 2 9 2C12.866 2 16 5.13401 16 9C16 9.22244 15.9896 9.44246 15.9693 9.6596L17.8946 10.3816C17.964 9.9312 18 9.4698 18 9C18 4.02944 13.9706 0 9 0C4.02944 0 0 4.02944 0 9C0 13.9706 4.02944 18 9 18C9.46975 18 9.93109 17.964 10.3814 17.8946L9.65944 15.9693Z" fill="#5C5F62"/></svg>