<svg xmlns="http://www.w3.org/2000/svg" viewBox="0 0 20 20"><path fill-rule="evenodd" d="M10 3.5c-2.492 0-4.657 1.402-5.747 3.461l2.103 2.104c.512.511.799 1.204.799 1.927v.579c0 .357.29.647.647.647 1.185 0 2.146.96 2.146 2.146v2.136h.052c.892 0 1.742-.18 2.516-.505-.01.084-.016.169-.016.255 0 .453.15.871.405 1.206-.9.351-1.88.544-2.905.544-4.418 0-8-3.582-8-8s3.582-8 8-8c3.344 0 6.21 2.052 7.404 4.966-.271-.138-.578-.216-.904-.216-.277 0-.541.056-.781.158-.502-.926-1.222-1.716-2.091-2.302-.267.695-.94 1.19-1.73 1.19-.195 0-.352.157-.352.352v.04c0 .587-.272 1.14-.737 1.499l-.462.356c-.06.046-.097.121-.097.201 0 .144.118.256.25.256h2.5c.408 0 .79.108 1.12.298-.474.302-.87.715-1.152 1.202h-2.468c-.972 0-1.75-.795-1.75-1.756 0-.54.25-1.055.68-1.388l.463-.357c.096-.074.152-.189.152-.31v-.041c0-1.023.83-1.853 1.853-1.853.194 0 .352-.157.352-.352v-.043c-.701-.259-1.459-.4-2.25-.4Zm-6.5 6.5c0-.515.06-1.016.173-1.497l1.623 1.623c.23.23.359.541.359.866v.579c0 1.186.96 2.147 2.147 2.147.357 0 .646.29.646.646v1.95c-2.84-.696-4.948-3.259-4.948-6.314Z"/><path d="M16.5 15.5h-2c-.414 0-.75.336-.75.75s.336.75.75.75h.75v.25c0 .414.336.75.75.75s.75-.336.75-.75v-.264c1.125-.124 2-1.078 2-2.236 0-1.243-1.007-2.25-2.25-2.25h-.5c-.414 0-.75-.336-.75-.75s.336-.75.75-.75h2c.414 0 .75-.336.75-.75s-.336-.75-.75-.75h-.75v-.75c0-.414-.336-.75-.75-.75s-.75.336-.75.75v.764c-1.125.124-2 1.078-2 2.236 0 1.243 1.007 2.25 2.25 2.25h.5c.414 0 .75.336.75.75s-.336.75-.75.75Z"/></svg>