<svg xmlns="http://www.w3.org/2000/svg" viewBox="0 0 16 16"><path d="M1 8c0-3.866 3.134-7 7-7 2.28 0 4.306 1.09 5.584 2.778-.109-.019-.22-.028-.334-.028-1.049 0-1.909.807-1.993 1.834-.892.42-1.577 1.207-1.862 2.166h-1.395c-.692 0-1.25-.567-1.25-1.256 0-.386.179-.755.486-.992l.462-.357c.22-.169.347-.43.347-.707v-.04c0-.747.606-1.353 1.353-1.353h.057c.193 0 .37-.069.509-.184-.61-.233-1.272-.361-1.964-.361-2.203 0-4.103 1.295-4.981 3.165l1.89 1.89c.378.379.591.892.591 1.427v.518c0 .552.448 1 1 1 .828 0 1.5.672 1.5 1.5v1.5c.431 0 .85-.05 1.253-.143.029.546.277 1.035.658 1.379-.607.172-1.248.264-1.911.264-3.866 0-7-3.134-7-7Z"/><path d="M13.25 5c.414 0 .75.336.75.75v.75h.75c.414 0 .75.336.75.75s-.336.75-.75.75h-2c-.414 0-.75.336-.75.75s.336.75.75.75h.5c1.243 0 2.25 1.007 2.25 2.25 0 1.158-.875 2.112-2 2.236v.264c0 .414-.336.75-.75.75s-.75-.336-.75-.75v-.25h-.75c-.414 0-.75-.336-.75-.75s.336-.75.75-.75h2c.414 0 .75-.336.75-.75s-.336-.75-.75-.75h-.5c-1.243 0-2.25-1.007-2.25-2.25 0-1.158.875-2.112 2-2.236v-.764c0-.414.336-.75.75-.75Z"/></svg>