<svg xmlns="http://www.w3.org/2000/svg" viewBox="0 0 20 20"><path fill-rule="evenodd" d="M3.5 10v-.026l.032.02c.768.503 1.794.326 2.35-.405l.059-.077.04.22c.147.808.86 1.389 1.68 1.37.64-.014 1.215-.394 1.481-.976l.287-.63c.048-.106.163-.165.276-.142l.299.059c1.133.225 2.17-.69 2.087-1.842l-.01-.132c-.01-.134.088-.252.222-.266l.82-.09c.838-.093 1.486-.767 1.553-1.598.192.199.372.41.537.632l-1.448 1.883c.463.003.926.166 1.302.495l.126.11.823-1.07c.137.333.247.68.327 1.039l.09-.08c.379-.33.848-.494 1.315-.494-.888-3.45-4.02-6-7.748-6-4.418 0-8 3.582-8 8s3.582 8 8 8c.886 0 1.74-.144 2.536-.41-.413-.317-.7-.79-.77-1.333-.561.158-1.154.243-1.766.243-.85 0-1.66-.163-2.404-.46l1.472-.735c.28-.14.524-.344.712-.594.217-.29.558-.461.92-.461h.67c.155 0 .307.016.456.046-.05-.173-.076-.356-.076-.546 0-.343.086-.666.239-.949-.203-.034-.41-.051-.619-.051h-.67c-.834 0-1.62.393-2.12 1.06-.049.065-.111.117-.183.153l-2.232 1.116c-.045.022-.086.048-.123.077-1.546-1.188-2.542-3.056-2.542-5.156Zm.853-1.261-.635-.415c.74-2.777 3.272-4.824 6.282-4.824 1.165 0 2.258.306 3.203.843l-.022 1.005c-.002.126-.098.23-.222.244l-.82.09c-.935.102-1.621.926-1.554 1.864l.01.133c.011.164-.137.295-.299.263l-.298-.06c-.796-.158-1.597.252-1.934.991l-.287.63c-.027.06-.085.098-.15.1-.083.001-.156-.057-.17-.14l-.142-.777c-.195-1.07-1.567-1.398-2.225-.533l-.402.528c-.08.104-.226.13-.335.058Z"/><path d="M13.186 9.506c.272-.312.746-.343 1.058-.07l1.506 1.317 1.506-1.317c.312-.273.786-.242 1.058.07.273.312.242.786-.07 1.058l-1.744 1.526v.91h1.25c.414 0 .75.336.75.75s-.336.75-.75.75h-1.25v.75h1.25c.414 0 .75.336.75.75s-.336.75-.75.75h-1.25v.5c0 .414-.336.75-.75.75s-.75-.336-.75-.75v-.5h-1.25c-.414 0-.75-.336-.75-.75s.336-.75.75-.75h1.25v-.75h-1.25c-.414 0-.75-.336-.75-.75s.336-.75.75-.75h1.25v-.91l-1.744-1.526c-.312-.272-.343-.746-.07-1.058Z"/></svg>