<svg xmlns="http://www.w3.org/2000/svg" viewBox="0 0 16 16"><path fill-rule="evenodd" d="M1 8c0-3.866 3.134-7 7-7 2.9 0 5.387 1.763 6.45 4.276-.306.053-.602.188-.852.407l-.848.742-.794-.695c-.02-.029.02.028 0 0l-.191-.156c-.723-.516-1.734-.41-2.332.274-.46.525-.549 1.249-.288 1.85-.137.034-.28.052-.426.052h-.184c-.083 0-.162.042-.208.111l-.374.562c-.345.517-.925.827-1.545.827-.876 0-1.63-.61-1.815-1.464-.52.604-1.381.776-2.089.432.066 1.679.884 3.165 2.126 4.13.021-.013.043-.023.065-.033l1.956-.87c.076-.033.142-.086.192-.153.492-.656 1.265-1.042 2.085-1.042h.144c-.047.158-.072.326-.072.5 0 .372.116.716.314 1h-.386c-.348 0-.676.164-.885.442-.203.272-.473.486-.783.624l-.946.42c.531.172 1.098.264 1.686.264.358 0 .707-.034 1.046-.1.137.587.57 1.06 1.132 1.255-.685.224-1.418.345-2.178.345-3.866 0-7-3.134-7-7Zm7-5.5c-2.539 0-4.676 1.72-5.31 4.06l.439.291c.11.074.259.048.339-.058l.262-.35c.648-.864 2.013-.554 2.224.505l.104.515c.033.167.18.287.35.287.119 0 .23-.06.297-.159l.374-.562c.325-.487.871-.779 1.456-.779h.184c.115 0 .215-.078.243-.19l.121-.484c.195-.78.895-1.326 1.698-1.326h.219c.138 0 .25-.112.25-.25v-.438c-.91-.668-2.034-1.062-3.25-1.062Z"/><path d="M10.186 6.506c.272-.312.746-.343 1.058-.07l1.506 1.317 1.506-1.317c.312-.273.786-.242 1.058.07.273.312.242.786-.07 1.058l-1.744 1.526v.91h1.25c.414 0 .75.336.75.75s-.336.75-.75.75h-1.25v.75h1.25c.414 0 .75.336.75.75s-.336.75-.75.75h-1.25v.5c0 .414-.336.75-.75.75s-.75-.336-.75-.75v-.5h-1.25c-.414 0-.75-.336-.75-.75s.336-.75.75-.75h1.25v-.75h-1.25c-.414 0-.75-.336-.75-.75s.336-.75.75-.75h1.25v-.91l-1.744-1.526c-.312-.272-.343-.746-.07-1.058Z"/></svg>