<svg viewBox="0 0 20 20" xmlns="http://www.w3.org/2000/svg"><path fill-rule="evenodd" d="M13.245 7.57a.75.75 0 0 1-.69.842c-.8.058-1.66.088-2.555.088-.672 0-1.325-.017-1.948-.05a22.413 22.413 0 0 0-.052 1.55c0 .5.015.983.045 1.447a34.696 34.696 0 0 0 2.445.05.75.75 0 0 1 .02 1.5 39.043 39.043 0 0 1-2.306-.04c.11.729.264 1.377.455 1.92.213.602.457 1.028.703 1.292.234.251.443.331.638.331a.75.75 0 0 1 0 1.5h-.002a8 8 0 0 1-.011-16h.038a7.975 7.975 0 0 1 5.492 2.207.75.75 0 0 1-1.034 1.086 6.503 6.503 0 0 0-2.125-1.352c.44.982.72 2.27.886 3.628Zm-6.71 3.748a24.38 24.38 0 0 1 .022-2.988 21.72 21.72 0 0 1-.445-.053c-.838-.109-1.604-.261-2.234-.467a6.489 6.489 0 0 0-.36 2.665c.052.052.182.154.46.273.346.149.826.286 1.432.4.345.066.721.123 1.125.17Zm-2.606 1.009c.363.116.768.213 1.202.295.47.09.989.163 1.542.22.124.942.313 1.802.572 2.534.076.216.16.425.251.624a6.522 6.522 0 0 1-3.567-3.673Zm4.73-7.204c-.184.521-.332 1.14-.441 1.833a35.447 35.447 0 0 0 3.426.007c-.163-.991-.391-1.84-.68-2.464-.376-.813-.725-.994-.954-.999h-.01c-.195 0-.404.08-.638.331-.246.264-.49.69-.703 1.292Zm-2.354 1.667c.135.017.272.034.413.049a12.13 12.13 0 0 1 .527-2.215c.076-.216.16-.425.251-.624a6.524 6.524 0 0 0-2.941 2.449c.465.134 1.053.25 1.75.34Z" fill="#5C5F62"/><path d="M15.25 15.5h-2a.75.75 0 0 0 0 1.5h.75v.25a.75.75 0 0 0 1.5 0v-.264a2.25 2.25 0 0 0-.25-4.486h-.5a.75.75 0 0 1 0-1.5h2a.75.75 0 0 0 0-1.5h-.75v-.75a.75.75 0 0 0-1.5 0v.764a2.25 2.25 0 0 0 .25 4.486h.5a.75.75 0 0 1 0 1.5Z" fill="#5C5F62"/></svg>