<svg viewBox="0 0 20 20" xmlns="http://www.w3.org/2000/svg"><path d="m10.125 4.767.095.182a.5.5 0 0 1-.046.535l-.852 1.12 1.517 1.353a.5.5 0 0 1 0 .746l-2.255 2.02a.5.5 0 0 1-.334.128h-2.037v1.568a.5.5 0 0 1-.297.457l-.595.264a5.191 5.191 0 0 0 1.674 1.403c.435.232.89.395 1.349.493l1.24-1.314-.011-1.377a.5.5 0 0 1 .497-.504l1.443-.007c.212.514.543.966.959 1.323a2 2 0 0 0-.776 3.102 6.714 6.714 0 1 1 2.881-10.644c-.49.176-.892.537-1.12.999a5.198 5.198 0 0 0-1.577-1.283 5.204 5.204 0 0 0-1.755-.564Z" fill="currentColor"/><path d="M15.25 6.625c.483 0 .875.392.875.875v.625h.625a.875.875 0 0 1 0 1.75h-2a.625.625 0 1 0 0 1.25h.5a2.375 2.375 0 0 1 .375 4.72v.155a.875.875 0 1 1-1.75 0v-.125h-.625a.875.875 0 1 1 0-1.75h2a.625.625 0 1 0 0-1.25h-.5a2.375 2.375 0 0 1-.375-4.72v-.655c0-.483.392-.875.875-.875Z" fill="currentColor"/></svg>
