<svg xmlns="http://www.w3.org/2000/svg" viewBox="0 0 16 16"><path fill-rule="evenodd" d="M1 8c0-3.866 3.134-7 7-7 2.985 0 5.534 1.869 6.54 4.5h-3.79c-1.105 0-2 .895-2 2 0 .084.005.168.015.25h-.23c-.083 0-.162.042-.208.111l-.374.562c-.345.517-.925.827-1.545.827-.876 0-1.63-.61-1.815-1.464-.52.604-1.381.776-2.089.432.066 1.679.884 3.165 2.126 4.13.021-.013.043-.023.065-.033l1.956-.87c.076-.033.142-.086.192-.153.46-.612 1.164-.99 1.923-1.037.069.539.351 1.01.76 1.327-.022.055-.042.111-.06.168h-.537c-.35 0-.677.164-.886.442-.203.272-.473.486-.783.624l-.946.42c.531.172 1.098.264 1.686.264.536 0 1.055-.077 1.545-.22.163.364.44.694.843.942l.357.22c-.843.359-1.77.558-2.745.558-3.866 0-7-3.134-7-7Zm7-5.5c-2.539 0-4.676 1.72-5.31 4.06l.439.291c.11.074.259.048.339-.058l.262-.35c.648-.864 2.013-.554 2.224.505l.104.515c.033.167.18.287.35.287.119 0 .23-.06.297-.159l.374-.562c.325-.487.871-.779 1.456-.779h.184c.115 0 .215-.078.243-.19l.121-.484c.195-.78.895-1.326 1.698-1.326h.219c.138 0 .25-.112.25-.25v-.438c-.91-.668-2.034-1.062-3.25-1.062Z"/><path d="M14.889 14.643c.217-.353.107-.815-.246-1.032l-1.713-1.054c.585-.407.988-1.059 1.059-1.807h1.261c.414 0 .75-.336.75-.75s-.336-.75-.75-.75h-1.25v-1h1.25c.414 0 .75-.336.75-.75s-.336-.75-.75-.75h-4.5c-.414 0-.75.336-.75.75s.336.75.75.75h1.75v1h-1.75c-.414 0-.75.336-.75.75s.336.75.75.75h1.721c-.107.43-.496.75-.96.75-.901 0-1.237 1.184-.468 1.657l2.814 1.732c.353.217.815.107 1.032-.246Z"/></svg>