<svg width="20" height="20" viewBox="0 0 20 20" fill="none" xmlns="http://www.w3.org/2000/svg">
<path d="M10.1247 4.7674L10.2197 4.94925C10.3096 5.12112 10.2919 5.32943 10.1744 5.48373L9.32183 6.60342L10.8385 7.95722C10.9447 8.05198 11.0055 8.18749 11.0056 8.3298C11.0057 8.47211 10.9452 8.60773 10.8392 8.70268L8.58361 10.723C8.49191 10.8051 8.37312 10.8506 8.25001 10.8506L6.21325 10.8506L6.21325 12.4191C6.21325 12.6168 6.09677 12.7959 5.91607 12.8761L5.32142 13.14C5.75998 13.7042 6.32226 14.1869 6.99454 14.5434C7.43039 14.7746 7.8842 14.9376 8.34381 15.0364L9.58347 13.722L9.57284 12.3451C9.57182 12.2123 9.62371 12.0845 9.71707 11.99C9.81043 11.8954 9.93757 11.8419 10.0704 11.8413L11.5134 11.8344C11.7254 12.3482 12.0563 12.8005 12.4718 13.1571C11.7538 13.4606 11.25 14.1715 11.25 15C11.25 15.4774 11.4172 15.9157 11.6963 16.2595C9.98221 16.8715 8.02653 16.7885 6.29182 15.8686C3.01594 14.1315 1.76854 10.0677 3.50567 6.7918C5.24279 3.51593 9.30663 2.26853 12.5825 4.00565C13.3689 4.42265 14.0384 4.97373 14.5777 5.6158C14.0873 5.79079 13.6852 6.15184 13.4565 6.61396C13.033 6.10135 12.5038 5.66175 11.8798 5.33086C11.316 5.03192 10.7222 4.84679 10.1247 4.7674Z" fill="#4A4A4A"/>
<path d="M15.25 6.62501C15.7332 6.62501 16.125 7.01676 16.125 7.50001V8.12501H16.75C17.2332 8.12501 17.625 8.51676 17.625 9.00001C17.625 9.48326 17.2332 9.87501 16.75 9.87501H14.75C14.4048 9.87501 14.125 10.1548 14.125 10.5C14.125 10.8452 14.4048 11.125 14.75 11.125H15.25C16.5617 11.125 17.625 12.1883 17.625 13.5C17.625 14.6841 16.7585 15.6658 15.625 15.8456V16C15.625 16.4833 15.2332 16.875 14.75 16.875C14.2668 16.875 13.875 16.4833 13.875 16V15.875H13.25C12.7668 15.875 12.375 15.4833 12.375 15C12.375 14.5168 12.7668 14.125 13.25 14.125H15.25C15.5952 14.125 15.875 13.8452 15.875 13.5C15.875 13.1548 15.5952 12.875 15.25 12.875H14.75C13.4383 12.875 12.375 11.8117 12.375 10.5C12.375 9.31593 13.2415 8.33424 14.375 8.15445V7.50001C14.375 7.01676 14.7668 6.62501 15.25 6.62501Z" fill="#4A4A4A"/>
</svg>
