<svg xmlns="http://www.w3.org/2000/svg" viewBox="0 0 20 20"><path d="M10 3a7 7 0 1 0 2.178 13.654 1.753 1.753 0 0 1-1.132-1.253 5.522 5.522 0 0 1-3.232-.352l1.294-.576c.251-.111.47-.286.635-.506.28-.373.719-.592 1.185-.592h.187a1.75 1.75 0 0 1 1.3-2.343l-.817-.715a1.749 1.749 0 0 1-.57-1.634.748.748 0 0 1-.309.067h-.184a1.25 1.25 0 0 0-1.04.557l-.374.561a.857.857 0 0 1-1.554-.307l-.103-.515a.75.75 0 0 0-1.334-.303l-.262.35a.75.75 0 0 1-1.016.174l-.276-.183a5.502 5.502 0 0 1 9.174-3.107v.023a.75.75 0 0 1-.75.75h-.22c-.277 0-.538.092-.75.25h-.03l-.008.03a1.248 1.248 0 0 0-.424.667l-.004.016a1.75 1.75 0 0 1 2.19-.146l.006.004c.05.035.097.072.142.112l.848.742.848-.742a1.758 1.758 0 0 1 .852-.407 7.026 7.026 0 0 0-2.7-3.188 6.967 6.967 0 0 0-3.75-1.088Z"/><path d="M12.186 8.506a.75.75 0 0 1 1.058-.07l1.506 1.317 1.506-1.317a.75.75 0 0 1 .988 1.128l-1.744 1.526v.91h1.25a.75.75 0 0 1 0 1.5h-1.25v.75h1.25a.75.75 0 0 1 0 1.5h-1.25v.5a.75.75 0 0 1-1.5 0v-.5h-1.25a.75.75 0 0 1 0-1.5h1.25v-.75h-1.25a.75.75 0 0 1 0-1.5h1.25v-.91l-1.744-1.526a.75.75 0 0 1-.07-1.058Z"/></svg>