<svg xmlns="http://www.w3.org/2000/svg" viewBox="0 0 20 20"><path d="M2.593 6.972c-.382.934-.593 1.957-.593 3.028 0 4.418 3.582 8 8 8 1.025 0 2.004-.193 2.905-.544-.254-.335-.405-.753-.405-1.206 0-.086.005-.171.016-.255-.774.325-1.624.505-2.516.505h-.052v-2.136c0-1.185-.96-2.146-2.146-2.146-.358 0-.647-.29-.647-.647v-.579c0-.722-.287-1.415-.798-1.926l-2.104-2.105c1.09-2.059 3.255-3.461 5.747-3.461.79 0 1.549.141 2.25.4v.043c0 .195-.158.352-.352.352-1.023 0-1.852.83-1.852 1.853v.04c0 .122-.057.237-.153.311l-.462.357c-.431.333-.681.848-.681 1.388 0 .961.778 1.756 1.75 1.756h2.468c.356-.615.893-1.111 1.539-1.416.084-1.027.944-1.834 1.993-1.834.326 0 .633.078.904.216-.055-.136-.114-.27-.177-.402-.027-.104-.076-.201-.143-.285-1.34-2.544-4.009-4.279-7.084-4.279-3.221 0-5.998 1.904-7.266 4.648-.072.094-.12.205-.141.324Z"/><path d="M16.5 8c.414 0 .75.336.75.75v.75h.75c.414 0 .75.336.75.75s-.336.75-.75.75h-2c-.414 0-.75.336-.75.75s.336.75.75.75h.5c1.243 0 2.25 1.007 2.25 2.25 0 1.158-.875 2.112-2 2.236v.264c0 .414-.336.75-.75.75s-.75-.336-.75-.75v-.25h-.75c-.414 0-.75-.336-.75-.75s.336-.75.75-.75h2c.414 0 .75-.336.75-.75s-.336-.75-.75-.75h-.5c-1.243 0-2.25-1.007-2.25-2.25 0-1.158.875-2.112 2-2.236v-.764c0-.414.336-.75.75-.75Z"/></svg>