<svg xmlns="http://www.w3.org/2000/svg" viewBox="0 0 16 16"><path d="M8 1c-3.866 0-7 3.134-7 7s3.134 7 7 7c.76 0 1.493-.121 2.178-.345-.562-.195-.995-.668-1.132-1.254-.339.065-.688.099-1.046.099-.777 0-1.516-.161-2.186-.451l1.294-.576c.251-.111.47-.286.635-.506.28-.373.719-.592 1.185-.592h.187c-.074-.194-.115-.405-.115-.625 0-.852.609-1.562 1.415-1.718l-.817-.715c-.482-.421-.677-1.047-.57-1.634-.094.043-.2.067-.309.067h-.184c-.418 0-.808.209-1.04.557l-.374.561c-.16.239-.427.382-.713.382-.409 0-.76-.288-.84-.689l-.104-.515c-.127-.635-.945-.82-1.334-.303l-.262.35c-.24.319-.685.395-1.016.174l-.276-.183c.436-2.602 2.699-4.584 5.424-4.584 1.45 0 2.768.56 3.75 1.477v.023c0 .414-.336.75-.75.75h-.22c-.277 0-.538.092-.75.25h-.03l-.007.03c-.205.166-.357.397-.425.667l-.004.016c.603-.557 1.519-.618 2.19-.146l.006.004c.05.035.097.072.142.112l.848.742.848-.742c.094-.082.194-.153.299-.211.175-.098.362-.163.553-.196-.557-1.317-1.506-2.429-2.7-3.188-1.084-.689-2.37-1.088-3.75-1.088Z"/><path d="M10.186 6.506c.272-.312.746-.343 1.058-.07l1.506 1.317 1.506-1.317c.312-.273.786-.242 1.058.07.273.312.242.786-.07 1.058l-1.744 1.526v.91h1.25c.414 0 .75.336.75.75s-.336.75-.75.75h-1.25v.75h1.25c.414 0 .75.336.75.75s-.336.75-.75.75h-1.25v.5c0 .414-.336.75-.75.75s-.75-.336-.75-.75v-.5h-1.25c-.414 0-.75-.336-.75-.75s.336-.75.75-.75h1.25v-.75h-1.25c-.414 0-.75-.336-.75-.75s.336-.75.75-.75h1.25v-.91l-1.744-1.526c-.312-.272-.343-.746-.07-1.058Z"/></svg>