<svg xmlns="http://www.w3.org/2000/svg" viewBox="0 0 16 16"><path fill-rule="evenodd" d="M1 8c0-3.866 3.134-7 7-7 2.28 0 4.306 1.09 5.584 2.778-.109-.019-.22-.028-.334-.028-.482 0-.924.17-1.27.455-.327-.344-.699-.645-1.105-.895-.338.447-.874.735-1.477.735-.195 0-.353.158-.353.353v.04c0 .587-.272 1.14-.736 1.499l-.462.356c-.06.046-.097.121-.097.201 0 .144.118.256.25.256h1.877c-.305.438-.513.948-.592 1.5h-1.285c-.972 0-1.75-.795-1.75-1.756 0-.54.25-1.055.68-1.388l.463-.356c.096-.075.152-.19.152-.312v-.04c0-.885.62-1.624 1.449-1.808-.323-.06-.655-.09-.994-.09-2.016 0-3.78 1.085-4.737 2.703l2 1.999c.472.472.737 1.112.737 1.78v.518c0 .276.224.5.5.5 1.105 0 2 .895 2 2v1.478c.256-.024.508-.064.753-.121.029.546.277 1.035.658 1.379-.607.172-1.248.264-1.911.264-3.866 0-7-3.134-7-7Zm1.5 0c0-.443.052-.875.152-1.288l1.55 1.55c.19.191.298.45.298.72v.518c0 1.105.895 2 2 2 .276 0 .5.224.5.5v1.41c-2.56-.47-4.5-2.714-4.5-5.41Z"/><path d="M13.25 5c.414 0 .75.336.75.75v.75h.75c.414 0 .75.336.75.75s-.336.75-.75.75h-2c-.414 0-.75.336-.75.75s.336.75.75.75h.5c1.243 0 2.25 1.007 2.25 2.25 0 1.158-.875 2.112-2 2.236v.264c0 .414-.336.75-.75.75s-.75-.336-.75-.75v-.25h-.75c-.414 0-.75-.336-.75-.75s.336-.75.75-.75h2c.414 0 .75-.336.75-.75s-.336-.75-.75-.75h-.5c-1.243 0-2.25-1.007-2.25-2.25 0-1.158.875-2.112 2-2.236v-.764c0-.414.336-.75.75-.75Z"/></svg>