<svg viewBox="0 0 20 20" xmlns="http://www.w3.org/2000/svg">
<path d="M17.55 7.55a7.95 7.95 0 0 0-5.1-5.1L10 0 7.55 2.45a7.957 7.957 0 0 0-5.1 5.1L0 10l2.45 2.45a7.956 7.956 0 0 0 5.1 5.1L10 20l2.45-2.45a7.96 7.96 0 0 0 5.1-5.118L20 9.982l-2.45-2.431Zm-1.584 4.063-.032.123-.038.132a6.214 6.214 0 0 1-4.01 4.01l-.133.039h-.039a9.658 9.658 0 0 0 1.89-5.06h2.516c0 .06-.018.12-.028.179a5.49 5.49 0 0 1-.123.577h-.003Zm-11.844.255-.039-.133c0-.045-.02-.09-.035-.136a5.986 5.986 0 0 1-.122-.553c0-.06 0-.119-.028-.178h2.52a9.685 9.685 0 0 0 1.885 5.06h-.038l-.133-.04a6.214 6.214 0 0 1-4.007-4.023l-.003.003ZM4.048 8.37c0-.045.025-.09.035-.136l.039-.133a6.214 6.214 0 0 1 4.01-4.01l.133-.038h.038a9.685 9.685 0 0 0-1.886 5.063H3.905c0-.063 0-.123.028-.182.028-.182.07-.368.119-.55l-.004-.014ZM15.896 8.1l.038.133c0 .046.025.091.035.136.05.182.091.368.123.553 0 .06.02.12.028.182h-2.516a9.657 9.657 0 0 0-1.89-5.063h.039l.133.039a6.214 6.214 0 0 1 4.013 4.034l-.003-.014Zm-5.886 7.124a7.918 7.918 0 0 1-1.836-4.37h3.673a7.967 7.967 0 0 1-1.833 4.384l-.003-.014Zm-1.836-6.12a7.918 7.918 0 0 1 1.837-4.373 7.967 7.967 0 0 1 1.836 4.373H8.174Z" fill="currentColor"/>
</svg>