<svg xmlns="http://www.w3.org/2000/svg" viewBox="0 0 20 20"><path fill-rule="evenodd" d="M8.653 5.493c.44-1.161.95-1.493 1.347-1.493.289 0 .616.159.958.695.346.542.632 1.37.816 2.433a.75.75 0 0 0 1.478-.256c-.146-.84-.36-1.621-.656-2.283a6.025 6.025 0 0 1 2.78 2.745.75.75 0 0 0 1.344-.668 7.5 7.5 0 1 0-6.72 10.834.75.75 0 0 0 0-1.5c-.396 0-.907-.332-1.347-1.493a8.862 8.862 0 0 1-.412-1.548c.566.027 1.155.041 1.759.041a.75.75 0 1 0 0-1.5c-.678 0-1.331-.018-1.947-.053a19.855 19.855 0 0 1-.025-2.499c.634.035 1.296.052 1.972.052a.75.75 0 0 0 0-1.5 35.3 35.3 0 0 1-1.827-.046c.111-.751.273-1.415.48-1.961Zm-1.402-.532c-.26.687-.452 1.493-.576 2.373-.724-.08-1.36-.188-1.88-.32a6.026 6.026 0 0 1 2.61-2.425 6.784 6.784 0 0 0-.154.372Zm-.72 3.866c-.875-.096-1.663-.234-2.318-.416a6.006 6.006 0 0 0-.163 2.367c.493.199 1.229.374 2.176.501l.314.04a21.132 21.132 0 0 1-.008-2.492Zm-1.989 3.67a6.024 6.024 0 0 0 2.862 2.914 6.807 6.807 0 0 1-.153-.372c-.243-.64-.425-1.383-.55-2.194-.231-.023-.457-.05-.675-.08a14.828 14.828 0 0 1-1.484-.269Z"/><path d="M15.25 16h-2a.75.75 0 0 0 0 1.5h.75v.25a.75.75 0 0 0 1.5 0v-.264a2.25 2.25 0 0 0-.25-4.486h-.5a.75.75 0 0 1 0-1.5h2a.75.75 0 0 0 0-1.5h-.75v-.75a.75.75 0 0 0-1.5 0v.764a2.25 2.25 0 0 0 .25 4.486h.5a.75.75 0 0 1 0 1.5Z"/></svg>