<svg xmlns="http://www.w3.org/2000/svg" viewBox="0 0 20 20"><path fill-rule="evenodd" d="M3.5 10v-.026l.032.02c.768.503 1.794.326 2.35-.405l.059-.077.04.22c.147.808.86 1.389 1.68 1.37.64-.014 1.215-.394 1.481-.976l.287-.63c.048-.106.163-.165.276-.142l.299.059c1.133.225 2.17-.69 2.087-1.842l-.01-.132c-.01-.134.088-.252.222-.266l.82-.09c.838-.093 1.486-.767 1.553-1.598.192.199.372.41.537.632l-1.62 2.108c-.068.087-.126.18-.174.275h1.854l.743-.966c.127.31.232.634.31.966h1.424c.037 0 .074.001.11.003-.7-3.703-3.953-6.503-7.86-6.503-4.418 0-8 3.582-8 8s3.582 8 8 8c1.108 0 2.164-.225 3.124-.633l-.236-.146c-.438-.269-.727-.635-.883-1.036-.631.204-1.305.315-2.005.315-.85 0-1.66-.163-2.404-.46l1.472-.735c.28-.14.524-.344.712-.594.217-.29.558-.461.92-.461h.67c.115 0 .228.009.34.026-.287-.346-.46-.791-.46-1.276 0-.085.005-.168.015-.25h-.564c-.835 0-1.62.393-2.121 1.06-.049.065-.111.117-.183.153l-2.232 1.116c-.045.022-.086.048-.123.077-1.546-1.188-2.542-3.056-2.542-5.156Zm.853-1.261-.635-.415c.74-2.777 3.272-4.824 6.282-4.824 1.165 0 2.258.306 3.203.843l-.022 1.005c-.002.126-.098.23-.222.244l-.82.09c-.935.102-1.621.926-1.554 1.864l.01.133c.011.164-.137.295-.299.263l-.298-.06c-.796-.158-1.597.252-1.934.991l-.287.63c-.027.06-.085.098-.15.1-.083.001-.156-.057-.17-.14l-.142-.777c-.195-1.07-1.567-1.398-2.225-.533l-.402.528c-.08.104-.226.13-.335.058Z"/><path d="M12.548 13.265c-.031-.083-.048-.172-.048-.265 0-.025.001-.05.004-.075.037-.379.357-.675.746-.675h1.75v-1h-1.75c-.414 0-.75-.336-.75-.75s.336-.75.75-.75h4.5c.087 0 .17.015.247.042.293.102.503.38.503.708 0 .36-.255.662-.595.734-.05.01-.102.016-.155.016h-1.25v1h1.25c.414 0 .75.336.75.75s-.336.75-.75.75h-1.261c-.029.3-.11.586-.237.845-.187.387-.472.718-.822.962l1.713 1.054c.353.217.463.68.246 1.032-.217.353-.68.463-1.032.246l-2.814-1.732c-.198-.122-.323-.291-.384-.475-.06-.18-.057-.376-.001-.554l.005-.015c.01-.033.023-.066.037-.097l.008-.016c.013-.027.027-.053.042-.078.148-.245.412-.422.762-.422.173 0 .336-.045.477-.123.238-.131.415-.357.482-.627h-1.721c-.165 0-.319-.054-.443-.144-.116-.086-.207-.204-.259-.341Z"/></svg>