<svg xmlns="http://www.w3.org/2000/svg" viewBox="0 0 16 16"><path d="M8 1c-3.866 0-7 3.134-7 7s3.134 7 7 7c.901 0 1.763-.17 2.554-.48-.367-.362-.672-.789-.911-1.27-.52.163-1.07.25-1.643.25-.913 0-1.773-.222-2.53-.616l.488-.488c.63-.631 1.614-.743 2.372-.27.295.184.633.282.977.285l-.007-.022c-.9-.294-1.55-1.14-1.55-2.139 0-.998.65-1.845 1.55-2.139.093-.303.207-.59.342-.86l-.017-.001h-.507c-.78 0-1.493.44-1.842 1.138l-.122.246c-.19.377-.575.616-.998.616-.545 0-1.01-.394-1.1-.932l-.058-.353c-.125-.746.312-1.472 1.03-1.71l.75-.25c.58-.194.972-.738.972-1.35 0-.363.213-.692.543-.84l1.904-.859c.943.412 1.748 1.08 2.328 1.916.566-.14 1.147-.158 1.707-.064-1.16-2.26-3.516-3.808-6.232-3.808Z"/><path d="M11.843 9.25c.185-.904.615-1.372 1.009-1.58.549-.292 1.212-.195 1.651.194.31.274.784.245 1.059-.065.274-.31.245-.784-.065-1.059-.894-.79-2.231-.988-3.349-.395-.94.499-1.614 1.488-1.827 2.905h-.321c-.552 0-1 .448-1 1s.448 1 1 1h.321c.213 1.417.886 2.406 1.828 2.905 1.117.593 2.454.395 3.348-.395.31-.274.34-.748.065-1.059-.275-.31-.749-.34-1.059-.065-.44.389-1.102.486-1.652.194-.393-.208-.823-.676-1.008-1.58h2.157c.552 0 1-.448 1-1s-.448-1-1-1h-2.157Z"/></svg>