<svg xmlns="http://www.w3.org/2000/svg" viewBox="0 0 20 20"><path fill-rule="evenodd" d="M3 10a7 7 0 0 1 13.45-2.724 1.742 1.742 0 0 0-.852.407l-.848.742-.794-.695c-.02-.029.02.028 0 0l-.191-.156a1.75 1.75 0 0 0-2.62 2.124 1.75 1.75 0 0 1-.426.052h-.184a.25.25 0 0 0-.208.111l-.374.562a1.857 1.857 0 0 1-3.36-.637 1.75 1.75 0 0 1-2.089.432 5.491 5.491 0 0 0 2.126 4.13.776.776 0 0 1 .065-.033l1.956-.87a.487.487 0 0 0 .192-.153 2.606 2.606 0 0 1 2.085-1.042h.144a1.749 1.749 0 0 0 .242 1.5h-.386c-.348 0-.676.164-.885.442a1.987 1.987 0 0 1-.783.624l-.946.42a5.497 5.497 0 0 0 2.732.165 1.75 1.75 0 0 0 1.132 1.253 7 7 0 0 1-9.178-6.654Zm7-5.5a5.502 5.502 0 0 0-5.31 4.06l.439.291a.25.25 0 0 0 .339-.058l.262-.35c.648-.864 2.013-.554 2.224.505l.103.515a.357.357 0 0 0 .648.128l.374-.562a1.75 1.75 0 0 1 1.456-.779h.184a.25.25 0 0 0 .243-.19l.121-.484a1.75 1.75 0 0 1 1.698-1.326h.219a.25.25 0 0 0 .25-.25v-.438a5.475 5.475 0 0 0-3.25-1.062Z"/><path d="M12.186 8.506a.75.75 0 0 1 1.058-.07l1.506 1.317 1.506-1.317a.75.75 0 0 1 .988 1.128l-1.744 1.526v.91h1.25a.75.75 0 0 1 0 1.5h-1.25v.75h1.25a.75.75 0 0 1 0 1.5h-1.25v.5a.75.75 0 0 1-1.5 0v-.5h-1.25a.75.75 0 0 1 0-1.5h1.25v-.75h-1.25a.75.75 0 0 1 0-1.5h1.25v-.91l-1.744-1.526a.75.75 0 0 1-.07-1.058Z"/></svg>