<svg viewBox="0 0 20 20" xmlns="http://www.w3.org/2000/svg"><path d="M3.5 10a6.5 6.5 0 0 1 13 0 .75.75 0 0 0 1.5 0 8 8 0 1 0-8 8 .75.75 0 0 0 0-1.5 6.5 6.5 0 0 1-6.5-6.5Z" fill="#5C5F62"/><path d="M12.476 9.652a.75.75 0 0 0 1.485-.209 3.999 3.999 0 1 0-4.656 4.496.75.75 0 0 0 .26-1.477 2.5 2.5 0 1 1 2.91-2.81Z" fill="#5C5F62"/><path d="M11.61 10.973a.5.5 0 0 0-.637.637l2.121 6.01a.5.5 0 0 0 .871.135l1.172-1.558 1.038 1.038a.5.5 0 0 0 .707 0l.353-.354a.5.5 0 0 0 0-.707l-1.037-1.037 1.558-1.172a.5.5 0 0 0-.135-.871l-6.01-2.121Z" fill="#5C5F62"/></svg>