<svg xmlns="http://www.w3.org/2000/svg" viewBox="0 0 20 20"><path fill-rule="evenodd" d="M8.887 5.582c.433-1.141.884-1.332 1.113-1.332.172 0 .432.084.747.58.321.502.6 1.295.781 2.341a1 1 0 1 0 1.97-.342 11.25 11.25 0 0 0-.417-1.685 5.776 5.776 0 0 1 2.072 2.301 1 1 0 0 0 1.79-.89 7.75 7.75 0 1 0-6.944 11.195 1 1 0 1 0 .001-2c-.23 0-.68-.19-1.113-1.332a8.077 8.077 0 0 1-.34-1.195c.472.018.958.027 1.453.027a1 1 0 1 0 0-2 35.04 35.04 0 0 1-1.713-.04 19.384 19.384 0 0 1-.022-2c.564.027 1.145.04 1.735.04a1 1 0 1 0 0-2 35.86 35.86 0 0 1-1.536-.032 8.839 8.839 0 0 1 .423-1.636Zm-1.968-.438a11.591 11.591 0 0 0-.455 1.914 14.585 14.585 0 0 1-1.275-.209 5.78 5.78 0 0 1 1.73-1.705Zm-.649 3.905a15.535 15.535 0 0 1-1.876-.332 5.768 5.768 0 0 0-.113 1.881c.46.167 1.125.319 1.978.433l.015.002a21.735 21.735 0 0 1-.004-1.984Zm-1.263 3.804a5.779 5.779 0 0 0 1.912 2.003 11.45 11.45 0 0 1-.434-1.782 16.878 16.878 0 0 1-1.478-.22Z"/><path d="M15.25 16h-2a.75.75 0 0 0 0 1.5h.75v.25a.75.75 0 0 0 1.5 0v-.264a2.25 2.25 0 0 0-.25-4.486h-.5a.75.75 0 0 1 0-1.5h2a.75.75 0 0 0 0-1.5h-.75v-.75a.75.75 0 0 0-1.5 0v.764a2.25 2.25 0 0 0 .25 4.486h.5a.75.75 0 0 1 0 1.5Z"/></svg>