<svg xmlns="http://www.w3.org/2000/svg" viewBox="0 0 20 20"><path d="M2 10c0-4.418 3.582-8 8-8 3.728 0 6.86 2.55 7.748 6-.467 0-.936.163-1.315.495l-.683.597-.683-.597c-.284-.249-.619-.403-.965-.464l1.184-1.578c.028-.039.06-.074.092-.105-.209-.307-.443-.595-.7-.861v.056c-.018.785-.614 1.436-1.395 1.522l-.98.108c-.134.014-.232.132-.222.266l.01.132c.082 1.152-.954 2.067-2.087 1.842l-.299-.06c-.113-.022-.228.037-.276.142l-.287.63c-.266.583-.841.963-1.481.977-.82.019-1.533-.562-1.68-1.37l-.04-.22-.059.077c-.556.73-1.582.908-2.35.405l-.032-.02v.026c0 2.073.97 3.92 2.482 5.11.07-.072.157-.133.26-.18l2.158-.981c.076-.034.141-.087.19-.153.494-.659 1.27-1.046 2.092-1.046h.688c.209 0 .416.017.619.051-.153.283-.239.606-.239.949 0 .417.128.805.346 1.125-.218.32-.346.708-.346 1.125 0 .648.308 1.224.786 1.59-.797.266-1.65.41-2.536.41-4.418 0-8-3.582-8-8Z"/><path d="M13.186 9.506c.272-.312.746-.343 1.058-.07l1.506 1.317 1.506-1.317c.312-.273.786-.242 1.058.07.273.312.242.786-.07 1.058l-1.744 1.526v.91h1.25c.414 0 .75.336.75.75s-.336.75-.75.75h-1.25v.75h1.25c.414 0 .75.336.75.75s-.336.75-.75.75h-1.25v.5c0 .414-.336.75-.75.75s-.75-.336-.75-.75v-.5h-1.25c-.414 0-.75-.336-.75-.75s.336-.75.75-.75h1.25v-.75h-1.25c-.414 0-.75-.336-.75-.75s.336-.75.75-.75h1.25v-.91l-1.744-1.526c-.312-.272-.343-.746-.07-1.058Z"/></svg>