<svg width="20" height="20" viewBox="0 0 20 20" fill="none" xmlns="http://www.w3.org/2000/svg">
<path fill-rule="evenodd" clip-rule="evenodd" d="M11.8798 5.33086C11.4132 5.08343 10.926 4.91398 10.4332 4.8179L10.4413 4.83346C10.576 5.09128 10.5495 5.40374 10.3733 5.63518L9.66082 6.5709L11.005 7.77071C11.1643 7.91286 11.2554 8.11613 11.2556 8.32959C11.2558 8.54305 11.165 8.74648 11.006 8.8889L8.75041 10.9092C8.61285 11.0324 8.43468 11.1006 8.25001 11.1006L6.46325 11.1006L6.46325 12.4191C6.46325 12.7156 6.28853 12.9843 6.01748 13.1046L5.48561 13.3407C5.89732 13.8189 6.40341 14.23 6.99456 14.5434C7.34185 14.7276 7.70055 14.8686 8.0645 14.9682L9.33271 13.6235L9.32285 12.3471C9.32132 12.1478 9.39916 11.9561 9.5392 11.8143C9.67923 11.6725 9.86995 11.5923 10.0692 11.5913L11.4214 11.5848C11.6102 12.1644 11.9461 12.6776 12.3851 13.0802L10.8286 13.0877L10.835 13.9131C10.8365 14.1064 10.7633 14.2928 10.6306 14.4335L9.9802 15.1232C10.4175 15.077 10.8469 14.9758 11.2578 14.8229C11.2526 14.8812 11.25 14.9403 11.25 15C11.25 15.4774 11.4173 15.9157 11.6964 16.2595C9.98222 16.8715 8.02655 16.7885 6.29183 15.8686C3.01596 14.1315 1.76856 10.0677 3.50568 6.7918C5.24281 3.51593 9.30665 2.26853 12.5825 4.00565C13.3689 4.42265 14.0384 4.97373 14.5778 5.6158C14.0873 5.79079 13.6852 6.15184 13.4565 6.61396C13.033 6.10135 12.5038 5.66175 11.8798 5.33086ZM4.83089 7.49453C5.64524 5.95883 7.11803 4.99717 8.71717 4.77287L8.89112 5.10572L8.04715 6.21412C7.80993 6.52566 7.8523 6.96725 8.14443 7.228L9.38039 8.33121L7.96323 9.60057H5.71325C5.29903 9.60057 4.96325 9.93636 4.96325 10.3506L4.96325 11.9314L4.67459 12.0595C4.04572 10.6457 4.04978 8.96755 4.83089 7.49453Z" fill="#4A4A4A"/>
<path d="M15.25 6.75001C15.6642 6.75001 16 7.08579 16 7.50001V8.25001H16.75C17.1642 8.25001 17.5 8.58579 17.5 9.00001C17.5 9.41422 17.1642 9.75001 16.75 9.75001H14.75C14.3358 9.75001 14 10.0858 14 10.5C14 10.9142 14.3358 11.25 14.75 11.25H15.25C16.4927 11.25 17.5 12.2574 17.5 13.5C17.5 14.6581 16.625 15.6119 15.5 15.7363V16C15.5 16.4142 15.1642 16.75 14.75 16.75C14.3358 16.75 14 16.4142 14 16V15.75H13.25C12.8358 15.75 12.5 15.4142 12.5 15C12.5 14.5858 12.8358 14.25 13.25 14.25H15.25C15.6642 14.25 16 13.9142 16 13.5C16 13.0858 15.6642 12.75 15.25 12.75H14.75C13.5074 12.75 12.5 11.7426 12.5 10.5C12.5 9.34183 13.3751 8.38803 14.5001 8.26373L14.5 8.25001V7.50001C14.5 7.08579 14.8358 6.75001 15.25 6.75001Z" fill="#4A4A4A"/>
</svg>
