<svg xmlns="http://www.w3.org/2000/svg" viewBox="0 0 20 20"><path d="M10 3.5c-3.59 0-6.5 2.91-6.5 6.5 0 1.911.825 3.63 2.138 4.819l.69-.615c1.091-.969 2.675-1.144 3.95-.435.182.1.384.155.59.159.222.617.74 1.094 1.383 1.26l.023.077-1.009.138c-.591.08-1.193-.033-1.715-.323-.718-.399-1.61-.3-2.225.245l-.433.385c.924.504 1.982.79 3.108.79.902 0 1.761-.184 2.542-.516.22.48.503.905.847 1.265-1.03.482-2.178.751-3.389.751-4.418 0-8-3.582-8-8s3.582-8 8-8c3.838 0 7.045 2.703 7.821 6.31-1.058-.443-2.301-.427-3.391.151-.13.07-.256.145-.377.227.003-.792.515-1.494 1.272-1.736l.356-.114c-.694-1.243-1.784-2.236-3.1-2.805l-2.27.997c-.186.081-.305.267-.302.47.014.884-.552 1.673-1.394 1.943l-.733.234c-.59.189-.948.786-.837 1.395l.07.385c.064.355.371.616.732.622.295.004.565-.162.694-.427l.043-.087c.494-1.016 1.531-1.654 2.66-1.635l.189.003c.88.014 1.63.565 1.935 1.34-.469.498-.824 1.12-1.055 1.836-.18-.235-.29-.528-.295-.847l-.004-.223c-.005-.333-.273-.601-.605-.607l-.189-.003c-.546-.008-1.048.3-1.287.792l-.043.088c-.384.788-1.19 1.284-2.067 1.27-1.077-.018-1.992-.794-2.184-1.854l-.07-.384c-.246-1.351.549-2.674 1.856-3.093l.733-.234c.212-.068.355-.267.351-.49-.013-.807.46-1.543 1.199-1.868l.355-.156h-.063Z"/><path d="M17.55 12.65c-.182-.243-.473-.4-.8-.4h-2.157c.185-.904.615-1.372 1.009-1.58.549-.292 1.212-.195 1.651.194.31.274.784.245 1.059-.065.274-.31.245-.784-.065-1.059-.083-.073-.17-.142-.26-.205-.46-.32-1.003-.505-1.563-.532-.287-.013-.579.014-.865.087-.225.057-.447.141-.66.255-.686.363-1.23.987-1.557 1.848-.055.144-.104.296-.146.454-.051.191-.093.392-.125.603h-.321c-.552 0-1 .448-1 1s.448 1 1 1h.321c.047.314.117.607.207.878.318.953.888 1.639 1.62 2.027 1.118.593 2.455.395 3.349-.395.31-.275.34-.748.065-1.059-.275-.31-.749-.34-1.059-.065-.44.389-1.102.486-1.652.194-.025-.013-.05-.028-.077-.044-.185-.113-.375-.286-.54-.536-.123-.187-.232-.416-.316-.696-.02-.072-.04-.147-.058-.226l-.017-.078h2.157c.552 0 1-.448 1-1 0-.225-.074-.432-.2-.6Z"/></svg>