<svg xmlns="http://www.w3.org/2000/svg" viewBox="0 0 16 16"><path d="M8 1c-3.866 0-7 3.134-7 7s3.134 7 7 7c.998 0 1.947-.209 2.806-.585-.372-.348-.682-.767-.924-1.245-.587.213-1.221.33-1.882.33-.723 0-1.414-.14-2.046-.393l.357-.357c.467-.467 1.194-.55 1.754-.2.5.312 1.098.428 1.678.324-.093-.219-.174-.448-.242-.687-.635-.163-1.149-.63-1.375-1.238-1.002-.29-2.11-.027-2.876.74l-.641.641c-1.284-1.006-2.109-2.572-2.109-4.33 0-3.038 2.462-5.5 5.5-5.5.231 0 .459.014.683.042l-.8.36c-.69.311-1.133.997-1.133 1.753 0 .182-.116.343-.289.4l-.75.25c-1.184.395-1.905 1.593-1.7 2.825l.06.353c.17 1.02 1.052 1.767 2.085 1.767.802 0 1.534-.453 1.892-1.17l.123-.245c.18-.358.546-.585.947-.585h.401c.154-.522.373-.997.651-1.413-.171-.057-.355-.087-.545-.087h-.507c-.97 0-1.855.548-2.289 1.415l-.122.245c-.105.208-.318.34-.55.34-.301 0-.558-.217-.607-.514l-.06-.353c-.083-.503.212-.993.696-1.154l.75-.25c.785-.262 1.314-.997 1.314-1.824 0-.166.097-.317.249-.385l2.27-1.023c.774.452 1.428 1.088 1.902 1.848.566-.127 1.145-.125 1.697-.006-1.105-2.413-3.54-4.089-6.368-4.089Z"/><path d="M11.843 9.25c.185-.904.615-1.372 1.009-1.58.549-.292 1.212-.195 1.651.194.31.274.784.245 1.059-.065.274-.31.245-.784-.065-1.059-.894-.79-2.231-.988-3.349-.395-.94.499-1.614 1.488-1.827 2.905h-.321c-.552 0-1 .448-1 1s.448 1 1 1h.321c.213 1.417.886 2.406 1.828 2.905 1.117.593 2.454.395 3.348-.395.31-.274.34-.748.065-1.059-.275-.31-.749-.34-1.059-.065-.44.389-1.102.486-1.652.194-.393-.208-.823-.676-1.008-1.58h2.157c.552 0 1-.448 1-1s-.448-1-1-1h-2.157Z"/></svg>