<svg viewBox="0 0 20 20" xmlns="http://www.w3.org/2000/svg"><path fill-rule="evenodd" d="M11.88 5.33a5.214 5.214 0 0 0-1.447-.512l.008.015a.75.75 0 0 1-.068.802l-.712.936 1.344 1.2a.75.75 0 0 1 .001 1.118l-2.256 2.02a.75.75 0 0 1-.5.192h-1.787v1.318a.75.75 0 0 1-.446.686l-.531.236a5.226 5.226 0 0 0 2.579 1.627l1.268-1.345-.01-1.276a.75.75 0 0 1 .746-.756l1.352-.006c.19.58.525 1.093.964 1.495l-1.556.008.006.825a.75.75 0 0 1-.204.52l-.65.69a5.244 5.244 0 0 0 1.277-.3 1.994 1.994 0 0 0 .438 1.436 6.714 6.714 0 1 1 2.881-10.644c-.49.176-.892.537-1.12.999a5.198 5.198 0 0 0-1.577-1.283Zm-7.05 2.165a5.207 5.207 0 0 1 3.887-2.722l.174.333-.844 1.108a.75.75 0 0 0 .097 1.014l1.236 1.103-1.417 1.27h-2.25a.75.75 0 0 0-.75.75v1.58l-.288.129a5.205 5.205 0 0 1 .156-4.565Z" fill="#5C5F62"/><path d="M15.25 6.75a.75.75 0 0 1 .75.75v.75h.75a.75.75 0 0 1 0 1.5h-2a.75.75 0 0 0 0 1.5h.5a2.25 2.25 0 0 1 .25 4.486v.264a.75.75 0 0 1-1.5 0v-.25h-.75a.75.75 0 0 1 0-1.5h2a.75.75 0 0 0 0-1.5h-.5a2.25 2.25 0 0 1-.25-4.486v-.764a.75.75 0 0 1 .75-.75Z" fill="#5C5F62"/></svg>