<svg xmlns="http://www.w3.org/2000/svg" viewBox="0 0 16 16"><path d="M1 8c0-3.866 3.134-7 7-7 2.985 0 5.534 1.869 6.54 4.5h-3.79c-.469 0-.9.161-1.24.431l.058-.234c.068-.27.22-.5.425-.667l.007-.03h.03c.212-.158.473-.25.75-.25h.22c.414 0 .75-.336.75-.75v-.023c-.982-.916-2.3-1.477-3.75-1.477-2.725 0-4.988 1.982-5.424 4.584l.276.183c.33.221.777.145 1.016-.174l.262-.35c.389-.518 1.207-.332 1.334.303l.103.515c.08.4.432.689.84.689.287 0 .555-.143.714-.382l.374-.561c.232-.348.622-.557 1.04-.557h.184c.064 0 .126-.008.186-.023-.1.238-.155.499-.155.773 0 .473.164.908.439 1.25-.275.342-.439.777-.439 1.25 0 .533.208 1.017.548 1.375h-.37c-.466 0-.905.22-1.185.592-.165.22-.384.395-.635.506l-1.294.575c.67.291 1.41.452 2.186.452.536 0 1.055-.077 1.545-.22.163.364.44.694.843.942l.357.22c-.843.359-1.77.558-2.745.558-3.866 0-7-3.134-7-7Z"/><path d="M14.889 14.643c.217-.353.107-.815-.246-1.032l-1.713-1.054c.585-.407.988-1.059 1.059-1.807h1.261c.414 0 .75-.336.75-.75s-.336-.75-.75-.75h-1.25v-1h1.25c.414 0 .75-.336.75-.75s-.336-.75-.75-.75h-4.5c-.414 0-.75.336-.75.75s.336.75.75.75h1.75v1h-1.75c-.414 0-.75.336-.75.75s.336.75.75.75h1.721c-.107.43-.496.75-.96.75-.901 0-1.237 1.184-.468 1.657l2.814 1.732c.353.217.815.107 1.032-.246Z"/></svg>