<svg xmlns="http://www.w3.org/2000/svg" viewBox="0 0 20 20"><path fill-rule="evenodd" d="M8 17.25c0 .414-.336.75-.75.75h-4.5c-.414 0-.75-.336-.75-.75v-4.5c0-.414.336-.75.75-.75s.75.336.75.75v2.69l4.22-4.22c.293-.293.767-.293 1.06 0 .293.293.293.767 0 1.06l-4.22 4.22h2.69c.414 0 .75.336.75.75Z"/><path fill-rule="evenodd" d="M12.75 2h4.5c.199 0 .39.079.53.22.141.14.22.331.22.53v4.5c0 .414-.336.75-.75.75s-.75-.336-.75-.75v-2.69l-4.22 4.22c-.293.293-.767.293-1.06 0-.293-.293-.293-.767 0-1.06l4.22-4.22h-2.69c-.414 0-.75-.336-.75-.75s.336-.75.75-.75Z"/></svg>