<svg xmlns="http://www.w3.org/2000/svg" viewBox="0 0 20 21"><path d="M11.75 5.794c.414 0 .75-.336.75-.75s-.336-.75-.75-.75h-1.5c-.414 0-.75.336-.75.75s.336.75.75.75h1.5Z"/><path d="M15.75 7.294c-.414 0-.75-.336-.75-.75s-.336-.75-.75-.75-.75-.336-.75-.75.336-.75.75-.75c1.243 0 2.25 1.008 2.25 2.25 0 .414-.336.75-.75.75Z"/><path d="M15.75 8.294c.414 0 .75.336.75.75v1.5c0 .414-.336.75-.75.75s-.75-.336-.75-.75v-1.5c0-.414.336-.75.75-.75Z"/><path d="M6.25 12.794c-.414 0-.75-.336-.75-.75v-5.19l-.97.97c-.293.293-.767.293-1.06 0-.293-.292-.293-.767 0-1.06l2.25-2.25c.293-.293.767-.293 1.06 0l2.25 2.25c.293.293.293.768 0 1.06-.293.293-.767.293-1.06 0l-.97-.97v5.19c0 .414-.336.75-.75.75Z"/><path d="M8.75 13.794c-.414 0-.75.336-.75.75s.336.75.75.75h5.19l-.97.97c-.293.293-.293.768 0 1.06.293.293.767.293 1.06 0l2.25-2.25c.293-.292.293-.767 0-1.06l-2.25-2.25c-.293-.293-.767-.293-1.06 0-.293.293-.293.768 0 1.06l.97.97h-5.19Z"/></svg>