<svg xmlns="http://www.w3.org/2000/svg" viewBox="0 0 16 16"><path fill-rule="evenodd" d="M11.5 3v3.042c0 .304.046.605.137.895l1.552 4.966c.402 1.288-.56 2.597-1.91 2.597h-6.559c-1.349 0-2.311-1.309-1.909-2.597l1.552-4.966c.091-.29.137-.591.137-.895v-3.042h-.5c-.414 0-.75-.336-.75-.75s.336-.75.75-.75h8c.414 0 .75.336.75.75s-.336.75-.75.75h-.5Zm-5.5 3.042v-3.042h4v2.25h-.75c-.414 0-.75.336-.75.75s.336.75.75.75h.806c.034.214.084.427.149.634l.27.866h-4.95l.27-.866c.136-.434.205-.887.205-1.342Zm-.944 3.708h5.888l.813 2.6c.1.323-.14.65-.477.65h-6.56c-.337 0-.577-.327-.477-.65l.813-2.6Z"/></svg>