<svg xmlns="http://www.w3.org/2000/svg" viewBox="0 0 20 20"><path fill-rule="evenodd" d="M10 15c1.657 0 3-1.343 3-3s-1.343-3-3-3-3 1.343-3 3 1.343 3 3 3Zm0-1.5c.828 0 1.5-.672 1.5-1.5 0-.087-.007-.173-.022-.256l-.998.832c-.318.265-.791.222-1.056-.096s-.222-.791.096-1.056l.998-.832c-.161-.06-.336-.092-.518-.092-.828 0-1.5.672-1.5 1.5s.672 1.5 1.5 1.5Z"/><path fill-rule="evenodd" d="M3.5 2.75c0-.414-.336-.75-.75-.75s-.75.336-.75.75c0 1.243 1.007 2.25 2.25 2.25h5v1.5h-4.5c-1.243 0-2.25 1.007-2.25 2.25v6.5c0 1.243 1.007 2.25 2.25 2.25h10.5c1.243 0 2.25-1.007 2.25-2.25v-6.5c0-1.243-1.007-2.25-2.25-2.25h-4.5v-1.5h5c1.243 0 2.25-1.007 2.25-2.25 0-.414-.336-.75-.75-.75s-.75.336-.75.75-.336.75-.75.75h-11.5c-.414 0-.75-.336-.75-.75Zm.5 6c0-.414.336-.75.75-.75h10.5c.414 0 .75.336.75.75v6.5c0 .414-.336.75-.75.75h-10.5c-.414 0-.75-.336-.75-.75v-6.5Z"/></svg>