<svg xmlns="http://www.w3.org/2000/svg" viewBox="0 0 20 20"><path fill-rule="evenodd" d="M14.083 4.5v3.85c0 .354.063.704.184 1.036l1.994 5.424c.48 1.306-.486 2.69-1.877 2.69h-8.768c-1.39 0-2.357-1.384-1.877-2.69l1.993-5.424c.122-.332.185-.682.185-1.035v-3.851h-.167c-.414 0-.75-.336-.75-.75s.336-.75.75-.75h8.5c.414 0 .75.336.75.75s-.336.75-.75.75h-.167Zm-6.666 3.85v-3.85h5.166v2.5h-1.333c-.414 0-.75.336-.75.75s.336.75.75.75h1.336c.016.479.108.953.274 1.403l.127.347h-5.974l.127-.347c.183-.497.277-1.023.277-1.552Zm-.955 3.4h7.076l1.315 3.578c.12.326-.121.672-.469.672h-8.768c-.348 0-.59-.346-.47-.672l1.316-3.578Z"/></svg>