<svg xmlns="http://www.w3.org/2000/svg" viewBox="0 0 20 20"><path d="M12.25 3.5c.414 0 .75-.336.75-.75s-.336-.75-.75-.75h-2.5c-.414 0-.75.336-.75.75s.336.75.75.75h2.5Z"/><path d="M17.25 6c-.414 0-.75-.336-.75-.75v-.5c0-.69-.56-1.25-1.25-1.25h-.5c-.414 0-.75-.336-.75-.75s.336-.75.75-.75h.5c1.519 0 2.75 1.231 2.75 2.75v.5c0 .414-.336.75-.75.75Z"/><path d="M17.25 7c.414 0 .75.336.75.75v2.5c0 .414-.336.75-.75.75s-.75-.336-.75-.75v-2.5c0-.414.336-.75.75-.75Z"/><path d="M5.25 12.25c-.414 0-.75-.336-.75-.75v-6.94l-1.47 1.47c-.293.293-.767.293-1.06 0-.293-.293-.293-.767 0-1.06l2.75-2.75c.293-.293.767-.293 1.06 0l2.75 2.75c.293.293.293.767 0 1.06-.293.293-.767.293-1.06 0l-1.47-1.47v6.94c0 .414-.336.75-.75.75Z"/><path d="M8.5 14c-.414 0-.75.336-.75.75s.336.75.75.75h6.94l-1.47 1.47c-.293.293-.293.767 0 1.06.293.293.767.293 1.06 0l2.75-2.75c.293-.293.293-.767 0-1.06l-2.75-2.75c-.293-.293-.767-.293-1.06 0-.293.293-.293.767 0 1.06l1.47 1.47h-6.94Z"/></svg>