<svg viewBox="0 0 20 20" xmlns="http://www.w3.org/2000/svg"><path d="M5 11.75a.75.75 0 0 0 1.5 0v-7.055l1.495 1.36a.75.75 0 1 0 1.01-1.11l-2.75-2.5a.75.75 0 0 0-1.01 0l-2.75 2.5a.75.75 0 1 0 1.01 1.11l1.495-1.36v7.055Z" fill="#5C5F62"/><path d="M16.25 6a.75.75 0 0 1-.75-.75v-.5a.25.25 0 0 0-.25-.25h-.5a.75.75 0 0 1 0-1.5h.5c.966 0 1.75.784 1.75 1.75v.5a.75.75 0 0 1-.75.75Z" fill="#5C5F62"/><path d="M16.25 7.5a.75.75 0 0 1 .75.75v1.5a.75.75 0 0 1-1.5 0v-1.5a.75.75 0 0 1 .75-.75Z" fill="#5C5F62"/><path d="M11.75 4.5a.75.75 0 0 0 0-1.5h-1.5a.75.75 0 0 0 0 1.5h1.5Z" fill="#5C5F62"/><path d="M7.5 14.25a.75.75 0 0 1 .75-.75h7.055l-1.36-1.495a.75.75 0 0 1 1.11-1.01l2.5 2.75a.75.75 0 0 1 0 1.01l-2.5 2.75a.75.75 0 0 1-1.11-1.01l1.36-1.495h-7.055a.75.75 0 0 1-.75-.75Z" fill="#5C5F62"/></svg>