<svg xmlns="http://www.w3.org/2000/svg" viewBox="0 0 16 16"><path fill-rule="evenodd" d="M2.75 1.75c0-.414-.336-.75-.75-.75s-.75.336-.75.75c0 .966.784 1.75 1.75 1.75h4.25v1.5h-3.5c-1.243 0-2.25 1.007-2.25 2.25v5c0 1.243 1.007 2.25 2.25 2.25h8.5c1.243 0 2.25-1.007 2.25-2.25v-5c0-1.243-1.007-2.25-2.25-2.25h-3.5v-1.5h4.25c.966 0 1.75-.784 1.75-1.75 0-.414-.336-.75-.75-.75s-.75.336-.75.75c0 .138-.112.25-.25.25h-10c-.138 0-.25-.112-.25-.25Zm.25 5.5c0-.414.336-.75.75-.75h4.25c-1.657 0-3 1.343-3 3s1.343 3 3 3 3-1.343 3-3-1.343-3-3-3h4.25c.414 0 .75.336.75.75v5c0 .414-.336.75-.75.75h-8.5c-.414 0-.75-.336-.75-.75v-5Zm5 3.75c.828 0 1.5-.672 1.5-1.5 0-.087-.007-.173-.022-.256l-.998.832c-.318.265-.791.222-1.056-.096s-.222-.791.096-1.056l.998-.832c-.161-.06-.336-.092-.518-.092-.828 0-1.5.672-1.5 1.5s.672 1.5 1.5 1.5Z"/></svg>