<svg xmlns="http://www.w3.org/2000/svg" viewBox="0 0 20 20"><path d="M11.75 5a.75.75 0 0 0 0-1.5h-1.5a.75.75 0 0 0 0 1.5h1.5Z"/><path d="M15.75 6.5a.75.75 0 0 1-.75-.75v-.5a.25.25 0 0 0-.25-.25h-.5a.75.75 0 0 1 0-1.5h.5c.966 0 1.75.784 1.75 1.75v.5a.75.75 0 0 1-.75.75Z"/><path d="M15.75 7.5a.75.75 0 0 1 .75.75v1.5a.75.75 0 0 1-1.5 0v-1.5a.75.75 0 0 1 .75-.75Z"/><path d="M6.25 12a.75.75 0 0 1-.75-.75v-5.19l-.97.97a.75.75 0 0 1-1.06-1.06l2.25-2.25a.75.75 0 0 1 1.06 0l2.25 2.25a.75.75 0 0 1-1.06 1.06l-.97-.97v5.19a.75.75 0 0 1-.75.75Z"/><path d="M8.75 13a.75.75 0 0 0 0 1.5h5.19l-.97.97a.75.75 0 1 0 1.06 1.06l2.25-2.25a.75.75 0 0 0 0-1.06l-2.25-2.25a.75.75 0 1 0-1.06 1.06l.97.97h-5.19Z"/></svg>