<svg xmlns="http://www.w3.org/2000/svg" viewBox="0 0 16 16"><path d="M9.75 3c.414 0 .75-.336.75-.75s-.336-.75-.75-.75h-1.5c-.414 0-.75.336-.75.75s.336.75.75.75h1.5Z"/><path d="M13.75 4.5c-.414 0-.75-.336-.75-.75v-.5c0-.138-.112-.25-.25-.25h-.5c-.414 0-.75-.336-.75-.75s.336-.75.75-.75h.5c.966 0 1.75.784 1.75 1.75v.5c0 .414-.336.75-.75.75Z"/><path d="M13.75 5.5c.414 0 .75.336.75.75v1.5c0 .414-.336.75-.75.75s-.75-.336-.75-.75v-1.5c0-.414.336-.75.75-.75Z"/><path d="M4.25 10c-.414 0-.75-.336-.75-.75v-5.19l-.97.97c-.293.293-.767.293-1.06 0-.293-.293-.293-.767 0-1.06l2.25-2.25c.293-.293.767-.293 1.06 0l2.25 2.25c.293.293.293.767 0 1.06-.293.293-.767.293-1.06 0l-.97-.97v5.19c0 .414-.336.75-.75.75Z"/><path d="M6.75 11c-.414 0-.75.336-.75.75s.336.75.75.75h5.19l-.97.97c-.293.293-.293.767 0 1.06.293.293.767.293 1.06 0l2.25-2.25c.293-.293.293-.767 0-1.06l-2.25-2.25c-.293-.293-.767-.293-1.06 0-.293.293-.293.767 0 1.06l.97.97h-5.19Z"/></svg>