<svg xmlns="http://www.w3.org/2000/svg" viewBox="0 0 20 20"><path d="M9.25 2.75c0-.414.336-.75.75-.75.886 0 1.764.175 2.583.514.82.339 1.563.836 2.19 1.463.627.627 1.124 1.37 1.463 2.19.34.819.514 1.697.514 2.583 0 .414-.336.75-.75.75s-.75-.336-.75-.75c0-.69-.136-1.372-.4-2.01-.264-.636-.65-1.215-1.138-1.702-.487-.488-1.066-.875-1.703-1.138-.637-.264-1.32-.4-2.009-.4-.414 0-.75-.336-.75-.75Z"/><path d="M6.75 13.25c-.414 0-.75.336-.75.75s.336.75.75.75h2c.414 0 .75-.336.75-.75s-.336-.75-.75-.75h-2Z"/><path fill-rule="evenodd" d="M10 8.25c.414 0 .75.336.75.75v1.5h5c.966 0 1.75.784 1.75 1.75v3.5c0 .966-.784 1.75-1.75 1.75h-11.5c-.966 0-1.75-.784-1.75-1.75v-3.5c0-.966.784-1.75 1.75-1.75h5v-1.5c0-.414.336-.75.75-.75Zm-5.75 3.75c-.138 0-.25.112-.25.25v3.5c0 .138.112.25.25.25h11.5c.138 0 .25-.112.25-.25v-3.5c0-.138-.112-.25-.25-.25h-11.5Z"/><path d="M10 5c-.414 0-.75.336-.75.75s.336.75.75.75c.296 0 .588.058.861.171.273.113.521.28.73.488.209.209.375.457.488.73.113.273.171.566.171.861 0 .414.336.75.75.75s.75-.336.75-.75c0-.492-.097-.98-.286-1.435-.188-.455-.464-.868-.812-1.217-.349-.348-.762-.624-1.217-.813-.455-.188-.943-.285-1.435-.285Z"/></svg>