<svg xmlns="http://www.w3.org/2000/svg" viewBox="0 0 16 16"><path d="M7.25 2c0-.414.336-.75.75-.75.755 0 1.503.149 2.2.438.698.289 1.332.712 1.866 1.246s.957 1.168 1.246 1.866c.29.697.438 1.445.438 2.2 0 .414-.336.75-.75.75s-.75-.336-.75-.75c0-.558-.11-1.11-.323-1.626-.214-.516-.527-.985-.922-1.38-.394-.394-.863-.707-1.379-.92-.515-.214-1.068-.324-1.626-.324-.414 0-.75-.336-.75-.75Z"/><path d="M4.75 10.75c-.414 0-.75.336-.75.75s.336.75.75.75h2c.414 0 .75-.336.75-.75s-.336-.75-.75-.75h-2Z"/><path fill-rule="evenodd" d="M8 6.25c.414 0 .75.336.75.75v1.499h4c.966 0 1.75.784 1.75 1.75v2.5c0 .967-.784 1.75-1.75 1.75h-9.5c-.966 0-1.75-.783-1.75-1.75v-2.5c0-.966.784-1.75 1.75-1.75h4v-1.499c0-.414.336-.75.75-.75Zm-4.75 3.749c-.138 0-.25.112-.25.25v2.5c0 .139.112.25.25.25h9.5c.138 0 .25-.111.25-.25v-2.5c0-.138-.112-.25-.25-.25h-9.5Z"/><path d="M8 3.75c-.414 0-.75.336-.75.75s.336.75.75.75c.23 0 .457.045.67.133.212.088.405.217.567.38.163.162.292.355.38.567.088.213.133.44.133.67 0 .414.336.75.75.75s.75-.336.75-.75c0-.427-.084-.85-.247-1.244-.164-.394-.403-.752-.705-1.054-.302-.302-.66-.541-1.054-.705-.395-.163-.817-.247-1.244-.247Z"/></svg>