<svg xmlns="http://www.w3.org/2000/svg" viewBox="0 0 20 20"><path d="M9.25 4a.75.75 0 0 1 .75-.75 5.75 5.75 0 0 1 5.75 5.75.75.75 0 0 1-1.5 0 4.25 4.25 0 0 0-4.25-4.25.75.75 0 0 1-.75-.75Z"/><path d="M6.75 12.75a.75.75 0 0 0 0 1.5h2a.75.75 0 0 0 0-1.5h-2Z"/><path fill-rule="evenodd" d="M10 8.25a.75.75 0 0 1 .75.75v1.499h4c.966 0 1.75.784 1.75 1.75v2.5a1.75 1.75 0 0 1-1.75 1.75h-9.5a1.75 1.75 0 0 1-1.75-1.75v-2.5c0-.966.784-1.75 1.75-1.75h4v-1.499a.75.75 0 0 1 .75-.75Zm-4.75 3.749a.25.25 0 0 0-.25.25v2.5c0 .139.112.25.25.25h9.5a.25.25 0 0 0 .25-.25v-2.5a.25.25 0 0 0-.25-.25h-9.5Z"/><path d="M10 5.75a.75.75 0 0 0 0 1.5 1.75 1.75 0 0 1 1.75 1.75.75.75 0 0 0 1.5 0 3.25 3.25 0 0 0-3.25-3.25Z"/></svg>