<svg xmlns="http://www.w3.org/2000/svg" viewBox="0 0 16 16"><path fill-rule="evenodd" d="M3.451 10.354c-1.377-.083-2.451-1.224-2.451-2.604 0-1.38 1.074-2.521 2.451-2.604l4.01-.244c.05-.003.097-.02.137-.05l3.097-2.34c1.153-.872 2.805-.05 2.805 1.395v7.608c0 1.437-1.637 2.261-2.792 1.406l-2.572-1.906-.287 2.44c-.104.88-.85 1.545-1.738 1.545h-.361c-.966 0-1.75-.784-1.75-1.75v-2.862l-.549-.034Zm-.951-2.604c0 .587.457 1.072 1.042 1.107l4.056.246c.338.02.664.139.936.34l3.067 2.273c.165.122.399.004.399-.201v-7.608c0-.206-.236-.323-.4-.199l-3.098 2.341c-.275.208-.605.33-.95.35l-4.01.244c-.585.035-1.042.52-1.042 1.107Zm3 2.729 1.18.071-.321 2.73c-.015.125-.121.22-.248.22h-.361c-.138 0-.25-.112-.25-.25v-2.771Z"/><path d="M15.5 6.75c0-.414-.336-.75-.75-.75s-.75.336-.75.75v2.5c0 .414.336.75.75.75s.75-.336.75-.75v-2.5Z"/></svg>