<svg xmlns="http://www.w3.org/2000/svg" viewBox="0 0 20 20"><path fill-rule="evenodd" d="M4.888 12.104c-1.622-.098-2.888-1.443-2.888-3.069 0-1.625 1.266-2.97 2.888-3.068l5.008-.303c.05-.004.099-.022.139-.053l4.14-3.225c1.149-.895 2.825-.076 2.825 1.381v10.434c0 1.45-1.66 2.27-2.812 1.392l-3.57-2.726-.399 2.97c-.166 1.238-1.223 2.163-2.473 2.163-1.379 0-2.496-1.117-2.496-2.496v-3.378l-.362-.022Zm-1.388-3.069c0 .833.648 1.521 1.479 1.572l5.062.307c.347.02.68.144.956.355l4.101 3.131c.165.126.402.008.402-.199v-10.434c0-.208-.24-.325-.404-.197l-4.14 3.225c-.278.217-.616.344-.97.366l-5.007.303c-.831.05-1.479.74-1.479 1.571Zm3.25 3.182 2.422.147-.44 3.273c-.066.494-.488.863-.986.863-.55 0-.996-.446-.996-.996v-3.287Z"/><path d="M19.5 7.25c0-.414-.336-.75-.75-.75s-.75.336-.75.75v3.5c0 .414.336.75.75.75s.75-.336.75-.75v-3.5Z"/></svg>