<svg xmlns="http://www.w3.org/2000/svg" viewBox="0 0 16 16"><path d="M1.5 7.75c0 1.115.868 2.038 1.982 2.105l4.056.246c.145.009.284.06.4.146l3.068 2.272c.825.611 1.994.022 1.994-1.004v-7.608c0-1.032-1.18-1.62-2.004-.997l-3.097 2.341c-.118.09-.26.142-.407.15l-4.01.244c-1.114.067-1.982.99-1.982 2.105Z"/><path d="M4.625 11.177v2.147c0 .718.583 1.301 1.301 1.301.66 0 1.216-.494 1.293-1.15l.238-2.022-.154-.114-2.678-.162Z"/><path d="M15.5 6.75c0-.414-.336-.75-.75-.75s-.75.336-.75.75v2.5c0 .414.336.75.75.75s.75-.336.75-.75v-2.5Z"/></svg>