<svg xmlns="http://www.w3.org/2000/svg" viewBox="0 0 20 20"><path d="M2.5 9.035c0 1.362 1.06 2.488 2.418 2.57l5.062.307c.149.009.292.062.41.152l4.102 3.131c.822.628 2.008.041 2.008-.994v-10.434c0-1.04-1.197-1.626-2.018-.986l-4.14 3.225c-.12.093-.264.147-.416.157l-5.008.303c-1.358.082-2.418 1.208-2.418 2.57Z"/><path d="M5.75 13.156v2.348c0 1.102.894 1.996 1.996 1.996 1 0 1.845-.74 1.978-1.73l.316-2.354-4.29-.26Z"/><path d="M19.5 7.25c0-.414-.336-.75-.75-.75s-.75.336-.75.75v3.5c0 .414.336.75.75.75s.75-.336.75-.75v-3.5Z"/></svg>