<svg xmlns="http://www.w3.org/2000/svg" viewBox="0 0 16 16"><path fill-rule="evenodd" d="M5.738 2.987c1.121-.506 2.38-.622 3.575-.328 1.195.294 2.256.98 3.015 1.948.76.968 1.172 2.163 1.172 3.393 0 .874-.227 1.44-.5 1.773-.267.324-.615.477-1 .477-.639 0-.96-.222-1.162-.523-.236-.355-.374-.93-.374-1.727v-2.571c0-.415-.335-.75-.75-.75-.206 0-.394.083-.53.219-.437-.3-1.012-.505-1.755-.505-1.159 0-1.952.6-2.422 1.352-.45.72-.614 1.58-.614 2.255 0 .674.164 1.536.614 2.255.47.752 1.263 1.352 2.422 1.352.95 0 1.655-.468 2.119-.937l.069-.072c.515.745 1.326 1.152 2.383 1.152.824 0 1.6-.347 2.157-1.024.55-.667.843-1.6.843-2.726 0-1.566-.525-3.087-1.491-4.319-.966-1.232-2.317-2.105-3.838-2.479-1.52-.373-3.123-.227-4.55.417-1.427.644-2.597 1.748-3.323 3.136-.726 1.387-.966 2.978-.681 4.517.284 1.54 1.077 2.94 2.25 3.976 1.175 1.036 2.662 1.649 4.225 1.74 1.564.091 3.112-.344 4.399-1.237.34-.236.425-.704.188-1.044-.236-.34-.703-.425-1.043-.188-1.011.701-2.228 1.043-3.456.972-1.228-.072-2.397-.553-3.32-1.367-.922-.815-1.545-1.915-1.768-3.124-.224-1.21-.036-2.46.535-3.55.57-1.09 1.49-1.957 2.611-2.463Zm3.276 5.877c-.035-.284-.05-.574-.05-.864v-.976l-.033-.075c-.09-.204-.173-.392-.352-.598-.2-.228-.522-.458-1.15-.458-.556 0-.906.256-1.15.647-.265.424-.386.991-.386 1.46s.121 1.036.386 1.46c.244.39.594.647 1.15.647.42 0 .763-.199 1.052-.491.263-.266.44-.572.534-.752Z"/></svg>