<svg xmlns="http://www.w3.org/2000/svg" viewBox="0 0 20 20"><path fill-rule="evenodd" d="M7.32 4.074c1.324-.597 2.81-.733 4.219-.386 1.41.346 2.663 1.155 3.558 2.298.896 1.142 1.383 2.552 1.383 4.004 0 1.033-.269 1.718-.608 2.13-.331.402-.768.595-1.249.595-.774 0-1.186-.273-1.444-.659-.293-.44-.453-1.133-.453-2.066v-2.979c0-.414-.336-.75-.75-.75-.243 0-.458.115-.595.294-.5-.368-1.168-.625-2.053-.625-1.294 0-2.178.669-2.704 1.511-.506.81-.694 1.784-.694 2.549 0 .764.188 1.74.694 2.549.526.842 1.41 1.51 2.704 1.51 1.06 0 1.847-.52 2.37-1.05.063-.064.123-.128.18-.193l.053.082c.57.855 1.481 1.327 2.692 1.327.92 0 1.786-.386 2.408-1.142.614-.747.949-1.8.949-3.083 0-1.787-.6-3.523-1.702-4.93-1.103-1.406-2.645-2.402-4.38-2.829-1.736-.427-3.565-.26-5.194.476-1.63.735-2.965 1.995-3.793 3.579-.829 1.583-1.103 3.399-.778 5.156.325 1.758 1.23 3.355 2.57 4.538 1.34 1.183 3.037 1.882 4.822 1.986 1.784.104 3.551-.393 5.02-1.412.34-.236.425-.703.188-1.044-.236-.34-.703-.424-1.043-.188-1.193.827-2.629 1.231-4.078 1.147-1.45-.085-2.828-.653-3.917-1.614-1.088-.96-1.823-2.258-2.087-3.686-.264-1.427-.041-2.902.632-4.188.673-1.286 1.758-2.31 3.08-2.907Zm3.967 6.939c-.043-.335-.061-.678-.061-1.023v-1.157l-.044-.098c-.106-.242-.212-.48-.433-.733-.252-.289-.657-.572-1.421-.572-.692 0-1.132.325-1.433.806-.32.514-.465 1.195-.465 1.754 0 .56.144 1.24.465 1.754.301.481.741.806 1.433.806.529 0 .955-.252 1.303-.605.333-.337.55-.725.656-.932Z"/></svg>