<svg xmlns="http://www.w3.org/2000/svg" viewBox="0 0 20 20"><path fill-rule="evenodd" d="M5.75 18c-.414 0-.75-.336-.75-.75v-2.518c0-1.167.544-2.269 1.472-2.978l2.287-1.75c.31-.236.491-.603.491-.992v-4.526l-2.986 2.81c-.302.284-.776.27-1.06-.032-.284-.302-.27-.776.032-1.06l4.25-4c.289-.272.74-.272 1.028 0l4.25 4c.302.284.316.758.032 1.06-.284.302-.758.316-1.06.032l-2.986-2.81v4.526c0 .856-.4 1.664-1.08 2.184l-2.287 1.75c-.556.425-.883 1.086-.883 1.787v2.517c0 .414-.336.75-.75.75Zm8.5 0c-.414 0-.75-.336-.75-.75v-2.584c0-.673-.3-1.31-.82-1.737l-1.032-.85c-.32-.263-.365-.736-.102-1.056.263-.32.736-.365 1.056-.102l1.032.85c.865.712 1.366 1.774 1.366 2.895v2.584c0 .414-.336.75-.75.75Z"/></svg>