<svg xmlns="http://www.w3.org/2000/svg" viewBox="0 0 12 12"><path fill-rule="evenodd" d="M6.004.013c.166 0 .325.066.442.183l2.5 2.5c.244.244.244.64 0 .884s-.64.244-.884 0l-1.433-1.433v2.617c0 .994-.561 1.903-1.45 2.348l-1.662.894c-.466.233-.76.709-.76 1.23l-.004 1.889c0 .345-.28.625-.625.625s-.625-.28-.625-.625l.004-1.89c0-.993.562-1.902 1.45-2.347l1.662-.894c.466-.233.76-.709.76-1.23v-2.617l-1.433 1.433c-.244.244-.64.244-.884 0s-.244-.64 0-.884l2.5-2.5c.117-.117.276-.183.442-.183Zm1.366 6.119c.203-.28.594-.34.873-.137l1.179.86c.677.494 1.078 1.282 1.078 2.12l-.004 2.15c0 .345-.28.625-.625.625s-.625-.28-.625-.625l.004-2.15c0-.439-.21-.852-.565-1.11l-1.178-.86c-.28-.203-.34-.594-.137-.873Z"/></svg>