<svg xmlns="http://www.w3.org/2000/svg" viewBox="0 0 16 16"><path fill-rule="evenodd" d="M3.75 15c-.414 0-.75-.336-.75-.75v-1.695c0-1.219.592-2.361 1.587-3.064l2.134-1.506c.332-.234.529-.615.529-1.021v-4.001l-1.991 1.838c-.305.281-.78.262-1.06-.042-.281-.305-.262-.78.042-1.06l3.25-3c.288-.265.73-.265 1.018 0l3.25 3c.304.28.323.755.042 1.06-.28.304-.755.323-1.06.042l-1.991-1.838v4c0 .894-.434 1.732-1.164 2.247l-2.134 1.506c-.597.422-.952 1.107-.952 1.839v1.695c0 .414-.336.75-.75.75Zm8.5 0c-.414 0-.75-.336-.75-.75v-1.695c0-.732-.355-1.417-.953-1.839l-.855-.603c-.338-.24-.419-.707-.18-1.046.24-.338.707-.419 1.045-.18l.856.604c.995.703 1.587 1.845 1.587 3.064v1.695c0 .414-.336.75-.75.75Z"/></svg>