<svg xmlns="http://www.w3.org/2000/svg" viewBox="0 0 20 20">
  <path fill-rule="evenodd" d="M15.5 4V5.5H16C16.5523 5.5 17 5.94772 17 6.5V10.5C17 10.5863 17 10.8398 16.9999 11C16.9999 10.9137 16.9999 11.0863 16.9999 11L17 11.75C17 12.1642 16.6642 12.5 16.25 12.5C15.8358 12.5 15.5 12.1642 15.5 11.75V11.5H3.5V15.25H9.75C10.1642 15.25 10.5 15.5858 10.5 16C10.5 16.4142 10.1642 16.75 9.75 16.75H3C2.44771 16.75 2 16.3023 2 15.75V11C2 10.4477 2.44772 10 3 10H3.5V8.5C3.5 7.94772 3.94772 7.5 4.5 7.5H7C7.55228 7.5 8 7.94772 8 8.5V10H9.5V6.5C9.5 5.94772 9.94772 5.5 10.5 5.5H11V4C11 3.44772 11.4477 3 12 3H14.5C15.0523 3 15.5 3.44772 15.5 4ZM14 4.5V5.5H12.5V4.5H14ZM11 7V10H15.5V7H11ZM6.5 10H5V9H6.5V10Z"/>
  <path d="M11.4482 15.0508C11.4482 14.6366 11.784 14.3008 12.1982 14.3008H17.6982C18.1125 14.3008 18.4482 14.6366 18.4482 15.0508C18.4482 15.465 18.1125 15.8008 17.6982 15.8008H12.1982C11.784 15.8008 11.4482 15.465 11.4482 15.0508Z"/>
  <path d="M11.4482 18.0508C11.4482 17.6366 11.784 17.3008 12.1982 17.3008H17.6982C18.1125 17.3008 18.4482 17.6366 18.4482 18.0508C18.4482 18.465 18.1125 18.8008 17.6982 18.8008H12.1982C11.784 18.8008 11.4482 18.465 11.4482 18.0508Z"/>
</svg>
