<svg xmlns="http://www.w3.org/2000/svg" viewBox="0 0 20 20"><path d="M6.25 9.5c-.414 0-.75.336-.75.75s.336.75.75.75h7.5c.414 0 .75-.336.75-.75s-.336-.75-.75-.75h-7.5Z"/><path fill-rule="evenodd" d="M6.5 4c-1.105 0-2 .895-2 2v.505l-.083.036c-1.011.433-1.667 1.428-1.667 2.528v4.181c0 1.519 1.231 2.75 2.75 2.75h9c1.519 0 2.75-1.231 2.75-2.75v-4.181c0-1.1-.656-2.095-1.667-2.528l-.083-.036v-.505c0-1.105-.895-2-2-2h-.5c-1.105 0-2 .895-2 2h-2c0-1.105-.895-2-2-2h-.5Zm-.5 2c0-.276.224-.5.5-.5h.5c.276 0 .5.224.5.5v.75c0 .414.336.75.75.75h3.5c.414 0 .75-.336.75-.75v-.75c0-.276.224-.5.5-.5h.5c.276 0 .5.224.5.5v1c0 .3.179.571.455.69l.537.23c.46.197.758.649.758 1.149v4.181c0 .69-.56 1.25-1.25 1.25h-9c-.69 0-1.25-.56-1.25-1.25v-4.181c0-.5.298-.952.758-1.15l.537-.23c.276-.118.455-.389.455-.689v-1Z"/></svg>