<svg viewBox="0 0 20 20" xmlns="http://www.w3.org/2000/svg"><path d="M2.5 6.75a2.75 2.75 0 0 1 2.75-2.75h.25a.75.75 0 0 1 0 1.5h-.25c-.69 0-1.25.56-1.25 1.25v2.25a.75.75 0 0 1-.22.53l-.47.47.47.47c.141.14.22.331.22.53v2.25c0 .69.56 1.25 1.25 1.25h.25a.75.75 0 0 1 0 1.5h-.25a2.75 2.75 0 0 1-2.75-2.75v-1.94l-.78-.78a.75.75 0 0 1 0-1.06l.78-.78v-1.94Z" fill="#5C5F62"/><path d="M17.5 13.25a2.75 2.75 0 0 1-2.75 2.75h-.25a.75.75 0 0 1 0-1.5h.25c.69 0 1.25-.56 1.25-1.25v-2.25a.75.75 0 0 1 .22-.53l.47-.47-.47-.47a.75.75 0 0 1-.22-.53v-2.25c0-.69-.56-1.25-1.25-1.25h-.25a.75.75 0 0 1 0-1.5h.25a2.75 2.75 0 0 1 2.75 2.75v1.94l.78.78a.75.75 0 0 1 0 1.06l-.78.78v1.94Z" fill="#5C5F62"/><path fill-rule="evenodd" d="M10.894 6.158a1.75 1.75 0 0 0-1.788 0l-1.75 1.04a1.75 1.75 0 0 0-.856 1.504v2.595c0 .618.325 1.19.856 1.505l1.75 1.04a1.75 1.75 0 0 0 1.788 0l1.75-1.04a1.75 1.75 0 0 0 .856-1.505v-2.595a1.75 1.75 0 0 0-.856-1.504l-1.75-1.04Zm-1.022 1.29a.25.25 0 0 1 .256 0l1.75 1.04a.25.25 0 0 1 .122.214v2.595a.25.25 0 0 1-.122.215l-1.75 1.04a.25.25 0 0 1-.256 0l-1.75-1.04a.25.25 0 0 1-.122-.215v-2.595a.25.25 0 0 1 .122-.214l1.75-1.04Z" fill="#5C5F62"/></svg>