<svg xmlns="http://www.w3.org/2000/svg" viewBox="0 0 20 21"><path fill-rule="evenodd" d="M3.75 6.75v-1.75c0-.552.448-1 1-1h2.5c.552 0 1 .448 1 1v1.75h1.25c.552 0 1 .448 1 1v3.75h2v-1.75c0-.552.448-1 1-1h2.5c.552 0 1 .448 1 1v1.768c.848.121 1.5.85 1.5 1.732v3.5c0 .966-.784 1.75-1.75 1.75h-7.25c-.414 0-.75-.336-.75-.75s.336-.75.75-.75h7.25c.138 0 .25-.112.25-.25v-3.5c0-.138-.112-.25-.25-.25h-13.5c-.138 0-.25.112-.25.25v.5c0 .414-.336.75-.75.75s-.75-.336-.75-.75v-.5c0-.256.055-.499.153-.717-.097-.155-.153-.337-.153-.533v-4.25c0-.552.448-1 1-1h1.25Zm1.5 0v-1.25h1.5v1.25h-1.5Zm-2.25 1.5v3.25h6v-3.25h-6Zm12.5 3.25h-1.5v-1.25h1.5v1.25Z"/><path d="M2.5 18.25c0-.69.56-1.25 1.25-1.25h1.44l-.47.47c-.293.293-.293.767 0 1.06.293.293.767.293 1.06 0l1.75-1.75c.141-.14.22-.331.22-.53s-.079-.39-.22-.53l-1.75-1.75c-.293-.293-.767-.293-1.06 0-.293.293-.293.767 0 1.06l.47.47h-1.44c-1.519 0-2.75 1.231-2.75 2.75v.5c0 .414.336.75.75.75s.75-.336.75-.75v-.5Z"/></svg>