<svg viewBox="0 0 20 20" xmlns="http://www.w3.org/2000/svg"><path d="m6.276 13.945-2.723-1.408A1.038 1.038 0 0 1 3 11.612V4.619c0-.392.214-.75.553-.925l5-2.585a.97.97 0 0 1 .894 0l5 2.585c.339.175.553.533.553.925v2.414c0 .33-.337.542-.62.392a2.895 2.895 0 0 0-2.751.017L8.5 9.149l-.252.174A2.925 2.925 0 0 0 7 11.734v1.748c0 .385-.391.635-.724.463Z" fill="#5C5F62"/><path d="M12.526 9.114a1.04 1.04 0 0 1 .948 0l3 1.543c.324.167.526.49.526.842v4.002a.951.951 0 0 1-.526.842l-3 1.543a1.041 1.041 0 0 1-.948 0l-3-1.543A.951.951 0 0 1 9 15.5v-4.002c0-.351.202-.675.526-.842l3-1.543Z" fill="#5C5F62"/></svg>
