<svg xmlns="http://www.w3.org/2000/svg" viewBox="0 0 20 20"><path d="M6.25 9.5a.75.75 0 0 0 0 1.5h7.5a.75.75 0 0 0 0-1.5h-7.5Z"/><path  fill-rule="evenodd" d="M6.5 4a2 2 0 0 0-2 2v.465l-.819.281A1.75 1.75 0 0 0 2.5 8.401V13.5A2.5 2.5 0 0 0 5 16h10a2.5 2.5 0 0 0 2.5-2.5V8.936a2.5 2.5 0 0 0-1.687-2.364l-.313-.107V6a2 2 0 0 0-2-2H13a2 2 0 0 0-2 2H9a2 2 0 0 0-2-2h-.5ZM6 6a.5.5 0 0 1 .5-.5H7a.5.5 0 0 1 .5.5v.5a1 1 0 0 0 1 1h3.162a.838.838 0 0 0 .838-.838V6a.5.5 0 0 1 .5-.5h.5a.5.5 0 0 1 .5.5v.938c0 .357.227.675.565.792l.76.26a1 1 0 0 1 .675.946V13.5a1 1 0 0 1-1 1H5a1 1 0 0 1-1-1V8.401a.25.25 0 0 1 .169-.236l1.266-.435A.838.838 0 0 0 6 6.938V6Z" clip-rule="evenodd"/></svg>