<svg width="20" height="20" viewBox="0 0 20 20" fill="none" xmlns="http://www.w3.org/2000/svg">
<path fill-rule="evenodd" clip-rule="evenodd" d="M4 6V7.5H3.5C2.94772 7.5 2.5 7.94772 2.5 8.5V14C2.5 14.5523 2.94772 15 3.5 15H16.5C17.0523 15 17.5 14.5523 17.5 14V8.5C17.5 7.94772 17.0523 7.5 16.5 7.5H16V6C16 5.44772 15.5523 5 15 5H12.5C11.9477 5 11.5 5.44772 11.5 6V7.5H8.5V6C8.5 5.44772 8.05228 5 7.5 5H5C4.44772 5 4 5.44772 4 6ZM5.5 6.5V7.5H7V6.5H5.5ZM13 7.5H14.5V6.5H13V7.5ZM4 9V13.5H16V9H4Z" fill="#4A4A4A"/>
</svg>
