<svg xmlns="http://www.w3.org/2000/svg" viewBox="0 0 20 20"><path fill-rule="evenodd" d="M10 2c-1.933 0-3.5 1.567-3.5 3.5v2.5c0 1.933 1.567 3.5 3.5 3.5s3.5-1.567 3.5-3.5v-2.5c0-1.933-1.567-3.5-3.5-3.5Zm-2 3.5c0-1.105.895-2 2-2s2 .895 2 2v2.5c0 1.105-.895 2-2 2s-2-.895-2-2v-2.5Z"/><path d="M4.75 7c0-.414-.336-.75-.75-.75s-.75.336-.75.75v.97c0 3.475 2.625 6.336 6 6.71v1.82h-1.536c-.414 0-.75.336-.75.75s.336.75.75.75h4.572c.414 0 .75-.336.75-.75s-.336-.75-.75-.75h-1.536v-1.82c3.375-.374 6-3.235 6-6.71v-.97c0-.414-.336-.75-.75-.75s-.75.336-.75.75v.97c0 2.9-2.35 5.25-5.25 5.25s-5.25-2.35-5.25-5.25v-.97Z"/></svg>