<svg xmlns="http://www.w3.org/2000/svg" viewBox="0 0 16 16"><path fill-rule="evenodd" d="M8 1c-1.795 0-3.25 1.455-3.25 3.25v2c0 1.795 1.455 3.25 3.25 3.25s3.25-1.455 3.25-3.25v-2c0-1.795-1.455-3.25-3.25-3.25Zm1.75 5.25c0 .966-.784 1.75-1.75 1.75s-1.75-.784-1.75-1.75v-2c0-.966.784-1.75 1.75-1.75s1.75.784 1.75 1.75v2Z"/><path d="M3.5 6c0-.414-.336-.75-.75-.75s-.75.336-.75.75v.25c0 3.06 2.29 5.585 5.25 5.954v1.546h-1.25c-.414 0-.75.336-.75.75s.336.75.75.75h4c.414 0 .75-.336.75-.75s-.336-.75-.75-.75h-1.25v-1.546c2.96-.37 5.25-2.894 5.25-5.954v-.25c0-.414-.336-.75-.75-.75s-.75.336-.75.75v.25c0 2.485-2.015 4.5-4.5 4.5s-4.5-2.015-4.5-4.5v-.25Z"/></svg>