<svg xmlns="http://www.w3.org/2000/svg" viewBox="0 0 16 16"><path d="M5.75 11.75c0-.414.336-.75.75-.75h3c.414 0 .75.336.75.75s-.336.75-.75.75h-3c-.414 0-.75-.336-.75-.75Z"/><path fill-rule="evenodd" d="M2.75 3.75c0-1.519 1.231-2.75 2.75-2.75h5c1.519 0 2.75 1.231 2.75 2.75v8.5c0 1.519-1.231 2.75-2.75 2.75h-5c-1.519 0-2.75-1.231-2.75-2.75v-8.5Zm2.75-1.25c-.69 0-1.25.56-1.25 1.25v8.5c0 .69.56 1.25 1.25 1.25h5c.69 0 1.25-.56 1.25-1.25v-8.5c0-.69-.56-1.25-1.25-1.25h-.531c-.112.431-.503.75-.969.75h-2c-.466 0-.857-.319-.968-.75h-.532Z"/></svg>