<svg xmlns="http://www.w3.org/2000/svg" viewBox="0 0 20 21"><path fill-rule="evenodd" d="M12.379 4.206h-7.258c-.395 0-.736 0-1.017.023-.297.024-.592.078-.875.223-.424.215-.768.56-.984.983-.144.284-.198.579-.222.875-.023.281-.023.622-.023 1.017v3.008c0 .396 0 .737.023 1.018.024.296.078.591.222.875.216.423.56.767.984.983.283.145.578.198.875.222.121.01.254.016.397.02.001.242.006.46.022.65.024.296.078.591.222.875.216.423.56.767.984.983.283.145.578.198.875.222.28.023.622.023 1.017.023h7.258c.395 0 .736 0 1.017-.023.297-.024.592-.077.875-.222.424-.216.768-.56.984-.983.144-.284.198-.579.222-.875.023-.281.023-.622.023-1.018v-3.008c0-.395 0-.736-.023-1.017-.024-.296-.078-.591-.222-.875-.216-.424-.56-.768-.983-.983-.284-.145-.58-.199-.876-.223-.121-.01-.254-.015-.397-.019-.001-.243-.006-.46-.022-.65-.024-.296-.078-.591-.222-.875-.216-.424-.56-.768-.984-.983-.283-.145-.578-.199-.875-.223-.28-.023-.622-.023-1.017-.023Zm1.62 2.75h-6.378c-.395 0-.736 0-1.017.023-.297.024-.592.078-.875.223-.424.215-.768.56-.984.983-.144.284-.198.579-.222.875-.023.281-.023.622-.023 1.017v1.875c-.104-.003-.194-.007-.274-.014-.204-.016-.28-.045-.316-.063-.142-.072-.256-.187-.328-.328-.02-.037-.047-.113-.064-.317-.017-.212-.018-.491-.018-.924v-2.95c0-.432 0-.711.018-.924.017-.204.045-.28.064-.316.072-.141.186-.256.328-.328.037-.019.112-.047.316-.064.212-.017.492-.018.924-.018h7.2c.432 0 .712 0 .924.018.204.017.28.045.317.064.14.072.255.187.327.328.02.037.047.112.064.316.011.139.016.305.017.524Zm-6.349 7.75h1.178c-.515-.796-.828-1.847-.828-3 0-1.277.385-2.43 1.002-3.25h-1.352c-.432 0-.712 0-.924.018-.204.017-.28.045-.316.064-.142.072-.256.187-.328.328-.02.037-.047.112-.064.316-.017.213-.018.492-.018.924v2.95c0 .433 0 .712.018.924.017.204.045.28.064.317.072.14.186.256.328.328.037.018.112.047.316.063.212.018.492.018.924.018Zm6.85-3c0-1.277-.384-2.43-1.002-3.25h1.352c.432 0 .712 0 .924.018.204.017.28.045.316.064.142.072.256.187.328.328.02.037.047.112.064.316.017.213.018.492.018.924v2.95c0 .433 0 .712-.018.924-.017.204-.045.28-.064.317-.072.14-.186.256-.328.328-.037.018-.112.047-.316.063-.212.018-.492.018-.924.018h-1.178c.515-.796.828-1.847.828-3Zm-4.332 2.304c-.384-.532-.668-1.341-.668-2.304 0-.962.284-1.772.668-2.303.385-.534.787-.697 1.082-.697.295 0 .697.163 1.082.697.384.531.668 1.34.668 2.303 0 .963-.284 1.772-.668 2.304-.385.534-.787.696-1.082.696-.295 0-.697-.162-1.082-.696Z" clip-rule="evenodd"/></svg>