<svg xmlns="http://www.w3.org/2000/svg" viewBox="0 0 20 20"><path fill-rule="evenodd" d="M12.379 4h-7.258c-.395 0-.736 0-1.017.023-.297.024-.592.078-.875.222-.424.216-.768.56-.984.984-.144.283-.198.578-.222.875-.023.28-.023.622-.023 1.017v3.008c0 .395 0 .736.023 1.017.024.297.078.592.222.875.216.424.56.768.984.984.283.144.578.198.875.222.121.01.254.016.397.019.001.243.006.46.022.65.024.297.078.592.222.875.216.424.56.768.984.984.283.144.578.198.875.222.28.023.622.023 1.017.023h7.258c.395 0 .736 0 1.017-.023.297-.024.592-.078.875-.222.424-.216.768-.56.984-.984.144-.283.198-.578.222-.875.023-.28.023-.622.023-1.017v-3.008c0-.395 0-.736-.023-1.017-.024-.297-.078-.592-.222-.875-.216-.424-.56-.768-.983-.984-.284-.144-.58-.198-.876-.222-.121-.01-.254-.016-.397-.019-.001-.243-.006-.46-.022-.65-.024-.297-.078-.592-.222-.875-.216-.424-.56-.768-.984-.984-.283-.144-.578-.198-.875-.222-.28-.023-.622-.023-1.017-.023Zm-8.153 7.732c.08.007.17.01.274.013v-1.874c0-.395 0-.736.023-1.017.024-.297.078-.592.222-.875.216-.424.56-.768.984-.984.283-.144.578-.198.875-.222.28-.023.622-.023 1.017-.023h6.378c-.001-.219-.006-.386-.017-.524-.017-.204-.045-.28-.064-.316-.072-.142-.186-.256-.327-.328-.038-.02-.113-.047-.317-.064-.212-.017-.492-.018-.924-.018h-7.2c-.432 0-.712 0-.924.018-.204.017-.28.045-.316.064-.142.072-.256.186-.328.328-.02.037-.047.112-.064.316-.017.212-.018.492-.018.924v2.95c0 .432 0 .712.018.924.017.204.045.28.064.317.072.14.186.255.328.327.037.02.112.047.316.064Zm5.904 2.03c-.37-.537-.63-1.334-.63-2.262 0-.928.26-1.725.63-2.262.372-.541.785-.738 1.12-.738.335 0 .748.197 1.12.738.37.537.63 1.334.63 2.262 0 .928-.26 1.725-.63 2.262-.372.541-.785.738-1.12.738-.335 0-.748-.197-1.12-.738Z"/></svg>