<svg xmlns="http://www.w3.org/2000/svg" viewBox="0 0 20 21"><path fill-rule="evenodd" d="M15.46 6.142v.009l2.217-2.216c.302-.302.792-.302 1.095 0 .302.303.302.793 0 1.095l-2.118 2.117c.04.017.079.035.117.055.424.215.768.56.984.983.144.284.198.579.222.875.023.281.023.622.023 1.017v3.008c0 .396 0 .737-.023 1.018-.024.296-.078.591-.222.875-.216.423-.56.767-.983.983-.284.145-.58.198-.876.222-.28.023-.622.023-1.017.023h-7.284l-2.026 2.027c-.303.302-.793.302-1.095 0-.303-.302-.303-.792 0-1.095l1.204-1.204c-.003 0-.005-.002-.007-.003l1.232-1.232h.01l1.32-1.32c-.002-.002-.002-.005-.003-.007l1.285-1.285v.01l2.765-2.765-.005-.005 3.185-3.185Zm.314 2.332c-.118-.01-.256-.014-.43-.016l-1.2 1.2c.228.614.356 1.31.356 2.048 0 1.153-.313 2.204-.828 3h1.178c.432 0 .712 0 .924-.018.204-.016.28-.045.316-.063.142-.072.256-.187.328-.328.02-.037.047-.113.064-.317.017-.212.018-.491.018-.924v-2.95c0-.432 0-.711-.018-.924-.017-.204-.045-.28-.064-.316-.072-.141-.186-.256-.328-.328-.037-.019-.112-.047-.316-.064Zm-2.774 3.232c0-.292-.026-.57-.073-.83l-2.907 2.906c.047.08.097.157.148.228.385.534.787.696 1.082.696.295 0 .697-.162 1.082-.696.384-.532.668-1.341.668-2.304Z" clip-rule="evenodd"/><path d="M6 13.411v-3.305c0-.432 0-.711.018-.924.017-.204.045-.28.064-.316.072-.141.186-.256.328-.328.037-.019.112-.047.316-.064.212-.017.492-.018.924-.018h1.352c-.568.754-.94 1.792-.995 2.949l4.449-4.449h-4.835c-.395 0-.736 0-1.017.023-.297.024-.592.078-.875.223-.424.215-.768.56-.984.983-.144.284-.198.579-.222.875-.023.281-.023.622-.023 1.017v1.875c-.104-.003-.194-.007-.274-.014-.204-.016-.28-.045-.316-.063-.142-.072-.256-.187-.328-.328-.02-.037-.047-.113-.064-.317-.017-.212-.018-.491-.018-.924v-2.95c0-.432 0-.711.018-.924.017-.204.045-.28.064-.316.072-.141.186-.256.328-.328.037-.019.112-.047.316-.064.212-.017.492-.018.924-.018h7.2c.432 0 .712 0 .924.018.204.017.28.045.317.064l.021.012 1.075-1.075c-.127-.106-.266-.198-.415-.273-.284-.145-.58-.199-.876-.223-.28-.023-.622-.023-1.017-.023h-7.258c-.395 0-.736 0-1.017.023-.297.024-.592.078-.875.223-.424.215-.768.56-.984.983-.144.284-.198.579-.222.875-.023.281-.023.622-.023 1.017v3.008c0 .396 0 .737.023 1.018.024.296.078.591.222.875.216.423.56.767.984.983.283.145.578.198.875.222.121.01.254.016.397.02.001.242.006.46.022.65.018.221.052.441.129.657l1.349-1.349Z"/></svg>