<svg xmlns="http://www.w3.org/2000/svg" viewBox="0 0 16 16"><path fill-rule="evenodd" d="M12.879 2h-7.258c-.395 0-.736 0-1.017.023-.297.024-.592.078-.875.222-.424.216-.768.56-.984.984-.144.283-.198.578-.222.875-.016.19-.02.407-.022.65-.143.003-.276.009-.397.019-.297.024-.592.078-.875.222-.424.216-.768.56-.984.984-.144.283-.198.578-.222.875-.023.28-.023.622-.023 1.017v3.008c0 .395 0 .736.023 1.017.024.297.078.592.222.875.216.424.56.768.984.984.283.144.578.198.875.222.28.023.622.023 1.017.023h7.258c.395 0 .736 0 1.017-.023.297-.024.592-.078.875-.222.424-.216.768-.56.984-.984.144-.283.198-.578.222-.875.016-.19.02-.407.022-.65.143-.003.276-.009.397-.019.297-.024.592-.078.875-.222.424-.216.768-.56.984-.984.144-.283.198-.578.222-.875.023-.28.023-.622.023-1.017v-3.008c0-.395 0-.736-.023-1.017-.024-.297-.078-.592-.222-.875-.216-.424-.56-.768-.984-.984-.283-.144-.578-.198-.875-.222-.28-.023-.622-.023-1.017-.023Zm.621 5.871v1.874c.104-.002.194-.006.274-.013.204-.017.28-.045.317-.064.14-.072.255-.186.327-.327.02-.038.047-.113.064-.317.017-.212.018-.492.018-.924v-2.95c0-.432 0-.712-.018-.924-.017-.204-.045-.28-.064-.316-.072-.142-.186-.256-.327-.328-.038-.02-.113-.047-.317-.064-.212-.017-.492-.018-.924-.018h-7.2c-.432 0-.712 0-.924.018-.204.017-.28.045-.316.064-.142.072-.256.186-.328.328-.02.037-.047.112-.064.316-.011.138-.016.305-.017.524h6.378c.395 0 .736 0 1.017.023.297.024.592.078.875.222.424.216.768.56.984.984.144.283.198.578.222.875.023.28.023.622.023 1.017Zm-5.63 3.89c.37-.536.63-1.333.63-2.261 0-.928-.26-1.725-.63-2.262-.372-.541-.785-.738-1.12-.738-.335 0-.748.197-1.12.738-.37.537-.63 1.334-.63 2.262 0 .928.26 1.725.63 2.262.372.541.785.738 1.12.738.335 0 .748-.197 1.12-.738Z"/></svg>