<svg xmlns="http://www.w3.org/2000/svg" viewBox="0 0 20 20"><path fill-rule="evenodd" d="M12.379 4h-7.258c-.395 0-.736 0-1.017.023-.297.024-.592.078-.875.222-.424.216-.768.56-.984.984-.144.283-.198.578-.222.875-.023.28-.023.622-.023 1.017v3.008c0 .395 0 .736.023 1.017.024.297.078.592.222.875.216.424.56.768.984.984.283.144.578.198.875.222.121.01.254.016.397.019.001.243.006.46.022.65.024.297.078.592.222.875.216.424.56.768.984.984.283.144.578.198.875.222.28.023.622.023 1.017.023h7.258c.395 0 .736 0 1.017-.023.297-.024.592-.078.875-.222.424-.216.768-.56.984-.984.144-.283.198-.578.222-.875.023-.28.023-.622.023-1.017v-3.008c0-.395 0-.736-.023-1.017-.024-.297-.078-.592-.222-.875-.216-.424-.56-.768-.983-.984-.284-.144-.58-.198-.876-.222-.121-.01-.254-.016-.397-.019-.001-.243-.006-.46-.022-.65-.024-.297-.078-.592-.222-.875-.216-.424-.56-.768-.984-.984-.283-.144-.578-.198-.875-.222-.28-.023-.622-.023-1.017-.023Zm1.62 2.75h-6.378c-.395 0-.736 0-1.017.023-.297.024-.592.078-.875.222-.424.216-.768.56-.984.984-.144.283-.198.578-.222.875-.023.28-.023.622-.023 1.017v1.874c-.104-.002-.194-.006-.274-.013-.204-.017-.28-.045-.316-.064-.142-.072-.256-.186-.328-.327-.02-.038-.047-.113-.064-.317-.017-.212-.018-.492-.018-.924v-2.95c0-.432 0-.712.018-.924.017-.204.045-.28.064-.316.072-.142.186-.256.328-.328.037-.02.112-.047.316-.064.212-.017.492-.018.924-.018h7.2c.432 0 .712 0 .924.018.204.017.28.045.317.064.14.072.255.186.327.328.02.037.047.112.064.316.011.138.016.305.017.524Zm-6.349 7.75h1.178c-.515-.796-.828-1.848-.828-3 0-1.278.385-2.43 1.002-3.25h-1.352c-.432 0-.712 0-.924.018-.204.017-.28.045-.316.064-.142.072-.256.186-.328.328-.02.037-.047.112-.064.316-.017.212-.018.492-.018.924v2.95c0 .432 0 .712.018.924.017.204.045.28.064.317.072.14.186.255.328.327.037.02.112.047.316.064.212.017.492.018.924.018Zm6.85-3c0-1.278-.384-2.43-1.002-3.25h1.352c.432 0 .712 0 .924.018.204.017.28.045.316.064.142.072.256.186.328.328.02.037.047.112.064.316.017.212.018.492.018.924v2.95c0 .432 0 .712-.018.924-.017.204-.045.28-.064.317-.072.14-.186.255-.328.327-.037.02-.112.047-.316.064-.212.017-.492.018-.924.018h-1.178c.515-.796.828-1.848.828-3Zm-4.332 2.304c-.384-.532-.668-1.342-.668-2.304 0-.962.284-1.772.668-2.304.385-.533.787-.696 1.082-.696.295 0 .697.163 1.082.696.384.532.668 1.342.668 2.304 0 .962-.284 1.772-.668 2.304-.385.533-.787.696-1.082.696-.295 0-.697-.163-1.082-.696Z"/></svg>