<svg xmlns="http://www.w3.org/2000/svg" viewBox="0 0 20 20"><path fill-rule="evenodd" d="M12.379 4h-7.258c-.395 0-.736 0-1.017.023-.297.024-.592.078-.875.222-.424.216-.768.56-.984.984-.144.283-.198.578-.222.875-.023.28-.023.622-.023 1.017v3.008c0 .395 0 .736.023 1.017.024.297.078.592.222.875.216.424.56.768.984.984.283.144.578.198.875.222.121.01.254.016.397.019.001.243.006.46.022.65.024.297.078.592.222.875.216.424.56.768.984.984.283.144.578.198.875.222.28.023.622.023 1.017.023h7.258c.395 0 .736 0 1.017-.023.297-.024.592-.078.875-.222.424-.216.768-.56.984-.984.144-.283.198-.578.222-.875.023-.28.023-.622.023-1.017v-3.008c0-.395 0-.736-.023-1.017-.024-.297-.078-.592-.222-.875-.216-.424-.56-.768-.983-.984-.284-.144-.58-.198-.876-.222-.121-.01-.254-.016-.397-.019-.001-.243-.006-.46-.022-.65-.024-.297-.078-.592-.222-.875-.216-.424-.56-.768-.984-.984-.283-.144-.578-.198-.875-.222-.28-.023-.622-.023-1.017-.023Zm1.62 2.75h-6.378c-.395 0-.736 0-1.017.023-.297.024-.592.078-.875.222-.424.216-.768.56-.984.984-.144.283-.198.578-.222.875-.023.28-.023.622-.023 1.017v1.874c-.104-.002-.194-.006-.274-.013-.204-.017-.28-.045-.316-.064-.142-.072-.256-.186-.328-.327-.02-.038-.047-.113-.064-.317-.017-.212-.018-.492-.018-.924v-2.95c0-.432 0-.712.018-.924.017-.204.045-.28.064-.316.072-.142.186-.256.328-.328.037-.02.112-.047.316-.064.212-.017.492-.018.924-.018h7.2c.432 0 .712 0 .924.018.204.017.28.045.317.064.14.072.255.186.327.328.02.037.047.112.064.316.011.138.016.305.017.524Zm-4.499 4.75c0 .928.26 1.725.63 2.262.372.541.785.738 1.12.738.335 0 .748-.197 1.12-.738.37-.537.63-1.334.63-2.262 0-.928-.26-1.725-.63-2.262-.372-.541-.785-.738-1.12-.738-.335 0-.748.197-1.12.738-.37.537-.63 1.334-.63 2.262Z"/></svg>