<svg xmlns="http://www.w3.org/2000/svg" viewBox="0 0 16 16"><path fill-rule="evenodd" d="M12.879 2h-7.258c-.395 0-.736 0-1.017.023-.297.024-.592.078-.875.222-.424.216-.768.56-.984.984-.144.283-.198.578-.222.875-.016.19-.02.407-.022.65-.143.003-.276.009-.397.019-.297.024-.592.078-.875.222-.424.216-.768.56-.984.984-.144.283-.198.578-.222.875-.023.28-.023.622-.023 1.017v3.008c0 .395 0 .736.023 1.017.024.297.078.592.222.875.216.424.56.768.984.984.283.144.578.198.875.222.28.023.622.023 1.017.023h7.258c.395 0 .736 0 1.017-.023.297-.024.592-.078.875-.222.424-.216.768-.56.984-.984.144-.283.198-.578.222-.875.016-.19.02-.407.022-.65.143-.003.276-.009.397-.019.297-.024.592-.078.875-.222.424-.216.768-.56.984-.984.144-.283.198-.578.222-.875.023-.28.023-.622.023-1.017v-3.008c0-.395 0-.736-.023-1.017-.024-.297-.078-.592-.222-.875-.216-.424-.56-.768-.984-.984-.283-.144-.578-.198-.875-.222-.28-.023-.622-.023-1.017-.023Zm-3.707 10.5h1.178c.432 0 .712 0 .924-.018.204-.017.28-.045.317-.064.14-.072.255-.186.327-.327.02-.038.047-.113.064-.317.017-.212.018-.492.018-.924v-2.95c0-.432 0-.712-.018-.924-.017-.204-.045-.28-.064-.316-.072-.142-.186-.256-.327-.328-.038-.02-.113-.047-.317-.064-.212-.017-.492-.018-.924-.018h-1.352c.617.82 1.002 1.972 1.002 3.25 0 1.152-.313 2.204-.828 3Zm-4.67-6.25c-.617.82-1.002 1.972-1.002 3.25 0 1.152.313 2.204.828 3h-1.178c-.432 0-.712 0-.924-.018-.204-.017-.28-.045-.316-.064-.142-.072-.256-.186-.328-.327-.02-.038-.047-.113-.064-.317-.017-.212-.018-.492-.018-.924v-2.95c0-.432 0-.712.018-.924.017-.204.045-.28.064-.316.072-.142.186-.256.328-.328.037-.02.112-.047.316-.064.212-.017.492-.018.924-.018h1.352Zm5.877-1.5h-6.378c.001-.219.006-.386.017-.524.017-.204.045-.28.064-.316.072-.142.186-.256.328-.328.037-.02.112-.047.316-.064.212-.017.492-.018.924-.018h7.2c.432 0 .712 0 .924.018.204.017.28.045.317.064.14.072.255.186.327.328.02.037.047.112.064.316.017.212.018.492.018.924v2.95c0 .432 0 .712-.018.924-.017.204-.045.28-.064.317-.072.14-.186.255-.327.327-.038.02-.113.047-.317.064-.08.007-.17.01-.274.013v-1.874c0-.395 0-.736-.023-1.017-.024-.297-.078-.592-.222-.875-.216-.424-.56-.768-.984-.984-.283-.144-.578-.198-.875-.222-.28-.023-.622-.023-1.017-.023Zm-1.879 4.75c0 .962-.284 1.772-.668 2.304-.385.533-.787.696-1.082.696-.295 0-.697-.163-1.082-.696-.384-.532-.668-1.342-.668-2.304 0-.962.284-1.772.668-2.304.385-.533.787-.696 1.082-.696.295 0 .697.163 1.082.696.384.532.668 1.342.668 2.304Z"/></svg>