<svg xmlns="http://www.w3.org/2000/svg" viewBox="0 0 20 20"><path fill-rule="evenodd" d="M14.879 4h-7.008c-.395 0-.736 0-1.017.023a2.29 2.29 0 0 0-.875.222 2.25 2.25 0 0 0-.984.984 2.29 2.29 0 0 0-.222.875c-.02.252-.023.552-.023.897a8.922 8.922 0 0 0-.646.022 2.29 2.29 0 0 0-.875.222 2.25 2.25 0 0 0-.984.984 2.29 2.29 0 0 0-.222.875c-.023.28-.023.622-.023 1.017v2.758c0 .395 0 .736.023 1.017.024.297.078.592.222.875.216.424.56.768.984.984.283.144.578.198.875.222.28.023.622.023 1.017.023h7.258c.395 0 .736 0 1.017-.023a2.29 2.29 0 0 0 .875-.222 2.25 2.25 0 0 0 .984-.984 2.29 2.29 0 0 0 .222-.875c.02-.253.023-.554.023-.9.143-.003.275-.009.396-.019a2.29 2.29 0 0 0 .875-.222 2.25 2.25 0 0 0 .984-.984 2.29 2.29 0 0 0 .222-.875c.023-.28.023-.622.023-1.017v-2.758c0-.395 0-.736-.023-1.017a2.29 2.29 0 0 0-.222-.875 2.25 2.25 0 0 0-.983-.984 2.304 2.304 0 0 0-.876-.222c-.28-.023-.622-.023-1.017-.023Zm-6.13 3h-2.499c0-.349.003-.587.018-.774.017-.204.045-.28.064-.316a.75.75 0 0 1 .328-.328c.037-.02.112-.047.316-.064.212-.017.492-.018.924-.018h6.95c.432 0 .712 0 .924.018.204.017.28.045.316.064a.75.75 0 0 1 .328.328c.02.037.047.112.064.316.017.212.018.492.018.924v2.7c0 .432 0 .712-.018.924-.017.204-.045.28-.064.317a.75.75 0 0 1-.328.327c-.037.02-.112.047-.316.064-.08.007-.17.01-.274.013v-1.374c0-.395 0-.736-.023-1.017a2.29 2.29 0 0 0-.222-.875 2.25 2.25 0 0 0-.984-.984 2.29 2.29 0 0 0-.875-.222c-.28-.023-.622-.023-1.017-.023h-3.631Zm-2.235 1.5h-1.364c-.432 0-.712 0-.924.018-.204.017-.28.045-.316.064a.75.75 0 0 0-.328.328c-.02.037-.047.112-.064.316-.017.212-.018.492-.018.924v2.7c0 .432 0 .712.018.924.017.204.045.28.064.317a.75.75 0 0 0 .328.327c.037.02.112.047.316.064.212.017.492.018.924.018h1.364c-.475-.796-.764-1.848-.764-3s.289-2.204.764-3Zm4.472 6h1.364c.432 0 .712 0 .924-.018.204-.017.28-.045.317-.064a.75.75 0 0 0 .327-.327c.02-.038.047-.113.064-.317.017-.212.018-.492.018-.924v-2.7c0-.432 0-.712-.018-.924-.017-.204-.045-.28-.064-.316a.75.75 0 0 0-.327-.328c-.038-.02-.113-.047-.317-.064a12.753 12.753 0 0 0-.924-.018h-1.364c.475.796.764 1.848.764 3s-.289 2.204-.764 3Zm-2.237-6h.002c.171 0 .509.105.872.65.357.536.627 1.362.627 2.35s-.27 1.814-.627 2.35c-.364.546-.702.65-.873.65-.17 0-.51-.104-.873-.65-.357-.536-.627-1.362-.627-2.35s.27-1.814.627-2.35c.363-.545.7-.65.872-.65Z"/></svg>