<svg xmlns="http://www.w3.org/2000/svg" viewBox="0 0 20 20"><path fill-rule="evenodd" d="M7.871 4h7.008c.395 0 .736 0 1.017.023.297.024.592.078.875.222.424.216.768.56.984.984.144.283.198.578.222.875.023.28.023.622.023 1.017v2.758c0 .395 0 .736-.023 1.017a2.29 2.29 0 0 1-.222.875 2.25 2.25 0 0 1-.983.984c-.284.144-.58.198-.876.222-.12.01-.253.016-.396.019 0 .346-.002.647-.023.9a2.29 2.29 0 0 1-.222.875 2.25 2.25 0 0 1-.984.984 2.29 2.29 0 0 1-.875.222c-.28.023-.622.023-1.017.023h-7.258c-.395 0-.736 0-1.017-.023a2.29 2.29 0 0 1-.875-.222 2.25 2.25 0 0 1-.984-.984 2.29 2.29 0 0 1-.222-.875c-.023-.28-.023-.622-.023-1.017v-2.758c0-.395 0-.736.023-1.017a2.29 2.29 0 0 1 .222-.875 2.25 2.25 0 0 1 .984-.984 2.29 2.29 0 0 1 .875-.222c.189-.015.405-.02.646-.022 0-.345.002-.645.023-.897a2.29 2.29 0 0 1 .222-.875 2.25 2.25 0 0 1 .984-.984 2.29 2.29 0 0 1 .875-.222c.28-.023.622-.023 1.017-.023Zm7.903 7.482c-.08.007-.17.01-.274.013v-1.374c0-.395 0-.736-.023-1.017a2.29 2.29 0 0 0-.222-.875 2.25 2.25 0 0 0-.984-.984 2.29 2.29 0 0 0-.875-.222c-.28-.023-.622-.023-1.017-.023h-6.129c0-.349.003-.587.018-.774.017-.204.045-.28.064-.316a.75.75 0 0 1 .328-.328c.037-.02.112-.047.316-.064.212-.017.492-.018.924-.018h6.95c.432 0 .712 0 .924.018.204.017.28.045.316.064a.75.75 0 0 1 .328.328c.02.037.047.112.064.316.017.212.018.492.018.924v2.7c0 .432 0 .712-.018.924-.017.204-.045.28-.064.317a.75.75 0 0 1-.328.327c-.037.02-.112.047-.316.064Zm-6.15 2.368c.356-.536.626-1.362.626-2.35s-.27-1.814-.627-2.35c-.364-.546-.702-.65-.873-.65-.17 0-.51.104-.873.65-.357.536-.627 1.362-.627 2.35s.27 1.814.627 2.35c.364.546.702.65.873.65.17 0 .51-.104.873-.65Z"/></svg>