<svg xmlns="http://www.w3.org/2000/svg" viewBox="0 0 20 20"><path d="M9.636 3.191c.182.221.222.526.104.787-.315.691-.49 1.46-.49 2.272 0 3.038 2.462 5.5 5.5 5.5.438 0 .864-.051 1.27-.147.28-.066.57.032.752.253.182.221.222.526.104.787-1.1 2.42-3.54 4.107-6.376 4.107-3.866 0-7-3.134-7-7 0-3.31 2.298-6.083 5.384-6.812.279-.066.57.032.752.253Zm-1.759 1.723c-1.714.932-2.877 2.749-2.877 4.836 0 3.038 2.462 5.5 5.5 5.5 1.707 0 3.234-.778 4.243-2-3.863-.004-6.993-3.136-6.993-7 0-.457.044-.903.127-1.336Z"/></svg>