<svg width="20" height="20" viewBox="0 0 20 20" fill="none" xmlns="http://www.w3.org/2000/svg">
<path fill-rule="evenodd" clip-rule="evenodd" d="M4 3C3.44771 3 3 3.44772 3 4V8.25C3 11.9779 6.02208 15 9.75 15V16.25C9.75 16.6642 10.0858 17 10.5 17C10.9142 17 11.25 16.6642 11.25 16.25V14.9572C14.4866 14.5853 17 11.8362 17 8.5V6.98C17 6.43876 16.5612 6 16.02 6C14.0307 6 12.2577 6.92644 11.1091 8.3714C10.4727 5.30464 7.75548 3 4.5 3H4ZM12.0354 13.2598C14.0456 12.6119 15.5 10.7258 15.5 8.5V7.52802C13.2634 7.7705 11.4907 9.55901 11.2726 11.8028L12.6603 10.0367C12.9162 9.71096 13.3877 9.65438 13.7134 9.91029C14.0391 10.1662 14.0956 10.6377 13.8397 10.9634L12.0354 13.2598ZM6.13033 8.92245L9.23434 13.475C6.57687 13.2159 4.5 10.9755 4.5 8.25V4.5C7.3995 4.5 9.75 6.85051 9.75 9.75V11.5686L7.36967 8.07745C7.13633 7.73521 6.66973 7.64694 6.3275 7.88028C5.98526 8.11362 5.89699 8.58022 6.13033 8.92245Z" fill="#4A4A4A"/>
</svg>
