<svg xmlns="http://www.w3.org/2000/svg" viewBox="0 0 20 20"><path fill-rule="evenodd" d="M3 2c-.552 0-1 .448-1 1v4.75c0 4.197 3.335 7.614 7.5 7.746v1.754c0 .414.336.75.75.75s.75-.336.75-.75v-1.786c3.928-.377 7-3.687 7-7.714v-1.75c0-.552-.448-1-1-1h-.75c-2.175 0-4.109 1.028-5.343 2.625-.536-3.192-3.312-5.625-6.657-5.625h-1.25Zm8.438 11.887c2.884-.555 5.062-3.091 5.062-6.137v-1.25h-.25c-2.9 0-5.25 2.35-5.25 5.25v.307l1.67-2.033c.263-.32.736-.366 1.056-.104.32.263.366.736.103 1.056l-2.39 2.911Zm-5.05-6.783 3.112 5.016v-3.37c0-2.9-2.35-5.25-5.25-5.25h-.75v4.25c0 3.15 2.331 5.757 5.363 6.188l-3.75-6.042c-.219-.352-.11-.815.241-1.033.352-.219.815-.11 1.033.241Z"/></svg>