<svg xmlns="http://www.w3.org/2000/svg" viewBox="0 0 16 16"><path fill-rule="evenodd" d="M2 1c-.552 0-1 .448-1 1v4.25c0 3.728 3.022 6.75 6.75 6.75v1.25c0 .414.336.75.75.75s.75-.336.75-.75v-1.293c3.237-.372 5.75-3.12 5.75-6.457v-1.52c0-.541-.439-.98-.98-.98-1.99 0-3.762.926-4.91 2.371-.637-3.066-3.355-5.371-6.61-5.371h-.5Zm8.035 10.26c2.01-.648 3.465-2.534 3.465-4.76v-.972c-2.237.243-4.01 2.031-4.227 4.275l1.387-1.766c.256-.326.728-.383 1.053-.127.326.256.383.728.127 1.053l-1.805 2.297Zm-5.905-4.338 3.104 4.553c-2.657-.26-4.734-2.5-4.734-5.225v-3.75c2.9 0 5.25 2.35 5.25 5.25v1.819l-2.38-3.492c-.234-.342-.7-.43-1.043-.197-.342.234-.43.7-.197 1.042Z"/></svg>