<svg width="20" height="20" viewBox="0 0 20 20" fill="none" xmlns="http://www.w3.org/2000/svg">
<path fill-rule="evenodd" clip-rule="evenodd" d="M8.54707 12.6904C8.72954 12.7393 8.98955 12.75 10 12.75C11.0104 12.75 11.2705 12.7393 11.4529 12.6904C12.0568 12.5286 12.5286 12.0568 12.6904 11.4529C12.7393 11.2705 12.75 11.0104 12.75 10C12.75 8.98955 12.7393 8.72954 12.6904 8.54707C12.5286 7.94316 12.0568 7.47145 11.4529 7.30963C11.2705 7.26074 11.0104 7.25 10 7.25C8.98955 7.25 8.72954 7.26074 8.54707 7.30963C7.94316 7.47145 7.47145 7.94316 7.30963 8.54707C7.26074 8.72954 7.25 8.98955 7.25 10C7.25 11.0104 7.26074 11.2705 7.30963 11.4529C7.47145 12.0568 7.94316 12.5286 8.54707 12.6904ZM6.10222 8.22354C6 8.60504 6 9.07003 6 10C6 10.93 6 11.395 6.10222 11.7765C6.37962 12.8117 7.18827 13.6204 8.22354 13.8978C8.60504 14 9.07003 14 10 14C10.93 14 11.395 14 11.7765 13.8978C12.8117 13.6204 13.6204 12.8117 13.8978 11.7765C14 11.395 14 10.93 14 10C14 9.07003 14 8.60504 13.8978 8.22354C13.6204 7.18827 12.8117 6.37962 11.7765 6.10222C11.395 6 10.93 6 10 6C9.07003 6 8.60504 6 8.22354 6.10222C7.18827 6.37962 6.37962 7.18827 6.10222 8.22354Z" fill="#4A4A4A"/>
</svg>
