<svg xmlns="http://www.w3.org/2000/svg" viewBox="0 0 16 16"><path d="M4.55 5.25c0-.387.313-.7.7-.7h5.5c.387 0 .7.313.7.7 0 .386-.313.7-.7.7h-5.5c-.387 0-.7-.314-.7-.7Z"/><path d="M5 7.05c-.387 0-.7.313-.7.7 0 .386.313.7.7.7h2.25c.387 0 .7-.314.7-.7 0-.387-.313-.7-.7-.7h-2.25Z"/><path fill-rule="evenodd" d="M1.5 4.25c0-1.519 1.231-2.75 2.75-2.75h7.5c1.519 0 2.75 1.231 2.75 2.75v5.5c0 .199-.079.39-.22.53l-4 4c-.14.141-.331.22-.53.22h-5.5c-1.519 0-2.75-1.231-2.75-2.75v-7.5Zm2.75-1.25c-.69 0-1.25.56-1.25 1.25v7.5c0 .69.56 1.25 1.25 1.25h4.75v-2.25c0-.966.784-1.75 1.75-1.75h2.25v-4.75c0-.69-.56-1.25-1.25-1.25h-7.5Zm7.69 7.5h-1.19c-.138 0-.25.112-.25.25v1.19l1.44-1.44Z"/></svg>