<svg viewBox="0 0 20 20" xmlns="http://www.w3.org/2000/svg"><path d="M6.05 6.75a.7.7 0 0 1 .7-.7h6.5a.7.7 0 0 1 0 1.4h-6.5a.7.7 0 0 1-.7-.7Z" fill="#5C5F62"/><path d="M7 9.05a.7.7 0 0 0 0 1.4h2.25a.7.7 0 1 0 0-1.4h-2.25Z" fill="#5C5F62"/><path fill-rule="evenodd" d="M3 5.75a2.75 2.75 0 0 1 2.75-2.75h8.5a2.75 2.75 0 0 1 2.75 2.75v6a.75.75 0 0 1-.22.53l-4.5 4.5a.75.75 0 0 1-.53.22h-6a2.75 2.75 0 0 1-2.75-2.75v-8.5Zm2.75-1.25c-.69 0-1.25.56-1.25 1.25v8.5c0 .69.56 1.25 1.25 1.25h5.25v-2.75c0-.966.784-1.75 1.75-1.75h2.75v-5.25c0-.69-.56-1.25-1.25-1.25h-8.5Zm8.69 8h-1.69a.25.25 0 0 0-.25.25v1.69l1.94-1.94Z" fill="#5C5F62"/></svg>