<svg xmlns="http://www.w3.org/2000/svg" viewBox="0 0 20 20"><path d="M6.05 6.75c0-.387.313-.7.7-.7h6.5c.387 0 .7.313.7.7 0 .387-.313.7-.7.7h-6.5c-.387 0-.7-.313-.7-.7Z"/><path d="M6.75 9.05c-.387 0-.7.313-.7.7 0 .387.313.7.7.7h3.5c.387 0 .7-.313.7-.7 0-.387-.313-.7-.7-.7h-3.5Z"/><path fill-rule="evenodd" d="M2.5 5.25c0-1.519 1.231-2.75 2.75-2.75h9.5c1.519 0 2.75 1.231 2.75 2.75v6.5c0 .199-.079.39-.22.53l-5 5c-.14.141-.331.22-.53.22h-6.501c-1.52 0-2.749-1.232-2.749-2.75v-9.5Zm12.44 7.25-2.44 2.44v-2.191c0-.137.11-.249.25-.249h2.19Zm-3.94 3.5v-3.251c0-.968.785-1.749 1.75-1.749h3.25v-5.75c0-.69-.56-1.25-1.25-1.25h-9.5c-.69 0-1.25.56-1.25 1.25v9.5c0 .69.559 1.25 1.249 1.25h5.751Z"/></svg>