<svg xmlns="http://www.w3.org/2000/svg" viewBox="0 0 20 20"><path d="M2.5 5.25c0-1.519 1.231-2.75 2.75-2.75h9.5c1.519 0 2.75 1.231 2.75 2.75v5.25c0 .414-.336.75-.75.75s-.75-.336-.75-.75v-5.25c0-.69-.56-1.25-1.25-1.25h-9.5c-.69 0-1.25.56-1.25 1.25v9.5c0 .69.56 1.25 1.25 1.25h5.25c.414 0 .75.336.75.75s-.336.75-.75.75h-5.25c-1.519 0-2.75-1.231-2.75-2.75v-9.5Z"/><path d="M15.75 12.5c.414 0 .75.336.75.75v1.75h1.75c.414 0 .75.336.75.75s-.336.75-.75.75h-1.75v1.75c0 .414-.336.75-.75.75s-.75-.336-.75-.75v-1.75h-1.75c-.414 0-.75-.336-.75-.75s.336-.75.75-.75h1.75v-1.75c0-.414.336-.75.75-.75Z"/><path d="M6.05 6.75c0-.387.313-.7.7-.7h6.5c.387 0 .7.313.7.7 0 .387-.313.7-.7.7h-6.5c-.387 0-.7-.313-.7-.7Z"/><path d="M6.75 9.05c-.387 0-.7.313-.7.7 0 .387.313.7.7.7h3.5c.387 0 .7-.313.7-.7 0-.387-.313-.7-.7-.7h-3.5Z"/></svg>