<svg xmlns="http://www.w3.org/2000/svg" viewBox="0 0 16 16"><path fill-rule="evenodd" d="m5.252 12.424-2.446-.281c-1.855-.213-2.38-2.659-.778-3.616l.065-.038c.873-.521 1.407-1.463 1.407-2.48v-.509c0-2.485 2.015-4.5 4.5-4.5 2.486 0 4.5 2.015 4.5 4.5v.51c0 1.016.535 1.958 1.408 2.479l.065.038c1.602.957 1.076 3.403-.778 3.616l-2.543.292v.365c0 1.491-1.209 2.7-2.7 2.7s-2.7-1.209-2.7-2.7v-.376Zm3.9.076h-2.4v.3c0 .663.537 1.2 1.2 1.2.663 0 1.2-.537 1.2-1.2v-.3Zm-3.152-1.5h4l3.024-.348c.429-.049.55-.615.18-.837l-.065-.038c-.08-.048-.158-.098-.233-.15-.155-.106-.303-.222-.441-.345l-.073-.067c-.878-.82-1.392-1.977-1.392-3.205v-.51c0-1.657-1.343-3-3-3-1.656 0-3 1.343-3 3v.51c0 1.228-.514 2.385-1.391 3.205l-.073.067c-.139.123-.286.239-.44.345-.077.052-.154.102-.234.15l-.065.038c-.371.222-.25.788.18.838l3.023.347Z"/></svg>