<svg xmlns="http://www.w3.org/2000/svg" viewBox="0 0 20 21"><path fill-rule="evenodd" d="m6.891 15.183-3.165-.326c-1.944-.2-2.586-2.715-.976-3.823l.512-.352c.905-.623 1.446-1.652 1.446-2.751v-.08c0-2.923 2.37-5.292 5.292-5.292 2.923 0 5.293 2.37 5.293 5.292v.08c0 1.099.54 2.128 1.446 2.75l.512.353c1.61 1.108.968 3.622-.976 3.823l-3.28.338v.421c0 1.686-1.366 3.053-3.052 3.053-1.685 0-3.052-1.367-3.052-3.053v-.433Zm4.605.07h-3.105v.363c0 .858.695 1.553 1.552 1.553.858 0 1.553-.695 1.553-1.553v-.364Zm-3.857-1.5h4.723l3.759-.388c.557-.058.74-.778.28-1.095l-.512-.353-.037-.025-.01-.006c-1.284-.906-2.05-2.381-2.05-3.955v-.08c0-2.094-1.697-3.792-3.792-3.792-2.094 0-3.792 1.698-3.792 3.792v.08c0 1.574-.765 3.048-2.05 3.955l-.009.006-.037.025-.512.353c-.46.317-.277 1.037.28 1.095l3.76.387Z"/></svg>