<svg xmlns="http://www.w3.org/2000/svg" viewBox="0 0 20 21"><path fill-rule="evenodd" d="m6.891 15.183-3.165-.326c-1.944-.2-2.586-2.715-.976-3.823l.512-.352c.906-.623 1.446-1.652 1.446-2.751v-.08c0-2.923 2.37-5.292 5.293-5.292 2.922 0 5.292 2.37 5.292 5.292v.08c0 1.099.54 2.128 1.446 2.75l.512.353c1.61 1.108.968 3.622-.976 3.823l-3.28.338v.421c0 1.686-1.366 3.053-3.052 3.053-1.685 0-3.052-1.367-3.052-3.053v-.433Zm4.605.07h-3.105v.363c0 .858.695 1.553 1.552 1.553.858 0 1.553-.695 1.553-1.553v-.364Z"/></svg>