<svg viewBox="0 0 20 20" xmlns="http://www.w3.org/2000/svg"><path fill-rule="evenodd" d="M14.5 8.01v-.51a4.5 4.5 0 1 0-9 0v.51a2.887 2.887 0 0 1-1.407 2.479l-.19.113c-1.53.914-1.167 3.227.57 3.626l1.242.286c.509.117 1.021.213 1.537.288a2.7 2.7 0 0 0 5.4.013 19.11 19.11 0 0 0 1.634-.301l1.242-.286c1.737-.399 2.1-2.712.57-3.626l-.19-.113a2.887 2.887 0 0 1-1.408-2.48Zm-7.5 0a4.387 4.387 0 0 1-1.567 3.36l-.033.028a4.39 4.39 0 0 1-.538.379l-.19.113c-.37.221-.282.78.137.876l1.242.286a17.625 17.625 0 0 0 7.899 0l1.242-.286a.478.478 0 0 0 .137-.876l-.19-.113a4.422 4.422 0 0 1-.538-.379l-.033-.027a4.388 4.388 0 0 1-1.568-3.361v-.51a3 3 0 0 0-6 0v.51Zm4.14 6.956a19.177 19.177 0 0 1-2.377-.006 1.2 1.2 0 0 0 2.378.006Z" fill="#5C5F62"/></svg>