<svg xmlns="http://www.w3.org/2000/svg" viewBox="0 0 20 20"><path fill-rule="evenodd" d="m7.252 14.424-2.446-.281c-1.855-.213-2.38-2.659-.778-3.616l.065-.038a2.887 2.887 0 0 0 1.407-2.48v-.509a4.5 4.5 0 0 1 9 0v.51c0 1.016.535 1.958 1.408 2.479l.065.038c1.602.957 1.076 3.403-.778 3.616l-2.543.292v.365a2.7 2.7 0 0 1-5.4 0v-.376Zm3.9.076h-2.4v.3a1.2 1.2 0 0 0 2.4 0v-.3Zm-3.152-1.5h4l3.024-.348a.452.452 0 0 0 .18-.837l-.065-.038a4.414 4.414 0 0 1-.747-.562 4.387 4.387 0 0 1-1.392-3.205v-.51a3 3 0 0 0-6 0v.51a4.387 4.387 0 0 1-2.138 3.767l-.065.038a.452.452 0 0 0 .18.838l3.023.347Z"/></svg>