<svg width="20" height="20" viewBox="0 0 20 20" fill="none" xmlns="http://www.w3.org/2000/svg">
<path fill-rule="evenodd" clip-rule="evenodd" d="M12.2779 3C13.1218 3 13.919 3.38744 14.4403 4.05099L16.527 6.70682C16.6 6.7997 16.6634 6.89973 16.7162 7.00538L16.7955 7.16393C17.4577 8.48829 16.8986 9.98837 15.7437 10.6523C15.7479 10.6843 15.75 10.7169 15.75 10.75V11.5C15.75 13.0188 14.5188 14.25 13 14.25H12.5V15.5H13.25C13.6642 15.5 14 15.8358 14 16.25C14 16.6642 13.6642 17 13.25 17H6.75001C6.3358 17 6.00001 16.6642 6.00001 16.25C6.00001 15.8358 6.3358 15.5 6.75001 15.5H7.50001V14.25H7.00001C5.48123 14.25 4.25001 13.0188 4.25001 11.5V10.75C4.25001 10.7169 4.25216 10.6843 4.25632 10.6523C3.10141 9.98837 2.54235 8.48829 3.20452 7.16393L3.2838 7.00538C3.33662 6.89973 3.40001 6.7997 3.47299 6.70682L5.55971 4.05099C6.08107 3.38744 6.87822 3 7.72208 3H12.2779ZM5.75001 10.9943V11.5C5.75001 12.1904 6.30966 12.75 7.00001 12.75H13C13.6904 12.75 14.25 12.1904 14.25 11.5V10.9943C13.4691 10.9429 12.7553 10.5489 12.295 9.9276C11.7402 10.5907 10.9087 11.0001 10 11.0001C9.09135 11.0001 8.25987 10.5907 7.70501 9.9276C7.24469 10.5489 6.53092 10.9429 5.75001 10.9943ZM8.35153 7.80176C8.28369 7.71057 8.19402 7.63348 8.08542 7.57918C7.89496 7.48395 7.68334 7.47736 7.49749 7.54379C7.32184 7.60657 7.1692 7.73457 7.07919 7.91459L6.60452 8.86393C6.40961 9.25376 6.01118 9.5 5.57534 9.5C4.71996 9.5 4.16363 8.59983 4.54616 7.83475L4.62544 7.6762C4.63299 7.66111 4.64204 7.64682 4.65247 7.63355L6.73919 4.97772C6.97617 4.67611 7.33851 4.5 7.72208 4.5H12.2779C12.6615 4.5 13.0239 4.67611 13.2608 4.97772L15.3476 7.63355C15.358 7.64682 15.367 7.66111 15.3746 7.6762L15.4539 7.83475C15.8364 8.59983 15.2801 9.5 14.4247 9.5C13.9888 9.5 13.5904 9.25376 13.3955 8.86393L12.9208 7.91459C12.8651 7.80304 12.7852 7.71147 12.6908 7.64301C12.6342 7.60188 12.5711 7.5682 12.5025 7.54379C12.3167 7.47736 12.1051 7.48395 11.9146 7.57918C11.806 7.63347 11.7164 7.71055 11.6485 7.80172C11.5983 7.86911 11.5587 7.94598 11.5329 8.03046C11.5284 8.04507 11.5244 8.05982 11.5208 8.07469L11.4468 8.3704C11.2809 9.03431 10.6844 9.50006 10 9.50006C9.31568 9.50006 8.71916 9.03431 8.55318 8.3704L8.47924 8.07463C8.47584 8.06051 8.47203 8.0465 8.46782 8.03261C8.44205 7.9473 8.40222 7.86971 8.35153 7.80176ZM9.00001 14.25V15.5H11V14.25H9.00001Z" fill="#4A4A4A"/>
</svg>
