<svg viewBox="0 0 20 20" xmlns="http://www.w3.org/2000/svg"><path d="M1.791 2.253l-.597 3.583A1 1 0 002.18 7h.893a1.5 1.5 0 001.342-.83L5 5l.585 1.17A1.5 1.5 0 006.927 7h1.146a1.5 1.5 0 001.342-.83L10 5l.585 1.17a1.5 1.5 0 001.342.83h1.146a1.5 1.5 0 001.342-.83L15 5l.585 1.17a1.5 1.5 0 001.342.83h.893a1 1 0 00.986-1.164l-.597-3.583A1.5 1.5 0 0016.729 1H3.271a1.5 1.5 0 00-1.48 1.253zM4 18.5A1.5 1.5 0 015.5 17H8v-3h4v3h2.5a1.5 1.5 0 011.5 1.5v.5H4v-.5z" fill="#5C5F62"/><path d="M2 9h2v4h12V9h2v4.5a1.5 1.5 0 01-1.5 1.5h-13A1.5 1.5 0 012 13.5V9z" fill="#5C5F62"/></svg>