<svg xmlns="http://www.w3.org/2000/svg" viewBox="0 0 20 20"><path d="M13.03 3.53c.293-.293.293-.767 0-1.06-.293-.293-.767-.293-1.06 0l-1.97 1.97-1.97-1.97c-.293-.293-.767-.293-1.06 0-.293.293-.293.767 0 1.06l1.97 1.97-1.97 1.97c-.293.293-.293.767 0 1.06.293.293.767.293 1.06 0l1.97-1.97 1.97 1.97c.293.293.767.293 1.06 0 .293-.293.293-.767 0-1.06l-1.97-1.97 1.97-1.97Z"/><path fill-rule="evenodd" d="m4.363 9.5.049-.18.01-.044.219-1.062c.083-.406-.178-.803-.584-.886-.405-.084-.802.178-.885.583l-.215 1.04-.156.582c-.2.742-.301 1.507-.301 2.275v1.942c0 2.071 1.679 3.75 3.75 3.75h7.5c2.071 0 3.75-1.679 3.75-3.75v-1.942c0-.768-.101-1.533-.3-2.275l-.157-.581-.215-1.04c-.083-.406-.48-.668-.885-.584-.406.083-.667.48-.584.886l.219 1.062.01.044.049.18h-2.747c-.573 0-1.073.39-1.212.947l-.216.864c-.028.11-.128.189-.243.189h-2.438c-.115 0-.215-.078-.243-.19l-.216-.863c-.139-.557-.639-.947-1.212-.947h-2.747Zm-.318 1.5c-.03.268-.045.538-.045.808v1.942c0 1.243 1.007 2.25 2.25 2.25h7.5c1.243 0 2.25-1.007 2.25-2.25v-1.942c0-.27-.015-.54-.045-.808h-2.87l-.168.674c-.195.78-.895 1.326-1.698 1.326h-2.438c-.803 0-1.503-.546-1.698-1.326l-.169-.674h-2.869Z"/></svg>