<svg xmlns="http://www.w3.org/2000/svg" viewBox="0 0 16 16"><path fill-rule="evenodd" d="M3.36 1.508c.41.06.693.442.632.852l-.836 5.64h2.484c.538 0 1.015.344 1.185.855l.159.474c.034.102.13.171.237.171h1.558c.108 0 .203-.069.237-.17l.159-.475c.17-.51.647-.855 1.185-.855h2.484l-.836-5.64c-.06-.41.222-.791.632-.852.41-.06.791.222.852.632l.913 6.167c.063.425.095.853.095 1.282v1.661c0 1.795-1.455 3.25-3.25 3.25h-6.5c-1.795 0-3.25-1.455-3.25-3.25v-1.66c0-.43.032-.858.094-1.283l.914-6.167c.06-.41.442-.693.852-.632Zm-.36 8.081v-.089h2.46l.1.303c.239.715.908 1.197 1.66 1.197h1.56c.752 0 1.421-.482 1.66-1.197l.1-.303h2.46v1.75c0 .967-.784 1.75-1.75 1.75h-6.5c-.966 0-1.75-.783-1.75-1.75v-1.66Z"/><path d="M11.28 2.78c.293-.293.293-.767 0-1.06-.293-.293-.767-.293-1.06 0l-2.97 2.97-1.22-1.22c-.293-.293-.767-.293-1.06 0-.293.293-.293.767 0 1.06l1.75 1.75c.293.293.767.293 1.06 0l3.5-3.5Z"/></svg>