<svg xmlns="http://www.w3.org/2000/svg" viewBox="0 0 16 16"><path d="M3.72 2.28c-.293-.293-.293-.767 0-1.06.293-.293.767-.293 1.06 0l.5.5c.293.293.293.767 0 1.06-.293.293-.767.293-1.06 0l-.5-.5Z"/><path d="M2.013 5.462c-.393-.131-.606-.556-.475-.95.131-.392.556-.604.95-.474l1.5.5c.392.131.604.556.473.95-.13.392-.555.604-.948.474l-1.5-.5Z"/><path d="M12.28 1.22c.293.293.293.767 0 1.06l-.5.5c-.293.293-.768.293-1.06 0-.293-.293-.293-.767 0-1.06l.5-.5c.292-.293.767-.293 1.06 0Z"/><path d="M14.461 4.513c.131.393-.08.818-.474.949l-1.5.5c-.393.13-.818-.082-.949-.475-.13-.393.082-.818.475-.949l1.5-.5c.393-.13.818.082.948.475Z"/><path d="m7.751 3.687-.493 3.457c-.06.41.226.79.636.849.41.058.79-.227.848-.637l.716-5.01c.107-.75-.745-1.255-1.351-.801l-1.807 1.355c-.331.249-.399.719-.15 1.05.248.332.719.399 1.05.15l.551-.413Z"/><path fill-rule="evenodd" d="m3.156 8 .132-.89c.06-.41-.222-.791-.632-.852-.41-.06-.79.222-.852.632l-.21 1.417c-.062.425-.094.853-.094 1.282v1.661c0 1.795 1.455 3.25 3.25 3.25h6.5c1.795 0 3.25-1.455 3.25-3.25v-1.66c0-.43-.032-.858-.095-1.283l-.21-1.417c-.06-.41-.441-.692-.851-.632-.41.06-.693.442-.632.852l.132.89h-2.484c-.538 0-1.015.344-1.186.855l-.158.474c-.034.102-.13.171-.237.171h-1.558c-.108 0-.203-.069-.237-.17l-.159-.475c-.17-.51-.647-.855-1.185-.855h-2.484Zm-.155 1.5-.001.09v1.66c0 .967.783 1.75 1.75 1.75h6.5c.966 0 1.75-.783 1.75-1.75v-1.75h-2.46l-.1.303c-.239.715-.908 1.197-1.66 1.197h-1.56c-.753 0-1.421-.482-1.66-1.197l-.1-.303h-2.46Z"/></svg>