<svg xmlns="http://www.w3.org/2000/svg" viewBox="0 0 20 20"><path fill-rule="evenodd" d="M4.255 5.847a2.75 2.75 0 0 1 2.72-2.347h6.05a2.75 2.75 0 0 1 2.72 2.347l.66 4.46c.063.425.095.853.095 1.282v1.661a3.25 3.25 0 0 1-3.25 3.25h-6.5a3.25 3.25 0 0 1-3.25-3.25v-1.66c0-.43.032-.858.094-1.283l.661-4.46Zm2.72-.847a1.25 1.25 0 0 0-1.236 1.067l-.583 3.933h2.484a1.25 1.25 0 0 1 1.185.855l.159.474a.25.25 0 0 0 .237.171h1.558a.25.25 0 0 0 .237-.17l.159-.475a1.25 1.25 0 0 1 1.185-.855h2.484l-.583-3.933a1.25 1.25 0 0 0-1.236-1.067h-6.05Z"/></svg>