<svg xmlns="http://www.w3.org/2000/svg" viewBox="0 0 20 20"><path fill-rule="evenodd" d="M7.012 2.5c-1.527 0-2.848 1.063-3.175 2.555l-1.135 5.19c-.134.614-.202 1.241-.202 1.87v1.635c0 2.071 1.679 3.75 3.75 3.75h7.5c2.071 0 3.75-1.679 3.75-3.75v-1.635c0-.629-.068-1.256-.202-1.87l-1.135-5.19c-.327-1.492-1.648-2.555-3.175-2.555h-5.976Zm-1.71 2.876c.176-.803.888-1.376 1.71-1.376h5.976c.822 0 1.534.573 1.71 1.376l1.01 4.624h-2.818c-.573 0-1.073.39-1.212.947l-.216.864c-.028.11-.128.189-.243.189h-2.438c-.115 0-.215-.078-.243-.19l-.216-.863c-.139-.557-.639-.947-1.212-.947h-2.819l1.012-4.624Zm-1.276 6.124c-.017.204-.026.41-.026.615v1.635c0 1.243 1.007 2.25 2.25 2.25h7.5c1.243 0 2.25-1.007 2.25-2.25v-1.635c0-.206-.009-.41-.026-.615h-2.888l-.169.674c-.195.78-.895 1.326-1.698 1.326h-2.438c-.803 0-1.503-.546-1.698-1.326l-.169-.674h-2.888Z"/></svg>