<svg  viewBox="0 0 20 20" fill="none" xmlns="http://www.w3.org/2000/svg">
<path d="M3.30586 10.81H7.45079C7.68322 10.81 7.88958 10.9587 7.96308 11.1792L8.13384 11.6915C8.28085 12.1325 8.69356 12.43 9.15842 12.43H10.8416C11.3064 12.43 11.7192 12.1325 11.8662 11.6915L12.0369 11.1792C12.1104 10.9587 12.3168 10.81 12.5492 10.81H16.6941M15.46 4.84479L16.5841 10.2781C16.6944 10.8113 16.75 11.3544 16.75 11.8989V14.25C16.75 15.6307 15.6307 16.75 14.25 16.75H5.75C4.36929 16.75 3.25 15.6307 3.25 14.25V11.8989C3.25 11.3544 3.30559 10.8113 3.41592 10.2781L4.54004 4.84479C4.73219 3.91607 5.55018 3.25 6.49856 3.25H13.5014C14.4498 3.25 15.2678 3.91607 15.46 4.84479Z" stroke="currentColor"  stroke-linejoin="round"/>
</svg>
