<svg xmlns="http://www.w3.org/2000/svg" viewBox="0 0 20 20"><path d="M13 3.25a.75.75 0 0 1 .75-.75h.5a2.75 2.75 0 1 1 0 5.5h-3.94l.72.72a.75.75 0 1 1-1.06 1.06l-2-2a.75.75 0 0 1 0-1.06l2-2a.75.75 0 1 1 1.06 1.06l-.72.72h3.94a1.25 1.25 0 1 0 0-2.5h-.5a.75.75 0 0 1-.75-.75Z"/><path fill-rule="evenodd" d="M5.739 6.067a1.25 1.25 0 0 1 1.237-1.067h.274a.75.75 0 0 0 0-1.5h-.274a2.75 2.75 0 0 0-2.72 2.347l-.662 4.46a8.75 8.75 0 0 0-.094 1.282v1.661a3.25 3.25 0 0 0 3.25 3.25h6.5a3.25 3.25 0 0 0 3.25-3.25v-1.66c0-.43-.032-.858-.095-1.283l-.122-.828a.75.75 0 0 0-1.484.22l.045.301h-2.484a1.25 1.25 0 0 0-1.185.855l-.159.474a.25.25 0 0 1-.237.171h-1.558a.25.25 0 0 1-.237-.17l-.159-.475a1.25 1.25 0 0 0-1.185-.855h-2.484l.583-3.933Zm-.738 5.433-.001.09v1.66c0 .966.784 1.75 1.75 1.75h6.5a1.75 1.75 0 0 0 1.75-1.75v-1.75h-2.46l-.1.303a1.75 1.75 0 0 1-1.66 1.197h-1.56a1.75 1.75 0 0 1-1.66-1.197l-.1-.303h-2.46Z"/></svg>