<svg  viewBox="0 0 18 18" fill="none" xmlns="http://www.w3.org/2000/svg">
<path d="M2.80172 9.75H6.63962C6.85484 9.75 7.04591 9.88771 7.11396 10.0919L7.27208 10.5662C7.40819 10.9746 7.79033 11.25 8.22076 11.25H9.77924C10.2097 11.25 10.5918 10.9746 10.7279 10.5662L10.886 10.0919C10.9541 9.88771 11.1452 9.75 11.3604 9.75H15.1983M14.08 4.34479L15.0841 9.19807C15.1944 9.7313 15.25 10.2744 15.25 10.8189V12.75C15.25 14.1307 14.1307 15.25 12.75 15.25H5.25C3.86929 15.25 2.75 14.1307 2.75 12.75V10.8189C2.75 10.2744 2.80559 9.7313 2.91592 9.19807L3.92004 4.34479C4.11219 3.41607 4.93018 2.75 5.87857 2.75H12.1214C13.0698 2.75 13.8878 3.41607 14.08 4.34479Z" stroke="currentColor"  stroke-linejoin="round"/>
</svg>
