<svg xmlns="http://www.w3.org/2000/svg" viewBox="0 0 20 20"><path d="M15.747 2.354c.195-.196.512-.196.707 0l1.06 1.06c.196.195.196.512 0 .707l-.956.957-1.768-1.767.957-.957Z"/><path d="m14.083 4.018 1.768 1.768-2.831 2.83c-.359.359-.84.568-1.348.585l-.772.025c-.144.005-.263-.113-.258-.258l.026-.772c.016-.507.225-.989.584-1.348l2.83-2.83Z"/><path fill-rule="evenodd" d="M6.976 5c-.62 0-1.146.454-1.237 1.067l-.583 3.933h2.484c.538 0 1.015.344 1.185.855l.159.474c.034.102.13.171.237.171h1.558c.108 0 .203-.069.237-.171l.159-.474c.17-.51.647-.855 1.185-.855h2.484l-.086-.578c-.06-.41.222-.79.632-.851.41-.061.791.222.852.632l.163 1.104c.063.425.095.853.095 1.282v1.661c0 1.795-1.455 3.25-3.25 3.25h-6.5c-1.795 0-3.25-1.455-3.25-3.25v-1.66c0-.43.032-.858.094-1.283l.661-4.46c.2-1.348 1.357-2.347 2.72-2.347h3.775c.414 0 .75.336.75.75s-.336.75-.75.75h-3.774Zm-1.976 6.59v-.09h2.46l.1.303c.239.715.908 1.197 1.66 1.197h1.56c.753 0 1.421-.482 1.66-1.197l.1-.303h2.46v1.75c0 .966-.784 1.75-1.75 1.75h-6.5c-.966 0-1.75-.784-1.75-1.75v-1.66Z"/></svg>