<svg xmlns="http://www.w3.org/2000/svg" viewBox="0 0 16 16"><path d="M10.53 2.78c.293-.293.293-.767 0-1.06-.293-.293-.767-.293-1.06 0l-1.47 1.47-1.47-1.47c-.293-.293-.767-.293-1.06 0-.293.293-.293.767 0 1.06l1.47 1.47-1.47 1.47c-.293.293-.293.767 0 1.06.293.293.767.293 1.06 0l1.47-1.47 1.47 1.47c.293.293.767.293 1.06 0 .293-.293.293-.767 0-1.06l-1.47-1.47 1.47-1.47Z"/><path fill-rule="evenodd" d="m12.844 8-.336-2.265c-.06-.41.222-.791.632-.852.41-.06.791.222.852.632l.413 2.792c.063.425.095.853.095 1.282v1.661c0 1.795-1.455 3.25-3.25 3.25h-6.5c-1.795 0-3.25-1.455-3.25-3.25v-1.66c0-.43.032-.858.094-1.283l.414-2.792c.06-.41.442-.692.852-.632.41.06.693.442.632.852l-.336 2.265h2.484c.538 0 1.015.344 1.185.855l.159.474c.034.102.13.171.237.171h1.558c.108 0 .203-.069.237-.17l.159-.475c.17-.51.647-.855 1.185-.855h2.484Zm-9.843 1.5-.001.09v1.66c0 .967.784 1.75 1.75 1.75h6.5c.966 0 1.75-.783 1.75-1.75v-1.75h-2.46l-.1.303c-.239.715-.908 1.197-1.66 1.197h-1.56c-.752 0-1.421-.482-1.66-1.197l-.1-.303h-2.46Z"/></svg>