<svg xmlns="http://www.w3.org/2000/svg" viewBox="0 0 20 20"><path d="M15.221 1.5c-.414 0-.75.336-.75.75s.336.75.75.75h.529c.966 0 1.75.784 1.75 1.75s-.784 1.75-1.75 1.75h-5.69l1.22-1.22c.293-.293.293-.767 0-1.06-.293-.293-.767-.293-1.06 0l-2.5 2.5c-.293.293-.293.767 0 1.06l2.5 2.5c.293.293.767.293 1.06 0 .293-.293.293-.767 0-1.06l-1.22-1.22h5.69c1.795 0 3.25-1.455 3.25-3.25s-1.455-3.25-3.25-3.25h-.529Z"/><path fill-rule="evenodd" d="M7.012 4c-.822 0-1.534.573-1.71 1.376l-1.01 4.624h2.818c.573 0 1.073.39 1.212.947l.216.864c.028.11.128.189.243.189h2.438c.115 0 .215-.078.243-.19l.216-.863c.139-.557.639-.947 1.212-.947h2.837l-.04-.193c-.083-.405.178-.802.584-.885.405-.084.802.177.886.583l.163.795c.12.581.18 1.172.18 1.765v1.685c0 2.071-1.679 3.75-3.75 3.75h-7.5c-2.071 0-3.75-1.679-3.75-3.75v-1.635c0-.629.068-1.256.202-1.87l1.135-5.19c.327-1.492 1.648-2.555 3.175-2.555h1.363c.414 0 .75.336.75.75s-.336.75-.75.75h-1.363Zm8.966 7.5h-2.892l-.169.674c-.195.78-.895 1.326-1.698 1.326h-2.438c-.803 0-1.503-.546-1.698-1.326l-.169-.674h-2.888c-.017.204-.026.41-.026.615v1.635c0 1.243 1.007 2.25 2.25 2.25h7.5c1.243 0 2.25-1.007 2.25-2.25v-1.685c0-.189-.007-.377-.022-.565Z"/></svg>