<svg xmlns="http://www.w3.org/2000/svg" viewBox="0 0 20 20"><path d="M14.78 2.47c.293.293.293.767 0 1.06l-5 5c-.293.293-.767.293-1.06 0l-2.5-2.5c-.293-.293-.293-.767 0-1.06.293-.293.767-.293 1.06 0l1.97 1.97 4.47-4.47c.293-.293.767-.293 1.06 0Z"/><path fill-rule="evenodd" d="m4.253 10 .165-.705.004-.019.219-1.062c.083-.406-.178-.803-.584-.886-.405-.084-.802.178-.885.583l-.217 1.053-.226.969c-.152.652-.229 1.319-.229 1.988v1.829c0 2.071 1.679 3.75 3.75 3.75h7.5c2.071 0 3.75-1.679 3.75-3.75v-1.829c0-.67-.077-1.336-.229-1.988l-.226-.969-.217-1.053c-.083-.405-.48-.667-.885-.583-.406.083-.667.48-.584.886l.219 1.062.004.02.164.704h-2.856c-.573 0-1.073.39-1.212.947l-.216.864c-.028.11-.128.189-.243.189h-2.438c-.115 0-.215-.078-.243-.19l-.216-.863c-.139-.557-.639-.947-1.212-.947h-2.857Zm-.24 1.5c-.009.14-.013.28-.013.421v1.829c0 1.243 1.007 2.25 2.25 2.25h7.5c1.243 0 2.25-1.007 2.25-2.25v-1.829c0-.14-.004-.28-.012-.421h-2.902l-.169.674c-.195.78-.895 1.326-1.698 1.326h-2.438c-.803 0-1.503-.546-1.698-1.326l-.169-.674h-2.902Z"/></svg>