<svg xmlns="http://www.w3.org/2000/svg" viewBox="0 0 16 16"><path fill-rule="evenodd" d="M2.255 3.847c.2-1.348 1.357-2.347 2.72-2.347h6.05c1.363 0 2.52.999 2.72 2.347l.66 4.46c.063.425.095.853.095 1.282v1.661c0 1.795-1.455 3.25-3.25 3.25h-6.5c-1.795 0-3.25-1.455-3.25-3.25v-1.66c0-.43.032-.858.094-1.283l.661-4.46Zm2.72-.847c-.62 0-1.145.454-1.236 1.067l-.583 3.933h2.484c.538 0 1.015.344 1.185.855l.159.474c.034.102.13.171.237.171h1.558c.108 0 .203-.069.237-.17l.159-.475c.17-.51.647-.855 1.185-.855h2.484l-.583-3.933c-.09-.613-.617-1.067-1.236-1.067h-6.05Z"/></svg>