<svg xmlns="http://www.w3.org/2000/svg" viewBox="0 0 16 16"><path d="M11 1.25c0-.414.336-.75.75-.75h.5c1.519 0 2.75 1.231 2.75 2.75s-1.231 2.75-2.75 2.75h-3.94l.72.72c.293.293.293.767 0 1.06-.293.293-.767.293-1.06 0l-2-2c-.293-.293-.293-.767 0-1.06l2-2c.293-.293.767-.293 1.06 0 .293.293.293.767 0 1.06l-.72.72h3.94c.69 0 1.25-.56 1.25-1.25s-.56-1.25-1.25-1.25h-.5c-.414 0-.75-.336-.75-.75Z"/><path fill-rule="evenodd" d="M3.739 4.067c.09-.613.617-1.067 1.237-1.067h.274c.414 0 .75-.336.75-.75s-.336-.75-.75-.75h-.274c-1.364 0-2.521.999-2.72 2.347l-.662 4.46c-.062.425-.094.853-.094 1.282v1.661c0 1.795 1.455 3.25 3.25 3.25h6.5c1.795 0 3.25-1.455 3.25-3.25v-1.66c0-.43-.032-.858-.095-1.283l-.122-.828c-.06-.41-.442-.692-.852-.632-.41.061-.693.442-.632.852l.045.301h-2.484c-.538 0-1.015.344-1.185.855l-.159.474c-.034.102-.13.171-.237.171h-1.558c-.108 0-.203-.069-.237-.17l-.159-.475c-.17-.51-.647-.855-1.185-.855h-2.484l.583-3.933Zm-.738 5.433-.001.09v1.66c0 .966.784 1.75 1.75 1.75h6.5c.966 0 1.75-.784 1.75-1.75v-1.75h-2.46l-.1.303c-.239.715-.908 1.197-1.66 1.197h-1.56c-.752 0-1.421-.482-1.66-1.197l-.1-.303h-2.46Z"/></svg>