<svg xmlns="http://www.w3.org/2000/svg" viewBox="0 0 20 21"><path fill-rule="evenodd" d="M6.984 3c-1.627 0-3.039 1.12-3.409 2.705l-1.09 4.67c-.156.671-.235 1.357-.235 2.046v2.079c0 2.21 1.79 4 4 4h7.5c2.21 0 4-1.79 4-4v-2.079c0-.688-.079-1.375-.235-2.045l-1.09-4.671c-.37-1.584-1.782-2.705-3.409-2.705h-6.032Zm-1.46 3.16c.157-.68.763-1.16 1.46-1.16h6.032c.697 0 1.303.48 1.46 1.16l1.072 4.59h-2.658c-.573 0-1.073.39-1.212.947l-.216.864c-.028.11-.128.189-.243.189h-2.438c-.115 0-.215-.078-.243-.19l-.216-.863c-.139-.557-.639-.947-1.212-.947h-2.658l1.071-4.59Z" clip-rule="evenodd"/></svg>