<svg xmlns="http://www.w3.org/2000/svg" viewBox="0 0 20 21"><path fill-rule="evenodd" d="M7.012 3c-1.645 0-3.067 1.145-3.419 2.752l-1.135 5.19c-.138.631-.208 1.276-.208 1.923v1.635c0 2.21 1.79 4 4 4h7.5c2.21 0 4-1.79 4-4v-1.635c0-.647-.07-1.292-.208-1.924l-1.135-5.189c-.352-1.607-1.774-2.752-3.42-2.752h-5.975Zm-1.465 3.18c.15-.69.76-1.18 1.465-1.18h5.976c.705 0 1.315.49 1.465 1.18l.945 4.32h-2.508c-.688 0-1.288.468-1.455 1.136l-.216.864h-2.438l-.216-.864c-.167-.668-.767-1.136-1.455-1.136h-2.508l.945-4.32Zm-1.287 6.32c-.007.121-.01.243-.01.365v1.635c0 1.105.895 2 2 2h7.5c1.105 0 2-.895 2-2v-1.635c0-.122-.003-.244-.01-.365h-2.46l-.12.485c-.223.89-1.023 1.515-1.94 1.515h-2.44c-.917 0-1.717-.625-1.94-1.515l-.12-.485h-2.46Z" clip-rule="evenodd"/></svg>