<svg xmlns="http://www.w3.org/2000/svg" viewBox="0 0 20 20"><path fill="#5c5f62" d="M8.002 8.993h7a1 1 0 1 1 0 2h-7a1 1 0 0 1 0-2Zm-4-2.521H4.7V4.53l-.65.15v-.53L4.705 4h.602v2.472h.697v.52h-2v-.52h-.002Zm4-1.479h7a1 1 0 1 1 0 2h-7a1 1 0 0 1 0-2Zm-3.315 5.481h1.35v.512H4.002v-.496l.343-.335.743-.734c.107-.112.185-.212.232-.3a.517.517 0 0 0 .07-.258.362.362 0 0 0-.13-.304c-.086-.072-.208-.107-.367-.107-.113 0-.24.022-.38.063a2.53 2.53 0 0 0-.442.18v-.54c.154-.052.304-.09.45-.118.14-.026.28-.04.423-.04.34 0 .606.073.8.218.19.137.3.36.29.594a.828.828 0 0 1-.062.325 1.348 1.348 0 0 1-.217.337c-.076.088-.284.29-.625.602l-.44.406v-.004l-.003-.001Zm3.315 2.519h7a1 1 0 0 1 0 2h-7a1 1 0 0 1 0-2Zm-3.12.647h-.328v-.503h.328c.152 0 .27-.028.354-.084.08-.05.13-.14.126-.237a.29.29 0 0 0-.126-.25.606.606 0 0 0-.354-.09c-.126 0-.25.015-.374.04-.14.03-.278.07-.413.12v-.52c.138-.038.28-.07.42-.09.14-.022.272-.033.4-.033.327 0 .58.066.764.2.178.124.28.33.273.548a.57.57 0 0 1-.158.42.777.777 0 0 1-.45.215c.22.036.39.118.506.246.12.14.183.322.175.506 0 .28-.096.493-.29.64-.19.147-.47.22-.838.22-.305 0-.608-.048-.897-.143v-.53c.13.062.27.108.42.14.15.032.31.046.476.046.14.007.278-.03.394-.108a.342.342 0 0 0 .145-.29.42.42 0 0 0-.145-.342c-.097-.08-.234-.12-.41-.12l.002-.001Z"/></svg>