<svg xmlns="http://www.w3.org/2000/svg" viewBox="0 0 20 20"><path d="M17.497.604c.195-.196.512-.196.707 0l1.06 1.06c.196.196.196.512 0 .707l-.956.957-1.768-1.767.957-.957Z"/><path d="m15.833 2.268 1.768 1.768-4.831 4.83c-.359.359-.84.568-1.348.585l-.772.025c-.144.005-.263-.113-.258-.258l.026-.772c.016-.507.225-.989.584-1.348l4.83-4.83Z"/><path d="M5.28 5.352c.184-.792.89-1.352 1.704-1.352h5.266c.414 0 .75-.336.75-.75s-.336-.75-.75-.75h-5.266c-1.51 0-2.822 1.04-3.165 2.512l-1.09 4.67c-.152.653-.229 1.32-.229 1.989v2.079c0 2.071 1.679 3.75 3.75 3.75h7.5c2.071 0 3.75-1.679 3.75-3.75v-1.942c0-.768-.101-1.533-.3-2.275l-.157-.581-.215-1.04c-.083-.406-.48-.668-.885-.584-.406.083-.667.48-.584.886l.219 1.062.01.044.163.603.02.077h-2.88c-.574 0-1.074.39-1.213.947l-.216.864c-.028.111-.128.189-.243.189h-2.438c-.115 0-.215-.078-.243-.19l-.216-.863c-.139-.557-.639-.947-1.212-.947h-2.915l1.085-4.648Z"/></svg>