<svg xmlns="http://www.w3.org/2000/svg" viewBox="0 0 20 20"><path d="M17.497.604c.195-.196.512-.196.707 0l1.06 1.06c.196.196.196.512 0 .707l-.956.957-1.768-1.767.957-.957Z"/><path d="m15.833 2.268 1.768 1.768-4.831 4.83c-.359.359-.84.568-1.348.585l-.772.025c-.144.005-.263-.113-.258-.258l.026-.772c.016-.507.225-.989.584-1.348l4.83-4.83Z"/><path fill-rule="evenodd" d="M6.984 4c-.813 0-1.52.56-1.704 1.352l-1.085 4.648h2.915c.573 0 1.073.39 1.212.947l.216.864c.028.111.128.189.243.189h2.438c.115 0 .215-.078.243-.19l.216-.863c.139-.557.639-.947 1.212-.947h2.88c-.006-.026-.012-.051-.02-.077l-.162-.603-.01-.044-.219-1.062c-.083-.406.178-.803.584-.886.405-.084.802.178.885.583l.215 1.04.156.582c.2.742.301 1.507.301 2.275v1.942c0 2.071-1.679 3.75-3.75 3.75h-7.5c-2.071 0-3.75-1.679-3.75-3.75v-2.079c0-.67.077-1.336.229-1.988l1.09-4.671c.343-1.471 1.654-2.512 3.165-2.512h5.266c.414 0 .75.336.75.75s-.336.75-.75.75h-5.266Zm-2.984 7.671c0-.057 0-.114.002-.171h2.912l.169.675c.195.778.895 1.325 1.698 1.325h2.438c.803 0 1.503-.546 1.698-1.325l.169-.675h2.907c.005.103.007.205.007.308v1.942c0 1.243-1.007 2.25-2.25 2.25h-7.5c-1.243 0-2.25-1.007-2.25-2.25v-2.079Z"/></svg>