<svg xmlns="http://www.w3.org/2000/svg" viewBox="0 0 20 20"><path d="M4.629 3.29c-.298-.289-.306-.763-.018-1.061.288-.298.762-.306 1.06-.018l.85.821c.298.288.306.763.018 1.06-.288.298-.762.307-1.06.019l-.85-.822Z"/><path d="M2.46 6.87c-.382-.16-.562-.6-.401-.982.16-.382.6-.561.982-.4l2.55 1.07c.381.161.56.6.4.983-.16.381-.6.56-.982.4l-2.55-1.071Z"/><path d="M15.39 2.229c.287.298.279.772-.019 1.06l-.85.822c-.298.288-.773.28-1.06-.018-.288-.298-.28-.773.018-1.06l.85-.822c.298-.288.772-.28 1.06.018Z"/><path d="M17.941 5.888c.16.382-.019.822-.4.982l-2.55 1.071c-.382.16-.822-.019-.982-.4-.16-.382.019-.822.4-.982l2.55-1.072c.382-.16.822.02.982.401Z"/><path d="m9.99 5.194-.732 4.946c-.06.41.222.791.632.852.41.06.791-.222.852-.632l.964-6.51c.112-.75-.743-1.26-1.35-.804l-1.806 1.354c-.331.249-.399.719-.15 1.05.249.331.719.399 1.05.15l.54-.406Z"/><path fill-rule="evenodd" d="M3.73 8.922c.405.083.666.48.583.885l-.04.193h2.837c.573 0 1.073.39 1.212.947l.216.864c.028.11.128.189.243.189h2.438c.115 0 .215-.078.243-.19l.216-.863c.139-.557.639-.947 1.212-.947h2.837l-.04-.193c-.083-.405.178-.802.584-.885.405-.084.802.177.886.583l.104.51c.159.596.239 1.21.239 1.826v1.909c0 2.071-1.679 3.75-3.75 3.75h-7.5c-2.071 0-3.75-1.679-3.75-3.75v-1.909c0-.616.08-1.23.239-1.826l.105-.51c.083-.406.48-.667.885-.583Zm12.26 2.578h-2.904l-.169.674c-.195.78-.895 1.326-1.698 1.326h-2.438c-.803 0-1.503-.546-1.698-1.326l-.169-.674h-2.904c-.007.114-.01.227-.01.341v1.909c0 1.243 1.007 2.25 2.25 2.25h7.5c1.243 0 2.25-1.007 2.25-2.25v-1.909c0-.114-.004-.227-.01-.341Z"/></svg>