<svg xmlns="http://www.w3.org/2000/svg" viewBox="0 0 16 16"><path d="m6.579 3.615-.867 1.409c-.182.296-.504.476-.852.476h-1.86c-.414 0-.75-.336-.75-.75 0-.415.336-.75.75-.75h1.58l1.428-2.32c.486-.79 1.693-.55 1.84.367l.59 3.694.864-1.296c.185-.278.497-.445.832-.445h2.866c.414 0 .75.335.75.75 0 .414-.336.75-.75.75h-2.599l-1.423 2.135c-.505.757-1.676.501-1.82-.397l-.58-3.623Z"/><path fill-rule="evenodd" d="m3.156 8 .132-.89c.06-.41-.222-.791-.632-.852-.41-.06-.79.222-.852.632l-.21 1.417c-.062.425-.094.853-.094 1.282v1.661c0 1.795 1.455 3.25 3.25 3.25h6.5c1.795 0 3.25-1.455 3.25-3.25v-1.66c0-.43-.032-.858-.095-1.283l-.21-1.417c-.06-.41-.441-.692-.851-.632-.41.06-.693.442-.632.852l.132.89h-2.484c-.538 0-1.015.344-1.185.855l-.159.474c-.034.102-.13.171-.237.171h-1.558c-.108 0-.203-.069-.237-.17l-.159-.475c-.17-.51-.647-.855-1.185-.855h-2.484Zm-.155 1.5-.001.09v1.66c0 .967.784 1.75 1.75 1.75h6.5c.966 0 1.75-.783 1.75-1.75v-1.75h-2.46l-.1.303c-.239.715-.908 1.197-1.66 1.197h-1.56c-.752 0-1.421-.482-1.66-1.197l-.1-.303h-2.46Z"/></svg>