<svg xmlns="http://www.w3.org/2000/svg" viewBox="0 0 16 16"><path fill-rule="evenodd" d="M4.976 1.5c-1.364 0-2.521.999-2.72 2.347l-.662 4.46c-.062.425-.094.853-.094 1.282v1.661c0 1.795 1.455 3.25 3.25 3.25h6.5c1.795 0 3.25-1.455 3.25-3.25v-1.66c0-.43-.032-.858-.095-1.283l-.66-4.46c-.2-1.348-1.357-2.347-2.72-2.347h-6.05Zm-1.237 2.567c.09-.613.617-1.067 1.237-1.067h6.048c.62 0 1.146.454 1.237 1.067l.583 3.933h-2.484c-.538 0-1.015.344-1.185.855l-.159.474c-.034.102-.13.171-.237.171h-1.558c-.108 0-.203-.069-.237-.17l-.159-.475c-.17-.51-.647-.855-1.185-.855h-2.484l.583-3.933Zm-.738 5.433-.001.09v1.66c0 .966.784 1.75 1.75 1.75h6.5c.966 0 1.75-.784 1.75-1.75v-1.75h-2.46l-.1.303c-.239.715-.908 1.197-1.66 1.197h-1.56c-.752 0-1.421-.482-1.66-1.197l-.1-.303h-2.46Z"/></svg>