<svg xmlns="http://www.w3.org/2000/svg" viewBox="0 0 16 16"><path d="M4.75 7c-.414 0-.75.336-.75.75s.336.75.75.75h.5c.414 0 .75-.336.75-.75s-.336-.75-.75-.75h-.5Z"/><path d="M6.75 7.75c0-.414.336-.75.75-.75h.5c.414 0 .75.336.75.75s-.336.75-.75.75h-.5c-.414 0-.75-.336-.75-.75Z"/><path d="M7.5 4.5c-.414 0-.75.336-.75.75s.336.75.75.75h.5c.414 0 .75-.336.75-.75s-.336-.75-.75-.75h-.5Z"/><path d="M4 5.25c0-.414.336-.75.75-.75h.5c.414 0 .75.336.75.75s-.336.75-.75.75h-.5c-.414 0-.75-.336-.75-.75Z"/><path fill-rule="evenodd" d="M1.5 3.25c0-.966.784-1.75 1.75-1.75h6.25c.966 0 1.75.784 1.75 1.75v.5h1.5c.966 0 1.75.784 1.75 1.75v7.25c0 .966-.784 1.75-1.75 1.75h-9.5c-.966 0-1.75-.784-1.75-1.75v-9.5Zm4.25 9.75h1.25v-1.25c0-.138-.112-.25-.25-.25h-.75c-.138 0-.25.112-.25.25v1.25Zm2.75 0v-1.25c0-.966-.784-1.75-1.75-1.75h-.75c-.966 0-1.75.784-1.75 1.75v1.25h-1c-.138 0-.25-.112-.25-.25v-9.5c0-.138.112-.25.25-.25h6.25c.138 0 .25.112.25.25v9.5c0 .138-.112.25-.25.25h-1Zm2.75-.25v-7.5h1.5c.138 0 .25.112.25.25v7.25c0 .138-.112.25-.25.25h-1.518c.012-.082.018-.165.018-.25Z"/></svg>