<svg viewBox="0 0 20 20" xmlns="http://www.w3.org/2000/svg"><path d="M7 6.5a.75.75 0 0 0-1.5 0v.5a.75.75 0 0 0 1.5 0v-.5Z" fill="#5C5F62"/><path d="M6.25 9a.75.75 0 0 1 .75.75v.5a.75.75 0 0 1-1.5 0v-.5a.75.75 0 0 1 .75-.75Z" fill="#5C5F62"/><path d="M7 13a.75.75 0 0 0-1.5 0v.5a.75.75 0 0 0 1.5 0v-.5Z" fill="#5C5F62"/><path d="M8.75 5.75a.75.75 0 0 1 .75.75v.5a.75.75 0 0 1-1.5 0v-.5a.75.75 0 0 1 .75-.75Z" fill="#5C5F62"/><path d="M9.5 9.75a.75.75 0 0 0-1.5 0v.5a.75.75 0 0 0 1.5 0v-.5Z" fill="#5C5F62"/><path d="M8.75 12.25a.75.75 0 0 1 .75.75v.5a.75.75 0 0 1-1.5 0v-.5a.75.75 0 0 1 .75-.75Z" fill="#5C5F62"/><path d="M13.75 9a.75.75 0 0 1 .75.75v.5a.75.75 0 0 1-1.5 0v-.5a.75.75 0 0 1 .75-.75Z" fill="#5C5F62"/><path d="M14.5 13a.75.75 0 0 0-1.5 0v.5a.75.75 0 0 0 1.5 0v-.5Z" fill="#5C5F62"/><path fill-rule="evenodd" d="M3 5a2 2 0 0 1 2-2h5a2 2 0 0 1 2 2v1.25h3.25c.966 0 1.75.784 1.75 1.75v7.25a1.75 1.75 0 0 1-1.75 1.75h-4.75v-.063c-.16.041-.327.063-.5.063h-5a2 2 0 0 1-2-2v-10Zm2-.5h5a.5.5 0 0 1 .5.5v10a.5.5 0 0 1-.5.5h-5a.5.5 0 0 1-.5-.5v-10a.5.5 0 0 1 .5-.5Zm6.937 11h3.313a.25.25 0 0 0 .25-.25v-7.25a.25.25 0 0 0-.25-.25h-3.25v7.25c0 .173-.022.34-.063.5Z" fill="#5C5F62"/></svg>