<svg viewBox="0 0 20 20" xmlns="http://www.w3.org/2000/svg"><path fill-rule="evenodd" d="M14 5a1 1 0 0 0-1 1v12a1 1 0 0 0 1 1h4a1 1 0 0 0 1-1V6a1 1 0 0 0-1-1h-4Zm2 4h-1v2h1V9Zm0 4h-1v2h1v-2Z" fill="#5C5F62"/><path fill="#5C5F62" d="M5 5h2v2H5zm0 3h2v2H5zm0 3h2v2H5zm4-6h2v2H9zm0 3h2v2H9zm0 3h2v2H9z"/><path fill-rule="evenodd" d="M3 17V3h10v14H9v2h5a1 1 0 0 0 1-1V2a1 1 0 0 0-1-1H2a1 1 0 0 0-1 1v16a1 1 0 0 0 1 1h5v-2H3Z" fill="#5C5F62"/><path d="M6 19v-3a1 1 0 0 1 1-1h2a1 1 0 0 1 1 1v3" stroke="#5C5F62" stroke-width="2"/></svg>