<svg xmlns="http://www.w3.org/2000/svg" viewBox="0 0 20 20"><path d="M6 9c-.414 0-.75.336-.75.75s.336.75.75.75h.5c.414 0 .75-.336.75-.75s-.336-.75-.75-.75h-.5Z"/><path d="M8.5 9.75c0-.414.336-.75.75-.75h.5c.414 0 .75.336.75.75s-.336.75-.75.75h-.5c-.414 0-.75-.336-.75-.75Z"/><path d="M9.25 6c-.414 0-.75.336-.75.75s.336.75.75.75h.5c.414 0 .75-.336.75-.75s-.336-.75-.75-.75h-.5Z"/><path d="M5.25 6.75c0-.414.336-.75.75-.75h.5c.414 0 .75.336.75.75s-.336.75-.75.75h-.5c-.414 0-.75-.336-.75-.75Z"/><path fill-rule="evenodd" d="M2.5 4.25c0-.966.784-1.75 1.75-1.75h7.5c.966 0 1.75.784 1.75 1.75v1.75h2.25c.966 0 1.75.784 1.75 1.75v8c0 .966-.784 1.75-1.75 1.75h-11.5c-.966 0-1.75-.784-1.75-1.75v-11.5Zm4.5 11.75h2v-2.25c0-.138-.112-.25-.25-.25h-1.5c-.138 0-.25.112-.25.25v2.25Zm3.5 0v-2.25c0-.966-.784-1.75-1.75-1.75h-1.5c-.966 0-1.75.784-1.75 1.75v2.25h-1.25c-.138 0-.25-.112-.25-.25v-11.5c0-.138.112-.25.25-.25h7.5c.138 0 .25.112.25.25v11.5c0 .138-.112.25-.25.25h-1.25Zm3-.25v-8.25h2.25c.138 0 .25.112.25.25v8c0 .138-.112.25-.25.25h-2.268c.012-.082.018-.165.018-.25Z"/></svg>