<svg xmlns="http://www.w3.org/2000/svg" viewBox="0 0 16 16"><path d="M1.75 2c-.414 0-.75.336-.75.75s.336.75.75.75h12.5c.414 0 .75-.336.75-.75s-.336-.75-.75-.75h-12.5Z"/><path d="M8.75 5.5c-.414 0-.75.336-.75.75s.336.75.75.75h5.5c.414 0 .75-.336.75-.75s-.336-.75-.75-.75h-5.5Z"/><path d="M8 9.75c0-.414.336-.75.75-.75h5.5c.414 0 .75.336.75.75s-.336.75-.75.75h-5.5c-.414 0-.75-.336-.75-.75Z"/><path d="M1.75 12.5c-.414 0-.75.336-.75.75s.336.75.75.75h12.5c.414 0 .75-.336.75-.75s-.336-.75-.75-.75h-12.5Z"/><path d="M6 10.407c0 .473-.55.755-.96.493l-3.765-2.408c-.367-.234-.367-.75 0-.985l3.765-2.407c.41-.262.96.02.96.493v4.814Z"/></svg>