<svg xmlns="http://www.w3.org/2000/svg" viewBox="0 0 20 20"><path d="M18 3.25c0-.414-.336-.75-.75-.75h-14.5c-.414 0-.75.336-.75.75s.336.75.75.75h14.5c.414 0 .75-.336.75-.75Z"/><path d="M8 13.21c0 .63-.66 1.006-1.152.656l-4.518-3.21c-.44-.312-.44-1 0-1.313l4.518-3.21c.493-.349 1.152.027 1.152.658v6.418Z"/><path d="M17.25 7c.414 0 .75.336.75.75s-.336.75-.75.75h-7c-.414 0-.75-.336-.75-.75s.336-.75.75-.75h7Z"/><path d="M18 12.25c0-.414-.336-.75-.75-.75h-7c-.414 0-.75.336-.75.75s.336.75.75.75h7c.414 0 .75-.336.75-.75Z"/><path d="M17.25 16c.414 0 .75.336.75.75s-.336.75-.75.75h-14.5c-.414 0-.75-.336-.75-.75s.336-.75.75-.75h14.5Z"/></svg>