<svg xmlns="http://www.w3.org/2000/svg" viewBox="0 0 16 16"><path d="M11.22 2.03c-.293-.293-.293-.767 0-1.06.293-.293.767-.293 1.06 0l2.5 2.5c.293.293.293.767 0 1.06l-2.5 2.5c-.293.293-.767.293-1.06 0-.293-.293-.293-.767 0-1.06l1.22-1.22h-1.44c-1.243 0-2.25 1.007-2.25 2.25v3.75c0 .414-.336.75-.75.75s-.75-.336-.75-.75v-3.75c0-2.071 1.679-3.75 3.75-3.75h1.44l-1.22-1.22Z"/><path d="M13.75 11.25c.414 0 .75.336.75.75v.51c0 1.243-1.007 2.25-2.25 2.25h-8.5c-1.243 0-2.25-1.007-2.25-2.25v-.51c0-.414.336-.75.75-.75s.75.336.75.75v.51c0 .414.336.75.75.75h8.5c.414 0 .75-.336.75-.75v-.51c0-.414.336-.75.75-.75Z"/></svg>