<svg xmlns="http://www.w3.org/2000/svg" viewBox="0 0 20 20"><path d="M13.97 1.97c-.293.293-.293.767 0 1.06l1.719 1.72h-2.189c-2.347 0-4.25 1.902-4.25 4.25v4.5c0 .414.336.75.75.75s.75-.336.75-.75v-4.5c0-1.52 1.231-2.75 2.75-2.75h2.19l-1.72 1.72c-.293.293-.293.767 0 1.06.293.293.767.293 1.06 0l3-3c.293-.293.293-.767 0-1.06l-3-3c-.293-.293-.767-.293-1.06 0Z"/><path d="M18 14.75c0-.414-.336-.75-.75-.75s-.75.336-.75.75v.5c0 .69-.56 1.25-1.25 1.25h-10.5c-.69 0-1.25-.56-1.25-1.25v-.5c0-.414-.336-.75-.75-.75s-.75.336-.75.75v.5c0 1.519 1.231 2.75 2.75 2.75h10.5c1.519 0 2.75-1.231 2.75-2.75v-.5Z"/></svg>