<svg xmlns="http://www.w3.org/2000/svg" viewBox="0 0 16 16"><path fill-rule="evenodd" d="M5 7c-.552 0-1 .448-1 1v3c0 .552.448 1 1 1h4c.552 0 1-.448 1-1v-3c0-.552-.448-1-1-1h-4Zm.5 3.5v-2h3v2h-3Z"/><path fill-rule="evenodd" d="M3.315 2.45c.421-.596 1.106-.95 1.836-.95h5.796c.753 0 1.455.376 1.872 1.002l1.22 1.828c.3.452.461.983.461 1.526v6.894c0 .966-.784 1.75-1.75 1.75h-9.5c-.966 0-1.75-.784-1.75-1.75v-6.863c0-.57.177-1.125.506-1.59l1.309-1.848Zm1.836.55c-.244 0-.472.118-.612.316l-.839 1.184h3.55v-1.5h-2.1Zm3.599 1.5h3.599l-.778-1.166c-.139-.209-.373-.334-.624-.334h-2.197v1.5Zm4.25 1.5h-10v6.75c0 .138.112.25.25.25h9.5c.138 0 .25-.112.25-.25v-6.75Z"/></svg>