<svg  viewBox="0 0 20 20" fill="none" xmlns="http://www.w3.org/2000/svg">
<path d="M3.25 6.75V15.75C3.25 16.3023 3.69772 16.75 4.25 16.75H9.25M3.25 6.75L5.80102 3.77381C6.08599 3.44134 6.50202 3.25 6.9399 3.25H10M3.25 6.75H10M16.75 6.75L14.199 3.77381C13.914 3.44134 13.498 3.25 13.0601 3.25H10M16.75 6.75V10.75M16.75 6.75H10M10 3.25V6.75M12.25 16.75L13.75 18.25M12.25 16.75L13.75 15.25M12.25 16.75H15.25C16.6307 16.75 17.75 15.6307 17.75 14.25V13.5M10.75 10.75V12.75C10.75 13.3023 10.3023 13.75 9.75 13.75H7.25C6.69772 13.75 6.25 13.3023 6.25 12.75V10.75C6.25 10.1977 6.69772 9.75 7.25 9.75H9.75C10.3023 9.75 10.75 10.1977 10.75 10.75Z" stroke="currentColor"  stroke-linecap="round"/>
</svg>
