<svg xmlns="http://www.w3.org/2000/svg" viewBox="0 0 20 20"><path fill-rule="evenodd" d="M7 9a1 1 0 0 0-1 1v3a1 1 0 0 0 1 1h4a1 1 0 0 0 1-1v-3a1 1 0 0 0-1-1h-4Zm.5 3.5v-2h3v2h-3Z"/><path fill-rule="evenodd" d="M5.315 4.45a2.25 2.25 0 0 1 1.836-.95h5.796a2.25 2.25 0 0 1 1.872 1.002l1.22 1.828c.3.452.461.983.461 1.526v6.894a1.75 1.75 0 0 1-1.75 1.75h-9.5a1.75 1.75 0 0 1-1.75-1.75v-6.863c0-.57.177-1.125.506-1.59l1.309-1.848Zm1.836.55a.75.75 0 0 0-.612.316l-.839 1.184h3.55v-1.5h-2.1Zm3.599 1.5h3.599l-.778-1.166a.75.75 0 0 0-.624-.334h-2.197v1.5Zm4.25 1.5h-10v6.75c0 .138.112.25.25.25h9.5a.25.25 0 0 0 .25-.25v-6.75Z"/></svg>