<svg xmlns="http://www.w3.org/2000/svg" viewBox="0 0 20 20"><path fill-rule="evenodd" d="M6.592 2.5c-.936 0-1.807.476-2.313 1.263l-1.342 2.087c-.285.444-.437.96-.437 1.487v7.413c0 1.519 1.231 2.75 2.75 2.75h9.5c1.519 0 2.75-1.231 2.75-2.75v-7.413c0-.527-.152-1.043-.437-1.487l-1.342-2.087c-.506-.787-1.377-1.263-2.313-1.263h-6.816Zm-1.052 2.074c.23-.358.627-.574 1.052-.574h2.658v2h-4.626l.916-1.426Zm9.836 1.426h-4.626v-2h2.658c.425 0 .822.216 1.052.574l.916 1.426Zm-9.376 4.25c0-.414.336-.75.75-.75h4c.414 0 .75.336.75.75v3c0 .414-.336.75-.75.75h-4c-.414 0-.75-.336-.75-.75v-3Z"/></svg>