<svg  viewBox="0 0 18 18" fill="none" xmlns="http://www.w3.org/2000/svg">
<path d="M2.75 6.25V14.25C2.75 14.8023 3.19772 15.25 3.75 15.25H8.25M2.75 6.25L4.80133 3.37814C5.08289 2.98395 5.5375 2.75 6.02193 2.75H9M2.75 6.25H9M15.25 6.25L13.1987 3.37814C12.9171 2.98395 12.4625 2.75 11.9781 2.75H9M15.25 6.25V9.75M15.25 6.25H9M9 2.75V6.25M10.75 15.25L12.25 16.75M10.75 15.25L12.25 13.75M10.75 15.25H13.75C15.1307 15.25 16.25 14.1307 16.25 12.75V12M9.75 9.75V11.75C9.75 12.3023 9.30228 12.75 8.75 12.75H6.25C5.69772 12.75 5.25 12.3023 5.25 11.75V9.75C5.25 9.19772 5.69772 8.75 6.25 8.75H8.75C9.30228 8.75 9.75 9.19772 9.75 9.75Z" stroke="currentColor"  stroke-linecap="round"/>
</svg>
