<svg xmlns="http://www.w3.org/2000/svg" viewBox="0 0 20 20"><path fill-rule="evenodd" d="M6.5 9c-.552 0-1 .448-1 1v3.5c0 .552.448 1 1 1h4.5c.552 0 1-.448 1-1v-3.5c0-.552-.448-1-1-1h-4.5Zm.5 4v-2.5h3.5v2.5h-3.5Z"/><path fill-rule="evenodd" d="M4.279 3.763c.506-.787 1.377-1.263 2.313-1.263h6.816c.936 0 1.807.476 2.313 1.263l1.342 2.087c.285.444.437.96.437 1.487v7.413c0 1.519-1.231 2.75-2.75 2.75h-9.5c-1.519 0-2.75-1.231-2.75-2.75v-7.413c0-.527.152-1.043.437-1.487l1.342-2.087Zm2.313.237c-.425 0-.822.216-1.052.574l-.916 1.426h4.626v-2h-2.658Zm4.158 2h4.626l-.916-1.426c-.23-.358-.627-.574-1.052-.574h-2.658v2Zm5.25 1.5h-12v7.25c0 .69.56 1.25 1.25 1.25h9.5c.69 0 1.25-.56 1.25-1.25v-7.25Z"/></svg>