<svg xmlns="http://www.w3.org/2000/svg" viewBox="0 0 16 16"><path fill-rule="evenodd" d="M14 13.975c.31-.316.5-.748.5-1.225v-6.894c0-.543-.16-1.074-.462-1.526l-1.219-1.828c-.417-.626-1.12-1.002-1.872-1.002h-5.796c-.73 0-1.415.354-1.836.95l-1.31 1.847c-.328.465-.505 1.02-.505 1.59v6.863c0 .477.19.91.5 1.225v.025h.025c.316.31.748.5 1.225.5h9.5c.477 0 .91-.19 1.225-.5h.025v-.025Zm-9.461-10.659c.14-.198.368-.316.612-.316h2.099v1.5h-3.55l.839-1.184Zm4.211 1.184h3.599l-.778-1.166c-.139-.209-.373-.334-.624-.334h-2.197v1.5Zm-4 3.75c0-.276.224-.5.5-.5h3.5c.276 0 .5.224.5.5v2.5c0 .276-.224.5-.5.5h-3.5c-.276 0-.5-.224-.5-.5v-2.5Z"/></svg>