<svg xmlns="http://www.w3.org/2000/svg" viewBox="0 0 16 16"><path fill-rule="evenodd" d="M13 6v2.75c0 .414.336.75.75.75s.75-.336.75-.75v-2.894c0-.543-.16-1.074-.462-1.526l-1.219-1.828c-.417-.626-1.12-1.002-1.872-1.002h-5.796c-.73 0-1.415.354-1.836.95l-1.31 1.847c-.328.465-.505 1.02-.505 1.59v6.863c0 .966.784 1.75 1.75 1.75h6c.414 0 .75-.336.75-.75s-.336-.75-.75-.75h-6c-.138 0-.25-.112-.25-.25v-6.75h10Zm-7.85-3c-.243 0-.47.118-.611.316l-.839 1.184h3.55v-1.5h-2.1Zm3.6 1.5h3.599l-.778-1.166c-.139-.209-.373-.334-.624-.334h-2.197v1.5Z"/><path fill-rule="evenodd" d="M5 7c-.552 0-1 .448-1 1v3c0 .552.448 1 1 1h4c.552 0 1-.448 1-1v-3c0-.552-.448-1-1-1h-4Zm.5 3.5v-2h3v2h-3Z"/><path d="M14.75 10.5c.414 0 .75.336.75.75v4c0 .414-.336.75-.75.75s-.75-.336-.75-.75v-4c0-.414.336-.75.75-.75Z"/><path d="M12.5 11.25c0-.414-.336-.75-.75-.75s-.75.336-.75.75v4c0 .414.336.75.75.75s.75-.336.75-.75v-4Z"/></svg>