<svg xmlns="http://www.w3.org/2000/svg" viewBox="0 0 20 20"><path fill-rule="evenodd" d="M16 11.25v-3.75h-12v7.25c0 .69.56 1.25 1.25 1.25h4c.414 0 .75.336.75.75s-.336.75-.75.75h-4c-1.519 0-2.75-1.231-2.75-2.75v-7.413c0-.527.152-1.043.437-1.487l1.342-2.087c.506-.787 1.377-1.263 2.313-1.263h6.816c.936 0 1.807.476 2.313 1.263l1.342 2.087c.285.444.437.96.437 1.487v3.913c0 .414-.336.75-.75.75s-.75-.336-.75-.75Zm-10.46-6.676c.23-.358.627-.574 1.052-.574h2.658v2h-4.626l.916-1.426Zm9.836 1.426h-4.626v-2h2.658c.425 0 .822.216 1.052.574l.916 1.426Z"/><path d="M18.28 13.72c.293.293.293.767 0 1.06l-4 4c-.293.293-.767.293-1.06 0l-2-2c-.293-.293-.293-.767 0-1.06.293-.293.767-.293 1.06 0l1.47 1.47 3.47-3.47c.293-.293.767-.293 1.06 0Z"/><path fill-rule="evenodd" d="M6.5 9c-.552 0-1 .448-1 1v3.5c0 .552.448 1 1 1h4.5c.552 0 1-.448 1-1v-3.5c0-.552-.448-1-1-1h-4.5Zm.5 4v-2.5h3.5v2.5h-3.5Z"/></svg>