<svg xmlns="http://www.w3.org/2000/svg" viewBox="0 0 20 20"><path fill-rule="evenodd" d="M4 7.5v7.25c0 .69.56 1.25 1.25 1.25h4c.414 0 .75.336.75.75s-.336.75-.75.75h-4c-1.519 0-2.75-1.231-2.75-2.75v-7.413c0-.527.152-1.043.437-1.487l1.342-2.087c.506-.787 1.377-1.263 2.313-1.263h6.816c.936 0 1.807.476 2.313 1.263l1.342 2.087c.285.444.437.96.437 1.487v3.913c0 .414-.336.75-.75.75s-.75-.336-.75-.75v-3.75h-12Zm1.54-2.926c.23-.358.627-.574 1.052-.574h2.658v2h-4.626l.916-1.426Zm9.836 1.426-.916-1.426c-.23-.358-.627-.574-1.052-.574h-2.658v2h4.626Z"/><path d="M15 13.75c0-.414-.336-.75-.75-.75s-.75.336-.75.75v4c0 .414.336.75.75.75s.75-.336.75-.75v-4Z"/><path d="M18 13.75c0-.414-.336-.75-.75-.75s-.75.336-.75.75v4c0 .414.336.75.75.75s.75-.336.75-.75v-4Z"/><path fill-rule="evenodd" d="M5 10c0-.552.448-1 1-1h5c.552 0 1 .448 1 1v4c0 .552-.448 1-1 1h-5c-.552 0-1-.448-1-1v-4Zm1.5.5v3h4v-3h-4Z"/></svg>