<svg width="20" height="20" viewBox="0 0 20 20" fill="none" xmlns="http://www.w3.org/2000/svg">
<path fill-rule="evenodd" clip-rule="evenodd" d="M16 15.9747C16.3093 15.6591 16.5 15.2268 16.5 14.75V7.85555C16.5 7.31263 16.3393 6.78186 16.0381 6.33013L14.8193 4.50192C14.402 3.87598 13.6995 3.5 12.9472 3.5H7.15068C6.4209 3.5 5.73645 3.85394 5.31463 4.44946L4.00593 6.29703C3.67678 6.76171 3.5 7.31712 3.5 7.88657V14.75C3.5 15.2268 3.6907 15.6591 4 15.9747V16H4.02525C4.34089 16.3093 4.77317 16.5 5.25 16.5H14.75C15.2268 16.5 15.6591 16.3093 15.9747 16H16V15.9747ZM6.53866 5.31649C6.67927 5.11798 6.90742 5 7.15068 5H9.25V6.5H5.70034L6.53866 5.31649ZM10.75 6.5H14.3486L13.5713 5.33397C13.4322 5.12533 13.198 5 12.9472 5H10.75V6.5ZM6.75 10.25C6.75 9.97386 6.97386 9.75 7.25 9.75H10.75C11.0261 9.75 11.25 9.97386 11.25 10.25V12.75C11.25 13.0261 11.0261 13.25 10.75 13.25H7.25C6.97386 13.25 6.75 13.0261 6.75 12.75V10.25Z" fill="#4A4A4A"/>
</svg>
