<svg xmlns="http://www.w3.org/2000/svg" viewBox="0 0 16 16"><path fill-rule="evenodd" d="M3 6v6.75c0 .138.112.25.25.25h4c.414 0 .75.336.75.75s-.336.75-.75.75h-4c-.966 0-1.75-.784-1.75-1.75v-6.863c0-.57.177-1.125.506-1.59l1.309-1.848c.421-.595 1.106-.949 1.836-.949h5.796c.753 0 1.455.376 1.872 1.002l1.22 1.828c.3.452.461.983.461 1.526v3.644c0 .414-.336.75-.75.75s-.75-.336-.75-.75v-3.5h-10Zm1.539-2.684c.14-.198.368-.316.612-.316h2.099v1.5h-3.55l.839-1.184Zm7.81 1.184-.778-1.166c-.139-.209-.373-.334-.624-.334h-2.197v1.5h3.599Z"/><path fill-rule="evenodd" d="M4 8c0-.552.448-1 1-1h4c.552 0 1 .448 1 1v3c0 .552-.448 1-1 1h-4c-.552 0-1-.448-1-1v-3Zm1.5.5v2h3v-2h-3Z"/><path d="M15.78 11.22c.293.293.293.767 0 1.06l-3.5 3.5c-.293.293-.767.293-1.06 0l-1.75-1.75c-.293-.293-.293-.767 0-1.06.293-.293.767-.293 1.06 0l1.22 1.22 2.97-2.97c.293-.293.767-.293 1.06 0Z"/></svg>