<svg xmlns="http://www.w3.org/2000/svg" viewBox="0 0 20 20"><path d="M6.5 13c0-.414-.336-.75-.75-.75s-.75.336-.75.75v1.293c0 .331.132.65.366.884l.854.853c.293.293.767.293 1.06 0 .293-.293.293-.767 0-1.06l-.78-.78v-1.19Z"/><path fill-rule="evenodd" d="M10.625 2.274c-.095-.016-.192-.024-.29-.024h-4.835c-.966 0-1.75.784-1.75 1.75v6.602c-1.345.778-2.25 2.232-2.25 3.898 0 2.485 2.015 4.5 4.5 4.5 1.208 0 2.304-.476 3.112-1.25h5.388c.966 0 1.75-.784 1.75-1.75v-7.875h-3.997c-.897 0-1.624-.727-1.625-1.624l-.003-4.227Zm-4.625 15.226c1.657 0 3-1.343 3-3s-1.343-3-3-3-3 1.343-3 3 1.343 3 3 3Z"/><path d="M15.686 6.875h-3.433c-.207 0-.374-.168-.375-.375l-.002-3.435 3.81 3.81Z"/></svg>