<svg xmlns="http://www.w3.org/2000/svg" viewBox="0 0 16 16"><path d="M11 1.69v3.31h3.31l-3.31-3.31Z"/><path d="M5.75 10c0-.414-.336-.75-.75-.75s-.75.336-.75.75v1.293c0 .331.132.65.366.884l.854.853c.293.293.767.293 1.06 0 .293-.293.293-.767 0-1.06l-.78-.78v-1.19Z"/><path fill-rule="evenodd" d="M15 6.5v5.75c0 1.519-1.231 2.75-2.75 2.75h-4.421c-.773.625-1.757 1-2.829 1-2.485 0-4.5-2.015-4.5-4.5 0-2.23 1.622-4.08 3.75-4.438v-3.312c0-1.519 1.231-2.75 2.75-2.75h2.5v4c0 .828.672 1.5 1.5 1.5h4Zm-10 8c1.657 0 3-1.343 3-3s-1.343-3-3-3-3 1.343-3 3 1.343 3 3 3Z"/></svg>