<svg xmlns="http://www.w3.org/2000/svg" viewBox="0 0 20 20"><path fill-rule="evenodd" d="M6.25 3.5c-.69 0-1.25.56-1.25 1.25v10.5c0 .69.56 1.25 1.25 1.25h7.5c.69 0 1.25-.56 1.25-1.25v-9.5c0-.414.336-.75.75-.75s.75.336.75.75v9.5c0 1.519-1.231 2.75-2.75 2.75h-7.5c-1.519 0-2.75-1.231-2.75-2.75v-10.5c0-1.519 1.231-2.75 2.75-2.75h4c1.519 0 2.75 1.231 2.75 2.75v6.75c0 1.657-1.343 3-3 3s-3-1.343-3-3v-5.25c0-.414.336-.75.75-.75s.75.336.75.75v5.25c0 .828.672 1.5 1.5 1.5s1.5-.672 1.5-1.5v-6.75c0-.69-.56-1.25-1.25-1.25h-4Z"/></svg>