<svg xmlns="http://www.w3.org/2000/svg" viewBox="0 0 16 16"><path d="M5.75 10c0-.414-.336-.75-.75-.75s-.75.336-.75.75v1.293c0 .331.132.65.366.884l.854.853c.293.293.767.293 1.06 0 .293-.293.293-.767 0-1.06l-.78-.78v-1.19Z"/><path fill-rule="evenodd" d="M12.25 15h-4.421c-.773.625-1.757 1-2.829 1-2.485 0-4.5-2.015-4.5-4.5 0-2.23 1.622-4.08 3.75-4.438v-3.312c0-1.519 1.231-2.75 2.75-2.75h3c.199 0 .39.079.53.22l4.25 4.25c.141.14.22.331.22.53v6.25c0 1.519-1.231 2.75-2.75 2.75Zm-6.5-11.25c0-.69.56-1.25 1.25-1.25h2.25v2.5c0 .966.784 1.75 1.75 1.75h2.5v5.5c0 .69-.56 1.25-1.25 1.25h-3.218c.3-.602.468-1.282.468-2 0-2.23-1.622-4.08-3.75-4.438v-3.312Zm6.69 1.5-1.69-1.69v1.44c0 .138.112.25.25.25h1.44Zm-7.44 9.25c1.657 0 3-1.343 3-3s-1.343-3-3-3-3 1.343-3 3 1.343 3 3 3Z"/></svg>