<svg xmlns="http://www.w3.org/2000/svg" viewBox="0 0 20 20"><path fill-rule="evenodd" d="M5 4.75c0-.69.56-1.25 1.25-1.25h3.75v3.25c0 .966.784 1.75 1.75 1.75h3.25v.75c0 .414.336.75.75.75s.75-.336.75-.75v-1.5c0-.199-.079-.39-.22-.53l-5-5c-.14-.141-.331-.22-.53-.22h-4.5c-1.519 0-2.75 1.231-2.75 2.75v10.5c0 1.519 1.231 2.75 2.75 2.75h2c.414 0 .75-.336.75-.75s-.336-.75-.75-.75h-2c-.69 0-1.25-.56-1.25-1.25v-10.5Zm8.94 2.25-2.44-2.44v2.19c0 .138.112.25.25.25h2.19Z"/><path fill-rule="evenodd" d="M9.978 11.985c.972-.978 2.548-.98 3.522-.005.974-.975 2.55-.973 3.522.005.97.976.97 2.558 0 3.535l-2.635 2.652c-.49.492-1.285.492-1.774 0l-2.635-2.652c-.97-.977-.97-2.559 0-3.535Zm1.064 1.057c.387-.39 1.012-.39 1.398 0l.528.53c.14.143.332.222.532.222s.391-.08.532-.221l.528-.531c.386-.39 1.011-.39 1.398 0 .39.392.39 1.029 0 1.42l-2.458 2.474-2.458-2.474c-.39-.391-.39-1.028 0-1.42Z"/></svg>