<svg xmlns="http://www.w3.org/2000/svg" viewBox="0 0 16 16"><path fill-rule="evenodd" d="M3.5 3.75c0-.69.56-1.25 1.25-1.25h2.75v3.25c0 .966.784 1.75 1.75 1.75h3.25v.75c0 .414.336.75.75.75s.75-.336.75-.75v-1.5c0-.199-.079-.39-.22-.53l-5-5c-.14-.141-.331-.22-.53-.22h-3.5c-1.519 0-2.75 1.231-2.75 2.75v8.5c0 1.519 1.231 2.75 2.75 2.75h3.25c.414 0 .75-.336.75-.75s-.336-.75-.75-.75h-3.25c-.69 0-1.25-.56-1.25-1.25v-8.5Zm7.94 2.25-2.44-2.44v2.19c0 .138.112.25.25.25h2.19Z"/><path d="M13 10.5c0-.414-.336-.75-.75-.75s-.75.336-.75.75v2.94l-.72-.72c-.293-.293-.767-.293-1.06 0-.293.293-.293.767 0 1.06l2 2c.293.293.767.293 1.06 0l2-2c.293-.293.293-.767 0-1.06-.293-.293-.767-.293-1.06 0l-.72.72v-2.94Z"/></svg>