<svg xmlns="http://www.w3.org/2000/svg" viewBox="0 0 16 16"><path fill-rule="evenodd" d="M4.75 2c-.69 0-1.25.56-1.25 1.25v9.5c0 .69.56 1.25 1.25 1.25h6.5c.69 0 1.25-.56 1.25-1.25v-9c0-.414.336-.75.75-.75s.75.336.75.75v9c0 1.519-1.231 2.75-2.75 2.75h-6.5c-1.519 0-2.75-1.231-2.75-2.75v-9.5c0-1.519 1.231-2.75 2.75-2.75h3c1.519 0 2.75 1.231 2.75 2.75v6.25c0 1.38-1.12 2.5-2.5 2.5s-2.5-1.12-2.5-2.5v-5.5c0-.414.336-.75.75-.75s.75.336.75.75v5.5c0 .552.448 1 1 1s1-.448 1-1v-6.25c0-.69-.56-1.25-1.25-1.25h-3Z"/></svg>