<svg xmlns="http://www.w3.org/2000/svg" viewBox="0 0 20 20"><path d="M5.75 12.25c.414 0 .75.336.75.75v1.19l.78.78c.293.293.293.767 0 1.06-.293.293-.767.293-1.06 0l-.854-.853c-.234-.235-.366-.553-.366-.884v-1.293c0-.414.336-.75.75-.75Z"/><path fill-rule="evenodd" d="M7.75 2c-1.519 0-2.75 1.231-2.75 2.75v5.361c-2.004.455-3.5 2.247-3.5 4.389 0 2.485 2.015 4.5 4.5 4.5 1.56 0 2.935-.794 3.742-2h4.508c1.519 0 2.75-1.231 2.75-2.75v-6.5c0-.199-.079-.39-.22-.53l-5-5c-.14-.141-.331-.22-.53-.22h-3.5Zm2.639 13.5h3.861c.69 0 1.25-.56 1.25-1.25v-5.75h-3.25c-.966 0-1.75-.784-1.75-1.75v-3.25h-2.75c-.69 0-1.25.56-1.25 1.25v5.277c2.25.25 4 2.157 4 4.473 0 .344-.039.678-.111 1Zm4.05-8.5-2.439-2.44v2.19c0 .138.112.25.25.25h2.19Zm-8.439 10.5c1.657 0 3-1.343 3-3s-1.343-3-3-3-3 1.343-3 3 1.343 3 3 3Z"/></svg>