<svg xmlns="http://www.w3.org/2000/svg" viewBox="0 0 20 20"><path fill-rule="evenodd" d="M5 4.75c0-.69.56-1.25 1.25-1.25h3.75v3.25c0 .966.784 1.75 1.75 1.75h3.25v2.5c0 .414.336.75.75.75s.75-.336.75-.75v-3.25c0-.199-.079-.39-.22-.53l-5-5c-.14-.141-.331-.22-.53-.22h-4.5c-1.519 0-2.75 1.231-2.75 2.75v10.5c0 1.519 1.231 2.75 2.75 2.75h4.5c.414 0 .75-.336.75-.75s-.336-.75-.75-.75h-4.5c-.69 0-1.25-.56-1.25-1.25v-10.5Zm8.94 2.25-2.44-2.44v2.19c0 .138.112.25.25.25h2.19Z"/><path d="M17.637 16.95c.292.294.292.769 0 1.062-.293.292-.768.292-1.061 0l-2.432-2.433v1.372c0 .414-.336.75-.75.75s-.75-.336-.75-.75v-3.182c0-.414.336-.75.75-.75h3.182c.414 0 .75.336.75.75s-.336.75-.75.75h-1.372l2.433 2.432Z"/></svg>