<svg xmlns="http://www.w3.org/2000/svg" viewBox="0 0 20 20"><path fill-rule="evenodd" d="m13.188 13.278 4.385-4.385c.684-.684.684-1.792 0-2.475l-3.991-3.991c-.683-.684-1.791-.684-2.475 0l-6.18 6.18c-.684.683-.684 1.792 0 2.475l.494.494c-.073.035-.141.083-.201.143l-2.5 2.5c-.846.846-.846 2.216 0 3.061.845.845 2.215.845 3.06 0l2.5-2.5c.06-.06.109-.128.144-.2l.494.493c.683.684 1.791.684 2.475 0l1.79-1.79.003-.003.002-.002Zm-.667-9.79c-.097-.098-.256-.098-.353 0l-3.857 3.856 4.344 4.345 3.858-3.857c.097-.098.097-.256 0-.354l-1.966-1.965-1.517 1.517c-.293.293-.767.293-1.06 0-.293-.293-.293-.767 0-1.06l1.517-1.517-.966-.966Zm-.926 9.262-4.345-4.345-1.263 1.263c-.097.097-.097.256 0 .353l3.992 3.991c.097.098.256.098.353 0l1.263-1.262Zm-5.17-.17c-.036.072-.084.14-.145.2l-2.5 2.5c-.26.26-.26.68 0 .94.26.259.68.259.94 0l2.5-2.5c.06-.06.128-.109.2-.144l-.996-.997Z"/><path d="M18 16.5c0 .828-.672 1.5-1.5 1.5s-1.5-.672-1.5-1.5c0-.53.614-2.122 1.057-3.2.165-.403.72-.403.886 0 .443 1.078 1.057 2.67 1.057 3.2Z"/></svg>