<svg xmlns="http://www.w3.org/2000/svg" viewBox="0 0 16 16"><path fill-rule="evenodd" d="M8.263 1.677c.683-.684 1.791-.684 2.474 0l3.586 3.585c.684.684.684 1.792 0 2.475l-4.586 4.586c-.683.684-1.791.684-2.474 0l-.263-.263-1.97 1.97c-.845.845-2.215.845-3.06 0-.846-.845-.846-2.215 0-3.06l1.97-1.97-.263-.263c-.684-.683-.684-1.791 0-2.475l4.586-4.585Zm1.06 1.06c.098-.097.256-.097.354 0l.762.763-.47.47c-.292.293-.292.767 0 1.06.293.293.768.293 1.061 0l.47-.47 1.763 1.763c.097.098.097.256 0 .354l-2.836 2.835v.001c-.099.097-.256.097-.354 0l-3.586-3.586c-.097-.098-.097-.256 0-.354l2.836-2.836Zm-4.06 4.061-.526.525c-.097.098-.097.256 0 .354l3.586 3.585c.098.098.256.098.354 0l.525-.525c-.066-.05-.13-.104-.19-.164l-3.585-3.586c-.06-.06-.115-.123-.164-.189Zm-2.233 5.232 1.97-1.97.94.94-1.97 1.97c-.26.259-.68.259-.94 0-.26-.26-.26-.68 0-.94Z"/><path d="M13.5 15c.828 0 1.5-.672 1.5-1.5 0-.53-.614-2.123-1.057-3.2-.165-.404-.72-.404-.886 0-.443 1.077-1.057 2.67-1.057 3.2 0 .828.672 1.5 1.5 1.5Z"/></svg>