<svg xmlns="http://www.w3.org/2000/svg" viewBox="0 0 16 16"><path fill-rule="evenodd" d="M14.155 1.844c-.77-.771-2.007-.815-2.831-.1l-6.354 5.506c-2.057.016-3.72 1.689-3.72 3.75v3c0 .414.336.75.75.75h3c2.061 0 3.734-1.663 3.75-3.72l5.506-6.354c.715-.824.67-2.06-.1-2.832Zm-5.841 7.399 4.809-5.55c.199-.229.187-.573-.028-.788-.215-.215-.56-.227-.789-.028l-5.549 4.81c.661.35 1.205.894 1.557 1.556Zm-3.314-.493c1.243 0 2.25 1.007 2.25 2.25s-1.007 2.25-2.25 2.25h-2.25v-2.25c0-1.243 1.007-2.25 2.25-2.25Z"/></svg>