<svg xmlns="http://www.w3.org/2000/svg" viewBox="0 0 20 20"><path fill-rule="evenodd" d="M17.32 2.68c-.853-.854-2.222-.9-3.131-.106l-7.925 6.926h-.014c-2.347 0-4.25 1.903-4.25 4.25v3.5c0 .414.336.75.75.75h3.5c2.347 0 4.25-1.903 4.25-4.25v-.014l6.926-7.925c.794-.91.748-2.278-.106-3.132Zm-7.23 9.246 6.206-7.102c.275-.315.26-.789-.036-1.084-.296-.295-.77-.311-1.084-.037l-7.102 6.207c.882.42 1.596 1.134 2.016 2.016Zm-6.59 1.824c0-1.519 1.231-2.75 2.75-2.75s2.75 1.231 2.75 2.75-1.231 2.75-2.75 2.75h-2.75v-2.75Z"/></svg>