<svg viewBox="0 0 20 20" xmlns="http://www.w3.org/2000/svg"><path fill-rule="evenodd" d="M12.177 4.238a.25.25 0 0 0-.354 0l-3.336 3.335a.25.25 0 0 0 0 .354l3.586 3.586a.25.25 0 0 0 .353 0l3.337-3.336a.25.25 0 0 0 0-.354l-1.763-1.762-.97.97a.75.75 0 0 1-1.06-1.061l.97-.97-.763-.762Zm-1.414-1.061-5.086 5.086a1.75 1.75 0 0 0 0 2.475l.262.262-2.47 2.47a2.164 2.164 0 1 0 3.061 3.06l2.47-2.47.263.263a1.75 1.75 0 0 0 2.474 0l5.086-5.085a1.75 1.75 0 0 0 0-2.475l-3.586-3.586a1.75 1.75 0 0 0-2.474 0Zm-4.026 6.146.526-.525c.049.066.104.13.164.19l3.586 3.585c.06.06.123.115.189.165l-.525.525a.25.25 0 0 1-.354 0l-3.586-3.586a.25.25 0 0 1 0-.354Zm.263 2.738-2.47 2.47a.664.664 0 0 0 .94.939l2.47-2.47-.94-.94Z" fill="#5C5F62"/></svg>