<svg xmlns="http://www.w3.org/2000/svg" viewBox="0 0 20 20" >
  <path d="M14.7782 2.06066C15.364 1.47487 16.3137 1.47487 16.8995 2.06066C17.4853 2.64645 17.4853 3.59619 16.8995 4.18198L14.7782 2.06066Z" fill="#5C5F62"/>
  <path d="M14.0711 2.76777L16.1924 4.88909L10.5356 10.5459L8.06069 10.8995L8.41424 8.42463L14.0711 2.76777Z" fill="#5C5F62"/>
  <path d="M0 8C0 6.89543 0.89543 6 2 6H6V8H2V16H18V8H17V6H18C19.1046 6 20 6.89543 20 8V16C20 17.1046 19.1046 18 18 18H2C0.89543 18 0 17.1046 0 16V8Z" fill="#5C5F62"/>
  <path d="M4 13C4 12.4477 4.44772 12 5 12H12.9993L12.9999 14H5C4.44772 14 4 13.5523 4 13Z" fill="#5C5F62"/>
  <path d="M12.9993 12C13.5516 12 14 12.4477 14 13C14 13.5523 13.5522 14 12.9999 14L12.9993 12Z" fill="#5C5F62"/>
</svg>
