<svg xmlns="http://www.w3.org/2000/svg" viewBox="0 0 20 20"><path d="M14.412 4.188c.195-.195.195-.512 0-.707l-1.328-1.328c-.195-.196-.512-.196-.707 0l-.95.95 2.035 2.035.95-.95Z"/><path d="m12.388 6.212-2.035-2.035-3.942 3.941c-.385.385-.596.91-.585 1.454l.018.904c.003.134.11.242.245.245l.904.018c.544.01 1.069-.2 1.454-.586l3.94-3.94Z"/><path d="M3 8.25c0-.69.56-1.25 1.25-1.25h.596c.414 0 .75-.336.75-.75s-.336-.75-.75-.75h-.596c-1.519 0-2.75 1.231-2.75 2.75v6c0 1.519 1.231 2.75 2.75 2.75h11.5c1.519 0 2.75-1.231 2.75-2.75v-6c0-1.528-1.26-2.75-2.77-2.75-.413 0-.75.336-.75.75s.337.75.75.75c.7 0 1.27.569 1.27 1.25v6c0 .69-.56 1.25-1.25 1.25h-11.5c-.69 0-1.25-.56-1.25-1.25v-6Z"/><path d="M4.75 13.25c0-.414.336-.75.75-.75h5c.414 0 .75.336.75.75s-.336.75-.75.75h-5c-.414 0-.75-.336-.75-.75Z"/><path d="M12.75 12.5c-.414 0-.75.336-.75.75s.336.75.75.75h1.5c.414 0 .75-.336.75-.75s-.336-.75-.75-.75h-1.5Z"/></svg>