<svg xmlns="http://www.w3.org/2000/svg" viewBox="0 0 20 20" >
  <path d="M12.0711 4.06066C12.6568 3.47487 13.6066 3.47487 14.1924 4.06066C14.7782 4.64645 14.7782 5.59619 14.1924 6.18198L12.0711 4.06066Z" fill="#5C5F62"/>
  <path d="M11.3639 4.76777L13.4853 6.88909L8.53551 11.8388L6.06065 12.1924L6.41419 9.71752L11.3639 4.76777Z" fill="#5C5F62"/>
  <path d="M4 7C2.89543 7 2 7.89543 2 9V14C2 15.1046 2.89543 16 4 16H16C17.1046 16 18 15.1046 18 14V9C18 7.89543 17.1046 7 16 7H15V9H16V14H4V9H5V7H4Z" fill="#5C5F62"/>
</svg>
