<svg xmlns="http://www.w3.org/2000/svg" viewBox="0 0 16 16"><path d="M11.496 3.354c.196-.196.196-.512 0-.708l-1.06-1.06c-.195-.195-.512-.195-.707 0l-.957.957 1.767 1.768.957-.957Z"/><path d="m9.832 5.018-1.768-1.768-2.449 2.449c-.373.373-.583.88-.585 1.407l-.003.698c0 .139.112.251.251.25l.698-.001c.528-.002 1.034-.213 1.407-.586l2.45-2.45Z"/><path d="M2.25 7.25c0-.69.56-1.25 1.25-1.25h.25c.414 0 .75-.336.75-.75s-.336-.75-.75-.75h-.25c-1.519 0-2.75 1.231-2.75 2.75v4c0 1.519 1.231 2.75 2.75 2.75h9c1.519 0 2.75-1.231 2.75-2.75v-4.25c0-1.38-1.12-2.5-2.5-2.5-.414 0-.75.336-.75.75s.336.75.75.75c.552 0 1 .448 1 1v4.25c0 .69-.56 1.25-1.25 1.25h-9c-.69 0-1.25-.56-1.25-1.25v-4Z"/><path d="M4.5 9.5c-.414 0-.75.336-.75.75s.336.75.75.75h4c.414 0 .75-.336.75-.75s-.336-.75-.75-.75h-4Z"/><path d="M10.25 10.25c0-.414.336-.75.75-.75h.5c.414 0 .75.336.75.75s-.336.75-.75.75h-.5c-.414 0-.75-.336-.75-.75Z"/></svg>