<svg xmlns="http://www.w3.org/2000/svg" viewBox="0 0 12 12"><path fill-rule="evenodd" d="M7 3.25h-2c-.194 0-.38.032-.555.09-.465.155-.843.5-1.042.943-.031.07-.058.143-.08.217-.048.158-.073.326-.073.5v2c0 .966.784 1.75 1.75 1.75h2c.174 0 .342-.025.5-.072.075-.023.147-.05.217-.081.442-.199.787-.576.942-1.04.06-.175.091-.362.091-.557v-2c0-.966-.784-1.75-1.75-1.75Zm-2-1.25c-1.657 0-3 1.343-3 3v2c0 1.657 1.343 3 3 3h2c1.657 0 3-1.343 3-3v-2c0-1.657-1.343-3-3-3h-2Z"/><path d="M5 3.25c-.194 0-.38.032-.555.09l4.214 4.217c.06-.175.091-.362.091-.557v-1.121l-2.629-2.629h-1.121Z"/><path d="M3.25 5v.895l2.852 2.855h.898c.174 0 .342-.025.5-.072.075-.023.147-.05.217-.081l-4.314-4.314c-.031.07-.058.143-.08.217-.048.158-.073.326-.073.5Z"/></svg>