<svg xmlns="http://www.w3.org/2000/svg" viewBox="0 0 20 20"><path d="M9.25 2.25c-2.071 0-3.75 1.679-3.75 3.75 0 2.071 1.679 3.75 3.75 3.75 2.071 0 3.75-1.679 3.75-3.75 0-2.071-1.679-3.75-3.75-3.75Z"/><path d="m11.003 11.454-.003.171v1.625c0 1.166.726 2.162 1.75 2.563v1.868c0 .107.008.214.023.319h-9.305c-1.119 0-1.817-1.212-1.256-2.18l.448-.773c1.363-2.35 3.874-3.797 6.59-3.797.598 0 1.185.07 1.753.204Z"/><path fill-rule="evenodd" d="M12.25 11.625c0-1.726 1.4-3.125 3.125-3.125 1.726 0 3.125 1.4 3.125 3.125v1.625c0 .828-.672 1.5-1.5 1.5h-.35c-.07 0-.127.057-.127.127 0 .026.008.051.022.072l.46.667c.14.204.11.482-.073.65l-.182.169c-.192.177-.215.473-.052.678l.286.36c.153.191.144.466-.021.648l-.73.8c-.403.442-1.1.434-1.493-.016l-.494-.567c-.087-.1-.152-.215-.194-.338-.034-.102-.052-.21-.052-.32v-2.68c0-.138-.112-.25-.25-.25-.828 0-1.5-.672-1.5-1.5v-1.625Zm4 .25c0 .483-.392.875-.875.875s-.875-.392-.875-.875.392-.875.875-.875.875.392.875.875Z"/></svg>