<svg xmlns="http://www.w3.org/2000/svg" viewBox="0 0 20 20"><path fill-rule="evenodd" d="M5.5 6.5c0-1.933 1.567-3.5 3.5-3.5s3.5 1.567 3.5 3.5-1.567 3.5-3.5 3.5-3.5-1.567-3.5-3.5Zm3.5-2c-1.105 0-2 .895-2 2s.895 2 2 2 2-.895 2-2-.895-2-2-2Z"/><path d="M9 12.5c-1.734 0-3.33.94-4.173 2.455l-.302.545h5.725c.414 0 .75.336.75.75s-.336.75-.75.75h-6.001c-1.02 0-1.665-1.096-1.17-1.987l.437-.786c1.106-1.992 3.206-3.227 5.484-3.227.414 0 .75.336.75.75s-.336.75-.75.75Z"/><path d="M15.5 11.375c0 .483-.392.875-.875.875s-.875-.392-.875-.875.392-.875.875-.875.875.392.875.875Z"/><path fill-rule="evenodd" d="M11.25 11.376c0-1.865 1.511-3.376 3.376-3.376 1.864 0 3.376 1.511 3.376 3.376v.726c0 .731-.365 1.377-.923 1.766.05.353-.002.713-.145 1.036.295.752.117 1.65-.542 2.226l-.397.347c-.915.798-2.324.604-2.989-.412l-.326-.498c-.213-.325-.326-.706-.326-1.095v-1.492c-.659-.367-1.104-1.07-1.104-1.879v-.725Zm2.41 1.457c-.074-.051-.163-.081-.26-.081-.359 0-.65-.291-.65-.65v-.726c0-1.036.84-1.876 1.876-1.876s1.876.84 1.876 1.876v.726c0 .359-.291.65-.65.65h-.247c-.106 0-.205.034-.285.092-.114.082-.19.212-.201.361l-.001.015v.02c0 .112.038.222.11.309l.282.345c.164.2.087.502-.153.6l-.003.001c-.193.08-.274.288-.22.466.02.07.062.135.125.187l.133.109c.014.01.026.021.038.033.196.196.19.523-.025.71l-.397.347c-.16.14-.383.158-.559.067-.01-.005-.021-.011-.031-.018l-.005-.002c-.034-.022-.065-.047-.094-.077l-.006-.007c-.019-.02-.036-.042-.052-.066l-.326-.498c-.053-.082-.082-.177-.082-.274v-2.267c0-.154-.076-.29-.194-.372Z"/></svg>