<svg viewBox="0 0 20 20" xmlns="http://www.w3.org/2000/svg"><path d="M5.5 6.5a3.5 3.5 0 1 1 7 0 3.5 3.5 0 0 1-7 0Z" fill="currentColor"/><path fill-rule="evenodd" d="M12 11.375a3.125 3.125 0 1 1 6.25 0v1.625a1.5 1.5 0 0 1-1.5 1.5h-.35a.127.127 0 0 0-.105.2l.46.666a.5.5 0 0 1-.073.65l-.182.169a.5.5 0 0 0-.052.678l.286.36a.5.5 0 0 1-.021.648l-.73.8a1 1 0 0 1-1.493-.016l-.494-.567a1 1 0 0 1-.246-.657v-2.681a.25.25 0 0 0-.25-.25 1.5 1.5 0 0 1-1.5-1.5v-1.625Zm3.125 1.125a.875.875 0 1 0 0-1.75.875.875 0 0 0 0 1.75Z" fill="currentColor"/><path d="M10.752 11.25a4.368 4.368 0 0 0-.002.125v1.625c0 1.166.726 2.162 1.75 2.563v1.437h-8.251a1.338 1.338 0 0 1-1.17-1.987l.437-.786a6.273 6.273 0 0 1 7.236-2.978Z" fill="currentColor"/></svg>
