<svg width="20" height="20" viewBox="0 0 20 20" fill="none" xmlns="http://www.w3.org/2000/svg">
<path d="M5.5 6.5C5.5 4.567 7.067 3 9 3C10.933 3 12.5 4.567 12.5 6.5C12.5 8.433 10.933 10 9 10C7.067 10 5.5 8.433 5.5 6.5Z" fill="#4A4A4A"/>
<path fill-rule="evenodd" clip-rule="evenodd" d="M12 11.375C12 9.64911 13.3991 8.25 15.125 8.25C16.8509 8.25 18.25 9.64911 18.25 11.375V13C18.25 13.8284 17.5784 14.5 16.75 14.5H16.3998C16.3296 14.5 16.2727 14.5569 16.2727 14.6271C16.2727 14.6529 16.2806 14.678 16.2952 14.6992L16.7543 15.3656C16.8953 15.5703 16.8645 15.8475 16.682 16.0163L16.5 16.1846C16.3078 16.3624 16.2853 16.6584 16.4485 16.8633L16.7344 17.2222C16.8874 17.4143 16.8783 17.6891 16.7128 17.8706L15.9829 18.6711C15.5803 19.1127 14.8829 19.105 14.4902 18.6546L13.9962 18.088C13.8375 17.9059 13.75 17.6725 13.75 17.4308V14.75C13.75 14.6119 13.6381 14.5 13.5 14.5C12.6716 14.5 12 13.8284 12 13V11.375ZM15.125 12.5C15.6082 12.5 16 12.1082 16 11.625C16 11.1418 15.6082 10.75 15.125 10.75C14.6418 10.75 14.25 11.1418 14.25 11.625C14.25 12.1082 14.6418 12.5 15.125 12.5Z" fill="#4A4A4A"/>
<path d="M10.7518 11.2494C10.7506 11.2911 10.75 11.333 10.75 11.375V13C10.75 14.166 11.4757 15.1625 12.5 15.5625V17H4.24867C3.22875 17 2.58406 15.9043 3.07937 15.0128L3.51603 14.2268C4.62247 12.2352 6.72169 11 8.99999 11C9.60138 11 10.1903 11.0861 10.7518 11.2494Z" fill="#4A4A4A"/>
</svg>
