<svg xmlns="http://www.w3.org/2000/svg" viewBox="0 0 20 20"><path fill-rule="evenodd" d="M9.121 3.5h6.258c.395 0 .736 0 1.017.023.297.024.592.078.875.222.424.216.768.56.984.984.144.283.198.578.222.875.023.28.023.622.023 1.017v2.758c0 .395 0 .736-.023 1.017-.024.297-.078.592-.222.875-.216.424-.56.768-.983.984-.284.144-.58.198-.876.222-.28.023-.622.023-1.017.023h-3.053c-.075.082-.157.157-.247.226l-3.71 2.845c-.581.445-.956.733-1.376.94-.372.183-.767.317-1.174.398-.46.091-.931.091-1.664.091h-1.405c-.414 0-.75-.336-.75-.75s.336-.75.75-.75h1.329c.834 0 1.15-.003 1.448-.062.278-.056.548-.147.803-.273.271-.134.525-.323 1.187-.831l3.65-2.798c.14-.108.201-.289.156-.46-.06-.232-.297-.372-.53-.314l-4.861 1.216c-.402.1-.81-.144-.91-.546-.1-.402.144-.81.546-.91l.432-.108v-2.664h-.012c-.77 0-1.032.005-1.27.062-.23.055-.45.146-.651.27-.21.128-.398.31-.943.854l-.594.594c-.293.293-.767.293-1.06 0-.293-.293-.293-.767 0-1.06l.654-.655c.46-.46.78-.78 1.16-1.012.335-.206.7-.358 1.083-.45.433-.103.884-.103 1.536-.103h.098c.001-.241.006-.457.022-.646.024-.297.078-.592.222-.875.216-.424.56-.768.984-.984.283-.144.578-.198.875-.222.28-.023.622-.023 1.017-.023Zm6.229 7.5h-2.521c-.01-.102-.028-.204-.055-.306-.27-1.026-1.315-1.644-2.345-1.387l-2.929.732v-2.039h9.5v1.35c0 .432 0 .712-.018.924-.017.204-.045.28-.064.317-.072.14-.186.255-.328.327-.037.02-.112.047-.316.064-.212.017-.492.018-.924.018Zm1.645-5h-9.49c.002-.104.006-.194.013-.274.017-.204.045-.28.064-.316.072-.142.186-.256.328-.328.037-.02.112-.047.316-.064.212-.017.492-.018.924-.018h6.2c.432 0 .712 0 .924.018.204.017.28.045.316.064.142.072.256.186.328.328.02.037.047.112.064.316.007.08.01.17.013.274Z"/></svg>