<svg xmlns="http://www.w3.org/2000/svg" viewBox="0 0 20 20"><path d="M10.75 1.75c0-.414-.336-.75-.75-.75s-.75.336-.75.75v3.066l-1.248-1.123c-.308-.278-.782-.253-1.06.055-.277.308-.252.782.056 1.06l2.5 2.25c.286.256.719.256 1.004 0l2.5-2.25c.308-.278.333-.752.055-1.06-.277-.308-.75-.333-1.059-.055l-1.248 1.123v-3.066Z"/><path d="M12.928 7.634c.603-1.314 2.149-1.9 3.472-1.318 1.353.595 1.956 2.182 1.34 3.525l-1.961 4.28c-.459 1-1.25 1.81-2.238 2.292l-3.101 1.511c-.373.182-.822.027-1.003-.345-.182-.373-.027-.822.346-1.003l3.101-1.512c.676-.33 1.217-.883 1.53-1.567l1.963-4.28c.267-.583.005-1.27-.581-1.528-.573-.253-1.243.002-1.504.571l-1.295 2.82c-.38.827-1.043 1.482-1.862 1.853-.12.059-.246.108-.377.148l-.083.024-.008.003-3.701 1.11c-.15.045-.303.041-.442-.003-.228-.072-.418-.252-.492-.5-.015-.05-.025-.099-.03-.149-.03-.347.185-.68.533-.784l3.7-1.11.007-.003c.085-.026.168-.056.25-.091.307-.16.508-.481.508-.838 0-.626-.598-1.079-1.2-.908l-2.662.753c-1.562.443-2.735 1.736-3.024 3.334l-.626 3.464c-.074.408-.464.679-.871.605-.408-.074-.679-.464-.605-.871l.626-3.465c.39-2.161 1.978-3.911 4.092-4.51l2.66-.753c1.085-.307 2.164.165 2.721 1.026l.817-1.78Z"/></svg>