<svg xmlns="http://www.w3.org/2000/svg" viewBox="0 0 16 16"><path fill-rule="evenodd" d="M8.75 1.25c0-.414-.336-.75-.75-.75s-.75.336-.75.75v2.097l-.756-.661c-.312-.273-.786-.242-1.058.07-.273.312-.242.786.07 1.058l2 1.75c.283.248.705.248.988 0l2-1.75c.312-.272.343-.746.07-1.058-.272-.312-.746-.343-1.058-.07l-.756.661v-2.097Zm1.682 4.781c.53-1.12 1.862-1.608 2.99-1.095 1.144.52 1.648 1.87 1.124 3.012l-1.527 3.333c-.451.985-1.225 1.786-2.194 2.27l-2.24 1.12c-.37.185-.82.035-1.006-.336-.185-.37-.035-.82.336-1.006l2.24-1.12c.662-.331 1.192-.879 1.5-1.553l1.528-3.333c.178-.387.007-.845-.381-1.021-.383-.174-.835-.009-1.015.371l-1.002 2.116c-.353.746-.938 1.346-1.656 1.72-.195.119-.41.21-.641.267l-1.806.452-.013.003-.987.247c-.402.1-.81-.144-.91-.546-.1-.402.144-.81.546-.91l2.624-.656c.155-.038.303-.093.444-.162.223-.15.364-.404.364-.685 0-.494-.43-.878-.921-.821l-.822.095c-1.954.225-3.498 1.762-3.733 3.715l-.28 2.331c-.049.412-.422.705-.833.656-.412-.05-.705-.423-.656-.834l.28-2.331c.317-2.643 2.406-4.722 5.05-5.027l.822-.095c.906-.105 1.74.324 2.206 1.025l.569-1.202Z"/></svg>