<svg xmlns="http://www.w3.org/2000/svg" viewBox="0 0 16 16"><path fill-rule="evenodd" d="M7.621 2h5.258c.395 0 .736 0 1.017.023.297.024.592.078.875.222.424.216.768.56.984.984.144.283.198.578.222.875.023.28.023.622.023 1.017v2.258c0 .395 0 .736-.023 1.017-.024.297-.078.592-.222.875-.216.424-.56.768-.984.984-.283.144-.578.198-.875.222-.28.023-.622.023-1.017.023h-2.58c-.08.083-.169.16-.265.23l-2.73 1.964c-.565.408-.93.67-1.335.86-.358.167-.736.289-1.125.363-.44.083-.889.083-1.586.083h-1.508c-.414 0-.75-.336-.75-.75 0-.415.336-.75.75-.75h1.436c.794 0 1.095-.004 1.379-.057.266-.05.524-.134.77-.249.261-.122.508-.295 1.152-.76l2.67-1.922c.143-.102.207-.282.163-.451-.06-.224-.287-.359-.512-.303l-4.876 1.22c-.402.1-.81-.145-.91-.547-.1-.401.144-.809.546-.909l.932-.233v-2.289c-.59.002-.821.012-1.033.062-.23.055-.449.146-.65.27-.21.128-.398.31-.943.854l-.594.594c-.293.293-.767.293-1.06 0-.293-.293-.293-.767 0-1.06l.654-.655c.46-.46.78-.78 1.16-1.012.335-.206.7-.357 1.083-.45.397-.095.813-.102 1.387-.103.003-.143.009-.275.019-.396.024-.297.078-.592.222-.875.216-.424.56-.768.984-.984.283-.144.578-.198.875-.222.28-.023.622-.023 1.017-.023Zm5.229 7h-2.024c-.01-.107-.028-.214-.056-.32-.268-1.019-1.305-1.632-2.326-1.377l-2.444.611v-1.414h8.5v.85c0 .432 0 .712-.018.924-.017.204-.045.28-.064.316-.072.142-.186.256-.327.328-.038.02-.113.047-.317.064-.212.017-.492.018-.924.018Zm1.645-4.5h-8.49c.002-.104.006-.194.013-.274.017-.204.045-.28.064-.316.072-.142.186-.256.328-.328.037-.02.112-.047.316-.064.212-.017.492-.018.924-.018h5.2c.432 0 .712 0 .924.018.204.017.28.045.317.064.14.072.255.186.327.328.02.037.047.112.064.316.007.08.01.17.013.274Z"/></svg>