<svg xmlns="http://www.w3.org/2000/svg" viewBox="0 0 16 16"><path d="M4.75 8.227v-2.227c-.778 0-1.044.005-1.283.062-.23.055-.449.146-.65.27-.21.128-.398.31-.943.854l-.594.594c-.293.293-.767.293-1.06 0-.293-.293-.293-.767 0-1.06l.654-.655c.46-.46.78-.78 1.16-1.012.335-.206.7-.358 1.083-.45.433-.103.888-.103 1.546-.103h.087v1.48h11v1.62c0 .84 0 1.26-.164 1.581-.143.282-.373.512-.655.656-.32.163-.74.163-1.581.163h-2.705c-.137.284-.343.537-.61.73l-2.73 1.965c-.566.407-.93.67-1.336.859-.358.167-.736.29-1.125.363-.44.083-.889.083-1.586.083h-1.508c-.414 0-.75-.336-.75-.75s.336-.75.75-.75h1.436c.794 0 1.095-.003 1.379-.057.266-.05.524-.134.77-.248.261-.122.508-.296 1.152-.76l2.67-1.923c.143-.102.207-.281.163-.45-.06-.225-.287-.36-.512-.303l-4.876 1.219c-.402.1-.81-.144-.91-.546-.1-.402.144-.81.546-.91l1.182-.295Z"/><path d="M15.586 3.069c.153.298.163.683.164 1.411h-11c0-.728.011-1.113.163-1.411.144-.282.374-.512.656-.656.32-.163.74-.163 1.581-.163h6.2c.84 0 1.26 0 1.581.163.282.144.512.374.655.656Z"/></svg>