<svg xmlns="http://www.w3.org/2000/svg" viewBox="0 0 21 21"><path fill-rule="evenodd" d="M2.866 17.444c0-.414.336-.75.75-.75h14.47c.413 0 .75.336.75.75s-.337.75-.75.75h-14.47c-.414 0-.75-.336-.75-.75Z" clip-rule="evenodd"/><path fill-rule="evenodd" d="M10.75 4.52c-3.175 0-5.75 2.574-5.75 5.75 0 .956.233 1.857.645 2.649.192.367.049.82-.319 1.011-.367.191-.82.048-1.011-.32-.52-1-.815-2.137-.815-3.34 0-4.005 3.246-7.25 7.25-7.25s7.25 3.245 7.25 7.25c0 1.203-.294 2.34-.814 3.34-.191.368-.644.511-1.012.32-.367-.191-.51-.644-.319-1.011.412-.792.645-1.693.645-2.65 0-3.175-2.574-5.75-5.75-5.75Z" clip-rule="evenodd"/><path fill-rule="evenodd" d="M8.332 7.1c.273-.311.747-.343 1.058-.07l1.36 1.19 1.36-1.19c.312-.273.786-.241 1.058.07.273.312.242.786-.07 1.059l-1.598 1.398v4.062c0 .414-.336.75-.75.75s-.75-.336-.75-.75v-4.062l-1.597-1.398c-.312-.273-.344-.747-.07-1.058Z" clip-rule="evenodd"/><path fill-rule="evenodd" d="M8.378 10.607c0-.414.336-.75.75-.75h3.244c.414 0 .75.336.75.75s-.336.75-.75.75h-3.244c-.414 0-.75-.336-.75-.75Zm0 1.853c0-.414.336-.75.75-.75h3.244c.414 0 .75.336.75.75 0 .415-.336.75-.75.75h-3.244c-.414 0-.75-.335-.75-.75Z" clip-rule="evenodd"/></svg>