<svg xmlns="http://www.w3.org/2000/svg" viewBox="0 0 21 21"><path fill-rule="evenodd" d="M2.866 17.444c0-.414.336-.75.75-.75h14.47c.413 0 .75.336.75.75s-.337.75-.75.75h-14.47c-.414 0-.75-.336-.75-.75Z" clip-rule="evenodd"/><path fill-rule="evenodd" d="M10.75 4.52c-3.175 0-5.75 2.574-5.75 5.75 0 .956.233 1.857.645 2.649.192.367.049.82-.319 1.011-.367.191-.82.048-1.011-.32-.52-1-.815-2.137-.815-3.34 0-4.005 3.246-7.25 7.25-7.25s7.25 3.245 7.25 7.25c0 1.203-.294 2.34-.814 3.34-.191.368-.644.511-1.012.32-.367-.191-.51-.644-.319-1.011.412-.792.645-1.693.645-2.65 0-3.175-2.574-5.75-5.75-5.75Z" clip-rule="evenodd"/><path fill-rule="evenodd" d="M9.5 8.622c0-.966.784-1.75 1.75-1.75h.75c.69 0 1.25.56 1.25 1.25v.977c0 .415-.335.75-.75.75-.414 0-.75-.335-.75-.75v-.727h-.5c-.138 0-.25.112-.25.25v1.605h.5c.415 0 .75.335.75.75 0 .414-.335.75-.75.75h-.5v.788h1.5c.415 0 .75.335.75.75 0 .414-.335.75-.75.75h-3.5c-.414 0-.75-.336-.75-.75 0-.415.336-.75.75-.75h.5v-.788h-.5c-.414 0-.75-.336-.75-.75 0-.415.336-.75.75-.75h.5v-1.605Z" clip-rule="evenodd"/></svg>