<svg xmlns="http://www.w3.org/2000/svg" viewBox="0 0 21 21"><path fill-rule="evenodd" d="M2.866 17.444c0-.414.336-.75.75-.75h14.47c.413 0 .75.336.75.75s-.337.75-.75.75h-14.47c-.414 0-.75-.336-.75-.75Z" clip-rule="evenodd"/><path fill-rule="evenodd" d="M10.75 4.52c-3.175 0-5.75 2.574-5.75 5.75 0 .956.233 1.857.645 2.649.192.367.049.82-.319 1.011-.367.191-.82.048-1.011-.32-.52-1-.815-2.137-.815-3.34 0-4.005 3.246-7.25 7.25-7.25s7.25 3.245 7.25 7.25c0 1.203-.294 2.34-.814 3.34-.191.368-.644.511-1.012.32-.367-.191-.51-.644-.319-1.011.412-.792.645-1.693.645-2.65 0-3.175-2.574-5.75-5.75-5.75Z" clip-rule="evenodd"/><path fill-rule="evenodd" d="M7.366 10.297c0-.415.336-.75.75-.75h3.5c.414 0 .75.335.75.75 0 .414-.336.75-.75.75h-3.5c-.414 0-.75-.336-.75-.75Z" clip-rule="evenodd"/><path fill-rule="evenodd" d="M10.636 8.19c-.314.188-.76.754-.76 2.107 0 1.353.446 1.918.76 2.107.31.185.685.137.96-.138.292-.293.767-.293 1.06 0 .293.293.293.768 0 1.061-.726.726-1.85.927-2.791.363-.936-.561-1.49-1.746-1.49-3.393 0-1.647.554-2.832 1.49-3.393.94-.565 2.065-.363 2.79.362.294.293.294.768 0 1.061-.292.293-.767.293-1.06 0-.274-.274-.65-.323-.959-.137Z" clip-rule="evenodd"/></svg>