<svg xmlns="http://www.w3.org/2000/svg" viewBox="0 0 20 20"><path fill-rule="evenodd" d="M17.773 3.322a.774.774 0 1 0-1.095-1.095l-14.451 14.451a.774.774 0 1 0 1.095 1.095l1.773-1.773h7.284c.395 0 .736 0 1.017-.023.297-.024.592-.078.875-.222a2.25 2.25 0 0 0 .984-.984c.144-.283.198-.578.222-.875.02-.253.023-.554.023-.9.143-.003.275-.009.396-.019.297-.024.592-.078.875-.222a2.25 2.25 0 0 0 .984-.984c.144-.283.198-.578.222-.875.023-.28.023-.622.023-1.017v-2.758c0-.395 0-.736-.023-1.017-.024-.297-.078-.592-.222-.875a2.25 2.25 0 0 0-.932-.957l.95-.95Zm-2.185 2.185-1.618 1.617c.102.031.202.07.301.121.424.216.768.56.984.984.144.283.198.578.222.875.023.28.023.622.023 1.017v1.374c.104-.002.194-.006.274-.013.204-.017.28-.045.316-.064a.75.75 0 0 0 .328-.327c.02-.038.047-.113.064-.317.017-.212.018-.492.018-.924v-2.7c0-.432 0-.712-.018-.924-.017-.204-.045-.28-.064-.316a.75.75 0 0 0-.328-.328c-.037-.02-.112-.047-.316-.064a4.246 4.246 0 0 0-.186-.01Zm-4.112 4.112 1.119-1.119c.298 0 .51.004.68.018.203.017.278.045.316.064a.75.75 0 0 1 .327.328c.02.037.047.112.064.316.017.212.018.492.018.924v2.7c0 .432 0 .712-.018.924-.017.204-.045.28-.064.317a.75.75 0 0 1-.327.327c-.038.02-.113.047-.317.064-.212.017-.492.018-.924.018h-1.364c.475-.796.764-1.848.764-3 0-.672-.098-1.309-.274-1.881Zm-1.262 1.262-2.564 2.563c.07.15.146.285.227.406.364.546.702.65.873.65.17 0 .51-.104.873-.65.357-.536.627-1.362.627-2.35 0-.214-.013-.421-.036-.619Z"/><path d="M7.871 4h5.034l-1.5 1.5h-3.505c-.432 0-.712 0-.924.018-.204.017-.28.045-.316.064a.75.75 0 0 0-.328.328c-.02.037-.047.112-.064.316-.015.187-.018.425-.018.774h3.655l-4.146 4.146c.053-1.013.329-1.932.755-2.646h-1.364c-.432 0-.712 0-.924.018-.204.017-.28.045-.316.064a.75.75 0 0 0-.328.328c-.02.037-.047.112-.064.316-.017.212-.018.492-.018.924v2.7c0 .22 0 .4.003.553l-1.294 1.293a2.377 2.377 0 0 1-.186-.8c-.023-.28-.023-.622-.023-1.017v-2.758c0-.395 0-.736.023-1.017.024-.297.078-.592.222-.875a2.25 2.25 0 0 1 .984-.984c.283-.144.578-.198.875-.222.189-.015.405-.02.646-.022 0-.345.002-.645.023-.897.024-.297.078-.592.222-.875a2.25 2.25 0 0 1 .984-.984c.283-.144.578-.198.875-.222.28-.023.622-.023 1.017-.023Z"/></svg>