<svg xmlns="http://www.w3.org/2000/svg" viewBox="0 0 20 20"><path d="M4.5 10c0-3.038 2.462-5.5 5.5-5.5s5.5 2.462 5.5 5.5c0 .915-.223 1.777-.617 2.534-.191.368-.048.82.32 1.012.367.19.82.048 1.01-.32.503-.966.787-2.064.787-3.226 0-3.866-3.134-7-7-7s-7 3.134-7 7c0 1.162.284 2.26.786 3.226.192.368.644.51 1.012.32.367-.191.51-.644.32-1.012-.395-.757-.618-1.619-.618-2.534Z"/><path d="M17.25 16.25c0-.414-.336-.75-.75-.75h-13c-.414 0-.75.336-.75.75s.336.75.75.75h13c.414 0 .75-.336.75-.75Z"/><path d="M7.68 6.512c.27-.315.744-.351 1.058-.081l1.262 1.081 1.262-1.081c.314-.27.788-.234 1.057.08.27.315.234.789-.08 1.058l-1.489 1.276v.155h.75c.414 0 .75.336.75.75s-.336.75-.75.75h-.75v.5h.75c.414 0 .75.336.75.75s-.336.75-.75.75h-.75v.357c0 .414-.336.75-.75.75s-.75-.336-.75-.75v-.357h-.75c-.414 0-.75-.336-.75-.75s.336-.75.75-.75h.75v-.5h-.75c-.414 0-.75-.336-.75-.75s.336-.75.75-.75h.75v-.155l-1.488-1.276c-.315-.27-.351-.743-.081-1.057Z"/></svg>