<svg xmlns="http://www.w3.org/2000/svg" viewBox="0 0 20 20"><path d="M10 4.5c-3.038 0-5.5 2.462-5.5 5.5 0 .915.223 1.777.617 2.534.191.368.048.82-.32 1.012-.367.19-.82.048-1.01-.32-.503-.966-.787-2.064-.787-3.226 0-3.866 3.134-7 7-7s7 3.134 7 7c0 1.162-.284 2.26-.786 3.226-.192.368-.644.51-1.012.32-.367-.191-.51-.644-.32-1.012.395-.757.618-1.619.618-2.534 0-3.038-2.462-5.5-5.5-5.5Z"/><path d="M16.5 15.5c.414 0 .75.336.75.75s-.336.75-.75.75h-13c-.414 0-.75-.336-.75-.75s.336-.75.75-.75h13Z"/><path d="M10.9 11.375c0 .276-.224.5-.5.5h-2.25c-.415 0-.75.336-.75.75s.335.75.75.75h.5c0 .414.335.75.75.75.414 0 .75-.336.75-.75h.25c1.104 0 2-.895 2-2s-.896-2-2-2h-1c-.277 0-.5-.224-.5-.5s.223-.5.5-.5h2.25c.414 0 .75-.336.75-.75s-.336-.75-.75-.75h-1v-.25c0-.414-.336-.75-.75-.75-.415 0-.75.336-.75.75v.265c-.987.123-1.75.965-1.75 1.985 0 1.105.895 2 2 2h1c.276 0 .5.224.5.5Z"/></svg>