<svg xmlns="http://www.w3.org/2000/svg" viewBox="0 0 16 16"><path d="M11.75 0c-.414 0-.75.336-.75.75s.336.75.75.75h3.5c.414 0 .75-.336.75-.75s-.336-.75-.75-.75h-3.5Z"/><path fill-rule="evenodd" d="M3.5 4.5c0-1.933 1.567-3.5 3.5-3.5s3.5 1.567 3.5 3.5-1.567 3.5-3.5 3.5-3.5-1.567-3.5-3.5Zm3.5-2c-1.105 0-2 .895-2 2s.895 2 2 2 2-.895 2-2-.895-2-2-2Z"/><path fill-rule="evenodd" d="M7 9c2.278 0 4.377 1.235 5.484 3.227l.437.786c.495.891-.15 1.987-1.17 1.987h-9.502c-1.02 0-1.665-1.096-1.17-1.987l.437-.786c1.106-1.992 3.206-3.227 5.484-3.227Zm0 1.5c-1.734 0-3.33.94-4.173 2.455l-.302.545h8.95l-.302-.545c-.842-1.515-2.44-2.455-4.173-2.455Z"/></svg>