<svg xmlns="http://www.w3.org/2000/svg" viewBox="0 0 16 16"><path fill-rule="evenodd" d="M2.5 4.5c0-1.933 1.567-3.5 3.5-3.5s3.5 1.567 3.5 3.5-1.567 3.5-3.5 3.5-3.5-1.567-3.5-3.5Zm8.251 10.5h-.751c-.552 0-1-.448-1-1v-3c0-.392.226-.732.555-.896.134-.066.285-.104.445-.104h3.5v-1.75c0-.414-.336-.75-.75-.75s-.75.336-.75.75-.336.75-.75.75-.75-.336-.75-.75c0-1.243 1.007-2.25 2.25-2.25s2.25 1.007 2.25 2.25v1.75c.552 0 1 .448 1 1v3c0 .552-.448 1-1 1h-4.249Zm-2.146-5.433c-.373.363-.605.87-.605 1.433v3c0 .364.097.706.268 1h-.854c-.033.004-.067.007-.1.007h-5.93c-.408 0-.805-.167-1.074-.478-.281-.326-.395-.784-.24-1.243.322-.96 1.094-2.246 2.361-3.157.757-.543 1.68-.944 2.762-1.067.266-.04.535-.062.807-.062.915 0 1.8.2 2.605.567Z"/></svg>