<svg xmlns="http://www.w3.org/2000/svg" viewBox="0 0 20 20"><path fill-rule="evenodd" d="M7.518 17h6.842c.735 0 1.455-.203 2.082-.586.387-.236.72-.553.974-.928l.014-.02c.371-.547.57-1.193.57-1.854v-1.31c0-.415-.336-.75-.75-.75s-.75.335-.75.75v1.31c0 .36-.108.713-.31 1.01l-.015.022c-.135.198-.31.365-.515.49-.213.13-.444.227-.684.289-.025-.049-.055-.096-.092-.14-.694-.832-1.533-1.404-2.41-1.985-.976-.645-2.084-1.063-3.242-1.224-1.158-.16-2.338-.06-3.452.296-.8.255-1.553.637-2.229 1.13l-.013-.14c-.037-.463-.038-1.057-.038-1.91v-2.9c0-.852 0-1.447.038-1.91.037-.453.107-.714.207-.911.216-.424.56-.768.984-.984.197-.1.458-.17.912-.207.462-.037 1.057-.038 1.909-.038h4.95c.414 0 .75-.336.75-.75s-.336-.75-.75-.75h-4.982c-.813 0-1.469 0-2 .043-.546.045-1.026.14-1.47.366-.706.36-1.28.933-1.64 1.639-.226.444-.32.924-.365 1.47-.043.531-.043 1.187-.043 2v2.964c0 .813 0 1.469.043 2 .045.546.14 1.026.366 1.47.36.706.933 1.28 1.639 1.64.444.226.924.32 1.47.365.531.043 1.187.043 2 .043Zm.032-1.5h5.425c-.381-.315-.818-.613-1.33-.95-.787-.522-1.683-.86-2.62-.99-.935-.13-1.889-.048-2.79.24-.738.235-1.426.604-2.03 1.087.156.146.332.27.524.368.197.1.458.17.912.207.462.037 1.057.038 1.909.038Z"/><path fill-rule="evenodd" d="M8.25 6c-1.519 0-2.75 1.231-2.75 2.75s1.231 2.75 2.75 2.75 2.75-1.231 2.75-2.75-1.231-2.75-2.75-2.75Zm-1.25 2.75c0-.69.56-1.25 1.25-1.25s1.25.56 1.25 1.25-.56 1.25-1.25 1.25-1.25-.56-1.25-1.25Z"/><path d="M12.25 10.25c0 .414.336.75.75.75s.75-.336.75-.75v-1c0-.966.784-1.75 1.75-1.75h.94l-.72.72c-.293.293-.293.767 0 1.06.293.293.767.293 1.06 0l2-2c.293-.293.293-.767 0-1.06l-2-2c-.293-.293-.767-.293-1.06 0-.293.293-.293.767 0 1.06l.72.72h-.94c-1.795 0-3.25 1.455-3.25 3.25v1Z"/></svg>