<svg xmlns="http://www.w3.org/2000/svg" viewBox="0 0 16 16"><path fill-rule="evenodd" d="M6 2.5c-1.105 0-2 .895-2 2s.895 2 2 2 2-.895 2-2-.895-2-2-2Zm-3.5 2c0-1.933 1.567-3.5 3.5-3.5s3.5 1.567 3.5 3.5-1.567 3.5-3.5 3.5-3.5-1.567-3.5-3.5Zm10.25 3c.414 0 .75.336.75.75v1.75h-3.5c-.552 0-1 .448-1 1v3c0 .552.448 1 1 1h5c.552 0 1-.448 1-1v-3c0-.552-.448-1-1-1v-1.75c0-1.243-1.007-2.25-2.25-2.25s-2.25 1.007-2.25 2.25c0 .414.336.75.75.75s.75-.336.75-.75.336-.75.75-.75Zm-2.25 4v2h4v-2h-4Zm-7.193-.153c-.863.62-1.433 1.48-1.718 2.16h5.724c.415 0 .75.335.75.75 0 .414-.335.75-.75.75h-5.93c-.407 0-.804-.167-1.073-.478-.281-.326-.395-.784-.24-1.243.322-.96 1.094-2.246 2.361-3.157 1.298-.932 3.084-1.445 5.33-.854.4.105.64.515.534.916-.105.4-.515.64-.916.534-1.798-.473-3.126-.058-4.072.622Z"/></svg>