<svg xmlns="http://www.w3.org/2000/svg" viewBox="0 0 20 20"><path fill-rule="evenodd" d="M8 4.5a2 2 0 1 0 0 4 2 2 0 0 0 0-4Zm-3.5 2a3.5 3.5 0 1 1 7 0 3.5 3.5 0 0 1-7 0Zm10.25 3a.75.75 0 0 1 .75.75v1.75h-3.5a1 1 0 0 0-1 1v3a1 1 0 0 0 1 1h5a1 1 0 0 0 1-1v-3a1 1 0 0 0-1-1v-1.75a2.25 2.25 0 0 0-4.5 0 .75.75 0 0 0 1.5 0 .75.75 0 0 1 .75-.75Zm-2.25 4v2h4v-2h-4Zm-7.193-.153a5.24 5.24 0 0 0-1.718 2.16h5.724a.75.75 0 1 1 0 1.5h-5.93c-.407 0-.804-.167-1.073-.478a1.263 1.263 0 0 1-.24-1.243c.322-.96 1.094-2.246 2.361-3.157 1.298-.932 3.084-1.445 5.33-.854a.75.75 0 1 1-.382 1.45c-1.798-.473-3.126-.058-4.072.622Z"/></svg>