<svg xmlns="http://www.w3.org/2000/svg" viewBox="0 0 20 20"><path d="M4.75 3c-1.519 0-2.75 1.231-2.75 2.75v2.94l-.78.78c-.293.293-.293.767 0 1.06l.78.78v2.94c0 1.519 1.231 2.75 2.75 2.75h.25c.414 0 .75-.336.75-.75s-.336-.75-.75-.75h-.25c-.69 0-1.25-.56-1.25-1.25v-3.25c0-.199-.079-.39-.22-.53l-.47-.47.47-.47c.141-.14.22-.331.22-.53v-3.25c0-.69.56-1.25 1.25-1.25h.25c.414 0 .75-.336.75-.75s-.336-.75-.75-.75h-.25Z"/><path d="M15.25 17c1.519 0 2.75-1.231 2.75-2.75v-2.94l.78-.78c.293-.293.293-.767 0-1.06l-.78-.78v-2.94c0-1.519-1.231-2.75-2.75-2.75h-.25c-.414 0-.75.336-.75.75s.336.75.75.75h.25c.69 0 1.25.56 1.25 1.25v3.25c0 .199.079.39.22.53l.47.47-.47.47c-.141.14-.22.331-.22.53v3.25c0 .69-.56 1.25-1.25 1.25h-.25c-.414 0-.75.336-.75.75s.336.75.75.75h.25Z"/><path fill-rule="evenodd" d="M7.5 7.75c0-1.38 1.12-2.5 2.5-2.5s2.5 1.12 2.5 2.5-1.12 2.5-2.5 2.5-2.5-1.12-2.5-2.5Zm2.5-1c-.552 0-1 .448-1 1s.448 1 1 1 1-.448 1-1-.448-1-1-1Z"/><path d="M6.713 14.062c.805-.988 2.012-1.562 3.287-1.562s2.482.574 3.287 1.562l.131.162c.262.32.735.37 1.056.107.32-.261.37-.733.108-1.055l-.132-.161c-1.09-1.338-2.724-2.115-4.45-2.115s-3.36.777-4.45 2.115l-.132.161c-.261.322-.213.794.108 1.056.322.261.794.213 1.056-.108l.131-.162Z"/></svg>