<svg xmlns="http://www.w3.org/2000/svg" viewBox="0 0 20 20"><path d="M17.25 1.75c0-.414-.336-.75-.75-.75s-.75.336-.75.75v1h-1c-.414 0-.75.336-.75.75s.336.75.75.75h1v1c0 .414.336.75.75.75s.75-.336.75-.75v-1h1c.414 0 .75-.336.75-.75s-.336-.75-.75-.75h-1v-1Z"/><path fill-rule="evenodd" d="M5.25 6c0-2.21 1.79-4 4-4s4 1.79 4 4-1.79 4-4 4-4-1.79-4-4Zm4-2.5c-1.38 0-2.5 1.12-2.5 2.5s1.12 2.5 2.5 2.5 2.5-1.12 2.5-2.5-1.12-2.5-2.5-2.5Z"/><path fill-rule="evenodd" d="M9.25 11c-2.863 0-5.484 1.608-6.78 4.16l-.383.754c-.485.955.21 2.086 1.28 2.086h11.765c1.072 0 1.766-1.13 1.28-2.086l-.382-.753c-1.296-2.553-3.917-4.161-6.78-4.161Zm-5.443 4.84c1.041-2.05 3.145-3.34 5.443-3.34 2.298 0 4.402 1.29 5.443 3.34l.335.66h-11.556l.335-.66Z"/></svg>