<svg xmlns="http://www.w3.org/2000/svg" viewBox="0 0 16 16"><path d="M3.75 2c-1.519 0-2.75 1.231-2.75 2.75v1.94l-.78.78c-.293.293-.293.767 0 1.06l.78.78v1.94c0 1.519 1.231 2.75 2.75 2.75h.25c.414 0 .75-.336.75-.75s-.336-.75-.75-.75h-.25c-.69 0-1.25-.56-1.25-1.25v-2.25c0-.199-.079-.39-.22-.53l-.47-.47.47-.47c.141-.14.22-.331.22-.53v-2.25c0-.69.56-1.25 1.25-1.25h.25c.414 0 .75-.336.75-.75s-.336-.75-.75-.75h-.25Z"/><path d="M12.25 14c1.519 0 2.75-1.231 2.75-2.75v-1.94l.78-.78c.293-.293.293-.767 0-1.06l-.78-.78v-1.94c0-1.519-1.231-2.75-2.75-2.75h-.25c-.414 0-.75.336-.75.75s.336.75.75.75h.25c.69 0 1.25.56 1.25 1.25v2.25c0 .199.079.39.22.53l.47.47-.47.47c-.141.14-.22.331-.22.53v2.25c0 .69-.56 1.25-1.25 1.25h-.25c-.414 0-.75.336-.75.75s.336.75.75.75h.25Z"/><path fill-rule="evenodd" d="M5.75 5.75c0-1.243 1.007-2.25 2.25-2.25s2.25 1.007 2.25 2.25-1.007 2.25-2.25 2.25-2.25-1.007-2.25-2.25Zm2.25-.75c-.414 0-.75.336-.75.75s.336.75.75.75.75-.336.75-.75-.336-.75-.75-.75Z"/><path d="M6.163 11.368c.355-.687 1.064-1.118 1.837-1.118.773 0 1.482.431 1.837 1.118l.247.477c.19.367.643.511 1.01.321.369-.19.513-.643.322-1.01l-.246-.477c-.613-1.185-1.836-1.929-3.17-1.929-1.334 0-2.557.744-3.17 1.929l-.246.476c-.19.368-.047.82.321 1.011.368.19.82.046 1.011-.321l.247-.477Z"/></svg>