<svg xmlns="http://www.w3.org/2000/svg" viewBox="0 0 16 16"><path fill-rule="evenodd" d="M8 1c-1.933 0-3.5 1.567-3.5 3.5s1.567 3.5 3.5 3.5 3.5-1.567 3.5-3.5-1.567-3.5-3.5-3.5Zm-2 3.5c0-1.105.895-2 2-2s2 .895 2 2-.895 2-2 2-2-.895-2-2Z"/><path fill-rule="evenodd" d="M13.484 12.227c-1.107-1.992-3.206-3.227-5.484-3.227s-4.378 1.235-5.484 3.227l-.437.786c-.495.891.15 1.987 1.17 1.987h9.502c1.02 0 1.665-1.096 1.17-1.987l-.437-.786Zm-9.657.728c.842-1.515 2.44-2.455 4.173-2.455 1.734 0 3.33.94 4.173 2.455l.302.545h-8.95l.302-.545Z"/></svg>