<svg xmlns="http://www.w3.org/2000/svg" viewBox="0 0 20 20"><path d="M9.25 2.25c-2.071 0-3.75 1.679-3.75 3.75 0 2.071 1.679 3.75 3.75 3.75 2.071 0 3.75-1.679 3.75-3.75 0-2.071-1.679-3.75-3.75-3.75Z"/><path d="M2.66 15.047c1.363-2.35 3.874-3.797 6.59-3.797.747 0 1.478.11 2.174.317-1.103.26-1.924 1.25-1.924 2.433v3c0 .356.074.694.208 1h-6.24c-1.119 0-1.817-1.212-1.256-2.18l.448-.773Z"/><path d="M11 17c0 .552.448 1 1 1h5c.552 0 1-.448 1-1v-3c0-.552-.448-1-1-1v-1.75c0-1.243-1.007-2.25-2.25-2.25s-2.25 1.007-2.25 2.25c0 .414.336.75.75.75s.75-.336.75-.75.336-.75.75-.75.75.336.75.75v1.75h-3.5c-.552 0-1 .448-1 1v3Z"/></svg>