<svg xmlns="http://www.w3.org/2000/svg" viewBox="0 0 20 20"><path fill-rule="evenodd" d="M9.25 2c-2.21 0-4 1.79-4 4s1.79 4 4 4 4-1.79 4-4-1.79-4-4-4Zm-2.5 4c0-1.38 1.12-2.5 2.5-2.5s2.5 1.12 2.5 2.5-1.12 2.5-2.5 2.5-2.5-1.12-2.5-2.5Z"/><path d="M3.807 15.84c1.041-2.05 3.145-3.34 5.443-3.34.414 0 .75-.336.75-.75s-.336-.75-.75-.75c-2.863 0-5.484 1.608-6.78 4.16l-.383.754c-.485.955.21 2.086 1.28 2.086h5.883c.414 0 .75-.336.75-.75s-.336-.75-.75-.75h-5.778l.335-.66Z"/><path fill-rule="evenodd" d="M12 13c-.552 0-1 .448-1 1v3c0 .552.448 1 1 1h5c.552 0 1-.448 1-1v-3c0-.552-.448-1-1-1v-1.75c0-1.243-1.007-2.25-2.25-2.25s-2.25 1.007-2.25 2.25c0 .414.336.75.75.75s.75-.336.75-.75.336-.75.75-.75.75.336.75.75v1.75h-3.5Zm.5 1.5v2h4v-2h-4Z"/></svg>