<svg viewBox="0 0 20 20" xmlns="http://www.w3.org/2000/svg"><path d="M2.707 9.707A.996.996 0 003 9V5a1 1 0 011-1 1 1 0 000-2C2.346 2 1 3.346 1 5v3.586l-.707.707a.999.999 0 000 1.414l.707.707V15c0 1.654 1.346 3 3 3a1 1 0 000-2 1 1 0 01-1-1v-4a.997.997 0 00-.293-.707L2.414 10l.293-.293zM19.924 9.617a1 1 0 00-.217-.324L19 8.586V5c0-1.654-1.346-3-3-3a1 1 0 100 2 1 1 0 011 1v4a.996.996 0 00.293.707l.293.293-.293.293A.996.996 0 0017 11v4a1 1 0 01-1 1 1 1 0 000 2c1.654 0 3-1.346 3-3v-3.586l.707-.707a1 1 0 00.217-1.09zM10 9a2.5 2.5 0 100-5 2.5 2.5 0 000 5z" fill="#5C5F62"/><path d="M5 13.375c0 1.036.84 1.875 1.875 1.875h6.25c1.036 0 1.875-.84 1.875-1.875 0-1.036-.937-3.125-5-3.125-4.062 0-5 2.09-5 3.125z" fill="#5C5F62"/></svg>