<svg xmlns="http://www.w3.org/2000/svg" viewBox="0 0 20 20"><path fill-rule="evenodd" d="M5.75 3.5c-1.275 0-2.219 1.021-2.074 2.149.403 3.132 1.492 5.583 3.233 7.35 1.739 1.768 4.191 2.918 7.441 3.337 1.128.145 2.15-.8 2.15-2.074v-1.448c0-.114-.077-.213-.187-.242l-2.384-.625c-.062-.016-.127-.008-.183.022l-1.425.77c-.692.373-1.629.487-2.414-.035-.97-.645-1.966-1.653-2.604-2.627-.516-.789-.403-1.725-.024-2.42l.734-1.348c.05-.092.062-.198.036-.299l-.578-2.204c-.047-.18-.21-.306-.397-.306h-1.323Zm-3.561 2.34c-.278-2.159 1.523-3.84 3.562-3.84h1.323c.869 0 1.628.586 1.848 1.426l.578 2.204c.122.468.063.966-.167 1.392l-.002.002-.735 1.35c-.19.35-.173.674-.038.881.528.807 1.38 1.67 2.179 2.2.201.133.522.152.871-.036l1.426-.77c.39-.21.846-.265 1.275-.153l2.385.625c.77.202 1.306.897 1.306 1.693v1.448c0 2.039-1.683 3.84-3.841 3.561-3.506-.451-6.296-1.715-8.32-3.771-2.022-2.055-3.216-4.837-3.65-8.211Z"/></svg>