<svg xmlns="http://www.w3.org/2000/svg" viewBox="0 0 16 16"><path fill-rule="evenodd" d="M4.751 1c-2.03 0-3.861 1.681-3.527 3.855.42 2.737 1.442 5.012 3.12 6.715 1.68 1.705 3.962 2.78 6.8 3.216 2.175.334 3.855-1.497 3.855-3.527v-.727c0-.796-.537-1.491-1.306-1.693l-1.9-.498c-.43-.113-.885-.058-1.276.153l-1.067.576c-.352.19-.663.165-.85.034-.62-.431-1.264-1.084-1.694-1.71-.133-.192-.155-.509.036-.86l.572-1.05.001-.002c.211-.39.266-.846.153-1.276l-.498-1.9c-.201-.77-.897-1.306-1.693-1.306h-.726Zm-2.045 3.627c-.169-1.102.76-2.127 2.045-2.127h.726c.114 0 .213.077.242.187l.498 1.9c.016.06.008.126-.022.182l-.57 1.047c-.378.693-.497 1.64.045 2.428.53.772 1.302 1.554 2.071 2.09.784.548 1.731.429 2.422.056l1.067-.576c.056-.03.12-.038.182-.022l1.9.498c.11.029.187.128.187.242v.727c0 1.284-1.025 2.213-2.126 2.044-2.587-.397-4.55-1.356-5.96-2.786-1.41-1.431-2.323-3.392-2.707-5.89Z"/><path d="M12.749 7.01c.414 0 .75-.336.75-.75s-.336-.75-.75-.75h-1.19l2.72-2.72c.293-.293.293-.768 0-1.06-.293-.293-.768-.293-1.06 0l-2.72 2.72v-1.19c0-.414-.336-.75-.75-.75s-.75.336-.75.75v3c0 .414.336.75.75.75h3Z"/></svg>