<svg xmlns="http://www.w3.org/2000/svg" viewBox="0 0 20 20"><path fill-rule="evenodd" d="M5.751 2c-2.039 0-3.84 1.681-3.562 3.84.434 3.375 1.628 6.157 3.65 8.212 2.024 2.056 4.814 3.32 8.32 3.771 2.158.278 3.841-1.522 3.841-3.561v-1.448c0-.796-.537-1.491-1.306-1.693l-2.385-.625c-.43-.112-.885-.058-1.275.153l-1.426.77c-.35.188-.67.17-.87.036-.8-.53-1.652-1.393-2.18-2.2-.135-.207-.152-.531.038-.88l.735-1.35.002-.003c.23-.426.29-.924.167-1.392l-.578-2.204c-.22-.84-.98-1.426-1.848-1.426h-1.323Zm-2.075 3.649c-.145-1.128.8-2.15 2.075-2.15l1.323.001c.187 0 .35.126.397.306l.578 2.204c.026.1.013.207-.036.298v.001l-.734 1.347c-.379.696-.492 1.632.024 2.42.638.975 1.633 1.983 2.604 2.628.785.522 1.722.409 2.414.035l1.425-.77c.056-.03.121-.038.183-.022l2.385.625c.11.029.186.128.186.242v1.448c0 1.275-1.022 2.219-2.15 2.074-3.25-.419-5.702-1.57-7.441-3.336-1.74-1.768-2.83-4.219-3.233-7.351Z"/><path d="M15.5 9c.414 0 .75-.336.75-.75s-.336-.75-.75-.75h-1.94l3.97-3.97c.293-.293.293-.767 0-1.06-.293-.293-.767-.293-1.06 0l-3.97 3.97v-1.94c0-.414-.336-.75-.75-.75s-.75.336-.75.75v3.75c0 .414.336.75.75.75h3.75Z"/></svg>