<svg xmlns="http://www.w3.org/2000/svg" viewBox="0 0 16 16"><path fill-rule="evenodd" d="M4.75 2.5c-1.283 0-2.213 1.025-2.044 2.127.384 2.498 1.296 4.459 2.707 5.89 1.41 1.43 3.373 2.389 5.96 2.786 1.101.17 2.126-.76 2.126-2.044v-.727c0-.114-.077-.213-.187-.242l-1.9-.498c-.061-.016-.126-.008-.182.022l-1.067.576c-.69.373-1.638.492-2.422-.056-.769-.536-1.541-1.318-2.071-2.09-.542-.787-.423-1.735-.045-2.428l.57-1.047c.03-.056.038-.121.022-.182l-.498-1.9c-.029-.11-.128-.187-.242-.187h-.726Zm-3.526 2.355c-.334-2.174 1.497-3.856 3.527-3.855h.726c.796 0 1.492.537 1.693 1.306l.498 1.9c.113.43.058.885-.153 1.276l-.001.002-.572 1.05c-.191.351-.169.668-.036.86.43.626 1.075 1.279 1.693 1.71.188.13.5.156.851-.034l1.067-.576c.39-.211.847-.266 1.276-.153l1.9.498c.77.202 1.306.897 1.306 1.693v.727c0 2.03-1.68 3.86-3.854 3.527-2.839-.436-5.12-1.511-6.8-3.216-1.68-1.703-2.701-3.978-3.121-6.715Zm8.775-2.595c0-.414.336-.75.75-.75h3c.414 0 .75.336.75.75v3c0 .414-.336.75-.75.75s-.75-.336-.75-.75v-1.19l-2.72 2.72c-.293.293-.768.293-1.06 0-.293-.292-.293-.767 0-1.06l2.72-2.72h-1.19c-.414 0-.75-.336-.75-.75Z"/></svg>