<svg viewBox="0 0 20 20" xmlns="http://www.w3.org/2000/svg"><path d="M13.105 2.1H17.1c.553 0 1 .446 1 .999v3.995a.997.997 0 01-1.705.708.998.998 0 01-.293-.707V5.511l-3.336 3.335a.999.999 0 01-1.413-1.411L14.69 4.1h-1.584a.999.999 0 01-.705-1.707.993.993 0 01.705-.293zM7.342 4.306l.534 2.67a1.495 1.495 0 01-.802 1.634l-.975.488c0 2 3 5 5 5l.488-.975a1.5 1.5 0 011.636-.8l2.67.534a1.5 1.5 0 011.206 1.471v3.235c0 .859-.725 1.572-1.584 1.535C6.6 18.71 1.561 14.847 1.101 4.686 1.062 3.827 1.778 3.1 2.638 3.1h3.233a1.5 1.5 0 011.471 1.206z" fill="currentColor"/></svg>