<svg xmlns="http://www.w3.org/2000/svg" viewBox="0 0 20 20"><path fill-rule="evenodd" d="M6.75 4.5c-1.283 0-2.213 1.025-2.044 2.127.384 2.498 1.296 4.459 2.707 5.89 1.41 1.43 3.373 2.389 5.96 2.786 1.101.17 2.126-.76 2.126-2.044v-.727a.25.25 0 0 0-.187-.242l-1.9-.498a.25.25 0 0 0-.182.022l-1.067.576c-.69.373-1.638.492-2.422-.056a8.678 8.678 0 0 1-2.071-2.09c-.542-.787-.423-1.735-.045-2.428l.57-1.047a.252.252 0 0 0 .022-.182l-.498-1.9a.25.25 0 0 0-.242-.187h-.726Zm-3.526 2.355c-.334-2.174 1.497-3.856 3.527-3.855h.726a1.75 1.75 0 0 1 1.693 1.306l.498 1.9c.113.43.058.885-.153 1.276l-.001.002-.572 1.05c-.191.351-.169.668-.036.86a7.184 7.184 0 0 0 1.694 1.71c.187.13.498.156.85-.034l1.067-.576a1.75 1.75 0 0 1 1.276-.153l1.9.498a1.75 1.75 0 0 1 1.306 1.693v.727c0 2.03-1.68 3.86-3.854 3.527-2.838-.436-5.12-1.511-6.8-3.216-1.68-1.703-2.701-3.978-3.121-6.715Zm8.775-2.595a.75.75 0 0 1 .75-.75h3a.75.75 0 0 1 .75.75v3a.75.75 0 0 1-1.5 0v-1.19l-2.72 2.72a.75.75 0 0 1-1.06-1.06l2.72-2.72h-1.19a.75.75 0 0 1-.75-.75Z"/></svg>