<svg width="20" height="20" viewBox="0 0 20 20" fill="none" xmlns="http://www.w3.org/2000/svg">
<path d="M6.5 5.2746V4.25C6.5 3.55964 7.05964 3 7.75 3H12.25C12.9404 3 13.5 3.55964 13.5 4.25V5.2746C13.5 5.72317 13.2596 6.13735 12.8702 6.3599L12.4401 6.60563L13.3056 10.5H14C14.6904 10.5 15.25 11.0596 15.25 11.75V12.75C15.25 13.4404 14.6904 14 14 14H11.2187L10.7398 16.8733C10.6795 17.2349 10.3666 17.5 10 17.5C9.63338 17.5 9.32048 17.2349 9.26021 16.8733L8.78133 14H6C5.30964 14 4.75 13.4404 4.75 12.75V11.75C4.75 11.0596 5.30964 10.5 6 10.5H6.69444L7.55986 6.60563L7.12983 6.3599C6.74036 6.13735 6.5 5.72317 6.5 5.2746Z" fill="#4A4A4A"/>
</svg>
