<svg xmlns="http://www.w3.org/2000/svg" viewBox="0 0 16 16"><path fill-rule="evenodd" d="M4.5 12.5h2.35l.408 2.856c.052.37.369.644.742.644s.69-.274.742-.644l.408-2.856h2.35c1.105 0 2-.895 2-2v-.5c0-1.086-.866-1.97-1.944-2l-.609-2.738c.627-.338 1.053-1 1.053-1.762v-.5c0-1.105-.895-2-2-2h-4c-1.105 0-2 .895-2 2v.5c0 .762.426 1.424 1.053 1.762l-.609 2.739c-1.079.03-1.944.913-1.944 1.999v.5c0 1.105.895 2 2 2Zm1.481-4.5h1.269c.414 0 .75.336.75.75s-.336.75-.75.75h-2.5v-.007l-.265.007c-.269.008-.485.229-.485.5v.5c0 .276.224.5.5.5h7c.276 0 .5-.224.5-.5v-.5c0-.271-.216-.492-.485-.5l-1.17-.032-1.108-4.988.999-.539c.16-.086.264-.253.264-.441v-.5c0-.276-.224-.5-.5-.5h-4c-.276 0-.5.224-.5.5v.5c0 .188.104.355.264.441l1 .539-.783 3.52Z"/></svg>