<svg xmlns="http://www.w3.org/2000/svg" viewBox="0 0 20 21"><path fill-rule="evenodd" d="M13.195 7.193c.67-.323 1.131-1.009 1.131-1.802v-.891c0-1.105-.895-2-2-2h-4.696c-1.104 0-2 .895-2 2v.891c0 .793.462 1.479 1.131 1.802l-.623 2.807h-.138c-1.105 0-2 .895-2 2v1c0 1.105.895 2 2 2h2.577l.684 3.88c.064.359.375.62.739.62s.675-.261.739-.62l.684-3.88h2.534c1.104 0 2-.895 2-2v-1c0-1.105-.896-2-2-2h-.138l-.624-2.807Zm-4.712-.834-.809 3.641h1.826c.414 0 .75.336.75.75s-.336.75-.75.75h-3.5c-.276 0-.5.224-.5.5v1c0 .276.224.5.5.5h7.957c.276 0 .5-.224.5-.5v-1c0-.276-.224-.5-.5-.5h-1.341l-1.143-5.14 1.07-.517c.17-.083.283-.256.283-.452v-.891c0-.276-.224-.5-.5-.5h-4.696c-.276 0-.5.224-.5.5v.891c0 .196.113.369.284.452l1.07.516Z"/></svg>