<svg viewBox="0 0 20 20" xmlns="http://www.w3.org/2000/svg"><path d="M6.625 5.5c0-.397.26-.851.878-1.238.61-.38 1.49-.637 2.497-.637 1.006 0 1.887.256 2.497.637.619.387.878.84.878 1.238 0 .397-.26.851-.878 1.238-.61.38-1.49.637-2.497.637-1.006 0-1.887-.256-2.497-.637-.619-.387-.878-.84-.878-1.238Z" fill="#5C5F62"/><path d="M13.077 7.848c-.828.493-1.913.777-3.077.777s-2.25-.284-3.077-.777l-.516 2.32c-1.168.504-1.907 1.25-1.907 2.082 0 1.392 2.067 2.542 4.75 2.725v1.775a.75.75 0 0 0 1.5 0v-1.775c2.683-.183 4.75-1.333 4.75-2.725 0-.832-.74-1.578-1.907-2.082l-.516-2.32Z" fill="#5C5F62"/></svg>