<svg viewBox="0 0 20 20" xmlns="http://www.w3.org/2000/svg"><path d="M6.10811 1.31082C6.51457 1.07818 6.9992 1 7.49535 1H12.504C13.0002 1 13.4848 1.07817 13.8913 1.3108C14.3387 1.56688 14.6208 1.97191 14.7118 2.44325C14.7939 2.86854 14.7071 3.27053 14.597 3.57709C14.4911 3.87216 14.3384 4.1496 14.1763 4.39111L13.5913 5.50065C13.5105 5.68372 13.5007 5.76279 13.4999 5.78039C13.5012 5.78792 13.5126 5.83059 13.5945 6.00703L15.3967 9.69214C15.6514 10.1636 15.8522 10.6014 15.9433 10.9933C16.0357 11.391 16.0645 11.9835 15.6165 12.4564C15.2424 12.8513 14.7277 12.9332 14.4433 12.9649C14.128 13.0001 13.7515 13.0001 13.3956 13L10.9997 13V18C10.9997 18.5523 10.552 19 9.99968 19C9.4474 19 8.99968 18.5523 8.99968 18V13L6.60375 13C6.24856 13.0001 5.87238 13.0001 5.55721 12.9649C5.27274 12.9332 4.75859 12.8512 4.38458 12.4571C3.93648 11.9848 3.96406 11.3927 4.05631 10.9941C4.14707 10.6019 4.34785 10.1637 4.60263 9.69214L6.40248 6.01191C6.44921 5.90838 6.47133 5.85759 6.48663 5.81392C6.4947 5.79091 6.49706 5.77995 6.49763 5.7766C6.49692 5.75868 6.48743 5.68045 6.40805 5.50063L5.82306 4.39107C5.66103 4.14956 5.50829 3.87211 5.4024 3.57703C5.29239 3.27048 5.20556 2.86851 5.28766 2.44325C5.37865 1.97194 5.66069 1.56692 6.10811 1.31082Z" fill="#5C5F62"/></svg>
