<svg viewBox="0 0 20 20" fill="none" xmlns="http://www.w3.org/2000/svg"><mask id="a" fill="#fff"><path fill-rule="evenodd" clip-rule="evenodd" d="M6.5 5v.5c0 .495.24.934.61 1.207.22.163.374.436.294.698l-.838 2.741a.5.5 0 0 1-.478.354h-.088a1.5 1.5 0 0 0-1.5 1.5v1a1.5 1.5 0 0 0 1.5 1.5h8a1.5 1.5 0 0 0 1.5-1.5v-1a1.5 1.5 0 0 0-1.5-1.5h-.088a.5.5 0 0 1-.479-.354l-.837-2.74c-.08-.263.074-.536.295-.7.37-.272.609-.711.609-1.206v-.5a1.5 1.5 0 0 0-1.5-1.5h-4a1.5 1.5 0 0 0-1.5 1.5Z"/></mask><path fill-rule="evenodd" clip-rule="evenodd" d="M6.5 5v.5c0 .495.24.934.61 1.207.22.163.374.436.294.698l-.838 2.741a.5.5 0 0 1-.478.354h-.088a1.5 1.5 0 0 0-1.5 1.5v1a1.5 1.5 0 0 0 1.5 1.5h8a1.5 1.5 0 0 0 1.5-1.5v-1a1.5 1.5 0 0 0-1.5-1.5h-.088a.5.5 0 0 1-.479-.354l-.837-2.74c-.08-.263.074-.536.295-.7.37-.272.609-.711.609-1.206v-.5a1.5 1.5 0 0 0-1.5-1.5h-4a1.5 1.5 0 0 0-1.5 1.5Z" fill="#4A4A4A"/><path d="m12.596 7.405-1.434.438 1.434-.438Zm.295-.698.892 1.206-.892-1.206Zm-6.325 3.44-1.434-.44 1.434.44Zm6.868 0 1.434-.44-1.434.44Zm-5.434-4.647v-.5h-3v.5h3Zm0 0s-.001-.001 0 0v.001-.001h-3c0 .99.482 1.87 1.217 2.413l1.784-2.412Zm.001 5.084.838-2.74-2.87-.877-.837 2.74 2.869.877Zm-1.913-1.584h-.088v3h.088v-3Zm-.088 0a3 3 0 0 0-3 3h3v-3Zm-3 3v1h3v-1h-3Zm0 1a3 3 0 0 0 3 3v-3h-3Zm3 3h8v-3h-8v3Zm8 0a3 3 0 0 0 3-3h-3v3Zm3-3v-1h-3v1h3Zm0-1a3 3 0 0 0-3-3v3h3Zm-3-3h-.088v3h.088v-3Zm-2.838-1.157.837 2.741 2.87-.876-.838-2.741-2.87.876Zm.838-2.343v.001a.01.01 0 0 1 0-.002v.002l1.783 2.412a2.998 2.998 0 0 0 1.217-2.413h-3Zm0-.5v.5h3v-.5h-3Zm0 0h3a3 3 0 0 0-3-3v3Zm-4 0h4v-3h-4v3Zm0 0v-3a3 3 0 0 0-3 3h3Zm6.03 1.967a.967.967 0 0 1-.038.682.672.672 0 0 1-.21.264l-1.783-2.412c-.488.36-1.179 1.226-.838 2.342l2.87-.876Zm-8.898 2.74a1 1 0 0 1 .956-.707v3a2 2 0 0 0 1.913-1.416l-2.87-.876Zm8.78-.707a1 1 0 0 1 .956.708l-2.869.876a2 2 0 0 0 1.913 1.416v-3Zm-7.695-1.087a.67.67 0 0 1-.209-.264.966.966 0 0 1-.039-.682l2.87.876c.34-1.116-.35-1.981-.838-2.342l-1.784 2.412Z" fill="#4A4A4A" mask="url(#a)"/><path d="m10 16.75-.5-3h1l-.5 3Z" stroke="#4A4A4A" stroke-width="1.5" stroke-linejoin="round"/></svg>