<svg viewBox="0 0 20 20" xmlns="http://www.w3.org/2000/svg"><path d="M6.79152 3.27545C7.15863 3.06496 7.58539 3 8.00008 3H12.0001C12.4148 3 12.8415 3.06496 13.2087 3.27543C13.6167 3.50937 13.8774 3.88292 13.961 4.317C14.0359 4.70516 13.9558 5.06503 13.8613 5.32872C13.7713 5.58007 13.6432 5.81352 13.5092 6.01476L13.0502 6.88689C13.0247 6.94537 13.0109 6.98531 13.0036 7.01003C13.0128 7.03217 13.0272 7.06445 13.0524 7.11885L14.4766 10.0164C14.7181 10.4118 14.9095 10.8105 14.9755 11.2C15.0538 11.6617 14.9592 12.1928 14.5171 12.5717C14.1693 12.8699 13.743 12.9419 13.4997 12.97C13.2385 13.0001 12.9519 13.0001 12.7271 13C12.718 13 12.709 13 12.7001 13H11.0001V16C11.0001 16.5523 10.5524 17 10.0001 17C9.44779 17 9.00008 16.5523 9.00008 16V13H7.30013C7.29124 13 7.28225 13 7.27315 13C7.04829 13.0001 6.76171 13.0001 6.50054 12.97C6.25716 12.9419 5.83091 12.8699 5.48304 12.5718C5.04092 12.1928 4.94629 11.6617 5.02462 11.1999C5.09069 10.8105 5.28205 10.4118 5.52352 10.0164L6.94528 7.12384C6.97192 7.06466 6.98643 7.0315 6.99569 7.00829C6.9887 6.9842 6.97525 6.94485 6.94995 6.88686L6.49093 6.01472C6.35696 5.81347 6.22892 5.58001 6.13887 5.32866C6.04442 5.06498 5.96438 4.70513 6.03919 4.317C6.12284 3.88295 6.38348 3.50941 6.79152 3.27545ZM12.9958 7.04222C12.9958 7.04222 12.9959 7.04125 12.9963 7.03916Z" fill="#5C5F62"/></svg>
