<svg xmlns="http://www.w3.org/2000/svg" viewBox="0 0 20 20"><path fill-rule="evenodd" fill="#5C5F62" d="M4.5 8.58284C4.5 6.19414 6.34535 4 9.82112 4C12.6148 4 14.7857 5.87169 14.7857 8.37399C14.7857 10.9841 13.0354 13.0844 10.6069 13.0844C9.79074 13.0844 9.02386 12.6857 8.76152 12.2147C8.76152 12.2147 8.35764 13.6605 8.25947 14.015C8.07768 14.6726 7.58723 15.4972 7.25831 16C7.07053 15.9453 6.88881 15.8784 6.70718 15.8114C6.63714 15.2124 6.57405 14.2964 6.73591 13.6442C6.88211 13.0535 7.68027 9.87986 7.68027 9.87986C7.68027 9.87986 7.43931 9.42607 7.43931 8.75585C7.43931 7.70262 8.08817 6.91677 8.89627 6.91677C9.58355 6.91677 9.91495 7.40203 9.91495 7.98341C9.91495 8.39903 9.73533 8.94582 9.54627 9.52137C9.4396 9.8461 9.32991 10.18 9.24779 10.5046C9.05795 11.2587 9.64982 11.8736 10.4402 11.8736C11.8715 11.8736 12.9716 10.4542 12.9716 8.40575C12.9716 6.59259 11.5865 5.3247 9.60832 5.3247C7.31726 5.3247 5.97244 6.94095 5.97244 8.61139C5.97244 9.26208 6.23879 9.95996 6.57177 10.3398C6.63743 10.4149 6.64702 10.4805 6.6275 10.5568C6.5905 10.7018 6.52605 10.948 6.47505 11.1429C6.44194 11.2694 6.41449 11.3742 6.40389 11.4157C6.36889 11.5547 6.28711 11.5835 6.13474 11.5168C5.12874 11.0764 4.5 9.69374 4.5 8.58284Z"/></svg>
