<svg viewBox="0 0 20 20" xmlns="http://www.w3.org/2000/svg"><path fill-rule="evenodd" d="M13.484 9.679c1.23.55 2.016 1.385 2.016 2.321 0 1.518-2.067 2.773-4.75 2.972v1.778a.75.75 0 0 1-1.5 0v-1.778c-2.683-.2-4.75-1.454-4.75-2.972 0-.936.785-1.771 2.016-2.321l.55-2.48c-.661-.445-1.066-1.043-1.066-1.699 0-1.38 1.79-2.5 4-2.5s4 1.12 4 2.5c0 .656-.405 1.254-1.067 1.7l.551 2.479Zm-1.952-1.869.652 2.93.688.308c.477.213.787.448.96.642.164.186.168.288.168.31 0 .022-.037.373-.83.805-.735.4-1.853.695-3.17.695s-2.436-.294-3.17-.695c-.793-.432-.83-.783-.83-.805 0-.022.004-.124.168-.31.173-.194.483-.429.96-.642l.689-.308.65-2.93c.473.122.99.19 1.533.19a6.14 6.14 0 0 0 1.532-.19Zm.7-1.955c-.04.032-.086.066-.137.1l-.004.004a2.057 2.057 0 0 1-.058.037c-.45.281-1.165.504-2.033.504-.868 0-1.583-.223-2.033-.504a2.15 2.15 0 0 1-.058-.037l-.004-.003a1.82 1.82 0 0 1-.136-.101 1.24 1.24 0 0 1-.164-.16.74.74 0 0 1-.084-.124.173.173 0 0 1-.021-.068v-.003c0-.008 0-.049.057-.132a1.35 1.35 0 0 1 .41-.364c.45-.281 1.165-.504 2.033-.504.868 0 1.583.223 2.033.504a1.363 1.363 0 0 1 .43.393c.036.062.037.094.037.102v.002c0 .007 0 .03-.022.072a.464.464 0 0 1-.026.047 1.1 1.1 0 0 1-.22.235Z" fill="#5C5F62"/></svg>