<svg viewBox="0 0 20 20" xmlns="http://www.w3.org/2000/svg"><path d="M6.10811 1.31082C6.51457 1.07818 6.9992 1 7.49535 1H12.504C13.0002 1 13.4848 1.07817 13.8913 1.3108C14.3387 1.56688 14.6208 1.97191 14.7118 2.44325C14.7939 2.86854 14.7071 3.27053 14.597 3.57709C14.4911 3.87216 14.3384 4.1496 14.1763 4.39111L13.5913 5.50065C13.5105 5.68372 13.5007 5.76279 13.4999 5.78039C13.5012 5.78792 13.5126 5.83059 13.5945 6.00703L15.3967 9.69214C15.6514 10.1636 15.8522 10.6014 15.9433 10.9933C16.0357 11.391 16.0645 11.9835 15.6165 12.4564C15.2424 12.8513 14.7277 12.9332 14.4433 12.9649C14.128 13.0001 13.7515 13.0001 13.3956 13L10.9997 13V18C10.9997 18.5523 10.552 19 9.99968 19C9.4474 19 8.99968 18.5523 8.99968 18V13L6.60375 13C6.24856 13.0001 5.87238 13.0001 5.55721 12.9649C5.27274 12.9332 4.75859 12.8512 4.38458 12.4571C3.93648 11.9848 3.96406 11.3927 4.05631 10.9941C4.14707 10.6019 4.34785 10.1637 4.60263 9.69214L6.40248 6.01191C6.44921 5.90838 6.47133 5.85759 6.48663 5.81392C6.4947 5.79091 6.49706 5.77995 6.49763 5.7766C6.49692 5.75868 6.48743 5.68045 6.40805 5.50063L5.82306 4.39107C5.66103 4.14956 5.50829 3.87211 5.4024 3.57703C5.29239 3.27048 5.20556 2.86851 5.28766 2.44325C5.37865 1.97194 5.66069 1.56692 6.10811 1.31082ZM7.32836 3.00591C7.37048 3.09589 7.42933 3.19826 7.50412 3.30649C7.52678 3.33927 7.54745 3.37338 7.56603 3.40862L8.19211 4.59612C8.20131 4.61357 8.20999 4.63129 8.21815 4.64925C8.41366 5.08009 8.52469 5.49451 8.49188 5.92797C8.46266 6.31387 8.3189 6.62948 8.23428 6.81525C8.22885 6.82715 8.22367 6.83852 8.21878 6.84934C8.21461 6.85857 8.2103 6.86774 8.20585 6.87683L6.39021 10.5893C6.38406 10.6019 6.37764 10.6144 6.37096 10.6267C6.29502 10.7667 6.23209 10.8897 6.18056 10.9976C6.31706 11 6.46845 11 6.643 11H13.3563C13.5309 11 13.6823 11 13.8189 10.9976C13.7673 10.8897 13.7043 10.7667 13.6284 10.6267C13.6217 10.6144 13.6153 10.6019 13.6092 10.5893L11.7935 6.87684L11.7853 6.85955C11.7813 6.85109 11.7772 6.84235 11.773 6.83331C11.6834 6.64171 11.5338 6.3217 11.5051 5.92455C11.4738 5.49058 11.5872 5.07675 11.7812 4.64931C11.7894 4.63133 11.798 4.61359 11.8073 4.59612L12.4333 3.40862C12.4519 3.37334 12.4726 3.33921 12.4953 3.3064C12.5701 3.19821 12.6289 3.09587 12.6711 3.00591C12.6233 3.00226 12.5679 3 12.504 3H7.49535C7.43149 3 7.37608 3.00225 7.32836 3.00591Z" fill="#5C5F62"/></svg>
