<svg viewBox="0 0 20 20" fill="none" xmlns="http://www.w3.org/2000/svg"><mask id="a" fill="#fff"><path fill-rule="evenodd" clip-rule="evenodd" d="M6 5v.5a2 2 0 0 0 1.053 1.762l-.609 2.739a2 2 0 0 0-1.944 1.999v.5a2 2 0 0 0 2 2h7a2 2 0 0 0 2-2v-.5a2 2 0 0 0-1.944-2l-.609-2.738a2 2 0 0 0 1.053-1.762v-.5a2 2 0 0 0-2-2h-4a2 2 0 0 0-2 2Z"/></mask><path d="m7.053 7.262 1.464.325.246-1.107-.999-.539-.711 1.321Zm-.609 2.739.041 1.5 1.17-.033.254-1.142-1.465-.325Zm7.112 0-1.465.325.254 1.142 1.17.032.04-1.5Zm-.609-2.739-.711-1.32-1 .538.247 1.107 1.464-.325Zm-5.447-1.762v-.5h-3v.5h3Zm.264.441a.5.5 0 0 1-.264-.441h-3a3.5 3.5 0 0 0 1.842 3.083l1.422-2.642Zm.145 4.385.608-2.739-2.928-.65-.609 2.738 2.929.651Zm-1.506-1.825a3.5 3.5 0 0 0-3.403 3.499h3a.5.5 0 0 1 .485-.5l-.082-2.999Zm-3.403 3.499v.5h3v-.5h-3Zm0 .5a3.5 3.5 0 0 0 3.5 3.5v-3a.5.5 0 0 1-.5-.5h-3Zm3.5 3.5h7v-3h-7v3Zm7 0a3.5 3.5 0 0 0 3.5-3.5h-3a.5.5 0 0 1-.5.5v3Zm3.5-3.5v-.5h-3v.5h3Zm0-.5a3.5 3.5 0 0 0-3.403-3.499l-.082 3a.5.5 0 0 1 .485.499h3Zm-5.517-4.413.608 2.74 2.929-.652-.609-2.738-2.928.65Zm1.017-2.087a.5.5 0 0 1-.264.441l1.422 2.642a3.5 3.5 0 0 0 1.842-3.083h-3Zm0-.5v.5h3v-.5h-3Zm-.5-.5a.5.5 0 0 1 .5.5h3a3.5 3.5 0 0 0-3.5-3.5v3Zm-4 0h4v-3h-4v3Zm-.5.5a.5.5 0 0 1 .5-.5v-3a3.5 3.5 0 0 0-3.5 3.5h3Z" fill="#4A4A4A" mask="url(#a)"/><path d="m10 16.75-.5-3h1l-.5 3Z" stroke="#4A4A4A" stroke-width="1.5" stroke-linejoin="round"/><path d="M9.25 11.5a.75.75 0 0 0 0-1.5v1.5Zm0-1.5h-2.5v1.5h2.5v-1.5Z" fill="#4A4A4A"/></svg>