<svg xmlns="http://www.w3.org/2000/svg" viewBox="0 0 20 20"><path d="m14.956 3.953 1.772-2.56c.115-.167-.004-.393-.205-.393h-3.546c-.202 0-.32.226-.205.392l1.772 2.561c.1.144.312.144.412 0Z"/><path fill-rule="evenodd" d="M11.25 6.25c0-.69.56-1.25 1.25-1.25h4.25c.69 0 1.25.56 1.25 1.25v10.5c0 .69-.56 1.25-1.25 1.25h-13.5c-.69 0-1.25-.56-1.25-1.25v-3.5c0-.69.56-1.25 1.25-1.25h3.25v-2.25c0-.69.56-1.25 1.25-1.25h3.5v-2.25Zm1.5.25v2.75c0 .046-.004.09-.012.135h2.116v-2.885h-2.104Zm-4.75 3.5h2.043v2.77h-2.043v-2.77Zm-4.5 3.5h2v3h-2v-3Z"/></svg>