<svg xmlns="http://www.w3.org/2000/svg" viewBox="0 0 20 20"><path d="m14.956 3.953 1.772-2.56c.115-.167-.004-.393-.205-.393h-3.546c-.202 0-.32.226-.205.392l1.772 2.561c.1.144.312.144.412 0Z"/><path fill-rule="evenodd" d="M11.25 8.5v-2.25c0-.69.56-1.25 1.25-1.25h4.25c.69 0 1.25.56 1.25 1.25v10.5c0 .69-.56 1.25-1.25 1.25h-13.5c-.69 0-1.25-.56-1.25-1.25v-3.5c0-.69.56-1.25 1.25-1.25h3.25v-2.25c0-.69.56-1.25 1.25-1.25h3.5Zm5.25 8h-11.75v-3h3.75c.414 0 .75-.336.75-.75v-2.75h4c.414 0 .75-.336.75-.75v-2.75h2.5v10Z"/></svg>