<svg xmlns="http://www.w3.org/2000/svg" viewBox="0 0 16 16"><path d="m12.208 2.688 1.533-2.3c.11-.165-.008-.388-.208-.388h-3.066c-.2 0-.319.223-.208.389l1.533 2.299c.099.148.317.148.416 0Z"/><path fill-rule="evenodd" d="M9.25 5c0-.69.56-1.25 1.25-1.25h3.25c.69 0 1.25.56 1.25 1.25v8.75c0 .69-.56 1.25-1.25 1.25h-11.5c-.69 0-1.25-.56-1.25-1.25v-2.75c0-.69.56-1.25 1.25-1.25h2.75v-1.75c0-.69.56-1.25 1.25-1.25h3v-1.75Zm2.25 2.5v-2.25h2v8.25h-10.25v-2.25h3.25c.414 0 .75-.336.75-.75v-2.25h3.5c.414 0 .75-.336.75-.75Z"/></svg>