<svg xmlns="http://www.w3.org/2000/svg" viewBox="0 0 20 20"><path fill-rule="evenodd" d="M14.119 10.653c.235-.133.38-.382.381-.651 0-.27-.144-.52-.378-.653l-5.75-3.281c-.232-.133-.518-.132-.749.002-.23.135-.373.382-.373.649v6.531c0 .267.142.513.372.648.23.134.515.136.747.005l5.75-3.25Zm-5.369 1.312v-3.955l3.481 1.987-3.481 1.968Z"/><path fill-rule="evenodd" d="M18 10c0 4.418-3.582 8-8 8s-8-3.582-8-8 3.582-8 8-8 8 3.582 8 8Zm-1.5 0c0 3.59-2.91 6.5-6.5 6.5s-6.5-2.91-6.5-6.5 2.91-6.5 6.5-6.5 6.5 2.91 6.5 6.5Z"/></svg>