<svg xmlns="http://www.w3.org/2000/svg" viewBox="0 0 16 16"><path fill-rule="evenodd" d="M11.875 8.65c.232-.135.375-.382.375-.65s-.143-.516-.375-.65l-5.25-3.03c-.232-.135-.518-.135-.75 0-.232.133-.375.38-.375.649v6.062c0 .268.143.515.375.65.232.133.518.133.75 0l5.25-3.032Zm-4.875 1.082v-3.464l3 1.732-3 1.732Z"/><path fill-rule="evenodd" d="M8 1c-3.866 0-7 3.134-7 7s3.134 7 7 7 7-3.134 7-7-3.134-7-7-7Zm-5.5 7c0-3.038 2.462-5.5 5.5-5.5s5.5 2.462 5.5 5.5-2.462 5.5-5.5 5.5-5.5-2.462-5.5-5.5Z"/></svg>