<svg xmlns="http://www.w3.org/2000/svg" viewBox="0 0 12 12"><path d="M6.6 3.603c0-.332-.269-.6-.6-.6-.331 0-.6.268-.6.6v1.799h-1.8c-.331 0-.6.268-.6.6 0 .33.269.6.6.6h1.8v1.798c0 .332.269.6.6.6.331 0 .6-.268.6-.6v-1.799h1.8c.331 0 .6-.268.6-.6 0-.33-.269-.6-.6-.6h-1.8v-1.798Z"/><path fill-rule="evenodd" d="M11.5 6c0 3.038-2.462 5.5-5.5 5.5s-5.5-2.462-5.5-5.5 2.462-5.5 5.5-5.5 5.5 2.462 5.5 5.5Zm-1.25 0c0 2.347-1.903 4.25-4.25 4.25s-4.25-1.903-4.25-4.25 1.903-4.25 4.25-4.25 4.25 1.903 4.25 4.25Z"/></svg>