<svg xmlns="http://www.w3.org/2000/svg" viewBox="0 0 16 16"><path d="M7.5 11.5c-.414 0-.75.336-.75.75s.336.75.75.75h1c.414 0 .75-.336.75-.75s-.336-.75-.75-.75h-1Z"/><path fill-rule="evenodd" d="M2.604 2.907c.163-.818.882-1.407 1.716-1.407h7.36c.834 0 1.553.589 1.716 1.407l.6 3c.217 1.083-.612 2.093-1.716 2.093h-1.272l.688 1.722.011.028h1.293c.966 0 1.75.784 1.75 1.75v1.5c0 .966-.784 1.75-1.75 1.75h-10c-.966 0-1.75-.784-1.75-1.75v-1.5c0-.966.784-1.75 1.75-1.75h1.293l.01-.028.69-1.722h-1.273c-1.105 0-1.933-1.01-1.716-2.093l.6-3Zm7.488 6.843h-4.184l.7-1.75h2.784l.7 1.75Zm-5.772-6.75c-.12 0-.222.084-.245.201l-.6 3c-.031.155.087.299.245.299h8.56c.158 0 .276-.144.245-.299l-.6-3c-.023-.117-.126-.201-.245-.201h-7.36Zm-1.32 8.25c-.138 0-.25.112-.25.25v1.5c0 .138.112.25.25.25h10c.138 0 .25-.112.25-.25v-1.5c0-.138-.112-.25-.25-.25h-10Z"/></svg>