<svg xmlns="http://www.w3.org/2000/svg" viewBox="0 0 20 20"><path d="M9.5 14c-.414 0-.75.336-.75.75s.336.75.75.75h1c.414 0 .75-.336.75-.75s-.336-.75-.75-.75h-1Z"/><path fill-rule="evenodd" d="M3.363 3.855c.183-.793.89-1.355 1.705-1.355h9.864c.815 0 1.522.562 1.705 1.355l.81 3.5c.254 1.097-.579 2.145-1.705 2.145h-2.593l1.43 2.5h1.171c.966 0 1.75.784 1.75 1.75v2c0 .966-.784 1.75-1.75 1.75h-11.5c-.966 0-1.75-.784-1.75-1.75v-2c0-.966.784-1.75 1.75-1.75h1.167l1.333-2.5h-2.492c-1.126 0-1.959-1.048-1.705-2.145l.81-3.5Zm9.488 8.145h-5.734l1.333-2.5h2.972l1.428 2.5Zm2.891-4h-11.484c-.161 0-.28-.15-.244-.306l.81-3.5c.026-.114.127-.194.244-.194h9.864c.117 0 .218.08.244.194l.81 3.5c.036.156-.083.306-.244.306Zm-11.492 5.5c-.138 0-.25.112-.25.25v2c0 .138.112.25.25.25h11.5c.138 0 .25-.112.25-.25v-2c0-.138-.112-.25-.25-.25h-11.5Z"/></svg>