<svg viewBox="0 0 20 20" xmlns="http://www.w3.org/2000/svg"><path d="M12.984 18a.999.999 0 01-.94-.658L8.967 8.888l-2.05 5.465a1.001 1.001 0 01-1.794.163L2.935 10.87l-1.124 1.685a1.002 1.002 0 01-1.665-1.11l2.001-3a.966.966 0 01.856-.444.998.998 0 01.834.485l1.936 3.223 2.271-6.059a1 1 0 01.938-.65h.005a1.001 1.001 0 01.935.658l2.948 8.1 3.154-11.033c.12-.42.502-.714.94-.724.43-.026.834.268.97.683l2.002 6a1 1 0 11-1.897.631l-.98-2.932-3.112 10.888a1 1 0 01-.928.726h-.035" fill="currentColor"/></svg>