<svg xmlns="http://www.w3.org/2000/svg" viewBox="0 0 20 20"><path d="M3 4.75c0-1.519 1.231-2.75 2.75-2.75h7.5c1.519 0 2.75 1.231 2.75 2.75v2c0 .414-.336.75-.75.75s-.75-.336-.75-.75v-2c0-.69-.56-1.25-1.25-1.25h-7.5c-.69 0-1.25.56-1.25 1.25v10.5c0 .69.56 1.25 1.25 1.25h4.5c.414 0 .75.336.75.75s-.336.75-.75.75h-4.5c-1.519 0-2.75-1.231-2.75-2.75v-10.5Z"/><path d="M6 6.75c0-.414.336-.75.75-.75h5.5c.414 0 .75.336.75.75s-.336.75-.75.75h-5.5c-.414 0-.75-.336-.75-.75Z"/><path d="M6 9.75c0-.414.336-.75.75-.75h4c.414 0 .75.336.75.75s-.336.75-.75.75h-4c-.414 0-.75-.336-.75-.75Z"/><path d="M6.75 12c-.414 0-.75.336-.75.75s.336.75.75.75h2.5c.414 0 .75-.336.75-.75s-.336-.75-.75-.75h-2.5Z"/><path d="M14.5 10.03c-1.133.18-2 1.16-2 2.345 0 1.312 1.063 2.375 2.375 2.375h.75c.483 0 .875.392.875.875s-.392.875-.875.875h-2.375c-.414 0-.75.336-.75.75s.336.75.75.75h1.25v.25c0 .414.336.75.75.75s.75-.336.75-.75v-.28c1.134-.18 2-1.16 2-2.345 0-1.312-1.063-2.375-2.375-2.375h-.75c-.483 0-.875-.392-.875-.875s.392-.875.875-.875h2.375c.414 0 .75-.336.75-.75s-.336-.75-.75-.75h-1.25v-.25c0-.414-.336-.75-.75-.75s-.75.336-.75.75v.28Z"/></svg>