<svg xmlns="http://www.w3.org/2000/svg" viewBox="0 0 16 16"><path fill-rule="evenodd" d="M2 1.5h8.5c.552 0 1 .448 1 1v3.765c-.082-.01-.165-.015-.25-.015-.813 0-1.513.485-1.826 1.182-1.266.444-2.174 1.65-2.174 3.068 0 .822.305 1.572.808 2.144-.49.365-.808.948-.808 1.606 0 .085.005.168.015.25h-5.265c-.552 0-1-.448-1-1v-11c0-.552.448-1 1-1Zm1.125 3.25c0-.345.28-.625.625-.625h5c.345 0 .625.28.625.625s-.28.625-.625.625h-5c-.345 0-.625-.28-.625-.625Zm0 3c0-.345.28-.625.625-.625h2.75c.345 0 .625.28.625.625s-.28.625-.625.625h-2.75c-.345 0-.625-.28-.625-.625Zm0 3c0-.345.28-.625.625-.625h2.25c.345 0 .625.28.625.625s-.28.625-.625.625h-2.25c-.345 0-.625-.28-.625-.625Z"/><path d="M11.25 7.5c.088 0 .172.015.25.043.291.103.5.38.5.707v.25h.75c.414 0 .75.336.75.75s-.336.75-.75.75h-2.25c-.276 0-.5.224-.5.5s.224.5.5.5h1c1.105 0 2 .895 2 2s-.895 2-2 2c0 .414-.336.75-.75.75s-.75-.336-.75-.75h-.75c-.327 0-.604-.209-.707-.5-.028-.078-.043-.162-.043-.25 0-.414.335-.749.748-.75h2.252c.276 0 .5-.224.5-.5s-.224-.5-.5-.5h-1c-.352 0-.682-.09-.969-.25-.615-.341-1.031-.997-1.031-1.75 0-1.105.895-2 2-2v-.25c0-.388.295-.708.673-.746.025-.003.051-.004.077-.004Z"/></svg>