<svg xmlns="http://www.w3.org/2000/svg" viewBox="0 0 20 20"><path fill-rule="evenodd" d="M5.75 2.25c-1.38 0-2.5 1.12-2.5 2.5v10.5c0 1.38 1.12 2.5 2.5 2.5h5.563c-.041-.16-.063-.327-.063-.5 0-.932.638-1.716 1.5-1.937-.909-.659-1.5-1.73-1.5-2.938 0-1.464.867-2.724 2.116-3.296.275-.775 1.015-1.329 1.884-1.329.173 0 .34.022.5.063v-3.063c0-1.38-1.12-2.5-2.5-2.5h-7.5Zm1 3.75c-.414 0-.75.336-.75.75s.336.75.75.75h5.5c.414 0 .75-.336.75-.75s-.336-.75-.75-.75h-5.5Zm0 3c-.414 0-.75.336-.75.75s.336.75.75.75h4c.414 0 .75-.336.75-.75s-.336-.75-.75-.75h-4Zm-.75 3.75c0-.414.336-.75.75-.75h2.5c.414 0 .75.336.75.75s-.336.75-.75.75h-2.5c-.414 0-.75-.336-.75-.75Z"/><path d="M14 12.375c0-.483.392-.875.875-.875h2.375c.414 0 .75-.336.75-.75s-.336-.75-.75-.75h-1.25v-.25c0-.222-.097-.422-.25-.559-.133-.119-.308-.191-.5-.191-.414 0-.75.336-.75.75v.28c-1.133.18-2 1.16-2 2.345 0 1.312 1.063 2.375 2.375 2.375h.75c.042 0 .084.003.125.009.424.06.75.425.75.866 0 .483-.392.875-.875.875h-2.375c-.414 0-.75.336-.75.75 0 .192.072.367.191.5.137.153.337.25.559.25h1.25v.25c0 .414.336.75.75.75s.75-.336.75-.75v-.28c1.134-.18 2-1.16 2-2.345 0-1.27-.996-2.307-2.25-2.372-.041-.002-.083-.003-.125-.003h-.75c-.483 0-.875-.392-.875-.875Z"/></svg>