<svg xmlns="http://www.w3.org/2000/svg" viewBox="0 0 16 16"><path d="M2.25 1c-.966 0-1.75.784-1.75 1.75v10.5c0 .966.784 1.75 1.75 1.75h4.5c.414 0 .75-.336.75-.75s-.336-.75-.75-.75h-4.5c-.138 0-.25-.112-.25-.25v-10.5c0-.138.112-.25.25-.25h8c.138 0 .25.112.25.25v2.75c0 .414.336.75.75.75s.75-.336.75-.75v-2.75c0-.966-.784-1.75-1.75-1.75h-8Z"/><path d="M3.5 4.75c0-.414.336-.75.75-.75h4c.414 0 .75.336.75.75s-.336.75-.75.75h-4c-.414 0-.75-.336-.75-.75Z"/><path d="M12 8.25c0-.414-.336-.75-.75-.75s-.75.336-.75.75v.25c-1.105 0-2 .895-2 2s.895 2 2 2h1c.276 0 .5.224.5.5s-.224.5-.5.5h-2.25c-.414 0-.75.336-.75.75s.336.75.75.75h.75c0 .414.336.75.75.75s.75-.336.75-.75c1.105 0 2-.895 2-2s-.895-2-2-2h-1c-.276 0-.5-.224-.5-.5s.224-.5.5-.5h2.25c.414 0 .75-.336.75-.75s-.336-.75-.75-.75h-.75v-.25Z"/><path d="M4.25 7c-.414 0-.75.336-.75.75s.336.75.75.75h2.75c.414 0 .75-.336.75-.75s-.336-.75-.75-.75h-2.75Z"/><path d="M3.5 10.75c0-.414.336-.75.75-.75h2.5c.414 0 .75.336.75.75s-.336.75-.75.75h-2.5c-.414 0-.75-.336-.75-.75Z"/></svg>