<svg xmlns="http://www.w3.org/2000/svg" viewBox="0 0 16 16"><path d="M6 11.75c0-.276.224-.5.5-.5h2c.276 0 .5.224.5.5s-.224.5-.5.5h-2c-.276 0-.5-.224-.5-.5Z"/><path d="M6.5 9.25c-.276 0-.5.224-.5.5s.224.5.5.5h3c.276 0 .5-.224.5-.5s-.224-.5-.5-.5h-3Z"/><path fill-rule="evenodd" d="m12.997 4 .001.08c.154.031.288.076.41.138.376.192.682.498.874.874.218.428.218.988.218 2.108v.6c0 1.12 0 1.68-.218 2.108-.192.376-.498.682-.874.874-.237.121-.516.175-.908.199v.46c0 .244 0 .509-.019.738-.02.26-.073.602-.254.956-.24.47-.622.853-1.092 1.092-.354.18-.697.233-.956.254-.23.02-.494.02-.739.019h-2.88c-.245 0-.51 0-.739-.019-.26-.02-.602-.073-.956-.254-.47-.24-.853-.622-1.093-1.092-.18-.354-.232-.697-.253-.956-.02-.23-.02-.494-.019-.739v-.46c-.392-.023-.67-.077-.908-.198-.376-.192-.682-.498-.874-.874-.218-.428-.218-.988-.218-2.108v-.6c0-1.12 0-1.68.218-2.108.192-.376.498-.682.874-.874.122-.062.256-.107.41-.139v-.079c.01-.675.049-1.08.216-1.408.192-.376.498-.682.874-.874.428-.218.988-.218 2.108-.218h3.6c1.12 0 1.68 0 2.108.218.376.192.682.498.874.874.167.328.206.733.215 1.408Zm-6.797-1h3.6c.585 0 .933.001 1.191.022.158.013.224.03.242.036.09.047.162.12.21.209.005.018.022.084.035.242.01.133.016.29.019.491h-6.994c.003-.201.008-.358.02-.491.012-.158.03-.224.035-.242.047-.09.12-.162.209-.21.018-.005.084-.022.242-.035.258-.02.606-.022 1.191-.022Zm-1.5 2.5h6.6c.585 0 .933.001 1.191.022.158.013.224.03.242.036.09.047.162.12.21.209.005.018.022.084.035.242.02.258.022.606.022 1.191v.6c0 .585-.001.933-.022 1.191-.013.158-.03.224-.036.242-.047.09-.12.162-.209.21-.017.005-.082.021-.233.034v-.59c0-.054 0-.167-.008-.273-.011-.135-.043-.385-.183-.658-.167-.33-.435-.597-.764-.765-.274-.14-.524-.172-.659-.183-.106-.008-.22-.008-.272-.008h-5.227c-.054 0-.167 0-.273.008-.135.011-.385.043-.658.183-.33.168-.597.435-.765.765-.14.273-.172.523-.183.658-.008.106-.008.22-.008.273v.59c-.151-.013-.216-.03-.233-.035-.09-.047-.162-.12-.21-.209-.005-.018-.022-.084-.035-.242-.02-.258-.022-.606-.022-1.191v-.6c0-.585.001-.933.022-1.191.013-.158.03-.224.036-.242.047-.09.12-.162.209-.21.018-.005.084-.022.242-.035.258-.02.606-.022 1.191-.022Zm6.538-2.44-.003-.002.003.001Zm.203.202v.003-.003Zm-6.882 0v.003-.003Zm.203-.203h.003-.003Zm.265 5.577c-.027.054-.027.124-.027.264v2.5c0 .56 0 .84.109 1.054.096.188.249.341.437.437.214.109.494.109 1.054.109h2.8c.56 0 .84 0 1.054-.109.188-.096.341-.249.437-.437.109-.214.109-.494.109-1.054v-2.5c0-.14 0-.21-.027-.264-.024-.047-.063-.085-.11-.109-.053-.027-.123-.027-.263-.027h-5.2c-.14 0-.21 0-.264.027-.047.024-.085.062-.109.11Zm7.711-3.077Zm.203.203v.003-.003Zm0 3.476v-.003.003Zm-.203.203h-.003.003Zm-9.476 0h.003-.003Zm-.203-.203v-.003.003Zm0-3.476v.003-.003Zm.203-.203Z"/></svg>