<svg xmlns="http://www.w3.org/2000/svg" viewBox="0 0 20 20"><path d="M7.375 12.5c0-.345.28-.625.625-.625h4c.345 0 .625.28.625.625s-.28.625-.625.625h-4c-.345 0-.625-.28-.625-.625Z"/><path d="M8 13.875c-.345 0-.625.28-.625.625s.28.625.625.625h2.25c.345 0 .625-.28.625-.625s-.28-.625-.625-.625h-2.25Z"/><path fill-rule="evenodd" d="M15.845 5.712v-.036c0-1.104-.002-1.66-.218-2.084-.192-.376-.498-.682-.874-.874-.428-.218-.988-.218-2.108-.218h-5.29c-1.12 0-1.68 0-2.108.218-.376.192-.682.498-.874.874-.216.425-.218.98-.218 2.084v.036c-.268.03-.477.084-.661.178-.377.192-.682.498-.874.874-.218.428-.218.988-.218 2.108v1.783c0 1.12 0 1.68.218 2.108.192.376.497.682.874.874.342.174.769.21 1.5.216v.53c-.001.245-.001.51.018.739.02.26.073.602.254.956.24.47.622.853 1.092 1.092.354.18.697.233.956.254.23.019.494.019.739.019h3.894c.245 0 .51 0 .739-.019.26-.02.602-.073.956-.254.47-.24.853-.622 1.092-1.092.18-.354.233-.697.254-.956.019-.23.019-.494.019-.739v-.53c.73-.007 1.157-.042 1.5-.216.375-.192.681-.498.873-.874.218-.428.218-.988.218-2.108v-1.783c0-1.12 0-1.68-.218-2.108-.192-.376-.498-.682-.874-.874-.184-.094-.393-.147-.661-.178Zm-3.2-1.712h-5.29c-.585 0-.933.001-1.191.022-.158.013-.224.03-.242.036-.09.047-.162.12-.21.209-.005.018-.022.084-.035.242-.02.254-.022.595-.022 1.163h8.69c0-.568-.002-.91-.023-1.163-.012-.158-.03-.224-.035-.242-.047-.09-.12-.162-.21-.21-.017-.005-.083-.022-.24-.035-.26-.02-.607-.022-1.192-.022Zm-7.775 3.176h10.26c.186.003.334.008.46.019.157.013.223.03.241.035.09.047.162.12.21.21.005.017.022.083.035.24.021.26.022.608.022 1.192v1.783c0 .585-.001.933-.022 1.192-.013.157-.03.223-.035.241-.048.09-.12.162-.21.21-.018.005-.084.022-.241.035-.153.012-.337.018-.583.02v-1.284c0-.053 0-.166-.009-.273-.01-.134-.043-.384-.182-.658-.168-.33-.435-.597-.765-.765-.273-.139-.523-.171-.658-.182-.107-.009-.22-.008-.273-.008h-6.24c-.054 0-.166 0-.273.008-.135.011-.385.043-.658.182-.33.168-.597.436-.765.765-.14.274-.172.524-.183.658-.008.107-.008.22-.008.273v1.284c-.246-.002-.43-.008-.583-.02-.157-.013-.224-.03-.241-.036-.09-.047-.163-.12-.21-.209-.005-.018-.022-.084-.035-.241-.021-.259-.022-.607-.022-1.192v-1.783c0-.584.001-.933.022-1.191.013-.158.03-.224.035-.242.047-.089.12-.162.21-.209.017-.006.084-.022.241-.035.126-.01.274-.016.46-.02Zm9.213-3.117h-.003.003Zm-8.368.203-.001.003v-.003Zm.202-.203h.003-.003Zm.603 6.76c-.027.054-.027.124-.027.264v3.26c0 .56 0 .84.11 1.054.095.188.248.341.436.437.214.109.494.109 1.054.109h3.814c.56 0 .84 0 1.054-.11.188-.095.34-.248.437-.436.109-.214.109-.494.109-1.054v-3.26c0-.14 0-.21-.027-.264-.024-.047-.063-.085-.11-.11-.053-.026-.123-.026-.263-.026h-6.214c-.14 0-.21 0-.263.027-.047.024-.086.062-.11.11Zm9.316-3.587-.003-.001h.003Zm.203.202v.003-.003Zm0 4.66v-.004.003Zm-.203.202Zm-11.672 0c-.001 0 0 0 0 0Zm-.203-.203v-.003.003Zm0-4.659v.003-.003Zm.203-.202.003-.001h-.003Z"/></svg>