<svg xmlns="http://www.w3.org/2000/svg" viewBox="0 0 20 20"><path fill-rule="evenodd" d="M8.2 5h3.6c.585 0 .933.001 1.191.022.158.013.224.03.242.036a.5.5 0 0 1 .21.209c.005.018.022.084.035.242.01.133.016.29.019.491h-6.994c.003-.201.008-.358.02-.491.012-.158.03-.224.035-.242a.5.5 0 0 1 .209-.21c.018-.005.084-.022.242-.035.258-.02.606-.022 1.191-.022Zm6.797 1 .001.08a1.6 1.6 0 0 1 .41.138 2 2 0 0 1 .874.874c.218.428.218.988.218 2.108v.6c0 1.12 0 1.68-.218 2.108a2 2 0 0 1-.874.874c-.237.121-.516.175-.908.199v.46c0 .244 0 .509-.019.738-.02.26-.073.602-.254.956a2.5 2.5 0 0 1-1.092 1.092c-.354.18-.697.233-.956.254-.23.02-.494.02-.739.019h-2.88c-.245 0-.51 0-.739-.019a2.518 2.518 0 0 1-.956-.254 2.5 2.5 0 0 1-1.093-1.092 2.518 2.518 0 0 1-.253-.956c-.02-.23-.02-.494-.019-.739v-.46c-.392-.023-.67-.077-.908-.198a2 2 0 0 1-.874-.874c-.218-.428-.218-.988-.218-2.108v-.6c0-1.12 0-1.68.218-2.108a2 2 0 0 1 .874-.874 1.6 1.6 0 0 1 .41-.139v-.079c.01-.675.049-1.08.216-1.408a2 2 0 0 1 .874-.874c.428-.218.988-.218 2.108-.218h3.6c1.12 0 1.68 0 2.108.218a2 2 0 0 1 .874.874c.167.328.206.733.215 1.408Zm-8.297 1.5h6.6c.585 0 .933.001 1.191.022.158.013.224.03.242.036a.5.5 0 0 1 .21.209c.005.018.022.084.035.242.02.258.022.606.022 1.191v.6c0 .585-.001.933-.022 1.191-.013.158-.03.224-.036.242a.5.5 0 0 1-.209.21 1.23 1.23 0 0 1-.233.034v-.591c0-.053 0-.165-.008-.272a1.753 1.753 0 0 0-.183-.658 1.75 1.75 0 0 0-.764-.765 1.752 1.752 0 0 0-.659-.183c-.106-.008-.22-.008-.272-.008h-5.227c-.054 0-.167 0-.273.008a1.752 1.752 0 0 0-.658.183 1.75 1.75 0 0 0-.765.765c-.14.273-.172.523-.183.658-.008.106-.008.22-.008.272v.591a1.23 1.23 0 0 1-.233-.035.5.5 0 0 1-.21-.209 1.255 1.255 0 0 1-.035-.242c-.02-.258-.022-.606-.022-1.191v-.6c0-.585.001-.933.022-1.191.013-.158.03-.224.036-.242a.5.5 0 0 1 .209-.21c.018-.005.084-.022.242-.035.258-.02.606-.022 1.191-.022Zm6.538-2.44-.003-.002.003.001Zm.203.202v.003-.003Zm-6.882 0v.003-.003Zm.203-.203h.003-.003Zm.265 5.577c-.027.054-.027.124-.027.264v2.5c0 .56 0 .84.109 1.054a1 1 0 0 0 .437.437c.214.109.494.109 1.054.109h2.8c.56 0 .84 0 1.054-.109a1 1 0 0 0 .437-.437c.109-.214.109-.494.109-1.054v-2.5c0-.14 0-.21-.027-.264a.251.251 0 0 0-.11-.109c-.053-.027-.123-.027-.263-.027h-5.2c-.14 0-.21 0-.264.027a.25.25 0 0 0-.109.11Zm.973 3.114a.5.5 0 0 1 .5-.5h2a.5.5 0 0 1 0 1h-2a.5.5 0 0 1-.5-.5Zm6.738-6.19Zm.203.202v.003-.003Zm0 3.476v-.003a.012.012 0 0 1 0 .003Zm-.203.203h-.003.003Zm-9.476 0h.003-.003Zm-.203-.203v-.003.003Zm0-3.476v.003-.003Zm.203-.203Zm3.238 3.691a.5.5 0 0 0 0 1h3a.5.5 0 0 0 0-1h-3Z"/></svg>