<svg viewBox="0 0 20 20" xmlns="http://www.w3.org/2000/svg"><path d="M13 8a1 1 0 1 0 0-2 1 1 0 0 0 0 2Z" fill="#5C5F62"/><path fill-rule="evenodd" d="M11.243 3a3.75 3.75 0 0 0-2.652 1.098l-4.957 4.957a2.75 2.75 0 0 0 0 3.89l3.598 3.598a2.5 2.5 0 0 0 3.536 0l5.28-5.28a3.25 3.25 0 0 0 .952-2.299v-2.714a3.25 3.25 0 0 0-3.25-3.25h-2.507Zm-1.591 2.159a2.25 2.25 0 0 1 1.59-.659h2.508c.966 0 1.75.784 1.75 1.75v2.714c0 .465-.184.91-.513 1.238l-5.28 5.28a1 1 0 0 1-1.414 0l-3.598-3.598a1.25 1.25 0 0 1 0-1.768l4.957-4.957Z" fill="#5C5F62"/></svg>