<svg xmlns="http://www.w3.org/2000/svg" viewBox="0 0 20 20"><path d="M13 8c.552 0 1-.448 1-1s-.448-1-1-1-1 .448-1 1 .448 1 1 1Z"/><path fill-rule="evenodd" d="M11.337 2.5c-1.019 0-1.994.415-2.701 1.149l-5.315 5.52c-1.04 1.079-1.023 2.791.036 3.851l3.796 3.796c.964.963 2.52.978 3.502.033l5.85-5.633c.636-.612.995-1.457.995-2.34v-3.126c0-1.795-1.455-3.25-3.25-3.25h-2.913Zm-1.62 2.19c.424-.441 1.009-.69 1.62-.69h2.913c.966 0 1.75.784 1.75 1.75v3.126c0 .475-.194.93-.536 1.26l-5.85 5.633c-.392.378-1.015.372-1.4-.014l-3.796-3.796c-.482-.481-.489-1.26-.016-1.75l5.314-5.52Z"/></svg>