<svg xmlns="http://www.w3.org/2000/svg" viewBox="0 0 20 20"><path d="M11.337 2.5c-1.019 0-1.994.415-2.701 1.149l-5.315 5.52c-1.04 1.079-1.023 2.791.036 3.851l3.796 3.796c.964.963 2.52.978 3.502.033l.726-.7c.299-.286.307-.761.02-1.06-.287-.298-.762-.307-1.06-.02l-.726.7c-.393.378-1.016.372-1.401-.014l-3.796-3.796c-.482-.481-.489-1.26-.016-1.75l5.314-5.52c.425-.44 1.01-.689 1.621-.689h2.913c.966 0 1.75.784 1.75 1.75v3.126c0 .475-.194.93-.536 1.26l-.216.208c-.298.287-.307.762-.02 1.06.288.299.762.307 1.06.02l.216-.207c.636-.613.996-1.458.996-2.341v-3.126c0-1.795-1.455-3.25-3.25-3.25h-2.913Z"/><path d="M13 8c.552 0 1-.448 1-1s-.448-1-1-1-1 .448-1 1 .448 1 1 1Z"/><path d="M16 13.25c0-.414-.336-.75-.75-.75s-.75.336-.75.75v1.25h-1.25c-.414 0-.75.336-.75.75s.336.75.75.75h1.25v1.25c0 .414.336.75.75.75s.75-.336.75-.75v-1.25h1.25c.414 0 .75-.336.75-.75s-.336-.75-.75-.75h-1.25v-1.25Z"/></svg>