<svg xmlns="http://www.w3.org/2000/svg" viewBox="0 0 20 20"><path d="M8.023 4.149c.707-.734 1.682-1.149 2.7-1.149h1.975c1.795 0 3.25 1.455 3.25 3.25v2.371c0 .766-.311 1.498-.863 2.029-.298.287-.773.278-1.06-.02-.287-.299-.278-.774.02-1.06.258-.249.403-.591.403-.949v-2.371c0-.966-.784-1.75-1.75-1.75h-1.974c-.611 0-1.197.249-1.62.69l-4.254 4.417c-.473.49-.466 1.269.016 1.75l4.112 4.113c.293.293.293.767 0 1.06-.293.293-.767.293-1.06 0l-4.113-4.112c-1.06-1.06-1.075-2.772-.036-3.852l4.254-4.417Z"/><path d="M13.448 6.5c0 .552-.448 1-1 1s-1-.448-1-1 .448-1 1-1 1 .448 1 1Z"/><path d="M10.448 12.78c0-.414.336-.75.75-.75h5.5c.415 0 .75.336.75.75 0 .415-.335.75-.75.75h-5.5c-.414 0-.75-.335-.75-.75Z"/><path d="M10.448 15.78c0-.414.336-.75.75-.75h5.5c.415 0 .75.336.75.75 0 .415-.335.75-.75.75h-5.5c-.414 0-.75-.335-.75-.75Z"/></svg>