<svg xmlns="http://www.w3.org/2000/svg" viewBox="0 0 12 12"><path d="M8.5 4.249c.414 0 .75-.336.75-.75s-.336-.75-.75-.75-.75.336-.75.75.336.75.75.75Z"/><path fill-rule="evenodd" d="m10.65 6.334-4.315 4.317c-.8.799-2.094.799-2.893 0l-2.093-2.093c-.799-.799-.799-2.094 0-2.892l4.316-4.317c.44-.44 1.055-.655 1.673-.586l1.883.209c.951.105 1.702.856 1.807 1.807l.21 1.883c.068.618-.148 1.233-.587 1.672Zm-5.22 3.413c-.299.3-.785.3-1.084 0l-2.093-2.093c-.3-.3-.3-.785 0-1.085l4.316-4.316c.165-.165.396-.246.627-.22l1.884.21c.357.039.638.32.678.677l.209 1.884c.026.231-.055.462-.22.627l-4.316 4.316Z"/></svg>