<svg xmlns="http://www.w3.org/2000/svg" viewBox="0 0 16 16"><path d="M11 6c.552 0 1-.448 1-1s-.448-1-1-1-1 .448-1 1 .448 1 1 1Z"/><path fill-rule="evenodd" d="M9.276 1.5c-1.02 0-1.994.415-2.701 1.149l-4.254 4.417c-1.04 1.08-1.023 2.792.036 3.852l2.898 2.898c.964.963 2.52.978 3.502.033l4.747-4.571c.636-.613.996-1.458.996-2.341v-2.187c0-1.795-1.455-3.25-3.25-3.25h-1.974Zm-1.62 2.19c.423-.441 1.008-.69 1.62-.69h1.974c.966 0 1.75.784 1.75 1.75v2.187c0 .475-.194.93-.536 1.26l-4.747 4.572c-.393.378-1.016.372-1.401-.014l-2.898-2.898c-.482-.481-.489-1.26-.016-1.75l4.253-4.418Z"/></svg>