<svg viewBox="0 0 20 20" xmlns="http://www.w3.org/2000/svg">
<path d="M2 12C2 13.5913 2.63214 15.1174 3.75736 16.2426C4.88258 17.3678 6.4087 18 8 18H17C17.2652 18 17.5196 17.8946 17.7071 17.7071C17.8946 17.5196 18 17.2652 18 17C18 16.7348 17.8946 16.4804 17.7071 16.2929C17.5196 16.1053 17.2652 16 17 16H8C6.93913 16 5.92172 15.5786 5.17157 14.8284C4.42143 14.0783 4 13.0609 4 12C4 10.9391 4.42143 9.92171 5.17157 9.17156C5.92172 8.42142 6.93913 7.99999 8 7.99999H14.526L12.293 10.293C12.1108 10.4816 12.01 10.7342 12.0123 10.9964C12.0146 11.2586 12.1198 11.5094 12.3052 11.6948C12.4906 11.8802 12.7414 11.9854 13.0036 11.9877C13.2658 11.9899 13.5184 11.8891 13.707 11.707L17.707 7.70699C17.8945 7.51946 17.9998 7.26515 17.9998 6.99999C17.9998 6.73483 17.8945 6.48052 17.707 6.29299L13.707 2.29299C13.6148 2.19748 13.5044 2.1213 13.3824 2.06889C13.2604 2.01648 13.1292 1.98889 12.9964 1.98774C12.8636 1.98659 12.7319 2.01189 12.609 2.06217C12.4861 2.11245 12.3745 2.1867 12.2806 2.28059C12.1867 2.37449 12.1125 2.48614 12.0622 2.60904C12.0119 2.73193 11.9866 2.86361 11.9877 2.99639C11.9889 3.12917 12.0165 3.26039 12.0689 3.38239C12.1213 3.5044 12.1975 3.61474 12.293 3.70699L14.526 5.99999H8C6.4087 5.99999 4.88258 6.63213 3.75736 7.75735C2.63214 8.88257 2 10.4087 2 12V12Z" fill="#5C5F62"/>
</svg>
