<svg xmlns="http://www.w3.org/2000/svg" viewBox="0 0 16 16"><path d="M6.575 2.649c.707-.734 1.682-1.149 2.7-1.149h1.975c1.795 0 3.25 1.455 3.25 3.25v2.371c0 .766-.311 1.498-.863 2.029-.298.287-.773.278-1.06-.02-.287-.299-.278-.774.02-1.06.258-.249.403-.591.403-.949v-2.371c0-.966-.784-1.75-1.75-1.75h-1.974c-.612 0-1.197.249-1.62.69l-4.254 4.417c-.473.49-.466 1.269.016 1.75l2.898 2.898c.385.386 1.008.392 1.4.014l.451-.434c.299-.288.773-.279 1.06.02.288.298.28.773-.02 1.06l-.45.434c-.981.945-2.538.93-3.502-.033l-2.898-2.898c-1.06-1.06-1.075-2.772-.036-3.852l4.254-4.417Z"/><path d="M12 5c0 .552-.448 1-1 1s-1-.448-1-1 .448-1 1-1 1 .448 1 1Z"/><path d="M14.78 13.72c.293.292.293.767 0 1.06-.293.293-.768.293-1.06 0l-2.22-2.22v1.19c0 .414-.336.75-.75.75s-.75-.336-.75-.75v-3c0-.2.08-.39.22-.53.14-.141.331-.22.53-.22h3c.414 0 .75.336.75.75s-.336.75-.75.75h-1.19l2.22 2.22Z"/></svg>