<svg xmlns="http://www.w3.org/2000/svg" viewBox="0 0 20 20">
  <path d="M8.02273 4.14885C8.72962 3.41477 9.70483 3 10.7239 3H12.698C14.4929 3 15.948 4.45507 15.948 6.25V8.62148C15.948 9.38665 15.6366 10.1189 15.0854 10.6496C14.7871 10.9369 14.3123 10.928 14.025 10.6296C13.7376 10.3312 13.7466 9.85645 14.045 9.56913C14.3025 9.32114 14.448 8.97901 14.448 8.62148V6.25C14.448 5.2835 13.6645 4.5 12.698 4.5H10.7239C10.1125 4.5 9.52734 4.74886 9.10321 5.18931L4.8496 9.60652C4.37712 10.0972 4.38446 10.8758 4.86612 11.3575L8.97833 15.4697C9.27123 15.7626 9.27123 16.2374 8.97833 16.5303C8.68544 16.8232 8.21057 16.8232 7.91767 16.5303L3.80546 12.4181C2.74582 11.3585 2.72965 9.6455 3.76912 8.56605L8.02273 4.14885Z"/>
  <path d="M13.448 6.5C13.448 7.05228 13.0003 7.5 12.448 7.5C11.8957 7.5 11.448 7.05228 11.448 6.5C11.448 5.94772 11.8957 5.5 12.448 5.5C13.0003 5.5 13.448 5.94772 13.448 6.5Z"/>
  <path d="M10.4482 13.0508C10.4482 12.6366 10.784 12.3008 11.1982 12.3008H16.6982C17.1125 12.3008 17.4482 12.6366 17.4482 13.0508C17.4482 13.465 17.1125 13.8008 16.6982 13.8008H11.1982C10.784 13.8008 10.4482 13.465 10.4482 13.0508Z"/>
  <path d="M10.4482 16.0508C10.4482 15.6366 10.784 15.3008 11.1982 15.3008H16.6982C17.1125 15.3008 17.4482 15.6366 17.4482 16.0508C17.4482 16.465 17.1125 16.8008 16.6982 16.8008H11.1982C10.784 16.8008 10.4482 16.465 10.4482 16.0508Z"/>
</svg>
