<svg xmlns="http://www.w3.org/2000/svg" viewBox="0 0 20 20"><path d="M8.575 4.649c.707-.734 1.682-1.149 2.7-1.149h1.975c1.795 0 3.25 1.455 3.25 3.25v1.5c0 .414-.336.75-.75.75s-.75-.336-.75-.75v-1.5c0-.966-.784-1.75-1.75-1.75h-1.974c-.611 0-1.197.249-1.62.69l-4.254 4.417c-.473.49-.466 1.269.016 1.75l2.898 2.898c.385.386 1.008.392 1.4.014l.451-.434c.299-.288.773-.279 1.06.02.288.298.28.773-.02 1.06l-.45.434c-.981.945-2.538.93-3.502-.033l-2.898-2.898c-1.06-1.06-1.075-2.772-.036-3.852l4.254-4.417Z"/><path d="M14 7c0 .552-.448 1-1 1s-1-.448-1-1 .448-1 1-1 1 .448 1 1Z"/><path d="M13.25 10.857c-.728.257-1.25.952-1.25 1.768 0 1.036.84 1.875 1.875 1.875h.75c.207 0 .375.168.375.375s-.168.375-.375.375h-1.875c-.414 0-.75.336-.75.75s.336.75.75.75h.5v.25c0 .414.336.75.75.75s.75-.336.75-.75v-.254c.977-.064 1.75-.877 1.75-1.871 0-1.036-.84-1.875-1.875-1.875h-.75c-.207 0-.375-.168-.375-.375s.168-.375.375-.375h1.875c.414 0 .75-.336.75-.75s-.336-.75-.75-.75h-1v-.25c0-.414-.336-.75-.75-.75s-.75.336-.75.75v.357Z"/></svg>