<svg xmlns="http://www.w3.org/2000/svg" viewBox="0 0 20 20"><path d="M13 8a1 1 0 1 0 0-2 1 1 0 0 0 0 2Z"/><path fill-rule="evenodd" d="M11.276 3.5a3.75 3.75 0 0 0-2.701 1.149l-4.254 4.417a2.75 2.75 0 0 0 .036 3.852l2.898 2.898a2.5 2.5 0 0 0 3.502.033l4.747-4.571a3.25 3.25 0 0 0 .996-2.341v-2.187a3.25 3.25 0 0 0-3.25-3.25h-1.974Zm-1.62 2.19a2.25 2.25 0 0 1 1.62-.69h1.974c.966 0 1.75.784 1.75 1.75v2.187c0 .475-.194.93-.536 1.26l-4.747 4.572a1 1 0 0 1-1.401-.014l-2.898-2.898a1.25 1.25 0 0 1-.016-1.75l4.253-4.418Z"/></svg>