<svg xmlns="http://www.w3.org/2000/svg" viewBox="0 0 20 20"><path d="M8.636 3.649c.707-.734 1.682-1.149 2.701-1.149h2.913c1.795 0 3.25 1.455 3.25 3.25v3.126c0 .883-.36 1.728-.996 2.34l-.215.208c-.299.287-.773.279-1.06-.02-.288-.298-.28-.773.02-1.06l.215-.208c.342-.33.536-.785.536-1.26v-3.126c0-.966-.784-1.75-1.75-1.75h-2.913c-.611 0-1.196.249-1.62.69l-5.315 5.519c-.473.49-.466 1.269.016 1.75l4.405 4.405c.293.293.293.768 0 1.061-.293.293-.768.293-1.06 0l-4.406-4.405c-1.06-1.06-1.075-2.772-.036-3.852l5.315-5.52Z"/><path d="M14 7c0 .552-.448 1-1 1s-1-.448-1-1 .448-1 1-1 1 .448 1 1Z"/><path d="M18 13.25v-.5c0-.414-.336-.75-.75-.75s-.75.336-.75.75v.5c0 .966-.784 1.75-1.75 1.75h-2.62l.654-.762c.27-.314.233-.788-.082-1.057-.314-.27-.788-.234-1.057.08l-1.714 2c-.241.282-.241.696 0 .977l1.714 2c.27.315.743.351 1.057.081.315-.27.351-.743.082-1.057l-.653-.762h2.619c1.795 0 3.25-1.455 3.25-3.25Z"/></svg>