<svg xmlns="http://www.w3.org/2000/svg" viewBox="0 0 20 20"><path d="M8.636 3.649c.707-.734 1.682-1.149 2.701-1.149h2.913c1.795 0 3.25 1.455 3.25 3.25v3.689c0 .414-.336.75-.75.75s-.75-.336-.75-.75v-3.689c0-.966-.784-1.75-1.75-1.75h-2.913c-.611 0-1.196.249-1.62.69l-5.315 5.519c-.473.49-.466 1.269.016 1.75l3.796 3.796c.385.386 1.008.392 1.4.014l.727-.7c.298-.287.773-.278 1.06.02.287.299.279.774-.02 1.06l-.726.7c-.981.945-2.538.93-3.502-.033l-3.796-3.796c-1.06-1.06-1.075-2.772-.036-3.852l5.315-5.52Z"/><path d="M14 7c0 .552-.448 1-1 1s-1-.448-1-1 .448-1 1-1 1 .448 1 1Z"/><path d="M14.25 11.515c-.987.123-1.75.965-1.75 1.985 0 1.105.895 2 2 2h1c.276 0 .5.224.5.5s-.224.5-.5.5h-2.25c-.414 0-.75.336-.75.75s.336.75.75.75h1v.25c0 .414.336.75.75.75s.75-.336.75-.75v-.265c.987-.123 1.75-.965 1.75-1.985 0-1.105-.895-2-2-2h-1c-.276 0-.5-.224-.5-.5s.224-.5.5-.5h2.25c.414 0 .75-.336.75-.75s-.336-.75-.75-.75h-1v-.25c0-.414-.336-.75-.75-.75s-.75.336-.75.75v.265Z"/></svg>