<svg xmlns="http://www.w3.org/2000/svg" viewBox="0 0 16 16"><path fill-rule="evenodd" d="M5 6.25c0-1.657 1.343-3 3-3s3 1.343 3 3-1.343 3-3 3-3-1.343-3-3Zm3-1.5c-.828 0-1.5.672-1.5 1.5s.672 1.5 1.5 1.5 1.5-.672 1.5-1.5-.672-1.5-1.5-1.5Z"/><path fill-rule="evenodd" d="M13.168 13.435c-1.345 1.28-3.165 2.065-5.168 2.065-4.142 0-7.5-3.358-7.5-7.5 0-4.142 3.358-7.5 7.5-7.5 4.142 0 7.5 3.358 7.5 7.5 0 2.1-.863 3.998-2.254 5.36-.018.02-.039.04-.06.06l-.018.015Zm-9.83-1.659c-.837-1.031-1.338-2.345-1.338-3.776 0-3.314 2.686-6 6-6s6 2.686 6 6c0 1.431-.501 2.745-1.337 3.776-1.277-1.134-2.936-1.776-4.663-1.776-1.727 0-3.386.642-4.663 1.776Zm1.086 1.043c.999.742 2.236 1.181 3.576 1.181 1.34 0 2.577-.44 3.576-1.181-.993-.844-2.26-1.319-3.576-1.319-1.315 0-2.583.475-3.576 1.319Z"/></svg>