<svg xmlns="http://www.w3.org/2000/svg" viewBox="0 0 20 20"><path fill-rule="evenodd" d="M7 8c0-1.657 1.343-3 3-3s3 1.343 3 3-1.343 3-3 3-3-1.343-3-3Zm3-1.5c-.828 0-1.5.672-1.5 1.5s.672 1.5 1.5 1.5 1.5-.672 1.5-1.5-.672-1.5-1.5-1.5Z"/><path fill-rule="evenodd" d="M10 18c-4.418 0-8-3.582-8-8s3.582-8 8-8 8 3.582 8 8-3.582 8-8 8Zm-5.026-3.878c-.921-1.121-1.474-2.557-1.474-4.122 0-3.59 2.91-6.5 6.5-6.5s6.5 2.91 6.5 6.5c0 1.565-.553 3-1.474 4.122-1.317-1.349-3.13-2.122-5.026-2.122-1.895 0-3.71.773-5.026 2.122Zm1.079 1.043c1.094.837 2.462 1.335 3.947 1.335 1.485 0 2.853-.498 3.947-1.335-1.036-1.06-2.461-1.665-3.947-1.665-1.485 0-2.911.606-3.947 1.665Z"/></svg>