<svg viewBox="0 0 20 20" xmlns="http://www.w3.org/2000/svg"><path fill-rule="evenodd" d="M3 9.75a2.643 2.643 0 0 1 2.496-2.638l3.793-.21a1 1 0 0 0 .492-.163l4.546-2.975a1 1 0 0 1 1.548.836v3.185a2 2 0 0 1 0 3.93v3.186a1 1 0 0 1-1.548.837l-4.189-2.742-.29 2.459a1.75 1.75 0 0 1-1.737 1.545h-.361a1.75 1.75 0 0 1-1.75-1.75v-2.833l-.504-.028a2.643 2.643 0 0 1-2.496-2.638Zm2.58-1.14a1.143 1.143 0 0 0 0 2.282l3.792.21c.438.025.863.164 1.23.405l3.773 2.469v-8.45l-3.773 2.469a2.5 2.5 0 0 1-1.23.404l-3.793.21Zm1.92 3.89v2.75c0 .138.112.25.25.25h.36a.25.25 0 0 0 .249-.22l.32-2.714-1.179-.065Z" fill="#5C5F62"/></svg>