<svg width="20" height="20" viewBox="0 0 20 20" fill="none" xmlns="http://www.w3.org/2000/svg">
<path fill-rule="evenodd" clip-rule="evenodd" d="M5.45142 12.3545C4.07419 12.271 3 11.1298 3 9.75002C3 8.37026 4.07419 7.229 5.45142 7.14553L9.46193 6.90247C9.51109 6.89949 9.55827 6.88206 9.59755 6.85236L12.6948 4.51135C13.8476 3.64 15.5 4.46234 15.5 5.90742V13.5148C15.5 14.9521 13.8633 15.7765 12.7084 14.921L10.1357 13.0154L9.84876 15.4545C9.74508 16.3358 8.99815 17 8.11075 17H7.75C6.7835 17 6 16.2165 6 15.25V12.3878L5.45142 12.3545ZM4.5 9.75002C4.5 10.3366 4.95667 10.8218 5.54217 10.8573L9.59818 11.1031C9.9365 11.1236 10.2616 11.2419 10.534 11.4436L13.6012 13.7157C13.7662 13.8379 14 13.7201 14 13.5148V5.90742C14 5.70099 13.7639 5.58351 13.5993 5.70799L10.502 8.049C10.227 8.25686 9.89676 8.37887 9.55267 8.39972L5.54217 8.64278C4.95667 8.67827 4.5 9.16345 4.5 9.75002ZM7.5 12.4787L8.6801 12.5502L8.35904 15.2792C8.34423 15.4051 8.23752 15.5 8.11075 15.5H7.75C7.61193 15.5 7.5 15.3881 7.5 15.25V12.4787Z" fill="#4A4A4A"/>
<path d="M17.5 8.74999C17.5 8.33578 17.1642 7.99999 16.75 7.99999C16.3358 7.99999 16 8.33578 16 8.74999V11.25C16 11.6642 16.3358 12 16.75 12C17.1642 12 17.5 11.6642 17.5 11.25V8.74999Z" fill="#4A4A4A"/>
</svg>
