<svg viewBox="0 0 20 20" xmlns="http://www.w3.org/2000/svg"><path fill-rule="evenodd" d="M13.25 3.75c-.553 0-.945.354-1.185.675-.03.04-.058.08-.086.122l-5.917 1.657a1.25 1.25 0 0 1-.337.046h-1.975a1.75 1.75 0 0 0-1.75 1.75v2.5c0 .967.784 1.75 1.75 1.75h1.8l.716 3.405a.75.75 0 0 0 .734.595h2.75a.75.75 0 0 0 .73-.919l-.443-1.921 1.942.543c.028.042.057.083.086.122.24.32.632.675 1.185.675s.945-.354 1.185-.675c.25-.334.442-.77.59-1.24.301-.951.475-2.218.475-3.585s-.174-2.634-.474-3.585c-.149-.47-.342-.906-.591-1.24-.24-.32-.632-.675-1.185-.675Zm-.75 5.5c0-1.257.162-2.365.405-3.133.116-.368.24-.621.345-.771.106.15.23.403.345.771.243.768.405 1.876.405 3.133 0 1.257-.162 2.365-.405 3.133-.116.368-.24.621-.345.771-.106-.15-.23-.403-.345-.771-.243-.768-.405-1.876-.405-3.133Zm.646 4.023-.002.001.006-.003-.004.002Zm-1.841-1.066-4.497-1.26-.058-.275v-3.103l4.555-1.275c-.196.85-.305 1.872-.305 2.956 0 1.084.11 2.106.305 2.957Zm-3.696 2.543-.452-2.147 1.235.346.415 1.801h-1.198Zm-2.359-4v-3h-1.5a.25.25 0 0 0-.25.25v2.5c0 .138.112.25.25.25h1.5Z" fill="#5C5F62"/><path d="M17.5 8.25a.75.75 0 0 0 0 1.5h1.5a.75.75 0 0 0 0-1.5h-1.5Z" fill="#5C5F62"/><path d="M19.212 5.263a.75.75 0 0 1-.475.949l-1.5.5a.75.75 0 0 1-.474-1.423l1.5-.5a.75.75 0 0 1 .948.474Z" fill="#5C5F62"/><path d="M17.237 11.289a.75.75 0 0 0-.474 1.423l1.5.5a.75.75 0 0 0 .474-1.423l-1.5-.5Z" fill="#5C5F62"/></svg>