<svg width="20" height="20" viewBox="0 0 20 20" fill="none" xmlns="http://www.w3.org/2000/svg">
<path d="M3.5 9.75002C3.5 10.8654 4.36835 11.788 5.48167 11.8554L9.53768 12.1013C9.68268 12.11 9.82201 12.1607 9.93873 12.2472L13.006 14.5192C13.8309 15.1303 15 14.5414 15 13.5148V5.90743C15 4.87522 13.8197 4.28784 12.9963 4.91023L9.89904 7.25125C9.78118 7.34033 9.63964 7.39262 9.49218 7.40155L5.48167 7.64462C4.36835 7.71209 3.5 8.63466 3.5 9.75002Z" fill="#4A4A4A"/>
<path d="M6.625 13.177V15.3237C6.625 16.0424 7.20761 16.625 7.92629 16.625C8.58616 16.625 9.14157 16.1311 9.21867 15.4758L9.45667 13.4528L9.30316 13.3393L6.625 13.177Z" fill="#4A4A4A"/>
<path d="M17.5 8.75C17.5 8.33579 17.1642 8 16.75 8C16.3358 8 16 8.33579 16 8.75V11.25C16 11.6642 16.3358 12 16.75 12C17.1642 12 17.5 11.6642 17.5 11.25V8.75Z" fill="#4A4A4A"/>
</svg>
