<svg xmlns="http://www.w3.org/2000/svg" viewBox="0 0 21 21"><path fill-rule="evenodd" d="M5.805 5.012c-.139 0-.25.112-.25.25v8.69c0 1.242 1.007 2.25 2.25 2.25h5.976c-.144-.32-.224-.674-.224-1.047v-9.893c0-.138-.112-.25-.25-.25h-7.502Zm9.252 6.94v-6.69c0-.966-.783-1.75-1.75-1.75h-7.502c-.967 0-1.75.784-1.75 1.75v8.69c0 2.07 1.679 3.75 3.75 3.75h8.299c1.406 0 2.546-1.141 2.546-2.547v-1.454c0-.966-.783-1.75-1.75-1.75h-1.843Zm0 1.5v1.703c0 .578.469 1.046 1.047 1.046s1.046-.468 1.046-1.046v-1.454c0-.138-.112-.25-.25-.25h-1.843Z" clip-rule="evenodd"/><path fill-rule="evenodd" d="M7.39 8.576c0-.414.336-.75.75-.75h3.212c.415 0 .75.336.75.75s-.335.75-.75.75h-3.212c-.414 0-.75-.336-.75-.75Z" clip-rule="evenodd"/><path fill-rule="evenodd" d="M7.595 12.684c0-.414.336-.75.75-.75h1.818c.415 0 .75.336.75.75s-.335.75-.75.75h-1.818c-.414 0-.75-.336-.75-.75Z" clip-rule="evenodd"/></svg>