<svg viewBox="0 0 20 20" xmlns="http://www.w3.org/2000/svg"><path d="M10 6.25a1.75 1.75 0 0 0-1.75 1.75.75.75 0 0 1-1.5 0 3.25 3.25 0 1 1 4.809 2.852c-.252.138-.47.302-.617.474-.144.168-.192.307-.192.424a.75.75 0 0 1-1.5 0c0-.573.249-1.046.553-1.4.3-.351.682-.62 1.036-.813a1.75 1.75 0 0 0-.839-3.287Z" fill="#5C5F62"/><path d="M10 15.25a1 1 0 1 0 0-2 1 1 0 0 0 0 2Z" fill="#5C5F62"/><path fill-rule="evenodd" d="M10 18a8 8 0 1 0 0-16 8 8 0 0 0 0 16Zm0-1.5a6.5 6.5 0 1 0 0-13 6.5 6.5 0 0 0 0 13Z" fill="#5C5F62"/></svg>