<svg xmlns="http://www.w3.org/2000/svg" viewBox="0 0 20 20"><path fill-rule="evenodd" d="M4.25 3a.75.75 0 0 0 0 1.5h1.612a.25.25 0 0 1 .248.22l1.04 8.737a1.75 1.75 0 0 0 1.738 1.543h5.362a.75.75 0 0 0 0-1.5h-5.362a.25.25 0 0 1-.248-.22l-.093-.78h5.35a2.75 2.75 0 0 0 2.743-2.54l.358-4.652a.75.75 0 0 0-.748-.808h-8.656a1.75 1.75 0 0 0-1.732-1.5h-1.612Zm9.648 8h-5.53l-.595-5h7.667l-.296 3.846a1.25 1.25 0 0 1-1.246 1.154Z"/><path d="M2.75 6.5a.75.75 0 0 0 0 1.5h.5a.75.75 0 0 0 0-1.5h-.5Z"/><path d="M2.75 9.5a.75.75 0 0 0 0 1.5h1.5a.75.75 0 0 0 0-1.5h-1.5Z"/><path d="M2 13.25a.75.75 0 0 1 .75-.75h2.5a.75.75 0 0 1 0 1.5h-2.5a.75.75 0 0 1-.75-.75Z"/><path d="M10 17a1 1 0 1 1-2 0 1 1 0 0 1 2 0Z"/><path d="M15 17a1 1 0 1 1-2 0 1 1 0 0 1 2 0Z"/></svg>