<svg viewBox="0 0 20 20" xmlns="http://www.w3.org/2000/svg"><path fill-rule="evenodd" d="M5.25 3a.75.75 0 0 0 0 1.5h1.336l.802 6.581.003.021.365 2.989a.75.75 0 0 0 .744.659h7.25a.75.75 0 0 0 0-1.5h-6.586l-.183-1.5h7.269a.75.75 0 0 0 .742-.644l.75-5.25a.75.75 0 0 0-.703-.855l-8.938-.47-.107-.872a.75.75 0 0 0-.744-.659h-2Zm10.35 7.25h-6.802l-.513-4.208 7.857.414-.542 3.794Z" fill="#5C5F62"/><path d="M9.5 17.5a1 1 0 1 0 0-2 1 1 0 0 0 0 2Z" fill="#5C5F62"/><path d="M16.5 16.5a1 1 0 1 1-2 0 1 1 0 0 1 2 0Z" fill="#5C5F62"/><path d="M3 6.25a.75.75 0 0 0 0 1.5h2a.75.75 0 0 0 0-1.5h-2Z" fill="#5C5F62"/><path d="M2.25 10a.75.75 0 0 1 .75-.75h2.5a.75.75 0 0 1 0 1.5h-2.5a.75.75 0 0 1-.75-.75Z" fill="#5C5F62"/><path d="M3 12.25a.75.75 0 0 0 0 1.5h3a.75.75 0 0 0 0-1.5h-3Z" fill="#5C5F62"/></svg>