<svg xmlns="http://www.w3.org/2000/svg" viewBox="0 0 20 20"><path fill-rule="evenodd" d="M5.142 16.934a1 1 0 0 1-.642-.934v-11a2 2 0 0 1 2-2h7a2 2 0 0 1 2 2v11a1 1 0 0 1-1.743.669l-1.502-1.669h-.01l-1.502 1.669a1 1 0 0 1-1.486 0l-1.502-1.669h-.01l-1.502 1.669a1 1 0 0 1-1.101.265Zm2.294-11.428a.75.75 0 0 1 1.058-.07l1.506 1.317 1.506-1.317a.75.75 0 0 1 .988 1.128l-1.744 1.526v.41h1.25a.75.75 0 0 1 0 1.5h-1.25v.5h1.25a.75.75 0 0 1 0 1.5h-1.25v.5a.75.75 0 0 1-1.5 0v-.5h-1.25a.75.75 0 0 1 0-1.5h1.25v-.5h-1.25a.75.75 0 1 1 0-1.5h1.25v-.41l-1.744-1.526a.75.75 0 0 1-.07-1.058Z"/></svg>