<svg xmlns="http://www.w3.org/2000/svg" viewBox="0 0 16 16"><path fill-rule="evenodd" d="M2 14c0 .61.37 1.16.935 1.39.565.23 1.213.094 1.639-.343l1.176-1.206 1.176 1.206c.282.29.67.453 1.074.453s.792-.163 1.074-.453l1.176-1.206 1.176 1.206c.426.437 1.074.572 1.64.342.564-.23.934-.779.934-1.389v-11c0-1.38-1.12-2.5-2.5-2.5h-7c-1.38 0-2.5 1.12-2.5 2.5v11Zm1.5 0 1.534-1.573c.392-.403 1.04-.403 1.432 0l1.534 1.573 1.534-1.573c.392-.403 1.04-.403 1.432 0l1.534 1.573v-11c0-.552-.448-1-1-1h-7c-.552 0-1 .448-1 1v11Zm4-10c-1.105 0-2 .895-2 2s.895 2 2 2h1c.276 0 .5.224.5.5s-.224.5-.5.5h-2.25c-.414 0-.75.336-.75.75s.336.75.75.75h.75v.25c0 .414.336.75.75.75s.75-.336.75-.75v-.25c1.105 0 2-.895 2-2s-.895-2-2-2h-1c-.276 0-.5-.224-.5-.5s.224-.5.5-.5h2.25c.414 0 .75-.336.75-.75s-.336-.75-.75-.75h-.75v-.25c0-.414-.336-.75-.75-.75s-.75.336-.75.75v.25Z"/></svg>