<svg xmlns="http://www.w3.org/2000/svg" viewBox="0 0 20 20"><path d="M10.25 4.75c-.966 0-1.75.784-1.75 1.75v2.25h-1.25c-.414 0-.75.336-.75.75s.336.75.75.75h1.25v1.5h-1.25c-.414 0-.75.336-.75.75s.336.75.75.75h5.5c.414 0 .75-.336.75-.75s-.336-.75-.75-.75h-2.75v-1.5h1.25c.414 0 .75-.336.75-.75s-.336-.75-.75-.75h-1.25v-2.25c0-.138.112-.25.25-.25h1.25v.75c0 .414.336.75.75.75s.75-.336.75-.75v-1c0-.69-.56-1.25-1.25-1.25h-1.5Z"/><path fill-rule="evenodd" d="M3.5 17c0 .645.412 1.217 1.023 1.422.611.205 1.285-.003 1.674-.518l1.303-1.724 1.303 1.724c.284.376.727.596 1.197.596.47 0 .913-.22 1.197-.596l1.303-1.724 1.303 1.724c.389.515 1.063.723 1.674.518.611-.205 1.023-.777 1.023-1.422v-12.5c0-1.38-1.12-2.5-2.5-2.5h-8c-1.38 0-2.5 1.12-2.5 2.5v12.5Zm2.5-13.5c-.552 0-1 .448-1 1v12.5l1.702-2.252c.4-.53 1.196-.53 1.596 0l1.702 2.252 1.702-2.252c.4-.53 1.196-.53 1.596 0l1.702 2.252v-12.5c0-.552-.448-1-1-1h-8Z"/></svg>