<svg xmlns="http://www.w3.org/2000/svg" viewBox="0 0 20 20"><path d="M7.75 4.75c-.552 0-1 .448-1 1s.448 1 1 1h4.5c.552 0 1-.448 1-1s-.448-1-1-1h-4.5Z"/><path d="M7.75 7.75c-.552 0-1 .448-1 1s.448 1 1 1h1.5c.552 0 1-.448 1-1s-.448-1-1-1h-1.5Z"/><path d="M6.75 11.75c0-.552.448-1 1-1h1.5c.552 0 1 .448 1 1s-.448 1-1 1h-1.5c-.552 0-1-.448-1-1Z"/><path d="M11.75 7.75c-.552 0-1 .448-1 1s.448 1 1 1h.5c.552 0 1-.448 1-1s-.448-1-1-1h-.5Z"/><path d="M10.75 11.75c0-.552.448-1 1-1h.5c.552 0 1 .448 1 1s-.448 1-1 1h-.5c-.552 0-1-.448-1-1Z"/><path fill-rule="evenodd" d="M3 17c0 .86.55 1.623 1.364 1.896.815.273 1.713-.004 2.232-.69l.904-1.197.904 1.197c.378.5.97.794 1.596.794.627 0 1.217-.294 1.595-.794l.905-1.197.905 1.197c.518.686 1.416.963 2.231.69s1.364-1.037 1.364-1.896v-12.5c0-1.657-1.343-3-3-3h-8c-1.657 0-3 1.343-3 3v12.5Zm5.298-2.252c-.316-.418-.878-.506-1.298-.264-.112.065-.214.152-.298.264l-1.702 2.252v-12.5c0-.552.448-1 1-1h8c.552 0 1 .448 1 1v12.5l-1.702-2.252c-.084-.112-.186-.2-.298-.264-.42-.242-.982-.154-1.298.264l-1.702 2.252-1.702-2.252Z" clip-rule="evenodd"/></svg>