<svg xmlns="http://www.w3.org/2000/svg" viewBox="0 0 20 20"><path fill-rule="evenodd" d="M4.523 18.422c-.611-.205-1.023-.777-1.023-1.422v-12.5c0-1.38 1.12-2.5 2.5-2.5h8c1.38 0 2.5 1.12 2.5 2.5v12.5c0 .645-.412 1.217-1.023 1.422-.611.205-1.285-.003-1.674-.518l-1.303-1.724-1.303 1.724c-.284.376-.727.596-1.197.596-.47 0-.913-.22-1.197-.596l-1.303-1.724-1.303 1.724c-.389.515-1.063.723-1.674.518Zm7.873-5.042c.21-.357.091-.816-.266-1.027l-2.541-1.495c.747-.439 1.277-1.208 1.39-2.108h1.771c.414 0 .75-.336.75-.75s-.336-.75-.75-.75h-1.75v-1h1.75c.414 0 .75-.336.75-.75s-.336-.75-.75-.75h-5.5c-.414 0-.75.336-.75.75s.336.75.75.75h2.25v1h-2.25c-.414 0-.75.336-.75.75s.336.75.75.75h2.203c-.156.576-.683 1-1.309 1-.942 0-1.282 1.245-.469 1.723l3.695 2.173c.357.21.816.091 1.027-.266Z"/></svg>