<svg xmlns="http://www.w3.org/2000/svg" viewBox="0 0 16 16"><path fill-rule="evenodd" d="M3.142 14.934c-.387-.149-.642-.52-.642-.934v-11c0-1.105.895-2 2-2h7c1.105 0 2 .895 2 2v11c0 .414-.255.785-.642.934-.386.148-.824.043-1.101-.265l-1.502-1.669h-.01l-1.502 1.669c-.19.21-.46.331-.743.331s-.554-.12-.743-.331l-1.502-1.669h-.01l-1.502 1.669c-.277.308-.715.413-1.101.265Zm2.294-11.428c.272-.312.746-.343 1.058-.07l1.506 1.317 1.506-1.317c.312-.273.786-.242 1.058.07.273.312.242.786-.07 1.058l-1.744 1.526v.41h1.25c.414 0 .75.336.75.75s-.336.75-.75.75h-1.25v.5h1.25c.414 0 .75.336.75.75s-.336.75-.75.75h-1.25v.5c0 .414-.336.75-.75.75s-.75-.336-.75-.75v-.5h-1.25c-.414 0-.75-.336-.75-.75s.336-.75.75-.75h1.25v-.5h-1.25c-.414 0-.75-.336-.75-.75s.336-.75.75-.75h1.25v-.41l-1.744-1.526c-.312-.272-.343-.746-.07-1.058Z"/></svg>