<svg xmlns="http://www.w3.org/2000/svg" viewBox="0 0 16 16"><path fill-rule="evenodd" d="M2.963 15.4c-.58-.222-.963-.779-.963-1.4v-11c0-1.38 1.12-2.5 2.5-2.5h7c1.38 0 2.5 1.12 2.5 2.5v11c0 .621-.383 1.178-.963 1.4-.58.223-1.237.065-1.652-.396l-1.135-1.262-1.135 1.261c-.285.317-.69.497-1.115.497-.425 0-.83-.18-1.115-.496l-1.135-1.262-1.135 1.261c-.416.462-1.073.62-1.652.397Zm2.787-2.405Zm4.601-.995h-.202c-.238.024-.468.133-.642.326l-1.507 1.674-1.507-1.674c-.174-.193-.404-.302-.642-.326h-.202c-.238.024-.468.133-.642.326l-1.507 1.674v-11c0-.552.448-1 1-1h7c.552 0 1 .448 1 1v11l-1.507-1.674c-.174-.193-.404-.302-.642-.326Z"/><path fill-rule="evenodd" d="M7.553 6.75c.128-.823.46-1.208.708-1.357.309-.185.684-.137.959.137.293.293.767.293 1.06 0 .293-.293.293-.767 0-1.06-.725-.726-1.85-.928-2.79-.363-.788.472-1.304 1.385-1.449 2.643h-.291c-.414 0-.75.336-.75.75s.336.75.75.75h.291c.145 1.258.661 2.171 1.448 2.643.941.565 2.066.363 2.791-.363.293-.292.293-.767 0-1.06-.293-.293-.767-.293-1.06 0-.275.274-.65.322-.96.137-.248-.15-.579-.534-.707-1.357h1.697c.414 0 .75-.336.75-.75s-.336-.75-.75-.75h-1.697Z"/></svg>