<svg xmlns="http://www.w3.org/2000/svg" viewBox="0 0 21 21"><path fill-rule="evenodd" d="M17.132 16.357c0 .414-.336.75-.75.75h-11.5c-.414 0-.75-.336-.75-.75s.336-.75.75-.75h11.5c.414 0 .75.336.75.75Z" clip-rule="evenodd"/><path fill-rule="evenodd" d="M10.632 4.107c-.414 0-.75.335-.75.75v6.939l-1.72-1.72c-.292-.293-.767-.293-1.06 0-.293.293-.293.768 0 1.061l3 3c.293.293.768.293 1.06 0l3-3c.293-.293.293-.768 0-1.06-.293-.294-.767-.294-1.06 0l-1.72 1.719v-6.94c0-.414-.336-.75-.75-.75Z" clip-rule="evenodd"/></svg>