<svg xmlns="http://www.w3.org/2000/svg" viewBox="0 0 20 20"><path d="M9.75 6.5c-.414 0-.75.336-.75.75s.336.75.75.75h4c.414 0 .75-.336.75-.75s-.336-.75-.75-.75h-4Z"/><path d="M9 10.75c0-.414.336-.75.75-.75h4c.414 0 .75.336.75.75s-.336.75-.75.75h-4c-.414 0-.75-.336-.75-.75Z"/><path fill-rule="evenodd" d="M5.506 2.501c-1.667.041-3.006 1.405-3.006 3.082v3.667c0 .414.336.75.75.75h2.75v6.776c0 .735.872 1.124 1.419.631l1.831-1.648 1.998 1.799c.286.256.719.256 1.004 0l1.998-1.799 1.831 1.648c.547.493 1.419.104 1.419-.631v-12.276c0-1.105-.895-2-2-2h-9.917l-.077.001Zm-1.506 3.082c0-.874.709-1.583 1.583-1.583.23 0 .417.187.417.417v4.083h-2v-2.917Zm3.5-1.563-.006-.02h8.006c.276 0 .5.224.5.5v10.816l-1.081-.973c-.38-.342-.958-.342-1.338 0l-1.831 1.648-1.831-1.648c-.38-.342-.958-.342-1.338 0l-1.081.973v-11.296Z"/></svg>