<svg xmlns="http://www.w3.org/2000/svg" viewBox="0 0 20 20"><path d="M7.75 5a.75.75 0 0 0 0 1.5h4.5a.75.75 0 1 0 0-1.5h-4.5Z"/><path d="M7 8.75a.75.75 0 0 1 .75-.75h1.5a.75.75 0 0 1 0 1.5h-1.5a.75.75 0 0 1-.75-.75Z"/><path d="M7.75 11a.75.75 0 0 0 0 1.5h1.5a.75.75 0 0 0 0-1.5h-1.5Z"/><path d="M11 8.75a.75.75 0 0 1 .75-.75h.5a.75.75 0 0 1 0 1.5h-.5a.75.75 0 0 1-.75-.75Z"/><path d="M11.75 11a.75.75 0 0 0 0 1.5h.5a.75.75 0 0 0 0-1.5h-.5Z"/><path fill-rule="evenodd" d="M4 16a1.5 1.5 0 0 0 2.615 1.003l1.135-1.26 1.135 1.26a1.5 1.5 0 0 0 2.23 0l1.135-1.26 1.135 1.26a1.5 1.5 0 0 0 2.615-1.003v-11a2.5 2.5 0 0 0-2.5-2.5h-7a2.5 2.5 0 0 0-2.5 2.5v11Zm2.5-12a1 1 0 0 0-1 1v11l1.507-1.674a1 1 0 0 1 1.486 0l1.507 1.674 1.507-1.674a1 1 0 0 1 1.486 0l1.507 1.674v-11a1 1 0 0 0-1-1h-7Z"/></svg>