<svg xmlns="http://www.w3.org/2000/svg" viewBox="0 0 20 20"><path fill-rule="evenodd" d="M2.5 5.583c0-1.677 1.339-3.041 3.006-3.082l.077-.001h9.917c1.105 0 2 .895 2 2v12.276c0 .735-.872 1.124-1.419.631l-1.831-1.648-1.998 1.799c-.286.256-.719.256-1.004 0l-1.998-1.799-1.831 1.648c-.547.493-1.419.104-1.419-.631v-6.776h-2.75c-.414 0-.75-.336-.75-.75v-3.667Zm3.083-1.583c-.874 0-1.583.709-1.583 1.583v2.917h2v-4.083c0-.23-.187-.417-.417-.417Zm3.417 3.25c0-.414.336-.75.75-.75h4c.414 0 .75.336.75.75s-.336.75-.75.75h-4c-.414 0-.75-.336-.75-.75Zm0 3.5c0-.414.336-.75.75-.75h4c.414 0 .75.336.75.75s-.336.75-.75.75h-4c-.414 0-.75-.336-.75-.75Z"/></svg>