<svg xmlns="http://www.w3.org/2000/svg" viewBox="0 0 16 16"><path fill-rule="evenodd" d="M2.963 15.4c-.58-.222-.963-.779-.963-1.4v-11c0-1.38 1.12-2.5 2.5-2.5h7c1.38 0 2.5 1.12 2.5 2.5v11c0 .621-.383 1.178-.963 1.4-.58.223-1.237.065-1.652-.396l-1.135-1.262-1.135 1.261c-.285.316-.69.497-1.115.497-.425 0-.83-.18-1.115-.496l-1.135-1.262-1.135 1.261c-.416.462-1.073.62-1.652.397Zm2.787-2.405Zm4.601-.995h-.203c-.237.024-.467.133-.641.326l-1.507 1.674-1.507-1.674c-.174-.193-.404-.302-.641-.326h-.204c-.237.024-.467.133-.641.326l-1.507 1.674v-11c0-.552.448-1 1-1h7c.552 0 1 .448 1 1v11l-1.507-1.674c-.174-.193-.404-.302-.642-.326Z"/><path d="M9.643 10.111c.353.217.463.68.246 1.032-.217.353-.68.463-1.032.246l-2.814-1.732c-.769-.473-.434-1.657.469-1.657.546 0 .988-.442.988-.988v-.012h-1.75c-.414 0-.75-.336-.75-.75s.336-.75.75-.75h1.75v-1h-1.75c-.414 0-.75-.336-.75-.75s.336-.75.75-.75h4.5c.414 0 .75.336.75.75s-.336.75-.75.75h-1.25v1h1.25c.414 0 .75.336.75.75s-.336.75-.75.75h-1.25v.012c0 .847-.424 1.595-1.07 2.045l1.713 1.054Z"/></svg>