<svg xmlns="http://www.w3.org/2000/svg" viewBox="0 0 16 16"><path fill-rule="evenodd" d="M3.142 14.934c-.387-.149-.642-.52-.642-.934v-11c0-1.105.895-2 2-2h7c1.105 0 2 .895 2 2v11c0 .414-.255.785-.642.934-.386.148-.824.043-1.101-.265l-1.502-1.669h-.01l-1.502 1.669c-.19.21-.46.331-.743.331s-.554-.12-.743-.331l-1.502-1.669h-.01l-1.502 1.669c-.277.308-.715.413-1.101.265Zm5.108-11.934c-.966 0-1.75.784-1.75 1.75v2h-.75c-.414 0-.75.336-.75.75s.336.75.75.75h.75v1.5h-.75c-.414 0-.75.336-.75.75s.336.75.75.75h4.5c.414 0 .75-.336.75-.75s-.336-.75-.75-.75h-2.25v-1.5h.75c.414 0 .75-.336.75-.75s-.336-.75-.75-.75h-.75v-2c0-.138.112-.25.25-.25h.75v1c0 .414.336.75.75.75s.75-.336.75-.75v-1.25c0-.69-.56-1.25-1.25-1.25h-1Z"/></svg>