<svg xmlns="http://www.w3.org/2000/svg" viewBox="0 0 20 20"><path d="M9.25 5.28c-1.133.18-2 1.16-2 2.345 0 1.312 1.063 2.375 2.375 2.375h.75c.483 0 .875.392.875.875s-.392.875-.875.875h-2.375c-.414 0-.75.336-.75.75s.336.75.75.75h1.25v.25c0 .414.336.75.75.75s.75-.336.75-.75v-.28c1.133-.18 2-1.16 2-2.345 0-1.312-1.063-2.375-2.375-2.375h-.75c-.483 0-.875-.392-.875-.875s.392-.875.875-.875h2.375c.414 0 .75-.336.75-.75s-.336-.75-.75-.75h-1.25v-.25c0-.414-.336-.75-.75-.75s-.75.336-.75.75v.28Z"/><path fill-rule="evenodd" d="M3.5 17c0 .645.412 1.217 1.023 1.422.611.205 1.285-.003 1.674-.518l1.303-1.724 1.303 1.724c.284.376.727.596 1.197.596.47 0 .913-.22 1.197-.596l1.303-1.724 1.303 1.724c.389.515 1.063.723 1.674.518.611-.205 1.023-.777 1.023-1.422v-12.5c0-1.38-1.12-2.5-2.5-2.5h-8c-1.38 0-2.5 1.12-2.5 2.5v12.5Zm1.5 0 1.702-2.252c.4-.53 1.196-.53 1.596 0l1.702 2.252 1.702-2.252c.4-.53 1.196-.53 1.596 0l1.702 2.252v-12.5c0-.552-.448-1-1-1h-8c-.552 0-1 .448-1 1v12.5Z"/></svg>