<svg xmlns="http://www.w3.org/2000/svg" viewBox="0 0 16 16"><path d="M11.28 5.78c.293-.293.293-.767 0-1.06-.293-.293-.767-.293-1.06 0l-2.97 2.97-1.22-1.22c-.293-.293-.767-.293-1.06 0-.293.293-.293.767 0 1.06l1.75 1.75c.293.293.767.293 1.06 0l3.5-3.5Z"/><path fill-rule="evenodd" d="M2 14c0 .621.383 1.178.963 1.4.58.223 1.236.065 1.652-.397l1.135-1.26 1.135 1.26c.285.316.69.497 1.115.497.425 0 .83-.18 1.115-.497l1.135-1.26 1.135 1.26c.415.462 1.073.62 1.652.397.58-.222.963-.779.963-1.4v-11c0-1.38-1.12-2.5-2.5-2.5h-7c-1.38 0-2.5 1.12-2.5 2.5v11Zm2.5-12c-.552 0-1 .448-1 1v11l1.507-1.674c.397-.442 1.09-.442 1.486 0l1.507 1.674 1.507-1.674c.397-.442 1.09-.442 1.486 0l1.507 1.674v-11c0-.552-.448-1-1-1h-7Z"/></svg>