<svg xmlns="http://www.w3.org/2000/svg" viewBox="0 0 16 16"><path fill-rule="evenodd" d="M3.142 14.934c-.387-.149-.642-.52-.642-.934v-11c0-1.105.895-2 2-2h7c1.105 0 2 .895 2 2v11c0 .414-.255.785-.642.934-.386.148-.824.043-1.101-.265l-1.502-1.669h-.01l-1.502 1.669c-.19.21-.46.331-.743.331s-.554-.12-.743-.331l-1.502-1.669h-.01l-1.502 1.669c-.277.308-.715.413-1.101.265Zm4.358-11.684c0-.414.336-.75.75-.75s.75.336.75.75v.5h.75c.414 0 .75.336.75.75s-.336.75-.75.75h-2.375c-.345 0-.625.28-.625.625s.28.625.625.625h1.25c1.174 0 2.125.951 2.125 2.125s-.951 2.125-2.125 2.125h-.125v.5c0 .414-.336.75-.75.75s-.75-.336-.75-.75v-.5h-.75c-.414 0-.75-.336-.75-.75s.336-.75.75-.75h2.375c.345 0 .625-.28.625-.625s-.28-.625-.625-.625h-1.25c-1.174 0-2.125-.951-2.125-2.125s.951-2.125 2.125-2.125h.125v-.5Z"/></svg>