<svg xmlns="http://www.w3.org/2000/svg" viewBox="0 0 20 20"><path fill-rule="evenodd" d="M4.523 18.422c-.611-.205-1.023-.777-1.023-1.422v-12.5c0-1.38 1.12-2.5 2.5-2.5h8c1.38 0 2.5 1.12 2.5 2.5v12.5c0 .645-.412 1.217-1.023 1.422-.611.205-1.285-.003-1.674-.518l-1.303-1.724-1.303 1.724c-.284.376-.727.596-1.197.596-.47 0-.913-.22-1.197-.596l-1.303-1.724-1.303 1.724c-.389.515-1.063.723-1.674.518Zm5.329-12.09c-.416.22-.926.821-1.066 2.168h2.214c.414 0 .75.335.75.75 0 .414-.336.75-.75.75h-2.214c.14 1.347.65 1.948 1.066 2.169.493.262 1.141.152 1.615-.327.291-.295.766-.297 1.06-.006.295.291.298.766.006 1.06-.86.87-2.212 1.22-3.385.597-1.038-.551-1.718-1.744-1.867-3.493h-.781c-.414 0-.75-.336-.75-.75 0-.415.336-.75.75-.75h.78c.15-1.75.83-2.942 1.868-3.493 1.173-.624 2.526-.273 3.385.596.292.295.289.77-.005 1.061-.295.291-.77.289-1.061-.006-.474-.479-1.121-.59-1.615-.327Z"/></svg>