<svg xmlns="http://www.w3.org/2000/svg" viewBox="0 0 16 16"><path fill-rule="evenodd" d="M3.142 14.934c-.387-.149-.642-.52-.642-.934v-11c0-1.105.895-2 2-2h7c1.105 0 2 .895 2 2v11c0 .414-.255.785-.642.934-.386.148-.824.043-1.101-.265l-1.502-1.669h-.01l-1.502 1.669c-.19.21-.46.331-.743.331s-.554-.12-.743-.331l-1.502-1.669h-.01l-1.502 1.669c-.277.308-.715.413-1.101.265Zm4.882-9.939c-.321.193-.728.692-.846 1.755h2.347c.415 0 .75.336.75.75s-.335.75-.75.75h-2.318c.146.945.526 1.459.857 1.688.406.28.83.22 1.116-.065.293-.293.768-.293 1.06 0 .293.293.293.768 0 1.06-.82.82-2.053.912-3.028.239-.801-.553-1.356-1.555-1.518-2.922h-.194c-.414 0-.75-.336-.75-.75s.336-.75.75-.75h.172c.128-1.467.702-2.514 1.58-3.041 1.007-.604 2.21-.39 2.989.389.292.293.292.768 0 1.06-.293.293-.768.293-1.061 0-.327-.326-.781-.388-1.156-.163Z"/></svg>