<svg xmlns="http://www.w3.org/2000/svg" viewBox="0 0 20 20"><path fill-rule="evenodd" d="M4.523 18.422c-.611-.205-1.023-.777-1.023-1.422v-12.5c0-1.38 1.12-2.5 2.5-2.5h8c1.38 0 2.5 1.12 2.5 2.5v12.5c0 .645-.412 1.217-1.023 1.422-.611.205-1.285-.003-1.674-.518l-1.303-1.724-1.303 1.724c-.284.376-.727.596-1.197.596-.47 0-.913-.22-1.197-.596l-1.303-1.724-1.303 1.724c-.389.515-1.063.723-1.674.518Zm4.727-13.672c0-.414.336-.75.75-.75s.75.336.75.75v.25h1.25c.414 0 .75.336.75.75s-.336.75-.75.75h-2.375c-.483 0-.875.392-.875.875s.392.875.875.875h.75c1.312 0 2.375 1.063 2.375 2.375 0 1.184-.867 2.166-2 2.346v.279c0 .414-.336.75-.75.75s-.75-.336-.75-.75v-.25h-1.25c-.414 0-.75-.336-.75-.75s.336-.75.75-.75h2.375c.483 0 .875-.392.875-.875s-.392-.875-.875-.875h-.75c-1.312 0-2.375-1.063-2.375-2.375 0-1.184.867-2.166 2-2.346v-.279Z"/></svg>