<svg xmlns="http://www.w3.org/2000/svg" viewBox="0 0 16 16"><path fill-rule="evenodd" d="M3.142 14.934c-.387-.149-.642-.52-.642-.934v-11c0-1.105.895-2 2-2h7c1.105 0 2 .895 2 2v11c0 .414-.255.785-.642.934-.386.148-.824.043-1.101-.265l-1.502-1.669h-.01l-1.502 1.669c-.19.21-.46.331-.743.331s-.554-.12-.743-.331l-1.502-1.669h-.01l-1.502 1.669c-.277.308-.715.413-1.101.265Zm6.747-3.79c.217-.354.107-.816-.246-1.033l-1.713-1.054c.646-.45 1.07-1.198 1.07-2.045v-.012h1.25c.414 0 .75-.336.75-.75s-.336-.75-.75-.75h-1.25v-1h1.25c.414 0 .75-.336.75-.75s-.336-.75-.75-.75h-4.5c-.414 0-.75.336-.75.75s.336.75.75.75h1.75v1h-1.75c-.414 0-.75.336-.75.75s.336.75.75.75h1.75v.012c0 .546-.442.988-.988.988-.903 0-1.238 1.184-.47 1.657l2.815 1.732c.353.217.815.107 1.032-.246Z"/></svg>