<svg viewBox="0 0 20 20" xmlns="http://www.w3.org/2000/svg"><path d="M7.75 5a.75.75 0 0 0 0 1.5h4.5a.75.75 0 1 0 0-1.5h-4.5Z" fill="#5C5F62"/><path d="M7 8.75a.75.75 0 0 1 .75-.75h4.5a.75.75 0 0 1 0 1.5h-4.5a.75.75 0 0 1-.75-.75Z" fill="#5C5F62"/><path d="M7.75 11a.75.75 0 0 0 0 1.5h2.47a.75.75 0 1 0-.001-1.5h-2.469Z" fill="#5C5F62"/><path fill-rule="evenodd" d="M4 16.5a1.5 1.5 0 0 0 2.615 1.003l1.135-1.26 1.135 1.26a1.5 1.5 0 0 0 2.23 0l1.135-1.26 1.135 1.26a1.5 1.5 0 0 0 2.615-1.003v-12a2.5 2.5 0 0 0-2.5-2.5h-7a2.5 2.5 0 0 0-2.5 2.5v12Zm1.5-12v12l1.507-1.674a1 1 0 0 1 1.486 0l1.507 1.674 1.507-1.674a1 1 0 0 1 1.486 0l1.507 1.674v-12a1 1 0 0 0-1-1h-7a1 1 0 0 0-1 1Z" fill="#5C5F62"/></svg>