<svg xmlns="http://www.w3.org/2000/svg" viewBox="0 0 20 20"><path fill-rule="evenodd" d="M4.523 18.422c-.611-.205-1.023-.777-1.023-1.422v-12.5c0-1.38 1.12-2.5 2.5-2.5h8c1.38 0 2.5 1.12 2.5 2.5v12.5c0 .645-.412 1.217-1.023 1.422-.611.205-1.285-.003-1.674-.518l-1.303-1.724-1.303 1.724c-.284.376-.727.596-1.197.596-.47 0-.913-.22-1.197-.596l-1.303-1.724-1.303 1.724c-.389.515-1.063.723-1.674.518Zm2.42-13.174c.277-.308.75-.333 1.059-.055l1.998 1.798 1.998-1.798c.308-.278.782-.253 1.06.055.277.308.252.782-.056 1.06l-2.252 2.026v.666h1.75c.414 0 .75.336.75.75s-.336.75-.75.75h-1.75v.75h1.75c.414 0 .75.336.75.75s-.336.75-.75.75h-1.75v.5c0 .414-.336.75-.75.75s-.75-.336-.75-.75v-.5h-1.75c-.414 0-.75-.336-.75-.75s.336-.75.75-.75h1.75v-.75h-1.75c-.414 0-.75-.336-.75-.75s.336-.75.75-.75h1.75v-.666l-2.252-2.027c-.308-.277-.333-.75-.055-1.059Z"/></svg>