<svg xmlns="http://www.w3.org/2000/svg" viewBox="0 0 20 20"><path d="m1.833 8.578.167-.206v4.128h-.75c-.414 0-.75.336-.75.75s.336.75.75.75h3c.414 0 .75-.336.75-.75s-.336-.75-.75-.75h-.75v-5.543c0-.943-1.185-1.362-1.778-.628l-1.055 1.307c-.26.322-.21.794.112 1.054s.794.21 1.054-.112Z"/><path d="M7.722 6c-.966 0-1.75.783-1.75 1.75v.45c0 .414.336.75.75.75s.75-.336.75-.75v-.45c0-.138.112-.25.25-.25h.028c.138 0 .25.112.25.25v1.014c0 .24-.069.473-.198.675l-1.937 3.021c-.426.666.052 1.54.842 1.54h2.293c.414 0 .75-.336.75-.75s-.336-.75-.75-.75h-1.378l1.443-2.252c.284-.443.435-.958.435-1.484v-1.014c0-.967-.784-1.75-1.75-1.75h-.028Z"/><path d="M11 6.75c0-.414.336-.75.75-.75h1c.966 0 1.75.783 1.75 1.75v.99c0 .471-.165.912-.447 1.26.282.347.447.789.447 1.26v.99c0 .966-.784 1.75-1.75 1.75h-1c-.414 0-.75-.336-.75-.75s.336-.75.75-.75h1c.138 0 .25-.112.25-.25v-.99c0-.226-.152-.425-.371-.483l-.102-.027h-.277c-.414 0-.75-.336-.75-.75s.336-.75.75-.75h.277l.102-.027c.219-.059.371-.257.371-.483v-.99c0-.138-.112-.25-.25-.25h-1c-.414 0-.75-.336-.75-.75Z"/><path d="M16.25 12.5c-.414 0-.75.336-.75.75s.336.75.75.75h2c.414 0 .75-.336.75-.75s-.336-.75-.75-.75h-2Z"/></svg>