<svg viewBox="0 0 20 20" xmlns="http://www.w3.org/2000/svg"><path d="M3.5 7.463c0-1.065.893-1.963 2.038-1.963h5.77a.75.75 0 0 0 0-1.5h-5.77c-1.934 0-3.538 1.53-3.538 3.463v3.37c0 1.674 1.206 3.048 2.788 3.383v2.177a.75.75 0 0 0 1.189.608l3.758-2.706h4.726c1.935 0 3.539-1.531 3.539-3.463a.75.75 0 1 0-1.5 0c0 1.065-.893 1.963-2.039 1.963h-4.968a.75.75 0 0 0-.438.141l-2.767 1.992v-1.383a.75.75 0 0 0-.75-.75c-1.145 0-2.038-.898-2.038-1.963v-3.37Z" fill="#5C5F62"/><path d="M14.25 4a.75.75 0 0 0 0 1.5h1.19l-3.22 3.22a.75.75 0 0 0 1.06 1.06l3.22-3.22v1.19a.75.75 0 0 0 1.5 0v-3a.75.75 0 0 0-.75-.75h-3Z" fill="#5C5F62"/></svg>