<svg xmlns="http://www.w3.org/2000/svg" viewBox="0 0 20 20"><path fill-rule="evenodd" d="M3.75 10c-.414 0-.75-.336-.75-.75 0-2.485 2.015-4.5 4.5-4.5h7.94l-1.47-1.47c-.293-.293-.293-.767 0-1.06.293-.293.767-.293 1.06 0l2.75 2.75c.284.284.294.74.023 1.037l-2.75 3c-.28.305-.755.326-1.06.046-.305-.28-.326-.754-.046-1.06l1.598-1.743h-8.045c-1.657 0-3 1.343-3 3 0 .414-.336.75-.75.75Z"/><path fill-rule="evenodd" d="M16.25 10c.414 0 .75.336.75.75 0 2.485-2.015 4.5-4.5 4.5h-7.94l1.47 1.47c.293.293.293.767 0 1.06-.293.293-.767.293-1.06 0l-2.75-2.75c-.284-.284-.294-.74-.023-1.037l2.75-3c.28-.305.754-.326 1.06-.046.305.28.326.755.046 1.06l-1.598 1.743h8.045c1.657 0 3-1.343 3-3 0-.414.336-.75.75-.75Z"/></svg>