<svg xmlns="http://www.w3.org/2000/svg" viewBox="0 0 20 20"><path d="M5.25 3.5c-.966 0-1.75.784-1.75 1.75v.5c0 .414.336.75.75.75s.75-.336.75-.75v-.5c0-.138.112-.25.25-.25h6.5c.138 0 .25.112.25.25v8.75c0 .356.074.694.208 1h-4.958c-1.243 0-2.25-1.007-2.25-2.25v-.25c0-.414-.336-.75-.75-.75s-.75.336-.75.75v.25c0 2.071 1.679 3.75 3.75 3.75h7.25c1.38 0 2.5-1.12 2.5-2.5v-1.25c0-.966-.784-1.75-1.75-1.75h-1.75v-5.75c0-.966-.784-1.75-1.75-1.75h-6.5Zm8.25 10.5v-1.5h1.75c.138 0 .25.112.25.25v1.25c0 .552-.448 1-1 1s-1-.448-1-1Z"/><path d="M7.25 8.25c1.795 0 3.25 1.455 3.25 3.25v.5c0 .414-.336.75-.75.75s-.75-.336-.75-.75v-.5c0-.966-.784-1.75-1.75-1.75h-.69l.47.47c.293.293.293.767 0 1.06-.293.293-.767.293-1.06 0l-1.75-1.75c-.293-.293-.293-.767 0-1.06l1.75-1.75c.293-.293.767-.293 1.06 0 .293.293.293.767 0 1.06l-.47.47h.69Z"/></svg>