<svg xmlns="http://www.w3.org/2000/svg" viewBox="0 0 21 21"><path fill-rule="evenodd" d="M4.055 5.262c0-.966.783-1.75 1.75-1.75h7.502c.967 0 1.75.784 1.75 1.75v6.69h1.843c.967 0 1.75.783 1.75 1.75v1.453c0 1.406-1.14 2.546-2.546 2.546h-8.3c-2.07 0-3.75-1.679-3.75-3.75v-1.25c0-.414.336-.75.75-.75.415 0 .75.336.75.75v1.25c0 1.243 1.008 2.25 2.25 2.25h5.977c-.144-.32-.224-.673-.224-1.046v-9.893c0-.138-.112-.25-.25-.25h-7.502c-.139 0-.25.112-.25.25v1.118c0 .414-.336.75-.75.75-.415 0-.75-.336-.75-.75v-1.118Zm11.002 8.19v1.703c0 .578.469 1.046 1.047 1.046s1.046-.468 1.046-1.046v-1.454c0-.138-.112-.25-.25-.25h-1.843Z" clip-rule="evenodd"/><path fill-rule="evenodd" d="M11.352 13.28c.415 0 .75-.335.75-.75v-.5c0-1.794-1.455-3.25-3.25-3.25h-.939l.72-.72c.293-.292.293-.767 0-1.06-.293-.293-.768-.293-1.06 0l-2 2c-.294.293-.294.768 0 1.06l2 2c.292.294.767.294 1.06 0 .293-.292.293-.767 0-1.06l-.72-.72h.94c.966 0 1.75.784 1.75 1.75v.5c0 .415.335.75.75.75Z" clip-rule="evenodd"/></svg>