<svg xmlns="http://www.w3.org/2000/svg" viewBox="0 0 20 20">
<path d="M2.46967 16.4697C2.17678 16.7626 2.17678 17.2374 2.46967 17.5303C2.76256 17.8232 3.23744 17.8232 3.53033 17.5303L17.5303 3.53033C17.8232 3.23744 17.8232 2.76256 17.5303 2.46967C17.2374 2.17678 16.7626 2.17678 16.4697 2.46967L2.46967 16.4697Z"/>
<path d="M2.46967 9.53033C2.17678 9.23744 2.17678 8.76256 2.46967 8.46967L8.46967 2.46967C8.76256 2.17678 9.23744 2.17678 9.53033 2.46967C9.82322 2.76256 9.82322 3.23744 9.53033 3.53033L3.53033 9.53033C3.23744 9.82322 2.76256 9.82322 2.46967 9.53033Z"/>
<path d="M2.46967 5.53033C2.17678 5.23744 2.17678 4.76256 2.46967 4.46967L4.46967 2.46967C4.76256 2.17678 5.23744 2.17678 5.53033 2.46967C5.82322 2.76256 5.82322 3.23744 5.53033 3.53033L3.53033 5.53033C3.23744 5.82322 2.76256 5.82322 2.46967 5.53033Z"/>
<path d="M10.4697 16.4697C10.1768 16.7626 10.1768 17.2374 10.4697 17.5303C10.7626 17.8232 11.2374 17.8232 11.5303 17.5303L17.5303 11.5303C17.8232 11.2374 17.8232 10.7626 17.5303 10.4697C17.2374 10.1768 16.7626 10.1768 16.4697 10.4697L10.4697 16.4697Z"/>
<path d="M6.46967 17.5303C6.17678 17.2374 6.17678 16.7626 6.46967 16.4697L16.4697 6.46967C16.7626 6.17678 17.2374 6.17678 17.5303 6.46967C17.8232 6.76256 17.8232 7.23744 17.5303 7.53033L7.53033 17.5303C7.23744 17.8232 6.76256 17.8232 6.46967 17.5303Z"/>
<path d="M2.46967 12.4697C2.17678 12.7626 2.17678 13.2374 2.46967 13.5303C2.76256 13.8232 3.23744 13.8232 3.53033 13.5303L13.5303 3.53033C13.8232 3.23744 13.8232 2.76256 13.5303 2.46967C13.2374 2.17678 12.7626 2.17678 12.4697 2.46967L2.46967 12.4697Z"/>
<path d="M14.4697 17.5303C14.1768 17.2374 14.1768 16.7626 14.4697 16.4697L16.4697 14.4697C16.7626 14.1768 17.2374 14.1768 17.5303 14.4697C17.8232 14.7626 17.8232 15.2374 17.5303 15.5303L15.5303 17.5303C15.2374 17.8232 14.7626 17.8232 14.4697 17.5303Z"/>
</svg>
