<svg viewBox="0 0 20 20" xmlns="http://www.w3.org/2000/svg"><path d="M8.591 4.098a3.75 3.75 0 0 1 2.652-1.098h2.507a3.25 3.25 0 0 1 3.25 3.25v2.714a3.25 3.25 0 0 1-.952 2.299l-.174.174a.75.75 0 0 1-1.06-1.061l.173-.174a1.75 1.75 0 0 0 .513-1.238v-2.714a1.75 1.75 0 0 0-1.75-1.75h-2.507a2.25 2.25 0 0 0-1.591.659l-4.957 4.957a1.25 1.25 0 0 0 0 1.768l3.598 3.598a1 1 0 0 0 1.414 0l.575-.575a.75.75 0 1 1 1.06 1.06l-.574.576a2.5 2.5 0 0 1-3.536 0l-3.598-3.598a2.75 2.75 0 0 1 0-3.89l4.957-4.957Z" fill="#5C5F62"/><path d="M14 7a1 1 0 1 1-2 0 1 1 0 0 1 2 0Z" fill="#5C5F62"/><path d="M12.75 13a.75.75 0 0 0 0 1.5h4.5a.75.75 0 0 0 0-1.5h-4.5Z" fill="#5C5F62"/></svg>