<svg viewBox="0 0 20 20" xmlns="http://www.w3.org/2000/svg"><path d="M13 2.75a.75.75 0 0 1 .75-.75h.25a3 3 0 1 1 0 6h-3.69l.72.72a.75.75 0 1 1-1.06 1.06l-2-2a.75.75 0 0 1 0-1.06l2-2a.75.75 0 1 1 1.06 1.06l-.72.72h3.69a1.5 1.5 0 0 0 0-3h-.25a.75.75 0 0 1-.75-.75Z" fill="#5C5F62"/><path fill-rule="evenodd" d="M7.814 4.5a2.25 2.25 0 0 0-2.192 1.742l-.928 4.008h2.265c.795 0 1.501.509 1.753 1.263.047.142.18.237.329.237h1.918c.15 0 .282-.095.33-.237a1.847 1.847 0 0 1 1.752-1.263h2.265l-.207-.893a.75.75 0 0 1 1.462-.339l.42 1.813c.012.055.019.112.019.169v2.25a3.75 3.75 0 0 1-3.75 3.75h-6.5a3.75 3.75 0 0 1-3.75-3.75v-2.25a.75.75 0 0 1 .02-.17l1.141-4.927a3.75 3.75 0 0 1 3.653-2.903h.151a.75.75 0 0 1 0 1.5h-.15Zm7.686 7.25h-2.46a.347.347 0 0 0-.329.237 1.847 1.847 0 0 1-1.752 1.263h-1.918c-.795 0-1.501-.509-1.753-1.263a.347.347 0 0 0-.329-.237h-2.459v1.5a2.25 2.25 0 0 0 2.25 2.25h6.5a2.25 2.25 0 0 0 2.25-2.25v-1.5Z" fill="#5C5F62"/></svg>