<svg xmlns="http://www.w3.org/2000/svg" viewBox="0 0 20 20"><path fill-rule="evenodd" d="M13.28 1.97c-.293-.293-.767-.293-1.06 0-.293.293-.293.767 0 1.06l2.22 2.22h-5.19c-3.452 0-6.25 2.798-6.25 6.25s2.798 6.25 6.25 6.25h.324c3.273 0 5.926-2.653 5.926-5.927 0-.414-.336-.75-.75-.75s-.75.336-.75.75c0 2.445-1.982 4.427-4.426 4.427h-.324c-2.623 0-4.75-2.127-4.75-4.75s2.127-4.75 4.75-4.75h5.189l-2.22 2.22c-.292.293-.292.767 0 1.06.294.293.768.293 1.061 0l3.5-3.5c.293-.293.293-.767 0-1.06l-3.5-3.5Zm1.906 4.034.003-.004-.003-.004v.008Z"/></svg>