<svg xmlns="http://www.w3.org/2000/svg" viewBox="0 0 16 16"><path fill-rule="evenodd" d="M11.324 1.5h.852c.258 0 .494 0 .692.016.213.018.446.057.676.175.33.168.598.435.765.765.118.23.158.463.175.676.016.198.016.434.016.692v.852c0 .258 0 .494-.016.692-.018.213-.057.446-.175.676-.167.33-.435.597-.764.765-.23.118-.464.157-.677.175-.198.016-.434.016-.692.016h-.852c-.258 0-.494 0-.692-.016-.213-.018-.446-.057-.676-.175-.33-.168-.597-.435-.765-.765-.118-.23-.157-.463-.175-.676-.016-.198-.016-.434-.016-.692v-.852c0-.258 0-.494.016-.692.018-.213.057-.446.175-.676.168-.33.435-.597.765-.765.23-.118.463-.157.676-.175.198-.016.434-.016.692-.016Zm-.693 1.53h.001-.001Zm.002-.001c.01-.003.043-.011.121-.018.13-.01.304-.011.596-.011h.8c.292 0 .467 0 .596.011.079.007.112.015.12.018.045.023.082.06.105.104.003.01.011.042.018.121.01.13.011.304.011.596v.8c0 .292 0 .467-.011.596-.007.079-.015.112-.018.12-.023.045-.06.082-.104.105-.01.003-.043.011-.121.018-.13.01-.304.011-.596.011h-.8c-.292 0-.467 0-.596-.011-.079-.007-.112-.015-.12-.018-.045-.023-.082-.06-.105-.104-.003-.01-.011-.042-.018-.121-.01-.13-.011-.304-.011-.596v-.8c0-.292 0-.467.011-.596.007-.079.015-.112.018-.12.023-.045.06-.082.104-.105Zm-.103.102v.001-.001Zm0 2.238v-.001.001Zm.1.101h.002-.001Zm2.24 0h-.002.001Zm.1-.1v-.002.001Zm0-2.24v.002-.001Zm-.102-.1h.001-.001Z"/><path fill-rule="evenodd" d="M4.676 14.5h-.852c-.258 0-.494 0-.692-.016-.213-.018-.446-.057-.676-.175-.33-.167-.597-.435-.765-.764-.118-.23-.157-.464-.175-.677-.016-.198-.016-.434-.016-.692v-.852c0-.258 0-.494.016-.692.018-.213.057-.446.175-.676.168-.33.435-.597.765-.765.23-.118.463-.157.676-.175.198-.016.434-.016.692-.016h.852c.258 0 .494 0 .692.016.213.018.446.057.676.175.33.168.597.435.765.765.118.23.157.463.175.676.016.198.016.434.016.692v.852c0 .258 0 .494-.016.692-.018.213-.057.446-.175.676-.168.33-.435.598-.765.765-.23.118-.463.158-.676.175-.198.016-.434.016-.692.016Zm.693-1.53h-.001.001Zm-.002.001c-.01.003-.042.011-.121.018-.13.01-.304.011-.596.011h-.8c-.292 0-.467 0-.596-.011-.079-.007-.112-.015-.12-.018-.045-.023-.082-.06-.105-.104-.003-.01-.011-.043-.018-.121-.01-.13-.011-.304-.011-.596v-.8c0-.292 0-.467.011-.596.007-.079.015-.112.018-.12.023-.045.06-.082.104-.105.01-.003.042-.011.121-.018.13-.01.304-.011.596-.011h.8c.292 0 .467 0 .596.011.079.007.112.015.12.018.045.023.082.06.105.104.003.01.011.043.018.121.01.13.011.304.011.596v.8c0 .292 0 .467-.011.596-.007.079-.015.112-.018.12-.023.045-.06.082-.104.105Zm.103-.102v-.001.001Zm0-2.238v.001-.001Zm-.1-.101h-.002.001Zm-2.24 0h.002-.001Zm-.1.1v.002-.001Zm0 2.24v-.002.001Zm.102.1h-.001.001Z"/><path d="M4.97 2.53c-.293-.293-.293-.767 0-1.06.293-.293.767-.293 1.06 0l1.995 1.994c.021.021.042.044.061.068.103.128.164.29.164.468v.007c0 .086-.016.173-.047.255-.036.098-.094.19-.173.268l-2 2c-.293.293-.767.293-1.06 0-.293-.293-.293-.767 0-1.06l.72-.72h-.24c-.572 0-.957 0-1.253.025-.287.023-.424.065-.514.111-.236.12-.427.311-.547.547-.046.09-.088.227-.111.514-.024.296-.025.68-.025 1.253v.3c0 .414-.336.75-.75.75s-.75-.336-.75-.75v-.33c0-.535 0-.98.03-1.345.03-.38.098-.736.27-1.073.263-.518.684-.939 1.202-1.202.337-.172.693-.24 1.073-.27.365-.03.81-.03 1.345-.03h.27l-.72-.72Z"/><path d="M11.803 11.225c-.296.024-.68.025-1.253.025h-.24l.72-.72c.293-.293.293-.768 0-1.06-.293-.293-.767-.293-1.06 0l-2 2c-.08.078-.137.17-.173.268-.03.082-.047.17-.047.262 0 .177.061.34.164.468.02.024.04.047.061.068l1.995 1.994c.293.293.767.293 1.06 0 .293-.293.293-.767 0-1.06l-.72-.72h.27c.535 0 .98 0 1.345-.03.38-.03.736-.098 1.073-.27.518-.263.939-.684 1.202-1.201.172-.338.24-.694.27-1.074.03-.365.03-.81.03-1.345v-.33c0-.414-.336-.75-.75-.75s-.75.336-.75.75v.3c0 .572 0 .957-.025 1.252-.023.288-.065.425-.111.516-.12.235-.311.426-.546.546-.091.046-.228.088-.515.111Z"/></svg>