<svg xmlns="http://www.w3.org/2000/svg" viewBox="0 0 20 20"><path fill-rule="evenodd" d="M13.824 2h1.852c.258 0 .494 0 .692.016.213.018.446.057.677.175.329.168.596.435.764.765.118.23.157.463.175.676.016.198.016.434.016.692v1.852c0 .258 0 .494-.016.692-.018.213-.057.446-.175.676-.168.33-.435.597-.765.765-.23.118-.463.157-.676.175-.198.016-.434.016-.692.016h-1.852c-.258 0-.494 0-.692-.016-.213-.018-.446-.057-.676-.175-.33-.168-.598-.435-.765-.765-.118-.23-.158-.463-.175-.676-.016-.198-.016-.434-.016-.692v-1.852c0-.258 0-.494.016-.692.018-.213.057-.446.175-.676.167-.33.435-.597.764-.765.23-.118.464-.157.677-.175.198-.016.434-.016.692-.016Zm-.69 1.529c.008-.003.041-.011.12-.018.13-.01.304-.011.596-.011h1.8c.292 0 .467 0 .596.011.079.007.112.015.12.018.045.023.082.06.105.104.003.01.011.042.018.121.01.13.011.304.011.596v1.8c0 .292 0 .467-.011.596-.007.079-.015.112-.018.12-.023.045-.06.082-.105.105-.008.003-.041.011-.12.018-.13.01-.304.011-.596.011h-1.8c-.292 0-.467 0-.596-.011-.079-.007-.112-.015-.12-.018-.045-.023-.082-.06-.105-.104-.003-.01-.011-.042-.018-.121-.01-.13-.011-.304-.011-.596v-1.8c0-.292 0-.467.011-.596.007-.079.015-.112.018-.12.023-.045.06-.082.104-.105Z"/><path d="M6.47 3.03c-.293-.293-.293-.767 0-1.06.293-.293.767-.293 1.06 0l2.5 2.5c.293.293.293.768 0 1.06l-2.5 2.5c-.293.293-.767.293-1.06 0-.293-.292-.293-.767 0-1.06l1.22-1.22h-.19c-.829 0-1.406 0-1.856.036-.442.035-.696.1-.89.196-.443.22-.803.579-1.022 1.023-.095.193-.16.447-.196.889-.035.45-.036 1.027-.036 1.856 0 .414-.336.75-.75.75s-.75-.336-.75-.75v-.031c0-.79 0-1.427.041-1.944.042-.532.131-1 .346-1.434.365-.74.964-1.34 1.704-1.704.435-.214.902-.304 1.434-.346.517-.041 1.154-.041 1.944-.041h.22l-1.22-1.22Z"/><path fill-rule="evenodd" d="M6.176 18h-1.852c-.258 0-.494 0-.692-.016-.213-.018-.446-.057-.676-.175-.33-.168-.597-.435-.765-.765-.118-.23-.157-.463-.175-.676-.016-.198-.016-.434-.016-.692v-1.852c0-.258 0-.494.016-.692.018-.213.057-.446.175-.676.168-.33.435-.598.765-.765.23-.118.463-.158.676-.175.198-.016.434-.016.692-.016h1.852c.258 0 .494 0 .692.016.213.018.446.057.676.175.33.167.597.435.765.764.118.23.157.464.175.677.016.198.016.434.016.692v1.852c0 .258 0 .494-.016.692-.018.213-.057.446-.175.677-.168.329-.435.596-.765.764-.23.118-.463.157-.676.175-.198.016-.434.016-.692.016Zm.69-1.529c-.008.003-.041.011-.12.018-.13.01-.304.011-.596.011h-1.8c-.292 0-.467 0-.596-.011-.079-.007-.112-.015-.12-.018-.045-.023-.082-.06-.105-.105-.003-.008-.011-.041-.018-.12-.01-.13-.011-.304-.011-.596v-1.8c0-.292 0-.467.011-.596.007-.079.015-.112.018-.12.023-.045.06-.082.104-.105.01-.003.042-.011.121-.018.13-.01.304-.011.596-.011h1.8c.292 0 .467 0 .596.011.079.007.112.015.12.018.045.023.082.06.105.104.003.01.011.043.018.121.01.13.011.304.011.596v1.8c0 .292 0 .467-.011.596-.007.079-.015.112-.018.12-.023.045-.06.082-.104.105Z"/><path d="M12.5 14.25c.829 0 1.406 0 1.856-.036.442-.035.696-.1.89-.196.443-.22.803-.579 1.022-1.023.095-.193.16-.447.196-.889.036-.45.036-1.027.036-1.856 0-.414.336-.75.75-.75s.75.336.75.75v.031c0 .79 0 1.428-.041 1.944-.042.532-.131 1-.346 1.434-.365.74-.964 1.34-1.704 1.704-.435.215-.902.304-1.434.346-.516.041-1.154.041-1.944.041h-.22l1.22 1.22c.292.293.292.767 0 1.06-.294.293-.768.293-1.061 0l-2.5-2.5c-.293-.293-.293-.768 0-1.06l2.5-2.5c.293-.293.767-.293 1.06 0 .293.292.293.767 0 1.06l-1.22 1.22h.19Z"/></svg>