<svg width="20" height="20" viewBox="0 0 20 20" fill="none" xmlns="http://www.w3.org/2000/svg">
<path d="M9.0179 3.5H10.9821C11.7949 3.49999 12.4506 3.49999 12.9815 3.54336C13.5281 3.58803 14.0082 3.68239 14.4525 3.90873C15.1581 4.26825 15.7317 4.84193 16.0913 5.54754C16.3176 5.99175 16.412 6.4719 16.4566 7.01853C16.5 7.54944 16.5 8.20505 16.5 9.01788V9.25C16.5 9.66421 16.1642 10 15.75 10C15.3358 10 15 9.66421 15 9.25V9.05C15 8.19755 14.9994 7.60331 14.9616 7.14068C14.9245 6.6868 14.8554 6.42604 14.7548 6.22852C14.539 5.80516 14.1948 5.46095 13.7715 5.24524C13.574 5.1446 13.3132 5.07546 12.8593 5.03838C12.3967 5.00058 11.8025 5 10.95 5H9.05C8.19755 5 7.60331 5.00058 7.14068 5.03838C6.6868 5.07546 6.42604 5.1446 6.22852 5.24524C5.80516 5.46095 5.46095 5.80516 5.24524 6.22852C5.1446 6.42604 5.07547 6.6868 5.03838 7.14068C5.00058 7.60331 5 8.19755 5 9.05V10.95C5 11.8025 5.00058 12.3967 5.03838 12.8593C5.07547 13.3132 5.1446 13.574 5.24524 13.7715C5.46095 14.1948 5.80516 14.539 6.22852 14.7548C6.42604 14.8554 6.6868 14.9245 7.14068 14.9616C7.60331 14.9994 8.19755 15 9.05 15H9.25C9.66421 15 10 15.3358 10 15.75C10 16.1642 9.66421 16.5 9.25 16.5H9.01788C8.20505 16.5 7.54944 16.5 7.01853 16.4566C6.4719 16.412 5.99175 16.3176 5.54754 16.0913C4.84193 15.7317 4.26825 15.1581 3.90873 14.4525C3.68239 14.0082 3.58803 13.5281 3.54336 12.9815C3.49999 12.4506 3.49999 11.7949 3.5 10.9821V9.0179C3.49999 8.20506 3.49999 7.54944 3.54336 7.01853C3.58803 6.4719 3.68239 5.99175 3.90873 5.54754C4.26825 4.84193 4.84193 4.26825 5.54754 3.90873C5.99175 3.68239 6.4719 3.58803 7.01853 3.54336C7.54944 3.49999 8.20506 3.49999 9.0179 3.5Z" fill="#4A4A4A"/>
<path fill-rule="evenodd" clip-rule="evenodd" d="M10.25 13C10.25 11.4812 11.4812 10.25 13 10.25C14.5188 10.25 15.75 11.4812 15.75 13C15.75 13.4869 15.6235 13.9442 15.4015 14.3409L16.5303 15.4697C16.8232 15.7626 16.8232 16.2374 16.5303 16.5303C16.2374 16.8232 15.7626 16.8232 15.4697 16.5303L14.3409 15.4015C13.9442 15.6235 13.4869 15.75 13 15.75C11.4812 15.75 10.25 14.5188 10.25 13ZM13 11.75C12.3096 11.75 11.75 12.3096 11.75 13C11.75 13.6904 12.3096 14.25 13 14.25C13.6904 14.25 14.25 13.6904 14.25 13C14.25 12.3096 13.6904 11.75 13 11.75Z" fill="#4A4A4A"/>
<path d="M7 7.75C7 7.33579 7.33579 7 7.75 7H12.25C12.6642 7 13 7.33579 13 7.75C13 8.16421 12.6642 8.5 12.25 8.5H7.75C7.33579 8.5 7 8.16421 7 7.75Z" fill="#4A4A4A"/>
<path d="M7.75 10C7.33579 10 7 10.3358 7 10.75C7 11.1642 7.33579 11.5 7.75 11.5H9.25C9.66421 11.5 10 11.1642 10 10.75C10 10.3358 9.66421 10 9.25 10H7.75Z" fill="#4A4A4A"/>
</svg>
