<svg xmlns="http://www.w3.org/2000/svg" viewBox="0 0 16 16"><path d="M15 7.25c0 .414-.336.75-.75.75s-.75-.336-.75-.75c0-1.657-1.343-3-3-3h-6.566l1.123 1.248c.278.308.253.782-.055 1.06-.308.277-.782.252-1.06-.056l-2.25-2.5c-.266-.297-.254-.75.028-1.032l2.25-2.25c.293-.293.767-.293 1.06 0 .293.293.293.767 0 1.06l-.97.97h6.44c2.485 0 4.5 2.015 4.5 4.5Z"/><path d="M1 8.75c0-.414.336-.75.75-.75s.75.336.75.75c0 1.657 1.343 3 3 3h6.566l-1.123-1.248c-.278-.308-.253-.782.055-1.06.308-.277.782-.252 1.06.056l2.25 2.5c.266.297.254.75-.028 1.032l-2.25 2.25c-.293.293-.767.293-1.06 0-.293-.293-.293-.767 0-1.06l.97-.97h-6.44c-2.485 0-4.5-2.015-4.5-4.5Z"/></svg>