<svg xmlns="http://www.w3.org/2000/svg" viewBox="0 0 20 20"><path d="M17 9.25c0 .414-.336.75-.75.75s-.75-.336-.75-.75c0-1.657-1.343-3-3-3h-8.045l1.598 1.743c.28.306.26.78-.046 1.06s-.78.26-1.06-.046l-2.75-3c-.271-.296-.261-.753.023-1.037l2.75-2.75c.293-.293.767-.293 1.06 0 .293.293.293.767 0 1.06l-1.47 1.47h7.94c2.485 0 4.5 2.015 4.5 4.5Z"/><path d="M3 10.75c0-.414.336-.75.75-.75s.75.336.75.75c0 1.657 1.343 3 3 3h8.045l-1.598-1.743c-.28-.306-.26-.78.046-1.06s.78-.26 1.06.046l2.75 3c.271.296.261.753-.023 1.037l-2.75 2.75c-.293.293-.767.293-1.06 0-.293-.293-.293-.767 0-1.06l1.47-1.47h-7.94c-2.485 0-4.5-2.015-4.5-4.5Z"/></svg>