<svg viewBox="0 0 20 20" xmlns="http://www.w3.org/2000/svg"><path fill-rule="evenodd" d="M6.67 3.665a.75.75 0 0 1-.335 1.006l-1.153.577a1.25 1.25 0 0 0-.66.84l-.832 3.662h4.06c.698 0 1.3.409 1.582 1h1.668c.456-.607 1.182-1 2-1h3.31l-.846-3.727a1.25 1.25 0 0 0-.6-.808l-.986-.564a.75.75 0 0 1 .744-1.302l.987.564a2.75 2.75 0 0 1 1.317 1.778l1.074 4.725v1.834a3.75 3.75 0 1 1-7.5 0h-1a3.75 3.75 0 0 1-7.5 0v-1.834l1.059-4.66a2.75 2.75 0 0 1 1.452-1.85l1.154-.577a.75.75 0 0 1 1.006.336Zm-3.17 7.585h4.25a.25.25 0 0 1 .25.25v.75a2.25 2.25 0 0 1-4.5 0v-1Zm13 0h-3.5a1 1 0 0 0-1 1 2.25 2.25 0 1 0 4.5 0v-1Z" fill="#5C5F62"/></svg>