<svg viewBox="0 0 20 20" xmlns="http://www.w3.org/2000/svg"><path d="M11 5H19L17.1547 2.42858C16.9634 2.16232 16.6093 1.99879 16.2267 2.00001H11V5ZM9 2.00001H3.77333C3.39074 1.99879 3.03663 2.16232 2.84533 2.42858L1 5H9V2.00001ZM1 7V17.5C1 18.3284 1.67156 19 2.49997 19L8.5 19C9.5 19 10 18 10 18C10.0005 17.4658 10.0032 16.9327 10.0097 16.5C10.0097 12.9159 12.9234 10 16.5048 10H18C18 10 19 10 19 9V7H1ZM20 13C20 12.4477 19.5523 12 19 12C18.4477 12 18 12.4477 18 13V14C18 15.1046 17.1046 16 16 16H15.4142L15.7071 15.7071C16.0976 15.3166 16.0976 14.6834 15.7071 14.2929C15.3166 13.9024 14.6834 13.9024 14.2929 14.2929L12.2929 16.2929C11.9024 16.6834 11.9024 17.3166 12.2929 17.7071L14.2929 19.7071C14.6834 20.0976 15.3166 20.0976 15.7071 19.7071C16.0976 19.3166 16.0976 18.6834 15.7071 18.2929L15.4142 18H16C18.2091 18 20 16.2091 20 14V13Z" fill="#5C5F62"/></svg>