<svg viewBox="0 0 20 20" xmlns="http://www.w3.org/2000/svg"><path fill-rule="evenodd" d="M15.5 8v1.25a.75.75 0 0 0 1.5 0v-2a.75.75 0 0 0-.044-.252l-.539-1.51a3.75 3.75 0 0 0-3.531-2.488h-5.706a3.75 3.75 0 0 0-3.482 2.36l-.644 1.612a.75.75 0 0 0-.054.278v6a3.75 3.75 0 0 0 3.75 3.75h3a.75.75 0 0 0 0-1.5h-3a2.25 2.25 0 0 1-2.25-2.25v-5.25h11Zm-8.32-3.5c-.92 0-1.748.56-2.09 1.415l-.233.585h4.393v-2h-2.07Zm3.57 0v2h4.436l-.181-.507a2.25 2.25 0 0 0-2.12-1.493h-2.135Z" fill="#5C5F62"/><path d="M6 10a.75.75 0 0 1 .75-.75h2.5a.75.75 0 0 1 0 1.5h-2.5a.75.75 0 0 1-.75-.75Z" fill="#5C5F62"/><path d="M18 11.75a.75.75 0 0 0-1.5 0v1.625c0 .69-.56 1.25-1.25 1.25h-.774l.572-.613a.75.75 0 0 0-1.096-1.024l-1.75 1.875a.75.75 0 0 0 0 1.024l1.75 1.875a.75.75 0 1 0 1.096-1.024l-.572-.613h.774a2.75 2.75 0 0 0 2.75-2.75v-1.625Z" fill="#5C5F62"/></svg>