<svg xmlns="http://www.w3.org/2000/svg" viewBox="0 0 16 16"><path d="M8.75 10c.241 0 .334 0 .41-.004 1.669-.082 3.004-1.417 3.086-3.087.004-.075.004-.168.004-.409 0-.241 0-.334-.004-.41-.082-1.669-1.417-3.004-3.087-3.086-.075-.004-.168-.004-.409-.004h-1.5c-.414 0-.75-.336-.75-.75s.336-.75.75-.75h1.524c.21 0 .342 0 .46.006 2.44.12 4.39 2.07 4.51 4.51.006.118.006.25.006.46v.048c0 .21 0 .342-.006.46-.12 2.44-2.07 4.39-4.51 4.51-.118.006-.25.006-.46.006h-3.963l1.72 1.72c.292.293.292.767 0 1.06-.294.293-.768.293-1.061 0l-3-3c-.293-.293-.293-.767 0-1.06l3-3c.293-.293.767-.293 1.06 0 .293.293.293.767 0 1.06l-1.72 1.72h3.94Z"/></svg>