<svg xmlns="http://www.w3.org/2000/svg" viewBox="0 0 20 20"><path fill-rule="evenodd" d="m14.663 12.753 1.833 3.143c.39.666-.092 1.504-.863 1.504h-1.517l-.605.99c-.397.648-1.342.634-1.72-.024l-1.782-3.104-1.723 3.102c-.363.654-1.29.692-1.706.069l-.689-1.033h-1.441c-.772 0-1.253-.838-.864-1.504l1.802-3.088c-.483-.5-.73-1.23-.552-1.998.065-.278-.055-.568-.298-.719-1.363-.849-1.363-2.833 0-3.682.243-.151.363-.44.298-.72-.364-1.564 1.04-2.967 2.604-2.603.278.065.568-.055.719-.298.849-1.363 2.833-1.363 3.682 0 .151.243.44.363.72.298 1.564-.364 2.967 1.04 2.603 2.604-.065.278.055.568.298.719 1.363.849 1.363 2.833 0 3.682-.243.152-.363.44-.298.72.172.74-.051 1.444-.5 1.942Zm-5.873 1.616c-.244-.164-.46-.383-.631-.657-.151-.243-.44-.363-.72-.298-.238.056-.472.07-.697.05l-1.421 2.436h.838c.334 0 .646.167.832.445l.382.574 1.417-2.55Zm2.432-.008 1.45 2.526.311-.51c.182-.296.505-.477.853-.477h.926l-1.426-2.446c-.249.033-.51.022-.776-.04-.278-.065-.568.055-.719.298-.168.27-.38.486-.62.649Zm-1.79-1.442c.262.42.874.42 1.136 0 .49-.788 1.428-1.176 2.332-.966.483.112.915-.32.803-.803-.21-.904.178-1.842.966-2.332.42-.262.42-.874 0-1.136-.788-.49-1.176-1.428-.966-2.332.112-.482-.32-.915-.803-.803-.904.21-1.842-.178-2.332-.966-.262-.42-.874-.42-1.136 0-.49.788-1.428 1.176-2.332.966-.483-.112-.915.32-.803.803.21.904-.178 1.842-.966 2.332-.42.262-.42.874 0 1.136.788.49 1.176 1.428.966 2.332-.112.483.32.915.803.803.904-.21 1.842.178 2.332.966Z"/></svg>