<svg xmlns="http://www.w3.org/2000/svg" viewBox="0 0 20 20"><path fill-rule="evenodd" d="M9.716 14.806c.035.005.07.008.106.011l1.4 2.44c.378.66 1.324.673 1.72.024l.479-.781h1.226c.772 0 1.253-.837.864-1.504l-1.167-2c.446-.476.67-1.16.504-1.88-.056-.237.046-.482.252-.61 1.3-.81 1.3-2.702 0-3.511-.206-.128-.308-.374-.252-.61.346-1.491-.992-2.83-2.483-2.482-.236.055-.482-.047-.61-.253-.81-1.3-2.7-1.3-3.51 0-.128.206-.374.308-.61.253-1.492-.347-2.83.99-2.482 2.482.055.236-.047.482-.253.61-1.3.81-1.3 2.7 0 3.51.206.128.308.374.253.61-.135.577-.017 1.131.265 1.573l-1.346 2.308c-.39.667.092 1.504.863 1.504h1.164l.55.825c.415.623 1.342.585 1.706-.07l1.361-2.45Zm-1.31-.73c-.058-.07-.111-.146-.161-.226-.128-.206-.374-.307-.61-.252-.35.08-.69.07-1.003-.014l-.826 1.416h.56c.335 0 .647.167.832.445l.244.365.964-1.735Zm4.582-.428.789 1.352h-.637c-.348 0-.671.181-.853.478l-.184.301-.807-1.407c.174-.141.33-.315.46-.522.127-.206.373-.307.61-.252.211.049.42.064.622.05Zm-3.47-.59c.222.356.742.356.964 0 .468-.752 1.361-1.122 2.223-.921.41.095.777-.273.681-.682-.2-.862.17-1.756.921-2.223.357-.222.357-.742 0-.964-.75-.467-1.121-1.361-.92-2.223.095-.41-.273-.777-.682-.681-.862.2-1.755-.17-2.223-.921-.222-.357-.742-.357-.964 0-.467.75-1.361 1.121-2.223.92-.41-.095-.777.273-.681.682.2.862-.17 1.756-.921 2.223-.357.222-.357.742 0 .964.75.467 1.121 1.361.92 2.223-.095.41.273.777.682.681.862-.2 1.756.17 2.223.921Z"/></svg>