<svg xmlns="http://www.w3.org/2000/svg" viewBox="0 0 16 16"><path d="M8.906 1.091c-.4-.107-.812.13-.919.53-.107.4.13.812.53.92l1.214.324-.95 3.668c-.064-.02-.126-.045-.187-.075l-.623-.312c-.565-.282-1.21-.361-1.827-.224l-1.557.345c-.404.09-.659.491-.57.895.09.405.491.66.896.57l1.557-.346c.28-.062.573-.026.83.102l.624.312c.652.326 1.407.38 2.1.15l1.463-.489c.393-.13.605-.556.474-.949-.13-.392-.555-.605-.948-.474l-.607.202.774-2.987 1.201.322c.4.108.812-.13.919-.53.107-.4-.13-.811-.53-.919l-3.864-1.035Z"/><path fill-rule="evenodd" d="M3.302 4.64c.055-.368.37-.64.742-.64h2.456c.414 0 .75-.336.75-.75 0-.415-.336-.75-.75-.75h-2.456c-1.115 0-2.062.817-2.226 1.92l-.724 4.887c-.062.424-.094.853-.094 1.282v1.16c0 1.52 1.231 2.75 2.75 2.75h8.5c1.519 0 2.75-1.23 2.75-2.75v-1.16c0-.43-.032-.858-.095-1.282l-.6-4.058c-.061-.41-.443-.693-.852-.632-.41.06-.693.442-.632.852l.523 3.53h-10.688l.646-4.36Zm-.801 5.86-.001.089v1.16c0 .691.56 1.25 1.25 1.25h8.5c.69 0 1.25-.559 1.25-1.25v-1.25h-11Z"/></svg>