<svg xmlns="http://www.w3.org/2000/svg" viewBox="0 0 20 20"><path d="M10.357 2.172c-.4-.107-.811.13-.918.53-.108.4.13.811.53.919l1.932.517-1.106 4.126c-.253-.062-.497-.17-.717-.325-.913-.639-2.068-.825-3.135-.505l-1.159.348c-.396.119-.621.537-.502.934.119.396.537.621.934.502l1.158-.347c.627-.188 1.307-.079 1.844.297 1.055.739 2.422.865 3.595.332l1.247-.567c.377-.172.544-.616.373-.993-.172-.377-.616-.544-.993-.373l-1.03.469.94-3.51 1.931.518c.4.107.812-.13.92-.53.106-.4-.131-.812-.531-.919l-5.313-1.423Z"/><path fill-rule="evenodd" d="M4.676 6.994c.127-.858.863-1.494 1.73-1.494h1.594c.414 0 .75-.336.75-.75s-.336-.75-.75-.75h-1.593c-1.611 0-2.979 1.18-3.215 2.774l-.598 4.033c-.062.425-.094.853-.094 1.282v2.161c0 1.795 1.455 3.25 3.25 3.25h8.5c1.795 0 3.25-1.455 3.25-3.25v-2.16c0-.43-.032-.858-.095-1.283l-.6-4.057c-.061-.41-.443-.693-.852-.632-.41.06-.693.442-.632.851l.597 4.031h-11.836l.594-4.006Zm-.676 5.506v1.75c0 .967.784 1.75 1.75 1.75h8.5c.966 0 1.75-.783 1.75-1.75v-1.75h-12Z"/></svg>