<svg xmlns="http://www.w3.org/2000/svg" viewBox="0 0 20 20"><path d="M9 5c.414 0 .75.336.75.75v2.786l1.585.793c.37.185.521.636.336 1.006s-.636.521-1.006.336l-2-1c-.254-.127-.415-.387-.415-.671v-3.25c0-.414.336-.75.75-.75Z"/><path fill-rule="evenodd" d="M14.096 13.035c.879-1.108 1.404-2.51 1.404-4.035 0-3.59-2.91-6.5-6.5-6.5s-6.5 2.91-6.5 6.5 2.91 6.5 6.5 6.5c1.525 0 2.927-.525 4.035-1.404l3.685 3.684c.293.293.767.293 1.06 0 .293-.293.293-.767 0-1.06l-3.684-3.685Zm-5.096.965c2.761 0 5-2.239 5-5s-2.239-5-5-5-5 2.239-5 5 2.239 5 5 5Z"/></svg>