<svg xmlns="http://www.w3.org/2000/svg" viewBox="0 0 20 20"><path d="M8.018 2.5h3.964c.813 0 1.469 0 2 .043.546.045 1.026.14 1.47.366.706.36 1.28.933 1.64 1.639.226.444.32.924.365 1.47.043.531.043 1.187.043 2v.232c0 .414-.336.75-.75.75s-.75-.336-.75-.75v-.2c0-.852 0-1.447-.038-1.91-.037-.453-.107-.714-.207-.911-.216-.424-.56-.768-.984-.984-.197-.1-.458-.17-.912-.207-.462-.037-1.056-.038-1.909-.038h-3.9c-.852 0-1.447 0-1.91.038-.453.037-.714.107-.911.207-.424.216-.768.56-.984.984-.1.197-.17.458-.207.912-.037.462-.038 1.057-.038 1.909v3.9c0 .853 0 1.447.038 1.91.037.453.107.714.207.912.216.423.56.767.984.983.197.1.458.17.912.207.462.037 1.057.038 1.909.038h.2c.414 0 .75.336.75.75s-.336.75-.75.75h-.232c-.813 0-1.469 0-2-.043-.546-.045-1.026-.14-1.47-.366-.706-.36-1.28-.933-1.64-1.639-.226-.444-.32-.924-.365-1.47-.043-.531-.043-1.187-.043-2v-3.964c0-.813 0-1.469.043-2 .045-.546.14-1.026.366-1.47.36-.706.933-1.28 1.639-1.64.444-.226.924-.32 1.47-.365.531-.043 1.187-.043 2-.043Z"/><path fill-rule="evenodd" d="M16.407 15.347c.376-.61.593-1.328.593-2.097 0-2.21-1.79-4-4-4s-4 1.79-4 4 1.79 4 4 4c.898 0 1.727-.296 2.394-.795l1.326 1.325c.293.293.767.293 1.06 0 .293-.293.293-.767 0-1.06l-1.373-1.373Zm-3.407.403c1.38 0 2.5-1.12 2.5-2.5s-1.12-2.5-2.5-2.5-2.5 1.12-2.5 2.5 1.12 2.5 2.5 2.5Z"/><path d="M6 6.75c0-.414.336-.75.75-.75h4.5c.414 0 .75.336.75.75s-.336.75-.75.75h-4.5c-.414 0-.75-.336-.75-.75Z"/><path d="M6.75 9c-.414 0-.75.336-.75.75s.336.75.75.75h1.5c.414 0 .75-.336.75-.75s-.336-.75-.75-.75h-1.5Z"/></svg>