<svg xmlns="http://www.w3.org/2000/svg" viewBox="0 0 16 16"><path d="M3.5 2.5c0 .552-.448 1-1 1s-1-.448-1-1 .448-1 1-1 1 .448 1 1Z"/><path fill-rule="evenodd" d="M11.189 12.25c-.575.318-1.236.5-1.939.5-1.679 0-3.116-1.034-3.71-2.5h-.79c-.414 0-.75-.336-.75-.75s.336-.75.75-.75h.5c0-.729.195-1.412.535-2h-1.035c-.414 0-.75-.336-.75-.75s.336-.75.75-.75h2.562c.574-.319 1.235-.5 1.938-.5 2.21 0 4 1.79 4 4 0 .962-.34 1.844-.905 2.534l1.935 1.936c.293.293.293.767 0 1.06-.293.293-.767.293-1.06 0l-2.031-2.03Zm.561-3.5c0 1.38-1.12 2.5-2.5 2.5s-2.5-1.12-2.5-2.5 1.12-2.5 2.5-2.5 2.5 1.12 2.5 2.5Z"/><path d="M2.5 7c.552 0 1-.448 1-1s-.448-1-1-1-1 .448-1 1 .448 1 1 1Z"/><path d="M3.5 9.5c0 .552-.448 1-1 1s-1-.448-1-1 .448-1 1-1 1 .448 1 1Z"/><path d="M4.75 1.75c-.414 0-.75.336-.75.75s.336.75.75.75h6.5c.414 0 .75-.336.75-.75s-.336-.75-.75-.75h-6.5Z"/></svg>