<svg xmlns="http://www.w3.org/2000/svg" viewBox="0 0 16 16"><path d="M7.75 4.5c0-.414-.336-.75-.75-.75s-.75.336-.75.75v2.5c0 .284.16.544.415.67l1.5.75c.37.186.82.036 1.006-.335.185-.37.035-.82-.336-1.006l-1.085-.543v-2.036Z"/><path fill-rule="evenodd" d="M7 12.5c1.248 0 2.4-.416 3.323-1.117l2.897 2.897c.293.293.767.293 1.06 0 .293-.293.293-.767 0-1.06l-2.897-2.897c.701-.923 1.117-2.075 1.117-3.323 0-3.038-2.462-5.5-5.5-5.5s-5.5 2.462-5.5 5.5 2.462 5.5 5.5 5.5Zm0-1.5c2.21 0 4-1.79 4-4s-1.79-4-4-4-4 1.79-4 4 1.79 4 4 4Z"/></svg>