<svg xmlns="http://www.w3.org/2000/svg" viewBox="0 0 20 20"><path d="M4 2.75c0 .552-.448 1-1 1s-1-.448-1-1 .448-1 1-1 1 .448 1 1Z"/><path fill-rule="evenodd" d="M6.375 9c.299-.765.763-1.446 1.35-2h-2.475c-.414 0-.75-.336-.75-.75s.336-.75.75-.75h6.25c3.038 0 5.5 2.462 5.5 5.5 0 1.376-.505 2.634-1.34 3.599l2.12 2.12c.293.294.293.768 0 1.061-.293.293-.767.293-1.06 0l-2.19-2.19c-.869.575-1.91.91-3.03.91-3.038 0-5.5-2.462-5.5-5.5 0-.168.008-.335.022-.5h-.772c-.414 0-.75-.336-.75-.75s.336-.75.75-.75h1.125Zm9.125 2c0 2.21-1.79 4-4 4s-4-1.79-4-4 1.79-4 4-4 4 1.79 4 4Z"/><path d="M3 7.25c.552 0 1-.448 1-1s-.448-1-1-1-1 .448-1 1 .448 1 1 1Z"/><path d="M4 9.75c0 .552-.448 1-1 1s-1-.448-1-1 .448-1 1-1 1 .448 1 1Z"/><path d="M5.25 2c-.414 0-.75.336-.75.75s.336.75.75.75h6.5c.414 0 .75-.336.75-.75s-.336-.75-.75-.75h-6.5Z"/></svg>