<svg viewBox="0 0 20 20" xmlns="http://www.w3.org/2000/svg"><path d="M3 4.75c0-.966.784-1.75 1.75-1.75h1a.75.75 0 0 1 0 1.5h-1a.25.25 0 0 0-.25.25v1a.75.75 0 0 1-1.5 0v-1Z" fill="#5C5F62"/><path fill-rule="evenodd" d="M4.5 7.5a1.5 1.5 0 0 0-1.5 1.5v2a1.5 1.5 0 0 0 1.5 1.5h11a1.5 1.5 0 0 0 1.5-1.5v-2a1.5 1.5 0 0 0-1.5-1.5h-11Zm11 1.5h-11v2h11v-2Z" fill="#5C5F62"/><path d="M3 15.25c0 .966.784 1.75 1.75 1.75h1a.75.75 0 0 0 0-1.5h-1a.25.25 0 0 1-.25-.25v-1a.75.75 0 0 0-1.5 0v1Z" fill="#5C5F62"/><path d="M15.25 3c.966 0 1.75.784 1.75 1.75v1a.75.75 0 0 1-1.5 0v-1a.25.25 0 0 0-.25-.25h-1a.75.75 0 0 1 0-1.5h1Z" fill="#5C5F62"/><path d="M15.25 17a1.75 1.75 0 0 0 1.75-1.75v-1a.75.75 0 0 0-1.5 0v1a.25.25 0 0 1-.25.25h-1a.75.75 0 0 0 0 1.5h1Z" fill="#5C5F62"/><path d="M11.75 3.75a.75.75 0 0 1-.75.75h-2a.75.75 0 0 1 0-1.5h2a.75.75 0 0 1 .75.75Z" fill="#5C5F62"/><path d="M11 17a.75.75 0 0 0 0-1.5h-2a.75.75 0 0 0 0 1.5h2Z" fill="#5C5F62"/></svg>