<svg viewBox="0 0 20 20" xmlns="http://www.w3.org/2000/svg"><path d="M8.28 9.432a.75.75 0 0 0-1.06 1.06l1.548 1.549a.75.75 0 0 0 1.06 0l2.963-2.962a.75.75 0 0 0-1.06-1.061l-2.433 2.432-1.018-1.018Z" fill="#5C5F62"/><path fill-rule="evenodd" d="M11.133 2.993a1.725 1.725 0 0 0-2.266 0 14.854 14.854 0 0 1-4.336 2.629l-.42.164a1.704 1.704 0 0 0-1.092 1.669c.327 6.243 4.816 9.215 6.22 9.996a1.56 1.56 0 0 0 1.523 0c1.403-.781 5.892-3.753 6.22-9.996a1.704 1.704 0 0 0-1.093-1.669l-.42-.164a14.853 14.853 0 0 1-4.336-2.63Zm-6.054 4.025a16.354 16.354 0 0 0 4.773-2.894.225.225 0 0 1 .296 0 16.355 16.355 0 0 0 4.773 2.894l.42.165c.104.04.146.128.142.193-.286 5.463-4.204 8.07-5.45 8.764a.066.066 0 0 1-.033.01.066.066 0 0 1-.032-.01c-1.247-.694-5.165-3.3-5.451-8.764-.004-.065.038-.152.142-.193l.42-.165Z" fill="#5C5F62"/></svg>