<svg viewBox="0 0 20 20" xmlns="http://www.w3.org/2000/svg"><path fill-rule="evenodd" d="M9.128.233c-2.37 1.383-5.37 2.33-7.635 2.646-.821.115-1.495.79-1.493 1.62l.001.497c-.03 6.043.477 11.332 9.462 14.903a1.45 1.45 0 001.062 0c8.993-3.571 9.503-8.86 9.473-14.903v-.501c-.001-.828-.674-1.51-1.492-1.638-2.148-.337-5.281-1.274-7.65-2.628a1.733 1.733 0 00-1.728.004zm4.577 8.478a1 1 0 00-1.414-1.415L8.998 10.59 7.705 9.297A1 1 0 106.29 10.71l2 2.001a1 1 0 001.414 0l4-4.001z" fill="currentColor"/></svg>
