<svg xmlns="http://www.w3.org/2000/svg" viewBox="0 0 16 16"><path fill-rule="evenodd" d="M6 2.176c0-.76.617-1.376 1.377-1.376h1.246c.76 0 1.376.616 1.376 1.376v.688c0 .19.126.396.358.517.146.076.287.159.424.248.221.144.465.152.632.056l.6-.347c.658-.38 1.5-.154 1.88.504l.622 1.08c.38.658.155 1.5-.503 1.88l-.648.373c-.163.094-.277.303-.269.56.002.056.003.111.003.167 0 .091-.003.182-.007.272-.014.264.1.478.268.575l.653.377c.658.38.883 1.222.503 1.88l-.623 1.08c-.38.657-1.221.883-1.88.503l-.7-.405c-.164-.094-.401-.088-.62.048-.11.068-.22.132-.335.191-.232.121-.358.326-.358.517v.811c0 .76-.616 1.376-1.376 1.376h-1.246c-.76 0-1.376-.616-1.376-1.376v-.81c0-.192-.127-.397-.359-.518-.114-.06-.225-.123-.333-.19-.22-.138-.458-.143-.621-.049l-.7.405c-.659.38-1.5.154-1.88-.504l-.624-1.08c-.38-.658-.154-1.499.504-1.879l.653-.377c.167-.097.282-.311.268-.575-.005-.09-.007-.18-.007-.272 0-.056.001-.111.003-.167.008-.257-.106-.465-.27-.56l-.647-.374c-.658-.38-.884-1.221-.504-1.88l.624-1.079c.38-.658 1.221-.884 1.88-.504l.6.347c.166.096.41.088.631-.056.137-.09.278-.172.423-.248.232-.121.359-.326.359-.517v-.688Zm2 7.324c.828 0 1.5-.672 1.5-1.5s-.672-1.5-1.5-1.5-1.5.672-1.5 1.5.672 1.5 1.5 1.5Z"/></svg>