<svg xmlns="http://www.w3.org/2000/svg" viewBox="0 0 20 20"><path fill-rule="evenodd" d="M12.75 10c0 1.519-1.231 2.75-2.75 2.75s-2.75-1.231-2.75-2.75 1.231-2.75 2.75-2.75 2.75 1.231 2.75 2.75Zm-1.5 0c0 .69-.56 1.25-1.25 1.25s-1.25-.56-1.25-1.25.56-1.25 1.25-1.25 1.25.56 1.25 1.25Z"/><path fill-rule="evenodd" d="M9.326 2c-.966 0-1.75.784-1.75 1.75v.743c0 .087-.062.229-.245.324-.164.086-.324.18-.479.28-.174.114-.33.098-.406.054l-.648-.374c-.837-.484-1.907-.197-2.39.64l-.673 1.166c-.484.837-.197 1.907.64 2.39l.7.404c.075.044.165.166.158.368-.002.063-.003.125-.003.188 0 .104.003.206.008.308.011.207-.08.334-.157.378l-.706.408c-.837.483-1.124 1.553-.64 2.39l.673 1.166c.483.837 1.553 1.124 2.39.64l.757-.436c.075-.044.226-.06.398.047.123.076.25.148.378.216.183.095.245.236.245.324v.876c0 .966.784 1.75 1.75 1.75h1.346c.967 0 1.75-.784 1.75-1.75v-.876c0-.088.063-.229.245-.324.13-.068.255-.14.378-.216.173-.107.324-.09.399-.047l.756.436c.837.484 1.908.197 2.39-.64l.674-1.166c.483-.837.197-1.907-.64-2.39l-.706-.408c-.077-.044-.168-.17-.157-.378.005-.102.008-.204.008-.308 0-.063-.002-.125-.004-.188-.006-.202.084-.324.16-.368l.698-.404c.837-.483 1.124-1.553.641-2.39l-.673-1.166c-.483-.837-1.554-1.124-2.39-.64l-.648.373c-.077.045-.233.06-.407-.053-.154-.1-.314-.194-.479-.28-.182-.095-.245-.237-.245-.324v-.743c0-.966-.783-1.75-1.75-1.75h-1.346Zm-.25 1.75c0-.138.112-.25.25-.25h1.346c.138 0 .25.112.25.25v.743c0 .76.482 1.357 1.05 1.654.123.063.24.132.355.207.544.354 1.31.48 1.976.096l.647-.374c.12-.07.273-.028.342.091l.673 1.166c.069.12.028.272-.091.341l-.7.404c-.65.375-.928 1.08-.908 1.715.002.047.003.093.003.14 0 .077-.002.153-.006.23-.034.646.24 1.372.905 1.755l.705.408c.12.069.161.221.092.341l-.673 1.166c-.07.12-.222.16-.342.091l-.756-.436c-.651-.376-1.402-.264-1.942.072-.09.057-.184.11-.28.16-.568.297-1.05.894-1.05 1.654v.876c0 .138-.112.25-.25.25h-1.346c-.138 0-.25-.112-.25-.25v-.876c0-.76-.482-1.357-1.05-1.654-.096-.05-.189-.103-.28-.16-.54-.336-1.29-.448-1.941-.072l-.757.436c-.12.07-.272.029-.341-.091l-.673-1.166c-.07-.12-.029-.272.091-.341l.706-.408c.664-.383.94-1.109.905-1.756-.004-.076-.006-.152-.006-.229 0-.046 0-.093.002-.14.02-.635-.258-1.34-.908-1.715l-.699-.404c-.12-.069-.16-.222-.091-.341l.673-1.166c.069-.12.222-.16.341-.091l.648.374c.665.384 1.432.258 1.975-.096.115-.075.233-.144.355-.207.568-.297 1.05-.895 1.05-1.654v-.743Z"/></svg>