<svg viewBox="0 0 20 20" xmlns="http://www.w3.org/2000/svg"><path d="M10 13a3 3 0 110-6 3 3 0 010 6zm7.476-1.246c-1.394-.754-1.394-2.754 0-3.508a1 1 0 00.376-1.404l-1.067-1.733a1 1 0 00-1.327-.355l-.447.243c-1.329.719-2.945-.244-2.945-1.755V3a1 1 0 00-1-1H8.934a1 1 0 00-1 1v.242c0 1.511-1.616 2.474-2.945 1.755l-.447-.243a1 1 0 00-1.327.355L2.148 6.842a1 1 0 00.376 1.404c1.394.754 1.394 2.754 0 3.508a1 1 0 00-.376 1.404l1.067 1.733a1 1 0 001.327.355l.447-.243c1.329-.719 2.945.244 2.945 1.755V17a1 1 0 001 1h2.132a1 1 0 001-1v-.242c0-1.511 1.616-2.474 2.945-1.755l.447.243a1 1 0 001.327-.355l1.067-1.733a1 1 0 00-.376-1.404z" fill="#5C5F62"/></svg>