<svg xmlns="http://www.w3.org/2000/svg" viewBox="0 0 20 20"><path d="M10 4h2.9c1.436 0 2.6 1.164 2.6 2.6v6.8c0 1.436-1.164 2.6-2.6 2.6h-2.9v-12Z" style="fill:color(display-p3 .2902 .2902 .2902);fill-opacity:1"/><path fill-rule="evenodd" d="M7.42 3.5h5.16c.535 0 .98 0 1.345.03.38.03.736.098 1.073.27.518.263.939.684 1.202 1.202.172.337.24.693.27 1.073.03.365.03.81.03 1.345v5.16c0 .535 0 .98-.03 1.345-.03.38-.098.736-.27 1.073-.263.518-.684.939-1.201 1.202-.338.172-.694.24-1.074.27-.365.03-.81.03-1.345.03h-5.16c-.535 0-.98 0-1.345-.03-.38-.03-.736-.098-1.073-.27-.518-.263-.939-.684-1.202-1.201-.172-.338-.24-.694-.27-1.074-.03-.365-.03-.81-.03-1.345v-5.16c0-.535 0-.98.03-1.345.03-.38.098-.736.27-1.073.263-.518.684-.939 1.202-1.202.337-.172.693-.24 1.073-.27.365-.03.81-.03 1.345-.03Zm-1.223 1.525c-.287.023-.424.065-.514.111-.236.12-.427.311-.547.547-.046.09-.088.227-.111.514-.024.296-.025.68-.025 1.253v5.1c0 .572 0 .957.025 1.252.023.288.065.425.111.516.12.235.311.426.547.546.09.046.227.088.514.111.296.024.68.025 1.253.025h5.1c.572 0 .957 0 1.252-.025.288-.023.425-.065.516-.111.235-.12.426-.311.546-.546.046-.091.088-.228.111-.515.024-.296.025-.68.025-1.253v-5.1c0-.572 0-.957-.025-1.253-.023-.287-.065-.424-.111-.514-.12-.236-.311-.427-.546-.547-.091-.046-.228-.088-.515-.111-.296-.024-.68-.025-1.253-.025h-5.1c-.572 0-.957 0-1.253.025Z" clip-rule="evenodd" style="fill:color(display-p3 .2902 .2902 .2902);fill-opacity:1"/><path fill-rule="evenodd" d="M12.9 5.5h-1.4v9h1.4c.607 0 1.1-.492 1.1-1.1v-6.8c0-.608-.492-1.1-1.1-1.1Zm-2.9-1.5v12h2.9c1.436 0 2.6-1.164 2.6-2.6v-6.8c0-1.436-1.164-2.6-2.6-2.6h-2.9Z" clip-rule="evenodd" style="fill:color(display-p3 .2902 .2902 .2902);fill-opacity:1"/><path fill-rule="evenodd" d="M13.143 10.114c.213.355.098.816-.257 1.03l-7.5 4.5c-.355.212-.816.097-1.03-.258-.212-.355-.097-.816.258-1.03l7.5-4.5c.355-.212.816-.097 1.03.258Z" clip-rule="evenodd" style="fill:color(display-p3 .2902 .2902 .2902);fill-opacity:1"/><path fill-rule="evenodd" d="M13.136 6.603c.22.35.113.813-.238 1.033l-8 5c-.352.22-.814.113-1.034-.238-.22-.352-.113-.814.239-1.034l8-5c.35-.22.813-.113 1.033.239Z" clip-rule="evenodd" style="fill:color(display-p3 .2902 .2902 .2902);fill-opacity:1"/><path fill-rule="evenodd" d="M11.268 4.24c.213.354.098.815-.257 1.028l-1.864 1.119-4.24 2.743c-.347.225-.812.125-1.037-.223-.225-.347-.125-.812.223-1.037l4.26-2.757 1.886-1.131c.355-.213.816-.098 1.03.257Z" clip-rule="evenodd" style="fill:color(display-p3 .2902 .2902 .2902);fill-opacity:1"/></svg>