<svg xmlns="http://www.w3.org/2000/svg" viewBox="0 0 20 20"><path fill-rule="evenodd" d="M15.25 8.5c1.519 0 2.75 1.231 2.75 2.75v4c0 1.519-1.231 2.75-2.75 2.75h-10.5c-1.519 0-2.75-1.231-2.75-2.75v-4c0-1.519 1.231-2.75 2.75-2.75h.57c.414 0 .75.336.75.75s-.336.75-.75.75h-.57c-.69 0-1.25.56-1.25 1.25v4c0 .69.56 1.25 1.25 1.25h10.5c.69 0 1.25-.56 1.25-1.25v-4c0-.69-.56-1.25-1.25-1.25h-.577c-.414 0-.75-.336-.75-.75s.336-.75.75-.75h.577Z"/><path fill-rule="evenodd" d="M10 14c.414 0 .75-.336.75-.75v-8.69l2.22 2.22c.293.293.767.293 1.06 0 .293-.293.293-.767 0-1.06l-3.5-3.5c-.14-.141-.331-.22-.53-.22s-.39.079-.53.22l-3.5 3.5c-.293.293-.293.767 0 1.06.293.293.767.293 1.06 0l2.22-2.22v8.69c0 .414.336.75.75.75Z"/></svg>