<svg viewBox="0 0 20 20" xmlns="http://www.w3.org/2000/svg"><path d="M10.75 12.75a.75.75 0 0 1-1.5 0v-7.787l-1.991 1.838a.75.75 0 1 1-1.018-1.102l3.25-3a.75.75 0 0 1 1.018 0l3.25 3a.75.75 0 1 1-1.018 1.102l-1.991-1.838v7.787Z" fill="#5C5F62"/><path d="M17 11.5a3 3 0 0 0-3-3 .75.75 0 0 0 0 1.5 1.5 1.5 0 0 1 1.5 1.5v1.75a2.25 2.25 0 0 1-2.25 2.25h-6.5a2.25 2.25 0 0 1-2.25-2.25v-1.75a1.5 1.5 0 0 1 1.5-1.5.75.75 0 0 0 0-1.5 3 3 0 0 0-3 3v1.75a3.75 3.75 0 0 0 3.75 3.75h6.5a3.75 3.75 0 0 0 3.75-3.75v-1.75Z" fill="#5C5F62"/></svg>