<svg viewBox="0 0 20 20" xmlns="http://www.w3.org/2000/svg"><path d="M6.293 6.703a.997.997 0 001.414 0L9 5.409v6.589a1 1 0 102 0V5.409l1.293 1.294a1 1 0 101.414-1.415l-3-3.001a.994.994 0 00-.298-.198c-.027-.013-.055-.021-.082-.03l-.012-.003a.944.944 0 00-.257-.05l-.027-.002a.937.937 0 00-.385.06c-.004 0-.008 0-.012.002-.005 0-.009.001-.013.003h-.004a1.002 1.002 0 00-.294.197c-.004.004-.01.007-.015.01l-.015.01-3 3.002a1 1 0 000 1.415zM3.5 9A1.5 1.5 0 002 10.5v6A1.5 1.5 0 003.5 18h13a1.5 1.5 0 001.5-1.5v-6A1.5 1.5 0 0016.5 9H13v2h3v5H4v-5h3V9H3.5z" fill="currentColor"/></svg>