<svg xmlns="http://www.w3.org/2000/svg" viewBox="0 0 20 20"><path d="M11.09 1.908c-.639-.507-1.542-.507-2.18 0l-.675.537c-1.036.823-2.174 1.508-3.386 2.038l-1.3.568c-.633.277-1.064.915-1.036 1.635.171 4.344 1.948 7.284 3.695 9.133.87.921 1.73 1.57 2.376 1.99.324.21.595.363.788.466.097.051.175.09.23.117l.066.03.02.01.006.003h.002v.001c.001 0 .002 0 .302-.682l-.301.682c.379.167.822-.005.99-.384.166-.378-.005-.82-.384-.988l-.303.686.303-.686-.008-.003-.041-.02c-.039-.019-.1-.049-.179-.091-.158-.084-.39-.215-.673-.4-.567-.367-1.33-.942-2.103-1.76-1.54-1.63-3.132-4.237-3.287-8.163-.003-.073.043-.16.138-.202l1.3-.567c1.331-.582 2.581-1.334 3.718-2.239l.676-.537c.091-.073.22-.073.312 0l.676.537c1.137.905 2.387 1.657 3.718 2.239l1.3.567c.097.043.14.128.138.2-.032.798-.123 1.54-.26 2.228-.081.407.183.802.589.883.406.08.8-.183.882-.59.153-.767.253-1.587.288-2.462.028-.723-.405-1.357-1.036-1.633l-1.3-.568c-1.212-.53-2.35-1.215-3.386-2.038l-.676-.537Z"/><path d="M15.5 12.25c0 .829-.672 1.5-1.5 1.5s-1.5-.671-1.5-1.5c0-.828.672-1.5 1.5-1.5s1.5.672 1.5 1.5Z"/><path d="M13.982 14.75c-1.03 0-1.977.573-2.454 1.488-.24.46.094 1.012.614 1.012h3.716c.52 0 .854-.551.614-1.012-.477-.915-1.423-1.488-2.455-1.488h-.034Z"/></svg>