<svg xmlns="http://www.w3.org/2000/svg" viewBox="0 0 20 20"><path d="M14.75 13.25c0-.414-.336-.75-.75-.75s-.75.336-.75.75v1.646c0 .266.105.52.293.708l.677.676c.293.293.767.293 1.06 0 .293-.293.293-.767 0-1.06l-.53-.53v-1.44Z"/><path fill-rule="evenodd" d="M11.09 1.908c-.639-.507-1.542-.507-2.18 0l-.675.537c-1.036.823-2.174 1.508-3.386 2.038l-1.3.568c-.633.277-1.064.915-1.036 1.635.292 7.409 5.234 10.694 6.734 11.521.33.183.704.237 1.06.164.915 1.001 2.23 1.63 3.693 1.63 2.761 0 5-2.24 5-5 0-1.743-.891-3.277-2.242-4.172.399-1.21.667-2.585.729-4.143.028-.72-.403-1.359-1.036-1.635l-1.3-.568c-1.212-.53-2.35-1.215-3.386-2.038l-.676-.537Zm-2.09 13.092c0 .493.071.97.204 1.42-1.753-1.195-4.97-4.141-5.192-9.793-.003-.073.043-.16.138-.202l1.3-.567c1.331-.582 2.581-1.334 3.718-2.239l.676-.537c.091-.073.22-.073.312 0l.676.537c1.137.905 2.387 1.657 3.718 2.239l1.3.567c.095.042.14.129.138.202-.053 1.336-.274 2.52-.604 3.567-.44-.126-.904-.194-1.384-.194-2.761 0-5 2.239-5 5Zm5 3.5c1.933 0 3.5-1.567 3.5-3.5s-1.567-3.5-3.5-3.5-3.5 1.567-3.5 3.5 1.567 3.5 3.5 3.5Z"/></svg>