<svg xmlns="http://www.w3.org/2000/svg" viewBox="0 0 16 16"><path d="M6.907.914c.639-.511 1.547-.511 2.186 0l.354.283c.963.77 2.016 1.422 3.136 1.939l.9.415c.613.283 1.034.909 1.002 1.622-.031.697-.11 1.353-.23 1.969-.078.407-.47.673-.878.595-.406-.079-.673-.472-.594-.879.105-.544.176-1.127.204-1.752.002-.066-.037-.149-.132-.193l-.9-.415c-1.23-.568-2.387-1.283-3.445-2.13l-.354-.282c-.091-.073-.22-.073-.312 0l-.317.253c-1.084.867-2.27 1.596-3.534 2.17l-.846.385c-.096.043-.136.127-.133.194.148 3.303 1.49 5.482 2.78 6.84.649.682 1.288 1.16 1.76 1.464.237.152.43.26.561.33.066.034.115.058.147.073l.033.016.005.002c.38.165.553.606.388.986-.165.38-.607.554-.987.389l.299-.688-.299.688h-.002l-.002-.002-.006-.002-.017-.008-.058-.027c-.048-.023-.115-.056-.198-.1-.167-.087-.4-.218-.676-.396-.553-.357-1.29-.908-2.035-1.692-1.499-1.577-3.025-4.087-3.192-7.805-.032-.717.392-1.347 1.011-1.628l.847-.385c1.15-.523 2.23-1.186 3.217-1.975l.317-.254Z"/><path d="M12.018 12.75h-.036c-1.03 0-1.977.573-2.454 1.488-.24.46.094 1.012.614 1.012h3.716c.52 0 .854-.551.614-1.012-.477-.915-1.423-1.488-2.454-1.488Z"/><path d="M12 11.75c.828 0 1.5-.672 1.5-1.5s-.672-1.5-1.5-1.5-1.5.672-1.5 1.5.672 1.5 1.5 1.5Z"/></svg>