<svg xmlns="http://www.w3.org/2000/svg" viewBox="0 0 20 20"><path d="M13.78 8.53c.293-.292.293-.767 0-1.06-.293-.293-.767-.293-1.06 0l-3.47 3.47-1.47-1.47c-.293-.293-.767-.293-1.06 0-.293.293-.293.768 0 1.06l2 2c.293.293.767.293 1.06 0l4-4Z"/><path fill-rule="evenodd" d="M11.09 1.908c-.639-.507-1.542-.507-2.18 0l-.675.537c-1.036.823-2.174 1.508-3.386 2.038l-1.3.568c-.633.277-1.064.915-1.036 1.635.292 7.409 5.234 10.694 6.734 11.521.473.261 1.035.26 1.507-.002 1.497-.831 6.44-4.13 6.732-11.519.029-.72-.402-1.359-1.035-1.635l-1.3-.568c-1.212-.53-2.35-1.215-3.386-2.038l-.676-.537Zm-1.246 1.174c.091-.073.22-.073.312 0l.676.537c1.137.905 2.387 1.657 3.718 2.239l1.3.567c.095.042.14.129.138.202-.263 6.629-4.669 9.549-5.962 10.267-.014.008-.023.008-.027.008-.005 0-.013 0-.027-.008-1.293-.713-5.698-3.618-5.96-10.267-.003-.073.043-.16.138-.202l1.3-.567c1.331-.582 2.581-1.334 3.718-2.239l.676-.537Z"/></svg>