<svg xmlns="http://www.w3.org/2000/svg" viewBox="0 0 16 16"><path d="M12.25 9.75c0-.414-.336-.75-.75-.75s-.75.336-.75.75v1.646c0 .266.105.52.293.708l.677.676c.293.293.767.293 1.06 0 .293-.293.293-.767 0-1.06l-.53-.53v-1.44Z"/><path fill-rule="evenodd" d="M9.093.914c-.639-.511-1.547-.511-2.186 0l-.317.254c-.987.789-2.067 1.452-3.217 1.975l-.847.385c-.619.281-1.043.911-1.01 1.628.28 6.249 4.38 9.047 5.732 9.802.443.246.97.26 1.423.041.773.626 1.757 1.001 2.829 1.001 2.485 0 4.5-2.015 4.5-4.5 0-1.515-.749-2.855-1.896-3.67.202-.806.338-1.69.381-2.656.032-.712-.388-1.34-1.002-1.623l-.9-.415c-1.12-.517-2.173-1.168-3.136-1.939l-.354-.283Zm-2.093 10.586c0 .625.128 1.22.358 1.762-1.472-1.004-4.132-3.456-4.344-8.174-.003-.067.037-.151.133-.194l.846-.385c1.264-.574 2.45-1.303 3.534-2.17l.317-.253c.091-.073.22-.073.312 0l.354.283c1.058.846 2.215 1.56 3.445 2.129l.9.415c.094.044.134.127.131.194-.033.742-.127 1.427-.268 2.06-.387-.109-.796-.167-1.218-.167-2.485 0-4.5 2.015-4.5 4.5Zm4.5 3c1.657 0 3-1.343 3-3s-1.343-3-3-3-3 1.343-3 3 1.343 3 3 3Z"/></svg>