<svg xmlns="http://www.w3.org/2000/svg" viewBox="0 0 20 20"><path d="M8.91 1.908c.638-.507 1.541-.507 2.18 0l.675.537c.425.338.867.653 1.325.943l-1.085 1.084c-.403-.267-.794-.551-1.173-.853l-.676-.537c-.091-.073-.22-.073-.312 0l-.676.537c-1.137.905-2.387 1.657-3.718 2.239l-1.3.567c-.095.042-.14.129-.138.202.074 1.883.48 3.466 1.055 4.784l-1.132 1.132c-.77-1.573-1.33-3.508-1.422-5.857-.028-.72.403-1.358 1.036-1.635l1.3-.568c1.212-.53 2.35-1.215 3.386-2.038l.676-.537Z"/><path fill-rule="evenodd" d="m4.7 13.898-1.114 1.115c-.293.293-.293.768 0 1.06.293.293.768.293 1.06 0l.95-.949c1.413 1.72 2.93 2.685 3.651 3.083.473.261 1.035.26 1.507-.002 1.497-.831 6.44-4.13 6.732-11.519.029-.72-.402-1.359-1.035-1.635l-.544-.238.937-.937c.293-.292.293-.767 0-1.06-.293-.293-.768-.293-1.06 0l-1.338 1.337-1.113 1.113-7.543 7.543-1.09 1.09Zm5.272 2.996c-.637-.351-2.03-1.235-3.31-2.836l8.106-8.105 1.082.472c.095.042.14.129.138.202-.263 6.629-4.669 9.549-5.962 10.267-.014.008-.023.008-.027.008-.005 0-.013 0-.027-.008Z"/></svg>