<svg xmlns="http://www.w3.org/2000/svg" viewBox="0 0 16 16"><path d="M10.506 1.972c-.364-.243-.717-.501-1.059-.775l-.354-.283c-.639-.511-1.547-.511-2.186 0l-.317.254c-.987.789-2.067 1.452-3.217 1.975l-.847.385c-.619.281-1.043.911-1.01 1.628.083 1.864.507 3.422 1.096 4.71l1.146-1.146c-.401-1.024-.681-2.228-.744-3.632-.003-.067.037-.151.133-.194l.846-.385c1.264-.574 2.45-1.303 3.534-2.17l.317-.253c.091-.073.22-.073.312 0l.354.283c.298.238.603.466.916.683l1.08-1.08Z"/><path fill-rule="evenodd" d="M2.553 12.046c-.288.293-.286.764.005 1.055.293.293.768.293 1.061 0l.64-.64c1.151 1.362 2.364 2.148 2.99 2.496.469.262 1.033.262 1.502 0 1.352-.753 5.454-3.549 5.734-9.783.032-.712-.388-1.34-1.002-1.623l-.215-.1.604-.603c.293-.293.293-.767 0-1.06-.291-.292-.762-.293-1.056-.005l-.005.005-10.253 10.253-.005.005Zm5.426 1.601c-.54-.3-1.631-1.005-2.655-2.25l6.814-6.815.717.331c.094.044.134.127.131.194-.246 5.49-3.827 7.906-4.965 8.54-.01.006-.017.007-.02.007-.005 0-.012-.001-.022-.007Z"/></svg>