<svg xmlns="http://www.w3.org/2000/svg" viewBox="0 0 16 16"><path d="M6.28 6.683c-.293-.293-.767-.293-1.06 0-.293.292-.293.767 0 1.06l1.548 1.548c.293.293.768.293 1.06 0l2.963-2.962c.293-.293.293-.768 0-1.06-.293-.294-.768-.294-1.06 0l-2.433 2.431-1.018-1.017Z"/><path fill-rule="evenodd" d="M9.093.914c-.639-.512-1.547-.512-2.186 0l-.317.253c-.987.79-2.067 1.453-3.217 1.976l-.847.384c-.619.282-1.043.912-1.01 1.628.28 6.25 4.38 9.048 5.732 9.802.47.262 1.034.262 1.503 0 1.352-.753 5.454-3.55 5.734-9.783.032-.713-.388-1.34-1.002-1.623l-.9-.416c-1.12-.517-2.173-1.168-3.136-1.938l-.354-.283Zm-1.25 1.171c.092-.073.222-.073.313 0l.354.283c1.058.847 2.215 1.561 3.445 2.129l.9.415c.094.044.134.128.131.195-.246 5.489-3.827 7.906-4.965 8.54-.01.005-.017.006-.02.006-.005 0-.012 0-.022-.006-1.136-.634-4.718-3.053-4.965-8.56-.003-.066.037-.15.133-.194l.846-.385c1.264-.574 2.45-1.303 3.534-2.17l.317-.253Z"/></svg>