<svg viewBox="0 0 20 20" xmlns="http://www.w3.org/2000/svg"><path fill-rule="evenodd" d="M4.75 4a.75.75 0 0 0 0 1.5h7.33l1.781 2.893a.75.75 0 0 0 .383.312l2.256.82v2.975h-.208a2.5 2.5 0 0 0-4.584 0h-3.416a2.5 2.5 0 0 0-4.584 0h-.958a.75.75 0 0 0 0 1.5h.8a2.5 2.5 0 0 0 4.9 0h3.1a2.5 2.5 0 0 0 4.9 0h.8a.75.75 0 0 0 .75-.75v-4.25a.75.75 0 0 0-.494-.705l-2.504-.91-1.863-3.028a.75.75 0 0 0-.639-.357h-7.75Zm.25 9.5a1 1 0 1 0 2 0 1 1 0 0 0-2 0Zm8 0a1 1 0 1 0 2 0 1 1 0 0 0-2 0Z" fill="#5C5F62"/><path d="M3 9.75a.75.75 0 0 1 .75-.75h1.5a.75.75 0 0 1 0 1.5h-1.5a.75.75 0 0 1-.75-.75Z" fill="#5C5F62"/><path d="M2.75 6.5a.75.75 0 0 0 0 1.5h3.5a.75.75 0 0 0 0-1.5h-3.5Z" fill="#5C5F62"/></svg>