<svg width="20" height="20" viewBox="0 0 20 20" fill="none" xmlns="http://www.w3.org/2000/svg">
<path fill-rule="evenodd" clip-rule="evenodd" d="M5 3.25C4.44772 3.25 4 3.69772 4 4.25V16.25C4 16.8023 4.44772 17.25 5 17.25H15C15.5523 17.25 16 16.8023 16 16.25V4.25C16 3.69772 15.5523 3.25 15 3.25H5ZM7 5.25C6.72386 5.25 6.5 5.47386 6.5 5.75V7.75C6.5 8.02614 6.72386 8.25 7 8.25H9C9.27614 8.25 9.5 8.02614 9.5 7.75V5.75C9.5 5.47386 9.27614 5.25 9 5.25H7ZM7 9.75C6.58579 9.75 6.25 10.0858 6.25 10.5C6.25 10.9142 6.58579 11.25 7 11.25H13C13.4142 11.25 13.75 10.9142 13.75 10.5C13.75 10.0858 13.4142 9.75 13 9.75H7ZM8 13.5V14.5C8 14.9142 7.66421 15.25 7.25 15.25C6.83579 15.25 6.5 14.9142 6.5 14.5V13.5C6.5 13.0858 6.83579 12.75 7.25 12.75C7.66421 12.75 8 13.0858 8 13.5ZM10.75 14.5V13.5C10.75 13.0858 10.4142 12.75 10 12.75C9.58579 12.75 9.25 13.0858 9.25 13.5V14.5C9.25 14.9142 9.58579 15.25 10 15.25C10.4142 15.25 10.75 14.9142 10.75 14.5ZM13.5 13.5V14.5C13.5 14.9142 13.1642 15.25 12.75 15.25C12.3358 15.25 12 14.9142 12 14.5V13.5C12 13.0858 12.3358 12.75 12.75 12.75C13.1642 12.75 13.5 13.0858 13.5 13.5Z" fill="#4A4A4A"/>
</svg>
