<svg xmlns="http://www.w3.org/2000/svg" viewBox="0 0 20 20"><path d="M6.5 5c-.276 0-.5.224-.5.5v2c0 .276.224.5.5.5h2c.276 0 .5-.224.5-.5v-2c0-.276-.224-.5-.5-.5h-2Z"/><path d="M6 10.25c0-.414.336-.75.75-.75h5.5c.414 0 .75.336.75.75s-.336.75-.75.75h-5.5c-.414 0-.75-.336-.75-.75Z"/><path d="M7.5 14.25v-1c0-.414-.336-.75-.75-.75s-.75.336-.75.75v1c0 .414.336.75.75.75s.75-.336.75-.75Z"/><path d="M10.5 13.25v1c0 .414-.336.75-.75.75s-.75-.336-.75-.75v-1c0-.414.336-.75.75-.75s.75.336.75.75Z"/><path d="M13.5 14.25v-1c0-.414-.336-.75-.75-.75s-.75.336-.75.75v1c0 .414.336.75.75.75s.75-.336.75-.75Z"/><path fill-rule="evenodd" d="M3 3c0-.552.448-1 1-1h12c.552 0 1 .448 1 1v14c0 .552-.448 1-1 1h-12c-.552 0-1-.448-1-1v-14Zm1.5 13.5v-13h11v13h-11Z"/></svg>