<svg xmlns="http://www.w3.org/2000/svg" viewBox="0 0 16 16"><path d="M5.5 3.75c-.276 0-.5.224-.5.5v2c0 .276.224.5.5.5h2c.276 0 .5-.224.5-.5v-2c0-.276-.224-.5-.5-.5h-2Z"/><path d="M4.5 8.5c0-.414.336-.75.75-.75h5.5c.414 0 .75.336.75.75s-.336.75-.75.75h-5.5c-.414 0-.75-.336-.75-.75Z"/><path d="M6.5 12v-1c0-.414-.336-.75-.75-.75s-.75.336-.75.75v1c0 .414.336.75.75.75s.75-.336.75-.75Z"/><path d="M8.75 11v1c0 .414-.336.75-.75.75s-.75-.336-.75-.75v-1c0-.414.336-.75.75-.75s.75.336.75.75Z"/><path d="M11 12v-1c0-.414-.336-.75-.75-.75s-.75.336-.75.75v1c0 .414.336.75.75.75s.75-.336.75-.75Z"/><path fill-rule="evenodd" d="M2 2.25c0-.552.448-1 1-1h10c.552 0 1 .448 1 1v12c0 .552-.448 1-1 1h-10c-.552 0-1-.448-1-1v-12Zm1.5 11.5v-11h9v11h-9Z"/></svg>