<svg xmlns="http://www.w3.org/2000/svg" viewBox="0 0 16 16"><path fill-rule="evenodd" d="M3 1.25c-.552 0-1 .448-1 1v12c0 .552.448 1 1 1h10c.552 0 1-.448 1-1v-12c0-.552-.448-1-1-1h-10Zm2 2c-.276 0-.5.224-.5.5v2c0 .276.224.5.5.5h2c.276 0 .5-.224.5-.5v-2c0-.276-.224-.5-.5-.5h-2Zm0 4.5c-.414 0-.75.336-.75.75s.336.75.75.75h6c.414 0 .75-.336.75-.75s-.336-.75-.75-.75h-6Zm1 3.75v1c0 .414-.336.75-.75.75s-.75-.336-.75-.75v-1c0-.414.336-.75.75-.75s.75.336.75.75Zm2.75 1v-1c0-.414-.336-.75-.75-.75s-.75.336-.75.75v1c0 .414.336.75.75.75s.75-.336.75-.75Zm2.75-1v1c0 .414-.336.75-.75.75s-.75-.336-.75-.75v-1c0-.414.336-.75.75-.75s.75.336.75.75Z"/></svg>