<svg width="20" height="20" viewBox="0 0 20 20" fill="none" xmlns="http://www.w3.org/2000/svg">
<path d="M7.5 5.75C7.22386 5.75 7 5.97386 7 6.25V8.25C7 8.52614 7.22386 8.75 7.5 8.75H9.5C9.77614 8.75 10 8.52614 10 8.25V6.25C10 5.97386 9.77614 5.75 9.5 5.75H7.5Z" fill="#4A4A4A"/>
<path d="M6.5 10.5C6.5 10.0858 6.83579 9.75 7.25 9.75H12.75C13.1642 9.75 13.5 10.0858 13.5 10.5C13.5 10.9142 13.1642 11.25 12.75 11.25H7.25C6.83579 11.25 6.5 10.9142 6.5 10.5Z" fill="#4A4A4A"/>
<path d="M8.5 14V13C8.5 12.5858 8.16421 12.25 7.75 12.25C7.33579 12.25 7 12.5858 7 13V14C7 14.4142 7.33579 14.75 7.75 14.75C8.16421 14.75 8.5 14.4142 8.5 14Z" fill="#4A4A4A"/>
<path d="M10.75 13V14C10.75 14.4142 10.4142 14.75 10 14.75C9.58579 14.75 9.25 14.4142 9.25 14V13C9.25 12.5858 9.58579 12.25 10 12.25C10.4142 12.25 10.75 12.5858 10.75 13Z" fill="#4A4A4A"/>
<path d="M13 14V13C13 12.5858 12.6642 12.25 12.25 12.25C11.8358 12.25 11.5 12.5858 11.5 13V14C11.5 14.4142 11.8358 14.75 12.25 14.75C12.6642 14.75 13 14.4142 13 14Z" fill="#4A4A4A"/>
<path fill-rule="evenodd" clip-rule="evenodd" d="M4 4.25C4 3.69772 4.44772 3.25 5 3.25H15C15.5523 3.25 16 3.69772 16 4.25V16.25C16 16.8023 15.5523 17.25 15 17.25H5C4.44772 17.25 4 16.8023 4 16.25V4.25ZM5.5 15.75V4.75H14.5V15.75H5.5Z" fill="#4A4A4A"/>
</svg>
