<svg xmlns="http://www.w3.org/2000/svg" viewBox="0 0 20 20"><path fill-rule="evenodd" d="M4 5.25a.75.75 0 0 1 .75-.75h6.991a2.75 2.75 0 0 1 2.645 1.995l.427 1.494a.25.25 0 0 0 .18.173l1.681.421a1.75 1.75 0 0 1 1.326 1.698v1.219a1.75 1.75 0 0 1-1.032 1.597 2.5 2.5 0 1 1-4.955.153h-3.025a2.5 2.5 0 1 1-4.78-.75h-.458a.75.75 0 0 1 0-1.5h2.5c.03 0 .06.002.088.005a2.493 2.493 0 0 1 1.947.745h4.43a2.493 2.493 0 0 1 1.785-.75c.698 0 1.33.286 1.783.748a.25.25 0 0 0 .217-.248v-1.22a.25.25 0 0 0-.19-.242l-1.682-.42a1.75 1.75 0 0 1-1.258-1.217l-.427-1.494a1.25 1.25 0 0 0-1.202-.907h-6.991a.75.75 0 0 1-.75-.75Zm2.5 9.25a1 1 0 1 0 0-2 1 1 0 0 0 0 2Zm8 0a1 1 0 1 0 0-2 1 1 0 0 0 0 2Z"/><path d="M3.25 8a.75.75 0 0 0 0 1.5h5a.75.75 0 0 0 0-1.5h-5Z"/></svg>