<svg xmlns="http://www.w3.org/2000/svg" viewBox="0 0 16 16"><path d="M3.75 4.25c0-.276.224-.5.5-.5h.5c.276 0 .5.224.5.5v.5c0 .276-.224.5-.5.5h-.5c-.276 0-.5-.224-.5-.5v-.5Z"/><path fill-rule="evenodd" d="M1.5 3.25c0-.966.784-1.75 1.75-1.75h2.5c.966 0 1.75.784 1.75 1.75v2.5c0 .966-.784 1.75-1.75 1.75h-2.5c-.966 0-1.75-.784-1.75-1.75v-2.5Zm1.75-.25c-.138 0-.25.112-.25.25v2.5c0 .138.112.25.25.25h2.5c.138 0 .25-.112.25-.25v-2.5c0-.138-.112-.25-.25-.25h-2.5Z"/><path d="M4.25 10.75c-.276 0-.5.224-.5.5v.5c0 .276.224.5.5.5h.5c.276 0 .5-.224.5-.5v-.5c0-.276-.224-.5-.5-.5h-.5Z"/><path fill-rule="evenodd" d="M1.5 10.25c0-.966.784-1.75 1.75-1.75h2.5c.966 0 1.75.784 1.75 1.75v2.5c0 .966-.784 1.75-1.75 1.75h-2.5c-.966 0-1.75-.784-1.75-1.75v-2.5Zm1.75-.25c-.138 0-.25.112-.25.25v2.5c0 .138.112.25.25.25h2.5c.138 0 .25-.112.25-.25v-2.5c0-.138-.112-.25-.25-.25h-2.5Z"/><path d="M10.75 4.25c0-.276.224-.5.5-.5h.5c.276 0 .5.224.5.5v.5c0 .276-.224.5-.5.5h-.5c-.276 0-.5-.224-.5-.5v-.5Z"/><path fill-rule="evenodd" d="M10.25 1.5c-.966 0-1.75.784-1.75 1.75v2.5c0 .966.784 1.75 1.75 1.75h2.5c.966 0 1.75-.784 1.75-1.75v-2.5c0-.966-.784-1.75-1.75-1.75h-2.5Zm-.25 1.75c0-.138.112-.25.25-.25h2.5c.138 0 .25.112.25.25v2.5c0 .138-.112.25-.25.25h-2.5c-.138 0-.25-.112-.25-.25v-2.5Z"/><path d="M9 8.5c-.276 0-.5.224-.5.5v1c0 .276.224.5.5.5h1c.276 0 .5-.224.5-.5v-1c0-.276-.224-.5-.5-.5h-1Z"/><path d="M8.5 13c0-.276.224-.5.5-.5h1c.276 0 .5.224.5.5v1c0 .276-.224.5-.5.5h-1c-.276 0-.5-.224-.5-.5v-1Z"/><path d="M13 8.5c-.276 0-.5.224-.5.5v1c0 .276.224.5.5.5h1c.276 0 .5-.224.5-.5v-1c0-.276-.224-.5-.5-.5h-1Z"/><path d="M12.5 13c0-.276.224-.5.5-.5h1c.276 0 .5.224.5.5v1c0 .276-.224.5-.5.5h-1c-.276 0-.5-.224-.5-.5v-1Z"/><path d="M11 10.5c-.276 0-.5.224-.5.5v1c0 .276.224.5.5.5h1c.276 0 .5-.224.5-.5v-1c0-.276-.224-.5-.5-.5h-1Z"/></svg>