<svg xmlns="http://www.w3.org/2000/svg" viewBox="0 0 20 20"><path d="M5.75 6.25a.5.5 0 0 1 .5-.5h.5a.5.5 0 0 1 .5.5v.5a.5.5 0 0 1-.5.5h-.5a.5.5 0 0 1-.5-.5v-.5Z"/><path fill-rule="evenodd" d="M3.5 5.25c0-.966.784-1.75 1.75-1.75h2.5c.966 0 1.75.784 1.75 1.75v2.5a1.75 1.75 0 0 1-1.75 1.75h-2.5a1.75 1.75 0 0 1-1.75-1.75v-2.5Zm1.75-.25a.25.25 0 0 0-.25.25v2.5c0 .138.112.25.25.25h2.5a.25.25 0 0 0 .25-.25v-2.5a.25.25 0 0 0-.25-.25h-2.5Z"/><path d="M6.25 12.75a.5.5 0 0 0-.5.5v.5a.5.5 0 0 0 .5.5h.5a.5.5 0 0 0 .5-.5v-.5a.5.5 0 0 0-.5-.5h-.5Z"/><path fill-rule="evenodd" d="M3.5 12.25c0-.966.784-1.75 1.75-1.75h2.5c.966 0 1.75.784 1.75 1.75v2.5a1.75 1.75 0 0 1-1.75 1.75h-2.5a1.75 1.75 0 0 1-1.75-1.75v-2.5Zm1.75-.25a.25.25 0 0 0-.25.25v2.5c0 .138.112.25.25.25h2.5a.25.25 0 0 0 .25-.25v-2.5a.25.25 0 0 0-.25-.25h-2.5Z"/><path d="M12.75 6.25a.5.5 0 0 1 .5-.5h.5a.5.5 0 0 1 .5.5v.5a.5.5 0 0 1-.5.5h-.5a.5.5 0 0 1-.5-.5v-.5Z"/><path fill-rule="evenodd" d="M12.25 3.5a1.75 1.75 0 0 0-1.75 1.75v2.5c0 .966.784 1.75 1.75 1.75h2.5a1.75 1.75 0 0 0 1.75-1.75v-2.5a1.75 1.75 0 0 0-1.75-1.75h-2.5Zm-.25 1.75a.25.25 0 0 1 .25-.25h2.5a.25.25 0 0 1 .25.25v2.5a.25.25 0 0 1-.25.25h-2.5a.25.25 0 0 1-.25-.25v-2.5Z"/><path d="M11 10.5a.5.5 0 0 0-.5.5v1a.5.5 0 0 0 .5.5h1a.5.5 0 0 0 .5-.5v-1a.5.5 0 0 0-.5-.5h-1Z"/><path d="M10.5 15a.5.5 0 0 1 .5-.5h1a.5.5 0 0 1 .5.5v1a.5.5 0 0 1-.5.5h-1a.5.5 0 0 1-.5-.5v-1Z"/><path d="M15 10.5a.5.5 0 0 0-.5.5v1a.5.5 0 0 0 .5.5h1a.5.5 0 0 0 .5-.5v-1a.5.5 0 0 0-.5-.5h-1Z"/><path d="M14.5 15a.5.5 0 0 1 .5-.5h1a.5.5 0 0 1 .5.5v1a.5.5 0 0 1-.5.5h-1a.5.5 0 0 1-.5-.5v-1Z"/><path d="M13 12.5a.5.5 0 0 0-.5.5v1a.5.5 0 0 0 .5.5h1a.5.5 0 0 0 .5-.5v-1a.5.5 0 0 0-.5-.5h-1Z"/></svg>