<svg xmlns="http://www.w3.org/2000/svg" viewBox="0 0 20 20"><path d="M4.75 5.25c0-.276.224-.5.5-.5h1c.276 0 .5.224.5.5v1c0 .276-.224.5-.5.5h-1c-.276 0-.5-.224-.5-.5v-1Z"/><path fill-rule="evenodd" d="M2.5 4.25c0-.966.784-1.75 1.75-1.75h3c.966 0 1.75.784 1.75 1.75v3c0 .966-.784 1.75-1.75 1.75h-3c-.966 0-1.75-.784-1.75-1.75v-3Zm1.75-.25c-.138 0-.25.112-.25.25v3c0 .138.112.25.25.25h3c.138 0 .25-.112.25-.25v-3c0-.138-.112-.25-.25-.25h-3Z"/><path d="M5.25 13.25c-.276 0-.5.224-.5.5v1c0 .276.224.5.5.5h1c.276 0 .5-.224.5-.5v-1c0-.276-.224-.5-.5-.5h-1Z"/><path fill-rule="evenodd" d="M2.5 12.75c0-.966.784-1.75 1.75-1.75h3c.966 0 1.75.784 1.75 1.75v3c0 .966-.784 1.75-1.75 1.75h-3c-.966 0-1.75-.784-1.75-1.75v-3Zm1.75-.25c-.138 0-.25.112-.25.25v3c0 .138.112.25.25.25h3c.138 0 .25-.112.25-.25v-3c0-.138-.112-.25-.25-.25h-3Z"/><path d="M13.25 5.25c0-.276.224-.5.5-.5h1c.276 0 .5.224.5.5v1c0 .276-.224.5-.5.5h-1c-.276 0-.5-.224-.5-.5v-1Z"/><path fill-rule="evenodd" d="M12.75 2.5c-.966 0-1.75.784-1.75 1.75v3c0 .966.784 1.75 1.75 1.75h3c.966 0 1.75-.784 1.75-1.75v-3c0-.966-.784-1.75-1.75-1.75h-3Zm-.25 1.75c0-.138.112-.25.25-.25h3c.138 0 .25.112.25.25v3c0 .138-.112.25-.25.25h-3c-.138 0-.25-.112-.25-.25v-3Z"/><path d="M11.75 11.25c-.276 0-.5.224-.5.5v1c0 .276.224.5.5.5h1c.276 0 .5-.224.5-.5v-1c0-.276-.224-.5-.5-.5h-1Z"/><path d="M11.25 15.75c0-.276.224-.5.5-.5h1c.276 0 .5.224.5.5v1c0 .276-.224.5-.5.5h-1c-.276 0-.5-.224-.5-.5v-1Z"/><path d="M15.75 11.25c-.276 0-.5.224-.5.5v1c0 .276.224.5.5.5h1c.276 0 .5-.224.5-.5v-1c0-.276-.224-.5-.5-.5h-1Z"/><path d="M15.25 15.75c0-.276.224-.5.5-.5h1c.276 0 .5.224.5.5v1c0 .276-.224.5-.5.5h-1c-.276 0-.5-.224-.5-.5v-1Z"/><path d="M13.75 13.25c-.276 0-.5.224-.5.5v1c0 .276.224.5.5.5h1c.276 0 .5-.224.5-.5v-1c0-.276-.224-.5-.5-.5h-1Z"/></svg>