<svg xmlns="http://www.w3.org/2000/svg" viewBox="0 0 20 20"><path d="m10.943 14.05-.002.002c-.73.351-1.465.231-2.204-.105-.252-.114-.532-.083-.713.077-.093.082-.158.2-.162.339-.005.138.052.268.146.377.479.552 1.198.91 1.954.923.827.035 1.596-.417 2.027-1.07.077-.116.117-.249.096-.383-.02-.136-.1-.243-.202-.31-.198-.13-.473-.117-.7.02-.08.05-.16.094-.24.13Z"/><path fill-rule="evenodd" d="M2.893 5.951c-.06.196-.204.817-.204 1.655-.126.729-.078 1.454-.126 2.712l-.06 1.56c-.096 2.547 1.752 5.313 4.276 5.663 1.938.269 3.904.278 5.844.028l.218-.028c.24-.03.383-.049.509-.072 2.335-.424 4.042-3.002 4.074-5.375.002-.127-.003-.271-.012-.513l-.05-1.288c-.027-.722-.048-1.283-.097-1.75l.006-.142c.03-.65.023-.743-.05-1.17-.097-.566-.317-1.16-.506-1.518-.274-.521-.719-1.054-1.407-1.054l-.187-.193c-1.495-1.55-2.192-1.895-5.407-2.209-1.825-.057-2.68.23-3.804.78-1.071.523-2.162 1.245-2.551 1.778-.277.378-.376.838-.466 1.136Zm9.726.323c.711.067 1.364.129 1.883.05 0 0 .283.783.976 1.479.08.08.154.152.224.22.153.15.285.277.392.407.017.123.031.258.044.412-.204-.098-.44-.168-.71-.201-1.064-.076-1.896.336-2.747.758-.818.405-1.654.82-2.73.82-1.075 0-1.911-.415-2.729-.82-.851-.422-1.683-.834-2.746-.758-.26.032-.488.098-.686.189.035-.411.083-.694.165-.943.226-.687.638-1.284 1.178-1.735.071-.03.146-.055.223-.079l.413.015c-.05 1.316.268 2.192.46 2.247.156.044.378-.256.672-.654.105-.142.22-.297.344-.453.147-.186.511-.456 1.002-.738.092.668.28 1.08.408 1.116.157.045.379-.256.672-.653.106-.143.22-.298.344-.454.097-.12.222-.233.379-.334h.089c.275 0 .577.003.893.005.54.004 1.078.055 1.587.104Zm-8.657 7.426c.514 1.351 1.617 2.514 2.975 2.702 1.837.255 3.7.264 5.54.027l.197-.026c.266-.034.47-.065.47-.065 1.27-.23 2.299-1.356 2.8-2.64-.213.124-.463.226-.755.3-.685.17-1.63-.077-2.678-.626-.364-.19-.643-.414-.904-.623-.475-.382-.89-.716-1.655-.716s-1.181.334-1.656.716c-.261.21-.54.433-.904.623-1.048.55-1.992.797-2.678.625-.29-.072-.54-.174-.752-.297Zm1.835-1.137c.687 0 1.244-.557 1.244-1.245 0-.687-.557-1.244-1.244-1.244-.688 0-1.245.557-1.245 1.244 0 .688.557 1.245 1.245 1.245Zm6.9-1.245c0 .688.558 1.245 1.245 1.245s1.244-.557 1.244-1.245c0-.687-.557-1.244-1.244-1.244-.688 0-1.245.557-1.245 1.244Z"/></svg>