<svg xmlns="http://www.w3.org/2000/svg" viewBox="0 0 20 20"><path d="m11.052 14.65-.003.002c-.783.377-1.57.248-2.363-.112-.27-.122-.57-.09-.764.083-.1.088-.17.213-.174.362-.005.149.056.288.157.405.513.592 1.284.975 2.095.99.887.037 1.71-.447 2.173-1.147.082-.125.126-.268.103-.412-.023-.145-.108-.26-.217-.331-.212-.14-.507-.126-.75.022-.087.053-.172.1-.257.139Z"/><path fill-rule="evenodd" d="M2.42 5.968c-.063.21-.218.875-.218 1.774-.135.781-.083 1.559-.135 2.907l-.063 1.673c-.104 2.73 1.878 5.695 4.583 6.07 2.078.289 4.185.3 6.266.031l.233-.03c.258-.033.41-.053.546-.077 2.503-.455 4.333-3.219 4.368-5.762.002-.137-.004-.292-.014-.55l-.053-1.382c-.03-.774-.052-1.375-.105-1.877l.007-.151c.032-.696.025-.796-.054-1.254-.104-.607-.34-1.243-.542-1.627-.294-.56-.77-1.13-1.509-1.13l-.2-.207c-1.603-1.661-2.35-2.032-5.797-2.368-1.955-.062-2.872.245-4.078.835-1.148.562-2.317 1.335-2.734 1.906-.297.407-.403.9-.5 1.22Zm10.428.345c.762.073 1.462.139 2.018.054 0 0 .304.84 1.047 1.586.085.085.165.163.24.236.165.16.305.297.42.437.018.13.034.276.047.44-.218-.104-.47-.179-.762-.215-1.139-.081-2.03.36-2.944.813-.876.434-1.772.878-2.926.878-1.153 0-2.049-.444-2.925-.878-.913-.452-1.805-.894-2.945-.813-.279.035-.523.105-.735.203.037-.441.088-.744.176-1.011.243-.736.685-1.377 1.263-1.86.077-.031.157-.06.24-.084l.442.015c-.054 1.412.288 2.35.493 2.41.168.047.406-.275.72-.701.114-.153.236-.32.37-.487.158-.199.548-.488 1.074-.79.099.716.3 1.157.438 1.196.167.048.405-.274.72-.7.113-.153.236-.32.37-.487.102-.13.237-.25.405-.358h.095c.295 0 .619.003.957.006.58.004 1.157.059 1.702.11Zm-9.28 7.962c.55 1.448 1.733 2.694 3.189 2.897 1.97.273 3.966.282 5.938.028l.213-.027c.284-.037.504-.07.504-.07 1.36-.247 2.463-1.454 3-2.83-.228.133-.495.242-.809.32-.735.184-1.747-.081-2.871-.67-.39-.204-.689-.443-.968-.668-.51-.409-.956-.767-1.776-.767-.82 0-1.265.358-1.775.767-.28.225-.578.464-.968.669-1.124.588-2.136.853-2.871.67-.312-.078-.579-.188-.806-.32Zm1.966-1.22c.737 0 1.334-.597 1.334-1.333 0-.737-.597-1.334-1.334-1.334-.737 0-1.334.597-1.334 1.334 0 .736.597 1.334 1.334 1.334Zm7.398-1.333c0 .736.597 1.334 1.334 1.334.737 0 1.334-.598 1.334-1.334 0-.737-.597-1.334-1.334-1.334-.737 0-1.334.597-1.334 1.334Z"/></svg>