<svg width="20" height="20" viewBox="0 0 20 20" xmlns="http://www.w3.org/2000/svg"><path d="M8.51862 14.697C8.43333 14.549 8.5983 14.4223 8.7484 14.5036C9.38685 14.8498 10.07 15.0489 10.7585 14.7174C10.9038 14.6494 11.0451 14.5575 11.1914 14.4492C11.3255 14.35 11.4999 14.4481 11.4376 14.6028C11.2107 15.1667 10.6194 15.5864 9.98555 15.5585C9.38231 15.5486 8.81041 15.203 8.51862 14.697Z" fill="#4A4A4A"/><path fill-rule="evenodd" clip-rule="evenodd" d="M17.8173 8.62877C17.834 8.12824 17.8354 7.64078 17.7812 7.32422C17.6774 6.71771 17.4413 6.08109 17.2393 5.69717C16.9451 5.13825 16.4688 4.56711 15.7304 4.56711L15.5304 4.36011C13.9272 2.69919 13.6358 2.39734 10.1892 2.06151C7.32103 1.78205 6.29196 2.52169 5.88136 2.93844C5.29054 2.88751 5.0889 3.10073 4.83738 3.3667C4.63492 3.58078 4.40015 3.82904 3.9041 4.00122C3.02281 4.30712 3.10541 4.9388 3.1428 5.22478L3.14388 5.23303C3.06727 5.20545 2.62077 5.31944 2.41485 5.99603C2.2754 6.45424 2.10958 8.21604 2.10552 9.70447C2.09206 9.98536 2.08039 10.2931 2.06748 10.6336L2.0039 12.3064C1.90011 15.0363 3.88151 17.4008 6.58746 17.7762C8.66523 18.0644 10.7721 18.0747 12.8526 17.8067L13.0865 17.7766C13.3436 17.7435 13.4968 17.7237 13.6317 17.6993C16.1347 17.2449 17.9654 15.0817 17.9997 12.5381C18.0015 12.4011 17.9956 12.2466 17.9858 11.9876L17.9333 10.6064C17.902 9.78001 17.8781 9.15016 17.8173 8.62877ZM15.3563 6.32416C15.5324 7.1153 15.8143 8.05889 16.2119 8.45811C16.3907 8.63753 16.5213 8.82619 16.6182 9.0229C16.619 9.03207 16.6197 9.04131 16.6205 9.0506C16.4021 8.94614 16.1496 8.8712 15.8586 8.83547C14.7193 8.75409 13.8275 9.19589 12.9145 9.64819C12.038 10.0824 11.142 10.5263 9.98871 10.5263C8.83541 10.5263 7.93936 10.0824 7.0629 9.64819C6.1499 9.19589 5.25809 8.75409 4.11873 8.83547C3.83931 8.86979 3.59529 8.94026 3.38297 9.03833C3.42008 8.59735 3.47139 8.29467 3.55931 8.02742C3.98184 6.74317 5.01234 5.75111 6.31172 5.37767C6.84384 5.22475 7.50767 5.21873 9.09308 5.21873H10.938C12.4952 5.21873 13.1473 5.22454 13.6706 5.37212C14.3104 5.55257 14.8858 5.88284 15.3563 6.32416ZM3.64765 14.3031C4.22788 15.4878 5.36816 16.3624 6.75686 16.5551C8.72622 16.8283 10.7232 16.838 12.6951 16.584L12.9075 16.5567C13.1924 16.52 13.3119 16.5044 13.4115 16.4863C14.7083 16.2509 15.7703 15.4183 16.3323 14.3017C16.1221 14.4144 15.8808 14.5084 15.6034 14.5778C14.8685 14.7615 13.8559 14.496 12.7323 13.9078C12.3421 13.7036 12.0434 13.4638 11.7637 13.2392C11.2545 12.8304 10.8085 12.4723 9.98871 12.4723C9.16892 12.4723 8.72283 12.8304 8.21361 13.2392C7.93396 13.4638 7.63524 13.7036 7.2451 13.9078C6.12142 14.496 5.10882 14.7615 4.37395 14.5778C4.09769 14.5087 3.85728 14.4152 3.64765 14.3031ZM5.53424 13.0398C6.27099 13.0398 6.86824 12.4426 6.86824 11.7058C6.86824 10.9691 6.27099 10.3718 5.53424 10.3718C4.79749 10.3718 4.20024 10.9691 4.20024 11.7058C4.20024 12.4426 4.79749 13.0398 5.53424 13.0398ZM12.9322 11.7058C12.9322 12.4426 13.5295 13.0398 14.2662 13.0398C15.003 13.0398 15.6002 12.4426 15.6002 11.7058C15.6002 10.9691 15.003 10.3718 14.2662 10.3718C13.5295 10.3718 12.9322 10.9691 12.9322 11.7058Z" fill="#4A4A4A"/></svg>
