<svg viewBox="0 0 20 20" xmlns="http://www.w3.org/2000/svg"><path fill-rule="evenodd" d="M14.5 4.5v11h1v-11h-1Zm-1.5 11a1.5 1.5 0 0 0 1.5 1.5h1a1.5 1.5 0 0 0 1.5-1.5v-11a1.5 1.5 0 0 0-1.5-1.5h-1a1.5 1.5 0 0 0-1.5 1.5v11Z" fill="#5C5F62"/><path fill-rule="evenodd" d="M4.75 17a1.75 1.75 0 0 1-1.75-1.75v-1a.75.75 0 0 1 1.5 0v1c0 .138.112.25.25.25h1a.75.75 0 0 1 0 1.5h-1Z" fill="#5C5F62"/><path fill-rule="evenodd" d="M11.5 15.25a1.75 1.75 0 0 1-1.75 1.75h-1a.75.75 0 0 1 0-1.5h1a.25.25 0 0 0 .25-.25v-1a.75.75 0 0 1 1.5 0v1Z" fill="#5C5F62"/><path fill-rule="evenodd" d="M3 4.75c0-.966.784-1.75 1.75-1.75h1a.75.75 0 0 1 0 1.5h-1a.25.25 0 0 0-.25.25v1a.75.75 0 0 1-1.5 0v-1Z" fill="#5C5F62"/><path fill-rule="evenodd" d="M9.75 3c.966 0 1.75.784 1.75 1.75v1a.75.75 0 0 1-1.5 0v-1a.25.25 0 0 0-.25-.25h-1a.75.75 0 0 1 0-1.5h1Z" fill="#5C5F62"/><path fill-rule="evenodd" d="M3.75 8.25a.75.75 0 0 1 .75.75v2a.75.75 0 0 1-1.5 0v-2a.75.75 0 0 1 .75-.75Z" fill="#5C5F62"/><path fill-rule="evenodd" d="M10.75 8.25a.75.75 0 0 1 .75.75v2a.75.75 0 0 1-1.5 0v-2a.75.75 0 0 1 .75-.75Z" fill="#5C5F62"/></svg>