<svg viewBox="0 0 20 20" xmlns="http://www.w3.org/2000/svg">
<path d="M13.2939 4.29291L10.2939 7.29291C10.2009 7.38568 10.1272 7.49585 10.0769 7.61719C10.0266 7.73853 10.0007 7.86853 10.0007 7.99988C10.0007 8.05334 10.0051 8.10663 10.0137 8.15918C10.0259 8.23572 10.0471 8.31067 10.0769 8.38257C10.1272 8.50391 10.2009 8.61407 10.2939 8.70685L13.2939 11.7068C13.3867 11.8 13.4968 11.874 13.6182 11.9245C13.6802 11.9503 13.7444 11.9697 13.8101 11.9824C13.8728 11.9947 13.9368 12.0009 14.001 12.0009C14.1323 12.0009 14.2625 11.9749 14.3838 11.9245C14.4507 11.8967 14.5142 11.8616 14.5732 11.8202C14.6213 11.7865 14.6665 11.7486 14.708 11.7068C14.801 11.6141 14.8748 11.5039 14.925 11.3826C14.9753 11.2612 15.0012 11.1312 15.0012 10.9999C15.0012 10.8685 14.9753 10.7385 14.925 10.6172C14.8894 10.5315 14.8423 10.4514 14.7849 10.379C14.761 10.3489 14.7354 10.3201 14.708 10.2929L13.415 8.99988H17.001C17.2661 8.99988 17.5205 8.89453 17.708 8.70697C17.8955 8.51947 18.001 8.26508 18.001 7.99988C18.001 7.73468 17.8955 7.48029 17.708 7.29279C17.5205 7.10522 17.2661 6.99988 17.001 6.99988H13.415L14.708 5.70685C14.8955 5.51935 15.0007 5.26508 15.0007 4.99988C15.0007 4.86859 14.9749 4.73859 14.9248 4.61725C14.8745 4.49597 14.8008 4.38574 14.708 4.29291C14.6152 4.20001 14.5049 4.1264 14.3835 4.07611C14.3064 4.04413 14.2256 4.02203 14.1433 4.01019C14.0962 4.00342 14.0486 4 14.001 4C13.7358 4 13.4814 4.10535 13.2939 4.29291Z" fill="#5C5F62"/>
<path d="M6.70752 8.29291C6.52002 8.10535 6.26562 8 6.00049 8C5.73535 8 5.48096 8.10535 5.29346 8.29291C5.10596 8.48041 5.00073 8.73468 5.00073 8.99988C5.00073 9.26508 5.10596 9.51935 5.29346 9.70685L6.58643 10.9999H3.00049C2.73535 10.9999 2.48096 11.1052 2.29346 11.2928C2.10596 11.4803 2.00049 11.7347 2.00049 11.9999C2.00049 12.2651 2.10596 12.5195 2.29346 12.707C2.48096 12.8945 2.73535 12.9999 3.00049 12.9999H6.58643L5.29346 14.2929C5.20068 14.3857 5.12695 14.496 5.07666 14.6172C5.02661 14.7386 5.00073 14.8686 5.00073 14.9999C5.00073 15.0333 5.00244 15.0667 5.00562 15.0999C5.00854 15.1287 5.0127 15.1574 5.01807 15.1859C5.02466 15.2213 5.03345 15.2563 5.04395 15.2909C5.05347 15.3219 5.06421 15.3525 5.07666 15.3825C5.12695 15.5038 5.20068 15.614 5.29346 15.7068C5.38623 15.7997 5.49658 15.8734 5.61792 15.9236C5.66406 15.9428 5.71167 15.9584 5.76001 15.9704C5.78516 15.9766 5.8103 15.9819 5.83569 15.9861C5.85986 15.9902 5.88428 15.9933 5.90894 15.9956C5.93945 15.9984 5.96997 15.9998 6.00049 15.9998C6.02954 15.9998 6.05859 15.9985 6.08765 15.9959C6.18896 15.9871 6.28857 15.9627 6.38306 15.9236C6.50439 15.8734 6.61475 15.7997 6.70752 15.7068L9.70752 12.7068C9.80054 12.6141 9.87427 12.5039 9.92456 12.3826C9.94067 12.3434 9.95435 12.3033 9.96558 12.2626C9.97339 12.2341 9.97998 12.2053 9.98511 12.1761C9.99536 12.1181 10.0007 12.0591 10.0007 11.9999C10.0007 11.8685 9.97485 11.7385 9.92456 11.6172C9.87427 11.4958 9.80054 11.3857 9.70752 11.2929L6.70752 8.29291Z" fill="#5C5F62"/>
</svg>
