<svg viewBox="0 0 20 20" xmlns="http://www.w3.org/2000/svg">
<path d="M12.2939 3.29291L9.29395 6.29291C9.20093 6.38568 9.1272 6.49585 9.0769 6.61719C9.02661 6.73853 9.00073 6.86853 9.00073 6.99988C9.00073 7.05334 9.00513 7.10663 9.01367 7.15918C9.02588 7.23572 9.04712 7.31067 9.0769 7.38257C9.1272 7.50391 9.20093 7.61407 9.29395 7.70685L12.2939 10.7068C12.3867 10.8 12.4968 10.874 12.6182 10.9245C12.6802 10.9503 12.7444 10.9697 12.8101 10.9824C12.8728 10.9947 12.9368 11.0009 13.001 11.0009C13.1323 11.0009 13.2625 10.9749 13.3838 10.9245C13.4507 10.8967 13.5142 10.8616 13.5732 10.8202C13.6213 10.7865 13.6665 10.7486 13.708 10.7068C13.801 10.6141 13.8748 10.5039 13.925 10.3826C13.9753 10.2612 14.0012 10.1312 14.0012 9.99988C14.0012 9.86853 13.9753 9.73853 13.925 9.61719C13.8894 9.53149 13.8423 9.45135 13.7849 9.37897C13.761 9.34888 13.7354 9.32013 13.708 9.29291L12.415 7.99988H18.001C18.2661 7.99988 18.5205 7.89453 18.708 7.70697C18.8955 7.51947 19.001 7.26508 19.001 6.99988C19.001 6.73468 18.8955 6.48029 18.708 6.29279C18.5205 6.10522 18.2661 5.99988 18.001 5.99988H12.415L13.708 4.70685C13.8955 4.51935 14.0007 4.26508 14.0007 3.99988C14.0007 3.86859 13.9749 3.73859 13.9248 3.61725C13.8745 3.49597 13.8008 3.38574 13.708 3.29291C13.6152 3.20001 13.5049 3.1264 13.3835 3.07611C13.3064 3.04413 13.2256 3.02203 13.1433 3.01019C13.0962 3.00342 13.0486 3 13.001 3C12.7358 3 12.4814 3.10535 12.2939 3.29291Z" fill="#5C5F62"/>
<path d="M7.70752 9.29291C7.52002 9.10535 7.26562 9 7.00049 9C6.73535 9 6.48096 9.10535 6.29346 9.29291C6.10596 9.48041 6.00073 9.73468 6.00073 9.99988C6.00073 10.2651 6.10596 10.5193 6.29346 10.7068L7.58643 11.9999H2.00049C1.73535 11.9999 1.48096 12.1052 1.29346 12.2928C1.10596 12.4803 1.00049 12.7347 1.00049 12.9999C1.00049 13.2651 1.10596 13.5195 1.29346 13.707C1.48096 13.8945 1.73535 13.9999 2.00049 13.9999H7.58643L6.29346 15.2929C6.20068 15.3857 6.12695 15.496 6.07666 15.6172C6.02661 15.7386 6.00073 15.8686 6.00073 15.9999C6.00073 16.0333 6.00244 16.0667 6.00562 16.0999C6.00854 16.1287 6.0127 16.1574 6.01807 16.1859C6.02466 16.2213 6.03345 16.2563 6.04395 16.2909C6.05347 16.3219 6.06421 16.3525 6.07666 16.3825C6.12695 16.5038 6.20068 16.614 6.29346 16.7068C6.38623 16.7997 6.49658 16.8734 6.61792 16.9236C6.66406 16.9428 6.71167 16.9584 6.76001 16.9704C6.78516 16.9766 6.8103 16.9819 6.83569 16.9861C6.85986 16.9902 6.88428 16.9933 6.90894 16.9956C6.93945 16.9984 6.96997 16.9998 7.00049 16.9998C7.02954 16.9998 7.05859 16.9985 7.08765 16.9959C7.18896 16.9871 7.28857 16.9627 7.38306 16.9236C7.50439 16.8734 7.61475 16.7997 7.70752 16.7068L10.7075 13.7068C10.8005 13.6141 10.8743 13.5039 10.9246 13.3826C10.9407 13.3434 10.9543 13.3033 10.9656 13.2626C10.9734 13.2341 10.98 13.2053 10.9851 13.1761C10.9954 13.1181 11.0007 13.0591 11.0007 12.9999C11.0007 12.8685 10.9749 12.7385 10.9246 12.6172C10.8743 12.4958 10.8005 12.3857 10.7075 12.2929L7.70752 9.29291Z" fill="#5C5F62"/>
</svg>
