<svg xmlns="http://www.w3.org/2000/svg" viewBox="0 0 16 16"><path d="M10.15 5c0 .69-.504 1.25-1.125 1.25s-1.125-.56-1.125-1.25.504-1.25 1.125-1.25 1.125.56 1.125 1.25Z"/><path fill-rule="evenodd" d="M7.928 1.25h-1.856c-.711 0-1.285 0-1.75.041-.478.042-.899.132-1.29.346-.666.365-1.205.964-1.534 1.704-.193.435-.273.902-.311 1.434-.037.517-.037 1.154-.037 1.944v.062c0 .79 0 1.427.037 1.944.038.532.118 1 .311 1.434.329.74.868 1.34 1.534 1.704.391.215.812.304 1.29.346.465.041 1.039.041 1.75.041h1.856c.711 0 1.285 0 1.75-.041.478-.042.899-.131 1.29-.346.666-.365 1.205-.964 1.534-1.704.193-.435.273-.902.311-1.434.037-.516.037-1.154.037-1.944v-.062c0-.79 0-1.427-.037-1.944-.038-.532-.118-1-.311-1.434-.329-.74-.868-1.34-1.534-1.704-.391-.214-.812-.304-1.29-.346-.465-.041-1.039-.041-1.75-.041Zm-4.299 1.732c.174-.095.403-.16.8-.196.406-.035.925-.036 1.671-.036h1.8c.746 0 1.265 0 1.67.036.398.035.627.1.8.196.4.22.724.579.921 1.023.086.193.145.447.176.889.032.45.033 1.027.033 1.856 0 .348 0 .652-.003.92l-.192-.266c-.586-.814-1.68-.882-2.343-.144l-1.062 1.18-2.426-2.696c-.655-.728-1.73-.673-2.323.117l-.651.868c0-.818 0-1.389.033-1.835.031-.442.09-.696.176-.89.197-.443.52-.803.92-1.022Zm-1.058 5.994c.034.228.08.388.138.52.197.443.52.803.92 1.022.174.095.403.16.8.196.406.035.925.036 1.671.036h1.8c.746 0 1.265 0 1.67-.036.398-.035.627-.1.8-.196.347-.19.637-.486.836-.85l-.955-1.327c-.084-.116-.24-.126-.335-.02l-1.539 1.71c-.263.292-.69.292-.954 0l-2.903-3.226c-.094-.104-.248-.097-.332.016l-1.617 2.155Z"/><path d="M3.4 15c.497 0 .9-.448.9-1s-.403-1-.9-1-.9.448-.9 1 .403 1 .9 1Z"/><path d="M7.9 14c0 .552-.403 1-.9 1s-.9-.448-.9-1 .403-1 .9-1 .9.448.9 1Z"/><path d="M10.6 15c.497 0 .9-.448.9-1s-.403-1-.9-1-.9.448-.9 1 .403 1 .9 1Z"/></svg>