<svg xmlns="http://www.w3.org/2000/svg" viewBox="0 0 20 20"><path d="M7.143 12.107c-.414 0-.75.336-.75.75s.336.75.75.75h5.714c.414 0 .75-.336.75-.75s-.336-.75-.75-.75h-5.714Z"/><path d="M8.25 6.75c.414 0 .75.336.75.75v1.75c0 .414-.336.75-.75.75s-.75-.336-.75-.75v-1.75c0-.414.336-.75.75-.75Z"/><path d="M12.5 7.5c0-.414-.336-.75-.75-.75s-.75.336-.75.75v1.75c0 .414.336.75.75.75s.75-.336.75-.75v-1.75Z"/><path fill-rule="evenodd" d="M18 10c0 4.418-3.582 8-8 8s-8-3.582-8-8 3.582-8 8-8 8 3.582 8 8Zm-1.5 0c0 3.59-2.91 6.5-6.5 6.5s-6.5-2.91-6.5-6.5 2.91-6.5 6.5-6.5 6.5 2.91 6.5 6.5Z"/></svg>