<svg xmlns="http://www.w3.org/2000/svg" viewBox="0 0 16 16"><path d="M7.043 10.69c.304-.125.629-.19.957-.19.328 0 .653.065.957.19.303.126.579.31.81.542.294.293.769.293 1.061 0 .293-.293.293-.768 0-1.06-.371-.372-.812-.667-1.297-.868-.486-.2-1.006-.304-1.531-.304-.525 0-1.045.103-1.53.304-.486.201-.927.496-1.298.868-.293.292-.293.767 0 1.06.292.293.767.293 1.06 0 .232-.232.508-.416.811-.542Z"/><path d="M8.75 5.75c0-.414.336-.75.75-.75s.75.336.75.75v1.5c0 .414-.336.75-.75.75s-.75-.336-.75-.75v-1.5Z"/><path d="M6.5 5c-.414 0-.75.336-.75.75v1.5c0 .414.336.75.75.75s.75-.336.75-.75v-1.5c0-.414-.336-.75-.75-.75Z"/><path fill-rule="evenodd" d="M15 8c0 3.866-3.134 7-7 7s-7-3.134-7-7 3.134-7 7-7 7 3.134 7 7Zm-1.5 0c0 3.038-2.462 5.5-5.5 5.5s-5.5-2.462-5.5-5.5 2.462-5.5 5.5-5.5 5.5 2.462 5.5 5.5Z"/></svg>