<svg xmlns="http://www.w3.org/2000/svg" viewBox="0 0 16 16"><path d="M9.5 5c-.414 0-.75.336-.75.75v1.5c0 .414.336.75.75.75s.75-.336.75-.75v-1.5c0-.414-.336-.75-.75-.75Z"/><path d="M5.75 5.75c0-.414.336-.75.75-.75s.75.336.75.75v1.5c0 .414-.336.75-.75.75s-.75-.336-.75-.75v-1.5Z"/><path d="M9.522 9.983c-.437.335-.972.517-1.522.517s-1.085-.182-1.522-.517c-.437-.335-.75-.804-.893-1.336-.107-.4-.518-.637-.918-.53-.4.107-.638.518-.53.918.227.85.73 1.602 1.428 2.138.699.536 1.554.827 2.435.827.88 0 1.736-.29 2.435-.827.699-.536 1.2-1.287 1.429-2.138.107-.4-.13-.811-.53-.918-.4-.107-.812.13-.92.53-.142.532-.455 1.001-.892 1.336Z"/><path fill-rule="evenodd" d="M15 8c0 3.866-3.134 7-7 7s-7-3.134-7-7 3.134-7 7-7 7 3.134 7 7Zm-1.5 0c0 3.038-2.462 5.5-5.5 5.5s-5.5-2.462-5.5-5.5 2.462-5.5 5.5-5.5 5.5 2.462 5.5 5.5Z"/></svg>