<svg xmlns="http://www.w3.org/2000/svg" viewBox="0 0 16 16"><path d="M5.5 9.75c-.414 0-.75.336-.75.75s.336.75.75.75h5c.414 0 .75-.336.75-.75s-.336-.75-.75-.75h-5Z"/><path d="M8.75 5.75c0-.414.336-.75.75-.75s.75.336.75.75v1.5c0 .414-.336.75-.75.75s-.75-.336-.75-.75v-1.5Z"/><path d="M6.5 5c-.414 0-.75.336-.75.75v1.5c0 .414.336.75.75.75s.75-.336.75-.75v-1.5c0-.414-.336-.75-.75-.75Z"/><path fill-rule="evenodd" d="M15 8c0 3.866-3.134 7-7 7s-7-3.134-7-7 3.134-7 7-7 7 3.134 7 7Zm-1.5 0c0 3.038-2.462 5.5-5.5 5.5s-5.5-2.462-5.5-5.5 2.462-5.5 5.5-5.5 5.5 2.462 5.5 5.5Z"/></svg>