<svg xmlns="http://www.w3.org/2000/svg" viewBox="0 0 16 16"><path d="M6.28 4.97c-.293-.293-.767-.293-1.06 0l-1 1c-.293.293-.293.767 0 1.06.293.293.767.293 1.06 0l.47-.47.47.47c.293.293.767.293 1.06 0 .293-.293.293-.767 0-1.06l-1-1Z"/><path d="M9.72 4.97c.293-.293.767-.293 1.06 0l1 1c.293.293.293.767 0 1.06-.293.293-.767.293-1.06 0l-.47-.47-.47.47c-.293.293-.767.293-1.06 0-.293-.293-.293-.767 0-1.06l1-1Z"/><path d="M11.876 8.99c.136-.535-.324-.99-.876-.99h-6c-.552 0-1.012.455-.876.99.177.69.535 1.326 1.048 1.838.75.75 1.767 1.172 2.828 1.172 1.06 0 2.078-.421 2.828-1.172.513-.512.871-1.148 1.048-1.838Z"/><path fill-rule="evenodd" d="M15 8c0 3.866-3.134 7-7 7s-7-3.134-7-7 3.134-7 7-7 7 3.134 7 7Zm-1.5 0c0 3.038-2.462 5.5-5.5 5.5s-5.5-2.462-5.5-5.5 2.462-5.5 5.5-5.5 5.5 2.462 5.5 5.5Z"/></svg>