<svg xmlns="http://www.w3.org/2000/svg" viewBox="0 0 20 20"><path fill-rule="evenodd" d="M16.5 10c0 3.59-2.91 6.5-6.5 6.5s-6.5-2.91-6.5-6.5 2.91-6.5 6.5-6.5 6.5 2.91 6.5 6.5Zm1.5 0c0 4.418-3.582 8-8 8s-8-3.582-8-8 3.582-8 8-8 8 3.582 8 8Zm-6.13 2.437c-.537.411-1.194.634-1.87.634-.676 0-1.333-.223-1.87-.634-.536-.412-.922-.989-1.097-1.642-.107-.4-.518-.638-.918-.53-.4.107-.638.518-.53.918.26.972.834 1.831 1.632 2.444.798.612 1.777.944 2.783.944s1.985-.332 2.783-.944c.798-.613 1.372-1.472 1.633-2.444.107-.4-.13-.811-.53-.918-.4-.108-.812.13-.92.53-.174.653-.56 1.23-1.096 1.642Z"/><path stroke="#4A4A4A" stroke-linecap="round" stroke-width="1.5" d="M8.25 7.5v1.75"/><path stroke="#4A4A4A" stroke-linecap="round" stroke-width="1.5" d="M11.75 7.5v1.75"/></svg>