<svg xmlns="http://www.w3.org/2000/svg" viewBox="0 0 20 20"><path fill-rule="evenodd" d="M16.5 10c0 3.59-2.91 6.5-6.5 6.5s-6.5-2.91-6.5-6.5 2.91-6.5 6.5-6.5 6.5 2.91 6.5 6.5Zm1.5 0c0 4.418-3.582 8-8 8s-8-3.582-8-8 3.582-8 8-8 8 3.582 8 8Zm-10.041-3.387c-.293-.293-.768-.293-1.06 0l-1.144 1.142c-.293.293-.293.768 0 1.061.293.293.768.293 1.061 0l.613-.612.612.612c.293.293.768.293 1.06 0 .294-.293.294-.768 0-1.06l-1.142-1.143Zm4.082 0c.293-.293.768-.293 1.06 0l1.144 1.142c.293.293.293.768 0 1.061-.293.293-.768.293-1.061 0l-.613-.612-.612.612c-.293.293-.768.293-1.06 0-.294-.293-.294-.768 0-1.06l1.142-1.143Zm2.421 4.38c.12-.54-.338-.993-.89-.993h-7.143c-.553 0-1.011.453-.892.992.188.842.611 1.621 1.23 2.24.858.858 2.02 1.34 3.233 1.34 1.212 0 2.375-.482 3.232-1.34.62-.619 1.043-1.398 1.23-2.24Z"/></svg>