<svg xmlns="http://www.w3.org/2000/svg" viewBox="0 0 20 20"><path d="M8.825 12.877c.372-.155.772-.234 1.175-.234s.803.08 1.175.234c.373.154.712.38.997.665.293.293.768.293 1.06 0 .293-.292.293-.767 0-1.06-.424-.425-.928-.761-1.483-.991-.554-.23-1.149-.348-1.749-.348-.6 0-1.195.118-1.75.348-.554.23-1.058.566-1.482.99-.293.294-.293.769 0 1.062.292.292.767.292 1.06 0 .285-.286.624-.512.997-.666Z"/><path d="M8.25 6.75c.414 0 .75.336.75.75v1.75c0 .414-.336.75-.75.75s-.75-.336-.75-.75v-1.75c0-.414.336-.75.75-.75Z"/><path d="M12.5 7.5c0-.414-.336-.75-.75-.75s-.75.336-.75.75v1.75c0 .414.336.75.75.75s.75-.336.75-.75v-1.75Z"/><path fill-rule="evenodd" d="M18 10c0 4.418-3.582 8-8 8s-8-3.582-8-8 3.582-8 8-8 8 3.582 8 8Zm-1.5 0c0 3.59-2.91 6.5-6.5 6.5s-6.5-2.91-6.5-6.5 2.91-6.5 6.5-6.5 6.5 2.91 6.5 6.5Z"/></svg>