<svg xmlns="http://www.w3.org/2000/svg" viewBox="0 0 20 20"><path fill-rule="evenodd" fill="#5C5F62" d="M13.3371 7.25076C13.2326 5.70757 12.6892 3.75 9.86192 3.75C7.03466 3.75 6.49123 5.70757 6.38677 7.25076C6.34948 7.80178 5.92313 8.09895 5.37152 8.12627C5.08418 8.1405 4.36192 7.77856 4.36192 8.25C4.36192 9.25 6.36192 9.25 6.36192 10.25C6.36192 11.25 4.86192 12.75 3.86192 13.25C2.86192 13.75 4.17941 13.9087 4.86192 14.25C5.54443 14.5913 5.80126 15.6036 6.86192 15.25C7.92258 14.8964 8.86192 15.75 9.86192 15.75C10.8619 15.75 11.8013 14.8964 12.8619 15.25C13.9226 15.6036 14.1794 14.5913 14.8619 14.25C15.5444 13.9087 16.8619 13.75 15.8619 13.25C14.8619 12.75 13.3619 11.25 13.3619 10.25C13.3619 9.25 15.3619 9.25 15.3619 8.25C15.3619 7.77856 14.6397 8.1405 14.3523 8.12627C13.8007 8.09895 13.3744 7.80178 13.3371 7.25076Z"/></svg>