<svg xmlns="http://www.w3.org/2000/svg" viewBox="0 0 20 20"><path d="M14 1.75c.414 0 .75.336.75.75v1.5c0 .414-.336.75-.75.75s-.75-.336-.75-.75v-1.5c0-.414.336-.75.75-.75Z"/><path d="M18.238 4.07c.315-.27.351-.744.082-1.058-.27-.315-.744-.351-1.058-.081l-1.75 1.5c-.315.27-.351.743-.081 1.057.27.315.743.351 1.057.081l1.75-1.5Z"/><path d="M3.5 8.18c0-2.05 1.616-3.68 3.57-3.68h4.32c.414 0 .75-.336.75-.75s-.336-.75-.75-.75h-4.32c-2.818 0-5.07 2.338-5.07 5.18v.832c0 2.294 1.464 4.255 3.51 4.93v2.27c0 .276.152.53.396.66.244.131.54.117.77-.037l3.958-2.643h2.296c2.818 0 5.07-2.337 5.07-5.18 0-.415-.336-.75-.75-.75s-.75.335-.75.75c0 2.05-1.616 3.68-3.57 3.68h-2.523c-.149 0-.293.044-.417.127l-2.98 1.99v-1.444c0-.36-.254-.668-.607-.737-1.64-.319-2.903-1.806-2.903-3.616v-.831Z"/><path d="M6.75 7c-.414 0-.75.336-.75.75s.336.75.75.75h5.5c.414 0 .75-.336.75-.75s-.336-.75-.75-.75h-5.5Z"/><path d="M6 10.25c0-.414.336-.75.75-.75h3.5c.414 0 .75.336.75.75s-.336.75-.75.75h-3.5c-.414 0-.75-.336-.75-.75Z"/><path d="M18.25 7.75c.414 0 .75-.336.75-.75s-.336-.75-.75-.75h-1.5c-.414 0-.75.336-.75.75s.336.75.75.75h1.5Z"/></svg>