<svg xmlns="http://www.w3.org/2000/svg" viewBox="0 0 16 16"><path d="M10.5 1c.414 0 .75.336.75.75v1.25c0 .414-.336.75-.75.75s-.75-.336-.75-.75v-1.25c0-.414.336-.75.75-.75Z"/><path d="M14.03 3.03c.293-.293.293-.767 0-1.06-.293-.293-.767-.293-1.06 0l-1 1c-.293.293-.293.767 0 1.06.293.293.767.293 1.06 0l1-1Z"/><path d="M3.5 5c0-.69.56-1.25 1.25-1.25h3.25c.414 0 .75-.336.75-.75s-.336-.75-.75-.75h-3.25c-1.519 0-2.75 1.231-2.75 2.75v7.25c0 1.519 1.231 2.75 2.75 2.75h6.5c1.519 0 2.75-1.231 2.75-2.75v-3.625c0-.414-.336-.75-.75-.75s-.75.336-.75.75v3.625c0 .69-.56 1.25-1.25 1.25h-6.5c-.69 0-1.25-.56-1.25-1.25v-7.25Z"/><path d="M5.25 10.5c-.414 0-.75.336-.75.75s.336.75.75.75h5.5c.414 0 .75-.336.75-.75s-.336-.75-.75-.75h-5.5Z"/><path fill-rule="evenodd" d="M4.25 5.25c0-.414.336-.75.75-.75h6c.414 0 .75.336.75.75v3c0 .414-.336.75-.75.75h-6c-.414 0-.75-.336-.75-.75v-3Zm1.5.75v1.5h4.5v-1.5h-4.5Z"/><path d="M14.5 6.25c.414 0 .75-.336.75-.75s-.336-.75-.75-.75h-1.25c-.414 0-.75.336-.75.75s.336.75.75.75h1.25Z"/></svg>