<svg xmlns="http://www.w3.org/2000/svg" viewBox="0 0 20 20"><path d="M12.5 1.5c.414 0 .75.336.75.75v1.25c0 .414-.336.75-.75.75s-.75-.336-.75-.75v-1.25c0-.414.336-.75.75-.75Z"/><path d="M16.28 3.78c.293-.293.293-.767 0-1.06-.293-.293-.767-.293-1.06 0l-1 1c-.293.293-.293.767 0 1.06.293.293.767.293 1.06 0l1-1Z"/><path d="M5 5.5c0-.69.56-1.25 1.25-1.25h3.25c.414 0 .75-.336.75-.75s-.336-.75-.75-.75h-3.25c-1.519 0-2.75 1.231-2.75 2.75v9.75c0 1.519 1.231 2.75 2.75 2.75h7.5c1.519 0 2.75-1.231 2.75-2.75v-5.625c0-.414-.336-.75-.75-.75s-.75.336-.75.75v5.625c0 .69-.56 1.25-1.25 1.25h-7.5c-.69 0-1.25-.56-1.25-1.25v-9.75Z"/><path d="M7.25 13.5c-.414 0-.75.336-.75.75s.336.75.75.75h5.5c.414 0 .75-.336.75-.75s-.336-.75-.75-.75h-5.5Z"/><path fill-rule="evenodd" d="M6.25 6.75c0-.414.336-.75.75-.75h6c.414 0 .75.336.75.75v4.5c0 .414-.336.75-.75.75h-6c-.414 0-.75-.336-.75-.75v-4.5Zm1.5.75v3h4.5v-3h-4.5Z"/><path d="M17 7.25c.414 0 .75-.336.75-.75s-.336-.75-.75-.75h-1.25c-.414 0-.75.336-.75.75s.336.75.75.75h1.25Z"/></svg>