<svg xmlns="http://www.w3.org/2000/svg" viewBox="0 0 20 20"><path d="M8.75 6a.75.75 0 0 0 0 1.5h2.5a.75.75 0 0 0 0-1.5h-2.5Z"/><path d="M6.5 11.25a.75.75 0 0 1 .75-.75h2.5a.75.75 0 0 1 0 1.5h-2.5a.75.75 0 0 1-.75-.75Z"/><path d="M7.25 13a.75.75 0 0 0 0 1.5h4.5a.75.75 0 0 0 0-1.5h-4.5Z"/><path fill-rule="evenodd" d="M6.75 3a2.75 2.75 0 0 0-2.75 2.75v8.5a2.75 2.75 0 0 0 2.75 2.75h6.5a2.75 2.75 0 0 0 2.75-2.75v-8.5a2.75 2.75 0 0 0-2.75-2.75h-6.5Zm-1.25 4.5h.75a.75.75 0 0 0 0-1.5h-.75v-.25c0-.69.56-1.25 1.25-1.25h6.5c.69 0 1.25.56 1.25 1.25v.25h-.75a.75.75 0 0 0 0 1.5h.75v6.75c0 .69-.56 1.25-1.25 1.25h-6.5c-.69 0-1.25-.56-1.25-1.25v-6.75Z"/></svg>