<svg xmlns="http://www.w3.org/2000/svg" viewBox="0 0 20 20"><path fill-rule="evenodd" d="M13.75 6c.414 0 .75.336.75.75v8.69l2.22-2.22c.293-.293.767-.293 1.06 0 .293.293.293.767 0 1.06l-3.5 3.5c-.293.293-.767.293-1.06 0l-3.5-3.5c-.293-.293-.293-.767 0-1.06.293-.293.767-.293 1.06 0l2.22 2.22v-8.69c0-.414.336-.75.75-.75Z"/><path fill-rule="evenodd" d="M6.25 14c.414 0 .75-.336.75-.75v-8.69l2.22 2.22c.293.293.767.293 1.06 0 .293-.293.293-.767 0-1.06l-3.5-3.5c-.293-.293-.767-.293-1.06 0l-3.5 3.5c-.293.293-.293.767 0 1.06.293.293.767.293 1.06 0l2.22-2.22v8.69c0 .414.336.75.75.75Z"/></svg>