<svg xmlns="http://www.w3.org/2000/svg" viewBox="0 0 20 20"><path fill-rule="evenodd" d="M8.892 3.251c.797-.753 2.108-.188 2.108.909v11.68c0 1.096-1.311 1.662-2.108.909l-3.368-3.18c-.046-.045-.108-.069-.172-.069h-1.602c-.966 0-1.75-.784-1.75-1.75v-3.5c0-.967.784-1.75 1.75-1.75h1.602c.064 0 .126-.024.172-.068l3.368-3.18Zm.608 1.489-2.946 2.782c-.325.307-.755.478-1.202.478h-1.602c-.138 0-.25.112-.25.25v3.5c0 .138.112.25.25.25h1.602c.447 0 .877.17 1.202.478l2.946 2.782v-10.52Z"/><path d="M12.686 7.091c.243-.335.712-.409 1.047-.165.527.382.965.875 1.283 1.443.319.569.51 1.2.56 1.849.052.649-.038 1.302-.264 1.913-.225.611-.58 1.166-1.041 1.627-.293.293-.768.293-1.06 0-.294-.293-.294-.768 0-1.061.307-.307.544-.678.694-1.085.15-.408.21-.843.177-1.277-.035-.433-.162-.854-.375-1.233-.212-.379-.504-.707-.855-.963-.335-.243-.41-.712-.166-1.048Z"/><path d="M15.573 4.393c-.335-.243-.804-.169-1.047.166-.244.335-.17.804.165 1.048.718.521 1.314 1.192 1.748 1.966.433.774.694 1.633.763 2.517.07.884-.053 1.773-.36 2.605-.307.832-.791 1.588-1.418 2.216-.293.292-.293.767 0 1.06.293.293.768.293 1.06 0 .781-.78 1.383-1.72 1.765-2.757.382-1.035.535-2.141.449-3.242-.087-1.1-.411-2.169-.95-3.132-.54-.963-1.282-1.798-2.175-2.447Z"/></svg>