<svg xmlns="http://www.w3.org/2000/svg" viewBox="0 0 16 16"><path fill-rule="evenodd" d="M6.866 2.324c.788-.788 2.134-.23 2.134.883v9.586c0 1.114-1.346 1.672-2.134.884l-2.603-2.603c-.047-.047-.11-.074-.177-.074h-1.336c-.966 0-1.75-.783-1.75-1.75v-2.5c0-.966.784-1.75 1.75-1.75h1.336c.066 0 .13-.026.177-.073l2.603-2.603Zm.634 1.487-2.177 2.177c-.328.328-.773.512-1.237.512h-1.336c-.138 0-.25.112-.25.25v2.5c0 .138.112.25.25.25h1.336c.464 0 .909.185 1.237.513l2.177 2.177v-8.379Z"/><path d="M9.907 5.345c.243-.335.712-.41 1.047-.166.486.353.889.807 1.182 1.33.293.524.47 1.105.517 1.703.047.598-.036 1.2-.244 1.763s-.535 1.074-.96 1.498c-.292.293-.767.293-1.06 0-.293-.293-.293-.767 0-1.06.27-.271.48-.598.613-.957.132-.36.185-.744.155-1.126-.03-.382-.142-.753-.33-1.088-.187-.334-.444-.624-.755-.85-.335-.243-.409-.712-.165-1.047Z"/><path d="M12.62 2.886c-.335-.243-.804-.169-1.047.166-.244.335-.17.804.166 1.048.641.466 1.174 1.066 1.561 1.758.388.691.62 1.46.683 2.25.062.79-.048 1.585-.322 2.329-.275.744-.707 1.42-1.268 1.98-.293.293-.293.768 0 1.06.293.294.768.294 1.06 0 .715-.713 1.266-1.574 1.615-2.521.35-.947.49-1.96.41-2.966-.079-1.007-.375-1.984-.869-2.865-.493-.881-1.172-1.645-1.989-2.239Z"/></svg>