<svg xmlns="http://www.w3.org/2000/svg" viewBox="0 0 20 20"><path fill-rule="evenodd" d="M8.866 4.324c.788-.788 2.134-.23 2.134.884v9.585c0 1.114-1.346 1.672-2.134.884l-2.603-2.603a.25.25 0 0 0-.177-.073h-1.336a1.75 1.75 0 0 1-1.75-1.75v-2.5c0-.967.784-1.75 1.75-1.75h1.336a.25.25 0 0 0 .177-.074l2.603-2.603Zm.634 1.487-2.177 2.177a1.75 1.75 0 0 1-1.237.512h-1.336a.25.25 0 0 0-.25.25v2.5c0 .139.112.25.25.25h1.336c.464 0 .909.185 1.237.513l2.177 2.177v-8.379Z"/><path d="M11.907 7.345a.75.75 0 0 1 1.047-.166 4.152 4.152 0 0 1 .496 6.294.75.75 0 0 1-1.061-1.06 2.65 2.65 0 0 0-.316-4.02.75.75 0 0 1-.166-1.048Z"/><path d="M14.62 4.886a.75.75 0 0 0-.881 1.214 5.486 5.486 0 0 1 .654 8.317.75.75 0 1 0 1.06 1.061 6.986 6.986 0 0 0-.833-10.592Z"/></svg>