<svg xmlns="http://www.w3.org/2000/svg" viewBox="0 0 16 16"><path fill-rule="evenodd" d="M.76 7.882c-.007.039-.01.078-.01.118 0 .02 0 .04.002.06l-.002.19c0 4.004 3.246 7.25 7.25 7.25s7.25-3.246 7.25-7.25c0-.063 0-.126-.002-.19l.002-.06c0-.04-.003-.08-.01-.118-.19-3.833-3.36-6.882-7.24-6.882-3.88 0-7.05 3.05-7.24 6.882Zm3.518-4.015c.823-.7 1.847-1.172 2.972-1.319v4.702h-1.77c-.118-1.187-.519-2.35-1.202-3.383Zm-1.044 1.165c-.443.656-.755 1.408-.897 2.218h1.634c-.096-.77-.342-1.525-.737-2.218Zm.737 3.718h-1.7c.078.9.363 1.742.808 2.476.486-.762.784-1.61.892-2.476Zm.092 3.691c.857.805 1.962 1.35 3.187 1.51v-5.201h-1.77c-.13 1.306-.602 2.585-1.417 3.691Zm9.6-5.191c-.14-.804-.449-1.551-.887-2.203-.39.689-.633 1.438-.73 2.203h1.617Zm-3.126 0c.119-1.183.517-2.343 1.197-3.373-.826-.705-1.853-1.181-2.984-1.329v4.702h1.787Zm-1.787 1.5h1.787c.13 1.302.6 2.577 1.41 3.681-.858.81-1.967 1.36-3.197 1.52v-5.201Zm4.979 0c-.077.895-.36 1.73-.8 2.461-.48-.758-.774-1.6-.882-2.461h1.682Z"/></svg>