<svg xmlns="http://www.w3.org/2000/svg" viewBox="0 0 20 20"><path fill-rule="evenodd" d="M2 10c0-4.418 3.582-8 8-8s8 3.582 8 8-3.582 8-8 8-8-3.582-8-8Zm3.568-4.755c.99-.922 2.267-1.54 3.682-1.702v5.707h-2.02c-.142-1.432-.697-2.83-1.662-4.005Zm-.99 1.168c-.55.831-.916 1.797-1.035 2.837h2.178c-.126-1.006-.507-1.987-1.142-2.837Zm1.143 4.337h-2.178c.12 1.04.485 2.006 1.036 2.838.636-.85 1.016-1.831 1.142-2.838Zm-.152 4.005c.989.922 2.266 1.54 3.681 1.702v-5.707h-2.02c-.142 1.432-.696 2.831-1.661 4.005Zm5.181-4.005v5.707c1.42-.163 2.701-.784 3.691-1.711-.96-1.173-1.511-2.568-1.654-3.996h-2.037Zm5.707 0c-.119 1.035-.48 1.996-1.027 2.825-.63-.848-1.008-1.823-1.133-2.825h2.16Zm0-1.5h-2.16c.125-1.001.503-1.977 1.133-2.824.546.828.908 1.79 1.027 2.824Zm-5.707-5.707c1.42.163 2.701.784 3.692 1.712-.96 1.172-1.512 2.567-1.655 3.995h-2.037v-5.707Z"/></svg>