<svg viewBox="0 0 20 20" xmlns="http://www.w3.org/2000/svg"><path d="M6.71 15.116l3.357-1.658.892.452 2.327 1.178-.56-3.912.708-.707 1.29-1.29-3.235-.576-.445-.915-1.059-2.176L8.4 8.683l-1.005.168-2.098.35 1.975 1.975-.141.99-.422 2.95zM5.2 18a.8.8 0 01-.792-.914l.743-5.203-2.917-2.917a.8.8 0 01.434-1.355l4.398-.733 2.218-4.435a.8.8 0 011.435.008l2.123 4.361 4.498.801a.8.8 0 01.425 1.353l-2.917 2.917.744 5.203a.8.8 0 01-1.154.828l-4.382-2.22-4.502 2.223A.792.792 0 015.2 18z" fill="currentColor"/></svg>