<svg xmlns="http://www.w3.org/2000/svg" viewBox="0 0 20 20"><path fill-rule="evenodd" d="M8.872 3.123c.453-.95 1.803-.95 2.256 0l1.75 3.666 4.027.531c1.043.138 1.46 1.422.698 2.146l-2.947 2.797.74 3.995c.191 1.033-.901 1.827-1.826 1.326l-3.57-1.938-3.57 1.938c-.925.501-2.017-.293-1.826-1.326l.74-3.995-2.947-2.797c-.762-.724-.345-2.008.698-2.146l4.027-.53 1.75-3.667Zm1.128 1.119-1.582 3.316c-.183.382-.546.645-.965.7l-3.643.48 2.665 2.53c.307.292.445.718.368 1.135l-.669 3.612 3.23-1.752c.372-.202.82-.202 1.192 0l3.23 1.752-.67-3.612c-.077-.417.062-.843.37-1.135l2.664-2.53-3.643-.48c-.42-.055-.782-.318-.965-.7l-1.582-3.316Z"/></svg>