<svg xmlns="http://www.w3.org/2000/svg" viewBox="0 0 12 12"><path fill-rule="evenodd" d="m7.097 4.78-1.097-2.741-1.097 2.74-2.89.241c-.002.005-.005.01-.007.018-.008.024-.006.044-.004.053 0 .004.002.007.002.007s.004.006.014.014l-.831.934c-.841-.748-.394-2.179.71-2.27l2.132-.178.822-2.052c.425-1.061 1.873-1.061 2.298 0l.822 2.052 2.132.177c1.104.092 1.551 1.523.71 2.271l-1.624 1.446.496 2.161c.257 1.119-.915 2.003-1.86 1.403l-1.825-1.158-1.825 1.158c-.945.6-2.117-.284-1.86-1.403l.496-2.161-1.624-1.446.83-.934 2.178 1.938-.662 2.883c-.004.02-.004.032-.004.037l.002.011.001.002 2.468-1.565 2.468 1.565v-.002c.002-.002.002-.006.003-.011 0-.005 0-.017-.004-.037l-.662-2.883 2.177-1.938c.01-.008.014-.014.014-.014l.002-.007c.003-.01.004-.03-.004-.053-.002-.008-.005-.013-.007-.018l-2.89-.24Z"/></svg>