<svg width="20" height="20" viewBox="0 0 20 20" fill="none" xmlns="http://www.w3.org/2000/svg">
<g clip-path="url(#clip0_7018_192358)">
<path d="M7.51877 2.39451C9.1852 1.85085 10.9841 1.86955 12.6388 2.44775C13.1602 2.62992 13.7306 2.35494 13.9127 1.83357C14.0949 1.3122 13.8199 0.741857 13.2986 0.559684C11.2301 -0.16306 8.9815 -0.186439 6.89846 0.493139C4.81541 1.17272 3.01322 2.51764 1.76893 4.32114C0.524638 6.12465 -0.0928753 8.28691 0.0113178 10.4755C0.115511 12.6641 0.935643 14.758 2.34564 16.4351C3.75563 18.1123 5.67744 19.2799 7.81562 19.7585C9.9538 20.2371 12.19 20.0002 14.1805 19.0843C16.1709 18.1683 17.8054 16.6239 18.8327 14.6886C19.86 12.7533 20.2233 10.5341 19.8666 8.37221C19.7767 7.82729 19.2621 7.45842 18.7172 7.54832C18.1723 7.63823 17.8034 8.15285 17.8933 8.69777C18.1786 10.4273 17.888 12.2026 17.0662 13.7509C16.2443 15.2991 14.9367 16.5346 13.3444 17.2674C11.752 18.0002 9.96304 18.1897 8.2525 17.8068C6.54195 17.4239 5.00451 16.4898 3.87651 15.1481C2.74852 13.8064 2.09241 12.1313 2.00906 10.3804C1.9257 8.62953 2.41971 6.89972 3.41515 5.45691C4.41058 4.01411 5.85233 2.93817 7.51877 2.39451Z" fill="#5C5F62"/>
<path d="M17.8467 4.74082C18.2558 4.27323 18.2084 3.56249 17.7408 3.15335C17.2732 2.74421 16.5625 2.79159 16.1534 3.25918L9.94521 10.3542L7.7955 8.2045C7.35616 7.76517 6.64385 7.76517 6.20451 8.2045C5.76517 8.64384 5.76517 9.35616 6.20451 9.7955L9.20451 12.7955C9.42468 13.0157 9.72625 13.1347 10.0374 13.1244C10.3486 13.114 10.6416 12.9751 10.8467 12.7408L17.8467 4.74082Z" fill="#5C5F62"/>
</g>
<defs>
<clipPath id="clip0_7018_192358">
<rect width="20" height="20" fill="white"/>
</clipPath>
</defs>
</svg>
