<svg xmlns="http://www.w3.org/2000/svg" viewBox="0 0 16 16"><path d="M2.63 6.81c.658-2.965 3.595-4.837 6.56-4.18.405.09.805-.165.895-.569.09-.404-.166-.805-.57-.895-3.774-.836-7.512 1.545-8.35 5.32-.836 3.774 1.546 7.512 5.32 8.349 3.774.836 7.512-1.545 8.35-5.32.089-.404-.166-.804-.57-.894-.405-.09-.806.166-.895.57-.658 2.965-3.595 4.837-6.56 4.18-2.966-.658-4.837-3.595-4.18-6.56Z"/><path d="M14.03 4.78c.293-.293.293-.767 0-1.06-.293-.293-.767-.293-1.06 0l-4.97 4.97-2.22-2.22c-.293-.293-.767-.293-1.06 0-.293.293-.293.767 0 1.06l2.75 2.75c.293.293.767.293 1.06 0l5.5-5.5Z"/></svg>