<svg xmlns="http://www.w3.org/2000/svg" viewBox="0 0 20 20"><path fill-rule="evenodd" d="M9.25 3.543c-3.237.372-5.75 3.12-5.75 6.457 0 3.59 2.91 6.5 6.5 6.5s6.5-2.91 6.5-6.5c0-.414.336-.75.75-.75s.75.336.75.75c0 4.418-3.582 8-8 8s-8-3.582-8-8 3.582-8 8-8c.414 0 .75.336.75.75v7c0 .414-.336.75-.75.75s-.75-.336-.75-.75v-6.207Z"/><path fill-rule="evenodd" d="M10 6.5c-1.933 0-3.5 1.567-3.5 3.5s1.567 3.5 3.5 3.5 3.5-1.567 3.5-3.5c0-.414.336-.75.75-.75s.75.336.75.75c0 2.761-2.239 5-5 5s-5-2.239-5-5 2.239-5 5-5c.414 0 .75.336.75.75s-.336.75-.75.75Z"/><path d="M12.01 10.01c0 1.105-.895 2-2 2s-2-.895-2-2 .895-2 2-2 2 .895 2 2Z"/></svg>