<svg xmlns="http://www.w3.org/2000/svg" viewBox="0 0 20 20"><path d="M3.654 8.593c.777-3.505 4.248-5.716 7.753-4.939.404.09.805-.165.894-.57.09-.404-.165-.805-.57-.894-4.313-.957-8.585 1.765-9.541 6.078-.957 4.314 1.765 8.586 6.078 9.542 4.314.957 8.586-1.765 9.542-6.078.09-.405-.165-.805-.57-.895-.404-.09-.804.165-.894.57-.777 3.505-4.248 5.716-7.753 4.939-3.505-.777-5.716-4.248-4.939-7.753Z"/><path d="M17.293 5.517c.286-.3.274-.774-.026-1.06-.3-.286-.774-.274-1.06.026l-6.124 6.43-2.79-2.93c-.286-.3-.76-.312-1.06-.026-.3.286-.312.76-.026 1.06l3.333 3.5c.142.149.338.233.543.233.206 0 .402-.084.543-.233l6.667-7Z"/></svg>