<svg xmlns="http://www.w3.org/2000/svg" viewBox="0 0 16 16"><path d="M7.25 2.55c-2.683.367-4.75 2.667-4.75 5.45 0 3.038 2.462 5.5 5.5 5.5s5.5-2.462 5.5-5.5c0-.414.336-.75.75-.75s.75.336.75.75c0 3.866-3.134 7-7 7s-7-3.134-7-7 3.134-7 7-7c.414 0 .75.336.75.75v4.95c.448.26.75.745.75 1.3 0 .828-.672 1.5-1.5 1.5s-1.5-.672-1.5-1.5c0-.555.302-1.04.75-1.3v-1.346c-1.154.326-2 1.387-2 2.646 0 1.519 1.231 2.75 2.75 2.75s2.75-1.231 2.75-2.75c0-.414.336-.75.75-.75s.75.336.75.75c0 2.347-1.903 4.25-4.25 4.25s-4.25-1.903-4.25-4.25c0-2.091 1.51-3.83 3.5-4.184v-1.265Z"/></svg>