<svg xmlns="http://www.w3.org/2000/svg" viewBox="0 0 20 20"><path fill-rule="evenodd" fill="#5C5F62" d="M10 17C13.866 17 17 13.866 17 10C17 6.13401 13.866 3 10 3C6.13401 3 3 6.13401 3 10C3 13.866 6.13401 17 10 17ZM8.40626 15.2655C8.7084 15.3569 8.99568 15.1136 8.95593 14.8005C8.68029 12.629 7.13845 10.8525 5.09374 10.2345C4.7916 10.1431 4.50432 10.3864 4.54407 10.6995C4.81971 12.8711 6.36155 14.6475 8.40626 15.2655ZM10 4.5C7.98272 4.5 6.21909 5.58604 5.26192 7.20534C5.06079 7.5456 5.37314 7.92522 5.76291 7.85956C6.92233 7.66422 8.37906 7.5 10 7.5C11.6209 7.5 13.0777 7.66422 14.2371 7.85956C14.6269 7.92522 14.9392 7.5456 14.7381 7.20534C13.7809 5.58605 12.0173 4.5 10 4.5ZM15.4559 10.6995C15.4957 10.3864 15.2084 10.1431 14.9063 10.2345C12.8616 10.8525 11.3197 12.629 11.0441 14.8005C11.0043 15.1136 11.2916 15.3569 11.5937 15.2655C13.6384 14.6475 15.1803 12.8711 15.4559 10.6995ZM10 11C10.5523 11 11 10.5523 11 10C11 9.44772 10.5523 9 10 9C9.44772 9 9 9.44772 9 10C9 10.5523 9.44772 11 10 11Z"/></svg>
