<svg xmlns="http://www.w3.org/2000/svg" viewBox="0 0 20 20"><path d="M10.75 1.75c0-.414-.336-.75-.75-.75s-.75.336-.75.75v3.69l-.72-.72c-.293-.293-.767-.293-1.06 0-.293.293-.293.767 0 1.06l2 2c.14.141.331.22.53.22s.39-.079.53-.22l2-2c.293-.293.293-.767 0-1.06-.293-.293-.767-.293-1.06 0l-.72.72v-3.69Z"/><path fill-rule="evenodd" d="M16.5 10.615c1.295-.725 1.961-2.36 1.315-3.868l-.155-.36-2.196-3.195c-.513-.746-1.36-1.192-2.266-1.192h-.073c-.414 0-.75.336-.75.75s.336.75.75.75h.073c.412 0 .797.203 1.03.542l2.112 3.072.096.224c.439 1.024-.312 2.162-1.425 2.162-.642 0-1.229-.363-1.516-.937l-.324-.648c-.052-.103-.124-.19-.209-.256-.073-.057-.159-.102-.253-.13-.093-.026-.19-.035-.288-.025l-.055.008c-.081.015-.159.043-.23.082-.084.047-.156.107-.214.178-.07.083-.122.184-.15.296l-.038.152c-.186.747-.874 1.28-1.655 1.28-.871 0-1.639-.593-1.85-1.426l-.013-.046c-.027-.089-.07-.169-.124-.238-.065-.084-.149-.155-.249-.207-.083-.043-.175-.07-.27-.08-.052-.005-.105-.004-.159.002-.037.004-.075.011-.111.021-.106.03-.2.08-.28.145-.07.057-.13.128-.177.211l-.02.039-.35.699c-.27.54-.82.88-1.424.88-1.143 0-1.914-1.169-1.463-2.22l.071-.166 2.112-3.072c.233-.34.618-.542 1.03-.542h.073c.414 0 .75-.336.75-.75s-.336-.75-.75-.75h-.073c-.906 0-1.753.446-2.266 1.192l-2.196 3.194-.13.303c-.648 1.512.005 3.15 1.29 3.897v5.664c0 .966.784 1.75 1.75 1.75h9.5c.966 0 1.75-.784 1.75-1.75v-5.635Zm-1.5.385c-.96-.003-1.853-.437-2.45-1.157-.598.716-1.499 1.157-2.471 1.157-1.014 0-1.955-.451-2.59-1.188-.58.741-1.474 1.188-2.437 1.188h-.052v5.25c0 .138.112.25.25.25h4.5v-3.25c0-.552.448-1 1-1h1.5c.552 0 1 .448 1 1v3.25h1.5c.138 0 .25-.112.25-.25v-5.25Z"/></svg>