<svg xmlns="http://www.w3.org/2000/svg" viewBox="0 0 16 16"><path d="M10.278 1c.844 0 1.641.387 2.162 1.051l2.16 2.75.01.013c.736 1.03.238 2.396-.831 2.811h-1.17c-.475 0-.915-.244-1.166-.646l-.663-1.06c-.112-.18-.302-.283-.499-.293l-.03-.001c-.114 0-.229.03-.332.095-.088.055-.157.127-.206.21-.02.033-.037.068-.05.105-.008.022-.015.045-.02.068l-.075.298c-.18.72-.826 1.224-1.568 1.224-.742 0-1.388-.505-1.568-1.224l-.075-.298c-.005-.022-.011-.043-.019-.064-.014-.04-.032-.077-.053-.112-.05-.082-.118-.153-.204-.207-.103-.065-.218-.095-.332-.095h-.029c-.197.01-.387.113-.5.294l-.662 1.06c-.252.402-.692.646-1.166.646h-1.17c-1.07-.415-1.568-1.781-.832-2.81l.01-.015 2.16-2.749c.521-.664 1.318-1.051 2.162-1.051h4.556Z"/><path fill-rule="evenodd" d="M2.5 8.875v4.375c0 .966.784 1.75 1.75 1.75h7.5c.966 0 1.75-.784 1.75-1.75v-4.375h-.892c-.905 0-1.746-.466-2.226-1.234l-.012-.02c-.522.767-1.4 1.254-2.37 1.254-.97 0-1.848-.487-2.37-1.254l-.012.02c-.48.768-1.321 1.234-2.226 1.234h-.892Zm8.5 2.475c0-.552-.448-1-1-1h-1c-.552 0-1 .448-1 1v2.4c0 .138.112.25.25.25h2.5c.138 0 .25-.112.25-.25v-2.4Z"/></svg>