<svg xmlns="http://www.w3.org/2000/svg" viewBox="0 0 20 20"><path fill-rule="evenodd" d="M13.257 3h-6.514a1.25 1.25 0 0 0-.983.478l-2.386 3.037a1.75 1.75 0 0 0-.374 1.08v.655a2.75 2.75 0 0 0 1.5 2.45v4.55c0 .966.784 1.75 1.75 1.75h7.5a1.75 1.75 0 0 0 1.75-1.75v-4.55a2.75 2.75 0 0 0 1.5-2.45v-.481c0-.504-.17-.994-.48-1.39l-2.28-2.901a1.25 1.25 0 0 0-.983-.478Zm-.257 12.5h.75a.25.25 0 0 0 .25-.25v-4.25a2.742 2.742 0 0 1-2-.863 2.742 2.742 0 0 1-2 .863 2.742 2.742 0 0 1-2-.863 2.742 2.742 0 0 1-2 .863v4.25c0 .138.112.25.25.25h3.75v-2.5a1 1 0 0 1 1-1h1a1 1 0 0 1 1 1v2.5Zm-7-6h-.25c-.69 0-1.25-.56-1.25-1.25v-.654a.25.25 0 0 1 .053-.155l2.312-2.941h6.27l2.205 2.805a.75.75 0 0 1 .16.464v.481c0 .69-.56 1.25-1.25 1.25h-.25c-.69 0-1.25-.56-1.25-1.25v-.5a.75.75 0 0 0-1.5 0v.5a1.25 1.25 0 1 1-2.5 0v-.5a.75.75 0 0 0-1.5 0v.5c0 .69-.56 1.25-1.25 1.25Z"/></svg>