<svg xmlns="http://www.w3.org/2000/svg" viewBox="0 0 20 20"><path d="M12.278 3a2.75 2.75 0 0 1 2.162 1.051l2.16 2.75.01.013c.736 1.03.238 2.396-.831 2.811h-1.17c-.475 0-.915-.244-1.166-.646l-.663-1.06a.624.624 0 0 0-1.137.184l-.075.298a1.616 1.616 0 0 1-3.136 0l-.075-.298a.628.628 0 0 0-.637-.477.624.624 0 0 0-.5.293l-.662 1.06a1.375 1.375 0 0 1-1.166.646h-1.17c-1.07-.415-1.568-1.781-.832-2.81l.01-.015 2.16-2.749a2.75 2.75 0 0 1 2.162-1.051h4.556Z"/><path fill-rule="evenodd" d="M4.5 10.875v4.375c0 .966.784 1.75 1.75 1.75h7.5a1.75 1.75 0 0 0 1.75-1.75v-4.375h-.892a2.625 2.625 0 0 1-2.226-1.234l-.012-.02a2.866 2.866 0 0 1-4.74 0l-.012.02a2.625 2.625 0 0 1-2.226 1.234h-.892Zm8.5 2.475a1 1 0 0 0-1-1h-1a1 1 0 0 0-1 1v2.4c0 .138.112.25.25.25h2.5a.25.25 0 0 0 .25-.25v-2.4Z"/></svg>