<svg xmlns="http://www.w3.org/2000/svg" viewBox="0 0 20 20"><path fill-rule="evenodd" d="M13.198 2c.905 0 1.753.446 2.266 1.192l2.196 3.194.155.361c.646 1.508-.02 3.143-1.315 3.868v5.635c0 .966-.784 1.75-1.75 1.75h-9.5c-.966 0-1.75-.784-1.75-1.75v-5.664c-1.285-.748-1.938-2.385-1.29-3.897l.13-.303 2.196-3.194c.513-.746 1.36-1.192 2.266-1.192h6.396Zm-8.198 9v5.25c0 .138.112.25.25.25h4.5v-3.25c0-.552.448-1 1-1h1.5c.552 0 1 .448 1 1v3.25h1.5c.138 0 .25-.112.25-.25v-5.25c-.96-.003-1.853-.437-2.45-1.157-.598.716-1.499 1.157-2.471 1.157-1.014 0-1.955-.451-2.59-1.188-.58.741-1.474 1.188-2.437 1.188h-.052Zm1.846-3.118-.02.039-.35.699c-.27.54-.82.88-1.424.88-1.143 0-1.914-1.169-1.463-2.22l.071-.166 2.112-3.072c.233-.34.618-.542 1.03-.542h6.396c.412 0 .797.203 1.03.542l2.112 3.072.096.224c.439 1.024-.312 2.162-1.425 2.162-.642 0-1.229-.363-1.516-.937l-.324-.648c-.052-.103-.124-.19-.209-.256-.073-.057-.159-.102-.254-.13-.044-.012-.09-.021-.136-.026-.043-.004-.086-.004-.13-.001-.045.003-.09.011-.135.023-.06.016-.117.04-.17.07-.085.046-.157.106-.215.177-.07.083-.122.184-.15.296l-.038.152c-.186.747-.874 1.28-1.655 1.28-.871 0-1.639-.593-1.85-1.426l-.013-.046c-.027-.089-.07-.169-.124-.238-.065-.084-.149-.155-.249-.207-.028-.014-.056-.027-.086-.038-.06-.022-.122-.036-.184-.042-.092-.009-.183 0-.27.023-.106.03-.2.08-.28.145-.07.057-.13.128-.177.211Z"/></svg>