<svg xmlns="http://www.w3.org/2000/svg" viewBox="0 0 20 20"><path fill-rule="evenodd" d="M12.278 3a2.75 2.75 0 0 1 2.162 1.051l2.087 2.656c.073.093.136.193.19.298l.079.159c.662 1.324.103 2.824-1.052 3.488a.75.75 0 0 1 .006.098v.75a2.75 2.75 0 0 1-2.75 2.75h-.5v1.25h.75a.75.75 0 0 1 0 1.5h-6.5a.75.75 0 0 1 0-1.5h.75v-1.25h-.5a2.75 2.75 0 0 1-2.75-2.75v-.75c0-.033.002-.066.006-.098-1.155-.664-1.714-2.164-1.051-3.488l.079-.159a1.75 1.75 0 0 1 .189-.298l2.087-2.656a2.75 2.75 0 0 1 2.162-1.051h4.556Zm-6.528 7.994v.506c0 .69.56 1.25 1.25 1.25h6c.69 0 1.25-.56 1.25-1.25v-.506a2.651 2.651 0 0 1-1.955-1.066 2.99 2.99 0 0 1-4.59 0 2.651 2.651 0 0 1-1.955 1.066Zm2.602-3.192a.747.747 0 0 0-.855-.258.747.747 0 0 0-.418.37l-.474.95a1.15 1.15 0 1 1-2.059-1.03l.08-.158a.25.25 0 0 1 .026-.042l2.087-2.656c.237-.302.6-.478.983-.478h4.556c.383 0 .746.176.983.478l2.087 2.656c.01.013.019.027.027.042l.079.159a1.15 1.15 0 0 1-2.059 1.029l-.474-.95a.746.746 0 0 0-1.006-.335.747.747 0 0 0-.394.496l-.074.295a1.491 1.491 0 0 1-2.894 0l-.074-.295a.75.75 0 0 0-.127-.273Zm.648 6.448v1.25h2v-1.25h-2Z"/></svg>