<svg xmlns="http://www.w3.org/2000/svg" viewBox="0 0 16 16"><path fill-rule="evenodd" d="M11.257 1h-6.514c-.384 0-.746.176-.983.478l-2.386 3.037c-.242.308-.374.689-.374 1.08v.655c0 1.069.61 1.995 1.5 2.45v4.55c0 .966.784 1.75 1.75 1.75h7.5c.966 0 1.75-.784 1.75-1.75v-4.55c.89-.455 1.5-1.381 1.5-2.45v-.481c0-.504-.17-.994-.48-1.39l-2.28-2.901c-.237-.302-.6-.478-.983-.478Zm-.257 12.5h.75c.138 0 .25-.112.25-.25v-4.25c-.788 0-1.499-.331-2-.863-.501.532-1.212.863-2 .863s-1.499-.331-2-.863c-.501.532-1.212.863-2 .863v4.25c0 .138.112.25.25.25h3.75v-2.5c0-.552.448-1 1-1h1c.552 0 1 .448 1 1v2.5Zm-7-6h-.25c-.69 0-1.25-.56-1.25-1.25v-.654c0-.056.019-.11.053-.155l2.312-2.941h6.27l2.205 2.805c.104.133.16.296.16.464v.481c0 .69-.56 1.25-1.25 1.25h-.25c-.69 0-1.25-.56-1.25-1.25v-.5c0-.414-.336-.75-.75-.75s-.75.336-.75.75v.5c0 .69-.56 1.25-1.25 1.25s-1.25-.56-1.25-1.25v-.5c0-.414-.336-.75-.75-.75s-.75.336-.75.75v.5c0 .69-.56 1.25-1.25 1.25Z"/></svg>