<svg xmlns="http://www.w3.org/2000/svg" viewBox="0 0 20 20"><path fill-rule="evenodd" d="M13.198 2c.905 0 1.753.446 2.266 1.192l2.196 3.194.155.361c.603 1.408.063 2.926-1.065 3.712v1.291c0 1.519-1.231 2.75-2.75 2.75h-1v2h.75c.414 0 .75.336.75.75s-.336.75-.75.75h-7.5c-.414 0-.75-.336-.75-.75s.336-.75.75-.75h.75v-2h-1c-1.519 0-2.75-1.231-2.75-2.75v-1.327c-1.116-.804-1.644-2.324-1.04-3.734l.13-.303 2.196-3.194c.513-.746 1.36-1.192 2.266-1.192h6.396Zm-8.448 8.986v.764c0 .69.56 1.25 1.25 1.25h8c.69 0 1.25-.56 1.25-1.25v-.759c-.079.006-.158.009-.24.009-.963 0-1.861-.434-2.46-1.157-.598.716-1.498 1.157-2.47 1.157-1.015 0-1.956-.451-2.591-1.188-.58.741-1.474 1.188-2.437 1.188-.102 0-.203-.005-.302-.014Zm2.096-3.104-.02.039-.35.699c-.27.54-.82.88-1.424.88-1.143 0-1.914-1.169-1.463-2.22l.071-.166 2.112-3.072c.233-.34.618-.542 1.03-.542h6.396c.412 0 .797.203 1.03.542l2.112 3.072.096.224c.439 1.024-.312 2.162-1.425 2.162-.642 0-1.229-.363-1.516-.937l-.324-.648c-.052-.103-.124-.19-.209-.256-.073-.057-.159-.102-.253-.13-.045-.012-.09-.021-.137-.026-.043-.004-.086-.004-.129-.001-.046.003-.091.011-.136.023-.06.016-.117.04-.17.07-.085.046-.157.106-.215.177-.07.083-.122.184-.15.296l-.038.152c-.186.747-.874 1.28-1.655 1.28-.871 0-1.639-.593-1.85-1.426l-.013-.046c-.027-.089-.07-.169-.124-.238-.065-.084-.148-.155-.249-.207-.028-.014-.056-.027-.086-.038-.06-.022-.122-.036-.184-.042-.092-.009-.183 0-.27.023-.106.03-.2.08-.28.145-.07.057-.13.128-.177.211Zm1.654 6.618v2h3v-2h-3Z"/></svg>