<svg xmlns="http://www.w3.org/2000/svg" viewBox="0 0 16 16"><path fill-rule="evenodd" d="M11.96.5c.448 0 .863.24 1.085.63l1.79 3.133c.108.188.165.402.165.62v.867c0 .965-.497 1.815-1.25 2.305v1.445c0 1.519-1.231 2.75-2.75 2.75h-.5v1.25h.75c.414 0 .75.336.75.75s-.336.75-.75.75h-6.5c-.414 0-.75-.336-.75-.75s.336-.75.75-.75h.75v-1.25h-.5c-1.519 0-2.75-1.231-2.75-2.75v-1.445c-.753-.49-1.25-1.34-1.25-2.305v-.867c0-.218.057-.432.165-.62l1.79-3.133c.222-.39.637-.63 1.085-.63h7.92Zm-7.775 1.5-1.685 2.95v.8c0 .69.56 1.25 1.25 1.25h.25c.69 0 1.25-.56 1.25-1.25v-.5c0-.414.336-.75.75-.75s.75.336.75.75v.5c0 .69.56 1.25 1.25 1.25s1.25-.56 1.25-1.25v-.5c0-.414.336-.75.75-.75s.75.336.75.75v.5c0 .69.56 1.25 1.25 1.25h.25c.69 0 1.25-.56 1.25-1.25v-.8l-1.685-2.95h-7.63Zm8.065 6.5h-.25c-.788 0-1.499-.331-2-.863-.501.532-1.212.863-2 .863s-1.499-.331-2-.863c-.501.532-1.212.863-2 .863h-.25v1c0 .69.56 1.25 1.25 1.25h6c.69 0 1.25-.56 1.25-1.25v-1Zm-5.25 5v-1.25h2v1.25h-2Z"/></svg>