<svg viewBox="0 0 20 20" xmlns="http://www.w3.org/2000/svg"><path fill-rule="evenodd" d="M13.96 2.5c.448 0 .863.24 1.085.63l1.79 3.133c.108.188.165.402.165.62v.867a2.75 2.75 0 0 1-1.5 2.45v5.55a1.75 1.75 0 0 1-1.75 1.75h-7.5a1.75 1.75 0 0 1-1.75-1.75v-5.55a2.75 2.75 0 0 1-1.5-2.45v-.867c0-.218.057-.432.165-.62l1.79-3.133a1.25 1.25 0 0 1 1.085-.63h7.92Zm-7.775 1.5-1.685 2.95v.8c0 .69.56 1.25 1.25 1.25h.25c.69 0 1.25-.56 1.25-1.25v-.5a.75.75 0 0 1 1.5 0v.5a1.25 1.25 0 1 0 2.5 0v-.5a.75.75 0 0 1 1.5 0v.5c0 .69.56 1.25 1.25 1.25h.25c.69 0 1.25-.56 1.25-1.25v-.8l-1.685-2.95h-7.63Zm7.815 6.5a2.742 2.742 0 0 1-2-.863 2.742 2.742 0 0 1-2 .863 2.742 2.742 0 0 1-2-.863 2.742 2.742 0 0 1-2 .863v5.25c0 .138.112.25.25.25h2.25v-2.5a1 1 0 0 1 1-1h1a1 1 0 0 1 1 1v2.5h2.25a.25.25 0 0 0 .25-.25v-5.25Z" fill="#5C5F62"/></svg>