<svg xmlns="http://www.w3.org/2000/svg" viewBox="0 0 16 16"><path d="M8.75.75c0-.414-.336-.75-.75-.75s-.75.336-.75.75v2.69l-.47-.47c-.293-.293-.767-.293-1.06 0-.293.293-.293.767 0 1.06l1.75 1.75c.14.141.331.22.53.22s.39-.079.53-.22l1.75-1.75c.293-.293.293-.767 0-1.06-.293-.293-.767-.293-1.06 0l-.47.47v-2.69Z"/><path fill-rule="evenodd" d="M13.5 8.776v4.474c0 .966-.784 1.75-1.75 1.75h-7.5c-.966 0-1.75-.784-1.75-1.75v-4.474c-1.317-.583-2.003-2.198-1.295-3.612l.079-.159c.053-.105.116-.205.189-.298l2.378-3.027c.338-.43.853-.68 1.399-.68.414 0 .75.336.75.75s-.336.75-.75.75c-.086 0-.166.04-.22.107l-2.378 3.027c-.01.013-.019.027-.027.042l-.079.159c-.382.765.174 1.665 1.03 1.665.435 0 .834-.246 1.029-.636l.474-.95c.09-.18.243-.307.418-.37.186-.067.398-.06.588.035.192.096.325.263.383.454l.011.042.074.295c.166.664.763 1.13 1.447 1.13s1.28-.466 1.447-1.13l.074-.295.012-.045c.026-.084.065-.16.116-.228.067-.091.157-.169.266-.223.19-.095.402-.102.588-.035.068.024.131.058.188.099.094.068.174.16.23.272l.475.949c.194.39.593.636 1.029.636.855 0 1.411-.9 1.029-1.665l-.08-.159c-.007-.015-.016-.03-.026-.042l-2.379-3.027c-.053-.068-.133-.107-.219-.107-.414 0-.75-.336-.75-.75s.336-.75.75-.75c.546 0 1.061.25 1.399.68l2.378 3.027c.073.093.136.193.19.298l.079.159c.707 1.414.02 3.03-1.296 3.612Zm-1.5.19v4.284c0 .138-.112.25-.25.25h-.75v-2.5c0-.552-.448-1-1-1h-1c-.552 0-1 .448-1 1v2.5h-3.75c-.138 0-.25-.112-.25-.25v-4.284c.682-.11 1.294-.484 1.705-1.038.555.663 1.386 1.072 2.295 1.072s1.74-.41 2.295-1.072c.41.554 1.023.927 1.705 1.038Z"/></svg>