<svg xmlns="http://www.w3.org/2000/svg" viewBox="0 0 16 16"><path fill-rule="evenodd" d="M10.278 1c.844 0 1.641.387 2.162 1.051l2.087 2.656c.073.093.136.193.19.298l.079.159c.707 1.414.02 3.03-1.296 3.612v1.599c0 .414-.336.75-.75.75s-.75-.336-.75-.75v-1.41c-.682-.11-1.294-.483-1.705-1.037-.555.663-1.386 1.072-2.295 1.072s-1.74-.41-2.295-1.072c-.41.554-1.023.927-1.705 1.038v4.284c0 .138.112.25.25.25h3.5c.414 0 .75.336.75.75s-.336.75-.75.75h-3.5c-.966 0-1.75-.784-1.75-1.75v-4.474c-1.317-.583-2.003-2.198-1.295-3.612l.079-.159c.053-.105.116-.205.189-.298l2.087-2.656c.521-.664 1.318-1.051 2.162-1.051h4.556Zm-3.926 4.802c-.068-.091-.158-.169-.267-.223-.19-.095-.402-.102-.588-.035-.175.063-.328.19-.418.37l-.474.95c-.195.39-.594.636-1.03.636-.855 0-1.411-.9-1.029-1.665l.08-.159c.007-.015.016-.03.026-.042l2.087-2.656c.237-.302.6-.478.983-.478h4.556c.383 0 .746.176.983.478l2.087 2.656c.01.013.019.027.027.042l.079.159c.382.765-.174 1.665-1.03 1.665-.435 0-.834-.246-1.028-.636l-.475-.95c-.056-.111-.136-.203-.23-.271-.057-.041-.12-.075-.189-.1-.185-.066-.397-.06-.587.036-.109.054-.199.132-.266.223-.05.067-.09.144-.116.228l-.012.045-.074.295c-.166.664-.763 1.13-1.447 1.13s-1.28-.466-1.447-1.13l-.074-.295-.011-.042c-.026-.086-.066-.163-.116-.231Z"/><path d="M15.78 12.28c.293-.293.293-.767 0-1.06-.292-.293-.767-.293-1.06 0l-2.97 2.97-1.22-1.22c-.292-.293-.767-.293-1.06 0-.293.293-.293.767 0 1.06l1.75 1.75c.293.293.768.293 1.06 0l3.5-3.5Z"/></svg>