<svg xmlns="http://www.w3.org/2000/svg" viewBox="0 0 20 20"><path d="M15.473 3.292c-.502-.804-1.383-1.292-2.332-1.292h-6.283c-.948 0-1.829.488-2.332 1.292l-1.918 3.07-.067.115c-.11.19-.195.385-.255.582-.204 1.237.745 2.441 2.08 2.441h.263c.863 0 1.651-.487 2.037-1.259l.16-.321.016-.03c.048-.089.112-.164.187-.224.078-.063.17-.11.271-.139.04-.01.079-.018.119-.023.054-.006.108-.006.16 0 .056.006.112.018.166.037.037.013.072.028.107.047.094.05.173.117.236.196.059.074.105.161.132.257l.009.032c.21.833.978 1.427 1.85 1.427.781 0 1.469-.533 1.655-1.28.007-.025.014-.05.023-.075.034-.235.179-.451.408-.566.37-.185.82-.035 1.006.336l.127.253c.408.816 1.242 1.332 2.155 1.332h.18c1.369 0 2.332-1.265 2.064-2.533-.054-.146-.121-.29-.204-.431l-.101-.174-1.918-3.07Z"/><path fill-rule="evenodd" d="M16.5 10.897c-.275.067-.565.103-.866.103h-.181c-1.094 0-2.118-.456-2.846-1.228-.596.758-1.524 1.228-2.528 1.228-1.043 0-2.008-.477-2.643-1.25-.706.784-1.721 1.25-2.807 1.25h-.263c-.301 0-.59-.036-.866-.103v5.353c0 .966.784 1.75 1.75 1.75h9.5c.966 0 1.75-.784 1.75-1.75v-5.353Zm-4.25 1.453c.552 0 1 .448 1 1v2.9c0 .138-.112.25-.25.25h-3c-.138 0-.25-.112-.25-.25v-2.9c0-.552.448-1 1-1h1.5Z"/></svg>