<svg width="20" height="20" viewBox="0 0 20 20" fill="none" xmlns="http://www.w3.org/2000/svg">
<path d="M12.2779 3C13.1218 3 13.919 3.38744 14.4403 4.05099L16.6003 6.80012L16.6103 6.81407C17.3459 7.84395 16.8481 9.20962 15.7787 9.62496H14.6085C14.1344 9.62496 13.6938 9.38073 13.4425 8.97871L12.78 7.91871C12.6675 7.73867 12.4783 7.6357 12.2812 7.62568C12.2711 7.62517 12.2611 7.62491 12.2511 7.62488C12.1374 7.62458 12.0223 7.65526 11.9188 7.71996C11.8314 7.77458 11.7621 7.84726 11.7129 7.93014C11.6933 7.96312 11.6765 7.99828 11.663 8.03537C11.6549 8.05745 11.6481 8.07995 11.6426 8.10276L11.5681 8.40069C11.3882 9.12024 10.7417 9.62503 10 9.62503C9.25831 9.62503 8.6118 9.12024 8.43191 8.40069L8.35737 8.10255C8.35218 8.08114 8.34586 8.06001 8.33844 8.03924C8.32422 7.99938 8.30624 7.96173 8.28501 7.92659C8.23589 7.84519 8.1674 7.7738 8.08126 7.71996C7.97774 7.65526 7.86261 7.62458 7.74893 7.62488C7.73942 7.6249 7.72988 7.62515 7.72033 7.62561C7.52269 7.63518 7.33282 7.73821 7.22001 7.91871L6.55751 8.97871C6.30624 9.38073 5.8656 9.62496 5.39151 9.62496H4.22132C3.1519 9.20962 2.65408 7.84395 3.38971 6.81407L3.39967 6.80012L5.5597 4.05099C6.08106 3.38744 6.87821 3 7.72208 3H12.2779Z" fill="#4A4A4A"/>
<path fill-rule="evenodd" clip-rule="evenodd" d="M4.50001 10.875V15.25C4.50001 16.2165 5.28351 17 6.25001 17H13.75C14.7165 17 15.5 16.2165 15.5 15.25V10.875H14.6085C13.7034 10.875 12.8622 10.4087 12.3825 9.64121L12.37 9.62126C11.8478 10.3884 10.9698 10.875 10 10.875C9.03023 10.875 8.15221 10.3884 7.62998 9.62126L7.61751 9.64121C7.13782 10.4087 6.29659 10.875 5.39151 10.875H4.50001ZM13 13.35C13 12.7977 12.5523 12.35 12 12.35H11C10.4477 12.35 10 12.7977 10 13.35V15.75C10 15.888 10.1119 16 10.25 16H12.75C12.8881 16 13 15.888 13 15.75V13.35Z" fill="#4A4A4A"/>
</svg>
