<svg xmlns="http://www.w3.org/2000/svg" viewBox="0 0 16 16"><path d="M8 0c.414 0 .75.336.75.75v1.5c0 .414-.336.75-.75.75s-.75-.336-.75-.75v-1.5c0-.414.336-.75.75-.75Z"/><path fill-rule="evenodd" d="M4.25 8c0-2.071 1.679-3.75 3.75-3.75 2.071 0 3.75 1.679 3.75 3.75 0 2.071-1.679 3.75-3.75 3.75-2.071 0-3.75-1.679-3.75-3.75Zm3.75-2.25c-1.243 0-2.25 1.007-2.25 2.25s1.007 2.25 2.25 2.25 2.25-1.007 2.25-2.25-1.007-2.25-2.25-2.25Z"/><path d="M8.75 13.75c0-.414-.336-.75-.75-.75s-.75.336-.75.75v1.5c0 .414.336.75.75.75s.75-.336.75-.75v-1.5Z"/><path d="M0 7.75c0-.414.336-.75.75-.75h1.5c.414 0 .75.336.75.75s-.336.75-.75.75h-1.5c-.414 0-.75-.336-.75-.75Z"/><path d="M13.75 7c-.414 0-.75.336-.75.75s.336.75.75.75h1.5c.414 0 .75-.336.75-.75s-.336-.75-.75-.75h-1.5Z"/><path d="M2.52 2.166c.293-.292.768-.292 1.061 0l1.06 1.061c.294.293.294.768 0 1.06-.292.294-.767.294-1.06 0l-1.06-1.06c-.293-.293-.293-.768 0-1.06Z"/><path d="M12.773 11.359c-.293-.293-.768-.293-1.061 0-.293.293-.293.768 0 1.06l1.06 1.061c.293.293.768.293 1.061 0 .293-.293.293-.768 0-1.06l-1.06-1.061Z"/><path d="M2.167 13.48c-.293-.293-.293-.768 0-1.06l1.06-1.061c.294-.293.768-.293 1.061 0 .293.293.293.767 0 1.06l-1.06 1.06c-.293.294-.768.294-1.061 0Z"/><path d="M11.358 3.227c-.293.293-.293.768 0 1.06.293.293.768.293 1.061 0l1.06-1.06c.294-.293.294-.768 0-1.06-.292-.294-.767-.294-1.06 0l-1.06 1.06Z"/></svg>