<svg xmlns="http://www.w3.org/2000/svg" viewBox="0 0 20 20"><path d="M8 12.25c0-.414.373-.75.833-.75h2.334c.46 0 .833.336.833.75s-.373.75-.833.75h-2.334c-.46 0-.833-.336-.833-.75Z"/><path fill-rule="evenodd" d="M4.75 4.5c-1.519 0-2.75 1.231-2.75 2.75v5.5c0 1.519 1.231 2.75 2.75 2.75h10.5c1.519 0 2.75-1.231 2.75-2.75v-5.5c0-1.519-1.231-2.75-2.75-2.75h-10.5Zm-1.25 2.75c0-.69.56-1.25 1.25-1.25h10.5c.69 0 1.25.56 1.25 1.25v5.5c0 .69-.56 1.25-1.25 1.25h-10.5c-.69 0-1.25-.56-1.25-1.25v-5.5Z" clip-rule="evenodd"/></svg>