<svg xmlns="http://www.w3.org/2000/svg" viewBox="0 0 20 20"><path d="M5.75 7.5c-.69 0-1.25.56-1.25 1.25v3c0 .69.56 1.25 1.25 1.25h6.422c.331 0 .649-.132.883-.366l2.208-2.207c.097-.098.097-.256 0-.354l-2.207-2.207c-.235-.234-.553-.366-.884-.366h-6.422Zm-2.75 1.25c0-1.519 1.231-2.75 2.75-2.75h6.422c.729 0 1.428.29 1.944.805l2.207 2.208c.684.683.684 1.791 0 2.474l-2.207 2.207c-.516.516-1.215.806-1.944.806h-6.422c-1.519 0-2.75-1.231-2.75-2.75v-3Z"/><path d="M6 10.25c0-.414.336-.75.75-.75h4.5c.414 0 .75.336.75.75s-.336.75-.75.75h-4.5c-.414 0-.75-.336-.75-.75Z"/></svg>