<svg xmlns="http://www.w3.org/2000/svg" viewBox="0 0 16 16"><path d="M2.75 8c0-2.9 2.35-5.25 5.25-5.25s5.25 2.35 5.25 5.25c0 .414.336.75.75.75s.75-.336.75-.75c0-3.728-3.022-6.75-6.75-6.75s-6.75 3.022-6.75 6.75 3.022 6.75 6.75 6.75c.414 0 .75-.336.75-.75s-.336-.75-.75-.75c-2.9 0-5.25-2.35-5.25-5.25Z"/><path d="M9.537 7.805c.058.41.437.696.847.639.41-.058.696-.437.639-.847-.077-.548-.304-1.064-.656-1.491-.352-.427-.815-.748-1.338-.928-.524-.18-1.086-.213-1.626-.093-.54.12-1.037.387-1.435.771-.398.384-.682.871-.82 1.407-.14.536-.127 1.1.035 1.628.162.53.467 1.003.881 1.37.414.367.922.611 1.467.708.408.071.797-.2.869-.609.072-.408-.2-.797-.609-.869-.272-.048-.526-.17-.733-.353-.207-.184-.36-.42-.44-.685-.081-.265-.088-.547-.018-.814.069-.268.21-.512.41-.704.199-.192.447-.325.717-.385.27-.06.552-.044.813.046.262.09.493.25.67.464.175.213.289.471.327.745Z"/><path d="M9.61 8.973c-.18-.064-.383-.018-.519.118-.136.136-.182.338-.118.52l2.121 6.01c.062.174.214.3.396.328.182.028.365-.046.475-.193l1.172-1.558 1.038 1.037c.195.196.511.196.707 0l.353-.353c.196-.195.196-.512 0-.707l-1.037-1.038 1.557-1.171c.148-.111.222-.294.194-.476-.028-.182-.154-.334-.328-.396l-6.01-2.12Z"/></svg>