<svg xmlns="http://www.w3.org/2000/svg" viewBox="0 0 20 20"><path d="M3.75 10c0-3.452 2.798-6.25 6.25-6.25s6.25 2.798 6.25 6.25c0 .414.336.75.75.75s.75-.336.75-.75c0-4.28-3.47-7.75-7.75-7.75-4.28 0-7.75 3.47-7.75 7.75 0 4.28 3.47 7.75 7.75 7.75.414 0 .75-.336.75-.75s-.336-.75-.75-.75c-3.452 0-6.25-2.798-6.25-6.25Z"/><path d="M11.927 9.726c.058.41.437.696.847.638.41-.058.696-.437.639-.847-.09-.64-.355-1.241-.765-1.74-.411-.497-.951-.872-1.562-1.082-.61-.21-1.267-.248-1.897-.108-.63.14-1.21.451-1.674.9-.464.448-.795 1.016-.957 1.64-.161.626-.147 1.283.042 1.9.188.618.544 1.17 1.028 1.598.483.428 1.075.714 1.711.826.408.072.797-.2.869-.609.072-.407-.2-.796-.609-.868-.363-.064-.701-.228-.977-.472-.277-.244-.48-.56-.588-.913-.108-.353-.116-.729-.024-1.086.093-.357.282-.681.547-.938.266-.256.597-.434.957-.514.36-.08.735-.058 1.084.062.349.12.657.334.892.619s.386.628.437.994Z"/><path d="M11.714 11.12c-.181-.065-.383-.019-.52.117-.136.136-.182.339-.117.52l2.507 7.104c.061.173.213.3.395.327.182.028.365-.046.476-.193l1.447-1.925 1.3 1.3c.196.195.512.195.708 0l.417-.418c.196-.195.196-.511 0-.707l-1.3-1.3 1.925-1.447c.147-.111.221-.294.193-.476-.028-.182-.154-.334-.327-.396l-7.104-2.507Z"/></svg>