<svg xmlns="http://www.w3.org/2000/svg" viewBox="0 0 16 16"><path d="M3 8c0-2.761 2.239-5 5-5s5 2.239 5 5c0 .552.448 1 1 1s1-.448 1-1c0-3.866-3.134-7-7-7s-7 3.134-7 7 3.134 7 7 7c.552 0 1-.448 1-1s-.448-1-1-1c-2.761 0-5-2.239-5-5Z"/><path d="M9.29 7.84c.077.547.582.928 1.13.851.546-.077.927-.582.85-1.13-.083-.593-.33-1.152-.71-1.614-.382-.463-.883-.81-1.45-1.006-.567-.195-1.176-.23-1.762-.1-.585.13-1.123.419-1.554.835-.43.417-.738.944-.889 1.524-.15.58-.136 1.191.039 1.764.175.574.505 1.087.954 1.484.45.397 1 .663 1.59.767.543.096 1.062-.267 1.158-.811.096-.544-.267-1.063-.811-1.159-.227-.04-.439-.142-.611-.295-.173-.152-.3-.35-.367-.57-.068-.22-.073-.456-.015-.679.057-.223.176-.426.342-.586.165-.16.372-.271.597-.321.225-.05.46-.037.678.038.218.075.41.21.557.387.147.178.242.393.274.621Z"/><path d="M9.611 8.973c-.182-.064-.384-.018-.52.118-.136.136-.182.338-.118.52l2.121 6.01c.062.174.214.3.396.328.182.028.365-.046.475-.194l1.172-1.557 1.038 1.037c.195.196.511.196.707 0l.353-.353c.196-.196.196-.512 0-.707l-1.037-1.038 1.557-1.172c.148-.11.222-.293.194-.475-.028-.182-.154-.334-.328-.396l-6.01-2.121Z"/></svg>