<svg xmlns="http://www.w3.org/2000/svg" viewBox="0 0 20 20"><path d="M4 10c0-3.314 2.686-6 6-6s6 2.686 6 6c0 .552.448 1 1 1s1-.448 1-1c0-4.418-3.582-8-8-8s-8 3.582-8 8 3.582 8 8 8c.552 0 1-.448 1-1s-.448-1-1-1c-3.314 0-6-2.686-6-6Z"/><path d="M11.68 9.76c.077.547.582.928 1.13.852.546-.077.927-.583.85-1.13-.096-.685-.38-1.33-.82-1.863-.44-.534-1.018-.935-1.672-1.16-.654-.226-1.358-.266-2.033-.116-.675.15-1.296.483-1.793.964-.498.48-.853 1.089-1.026 1.758-.173.67-.158 1.374.045 2.035.202.662.583 1.254 1.1 1.713.519.458 1.154.764 1.835.884.543.096 1.062-.267 1.158-.811.096-.544-.267-1.063-.811-1.159-.318-.056-.614-.198-.856-.412-.242-.214-.42-.49-.514-.8-.094-.308-.101-.637-.02-.95.08-.312.246-.596.478-.82.232-.224.522-.38.837-.45.315-.07.643-.05.949.054.305.105.575.293.78.542.205.249.338.55.383.87Z"/><path d="M11.714 11.12c-.181-.065-.383-.019-.52.117-.136.136-.182.339-.117.52l2.507 7.104c.061.173.213.3.395.327.182.028.365-.046.476-.193l1.447-1.925 1.3 1.3c.196.195.512.195.708 0l.417-.418c.196-.195.196-.511 0-.707l-1.3-1.3 1.925-1.447c.147-.111.221-.294.193-.476-.028-.182-.154-.334-.327-.396l-7.104-2.507Z"/></svg>