<svg width="20" height="20" viewBox="0 0 20 20" fill="none" xmlns="http://www.w3.org/2000/svg">
<path d="M9.25 10C9.25 10.5523 8.80228 11 8.25 11C7.69772 11 7.25 10.5523 7.25 10C7.25 9.44772 7.69772 9 8.25 9C8.80228 9 9.25 9.44772 9.25 10Z" fill="#4A4A4A"/>
<path d="M12.75 14C12.75 14.5523 12.3023 15 11.75 15C11.1977 15 10.75 14.5523 10.75 14C10.75 13.4477 11.1977 13 11.75 13C12.3023 13 12.75 13.4477 12.75 14Z" fill="#4A4A4A"/>
<path fill-rule="evenodd" clip-rule="evenodd" d="M12.6919 9.30806C12.936 9.55214 12.936 9.94786 12.6919 10.1919L8.19194 14.6919C7.94786 14.936 7.55214 14.936 7.30806 14.6919C7.06398 14.4479 7.06398 14.0521 7.30806 13.8081L11.8081 9.30806C12.0521 9.06398 12.4479 9.06398 12.6919 9.30806Z" fill="#4A4A4A"/>
<path fill-rule="evenodd" clip-rule="evenodd" d="M8.02462 2.5C7.46282 2.5 7.00087 2.96667 7.11064 3.51765C7.30176 4.47689 7.72406 5.26169 8.2833 5.78504C6.77832 6.29985 5.5496 7.47756 4.99806 9.03485L3.8896 12.1646C2.96763 14.7678 4.89845 17.5 7.66011 17.5H12.3399C15.1015 17.5 17.0323 14.7678 16.1104 12.1646L15.0019 9.03485C14.4504 7.47757 13.2217 6.29986 11.7167 5.78505C12.2759 5.2617 12.6982 4.47689 12.8894 3.51765C12.9991 2.96667 12.5372 2.5 11.9754 2.5H8.02462ZM10 5C9.70461 5 9.17426 4.76874 8.8239 4H11.1761C10.8257 4.76874 10.2954 5 10 5ZM13.588 9.53562L14.6964 12.6654C15.2727 14.2924 14.0659 16 12.3399 16H7.66011C5.93408 16 4.72731 14.2924 5.30354 12.6654L6.412 9.53562C6.95027 8.01581 8.38767 7 9.99999 7C11.6123 7 13.0497 8.01581 13.588 9.53562Z" fill="#4A4A4A"/>
</svg>
