<svg width="20" height="20" viewBox="0 0 20 20" fill="none" xmlns="http://www.w3.org/2000/svg">
<path fill-rule="evenodd" clip-rule="evenodd" d="M7.13284 3.51743C7.00157 2.97001 7.46465 2.5 8.0276 2.5H11.9724C12.5354 2.5 12.9984 2.97001 12.8672 3.51743C12.6421 4.45587 12.1508 5.23646 11.5125 5.71978C13.11 6.19495 14.4256 7.4077 15.0019 9.03485L16.1104 12.1646C17.0323 14.7678 15.1015 17.5 12.3399 17.5H7.66011C4.89845 17.5 2.96763 14.7678 3.8896 12.1646L4.99806 9.03485C5.57435 7.40769 6.88994 6.19493 8.48752 5.71977C7.84917 5.23645 7.35789 4.45587 7.13284 3.51743ZM12.6919 9.30806C12.936 9.55214 12.936 9.94786 12.6919 10.1919L8.19194 14.6919C7.94786 14.936 7.55214 14.936 7.30806 14.6919C7.06398 14.4479 7.06398 14.0521 7.30806 13.8081L11.8081 9.30806C12.0521 9.06398 12.4479 9.06398 12.6919 9.30806ZM8 11C8.55228 11 9 10.5523 9 10C9 9.44772 8.55228 9 8 9C7.44772 9 7 9.44772 7 10C7 10.5523 7.44772 11 8 11ZM13 14C13 14.5523 12.5523 15 12 15C11.4477 15 11 14.5523 11 14C11 13.4477 11.4477 13 12 13C12.5523 13 13 13.4477 13 14Z" fill="#4A4A4A"/>
</svg>
