<svg xmlns="http://www.w3.org/2000/svg" viewBox="0 0 20 20"><path fill-rule="evenodd" d="M6.845 2.52c-.093-.554.368-1.02.93-1.02h4.45c.562 0 1.023.466.93 1.02-.19 1.139-.66 2.095-1.407 2.665 1.724.46 3.153 1.74 3.768 3.479l1.358 3.834c1.037 2.928-1.135 6.002-4.242 6.002h-5.264c-3.107 0-5.28-3.074-4.242-6.002l1.358-3.834c.615-1.738 2.044-3.02 3.769-3.48-.748-.569-1.218-1.525-1.408-2.664Zm1.405 8.48c.552 0 1-.448 1-1s-.448-1-1-1-1 .448-1 1 .448 1 1 1Zm3.5 4c.552 0 1-.448 1-1s-.448-1-1-1-1 .448-1 1 .448 1 1 1Zm.942-5.692c.244.244.244.64 0 .884l-4.5 4.5c-.244.244-.64.244-.884 0s-.244-.64 0-.884l4.5-4.5c.244-.244.64-.244.884 0Z"/></svg>