<svg xmlns="http://www.w3.org/2000/svg" viewBox="0 0 16 16"><path fill-rule="evenodd" d="M5.133 1.517c-.131-.547.332-1.017.895-1.017h3.944c.563 0 1.026.47.895 1.017-.225.939-.716 1.72-1.355 2.203 1.598.475 2.914 1.688 3.49 3.315l1.108 3.13c.922 2.603-1.008 5.335-3.77 5.335h-4.68c-2.762 0-4.692-2.732-3.77-5.335l1.108-3.13c.576-1.627 1.892-2.84 3.49-3.315-.639-.484-1.13-1.264-1.355-2.203Zm5.559 5.791c.244.244.244.64 0 .884l-4.5 4.5c-.244.244-.64.244-.884 0s-.244-.64 0-.884l4.5-4.5c.244-.244.64-.244.884 0Zm-4.692 1.692c.552 0 1-.448 1-1s-.448-1-1-1-1 .448-1 1 .448 1 1 1Zm5 3c0 .552-.448 1-1 1s-1-.448-1-1 .448-1 1-1 1 .448 1 1Z"/></svg>