<svg xmlns="http://www.w3.org/2000/svg" viewBox="0 0 20 20"><path d="M9.25 10c0 .552-.448 1-1 1s-1-.448-1-1 .448-1 1-1 1 .448 1 1Z"/><path d="M11.75 15c.552 0 1-.448 1-1s-.448-1-1-1-1 .448-1 1 .448 1 1 1Z"/><path d="M12.692 9.308c.244.244.244.64 0 .884l-4.5 4.5c-.244.244-.64.244-.884 0s-.244-.64 0-.884l4.5-4.5c.244-.244.64-.244.884 0Z"/><path fill-rule="evenodd" d="M7.775 1.5c-.562 0-1.022.465-.933 1.02.175 1.094.594 2.071 1.253 2.71-1.653.493-3.015 1.75-3.611 3.434l-1.358 3.834c-1.037 2.928 1.135 6.002 4.242 6.002h5.264c3.107 0 5.28-3.074 4.242-6.002l-1.358-3.834c-.596-1.685-1.958-2.941-3.611-3.435.66-.638 1.078-1.615 1.253-2.71.089-.554-.37-1.019-.933-1.019h-4.45Zm2.225 3c-.405 0-.712-.154-.986-.482-.203-.243-.386-.586-.523-1.018h3.018c-.137.432-.32.775-.523 1.018-.274.328-.581.482-.986.482Zm.332 2h-.664c-1.694 0-3.205 1.067-3.77 2.665l-1.358 3.834c-.692 1.952.756 4.001 2.828 4.001h5.264c2.072 0 3.52-2.05 2.828-4.002l-1.358-3.833c-.565-1.598-2.076-2.665-3.77-2.665Z"/></svg>