<svg xmlns="http://www.w3.org/2000/svg" viewBox="0 0 16 16"><path d="M7.25 8c0 .552-.448 1-1 1s-1-.448-1-1 .448-1 1-1 1 .448 1 1Z"/><path d="M10.75 12c0 .552-.448 1-1 1s-1-.448-1-1 .448-1 1-1 1 .448 1 1Z"/><path fill-rule="evenodd" d="M10.692 7.308c.244.244.244.64 0 .884l-4.5 4.5c-.244.244-.64.244-.884 0s-.244-.64 0-.884l4.5-4.5c.244-.244.64-.244.884 0Z"/><path fill-rule="evenodd" d="M6.025.5c-.562 0-1.024.467-.914 1.018.19.959.613 1.744 1.172 2.267-1.505.515-2.733 1.693-3.285 3.25l-1.108 3.13c-.922 2.603 1.008 5.335 3.77 5.335h4.68c2.761 0 4.692-2.732 3.77-5.335l-1.108-3.13c-.552-1.557-1.78-2.735-3.285-3.25.559-.523.981-1.308 1.172-2.267.11-.551-.352-1.018-.914-1.018h-3.95Zm1.975 2.5c-.295 0-.826-.231-1.176-1h2.352c-.35.769-.88 1-1.176 1Zm3.588 4.536 1.108 3.13c.577 1.626-.63 3.334-2.356 3.334h-4.68c-1.726 0-2.933-1.708-2.356-3.335l1.108-3.13c.538-1.52 1.976-2.535 3.588-2.535s3.05 1.016 3.588 2.536Z"/></svg>