<svg xmlns="http://www.w3.org/2000/svg" viewBox="0 0 16 16"><path fill-rule="evenodd" d="M4 2c-1.243 0-2.25 1.007-2.25 2.25s1.007 2.25 2.25 2.25 2.25-1.007 2.25-2.25-1.007-2.25-2.25-2.25Zm-.75 2.25c0-.414.336-.75.75-.75s.75.336.75.75-.336.75-.75.75-.75-.336-.75-.75Z"/><path fill-rule="evenodd" d="M8 5c-1.243 0-2.25 1.007-2.25 2.25s1.007 2.25 2.25 2.25 2.25-1.007 2.25-2.25-1.007-2.25-2.25-2.25Zm-.75 2.25c0-.414.336-.75.75-.75s.75.336.75.75-.336.75-.75.75-.75-.336-.75-.75Z"/><path fill-rule="evenodd" d="M9.75 4.25c0-1.243 1.007-2.25 2.25-2.25s2.25 1.007 2.25 2.25-1.007 2.25-2.25 2.25-2.25-1.007-2.25-2.25Zm2.25-.75c-.414 0-.75.336-.75.75s.336.75.75.75.75-.336.75-.75-.336-.75-.75-.75Z"/><path d="M12 7c-.414 0-.75.336-.75.75s.336.75.75.75h.75c.69 0 1.25.56 1.25 1.25v1.5c0 .414.336.75.75.75s.75-.336.75-.75v-1.5c0-1.519-1.231-2.75-2.75-2.75h-.75Z"/><path d="M4.75 7.75c0-.414-.336-.75-.75-.75h-.75c-1.519 0-2.75 1.231-2.75 2.75v1.5c0 .414.336.75.75.75s.75-.336.75-.75v-1.5c0-.69.56-1.25 1.25-1.25h.75c.414 0 .75-.336.75-.75Z"/><path d="M8.75 10c1.519 0 2.75 1.231 2.75 2.75v1c0 .414-.336.75-.75.75s-.75-.336-.75-.75v-1c0-.69-.56-1.25-1.25-1.25h-1.5c-.69 0-1.25.56-1.25 1.25v1c0 .414-.336.75-.75.75s-.75-.336-.75-.75v-1c0-1.519 1.231-2.75 2.75-2.75h1.5Z"/></svg>