<svg viewBox="0 0 20 20" xmlns="http://www.w3.org/2000/svg">
<path d="M15.8333 3H11.5556V7H17V4.16667C17 3.85725 16.8771 3.5605 16.6583 3.34171C16.4395 3.12292 16.1428 3 15.8333 3ZM17 9H13V17H15.8333C16.1428 17 16.4395 16.8771 16.6583 16.6583C16.8771 16.4395 17 16.1428 17 15.8333V9ZM3 9H11V17H4.16667C3.85725 17 3.5605 16.8771 3.34171 16.6583C3.12292 16.4395 3 16.1428 3 15.8333V9ZM4.16667 3C3.85725 3 3.5605 3.12292 3.34171 3.34171C3.12292 3.5605 3 3.85725 3 4.16667V7H11.5556V3H4.16667Z" fill="currentColor"/></svg>
