<svg xmlns="http://www.w3.org/2000/svg" viewBox="0 0 20 20"><path d="M2 4.25c0-.966.784-1.75 1.75-1.75.414 0 .75.336.75.75s-.336.75-.75.75c-.138 0-.25.112-.25.25v1.75h1c.552 0 1 .448 1 1v1.5c0 .552-.448 1-1 1h-1.5c-.552 0-1-.448-1-1v-1.5c0-.045.003-.09.009-.134-.006-.038-.009-.077-.009-.116v-2.5Z"/><path d="M12.25 4c-.414 0-.75.336-.75.75s.336.75.75.75h5c.414 0 .75-.336.75-.75s-.336-.75-.75-.75h-5Z"/><path d="M11.5 8.75c0-.414.336-.75.75-.75h5c.414 0 .75.336.75.75s-.336.75-.75.75h-5c-.414 0-.75-.336-.75-.75Z"/><path d="M2.75 12c-.414 0-.75.336-.75.75s.336.75.75.75h14.5c.414 0 .75-.336.75-.75s-.336-.75-.75-.75h-14.5Z"/><path d="M2.75 16c-.414 0-.75.336-.75.75s.336.75.75.75h9.5c.414 0 .75-.336.75-.75s-.336-.75-.75-.75h-9.5Z"/><path d="M8 6v-1.75c0-.138.112-.25.25-.25.414 0 .75-.336.75-.75s-.336-.75-.75-.75c-.966 0-1.75.784-1.75 1.75v2.5c0 .04.003.078.009.116-.006.044-.009.089-.009.134v1.5c0 .552.448 1 1 1h1.5c.552 0 1-.448 1-1v-1.5c0-.552-.448-1-1-1h-1Z"/></svg>