<svg xmlns="http://www.w3.org/2000/svg" viewBox="0 0 20 20"><path d="M4.25 2.5c-.966 0-1.75.784-1.75 1.75v3c0 .966.784 1.75 1.75 1.75h3c.966 0 1.75-.784 1.75-1.75v-3c0-.966-.784-1.75-1.75-1.75h-3Z"/><path d="M11 4.25c0-.414.336-.75.75-.75h5c.414 0 .75.336.75.75s-.336.75-.75.75h-5c-.414 0-.75-.336-.75-.75Z"/><path d="M11.75 6.5c-.414 0-.75.336-.75.75s.336.75.75.75h2.875c.414 0 .75-.336.75-.75s-.336-.75-.75-.75h-2.875Z"/><path d="M11.75 15c-.414 0-.75.336-.75.75s.336.75.75.75h2.875c.414 0 .75-.336.75-.75s-.336-.75-.75-.75h-2.875Z"/><path d="M11.75 12c-.414 0-.75.336-.75.75s.336.75.75.75h5c.414 0 .75-.336.75-.75s-.336-.75-.75-.75h-5Z"/><path d="M4.25 11c-.966 0-1.75.784-1.75 1.75v3c0 .966.784 1.75 1.75 1.75h3c.966 0 1.75-.784 1.75-1.75v-3c0-.966-.784-1.75-1.75-1.75h-3Z"/></svg>