<svg xmlns="http://www.w3.org/2000/svg" viewBox="0 0 16 16"><path d="M3 1.25c-.966 0-1.75.784-1.75 1.75v2c0 .966.784 1.75 1.75 1.75h2c.966 0 1.75-.784 1.75-1.75v-2c0-.966-.784-1.75-1.75-1.75h-2Z"/><path d="M3 9.25c-.966 0-1.75.784-1.75 1.75v2c0 .966.784 1.75 1.75 1.75h2c.966 0 1.75-.784 1.75-1.75v-2c0-.966-.784-1.75-1.75-1.75h-2Z"/><path d="M8 2.75c0-.414.336-.75.75-.75h5.5c.414 0 .75.336.75.75s-.336.75-.75.75h-5.5c-.414 0-.75-.336-.75-.75Z"/><path d="M8.75 4.5c-.414 0-.75.336-.75.75s.336.75.75.75h4.5c.414 0 .75-.336.75-.75s-.336-.75-.75-.75h-4.5Z"/><path d="M8 10.75c0-.414.336-.75.75-.75h5.5c.414 0 .75.336.75.75s-.336.75-.75.75h-5.5c-.414 0-.75-.336-.75-.75Z"/><path d="M8.75 12.5c-.414 0-.75.336-.75.75s.336.75.75.75h3.5c.414 0 .75-.336.75-.75s-.336-.75-.75-.75h-3.5Z"/></svg>