<svg xmlns="http://www.w3.org/2000/svg" viewBox="0 0 20 20"><path fill-rule="evenodd" d="M2 4.75c0-.966.784-1.75 1.75-1.75h3.5c.966 0 1.75.784 1.75 1.75v3.5c0 .966-.784 1.75-1.75 1.75h-3.5c-.966 0-1.75-.784-1.75-1.75v-3.5Zm1.75-.25c-.138 0-.25.112-.25.25v3.5c0 .138.112.25.25.25h3.5c.138 0 .25-.112.25-.25v-3.5c0-.138-.112-.25-.25-.25h-3.5Zm-1.75 7.75c0-.414.336-.75.75-.75h5.5c.414 0 .75.336.75.75s-.336.75-.75.75h-5.5c-.414 0-.75-.336-.75-.75Zm.75 2.25c-.414 0-.75.336-.75.75s.336.75.75.75h2.875c.414 0 .75-.336.75-.75s-.336-.75-.75-.75h-2.875Zm9 0c-.414 0-.75.336-.75.75s.336.75.75.75h2.875c.414 0 .75-.336.75-.75s-.336-.75-.75-.75h-2.875Zm0-2.75c-.414 0-.75.336-.75.75s.336.75.75.75h5.5c.414 0 .75-.336.75-.75s-.336-.75-.75-.75h-5.5Zm1-8.75c-.966 0-1.75.784-1.75 1.75v3.5c0 .966.784 1.75 1.75 1.75h3.5c.966 0 1.75-.784 1.75-1.75v-3.5c0-.966-.784-1.75-1.75-1.75h-3.5Zm-.25 1.75c0-.138.112-.25.25-.25h3.5c.138 0 .25.112.25.25v3.5c0 .138-.112.25-.25.25h-3.5c-.138 0-.25-.112-.25-.25v-3.5Z"/></svg>