<svg viewBox="0 0 20 20" xmlns="http://www.w3.org/2000/svg"><path d="M7.25 6.5a.75.75 0 0 0 0 1.5h5.5a.75.75 0 0 0 0-1.5h-5.5Z" fill="currentColor"/><path d="M6.5 10a.75.75 0 0 1 .75-.75h5.5a.75.75 0 0 1 0 1.5h-5.5a.75.75 0 0 1-.75-.75Z" fill="currentColor"/><path d="M7.25 12a.75.75 0 0 0 0 1.5h3.5a.75.75 0 0 0 0-1.5h-3.5Z" fill="currentColor"/><path fill-rule="evenodd" d="M7.25 3.5a3.75 3.75 0 0 0-3.75 3.75v5.5a3.75 3.75 0 0 0 3.75 3.75h5.5a3.75 3.75 0 0 0 3.75-3.75v-5.5a3.75 3.75 0 0 0-3.75-3.75h-5.5Zm-2.25 3.75a2.25 2.25 0 0 1 2.25-2.25h5.5a2.25 2.25 0 0 1 2.25 2.25v5.5a2.25 2.25 0 0 1-2.25 2.25h-5.5a2.25 2.25 0 0 1-2.25-2.25v-5.5Z" fill="currentColor"/></svg>
