<svg xmlns="http://www.w3.org/2000/svg" viewBox="0 0 16 16"><path fill-rule="evenodd" d="M3.5 1.5c-1.105 0-2 .895-2 2v3c0 1.105.895 2 2 2h3c1.105 0 2-.895 2-2v-3c0-1.105-.895-2-2-2h-3Zm3 1.5h-3c-.276 0-.5.224-.5.5v3c0 .276.224.5.5.5h3c.276 0 .5-.224.5-.5v-3c0-.276-.224-.5-.5-.5Z"/><path d="M1.5 13.75c0-.414.336-.75.75-.75h8.5c.414 0 .75.336.75.75s-.336.75-.75.75h-8.5c-.414 0-.75-.336-.75-.75Z"/><path d="M2.25 9.5c-.414 0-.75.336-.75.75s.336.75.75.75h11.5c.414 0 .75-.336.75-.75s-.336-.75-.75-.75h-11.5Z"/><path d="M9.25 6.75c0-.414.336-.75.75-.75h3.75c.414 0 .75.336.75.75s-.336.75-.75.75h-3.75c-.414 0-.75-.336-.75-.75Z"/><path d="M10 2.5c-.414 0-.75.336-.75.75s.336.75.75.75h3.75c.414 0 .75-.336.75-.75s-.336-.75-.75-.75h-3.75Z"/></svg>