<svg xmlns="http://www.w3.org/2000/svg" viewBox="0 0 16 16"><path fill-rule="evenodd" d="M4.3 1.25c.274 0 .522.185.625.467l2.475 6.75c.14.384-.025.821-.37.978-.346.156-.74-.028-.88-.412l-.57-1.553c-.05.013-.102.02-.155.02h-2.413l-.562 1.533c-.14.384-.534.568-.88.412-.345-.157-.51-.594-.37-.978l2.475-6.75c.103-.282.35-.467.625-.467Zm.738 4.75-.738-2.012-.738 2.012h1.476Z"/><path d="M1.825 10.5c-.373 0-.675.336-.675.75s.302.75.675.75h10.35c.373 0 .675-.336.675-.75s-.302-.75-.675-.75h-10.35Z"/><path d="M1.825 13c-.373 0-.675.336-.675.75s.302.75.675.75h6.3c.373 0 .675-.336.675-.75s-.302-.75-.675-.75h-6.3Z"/><path fill-rule="evenodd" d="M11.56 3.94c-.41-.279-.893-.44-1.41-.44-1.491 0-2.7 1.343-2.7 3s1.209 3 2.7 3c.517 0 1-.161 1.41-.44.106.26.341.44.615.44.373 0 .675-.336.675-.75v-4.5c0-.414-.302-.75-.675-.75-.274 0-.51.18-.615.44Zm-1.41 4.06c.746 0 1.35-.672 1.35-1.5s-.604-1.5-1.35-1.5c-.746 0-1.35.672-1.35 1.5s.604 1.5 1.35 1.5Z"/></svg>