<svg xmlns="http://www.w3.org/2000/svg" viewBox="0 0 20 20"><path d="M5.75 6c-.414 0-.75.336-.75.75s.336.75.75.75h8.5c.414 0 .75-.336.75-.75s-.336-.75-.75-.75h-8.5Z"/><path d="M5 10.25c0-.414.336-.75.75-.75h8.5c.414 0 .75.336.75.75s-.336.75-.75.75h-8.5c-.414 0-.75-.336-.75-.75Z"/><path d="M5.75 13c-.414 0-.75.336-.75.75s.336.75.75.75h5c.414 0 .75-.336.75-.75s-.336-.75-.75-.75h-5Z"/><path fill-rule="evenodd" d="M5.75 2c-2.071 0-3.75 1.679-3.75 3.75v8.5c0 2.071 1.679 3.75 3.75 3.75h8.5c2.071 0 3.75-1.679 3.75-3.75v-8.5c0-2.071-1.679-3.75-3.75-3.75h-8.5Zm-2.25 3.75c0-1.243 1.007-2.25 2.25-2.25h8.5c1.243 0 2.25 1.007 2.25 2.25v8.5c0 1.243-1.007 2.25-2.25 2.25h-8.5c-1.243 0-2.25-1.007-2.25-2.25v-8.5Z"/></svg>