<svg xmlns="http://www.w3.org/2000/svg" viewBox="0 0 20 20"><path fill-rule="evenodd" d="M5.5 3.5a2 2 0 0 0-2 2v3a2 2 0 0 0 2 2h3a2 2 0 0 0 2-2v-3a2 2 0 0 0-2-2h-3Zm3 1.5h-3a.5.5 0 0 0-.5.5v3a.5.5 0 0 0 .5.5h3a.5.5 0 0 0 .5-.5v-3a.5.5 0 0 0-.5-.5Z"/><path d="M3.5 15.75a.75.75 0 0 1 .75-.75h8.5a.75.75 0 0 1 0 1.5h-8.5a.75.75 0 0 1-.75-.75Z"/><path d="M4.25 11.5a.75.75 0 0 0 0 1.5h11.5a.75.75 0 0 0 0-1.5h-11.5Z"/><path d="M11.25 8.75a.75.75 0 0 1 .75-.75h3.75a.75.75 0 0 1 0 1.5h-3.75a.75.75 0 0 1-.75-.75Z"/><path d="M12 4.5a.75.75 0 0 0 0 1.5h3.75a.75.75 0 0 0 0-1.5h-3.75Z"/></svg>