<svg xmlns="http://www.w3.org/2000/svg" viewBox="0 0 16 16"><path d="M9.75 2c-.414 0-.75.336-.75.75s.336.75.75.75h4.5c.414 0 .75-.336.75-.75s-.336-.75-.75-.75h-4.5Z"/><path d="M9 6.25c0-.414.336-.75.75-.75h4.5c.414 0 .75.336.75.75s-.336.75-.75.75h-4.5c-.414 0-.75-.336-.75-.75Z"/><path d="M1.75 9c-.414 0-.75.336-.75.75s.336.75.75.75h12.5c.414 0 .75-.336.75-.75s-.336-.75-.75-.75h-12.5Z"/><path d="M1.75 12.5c-.414 0-.75.336-.75.75s.336.75.75.75h8.5c.414 0 .75-.336.75-.75s-.336-.75-.75-.75h-8.5Z"/><path d="M1 6.75c0 .552.448 1 1 1h1c.552 0 1-.448 1-1v-1c0-.552-.448-1-1-1h-.5v-1c0-.138.112-.25.25-.25.414 0 .75-.336.75-.75s-.336-.75-.75-.75c-.966 0-1.75.784-1.75 1.75v3Z"/><path d="M6.5 4.75v-1c0-.138.112-.25.25-.25.414 0 .75-.336.75-.75s-.336-.75-.75-.75c-.966 0-1.75.784-1.75 1.75v3c0 .552.448 1 1 1h1c.552 0 1-.448 1-1v-1c0-.552-.448-1-1-1h-.5Z"/></svg>