<svg xmlns="http://www.w3.org/2000/svg" viewBox="0 0 16 16"><path fill-rule="evenodd" d="M1 3.75c0-.966.784-1.75 1.75-1.75h3.25c.966 0 1.75.784 1.75 1.75v3c0 .966-.784 1.75-1.75 1.75h-3.25c-.966 0-1.75-.784-1.75-1.75v-3Zm1.75-.25c-.138 0-.25.112-.25.25v3c0 .138.112.25.25.25h3.25c.138 0 .25-.112.25-.25v-3c0-.138-.112-.25-.25-.25h-3.25Z"/><path d="M1 10.5c0-.414.336-.75.75-.75h5.25c.414 0 .75.336.75.75s-.336.75-.75.75h-5.25c-.414 0-.75-.336-.75-.75Z"/><path d="M1.75 12.5c-.414 0-.75.336-.75.75s.336.75.75.75h2.625c.414 0 .75-.336.75-.75s-.336-.75-.75-.75h-2.625Z"/><path d="M9 12.5c-.414 0-.75.336-.75.75s.336.75.75.75h2.625c.414 0 .75-.336.75-.75s-.336-.75-.75-.75h-2.625Z"/><path d="M9 9.75c-.414 0-.75.336-.75.75s.336.75.75.75h5.25c.414 0 .75-.336.75-.75s-.336-.75-.75-.75h-5.25Z"/><path fill-rule="evenodd" d="M10 2c-.966 0-1.75.784-1.75 1.75v3c0 .966.784 1.75 1.75 1.75h3.25c.966 0 1.75-.784 1.75-1.75v-3c0-.966-.784-1.75-1.75-1.75h-3.25Zm-.25 1.75c0-.138.112-.25.25-.25h3.25c.138 0 .25.112.25.25v3c0 .138-.112.25-.25.25h-3.25c-.138 0-.25-.112-.25-.25v-3Z"/></svg>