<svg xmlns="http://www.w3.org/2000/svg" viewBox="0 0 20 20"><path fill-rule="evenodd" d="M10.002 2.002c.294 0 .561.172.683.44l5.217 11.496c.171.377.004.822-.373.993-.377.171-.822.004-.993-.373l-1.723-3.795h-5.544c-.026 0-.052-.002-.077-.004l-1.724 3.799c-.171.377-.616.544-.993.373-.377-.171-.544-.616-.373-.993l5.217-11.496c.121-.268.388-.44.683-.44Zm0 2.565 2.13 4.696h-4.261l2.13-4.696Zm-6.677 11.933c-.414 0-.75.336-.75.75s.336.75.75.75h13.35c.414 0 .75-.336.75-.75s-.336-.75-.75-.75h-13.35Z"/></svg>