<svg xmlns="http://www.w3.org/2000/svg" viewBox="0 0 20 20">
  <path d="M10.25 13.75C10.25 13.3358 10.5858 13 11 13H16.5C16.9142 13 17.25 13.3358 17.25 13.75C17.25 14.1642 16.9142 14.5 16.5 14.5H11C10.5858 14.5 10.25 14.1642 10.25 13.75Z"/>
  <path d="M10.25 16.75C10.25 16.3358 10.5858 16 11 16H16.5C16.9142 16 17.25 16.3358 17.25 16.75C17.25 17.1642 16.9142 17.5 16.5 17.5H11C10.5858 17.5 10.25 17.1642 10.25 16.75Z"/>
  <path fill-rule="evenodd" d="M5.56403 14.5L6.44446 12H11.6924C12.2141 12 12.5765 11.4805 12.3962 10.9909L9.68298 3.62163C9.52434 3.19076 9.12605 2.9491 8.72931 3.00905C8.42317 2.95552 8.11399 3.14301 7.9964 3.4769L4.11435 14.5H3.675C3.30221 14.5 3 14.8358 3 15.25C3 15.6642 3.30221 16 3.675 16H4.55279C4.56752 16.0005 4.58221 16.0005 4.59684 16H5.925C6.29779 16 6.6 15.6642 6.6 15.25C6.6 14.8358 6.29779 14.5 5.925 14.5H5.56403ZM8.58506 5.92177L6.97272 10.5H10.2707L8.58506 5.92177Z"/>
</svg>
