<svg xmlns="http://www.w3.org/2000/svg" viewBox="0 0 20 20"><path fill-rule="evenodd" d="M2.5 4.25c0-.966.784-1.75 1.75-1.75h3c.966 0 1.75.784 1.75 1.75v3c0 .966-.784 1.75-1.75 1.75h-3c-.966 0-1.75-.784-1.75-1.75v-3Zm1.75-.25c-.138 0-.25.112-.25.25v3c0 .138.112.25.25.25h3c.138 0 .25-.112.25-.25v-3c0-.138-.112-.25-.25-.25h-3Zm6.75.25c0-.414.336-.75.75-.75h5c.414 0 .75.336.75.75s-.336.75-.75.75h-5c-.414 0-.75-.336-.75-.75Zm.75 2.25c-.414 0-.75.336-.75.75s.336.75.75.75h2.875c.414 0 .75-.336.75-.75s-.336-.75-.75-.75h-2.875Zm0 8.5c-.414 0-.75.336-.75.75s.336.75.75.75h2.875c.414 0 .75-.336.75-.75s-.336-.75-.75-.75h-2.875Zm0-3c-.414 0-.75.336-.75.75s.336.75.75.75h5c.414 0 .75-.336.75-.75s-.336-.75-.75-.75h-5Zm-7.5-1c-.966 0-1.75.784-1.75 1.75v3c0 .966.784 1.75 1.75 1.75h3c.966 0 1.75-.784 1.75-1.75v-3c0-.966-.784-1.75-1.75-1.75h-3Zm-.25 1.75c0-.138.112-.25.25-.25h3c.138 0 .25.112.25.25v3c0 .138-.112.25-.25.25h-3c-.138 0-.25-.112-.25-.25v-3Z"/></svg>