<svg xmlns="http://www.w3.org/2000/svg" viewBox="0 0 20 20"><path fill-rule="evenodd" d="M7 3.25a.75.75 0 0 1 .695.467l2.75 6.75a.75.75 0 0 1-1.39.566l-.632-1.553a.752.752 0 0 1-.173.02h-2.68l-.625 1.533a.75.75 0 1 1-1.39-.566l2.75-6.75a.75.75 0 0 1 .695-.467Zm.82 4.75-.82-2.012-.82 2.012h1.64Z"/><path d="M4.25 12.5a.75.75 0 0 0 0 1.5h11.5a.75.75 0 0 0 0-1.5h-11.5Z"/><path d="M4.25 15a.75.75 0 0 0 0 1.5h7a.75.75 0 0 0 0-1.5h-7Z"/><path fill-rule="evenodd" d="M15.066 5.94a3 3 0 1 0 0 5.118.75.75 0 0 0 1.434-.308v-4.5a.75.75 0 0 0-1.434-.31Zm-1.566 4.06a1.5 1.5 0 1 0 0-3 1.5 1.5 0 0 0 0 3Z"/></svg>