<svg xmlns="http://www.w3.org/2000/svg" viewBox="0 0 20 20"><path fill-rule="evenodd" d="M4.5 2.5c-1.105 0-2 .895-2 2v4c0 1.105.895 2 2 2h4c1.105 0 2-.895 2-2v-4c0-1.105-.895-2-2-2h-4Zm4 1.5h-4c-.276 0-.5.224-.5.5v4c0 .276.224.5.5.5h4c.276 0 .5-.224.5-.5v-4c0-.276-.224-.5-.5-.5Z"/><path d="M2.75 16.75c0-.414.336-.75.75-.75h9.25c.414 0 .75.336.75.75s-.336.75-.75.75h-9.25c-.414 0-.75-.336-.75-.75Z"/><path d="M3.25 12c-.414 0-.75.336-.75.75s.336.75.75.75h13.5c.414 0 .75-.336.75-.75s-.336-.75-.75-.75h-13.5Z"/><path d="M12.25 8.75c0-.414.336-.75.75-.75h3.75c.414 0 .75.336.75.75s-.336.75-.75.75h-3.75c-.414 0-.75-.336-.75-.75Z"/><path d="M13 4c-.414 0-.75.336-.75.75s.336.75.75.75h3.75c.414 0 .75-.336.75-.75s-.336-.75-.75-.75h-3.75Z"/></svg>