<svg xmlns="http://www.w3.org/2000/svg" viewBox="0 0 16 16"><path fill-rule="evenodd" d="M1 2.75c0-.414.336-.75.75-.75h12.5c.414 0 .75.336.75.75s-.336.75-.75.75h-12.5c-.414 0-.75-.336-.75-.75Z"/><path fill-rule="evenodd" d="M3.25 6.25c0-.414.336-.75.75-.75h8c.414 0 .75.336.75.75s-.336.75-.75.75h-8c-.414 0-.75-.336-.75-.75Z"/><path fill-rule="evenodd" d="M1 9.75c0-.414.336-.75.75-.75h12.5c.414 0 .75.336.75.75s-.336.75-.75.75h-12.5c-.414 0-.75-.336-.75-.75Z"/><path fill-rule="evenodd" d="M3.25 13.25c0-.414.336-.75.75-.75h8c.414 0 .75.336.75.75s-.336.75-.75.75h-8c-.414 0-.75-.336-.75-.75Z"/></svg>