<svg xmlns="http://www.w3.org/2000/svg" viewBox="0 0 20 20"><path fill-rule="evenodd" d="M6.505 2.5c.305 0 .58.185.695.467l3.255 7.99c.156.383-.028.821-.412.977-.383.157-.821-.028-.977-.411l-.926-2.273h-3.27l-.925 2.273c-.157.383-.594.568-.978.411-.384-.156-.568-.594-.412-.977l3.256-7.99c.115-.282.39-.467.694-.467Zm1.024 5.25-1.024-2.512-1.023 2.512h2.047Zm-5.029 6c0-.414.336-.75.75-.75h12c.414 0 .75.336.75.75s-.336.75-.75.75h-12c-.414 0-.75-.336-.75-.75Zm16.28.47c.293.293.293.767 0 1.06l-3.5 3.5c-.293.293-.768.293-1.06 0l-1.75-1.75c-.293-.293-.293-.767 0-1.06.292-.293.767-.293 1.06 0l1.22 1.22 2.97-2.97c.293-.293.767-.293 1.06 0Zm-15.53 1.78c-.414 0-.75.336-.75.75s.336.75.75.75h7c.414 0 .75-.336.75-.75s-.336-.75-.75-.75h-7Zm10.898-5.475c.966 0 1.75-.783 1.75-1.75 0-.966-.784-1.75-1.75-1.75-.967 0-1.75.784-1.75 1.75 0 .967.783 1.75 1.75 1.75Zm1.973.833c-.547.419-1.23.667-1.973.667-1.795 0-3.25-1.455-3.25-3.25 0-1.794 1.455-3.25 3.25-3.25.75 0 1.442.255 1.993.683.089-.314.378-.545.721-.545.414 0 .75.336.75.75v4.827c0 .414-.336.75-.75.75-.374 0-.684-.274-.74-.632Z"/></svg>