<svg xmlns="http://www.w3.org/2000/svg" viewBox="0 0 16 16"><path d="M5.25 4.5c-.414 0-.75.336-.75.75s.336.75.75.75h5.5c.414 0 .75-.336.75-.75s-.336-.75-.75-.75h-5.5Z"/><path d="M4.5 8c0-.414.336-.75.75-.75h5.5c.414 0 .75.336.75.75s-.336.75-.75.75h-5.5c-.414 0-.75-.336-.75-.75Z"/><path d="M5.25 10c-.414 0-.75.336-.75.75s.336.75.75.75h3.5c.414 0 .75-.336.75-.75s-.336-.75-.75-.75h-3.5Z"/><path fill-rule="evenodd" d="M5.25 1.5c-2.071 0-3.75 1.679-3.75 3.75v5.5c0 2.071 1.679 3.75 3.75 3.75h5.5c2.071 0 3.75-1.679 3.75-3.75v-5.5c0-2.071-1.679-3.75-3.75-3.75h-5.5Zm-2.25 3.75c0-1.243 1.007-2.25 2.25-2.25h5.5c1.243 0 2.25 1.007 2.25 2.25v5.5c0 1.243-1.007 2.25-2.25 2.25h-5.5c-1.243 0-2.25-1.007-2.25-2.25v-5.5Z"/></svg>