<svg xmlns="http://www.w3.org/2000/svg" viewBox="0 0 20 20"><path fill-rule="evenodd" d="M18 3.25c0-.414-.336-.75-.75-.75h-14.5c-.414 0-.75.336-.75.75s.336.75.75.75h14.5c.414 0 .75-.336.75-.75Z"/><path fill-rule="evenodd" d="M18 7.75c0-.414-.336-.75-.75-.75h-9c-.414 0-.75.336-.75.75s.336.75.75.75h9c.414 0 .75-.336.75-.75Z"/><path fill-rule="evenodd" d="M18 12.25c0-.414-.336-.75-.75-.75h-14.5c-.414 0-.75.336-.75.75s.336.75.75.75h14.5c.414 0 .75-.336.75-.75Z"/><path fill-rule="evenodd" d="M18 16.75c0-.414-.336-.75-.75-.75h-9c-.414 0-.75.336-.75.75s.336.75.75.75h9c.414 0 .75-.336.75-.75Z"/></svg>