<svg viewBox="0 0 20 20" xmlns="http://www.w3.org/2000/svg">
<path fill-rule="evenodd" d="M5.56403 13.9678L6.44446 11.4678H10.8229L10.9712 11.8706C11.1034 12.2294 11.4452 12.4678 11.8276 12.4678C12.4624 12.4678 12.9032 11.8358 12.6839 11.24L9.68298 3.08947C9.52434 2.6586 9.12605 2.41694 8.72931 2.47688C8.42317 2.42336 8.11399 2.61085 7.9964 2.94474L4.11435 13.9678H3.675C3.30221 13.9678 3 14.3036 3 14.7178C3 15.132 3.30221 15.4678 3.675 15.4678H4.55279C4.56752 15.4684 4.58221 15.4684 4.59684 15.4678H5.925C6.29779 15.4678 6.6 15.132 6.6 14.7178C6.6 14.3036 6.29779 13.9678 5.925 13.9678H5.56403ZM8.58506 5.38961L6.97272 9.96783H10.2707L8.58506 5.38961Z"/>
<path d="M9.54268 17.25C9.54268 16.8358 9.87846 16.5 10.2927 16.5H15.7927C16.2069 16.5 16.5427 16.8358 16.5427 17.25C16.5427 17.6642 16.2069 18 15.7927 18H10.2927C9.87846 18 9.54268 17.6642 9.54268 17.25Z"/>
<path d="M9.54268 14.25C9.54268 13.8358 9.87846 13.5 10.2927 13.5H15.7927C16.2069 13.5 16.5427 13.8358 16.5427 14.25C16.5427 14.6642 16.2069 15 15.7927 15H10.2927C9.87846 15 9.54268 14.6642 9.54268 14.25Z"/>
</svg>
