<svg xmlns="http://www.w3.org/2000/svg" viewBox="0 0 16 16"><path fill-rule="evenodd" d="M5.695 1.717c-.116-.282-.39-.467-.695-.467-.305 0-.58.185-.695.467l-2.75 6.75c-.156.384.028.821.412.978.384.156.821-.028.978-.412l.624-1.533h2.681c.06 0 .117-.007.173-.02l.632 1.553c.157.384.594.568.978.412.384-.157.568-.594.412-.978l-2.75-6.75Zm-.695 2.27.82 2.013h-1.64l.82-2.012Z"/><path d="M1.5 11.25c0-.414.336-.75.75-.75h10c.414 0 .75.336.75.75s-.336.75-.75.75h-10c-.414 0-.75-.336-.75-.75Z"/><path d="M1.5 13.75c0-.414.336-.75.75-.75h5c.414 0 .75.336.75.75s-.336.75-.75.75h-5c-.414 0-.75-.336-.75-.75Z"/><path fill-rule="evenodd" d="M11.5 3.5c.574 0 1.11.161 1.566.44.118-.26.38-.44.684-.44.414 0 .75.336.75.75v4.5c0 .414-.336.75-.75.75-.304 0-.566-.18-.684-.44-.456.279-.992.44-1.566.44-1.657 0-3-1.343-3-3s1.343-3 3-3Zm1.5 3c0 .828-.672 1.5-1.5 1.5s-1.5-.672-1.5-1.5.672-1.5 1.5-1.5 1.5.672 1.5 1.5Z"/><path d="M15.78 12.28c.293-.293.293-.767 0-1.06-.293-.293-.767-.293-1.06 0l-2.97 2.97-1.22-1.22c-.293-.293-.767-.293-1.06 0-.293.293-.293.767 0 1.06l1.75 1.75c.293.293.767.293 1.06 0l3.5-3.5Z"/></svg>