<svg xmlns="http://www.w3.org/2000/svg" viewBox="0 0 16 16"><path fill-rule="evenodd" d="M5.25 1.5c-2.071 0-3.75 1.679-3.75 3.75v5.5c0 2.071 1.679 3.75 3.75 3.75h1c.414 0 .75-.336.75-.75s-.336-.75-.75-.75h-1c-1.243 0-2.25-1.007-2.25-2.25v-3.25h5.5v2.75c0 .414.336.75.75.75s.75-.336.75-.75v-7.25h.75c1.243 0 2.25 1.007 2.25 2.25v1c0 .414.336.75.75.75s.75-.336.75-.75v-1c0-2.071-1.679-3.75-3.75-3.75h-5.5Zm3.25 1.5v3h-5.5v-.75c0-1.243 1.007-2.25 2.25-2.25h3.25Z"/><path d="M15.03 10.371c.195-.195.195-.512 0-.707l-1.06-1.06c-.196-.196-.513-.196-.708 0l-.957.956 1.768 1.768.957-.957Z"/><path d="m13.366 12.035-1.768-1.767-2.45 2.449c-.373.373-.583.879-.585 1.407l-.002.698c0 .138.112.251.25.25l.698-.002c.528-.002 1.034-.212 1.408-.586l2.449-2.449Z"/></svg>