<svg xmlns="http://www.w3.org/2000/svg" viewBox="0 0 20 20"><path fill-rule="evenodd" d="M13.75 2.5h-7.5c-2.071 0-3.75 1.679-3.75 3.75v7.5c0 2.071 1.679 3.75 3.75 3.75h5c.414 0 .75-.336.75-.75 0-.043-.004-.084-.01-.125.006-.04.01-.082.01-.125v-12.5h1.75c1.243 0 2.25 1.007 2.25 2.25v2c0 .414.336.75.75.75s.75-.336.75-.75v-2c0-2.071-1.679-3.75-3.75-3.75Zm-9.75 11.25v-4.25h6.5v6.5h-4.25c-1.243 0-2.25-1.007-2.25-2.25Zm0-7.5v1.75h6.5v-4h-4.25c-1.243 0-2.25 1.007-2.25 2.25Z"/><path d="M15 11.033c-.994.177-1.75 1.046-1.75 2.092 0 1.174.951 2.125 2.125 2.125h.75c.345 0 .625.28.625.625s-.28.625-.625.625h-2.125c-.414 0-.75.336-.75.75s.336.75.75.75h1v.25c0 .414.336.75.75.75s.75-.336.75-.75v-.283c.995-.177 1.75-1.046 1.75-2.092 0-1.174-.951-2.125-2.125-2.125h-.75c-.345 0-.625-.28-.625-.625s.28-.625.625-.625h2.125c.414 0 .75-.336.75-.75s-.336-.75-.75-.75h-1v-.5c0-.414-.336-.75-.75-.75s-.75.336-.75.75v.533Z"/></svg>