<svg xmlns="http://www.w3.org/2000/svg" viewBox="0 0 16 16"><path fill-rule="evenodd" d="M5.25 1.5c-2.071 0-3.75 1.679-3.75 3.75v5.5c0 2.071 1.679 3.75 3.75 3.75h4c.414 0 .75-.336.75-.75v-10.75h.75c1.243 0 2.25 1.007 2.25 2.25v1c0 .414.336.75.75.75s.75-.336.75-.75v-1c0-2.071-1.679-3.75-3.75-3.75h-5.5Zm3.25 6v5.5h-3.25c-1.243 0-2.25-1.007-2.25-2.25v-3.25h5.5Zm0-4.5v3h-5.5v-.75c0-1.243 1.007-2.25 2.25-2.25h3.25Z"/><path d="M12 9.107c-.728.257-1.25.952-1.25 1.768 0 1.036.84 1.875 1.875 1.875h.75c.207 0 .375.168.375.375s-.168.375-.375.375h-1.875c-.414 0-.75.336-.75.75s.336.75.75.75h.5v.25c0 .414.336.75.75.75s.75-.336.75-.75v-.254c.977-.064 1.75-.878 1.75-1.871 0-1.036-.84-1.875-1.875-1.875h-.75c-.207 0-.375-.168-.375-.375s.168-.375.375-.375h1.875c.414 0 .75-.336.75-.75s-.336-.75-.75-.75h-1v-.25c0-.414-.336-.75-.75-.75s-.75.336-.75.75v.357Z"/></svg>