<svg xmlns="http://www.w3.org/2000/svg" viewBox="0 0 20 20"><path fill-rule="evenodd" d="M5.75 3c-2.071 0-3.75 1.679-3.75 3.75v7.5c0 2.071 1.679 3.75 3.75 3.75h2.75c.414 0 .75-.336.75-.75s-.336-.75-.75-.75h-2.75c-1.243 0-2.25-1.007-2.25-2.25v-4.25h6.5v3.25c0 .414.336.75.75.75s.75-.336.75-.75v-8.75h1.75c1.243 0 2.25 1.007 2.25 2.25v2c0 .414.336.75.75.75s.75-.336.75-.75v-2c0-2.071-1.679-3.75-3.75-3.75h-7.5Zm4.25 1.5v4h-6.5v-1.75c0-1.243 1.007-2.25 2.25-2.25h4.25Z"/><path d="M18.34 13.067c.193-.196.192-.51-.003-.704l-1.567-1.568c-.194-.194-.508-.195-.703-.004l-1.298 1.27 2.3 2.3 1.271-1.294Z"/><path d="m16.367 15.074-2.313-2.313-2.893 2.83c-.384.376-.601.891-.601 1.43v1.295c0 .14.117.254.258.25l1.379-.042c.515-.015 1.005-.23 1.366-.597l2.804-2.853Z"/></svg>