<svg xmlns="http://www.w3.org/2000/svg" viewBox="0 0 20 20"><path fill-rule="evenodd" d="M7.525 16.508c1.746 1.047 3.753 1.577 5.788 1.528l.544-.013c1.848-.045 3.388-1.429 3.628-3.262l.547-4.17c.216-1.646-1.066-3.106-2.727-3.106h-2.324c-.149 0-.265-.13-.249-.277l.17-1.576c.207-1.94-1.313-3.632-3.264-3.632h-.438c-.523 0-.97.377-1.059.892l-.103.602c-.246 1.428-1.067 2.693-2.271 3.498-.006.004-.013.006-.02.006h-2.497c-.69 0-1.25.56-1.25 1.25v6.49c0 .691.56 1.25 1.25 1.25h2.787c.408 0 .808.111 1.157.321l.331.199Zm5.752.028c-1.751.042-3.478-.414-4.98-1.315l-.331-.198c-.45-.27-.95-.441-1.466-.505v-6.217c.034-.02.068-.04.1-.062 1.547-1.034 2.601-2.658 2.916-4.491l.043-.248h.079c1.06 0 1.885.919 1.772 1.972l-.17 1.576c-.11 1.034.7 1.937 1.74 1.937h2.325c.755 0 1.338.664 1.24 1.412l-.547 4.17c-.144 1.099-1.068 1.93-2.177 1.956l-.544.013Zm-8.277-8.038h-1.5v5.99h1.5v-5.99Z"/></svg>