<svg viewBox="0 0 20 20" xmlns="http://www.w3.org/2000/svg">
  <path fill-rule="evenodd" clip-rule="evenodd" d="M6.685 6a4 4 0 0 0 .911-1.193l.695-1.39A2.563 2.563 0 0 1 10.584 2h.709A1.707 1.707 0 0 1 13 3.707V6h1.405a3 3 0 0 1 2.952 3.537l-.91 5A3 3 0 0 1 13.498 17h-2.094a4 4 0 0 1-2.499-.877L6.25 14H4a1 1 0 0 1-1-1V7a1 1 0 0 1 1-1h2.685Zm3.9-2H11v4h3.405a1 1 0 0 1 .984 1.179l-.909 5a1 1 0 0 1-.984.821h-2.093a2 2 0 0 1-1.25-.438L7 12.039V8.225a6 6 0 0 0 2.385-2.523l.695-1.39A.564.564 0 0 1 10.584 4Z" fill="#5C5F62"/>
</svg>
