<svg xmlns="http://www.w3.org/2000/svg" viewBox="0 0 20 20"><path fill-rule="evenodd" d="M12.559 3.598c-1.746-1.047-3.753-1.577-5.787-1.528l-.545.013c-1.848.044-3.388 1.429-3.628 3.261l-.546 4.17c-.216 1.646 1.066 3.107 2.726 3.107h2.325c.148 0 .264.129.248.277l-.169 1.576c-.208 1.94 1.313 3.632 3.264 3.632h.438c.523 0 .97-.377 1.058-.893l.104-.602c.245-1.428 1.066-2.692 2.27-3.498.006-.004.014-.006.021-.006h2.412c.69 0 1.25-.56 1.25-1.25v-6.49c0-.69-.56-1.25-1.25-1.25h-2.703c-.407 0-.807-.11-1.157-.32l-.331-.2Zm-5.751-.029c1.75-.042 3.477.414 4.98 1.315l.33.199c.45.27.95.44 1.466.505v6.217c-.034.019-.067.04-.1.062-1.547 1.033-2.6 2.657-2.916 4.49l-.042.249h-.08c-1.059 0-1.884-.919-1.771-1.972l.169-1.576c.11-1.035-.7-1.937-1.74-1.937h-2.325c-.755 0-1.337-.664-1.24-1.412l.547-4.17c.144-1.1 1.068-1.93 2.177-1.957l.545-.013Zm8.276 8.038h1.416v-5.99h-1.415v5.99Z"/></svg>