<svg xmlns="http://www.w3.org/2000/svg" viewBox="0 0 16 16"><path fill-rule="evenodd" d="M10.539 12.57c-1.404.034-2.797-.253-4.074-.838l-.307-.141c-.367-.168-.758-.276-1.158-.32v-5.222c.052-.03.102-.063.15-.099 1.286-.965 2.168-2.373 2.475-3.95.826.014 1.465.733 1.378 1.557l-.133 1.26c-.108 1.033.702 1.933 1.74 1.933h1.595c.758 0 1.342.67 1.239 1.42l-.338 2.449c-.151 1.093-1.072 1.916-2.176 1.942l-.391.01Zm-7.039-6.32h-1v5h1v-5Zm2.34 6.845c1.484.68 3.103 1.014 4.735.975l.391-.01c1.839-.043 3.374-1.414 3.626-3.236l.337-2.448c.228-1.653-1.056-3.126-2.724-3.126h-1.594c-.149 0-.264-.129-.249-.276l.133-1.26c.18-1.718-1.167-3.214-2.894-3.214h-.364c-.5 0-.928.357-1.017.849l-.055.303c-.225 1.237-.91 2.343-1.915 3.098h-2c-.69 0-1.25.56-1.25 1.25v5.5c0 .69.56 1.25 1.25 1.25h2.345c.324 0 .644.07.938.205l.307.14Z"/></svg>