<svg viewBox="0 0 20 20" xmlns="http://www.w3.org/2000/svg">
  <path fill-rule="evenodd" d="M13.315 14a4 4 0 0 0-.911 1.193l-.695 1.39A2.563 2.563 0 0 1 9.416 18h-.709A1.707 1.707 0 0 1 7 16.293V14H5.595a3 3 0 0 1-2.952-3.537l.91-5A3 3 0 0 1 6.502 3h2.094a4 4 0 0 1 2.499.877L13.75 6H16a1 1 0 0 1 1 1v6a1 1 0 0 1-1 1h-2.685Zm-3.9 2H9v-4H5.595a1 1 0 0 1-.984-1.179l.909-5A1 1 0 0 1 6.504 5h2.093a2 2 0 0 1 1.25.438L13 7.961v3.814a6 6 0 0 0-2.385 2.523l-.695 1.39a.563.563 0 0 1-.504.312Z" fill="#5C5F62"/>
</svg>
