<svg viewBox="0 0 20 20" xmlns="http://www.w3.org/2000/svg">
  <path fill-rule="evenodd" clip-rule="evenodd" d="m5.867 16.4-1.334-1a2 2 0 0 0-1.2-.4H2a1 1 0 0 1-1-1V6a1 1 0 0 1 1-1h2.528a4 4 0 0 0 3.578-2.211l.185-.372A2.563 2.563 0 0 1 10.584 1h.709A1.707 1.707 0 0 1 13 2.707V6h2.74a3 3 0 0 1 2.99 3.25l-.5 6A3 3 0 0 1 15.24 18h-4.573a8 8 0 0 1-4.8-1.6ZM11 3v5h4.74a1 1 0 0 1 .996 1.083l-.5 6a1 1 0 0 1-.996.917h-4.573a6 6 0 0 1-3.6-1.2l-1.334-1A3.997 3.997 0 0 0 5 13.364V6.98a6 6 0 0 0 4.894-3.298l.186-.372a.564.564 0 0 1 .504-.31H11Z" fill="#5C5F62"/>
  <path fill-rule="evenodd" clip-rule="evenodd" d="m5.867 16.4-1.334-1a2 2 0 0 0-1.2-.4H2a1 1 0 0 1-1-1V6a1 1 0 0 1 1-1h2.528a4 4 0 0 0 3.578-2.211l.185-.372A2.563 2.563 0 0 1 10.584 1h.709A1.707 1.707 0 0 1 13 2.707V6h2.74a3 3 0 0 1 2.99 3.25l-.5 6A3 3 0 0 1 15.24 18h-4.573a8 8 0 0 1-4.8-1.6ZM11 3v5h4.74a1 1 0 0 1 .996 1.083l-.5 6a1 1 0 0 1-.996.917h-4.573a6 6 0 0 1-3.6-1.2l-1.334-1A3.997 3.997 0 0 0 5 13.364V6.98a6 6 0 0 0 4.894-3.298l.186-.372a.564.564 0 0 1 .504-.31H11Z" fill="#5C5F62"/>
</svg>
