<svg xmlns="http://www.w3.org/2000/svg" viewBox="0 0 16 16"><path fill-rule="evenodd" d="M10.16 2.904c-1.484-.68-3.103-1.013-4.735-.974l-.391.01c-1.839.043-3.374 1.414-3.626 3.236l-.337 2.448c-.228 1.652 1.056 3.126 2.724 3.126h1.594c.149 0 .264.128.249.276l-.133 1.26c-.18 1.717 1.167 3.214 2.894 3.214h.364c.5 0 .928-.358 1.017-.85l.055-.302c.225-1.237.91-2.344 1.915-3.098h2c.69 0 1.25-.56 1.25-1.25v-5.5c0-.69-.56-1.25-1.25-1.25h-2.345c-.324 0-.644-.07-.938-.205l-.307-.14Zm-4.699.525c1.404-.033 2.797.254 4.074.839l.307.14c.367.169.758.276 1.158.32v5.223c-.052.03-.102.062-.15.098-1.286.966-2.168 2.373-2.475 3.95-.826-.014-1.465-.732-1.378-1.557l.133-1.26c.108-1.032-.702-1.932-1.74-1.932h-1.595c-.758 0-1.342-.67-1.238-1.421l.337-2.448c.151-1.094 1.072-1.916 2.176-1.942l.391-.01Zm7.039 6.32h1v-5h-1v5Z"/></svg>