<svg viewBox="0 0 20 20" xmlns="http://www.w3.org/2000/svg"><path fill-rule="evenodd" d="M13.049 17c1.49 0 2.79-1.015 3.152-2.461l.595-2.38a3.75 3.75 0 0 0-3.638-4.659h-.54a.25.25 0 0 1-.25-.278l.114-1.015a2.888 2.888 0 0 0-2.87-3.207h-.457a.93.93 0 0 0-.92.789l-.17 1.105a1.919 1.919 0 0 1-1.616 1.606h-1.699a1.75 1.75 0 0 0-1.75 1.75v3.5c0 .966.784 1.75 1.75 1.75h.473c.418 0 .813.192 1.072.521a7.795 7.795 0 0 0 6.129 2.979h.625Zm1.697-2.825a1.749 1.749 0 0 1-1.697 1.325h-.625a6.295 6.295 0 0 1-4.95-2.406c-.14-.178-.3-.338-.474-.476v-4.7a3.419 3.419 0 0 0 2.548-2.796l.095-.622c.812.019 1.438.73 1.348 1.541l-.113 1.016a1.75 1.75 0 0 0 1.74 1.943h.54a2.25 2.25 0 0 1 2.183 2.796l-.595 2.38Zm-9.246-6.175h-.75a.25.25 0 0 0-.25.25v3.5c0 .138.112.25.25.25h.473c.093 0 .185.005.277.013v-4.013Z" fill="#5C5F62"/></svg>