<svg viewBox="0 0 20 20" xmlns="http://www.w3.org/2000/svg"><path fill-rule="evenodd" d="M13.745 5.974a7.537 7.537 0 0 0-6.392-3.073l-.607.025a3.128 3.128 0 0 0-2.905 2.367l-.637 2.547a3.75 3.75 0 0 0 3.638 4.66h.54a.25.25 0 0 1 .25.277l-.114 1.016a2.888 2.888 0 0 0 2.87 3.207h.457a.93.93 0 0 0 .92-.79l.17-1.104a1.918 1.918 0 0 1 1.615-1.606h1.7a1.75 1.75 0 0 0 1.75-1.75v-3.508c0-.962-.78-1.742-1.742-1.742h-.476c-.41 0-.795-.195-1.037-.526Zm-6.33-1.574c2.01-.084 3.93.84 5.12 2.461.136.185.292.351.465.495v4.726a3.419 3.419 0 0 0-2.548 2.796l-.095.621a1.388 1.388 0 0 1-1.348-1.54l.113-1.016a1.75 1.75 0 0 0-1.74-1.943h-.54a2.25 2.25 0 0 1-2.182-2.796l.636-2.547c.175-.7.79-1.202 1.512-1.232l.608-.025Zm7.085 7.6h.75a.25.25 0 0 0 .25-.25v-3.508a.242.242 0 0 0-.242-.242h-.476a2.79 2.79 0 0 1-.282-.014v4.014Z" fill="#5C5F62"/></svg>