<svg viewBox="0 0 20 20" xmlns="http://www.w3.org/2000/svg"><path fill-rule="evenodd" d="M12.695 17a3.75 3.75 0 0 0 3.624-2.784l.554-2.078a3.29 3.29 0 0 0-3.18-4.138.944.944 0 0 1-.943-.944v-1.484a3.072 3.072 0 0 0-3.072-3.072h-.424a1.04 1.04 0 0 0-1.03.902l-.188 1.404a3.238 3.238 0 0 1-1.714 2.444h-1.572a1.75 1.75 0 0 0-1.75 1.75v4c0 .966.784 1.75 1.75 1.75h.352c.357 0 .697.153.934.42l.508.571a3.75 3.75 0 0 0 2.803 1.259h3.348Zm-1.445-9.944a2.444 2.444 0 0 0 2.444 2.444 1.79 1.79 0 0 1 1.73 2.252l-.555 2.078a2.25 2.25 0 0 1-2.174 1.67h-3.348a2.25 2.25 0 0 1-1.681-.755l-.509-.572a2.77 2.77 0 0 0-.157-.163v-5.422a4.738 4.738 0 0 0 2.523-3.584l.134-1.004h.02c.87 0 1.573.704 1.573 1.572v1.484Zm-5.75 1.694h-.75a.25.25 0 0 0-.25.25v4c0 .138.112.25.25.25h.352c.134 0 .267.01.398.029v-4.529Z" fill="#5C5F62"/></svg>