<svg viewBox="0 0 20 20" xmlns="http://www.w3.org/2000/svg">
  <path fill-rule="evenodd" clip-rule="evenodd" d="m14.133 3.6 1.334 1a2 2 0 0 0 1.2.4H18a1 1 0 0 1 1 1v8a1 1 0 0 1-1 1h-2.528a4 4 0 0 0-3.578 2.211l-.185.372A2.563 2.563 0 0 1 9.416 19h-.709A1.707 1.707 0 0 1 7 17.293V14H4.26a3 3 0 0 1-2.99-3.25l.5-6A3 3 0 0 1 4.76 2h4.573a8 8 0 0 1 4.8 1.6ZM9 17v-5H4.26a1 1 0 0 1-.996-1.083l.5-6A1 1 0 0 1 4.76 4h4.573a6 6 0 0 1 3.6 1.2l1.334 1a4 4 0 0 0 .733.436v6.382a6 6 0 0 0-4.894 3.299l-.186.372a.563.563 0 0 1-.504.311H9Z" fill="#5C5F62"/>
</svg>
