<svg viewBox="0 0 20 20" fill="none" xmlns="http://www.w3.org/2000/svg">
<path fill-rule="evenodd" clip-rule="evenodd" d="M4 12C4.55228 12 5 12.4477 5 13L5 16C5 16.5523 4.55228 17 4 17C3.44772 17 3 16.5523 3 16L3 13C3 12.4477 3.44772 12 4 12Z" fill="#5C5F62"/>
<path fill-rule="evenodd" clip-rule="evenodd" d="M8 9C8.55228 9 9 9.44772 9 10L9 16C9 16.5523 8.55229 17 8 17C7.44772 17 7 16.5523 7 16L7 10C7 9.44772 7.44772 9 8 9Z" fill="#5C5F62"/>
<path fill-rule="evenodd" clip-rule="evenodd" d="M12 6C12.5523 6 13 6.44772 13 7V16C13 16.5523 12.5523 17 12 17C11.4477 17 11 16.5523 11 16V7C11 6.44772 11.4477 6 12 6Z" fill="#5C5F62"/>
<path fill-rule="evenodd" clip-rule="evenodd" d="M16 3C16.5523 3 17 3.44772 17 4L17 16C17 16.5523 16.5523 17 16 17C15.4477 17 15 16.5523 15 16L15 4C15 3.44772 15.4477 3 16 3Z" fill="#5C5F62"/>
</svg>
