<svg xmlns="http://www.w3.org/2000/svg" viewBox="0 0 20 20"><path d="M9 7.05c-1.16 0-2.1.94-2.1 2.1 0 1.16.94 2.1 2.1 2.1h2c.331 0 .6.269.6.6 0 .331-.269.6-.6.6h-3.35c-.414 0-.75.336-.75.75s.336.75.75.75h1.15v.15c0 .497.403.9.9.9s.9-.403.9-.9v-.15h.4c1.16 0 2.1-.94 2.1-2.1 0-1.16-.94-2.1-2.1-2.1h-2c-.331 0-.6-.269-.6-.6 0-.331.269-.6.6-.6h3.35c.414 0 .75-.336.75-.75s-.336-.75-.75-.75h-1.15v-.15c0-.497-.403-.9-.9-.9s-.9.403-.9.9v.15h-.4Z"/><path fill-rule="evenodd" d="M5.25 3.5c0-.552.448-1 1-1h7.5c.552 0 1 .448 1 1 0 .288-.121.547-.316.73v.433c0 .38.18.737.483.965.682.511 1.083 1.314 1.083 2.166v6.956c0 1.519-1.231 2.75-2.75 2.75h-6.5c-1.519 0-2.75-1.231-2.75-2.75v-6.956c0-.852.401-1.655 1.083-2.166.304-.228.483-.585.483-.965v-.434c-.195-.182-.316-.441-.316-.729Zm7.684 1h-5.868v.163c0 .852-.401 1.654-1.083 2.165-.304.228-.483.586-.483.966v6.956c0 .69.56 1.25 1.25 1.25h6.5c.69 0 1.25-.56 1.25-1.25v-6.956c0-.38-.179-.738-.483-.966-.681-.51-1.083-1.313-1.083-2.165v-.163Z"/></svg>