<svg xmlns="http://www.w3.org/2000/svg" viewBox="0 0 16 16"><path d="M7.375 5.25c-1.036 0-1.875.84-1.875 1.875 0 1.036.84 1.875 1.875 1.875h1.25c.207 0 .375.168.375.375s-.168.375-.375.375h-2.375c-.414 0-.75.336-.75.75s.336.75.75.75h.75c0 .414.336.75.75.75s.75-.336.75-.75h.125c1.036 0 1.875-.84 1.875-1.875 0-1.036-.84-1.875-1.875-1.875h-1.25c-.207 0-.375-.168-.375-.375s.168-.375.375-.375h2.375c.414 0 .75-.336.75-.75s-.336-.75-.75-.75h-.75c0-.414-.336-.75-.75-.75s-.75.336-.75.75h-.125Z"/><path fill-rule="evenodd" d="M3.75 3.77c0-.187.022-.368.065-.542-.194-.182-.315-.44-.315-.728 0-.552.448-1 1-1h7c.552 0 1 .448 1 1 0 .287-.121.546-.315.728.042.174.065.355.065.542 0 .233.106.455.289.6l.055.044c.572.459.906 1.153.906 1.886v5.45c0 1.519-1.231 2.75-2.75 2.75h-5.5c-1.519 0-2.75-1.231-2.75-2.75v-5.45c0-.733.334-1.427.906-1.886l.055-.043c.183-.146.289-.368.289-.601Zm1.5 0c0-.095.017-.186.049-.27h5.402c.032.084.049.175.049.27 0 .69.313 1.341.852 1.772l.054.044c.218.173.344.436.344.714v5.45c0 .69-.56 1.25-1.25 1.25h-5.5c-.69 0-1.25-.56-1.25-1.25v-5.45c0-.278.126-.54.344-.714l.054-.044c.539-.43.852-1.083.852-1.772Z"/></svg>