<svg width="20" height="20" viewBox="0 0 20 20" fill="none" xmlns="http://www.w3.org/2000/svg">
<path fill-rule="evenodd" clip-rule="evenodd" d="M15.259 12.25C16.6096 12.25 17.4511 10.7849 16.7706 9.61823L16.4767 9.11436C15.9838 8.26951 15.0794 7.75 14.1013 7.75H12.4892L11.1207 5.53935C10.5283 4.58235 9.4829 4 8.35737 4H7.75001C7.53259 4 7.32587 4.09435 7.18342 4.2586C7.04096 4.42285 6.9768 4.64083 7.00754 4.85607L7.42096 7.75H7.28757L7.08317 7.30712C6.7154 6.51028 5.91787 6 5.04026 6L3.75001 6C3.52399 6 3.31002 6.10193 3.16761 6.27744C3.0252 6.45296 2.96953 6.68333 3.01609 6.90451L4.01609 11.6545C4.08916 12.0016 4.39534 12.25 4.75001 12.25H7.42096L7.00754 15.1439C6.9768 15.3592 7.04096 15.5772 7.18342 15.7414C7.32587 15.9057 7.53259 16 7.75001 16H8.35737C9.4829 16 10.5283 15.4177 11.1207 14.4607L12.4892 12.25H15.259ZM10.7251 7.75L9.84533 6.32888C9.57256 5.88825 9.12146 5.59513 8.61754 5.51942L8.93619 7.75H10.7251ZM7.99913 9.25H6.8077C6.51516 9.25 6.24932 9.07991 6.12673 8.81429L5.72123 7.93571C5.59864 7.67009 5.3328 7.5 5.04026 7.5H4.67434L5.35855 10.75H8.28572C8.50314 10.75 8.70986 10.8443 8.85231 11.0086C8.99476 11.1728 9.05893 11.3908 9.02818 11.6061L8.61754 14.4806C9.12146 14.4049 9.57256 14.1117 9.84533 13.6711L11.4337 11.1052C11.5705 10.8844 11.8117 10.75 12.0714 10.75H15.259C15.4519 10.75 15.5721 10.5407 15.4749 10.374L15.181 9.87016C14.957 9.48614 14.5458 9.25 14.1013 9.25L7.99913 9.25C7.99941 9.25 7.99884 9.25 7.99913 9.25Z" fill="#4A4A4A"/>
</svg>
