<svg xmlns="http://www.w3.org/2000/svg" viewBox="0 0 20 20"><path d="M3.5 3.75c0-.414-.336-.75-.75-.75s-.75.336-.75.75v12.5c0 .414.336.75.75.75s.75-.336.75-.75v-9.25h8.94l-1.22 1.22c-.293.293-.293.767 0 1.06.293.293.767.293 1.06 0l2.5-2.5c.141-.14.22-.331.22-.53s-.079-.39-.22-.53l-2.5-2.5c-.293-.293-.767-.293-1.06 0-.293.293-.293.767 0 1.06l1.22 1.22h-8.94v-1.75Z"/><path d="M18 3.75c0-.414-.336-.75-.75-.75s-.75.336-.75.75v9.25h-8.94l1.22-1.22c.293-.293.293-.767 0-1.06-.293-.293-.767-.293-1.06 0l-2.5 2.5c-.141.14-.22.331-.22.53s.079.39.22.53l2.5 2.5c.293.293.767.293 1.06 0 .293-.293.293-.767 0-1.06l-1.22-1.22h8.94v1.75c0 .414.336.75.75.75s.75-.336.75-.75v-12.5Z"/></svg>