<svg xmlns="http://www.w3.org/2000/svg" viewBox="0 0 20 20"><path fill-rule="evenodd" d="M5.25 4c-.69 0-1.25.56-1.25 1.25s.56 1.25 1.25 1.25 1.25-.56 1.25-1.25-.56-1.25-1.25-1.25Zm-2.75 1.25c0-1.519 1.231-2.75 2.75-2.75 1.261 0 2.324.85 2.648 2.007.034-.005.068-.007.102-.007h3.854c.326-1.154 1.387-2 2.646-2 1.519 0 2.75 1.231 2.75 2.75s-1.231 2.75-2.75 2.75c-1.259 0-2.32-.846-2.646-2h-3.854v5c0 1.243 1.007 2.25 2.25 2.25.414 0 .75.336.75.75s-.336.75-.75.75c-2.071 0-3.75-1.679-3.75-3.75v-3.3c-.375.192-.8.3-1.25.3-1.519 0-2.75-1.231-2.75-2.75Zm10.28 3.97c-.293-.293-.767-.293-1.06 0-.293.293-.293.767 0 1.06l2.03 2.03v.19h-1c-.414 0-.75.336-.75.75s.336.75.75.75h1v.75h-1c-.414 0-.75.336-.75.75s.336.75.75.75h1v.75c0 .414.336.75.75.75s.75-.336.75-.75v-.75h1c.414 0 .75-.336.75-.75s-.336-.75-.75-.75h-1v-.75h1c.414 0 .75-.336.75-.75s-.336-.75-.75-.75h-1v-.19l2.03-2.03c.293-.293.293-.767 0-1.06-.293-.293-.767-.293-1.06 0l-1.72 1.72-1.72-1.72Zm.47-3.97c0-.69.56-1.25 1.25-1.25s1.25.56 1.25 1.25-.56 1.25-1.25 1.25-1.25-.56-1.25-1.25Z"/></svg>