<svg xmlns="http://www.w3.org/2000/svg" viewBox="0 0 16 16"><path d="M2.5 2.75c0-.414-.336-.75-.75-.75s-.75.336-.75.75v10.5c0 .414.336.75.75.75s.75-.336.75-.75v-6.75h6.94l-.72.72c-.293.293-.293.767 0 1.06.293.293.767.293 1.06 0l2-2c.293-.293.293-.767 0-1.06l-2-2c-.293-.293-.767-.293-1.06 0-.293.293-.293.767 0 1.06l.72.72h-6.94v-2.25Z"/><path d="M15 2.75c0-.414-.336-.75-.75-.75s-.75.336-.75.75v7.25h-6.94l.72-.72c.293-.293.293-.767 0-1.06-.293-.293-.767-.293-1.06 0l-2 2c-.293.293-.293.767 0 1.06l2 2c.293.293.767.293 1.06 0 .293-.293.293-.767 0-1.06l-.72-.72h6.94v1.75c0 .414.336.75.75.75s.75-.336.75-.75v-10.5Z"/></svg>