<svg xmlns="http://www.w3.org/2000/svg" viewBox="0 0 20 20"><path fill-rule="evenodd" d="M2.5 5.25c0-1.519 1.231-2.75 2.75-2.75 1.261 0 2.324.85 2.648 2.007.034-.005.068-.007.102-.007h3.854c.326-1.154 1.387-2 2.646-2 1.519 0 2.75 1.231 2.75 2.75s-1.231 2.75-2.75 2.75c-1.259 0-2.32-.846-2.646-2h-3.854v4.5c0 1.243 1.007 2.25 2.25 2.25.414 0 .75.336.75.75s-.336.75-.75.75c-2.071 0-3.75-1.679-3.75-3.75v-2.8c-.375.192-.8.3-1.25.3-1.519 0-2.75-1.231-2.75-2.75Zm2.75-1.25c-.69 0-1.25.56-1.25 1.25s.56 1.25 1.25 1.25 1.25-.56 1.25-1.25-.56-1.25-1.25-1.25Zm8 1.25c0-.69.56-1.25 1.25-1.25s1.25.56 1.25 1.25-.56 1.25-1.25 1.25-1.25-.56-1.25-1.25Z"/><path d="M15.498 10.908c-.372.213-.806.736-.95 1.81h2.202c.414 0 .75.336.75.75 0 .415-.336.75-.75.75h-2.21c.135 1.117.578 1.656.958 1.874.46.264 1.05.197 1.505-.206.31-.274.784-.245 1.059.065.274.31.245.784-.065 1.059-.878.777-2.163 1.004-3.245.383-.947-.543-1.573-1.633-1.72-3.175h-.282c-.414 0-.75-.335-.75-.75 0-.414.336-.75.75-.75h.29c.156-1.508.778-2.575 1.712-3.111 1.082-.621 2.367-.394 3.245.383.31.275.34.749.065 1.059-.275.31-.749.34-1.059.065-.455-.403-1.046-.47-1.505-.206Z"/></svg>