<svg xmlns="http://www.w3.org/2000/svg" viewBox="0 0 20 20"><path fill-rule="evenodd" d="M6.25 2.5c-2.071 0-3.75 1.679-3.75 3.75v7.5c0 2.071 1.679 3.75 3.75 3.75h7.5c2.071 0 3.75-1.679 3.75-3.75v-7.5c0-2.071-1.679-3.75-3.75-3.75h-7.5Zm-2.25 3.75c0-1.243 1.007-2.25 2.25-2.25h.5v2.25c0 .414.336.75.75.75s.75-.336.75-.75v-2.25h5.5c1.243 0 2.25 1.007 2.25 2.25v7.5c0 1.243-1.007 2.25-2.25 2.25h-5.5v-2.25c0-.414-.336-.75-.75-.75s-.75.336-.75.75v2.25h-.5c-1.243 0-2.25-1.007-2.25-2.25v-3.25h7.94l-1.72 1.72c-.293.293-.293.767 0 1.06.293.293.767.293 1.06 0l3-3c.293-.293.293-.767 0-1.06l-3-3c-.293-.293-.767-.293-1.06 0-.293.293-.293.767 0 1.06l1.72 1.72h-7.94v-2.75Z"/></svg>