<svg xmlns="http://www.w3.org/2000/svg" viewBox="0 0 16 16"><path fill-rule="evenodd" d="M4.25 1.5c-1.519 0-2.75 1.231-2.75 2.75v7.5c0 1.519 1.231 2.75 2.75 2.75h7.5c1.519 0 2.75-1.231 2.75-2.75v-7.5c0-1.519-1.231-2.75-2.75-2.75h-7.5Zm-1.25 7h6.44l-1.22 1.22c-.293.293-.293.767 0 1.06.293.293.767.293 1.06 0l2.5-2.5c.293-.293.293-.767 0-1.06l-2.5-2.5c-.293-.293-.767-.293-1.06 0-.293.293-.293.767 0 1.06l1.22 1.22h-6.44v-2.75c0-.69.56-1.25 1.25-1.25h.5v2c0 .414.336.75.75.75s.75-.336.75-.75v-2h5.5c.69 0 1.25.56 1.25 1.25v7.5c0 .69-.56 1.25-1.25 1.25h-5.5v-2c0-.414-.336-.75-.75-.75s-.75.336-.75.75v2h-.5c-.69 0-1.25-.56-1.25-1.25v-3.25Z"/></svg>