<svg xmlns="http://www.w3.org/2000/svg" viewBox="0 0 20 20"><path fill-rule="evenodd" d="M2.5 5.25c0-1.519 1.231-2.75 2.75-2.75 1.261 0 2.324.85 2.648 2.007.034-.005.068-.007.102-.007h3.854c.326-1.154 1.387-2 2.646-2 1.519 0 2.75 1.231 2.75 2.75s-1.231 2.75-2.75 2.75c-1.259 0-2.32-.846-2.646-2h-3.854v4.5c0 1.243 1.007 2.25 2.25 2.25.414 0 .75.336.75.75s-.336.75-.75.75c-2.071 0-3.75-1.679-3.75-3.75v-2.8c-.375.192-.8.3-1.25.3-1.519 0-2.75-1.231-2.75-2.75Zm2.75-1.25c-.69 0-1.25.56-1.25 1.25s.56 1.25 1.25 1.25 1.25-.56 1.25-1.25-.56-1.25-1.25-1.25Zm8 1.25c0-.69.56-1.25 1.25-1.25s1.25.56 1.25 1.25-.56 1.25-1.25 1.25-1.25-.56-1.25-1.25Z"/><path d="M13.25 10.75c0-.966.784-1.75 1.75-1.75h1c.69 0 1.25.56 1.25 1.25v1.25c0 .414-.336.75-.75.75s-.75-.336-.75-.75v-1h-.75c-.138 0-.25.112-.25.25v2h.5c.414 0 .75.336.75.75s-.336.75-.75.75h-.5v2h1.75c.414 0 .75.336.75.75s-.336.75-.75.75h-3.75c-.414 0-.75-.336-.75-.75s.336-.75.75-.75h.5v-2h-.5c-.414 0-.75-.336-.75-.75s.336-.75.75-.75h.5v-2Z"/></svg>