<svg xmlns="http://www.w3.org/2000/svg" viewBox="0 0 20 20"><path fill-rule="evenodd" d="M4 5.25a2.25 2.25 0 0 1 4.372-.75h3.256a2.251 2.251 0 1 1 0 1.5h-2.878v5.25c0 .69.56 1.25 1.25 1.25h.25a.75.75 0 0 1 0 1.5h-.25a2.75 2.75 0 0 1-2.75-2.75v-3.984a2.25 2.25 0 0 1-3.25-2.016Zm2.25-.75a.75.75 0 1 0 0 1.5.75.75 0 0 0 0-1.5Zm7.5 0a.75.75 0 1 0 0 1.5.75.75 0 0 0 0-1.5Z"/><path d="M15 8.75a1.75 1.75 0 0 0-1.75 1.75v2h-.5a.75.75 0 0 0 0 1.5h.5v1.5h-.5a.75.75 0 0 0 0 1.5h3.5a.75.75 0 0 0 0-1.5h-1.5v-1.5h.5a.75.75 0 0 0 0-1.5h-.5v-2a.25.25 0 0 1 .25-.25h.5v1a.75.75 0 0 0 1.5 0v-1.25c0-.69-.56-1.25-1.25-1.25h-.75Z"/></svg>