<svg xmlns="http://www.w3.org/2000/svg" viewBox="0 0 16 16"><path fill-rule="evenodd" d="M2 3.25c0-1.243 1.007-2.25 2.25-2.25.98 0 1.813.626 2.122 1.5h3.256c.309-.874 1.142-1.5 2.122-1.5 1.243 0 2.25 1.007 2.25 2.25s-1.007 2.25-2.25 2.25c-.98 0-1.813-.626-2.122-1.5h-2.878v5.25c0 .69.56 1.25 1.25 1.25h.25c.414 0 .75.336.75.75s-.336.75-.75.75h-.25c-1.519 0-2.75-1.231-2.75-2.75v-3.984c-.301.15-.64.234-1 .234-1.243 0-2.25-1.007-2.25-2.25Zm2.25-.75c-.414 0-.75.336-.75.75s.336.75.75.75.75-.336.75-.75-.336-.75-.75-.75Zm7.5 0c-.414 0-.75.336-.75.75s.336.75.75.75.75-.336.75-.75-.336-.75-.75-.75Z"/><path d="M12.053 10.468c.128-.823.46-1.207.708-1.356.309-.186.684-.138.959.137.293.293.767.293 1.06 0 .293-.293.293-.768 0-1.06-.725-.727-1.85-.928-2.79-.364-.788.472-1.304 1.385-1.449 2.643h-.291c-.414 0-.75.336-.75.75 0 .415.336.75.75.75h.291c.145 1.258.661 2.172 1.448 2.644.941.564 2.066.363 2.791-.363.293-.293.293-.768 0-1.06-.292-.294-.767-.294-1.06 0-.275.273-.65.322-.96.136-.248-.149-.579-.533-.707-1.357h1.697c.414 0 .75-.335.75-.75 0-.414-.336-.75-.75-.75h-1.697Z"/></svg>