<svg xmlns="http://www.w3.org/2000/svg" viewBox="0 0 20 20"><path fill-rule="evenodd" d="M4 5.25a2.25 2.25 0 0 1 4.372-.75h3.256a2.251 2.251 0 1 1 0 1.5h-2.878v5.25c0 .69.56 1.25 1.25 1.25h.25a.75.75 0 0 1 0 1.5h-.25a2.75 2.75 0 0 1-2.75-2.75v-3.984a2.25 2.25 0 0 1-3.25-2.016Zm2.25-.75a.75.75 0 1 0 0 1.5.75.75 0 0 0 0-1.5Zm7.5 0a.75.75 0 1 0 0 1.5.75.75 0 0 0 0-1.5Z"/><path d="M14.053 12.468c.128-.823.46-1.207.708-1.357.309-.185.684-.136.959.138a.75.75 0 1 0 1.06-1.06c-.725-.727-1.85-.928-2.79-.364-.788.472-1.304 1.385-1.449 2.643h-.291a.75.75 0 0 0 0 1.5h.291c.145 1.258.661 2.172 1.448 2.644.941.564 2.066.363 2.791-.363a.75.75 0 0 0-1.06-1.06c-.275.273-.65.322-.96.136-.248-.149-.579-.533-.707-1.357h1.697a.75.75 0 0 0 0-1.5h-1.697Z"/></svg>