<svg xmlns="http://www.w3.org/2000/svg" viewBox="0 0 16 16"><path fill-rule="evenodd" d="M4.25 1c-1.243 0-2.25 1.007-2.25 2.25s1.007 2.25 2.25 2.25c.36 0 .699-.084 1-.234v3.984c0 1.519 1.231 2.75 2.75 2.75h.25c.414 0 .75-.336.75-.75s-.336-.75-.75-.75h-.25c-.69 0-1.25-.56-1.25-1.25v-5.25h2.878c.309.874 1.142 1.5 2.122 1.5 1.243 0 2.25-1.007 2.25-2.25s-1.007-2.25-2.25-2.25c-.98 0-1.813.626-2.122 1.5h-3.256c-.309-.874-1.142-1.5-2.122-1.5Zm-.75 2.25c0-.414.336-.75.75-.75s.75.336.75.75-.336.75-.75.75-.75-.336-.75-.75Zm7.5 0c0-.414.336-.75.75-.75s.75.336.75.75-.336.75-.75.75-.75-.336-.75-.75Z"/><path d="M10.994 7.186c-.312-.273-.786-.242-1.058.07-.273.312-.242.786.07 1.058l1.744 1.526v.41h-1c-.414 0-.75.336-.75.75s.336.75.75.75h1v.5h-1c-.414 0-.75.336-.75.75s.336.75.75.75h1v.5c0 .414.336.75.75.75s.75-.336.75-.75v-.5h1c.414 0 .75-.336.75-.75s-.336-.75-.75-.75h-1v-.5h1c.414 0 .75-.336.75-.75s-.336-.75-.75-.75h-1v-.41l1.744-1.526c.312-.272.343-.746.07-1.058-.272-.312-.746-.343-1.058-.07l-1.506 1.317-1.506-1.317Z"/></svg>