<svg xmlns="http://www.w3.org/2000/svg" viewBox="0 0 16 16"><path fill-rule="evenodd" d="M2 3.25c0-1.243 1.007-2.25 2.25-2.25.98 0 1.813.626 2.122 1.5h3.256c.309-.874 1.142-1.5 2.122-1.5 1.243 0 2.25 1.007 2.25 2.25s-1.007 2.25-2.25 2.25c-.98 0-1.813-.626-2.122-1.5h-2.878v5.25c0 .69.56 1.25 1.25 1.25h.25c.414 0 .75.336.75.75s-.336.75-.75.75h-.25c-1.519 0-2.75-1.231-2.75-2.75v-3.984c-.301.15-.64.234-1 .234-1.243 0-2.25-1.007-2.25-2.25Zm2.25-.75c-.414 0-.75.336-.75.75s.336.75.75.75.75-.336.75-.75-.336-.75-.75-.75Zm7.5 0c-.414 0-.75.336-.75.75s.336.75.75.75.75-.336.75-.75-.336-.75-.75-.75Z"/><path d="M13 6.75c-.966 0-1.75.784-1.75 1.75v2h-.5c-.414 0-.75.336-.75.75s.336.75.75.75h.5v1.5h-.5c-.414 0-.75.336-.75.75s.336.75.75.75h3.5c.414 0 .75-.336.75-.75s-.336-.75-.75-.75h-1.5v-1.5h.5c.414 0 .75-.336.75-.75s-.336-.75-.75-.75h-.5v-2c0-.138.112-.25.25-.25h.5v1c0 .414.336.75.75.75s.75-.336.75-.75v-1.25c0-.69-.56-1.25-1.25-1.25h-.75Z"/></svg>