<svg xmlns="http://www.w3.org/2000/svg" viewBox="0 0 20 20"><path fill-rule="evenodd" d="M5.25 2.5c-1.519 0-2.75 1.231-2.75 2.75s1.231 2.75 2.75 2.75c.45 0 .875-.108 1.25-.3v2.8c0 2.071 1.679 3.75 3.75 3.75.414 0 .75-.336.75-.75s-.336-.75-.75-.75c-1.243 0-2.25-1.007-2.25-2.25v-4.5h3.854c.326 1.154 1.387 2 2.646 2 1.519 0 2.75-1.231 2.75-2.75s-1.231-2.75-2.75-2.75c-1.259 0-2.32.846-2.646 2h-3.854c-.034 0-.068.002-.102.007-.324-1.158-1.387-2.007-2.648-2.007Zm-1.25 2.75c0-.69.56-1.25 1.25-1.25s1.25.56 1.25 1.25-.56 1.25-1.25 1.25-1.25-.56-1.25-1.25Zm10.5-1.25c-.69 0-1.25.56-1.25 1.25s.56 1.25 1.25 1.25 1.25-.56 1.25-1.25-.56-1.25-1.25-1.25Z"/><path d="M16.156 16.37c.348.223.449.687.225 1.036-.224.348-.688.449-1.037.225l-3.035-1.951c-.766-.493-.417-1.68.494-1.68.66 0 1.197-.536 1.197-1.197v-.053h-1.5c-.414 0-.75-.336-.75-.75s.336-.75.75-.75h1.5v-.75h-1.5c-.414 0-.75-.336-.75-.75s.336-.75.75-.75h4.25c.414 0 .75.336.75.75s-.336.75-.75.75h-1.25v.75h1.25c.414 0 .75.336.75.75s-.336.75-.75.75h-1.25v.053c0 .978-.521 1.835-1.301 2.308l1.957 1.258Z"/></svg>