<svg xmlns="http://www.w3.org/2000/svg" viewBox="0 0 16 16"><path fill-rule="evenodd" d="M4.25 1c-1.243 0-2.25 1.007-2.25 2.25s1.007 2.25 2.25 2.25c.36 0 .699-.084 1-.234v3.984c0 1.519 1.231 2.75 2.75 2.75h.25c.414 0 .75-.336.75-.75s-.336-.75-.75-.75h-.25c-.69 0-1.25-.56-1.25-1.25v-5.25h2.878c.309.874 1.142 1.5 2.122 1.5 1.243 0 2.25-1.007 2.25-2.25s-1.007-2.25-2.25-2.25c-.98 0-1.813.626-2.122 1.5h-3.256c-.309-.874-1.142-1.5-2.122-1.5Zm-.75 2.25c0-.414.336-.75.75-.75s.75.336.75.75-.336.75-.75.75-.75-.336-.75-.75Zm7.5 0c0-.414.336-.75.75-.75s.75.336.75.75-.336.75-.75.75-.75-.336-.75-.75Z"/><path d="M14.143 13.611c.353.217.463.68.246 1.032-.217.353-.68.463-1.032.246l-2.814-1.732c-.769-.473-.433-1.657.469-1.657.463 0 .852-.32.96-.75h-1.222c-.414 0-.75-.336-.75-.75s.336-.75.75-.75h1.25v-.75h-1.25c-.414 0-.75-.336-.75-.75s.336-.75.75-.75h3.5c.414 0 .75.336.75.75s-.336.75-.75.75h-.75v.75h.75c.414 0 .75.336.75.75s-.336.75-.75.75h-.761c-.071.748-.474 1.4-1.06 1.807l1.714 1.054Z"/></svg>