<svg viewBox="0 0 20 20" xmlns="http://www.w3.org/2000/svg"><path d="M1.282 13.469a.506.506 0 01-.132-.814l1.093-1.087a1.537 1.537 0 011.084-.447h2.43L7.72 9.168 1.328 6.342a.507.507 0 01-.154-.823l1.972-1.96a1.538 1.538 0 011.357-.422l7.855 1.42 2.98-2.964a2.174 2.174 0 013.027.038 2.15 2.15 0 01.038 3.01L15.39 7.638l1.442 8.607a1.52 1.52 0 01-.662 1.518l-1.736 1.151a.512.512 0 01-.75-.216l-2.898-6.482-1.964 1.953v2.417c0 .404-.162.791-.45 1.077L7.28 18.75a.512.512 0 01-.818-.132l-1.726-3.433-3.453-1.716z" fill="#5C5F62"/></svg>