<svg xmlns="http://www.w3.org/2000/svg" viewBox="0 0 20 20"><path fill-rule="evenodd" d="M6.25 2.25c-2.21 0-4 1.79-4 4v7.5c0 2.21 1.79 4 4 4h7.5c2.21 0 4-1.79 4-4v-7.5c0-2.21-1.79-4-4-4h-7.5Zm-2 4c0-1.105.895-2 2-2h.25v2c0 .552.448 1 1 1s1-.448 1-1v-2h5.25c1.105 0 2 .895 2 2v7.5c0 1.105-.895 2-2 2h-5.25v-2c0-.552-.448-1-1-1s-1 .448-1 1v2h-.25c-1.105 0-2-.895-2-2v-3h7.086l-1.293 1.293c-.39.39-.39 1.024 0 1.414.39.39 1.024.39 1.414 0l3-3c.39-.39.39-1.024 0-1.414l-3-3c-.39-.39-1.024-.39-1.414 0-.39.39-.39 1.024 0 1.414l1.293 1.293h-7.086v-2.5Z" clip-rule="evenodd"/></svg>