<svg xmlns="http://www.w3.org/2000/svg" viewBox="0 0 20 20"><path fill="#5C5F62" d="M13.717 13.3772C13.6362 13.3336 13.5378 13.3379 13.461 13.3884C12.88 13.7703 12.291 13.9639 11.7102 13.9639C11.3981 13.9639 11.13 13.8942 10.8894 13.7502C10.7259 13.6534 10.574 13.4841 10.5196 13.337C10.4667 13.1972 10.4673 12.8207 10.4681 12.2996L10.4684 9.12248H13.1081C13.2462 9.12248 13.3581 9.01053 13.3581 8.87248V6.64009C13.3581 6.50204 13.2462 6.39009 13.1081 6.39009H10.4684V3.75C10.4684 3.61195 10.3565 3.5 10.2184 3.5H8.44009C8.31369 3.5 8.20719 3.59435 8.19189 3.71985C8.11759 4.3313 7.97899 4.83899 7.77954 5.22964C7.58504 5.61464 7.32189 5.94969 6.99699 6.22589C6.7367 6.44789 6.2911 6.66269 5.6725 6.86434C5.5696 6.89789 5.5 6.99379 5.5 7.10204V8.87253C5.5 9.01058 5.6119 9.12253 5.75 9.12253H7.19764V13.2558C7.19764 13.8649 7.26224 14.3232 7.39524 14.6571C7.53074 14.9964 7.77129 15.3158 8.11039 15.6068C8.44394 15.8926 8.84989 16.1161 9.31828 16.2717C9.77238 16.4198 10.134 16.5 10.7438 16.5C11.2593 16.5 11.7507 16.4465 12.2045 16.341C12.6505 16.237 13.1553 16.053 13.7049 15.7944C13.7925 15.7531 13.8484 15.665 13.8484 15.5682V13.5973C13.8483 13.5054 13.7979 13.4209 13.717 13.3772Z"/></svg>
