<svg xmlns="http://www.w3.org/2000/svg" viewBox="0 0 20 20"><path fill-rule="evenodd" fill="#5C5F62" d="M14.8026 6.57895C15.3295 6.51474 15.9174 6.32158 16.3816 6.11579C16.3368 6.18271 16.2944 6.24726 16.2534 6.3097C15.9769 6.73052 15.7631 7.05585 15.3195 7.36842C15.3253 7.47789 15.3289 7.85158 15.3289 7.96316C15.3289 11.3589 12.7274 15 7.96053 15C6.49737 15 4.89632 14.6616 3.75 13.9353C3.89915 13.9527 4.0001 13.951 4.12675 13.9489C4.17216 13.9482 4.22088 13.9474 4.27632 13.9474C5.49105 13.9474 7.07316 13.5826 7.96053 12.8947C6.82632 12.8726 5.17 12.3342 4.84053 11.3158C5.6446 11.3158 5.97709 11.181 6.18812 11.0954C6.2434 11.073 6.29035 11.0539 6.33526 11.0416C5.15053 10.8058 4.27632 9.96 4.27632 8.71421V8.68421C4.62632 8.87316 5.43053 9.19737 5.85526 9.21053C5.15895 8.74842 4.27947 7.77684 4.27947 6.81947C4.27947 6.35 4.40579 5.90579 4.63053 5.52632C5.90789 7.08053 7.96053 8.68421 10.0658 8.68421V7.63158C10.0658 6.21316 11.0642 5 12.4958 5C13.2411 5 13.9137 5.22211 14.3853 5.7221C14.9758 5.60842 15.8811 5.29421 16.3816 5C16.1884 5.59895 15.3384 6.26105 14.8026 6.57895Z"/></svg>
