<svg viewBox="0 0 20 20" xmlns="http://www.w3.org/2000/svg"><path fill-rule="evenodd" d="M7.82402 0.580706L11.7546 11.5863C11.8967 11.9843 12.2737 12.25 12.6963 12.25H13.125C13.6082 12.25 14 12.6418 14 13.125C14 13.6082 13.6082 14 13.125 14H8.75C8.26675 14 7.875 13.6082 7.875 13.125C7.875 12.6418 8.26675 12.25 8.75 12.25V12.25C8.99775 12.25 9.17071 12.0046 9.08739 11.7712L8.32087 9.625H3.92913L3.16261 11.7712C3.07929 12.0046 3.25225 12.25 3.5 12.25V12.25C3.98325 12.25 4.375 12.6418 4.375 13.125C4.375 13.6082 3.98325 14 3.5 14H0.875C0.391751 14 0 13.6082 0 13.125C0 12.6418 0.391751 12.25 0.875 12.25V12.25C1.02994 12.25 1.16816 12.1526 1.22027 12.0067L5.30098 0.580706C5.42535 0.232462 5.75521 0 6.125 0H7C7.36979 0 7.69965 0.232462 7.82402 0.580706ZM4.55413 7.875L6.125 3.47656L7.69587 7.875H4.55413Z" fill="#5C5F62"/></svg>
