<svg xmlns="http://www.w3.org/2000/svg" viewBox="0 0 20 20"><path fill-rule="evenodd" d="M10 7.25c-.69 0-1.25.56-1.25 1.25a.75.75 0 0 1-1.5 0 2.75 2.75 0 1 1 3.758 2.56.61.61 0 0 0-.226.147.154.154 0 0 0-.032.046.75.75 0 0 1-1.5-.003c0-.865.696-1.385 1.208-1.586a1.25 1.25 0 0 0-.458-2.414Zm.75 4.003v.002-.002Z"/><path d="M10 14.5a1 1 0 1 0 0-2 1 1 0 0 0 0 2Z"/><path fill-rule="evenodd" d="M4 5.75a2.75 2.75 0 0 1 2.75-2.75h6.5a2.75 2.75 0 0 1 2.75 2.75v8.5a2.75 2.75 0 0 1-2.75 2.75h-6.5a2.75 2.75 0 0 1-2.75-2.75v-8.5Zm2.75-1.25c-.69 0-1.25.56-1.25 1.25v8.5c0 .69.56 1.25 1.25 1.25h6.5c.69 0 1.25-.56 1.25-1.25v-8.5c0-.69-.56-1.25-1.25-1.25h-6.5Z"/></svg>