<svg xmlns="http://www.w3.org/2000/svg" viewBox="0 0 20 20"><path fill-rule="evenodd" d="M10 7.25c-.69 0-1.25.56-1.25 1.25 0 .414-.336.75-.75.75s-.75-.336-.75-.75c0-1.519 1.231-2.75 2.75-2.75s2.75 1.231 2.75 2.75c0 1.164-.723 2.158-1.742 2.56-.103.04-.182.097-.226.147-.022.024-.03.04-.032.046-.001.413-.337.747-.75.747-.414 0-.75-.336-.75-.75 0-.865.696-1.385 1.208-1.586.465-.184.792-.636.792-1.164 0-.69-.56-1.25-1.25-1.25Z"/><path d="M11 13.5c0 .552-.448 1-1 1s-1-.448-1-1 .448-1 1-1 1 .448 1 1Z"/><path fill-rule="evenodd" d="M5.75 2c-1.519 0-2.75 1.231-2.75 2.75v10.5c0 1.519 1.231 2.75 2.75 2.75h8.5c1.519 0 2.75-1.231 2.75-2.75v-10.5c0-1.519-1.231-2.75-2.75-2.75h-8.5Zm-1.25 2.75c0-.69.56-1.25 1.25-1.25h8.5c.69 0 1.25.56 1.25 1.25v10.5c0 .69-.56 1.25-1.25 1.25h-8.5c-.69 0-1.25-.56-1.25-1.25v-10.5Z"/></svg>