<svg width="20" height="20" viewBox="0 0 20 20" fill="none" xmlns="http://www.w3.org/2000/svg">
<path fill-rule="evenodd" clip-rule="evenodd" d="M4.5 6.5C4.5 4.567 6.067 3 8 3C9.933 3 11.5 4.567 11.5 6.5C11.5 8.433 9.933 10 8 10C6.067 10 4.5 8.433 4.5 6.5ZM12.7513 17H12C11.4477 17 11 16.5523 11 16V13C11 12.6077 11.2259 12.2681 11.5548 12.1043C11.6889 12.0376 11.84 12 12 12H15.5V10.25C15.5 9.83579 15.1642 9.5 14.75 9.5C14.3358 9.5 14 9.83579 14 10.25C14 10.6642 13.6642 11 13.25 11C12.8358 11 12.5 10.6642 12.5 10.25C12.5 9.00736 13.5074 8 14.75 8C15.9926 8 17 9.00736 17 10.25V12C17.5523 12 18 12.4477 18 13V16C18 16.5523 17.5523 17 17 17H12.7513ZM10.6053 11.5665C10.2319 11.9299 10 12.4379 10 13V16C10 16.3643 10.0974 16.7058 10.2676 17H9.41374C9.3809 17.0044 9.34738 17.0067 9.31334 17.0067H3.38385C2.97603 17.0067 2.57874 16.8398 2.3098 16.5287C2.02854 16.2033 1.91498 15.7452 2.06926 15.2863C2.39215 14.3258 3.16392 13.0395 4.43144 12.129C5.18766 11.5858 6.1102 11.1848 7.19302 11.0618C7.45854 11.0212 7.72799 11 7.99999 11C8.91487 11 9.80087 11.1992 10.6053 11.5665Z" fill="#4A4A4A"/>
</svg>
