<svg width="20" height="20" viewBox="0 0 20 20" fill="none" xmlns="http://www.w3.org/2000/svg">
<path fill-rule="evenodd" clip-rule="evenodd" d="M8 4.5C6.89543 4.5 6 5.39543 6 6.5C6 7.60457 6.89543 8.5 8 8.5C9.10457 8.5 10 7.60457 10 6.5C10 5.39543 9.10457 4.5 8 4.5ZM4.5 6.5C4.5 4.567 6.067 3 8 3C9.933 3 11.5 4.567 11.5 6.5C11.5 8.433 9.933 10 8 10C6.067 10 4.5 8.433 4.5 6.5ZM14.75 9.5C15.1642 9.5 15.5 9.83579 15.5 10.25V12H12C11.4477 12 11 12.4477 11 13V16C11 16.5523 11.4477 17 12 17H17C17.5523 17 18 16.5523 18 16V13C18 12.4477 17.5523 12 17 12V10.25C17 9.00736 15.9926 8 14.75 8C13.5074 8 12.5 9.00736 12.5 10.25C12.5 10.6642 12.8358 11 13.25 11C13.6642 11 14 10.6642 14 10.25C14 9.83579 14.3358 9.5 14.75 9.5ZM12.5 13.5V15.5H16.5V13.5H12.5ZM5.30652 13.3473C4.44355 13.9672 3.87354 14.8269 3.58861 15.5067H9.31334C9.72755 15.5067 10.0633 15.8424 10.0633 16.2567C10.0633 16.6709 9.72755 17.0067 9.31334 17.0067H3.38385C2.97603 17.0067 2.57874 16.8398 2.3098 16.5287C2.02854 16.2033 1.91498 15.7452 2.06926 15.2863C2.39215 14.3258 3.16392 13.0395 4.43144 12.129C5.72865 11.1973 7.51525 10.6837 9.76082 11.2747C10.1614 11.3801 10.4007 11.7903 10.2953 12.1909C10.1898 12.5914 9.77966 12.8307 9.37908 12.7253C7.58111 12.2521 6.25315 12.6674 5.30652 13.3473Z" fill="#4A4A4A"/>
</svg>
