<svg xmlns="http://www.w3.org/2000/svg" viewBox="0 0 16 16"><path fill-rule="evenodd" d="M4.01 4.01c.122-1.406 1.302-2.51 2.74-2.51h5c1.519 0 2.75 1.231 2.75 2.75v5c0 1.438-1.104 2.618-2.51 2.74-.122 1.406-1.302 2.51-2.74 2.51h-5c-.675 0-1.293-.243-1.771-.646-.066-.04-.129-.09-.186-.147-.057-.057-.106-.12-.147-.186-.403-.478-.646-1.096-.646-1.771v-5c0-1.438 1.104-2.618 2.51-2.74Zm1.515-.01h3.725c.675 0 1.293.243 1.771.646.066.04.129.09.186.147.057.057.106.12.147.186.403.478.646 1.096.646 1.771v3.725c.57-.116 1-.62 1-1.225v-5c0-.69-.56-1.25-1.25-1.25h-5c-.605 0-1.11.43-1.225 1Zm-1.275 1.5h4.836l-6.086 6.086v-4.836c0-.69.56-1.25 1.25-1.25Zm5 7.5h-4.836l6.086-6.086v4.836c0 .69-.56 1.25-1.25 1.25Z"/></svg>