<svg xmlns="http://www.w3.org/2000/svg" viewBox="0 0 20 20"><path fill-rule="evenodd" d="M11.75 2.5c1.519 0 2.75 1.231 2.75 2.75v.25h.25c1.519 0 2.75 1.231 2.75 2.75v6.5c0 1.519-1.231 2.75-2.75 2.75h-6.5c-1.519 0-2.75-1.231-2.75-2.75v-.25h-.25c-1.519 0-2.75-1.231-2.75-2.75v-6.5c0-1.519 1.231-2.75 2.75-2.75h6.5Zm-3.5 3h4.75v-.25c0-.69-.56-1.25-1.25-1.25h-6.5c-.69 0-1.25.56-1.25 1.25v6.5c0 .69.56 1.25 1.25 1.25h.25v-4.75c0-1.519 1.231-2.75 2.75-2.75Zm6.336 1.5-7.586 7.586v-6.336c0-.69.56-1.25 1.25-1.25h6.336Zm-6.172 9 7.586-7.586v6.336c0 .69-.56 1.25-1.25 1.25h-6.336Z"/></svg>