<svg xmlns="http://www.w3.org/2000/svg" viewBox="0 0 20 20"><path fill-rule="evenodd" d="M13.5 10c0 1.933-1.567 3.5-3.5 3.5s-3.5-1.567-3.5-3.5 1.567-3.5 3.5-3.5 3.5 1.567 3.5 3.5Zm-1.5 0c0 1.105-.895 2-2 2s-2-.895-2-2 .895-2 2-2 2 .895 2 2Z"/><path fill-rule="evenodd" d="M10 3.25c-2.875 0-5.057 1.376-6.5 2.85-.721.738-1.27 1.51-1.64 2.174-.187.332-.333.646-.435.921-.094.257-.175.545-.175.805s.08.548.175.805c.102.276.248.588.434.92.372.665.92 1.437 1.641 2.175 1.443 1.474 3.625 2.85 6.5 2.85 2.876 0 5.057-1.376 6.5-2.85.721-.738 1.27-1.51 1.64-2.175.187-.332.333-.644.435-.92.094-.257.175-.545.175-.805s-.08-.548-.175-.805c-.102-.275-.248-.589-.434-.92-.372-.665-.92-1.437-1.641-2.175-1.443-1.474-3.624-2.85-6.5-2.85Zm-7.25 6.753v-.006c.004-.018.018-.108.083-.282.07-.19.18-.43.335-.708.31-.555.78-1.22 1.404-1.857 1.249-1.276 3.067-2.4 5.428-2.4 2.361 0 4.18 1.124 5.428 2.4.624.637 1.094 1.302 1.404 1.857.155.277.266.519.335.708.065.174.08.264.082.282v.006c-.003.018-.017.108-.082.282-.07.19-.18.43-.335.708-.31.555-.78 1.22-1.404 1.857-1.249 1.276-3.067 2.4-5.428 2.4-2.361 0-4.18-1.124-5.428-2.4-.624-.637-1.094-1.302-1.404-1.857-.155-.277-.266-.519-.335-.708-.065-.174-.08-.264-.082-.282Z"/></svg>