<svg xmlns="http://www.w3.org/2000/svg" viewBox="0 0 20 20"><path fill-rule="evenodd" d="M3.75 12.5c-.966 0-1.75-.783-1.75-1.75v-1.5c0-.966.784-1.75 1.75-1.75h2.01c.414 0 .75.336.75.75s-.336.75-.75.75h-2.01c-.138 0-.25.112-.25.25v1.5c0 .138.112.25.25.25h2.01c.414 0 .75.336.75.75s-.336.75-.75.75h-2.01Zm9.74-.75c0-.414.336-.75.75-.75h2.01c.138 0 .25-.112.25-.25v-1.5c0-.138-.112-.25-.25-.25h-2.01c-.414 0-.75-.336-.75-.75s.336-.75.75-.75h2.01c.967 0 1.75.784 1.75 1.75v1.5c0 .967-.783 1.75-1.75 1.75h-2.01c-.414 0-.75-.336-.75-.75Z"/><path fill-rule="evenodd" d="M10 17.25c.415 0 .75-.336.75-.75v-3.44l.97.97c.293.293.768.293 1.06 0 .293-.293.293-.768 0-1.06l-2.25-2.25c-.14-.141-.33-.22-.53-.22-.199 0-.39.079-.53.22l-2.25 2.25c-.293.293-.293.768 0 1.06.293.293.768.293 1.06 0l.97-.97v3.44c0 .414.336.75.75.75Z"/><path fill-rule="evenodd" d="M10 2.75c.415 0 .75.336.75.75v3.44l.97-.97c.293-.293.768-.293 1.06 0 .293.293.293.768 0 1.06l-2.25 2.25c-.14.141-.33.22-.53.22-.199 0-.39-.079-.53-.22l-2.25-2.25c-.293-.293-.293-.768 0-1.06.293-.293.768-.293 1.06 0l.97.97v-3.44c0-.414.336-.75.75-.75Z"/></svg>