<svg xmlns="http://www.w3.org/2000/svg" viewBox="0 0 16 16"><path d="M5.75 3c0-.966.784-1.75 1.75-1.75h1c.966 0 1.75.784 1.75 1.75v1.76c0 .414-.336.75-.75.75s-.75-.336-.75-.75v-1.76c0-.138-.112-.25-.25-.25h-1c-.138 0-.25.112-.25.25v1.76c0 .414-.336.75-.75.75s-.75-.336-.75-.75v-1.76Z"/><path d="M6.5 10.49c.414 0 .75.336.75.75v1.76c0 .138.112.25.25.25h1c.138 0 .25-.112.25-.25v-1.76c0-.414.336-.75.75-.75s.75.336.75.75v1.76c0 .966-.784 1.75-1.75 1.75h-1c-.966 0-1.75-.784-1.75-1.75v-1.76c0-.414.336-.75.75-.75Z"/><path d="M2 8c0 .414.336.75.75.75h2.44l-.72.72c-.293.293-.293.767 0 1.06.293.293.768.293 1.06 0l2-2c.141-.14.22-.331.22-.53s-.079-.39-.22-.53l-2-2c-.293-.293-.768-.293-1.06 0-.293.293-.293.768 0 1.06l.72.72h-2.44c-.414 0-.75.336-.75.75Z"/><path d="M13.25 8.75c.415 0 .75-.336.75-.75s-.335-.75-.75-.75h-2.44l.72-.72c.294-.292.294-.767 0-1.06-.292-.293-.767-.293-1.06 0l-2 2c-.141.14-.22.331-.22.53s.079.39.22.53l2 2c.293.293.767.293 1.06 0 .293-.293.293-.767 0-1.06l-.72-.72h2.44Z"/></svg>