<svg xmlns="http://www.w3.org/2000/svg" viewBox="0 0 12 12"><path fill-rule="evenodd" d="M8.25 6c0 1.243-1.007 2.25-2.25 2.25s-2.25-1.007-2.25-2.25 1.007-2.25 2.25-2.25 2.25 1.007 2.25 2.25Zm-1.25 0c0 .552-.448 1-1 1s-1-.448-1-1 .448-1 1-1 1 .448 1 1Z"/><path fill-rule="evenodd" d="M.131 5.652c-.18.303-.175.67.014.968.715 1.126 2.762 3.844 5.855 3.844 3.093 0 5.14-2.718 5.855-3.844.189-.298.193-.665.014-.968-.703-1.184-2.756-4.116-5.869-4.116s-5.166 2.932-5.869 4.116Zm2.848 2.35c-.76-.632-1.328-1.374-1.669-1.884.339-.544.911-1.348 1.682-2.034.856-.762 1.864-1.298 3.008-1.298s2.152.536 3.008 1.298c.77.686 1.344 1.49 1.682 2.034-.34.51-.909 1.252-1.67 1.884-.847.704-1.858 1.212-3.02 1.212s-2.173-.508-3.02-1.212Z"/></svg>