<svg xmlns="http://www.w3.org/2000/svg" viewBox="0 0 20 20"><path d="M4 5.75a2.75 2.75 0 0 1 2.75-2.75h6.5a2.75 2.75 0 0 1 2.75 2.75v.875a.75.75 0 0 1-1.5 0v-.875c0-.69-.56-1.25-1.25-1.25h-6.5c-.69 0-1.25.56-1.25 1.25v.875a.75.75 0 0 1-1.5 0v-.875Z"/><path d="M4.75 12.625a.75.75 0 0 1 .75.75v.875c0 .69.56 1.25 1.25 1.25h6.5c.69 0 1.25-.56 1.25-1.25v-.875a.75.75 0 0 1 1.5 0v.875a2.75 2.75 0 0 1-2.75 2.75h-6.5a2.75 2.75 0 0 1-2.75-2.75v-.875a.75.75 0 0 1 .75-.75Z"/><path d="M9.75 10a.75.75 0 0 1-.75.75h-2.44l.72.72a.75.75 0 1 1-1.06 1.06l-2-2a.75.75 0 0 1 0-1.06l2-2a.75.75 0 1 1 1.06 1.06l-.72.72h2.44a.75.75 0 0 1 .75.75Z"/><path d="M11 10.75a.75.75 0 0 1 0-1.5h2.44l-.72-.72a.75.75 0 0 1 1.06-1.06l2 2a.75.75 0 0 1 0 1.06l-2 2a.75.75 0 1 1-1.06-1.06l.72-.72h-2.44Z"/></svg>