<svg xmlns="http://www.w3.org/2000/svg" viewBox="0 0 16 16"><path fill-rule="evenodd" d="M11 8c0 1.657-1.343 3-3 3s-3-1.343-3-3 1.343-3 3-3 3 1.343 3 3Zm-1.5 0c0 .828-.672 1.5-1.5 1.5s-1.5-.672-1.5-1.5.672-1.5 1.5-1.5 1.5.672 1.5 1.5Z"/><path fill-rule="evenodd" d="M8 2c-2.476 0-4.348 1.23-5.577 2.532-.616.652-1.083 1.335-1.4 1.922-.158.294-.283.572-.37.818-.082.227-.153.488-.153.728s.071.501.152.728c.088.246.213.524.371.818.317.587.784 1.27 1.4 1.922 1.229 1.302 3.1 2.532 5.577 2.532 2.476 0 4.348-1.23 5.577-2.532.616-.652 1.083-1.335 1.4-1.922.158-.294.283-.572.37-.818.082-.227.153-.488.153-.728s-.071-.501-.152-.728c-.088-.246-.213-.524-.371-.818-.317-.587-.784-1.27-1.4-1.922-1.229-1.302-3.1-2.532-5.577-2.532Zm-5.999 6.002v-.004c.004-.02.017-.09.064-.223.058-.161.15-.369.278-.608.259-.48.65-1.054 1.17-1.605 1.042-1.104 2.545-2.062 4.487-2.062 1.942 0 3.445.958 4.486 2.062.52.55.912 1.126 1.17 1.605.13.24.221.447.279.608.047.132.06.203.064.223v.004c-.004.02-.017.09-.064.223-.058.161-.15.369-.278.608-.259.48-.65 1.054-1.17 1.605-1.042 1.104-2.545 2.062-4.487 2.062-1.942 0-3.445-.958-4.486-2.062-.52-.55-.912-1.126-1.17-1.605-.13-.24-.221-.447-.279-.608-.047-.132-.06-.203-.064-.223Z"/></svg>