<svg xmlns="http://www.w3.org/2000/svg" viewBox="0 0 20 20"><path fill-rule="evenodd" d="M3 5.75c0-2.071 1.679-3.75 3.75-3.75h6.5c2.071 0 3.75 1.679 3.75 3.75v.375c0 .414-.336.75-.75.75s-.75-.336-.75-.75v-.375c0-1.243-1.007-2.25-2.25-2.25h-6.5c-1.243 0-2.25 1.007-2.25 2.25v.375c0 .414-.336.75-.75.75s-.75-.336-.75-.75v-.375Zm.75 7.375c.414 0 .75.336.75.75v.375c0 1.243 1.007 2.25 2.25 2.25h6.5c1.243 0 2.25-1.007 2.25-2.25v-.375c0-.414.336-.75.75-.75s.75.336.75.75v.375c0 2.071-1.679 3.75-3.75 3.75h-6.5c-2.071 0-3.75-1.679-3.75-3.75v-.375c0-.414.336-.75.75-.75Z"/><path fill-rule="evenodd" d="M10.5 10c0-.414.336-.75.75-.75h3.19l-1.22-1.22c-.293-.292-.293-.767 0-1.06.293-.293.768-.293 1.06 0l2.5 2.5c.141.14.22.331.22.53 0 .2-.079.39-.22.53l-2.5 2.5c-.293.293-.768.293-1.06 0-.293-.292-.293-.767 0-1.06l1.22-1.22h-3.19c-.414 0-.75-.336-.75-.75Z"/><path fill-rule="evenodd" d="M9.5 10c0-.414-.336-.75-.75-.75h-3.19l1.22-1.22c.293-.292.293-.767 0-1.06-.293-.293-.768-.293-1.06 0l-2.5 2.5c-.141.14-.22.331-.22.53 0 .2.079.39.22.53l2.5 2.5c.293.293.768.293 1.06 0 .293-.292.293-.767 0-1.06l-1.22-1.22h3.19c.414 0 .75-.336.75-.75Z"/></svg>