<svg xmlns="http://www.w3.org/2000/svg" viewBox="0 0 16 16"><path d="M2 3.75c0-1.519 1.231-2.75 2.75-2.75h6.5c1.519 0 2.75 1.231 2.75 2.75v.875c0 .414-.336.75-.75.75s-.75-.336-.75-.75v-.875c0-.69-.56-1.25-1.25-1.25h-6.5c-.69 0-1.25.56-1.25 1.25v.875c0 .414-.336.75-.75.75s-.75-.336-.75-.75v-.875Z"/><path d="M2.75 10.625c.414 0 .75.336.75.75v.875c0 .69.56 1.25 1.25 1.25h6.5c.69 0 1.25-.56 1.25-1.25v-.875c0-.414.336-.75.75-.75s.75.336.75.75v.875c0 1.519-1.231 2.75-2.75 2.75h-6.5c-1.519 0-2.75-1.231-2.75-2.75v-.875c0-.414.336-.75.75-.75Z"/><path d="M7.75 8c0 .414-.335.75-.75.75h-2.44l.72.72c.293.293.293.767 0 1.06-.293.293-.767.293-1.06 0l-2-2c-.141-.14-.22-.331-.22-.53s.08-.39.22-.53l2-2c.293-.293.768-.293 1.06 0 .294.293.294.768 0 1.06l-.72.72h2.44c.415 0 .75.336.75.75Z"/><path d="M9 8.75c-.414 0-.75-.336-.75-.75s.336-.75.75-.75h2.44l-.72-.72c-.293-.292-.293-.767 0-1.06.292-.293.767-.293 1.06 0l2 2c.141.14.22.331.22.53s-.079.39-.22.53l-2 2c-.292.293-.767.293-1.06 0-.293-.293-.293-.767 0-1.06l.72-.72h-2.44Z"/></svg>