<svg xmlns="http://www.w3.org/2000/svg" viewBox="0 0 20 20"><path fill-rule="evenodd" d="M7.5 3.75c0-.966.784-1.75 1.75-1.75h1.5c.966 0 1.75.784 1.75 1.75v2.01c0 .414-.336.75-.75.75s-.75-.336-.75-.75v-2.01c0-.138-.112-.25-.25-.25h-1.5c-.138 0-.25.112-.25.25v2.01c0 .414-.336.75-.75.75s-.75-.336-.75-.75v-2.01Zm.75 9.74c.414 0 .75.336.75.75v2.01c0 .138.112.25.25.25h1.5c.138 0 .25-.112.25-.25v-2.01c0-.414.336-.75.75-.75s.75.336.75.75v2.01c0 .966-.784 1.75-1.75 1.75h-1.5c-.966 0-1.75-.784-1.75-1.75v-2.01c0-.414.336-.75.75-.75Z"/><path fill-rule="evenodd" d="M2.75 10c0 .414.336.75.75.75h3.44l-.97.97c-.293.293-.293.767 0 1.06.293.293.768.293 1.06 0l2.25-2.25c.141-.14.22-.331.22-.53s-.079-.39-.22-.53l-2.25-2.25c-.293-.293-.768-.293-1.06 0-.293.293-.293.768 0 1.06l.97.97h-3.44c-.414 0-.75.336-.75.75Z"/><path fill-rule="evenodd" d="M17.25 10c0 .414-.335.75-.75.75h-3.44l.97.97c.293.293.293.767 0 1.06-.293.293-.767.293-1.06 0l-2.25-2.25c-.141-.14-.22-.331-.22-.53s.079-.39.22-.53l2.25-2.25c.293-.293.768-.293 1.06 0 .294.293.294.768 0 1.06l-.97.97h3.44c.415 0 .75.336.75.75Z"/></svg>