<svg viewBox="0 0 20 20" xmlns="http://www.w3.org/2000/svg"><path d="M11 14.414V19a1 1 0 0 1-2 0v-4.586l-1.293 1.293a1 1 0 0 1-1.414-1.414l3-3a1 1 0 0 1 1.414 0l3 3a1 1 0 0 1-1.414 1.414L11 14.414Zm2.707-8.707-3 3a1 1 0 0 1-1.414 0l-3-3a.997.997 0 0 1 .324-1.631.999.999 0 0 1 1.09.217L9 5.586V1a1 1 0 0 1 2 0v4.586l1.293-1.293a1 1 0 1 1 1.414 1.414ZM18 8h-4l2-2h2.5A1.5 1.5 0 0 1 20 7.5v5a1.5 1.5 0 0 1-1.5 1.5H16l-2-2h4V8ZM4 14l2-2H2V8h4L4 6H1.5A1.5 1.5 0 0 0 0 7.5v5A1.5 1.5 0 0 0 1.5 14H4Z" fill="currentColor"/></svg>
