<svg xmlns="http://www.w3.org/2000/svg" viewBox="0 0 16 16"><path d="M7.25 7v-2.44l-.72.72c-.292.293-.767.293-1.06 0-.293-.293-.293-.768 0-1.06l2-2c.14-.141.331-.22.53-.22.2 0 .39.079.53.22l2 2c.293.293.293.767 0 1.06-.292.293-.767.293-1.06 0l-.72-.72v2.44c0 .414-.336.75-.75.75s-.75-.336-.75-.75Z"/><path d="M3.75 14c-1.519 0-2.75-1.231-2.75-2.75v-6.5c0-1.519 1.231-2.75 2.75-2.75h.875c.414 0 .75.336.75.75s-.336.75-.75.75h-.875c-.69 0-1.25.56-1.25 1.25v6.5c0 .69.56 1.25 1.25 1.25h.875c.414 0 .75.336.75.75s-.336.75-.75.75h-.875Z"/><path d="M10.625 13.25c0-.414.336-.75.75-.75h.875c.69 0 1.25-.56 1.25-1.25v-6.5c0-.69-.56-1.25-1.25-1.25h-.875c-.414 0-.75-.336-.75-.75s.336-.75.75-.75h.875c1.519 0 2.75 1.231 2.75 2.75v6.5c0 1.519-1.231 2.75-2.75 2.75h-.875c-.414 0-.75-.336-.75-.75Z"/><path d="M7.25 11.44v-2.44c0-.414.336-.75.75-.75s.75.336.75.75v2.44l.72-.72c.293-.293.768-.293 1.06 0 .293.292.293.767 0 1.06l-2 2c-.14.141-.33.22-.53.22-.199 0-.39-.079-.53-.22l-2-2c-.293-.292-.293-.767 0-1.06.293-.293.768-.293 1.06 0l.72.72Z"/></svg>