<svg xmlns="http://www.w3.org/2000/svg" viewBox="0 0 20 20"><path fill-rule="evenodd" d="M5.75 17c-2.071 0-3.75-1.679-3.75-3.75v-6.5c0-2.071 1.679-3.75 3.75-3.75h.375c.414 0 .75.336.75.75s-.336.75-.75.75h-.375c-1.243 0-2.25 1.007-2.25 2.25v6.5c0 1.243 1.007 2.25 2.25 2.25h.375c.414 0 .75.336.75.75s-.336.75-.75.75h-.375Zm7.375-.75c0-.414.336-.75.75-.75h.375c1.243 0 2.25-1.007 2.25-2.25v-6.5c0-1.243-1.007-2.25-2.25-2.25h-.375c-.414 0-.75-.336-.75-.75s.336-.75.75-.75h.375c2.071 0 3.75 1.679 3.75 3.75v6.5c0 2.071-1.679 3.75-3.75 3.75h-.375c-.414 0-.75-.336-.75-.75Z"/><path fill-rule="evenodd" d="M10 9.5c-.414 0-.75-.336-.75-.75v-3.19l-1.22 1.22c-.292.293-.767.293-1.06 0-.293-.293-.293-.768 0-1.06l2.5-2.5c.14-.141.331-.22.53-.22.2 0 .39.079.53.22l2.5 2.5c.293.293.293.768 0 1.06-.292.293-.767.293-1.06 0l-1.22-1.22v3.19c0 .414-.336.75-.75.75Z"/><path fill-rule="evenodd" d="M10 10.5c-.414 0-.75.336-.75.75v3.19l-1.22-1.22c-.292-.293-.767-.293-1.06 0-.293.293-.293.768 0 1.06l2.5 2.5c.14.141.331.22.53.22.2 0 .39-.079.53-.22l2.5-2.5c.293-.293.293-.768 0-1.06-.292-.293-.767-.293-1.06 0l-1.22 1.22v-3.19c0-.414-.336-.75-.75-.75Z"/></svg>