<svg xmlns="http://www.w3.org/2000/svg" viewBox="0 0 20 20"><path fill="#5C5F62" d="M16.4273 5.3541C16.1985 4.39916 15.1218 4.12925 14.0345 4.29629C13.4768 4.38323 11.5941 5.22445 10.9526 7.24016C12.0876 7.15131 12.6831 7.32263 12.5739 8.58747C12.5276 9.1175 12.2644 9.69732 11.9686 10.2536C11.6285 10.8956 10.9888 12.1541 10.1514 11.2476C9.39725 10.4298 9.4551 8.86842 9.28337 7.82741C9.18603 7.24205 9.08442 6.51583 8.89529 5.91544C8.73376 5.39807 8.36011 4.77622 7.90314 4.63997C7.41299 4.49567 6.80723 4.72309 6.45193 4.93586C5.34541 5.59276 4.51651 6.49777 3.56647 7.27802C3.44658 7.4 3.51757 7.50246 3.55794 7.59322C3.69438 7.80682 3.74709 7.93644 4.00726 7.97451C4.6827 8.07482 5.32501 7.33709 5.77259 8.10607C6.04637 8.57405 6.13179 9.08733 6.30652 9.59148C6.53904 10.2669 6.71966 10.9998 6.91094 11.7749C7.23531 13.0848 7.63103 15.043 8.75116 15.5248C9.3216 15.7687 10.1794 15.4417 10.6134 15.1809C11.7909 14.4748 12.7486 13.4833 13.4937 12.4102C15.433 9.61957 16.3626 6.81554 16.4637 6.28145C16.5356 5.89436 16.4885 5.5749 16.4273 5.3541Z"/></svg>
