<svg xmlns="http://www.w3.org/2000/svg" viewBox="0 0 20 20"><path fill-rule="evenodd" d="M2.5 4.75v10.5c0 1.243 1.007 2.25 2.25 2.25h9.5c1.243 0 2.25-1.007 2.25-2.25v-1.275c.57-.116 1-.62 1-1.225v-2.5c0-.605-.43-1.11-1-1.225v-1.275c0-1.243-1.007-2.25-2.25-2.25h-.25v-.75c0-1.243-1.007-2.25-2.25-2.25h-7c-1.243 0-2.25 1.007-2.25 2.25Zm2.25-.75c-.414 0-.75.336-.75.75v.75h8.5v-.75c0-.414-.336-.75-.75-.75h-7Zm10.25 5v-1.25c0-.414-.336-.75-.75-.75h-10.25v8.25c0 .414.336.75.75.75h9.5c.414 0 .75-.336.75-.75v-1.25h-3.75c-.69 0-1.25-.56-1.25-1.25v-2.5c0-.69.56-1.25 1.25-1.25h3.75Zm-3.5 3.5v-2h4.5v2h-4.5Z"/></svg>