<svg xmlns="http://www.w3.org/2000/svg" viewBox="0 0 16 16"><path fill-rule="evenodd" d="M12.737 1.677c-.683-.684-1.791-.684-2.474 0l-8.586 8.585c-.684.684-.684 1.792 0 2.475l1.586 1.586c.683.684 1.791.684 2.474 0l6.784-6.784.01-.009.008-.009 1.784-1.784c.684-.683.684-1.791 0-2.475l-1.586-1.585Zm-.737 4.262 1.263-1.262c.097-.098.097-.256 0-.354l-1.586-1.586c-.098-.097-.256-.097-.354 0l-1.262 1.263 1.939 1.94Zm-3-.878-6.263 6.262c-.097.098-.097.256 0 .354l1.586 1.585c.098.098.256.098.354 0l6.262-6.262-1.94-1.94Z"/><path d="M12.25 10c.414 0 .75.336.75.75v.75h.75c.414 0 .75.336.75.75s-.336.75-.75.75h-.75v.75c0 .414-.336.75-.75.75s-.75-.336-.75-.75v-.75h-.75c-.414 0-.75-.336-.75-.75s.336-.75.75-.75h.75v-.75c0-.414.336-.75.75-.75Z"/><path d="M4.5 2.25c0-.414-.336-.75-.75-.75s-.75.336-.75.75v.75h-.75c-.414 0-.75.336-.75.75s.336.75.75.75h.75v.75c0 .414.336.75.75.75s.75-.336.75-.75v-.75h.75c.414 0 .75-.336.75-.75s-.336-.75-.75-.75h-.75v-.75Z"/></svg>