<svg xmlns="http://www.w3.org/2000/svg" viewBox="0 0 20 20"><path fill-rule="evenodd" d="M16.065 2.883c-.783-.799-2.069-.8-2.853-.002l-10.286 10.458c-.764.778-.765 2.025 0 2.804l.964.983c.778.793 2.054.8 2.84.014l6.136-6.126 4.212-4.3c.762-.779.762-2.024-.001-2.8l-1.012-1.031Zm-1.784 1.05c.196-.2.518-.2.714 0l1.011 1.03c.19.195.191.506 0 .701l-1.13 1.155-1.6-1.6c-.045-.045-.094-.083-.147-.114l1.152-1.172Zm-2.174 2.21-8.111 8.248c-.191.195-.191.506 0 .701l.964.983c.195.198.514.2.71.003l6.133-6.122 2.023-2.066-1.61-1.61c-.042-.042-.079-.088-.109-.137Z"/><path d="M14.75 12c.414 0 .75.336.75.75v1.25h1.25c.414 0 .75.336.75.75s-.336.75-.75.75h-1.25v1.25c0 .414-.336.75-.75.75s-.75-.336-.75-.75v-1.25h-1.25c-.414 0-.75-.336-.75-.75s.336-.75.75-.75h1.25v-1.25c0-.414.336-.75.75-.75Z"/><path d="M6 3.25c0-.414-.336-.75-.75-.75s-.75.336-.75.75v1.25h-1.25c-.414 0-.75.336-.75.75s.336.75.75.75h1.25v1.25c0 .414.336.75.75.75s.75-.336.75-.75v-1.25h1.25c.414 0 .75-.336.75-.75s-.336-.75-.75-.75h-1.25v-1.25Z"/></svg>