<svg xmlns="http://www.w3.org/2000/svg" viewBox="0 0 20 20"><path d="M10.75 8.25c0-.414-.336-.75-.75-.75s-.75.336-.75.75v1.75c0 .199.079.39.22.53l1.75 1.75c.293.293.767.293 1.06 0 .293-.293.293-.767 0-1.06l-1.53-1.53v-1.44Z"/><path fill-rule="evenodd" d="M8.5 1.5c-.966 0-1.75.784-1.75 1.75v.885c-1.586.437-2.75 1.89-2.75 3.615v4.5c0 1.725 1.164 3.178 2.75 3.615v.885c0 .966.784 1.75 1.75 1.75h3c.966 0 1.75-.784 1.75-1.75v-.885c1.586-.437 2.75-1.89 2.75-3.615v-4.5c0-1.725-1.164-3.178-2.75-3.615v-.885c0-.966-.784-1.75-1.75-1.75h-3Zm3.25 2.5h-3.5v-.75c0-.138.112-.25.25-.25h3c.138 0 .25.112.25.25v.75Zm-3.5 12.75v-.75h3.5v.75c0 .138-.112.25-.25.25h-3c-.138 0-.25-.112-.25-.25Zm-.5-11.25c-1.243 0-2.25 1.007-2.25 2.25v4.5c0 1.243 1.007 2.25 2.25 2.25h4.5c1.243 0 2.25-1.007 2.25-2.25v-4.5c0-1.243-1.007-2.25-2.25-2.25h-4.5Z"/></svg>