<svg xmlns="http://www.w3.org/2000/svg" viewBox="0 0 16 16"><path d="M8.75 6.75c0-.414-.336-.75-.75-.75s-.75.336-.75.75v1.25c0 .199.079.39.22.53l1.25 1.25c.293.293.767.293 1.06 0 .293-.293.293-.767 0-1.06l-1.03-1.03v-.94Z"/><path fill-rule="evenodd" d="M7 1c-.966 0-1.75.784-1.75 1.75v.933c-1.19.628-2 1.878-2 3.317v2c0 1.439.81 2.689 2 3.318v.932c0 .966.784 1.75 1.75 1.75h2c.966 0 1.75-.784 1.75-1.75v-.932c1.19-.63 2-1.879 2-3.318v-2c0-1.439-.81-2.689-2-3.317v-.933c0-.966-.784-1.75-1.75-1.75h-2Zm0 2.25c-.084 0-.167.003-.25.008v-.508c0-.138.112-.25.25-.25h2c.138 0 .25.112.25.25v.508c-.083-.005-.166-.008-.25-.008h-2Zm-.25 10v-.508c.083.005.166.008.25.008h2c.084 0 .167-.003.25-.008v.508c0 .138-.112.25-.25.25h-2c-.138 0-.25-.112-.25-.25Zm.25-8.5c-1.243 0-2.25 1.007-2.25 2.25v2c0 1.243 1.007 2.25 2.25 2.25h2c1.243 0 2.25-1.007 2.25-2.25v-2c0-1.243-1.007-2.25-2.25-2.25h-2Z"/></svg>