<svg xmlns="http://www.w3.org/2000/svg" viewBox="0 0 20 20"><path d="M3.234 7.827c3.725-3.102 9.81-3.102 13.536 0 .318.265.79.221 1.056-.097.265-.318.222-.791-.096-1.056-4.281-3.565-11.175-3.565-15.456 0-.318.265-.361.738-.096 1.056.265.318.738.362 1.056.097Z"/><path d="M14.278 10.312c-2.353-2.082-6.2-2.082-8.552 0-.31.274-.784.245-1.059-.065-.274-.31-.245-.784.065-1.058 2.92-2.585 7.62-2.585 10.54 0 .31.274.339.748.064 1.058-.274.31-.748.34-1.058.065Z"/><path d="M7.747 12.564c1.235-1.085 3.274-1.085 4.51 0 .311.273.785.242 1.058-.069.274-.311.243-.785-.069-1.058-1.801-1.582-4.687-1.582-6.49 0-.31.273-.341.747-.068 1.058.273.311.747.342 1.059.069Z"/><path d="M10.002 13c-.829 0-1.5.672-1.5 1.5 0 .829.671 1.5 1.5 1.5.828 0 1.5-.671 1.5-1.5 0-.828-.672-1.5-1.5-1.5Z"/></svg>