<svg xmlns="http://www.w3.org/2000/svg" viewBox="0 0 20 20"><path d="M3.232 7.826c3.725-3.101 9.811-3.101 13.536 0 .318.265.791.222 1.056-.096s.222-.791-.096-1.056c-4.281-3.565-11.175-3.565-15.456 0-.318.265-.361.738-.096 1.056.265.318.738.361 1.056.096Z"/><path d="M14.276 10.312c-2.352-2.083-6.2-2.083-8.552 0-.31.274-.784.245-1.059-.065-.274-.31-.245-.784.065-1.059 2.92-2.584 7.62-2.584 10.54 0 .31.275.34.749.065 1.06-.275.31-.749.338-1.06.064Z"/><path d="M7.745 12.564c1.236-1.085 3.275-1.085 4.51 0 .311.273.785.242 1.059-.07.273-.31.242-.784-.07-1.058-1.801-1.581-4.687-1.581-6.489 0-.311.274-.342.748-.069 1.059.274.311.748.342 1.059.069Z"/><path d="M10 13c-.829 0-1.5.672-1.5 1.5s.671 1.5 1.5 1.5c.828 0 1.5-.672 1.5-1.5s-.672-1.5-1.5-1.5Z"/></svg>