<svg xmlns="http://www.w3.org/2000/svg" viewBox="0 0 16 16"><path d="M8.965 9.238c.023.083.035.171.035.262v.5c0 .552-.448 1-1 1s-1-.448-1-1v-.5c0-.09.012-.179.035-.262-1.111-.084-2.214-.314-3.278-.69l-.257-.09c-.39-.139-.595-.567-.457-.958.138-.39.566-.595.957-.457l.256.09c2.423.855 5.065.855 7.488 0l.256-.09c.391-.138.82.067.957.457.138.391-.067.82-.457.957l-.257.09c-1.065.377-2.167.607-3.278.69Z"/><path fill-rule="evenodd" d="M4.5 3.5v-.25c0-1.243 1.007-2.25 2.25-2.25h2.5c1.243 0 2.25 1.007 2.25 2.25v.25h.25c1.795 0 3.25 1.455 3.25 3.25v5c0 1.795-1.455 3.25-3.25 3.25h-7.5c-1.795 0-3.25-1.455-3.25-3.25v-5c0-1.795 1.455-3.25 3.25-3.25h.25Zm1.5-.25c0-.414.336-.75.75-.75h2.5c.414 0 .75.336.75.75v.25h-4v-.25Zm-1.75 1.75c-.966 0-1.75.784-1.75 1.75v5c0 .966.784 1.75 1.75 1.75h7.5c.966 0 1.75-.784 1.75-1.75v-5c0-.966-.784-1.75-1.75-1.75h-7.5Z"/></svg>