<svg xmlns="http://www.w3.org/2000/svg" viewBox="0 0 16 16"><path fill-rule="evenodd" d="M4.5 3.5v-.25c0-1.243 1.007-2.25 2.25-2.25h2.5c1.243 0 2.25 1.007 2.25 2.25v.25h.25c1.795 0 3.25 1.455 3.25 3.25v5c0 1.795-1.455 3.25-3.25 3.25h-7.5c-1.795 0-3.25-1.455-3.25-3.25v-5c0-1.795 1.455-3.25 3.25-3.25h.25Zm1.5-.25c0-.414.336-.75.75-.75h2.5c.414 0 .75.336.75.75v.25h-4v-.25Zm-2.84 4.292c.115-.326.472-.496.798-.381l.256.09c2.45.865 5.122.865 7.572 0l.256-.09c.325-.115.683.055.797.381.115.325-.056.682-.381.797l-.256.09c-1.044.369-2.123.596-3.212.682.007.045.01.092.01.139v.75c0 .552-.448 1-1 1s-1-.448-1-1v-.75c0-.047.003-.094.01-.14-1.089-.085-2.168-.312-3.212-.68l-.256-.09c-.326-.116-.496-.473-.381-.798Z"/></svg>