<svg xmlns="http://www.w3.org/2000/svg" viewBox="0 0 20 20"><path d="M10.982 11.313c.012.06.018.123.018.187v.5c0 .552-.448 1-1 1s-1-.448-1-1v-.5c0-.064.006-.126.017-.187-1.031-.08-2.055-.285-3.049-.616l-.705-.236c-.393-.13-.606-.555-.475-.948.131-.393.556-.605.95-.475l.704.236c2.31.77 4.806.77 7.116 0l.705-.236c.393-.13.818.082.948.475.131.393-.08.818-.474.948l-.705.236c-.994.33-2.018.536-3.05.616Z"/><path fill-rule="evenodd" d="M6 5.25v-1c0-1.243 1.007-2.25 2.25-2.25h3.5c1.243 0 2.25 1.007 2.25 2.25v1h.75c1.795 0 3.25 1.455 3.25 3.25v6.3c0 1.795-1.455 3.25-3.25 3.25h-9.5c-1.795 0-3.25-1.455-3.25-3.25v-6.3c0-1.795 1.455-3.25 3.25-3.25h.75Zm1.5-1c0-.414.336-.75.75-.75h3.5c.414 0 .75.336.75.75v1h-5v-1Zm-4 4.25c0-.966.784-1.75 1.75-1.75h9.5c.966 0 1.75.784 1.75 1.75v6.3c0 .966-.784 1.75-1.75 1.75h-9.5c-.966 0-1.75-.784-1.75-1.75v-6.3Z"/></svg>