<svg xmlns="http://www.w3.org/2000/svg" viewBox="0 0 16 16"><path fill-rule="evenodd" d="M4.52 1.83c.543-.213 1.132-.33 1.748-.33 2.633 0 4.768 2.135 4.768 4.768 0 .32-.032.633-.092.936l2.782 2.782c.495.496.774 1.169.774 1.87 0 1.46-1.184 2.644-2.644 2.644-.701 0-1.374-.279-1.87-.774l-2.782-2.782c-.303.06-.616.092-.936.092-2.633 0-4.768-2.135-4.768-4.768 0-.616.117-1.206.33-1.748.094-.236.299-.408.546-.46.248-.051.504.026.683.204l1.646 1.647c.16.16.377.25.603.25.471 0 .853-.382.853-.853 0-.227-.09-.443-.25-.603l-1.646-1.646c-.179-.18-.255-.436-.204-.683.052-.248.224-.453.46-.545Zm1.809 1.17.643.644c.441.441.689 1.04.689 1.664 0 1.299-1.053 2.352-2.353 2.352-.624 0-1.222-.248-1.663-.689l-.644-.644c.031 1.778 1.482 3.209 3.267 3.209.331 0 .65-.05.95-.14.264-.08.552-.008.747.187l3.082 3.082c.215.215.505.335.809.335.632 0 1.144-.512 1.144-1.144 0-.303-.12-.594-.335-.809l-3.082-3.082c-.195-.195-.267-.483-.187-.748.09-.3.14-.618.14-.95 0-1.784-1.43-3.234-3.207-3.266Z"/></svg>