<svg xmlns="http://www.w3.org/2000/svg" viewBox="0 0 20 20"><path fill-rule="evenodd" d="M5.103 2.458c.656-.295 1.383-.458 2.147-.458 2.9 0 5.25 2.35 5.25 5.25 0 .462-.06.91-.172 1.338l4.846 4.847c.326.326.561.731.682 1.176.536 1.972-1.273 3.781-3.245 3.245-.445-.121-.85-.356-1.176-.682l-4.847-4.846c-.427.112-.876.172-1.338.172-2.9 0-5.25-2.35-5.25-5.25 0-.764.164-1.492.459-2.148.1-.225.306-.386.548-.43.243-.045.492.032.666.206l2.032 2.033c.16.16.377.25.603.25.471 0 .853-.382.853-.853 0-.227-.09-.443-.25-.603l-2.032-2.032c-.174-.175-.252-.424-.207-.666.045-.243.206-.448.43-.549Zm1.746 1.063 1.123 1.123c.441.441.69 1.04.69 1.664 0 1.299-1.054 2.352-2.354 2.352-.624 0-1.222-.248-1.663-.689l-1.124-1.123c-.014.132-.021.266-.021.402 0 2.071 1.679 3.75 3.75 3.75.455 0 .889-.08 1.29-.228.274-.1.582-.032.788.174l5.168 5.167c.14.141.316.243.508.295.854.232 1.636-.55 1.404-1.404-.052-.192-.154-.367-.295-.508l-5.167-5.168c-.206-.206-.274-.514-.174-.788.147-.401.228-.835.228-1.29 0-2.071-1.679-3.75-3.75-3.75-.136 0-.27.007-.4.021Z"/></svg>