<svg viewBox="0 0 20 20" xmlns="http://www.w3.org/2000/svg" xmlns:xlink="http://www.w3.org/1999/xlink"><defs><path d="M10 0C4.486 0 0 4.486 0 10s4.486 10 10 10 10-4.486 10-10S15.514 0 10 0zm0 2.5c1.617 0 3.113.52 4.34 1.394L3.893 14.34A7.467 7.467 0 0 1 2.5 10c0-4.136 3.364-7.5 7.5-7.5zm0 15a7.459 7.459 0 0 1-4.34-1.394L16.107 5.66A7.472 7.472 0 0 1 17.5 10c0 4.136-3.364 7.5-7.5 7.5z" id="a"/></defs><g fill="none" fill-rule="evenodd"><circle fill="#FFF" cx="10" cy="10" r="9"/><use fill="#637381" fill-rule="nonzero" xlink:href="#a"/></g></svg>